<?xml version="1.0" encoding="UTF-8" standalone="no"?>
<!DOCTYPE svg PUBLIC "-//W3C//DTD SVG 1.1//EN"
 "http://www.w3.org/Graphics/SVG/1.1/DTD/svg11.dtd">
<!-- Generated by graphviz version 2.40.1 (20161225.0304)
 -->
<!-- Title: oneDegreeRelationshipsDiagram Pages: 1 -->
<svg width="261pt" height="272pt"
 viewBox="0.00 0.00 261.00 272.20" xmlns="http://www.w3.org/2000/svg" xmlns:xlink="http://www.w3.org/1999/xlink">
<g id="graph0" class="graph" transform="scale(1 1) rotate(0) translate(4 268.2)">
<title>oneDegreeRelationshipsDiagram</title>
<polygon fill="#ffffff" stroke="transparent" points="-4,4 -4,-268.2 257,-268.2 257,4 -4,4"/>
<text text-anchor="middle" x="72.4936" y="-7.3" font-family="Helvetica,sans-Serif" font-size="11.00" fill="#000000">Generated by SchemaSpy</text>
<!-- _prisma_migrations -->
<g id="node1" class="node">
<title>_prisma_migrations</title>
<g id="a_node1"><a xlink:href="../../tables/_prisma_migrations.html" xlink:title="_prisma_migrations" target="_top">
<polygon fill="#ffffff" stroke="transparent" points="8,-38.2 8,-260.2 245,-260.2 245,-38.2 8,-38.2"/>
<polygon fill="#f5f5f5" stroke="transparent" points="10.5,-235.2 10.5,-258.2 243.5,-258.2 243.5,-235.2 10.5,-235.2"/>
<polygon fill="none" stroke="#000000" points="10.5,-235.2 10.5,-258.2 243.5,-258.2 243.5,-235.2 10.5,-235.2"/>
<text text-anchor="start" x="15.5" y="-243.8" font-family="Helvetica,sans-Serif" font-weight="bold" font-size="11.00" fill="#000000">_prisma_migrations</text>
<text text-anchor="start" x="208.5437" y="-243.3" font-family="Helvetica,sans-Serif" font-size="11.00" fill="#000000">[table]</text>
<polygon fill="none" stroke="#000000" points="10.5,-213.2 10.5,-235.2 151.5,-235.2 151.5,-213.2 10.5,-213.2"/>
<image xlink:href="../../images/primaryKeys.png" width="11px" height="12px" preserveAspectRatio="xMinYMin meet" x="15.5" y="-230.2"/>
<text text-anchor="start" x="30.5" y="-220.3" font-family="Helvetica,sans-Serif" font-size="11.00" fill="#000000">id</text>
<polygon fill="none" stroke="#000000" points="151.5,-213.2 151.5,-235.2 243.5,-235.2 243.5,-213.2 151.5,-213.2"/>
<text text-anchor="start" x="154.5" y="-220.9" font-family="Helvetica,sans-Serif" font-size="11.00" fill="#000000">varchar[36]</text>
<polygon fill="none" stroke="#000000" points="10.5,-191.2 10.5,-213.2 151.5,-213.2 151.5,-191.2 10.5,-191.2"/>
<text text-anchor="start" x="30.5" y="-198.3" font-family="Helvetica,sans-Serif" font-size="11.00" fill="#000000">checksum</text>
<polygon fill="none" stroke="#000000" points="151.5,-191.2 151.5,-213.2 243.5,-213.2 243.5,-191.2 151.5,-191.2"/>
<text text-anchor="start" x="154.5" y="-198.9" font-family="Helvetica,sans-Serif" font-size="11.00" fill="#000000">varchar[64]</text>
<polygon fill="none" stroke="#000000" points="10.5,-169.2 10.5,-191.2 151.5,-191.2 151.5,-169.2 10.5,-169.2"/>
<text text-anchor="start" x="30.5" y="-176.3" font-family="Helvetica,sans-Serif" font-size="11.00" fill="#000000">finished_at</text>
<polygon fill="none" stroke="#000000" points="151.5,-169.2 151.5,-191.2 243.5,-191.2 243.5,-169.2 151.5,-169.2"/>
<text text-anchor="start" x="154.1023" y="-176.9" font-family="Helvetica,sans-Serif" font-size="11.00" fill="#000000">timestamptz[35,6]</text>
<polygon fill="none" stroke="#000000" points="10.5,-147.2 10.5,-169.2 151.5,-169.2 151.5,-147.2 10.5,-147.2"/>
<text text-anchor="start" x="30.5" y="-154.3" font-family="Helvetica,sans-Serif" font-size="11.00" fill="#000000">migration_name</text>
<polygon fill="none" stroke="#000000" points="151.5,-147.2 151.5,-169.2 243.5,-169.2 243.5,-147.2 151.5,-147.2"/>
<text text-anchor="start" x="154.5" y="-154.9" font-family="Helvetica,sans-Serif" font-size="11.00" fill="#000000">varchar[255]</text>
<polygon fill="none" stroke="#000000" points="10.5,-125.2 10.5,-147.2 151.5,-147.2 151.5,-125.2 10.5,-125.2"/>
<text text-anchor="start" x="30.5" y="-132.3" font-family="Helvetica,sans-Serif" font-size="11.00" fill="#000000">logs</text>
<polygon fill="none" stroke="#000000" points="151.5,-125.2 151.5,-147.2 243.5,-147.2 243.5,-125.2 151.5,-125.2"/>
<text text-anchor="start" x="154.5" y="-132.9" font-family="Helvetica,sans-Serif" font-size="11.00" fill="#000000">text[2147483647]</text>
<polygon fill="none" stroke="#000000" points="10.5,-103.2 10.5,-125.2 151.5,-125.2 151.5,-103.2 10.5,-103.2"/>
<text text-anchor="start" x="30.5" y="-110.3" font-family="Helvetica,sans-Serif" font-size="11.00" fill="#000000">rolled_back_at</text>
<polygon fill="none" stroke="#000000" points="151.5,-103.2 151.5,-125.2 243.5,-125.2 243.5,-103.2 151.5,-103.2"/>
<text text-anchor="start" x="154.1023" y="-110.9" font-family="Helvetica,sans-Serif" font-size="11.00" fill="#000000">timestamptz[35,6]</text>
<polygon fill="none" stroke="#000000" points="10.5,-81.2 10.5,-103.2 151.5,-103.2 151.5,-81.2 10.5,-81.2"/>
<text text-anchor="start" x="30.5" y="-88.3" font-family="Helvetica,sans-Serif" font-size="11.00" fill="#000000">started_at</text>
<polygon fill="none" stroke="#000000" points="151.5,-81.2 151.5,-103.2 243.5,-103.2 243.5,-81.2 151.5,-81.2"/>
<text text-anchor="start" x="154.1023" y="-88.9" font-family="Helvetica,sans-Serif" font-size="11.00" fill="#000000">timestamptz[35,6]</text>
<polygon fill="none" stroke="#000000" points="10.5,-59.2 10.5,-81.2 151.5,-81.2 151.5,-59.2 10.5,-59.2"/>
<text text-anchor="start" x="30.5" y="-66.3" font-family="Helvetica,sans-Serif" font-size="11.00" fill="#000000">applied_steps_count</text>
<polygon fill="none" stroke="#000000" points="151.5,-59.2 151.5,-81.2 243.5,-81.2 243.5,-59.2 151.5,-59.2"/>
<text text-anchor="start" x="154.5" y="-66.9" font-family="Helvetica,sans-Serif" font-size="11.00" fill="#000000">int4[10]</text>
<polygon fill="#ffffff" stroke="transparent" points="10.5,-40.2 10.5,-59.2 72.5,-59.2 72.5,-40.2 10.5,-40.2"/>
<polygon fill="none" stroke="#000000" points="10.5,-40.2 10.5,-59.2 72.5,-59.2 72.5,-40.2 10.5,-40.2"/>
<text text-anchor="start" x="13.5" y="-46.3" font-family="Helvetica,sans-Serif" font-size="11.00" fill="#000000">&lt; 0</text>
<polygon fill="#ffffff" stroke="transparent" points="72.5,-40.2 72.5,-59.2 151.5,-59.2 151.5,-40.2 72.5,-40.2"/>
<polygon fill="none" stroke="#000000" points="72.5,-40.2 72.5,-59.2 151.5,-59.2 151.5,-40.2 72.5,-40.2"/>
<text text-anchor="start" x="116.1105" y="-46.3" font-family="Helvetica,sans-Serif" font-size="11.00" fill="#000000">0 rows</text>
<polygon fill="#ffffff" stroke="transparent" points="151.5,-40.2 151.5,-59.2 243.5,-59.2 243.5,-40.2 151.5,-40.2"/>
<polygon fill="none" stroke="#000000" points="151.5,-40.2 151.5,-59.2 243.5,-59.2 243.5,-40.2 151.5,-40.2"/>
<text text-anchor="start" x="224.9053" y="-46.3" font-family="Helvetica,sans-Serif" font-size="11.00" fill="#000000">0 &gt;</text>
<polygon fill="none" stroke="#000000" stroke-width="2" points="9,-39.2 9,-259.2 244,-259.2 244,-39.2 9,-39.2"/>
</a>
</g>
</g>
</g>
</svg>
