<?xml version="1.0" encoding="UTF-8" standalone="no"?>
<!DOCTYPE svg PUBLIC "-//W3C//DTD SVG 1.1//EN"
 "http://www.w3.org/Graphics/SVG/1.1/DTD/svg11.dtd">
<!-- Generated by graphviz version 2.40.1 (20161225.0304)
 -->
<!-- Title: twoDegreesRelationshipsDiagram Pages: 1 -->
<svg width="555pt" height="431pt"
 viewBox="0.00 0.00 555.00 430.70" xmlns="http://www.w3.org/2000/svg" xmlns:xlink="http://www.w3.org/1999/xlink">
<g id="graph0" class="graph" transform="scale(1 1) rotate(0) translate(4 426.7)">
<title>twoDegreesRelationshipsDiagram</title>
<polygon fill="#ffffff" stroke="transparent" points="-4,4 -4,-426.7 551,-426.7 551,4 -4,4"/>
<text text-anchor="middle" x="72.4936" y="-7.3" font-family="Helvetica,sans-Serif" font-size="11.00" fill="#000000">Generated by SchemaSpy</text>
<!-- event_reminders -->
<g id="node1" class="node">
<title>event_reminders</title>
<g id="a_node1"><a xlink:href="../../tables/event_reminders.html" xlink:title="event_reminders" target="_top">
<polygon fill="#ffffff" stroke="transparent" points="399,-256.7 399,-317.7 539,-317.7 539,-256.7 399,-256.7"/>
<polygon fill="#f5f5f5" stroke="transparent" points="399,-294.2 399,-317.2 539,-317.2 539,-294.2 399,-294.2"/>
<polygon fill="none" stroke="#000000" points="399,-294.2 399,-317.2 539,-317.2 539,-294.2 399,-294.2"/>
<text text-anchor="start" x="404" y="-302.8" font-family="Helvetica,sans-Serif" font-weight="bold" font-size="11.00" fill="#000000">event_reminders</text>
<text text-anchor="start" x="504.5219" y="-302.3" font-family="Helvetica,sans-Serif" font-size="11.00" fill="#000000">[table]</text>
<polygon fill="none" stroke="#000000" points="399,-275.2 399,-294.2 539,-294.2 539,-275.2 399,-275.2"/>
<text text-anchor="start" x="402" y="-281.3" font-family="Helvetica,sans-Serif" font-size="11.00" fill="#000000">...</text>
<polygon fill="#ffffff" stroke="transparent" points="399,-256.2 399,-275.2 454,-275.2 454,-256.2 399,-256.2"/>
<polygon fill="none" stroke="#000000" points="399,-256.2 399,-275.2 454,-275.2 454,-256.2 399,-256.2"/>
<text text-anchor="start" x="402" y="-262.3" font-family="Helvetica,sans-Serif" font-size="11.00" fill="#000000">&lt; 2</text>
<polygon fill="#ffffff" stroke="transparent" points="454,-256.2 454,-275.2 509,-275.2 509,-256.2 454,-256.2"/>
<polygon fill="none" stroke="#000000" points="454,-256.2 454,-275.2 509,-275.2 509,-256.2 454,-256.2"/>
<text text-anchor="start" x="473.6105" y="-262.3" font-family="Helvetica,sans-Serif" font-size="11.00" fill="#000000">0 rows</text>
<polygon fill="#ffffff" stroke="transparent" points="509,-256.2 509,-275.2 539,-275.2 539,-256.2 509,-256.2"/>
<polygon fill="none" stroke="#000000" points="509,-256.2 509,-275.2 539,-275.2 539,-256.2 509,-256.2"/>
<text text-anchor="start" x="529.8862" y="-262.3" font-family="Helvetica,sans-Serif" font-size="11.00" fill="#000000"> &#160;</text>
</a>
</g>
</g>
<!-- event_users -->
<g id="node2" class="node">
<title>event_users</title>
<g id="a_node2"><a xlink:href="../../tables/event_users.html" xlink:title="event_users" target="_top">
<polygon fill="#ffffff" stroke="transparent" points="240,-180.7 240,-329.7 350,-329.7 350,-180.7 240,-180.7"/>
<polygon fill="#f5f5f5" stroke="transparent" points="240,-306.2 240,-329.2 350,-329.2 350,-306.2 240,-306.2"/>
<polygon fill="none" stroke="#000000" points="240,-306.2 240,-329.2 350,-329.2 350,-306.2 240,-306.2"/>
<text text-anchor="start" x="245" y="-314.8" font-family="Helvetica,sans-Serif" font-weight="bold" font-size="11.00" fill="#000000">event_users</text>
<text text-anchor="start" x="315.5219" y="-314.3" font-family="Helvetica,sans-Serif" font-size="11.00" fill="#000000">[table]</text>
<polygon fill="none" stroke="#000000" points="240,-284.2 240,-306.2 350,-306.2 350,-284.2 240,-284.2"/>
<image xlink:href="../../images/primaryKeys.png" width="11px" height="12px" preserveAspectRatio="xMinYMin meet" x="245" y="-301.2"/>
<text text-anchor="start" x="263" y="-291.3" font-family="Helvetica,sans-Serif" font-size="11.00" fill="#000000">user_id</text>
<polygon fill="none" stroke="#000000" points="240,-262.2 240,-284.2 350,-284.2 350,-262.2 240,-262.2"/>
<image xlink:href="../../images/primaryKeys.png" width="11px" height="12px" preserveAspectRatio="xMinYMin meet" x="245" y="-279.2"/>
<text text-anchor="start" x="263" y="-269.3" font-family="Helvetica,sans-Serif" font-size="11.00" fill="#000000">event_id</text>
<polygon fill="none" stroke="#000000" points="240,-240.2 240,-262.2 350,-262.2 350,-240.2 240,-240.2"/>
<image xlink:href="../../images/foreignKeys.png" width="11px" height="12px" preserveAspectRatio="xMinYMin meet" x="245" y="-257.2"/>
<text text-anchor="start" x="263" y="-247.3" font-family="Helvetica,sans-Serif" font-size="11.00" fill="#000000">event_role_id</text>
<polygon fill="none" stroke="#000000" points="240,-218.2 240,-240.2 350,-240.2 350,-218.2 240,-218.2"/>
<image xlink:href="../../images/foreignKeys.png" width="11px" height="12px" preserveAspectRatio="xMinYMin meet" x="245" y="-235.2"/>
<text text-anchor="start" x="263" y="-225.3" font-family="Helvetica,sans-Serif" font-size="11.00" fill="#000000">attendance_id</text>
<polygon fill="none" stroke="#000000" points="240,-199.2 240,-218.2 350,-218.2 350,-199.2 240,-199.2"/>
<text text-anchor="start" x="243" y="-205.3" font-family="Helvetica,sans-Serif" font-size="11.00" fill="#000000">...</text>
<polygon fill="#ffffff" stroke="transparent" points="240,-180.2 240,-199.2 276,-199.2 276,-180.2 240,-180.2"/>
<polygon fill="none" stroke="#000000" points="240,-180.2 240,-199.2 276,-199.2 276,-180.2 240,-180.2"/>
<text text-anchor="start" x="243" y="-186.3" font-family="Helvetica,sans-Serif" font-size="11.00" fill="#000000">&lt; 4</text>
<polygon fill="#ffffff" stroke="transparent" points="276,-180.2 276,-199.2 321,-199.2 321,-180.2 276,-180.2"/>
<polygon fill="none" stroke="#000000" points="276,-180.2 276,-199.2 321,-199.2 321,-180.2 276,-180.2"/>
<text text-anchor="start" x="285.6105" y="-186.3" font-family="Helvetica,sans-Serif" font-size="11.00" fill="#000000">0 rows</text>
<polygon fill="#ffffff" stroke="transparent" points="321,-180.2 321,-199.2 350,-199.2 350,-180.2 321,-180.2"/>
<polygon fill="none" stroke="#000000" points="321,-180.2 321,-199.2 350,-199.2 350,-180.2 321,-180.2"/>
<text text-anchor="start" x="331.4053" y="-186.3" font-family="Helvetica,sans-Serif" font-size="11.00" fill="#000000">2 &gt;</text>
</a>
</g>
</g>
<!-- event_reminders&#45;&gt;event_users -->
<g id="edge1" class="edge">
<title>event_reminders:w&#45;&gt;event_users:e</title>
<path fill="none" stroke="#000000" d="M384.7027,-282.3836C373.2382,-279.2593 366.5655,-273.2 350,-273.2"/>
<polygon fill="#000000" stroke="#000000" points="391.0638,-283.1917 398.5463,-287.7713 395.0319,-283.6958 399,-284.2 399,-284.2 399,-284.2 395.0319,-283.6958 399.4537,-280.6287 391.0638,-283.1917 391.0638,-283.1917"/>
<ellipse fill="none" stroke="#000000" cx="387.8893" cy="-282.7884" rx="3.2" ry="3.2"/>
</g>
<!-- event_reminders&#45;&gt;event_users -->
<g id="edge2" class="edge">
<title>event_reminders:w&#45;&gt;event_users:e</title>
<path fill="none" stroke="#000000" d="M384.7027,-286.0164C373.2382,-289.1407 366.5655,-295.2 350,-295.2"/>
<polygon fill="#000000" stroke="#000000" points="391.0638,-285.2083 399.4537,-287.7713 395.0319,-284.7042 399,-284.2 399,-284.2 399,-284.2 395.0319,-284.7042 398.5463,-280.6287 391.0638,-285.2083 391.0638,-285.2083"/>
<ellipse fill="none" stroke="#000000" cx="387.8893" cy="-285.6116" rx="3.2" ry="3.2"/>
</g>
<!-- attendance -->
<g id="node3" class="node">
<title>attendance</title>
<g id="a_node3"><a xlink:href="../../tables/attendance.html" xlink:title="attendance" target="_top">
<polygon fill="#ffffff" stroke="transparent" points="8,-38.2 8,-172.2 191,-172.2 191,-38.2 8,-38.2"/>
<polygon fill="#f5f5f5" stroke="transparent" points="10.5,-147.2 10.5,-170.2 189.5,-170.2 189.5,-147.2 10.5,-147.2"/>
<polygon fill="none" stroke="#000000" points="10.5,-147.2 10.5,-170.2 189.5,-170.2 189.5,-147.2 10.5,-147.2"/>
<text text-anchor="start" x="15.5" y="-155.8" font-family="Helvetica,sans-Serif" font-weight="bold" font-size="11.00" fill="#000000">attendance</text>
<text text-anchor="start" x="154.5437" y="-155.3" font-family="Helvetica,sans-Serif" font-size="11.00" fill="#000000">[table]</text>
<polygon fill="none" stroke="#000000" points="10.5,-125.2 10.5,-147.2 99.5,-147.2 99.5,-125.2 10.5,-125.2"/>
<text text-anchor="start" x="30.5" y="-132.3" font-family="Helvetica,sans-Serif" font-size="11.00" fill="#000000">created_at</text>
<polygon fill="none" stroke="#000000" points="99.5,-125.2 99.5,-147.2 189.5,-147.2 189.5,-125.2 99.5,-125.2"/>
<text text-anchor="start" x="102.5" y="-132.9" font-family="Helvetica,sans-Serif" font-size="11.00" fill="#000000">timestamp[26,3]</text>
<polygon fill="none" stroke="#000000" points="10.5,-103.2 10.5,-125.2 99.5,-125.2 99.5,-103.2 10.5,-103.2"/>
<text text-anchor="start" x="30.5" y="-110.3" font-family="Helvetica,sans-Serif" font-size="11.00" fill="#000000">updated_at</text>
<polygon fill="none" stroke="#000000" points="99.5,-103.2 99.5,-125.2 189.5,-125.2 189.5,-103.2 99.5,-103.2"/>
<text text-anchor="start" x="102.5" y="-110.9" font-family="Helvetica,sans-Serif" font-size="11.00" fill="#000000">timestamp[26,3]</text>
<polygon fill="none" stroke="#000000" points="10.5,-81.2 10.5,-103.2 99.5,-103.2 99.5,-81.2 10.5,-81.2"/>
<image xlink:href="../../images/primaryKeys.png" width="11px" height="12px" preserveAspectRatio="xMinYMin meet" x="15.5" y="-98.2"/>
<text text-anchor="start" x="30.5" y="-88.3" font-family="Helvetica,sans-Serif" font-size="11.00" fill="#000000">id</text>
<polygon fill="none" stroke="#000000" points="99.5,-81.2 99.5,-103.2 189.5,-103.2 189.5,-81.2 99.5,-81.2"/>
<text text-anchor="start" x="102.5" y="-88.9" font-family="Helvetica,sans-Serif" font-size="11.00" fill="#000000">serial[10]</text>
<polygon fill="#ffffff" stroke="transparent" points="10.5,-59.2 10.5,-81.2 99.5,-81.2 99.5,-59.2 10.5,-59.2"/>
<polygon fill="none" stroke="#000000" points="10.5,-59.2 10.5,-81.2 99.5,-81.2 99.5,-59.2 10.5,-59.2"/>
<text text-anchor="start" x="30.5" y="-66.3" font-family="Helvetica,sans-Serif" font-size="11.00" fill="#000000">name</text>
<polygon fill="none" stroke="#000000" points="99.5,-59.2 99.5,-81.2 189.5,-81.2 189.5,-59.2 99.5,-59.2"/>
<text text-anchor="start" x="102.0042" y="-66.9" font-family="Helvetica,sans-Serif" font-size="11.00" fill="#000000">text[2147483647]</text>
<polygon fill="#ffffff" stroke="transparent" points="10.5,-40.2 10.5,-59.2 46.5,-59.2 46.5,-40.2 10.5,-40.2"/>
<polygon fill="none" stroke="#000000" points="10.5,-40.2 10.5,-59.2 46.5,-59.2 46.5,-40.2 10.5,-40.2"/>
<text text-anchor="start" x="13.5" y="-46.3" font-family="Helvetica,sans-Serif" font-size="11.00" fill="#000000">&lt; 0</text>
<polygon fill="#ffffff" stroke="transparent" points="46.5,-40.2 46.5,-59.2 99.5,-59.2 99.5,-40.2 46.5,-40.2"/>
<polygon fill="none" stroke="#000000" points="46.5,-40.2 46.5,-59.2 99.5,-59.2 99.5,-40.2 46.5,-40.2"/>
<text text-anchor="start" x="64.1105" y="-46.3" font-family="Helvetica,sans-Serif" font-size="11.00" fill="#000000">0 rows</text>
<polygon fill="#ffffff" stroke="transparent" points="99.5,-40.2 99.5,-59.2 189.5,-59.2 189.5,-40.2 99.5,-40.2"/>
<polygon fill="none" stroke="#000000" points="99.5,-40.2 99.5,-59.2 189.5,-59.2 189.5,-40.2 99.5,-40.2"/>
<text text-anchor="start" x="170.9053" y="-46.3" font-family="Helvetica,sans-Serif" font-size="11.00" fill="#000000">1 &gt;</text>
<polygon fill="none" stroke="#000000" stroke-width="2" points="9,-39.2 9,-171.2 190,-171.2 190,-39.2 9,-39.2"/>
</a>
</g>
</g>
<!-- event_users&#45;&gt;attendance -->
<g id="edge3" class="edge">
<title>event_users:w&#45;&gt;attendance:e</title>
<path fill="none" stroke="#000000" d="M225.7914,-226.0812C188.1893,-205.6887 248.5635,-92.2 189.5,-92.2"/>
<polygon fill="#000000" stroke="#000000" points="232.186,-227.4848 239.2281,-232.7163 236.093,-228.3424 240,-229.2 240,-229.2 240,-229.2 236.093,-228.3424 240.7719,-225.6837 232.186,-227.4848 232.186,-227.4848"/>
<ellipse fill="none" stroke="#000000" cx="229.0604" cy="-226.7987" rx="3.2" ry="3.2"/>
</g>
<!-- events -->
<g id="node4" class="node">
<title>events</title>
<g id="a_node4"><a xlink:href="../../tables/events.html" xlink:title="events" target="_top">
<polygon fill="#ffffff" stroke="transparent" points="59.5,-275.7 59.5,-336.7 139.5,-336.7 139.5,-275.7 59.5,-275.7"/>
<polygon fill="#f5f5f5" stroke="transparent" points="59.5,-313.2 59.5,-336.2 139.5,-336.2 139.5,-313.2 59.5,-313.2"/>
<polygon fill="none" stroke="#000000" points="59.5,-313.2 59.5,-336.2 139.5,-336.2 139.5,-313.2 59.5,-313.2"/>
<text text-anchor="start" x="64.5" y="-321.8" font-family="Helvetica,sans-Serif" font-weight="bold" font-size="11.00" fill="#000000">events</text>
<text text-anchor="start" x="105.0219" y="-321.3" font-family="Helvetica,sans-Serif" font-size="11.00" fill="#000000">[table]</text>
<polygon fill="none" stroke="#000000" points="59.5,-294.2 59.5,-313.2 139.5,-313.2 139.5,-294.2 59.5,-294.2"/>
<text text-anchor="start" x="62.5" y="-300.3" font-family="Helvetica,sans-Serif" font-size="11.00" fill="#000000">...</text>
<polygon fill="#ffffff" stroke="transparent" points="59.5,-275.2 59.5,-294.2 80.5,-294.2 80.5,-275.2 59.5,-275.2"/>
<polygon fill="none" stroke="#000000" points="59.5,-275.2 59.5,-294.2 80.5,-294.2 80.5,-275.2 59.5,-275.2"/>
<text text-anchor="start" x="62.2027" y="-281.3" font-family="Helvetica,sans-Serif" font-size="11.00" fill="#000000">&lt; 2</text>
<polygon fill="#ffffff" stroke="transparent" points="80.5,-275.2 80.5,-294.2 118.5,-294.2 118.5,-275.2 80.5,-275.2"/>
<polygon fill="none" stroke="#000000" points="80.5,-275.2 80.5,-294.2 118.5,-294.2 118.5,-275.2 80.5,-275.2"/>
<text text-anchor="start" x="83.3053" y="-281.3" font-family="Helvetica,sans-Serif" font-size="11.00" fill="#000000">0 rows</text>
<polygon fill="#ffffff" stroke="transparent" points="118.5,-275.2 118.5,-294.2 139.5,-294.2 139.5,-275.2 118.5,-275.2"/>
<polygon fill="none" stroke="#000000" points="118.5,-275.2 118.5,-294.2 139.5,-294.2 139.5,-275.2 118.5,-275.2"/>
<text text-anchor="start" x="121.2027" y="-281.3" font-family="Helvetica,sans-Serif" font-size="11.00" fill="#000000">3 &gt;</text>
</a>
</g>
</g>
<!-- event_users&#45;&gt;events -->
<g id="edge4" class="edge">
<title>event_users:w&#45;&gt;events:e</title>
<path fill="none" stroke="#000000" d="M225.5587,-274.2677C191.2334,-279.6119 180.8337,-303.2 139.5,-303.2"/>
<polygon fill="#000000" stroke="#000000" points="232.0218,-273.7899 240.2655,-276.7902 236.0109,-273.495 240,-273.2 240,-273.2 240,-273.2 236.0109,-273.495 239.7345,-269.6098 232.0218,-273.7899 232.0218,-273.7899"/>
<ellipse fill="none" stroke="#000000" cx="228.8305" cy="-274.0259" rx="3.2" ry="3.2"/>
</g>
<!-- event_roles -->
<g id="node5" class="node">
<title>event_roles</title>
<g id="a_node5"><a xlink:href="../../tables/event_roles.html" xlink:title="event_roles" target="_top">
<polygon fill="#ffffff" stroke="transparent" points="46,-193.7 46,-254.7 153,-254.7 153,-193.7 46,-193.7"/>
<polygon fill="#f5f5f5" stroke="transparent" points="46.5,-231.2 46.5,-254.2 153.5,-254.2 153.5,-231.2 46.5,-231.2"/>
<polygon fill="none" stroke="#000000" points="46.5,-231.2 46.5,-254.2 153.5,-254.2 153.5,-231.2 46.5,-231.2"/>
<text text-anchor="start" x="51.5" y="-239.8" font-family="Helvetica,sans-Serif" font-weight="bold" font-size="11.00" fill="#000000">event_roles</text>
<text text-anchor="start" x="119.0219" y="-239.3" font-family="Helvetica,sans-Serif" font-size="11.00" fill="#000000">[table]</text>
<polygon fill="none" stroke="#000000" points="46.5,-212.2 46.5,-231.2 153.5,-231.2 153.5,-212.2 46.5,-212.2"/>
<text text-anchor="start" x="49.5" y="-218.3" font-family="Helvetica,sans-Serif" font-size="11.00" fill="#000000">...</text>
<polygon fill="#ffffff" stroke="transparent" points="46.5,-193.2 46.5,-212.2 76.5,-212.2 76.5,-193.2 46.5,-193.2"/>
<polygon fill="none" stroke="#000000" points="46.5,-193.2 46.5,-212.2 76.5,-212.2 76.5,-193.2 46.5,-193.2"/>
<text text-anchor="start" x="49.5" y="-199.3" font-family="Helvetica,sans-Serif" font-size="11.00" fill="#000000"> &#160;</text>
<polygon fill="#ffffff" stroke="transparent" points="76.5,-193.2 76.5,-212.2 123.5,-212.2 123.5,-193.2 76.5,-193.2"/>
<polygon fill="none" stroke="#000000" points="76.5,-193.2 76.5,-212.2 123.5,-212.2 123.5,-193.2 76.5,-193.2"/>
<text text-anchor="start" x="88.1105" y="-199.3" font-family="Helvetica,sans-Serif" font-size="11.00" fill="#000000">0 rows</text>
<polygon fill="#ffffff" stroke="transparent" points="123.5,-193.2 123.5,-212.2 153.5,-212.2 153.5,-193.2 123.5,-193.2"/>
<polygon fill="none" stroke="#000000" points="123.5,-193.2 123.5,-212.2 153.5,-212.2 153.5,-193.2 123.5,-193.2"/>
<text text-anchor="start" x="134.9053" y="-199.3" font-family="Helvetica,sans-Serif" font-size="11.00" fill="#000000">2 &gt;</text>
</a>
</g>
</g>
<!-- event_users&#45;&gt;event_roles -->
<g id="edge5" class="edge">
<title>event_users:w&#45;&gt;event_roles:e</title>
<path fill="none" stroke="#000000" d="M225.503,-249.753C197.3221,-243.7604 188.7867,-221.2 153.5,-221.2"/>
<polygon fill="#000000" stroke="#000000" points="232.0396,-250.4054 239.6424,-254.7822 236.0198,-250.8027 240,-251.2 240,-251.2 240,-251.2 236.0198,-250.8027 240.3576,-247.6178 232.0396,-250.4054 232.0396,-250.4054"/>
<ellipse fill="none" stroke="#000000" cx="228.8554" cy="-250.0876" rx="3.2" ry="3.2"/>
</g>
<!-- users -->
<g id="node6" class="node">
<title>users</title>
<g id="a_node6"><a xlink:href="../../tables/users.html" xlink:title="users" target="_top">
<polygon fill="#ffffff" stroke="transparent" points="59.5,-357.7 59.5,-418.7 139.5,-418.7 139.5,-357.7 59.5,-357.7"/>
<polygon fill="#f5f5f5" stroke="transparent" points="59.5,-395.2 59.5,-418.2 139.5,-418.2 139.5,-395.2 59.5,-395.2"/>
<polygon fill="none" stroke="#000000" points="59.5,-395.2 59.5,-418.2 139.5,-418.2 139.5,-395.2 59.5,-395.2"/>
<text text-anchor="start" x="64.5" y="-403.8" font-family="Helvetica,sans-Serif" font-weight="bold" font-size="11.00" fill="#000000">users</text>
<text text-anchor="start" x="104.5437" y="-403.3" font-family="Helvetica,sans-Serif" font-size="11.00" fill="#000000">[table]</text>
<polygon fill="none" stroke="#000000" points="59.5,-376.2 59.5,-395.2 139.5,-395.2 139.5,-376.2 59.5,-376.2"/>
<text text-anchor="start" x="62.5" y="-382.3" font-family="Helvetica,sans-Serif" font-size="11.00" fill="#000000">...</text>
<polygon fill="#ffffff" stroke="transparent" points="59.5,-357.2 59.5,-376.2 80.5,-376.2 80.5,-357.2 59.5,-357.2"/>
<polygon fill="none" stroke="#000000" points="59.5,-357.2 59.5,-376.2 80.5,-376.2 80.5,-357.2 59.5,-357.2"/>
<text text-anchor="start" x="62.2027" y="-363.3" font-family="Helvetica,sans-Serif" font-size="11.00" fill="#000000">&lt; 1</text>
<polygon fill="#ffffff" stroke="transparent" points="80.5,-357.2 80.5,-376.2 118.5,-376.2 118.5,-357.2 80.5,-357.2"/>
<polygon fill="none" stroke="#000000" points="80.5,-357.2 80.5,-376.2 118.5,-376.2 118.5,-357.2 80.5,-357.2"/>
<text text-anchor="start" x="83.3053" y="-363.3" font-family="Helvetica,sans-Serif" font-size="11.00" fill="#000000">0 rows</text>
<polygon fill="#ffffff" stroke="transparent" points="118.5,-357.2 118.5,-376.2 139.5,-376.2 139.5,-357.2 118.5,-357.2"/>
<polygon fill="none" stroke="#000000" points="118.5,-357.2 118.5,-376.2 139.5,-376.2 139.5,-357.2 118.5,-357.2"/>
<text text-anchor="start" x="121.2027" y="-363.3" font-family="Helvetica,sans-Serif" font-size="11.00" fill="#000000">4 &gt;</text>
</a>
</g>
</g>
<!-- event_users&#45;&gt;users -->
<g id="edge6" class="edge">
<title>event_users:w&#45;&gt;users:e</title>
<path fill="none" stroke="#000000" d="M225.999,-299.0846C213.4661,-308.2486 216.2157,-331.6143 199,-347.2 175.7389,-368.2586 170.8774,-385.2 139.5,-385.2"/>
<polygon fill="#000000" stroke="#000000" points="232.2912,-297.3389 240.9625,-298.669 236.1456,-296.2694 240,-295.2 240,-295.2 240,-295.2 236.1456,-296.2694 239.0375,-291.731 232.2912,-297.3389 232.2912,-297.3389"/>
<ellipse fill="none" stroke="#000000" cx="229.2077" cy="-298.1944" rx="3.2" ry="3.2"/>
</g>
</g>
</svg>
