<?xml version="1.0" encoding="UTF-8" standalone="no"?>
<!DOCTYPE svg PUBLIC "-//W3C//DTD SVG 1.1//EN"
 "http://www.w3.org/Graphics/SVG/1.1/DTD/svg11.dtd">
<!-- Generated by graphviz version 2.40.1 (20161225.0304)
 -->
<!-- Title: twoDegreesRelationshipsDiagram Pages: 1 -->
<svg width="442pt" height="435pt"
 viewBox="0.00 0.00 442.00 434.70" xmlns="http://www.w3.org/2000/svg" xmlns:xlink="http://www.w3.org/1999/xlink">
<g id="graph0" class="graph" transform="scale(1 1) rotate(0) translate(4 430.7)">
<title>twoDegreesRelationshipsDiagram</title>
<polygon fill="#ffffff" stroke="transparent" points="-4,4 -4,-430.7 438,-430.7 438,4 -4,4"/>
<text text-anchor="middle" x="72.4936" y="-7.3" font-family="Helvetica,sans-Serif" font-size="11.00" fill="#000000">Generated by SchemaSpy</text>
<!-- chapter_role_permissions -->
<g id="node1" class="node">
<title>chapter_role_permissions</title>
<g id="a_node1"><a xlink:href="../../tables/chapter_role_permissions.html" xlink:title="chapter_role_permissions" target="_top">
<polygon fill="#ffffff" stroke="transparent" points="253,-317.7 253,-422.7 426,-422.7 426,-317.7 253,-317.7"/>
<polygon fill="#f5f5f5" stroke="transparent" points="253.5,-399.2 253.5,-422.2 426.5,-422.2 426.5,-399.2 253.5,-399.2"/>
<polygon fill="none" stroke="#000000" points="253.5,-399.2 253.5,-422.2 426.5,-422.2 426.5,-399.2 253.5,-399.2"/>
<text text-anchor="start" x="258.5" y="-408.3" font-family="Helvetica,sans-Serif" font-weight="bold" font-size="11.00" fill="#000000">chapter_role_permissions</text>
<text text-anchor="start" x="391.5437" y="-407.3" font-family="Helvetica,sans-Serif" font-size="11.00" fill="#000000">[table]</text>
<polygon fill="none" stroke="#000000" points="253.5,-377.2 253.5,-399.2 426.5,-399.2 426.5,-377.2 253.5,-377.2"/>
<image xlink:href="../../images/primaryKeys.png" width="11px" height="12px" preserveAspectRatio="xMinYMin meet" x="258.5" y="-394.2"/>
<text text-anchor="start" x="273.5" y="-384.3" font-family="Helvetica,sans-Serif" font-size="11.00" fill="#000000">chapter_role_id</text>
<polygon fill="none" stroke="#000000" points="253.5,-355.2 253.5,-377.2 426.5,-377.2 426.5,-355.2 253.5,-355.2"/>
<image xlink:href="../../images/primaryKeys.png" width="11px" height="12px" preserveAspectRatio="xMinYMin meet" x="258.5" y="-372.2"/>
<text text-anchor="start" x="273.5" y="-362.3" font-family="Helvetica,sans-Serif" font-size="11.00" fill="#000000">chapter_permissions_id</text>
<polygon fill="none" stroke="#000000" points="253.5,-336.2 253.5,-355.2 426.5,-355.2 426.5,-336.2 253.5,-336.2"/>
<text text-anchor="start" x="256.5" y="-342.3" font-family="Helvetica,sans-Serif" font-size="11.00" fill="#000000">...</text>
<polygon fill="#ffffff" stroke="transparent" points="253.5,-317.2 253.5,-336.2 325.5,-336.2 325.5,-317.2 253.5,-317.2"/>
<polygon fill="none" stroke="#000000" points="253.5,-317.2 253.5,-336.2 325.5,-336.2 325.5,-317.2 253.5,-317.2"/>
<text text-anchor="start" x="256.5" y="-323.3" font-family="Helvetica,sans-Serif" font-size="11.00" fill="#000000">&lt; 2</text>
<polygon fill="#ffffff" stroke="transparent" points="325.5,-317.2 325.5,-336.2 388.5,-336.2 388.5,-317.2 325.5,-317.2"/>
<polygon fill="none" stroke="#000000" points="325.5,-317.2 325.5,-336.2 388.5,-336.2 388.5,-317.2 325.5,-317.2"/>
<text text-anchor="start" x="353.1105" y="-323.3" font-family="Helvetica,sans-Serif" font-size="11.00" fill="#000000">0 rows</text>
<polygon fill="#ffffff" stroke="transparent" points="388.5,-317.2 388.5,-336.2 426.5,-336.2 426.5,-317.2 388.5,-317.2"/>
<polygon fill="none" stroke="#000000" points="388.5,-317.2 388.5,-336.2 426.5,-336.2 426.5,-317.2 388.5,-317.2"/>
<text text-anchor="start" x="417.3862" y="-323.3" font-family="Helvetica,sans-Serif" font-size="11.00" fill="#000000"> &#160;</text>
</a>
</g>
</g>
<!-- chapter_permissions -->
<g id="node2" class="node">
<title>chapter_permissions</title>
<g id="a_node2"><a xlink:href="../../tables/chapter_permissions.html" xlink:title="chapter_permissions" target="_top">
<polygon fill="#ffffff" stroke="transparent" points="34,-357.7 34,-418.7 178,-418.7 178,-357.7 34,-357.7"/>
<polygon fill="#f5f5f5" stroke="transparent" points="34,-395.2 34,-418.2 178,-418.2 178,-395.2 34,-395.2"/>
<polygon fill="none" stroke="#000000" points="34,-395.2 34,-418.2 178,-418.2 178,-395.2 34,-395.2"/>
<text text-anchor="start" x="38.7708" y="-404.3" font-family="Helvetica,sans-Serif" font-weight="bold" font-size="11.00" fill="#000000">chapter_permissions</text>
<text text-anchor="start" x="143.5219" y="-403.3" font-family="Helvetica,sans-Serif" font-size="11.00" fill="#000000">[table]</text>
<polygon fill="none" stroke="#000000" points="34,-376.2 34,-395.2 178,-395.2 178,-376.2 34,-376.2"/>
<text text-anchor="start" x="37" y="-382.3" font-family="Helvetica,sans-Serif" font-size="11.00" fill="#000000">...</text>
<polygon fill="#ffffff" stroke="transparent" points="34,-357.2 34,-376.2 82,-376.2 82,-357.2 34,-357.2"/>
<polygon fill="none" stroke="#000000" points="34,-357.2 34,-376.2 82,-376.2 82,-357.2 34,-357.2"/>
<text text-anchor="start" x="37" y="-363.3" font-family="Helvetica,sans-Serif" font-size="11.00" fill="#000000"> &#160;</text>
<polygon fill="#ffffff" stroke="transparent" points="82,-357.2 82,-376.2 138,-376.2 138,-357.2 82,-357.2"/>
<polygon fill="none" stroke="#000000" points="82,-357.2 82,-376.2 138,-376.2 138,-357.2 82,-357.2"/>
<text text-anchor="start" x="102.6105" y="-363.3" font-family="Helvetica,sans-Serif" font-size="11.00" fill="#000000">0 rows</text>
<polygon fill="#ffffff" stroke="transparent" points="138,-357.2 138,-376.2 178,-376.2 178,-357.2 138,-357.2"/>
<polygon fill="none" stroke="#000000" points="138,-357.2 138,-376.2 178,-376.2 178,-357.2 138,-357.2"/>
<text text-anchor="start" x="159.4053" y="-363.3" font-family="Helvetica,sans-Serif" font-size="11.00" fill="#000000">1 &gt;</text>
</a>
</g>
</g>
<!-- chapter_role_permissions&#45;&gt;chapter_permissions -->
<g id="edge1" class="edge">
<title>chapter_role_permissions:w&#45;&gt;chapter_permissions:e</title>
<path fill="none" stroke="#000000" d="M239.1376,-367.4466C216.2395,-371.6736 207.1953,-385.2 178,-385.2"/>
<polygon fill="#000000" stroke="#000000" points="245.53,-366.8918 253.8113,-369.7865 249.515,-366.5459 253.5,-366.2 253.5,-366.2 253.5,-366.2 249.515,-366.5459 253.1887,-362.6135 245.53,-366.8918 245.53,-366.8918"/>
<ellipse fill="none" stroke="#000000" cx="242.342" cy="-367.1686" rx="3.2" ry="3.2"/>
</g>
<!-- chapter_roles -->
<g id="node3" class="node">
<title>chapter_roles</title>
<g id="a_node3"><a xlink:href="../../tables/chapter_roles.html" xlink:title="chapter_roles" target="_top">
<polygon fill="#ffffff" stroke="transparent" points="8,-38.2 8,-172.2 204,-172.2 204,-38.2 8,-38.2"/>
<polygon fill="#f5f5f5" stroke="transparent" points="10,-147.2 10,-170.2 202,-170.2 202,-147.2 10,-147.2"/>
<polygon fill="none" stroke="#000000" points="10,-147.2 10,-170.2 202,-170.2 202,-147.2 10,-147.2"/>
<text text-anchor="start" x="15" y="-156.3" font-family="Helvetica,sans-Serif" font-weight="bold" font-size="11.00" fill="#000000">chapter_roles</text>
<text text-anchor="start" x="167.0437" y="-155.3" font-family="Helvetica,sans-Serif" font-size="11.00" fill="#000000">[table]</text>
<polygon fill="none" stroke="#000000" points="10,-125.2 10,-147.2 112,-147.2 112,-125.2 10,-125.2"/>
<text text-anchor="start" x="30" y="-132.3" font-family="Helvetica,sans-Serif" font-size="11.00" fill="#000000">created_at</text>
<polygon fill="none" stroke="#000000" points="112,-125.2 112,-147.2 202,-147.2 202,-125.2 112,-125.2"/>
<text text-anchor="start" x="115" y="-132.9" font-family="Helvetica,sans-Serif" font-size="11.00" fill="#000000">timestamp[26,3]</text>
<polygon fill="none" stroke="#000000" points="10,-103.2 10,-125.2 112,-125.2 112,-103.2 10,-103.2"/>
<text text-anchor="start" x="30" y="-110.3" font-family="Helvetica,sans-Serif" font-size="11.00" fill="#000000">updated_at</text>
<polygon fill="none" stroke="#000000" points="112,-103.2 112,-125.2 202,-125.2 202,-103.2 112,-103.2"/>
<text text-anchor="start" x="115" y="-110.9" font-family="Helvetica,sans-Serif" font-size="11.00" fill="#000000">timestamp[26,3]</text>
<polygon fill="none" stroke="#000000" points="10,-81.2 10,-103.2 112,-103.2 112,-81.2 10,-81.2"/>
<image xlink:href="../../images/primaryKeys.png" width="11px" height="12px" preserveAspectRatio="xMinYMin meet" x="15" y="-98.2"/>
<text text-anchor="start" x="30" y="-88.3" font-family="Helvetica,sans-Serif" font-size="11.00" fill="#000000">id</text>
<polygon fill="none" stroke="#000000" points="112,-81.2 112,-103.2 202,-103.2 202,-81.2 112,-81.2"/>
<text text-anchor="start" x="115" y="-88.9" font-family="Helvetica,sans-Serif" font-size="11.00" fill="#000000">serial[10]</text>
<polygon fill="#ffffff" stroke="transparent" points="10,-59.2 10,-81.2 112,-81.2 112,-59.2 10,-59.2"/>
<polygon fill="none" stroke="#000000" points="10,-59.2 10,-81.2 112,-81.2 112,-59.2 10,-59.2"/>
<text text-anchor="start" x="30" y="-66.3" font-family="Helvetica,sans-Serif" font-size="11.00" fill="#000000">name</text>
<polygon fill="none" stroke="#000000" points="112,-59.2 112,-81.2 202,-81.2 202,-59.2 112,-59.2"/>
<text text-anchor="start" x="114.5042" y="-66.9" font-family="Helvetica,sans-Serif" font-size="11.00" fill="#000000">text[2147483647]</text>
<polygon fill="#ffffff" stroke="transparent" points="10,-40.2 10,-59.2 52,-59.2 52,-40.2 10,-40.2"/>
<polygon fill="none" stroke="#000000" points="10,-40.2 10,-59.2 52,-59.2 52,-40.2 10,-40.2"/>
<text text-anchor="start" x="13" y="-46.3" font-family="Helvetica,sans-Serif" font-size="11.00" fill="#000000">&lt; 0</text>
<polygon fill="#ffffff" stroke="transparent" points="52,-40.2 52,-59.2 112,-59.2 112,-40.2 52,-40.2"/>
<polygon fill="none" stroke="#000000" points="52,-40.2 52,-59.2 112,-59.2 112,-40.2 52,-40.2"/>
<text text-anchor="start" x="76.6105" y="-46.3" font-family="Helvetica,sans-Serif" font-size="11.00" fill="#000000">0 rows</text>
<polygon fill="#ffffff" stroke="transparent" points="112,-40.2 112,-59.2 202,-59.2 202,-40.2 112,-40.2"/>
<polygon fill="none" stroke="#000000" points="112,-40.2 112,-59.2 202,-59.2 202,-40.2 112,-40.2"/>
<text text-anchor="start" x="183.4053" y="-46.3" font-family="Helvetica,sans-Serif" font-size="11.00" fill="#000000">2 &gt;</text>
<polygon fill="none" stroke="#000000" stroke-width="2" points="9,-39.2 9,-171.2 203,-171.2 203,-39.2 9,-39.2"/>
</a>
</g>
</g>
<!-- chapter_role_permissions&#45;&gt;chapter_roles -->
<g id="edge2" class="edge">
<title>chapter_role_permissions:w&#45;&gt;chapter_roles:e</title>
<path fill="none" stroke="#000000" d="M239.9089,-382.5513C199.1911,-341.6293 263.2891,-92.2 202,-92.2"/>
<polygon fill="#000000" stroke="#000000" points="246.1126,-385.1297 252.1183,-391.5243 249.8063,-386.6648 253.5,-388.2 253.5,-388.2 253.5,-388.2 249.8063,-386.6648 254.8817,-384.8757 246.1126,-385.1297 246.1126,-385.1297"/>
<ellipse fill="none" stroke="#000000" cx="243.1577" cy="-383.9015" rx="3.2" ry="3.2"/>
</g>
<!-- chapter_users -->
<g id="node4" class="node">
<title>chapter_users</title>
<g id="a_node4"><a xlink:href="../../tables/chapter_users.html" xlink:title="chapter_users" target="_top">
<polygon fill="#ffffff" stroke="transparent" points="283.5,-150.7 283.5,-277.7 395.5,-277.7 395.5,-150.7 283.5,-150.7"/>
<polygon fill="#f5f5f5" stroke="transparent" points="283.5,-254.2 283.5,-277.2 395.5,-277.2 395.5,-254.2 283.5,-254.2"/>
<polygon fill="none" stroke="#000000" points="283.5,-254.2 283.5,-277.2 395.5,-277.2 395.5,-254.2 283.5,-254.2"/>
<text text-anchor="start" x="288.1575" y="-263.3" font-family="Helvetica,sans-Serif" font-weight="bold" font-size="11.00" fill="#000000">chapter_users</text>
<text text-anchor="start" x="361.0219" y="-262.3" font-family="Helvetica,sans-Serif" font-size="11.00" fill="#000000">[table]</text>
<polygon fill="none" stroke="#000000" points="283.5,-232.2 283.5,-254.2 395.5,-254.2 395.5,-232.2 283.5,-232.2"/>
<image xlink:href="../../images/primaryKeys.png" width="11px" height="12px" preserveAspectRatio="xMinYMin meet" x="288.5" y="-249.2"/>
<text text-anchor="start" x="303.5" y="-239.3" font-family="Helvetica,sans-Serif" font-size="11.00" fill="#000000">user_id</text>
<polygon fill="none" stroke="#000000" points="283.5,-210.2 283.5,-232.2 395.5,-232.2 395.5,-210.2 283.5,-210.2"/>
<image xlink:href="../../images/primaryKeys.png" width="11px" height="12px" preserveAspectRatio="xMinYMin meet" x="288.5" y="-227.2"/>
<text text-anchor="start" x="303.5" y="-217.3" font-family="Helvetica,sans-Serif" font-size="11.00" fill="#000000">chapter_id</text>
<polygon fill="none" stroke="#000000" points="283.5,-188.2 283.5,-210.2 395.5,-210.2 395.5,-188.2 283.5,-188.2"/>
<image xlink:href="../../images/foreignKeys.png" width="11px" height="12px" preserveAspectRatio="xMinYMin meet" x="288.5" y="-205.2"/>
<text text-anchor="start" x="303.5" y="-195.3" font-family="Helvetica,sans-Serif" font-size="11.00" fill="#000000">chapter_role_id</text>
<polygon fill="none" stroke="#000000" points="283.5,-169.2 283.5,-188.2 395.5,-188.2 395.5,-169.2 283.5,-169.2"/>
<text text-anchor="start" x="286.5" y="-175.3" font-family="Helvetica,sans-Serif" font-size="11.00" fill="#000000">...</text>
<polygon fill="#ffffff" stroke="transparent" points="283.5,-150.2 283.5,-169.2 324.5,-169.2 324.5,-150.2 283.5,-150.2"/>
<polygon fill="none" stroke="#000000" points="283.5,-150.2 283.5,-169.2 324.5,-169.2 324.5,-150.2 283.5,-150.2"/>
<text text-anchor="start" x="286.5" y="-156.3" font-family="Helvetica,sans-Serif" font-size="11.00" fill="#000000">&lt; 3</text>
<polygon fill="#ffffff" stroke="transparent" points="324.5,-150.2 324.5,-169.2 372.5,-169.2 372.5,-150.2 324.5,-150.2"/>
<polygon fill="none" stroke="#000000" points="324.5,-150.2 324.5,-169.2 372.5,-169.2 372.5,-150.2 324.5,-150.2"/>
<text text-anchor="start" x="337.1105" y="-156.3" font-family="Helvetica,sans-Serif" font-size="11.00" fill="#000000">0 rows</text>
<polygon fill="#ffffff" stroke="transparent" points="372.5,-150.2 372.5,-169.2 395.5,-169.2 395.5,-150.2 372.5,-150.2"/>
<polygon fill="none" stroke="#000000" points="372.5,-150.2 372.5,-169.2 395.5,-169.2 395.5,-150.2 372.5,-150.2"/>
<text text-anchor="start" x="386.3862" y="-156.3" font-family="Helvetica,sans-Serif" font-size="11.00" fill="#000000"> &#160;</text>
</a>
</g>
</g>
<!-- chapter_users&#45;&gt;chapter_roles -->
<g id="edge4" class="edge">
<title>chapter_users:w&#45;&gt;chapter_roles:e</title>
<path fill="none" stroke="#000000" d="M269.1055,-196.555C229.9967,-180.0779 256.1751,-92.2 202,-92.2"/>
<polygon fill="#000000" stroke="#000000" points="275.6317,-197.7542 282.8494,-202.7407 279.5659,-198.4771 283.5,-199.2 283.5,-199.2 283.5,-199.2 279.5659,-198.4771 284.1506,-195.6593 275.6317,-197.7542 275.6317,-197.7542"/>
<ellipse fill="none" stroke="#000000" cx="272.4844" cy="-197.1758" rx="3.2" ry="3.2"/>
</g>
<!-- chapters -->
<g id="node5" class="node">
<title>chapters</title>
<g id="a_node5"><a xlink:href="../../tables/chapters.html" xlink:title="chapters" target="_top">
<polygon fill="#ffffff" stroke="transparent" points="63.5,-193.7 63.5,-254.7 148.5,-254.7 148.5,-193.7 63.5,-193.7"/>
<polygon fill="#f5f5f5" stroke="transparent" points="64,-231.2 64,-254.2 149,-254.2 149,-231.2 64,-231.2"/>
<polygon fill="none" stroke="#000000" points="64,-231.2 64,-254.2 149,-254.2 149,-231.2 64,-231.2"/>
<text text-anchor="start" x="68.9108" y="-240.3" font-family="Helvetica,sans-Serif" font-weight="bold" font-size="11.00" fill="#000000">chapters</text>
<text text-anchor="start" x="114.5219" y="-239.3" font-family="Helvetica,sans-Serif" font-size="11.00" fill="#000000">[table]</text>
<polygon fill="none" stroke="#000000" points="64,-212.2 64,-231.2 149,-231.2 149,-212.2 64,-212.2"/>
<text text-anchor="start" x="67" y="-218.3" font-family="Helvetica,sans-Serif" font-size="11.00" fill="#000000">...</text>
<polygon fill="#ffffff" stroke="transparent" points="64,-193.2 64,-212.2 83,-212.2 83,-193.2 64,-193.2"/>
<polygon fill="none" stroke="#000000" points="64,-193.2 64,-212.2 83,-212.2 83,-193.2 64,-193.2"/>
<text text-anchor="start" x="67" y="-199.3" font-family="Helvetica,sans-Serif" font-size="11.00" fill="#000000"> &#160;</text>
<polygon fill="#ffffff" stroke="transparent" points="83,-193.2 83,-212.2 124,-212.2 124,-193.2 83,-193.2"/>
<polygon fill="none" stroke="#000000" points="83,-193.2 83,-212.2 124,-212.2 124,-193.2 83,-193.2"/>
<text text-anchor="start" x="88.6105" y="-199.3" font-family="Helvetica,sans-Serif" font-size="11.00" fill="#000000">0 rows</text>
<polygon fill="#ffffff" stroke="transparent" points="124,-193.2 124,-212.2 149,-212.2 149,-193.2 124,-193.2"/>
<polygon fill="none" stroke="#000000" points="124,-193.2 124,-212.2 149,-212.2 149,-193.2 124,-193.2"/>
<text text-anchor="start" x="130.4053" y="-199.3" font-family="Helvetica,sans-Serif" font-size="11.00" fill="#000000">4 &gt;</text>
</a>
</g>
</g>
<!-- chapter_users&#45;&gt;chapters -->
<g id="edge3" class="edge">
<title>chapter_users:w&#45;&gt;chapters:e</title>
<path fill="none" stroke="#000000" d="M269.0249,-221.2C220.8225,-221.2 203.6406,-221.2 149,-221.2"/>
<polygon fill="#000000" stroke="#000000" points="275.5,-221.2001 283.5,-224.8 279.5,-221.2 283.5,-221.2 283.5,-221.2 283.5,-221.2 279.5,-221.2 283.5,-217.6 275.5,-221.2001 275.5,-221.2001"/>
<ellipse fill="none" stroke="#000000" cx="272.3" cy="-221.2001" rx="3.2" ry="3.2"/>
</g>
<!-- users -->
<g id="node6" class="node">
<title>users</title>
<g id="a_node6"><a xlink:href="../../tables/users.html" xlink:title="users" target="_top">
<polygon fill="#ffffff" stroke="transparent" points="66,-275.7 66,-336.7 146,-336.7 146,-275.7 66,-275.7"/>
<polygon fill="#f5f5f5" stroke="transparent" points="66,-313.2 66,-336.2 146,-336.2 146,-313.2 66,-313.2"/>
<polygon fill="none" stroke="#000000" points="66,-313.2 66,-336.2 146,-336.2 146,-313.2 66,-313.2"/>
<text text-anchor="start" x="71" y="-322.3" font-family="Helvetica,sans-Serif" font-weight="bold" font-size="11.00" fill="#000000">users</text>
<text text-anchor="start" x="111.0437" y="-321.3" font-family="Helvetica,sans-Serif" font-size="11.00" fill="#000000">[table]</text>
<polygon fill="none" stroke="#000000" points="66,-294.2 66,-313.2 146,-313.2 146,-294.2 66,-294.2"/>
<text text-anchor="start" x="69" y="-300.3" font-family="Helvetica,sans-Serif" font-size="11.00" fill="#000000">...</text>
<polygon fill="#ffffff" stroke="transparent" points="66,-275.2 66,-294.2 87,-294.2 87,-275.2 66,-275.2"/>
<polygon fill="none" stroke="#000000" points="66,-275.2 66,-294.2 87,-294.2 87,-275.2 66,-275.2"/>
<text text-anchor="start" x="68.7027" y="-281.3" font-family="Helvetica,sans-Serif" font-size="11.00" fill="#000000">&lt; 1</text>
<polygon fill="#ffffff" stroke="transparent" points="87,-275.2 87,-294.2 125,-294.2 125,-275.2 87,-275.2"/>
<polygon fill="none" stroke="#000000" points="87,-275.2 87,-294.2 125,-294.2 125,-275.2 87,-275.2"/>
<text text-anchor="start" x="89.8053" y="-281.3" font-family="Helvetica,sans-Serif" font-size="11.00" fill="#000000">0 rows</text>
<polygon fill="#ffffff" stroke="transparent" points="125,-275.2 125,-294.2 146,-294.2 146,-275.2 125,-275.2"/>
<polygon fill="none" stroke="#000000" points="125,-275.2 125,-294.2 146,-294.2 146,-275.2 125,-275.2"/>
<text text-anchor="start" x="127.7027" y="-281.3" font-family="Helvetica,sans-Serif" font-size="11.00" fill="#000000">3 &gt;</text>
</a>
</g>
</g>
<!-- chapter_users&#45;&gt;users -->
<g id="edge5" class="edge">
<title>chapter_users:w&#45;&gt;users:e</title>
<path fill="none" stroke="#000000" d="M268.9581,-244.2414C215.7943,-252.2088 207.4669,-303.2 146,-303.2"/>
<polygon fill="#000000" stroke="#000000" points="275.5204,-243.7715 283.7572,-246.7908 279.5102,-243.4858 283.5,-243.2 283.5,-243.2 283.5,-243.2 279.5102,-243.4858 283.2428,-239.6092 275.5204,-243.7715 275.5204,-243.7715"/>
<ellipse fill="none" stroke="#000000" cx="272.3286" cy="-244.0001" rx="3.2" ry="3.2"/>
</g>
</g>
</svg>
