<?xml version="1.0" encoding="UTF-8" standalone="no"?>
<!DOCTYPE svg PUBLIC "-//W3C//DTD SVG 1.1//EN"
 "http://www.w3.org/Graphics/SVG/1.1/DTD/svg11.dtd">
<!-- Generated by graphviz version 2.40.1 (20161225.0304)
 -->
<!-- Title: twoDegreesRelationshipsDiagram Pages: 1 -->
<svg width="536pt" height="607pt"
 viewBox="0.00 0.00 536.00 607.20" xmlns="http://www.w3.org/2000/svg" xmlns:xlink="http://www.w3.org/1999/xlink">
<g id="graph0" class="graph" transform="scale(1 1) rotate(0) translate(4 603.2)">
<title>twoDegreesRelationshipsDiagram</title>
<polygon fill="#ffffff" stroke="transparent" points="-4,4 -4,-603.2 532,-603.2 532,4 -4,4"/>
<text text-anchor="middle" x="72.4936" y="-7.3" font-family="Helvetica,sans-Serif" font-size="11.00" fill="#000000">Generated by SchemaSpy</text>
<!-- chapter_users -->
<g id="node1" class="node">
<title>chapter_users</title>
<g id="a_node1"><a xlink:href="../../tables/chapter_users.html" xlink:title="chapter_users" target="_top">
<polygon fill="#ffffff" stroke="transparent" points="239,-313.2 239,-440.2 351,-440.2 351,-313.2 239,-313.2"/>
<polygon fill="#f5f5f5" stroke="transparent" points="239,-416.7 239,-439.7 351,-439.7 351,-416.7 239,-416.7"/>
<polygon fill="none" stroke="#000000" points="239,-416.7 239,-439.7 351,-439.7 351,-416.7 239,-416.7"/>
<text text-anchor="start" x="243.6575" y="-425.8" font-family="Helvetica,sans-Serif" font-weight="bold" font-size="11.00" fill="#000000">chapter_users</text>
<text text-anchor="start" x="316.5219" y="-424.8" font-family="Helvetica,sans-Serif" font-size="11.00" fill="#000000">[table]</text>
<polygon fill="none" stroke="#000000" points="239,-394.7 239,-416.7 351,-416.7 351,-394.7 239,-394.7"/>
<image xlink:href="../../images/primaryKeys.png" width="11px" height="12px" preserveAspectRatio="xMinYMin meet" x="244" y="-411.7"/>
<text text-anchor="start" x="259" y="-401.8" font-family="Helvetica,sans-Serif" font-size="11.00" fill="#000000">user_id</text>
<polygon fill="none" stroke="#000000" points="239,-372.7 239,-394.7 351,-394.7 351,-372.7 239,-372.7"/>
<image xlink:href="../../images/primaryKeys.png" width="11px" height="12px" preserveAspectRatio="xMinYMin meet" x="244" y="-389.7"/>
<text text-anchor="start" x="259" y="-379.8" font-family="Helvetica,sans-Serif" font-size="11.00" fill="#000000">chapter_id</text>
<polygon fill="none" stroke="#000000" points="239,-350.7 239,-372.7 351,-372.7 351,-350.7 239,-350.7"/>
<image xlink:href="../../images/foreignKeys.png" width="11px" height="12px" preserveAspectRatio="xMinYMin meet" x="244" y="-367.7"/>
<text text-anchor="start" x="259" y="-357.8" font-family="Helvetica,sans-Serif" font-size="11.00" fill="#000000">chapter_role_id</text>
<polygon fill="none" stroke="#000000" points="239,-331.7 239,-350.7 351,-350.7 351,-331.7 239,-331.7"/>
<text text-anchor="start" x="242" y="-337.8" font-family="Helvetica,sans-Serif" font-size="11.00" fill="#000000">...</text>
<polygon fill="#ffffff" stroke="transparent" points="239,-312.7 239,-331.7 280,-331.7 280,-312.7 239,-312.7"/>
<polygon fill="none" stroke="#000000" points="239,-312.7 239,-331.7 280,-331.7 280,-312.7 239,-312.7"/>
<text text-anchor="start" x="242" y="-318.8" font-family="Helvetica,sans-Serif" font-size="11.00" fill="#000000">&lt; 3</text>
<polygon fill="#ffffff" stroke="transparent" points="280,-312.7 280,-331.7 328,-331.7 328,-312.7 280,-312.7"/>
<polygon fill="none" stroke="#000000" points="280,-312.7 280,-331.7 328,-331.7 328,-312.7 280,-312.7"/>
<text text-anchor="start" x="292.6105" y="-318.8" font-family="Helvetica,sans-Serif" font-size="11.00" fill="#000000">0 rows</text>
<polygon fill="#ffffff" stroke="transparent" points="328,-312.7 328,-331.7 351,-331.7 351,-312.7 328,-312.7"/>
<polygon fill="none" stroke="#000000" points="328,-312.7 328,-331.7 351,-331.7 351,-312.7 328,-312.7"/>
<text text-anchor="start" x="341.8862" y="-318.8" font-family="Helvetica,sans-Serif" font-size="11.00" fill="#000000"> &#160;</text>
</a>
</g>
</g>
<!-- chapters -->
<g id="node2" class="node">
<title>chapters</title>
<g id="a_node2"><a xlink:href="../../tables/chapters.html" xlink:title="chapters" target="_top">
<polygon fill="#ffffff" stroke="transparent" points="8,-202.7 8,-512.7 190,-512.7 190,-202.7 8,-202.7"/>
<polygon fill="#f5f5f5" stroke="transparent" points="10,-487.7 10,-510.7 188,-510.7 188,-487.7 10,-487.7"/>
<polygon fill="none" stroke="#000000" points="10,-487.7 10,-510.7 188,-510.7 188,-487.7 10,-487.7"/>
<text text-anchor="start" x="15" y="-496.8" font-family="Helvetica,sans-Serif" font-weight="bold" font-size="11.00" fill="#000000">chapters</text>
<text text-anchor="start" x="153.0437" y="-495.8" font-family="Helvetica,sans-Serif" font-size="11.00" fill="#000000">[table]</text>
<polygon fill="none" stroke="#000000" points="10,-465.7 10,-487.7 98,-487.7 98,-465.7 10,-465.7"/>
<text text-anchor="start" x="30" y="-472.8" font-family="Helvetica,sans-Serif" font-size="11.00" fill="#000000">created_at</text>
<polygon fill="none" stroke="#000000" points="98,-465.7 98,-487.7 188,-487.7 188,-465.7 98,-465.7"/>
<text text-anchor="start" x="101" y="-473.4" font-family="Helvetica,sans-Serif" font-size="11.00" fill="#000000">timestamp[26,3]</text>
<polygon fill="none" stroke="#000000" points="10,-443.7 10,-465.7 98,-465.7 98,-443.7 10,-443.7"/>
<text text-anchor="start" x="30" y="-450.8" font-family="Helvetica,sans-Serif" font-size="11.00" fill="#000000">updated_at</text>
<polygon fill="none" stroke="#000000" points="98,-443.7 98,-465.7 188,-465.7 188,-443.7 98,-443.7"/>
<text text-anchor="start" x="101" y="-451.4" font-family="Helvetica,sans-Serif" font-size="11.00" fill="#000000">timestamp[26,3]</text>
<polygon fill="none" stroke="#000000" points="10,-421.7 10,-443.7 98,-443.7 98,-421.7 10,-421.7"/>
<image xlink:href="../../images/primaryKeys.png" width="11px" height="12px" preserveAspectRatio="xMinYMin meet" x="15" y="-438.7"/>
<text text-anchor="start" x="30" y="-428.8" font-family="Helvetica,sans-Serif" font-size="11.00" fill="#000000">id</text>
<polygon fill="none" stroke="#000000" points="98,-421.7 98,-443.7 188,-443.7 188,-421.7 98,-421.7"/>
<text text-anchor="start" x="101" y="-429.4" font-family="Helvetica,sans-Serif" font-size="11.00" fill="#000000">serial[10]</text>
<polygon fill="none" stroke="#000000" points="10,-399.7 10,-421.7 98,-421.7 98,-399.7 10,-399.7"/>
<text text-anchor="start" x="30" y="-406.8" font-family="Helvetica,sans-Serif" font-size="11.00" fill="#000000">name</text>
<polygon fill="none" stroke="#000000" points="98,-399.7 98,-421.7 188,-421.7 188,-399.7 98,-399.7"/>
<text text-anchor="start" x="100.5042" y="-407.4" font-family="Helvetica,sans-Serif" font-size="11.00" fill="#000000">text[2147483647]</text>
<polygon fill="none" stroke="#000000" points="10,-377.7 10,-399.7 98,-399.7 98,-377.7 10,-377.7"/>
<text text-anchor="start" x="30" y="-384.8" font-family="Helvetica,sans-Serif" font-size="11.00" fill="#000000">description</text>
<polygon fill="none" stroke="#000000" points="98,-377.7 98,-399.7 188,-399.7 188,-377.7 98,-377.7"/>
<text text-anchor="start" x="100.5042" y="-385.4" font-family="Helvetica,sans-Serif" font-size="11.00" fill="#000000">text[2147483647]</text>
<polygon fill="none" stroke="#000000" points="10,-355.7 10,-377.7 98,-377.7 98,-355.7 10,-355.7"/>
<text text-anchor="start" x="30" y="-362.8" font-family="Helvetica,sans-Serif" font-size="11.00" fill="#000000">category</text>
<polygon fill="none" stroke="#000000" points="98,-355.7 98,-377.7 188,-377.7 188,-355.7 98,-355.7"/>
<text text-anchor="start" x="100.5042" y="-363.4" font-family="Helvetica,sans-Serif" font-size="11.00" fill="#000000">text[2147483647]</text>
<polygon fill="none" stroke="#000000" points="10,-333.7 10,-355.7 98,-355.7 98,-333.7 10,-333.7"/>
<text text-anchor="start" x="30" y="-340.8" font-family="Helvetica,sans-Serif" font-size="11.00" fill="#000000">city</text>
<polygon fill="none" stroke="#000000" points="98,-333.7 98,-355.7 188,-355.7 188,-333.7 98,-333.7"/>
<text text-anchor="start" x="100.5042" y="-341.4" font-family="Helvetica,sans-Serif" font-size="11.00" fill="#000000">text[2147483647]</text>
<polygon fill="none" stroke="#000000" points="10,-311.7 10,-333.7 98,-333.7 98,-311.7 10,-311.7"/>
<text text-anchor="start" x="30" y="-318.8" font-family="Helvetica,sans-Serif" font-size="11.00" fill="#000000">region</text>
<polygon fill="none" stroke="#000000" points="98,-311.7 98,-333.7 188,-333.7 188,-311.7 98,-311.7"/>
<text text-anchor="start" x="100.5042" y="-319.4" font-family="Helvetica,sans-Serif" font-size="11.00" fill="#000000">text[2147483647]</text>
<polygon fill="none" stroke="#000000" points="10,-289.7 10,-311.7 98,-311.7 98,-289.7 10,-289.7"/>
<text text-anchor="start" x="30" y="-296.8" font-family="Helvetica,sans-Serif" font-size="11.00" fill="#000000">country</text>
<polygon fill="none" stroke="#000000" points="98,-289.7 98,-311.7 188,-311.7 188,-289.7 98,-289.7"/>
<text text-anchor="start" x="100.5042" y="-297.4" font-family="Helvetica,sans-Serif" font-size="11.00" fill="#000000">text[2147483647]</text>
<polygon fill="none" stroke="#000000" points="10,-267.7 10,-289.7 98,-289.7 98,-267.7 10,-267.7"/>
<text text-anchor="start" x="30" y="-274.8" font-family="Helvetica,sans-Serif" font-size="11.00" fill="#000000">imageUrl</text>
<polygon fill="none" stroke="#000000" points="98,-267.7 98,-289.7 188,-289.7 188,-267.7 98,-267.7"/>
<text text-anchor="start" x="100.5042" y="-275.4" font-family="Helvetica,sans-Serif" font-size="11.00" fill="#000000">text[2147483647]</text>
<polygon fill="none" stroke="#000000" points="10,-245.7 10,-267.7 98,-267.7 98,-245.7 10,-245.7"/>
<text text-anchor="start" x="30" y="-252.8" font-family="Helvetica,sans-Serif" font-size="11.00" fill="#000000">chatUrl</text>
<polygon fill="none" stroke="#000000" points="98,-245.7 98,-267.7 188,-267.7 188,-245.7 98,-245.7"/>
<text text-anchor="start" x="100.5042" y="-253.4" font-family="Helvetica,sans-Serif" font-size="11.00" fill="#000000">text[2147483647]</text>
<polygon fill="none" stroke="#000000" points="10,-223.7 10,-245.7 98,-245.7 98,-223.7 10,-223.7"/>
<text text-anchor="start" x="30" y="-230.8" font-family="Helvetica,sans-Serif" font-size="11.00" fill="#000000">creator_id</text>
<polygon fill="none" stroke="#000000" points="98,-223.7 98,-245.7 188,-245.7 188,-223.7 98,-223.7"/>
<text text-anchor="start" x="101" y="-231.4" font-family="Helvetica,sans-Serif" font-size="11.00" fill="#000000">int4[10]</text>
<polygon fill="#ffffff" stroke="transparent" points="10,-204.7 10,-223.7 45,-223.7 45,-204.7 10,-204.7"/>
<polygon fill="none" stroke="#000000" points="10,-204.7 10,-223.7 45,-223.7 45,-204.7 10,-204.7"/>
<text text-anchor="start" x="13" y="-210.8" font-family="Helvetica,sans-Serif" font-size="11.00" fill="#000000">&lt; 0</text>
<polygon fill="#ffffff" stroke="transparent" points="45,-204.7 45,-223.7 98,-223.7 98,-204.7 45,-204.7"/>
<polygon fill="none" stroke="#000000" points="45,-204.7 45,-223.7 98,-223.7 98,-204.7 45,-204.7"/>
<text text-anchor="start" x="62.6105" y="-210.8" font-family="Helvetica,sans-Serif" font-size="11.00" fill="#000000">0 rows</text>
<polygon fill="#ffffff" stroke="transparent" points="98,-204.7 98,-223.7 188,-223.7 188,-204.7 98,-204.7"/>
<polygon fill="none" stroke="#000000" points="98,-204.7 98,-223.7 188,-223.7 188,-204.7 98,-204.7"/>
<text text-anchor="start" x="169.4053" y="-210.8" font-family="Helvetica,sans-Serif" font-size="11.00" fill="#000000">3 &gt;</text>
<polygon fill="none" stroke="#000000" stroke-width="2" points="9,-203.7 9,-511.7 189,-511.7 189,-203.7 9,-203.7"/>
</a>
</g>
</g>
<!-- chapter_users&#45;&gt;chapters -->
<g id="edge1" class="edge">
<title>chapter_users:w&#45;&gt;chapters:e</title>
<path fill="none" stroke="#000000" d="M225.3147,-388.222C210.4944,-400.3523 213.5395,-432.7 188,-432.7"/>
<polygon fill="#000000" stroke="#000000" points="231.4039,-386.21 240.1295,-387.1182 235.202,-384.955 239,-383.7 239,-383.7 239,-383.7 235.202,-384.955 237.8705,-380.2818 231.4039,-386.21 231.4039,-386.21"/>
<ellipse fill="none" stroke="#000000" cx="228.3655" cy="-387.214" rx="3.2" ry="3.2"/>
</g>
<!-- chapter_roles -->
<g id="node3" class="node">
<title>chapter_roles</title>
<g id="a_node3"><a xlink:href="../../tables/chapter_roles.html" xlink:title="chapter_roles" target="_top">
<polygon fill="#ffffff" stroke="transparent" points="44.5,-120.2 44.5,-181.2 153.5,-181.2 153.5,-120.2 44.5,-120.2"/>
<polygon fill="#f5f5f5" stroke="transparent" points="45,-157.7 45,-180.7 154,-180.7 154,-157.7 45,-157.7"/>
<polygon fill="none" stroke="#000000" points="45,-157.7 45,-180.7 154,-180.7 154,-157.7 45,-157.7"/>
<text text-anchor="start" x="49.6871" y="-166.8" font-family="Helvetica,sans-Serif" font-weight="bold" font-size="11.00" fill="#000000">chapter_roles</text>
<text text-anchor="start" x="119.5219" y="-165.8" font-family="Helvetica,sans-Serif" font-size="11.00" fill="#000000">[table]</text>
<polygon fill="none" stroke="#000000" points="45,-138.7 45,-157.7 154,-157.7 154,-138.7 45,-138.7"/>
<text text-anchor="start" x="48" y="-144.8" font-family="Helvetica,sans-Serif" font-size="11.00" fill="#000000">...</text>
<polygon fill="#ffffff" stroke="transparent" points="45,-119.7 45,-138.7 76,-138.7 76,-119.7 45,-119.7"/>
<polygon fill="none" stroke="#000000" points="45,-119.7 45,-138.7 76,-138.7 76,-119.7 45,-119.7"/>
<text text-anchor="start" x="48" y="-125.8" font-family="Helvetica,sans-Serif" font-size="11.00" fill="#000000"> &#160;</text>
<polygon fill="#ffffff" stroke="transparent" points="76,-119.7 76,-138.7 123,-138.7 123,-119.7 76,-119.7"/>
<polygon fill="none" stroke="#000000" points="76,-119.7 76,-138.7 123,-138.7 123,-119.7 76,-119.7"/>
<text text-anchor="start" x="87.6105" y="-125.8" font-family="Helvetica,sans-Serif" font-size="11.00" fill="#000000">0 rows</text>
<polygon fill="#ffffff" stroke="transparent" points="123,-119.7 123,-138.7 154,-138.7 154,-119.7 123,-119.7"/>
<polygon fill="none" stroke="#000000" points="123,-119.7 123,-138.7 154,-138.7 154,-119.7 123,-119.7"/>
<text text-anchor="start" x="135.4053" y="-125.8" font-family="Helvetica,sans-Serif" font-size="11.00" fill="#000000">2 &gt;</text>
</a>
</g>
</g>
<!-- chapter_users&#45;&gt;chapter_roles -->
<g id="edge2" class="edge">
<title>chapter_users:w&#45;&gt;chapter_roles:e</title>
<path fill="none" stroke="#000000" d="M224.4386,-360.1503C171.4907,-347.1075 233.2648,-254.5933 198,-191.7 184.4743,-167.5775 181.6557,-147.7 154,-147.7"/>
<polygon fill="#000000" stroke="#000000" points="231.0449,-360.8533 238.619,-365.2798 235.0225,-361.2767 239,-361.7 239,-361.7 239,-361.7 235.0225,-361.2767 239.381,-358.1202 231.0449,-360.8533 231.0449,-360.8533"/>
<ellipse fill="none" stroke="#000000" cx="227.8629" cy="-360.5146" rx="3.2" ry="3.2"/>
</g>
<!-- users -->
<g id="node4" class="node">
<title>users</title>
<g id="a_node4"><a xlink:href="../../tables/users.html" xlink:title="users" target="_top">
<polygon fill="#ffffff" stroke="transparent" points="59,-534.2 59,-595.2 139,-595.2 139,-534.2 59,-534.2"/>
<polygon fill="#f5f5f5" stroke="transparent" points="59,-571.7 59,-594.7 139,-594.7 139,-571.7 59,-571.7"/>
<polygon fill="none" stroke="#000000" points="59,-571.7 59,-594.7 139,-594.7 139,-571.7 59,-571.7"/>
<text text-anchor="start" x="64" y="-580.8" font-family="Helvetica,sans-Serif" font-weight="bold" font-size="11.00" fill="#000000">users</text>
<text text-anchor="start" x="104.0437" y="-579.8" font-family="Helvetica,sans-Serif" font-size="11.00" fill="#000000">[table]</text>
<polygon fill="none" stroke="#000000" points="59,-552.7 59,-571.7 139,-571.7 139,-552.7 59,-552.7"/>
<text text-anchor="start" x="62" y="-558.8" font-family="Helvetica,sans-Serif" font-size="11.00" fill="#000000">...</text>
<polygon fill="#ffffff" stroke="transparent" points="59,-533.7 59,-552.7 80,-552.7 80,-533.7 59,-533.7"/>
<polygon fill="none" stroke="#000000" points="59,-533.7 59,-552.7 80,-552.7 80,-533.7 59,-533.7"/>
<text text-anchor="start" x="61.7027" y="-539.8" font-family="Helvetica,sans-Serif" font-size="11.00" fill="#000000">&lt; 1</text>
<polygon fill="#ffffff" stroke="transparent" points="80,-533.7 80,-552.7 118,-552.7 118,-533.7 80,-533.7"/>
<polygon fill="none" stroke="#000000" points="80,-533.7 80,-552.7 118,-552.7 118,-533.7 80,-533.7"/>
<text text-anchor="start" x="82.8053" y="-539.8" font-family="Helvetica,sans-Serif" font-size="11.00" fill="#000000">0 rows</text>
<polygon fill="#ffffff" stroke="transparent" points="118,-533.7 118,-552.7 139,-552.7 139,-533.7 118,-533.7"/>
<polygon fill="none" stroke="#000000" points="118,-533.7 118,-552.7 139,-552.7 139,-533.7 118,-533.7"/>
<text text-anchor="start" x="120.7027" y="-539.8" font-family="Helvetica,sans-Serif" font-size="11.00" fill="#000000">3 &gt;</text>
</a>
</g>
</g>
<!-- chapter_users&#45;&gt;users -->
<g id="edge3" class="edge">
<title>chapter_users:w&#45;&gt;users:e</title>
<path fill="none" stroke="#000000" d="M224.6959,-408.0582C192.8581,-421.044 228.7046,-484.6645 198,-523.7 178.7168,-548.2152 170.1904,-561.7 139,-561.7"/>
<polygon fill="#000000" stroke="#000000" points="231.1066,-407.0014 239.5856,-409.2521 235.0533,-406.3507 239,-405.7 239,-405.7 239,-405.7 235.0533,-406.3507 238.4144,-402.1479 231.1066,-407.0014 231.1066,-407.0014"/>
<ellipse fill="none" stroke="#000000" cx="227.9492" cy="-407.522" rx="3.2" ry="3.2"/>
</g>
<!-- event_sponsors -->
<g id="node5" class="node">
<title>event_sponsors</title>
<g id="a_node5"><a xlink:href="../../tables/event_sponsors.html" xlink:title="event_sponsors" target="_top">
<polygon fill="#ffffff" stroke="transparent" points="400,-271.2 400,-332.2 520,-332.2 520,-271.2 400,-271.2"/>
<polygon fill="#f5f5f5" stroke="transparent" points="400,-308.7 400,-331.7 520,-331.7 520,-308.7 400,-308.7"/>
<polygon fill="none" stroke="#000000" points="400,-308.7 400,-331.7 520,-331.7 520,-308.7 400,-308.7"/>
<text text-anchor="start" x="404.681" y="-317.8" font-family="Helvetica,sans-Serif" font-weight="bold" font-size="11.00" fill="#000000">event_sponsors</text>
<text text-anchor="start" x="485.5219" y="-316.8" font-family="Helvetica,sans-Serif" font-size="11.00" fill="#000000">[table]</text>
<polygon fill="none" stroke="#000000" points="400,-289.7 400,-308.7 520,-308.7 520,-289.7 400,-289.7"/>
<text text-anchor="start" x="403" y="-295.8" font-family="Helvetica,sans-Serif" font-size="11.00" fill="#000000">...</text>
<polygon fill="#ffffff" stroke="transparent" points="400,-270.7 400,-289.7 445,-289.7 445,-270.7 400,-270.7"/>
<polygon fill="none" stroke="#000000" points="400,-270.7 400,-289.7 445,-289.7 445,-270.7 400,-270.7"/>
<text text-anchor="start" x="403" y="-276.8" font-family="Helvetica,sans-Serif" font-size="11.00" fill="#000000">&lt; 2</text>
<polygon fill="#ffffff" stroke="transparent" points="445,-270.7 445,-289.7 495,-289.7 495,-270.7 445,-270.7"/>
<polygon fill="none" stroke="#000000" points="445,-270.7 445,-289.7 495,-289.7 495,-270.7 445,-270.7"/>
<text text-anchor="start" x="459.6105" y="-276.8" font-family="Helvetica,sans-Serif" font-size="11.00" fill="#000000">0 rows</text>
<polygon fill="#ffffff" stroke="transparent" points="495,-270.7 495,-289.7 520,-289.7 520,-270.7 495,-270.7"/>
<polygon fill="none" stroke="#000000" points="495,-270.7 495,-289.7 520,-289.7 520,-270.7 495,-270.7"/>
<text text-anchor="start" x="510.8862" y="-276.8" font-family="Helvetica,sans-Serif" font-size="11.00" fill="#000000"> &#160;</text>
</a>
</g>
</g>
<!-- events -->
<g id="node6" class="node">
<title>events</title>
<g id="a_node6"><a xlink:href="../../tables/events.html" xlink:title="events" target="_top">
<polygon fill="#ffffff" stroke="transparent" points="243,-165.2 243,-292.2 347,-292.2 347,-165.2 243,-165.2"/>
<polygon fill="#f5f5f5" stroke="transparent" points="243,-268.7 243,-291.7 347,-291.7 347,-268.7 243,-268.7"/>
<polygon fill="none" stroke="#000000" points="243,-268.7 243,-291.7 347,-291.7 347,-268.7 243,-268.7"/>
<text text-anchor="start" x="248" y="-277.8" font-family="Helvetica,sans-Serif" font-weight="bold" font-size="11.00" fill="#000000">events</text>
<text text-anchor="start" x="312.0437" y="-276.8" font-family="Helvetica,sans-Serif" font-size="11.00" fill="#000000">[table]</text>
<polygon fill="none" stroke="#000000" points="243,-246.7 243,-268.7 347,-268.7 347,-246.7 243,-246.7"/>
<image xlink:href="../../images/primaryKeys.png" width="11px" height="12px" preserveAspectRatio="xMinYMin meet" x="248" y="-263.7"/>
<text text-anchor="start" x="263" y="-253.8" font-family="Helvetica,sans-Serif" font-size="11.00" fill="#000000">id</text>
<polygon fill="none" stroke="#000000" points="243,-224.7 243,-246.7 347,-246.7 347,-224.7 243,-224.7"/>
<image xlink:href="../../images/foreignKeys.png" width="11px" height="12px" preserveAspectRatio="xMinYMin meet" x="248" y="-241.7"/>
<text text-anchor="start" x="263" y="-231.8" font-family="Helvetica,sans-Serif" font-size="11.00" fill="#000000">venue_id</text>
<polygon fill="none" stroke="#000000" points="243,-202.7 243,-224.7 347,-224.7 347,-202.7 243,-202.7"/>
<image xlink:href="../../images/foreignKeys.png" width="11px" height="12px" preserveAspectRatio="xMinYMin meet" x="248" y="-219.7"/>
<text text-anchor="start" x="263" y="-209.8" font-family="Helvetica,sans-Serif" font-size="11.00" fill="#000000">chapter_id</text>
<polygon fill="none" stroke="#000000" points="243,-183.7 243,-202.7 347,-202.7 347,-183.7 243,-183.7"/>
<text text-anchor="start" x="246" y="-189.8" font-family="Helvetica,sans-Serif" font-size="11.00" fill="#000000">...</text>
<polygon fill="#ffffff" stroke="transparent" points="243,-164.7 243,-183.7 276,-183.7 276,-164.7 243,-164.7"/>
<polygon fill="none" stroke="#000000" points="243,-164.7 243,-183.7 276,-183.7 276,-164.7 243,-164.7"/>
<text text-anchor="start" x="246" y="-170.8" font-family="Helvetica,sans-Serif" font-size="11.00" fill="#000000">&lt; 2</text>
<polygon fill="#ffffff" stroke="transparent" points="276,-164.7 276,-183.7 320,-183.7 320,-164.7 276,-164.7"/>
<polygon fill="none" stroke="#000000" points="276,-164.7 276,-183.7 320,-183.7 320,-164.7 276,-164.7"/>
<text text-anchor="start" x="284.6105" y="-170.8" font-family="Helvetica,sans-Serif" font-size="11.00" fill="#000000">0 rows</text>
<polygon fill="#ffffff" stroke="transparent" points="320,-164.7 320,-183.7 347,-183.7 347,-164.7 320,-164.7"/>
<polygon fill="none" stroke="#000000" points="320,-164.7 320,-183.7 347,-183.7 347,-164.7 320,-164.7"/>
<text text-anchor="start" x="328.4053" y="-170.8" font-family="Helvetica,sans-Serif" font-size="11.00" fill="#000000">3 &gt;</text>
</a>
</g>
</g>
<!-- event_sponsors&#45;&gt;events -->
<g id="edge4" class="edge">
<title>event_sponsors:w&#45;&gt;events:e</title>
<path fill="none" stroke="#000000" d="M386.1677,-294.6189C371.3959,-284.2484 370.9645,-257.7 347,-257.7"/>
<polygon fill="#000000" stroke="#000000" points="392.327,-296.4361 398.9812,-302.1528 396.1635,-297.568 400,-298.7 400,-298.7 400,-298.7 396.1635,-297.568 401.0188,-295.2472 392.327,-296.4361 392.327,-296.4361"/>
<ellipse fill="none" stroke="#000000" cx="389.2578" cy="-295.5305" rx="3.2" ry="3.2"/>
</g>
<!-- events&#45;&gt;chapters -->
<g id="edge8" class="edge">
<title>events:w&#45;&gt;chapters:e</title>
<path fill="none" stroke="#000000" d="M228.6626,-215.5933C157.8454,-236.9982 282.8677,-432.7 188,-432.7"/>
<polygon fill="#000000" stroke="#000000" points="235.0689,-214.7474 243.4713,-217.269 239.0344,-214.2237 243,-213.7 243,-213.7 243,-213.7 239.0344,-214.2237 242.5287,-210.131 235.0689,-214.7474 235.0689,-214.7474"/>
<ellipse fill="none" stroke="#000000" cx="231.8964" cy="-215.1663" rx="3.2" ry="3.2"/>
</g>
<!-- venues -->
<g id="node9" class="node">
<title>venues</title>
<g id="a_node9"><a xlink:href="../../tables/venues.html" xlink:title="venues" target="_top">
<polygon fill="#ffffff" stroke="transparent" points="60,-38.2 60,-99.2 138,-99.2 138,-38.2 60,-38.2"/>
<polygon fill="#f5f5f5" stroke="transparent" points="60,-75.7 60,-98.7 138,-98.7 138,-75.7 60,-75.7"/>
<polygon fill="none" stroke="#000000" points="60,-75.7 60,-98.7 138,-98.7 138,-75.7 60,-75.7"/>
<text text-anchor="start" x="64.7702" y="-84.8" font-family="Helvetica,sans-Serif" font-weight="bold" font-size="11.00" fill="#000000">venues</text>
<text text-anchor="start" x="103.5219" y="-83.8" font-family="Helvetica,sans-Serif" font-size="11.00" fill="#000000">[table]</text>
<polygon fill="none" stroke="#000000" points="60,-56.7 60,-75.7 138,-75.7 138,-56.7 60,-56.7"/>
<text text-anchor="start" x="63" y="-62.8" font-family="Helvetica,sans-Serif" font-size="11.00" fill="#000000">...</text>
<polygon fill="#ffffff" stroke="transparent" points="60,-37.7 60,-56.7 75,-56.7 75,-37.7 60,-37.7"/>
<polygon fill="none" stroke="#000000" points="60,-37.7 60,-56.7 75,-56.7 75,-37.7 60,-37.7"/>
<text text-anchor="start" x="63" y="-43.8" font-family="Helvetica,sans-Serif" font-size="11.00" fill="#000000"> &#160;</text>
<polygon fill="#ffffff" stroke="transparent" points="75,-37.7 75,-56.7 115,-56.7 115,-37.7 75,-37.7"/>
<polygon fill="none" stroke="#000000" points="75,-37.7 75,-56.7 115,-56.7 115,-37.7 75,-37.7"/>
<text text-anchor="start" x="79.6105" y="-43.8" font-family="Helvetica,sans-Serif" font-size="11.00" fill="#000000">0 rows</text>
<polygon fill="#ffffff" stroke="transparent" points="115,-37.7 115,-56.7 138,-56.7 138,-37.7 115,-37.7"/>
<polygon fill="none" stroke="#000000" points="115,-37.7 115,-56.7 138,-56.7 138,-37.7 115,-37.7"/>
<text text-anchor="start" x="119.4053" y="-43.8" font-family="Helvetica,sans-Serif" font-size="11.00" fill="#000000">1 &gt;</text>
</a>
</g>
</g>
<!-- events&#45;&gt;venues -->
<g id="edge9" class="edge">
<title>events:w&#45;&gt;venues:e</title>
<path fill="none" stroke="#000000" d="M228.5291,-233.5606C192.4859,-220.6948 230.0669,-152.7211 198,-109.7 178.2374,-83.1864 171.0686,-65.7 138,-65.7"/>
<polygon fill="#000000" stroke="#000000" points="235.086,-234.53 242.4735,-239.2613 239.043,-235.115 243,-235.7 243,-235.7 243,-235.7 239.043,-235.115 243.5265,-232.1387 235.086,-234.53 235.086,-234.53"/>
<ellipse fill="none" stroke="#000000" cx="231.9204" cy="-234.062" rx="3.2" ry="3.2"/>
</g>
<!-- event_tags -->
<g id="node7" class="node">
<title>event_tags</title>
<g id="a_node7"><a xlink:href="../../tables/event_tags.html" xlink:title="event_tags" target="_top">
<polygon fill="#ffffff" stroke="transparent" points="412,-189.2 412,-250.2 508,-250.2 508,-189.2 412,-189.2"/>
<polygon fill="#f5f5f5" stroke="transparent" points="412,-226.7 412,-249.7 508,-249.7 508,-226.7 412,-226.7"/>
<polygon fill="none" stroke="#000000" points="412,-226.7 412,-249.7 508,-249.7 508,-226.7 412,-226.7"/>
<text text-anchor="start" x="416.5984" y="-235.8" font-family="Helvetica,sans-Serif" font-weight="bold" font-size="11.00" fill="#000000">event_tags</text>
<text text-anchor="start" x="473.5219" y="-234.8" font-family="Helvetica,sans-Serif" font-size="11.00" fill="#000000">[table]</text>
<polygon fill="none" stroke="#000000" points="412,-207.7 412,-226.7 508,-226.7 508,-207.7 412,-207.7"/>
<text text-anchor="start" x="415" y="-213.8" font-family="Helvetica,sans-Serif" font-size="11.00" fill="#000000">...</text>
<polygon fill="#ffffff" stroke="transparent" points="412,-188.7 412,-207.7 445,-207.7 445,-188.7 412,-188.7"/>
<polygon fill="none" stroke="#000000" points="412,-188.7 412,-207.7 445,-207.7 445,-188.7 412,-188.7"/>
<text text-anchor="start" x="415" y="-194.8" font-family="Helvetica,sans-Serif" font-size="11.00" fill="#000000">&lt; 2</text>
<polygon fill="#ffffff" stroke="transparent" points="445,-188.7 445,-207.7 489,-207.7 489,-188.7 445,-188.7"/>
<polygon fill="none" stroke="#000000" points="445,-188.7 445,-207.7 489,-207.7 489,-188.7 445,-188.7"/>
<text text-anchor="start" x="453.6105" y="-194.8" font-family="Helvetica,sans-Serif" font-size="11.00" fill="#000000">0 rows</text>
<polygon fill="#ffffff" stroke="transparent" points="489,-188.7 489,-207.7 508,-207.7 508,-188.7 489,-188.7"/>
<polygon fill="none" stroke="#000000" points="489,-188.7 489,-207.7 508,-207.7 508,-188.7 489,-188.7"/>
<text text-anchor="start" x="498.8862" y="-194.8" font-family="Helvetica,sans-Serif" font-size="11.00" fill="#000000"> &#160;</text>
</a>
</g>
</g>
<!-- event_tags&#45;&gt;events -->
<g id="edge5" class="edge">
<title>event_tags:w&#45;&gt;events:e</title>
<path fill="none" stroke="#000000" d="M397.8835,-219.6486C377.9223,-229.0495 375.5521,-257.7 347,-257.7"/>
<polygon fill="#000000" stroke="#000000" points="404.169,-218.3358 412.7361,-220.2239 408.0845,-217.5179 412,-216.7 412,-216.7 412,-216.7 408.0845,-217.5179 411.2639,-213.1761 404.169,-218.3358 404.169,-218.3358"/>
<ellipse fill="none" stroke="#000000" cx="401.0366" cy="-218.9901" rx="3.2" ry="3.2"/>
</g>
<!-- event_users -->
<g id="node8" class="node">
<title>event_users</title>
<g id="a_node8"><a xlink:href="../../tables/event_users.html" xlink:title="event_users" target="_top">
<polygon fill="#ffffff" stroke="transparent" points="409,-437.2 409,-498.2 511,-498.2 511,-437.2 409,-437.2"/>
<polygon fill="#f5f5f5" stroke="transparent" points="409,-474.7 409,-497.7 511,-497.7 511,-474.7 409,-474.7"/>
<polygon fill="none" stroke="#000000" points="409,-474.7 409,-497.7 511,-497.7 511,-474.7 409,-474.7"/>
<text text-anchor="start" x="413.5459" y="-483.8" font-family="Helvetica,sans-Serif" font-weight="bold" font-size="11.00" fill="#000000">event_users</text>
<text text-anchor="start" x="476.5219" y="-482.8" font-family="Helvetica,sans-Serif" font-size="11.00" fill="#000000">[table]</text>
<polygon fill="none" stroke="#000000" points="409,-455.7 409,-474.7 511,-474.7 511,-455.7 409,-455.7"/>
<text text-anchor="start" x="412" y="-461.8" font-family="Helvetica,sans-Serif" font-size="11.00" fill="#000000">...</text>
<polygon fill="#ffffff" stroke="transparent" points="409,-436.7 409,-455.7 441,-455.7 441,-436.7 409,-436.7"/>
<polygon fill="none" stroke="#000000" points="409,-436.7 409,-455.7 441,-455.7 441,-436.7 409,-436.7"/>
<text text-anchor="start" x="412" y="-442.8" font-family="Helvetica,sans-Serif" font-size="11.00" fill="#000000">&lt; 4</text>
<polygon fill="#ffffff" stroke="transparent" points="441,-436.7 441,-455.7 484,-455.7 484,-436.7 441,-436.7"/>
<polygon fill="none" stroke="#000000" points="441,-436.7 441,-455.7 484,-455.7 484,-436.7 441,-436.7"/>
<text text-anchor="start" x="448.6105" y="-442.8" font-family="Helvetica,sans-Serif" font-size="11.00" fill="#000000">0 rows</text>
<polygon fill="#ffffff" stroke="transparent" points="484,-436.7 484,-455.7 511,-455.7 511,-436.7 484,-436.7"/>
<polygon fill="none" stroke="#000000" points="484,-436.7 484,-455.7 511,-455.7 511,-436.7 484,-436.7"/>
<text text-anchor="start" x="492.4053" y="-442.8" font-family="Helvetica,sans-Serif" font-size="11.00" fill="#000000">2 &gt;</text>
</a>
</g>
</g>
<!-- event_users&#45;&gt;users -->
<g id="edge7" class="edge">
<title>event_users:w&#45;&gt;users:e</title>
<path fill="none" stroke="#000000" d="M394.61,-467.4782C364.3303,-482.0803 399.7311,-550.2779 359,-576.7 276.7796,-630.0361 237.0048,-561.7 139,-561.7"/>
<polygon fill="#000000" stroke="#000000" points="401.145,-466.2165 409.6824,-468.2347 405.0725,-465.4583 409,-464.7 409,-464.7 409,-464.7 405.0725,-465.4583 408.3176,-461.1653 401.145,-466.2165 401.145,-466.2165"/>
<ellipse fill="none" stroke="#000000" cx="398.0031" cy="-466.8232" rx="3.2" ry="3.2"/>
</g>
<!-- event_users&#45;&gt;events -->
<g id="edge6" class="edge">
<title>event_users:w&#45;&gt;events:e</title>
<path fill="none" stroke="#000000" d="M394.3562,-462.6512C327.4289,-441.1529 437.4108,-257.7 347,-257.7"/>
<polygon fill="#000000" stroke="#000000" points="401.0772,-463.5915 408.5012,-468.2653 405.0386,-464.1457 409,-464.7 409,-464.7 409,-464.7 405.0386,-464.1457 409.4988,-461.1347 401.0772,-463.5915 401.0772,-463.5915"/>
<ellipse fill="none" stroke="#000000" cx="397.908" cy="-463.1481" rx="3.2" ry="3.2"/>
</g>
<!-- user_bans -->
<g id="node10" class="node">
<title>user_bans</title>
<g id="a_node10"><a xlink:href="../../tables/user_bans.html" xlink:title="user_bans" target="_top">
<polygon fill="#ffffff" stroke="transparent" points="248,-461.2 248,-566.2 342,-566.2 342,-461.2 248,-461.2"/>
<polygon fill="#f5f5f5" stroke="transparent" points="248,-542.7 248,-565.7 342,-565.7 342,-542.7 248,-542.7"/>
<polygon fill="none" stroke="#000000" points="248,-542.7 248,-565.7 342,-565.7 342,-542.7 248,-542.7"/>
<text text-anchor="start" x="252.8244" y="-551.8" font-family="Helvetica,sans-Serif" font-weight="bold" font-size="11.00" fill="#000000">user_bans</text>
<text text-anchor="start" x="307.5219" y="-550.8" font-family="Helvetica,sans-Serif" font-size="11.00" fill="#000000">[table]</text>
<polygon fill="none" stroke="#000000" points="248,-520.7 248,-542.7 342,-542.7 342,-520.7 248,-520.7"/>
<image xlink:href="../../images/primaryKeys.png" width="11px" height="12px" preserveAspectRatio="xMinYMin meet" x="253" y="-537.7"/>
<text text-anchor="start" x="271" y="-527.8" font-family="Helvetica,sans-Serif" font-size="11.00" fill="#000000">user_id</text>
<polygon fill="none" stroke="#000000" points="248,-498.7 248,-520.7 342,-520.7 342,-498.7 248,-498.7"/>
<image xlink:href="../../images/primaryKeys.png" width="11px" height="12px" preserveAspectRatio="xMinYMin meet" x="253" y="-515.7"/>
<text text-anchor="start" x="271" y="-505.8" font-family="Helvetica,sans-Serif" font-size="11.00" fill="#000000">chapter_id</text>
<polygon fill="none" stroke="#000000" points="248,-479.7 248,-498.7 342,-498.7 342,-479.7 248,-479.7"/>
<text text-anchor="start" x="251" y="-485.8" font-family="Helvetica,sans-Serif" font-size="11.00" fill="#000000">...</text>
<polygon fill="#ffffff" stroke="transparent" points="248,-460.7 248,-479.7 280,-479.7 280,-460.7 248,-460.7"/>
<polygon fill="none" stroke="#000000" points="248,-460.7 248,-479.7 280,-479.7 280,-460.7 248,-460.7"/>
<text text-anchor="start" x="251" y="-466.8" font-family="Helvetica,sans-Serif" font-size="11.00" fill="#000000">&lt; 2</text>
<polygon fill="#ffffff" stroke="transparent" points="280,-460.7 280,-479.7 324,-479.7 324,-460.7 280,-460.7"/>
<polygon fill="none" stroke="#000000" points="280,-460.7 280,-479.7 324,-479.7 324,-460.7 280,-460.7"/>
<text text-anchor="start" x="288.6105" y="-466.8" font-family="Helvetica,sans-Serif" font-size="11.00" fill="#000000">0 rows</text>
<polygon fill="#ffffff" stroke="transparent" points="324,-460.7 324,-479.7 342,-479.7 342,-460.7 324,-460.7"/>
<polygon fill="none" stroke="#000000" points="324,-460.7 324,-479.7 342,-479.7 342,-460.7 324,-460.7"/>
<text text-anchor="start" x="332.8862" y="-466.8" font-family="Helvetica,sans-Serif" font-size="11.00" fill="#000000"> &#160;</text>
</a>
</g>
</g>
<!-- user_bans&#45;&gt;chapters -->
<g id="edge10" class="edge">
<title>user_bans:w&#45;&gt;chapters:e</title>
<path fill="none" stroke="#000000" d="M233.7808,-505.7757C210.6235,-490.0846 225.4536,-432.7 188,-432.7"/>
<polygon fill="#000000" stroke="#000000" points="240.2883,-507.5716 247.0422,-513.1703 244.1442,-508.6358 248,-509.7 248,-509.7 248,-509.7 244.1442,-508.6358 248.9578,-506.2297 240.2883,-507.5716 240.2883,-507.5716"/>
<ellipse fill="none" stroke="#000000" cx="237.2036" cy="-506.7203" rx="3.2" ry="3.2"/>
</g>
<!-- user_bans&#45;&gt;users -->
<g id="edge11" class="edge">
<title>user_bans:w&#45;&gt;users:e</title>
<path fill="none" stroke="#000000" d="M233.3968,-532.6307C195.4952,-537.6944 183.9465,-561.7 139,-561.7"/>
<polygon fill="#000000" stroke="#000000" points="240.0162,-532.2089 248.229,-535.2927 244.0081,-531.9544 248,-531.7 248,-531.7 248,-531.7 244.0081,-531.9544 247.771,-528.1073 240.0162,-532.2089 240.0162,-532.2089"/>
<ellipse fill="none" stroke="#000000" cx="236.8227" cy="-532.4125" rx="3.2" ry="3.2"/>
</g>
</g>
</svg>
