<?xml version="1.0" encoding="UTF-8" standalone="no"?>
<!DOCTYPE svg PUBLIC "-//W3C//DTD SVG 1.1//EN"
 "http://www.w3.org/Graphics/SVG/1.1/DTD/svg11.dtd">
<!-- Generated by graphviz version 2.40.1 (20161225.0304)
 -->
<!-- Title: twoDegreesRelationshipsDiagram Pages: 1 -->
<svg width="689pt" height="563pt"
 viewBox="0.00 0.00 689.00 563.20" xmlns="http://www.w3.org/2000/svg" xmlns:xlink="http://www.w3.org/1999/xlink">
<g id="graph0" class="graph" transform="scale(1 1) rotate(0) translate(4 559.2)">
<title>twoDegreesRelationshipsDiagram</title>
<polygon fill="#ffffff" stroke="transparent" points="-4,4 -4,-559.2 685,-559.2 685,4 -4,4"/>
<text text-anchor="middle" x="72.4936" y="-7.3" font-family="Helvetica,sans-Serif" font-size="11.00" fill="#000000">Generated by SchemaSpy</text>
<!-- chapter_users -->
<g id="node1" class="node">
<title>chapter_users</title>
<g id="a_node1"><a xlink:href="../../tables/chapter_users.html" xlink:title="chapter_users" target="_top">
<polygon fill="#ffffff" stroke="transparent" points="239,-119.2 239,-246.2 351,-246.2 351,-119.2 239,-119.2"/>
<polygon fill="#f5f5f5" stroke="transparent" points="239,-222.7 239,-245.7 351,-245.7 351,-222.7 239,-222.7"/>
<polygon fill="none" stroke="#000000" points="239,-222.7 239,-245.7 351,-245.7 351,-222.7 239,-222.7"/>
<text text-anchor="start" x="243.6575" y="-231.8" font-family="Helvetica,sans-Serif" font-weight="bold" font-size="11.00" fill="#000000">chapter_users</text>
<text text-anchor="start" x="316.5219" y="-230.8" font-family="Helvetica,sans-Serif" font-size="11.00" fill="#000000">[table]</text>
<polygon fill="none" stroke="#000000" points="239,-200.7 239,-222.7 351,-222.7 351,-200.7 239,-200.7"/>
<image xlink:href="../../images/primaryKeys.png" width="11px" height="12px" preserveAspectRatio="xMinYMin meet" x="244" y="-217.7"/>
<text text-anchor="start" x="259" y="-207.8" font-family="Helvetica,sans-Serif" font-size="11.00" fill="#000000">user_id</text>
<polygon fill="none" stroke="#000000" points="239,-178.7 239,-200.7 351,-200.7 351,-178.7 239,-178.7"/>
<image xlink:href="../../images/primaryKeys.png" width="11px" height="12px" preserveAspectRatio="xMinYMin meet" x="244" y="-195.7"/>
<text text-anchor="start" x="259" y="-185.8" font-family="Helvetica,sans-Serif" font-size="11.00" fill="#000000">chapter_id</text>
<polygon fill="none" stroke="#000000" points="239,-156.7 239,-178.7 351,-178.7 351,-156.7 239,-156.7"/>
<image xlink:href="../../images/foreignKeys.png" width="11px" height="12px" preserveAspectRatio="xMinYMin meet" x="244" y="-173.7"/>
<text text-anchor="start" x="259" y="-163.8" font-family="Helvetica,sans-Serif" font-size="11.00" fill="#000000">chapter_role_id</text>
<polygon fill="none" stroke="#000000" points="239,-137.7 239,-156.7 351,-156.7 351,-137.7 239,-137.7"/>
<text text-anchor="start" x="242" y="-143.8" font-family="Helvetica,sans-Serif" font-size="11.00" fill="#000000">...</text>
<polygon fill="#ffffff" stroke="transparent" points="239,-118.7 239,-137.7 280,-137.7 280,-118.7 239,-118.7"/>
<polygon fill="none" stroke="#000000" points="239,-118.7 239,-137.7 280,-137.7 280,-118.7 239,-118.7"/>
<text text-anchor="start" x="242" y="-124.8" font-family="Helvetica,sans-Serif" font-size="11.00" fill="#000000">&lt; 3</text>
<polygon fill="#ffffff" stroke="transparent" points="280,-118.7 280,-137.7 328,-137.7 328,-118.7 280,-118.7"/>
<polygon fill="none" stroke="#000000" points="280,-118.7 280,-137.7 328,-137.7 328,-118.7 280,-118.7"/>
<text text-anchor="start" x="292.6105" y="-124.8" font-family="Helvetica,sans-Serif" font-size="11.00" fill="#000000">0 rows</text>
<polygon fill="#ffffff" stroke="transparent" points="328,-118.7 328,-137.7 351,-137.7 351,-118.7 328,-118.7"/>
<polygon fill="none" stroke="#000000" points="328,-118.7 328,-137.7 351,-137.7 351,-118.7 328,-118.7"/>
<text text-anchor="start" x="341.8862" y="-124.8" font-family="Helvetica,sans-Serif" font-size="11.00" fill="#000000"> &#160;</text>
</a>
</g>
</g>
<!-- chapters -->
<g id="node2" class="node">
<title>chapters</title>
<g id="a_node2"><a xlink:href="../../tables/chapters.html" xlink:title="chapters" target="_top">
<polygon fill="#ffffff" stroke="transparent" points="8,-202.7 8,-512.7 190,-512.7 190,-202.7 8,-202.7"/>
<polygon fill="#f5f5f5" stroke="transparent" points="10,-487.7 10,-510.7 188,-510.7 188,-487.7 10,-487.7"/>
<polygon fill="none" stroke="#000000" points="10,-487.7 10,-510.7 188,-510.7 188,-487.7 10,-487.7"/>
<text text-anchor="start" x="15" y="-496.8" font-family="Helvetica,sans-Serif" font-weight="bold" font-size="11.00" fill="#000000">chapters</text>
<text text-anchor="start" x="153.0437" y="-495.8" font-family="Helvetica,sans-Serif" font-size="11.00" fill="#000000">[table]</text>
<polygon fill="none" stroke="#000000" points="10,-465.7 10,-487.7 98,-487.7 98,-465.7 10,-465.7"/>
<text text-anchor="start" x="30" y="-472.8" font-family="Helvetica,sans-Serif" font-size="11.00" fill="#000000">created_at</text>
<polygon fill="none" stroke="#000000" points="98,-465.7 98,-487.7 188,-487.7 188,-465.7 98,-465.7"/>
<text text-anchor="start" x="101" y="-473.4" font-family="Helvetica,sans-Serif" font-size="11.00" fill="#000000">timestamp[26,3]</text>
<polygon fill="none" stroke="#000000" points="10,-443.7 10,-465.7 98,-465.7 98,-443.7 10,-443.7"/>
<text text-anchor="start" x="30" y="-450.8" font-family="Helvetica,sans-Serif" font-size="11.00" fill="#000000">updated_at</text>
<polygon fill="none" stroke="#000000" points="98,-443.7 98,-465.7 188,-465.7 188,-443.7 98,-443.7"/>
<text text-anchor="start" x="101" y="-451.4" font-family="Helvetica,sans-Serif" font-size="11.00" fill="#000000">timestamp[26,3]</text>
<polygon fill="none" stroke="#000000" points="10,-421.7 10,-443.7 98,-443.7 98,-421.7 10,-421.7"/>
<image xlink:href="../../images/primaryKeys.png" width="11px" height="12px" preserveAspectRatio="xMinYMin meet" x="15" y="-438.7"/>
<text text-anchor="start" x="30" y="-428.8" font-family="Helvetica,sans-Serif" font-size="11.00" fill="#000000">id</text>
<polygon fill="none" stroke="#000000" points="98,-421.7 98,-443.7 188,-443.7 188,-421.7 98,-421.7"/>
<text text-anchor="start" x="101" y="-429.4" font-family="Helvetica,sans-Serif" font-size="11.00" fill="#000000">serial[10]</text>
<polygon fill="none" stroke="#000000" points="10,-399.7 10,-421.7 98,-421.7 98,-399.7 10,-399.7"/>
<text text-anchor="start" x="30" y="-406.8" font-family="Helvetica,sans-Serif" font-size="11.00" fill="#000000">name</text>
<polygon fill="none" stroke="#000000" points="98,-399.7 98,-421.7 188,-421.7 188,-399.7 98,-399.7"/>
<text text-anchor="start" x="100.5042" y="-407.4" font-family="Helvetica,sans-Serif" font-size="11.00" fill="#000000">text[2147483647]</text>
<polygon fill="none" stroke="#000000" points="10,-377.7 10,-399.7 98,-399.7 98,-377.7 10,-377.7"/>
<text text-anchor="start" x="30" y="-384.8" font-family="Helvetica,sans-Serif" font-size="11.00" fill="#000000">description</text>
<polygon fill="none" stroke="#000000" points="98,-377.7 98,-399.7 188,-399.7 188,-377.7 98,-377.7"/>
<text text-anchor="start" x="100.5042" y="-385.4" font-family="Helvetica,sans-Serif" font-size="11.00" fill="#000000">text[2147483647]</text>
<polygon fill="none" stroke="#000000" points="10,-355.7 10,-377.7 98,-377.7 98,-355.7 10,-355.7"/>
<text text-anchor="start" x="30" y="-362.8" font-family="Helvetica,sans-Serif" font-size="11.00" fill="#000000">category</text>
<polygon fill="none" stroke="#000000" points="98,-355.7 98,-377.7 188,-377.7 188,-355.7 98,-355.7"/>
<text text-anchor="start" x="100.5042" y="-363.4" font-family="Helvetica,sans-Serif" font-size="11.00" fill="#000000">text[2147483647]</text>
<polygon fill="none" stroke="#000000" points="10,-333.7 10,-355.7 98,-355.7 98,-333.7 10,-333.7"/>
<text text-anchor="start" x="30" y="-340.8" font-family="Helvetica,sans-Serif" font-size="11.00" fill="#000000">city</text>
<polygon fill="none" stroke="#000000" points="98,-333.7 98,-355.7 188,-355.7 188,-333.7 98,-333.7"/>
<text text-anchor="start" x="100.5042" y="-341.4" font-family="Helvetica,sans-Serif" font-size="11.00" fill="#000000">text[2147483647]</text>
<polygon fill="none" stroke="#000000" points="10,-311.7 10,-333.7 98,-333.7 98,-311.7 10,-311.7"/>
<text text-anchor="start" x="30" y="-318.8" font-family="Helvetica,sans-Serif" font-size="11.00" fill="#000000">region</text>
<polygon fill="none" stroke="#000000" points="98,-311.7 98,-333.7 188,-333.7 188,-311.7 98,-311.7"/>
<text text-anchor="start" x="100.5042" y="-319.4" font-family="Helvetica,sans-Serif" font-size="11.00" fill="#000000">text[2147483647]</text>
<polygon fill="none" stroke="#000000" points="10,-289.7 10,-311.7 98,-311.7 98,-289.7 10,-289.7"/>
<text text-anchor="start" x="30" y="-296.8" font-family="Helvetica,sans-Serif" font-size="11.00" fill="#000000">country</text>
<polygon fill="none" stroke="#000000" points="98,-289.7 98,-311.7 188,-311.7 188,-289.7 98,-289.7"/>
<text text-anchor="start" x="100.5042" y="-297.4" font-family="Helvetica,sans-Serif" font-size="11.00" fill="#000000">text[2147483647]</text>
<polygon fill="none" stroke="#000000" points="10,-267.7 10,-289.7 98,-289.7 98,-267.7 10,-267.7"/>
<text text-anchor="start" x="30" y="-274.8" font-family="Helvetica,sans-Serif" font-size="11.00" fill="#000000">imageUrl</text>
<polygon fill="none" stroke="#000000" points="98,-267.7 98,-289.7 188,-289.7 188,-267.7 98,-267.7"/>
<text text-anchor="start" x="100.5042" y="-275.4" font-family="Helvetica,sans-Serif" font-size="11.00" fill="#000000">text[2147483647]</text>
<polygon fill="none" stroke="#000000" points="10,-245.7 10,-267.7 98,-267.7 98,-245.7 10,-245.7"/>
<text text-anchor="start" x="30" y="-252.8" font-family="Helvetica,sans-Serif" font-size="11.00" fill="#000000">chatUrl</text>
<polygon fill="none" stroke="#000000" points="98,-245.7 98,-267.7 188,-267.7 188,-245.7 98,-245.7"/>
<text text-anchor="start" x="100.5042" y="-253.4" font-family="Helvetica,sans-Serif" font-size="11.00" fill="#000000">text[2147483647]</text>
<polygon fill="none" stroke="#000000" points="10,-223.7 10,-245.7 98,-245.7 98,-223.7 10,-223.7"/>
<text text-anchor="start" x="30" y="-230.8" font-family="Helvetica,sans-Serif" font-size="11.00" fill="#000000">creator_id</text>
<polygon fill="none" stroke="#000000" points="98,-223.7 98,-245.7 188,-245.7 188,-223.7 98,-223.7"/>
<text text-anchor="start" x="101" y="-231.4" font-family="Helvetica,sans-Serif" font-size="11.00" fill="#000000">int4[10]</text>
<polygon fill="#ffffff" stroke="transparent" points="10,-204.7 10,-223.7 45,-223.7 45,-204.7 10,-204.7"/>
<polygon fill="none" stroke="#000000" points="10,-204.7 10,-223.7 45,-223.7 45,-204.7 10,-204.7"/>
<text text-anchor="start" x="13" y="-210.8" font-family="Helvetica,sans-Serif" font-size="11.00" fill="#000000">&lt; 0</text>
<polygon fill="#ffffff" stroke="transparent" points="45,-204.7 45,-223.7 98,-223.7 98,-204.7 45,-204.7"/>
<polygon fill="none" stroke="#000000" points="45,-204.7 45,-223.7 98,-223.7 98,-204.7 45,-204.7"/>
<text text-anchor="start" x="62.6105" y="-210.8" font-family="Helvetica,sans-Serif" font-size="11.00" fill="#000000">0 rows</text>
<polygon fill="#ffffff" stroke="transparent" points="98,-204.7 98,-223.7 188,-223.7 188,-204.7 98,-204.7"/>
<polygon fill="none" stroke="#000000" points="98,-204.7 98,-223.7 188,-223.7 188,-204.7 98,-204.7"/>
<text text-anchor="start" x="169.4053" y="-210.8" font-family="Helvetica,sans-Serif" font-size="11.00" fill="#000000">4 &gt;</text>
<polygon fill="none" stroke="#000000" stroke-width="2" points="9,-203.7 9,-511.7 189,-511.7 189,-203.7 9,-203.7"/>
</a>
</g>
</g>
<!-- chapter_users&#45;&gt;chapters -->
<g id="edge1" class="edge">
<title>chapter_users:w&#45;&gt;chapters:e</title>
<path fill="none" stroke="#000000" d="M224.2817,-191.5163C145.1606,-213.7531 292.7491,-432.7 188,-432.7"/>
<polygon fill="#000000" stroke="#000000" points="231.0602,-190.6798 239.4409,-193.2729 235.0301,-190.1899 239,-189.7 239,-189.7 239,-189.7 235.0301,-190.1899 238.5591,-186.1271 231.0602,-190.6798 231.0602,-190.6798"/>
<ellipse fill="none" stroke="#000000" cx="227.8843" cy="-191.0718" rx="3.2" ry="3.2"/>
</g>
<!-- chapter_roles -->
<g id="node3" class="node">
<title>chapter_roles</title>
<g id="a_node3"><a xlink:href="../../tables/chapter_roles.html" xlink:title="chapter_roles" target="_top">
<polygon fill="#ffffff" stroke="transparent" points="44.5,-38.2 44.5,-99.2 153.5,-99.2 153.5,-38.2 44.5,-38.2"/>
<polygon fill="#f5f5f5" stroke="transparent" points="45,-75.7 45,-98.7 154,-98.7 154,-75.7 45,-75.7"/>
<polygon fill="none" stroke="#000000" points="45,-75.7 45,-98.7 154,-98.7 154,-75.7 45,-75.7"/>
<text text-anchor="start" x="49.6871" y="-84.8" font-family="Helvetica,sans-Serif" font-weight="bold" font-size="11.00" fill="#000000">chapter_roles</text>
<text text-anchor="start" x="119.5219" y="-83.8" font-family="Helvetica,sans-Serif" font-size="11.00" fill="#000000">[table]</text>
<polygon fill="none" stroke="#000000" points="45,-56.7 45,-75.7 154,-75.7 154,-56.7 45,-56.7"/>
<text text-anchor="start" x="48" y="-62.8" font-family="Helvetica,sans-Serif" font-size="11.00" fill="#000000">...</text>
<polygon fill="#ffffff" stroke="transparent" points="45,-37.7 45,-56.7 76,-56.7 76,-37.7 45,-37.7"/>
<polygon fill="none" stroke="#000000" points="45,-37.7 45,-56.7 76,-56.7 76,-37.7 45,-37.7"/>
<text text-anchor="start" x="48" y="-43.8" font-family="Helvetica,sans-Serif" font-size="11.00" fill="#000000"> &#160;</text>
<polygon fill="#ffffff" stroke="transparent" points="76,-37.7 76,-56.7 123,-56.7 123,-37.7 76,-37.7"/>
<polygon fill="none" stroke="#000000" points="76,-37.7 76,-56.7 123,-56.7 123,-37.7 76,-37.7"/>
<text text-anchor="start" x="87.6105" y="-43.8" font-family="Helvetica,sans-Serif" font-size="11.00" fill="#000000">0 rows</text>
<polygon fill="#ffffff" stroke="transparent" points="123,-37.7 123,-56.7 154,-56.7 154,-37.7 123,-37.7"/>
<polygon fill="none" stroke="#000000" points="123,-37.7 123,-56.7 154,-56.7 154,-37.7 123,-37.7"/>
<text text-anchor="start" x="135.4053" y="-43.8" font-family="Helvetica,sans-Serif" font-size="11.00" fill="#000000">2 &gt;</text>
</a>
</g>
</g>
<!-- chapter_users&#45;&gt;chapter_roles -->
<g id="edge2" class="edge">
<title>chapter_users:w&#45;&gt;chapter_roles:e</title>
<path fill="none" stroke="#000000" d="M224.8153,-164.1495C210.5026,-154.8433 214.3719,-129.1228 198,-109.7 180.1759,-88.5543 181.6557,-65.7 154,-65.7"/>
<polygon fill="#000000" stroke="#000000" points="231.2394,-165.7574 238.1258,-171.1923 235.1197,-166.7287 239,-167.7 239,-167.7 239,-167.7 235.1197,-166.7287 239.8742,-164.2077 231.2394,-165.7574 231.2394,-165.7574"/>
<ellipse fill="none" stroke="#000000" cx="228.1352" cy="-164.9804" rx="3.2" ry="3.2"/>
</g>
<!-- users -->
<g id="node4" class="node">
<title>users</title>
<g id="a_node4"><a xlink:href="../../tables/users.html" xlink:title="users" target="_top">
<polygon fill="#ffffff" stroke="transparent" points="59,-120.2 59,-181.2 139,-181.2 139,-120.2 59,-120.2"/>
<polygon fill="#f5f5f5" stroke="transparent" points="59,-157.7 59,-180.7 139,-180.7 139,-157.7 59,-157.7"/>
<polygon fill="none" stroke="#000000" points="59,-157.7 59,-180.7 139,-180.7 139,-157.7 59,-157.7"/>
<text text-anchor="start" x="64" y="-166.8" font-family="Helvetica,sans-Serif" font-weight="bold" font-size="11.00" fill="#000000">users</text>
<text text-anchor="start" x="104.0437" y="-165.8" font-family="Helvetica,sans-Serif" font-size="11.00" fill="#000000">[table]</text>
<polygon fill="none" stroke="#000000" points="59,-138.7 59,-157.7 139,-157.7 139,-138.7 59,-138.7"/>
<text text-anchor="start" x="62" y="-144.8" font-family="Helvetica,sans-Serif" font-size="11.00" fill="#000000">...</text>
<polygon fill="#ffffff" stroke="transparent" points="59,-119.7 59,-138.7 80,-138.7 80,-119.7 59,-119.7"/>
<polygon fill="none" stroke="#000000" points="59,-119.7 59,-138.7 80,-138.7 80,-119.7 59,-119.7"/>
<text text-anchor="start" x="61.7027" y="-125.8" font-family="Helvetica,sans-Serif" font-size="11.00" fill="#000000">&lt; 1</text>
<polygon fill="#ffffff" stroke="transparent" points="80,-119.7 80,-138.7 118,-138.7 118,-119.7 80,-119.7"/>
<polygon fill="none" stroke="#000000" points="80,-119.7 80,-138.7 118,-138.7 118,-119.7 80,-119.7"/>
<text text-anchor="start" x="82.8053" y="-125.8" font-family="Helvetica,sans-Serif" font-size="11.00" fill="#000000">0 rows</text>
<polygon fill="#ffffff" stroke="transparent" points="118,-119.7 118,-138.7 139,-138.7 139,-119.7 118,-119.7"/>
<polygon fill="none" stroke="#000000" points="118,-119.7 118,-138.7 139,-138.7 139,-119.7 118,-119.7"/>
<text text-anchor="start" x="120.7027" y="-125.8" font-family="Helvetica,sans-Serif" font-size="11.00" fill="#000000">3 &gt;</text>
</a>
</g>
</g>
<!-- chapter_users&#45;&gt;users -->
<g id="edge3" class="edge">
<title>chapter_users:w&#45;&gt;users:e</title>
<path fill="none" stroke="#000000" d="M224.6044,-209.8536C186.7555,-199.3602 186.4082,-147.7 139,-147.7"/>
<polygon fill="#000000" stroke="#000000" points="231.065,-210.6822 238.542,-215.2707 235.0325,-211.1911 239,-211.7 239,-211.7 239,-211.7 235.0325,-211.1911 239.458,-208.1293 231.065,-210.6822 231.065,-210.6822"/>
<ellipse fill="none" stroke="#000000" cx="227.891" cy="-210.2751" rx="3.2" ry="3.2"/>
</g>
<!-- event_sponsors -->
<g id="node5" class="node">
<title>event_sponsors</title>
<g id="a_node5"><a xlink:href="../../tables/event_sponsors.html" xlink:title="event_sponsors" target="_top">
<polygon fill="#ffffff" stroke="transparent" points="553,-408.2 553,-469.2 673,-469.2 673,-408.2 553,-408.2"/>
<polygon fill="#f5f5f5" stroke="transparent" points="553,-445.7 553,-468.7 673,-468.7 673,-445.7 553,-445.7"/>
<polygon fill="none" stroke="#000000" points="553,-445.7 553,-468.7 673,-468.7 673,-445.7 553,-445.7"/>
<text text-anchor="start" x="557.681" y="-454.8" font-family="Helvetica,sans-Serif" font-weight="bold" font-size="11.00" fill="#000000">event_sponsors</text>
<text text-anchor="start" x="638.5219" y="-453.8" font-family="Helvetica,sans-Serif" font-size="11.00" fill="#000000">[table]</text>
<polygon fill="none" stroke="#000000" points="553,-426.7 553,-445.7 673,-445.7 673,-426.7 553,-426.7"/>
<text text-anchor="start" x="556" y="-432.8" font-family="Helvetica,sans-Serif" font-size="11.00" fill="#000000">...</text>
<polygon fill="#ffffff" stroke="transparent" points="553,-407.7 553,-426.7 598,-426.7 598,-407.7 553,-407.7"/>
<polygon fill="none" stroke="#000000" points="553,-407.7 553,-426.7 598,-426.7 598,-407.7 553,-407.7"/>
<text text-anchor="start" x="556" y="-413.8" font-family="Helvetica,sans-Serif" font-size="11.00" fill="#000000">&lt; 2</text>
<polygon fill="#ffffff" stroke="transparent" points="598,-407.7 598,-426.7 648,-426.7 648,-407.7 598,-407.7"/>
<polygon fill="none" stroke="#000000" points="598,-407.7 598,-426.7 648,-426.7 648,-407.7 598,-407.7"/>
<text text-anchor="start" x="612.6105" y="-413.8" font-family="Helvetica,sans-Serif" font-size="11.00" fill="#000000">0 rows</text>
<polygon fill="#ffffff" stroke="transparent" points="648,-407.7 648,-426.7 673,-426.7 673,-407.7 648,-407.7"/>
<polygon fill="none" stroke="#000000" points="648,-407.7 648,-426.7 673,-426.7 673,-407.7 648,-407.7"/>
<text text-anchor="start" x="663.8862" y="-413.8" font-family="Helvetica,sans-Serif" font-size="11.00" fill="#000000"> &#160;</text>
</a>
</g>
</g>
<!-- events -->
<g id="node6" class="node">
<title>events</title>
<g id="a_node6"><a xlink:href="../../tables/events.html" xlink:title="events" target="_top">
<polygon fill="#ffffff" stroke="transparent" points="400,-384.2 400,-511.2 504,-511.2 504,-384.2 400,-384.2"/>
<polygon fill="#f5f5f5" stroke="transparent" points="400,-487.7 400,-510.7 504,-510.7 504,-487.7 400,-487.7"/>
<polygon fill="none" stroke="#000000" points="400,-487.7 400,-510.7 504,-510.7 504,-487.7 400,-487.7"/>
<text text-anchor="start" x="405" y="-496.8" font-family="Helvetica,sans-Serif" font-weight="bold" font-size="11.00" fill="#000000">events</text>
<text text-anchor="start" x="469.0437" y="-495.8" font-family="Helvetica,sans-Serif" font-size="11.00" fill="#000000">[table]</text>
<polygon fill="none" stroke="#000000" points="400,-465.7 400,-487.7 504,-487.7 504,-465.7 400,-465.7"/>
<image xlink:href="../../images/primaryKeys.png" width="11px" height="12px" preserveAspectRatio="xMinYMin meet" x="405" y="-482.7"/>
<text text-anchor="start" x="420" y="-472.8" font-family="Helvetica,sans-Serif" font-size="11.00" fill="#000000">id</text>
<polygon fill="none" stroke="#000000" points="400,-443.7 400,-465.7 504,-465.7 504,-443.7 400,-443.7"/>
<image xlink:href="../../images/foreignKeys.png" width="11px" height="12px" preserveAspectRatio="xMinYMin meet" x="405" y="-460.7"/>
<text text-anchor="start" x="420" y="-450.8" font-family="Helvetica,sans-Serif" font-size="11.00" fill="#000000">venue_id</text>
<polygon fill="none" stroke="#000000" points="400,-421.7 400,-443.7 504,-443.7 504,-421.7 400,-421.7"/>
<image xlink:href="../../images/foreignKeys.png" width="11px" height="12px" preserveAspectRatio="xMinYMin meet" x="405" y="-438.7"/>
<text text-anchor="start" x="420" y="-428.8" font-family="Helvetica,sans-Serif" font-size="11.00" fill="#000000">chapter_id</text>
<polygon fill="none" stroke="#000000" points="400,-402.7 400,-421.7 504,-421.7 504,-402.7 400,-402.7"/>
<text text-anchor="start" x="403" y="-408.8" font-family="Helvetica,sans-Serif" font-size="11.00" fill="#000000">...</text>
<polygon fill="#ffffff" stroke="transparent" points="400,-383.7 400,-402.7 433,-402.7 433,-383.7 400,-383.7"/>
<polygon fill="none" stroke="#000000" points="400,-383.7 400,-402.7 433,-402.7 433,-383.7 400,-383.7"/>
<text text-anchor="start" x="403" y="-389.8" font-family="Helvetica,sans-Serif" font-size="11.00" fill="#000000">&lt; 3</text>
<polygon fill="#ffffff" stroke="transparent" points="433,-383.7 433,-402.7 477,-402.7 477,-383.7 433,-383.7"/>
<polygon fill="none" stroke="#000000" points="433,-383.7 433,-402.7 477,-402.7 477,-383.7 433,-383.7"/>
<text text-anchor="start" x="441.6105" y="-389.8" font-family="Helvetica,sans-Serif" font-size="11.00" fill="#000000">0 rows</text>
<polygon fill="#ffffff" stroke="transparent" points="477,-383.7 477,-402.7 504,-402.7 504,-383.7 477,-383.7"/>
<polygon fill="none" stroke="#000000" points="477,-383.7 477,-402.7 504,-402.7 504,-383.7 477,-383.7"/>
<text text-anchor="start" x="485.4053" y="-389.8" font-family="Helvetica,sans-Serif" font-size="11.00" fill="#000000">3 &gt;</text>
</a>
</g>
</g>
<!-- event_sponsors&#45;&gt;events -->
<g id="edge4" class="edge">
<title>event_sponsors:w&#45;&gt;events:e</title>
<path fill="none" stroke="#000000" d="M539.1819,-440.4032C526.2811,-451.1726 526.4061,-476.7 504,-476.7"/>
<polygon fill="#000000" stroke="#000000" points="545.4267,-438.2778 554.16,-439.108 549.2133,-436.9889 553,-435.7 553,-435.7 553,-435.7 549.2133,-436.9889 551.84,-432.292 545.4267,-438.2778 545.4267,-438.2778"/>
<ellipse fill="none" stroke="#000000" cx="542.3973" cy="-439.3089" rx="3.2" ry="3.2"/>
</g>
<!-- events&#45;&gt;chapters -->
<g id="edge8" class="edge">
<title>events:w&#45;&gt;chapters:e</title>
<path fill="none" stroke="#000000" d="M385.928,-428.9715C377.419,-423.681 373.1019,-414.2444 359,-410.7 303.8272,-396.8327 286.306,-397.3734 231,-410.7 210.1302,-415.7288 209.4672,-432.7 188,-432.7"/>
<polygon fill="#000000" stroke="#000000" points="392.2668,-430.651 399.078,-436.1799 396.1334,-431.6755 400,-432.7 400,-432.7 400,-432.7 396.1334,-431.6755 400.922,-429.2201 392.2668,-430.651 392.2668,-430.651"/>
<ellipse fill="none" stroke="#000000" cx="389.1736" cy="-429.8314" rx="3.2" ry="3.2"/>
</g>
<!-- venues -->
<g id="node9" class="node">
<title>venues</title>
<g id="a_node9"><a xlink:href="../../tables/venues.html" xlink:title="venues" target="_top">
<polygon fill="#ffffff" stroke="transparent" points="241,-421.2 241,-526.2 349,-526.2 349,-421.2 241,-421.2"/>
<polygon fill="#f5f5f5" stroke="transparent" points="241,-502.7 241,-525.7 349,-525.7 349,-502.7 241,-502.7"/>
<polygon fill="none" stroke="#000000" points="241,-502.7 241,-525.7 349,-525.7 349,-502.7 241,-502.7"/>
<text text-anchor="start" x="246" y="-511.8" font-family="Helvetica,sans-Serif" font-weight="bold" font-size="11.00" fill="#000000">venues</text>
<text text-anchor="start" x="314.0437" y="-510.8" font-family="Helvetica,sans-Serif" font-size="11.00" fill="#000000">[table]</text>
<polygon fill="none" stroke="#000000" points="241,-480.7 241,-502.7 349,-502.7 349,-480.7 241,-480.7"/>
<image xlink:href="../../images/primaryKeys.png" width="11px" height="12px" preserveAspectRatio="xMinYMin meet" x="246" y="-497.7"/>
<text text-anchor="start" x="261" y="-487.8" font-family="Helvetica,sans-Serif" font-size="11.00" fill="#000000">id</text>
<polygon fill="#ffffff" stroke="transparent" points="241,-458.7 241,-480.7 349,-480.7 349,-458.7 241,-458.7"/>
<polygon fill="none" stroke="#000000" points="241,-458.7 241,-480.7 349,-480.7 349,-458.7 241,-458.7"/>
<image xlink:href="../../images/foreignKeys.png" width="11px" height="12px" preserveAspectRatio="xMinYMin meet" x="246" y="-475.7"/>
<text text-anchor="start" x="261" y="-465.8" font-family="Helvetica,sans-Serif" font-size="11.00" fill="#000000">chapter_id</text>
<polygon fill="none" stroke="#000000" points="241,-439.7 241,-458.7 349,-458.7 349,-439.7 241,-439.7"/>
<text text-anchor="start" x="244" y="-445.8" font-family="Helvetica,sans-Serif" font-size="11.00" fill="#000000">...</text>
<polygon fill="#ffffff" stroke="transparent" points="241,-420.7 241,-439.7 276,-439.7 276,-420.7 241,-420.7"/>
<polygon fill="none" stroke="#000000" points="241,-420.7 241,-439.7 276,-439.7 276,-420.7 241,-420.7"/>
<text text-anchor="start" x="244" y="-426.8" font-family="Helvetica,sans-Serif" font-size="11.00" fill="#000000">&lt; 1</text>
<polygon fill="#ffffff" stroke="transparent" points="276,-420.7 276,-439.7 321,-439.7 321,-420.7 276,-420.7"/>
<polygon fill="none" stroke="#000000" points="276,-420.7 276,-439.7 321,-439.7 321,-420.7 276,-420.7"/>
<text text-anchor="start" x="285.6105" y="-426.8" font-family="Helvetica,sans-Serif" font-size="11.00" fill="#000000">0 rows</text>
<polygon fill="#ffffff" stroke="transparent" points="321,-420.7 321,-439.7 349,-439.7 349,-420.7 321,-420.7"/>
<polygon fill="none" stroke="#000000" points="321,-420.7 321,-439.7 349,-439.7 349,-420.7 321,-420.7"/>
<text text-anchor="start" x="330.4053" y="-426.8" font-family="Helvetica,sans-Serif" font-size="11.00" fill="#000000">2 &gt;</text>
</a>
</g>
</g>
<!-- events&#45;&gt;venues -->
<g id="edge9" class="edge">
<title>events:w&#45;&gt;venues:e</title>
<path fill="none" stroke="#000000" d="M386.0658,-436.9444C372.64,-446.6631 371.0965,-469.7 349,-469.7"/>
<polygon fill="#000000" stroke="#000000" points="392.3471,-435.0311 401.049,-436.1438 396.1736,-433.8655 400,-432.7 400,-432.7 400,-432.7 396.1736,-433.8655 398.951,-429.2562 392.3471,-435.0311 392.3471,-435.0311"/>
<ellipse fill="none" stroke="#000000" cx="389.286" cy="-435.9635" rx="3.2" ry="3.2"/>
</g>
<!-- events&#45;&gt;venues -->
<g id="edge10" class="edge">
<title>events:w&#45;&gt;venues:e</title>
<path fill="none" stroke="#000000" d="M386.0658,-458.9444C372.64,-468.6631 371.0965,-491.7 349,-491.7"/>
<polygon fill="#000000" stroke="#000000" points="392.3471,-457.0311 401.049,-458.1438 396.1736,-455.8655 400,-454.7 400,-454.7 400,-454.7 396.1736,-455.8655 398.951,-451.2562 392.3471,-457.0311 392.3471,-457.0311"/>
<ellipse fill="none" stroke="#000000" cx="389.286" cy="-457.9635" rx="3.2" ry="3.2"/>
</g>
<!-- event_tags -->
<g id="node7" class="node">
<title>event_tags</title>
<g id="a_node7"><a xlink:href="../../tables/event_tags.html" xlink:title="event_tags" target="_top">
<polygon fill="#ffffff" stroke="transparent" points="565,-490.2 565,-551.2 661,-551.2 661,-490.2 565,-490.2"/>
<polygon fill="#f5f5f5" stroke="transparent" points="565,-527.7 565,-550.7 661,-550.7 661,-527.7 565,-527.7"/>
<polygon fill="none" stroke="#000000" points="565,-527.7 565,-550.7 661,-550.7 661,-527.7 565,-527.7"/>
<text text-anchor="start" x="569.5984" y="-536.8" font-family="Helvetica,sans-Serif" font-weight="bold" font-size="11.00" fill="#000000">event_tags</text>
<text text-anchor="start" x="626.5219" y="-535.8" font-family="Helvetica,sans-Serif" font-size="11.00" fill="#000000">[table]</text>
<polygon fill="none" stroke="#000000" points="565,-508.7 565,-527.7 661,-527.7 661,-508.7 565,-508.7"/>
<text text-anchor="start" x="568" y="-514.8" font-family="Helvetica,sans-Serif" font-size="11.00" fill="#000000">...</text>
<polygon fill="#ffffff" stroke="transparent" points="565,-489.7 565,-508.7 598,-508.7 598,-489.7 565,-489.7"/>
<polygon fill="none" stroke="#000000" points="565,-489.7 565,-508.7 598,-508.7 598,-489.7 565,-489.7"/>
<text text-anchor="start" x="568" y="-495.8" font-family="Helvetica,sans-Serif" font-size="11.00" fill="#000000">&lt; 2</text>
<polygon fill="#ffffff" stroke="transparent" points="598,-489.7 598,-508.7 642,-508.7 642,-489.7 598,-489.7"/>
<polygon fill="none" stroke="#000000" points="598,-489.7 598,-508.7 642,-508.7 642,-489.7 598,-489.7"/>
<text text-anchor="start" x="606.6105" y="-495.8" font-family="Helvetica,sans-Serif" font-size="11.00" fill="#000000">0 rows</text>
<polygon fill="#ffffff" stroke="transparent" points="642,-489.7 642,-508.7 661,-508.7 661,-489.7 642,-489.7"/>
<polygon fill="none" stroke="#000000" points="642,-489.7 642,-508.7 661,-508.7 661,-489.7 642,-489.7"/>
<text text-anchor="start" x="651.8862" y="-495.8" font-family="Helvetica,sans-Serif" font-size="11.00" fill="#000000"> &#160;</text>
</a>
</g>
</g>
<!-- event_tags&#45;&gt;events -->
<g id="edge5" class="edge">
<title>event_tags:w&#45;&gt;events:e</title>
<path fill="none" stroke="#000000" d="M550.8015,-514.3448C532.7138,-504.5528 530.9239,-476.7 504,-476.7"/>
<polygon fill="#000000" stroke="#000000" points="557.2144,-515.8602 564.1721,-521.2035 561.1072,-516.7801 565,-517.7 565,-517.7 565,-517.7 561.1072,-516.7801 565.8279,-514.1965 557.2144,-515.8602 557.2144,-515.8602"/>
<ellipse fill="none" stroke="#000000" cx="554.1002" cy="-515.1242" rx="3.2" ry="3.2"/>
</g>
<!-- event_users -->
<g id="node8" class="node">
<title>event_users</title>
<g id="a_node8"><a xlink:href="../../tables/event_users.html" xlink:title="event_users" target="_top">
<polygon fill="#ffffff" stroke="transparent" points="562,-194.2 562,-255.2 664,-255.2 664,-194.2 562,-194.2"/>
<polygon fill="#f5f5f5" stroke="transparent" points="562,-231.7 562,-254.7 664,-254.7 664,-231.7 562,-231.7"/>
<polygon fill="none" stroke="#000000" points="562,-231.7 562,-254.7 664,-254.7 664,-231.7 562,-231.7"/>
<text text-anchor="start" x="566.5459" y="-240.8" font-family="Helvetica,sans-Serif" font-weight="bold" font-size="11.00" fill="#000000">event_users</text>
<text text-anchor="start" x="629.5219" y="-239.8" font-family="Helvetica,sans-Serif" font-size="11.00" fill="#000000">[table]</text>
<polygon fill="none" stroke="#000000" points="562,-212.7 562,-231.7 664,-231.7 664,-212.7 562,-212.7"/>
<text text-anchor="start" x="565" y="-218.8" font-family="Helvetica,sans-Serif" font-size="11.00" fill="#000000">...</text>
<polygon fill="#ffffff" stroke="transparent" points="562,-193.7 562,-212.7 594,-212.7 594,-193.7 562,-193.7"/>
<polygon fill="none" stroke="#000000" points="562,-193.7 562,-212.7 594,-212.7 594,-193.7 562,-193.7"/>
<text text-anchor="start" x="565" y="-199.8" font-family="Helvetica,sans-Serif" font-size="11.00" fill="#000000">&lt; 4</text>
<polygon fill="#ffffff" stroke="transparent" points="594,-193.7 594,-212.7 637,-212.7 637,-193.7 594,-193.7"/>
<polygon fill="none" stroke="#000000" points="594,-193.7 594,-212.7 637,-212.7 637,-193.7 594,-193.7"/>
<text text-anchor="start" x="601.6105" y="-199.8" font-family="Helvetica,sans-Serif" font-size="11.00" fill="#000000">0 rows</text>
<polygon fill="#ffffff" stroke="transparent" points="637,-193.7 637,-212.7 664,-212.7 664,-193.7 637,-193.7"/>
<polygon fill="none" stroke="#000000" points="637,-193.7 637,-212.7 664,-212.7 664,-193.7 637,-193.7"/>
<text text-anchor="start" x="645.4053" y="-199.8" font-family="Helvetica,sans-Serif" font-size="11.00" fill="#000000">2 &gt;</text>
</a>
</g>
</g>
<!-- event_users&#45;&gt;users -->
<g id="edge7" class="edge">
<title>event_users:w&#45;&gt;users:e</title>
<path fill="none" stroke="#000000" d="M547.5906,-221.0946C458.5227,-213.3441 454.0661,-133.3765 359,-108.7 303.9359,-94.4069 286.7495,-97.3715 231,-108.7 187.4784,-117.5438 183.4111,-147.7 139,-147.7"/>
<polygon fill="#000000" stroke="#000000" points="554.0071,-221.3641 561.8489,-225.2968 558.0035,-221.5321 562,-221.7 562,-221.7 562,-221.7 558.0035,-221.5321 562.1511,-218.1032 554.0071,-221.3641 554.0071,-221.3641"/>
<ellipse fill="none" stroke="#000000" cx="550.8099" cy="-221.2298" rx="3.2" ry="3.2"/>
</g>
<!-- event_users&#45;&gt;events -->
<g id="edge6" class="edge">
<title>event_users:w&#45;&gt;events:e</title>
<path fill="none" stroke="#000000" d="M548.5313,-228.0034C513.7812,-267.2713 556.6658,-476.7 504,-476.7"/>
<polygon fill="#000000" stroke="#000000" points="554.7543,-225.0911 563.526,-224.9606 558.3771,-223.3955 562,-221.7 562,-221.7 562,-221.7 558.3771,-223.3955 560.474,-218.4394 554.7543,-225.0911 554.7543,-225.0911"/>
<ellipse fill="none" stroke="#000000" cx="551.856" cy="-226.4475" rx="3.2" ry="3.2"/>
</g>
<!-- venues&#45;&gt;chapters -->
<g id="edge13" class="edge">
<title>venues:w&#45;&gt;chapters:e</title>
<path fill="none" stroke="#000000" d="M227.0452,-465.7404C212.7132,-456.1954 210.8924,-432.7 188,-432.7"/>
<polygon fill="#000000" stroke="#000000" points="233.3038,-467.5162 240.0173,-473.1633 237.1519,-468.6081 241,-469.7 241,-469.7 241,-469.7 237.1519,-468.6081 241.9827,-466.2367 233.3038,-467.5162 233.3038,-467.5162"/>
<ellipse fill="none" stroke="#000000" cx="230.2254" cy="-466.6427" rx="3.2" ry="3.2"/>
</g>
<!-- user_bans -->
<g id="node10" class="node">
<title>user_bans</title>
<g id="a_node10"><a xlink:href="../../tables/user_bans.html" xlink:title="user_bans" target="_top">
<polygon fill="#ffffff" stroke="transparent" points="248,-267.2 248,-372.2 342,-372.2 342,-267.2 248,-267.2"/>
<polygon fill="#f5f5f5" stroke="transparent" points="248,-348.7 248,-371.7 342,-371.7 342,-348.7 248,-348.7"/>
<polygon fill="none" stroke="#000000" points="248,-348.7 248,-371.7 342,-371.7 342,-348.7 248,-348.7"/>
<text text-anchor="start" x="252.8244" y="-357.8" font-family="Helvetica,sans-Serif" font-weight="bold" font-size="11.00" fill="#000000">user_bans</text>
<text text-anchor="start" x="307.5219" y="-356.8" font-family="Helvetica,sans-Serif" font-size="11.00" fill="#000000">[table]</text>
<polygon fill="none" stroke="#000000" points="248,-326.7 248,-348.7 342,-348.7 342,-326.7 248,-326.7"/>
<image xlink:href="../../images/primaryKeys.png" width="11px" height="12px" preserveAspectRatio="xMinYMin meet" x="253" y="-343.7"/>
<text text-anchor="start" x="271" y="-333.8" font-family="Helvetica,sans-Serif" font-size="11.00" fill="#000000">user_id</text>
<polygon fill="none" stroke="#000000" points="248,-304.7 248,-326.7 342,-326.7 342,-304.7 248,-304.7"/>
<image xlink:href="../../images/primaryKeys.png" width="11px" height="12px" preserveAspectRatio="xMinYMin meet" x="253" y="-321.7"/>
<text text-anchor="start" x="271" y="-311.8" font-family="Helvetica,sans-Serif" font-size="11.00" fill="#000000">chapter_id</text>
<polygon fill="none" stroke="#000000" points="248,-285.7 248,-304.7 342,-304.7 342,-285.7 248,-285.7"/>
<text text-anchor="start" x="251" y="-291.8" font-family="Helvetica,sans-Serif" font-size="11.00" fill="#000000">...</text>
<polygon fill="#ffffff" stroke="transparent" points="248,-266.7 248,-285.7 280,-285.7 280,-266.7 248,-266.7"/>
<polygon fill="none" stroke="#000000" points="248,-266.7 248,-285.7 280,-285.7 280,-266.7 248,-266.7"/>
<text text-anchor="start" x="251" y="-272.8" font-family="Helvetica,sans-Serif" font-size="11.00" fill="#000000">&lt; 2</text>
<polygon fill="#ffffff" stroke="transparent" points="280,-266.7 280,-285.7 324,-285.7 324,-266.7 280,-266.7"/>
<polygon fill="none" stroke="#000000" points="280,-266.7 280,-285.7 324,-285.7 324,-266.7 280,-266.7"/>
<text text-anchor="start" x="288.6105" y="-272.8" font-family="Helvetica,sans-Serif" font-size="11.00" fill="#000000">0 rows</text>
<polygon fill="#ffffff" stroke="transparent" points="324,-266.7 324,-285.7 342,-285.7 342,-266.7 324,-266.7"/>
<polygon fill="none" stroke="#000000" points="324,-266.7 324,-285.7 342,-285.7 342,-266.7 324,-266.7"/>
<text text-anchor="start" x="332.8862" y="-272.8" font-family="Helvetica,sans-Serif" font-size="11.00" fill="#000000"> &#160;</text>
</a>
</g>
</g>
<!-- user_bans&#45;&gt;chapters -->
<g id="edge11" class="edge">
<title>user_bans:w&#45;&gt;chapters:e</title>
<path fill="none" stroke="#000000" d="M233.5212,-319.0754C199.9249,-338.2588 240.5037,-432.7 188,-432.7"/>
<polygon fill="#000000" stroke="#000000" points="240.2089,-317.5164 248.8174,-319.206 244.1045,-316.6082 248,-315.7 248,-315.7 248,-315.7 244.1045,-316.6082 247.1826,-312.194 240.2089,-317.5164 240.2089,-317.5164"/>
<ellipse fill="none" stroke="#000000" cx="237.0925" cy="-318.2429" rx="3.2" ry="3.2"/>
</g>
<!-- user_bans&#45;&gt;users -->
<g id="edge12" class="edge">
<title>user_bans:w&#45;&gt;users:e</title>
<path fill="none" stroke="#000000" d="M233.5711,-335.9409C188.4216,-323.0762 235.0928,-242.5759 198,-191.7 178.7289,-165.268 171.7112,-147.7 139,-147.7"/>
<polygon fill="#000000" stroke="#000000" points="240.0588,-336.7318 247.5643,-341.2735 244.0294,-337.2159 248,-337.7 248,-337.7 248,-337.7 244.0294,-337.2159 248.4357,-334.1265 240.0588,-336.7318 240.0588,-336.7318"/>
<ellipse fill="none" stroke="#000000" cx="236.8823" cy="-336.3445" rx="3.2" ry="3.2"/>
</g>
</g>
</svg>
