<?xml version="1.0" encoding="UTF-8" standalone="no"?>
<!DOCTYPE svg PUBLIC "-//W3C//DTD SVG 1.1//EN"
 "http://www.w3.org/Graphics/SVG/1.1/DTD/svg11.dtd">
<!-- Generated by graphviz version 2.40.1 (20161225.0304)
 -->
<!-- Title: twoDegreesRelationshipsDiagram Pages: 1 -->
<svg width="497pt" height="305pt"
 viewBox="0.00 0.00 497.00 305.20" xmlns="http://www.w3.org/2000/svg" xmlns:xlink="http://www.w3.org/1999/xlink">
<g id="graph0" class="graph" transform="scale(1 1) rotate(0) translate(4 301.2)">
<title>twoDegreesRelationshipsDiagram</title>
<polygon fill="#ffffff" stroke="transparent" points="-4,4 -4,-301.2 493,-301.2 493,4 -4,4"/>
<text text-anchor="middle" x="72.4936" y="-7.3" font-family="Helvetica,sans-Serif" font-size="11.00" fill="#000000">Generated by SchemaSpy</text>
<!-- chapter_role_permissions -->
<g id="node1" class="node">
<title>chapter_role_permissions</title>
<g id="a_node1"><a xlink:href="../../tables/chapter_role_permissions.html" xlink:title="chapter_role_permissions" target="_top">
<polygon fill="#ffffff" stroke="transparent" points="220,-76.7 220,-210.7 481,-210.7 481,-76.7 220,-76.7"/>
<polygon fill="#f5f5f5" stroke="transparent" points="222.5,-185.7 222.5,-208.7 479.5,-208.7 479.5,-185.7 222.5,-185.7"/>
<polygon fill="none" stroke="#000000" points="222.5,-185.7 222.5,-208.7 479.5,-208.7 479.5,-185.7 222.5,-185.7"/>
<text text-anchor="start" x="227.5" y="-194.3" font-family="Helvetica,sans-Serif" font-weight="bold" font-size="11.00" fill="#000000">chapter_role_permissions</text>
<text text-anchor="start" x="444.5437" y="-193.8" font-family="Helvetica,sans-Serif" font-size="11.00" fill="#000000">[table]</text>
<polygon fill="none" stroke="#000000" points="222.5,-163.7 222.5,-185.7 395.5,-185.7 395.5,-163.7 222.5,-163.7"/>
<text text-anchor="start" x="242.5" y="-170.8" font-family="Helvetica,sans-Serif" font-size="11.00" fill="#000000">created_at</text>
<polygon fill="none" stroke="#000000" points="395.5,-163.7 395.5,-185.7 479.5,-185.7 479.5,-163.7 395.5,-163.7"/>
<text text-anchor="start" x="398.3807" y="-171.4" font-family="Helvetica,sans-Serif" font-size="11.00" fill="#000000">timestamp[26,3]</text>
<polygon fill="none" stroke="#000000" points="222.5,-141.7 222.5,-163.7 395.5,-163.7 395.5,-141.7 222.5,-141.7"/>
<text text-anchor="start" x="242.5" y="-148.8" font-family="Helvetica,sans-Serif" font-size="11.00" fill="#000000">updated_at</text>
<polygon fill="none" stroke="#000000" points="395.5,-141.7 395.5,-163.7 479.5,-163.7 479.5,-141.7 395.5,-141.7"/>
<text text-anchor="start" x="398.3807" y="-149.4" font-family="Helvetica,sans-Serif" font-size="11.00" fill="#000000">timestamp[26,3]</text>
<polygon fill="none" stroke="#000000" points="222.5,-119.7 222.5,-141.7 395.5,-141.7 395.5,-119.7 222.5,-119.7"/>
<image xlink:href="../../images/primaryKeys.png" width="11px" height="12px" preserveAspectRatio="xMinYMin meet" x="227.5" y="-136.7"/>
<text text-anchor="start" x="242.5" y="-126.8" font-family="Helvetica,sans-Serif" font-size="11.00" fill="#000000">chapter_role_id</text>
<polygon fill="none" stroke="#000000" points="395.5,-119.7 395.5,-141.7 479.5,-141.7 479.5,-119.7 395.5,-119.7"/>
<text text-anchor="start" x="398.5" y="-127.4" font-family="Helvetica,sans-Serif" font-size="11.00" fill="#000000">int4[10]</text>
<polygon fill="none" stroke="#000000" points="222.5,-97.7 222.5,-119.7 395.5,-119.7 395.5,-97.7 222.5,-97.7"/>
<image xlink:href="../../images/primaryKeys.png" width="11px" height="12px" preserveAspectRatio="xMinYMin meet" x="227.5" y="-114.7"/>
<text text-anchor="start" x="242.5" y="-104.8" font-family="Helvetica,sans-Serif" font-size="11.00" fill="#000000">chapter_permissions_id</text>
<polygon fill="none" stroke="#000000" points="395.5,-97.7 395.5,-119.7 479.5,-119.7 479.5,-97.7 395.5,-97.7"/>
<text text-anchor="start" x="398.5" y="-105.4" font-family="Helvetica,sans-Serif" font-size="11.00" fill="#000000">int4[10]</text>
<polygon fill="#ffffff" stroke="transparent" points="222.5,-78.7 222.5,-97.7 300.5,-97.7 300.5,-78.7 222.5,-78.7"/>
<polygon fill="none" stroke="#000000" points="222.5,-78.7 222.5,-97.7 300.5,-97.7 300.5,-78.7 222.5,-78.7"/>
<text text-anchor="start" x="225.5" y="-84.8" font-family="Helvetica,sans-Serif" font-size="11.00" fill="#000000">&lt; 2</text>
<polygon fill="#ffffff" stroke="transparent" points="300.5,-78.7 300.5,-97.7 395.5,-97.7 395.5,-78.7 300.5,-78.7"/>
<polygon fill="none" stroke="#000000" points="300.5,-78.7 300.5,-97.7 395.5,-97.7 395.5,-78.7 300.5,-78.7"/>
<text text-anchor="start" x="360.1105" y="-84.8" font-family="Helvetica,sans-Serif" font-size="11.00" fill="#000000">0 rows</text>
<polygon fill="#ffffff" stroke="transparent" points="395.5,-78.7 395.5,-97.7 479.5,-97.7 479.5,-78.7 395.5,-78.7"/>
<polygon fill="none" stroke="#000000" points="395.5,-78.7 395.5,-97.7 479.5,-97.7 479.5,-78.7 395.5,-78.7"/>
<text text-anchor="start" x="460.9053" y="-84.8" font-family="Helvetica,sans-Serif" font-size="11.00" fill="#000000">0 &gt;</text>
<polygon fill="none" stroke="#000000" stroke-width="2" points="221,-77.7 221,-209.7 480,-209.7 480,-77.7 221,-77.7"/>
</a>
</g>
</g>
<!-- chapter_permissions -->
<g id="node2" class="node">
<title>chapter_permissions</title>
<g id="a_node2"><a xlink:href="../../tables/chapter_permissions.html" xlink:title="chapter_permissions" target="_top">
<polygon fill="#ffffff" stroke="transparent" points="8,-38.2 8,-143.2 171,-143.2 171,-38.2 8,-38.2"/>
<polygon fill="#f5f5f5" stroke="transparent" points="8.5,-119.7 8.5,-142.7 171.5,-142.7 171.5,-119.7 8.5,-119.7"/>
<polygon fill="none" stroke="#000000" points="8.5,-119.7 8.5,-142.7 171.5,-142.7 171.5,-119.7 8.5,-119.7"/>
<text text-anchor="start" x="13.5" y="-128.3" font-family="Helvetica,sans-Serif" font-weight="bold" font-size="11.00" fill="#000000">chapter_permissions</text>
<text text-anchor="start" x="137.0219" y="-127.8" font-family="Helvetica,sans-Serif" font-size="11.00" fill="#000000">[table]</text>
<polygon fill="none" stroke="#000000" points="8.5,-97.7 8.5,-119.7 171.5,-119.7 171.5,-97.7 8.5,-97.7"/>
<image xlink:href="../../images/primaryKeys.png" width="11px" height="12px" preserveAspectRatio="xMinYMin meet" x="13.5" y="-114.7"/>
<text text-anchor="start" x="37.5" y="-104.8" font-family="Helvetica,sans-Serif" font-size="11.00" fill="#000000">id</text>
<polygon fill="#ffffff" stroke="transparent" points="8.5,-75.7 8.5,-97.7 171.5,-97.7 171.5,-75.7 8.5,-75.7"/>
<polygon fill="none" stroke="#000000" points="8.5,-75.7 8.5,-97.7 171.5,-97.7 171.5,-75.7 8.5,-75.7"/>
<text text-anchor="start" x="37.5" y="-82.8" font-family="Helvetica,sans-Serif" font-size="11.00" fill="#000000">name</text>
<polygon fill="none" stroke="#000000" points="8.5,-56.7 8.5,-75.7 171.5,-75.7 171.5,-56.7 8.5,-56.7"/>
<text text-anchor="start" x="11.5" y="-62.8" font-family="Helvetica,sans-Serif" font-size="11.00" fill="#000000">...</text>
<polygon fill="#ffffff" stroke="transparent" points="8.5,-37.7 8.5,-56.7 66.5,-56.7 66.5,-37.7 8.5,-37.7"/>
<polygon fill="none" stroke="#000000" points="8.5,-37.7 8.5,-56.7 66.5,-56.7 66.5,-37.7 8.5,-37.7"/>
<text text-anchor="start" x="11.5" y="-43.8" font-family="Helvetica,sans-Serif" font-size="11.00" fill="#000000"> &#160;</text>
<polygon fill="#ffffff" stroke="transparent" points="66.5,-37.7 66.5,-56.7 127.5,-56.7 127.5,-37.7 66.5,-37.7"/>
<polygon fill="none" stroke="#000000" points="66.5,-37.7 66.5,-56.7 127.5,-56.7 127.5,-37.7 66.5,-37.7"/>
<text text-anchor="start" x="92.1105" y="-43.8" font-family="Helvetica,sans-Serif" font-size="11.00" fill="#000000">0 rows</text>
<polygon fill="#ffffff" stroke="transparent" points="127.5,-37.7 127.5,-56.7 171.5,-56.7 171.5,-37.7 127.5,-37.7"/>
<polygon fill="none" stroke="#000000" points="127.5,-37.7 127.5,-56.7 171.5,-56.7 171.5,-37.7 127.5,-37.7"/>
<text text-anchor="start" x="152.9053" y="-43.8" font-family="Helvetica,sans-Serif" font-size="11.00" fill="#000000">1 &gt;</text>
</a>
</g>
</g>
<!-- chapter_role_permissions&#45;&gt;chapter_permissions -->
<g id="edge1" class="edge">
<title>chapter_role_permissions:w&#45;&gt;chapter_permissions:e</title>
<path fill="none" stroke="#000000" d="M207.776,-108.7C195.7815,-108.7 188.3229,-108.7 171.5,-108.7"/>
<polygon fill="#000000" stroke="#000000" points="214.5,-108.7001 222.5,-112.3 218.5,-108.7 222.5,-108.7 222.5,-108.7 222.5,-108.7 218.5,-108.7 222.5,-105.1 214.5,-108.7001 214.5,-108.7001"/>
<ellipse fill="none" stroke="#000000" cx="211.3" cy="-108.7001" rx="3.2" ry="3.2"/>
</g>
<!-- chapter_roles -->
<g id="node3" class="node">
<title>chapter_roles</title>
<g id="a_node3"><a xlink:href="../../tables/chapter_roles.html" xlink:title="chapter_roles" target="_top">
<polygon fill="#ffffff" stroke="transparent" points="29.5,-176.2 29.5,-281.2 149.5,-281.2 149.5,-176.2 29.5,-176.2"/>
<polygon fill="#f5f5f5" stroke="transparent" points="29.5,-257.7 29.5,-280.7 149.5,-280.7 149.5,-257.7 29.5,-257.7"/>
<polygon fill="none" stroke="#000000" points="29.5,-257.7 29.5,-280.7 149.5,-280.7 149.5,-257.7 29.5,-257.7"/>
<text text-anchor="start" x="34.5" y="-266.3" font-family="Helvetica,sans-Serif" font-weight="bold" font-size="11.00" fill="#000000">chapter_roles</text>
<text text-anchor="start" x="115.0219" y="-265.8" font-family="Helvetica,sans-Serif" font-size="11.00" fill="#000000">[table]</text>
<polygon fill="none" stroke="#000000" points="29.5,-235.7 29.5,-257.7 149.5,-257.7 149.5,-235.7 29.5,-235.7"/>
<image xlink:href="../../images/primaryKeys.png" width="11px" height="12px" preserveAspectRatio="xMinYMin meet" x="34.5" y="-252.7"/>
<text text-anchor="start" x="58.5" y="-242.8" font-family="Helvetica,sans-Serif" font-size="11.00" fill="#000000">id</text>
<polygon fill="#ffffff" stroke="transparent" points="29.5,-213.7 29.5,-235.7 149.5,-235.7 149.5,-213.7 29.5,-213.7"/>
<polygon fill="none" stroke="#000000" points="29.5,-213.7 29.5,-235.7 149.5,-235.7 149.5,-213.7 29.5,-213.7"/>
<text text-anchor="start" x="58.5" y="-220.8" font-family="Helvetica,sans-Serif" font-size="11.00" fill="#000000">name</text>
<polygon fill="none" stroke="#000000" points="29.5,-194.7 29.5,-213.7 149.5,-213.7 149.5,-194.7 29.5,-194.7"/>
<text text-anchor="start" x="32.5" y="-200.8" font-family="Helvetica,sans-Serif" font-size="11.00" fill="#000000">...</text>
<polygon fill="#ffffff" stroke="transparent" points="29.5,-175.7 29.5,-194.7 65.5,-194.7 65.5,-175.7 29.5,-175.7"/>
<polygon fill="none" stroke="#000000" points="29.5,-175.7 29.5,-194.7 65.5,-194.7 65.5,-175.7 29.5,-175.7"/>
<text text-anchor="start" x="32.5" y="-181.8" font-family="Helvetica,sans-Serif" font-size="11.00" fill="#000000"> &#160;</text>
<polygon fill="#ffffff" stroke="transparent" points="65.5,-175.7 65.5,-194.7 115.5,-194.7 115.5,-175.7 65.5,-175.7"/>
<polygon fill="none" stroke="#000000" points="65.5,-175.7 65.5,-194.7 115.5,-194.7 115.5,-175.7 65.5,-175.7"/>
<text text-anchor="start" x="80.1105" y="-181.8" font-family="Helvetica,sans-Serif" font-size="11.00" fill="#000000">0 rows</text>
<polygon fill="#ffffff" stroke="transparent" points="115.5,-175.7 115.5,-194.7 149.5,-194.7 149.5,-175.7 115.5,-175.7"/>
<polygon fill="none" stroke="#000000" points="115.5,-175.7 115.5,-194.7 149.5,-194.7 149.5,-175.7 115.5,-175.7"/>
<text text-anchor="start" x="130.9053" y="-181.8" font-family="Helvetica,sans-Serif" font-size="11.00" fill="#000000">2 &gt;</text>
</a>
</g>
</g>
<!-- chapter_role_permissions&#45;&gt;chapter_roles -->
<g id="edge2" class="edge">
<title>chapter_role_permissions:w&#45;&gt;chapter_roles:e</title>
<path fill="none" stroke="#000000" d="M208.3292,-133.453C169.6252,-151.0194 204.823,-246.7 149.5,-246.7"/>
<polygon fill="#000000" stroke="#000000" points="214.6468,-132.2257 223.1866,-134.2339 218.5734,-131.4629 222.5,-130.7 222.5,-130.7 222.5,-130.7 218.5734,-131.4629 221.8134,-127.1661 214.6468,-132.2257 214.6468,-132.2257"/>
<ellipse fill="none" stroke="#000000" cx="211.5056" cy="-132.836" rx="3.2" ry="3.2"/>
</g>
<!-- chapter_users -->
<g id="node4" class="node">
<title>chapter_users</title>
<g id="a_node4"><a xlink:href="../../tables/chapter_users.html" xlink:title="chapter_users" target="_top">
<polygon fill="#ffffff" stroke="transparent" points="289.5,-232.2 289.5,-293.2 411.5,-293.2 411.5,-232.2 289.5,-232.2"/>
<polygon fill="#f5f5f5" stroke="transparent" points="289.5,-269.7 289.5,-292.7 411.5,-292.7 411.5,-269.7 289.5,-269.7"/>
<polygon fill="none" stroke="#000000" points="289.5,-269.7 289.5,-292.7 411.5,-292.7 411.5,-269.7 289.5,-269.7"/>
<text text-anchor="start" x="294.5" y="-278.3" font-family="Helvetica,sans-Serif" font-weight="bold" font-size="11.00" fill="#000000">chapter_users</text>
<text text-anchor="start" x="377.0219" y="-277.8" font-family="Helvetica,sans-Serif" font-size="11.00" fill="#000000">[table]</text>
<polygon fill="none" stroke="#000000" points="289.5,-250.7 289.5,-269.7 411.5,-269.7 411.5,-250.7 289.5,-250.7"/>
<text text-anchor="start" x="292.5" y="-256.8" font-family="Helvetica,sans-Serif" font-size="11.00" fill="#000000">...</text>
<polygon fill="#ffffff" stroke="transparent" points="289.5,-231.7 289.5,-250.7 335.5,-250.7 335.5,-231.7 289.5,-231.7"/>
<polygon fill="none" stroke="#000000" points="289.5,-231.7 289.5,-250.7 335.5,-250.7 335.5,-231.7 289.5,-231.7"/>
<text text-anchor="start" x="292.5" y="-237.8" font-family="Helvetica,sans-Serif" font-size="11.00" fill="#000000">&lt; 3</text>
<polygon fill="#ffffff" stroke="transparent" points="335.5,-231.7 335.5,-250.7 386.5,-250.7 386.5,-231.7 335.5,-231.7"/>
<polygon fill="none" stroke="#000000" points="335.5,-231.7 335.5,-250.7 386.5,-250.7 386.5,-231.7 335.5,-231.7"/>
<text text-anchor="start" x="351.1105" y="-237.8" font-family="Helvetica,sans-Serif" font-size="11.00" fill="#000000">0 rows</text>
<polygon fill="#ffffff" stroke="transparent" points="386.5,-231.7 386.5,-250.7 411.5,-250.7 411.5,-231.7 386.5,-231.7"/>
<polygon fill="none" stroke="#000000" points="386.5,-231.7 386.5,-250.7 411.5,-250.7 411.5,-231.7 386.5,-231.7"/>
<text text-anchor="start" x="402.3862" y="-237.8" font-family="Helvetica,sans-Serif" font-size="11.00" fill="#000000"> &#160;</text>
</a>
</g>
</g>
<!-- chapter_users&#45;&gt;chapter_roles -->
<g id="edge3" class="edge">
<title>chapter_users:w&#45;&gt;chapter_roles:e</title>
<path fill="none" stroke="#000000" d="M275.0275,-259.4519C224.2264,-257.6547 206.8638,-246.7 149.5,-246.7"/>
<polygon fill="#000000" stroke="#000000" points="281.5012,-259.5628 289.4383,-263.2995 285.5006,-259.6314 289.5,-259.7 289.5,-259.7 289.5,-259.7 285.5006,-259.6314 289.5617,-256.1005 281.5012,-259.5628 281.5012,-259.5628"/>
<ellipse fill="none" stroke="#000000" cx="278.3016" cy="-259.508" rx="3.2" ry="3.2"/>
</g>
</g>
</svg>
