<?xml version="1.0" encoding="UTF-8" standalone="no"?>
<!DOCTYPE svg PUBLIC "-//W3C//DTD SVG 1.1//EN"
 "http://www.w3.org/Graphics/SVG/1.1/DTD/svg11.dtd">
<!-- Generated by graphviz version 2.40.1 (20161225.0304)
 -->
<!-- Title: twoDegreesRelationshipsDiagram Pages: 1 -->
<svg width="753pt" height="679pt"
 viewBox="0.00 0.00 753.00 678.54" xmlns="http://www.w3.org/2000/svg" xmlns:xlink="http://www.w3.org/1999/xlink">
<g id="graph0" class="graph" transform="scale(1 1) rotate(0) translate(4 674.5364)">
<title>twoDegreesRelationshipsDiagram</title>
<polygon fill="#ffffff" stroke="transparent" points="-4,4 -4,-674.5364 749,-674.5364 749,4 -4,4"/>
<text text-anchor="middle" x="72.4936" y="-7.3" font-family="Helvetica,sans-Serif" font-size="11.00" fill="#000000">Generated by SchemaSpy</text>
<!-- chapters -->
<g id="node1" class="node">
<title>chapters</title>
<g id="a_node1"><a xlink:href="../../tables/chapters.html" xlink:title="chapters" target="_top">
<polygon fill="#ffffff" stroke="transparent" points="154,-194.0364 154,-482.0364 364,-482.0364 364,-194.0364 154,-194.0364"/>
<polygon fill="#f5f5f5" stroke="transparent" points="156,-457.0364 156,-480.0364 362,-480.0364 362,-457.0364 156,-457.0364"/>
<polygon fill="none" stroke="#000000" points="156,-457.0364 156,-480.0364 362,-480.0364 362,-457.0364 156,-457.0364"/>
<text text-anchor="start" x="161" y="-466.1364" font-family="Helvetica,sans-Serif" font-weight="bold" font-size="11.00" fill="#000000">chapters</text>
<text text-anchor="start" x="327.0437" y="-465.1364" font-family="Helvetica,sans-Serif" font-size="11.00" fill="#000000">[table]</text>
<polygon fill="none" stroke="#000000" points="156,-435.0364 156,-457.0364 253,-457.0364 253,-435.0364 156,-435.0364"/>
<image xlink:href="../../images/primaryKeys.png" width="11px" height="12px" preserveAspectRatio="xMinYMin meet" x="161" y="-452.036"/>
<text text-anchor="start" x="176" y="-442.1364" font-family="Helvetica,sans-Serif" font-size="11.00" fill="#000000">id</text>
<polygon fill="none" stroke="#000000" points="253,-435.0364 253,-457.0364 362,-457.0364 362,-435.0364 253,-435.0364"/>
<text text-anchor="start" x="256" y="-442.7364" font-family="Helvetica,sans-Serif" font-size="11.00" fill="#000000">serial[10]</text>
<polygon fill="none" stroke="#000000" points="156,-413.0364 156,-435.0364 253,-435.0364 253,-413.0364 156,-413.0364"/>
<text text-anchor="start" x="176" y="-420.1364" font-family="Helvetica,sans-Serif" font-size="11.00" fill="#000000">name</text>
<polygon fill="none" stroke="#000000" points="253,-413.0364 253,-435.0364 362,-435.0364 362,-413.0364 253,-413.0364"/>
<text text-anchor="start" x="255.5344" y="-420.7364" font-family="Helvetica,sans-Serif" font-size="11.00" fill="#000000">varchar[2147483647]</text>
<polygon fill="none" stroke="#000000" points="156,-391.0364 156,-413.0364 253,-413.0364 253,-391.0364 156,-391.0364"/>
<text text-anchor="start" x="176" y="-398.1364" font-family="Helvetica,sans-Serif" font-size="11.00" fill="#000000">description</text>
<polygon fill="none" stroke="#000000" points="253,-391.0364 253,-413.0364 362,-413.0364 362,-391.0364 253,-391.0364"/>
<text text-anchor="start" x="255.5344" y="-398.7364" font-family="Helvetica,sans-Serif" font-size="11.00" fill="#000000">varchar[2147483647]</text>
<polygon fill="none" stroke="#000000" points="156,-369.0364 156,-391.0364 253,-391.0364 253,-369.0364 156,-369.0364"/>
<text text-anchor="start" x="176" y="-376.1364" font-family="Helvetica,sans-Serif" font-size="11.00" fill="#000000">category</text>
<polygon fill="none" stroke="#000000" points="253,-369.0364 253,-391.0364 362,-391.0364 362,-369.0364 253,-369.0364"/>
<text text-anchor="start" x="255.5344" y="-376.7364" font-family="Helvetica,sans-Serif" font-size="11.00" fill="#000000">varchar[2147483647]</text>
<polygon fill="none" stroke="#000000" points="156,-347.0364 156,-369.0364 253,-369.0364 253,-347.0364 156,-347.0364"/>
<text text-anchor="start" x="176" y="-354.1364" font-family="Helvetica,sans-Serif" font-size="11.00" fill="#000000">details</text>
<polygon fill="none" stroke="#000000" points="253,-347.0364 253,-369.0364 362,-369.0364 362,-347.0364 253,-347.0364"/>
<text text-anchor="start" x="256" y="-354.7364" font-family="Helvetica,sans-Serif" font-size="11.00" fill="#000000">json[2147483647]</text>
<polygon fill="none" stroke="#000000" points="156,-325.0364 156,-347.0364 253,-347.0364 253,-325.0364 156,-325.0364"/>
<image xlink:href="../../images/foreignKeys.png" width="11px" height="12px" preserveAspectRatio="xMinYMin meet" x="161" y="-342.036"/>
<text text-anchor="start" x="176" y="-332.1364" font-family="Helvetica,sans-Serif" font-size="11.00" fill="#000000">creator_id</text>
<polygon fill="none" stroke="#000000" points="253,-325.0364 253,-347.0364 362,-347.0364 362,-325.0364 253,-325.0364"/>
<text text-anchor="start" x="256" y="-332.7364" font-family="Helvetica,sans-Serif" font-size="11.00" fill="#000000">int4[10]</text>
<polygon fill="none" stroke="#000000" points="156,-303.0364 156,-325.0364 253,-325.0364 253,-303.0364 156,-303.0364"/>
<text text-anchor="start" x="176" y="-310.1364" font-family="Helvetica,sans-Serif" font-size="11.00" fill="#000000">created_at</text>
<polygon fill="none" stroke="#000000" points="253,-303.0364 253,-325.0364 362,-325.0364 362,-303.0364 253,-303.0364"/>
<text text-anchor="start" x="256" y="-310.7364" font-family="Helvetica,sans-Serif" font-size="11.00" fill="#000000">timestamp[29,6]</text>
<polygon fill="none" stroke="#000000" points="156,-281.0364 156,-303.0364 253,-303.0364 253,-281.0364 156,-281.0364"/>
<text text-anchor="start" x="176" y="-288.1364" font-family="Helvetica,sans-Serif" font-size="11.00" fill="#000000">updated_at</text>
<polygon fill="none" stroke="#000000" points="253,-281.0364 253,-303.0364 362,-303.0364 362,-281.0364 253,-281.0364"/>
<text text-anchor="start" x="256" y="-288.7364" font-family="Helvetica,sans-Serif" font-size="11.00" fill="#000000">timestamp[29,6]</text>
<polygon fill="none" stroke="#000000" points="156,-259.0364 156,-281.0364 253,-281.0364 253,-259.0364 156,-259.0364"/>
<text text-anchor="start" x="176" y="-266.1364" font-family="Helvetica,sans-Serif" font-size="11.00" fill="#000000">city</text>
<polygon fill="none" stroke="#000000" points="253,-259.0364 253,-281.0364 362,-281.0364 362,-259.0364 253,-259.0364"/>
<text text-anchor="start" x="255.5344" y="-266.7364" font-family="Helvetica,sans-Serif" font-size="11.00" fill="#000000">varchar[2147483647]</text>
<polygon fill="none" stroke="#000000" points="156,-237.0364 156,-259.0364 253,-259.0364 253,-237.0364 156,-237.0364"/>
<text text-anchor="start" x="176" y="-244.1364" font-family="Helvetica,sans-Serif" font-size="11.00" fill="#000000">region</text>
<polygon fill="none" stroke="#000000" points="253,-237.0364 253,-259.0364 362,-259.0364 362,-237.0364 253,-237.0364"/>
<text text-anchor="start" x="255.5344" y="-244.7364" font-family="Helvetica,sans-Serif" font-size="11.00" fill="#000000">varchar[2147483647]</text>
<polygon fill="none" stroke="#000000" points="156,-215.0364 156,-237.0364 253,-237.0364 253,-215.0364 156,-215.0364"/>
<text text-anchor="start" x="176" y="-222.1364" font-family="Helvetica,sans-Serif" font-size="11.00" fill="#000000">country</text>
<polygon fill="none" stroke="#000000" points="253,-215.0364 253,-237.0364 362,-237.0364 362,-215.0364 253,-215.0364"/>
<text text-anchor="start" x="255.5344" y="-222.7364" font-family="Helvetica,sans-Serif" font-size="11.00" fill="#000000">varchar[2147483647]</text>
<polygon fill="#ffffff" stroke="transparent" points="156,-196.0364 156,-215.0364 196,-215.0364 196,-196.0364 156,-196.0364"/>
<polygon fill="none" stroke="#000000" points="156,-196.0364 156,-215.0364 196,-215.0364 196,-196.0364 156,-196.0364"/>
<text text-anchor="start" x="159" y="-202.1364" font-family="Helvetica,sans-Serif" font-size="11.00" fill="#000000">&lt; 1</text>
<polygon fill="#ffffff" stroke="transparent" points="196,-196.0364 196,-215.0364 253,-215.0364 253,-196.0364 196,-196.0364"/>
<polygon fill="none" stroke="#000000" points="196,-196.0364 196,-215.0364 253,-215.0364 253,-196.0364 196,-196.0364"/>
<text text-anchor="start" x="217.6105" y="-202.1364" font-family="Helvetica,sans-Serif" font-size="11.00" fill="#000000">4 rows</text>
<polygon fill="#ffffff" stroke="transparent" points="253,-196.0364 253,-215.0364 362,-215.0364 362,-196.0364 253,-196.0364"/>
<polygon fill="none" stroke="#000000" points="253,-196.0364 253,-215.0364 362,-215.0364 362,-196.0364 253,-196.0364"/>
<text text-anchor="start" x="343.4053" y="-202.1364" font-family="Helvetica,sans-Serif" font-size="11.00" fill="#000000">3 &gt;</text>
<polygon fill="none" stroke="#000000" stroke-width="2" points="155,-195.0364 155,-481.0364 363,-481.0364 363,-195.0364 155,-195.0364"/>
</a>
</g>
</g>
<!-- users -->
<g id="node2" class="node">
<title>users</title>
<g id="a_node2"><a xlink:href="../../tables/users.html" xlink:title="users" target="_top">
<polygon fill="#ffffff" stroke="transparent" points="8,-448.5364 8,-553.5364 105,-553.5364 105,-448.5364 8,-448.5364"/>
<polygon fill="#f5f5f5" stroke="transparent" points="8.5,-530.0364 8.5,-553.0364 105.5,-553.0364 105.5,-530.0364 8.5,-530.0364"/>
<polygon fill="none" stroke="#000000" points="8.5,-530.0364 8.5,-553.0364 105.5,-553.0364 105.5,-530.0364 8.5,-530.0364"/>
<text text-anchor="start" x="13.5" y="-539.1364" font-family="Helvetica,sans-Serif" font-weight="bold" font-size="11.00" fill="#000000">users</text>
<text text-anchor="start" x="70.5437" y="-538.1364" font-family="Helvetica,sans-Serif" font-size="11.00" fill="#000000">[table]</text>
<polygon fill="none" stroke="#000000" points="8.5,-508.0364 8.5,-530.0364 105.5,-530.0364 105.5,-508.0364 8.5,-508.0364"/>
<image xlink:href="../../images/primaryKeys.png" width="11px" height="12px" preserveAspectRatio="xMinYMin meet" x="13.5" y="-525.036"/>
<text text-anchor="start" x="28.5" y="-515.1364" font-family="Helvetica,sans-Serif" font-size="11.00" fill="#000000">id</text>
<polygon fill="#ffffff" stroke="transparent" points="8.5,-486.0364 8.5,-508.0364 105.5,-508.0364 105.5,-486.0364 8.5,-486.0364"/>
<polygon fill="none" stroke="#000000" points="8.5,-486.0364 8.5,-508.0364 105.5,-508.0364 105.5,-486.0364 8.5,-486.0364"/>
<text text-anchor="start" x="28.5" y="-493.1364" font-family="Helvetica,sans-Serif" font-size="11.00" fill="#000000">email</text>
<polygon fill="none" stroke="#000000" points="8.5,-467.0364 8.5,-486.0364 105.5,-486.0364 105.5,-467.0364 8.5,-467.0364"/>
<text text-anchor="start" x="11.5" y="-473.1364" font-family="Helvetica,sans-Serif" font-size="11.00" fill="#000000">...</text>
<polygon fill="#ffffff" stroke="transparent" points="8.5,-448.0364 8.5,-467.0364 30.5,-467.0364 30.5,-448.0364 8.5,-448.0364"/>
<polygon fill="none" stroke="#000000" points="8.5,-448.0364 8.5,-467.0364 30.5,-467.0364 30.5,-448.0364 8.5,-448.0364"/>
<text text-anchor="start" x="11.5" y="-454.1364" font-family="Helvetica,sans-Serif" font-size="11.00" fill="#000000"> &#160;</text>
<polygon fill="#ffffff" stroke="transparent" points="30.5,-448.0364 30.5,-467.0364 79.5,-467.0364 79.5,-448.0364 30.5,-448.0364"/>
<polygon fill="none" stroke="#000000" points="30.5,-448.0364 30.5,-467.0364 79.5,-467.0364 79.5,-448.0364 30.5,-448.0364"/>
<text text-anchor="start" x="37.9956" y="-454.1364" font-family="Helvetica,sans-Serif" font-size="11.00" fill="#000000">11 rows</text>
<polygon fill="#ffffff" stroke="transparent" points="79.5,-448.0364 79.5,-467.0364 105.5,-467.0364 105.5,-448.0364 79.5,-448.0364"/>
<polygon fill="none" stroke="#000000" points="79.5,-448.0364 79.5,-467.0364 105.5,-467.0364 105.5,-448.0364 79.5,-448.0364"/>
<text text-anchor="start" x="86.9053" y="-454.1364" font-family="Helvetica,sans-Serif" font-size="11.00" fill="#000000">6 &gt;</text>
</a>
</g>
</g>
<!-- chapters&#45;&gt;users -->
<g id="edge1" class="edge">
<title>chapters:w&#45;&gt;users:e</title>
<path fill="none" stroke="#000000" d="M141.7531,-338.3502C86.4378,-359.5341 184.2704,-519.0364 105.5,-519.0364"/>
<polygon fill="#000000" stroke="#000000" points="148.1035,-337.3189 156.5771,-339.5898 152.0517,-336.6776 156,-336.0364 156,-336.0364 156,-336.0364 152.0517,-336.6776 155.4229,-332.4829 148.1035,-337.3189 148.1035,-337.3189"/>
<ellipse fill="none" stroke="#000000" cx="144.9448" cy="-337.8319" rx="3.2" ry="3.2"/>
</g>
<!-- event_sponsors -->
<g id="node3" class="node">
<title>event_sponsors</title>
<g id="a_node3"><a xlink:href="../../tables/event_sponsors.html" xlink:title="event_sponsors" target="_top">
<polygon fill="#ffffff" stroke="transparent" points="613.5,-167.5364 613.5,-228.5364 733.5,-228.5364 733.5,-167.5364 613.5,-167.5364"/>
<polygon fill="#f5f5f5" stroke="transparent" points="613.5,-205.0364 613.5,-228.0364 733.5,-228.0364 733.5,-205.0364 613.5,-205.0364"/>
<polygon fill="none" stroke="#000000" points="613.5,-205.0364 613.5,-228.0364 733.5,-228.0364 733.5,-205.0364 613.5,-205.0364"/>
<text text-anchor="start" x="618.181" y="-214.1364" font-family="Helvetica,sans-Serif" font-weight="bold" font-size="11.00" fill="#000000">event_sponsors</text>
<text text-anchor="start" x="699.0219" y="-213.1364" font-family="Helvetica,sans-Serif" font-size="11.00" fill="#000000">[table]</text>
<polygon fill="none" stroke="#000000" points="613.5,-186.0364 613.5,-205.0364 733.5,-205.0364 733.5,-186.0364 613.5,-186.0364"/>
<text text-anchor="start" x="616.5" y="-192.1364" font-family="Helvetica,sans-Serif" font-size="11.00" fill="#000000">...</text>
<polygon fill="#ffffff" stroke="transparent" points="613.5,-167.0364 613.5,-186.0364 658.5,-186.0364 658.5,-167.0364 613.5,-167.0364"/>
<polygon fill="none" stroke="#000000" points="613.5,-167.0364 613.5,-186.0364 658.5,-186.0364 658.5,-167.0364 613.5,-167.0364"/>
<text text-anchor="start" x="616.5" y="-173.1364" font-family="Helvetica,sans-Serif" font-size="11.00" fill="#000000">&lt; 2</text>
<polygon fill="#ffffff" stroke="transparent" points="658.5,-167.0364 658.5,-186.0364 708.5,-186.0364 708.5,-167.0364 658.5,-167.0364"/>
<polygon fill="none" stroke="#000000" points="658.5,-167.0364 658.5,-186.0364 708.5,-186.0364 708.5,-167.0364 658.5,-167.0364"/>
<text text-anchor="start" x="673.1105" y="-173.1364" font-family="Helvetica,sans-Serif" font-size="11.00" fill="#000000">8 rows</text>
<polygon fill="#ffffff" stroke="transparent" points="708.5,-167.0364 708.5,-186.0364 733.5,-186.0364 733.5,-167.0364 708.5,-167.0364"/>
<polygon fill="none" stroke="#000000" points="708.5,-167.0364 708.5,-186.0364 733.5,-186.0364 733.5,-167.0364 708.5,-167.0364"/>
<text text-anchor="start" x="724.3862" y="-173.1364" font-family="Helvetica,sans-Serif" font-size="11.00" fill="#000000"> &#160;</text>
</a>
</g>
</g>
<!-- events -->
<g id="node4" class="node">
<title>events</title>
<g id="a_node4"><a xlink:href="../../tables/events.html" xlink:title="events" target="_top">
<polygon fill="#ffffff" stroke="transparent" points="438,-111.5364 438,-238.5364 536,-238.5364 536,-111.5364 438,-111.5364"/>
<polygon fill="#f5f5f5" stroke="transparent" points="438,-215.0364 438,-238.0364 536,-238.0364 536,-215.0364 438,-215.0364"/>
<polygon fill="none" stroke="#000000" points="438,-215.0364 438,-238.0364 536,-238.0364 536,-215.0364 438,-215.0364"/>
<text text-anchor="start" x="443" y="-224.1364" font-family="Helvetica,sans-Serif" font-weight="bold" font-size="11.00" fill="#000000">events</text>
<text text-anchor="start" x="501.0437" y="-223.1364" font-family="Helvetica,sans-Serif" font-size="11.00" fill="#000000">[table]</text>
<polygon fill="none" stroke="#000000" points="438,-193.0364 438,-215.0364 536,-215.0364 536,-193.0364 438,-193.0364"/>
<image xlink:href="../../images/primaryKeys.png" width="11px" height="12px" preserveAspectRatio="xMinYMin meet" x="443" y="-210.036"/>
<text text-anchor="start" x="458" y="-200.1364" font-family="Helvetica,sans-Serif" font-size="11.00" fill="#000000">id</text>
<polygon fill="none" stroke="#000000" points="438,-171.0364 438,-193.0364 536,-193.0364 536,-171.0364 438,-171.0364"/>
<image xlink:href="../../images/foreignKeys.png" width="11px" height="12px" preserveAspectRatio="xMinYMin meet" x="443" y="-188.036"/>
<text text-anchor="start" x="458" y="-178.1364" font-family="Helvetica,sans-Serif" font-size="11.00" fill="#000000">venue_id</text>
<polygon fill="none" stroke="#000000" points="438,-149.0364 438,-171.0364 536,-171.0364 536,-149.0364 438,-149.0364"/>
<image xlink:href="../../images/foreignKeys.png" width="11px" height="12px" preserveAspectRatio="xMinYMin meet" x="443" y="-166.036"/>
<text text-anchor="start" x="458" y="-156.1364" font-family="Helvetica,sans-Serif" font-size="11.00" fill="#000000">chapter_id</text>
<polygon fill="none" stroke="#000000" points="438,-130.0364 438,-149.0364 536,-149.0364 536,-130.0364 438,-130.0364"/>
<text text-anchor="start" x="441" y="-136.1364" font-family="Helvetica,sans-Serif" font-size="11.00" fill="#000000">...</text>
<polygon fill="#ffffff" stroke="transparent" points="438,-111.0364 438,-130.0364 468,-130.0364 468,-111.0364 438,-111.0364"/>
<polygon fill="none" stroke="#000000" points="438,-111.0364 438,-130.0364 468,-130.0364 468,-111.0364 438,-111.0364"/>
<text text-anchor="start" x="441" y="-117.1364" font-family="Helvetica,sans-Serif" font-size="11.00" fill="#000000">&lt; 2</text>
<polygon fill="#ffffff" stroke="transparent" points="468,-111.0364 468,-130.0364 510,-130.0364 510,-111.0364 468,-111.0364"/>
<polygon fill="none" stroke="#000000" points="468,-111.0364 468,-130.0364 510,-130.0364 510,-111.0364 468,-111.0364"/>
<text text-anchor="start" x="474.6105" y="-117.1364" font-family="Helvetica,sans-Serif" font-size="11.00" fill="#000000">4 rows</text>
<polygon fill="#ffffff" stroke="transparent" points="510,-111.0364 510,-130.0364 536,-130.0364 536,-111.0364 510,-111.0364"/>
<polygon fill="none" stroke="#000000" points="510,-111.0364 510,-130.0364 536,-130.0364 536,-111.0364 510,-111.0364"/>
<text text-anchor="start" x="517.4053" y="-117.1364" font-family="Helvetica,sans-Serif" font-size="11.00" fill="#000000">4 &gt;</text>
</a>
</g>
</g>
<!-- event_sponsors&#45;&gt;events -->
<g id="edge2" class="edge">
<title>event_sponsors:w&#45;&gt;events:e</title>
<path fill="none" stroke="#000000" d="M598.9862,-195.6269C575.6301,-197.6292 565.2578,-204.0364 536,-204.0364"/>
<polygon fill="#000000" stroke="#000000" points="605.5066,-195.3617 613.6464,-198.6334 609.5033,-195.199 613.5,-195.0364 613.5,-195.0364 613.5,-195.0364 609.5033,-195.199 613.3536,-191.4394 605.5066,-195.3617 605.5066,-195.3617"/>
<ellipse fill="none" stroke="#000000" cx="602.3093" cy="-195.4918" rx="3.2" ry="3.2"/>
</g>
<!-- events&#45;&gt;chapters -->
<g id="edge3" class="edge">
<title>events:w&#45;&gt;chapters:e</title>
<path fill="none" stroke="#000000" d="M424.4105,-165.2446C380.3533,-204.0071 422.4952,-446.0364 362,-446.0364"/>
<polygon fill="#000000" stroke="#000000" points="430.5298,-162.8994 439.2884,-163.398 434.2649,-161.4679 438,-160.0364 438,-160.0364 438,-160.0364 434.2649,-161.4679 436.7116,-156.6748 430.5298,-162.8994 430.5298,-162.8994"/>
<ellipse fill="none" stroke="#000000" cx="427.5418" cy="-164.0446" rx="3.2" ry="3.2"/>
</g>
<!-- venues -->
<g id="node5" class="node">
<title>venues</title>
<g id="a_node5"><a xlink:href="../../tables/venues.html" xlink:title="venues" target="_top">
<polygon fill="#ffffff" stroke="transparent" points="220,-111.5364 220,-172.5364 298,-172.5364 298,-111.5364 220,-111.5364"/>
<polygon fill="#f5f5f5" stroke="transparent" points="220,-149.0364 220,-172.0364 298,-172.0364 298,-149.0364 220,-149.0364"/>
<polygon fill="none" stroke="#000000" points="220,-149.0364 220,-172.0364 298,-172.0364 298,-149.0364 220,-149.0364"/>
<text text-anchor="start" x="224.7702" y="-158.1364" font-family="Helvetica,sans-Serif" font-weight="bold" font-size="11.00" fill="#000000">venues</text>
<text text-anchor="start" x="263.5219" y="-157.1364" font-family="Helvetica,sans-Serif" font-size="11.00" fill="#000000">[table]</text>
<polygon fill="none" stroke="#000000" points="220,-130.0364 220,-149.0364 298,-149.0364 298,-130.0364 220,-130.0364"/>
<text text-anchor="start" x="223" y="-136.1364" font-family="Helvetica,sans-Serif" font-size="11.00" fill="#000000">...</text>
<polygon fill="#ffffff" stroke="transparent" points="220,-111.0364 220,-130.0364 235,-130.0364 235,-111.0364 220,-111.0364"/>
<polygon fill="none" stroke="#000000" points="220,-111.0364 220,-130.0364 235,-130.0364 235,-111.0364 220,-111.0364"/>
<text text-anchor="start" x="223" y="-117.1364" font-family="Helvetica,sans-Serif" font-size="11.00" fill="#000000"> &#160;</text>
<polygon fill="#ffffff" stroke="transparent" points="235,-111.0364 235,-130.0364 275,-130.0364 275,-111.0364 235,-111.0364"/>
<polygon fill="none" stroke="#000000" points="235,-111.0364 235,-130.0364 275,-130.0364 275,-111.0364 235,-111.0364"/>
<text text-anchor="start" x="239.6105" y="-117.1364" font-family="Helvetica,sans-Serif" font-size="11.00" fill="#000000">4 rows</text>
<polygon fill="#ffffff" stroke="transparent" points="275,-111.0364 275,-130.0364 298,-130.0364 298,-111.0364 275,-111.0364"/>
<polygon fill="none" stroke="#000000" points="275,-111.0364 275,-130.0364 298,-130.0364 298,-111.0364 275,-111.0364"/>
<text text-anchor="start" x="279.4053" y="-117.1364" font-family="Helvetica,sans-Serif" font-size="11.00" fill="#000000">1 &gt;</text>
</a>
</g>
</g>
<!-- events&#45;&gt;venues -->
<g id="edge4" class="edge">
<title>events:w&#45;&gt;venues:e</title>
<path fill="none" stroke="#000000" d="M423.3695,-181.2533C370.9821,-175.4254 357.8786,-139.0364 298,-139.0364"/>
<polygon fill="#000000" stroke="#000000" points="430.0114,-181.6088 437.8076,-185.6312 434.0057,-181.8226 438,-182.0364 438,-182.0364 438,-182.0364 434.0057,-181.8226 438.1924,-178.4415 430.0114,-181.6088 430.0114,-181.6088"/>
<ellipse fill="none" stroke="#000000" cx="426.816" cy="-181.4377" rx="3.2" ry="3.2"/>
</g>
<!-- rsvps -->
<g id="node6" class="node">
<title>rsvps</title>
<g id="a_node6"><a xlink:href="../../tables/rsvps.html" xlink:title="rsvps" target="_top">
<polygon fill="#ffffff" stroke="transparent" points="635,-68.5364 635,-129.5364 712,-129.5364 712,-68.5364 635,-68.5364"/>
<polygon fill="#f5f5f5" stroke="transparent" points="635.5,-106.0364 635.5,-129.0364 712.5,-129.0364 712.5,-106.0364 635.5,-106.0364"/>
<polygon fill="none" stroke="#000000" points="635.5,-106.0364 635.5,-129.0364 712.5,-129.0364 712.5,-106.0364 635.5,-106.0364"/>
<text text-anchor="start" x="640.5" y="-115.1364" font-family="Helvetica,sans-Serif" font-weight="bold" font-size="11.00" fill="#000000">rsvps</text>
<text text-anchor="start" x="677.5437" y="-114.1364" font-family="Helvetica,sans-Serif" font-size="11.00" fill="#000000">[table]</text>
<polygon fill="none" stroke="#000000" points="635.5,-87.0364 635.5,-106.0364 712.5,-106.0364 712.5,-87.0364 635.5,-87.0364"/>
<text text-anchor="start" x="638.5" y="-93.1364" font-family="Helvetica,sans-Serif" font-size="11.00" fill="#000000">...</text>
<polygon fill="#ffffff" stroke="transparent" points="635.5,-68.0364 635.5,-87.0364 656.5,-87.0364 656.5,-68.0364 635.5,-68.0364"/>
<polygon fill="none" stroke="#000000" points="635.5,-68.0364 635.5,-87.0364 656.5,-87.0364 656.5,-68.0364 635.5,-68.0364"/>
<text text-anchor="start" x="638.2026" y="-74.1364" font-family="Helvetica,sans-Serif" font-size="11.00" fill="#000000">&lt; 2</text>
<polygon fill="#ffffff" stroke="transparent" points="656.5,-68.0364 656.5,-87.0364 700.5,-87.0364 700.5,-68.0364 656.5,-68.0364"/>
<polygon fill="none" stroke="#000000" points="656.5,-68.0364 656.5,-87.0364 700.5,-87.0364 700.5,-68.0364 656.5,-68.0364"/>
<text text-anchor="start" x="659.2478" y="-74.1364" font-family="Helvetica,sans-Serif" font-size="11.00" fill="#000000">20 rows</text>
<polygon fill="#ffffff" stroke="transparent" points="700.5,-68.0364 700.5,-87.0364 712.5,-87.0364 712.5,-68.0364 700.5,-68.0364"/>
<polygon fill="none" stroke="#000000" points="700.5,-68.0364 700.5,-87.0364 712.5,-87.0364 712.5,-68.0364 700.5,-68.0364"/>
<text text-anchor="start" x="703.4431" y="-74.1364" font-family="Helvetica,sans-Serif" font-size="11.00" fill="#000000"> &#160;</text>
</a>
</g>
</g>
<!-- rsvps&#45;&gt;users -->
<g id="edge6" class="edge">
<title>rsvps:w&#45;&gt;users:e</title>
<path fill="none" stroke="#000000" d="M620.9984,-95.8263C412.8956,-89.8007 302.7401,42.7182 146,-101.0364 77.2226,-164.1158 198.8239,-519.0364 105.5,-519.0364"/>
<polygon fill="#000000" stroke="#000000" points="627.5008,-95.9204 635.4478,-99.636 631.5004,-95.9784 635.5,-96.0364 635.5,-96.0364 635.5,-96.0364 631.5004,-95.9784 635.5522,-92.4368 627.5008,-95.9204 627.5008,-95.9204"/>
<ellipse fill="none" stroke="#000000" cx="624.3012" cy="-95.874" rx="3.2" ry="3.2"/>
</g>
<!-- rsvps&#45;&gt;events -->
<g id="edge5" class="edge">
<title>rsvps:w&#45;&gt;events:e</title>
<path fill="none" stroke="#000000" d="M620.9797,-98.1937C574.7674,-113.4152 595.7844,-204.0364 536,-204.0364"/>
<polygon fill="#000000" stroke="#000000" points="627.5869,-97.2121 636.0291,-99.5973 631.5434,-96.6242 635.5,-96.0364 635.5,-96.0364 635.5,-96.0364 631.5434,-96.6242 634.9709,-92.4755 627.5869,-97.2121 627.5869,-97.2121"/>
<ellipse fill="none" stroke="#000000" cx="624.4216" cy="-97.6824" rx="3.2" ry="3.2"/>
</g>
<!-- tags -->
<g id="node7" class="node">
<title>tags</title>
<g id="a_node7"><a xlink:href="../../tables/tags.html" xlink:title="tags" target="_top">
<polygon fill="#ffffff" stroke="transparent" points="638,-249.5364 638,-310.5364 709,-310.5364 709,-249.5364 638,-249.5364"/>
<polygon fill="#f5f5f5" stroke="transparent" points="638.5,-287.0364 638.5,-310.0364 709.5,-310.0364 709.5,-287.0364 638.5,-287.0364"/>
<polygon fill="none" stroke="#000000" points="638.5,-287.0364 638.5,-310.0364 709.5,-310.0364 709.5,-287.0364 638.5,-287.0364"/>
<text text-anchor="start" x="643.5" y="-296.1364" font-family="Helvetica,sans-Serif" font-weight="bold" font-size="11.00" fill="#000000">tags</text>
<text text-anchor="start" x="674.5437" y="-295.1364" font-family="Helvetica,sans-Serif" font-size="11.00" fill="#000000">[table]</text>
<polygon fill="none" stroke="#000000" points="638.5,-268.0364 638.5,-287.0364 709.5,-287.0364 709.5,-268.0364 638.5,-268.0364"/>
<text text-anchor="start" x="641.5" y="-274.1364" font-family="Helvetica,sans-Serif" font-size="11.00" fill="#000000">...</text>
<polygon fill="#ffffff" stroke="transparent" points="638.5,-249.0364 638.5,-268.0364 659.5,-268.0364 659.5,-249.0364 638.5,-249.0364"/>
<polygon fill="none" stroke="#000000" points="638.5,-249.0364 638.5,-268.0364 659.5,-268.0364 659.5,-249.0364 638.5,-249.0364"/>
<text text-anchor="start" x="641.2026" y="-255.1364" font-family="Helvetica,sans-Serif" font-size="11.00" fill="#000000">&lt; 1</text>
<polygon fill="#ffffff" stroke="transparent" points="659.5,-249.0364 659.5,-268.0364 697.5,-268.0364 697.5,-249.0364 659.5,-249.0364"/>
<polygon fill="none" stroke="#000000" points="659.5,-249.0364 659.5,-268.0364 697.5,-268.0364 697.5,-249.0364 659.5,-249.0364"/>
<text text-anchor="start" x="662.3053" y="-255.1364" font-family="Helvetica,sans-Serif" font-size="11.00" fill="#000000">9 rows</text>
<polygon fill="#ffffff" stroke="transparent" points="697.5,-249.0364 697.5,-268.0364 709.5,-268.0364 709.5,-249.0364 697.5,-249.0364"/>
<polygon fill="none" stroke="#000000" points="697.5,-249.0364 697.5,-268.0364 709.5,-268.0364 709.5,-249.0364 697.5,-249.0364"/>
<text text-anchor="start" x="700.4431" y="-255.1364" font-family="Helvetica,sans-Serif" font-size="11.00" fill="#000000"> &#160;</text>
</a>
</g>
</g>
<!-- tags&#45;&gt;events -->
<g id="edge7" class="edge">
<title>tags:w&#45;&gt;events:e</title>
<path fill="none" stroke="#000000" d="M624.1219,-275.1585C583.7648,-263.7323 586.5756,-204.0364 536,-204.0364"/>
<polygon fill="#000000" stroke="#000000" points="630.5674,-276.0003 638.0338,-280.6061 634.5337,-276.5183 638.5,-277.0364 638.5,-277.0364 638.5,-277.0364 634.5337,-276.5183 638.9662,-273.4667 630.5674,-276.0003 630.5674,-276.0003"/>
<ellipse fill="none" stroke="#000000" cx="627.3943" cy="-275.5858" rx="3.2" ry="3.2"/>
</g>
<!-- user_bans -->
<g id="node8" class="node">
<title>user_bans</title>
<g id="a_node8"><a xlink:href="../../tables/user_bans.html" xlink:title="user_bans" target="_top">
<polygon fill="#ffffff" stroke="transparent" points="438.5,-429.5364 438.5,-556.5364 535.5,-556.5364 535.5,-429.5364 438.5,-429.5364"/>
<polygon fill="#f5f5f5" stroke="transparent" points="439,-533.0364 439,-556.0364 536,-556.0364 536,-533.0364 439,-533.0364"/>
<polygon fill="none" stroke="#000000" points="439,-533.0364 439,-556.0364 536,-556.0364 536,-533.0364 439,-533.0364"/>
<text text-anchor="start" x="444" y="-542.1364" font-family="Helvetica,sans-Serif" font-weight="bold" font-size="11.00" fill="#000000">user_bans</text>
<text text-anchor="start" x="501.0437" y="-541.1364" font-family="Helvetica,sans-Serif" font-size="11.00" fill="#000000">[table]</text>
<polygon fill="none" stroke="#000000" points="439,-511.0364 439,-533.0364 536,-533.0364 536,-511.0364 439,-511.0364"/>
<image xlink:href="../../images/primaryKeys.png" width="11px" height="12px" preserveAspectRatio="xMinYMin meet" x="444" y="-528.036"/>
<text text-anchor="start" x="459" y="-518.1364" font-family="Helvetica,sans-Serif" font-size="11.00" fill="#000000">id</text>
<polygon fill="none" stroke="#000000" points="439,-489.0364 439,-511.0364 536,-511.0364 536,-489.0364 439,-489.0364"/>
<image xlink:href="../../images/foreignKeys.png" width="11px" height="12px" preserveAspectRatio="xMinYMin meet" x="444" y="-506.036"/>
<text text-anchor="start" x="459" y="-496.1364" font-family="Helvetica,sans-Serif" font-size="11.00" fill="#000000">user_id</text>
<polygon fill="none" stroke="#000000" points="439,-467.0364 439,-489.0364 536,-489.0364 536,-467.0364 439,-467.0364"/>
<image xlink:href="../../images/foreignKeys.png" width="11px" height="12px" preserveAspectRatio="xMinYMin meet" x="444" y="-484.036"/>
<text text-anchor="start" x="459" y="-474.1364" font-family="Helvetica,sans-Serif" font-size="11.00" fill="#000000">chapter_id</text>
<polygon fill="none" stroke="#000000" points="439,-448.0364 439,-467.0364 536,-467.0364 536,-448.0364 439,-448.0364"/>
<text text-anchor="start" x="442" y="-454.1364" font-family="Helvetica,sans-Serif" font-size="11.00" fill="#000000">...</text>
<polygon fill="#ffffff" stroke="transparent" points="439,-429.0364 439,-448.0364 473,-448.0364 473,-429.0364 439,-429.0364"/>
<polygon fill="none" stroke="#000000" points="439,-429.0364 439,-448.0364 473,-448.0364 473,-429.0364 439,-429.0364"/>
<text text-anchor="start" x="442" y="-435.1364" font-family="Helvetica,sans-Serif" font-size="11.00" fill="#000000">&lt; 2</text>
<polygon fill="#ffffff" stroke="transparent" points="473,-429.0364 473,-448.0364 517,-448.0364 517,-429.0364 473,-429.0364"/>
<polygon fill="none" stroke="#000000" points="473,-429.0364 473,-448.0364 517,-448.0364 517,-429.0364 473,-429.0364"/>
<text text-anchor="start" x="481.6105" y="-435.1364" font-family="Helvetica,sans-Serif" font-size="11.00" fill="#000000">4 rows</text>
<polygon fill="#ffffff" stroke="transparent" points="517,-429.0364 517,-448.0364 536,-448.0364 536,-429.0364 517,-429.0364"/>
<polygon fill="none" stroke="#000000" points="517,-429.0364 517,-448.0364 536,-448.0364 536,-429.0364 517,-429.0364"/>
<text text-anchor="start" x="526.8862" y="-435.1364" font-family="Helvetica,sans-Serif" font-size="11.00" fill="#000000"> &#160;</text>
</a>
</g>
</g>
<!-- user_bans&#45;&gt;chapters -->
<g id="edge8" class="edge">
<title>user_bans:w&#45;&gt;chapters:e</title>
<path fill="none" stroke="#000000" d="M424.5325,-476.1305C400.332,-469.2415 393.5588,-446.0364 362,-446.0364"/>
<polygon fill="#000000" stroke="#000000" points="431.0685,-476.9915 438.5298,-481.6055 435.0343,-477.5139 439,-478.0364 439,-478.0364 439,-478.0364 435.0343,-477.5139 439.4702,-474.4672 431.0685,-476.9915 431.0685,-476.9915"/>
<ellipse fill="none" stroke="#000000" cx="427.8959" cy="-476.5735" rx="3.2" ry="3.2"/>
</g>
<!-- user_bans&#45;&gt;users -->
<g id="edge9" class="edge">
<title>user_bans:w&#45;&gt;users:e</title>
<path fill="none" stroke="#000000" d="M424.5965,-501.1025C405.4412,-504.1639 396.9247,-512.9592 372,-516.0364 254.4406,-530.55 223.9519,-519.0364 105.5,-519.0364"/>
<polygon fill="#000000" stroke="#000000" points="431.0218,-500.6269 439.2658,-503.6266 435.0109,-500.3317 439,-500.0364 439,-500.0364 439,-500.0364 435.0109,-500.3317 438.7342,-496.4462 431.0218,-500.6269 431.0218,-500.6269"/>
<ellipse fill="none" stroke="#000000" cx="427.8306" cy="-500.8632" rx="3.2" ry="3.2"/>
</g>
<!-- user_chapter_roles -->
<g id="node9" class="node">
<title>user_chapter_roles</title>
<g id="a_node9"><a xlink:href="../../tables/user_chapter_roles.html" xlink:title="user_chapter_roles" target="_top">
<polygon fill="#ffffff" stroke="transparent" points="413,-259.5364 413,-408.5364 561,-408.5364 561,-259.5364 413,-259.5364"/>
<polygon fill="#f5f5f5" stroke="transparent" points="413,-385.0364 413,-408.0364 561,-408.0364 561,-385.0364 413,-385.0364"/>
<polygon fill="none" stroke="#000000" points="413,-385.0364 413,-408.0364 561,-408.0364 561,-385.0364 413,-385.0364"/>
<text text-anchor="start" x="418" y="-394.1364" font-family="Helvetica,sans-Serif" font-weight="bold" font-size="11.00" fill="#000000">user_chapter_roles</text>
<text text-anchor="start" x="526.0437" y="-393.1364" font-family="Helvetica,sans-Serif" font-size="11.00" fill="#000000">[table]</text>
<polygon fill="none" stroke="#000000" points="413,-363.0364 413,-385.0364 561,-385.0364 561,-363.0364 413,-363.0364"/>
<image xlink:href="../../images/primaryKeys.png" width="11px" height="12px" preserveAspectRatio="xMinYMin meet" x="418" y="-380.036"/>
<text text-anchor="start" x="433" y="-370.1364" font-family="Helvetica,sans-Serif" font-size="11.00" fill="#000000">user_id</text>
<polygon fill="none" stroke="#000000" points="413,-341.0364 413,-363.0364 561,-363.0364 561,-341.0364 413,-341.0364"/>
<image xlink:href="../../images/primaryKeys.png" width="11px" height="12px" preserveAspectRatio="xMinYMin meet" x="418" y="-358.036"/>
<text text-anchor="start" x="433" y="-348.1364" font-family="Helvetica,sans-Serif" font-size="11.00" fill="#000000">chapter_id</text>
<polygon fill="none" stroke="#000000" points="413,-319.0364 413,-341.0364 561,-341.0364 561,-319.0364 413,-319.0364"/>
<image xlink:href="../../images/primaryKeys.png" width="11px" height="12px" preserveAspectRatio="xMinYMin meet" x="418" y="-336.036"/>
<text text-anchor="start" x="433" y="-326.1364" font-family="Helvetica,sans-Serif" font-size="11.00" fill="#000000">id</text>
<polygon fill="none" stroke="#000000" points="413,-297.0364 413,-319.0364 561,-319.0364 561,-297.0364 413,-297.0364"/>
<image xlink:href="../../images/primaryKeys.png" width="11px" height="12px" preserveAspectRatio="xMinYMin meet" x="418" y="-314.036"/>
<text text-anchor="start" x="433" y="-304.1364" font-family="Helvetica,sans-Serif" font-size="11.00" fill="#000000">role_name</text>
<polygon fill="none" stroke="#000000" points="413,-278.0364 413,-297.0364 561,-297.0364 561,-278.0364 413,-278.0364"/>
<text text-anchor="start" x="416" y="-284.1364" font-family="Helvetica,sans-Serif" font-size="11.00" fill="#000000">...</text>
<polygon fill="#ffffff" stroke="transparent" points="413,-259.0364 413,-278.0364 469,-278.0364 469,-259.0364 413,-259.0364"/>
<polygon fill="none" stroke="#000000" points="413,-259.0364 413,-278.0364 469,-278.0364 469,-259.0364 413,-259.0364"/>
<text text-anchor="start" x="416" y="-265.1364" font-family="Helvetica,sans-Serif" font-size="11.00" fill="#000000">&lt; 2</text>
<polygon fill="#ffffff" stroke="transparent" points="469,-259.0364 469,-278.0364 531,-278.0364 531,-259.0364 469,-259.0364"/>
<polygon fill="none" stroke="#000000" points="469,-259.0364 469,-278.0364 531,-278.0364 531,-259.0364 469,-259.0364"/>
<text text-anchor="start" x="489.4956" y="-265.1364" font-family="Helvetica,sans-Serif" font-size="11.00" fill="#000000">40 rows</text>
<polygon fill="#ffffff" stroke="transparent" points="531,-259.0364 531,-278.0364 561,-278.0364 561,-259.0364 531,-259.0364"/>
<polygon fill="none" stroke="#000000" points="531,-259.0364 531,-278.0364 561,-278.0364 561,-259.0364 531,-259.0364"/>
<text text-anchor="start" x="551.8862" y="-265.1364" font-family="Helvetica,sans-Serif" font-size="11.00" fill="#000000"> &#160;</text>
</a>
</g>
</g>
<!-- user_chapter_roles&#45;&gt;chapters -->
<g id="edge10" class="edge">
<title>user_chapter_roles:w&#45;&gt;chapters:e</title>
<path fill="none" stroke="#000000" d="M399.1116,-356.0754C375.0536,-374.0676 403.5893,-446.0364 362,-446.0364"/>
<polygon fill="#000000" stroke="#000000" points="405.3183,-354.2704 414.0053,-355.4932 409.1591,-353.1534 413,-352.0364 413,-352.0364 413,-352.0364 409.1591,-353.1534 411.9947,-348.5796 405.3183,-354.2704 405.3183,-354.2704"/>
<ellipse fill="none" stroke="#000000" cx="402.2456" cy="-355.1641" rx="3.2" ry="3.2"/>
</g>
<!-- user_chapter_roles&#45;&gt;users -->
<g id="edge11" class="edge">
<title>user_chapter_roles:w&#45;&gt;users:e</title>
<path fill="none" stroke="#000000" d="M398.5779,-376.8623C368.9697,-391.7315 410.7986,-461.3814 372,-492.0364 360.3235,-501.2621 120.3813,-519.0364 105.5,-519.0364"/>
<polygon fill="#000000" stroke="#000000" points="405.1493,-375.5747 413.6923,-377.5692 409.0746,-374.8055 413,-374.0364 413,-374.0364 413,-374.0364 409.0746,-374.8055 412.3077,-370.5036 405.1493,-375.5747 405.1493,-375.5747"/>
<ellipse fill="none" stroke="#000000" cx="402.009" cy="-376.1901" rx="3.2" ry="3.2"/>
</g>
<!-- user_event_roles -->
<g id="node10" class="node">
<title>user_event_roles</title>
<g id="a_node10"><a xlink:href="../../tables/user_event_roles.html" xlink:title="user_event_roles" target="_top">
<polygon fill="#ffffff" stroke="transparent" points="610,-446.5364 610,-507.5364 737,-507.5364 737,-446.5364 610,-446.5364"/>
<polygon fill="#f5f5f5" stroke="transparent" points="610.5,-484.0364 610.5,-507.0364 737.5,-507.0364 737.5,-484.0364 610.5,-484.0364"/>
<polygon fill="none" stroke="#000000" points="610.5,-484.0364 610.5,-507.0364 737.5,-507.0364 737.5,-484.0364 610.5,-484.0364"/>
<text text-anchor="start" x="615.3222" y="-493.1364" font-family="Helvetica,sans-Serif" font-weight="bold" font-size="11.00" fill="#000000">user_event_roles</text>
<text text-anchor="start" x="703.0219" y="-492.1364" font-family="Helvetica,sans-Serif" font-size="11.00" fill="#000000">[table]</text>
<polygon fill="none" stroke="#000000" points="610.5,-465.0364 610.5,-484.0364 737.5,-484.0364 737.5,-465.0364 610.5,-465.0364"/>
<text text-anchor="start" x="613.5" y="-471.1364" font-family="Helvetica,sans-Serif" font-size="11.00" fill="#000000">...</text>
<polygon fill="#ffffff" stroke="transparent" points="610.5,-446.0364 610.5,-465.0364 656.5,-465.0364 656.5,-446.0364 610.5,-446.0364"/>
<polygon fill="none" stroke="#000000" points="610.5,-446.0364 610.5,-465.0364 656.5,-465.0364 656.5,-446.0364 610.5,-446.0364"/>
<text text-anchor="start" x="613.5" y="-452.1364" font-family="Helvetica,sans-Serif" font-size="11.00" fill="#000000">&lt; 2</text>
<polygon fill="#ffffff" stroke="transparent" points="656.5,-446.0364 656.5,-465.0364 712.5,-465.0364 712.5,-446.0364 656.5,-446.0364"/>
<polygon fill="none" stroke="#000000" points="656.5,-446.0364 656.5,-465.0364 712.5,-465.0364 712.5,-446.0364 656.5,-446.0364"/>
<text text-anchor="start" x="670.9956" y="-452.1364" font-family="Helvetica,sans-Serif" font-size="11.00" fill="#000000">20 rows</text>
<polygon fill="#ffffff" stroke="transparent" points="712.5,-446.0364 712.5,-465.0364 737.5,-465.0364 737.5,-446.0364 712.5,-446.0364"/>
<polygon fill="none" stroke="#000000" points="712.5,-446.0364 712.5,-465.0364 737.5,-465.0364 737.5,-446.0364 712.5,-446.0364"/>
<text text-anchor="start" x="728.3862" y="-452.1364" font-family="Helvetica,sans-Serif" font-size="11.00" fill="#000000"> &#160;</text>
</a>
</g>
</g>
<!-- user_event_roles&#45;&gt;users -->
<g id="edge13" class="edge">
<title>user_event_roles:w&#45;&gt;users:e</title>
<path fill="none" stroke="#000000" d="M596.3878,-477.5835C575.1594,-491.9124 601.779,-545.7691 569,-567.0364 507.8536,-606.7088 477.7055,-572.2034 405,-567.0364 289.0128,-558.7934 259.8792,-553.5423 146,-530.0364 127.733,-526.2659 124.1521,-519.0364 105.5,-519.0364"/>
<polygon fill="#000000" stroke="#000000" points="602.7413,-475.9866 611.3776,-477.5278 606.6207,-475.0115 610.5,-474.0364 610.5,-474.0364 610.5,-474.0364 606.6207,-475.0115 609.6224,-470.545 602.7413,-475.9866 602.7413,-475.9866"/>
<ellipse fill="none" stroke="#000000" cx="599.6379" cy="-476.7667" rx="3.2" ry="3.2"/>
</g>
<!-- user_event_roles&#45;&gt;events -->
<g id="edge12" class="edge">
<title>user_event_roles:w&#45;&gt;events:e</title>
<path fill="none" stroke="#000000" d="M596.9414,-468.4493C565.3263,-437.8861 587.0278,-290.7918 569,-249.0364 559.1692,-226.2665 560.8014,-204.0364 536,-204.0364"/>
<polygon fill="#000000" stroke="#000000" points="603.1034,-470.9884 609.1284,-477.3649 606.8017,-472.5124 610.5,-474.0364 610.5,-474.0364 610.5,-474.0364 606.8017,-472.5124 611.8716,-470.7079 603.1034,-470.9884 603.1034,-470.9884"/>
<ellipse fill="none" stroke="#000000" cx="600.1447" cy="-469.7692" rx="3.2" ry="3.2"/>
</g>
<!-- user_instance_roles -->
<g id="node11" class="node">
<title>user_instance_roles</title>
<g id="a_node11"><a xlink:href="../../tables/user_instance_roles.html" xlink:title="user_instance_roles" target="_top">
<polygon fill="#ffffff" stroke="transparent" points="188.5,-605.5364 188.5,-666.5364 329.5,-666.5364 329.5,-605.5364 188.5,-605.5364"/>
<polygon fill="#f5f5f5" stroke="transparent" points="189,-643.0364 189,-666.0364 330,-666.0364 330,-643.0364 189,-643.0364"/>
<polygon fill="none" stroke="#000000" points="189,-643.0364 189,-666.0364 330,-666.0364 330,-643.0364 189,-643.0364"/>
<text text-anchor="start" x="193.7943" y="-652.1364" font-family="Helvetica,sans-Serif" font-weight="bold" font-size="11.00" fill="#000000">user_instance_roles</text>
<text text-anchor="start" x="295.5219" y="-651.1364" font-family="Helvetica,sans-Serif" font-size="11.00" fill="#000000">[table]</text>
<polygon fill="none" stroke="#000000" points="189,-624.0364 189,-643.0364 330,-643.0364 330,-624.0364 189,-624.0364"/>
<text text-anchor="start" x="192" y="-630.1364" font-family="Helvetica,sans-Serif" font-size="11.00" fill="#000000">...</text>
<polygon fill="#ffffff" stroke="transparent" points="189,-605.0364 189,-624.0364 245,-624.0364 245,-605.0364 189,-605.0364"/>
<polygon fill="none" stroke="#000000" points="189,-605.0364 189,-624.0364 245,-624.0364 245,-605.0364 189,-605.0364"/>
<text text-anchor="start" x="192" y="-611.1364" font-family="Helvetica,sans-Serif" font-size="11.00" fill="#000000">&lt; 1</text>
<polygon fill="#ffffff" stroke="transparent" points="245,-605.0364 245,-624.0364 300,-624.0364 300,-605.0364 245,-605.0364"/>
<polygon fill="none" stroke="#000000" points="245,-605.0364 245,-624.0364 300,-624.0364 300,-605.0364 245,-605.0364"/>
<text text-anchor="start" x="264.6105" y="-611.1364" font-family="Helvetica,sans-Serif" font-size="11.00" fill="#000000">0 rows</text>
<polygon fill="#ffffff" stroke="transparent" points="300,-605.0364 300,-624.0364 330,-624.0364 330,-605.0364 300,-605.0364"/>
<polygon fill="none" stroke="#000000" points="300,-605.0364 300,-624.0364 330,-624.0364 330,-605.0364 300,-605.0364"/>
<text text-anchor="start" x="320.8862" y="-611.1364" font-family="Helvetica,sans-Serif" font-size="11.00" fill="#000000"> &#160;</text>
</a>
</g>
</g>
<!-- user_instance_roles&#45;&gt;users -->
<g id="edge14" class="edge">
<title>user_instance_roles:w&#45;&gt;users:e</title>
<path fill="none" stroke="#000000" d="M174.8515,-630.2628C161.5003,-623.9137 158.71,-607.5909 146,-591.0364 123.6412,-561.9145 142.2151,-519.0364 105.5,-519.0364"/>
<polygon fill="#000000" stroke="#000000" points="181.1494,-631.4974 188.3074,-636.5691 185.0747,-632.2669 189,-633.0364 189,-633.0364 189,-633.0364 185.0747,-632.2669 189.6926,-629.5036 181.1494,-631.4974 181.1494,-631.4974"/>
<ellipse fill="none" stroke="#000000" cx="178.0092" cy="-630.8818" rx="3.2" ry="3.2"/>
</g>
</g>
</svg>
