<?xml version="1.0" encoding="UTF-8" standalone="no"?>
<!DOCTYPE svg PUBLIC "-//W3C//DTD SVG 1.1//EN"
 "http://www.w3.org/Graphics/SVG/1.1/DTD/svg11.dtd">
<!-- Generated by graphviz version 2.40.1 (20161225.0304)
 -->
<!-- Title: oneDegreeRelationshipsDiagram Pages: 1 -->
<svg width="545pt" height="566pt"
 viewBox="0.00 0.00 545.00 565.70" xmlns="http://www.w3.org/2000/svg" xmlns:xlink="http://www.w3.org/1999/xlink">
<g id="graph0" class="graph" transform="scale(1 1) rotate(0) translate(4 561.7)">
<title>oneDegreeRelationshipsDiagram</title>
<polygon fill="#ffffff" stroke="transparent" points="-4,4 -4,-561.7 541,-561.7 541,4 -4,4"/>
<text text-anchor="middle" x="72.4936" y="-7.3" font-family="Helvetica,sans-Serif" font-size="11.00" fill="#000000">Generated by SchemaSpy</text>
<!-- chapter_users -->
<g id="node1" class="node">
<title>chapter_users</title>
<g id="a_node1"><a xlink:href="../../tables/chapter_users.html" xlink:title="chapter_users" target="_top">
<polygon fill="#ffffff" stroke="transparent" points="240,-426.7 240,-553.7 352,-553.7 352,-426.7 240,-426.7"/>
<polygon fill="#f5f5f5" stroke="transparent" points="240,-530.2 240,-553.2 352,-553.2 352,-530.2 240,-530.2"/>
<polygon fill="none" stroke="#000000" points="240,-530.2 240,-553.2 352,-553.2 352,-530.2 240,-530.2"/>
<text text-anchor="start" x="244.6575" y="-539.3" font-family="Helvetica,sans-Serif" font-weight="bold" font-size="11.00" fill="#000000">chapter_users</text>
<text text-anchor="start" x="317.5219" y="-538.3" font-family="Helvetica,sans-Serif" font-size="11.00" fill="#000000">[table]</text>
<polygon fill="none" stroke="#000000" points="240,-508.2 240,-530.2 352,-530.2 352,-508.2 240,-508.2"/>
<image xlink:href="../../images/primaryKeys.png" width="11px" height="12px" preserveAspectRatio="xMinYMin meet" x="245" y="-525.2"/>
<text text-anchor="start" x="260" y="-515.3" font-family="Helvetica,sans-Serif" font-size="11.00" fill="#000000">user_id</text>
<polygon fill="none" stroke="#000000" points="240,-486.2 240,-508.2 352,-508.2 352,-486.2 240,-486.2"/>
<image xlink:href="../../images/primaryKeys.png" width="11px" height="12px" preserveAspectRatio="xMinYMin meet" x="245" y="-503.2"/>
<text text-anchor="start" x="260" y="-493.3" font-family="Helvetica,sans-Serif" font-size="11.00" fill="#000000">chapter_id</text>
<polygon fill="none" stroke="#000000" points="240,-464.2 240,-486.2 352,-486.2 352,-464.2 240,-464.2"/>
<image xlink:href="../../images/foreignKeys.png" width="11px" height="12px" preserveAspectRatio="xMinYMin meet" x="245" y="-481.2"/>
<text text-anchor="start" x="260" y="-471.3" font-family="Helvetica,sans-Serif" font-size="11.00" fill="#000000">chapter_role_id</text>
<polygon fill="none" stroke="#000000" points="240,-445.2 240,-464.2 352,-464.2 352,-445.2 240,-445.2"/>
<text text-anchor="start" x="243" y="-451.3" font-family="Helvetica,sans-Serif" font-size="11.00" fill="#000000">...</text>
<polygon fill="#ffffff" stroke="transparent" points="240,-426.2 240,-445.2 281,-445.2 281,-426.2 240,-426.2"/>
<polygon fill="none" stroke="#000000" points="240,-426.2 240,-445.2 281,-445.2 281,-426.2 240,-426.2"/>
<text text-anchor="start" x="243" y="-432.3" font-family="Helvetica,sans-Serif" font-size="11.00" fill="#000000">&lt; 3</text>
<polygon fill="#ffffff" stroke="transparent" points="281,-426.2 281,-445.2 329,-445.2 329,-426.2 281,-426.2"/>
<polygon fill="none" stroke="#000000" points="281,-426.2 281,-445.2 329,-445.2 329,-426.2 281,-426.2"/>
<text text-anchor="start" x="293.6105" y="-432.3" font-family="Helvetica,sans-Serif" font-size="11.00" fill="#000000">0 rows</text>
<polygon fill="#ffffff" stroke="transparent" points="329,-426.2 329,-445.2 352,-445.2 352,-426.2 329,-426.2"/>
<polygon fill="none" stroke="#000000" points="329,-426.2 329,-445.2 352,-445.2 352,-426.2 329,-426.2"/>
<text text-anchor="start" x="342.8862" y="-432.3" font-family="Helvetica,sans-Serif" font-size="11.00" fill="#000000"> &#160;</text>
</a>
</g>
</g>
<!-- chapters -->
<g id="node2" class="node">
<title>chapters</title>
<g id="a_node2"><a xlink:href="../../tables/chapters.html" xlink:title="chapters" target="_top">
<polygon fill="#ffffff" stroke="transparent" points="8,-38.2 8,-392.2 191,-392.2 191,-38.2 8,-38.2"/>
<polygon fill="#f5f5f5" stroke="transparent" points="10.5,-367.2 10.5,-390.2 189.5,-390.2 189.5,-367.2 10.5,-367.2"/>
<polygon fill="none" stroke="#000000" points="10.5,-367.2 10.5,-390.2 189.5,-390.2 189.5,-367.2 10.5,-367.2"/>
<text text-anchor="start" x="15.5" y="-376.3" font-family="Helvetica,sans-Serif" font-weight="bold" font-size="11.00" fill="#000000">chapters</text>
<text text-anchor="start" x="154.5437" y="-375.3" font-family="Helvetica,sans-Serif" font-size="11.00" fill="#000000">[table]</text>
<polygon fill="none" stroke="#000000" points="10.5,-345.2 10.5,-367.2 99.5,-367.2 99.5,-345.2 10.5,-345.2"/>
<text text-anchor="start" x="30.5" y="-352.3" font-family="Helvetica,sans-Serif" font-size="11.00" fill="#000000">created_at</text>
<polygon fill="none" stroke="#000000" points="99.5,-345.2 99.5,-367.2 189.5,-367.2 189.5,-345.2 99.5,-345.2"/>
<text text-anchor="start" x="102.5" y="-352.9" font-family="Helvetica,sans-Serif" font-size="11.00" fill="#000000">timestamp[26,3]</text>
<polygon fill="none" stroke="#000000" points="10.5,-323.2 10.5,-345.2 99.5,-345.2 99.5,-323.2 10.5,-323.2"/>
<text text-anchor="start" x="30.5" y="-330.3" font-family="Helvetica,sans-Serif" font-size="11.00" fill="#000000">updated_at</text>
<polygon fill="none" stroke="#000000" points="99.5,-323.2 99.5,-345.2 189.5,-345.2 189.5,-323.2 99.5,-323.2"/>
<text text-anchor="start" x="102.5" y="-330.9" font-family="Helvetica,sans-Serif" font-size="11.00" fill="#000000">timestamp[26,3]</text>
<polygon fill="none" stroke="#000000" points="10.5,-301.2 10.5,-323.2 99.5,-323.2 99.5,-301.2 10.5,-301.2"/>
<image xlink:href="../../images/primaryKeys.png" width="11px" height="12px" preserveAspectRatio="xMinYMin meet" x="15.5" y="-318.2"/>
<text text-anchor="start" x="30.5" y="-308.3" font-family="Helvetica,sans-Serif" font-size="11.00" fill="#000000">id</text>
<polygon fill="none" stroke="#000000" points="99.5,-301.2 99.5,-323.2 189.5,-323.2 189.5,-301.2 99.5,-301.2"/>
<text text-anchor="start" x="102.5" y="-308.9" font-family="Helvetica,sans-Serif" font-size="11.00" fill="#000000">serial[10]</text>
<polygon fill="none" stroke="#000000" points="10.5,-279.2 10.5,-301.2 99.5,-301.2 99.5,-279.2 10.5,-279.2"/>
<text text-anchor="start" x="30.5" y="-286.3" font-family="Helvetica,sans-Serif" font-size="11.00" fill="#000000">name</text>
<polygon fill="none" stroke="#000000" points="99.5,-279.2 99.5,-301.2 189.5,-301.2 189.5,-279.2 99.5,-279.2"/>
<text text-anchor="start" x="102.0042" y="-286.9" font-family="Helvetica,sans-Serif" font-size="11.00" fill="#000000">text[2147483647]</text>
<polygon fill="none" stroke="#000000" points="10.5,-257.2 10.5,-279.2 99.5,-279.2 99.5,-257.2 10.5,-257.2"/>
<text text-anchor="start" x="30.5" y="-264.3" font-family="Helvetica,sans-Serif" font-size="11.00" fill="#000000">description</text>
<polygon fill="none" stroke="#000000" points="99.5,-257.2 99.5,-279.2 189.5,-279.2 189.5,-257.2 99.5,-257.2"/>
<text text-anchor="start" x="102.0042" y="-264.9" font-family="Helvetica,sans-Serif" font-size="11.00" fill="#000000">text[2147483647]</text>
<polygon fill="none" stroke="#000000" points="10.5,-235.2 10.5,-257.2 99.5,-257.2 99.5,-235.2 10.5,-235.2"/>
<text text-anchor="start" x="30.5" y="-242.3" font-family="Helvetica,sans-Serif" font-size="11.00" fill="#000000">category</text>
<polygon fill="none" stroke="#000000" points="99.5,-235.2 99.5,-257.2 189.5,-257.2 189.5,-235.2 99.5,-235.2"/>
<text text-anchor="start" x="102.0042" y="-242.9" font-family="Helvetica,sans-Serif" font-size="11.00" fill="#000000">text[2147483647]</text>
<polygon fill="none" stroke="#000000" points="10.5,-213.2 10.5,-235.2 99.5,-235.2 99.5,-213.2 10.5,-213.2"/>
<text text-anchor="start" x="30.5" y="-220.3" font-family="Helvetica,sans-Serif" font-size="11.00" fill="#000000">city</text>
<polygon fill="none" stroke="#000000" points="99.5,-213.2 99.5,-235.2 189.5,-235.2 189.5,-213.2 99.5,-213.2"/>
<text text-anchor="start" x="102.0042" y="-220.9" font-family="Helvetica,sans-Serif" font-size="11.00" fill="#000000">text[2147483647]</text>
<polygon fill="none" stroke="#000000" points="10.5,-191.2 10.5,-213.2 99.5,-213.2 99.5,-191.2 10.5,-191.2"/>
<text text-anchor="start" x="30.5" y="-198.3" font-family="Helvetica,sans-Serif" font-size="11.00" fill="#000000">region</text>
<polygon fill="none" stroke="#000000" points="99.5,-191.2 99.5,-213.2 189.5,-213.2 189.5,-191.2 99.5,-191.2"/>
<text text-anchor="start" x="102.0042" y="-198.9" font-family="Helvetica,sans-Serif" font-size="11.00" fill="#000000">text[2147483647]</text>
<polygon fill="none" stroke="#000000" points="10.5,-169.2 10.5,-191.2 99.5,-191.2 99.5,-169.2 10.5,-169.2"/>
<text text-anchor="start" x="30.5" y="-176.3" font-family="Helvetica,sans-Serif" font-size="11.00" fill="#000000">country</text>
<polygon fill="none" stroke="#000000" points="99.5,-169.2 99.5,-191.2 189.5,-191.2 189.5,-169.2 99.5,-169.2"/>
<text text-anchor="start" x="102.0042" y="-176.9" font-family="Helvetica,sans-Serif" font-size="11.00" fill="#000000">text[2147483647]</text>
<polygon fill="none" stroke="#000000" points="10.5,-147.2 10.5,-169.2 99.5,-169.2 99.5,-147.2 10.5,-147.2"/>
<text text-anchor="start" x="30.5" y="-154.3" font-family="Helvetica,sans-Serif" font-size="11.00" fill="#000000">banner_url</text>
<polygon fill="none" stroke="#000000" points="99.5,-147.2 99.5,-169.2 189.5,-169.2 189.5,-147.2 99.5,-147.2"/>
<text text-anchor="start" x="102.0042" y="-154.9" font-family="Helvetica,sans-Serif" font-size="11.00" fill="#000000">text[2147483647]</text>
<polygon fill="none" stroke="#000000" points="10.5,-125.2 10.5,-147.2 99.5,-147.2 99.5,-125.2 10.5,-125.2"/>
<text text-anchor="start" x="30.5" y="-132.3" font-family="Helvetica,sans-Serif" font-size="11.00" fill="#000000">calendar_id</text>
<polygon fill="none" stroke="#000000" points="99.5,-125.2 99.5,-147.2 189.5,-147.2 189.5,-125.2 99.5,-125.2"/>
<text text-anchor="start" x="102.0042" y="-132.9" font-family="Helvetica,sans-Serif" font-size="11.00" fill="#000000">text[2147483647]</text>
<polygon fill="none" stroke="#000000" points="10.5,-103.2 10.5,-125.2 99.5,-125.2 99.5,-103.2 10.5,-103.2"/>
<text text-anchor="start" x="30.5" y="-110.3" font-family="Helvetica,sans-Serif" font-size="11.00" fill="#000000">chat_url</text>
<polygon fill="none" stroke="#000000" points="99.5,-103.2 99.5,-125.2 189.5,-125.2 189.5,-103.2 99.5,-103.2"/>
<text text-anchor="start" x="102.0042" y="-110.9" font-family="Helvetica,sans-Serif" font-size="11.00" fill="#000000">text[2147483647]</text>
<polygon fill="none" stroke="#000000" points="10.5,-81.2 10.5,-103.2 99.5,-103.2 99.5,-81.2 10.5,-81.2"/>
<text text-anchor="start" x="30.5" y="-88.3" font-family="Helvetica,sans-Serif" font-size="11.00" fill="#000000">creator_id</text>
<polygon fill="none" stroke="#000000" points="99.5,-81.2 99.5,-103.2 189.5,-103.2 189.5,-81.2 99.5,-81.2"/>
<text text-anchor="start" x="102.5" y="-88.9" font-family="Helvetica,sans-Serif" font-size="11.00" fill="#000000">int4[10]</text>
<polygon fill="none" stroke="#000000" points="10.5,-59.2 10.5,-81.2 99.5,-81.2 99.5,-59.2 10.5,-59.2"/>
<text text-anchor="start" x="30.5" y="-66.3" font-family="Helvetica,sans-Serif" font-size="11.00" fill="#000000">logo_url</text>
<polygon fill="none" stroke="#000000" points="99.5,-59.2 99.5,-81.2 189.5,-81.2 189.5,-59.2 99.5,-59.2"/>
<text text-anchor="start" x="102.0042" y="-66.9" font-family="Helvetica,sans-Serif" font-size="11.00" fill="#000000">text[2147483647]</text>
<polygon fill="#ffffff" stroke="transparent" points="10.5,-40.2 10.5,-59.2 46.5,-59.2 46.5,-40.2 10.5,-40.2"/>
<polygon fill="none" stroke="#000000" points="10.5,-40.2 10.5,-59.2 46.5,-59.2 46.5,-40.2 10.5,-40.2"/>
<text text-anchor="start" x="13.5" y="-46.3" font-family="Helvetica,sans-Serif" font-size="11.00" fill="#000000">&lt; 0</text>
<polygon fill="#ffffff" stroke="transparent" points="46.5,-40.2 46.5,-59.2 99.5,-59.2 99.5,-40.2 46.5,-40.2"/>
<polygon fill="none" stroke="#000000" points="46.5,-40.2 46.5,-59.2 99.5,-59.2 99.5,-40.2 46.5,-40.2"/>
<text text-anchor="start" x="64.1105" y="-46.3" font-family="Helvetica,sans-Serif" font-size="11.00" fill="#000000">0 rows</text>
<polygon fill="#ffffff" stroke="transparent" points="99.5,-40.2 99.5,-59.2 189.5,-59.2 189.5,-40.2 99.5,-40.2"/>
<polygon fill="none" stroke="#000000" points="99.5,-40.2 99.5,-59.2 189.5,-59.2 189.5,-40.2 99.5,-40.2"/>
<text text-anchor="start" x="170.9053" y="-46.3" font-family="Helvetica,sans-Serif" font-size="11.00" fill="#000000">4 &gt;</text>
<polygon fill="none" stroke="#000000" stroke-width="2" points="9,-39.2 9,-391.2 190,-391.2 190,-39.2 9,-39.2"/>
</a>
</g>
</g>
<!-- chapter_users&#45;&gt;chapters -->
<g id="edge1" class="edge">
<title>chapter_users:w&#45;&gt;chapters:e</title>
<path fill="none" stroke="#000000" d="M225.6149,-494.8609C169.7969,-473.4455 269.0707,-312.2 189.5,-312.2"/>
<polygon fill="#000000" stroke="#000000" points="232.1037,-495.916 239.4222,-500.7533 236.0519,-496.558 240,-497.2 240,-497.2 240,-497.2 236.0519,-496.558 240.5778,-493.6467 232.1037,-495.916 232.1037,-495.916"/>
<ellipse fill="none" stroke="#000000" cx="228.9452" cy="-495.4024" rx="3.2" ry="3.2"/>
</g>
<!-- events -->
<g id="node3" class="node">
<title>events</title>
<g id="a_node3"><a xlink:href="../../tables/events.html" xlink:title="events" target="_top">
<polygon fill="#ffffff" stroke="transparent" points="401,-263.7 401,-390.7 529,-390.7 529,-263.7 401,-263.7"/>
<polygon fill="#f5f5f5" stroke="transparent" points="401,-367.2 401,-390.2 529,-390.2 529,-367.2 401,-367.2"/>
<polygon fill="none" stroke="#000000" points="401,-367.2 401,-390.2 529,-390.2 529,-367.2 401,-367.2"/>
<text text-anchor="start" x="406" y="-376.3" font-family="Helvetica,sans-Serif" font-weight="bold" font-size="11.00" fill="#000000">events</text>
<text text-anchor="start" x="494.0437" y="-375.3" font-family="Helvetica,sans-Serif" font-size="11.00" fill="#000000">[table]</text>
<polygon fill="none" stroke="#000000" points="401,-345.2 401,-367.2 529,-367.2 529,-345.2 401,-345.2"/>
<image xlink:href="../../images/primaryKeys.png" width="11px" height="12px" preserveAspectRatio="xMinYMin meet" x="406" y="-362.2"/>
<text text-anchor="start" x="421" y="-352.3" font-family="Helvetica,sans-Serif" font-size="11.00" fill="#000000">id</text>
<polygon fill="none" stroke="#000000" points="401,-323.2 401,-345.2 529,-345.2 529,-323.2 401,-323.2"/>
<image xlink:href="../../images/foreignKeys.png" width="11px" height="12px" preserveAspectRatio="xMinYMin meet" x="406" y="-340.2"/>
<text text-anchor="start" x="421" y="-330.3" font-family="Helvetica,sans-Serif" font-size="11.00" fill="#000000">venue_id</text>
<polygon fill="none" stroke="#000000" points="401,-301.2 401,-323.2 529,-323.2 529,-301.2 401,-301.2"/>
<image xlink:href="../../images/foreignKeys.png" width="11px" height="12px" preserveAspectRatio="xMinYMin meet" x="406" y="-318.2"/>
<text text-anchor="start" x="421" y="-308.3" font-family="Helvetica,sans-Serif" font-size="11.00" fill="#000000">chapter_id</text>
<polygon fill="none" stroke="#000000" points="401,-282.2 401,-301.2 529,-301.2 529,-282.2 401,-282.2"/>
<text text-anchor="start" x="404" y="-288.3" font-family="Helvetica,sans-Serif" font-size="11.00" fill="#000000">...</text>
<polygon fill="#ffffff" stroke="transparent" points="401,-263.2 401,-282.2 446,-282.2 446,-263.2 401,-263.2"/>
<polygon fill="none" stroke="#000000" points="401,-263.2 401,-282.2 446,-282.2 446,-263.2 401,-263.2"/>
<text text-anchor="start" x="404" y="-269.3" font-family="Helvetica,sans-Serif" font-size="11.00" fill="#000000">&lt; 2</text>
<polygon fill="#ffffff" stroke="transparent" points="446,-263.2 446,-282.2 496,-282.2 496,-263.2 446,-263.2"/>
<polygon fill="none" stroke="#000000" points="446,-263.2 446,-282.2 496,-282.2 496,-263.2 446,-263.2"/>
<text text-anchor="start" x="460.6105" y="-269.3" font-family="Helvetica,sans-Serif" font-size="11.00" fill="#000000">0 rows</text>
<polygon fill="#ffffff" stroke="transparent" points="496,-263.2 496,-282.2 529,-282.2 529,-263.2 496,-263.2"/>
<polygon fill="none" stroke="#000000" points="496,-263.2 496,-282.2 529,-282.2 529,-263.2 496,-263.2"/>
<text text-anchor="start" x="510.4053" y="-269.3" font-family="Helvetica,sans-Serif" font-size="11.00" fill="#000000">3 &gt;</text>
</a>
</g>
</g>
<!-- events&#45;&gt;chapters -->
<g id="edge2" class="edge">
<title>events:w&#45;&gt;chapters:e</title>
<path fill="none" stroke="#000000" d="M386.928,-308.4715C378.419,-303.181 374.1019,-293.7444 360,-290.2 304.8272,-276.3327 287.2741,-276.7419 232,-290.2 211.3342,-295.2317 210.7696,-312.2 189.5,-312.2"/>
<polygon fill="#000000" stroke="#000000" points="393.2668,-310.151 400.078,-315.6799 397.1334,-311.1755 401,-312.2 401,-312.2 401,-312.2 397.1334,-311.1755 401.922,-308.7201 393.2668,-310.151 393.2668,-310.151"/>
<ellipse fill="none" stroke="#000000" cx="390.1736" cy="-309.3314" rx="3.2" ry="3.2"/>
</g>
<!-- venues -->
<g id="node4" class="node">
<title>venues</title>
<g id="a_node4"><a xlink:href="../../tables/venues.html" xlink:title="venues" target="_top">
<polygon fill="#ffffff" stroke="transparent" points="242,-300.7 242,-405.7 350,-405.7 350,-300.7 242,-300.7"/>
<polygon fill="#f5f5f5" stroke="transparent" points="242,-382.2 242,-405.2 350,-405.2 350,-382.2 242,-382.2"/>
<polygon fill="none" stroke="#000000" points="242,-382.2 242,-405.2 350,-405.2 350,-382.2 242,-382.2"/>
<text text-anchor="start" x="247" y="-391.3" font-family="Helvetica,sans-Serif" font-weight="bold" font-size="11.00" fill="#000000">venues</text>
<text text-anchor="start" x="315.0437" y="-390.3" font-family="Helvetica,sans-Serif" font-size="11.00" fill="#000000">[table]</text>
<polygon fill="none" stroke="#000000" points="242,-360.2 242,-382.2 350,-382.2 350,-360.2 242,-360.2"/>
<image xlink:href="../../images/primaryKeys.png" width="11px" height="12px" preserveAspectRatio="xMinYMin meet" x="247" y="-377.2"/>
<text text-anchor="start" x="262" y="-367.3" font-family="Helvetica,sans-Serif" font-size="11.00" fill="#000000">id</text>
<polygon fill="none" stroke="#000000" points="242,-338.2 242,-360.2 350,-360.2 350,-338.2 242,-338.2"/>
<image xlink:href="../../images/foreignKeys.png" width="11px" height="12px" preserveAspectRatio="xMinYMin meet" x="247" y="-355.2"/>
<text text-anchor="start" x="262" y="-345.3" font-family="Helvetica,sans-Serif" font-size="11.00" fill="#000000">chapter_id</text>
<polygon fill="none" stroke="#000000" points="242,-319.2 242,-338.2 350,-338.2 350,-319.2 242,-319.2"/>
<text text-anchor="start" x="245" y="-325.3" font-family="Helvetica,sans-Serif" font-size="11.00" fill="#000000">...</text>
<polygon fill="#ffffff" stroke="transparent" points="242,-300.2 242,-319.2 277,-319.2 277,-300.2 242,-300.2"/>
<polygon fill="none" stroke="#000000" points="242,-300.2 242,-319.2 277,-319.2 277,-300.2 242,-300.2"/>
<text text-anchor="start" x="245" y="-306.3" font-family="Helvetica,sans-Serif" font-size="11.00" fill="#000000">&lt; 1</text>
<polygon fill="#ffffff" stroke="transparent" points="277,-300.2 277,-319.2 322,-319.2 322,-300.2 277,-300.2"/>
<polygon fill="none" stroke="#000000" points="277,-300.2 277,-319.2 322,-319.2 322,-300.2 277,-300.2"/>
<text text-anchor="start" x="286.6105" y="-306.3" font-family="Helvetica,sans-Serif" font-size="11.00" fill="#000000">0 rows</text>
<polygon fill="#ffffff" stroke="transparent" points="322,-300.2 322,-319.2 350,-319.2 350,-300.2 322,-300.2"/>
<polygon fill="none" stroke="#000000" points="322,-300.2 322,-319.2 350,-319.2 350,-300.2 322,-300.2"/>
<text text-anchor="start" x="331.4053" y="-306.3" font-family="Helvetica,sans-Serif" font-size="11.00" fill="#000000">1 &gt;</text>
</a>
</g>
</g>
<!-- events&#45;&gt;venues -->
<g id="edge3" class="edge">
<title>events:w&#45;&gt;venues:e</title>
<path fill="none" stroke="#000000" d="M387.0658,-338.4444C373.64,-348.1631 372.0965,-371.2 350,-371.2"/>
<polygon fill="#000000" stroke="#000000" points="393.3471,-336.5311 402.049,-337.6438 397.1736,-335.3655 401,-334.2 401,-334.2 401,-334.2 397.1736,-335.3655 399.951,-330.7562 393.3471,-336.5311 393.3471,-336.5311"/>
<ellipse fill="none" stroke="#000000" cx="390.286" cy="-337.4635" rx="3.2" ry="3.2"/>
</g>
<!-- venues&#45;&gt;chapters -->
<g id="edge5" class="edge">
<title>venues:w&#45;&gt;chapters:e</title>
<path fill="none" stroke="#000000" d="M228.1512,-345.2404C213.9523,-335.6954 212.2475,-312.2 189.5,-312.2"/>
<polygon fill="#000000" stroke="#000000" points="234.3082,-347.0007 241.0103,-352.6613 238.1541,-348.1004 242,-349.2 242,-349.2 242,-349.2 238.1541,-348.1004 242.9897,-345.7387 234.3082,-347.0007 234.3082,-347.0007"/>
<ellipse fill="none" stroke="#000000" cx="231.2315" cy="-346.121" rx="3.2" ry="3.2"/>
</g>
<!-- user_bans -->
<g id="node5" class="node">
<title>user_bans</title>
<g id="a_node5"><a xlink:href="../../tables/user_bans.html" xlink:title="user_bans" target="_top">
<polygon fill="#ffffff" stroke="transparent" points="249,-146.7 249,-251.7 343,-251.7 343,-146.7 249,-146.7"/>
<polygon fill="#f5f5f5" stroke="transparent" points="249,-228.2 249,-251.2 343,-251.2 343,-228.2 249,-228.2"/>
<polygon fill="none" stroke="#000000" points="249,-228.2 249,-251.2 343,-251.2 343,-228.2 249,-228.2"/>
<text text-anchor="start" x="253.8244" y="-237.3" font-family="Helvetica,sans-Serif" font-weight="bold" font-size="11.00" fill="#000000">user_bans</text>
<text text-anchor="start" x="308.5219" y="-236.3" font-family="Helvetica,sans-Serif" font-size="11.00" fill="#000000">[table]</text>
<polygon fill="none" stroke="#000000" points="249,-206.2 249,-228.2 343,-228.2 343,-206.2 249,-206.2"/>
<image xlink:href="../../images/primaryKeys.png" width="11px" height="12px" preserveAspectRatio="xMinYMin meet" x="254" y="-223.2"/>
<text text-anchor="start" x="272" y="-213.3" font-family="Helvetica,sans-Serif" font-size="11.00" fill="#000000">user_id</text>
<polygon fill="none" stroke="#000000" points="249,-184.2 249,-206.2 343,-206.2 343,-184.2 249,-184.2"/>
<image xlink:href="../../images/primaryKeys.png" width="11px" height="12px" preserveAspectRatio="xMinYMin meet" x="254" y="-201.2"/>
<text text-anchor="start" x="272" y="-191.3" font-family="Helvetica,sans-Serif" font-size="11.00" fill="#000000">chapter_id</text>
<polygon fill="none" stroke="#000000" points="249,-165.2 249,-184.2 343,-184.2 343,-165.2 249,-165.2"/>
<text text-anchor="start" x="252" y="-171.3" font-family="Helvetica,sans-Serif" font-size="11.00" fill="#000000">...</text>
<polygon fill="#ffffff" stroke="transparent" points="249,-146.2 249,-165.2 281,-165.2 281,-146.2 249,-146.2"/>
<polygon fill="none" stroke="#000000" points="249,-146.2 249,-165.2 281,-165.2 281,-146.2 249,-146.2"/>
<text text-anchor="start" x="252" y="-152.3" font-family="Helvetica,sans-Serif" font-size="11.00" fill="#000000">&lt; 2</text>
<polygon fill="#ffffff" stroke="transparent" points="281,-146.2 281,-165.2 325,-165.2 325,-146.2 281,-146.2"/>
<polygon fill="none" stroke="#000000" points="281,-146.2 281,-165.2 325,-165.2 325,-146.2 281,-146.2"/>
<text text-anchor="start" x="289.6105" y="-152.3" font-family="Helvetica,sans-Serif" font-size="11.00" fill="#000000">0 rows</text>
<polygon fill="#ffffff" stroke="transparent" points="325,-146.2 325,-165.2 343,-165.2 343,-146.2 325,-146.2"/>
<polygon fill="none" stroke="#000000" points="325,-146.2 325,-165.2 343,-165.2 343,-146.2 325,-146.2"/>
<text text-anchor="start" x="333.8862" y="-152.3" font-family="Helvetica,sans-Serif" font-size="11.00" fill="#000000"> &#160;</text>
</a>
</g>
</g>
<!-- user_bans&#45;&gt;chapters -->
<g id="edge4" class="edge">
<title>user_bans:w&#45;&gt;chapters:e</title>
<path fill="none" stroke="#000000" d="M234.5577,-198.5754C201.0844,-217.7588 241.9129,-312.2 189.5,-312.2"/>
<polygon fill="#000000" stroke="#000000" points="241.2099,-197.0207 249.8193,-198.7055 245.105,-196.1104 249,-195.2 249,-195.2 249,-195.2 245.105,-196.1104 248.1807,-191.6945 241.2099,-197.0207 241.2099,-197.0207"/>
<ellipse fill="none" stroke="#000000" cx="238.0939" cy="-197.749" rx="3.2" ry="3.2"/>
</g>
</g>
</svg>
