<?xml version="1.0" encoding="UTF-8" standalone="no"?>
<!DOCTYPE svg PUBLIC "-//W3C//DTD SVG 1.1//EN"
 "http://www.w3.org/Graphics/SVG/1.1/DTD/svg11.dtd">
<!-- Generated by graphviz version 2.40.1 (20161225.0304)
 -->
<!-- Title: oneDegreeRelationshipsDiagram Pages: 1 -->
<svg width="555pt" height="655pt"
 viewBox="0.00 0.00 555.00 654.70" xmlns="http://www.w3.org/2000/svg" xmlns:xlink="http://www.w3.org/1999/xlink">
<g id="graph0" class="graph" transform="scale(1 1) rotate(0) translate(4 650.7)">
<title>oneDegreeRelationshipsDiagram</title>
<polygon fill="#ffffff" stroke="transparent" points="-4,4 -4,-650.7 551,-650.7 551,4 -4,4"/>
<text text-anchor="middle" x="72.4936" y="-7.3" font-family="Helvetica,sans-Serif" font-size="11.00" fill="#000000">Generated by SchemaSpy</text>
<!-- chapter_tags -->
<g id="node1" class="node">
<title>chapter_tags</title>
<g id="a_node1"><a xlink:href="../../tables/chapter_tags.html" xlink:title="chapter_tags" target="_top">
<polygon fill="#ffffff" stroke="transparent" points="243.5,-537.7 243.5,-642.7 358.5,-642.7 358.5,-537.7 243.5,-537.7"/>
<polygon fill="#f5f5f5" stroke="transparent" points="244,-619.2 244,-642.2 359,-642.2 359,-619.2 244,-619.2"/>
<polygon fill="none" stroke="#000000" points="244,-619.2 244,-642.2 359,-642.2 359,-619.2 244,-619.2"/>
<text text-anchor="start" x="249" y="-627.8" font-family="Helvetica,sans-Serif" font-weight="bold" font-size="11.00" fill="#000000">chapter_tags</text>
<text text-anchor="start" x="324.5219" y="-627.3" font-family="Helvetica,sans-Serif" font-size="11.00" fill="#000000">[table]</text>
<polygon fill="none" stroke="#000000" points="244,-597.2 244,-619.2 359,-619.2 359,-597.2 244,-597.2"/>
<image xlink:href="../../images/primaryKeys.png" width="11px" height="12px" preserveAspectRatio="xMinYMin meet" x="249" y="-614.2"/>
<text text-anchor="start" x="273" y="-604.3" font-family="Helvetica,sans-Serif" font-size="11.00" fill="#000000">chapter_id</text>
<polygon fill="none" stroke="#000000" points="244,-575.2 244,-597.2 359,-597.2 359,-575.2 244,-575.2"/>
<image xlink:href="../../images/primaryKeys.png" width="11px" height="12px" preserveAspectRatio="xMinYMin meet" x="249" y="-592.2"/>
<text text-anchor="start" x="273" y="-582.3" font-family="Helvetica,sans-Serif" font-size="11.00" fill="#000000">tag_id</text>
<polygon fill="none" stroke="#000000" points="244,-556.2 244,-575.2 359,-575.2 359,-556.2 244,-556.2"/>
<text text-anchor="start" x="247" y="-562.3" font-family="Helvetica,sans-Serif" font-size="11.00" fill="#000000">...</text>
<polygon fill="#ffffff" stroke="transparent" points="244,-537.2 244,-556.2 287,-556.2 287,-537.2 244,-537.2"/>
<polygon fill="none" stroke="#000000" points="244,-537.2 244,-556.2 287,-556.2 287,-537.2 244,-537.2"/>
<text text-anchor="start" x="247" y="-543.3" font-family="Helvetica,sans-Serif" font-size="11.00" fill="#000000">&lt; 2</text>
<polygon fill="#ffffff" stroke="transparent" points="287,-537.2 287,-556.2 336,-556.2 336,-537.2 287,-537.2"/>
<polygon fill="none" stroke="#000000" points="287,-537.2 287,-556.2 336,-556.2 336,-537.2 287,-537.2"/>
<text text-anchor="start" x="300.6105" y="-543.3" font-family="Helvetica,sans-Serif" font-size="11.00" fill="#000000">0 rows</text>
<polygon fill="#ffffff" stroke="transparent" points="336,-537.2 336,-556.2 359,-556.2 359,-537.2 336,-537.2"/>
<polygon fill="none" stroke="#000000" points="336,-537.2 336,-556.2 359,-556.2 359,-537.2 336,-537.2"/>
<text text-anchor="start" x="349.8862" y="-543.3" font-family="Helvetica,sans-Serif" font-size="11.00" fill="#000000"> &#160;</text>
</a>
</g>
</g>
<!-- chapters -->
<g id="node2" class="node">
<title>chapters</title>
<g id="a_node2"><a xlink:href="../../tables/chapters.html" xlink:title="chapters" target="_top">
<polygon fill="#ffffff" stroke="transparent" points="8,-38.2 8,-392.2 191,-392.2 191,-38.2 8,-38.2"/>
<polygon fill="#f5f5f5" stroke="transparent" points="10.5,-367.2 10.5,-390.2 189.5,-390.2 189.5,-367.2 10.5,-367.2"/>
<polygon fill="none" stroke="#000000" points="10.5,-367.2 10.5,-390.2 189.5,-390.2 189.5,-367.2 10.5,-367.2"/>
<text text-anchor="start" x="15.5" y="-375.8" font-family="Helvetica,sans-Serif" font-weight="bold" font-size="11.00" fill="#000000">chapters</text>
<text text-anchor="start" x="154.5437" y="-375.3" font-family="Helvetica,sans-Serif" font-size="11.00" fill="#000000">[table]</text>
<polygon fill="none" stroke="#000000" points="10.5,-345.2 10.5,-367.2 99.5,-367.2 99.5,-345.2 10.5,-345.2"/>
<text text-anchor="start" x="30.5" y="-352.3" font-family="Helvetica,sans-Serif" font-size="11.00" fill="#000000">created_at</text>
<polygon fill="none" stroke="#000000" points="99.5,-345.2 99.5,-367.2 189.5,-367.2 189.5,-345.2 99.5,-345.2"/>
<text text-anchor="start" x="102.5" y="-352.9" font-family="Helvetica,sans-Serif" font-size="11.00" fill="#000000">timestamp[26,3]</text>
<polygon fill="none" stroke="#000000" points="10.5,-323.2 10.5,-345.2 99.5,-345.2 99.5,-323.2 10.5,-323.2"/>
<text text-anchor="start" x="30.5" y="-330.3" font-family="Helvetica,sans-Serif" font-size="11.00" fill="#000000">updated_at</text>
<polygon fill="none" stroke="#000000" points="99.5,-323.2 99.5,-345.2 189.5,-345.2 189.5,-323.2 99.5,-323.2"/>
<text text-anchor="start" x="102.5" y="-330.9" font-family="Helvetica,sans-Serif" font-size="11.00" fill="#000000">timestamp[26,3]</text>
<polygon fill="none" stroke="#000000" points="10.5,-301.2 10.5,-323.2 99.5,-323.2 99.5,-301.2 10.5,-301.2"/>
<image xlink:href="../../images/primaryKeys.png" width="11px" height="12px" preserveAspectRatio="xMinYMin meet" x="15.5" y="-318.2"/>
<text text-anchor="start" x="30.5" y="-308.3" font-family="Helvetica,sans-Serif" font-size="11.00" fill="#000000">id</text>
<polygon fill="none" stroke="#000000" points="99.5,-301.2 99.5,-323.2 189.5,-323.2 189.5,-301.2 99.5,-301.2"/>
<text text-anchor="start" x="102.5" y="-308.9" font-family="Helvetica,sans-Serif" font-size="11.00" fill="#000000">serial[10]</text>
<polygon fill="none" stroke="#000000" points="10.5,-279.2 10.5,-301.2 99.5,-301.2 99.5,-279.2 10.5,-279.2"/>
<text text-anchor="start" x="30.5" y="-286.3" font-family="Helvetica,sans-Serif" font-size="11.00" fill="#000000">name</text>
<polygon fill="none" stroke="#000000" points="99.5,-279.2 99.5,-301.2 189.5,-301.2 189.5,-279.2 99.5,-279.2"/>
<text text-anchor="start" x="102.0042" y="-286.9" font-family="Helvetica,sans-Serif" font-size="11.00" fill="#000000">text[2147483647]</text>
<polygon fill="none" stroke="#000000" points="10.5,-257.2 10.5,-279.2 99.5,-279.2 99.5,-257.2 10.5,-257.2"/>
<text text-anchor="start" x="30.5" y="-264.3" font-family="Helvetica,sans-Serif" font-size="11.00" fill="#000000">description</text>
<polygon fill="none" stroke="#000000" points="99.5,-257.2 99.5,-279.2 189.5,-279.2 189.5,-257.2 99.5,-257.2"/>
<text text-anchor="start" x="102.0042" y="-264.9" font-family="Helvetica,sans-Serif" font-size="11.00" fill="#000000">text[2147483647]</text>
<polygon fill="none" stroke="#000000" points="10.5,-235.2 10.5,-257.2 99.5,-257.2 99.5,-235.2 10.5,-235.2"/>
<text text-anchor="start" x="30.5" y="-242.3" font-family="Helvetica,sans-Serif" font-size="11.00" fill="#000000">category</text>
<polygon fill="none" stroke="#000000" points="99.5,-235.2 99.5,-257.2 189.5,-257.2 189.5,-235.2 99.5,-235.2"/>
<text text-anchor="start" x="102.0042" y="-242.9" font-family="Helvetica,sans-Serif" font-size="11.00" fill="#000000">text[2147483647]</text>
<polygon fill="none" stroke="#000000" points="10.5,-213.2 10.5,-235.2 99.5,-235.2 99.5,-213.2 10.5,-213.2"/>
<text text-anchor="start" x="30.5" y="-220.3" font-family="Helvetica,sans-Serif" font-size="11.00" fill="#000000">city</text>
<polygon fill="none" stroke="#000000" points="99.5,-213.2 99.5,-235.2 189.5,-235.2 189.5,-213.2 99.5,-213.2"/>
<text text-anchor="start" x="102.0042" y="-220.9" font-family="Helvetica,sans-Serif" font-size="11.00" fill="#000000">text[2147483647]</text>
<polygon fill="none" stroke="#000000" points="10.5,-191.2 10.5,-213.2 99.5,-213.2 99.5,-191.2 10.5,-191.2"/>
<text text-anchor="start" x="30.5" y="-198.3" font-family="Helvetica,sans-Serif" font-size="11.00" fill="#000000">region</text>
<polygon fill="none" stroke="#000000" points="99.5,-191.2 99.5,-213.2 189.5,-213.2 189.5,-191.2 99.5,-191.2"/>
<text text-anchor="start" x="102.0042" y="-198.9" font-family="Helvetica,sans-Serif" font-size="11.00" fill="#000000">text[2147483647]</text>
<polygon fill="none" stroke="#000000" points="10.5,-169.2 10.5,-191.2 99.5,-191.2 99.5,-169.2 10.5,-169.2"/>
<text text-anchor="start" x="30.5" y="-176.3" font-family="Helvetica,sans-Serif" font-size="11.00" fill="#000000">country</text>
<polygon fill="none" stroke="#000000" points="99.5,-169.2 99.5,-191.2 189.5,-191.2 189.5,-169.2 99.5,-169.2"/>
<text text-anchor="start" x="102.0042" y="-176.9" font-family="Helvetica,sans-Serif" font-size="11.00" fill="#000000">text[2147483647]</text>
<polygon fill="none" stroke="#000000" points="10.5,-147.2 10.5,-169.2 99.5,-169.2 99.5,-147.2 10.5,-147.2"/>
<text text-anchor="start" x="30.5" y="-154.3" font-family="Helvetica,sans-Serif" font-size="11.00" fill="#000000">banner_url</text>
<polygon fill="none" stroke="#000000" points="99.5,-147.2 99.5,-169.2 189.5,-169.2 189.5,-147.2 99.5,-147.2"/>
<text text-anchor="start" x="102.0042" y="-154.9" font-family="Helvetica,sans-Serif" font-size="11.00" fill="#000000">text[2147483647]</text>
<polygon fill="none" stroke="#000000" points="10.5,-125.2 10.5,-147.2 99.5,-147.2 99.5,-125.2 10.5,-125.2"/>
<text text-anchor="start" x="30.5" y="-132.3" font-family="Helvetica,sans-Serif" font-size="11.00" fill="#000000">calendar_id</text>
<polygon fill="none" stroke="#000000" points="99.5,-125.2 99.5,-147.2 189.5,-147.2 189.5,-125.2 99.5,-125.2"/>
<text text-anchor="start" x="102.0042" y="-132.9" font-family="Helvetica,sans-Serif" font-size="11.00" fill="#000000">text[2147483647]</text>
<polygon fill="none" stroke="#000000" points="10.5,-103.2 10.5,-125.2 99.5,-125.2 99.5,-103.2 10.5,-103.2"/>
<text text-anchor="start" x="30.5" y="-110.3" font-family="Helvetica,sans-Serif" font-size="11.00" fill="#000000">chat_url</text>
<polygon fill="none" stroke="#000000" points="99.5,-103.2 99.5,-125.2 189.5,-125.2 189.5,-103.2 99.5,-103.2"/>
<text text-anchor="start" x="102.0042" y="-110.9" font-family="Helvetica,sans-Serif" font-size="11.00" fill="#000000">text[2147483647]</text>
<polygon fill="none" stroke="#000000" points="10.5,-81.2 10.5,-103.2 99.5,-103.2 99.5,-81.2 10.5,-81.2"/>
<text text-anchor="start" x="30.5" y="-88.3" font-family="Helvetica,sans-Serif" font-size="11.00" fill="#000000">creator_id</text>
<polygon fill="none" stroke="#000000" points="99.5,-81.2 99.5,-103.2 189.5,-103.2 189.5,-81.2 99.5,-81.2"/>
<text text-anchor="start" x="102.5" y="-88.9" font-family="Helvetica,sans-Serif" font-size="11.00" fill="#000000">int4[10]</text>
<polygon fill="none" stroke="#000000" points="10.5,-59.2 10.5,-81.2 99.5,-81.2 99.5,-59.2 10.5,-59.2"/>
<text text-anchor="start" x="30.5" y="-66.3" font-family="Helvetica,sans-Serif" font-size="11.00" fill="#000000">logo_url</text>
<polygon fill="none" stroke="#000000" points="99.5,-59.2 99.5,-81.2 189.5,-81.2 189.5,-59.2 99.5,-59.2"/>
<text text-anchor="start" x="102.0042" y="-66.9" font-family="Helvetica,sans-Serif" font-size="11.00" fill="#000000">text[2147483647]</text>
<polygon fill="#ffffff" stroke="transparent" points="10.5,-40.2 10.5,-59.2 46.5,-59.2 46.5,-40.2 10.5,-40.2"/>
<polygon fill="none" stroke="#000000" points="10.5,-40.2 10.5,-59.2 46.5,-59.2 46.5,-40.2 10.5,-40.2"/>
<text text-anchor="start" x="13.5" y="-46.3" font-family="Helvetica,sans-Serif" font-size="11.00" fill="#000000">&lt; 0</text>
<polygon fill="#ffffff" stroke="transparent" points="46.5,-40.2 46.5,-59.2 99.5,-59.2 99.5,-40.2 46.5,-40.2"/>
<polygon fill="none" stroke="#000000" points="46.5,-40.2 46.5,-59.2 99.5,-59.2 99.5,-40.2 46.5,-40.2"/>
<text text-anchor="start" x="64.1105" y="-46.3" font-family="Helvetica,sans-Serif" font-size="11.00" fill="#000000">0 rows</text>
<polygon fill="#ffffff" stroke="transparent" points="99.5,-40.2 99.5,-59.2 189.5,-59.2 189.5,-40.2 99.5,-40.2"/>
<polygon fill="none" stroke="#000000" points="99.5,-40.2 99.5,-59.2 189.5,-59.2 189.5,-40.2 99.5,-40.2"/>
<text text-anchor="start" x="170.9053" y="-46.3" font-family="Helvetica,sans-Serif" font-size="11.00" fill="#000000">5 &gt;</text>
<polygon fill="none" stroke="#000000" stroke-width="2" points="9,-39.2 9,-391.2 190,-391.2 190,-39.2 9,-39.2"/>
</a>
</g>
</g>
<!-- chapter_tags&#45;&gt;chapters -->
<g id="edge1" class="edge">
<title>chapter_tags:w&#45;&gt;chapters:e</title>
<path fill="none" stroke="#000000" d="M230.5938,-602.8097C188.8745,-562.6919 251.0275,-312.2 189.5,-312.2"/>
<polygon fill="#000000" stroke="#000000" points="236.5775,-605.2156 242.657,-611.5401 240.2888,-606.7078 244,-608.2 244,-608.2 244,-608.2 240.2888,-606.7078 245.343,-604.8599 236.5775,-605.2156 236.5775,-605.2156"/>
<ellipse fill="none" stroke="#000000" cx="233.6085" cy="-604.0218" rx="3.2" ry="3.2"/>
</g>
<!-- chapter_users -->
<g id="node3" class="node">
<title>chapter_users</title>
<g id="a_node3"><a xlink:href="../../tables/chapter_users.html" xlink:title="chapter_users" target="_top">
<polygon fill="#ffffff" stroke="transparent" points="240,-389.7 240,-516.7 362,-516.7 362,-389.7 240,-389.7"/>
<polygon fill="#f5f5f5" stroke="transparent" points="240,-493.2 240,-516.2 362,-516.2 362,-493.2 240,-493.2"/>
<polygon fill="none" stroke="#000000" points="240,-493.2 240,-516.2 362,-516.2 362,-493.2 240,-493.2"/>
<text text-anchor="start" x="245" y="-501.8" font-family="Helvetica,sans-Serif" font-weight="bold" font-size="11.00" fill="#000000">chapter_users</text>
<text text-anchor="start" x="327.5219" y="-501.3" font-family="Helvetica,sans-Serif" font-size="11.00" fill="#000000">[table]</text>
<polygon fill="none" stroke="#000000" points="240,-471.2 240,-493.2 362,-493.2 362,-471.2 240,-471.2"/>
<image xlink:href="../../images/primaryKeys.png" width="11px" height="12px" preserveAspectRatio="xMinYMin meet" x="245" y="-488.2"/>
<text text-anchor="start" x="265" y="-478.3" font-family="Helvetica,sans-Serif" font-size="11.00" fill="#000000">user_id</text>
<polygon fill="none" stroke="#000000" points="240,-449.2 240,-471.2 362,-471.2 362,-449.2 240,-449.2"/>
<image xlink:href="../../images/primaryKeys.png" width="11px" height="12px" preserveAspectRatio="xMinYMin meet" x="245" y="-466.2"/>
<text text-anchor="start" x="265" y="-456.3" font-family="Helvetica,sans-Serif" font-size="11.00" fill="#000000">chapter_id</text>
<polygon fill="none" stroke="#000000" points="240,-427.2 240,-449.2 362,-449.2 362,-427.2 240,-427.2"/>
<image xlink:href="../../images/foreignKeys.png" width="11px" height="12px" preserveAspectRatio="xMinYMin meet" x="245" y="-444.2"/>
<text text-anchor="start" x="265" y="-434.3" font-family="Helvetica,sans-Serif" font-size="11.00" fill="#000000">chapter_role_id</text>
<polygon fill="none" stroke="#000000" points="240,-408.2 240,-427.2 362,-427.2 362,-408.2 240,-408.2"/>
<text text-anchor="start" x="243" y="-414.3" font-family="Helvetica,sans-Serif" font-size="11.00" fill="#000000">...</text>
<polygon fill="#ffffff" stroke="transparent" points="240,-389.2 240,-408.2 286,-408.2 286,-389.2 240,-389.2"/>
<polygon fill="none" stroke="#000000" points="240,-389.2 240,-408.2 286,-408.2 286,-389.2 240,-389.2"/>
<text text-anchor="start" x="243" y="-395.3" font-family="Helvetica,sans-Serif" font-size="11.00" fill="#000000">&lt; 3</text>
<polygon fill="#ffffff" stroke="transparent" points="286,-389.2 286,-408.2 337,-408.2 337,-389.2 286,-389.2"/>
<polygon fill="none" stroke="#000000" points="286,-389.2 286,-408.2 337,-408.2 337,-389.2 286,-389.2"/>
<text text-anchor="start" x="301.6105" y="-395.3" font-family="Helvetica,sans-Serif" font-size="11.00" fill="#000000">0 rows</text>
<polygon fill="#ffffff" stroke="transparent" points="337,-389.2 337,-408.2 362,-408.2 362,-389.2 337,-389.2"/>
<polygon fill="none" stroke="#000000" points="337,-389.2 337,-408.2 362,-408.2 362,-389.2 337,-389.2"/>
<text text-anchor="start" x="352.8862" y="-395.3" font-family="Helvetica,sans-Serif" font-size="11.00" fill="#000000"> &#160;</text>
</a>
</g>
</g>
<!-- chapter_users&#45;&gt;chapters -->
<g id="edge2" class="edge">
<title>chapter_users:w&#45;&gt;chapters:e</title>
<path fill="none" stroke="#000000" d="M225.6451,-457.2436C184.2497,-436.3845 253.1645,-312.2 189.5,-312.2"/>
<polygon fill="#000000" stroke="#000000" points="232.1644,-458.5862 239.2738,-463.726 236.0822,-459.3931 240,-460.2 240,-460.2 240,-460.2 236.0822,-459.3931 240.7262,-456.674 232.1644,-458.5862 232.1644,-458.5862"/>
<ellipse fill="none" stroke="#000000" cx="229.0302" cy="-457.9407" rx="3.2" ry="3.2"/>
</g>
<!-- events -->
<g id="node4" class="node">
<title>events</title>
<g id="a_node4"><a xlink:href="../../tables/events.html" xlink:title="events" target="_top">
<polygon fill="#ffffff" stroke="transparent" points="411,-226.7 411,-353.7 539,-353.7 539,-226.7 411,-226.7"/>
<polygon fill="#f5f5f5" stroke="transparent" points="411,-330.2 411,-353.2 539,-353.2 539,-330.2 411,-330.2"/>
<polygon fill="none" stroke="#000000" points="411,-330.2 411,-353.2 539,-353.2 539,-330.2 411,-330.2"/>
<text text-anchor="start" x="416" y="-338.8" font-family="Helvetica,sans-Serif" font-weight="bold" font-size="11.00" fill="#000000">events</text>
<text text-anchor="start" x="504.0437" y="-338.3" font-family="Helvetica,sans-Serif" font-size="11.00" fill="#000000">[table]</text>
<polygon fill="none" stroke="#000000" points="411,-308.2 411,-330.2 539,-330.2 539,-308.2 411,-308.2"/>
<image xlink:href="../../images/primaryKeys.png" width="11px" height="12px" preserveAspectRatio="xMinYMin meet" x="416" y="-325.2"/>
<text text-anchor="start" x="431" y="-315.3" font-family="Helvetica,sans-Serif" font-size="11.00" fill="#000000">id</text>
<polygon fill="none" stroke="#000000" points="411,-286.2 411,-308.2 539,-308.2 539,-286.2 411,-286.2"/>
<image xlink:href="../../images/foreignKeys.png" width="11px" height="12px" preserveAspectRatio="xMinYMin meet" x="416" y="-303.2"/>
<text text-anchor="start" x="431" y="-293.3" font-family="Helvetica,sans-Serif" font-size="11.00" fill="#000000">venue_id</text>
<polygon fill="none" stroke="#000000" points="411,-264.2 411,-286.2 539,-286.2 539,-264.2 411,-264.2"/>
<image xlink:href="../../images/foreignKeys.png" width="11px" height="12px" preserveAspectRatio="xMinYMin meet" x="416" y="-281.2"/>
<text text-anchor="start" x="431" y="-271.3" font-family="Helvetica,sans-Serif" font-size="11.00" fill="#000000">chapter_id</text>
<polygon fill="none" stroke="#000000" points="411,-245.2 411,-264.2 539,-264.2 539,-245.2 411,-245.2"/>
<text text-anchor="start" x="414" y="-251.3" font-family="Helvetica,sans-Serif" font-size="11.00" fill="#000000">...</text>
<polygon fill="#ffffff" stroke="transparent" points="411,-226.2 411,-245.2 456,-245.2 456,-226.2 411,-226.2"/>
<polygon fill="none" stroke="#000000" points="411,-226.2 411,-245.2 456,-245.2 456,-226.2 411,-226.2"/>
<text text-anchor="start" x="414" y="-232.3" font-family="Helvetica,sans-Serif" font-size="11.00" fill="#000000">&lt; 2</text>
<polygon fill="#ffffff" stroke="transparent" points="456,-226.2 456,-245.2 506,-245.2 506,-226.2 456,-226.2"/>
<polygon fill="none" stroke="#000000" points="456,-226.2 456,-245.2 506,-245.2 506,-226.2 456,-226.2"/>
<text text-anchor="start" x="470.6105" y="-232.3" font-family="Helvetica,sans-Serif" font-size="11.00" fill="#000000">0 rows</text>
<polygon fill="#ffffff" stroke="transparent" points="506,-226.2 506,-245.2 539,-245.2 539,-226.2 506,-226.2"/>
<polygon fill="none" stroke="#000000" points="506,-226.2 506,-245.2 539,-245.2 539,-226.2 506,-226.2"/>
<text text-anchor="start" x="520.4053" y="-232.3" font-family="Helvetica,sans-Serif" font-size="11.00" fill="#000000">3 &gt;</text>
</a>
</g>
</g>
<!-- events&#45;&gt;chapters -->
<g id="edge3" class="edge">
<title>events:w&#45;&gt;chapters:e</title>
<path fill="none" stroke="#000000" d="M396.928,-271.4715C388.419,-266.181 384.1019,-256.7444 370,-253.2 310.5168,-238.2493 286.5916,-225.244 232,-253.2 203.2352,-267.9303 221.8171,-312.2 189.5,-312.2"/>
<polygon fill="#000000" stroke="#000000" points="403.2668,-273.151 410.078,-278.6799 407.1334,-274.1755 411,-275.2 411,-275.2 411,-275.2 407.1334,-274.1755 411.922,-271.7201 403.2668,-273.151 403.2668,-273.151"/>
<ellipse fill="none" stroke="#000000" cx="400.1736" cy="-272.3314" rx="3.2" ry="3.2"/>
</g>
<!-- venues -->
<g id="node5" class="node">
<title>venues</title>
<g id="a_node5"><a xlink:href="../../tables/venues.html" xlink:title="venues" target="_top">
<polygon fill="#ffffff" stroke="transparent" points="247,-263.7 247,-368.7 355,-368.7 355,-263.7 247,-263.7"/>
<polygon fill="#f5f5f5" stroke="transparent" points="247,-345.2 247,-368.2 355,-368.2 355,-345.2 247,-345.2"/>
<polygon fill="none" stroke="#000000" points="247,-345.2 247,-368.2 355,-368.2 355,-345.2 247,-345.2"/>
<text text-anchor="start" x="252" y="-353.8" font-family="Helvetica,sans-Serif" font-weight="bold" font-size="11.00" fill="#000000">venues</text>
<text text-anchor="start" x="320.0437" y="-353.3" font-family="Helvetica,sans-Serif" font-size="11.00" fill="#000000">[table]</text>
<polygon fill="none" stroke="#000000" points="247,-323.2 247,-345.2 355,-345.2 355,-323.2 247,-323.2"/>
<image xlink:href="../../images/primaryKeys.png" width="11px" height="12px" preserveAspectRatio="xMinYMin meet" x="252" y="-340.2"/>
<text text-anchor="start" x="267" y="-330.3" font-family="Helvetica,sans-Serif" font-size="11.00" fill="#000000">id</text>
<polygon fill="none" stroke="#000000" points="247,-301.2 247,-323.2 355,-323.2 355,-301.2 247,-301.2"/>
<image xlink:href="../../images/foreignKeys.png" width="11px" height="12px" preserveAspectRatio="xMinYMin meet" x="252" y="-318.2"/>
<text text-anchor="start" x="267" y="-308.3" font-family="Helvetica,sans-Serif" font-size="11.00" fill="#000000">chapter_id</text>
<polygon fill="none" stroke="#000000" points="247,-282.2 247,-301.2 355,-301.2 355,-282.2 247,-282.2"/>
<text text-anchor="start" x="250" y="-288.3" font-family="Helvetica,sans-Serif" font-size="11.00" fill="#000000">...</text>
<polygon fill="#ffffff" stroke="transparent" points="247,-263.2 247,-282.2 282,-282.2 282,-263.2 247,-263.2"/>
<polygon fill="none" stroke="#000000" points="247,-263.2 247,-282.2 282,-282.2 282,-263.2 247,-263.2"/>
<text text-anchor="start" x="250" y="-269.3" font-family="Helvetica,sans-Serif" font-size="11.00" fill="#000000">&lt; 1</text>
<polygon fill="#ffffff" stroke="transparent" points="282,-263.2 282,-282.2 327,-282.2 327,-263.2 282,-263.2"/>
<polygon fill="none" stroke="#000000" points="282,-263.2 282,-282.2 327,-282.2 327,-263.2 282,-263.2"/>
<text text-anchor="start" x="291.6105" y="-269.3" font-family="Helvetica,sans-Serif" font-size="11.00" fill="#000000">0 rows</text>
<polygon fill="#ffffff" stroke="transparent" points="327,-263.2 327,-282.2 355,-282.2 355,-263.2 327,-263.2"/>
<polygon fill="none" stroke="#000000" points="327,-263.2 327,-282.2 355,-282.2 355,-263.2 327,-263.2"/>
<text text-anchor="start" x="336.4053" y="-269.3" font-family="Helvetica,sans-Serif" font-size="11.00" fill="#000000">2 &gt;</text>
</a>
</g>
</g>
<!-- events&#45;&gt;venues -->
<g id="edge4" class="edge">
<title>events:w&#45;&gt;venues:e</title>
<path fill="none" stroke="#000000" d="M396.8548,-300.883C381.3219,-310.2417 379.0045,-334.2 355,-334.2"/>
<polygon fill="#000000" stroke="#000000" points="403.2581,-299.2158 411.9071,-300.6838 407.1291,-298.2079 411,-297.2 411,-297.2 411,-297.2 407.1291,-298.2079 410.0929,-293.7162 403.2581,-299.2158 403.2581,-299.2158"/>
<ellipse fill="none" stroke="#000000" cx="400.1614" cy="-300.0221" rx="3.2" ry="3.2"/>
</g>
<!-- venues&#45;&gt;chapters -->
<g id="edge6" class="edge">
<title>venues:w&#45;&gt;chapters:e</title>
<path fill="none" stroke="#000000" d="M232.5794,-312.2C217.7322,-312.2 209.4653,-312.2 189.5,-312.2"/>
<polygon fill="#000000" stroke="#000000" points="239,-312.2001 247,-315.8 243,-312.2 247,-312.2 247,-312.2 247,-312.2 243,-312.2 247,-308.6 239,-312.2001 239,-312.2001"/>
<ellipse fill="none" stroke="#000000" cx="235.8" cy="-312.2001" rx="3.2" ry="3.2"/>
</g>
<!-- user_bans -->
<g id="node6" class="node">
<title>user_bans</title>
<g id="a_node6"><a xlink:href="../../tables/user_bans.html" xlink:title="user_bans" target="_top">
<polygon fill="#ffffff" stroke="transparent" points="251.5,-109.7 251.5,-214.7 350.5,-214.7 350.5,-109.7 251.5,-109.7"/>
<polygon fill="#f5f5f5" stroke="transparent" points="252,-191.2 252,-214.2 351,-214.2 351,-191.2 252,-191.2"/>
<polygon fill="none" stroke="#000000" points="252,-191.2 252,-214.2 351,-214.2 351,-191.2 252,-191.2"/>
<text text-anchor="start" x="257" y="-199.8" font-family="Helvetica,sans-Serif" font-weight="bold" font-size="11.00" fill="#000000">user_bans</text>
<text text-anchor="start" x="316.5219" y="-199.3" font-family="Helvetica,sans-Serif" font-size="11.00" fill="#000000">[table]</text>
<polygon fill="none" stroke="#000000" points="252,-169.2 252,-191.2 351,-191.2 351,-169.2 252,-169.2"/>
<image xlink:href="../../images/primaryKeys.png" width="11px" height="12px" preserveAspectRatio="xMinYMin meet" x="257" y="-186.2"/>
<text text-anchor="start" x="278" y="-176.3" font-family="Helvetica,sans-Serif" font-size="11.00" fill="#000000">user_id</text>
<polygon fill="none" stroke="#000000" points="252,-147.2 252,-169.2 351,-169.2 351,-147.2 252,-147.2"/>
<image xlink:href="../../images/primaryKeys.png" width="11px" height="12px" preserveAspectRatio="xMinYMin meet" x="257" y="-164.2"/>
<text text-anchor="start" x="278" y="-154.3" font-family="Helvetica,sans-Serif" font-size="11.00" fill="#000000">chapter_id</text>
<polygon fill="none" stroke="#000000" points="252,-128.2 252,-147.2 351,-147.2 351,-128.2 252,-128.2"/>
<text text-anchor="start" x="255" y="-134.3" font-family="Helvetica,sans-Serif" font-size="11.00" fill="#000000">...</text>
<polygon fill="#ffffff" stroke="transparent" points="252,-109.2 252,-128.2 287,-128.2 287,-109.2 252,-109.2"/>
<polygon fill="none" stroke="#000000" points="252,-109.2 252,-128.2 287,-128.2 287,-109.2 252,-109.2"/>
<text text-anchor="start" x="255" y="-115.3" font-family="Helvetica,sans-Serif" font-size="11.00" fill="#000000">&lt; 2</text>
<polygon fill="#ffffff" stroke="transparent" points="287,-109.2 287,-128.2 332,-128.2 332,-109.2 287,-109.2"/>
<polygon fill="none" stroke="#000000" points="287,-109.2 287,-128.2 332,-128.2 332,-109.2 287,-109.2"/>
<text text-anchor="start" x="296.6105" y="-115.3" font-family="Helvetica,sans-Serif" font-size="11.00" fill="#000000">0 rows</text>
<polygon fill="#ffffff" stroke="transparent" points="332,-109.2 332,-128.2 351,-128.2 351,-109.2 332,-109.2"/>
<polygon fill="none" stroke="#000000" points="332,-109.2 332,-128.2 351,-128.2 351,-109.2 332,-109.2"/>
<text text-anchor="start" x="341.8862" y="-115.3" font-family="Helvetica,sans-Serif" font-size="11.00" fill="#000000"> &#160;</text>
</a>
</g>
</g>
<!-- user_bans&#45;&gt;chapters -->
<g id="edge5" class="edge">
<title>user_bans:w&#45;&gt;chapters:e</title>
<path fill="none" stroke="#000000" d="M237.7491,-160.7445C190.1952,-180.7674 257.7399,-312.2 189.5,-312.2"/>
<polygon fill="#000000" stroke="#000000" points="244.1245,-159.6062 252.6328,-161.744 248.0623,-158.9031 252,-158.2 252,-158.2 252,-158.2 248.0623,-158.9031 251.3672,-154.656 244.1245,-159.6062 244.1245,-159.6062"/>
<ellipse fill="none" stroke="#000000" cx="240.9744" cy="-160.1687" rx="3.2" ry="3.2"/>
</g>
</g>
</svg>
