<?xml version="1.0" encoding="UTF-8" standalone="no"?>
<!DOCTYPE svg PUBLIC "-//W3C//DTD SVG 1.1//EN"
 "http://www.w3.org/Graphics/SVG/1.1/DTD/svg11.dtd">
<!-- Generated by graphviz version 2.40.1 (20161225.0304)
 -->
<!-- Title: oneDegreeRelationshipsDiagram Pages: 1 -->
<svg width="577pt" height="643pt"
 viewBox="0.00 0.00 577.00 643.20" xmlns="http://www.w3.org/2000/svg" xmlns:xlink="http://www.w3.org/1999/xlink">
<g id="graph0" class="graph" transform="scale(1 1) rotate(0) translate(4 639.2)">
<title>oneDegreeRelationshipsDiagram</title>
<polygon fill="#ffffff" stroke="transparent" points="-4,4 -4,-639.2 573,-639.2 573,4 -4,4"/>
<text text-anchor="middle" x="72.4936" y="-7.3" font-family="Helvetica,sans-Serif" font-size="11.00" fill="#000000">Generated by SchemaSpy</text>
<!-- chapters -->
<g id="node1" class="node">
<title>chapters</title>
<g id="a_node1"><a xlink:href="../../tables/chapters.html" xlink:title="chapters" target="_top">
<polygon fill="#ffffff" stroke="transparent" points="154,-136.7 154,-424.7 364,-424.7 364,-136.7 154,-136.7"/>
<polygon fill="#f5f5f5" stroke="transparent" points="156,-399.7 156,-422.7 362,-422.7 362,-399.7 156,-399.7"/>
<polygon fill="none" stroke="#000000" points="156,-399.7 156,-422.7 362,-422.7 362,-399.7 156,-399.7"/>
<text text-anchor="start" x="161" y="-408.8" font-family="Helvetica,sans-Serif" font-weight="bold" font-size="11.00" fill="#000000">chapters</text>
<text text-anchor="start" x="327.0437" y="-407.8" font-family="Helvetica,sans-Serif" font-size="11.00" fill="#000000">[table]</text>
<polygon fill="none" stroke="#000000" points="156,-377.7 156,-399.7 253,-399.7 253,-377.7 156,-377.7"/>
<image xlink:href="../../images/primaryKeys.png" width="11px" height="12px" preserveAspectRatio="xMinYMin meet" x="161" y="-394.7"/>
<text text-anchor="start" x="176" y="-384.8" font-family="Helvetica,sans-Serif" font-size="11.00" fill="#000000">id</text>
<polygon fill="none" stroke="#000000" points="253,-377.7 253,-399.7 362,-399.7 362,-377.7 253,-377.7"/>
<text text-anchor="start" x="256" y="-385.4" font-family="Helvetica,sans-Serif" font-size="11.00" fill="#000000">serial[10]</text>
<polygon fill="none" stroke="#000000" points="156,-355.7 156,-377.7 253,-377.7 253,-355.7 156,-355.7"/>
<text text-anchor="start" x="176" y="-362.8" font-family="Helvetica,sans-Serif" font-size="11.00" fill="#000000">name</text>
<polygon fill="none" stroke="#000000" points="253,-355.7 253,-377.7 362,-377.7 362,-355.7 253,-355.7"/>
<text text-anchor="start" x="255.5344" y="-363.4" font-family="Helvetica,sans-Serif" font-size="11.00" fill="#000000">varchar[2147483647]</text>
<polygon fill="none" stroke="#000000" points="156,-333.7 156,-355.7 253,-355.7 253,-333.7 156,-333.7"/>
<text text-anchor="start" x="176" y="-340.8" font-family="Helvetica,sans-Serif" font-size="11.00" fill="#000000">description</text>
<polygon fill="none" stroke="#000000" points="253,-333.7 253,-355.7 362,-355.7 362,-333.7 253,-333.7"/>
<text text-anchor="start" x="255.5344" y="-341.4" font-family="Helvetica,sans-Serif" font-size="11.00" fill="#000000">varchar[2147483647]</text>
<polygon fill="none" stroke="#000000" points="156,-311.7 156,-333.7 253,-333.7 253,-311.7 156,-311.7"/>
<text text-anchor="start" x="176" y="-318.8" font-family="Helvetica,sans-Serif" font-size="11.00" fill="#000000">category</text>
<polygon fill="none" stroke="#000000" points="253,-311.7 253,-333.7 362,-333.7 362,-311.7 253,-311.7"/>
<text text-anchor="start" x="255.5344" y="-319.4" font-family="Helvetica,sans-Serif" font-size="11.00" fill="#000000">varchar[2147483647]</text>
<polygon fill="none" stroke="#000000" points="156,-289.7 156,-311.7 253,-311.7 253,-289.7 156,-289.7"/>
<text text-anchor="start" x="176" y="-296.8" font-family="Helvetica,sans-Serif" font-size="11.00" fill="#000000">details</text>
<polygon fill="none" stroke="#000000" points="253,-289.7 253,-311.7 362,-311.7 362,-289.7 253,-289.7"/>
<text text-anchor="start" x="256" y="-297.4" font-family="Helvetica,sans-Serif" font-size="11.00" fill="#000000">json[2147483647]</text>
<polygon fill="none" stroke="#000000" points="156,-267.7 156,-289.7 253,-289.7 253,-267.7 156,-267.7"/>
<image xlink:href="../../images/foreignKeys.png" width="11px" height="12px" preserveAspectRatio="xMinYMin meet" x="161" y="-284.7"/>
<text text-anchor="start" x="176" y="-274.8" font-family="Helvetica,sans-Serif" font-size="11.00" fill="#000000">creator_id</text>
<polygon fill="none" stroke="#000000" points="253,-267.7 253,-289.7 362,-289.7 362,-267.7 253,-267.7"/>
<text text-anchor="start" x="256" y="-275.4" font-family="Helvetica,sans-Serif" font-size="11.00" fill="#000000">int4[10]</text>
<polygon fill="none" stroke="#000000" points="156,-245.7 156,-267.7 253,-267.7 253,-245.7 156,-245.7"/>
<text text-anchor="start" x="176" y="-252.8" font-family="Helvetica,sans-Serif" font-size="11.00" fill="#000000">created_at</text>
<polygon fill="none" stroke="#000000" points="253,-245.7 253,-267.7 362,-267.7 362,-245.7 253,-245.7"/>
<text text-anchor="start" x="256" y="-253.4" font-family="Helvetica,sans-Serif" font-size="11.00" fill="#000000">timestamp[29,6]</text>
<polygon fill="none" stroke="#000000" points="156,-223.7 156,-245.7 253,-245.7 253,-223.7 156,-223.7"/>
<text text-anchor="start" x="176" y="-230.8" font-family="Helvetica,sans-Serif" font-size="11.00" fill="#000000">updated_at</text>
<polygon fill="none" stroke="#000000" points="253,-223.7 253,-245.7 362,-245.7 362,-223.7 253,-223.7"/>
<text text-anchor="start" x="256" y="-231.4" font-family="Helvetica,sans-Serif" font-size="11.00" fill="#000000">timestamp[29,6]</text>
<polygon fill="none" stroke="#000000" points="156,-201.7 156,-223.7 253,-223.7 253,-201.7 156,-201.7"/>
<text text-anchor="start" x="176" y="-208.8" font-family="Helvetica,sans-Serif" font-size="11.00" fill="#000000">city</text>
<polygon fill="none" stroke="#000000" points="253,-201.7 253,-223.7 362,-223.7 362,-201.7 253,-201.7"/>
<text text-anchor="start" x="255.5344" y="-209.4" font-family="Helvetica,sans-Serif" font-size="11.00" fill="#000000">varchar[2147483647]</text>
<polygon fill="none" stroke="#000000" points="156,-179.7 156,-201.7 253,-201.7 253,-179.7 156,-179.7"/>
<text text-anchor="start" x="176" y="-186.8" font-family="Helvetica,sans-Serif" font-size="11.00" fill="#000000">region</text>
<polygon fill="none" stroke="#000000" points="253,-179.7 253,-201.7 362,-201.7 362,-179.7 253,-179.7"/>
<text text-anchor="start" x="255.5344" y="-187.4" font-family="Helvetica,sans-Serif" font-size="11.00" fill="#000000">varchar[2147483647]</text>
<polygon fill="none" stroke="#000000" points="156,-157.7 156,-179.7 253,-179.7 253,-157.7 156,-157.7"/>
<text text-anchor="start" x="176" y="-164.8" font-family="Helvetica,sans-Serif" font-size="11.00" fill="#000000">country</text>
<polygon fill="none" stroke="#000000" points="253,-157.7 253,-179.7 362,-179.7 362,-157.7 253,-157.7"/>
<text text-anchor="start" x="255.5344" y="-165.4" font-family="Helvetica,sans-Serif" font-size="11.00" fill="#000000">varchar[2147483647]</text>
<polygon fill="#ffffff" stroke="transparent" points="156,-138.7 156,-157.7 196,-157.7 196,-138.7 156,-138.7"/>
<polygon fill="none" stroke="#000000" points="156,-138.7 156,-157.7 196,-157.7 196,-138.7 156,-138.7"/>
<text text-anchor="start" x="159" y="-144.8" font-family="Helvetica,sans-Serif" font-size="11.00" fill="#000000">&lt; 1</text>
<polygon fill="#ffffff" stroke="transparent" points="196,-138.7 196,-157.7 253,-157.7 253,-138.7 196,-138.7"/>
<polygon fill="none" stroke="#000000" points="196,-138.7 196,-157.7 253,-157.7 253,-138.7 196,-138.7"/>
<text text-anchor="start" x="217.6105" y="-144.8" font-family="Helvetica,sans-Serif" font-size="11.00" fill="#000000">4 rows</text>
<polygon fill="#ffffff" stroke="transparent" points="253,-138.7 253,-157.7 362,-157.7 362,-138.7 253,-138.7"/>
<polygon fill="none" stroke="#000000" points="253,-138.7 253,-157.7 362,-157.7 362,-138.7 253,-138.7"/>
<text text-anchor="start" x="343.4053" y="-144.8" font-family="Helvetica,sans-Serif" font-size="11.00" fill="#000000">4 &gt;</text>
<polygon fill="none" stroke="#000000" stroke-width="2" points="155,-137.7 155,-423.7 363,-423.7 363,-137.7 155,-137.7"/>
</a>
</g>
</g>
<!-- users -->
<g id="node2" class="node">
<title>users</title>
<g id="a_node2"><a xlink:href="../../tables/users.html" xlink:title="users" target="_top">
<polygon fill="#ffffff" stroke="transparent" points="8,-315.2 8,-398.2 105,-398.2 105,-315.2 8,-315.2"/>
<polygon fill="#f5f5f5" stroke="transparent" points="8.5,-374.7 8.5,-397.7 105.5,-397.7 105.5,-374.7 8.5,-374.7"/>
<polygon fill="none" stroke="#000000" points="8.5,-374.7 8.5,-397.7 105.5,-397.7 105.5,-374.7 8.5,-374.7"/>
<text text-anchor="start" x="13.5" y="-383.8" font-family="Helvetica,sans-Serif" font-weight="bold" font-size="11.00" fill="#000000">users</text>
<text text-anchor="start" x="70.5437" y="-382.8" font-family="Helvetica,sans-Serif" font-size="11.00" fill="#000000">[table]</text>
<polygon fill="none" stroke="#000000" points="8.5,-352.7 8.5,-374.7 105.5,-374.7 105.5,-352.7 8.5,-352.7"/>
<image xlink:href="../../images/primaryKeys.png" width="11px" height="12px" preserveAspectRatio="xMinYMin meet" x="13.5" y="-369.7"/>
<text text-anchor="start" x="28.5" y="-359.8" font-family="Helvetica,sans-Serif" font-size="11.00" fill="#000000">id</text>
<polygon fill="none" stroke="#000000" points="8.5,-333.7 8.5,-352.7 105.5,-352.7 105.5,-333.7 8.5,-333.7"/>
<text text-anchor="start" x="11.5" y="-339.8" font-family="Helvetica,sans-Serif" font-size="11.00" fill="#000000">...</text>
<polygon fill="#ffffff" stroke="transparent" points="8.5,-314.7 8.5,-333.7 36.5,-333.7 36.5,-314.7 8.5,-314.7"/>
<polygon fill="none" stroke="#000000" points="8.5,-314.7 8.5,-333.7 36.5,-333.7 36.5,-314.7 8.5,-314.7"/>
<text text-anchor="start" x="11.5" y="-320.8" font-family="Helvetica,sans-Serif" font-size="11.00" fill="#000000"> &#160;</text>
<polygon fill="#ffffff" stroke="transparent" points="36.5,-314.7 36.5,-333.7 76.5,-333.7 76.5,-314.7 36.5,-314.7"/>
<polygon fill="none" stroke="#000000" points="36.5,-314.7 36.5,-333.7 76.5,-333.7 76.5,-314.7 36.5,-314.7"/>
<text text-anchor="start" x="46.6105" y="-320.8" font-family="Helvetica,sans-Serif" font-size="11.00" fill="#000000">1 row</text>
<polygon fill="#ffffff" stroke="transparent" points="76.5,-314.7 76.5,-333.7 105.5,-333.7 105.5,-314.7 76.5,-314.7"/>
<polygon fill="none" stroke="#000000" points="76.5,-314.7 76.5,-333.7 105.5,-333.7 105.5,-314.7 76.5,-314.7"/>
<text text-anchor="start" x="86.9053" y="-320.8" font-family="Helvetica,sans-Serif" font-size="11.00" fill="#000000">6 &gt;</text>
</a>
</g>
</g>
<!-- chapters&#45;&gt;users -->
<g id="edge1" class="edge">
<title>chapters:w&#45;&gt;users:e</title>
<path fill="none" stroke="#000000" d="M142.1216,-283.032C120.76,-300.3534 143.4344,-363.7 105.5,-363.7"/>
<polygon fill="#000000" stroke="#000000" points="148.3634,-281.0837 157.0727,-282.1365 152.1817,-279.8919 156,-278.7 156,-278.7 156,-278.7 152.1817,-279.8919 154.9273,-275.2635 148.3634,-281.0837 148.3634,-281.0837"/>
<ellipse fill="none" stroke="#000000" cx="145.3087" cy="-282.0372" rx="3.2" ry="3.2"/>
</g>
<!-- events -->
<g id="node3" class="node">
<title>events</title>
<g id="a_node3"><a xlink:href="../../tables/events.html" xlink:title="events" target="_top">
<polygon fill="#ffffff" stroke="transparent" points="438,-186.2 438,-313.2 536,-313.2 536,-186.2 438,-186.2"/>
<polygon fill="#f5f5f5" stroke="transparent" points="438,-289.7 438,-312.7 536,-312.7 536,-289.7 438,-289.7"/>
<polygon fill="none" stroke="#000000" points="438,-289.7 438,-312.7 536,-312.7 536,-289.7 438,-289.7"/>
<text text-anchor="start" x="443" y="-298.8" font-family="Helvetica,sans-Serif" font-weight="bold" font-size="11.00" fill="#000000">events</text>
<text text-anchor="start" x="501.0437" y="-297.8" font-family="Helvetica,sans-Serif" font-size="11.00" fill="#000000">[table]</text>
<polygon fill="none" stroke="#000000" points="438,-267.7 438,-289.7 536,-289.7 536,-267.7 438,-267.7"/>
<image xlink:href="../../images/primaryKeys.png" width="11px" height="12px" preserveAspectRatio="xMinYMin meet" x="443" y="-284.7"/>
<text text-anchor="start" x="458" y="-274.8" font-family="Helvetica,sans-Serif" font-size="11.00" fill="#000000">id</text>
<polygon fill="none" stroke="#000000" points="438,-245.7 438,-267.7 536,-267.7 536,-245.7 438,-245.7"/>
<image xlink:href="../../images/foreignKeys.png" width="11px" height="12px" preserveAspectRatio="xMinYMin meet" x="443" y="-262.7"/>
<text text-anchor="start" x="458" y="-252.8" font-family="Helvetica,sans-Serif" font-size="11.00" fill="#000000">venue_id</text>
<polygon fill="none" stroke="#000000" points="438,-223.7 438,-245.7 536,-245.7 536,-223.7 438,-223.7"/>
<image xlink:href="../../images/foreignKeys.png" width="11px" height="12px" preserveAspectRatio="xMinYMin meet" x="443" y="-240.7"/>
<text text-anchor="start" x="458" y="-230.8" font-family="Helvetica,sans-Serif" font-size="11.00" fill="#000000">chapter_id</text>
<polygon fill="none" stroke="#000000" points="438,-204.7 438,-223.7 536,-223.7 536,-204.7 438,-204.7"/>
<text text-anchor="start" x="441" y="-210.8" font-family="Helvetica,sans-Serif" font-size="11.00" fill="#000000">...</text>
<polygon fill="#ffffff" stroke="transparent" points="438,-185.7 438,-204.7 468,-204.7 468,-185.7 438,-185.7"/>
<polygon fill="none" stroke="#000000" points="438,-185.7 438,-204.7 468,-204.7 468,-185.7 438,-185.7"/>
<text text-anchor="start" x="441" y="-191.8" font-family="Helvetica,sans-Serif" font-size="11.00" fill="#000000">&lt; 2</text>
<polygon fill="#ffffff" stroke="transparent" points="468,-185.7 468,-204.7 510,-204.7 510,-185.7 468,-185.7"/>
<polygon fill="none" stroke="#000000" points="468,-185.7 468,-204.7 510,-204.7 510,-185.7 468,-185.7"/>
<text text-anchor="start" x="474.6105" y="-191.8" font-family="Helvetica,sans-Serif" font-size="11.00" fill="#000000">4 rows</text>
<polygon fill="#ffffff" stroke="transparent" points="510,-185.7 510,-204.7 536,-204.7 536,-185.7 510,-185.7"/>
<polygon fill="none" stroke="#000000" points="510,-185.7 510,-204.7 536,-204.7 536,-185.7 510,-185.7"/>
<text text-anchor="start" x="517.4053" y="-191.8" font-family="Helvetica,sans-Serif" font-size="11.00" fill="#000000">3 &gt;</text>
</a>
</g>
</g>
<!-- events&#45;&gt;chapters -->
<g id="edge2" class="edge">
<title>events:w&#45;&gt;chapters:e</title>
<path fill="none" stroke="#000000" d="M423.7341,-236.9965C371.9541,-256.1536 432.8098,-388.7 362,-388.7"/>
<polygon fill="#000000" stroke="#000000" points="430.1017,-235.9715 438.5722,-238.2542 434.0508,-235.3357 438,-234.7 438,-234.7 438,-234.7 434.0508,-235.3357 437.4278,-231.1458 430.1017,-235.9715 430.1017,-235.9715"/>
<ellipse fill="none" stroke="#000000" cx="426.9424" cy="-236.4801" rx="3.2" ry="3.2"/>
</g>
<!-- user_bans -->
<g id="node4" class="node">
<title>user_bans</title>
<g id="a_node4"><a xlink:href="../../tables/user_bans.html" xlink:title="user_bans" target="_top">
<polygon fill="#ffffff" stroke="transparent" points="438.5,-504.2 438.5,-631.2 535.5,-631.2 535.5,-504.2 438.5,-504.2"/>
<polygon fill="#f5f5f5" stroke="transparent" points="439,-607.7 439,-630.7 536,-630.7 536,-607.7 439,-607.7"/>
<polygon fill="none" stroke="#000000" points="439,-607.7 439,-630.7 536,-630.7 536,-607.7 439,-607.7"/>
<text text-anchor="start" x="444" y="-616.8" font-family="Helvetica,sans-Serif" font-weight="bold" font-size="11.00" fill="#000000">user_bans</text>
<text text-anchor="start" x="501.0437" y="-615.8" font-family="Helvetica,sans-Serif" font-size="11.00" fill="#000000">[table]</text>
<polygon fill="none" stroke="#000000" points="439,-585.7 439,-607.7 536,-607.7 536,-585.7 439,-585.7"/>
<image xlink:href="../../images/primaryKeys.png" width="11px" height="12px" preserveAspectRatio="xMinYMin meet" x="444" y="-602.7"/>
<text text-anchor="start" x="459" y="-592.8" font-family="Helvetica,sans-Serif" font-size="11.00" fill="#000000">id</text>
<polygon fill="none" stroke="#000000" points="439,-563.7 439,-585.7 536,-585.7 536,-563.7 439,-563.7"/>
<image xlink:href="../../images/foreignKeys.png" width="11px" height="12px" preserveAspectRatio="xMinYMin meet" x="444" y="-580.7"/>
<text text-anchor="start" x="459" y="-570.8" font-family="Helvetica,sans-Serif" font-size="11.00" fill="#000000">user_id</text>
<polygon fill="none" stroke="#000000" points="439,-541.7 439,-563.7 536,-563.7 536,-541.7 439,-541.7"/>
<image xlink:href="../../images/foreignKeys.png" width="11px" height="12px" preserveAspectRatio="xMinYMin meet" x="444" y="-558.7"/>
<text text-anchor="start" x="459" y="-548.8" font-family="Helvetica,sans-Serif" font-size="11.00" fill="#000000">chapter_id</text>
<polygon fill="none" stroke="#000000" points="439,-522.7 439,-541.7 536,-541.7 536,-522.7 439,-522.7"/>
<text text-anchor="start" x="442" y="-528.8" font-family="Helvetica,sans-Serif" font-size="11.00" fill="#000000">...</text>
<polygon fill="#ffffff" stroke="transparent" points="439,-503.7 439,-522.7 473,-522.7 473,-503.7 439,-503.7"/>
<polygon fill="none" stroke="#000000" points="439,-503.7 439,-522.7 473,-522.7 473,-503.7 439,-503.7"/>
<text text-anchor="start" x="442" y="-509.8" font-family="Helvetica,sans-Serif" font-size="11.00" fill="#000000">&lt; 2</text>
<polygon fill="#ffffff" stroke="transparent" points="473,-503.7 473,-522.7 517,-522.7 517,-503.7 473,-503.7"/>
<polygon fill="none" stroke="#000000" points="473,-503.7 473,-522.7 517,-522.7 517,-503.7 473,-503.7"/>
<text text-anchor="start" x="481.6105" y="-509.8" font-family="Helvetica,sans-Serif" font-size="11.00" fill="#000000">0 rows</text>
<polygon fill="#ffffff" stroke="transparent" points="517,-503.7 517,-522.7 536,-522.7 536,-503.7 517,-503.7"/>
<polygon fill="none" stroke="#000000" points="517,-503.7 517,-522.7 536,-522.7 536,-503.7 517,-503.7"/>
<text text-anchor="start" x="526.8862" y="-509.8" font-family="Helvetica,sans-Serif" font-size="11.00" fill="#000000"> &#160;</text>
</a>
</g>
</g>
<!-- user_bans&#45;&gt;chapters -->
<g id="edge3" class="edge">
<title>user_bans:w&#45;&gt;chapters:e</title>
<path fill="none" stroke="#000000" d="M424.6885,-550.5057C369.1986,-531.0445 437.0185,-388.7 362,-388.7"/>
<polygon fill="#000000" stroke="#000000" points="431.0924,-551.4875 438.4544,-556.2584 435.0462,-552.0938 439,-552.7 439,-552.7 439,-552.7 435.0462,-552.0938 439.5456,-549.1416 431.0924,-551.4875 431.0924,-551.4875"/>
<ellipse fill="none" stroke="#000000" cx="427.9294" cy="-551.0025" rx="3.2" ry="3.2"/>
</g>
<!-- user_bans&#45;&gt;users -->
<g id="edge4" class="edge">
<title>user_bans:w&#45;&gt;users:e</title>
<path fill="none" stroke="#000000" d="M424.5775,-574.6363C295.4656,-573.4458 242.4907,-554.8582 146,-460.7 112.5638,-428.072 152.218,-363.7 105.5,-363.7"/>
<polygon fill="#000000" stroke="#000000" points="431.0001,-574.6646 438.9841,-578.3 435,-574.6823 439,-574.7 439,-574.7 439,-574.7 435,-574.6823 439.0159,-571.1 431.0001,-574.6646 431.0001,-574.6646"/>
<ellipse fill="none" stroke="#000000" cx="427.8001" cy="-574.6505" rx="3.2" ry="3.2"/>
</g>
<!-- user_chapter_roles -->
<g id="node5" class="node">
<title>user_chapter_roles</title>
<g id="a_node5"><a xlink:href="../../tables/user_chapter_roles.html" xlink:title="user_chapter_roles" target="_top">
<polygon fill="#ffffff" stroke="transparent" points="413,-334.2 413,-483.2 561,-483.2 561,-334.2 413,-334.2"/>
<polygon fill="#f5f5f5" stroke="transparent" points="413,-459.7 413,-482.7 561,-482.7 561,-459.7 413,-459.7"/>
<polygon fill="none" stroke="#000000" points="413,-459.7 413,-482.7 561,-482.7 561,-459.7 413,-459.7"/>
<text text-anchor="start" x="418" y="-468.8" font-family="Helvetica,sans-Serif" font-weight="bold" font-size="11.00" fill="#000000">user_chapter_roles</text>
<text text-anchor="start" x="526.0437" y="-467.8" font-family="Helvetica,sans-Serif" font-size="11.00" fill="#000000">[table]</text>
<polygon fill="none" stroke="#000000" points="413,-437.7 413,-459.7 561,-459.7 561,-437.7 413,-437.7"/>
<image xlink:href="../../images/primaryKeys.png" width="11px" height="12px" preserveAspectRatio="xMinYMin meet" x="418" y="-454.7"/>
<text text-anchor="start" x="433" y="-444.8" font-family="Helvetica,sans-Serif" font-size="11.00" fill="#000000">user_id</text>
<polygon fill="none" stroke="#000000" points="413,-415.7 413,-437.7 561,-437.7 561,-415.7 413,-415.7"/>
<image xlink:href="../../images/primaryKeys.png" width="11px" height="12px" preserveAspectRatio="xMinYMin meet" x="418" y="-432.7"/>
<text text-anchor="start" x="433" y="-422.8" font-family="Helvetica,sans-Serif" font-size="11.00" fill="#000000">chapter_id</text>
<polygon fill="none" stroke="#000000" points="413,-393.7 413,-415.7 561,-415.7 561,-393.7 413,-393.7"/>
<image xlink:href="../../images/primaryKeys.png" width="11px" height="12px" preserveAspectRatio="xMinYMin meet" x="418" y="-410.7"/>
<text text-anchor="start" x="433" y="-400.8" font-family="Helvetica,sans-Serif" font-size="11.00" fill="#000000">id</text>
<polygon fill="none" stroke="#000000" points="413,-371.7 413,-393.7 561,-393.7 561,-371.7 413,-371.7"/>
<image xlink:href="../../images/primaryKeys.png" width="11px" height="12px" preserveAspectRatio="xMinYMin meet" x="418" y="-388.7"/>
<text text-anchor="start" x="433" y="-378.8" font-family="Helvetica,sans-Serif" font-size="11.00" fill="#000000">role_name</text>
<polygon fill="none" stroke="#000000" points="413,-352.7 413,-371.7 561,-371.7 561,-352.7 413,-352.7"/>
<text text-anchor="start" x="416" y="-358.8" font-family="Helvetica,sans-Serif" font-size="11.00" fill="#000000">...</text>
<polygon fill="#ffffff" stroke="transparent" points="413,-333.7 413,-352.7 472,-352.7 472,-333.7 413,-333.7"/>
<polygon fill="none" stroke="#000000" points="413,-333.7 413,-352.7 472,-352.7 472,-333.7 413,-333.7"/>
<text text-anchor="start" x="416" y="-339.8" font-family="Helvetica,sans-Serif" font-size="11.00" fill="#000000">&lt; 2</text>
<polygon fill="#ffffff" stroke="transparent" points="472,-333.7 472,-352.7 529,-352.7 529,-333.7 472,-333.7"/>
<polygon fill="none" stroke="#000000" points="472,-333.7 472,-352.7 529,-352.7 529,-333.7 472,-333.7"/>
<text text-anchor="start" x="493.6105" y="-339.8" font-family="Helvetica,sans-Serif" font-size="11.00" fill="#000000">0 rows</text>
<polygon fill="#ffffff" stroke="transparent" points="529,-333.7 529,-352.7 561,-352.7 561,-333.7 529,-333.7"/>
<polygon fill="none" stroke="#000000" points="529,-333.7 529,-352.7 561,-352.7 561,-333.7 529,-333.7"/>
<text text-anchor="start" x="551.8862" y="-339.8" font-family="Helvetica,sans-Serif" font-size="11.00" fill="#000000"> &#160;</text>
</a>
</g>
</g>
<!-- user_chapter_roles&#45;&gt;chapters -->
<g id="edge5" class="edge">
<title>user_chapter_roles:w&#45;&gt;chapters:e</title>
<path fill="none" stroke="#000000" d="M398.9897,-422.3409C385.5637,-412.3595 384.3043,-388.7 362,-388.7"/>
<polygon fill="#000000" stroke="#000000" points="405.3612,-424.3233 411.9305,-430.1375 409.1806,-425.5116 413,-426.7 413,-426.7 413,-426.7 409.1806,-425.5116 414.0695,-423.2625 405.3612,-424.3233 405.3612,-424.3233"/>
<ellipse fill="none" stroke="#000000" cx="402.3057" cy="-423.3726" rx="3.2" ry="3.2"/>
</g>
<!-- user_chapter_roles&#45;&gt;users -->
<g id="edge6" class="edge">
<title>user_chapter_roles:w&#45;&gt;users:e</title>
<path fill="none" stroke="#000000" d="M398.403,-448.9497C290.1398,-452.6562 242.8223,-495.5334 146,-435.7 114.7674,-416.3991 142.2151,-363.7 105.5,-363.7"/>
<polygon fill="#000000" stroke="#000000" points="405.0012,-448.8369 413.0616,-452.2995 409.0006,-448.7684 413,-448.7 413,-448.7 413,-448.7 409.0006,-448.7684 412.9384,-445.1005 405.0012,-448.8369 405.0012,-448.8369"/>
<ellipse fill="none" stroke="#000000" cx="401.8016" cy="-448.8916" rx="3.2" ry="3.2"/>
</g>
<!-- user_chapters -->
<g id="node6" class="node">
<title>user_chapters</title>
<g id="a_node6"><a xlink:href="../../tables/user_chapters.html" xlink:title="user_chapters" target="_top">
<polygon fill="#ffffff" stroke="transparent" points="429,-38.2 429,-165.2 545,-165.2 545,-38.2 429,-38.2"/>
<polygon fill="#f5f5f5" stroke="transparent" points="429,-141.7 429,-164.7 545,-164.7 545,-141.7 429,-141.7"/>
<polygon fill="none" stroke="#000000" points="429,-141.7 429,-164.7 545,-164.7 545,-141.7 429,-141.7"/>
<text text-anchor="start" x="434" y="-150.8" font-family="Helvetica,sans-Serif" font-weight="bold" font-size="11.00" fill="#000000">user_chapters</text>
<text text-anchor="start" x="510.0437" y="-149.8" font-family="Helvetica,sans-Serif" font-size="11.00" fill="#000000">[table]</text>
<polygon fill="none" stroke="#000000" points="429,-119.7 429,-141.7 545,-141.7 545,-119.7 429,-119.7"/>
<image xlink:href="../../images/primaryKeys.png" width="11px" height="12px" preserveAspectRatio="xMinYMin meet" x="434" y="-136.7"/>
<text text-anchor="start" x="449" y="-126.8" font-family="Helvetica,sans-Serif" font-size="11.00" fill="#000000">id</text>
<polygon fill="none" stroke="#000000" points="429,-97.7 429,-119.7 545,-119.7 545,-97.7 429,-97.7"/>
<image xlink:href="../../images/foreignKeys.png" width="11px" height="12px" preserveAspectRatio="xMinYMin meet" x="434" y="-114.7"/>
<text text-anchor="start" x="449" y="-104.8" font-family="Helvetica,sans-Serif" font-size="11.00" fill="#000000">user_id</text>
<polygon fill="none" stroke="#000000" points="429,-75.7 429,-97.7 545,-97.7 545,-75.7 429,-75.7"/>
<image xlink:href="../../images/foreignKeys.png" width="11px" height="12px" preserveAspectRatio="xMinYMin meet" x="434" y="-92.7"/>
<text text-anchor="start" x="449" y="-82.8" font-family="Helvetica,sans-Serif" font-size="11.00" fill="#000000">chapter_id</text>
<polygon fill="none" stroke="#000000" points="429,-56.7 429,-75.7 545,-75.7 545,-56.7 429,-56.7"/>
<text text-anchor="start" x="432" y="-62.8" font-family="Helvetica,sans-Serif" font-size="11.00" fill="#000000">...</text>
<polygon fill="#ffffff" stroke="transparent" points="429,-37.7 429,-56.7 472,-56.7 472,-37.7 429,-37.7"/>
<polygon fill="none" stroke="#000000" points="429,-37.7 429,-56.7 472,-56.7 472,-37.7 429,-37.7"/>
<text text-anchor="start" x="432" y="-43.8" font-family="Helvetica,sans-Serif" font-size="11.00" fill="#000000">&lt; 2</text>
<polygon fill="#ffffff" stroke="transparent" points="472,-37.7 472,-56.7 521,-56.7 521,-37.7 472,-37.7"/>
<polygon fill="none" stroke="#000000" points="472,-37.7 472,-56.7 521,-56.7 521,-37.7 472,-37.7"/>
<text text-anchor="start" x="485.6105" y="-43.8" font-family="Helvetica,sans-Serif" font-size="11.00" fill="#000000">0 rows</text>
<polygon fill="#ffffff" stroke="transparent" points="521,-37.7 521,-56.7 545,-56.7 545,-37.7 521,-37.7"/>
<polygon fill="none" stroke="#000000" points="521,-37.7 521,-56.7 545,-56.7 545,-37.7 521,-37.7"/>
<text text-anchor="start" x="535.8862" y="-43.8" font-family="Helvetica,sans-Serif" font-size="11.00" fill="#000000"> &#160;</text>
</a>
</g>
</g>
<!-- user_chapters&#45;&gt;chapters -->
<g id="edge7" class="edge">
<title>user_chapters:w&#45;&gt;chapters:e</title>
<path fill="none" stroke="#000000" d="M415.305,-91.9418C370.4208,-132.0442 425.3723,-388.7 362,-388.7"/>
<polygon fill="#000000" stroke="#000000" points="421.5286,-89.5597 430.2869,-90.0621 425.2643,-88.1299 429,-86.7 429,-86.7 429,-86.7 425.2643,-88.1299 427.7131,-83.3379 421.5286,-89.5597 421.5286,-89.5597"/>
<ellipse fill="none" stroke="#000000" cx="418.54" cy="-90.7036" rx="3.2" ry="3.2"/>
</g>
<!-- user_chapters&#45;&gt;users -->
<g id="edge8" class="edge">
<title>user_chapters:w&#45;&gt;users:e</title>
<path fill="none" stroke="#000000" d="M414.5124,-108.4095C297.979,-103.7513 236.0424,-45.708 146,-126.7 106.2756,-162.4316 158.9301,-363.7 105.5,-363.7"/>
<polygon fill="#000000" stroke="#000000" points="421.0016,-108.5396 428.9278,-112.2993 425.0008,-108.6198 429,-108.7 429,-108.7 429,-108.7 425.0008,-108.6198 429.0722,-105.1007 421.0016,-108.5396 421.0016,-108.5396"/>
<ellipse fill="none" stroke="#000000" cx="417.8023" cy="-108.4754" rx="3.2" ry="3.2"/>
</g>
</g>
</svg>
