<?xml version="1.0" encoding="UTF-8" standalone="no"?>
<!DOCTYPE svg PUBLIC "-//W3C//DTD SVG 1.1//EN"
 "http://www.w3.org/Graphics/SVG/1.1/DTD/svg11.dtd">
<!-- Generated by graphviz version 2.40.1 (20161225.0304)
 -->
<!-- Title: twoDegreesRelationshipsDiagram Pages: 1 -->
<svg width="722pt" height="620pt"
 viewBox="0.00 0.00 722.00 619.70" xmlns="http://www.w3.org/2000/svg" xmlns:xlink="http://www.w3.org/1999/xlink">
<g id="graph0" class="graph" transform="scale(1 1) rotate(0) translate(4 615.7)">
<title>twoDegreesRelationshipsDiagram</title>
<polygon fill="#ffffff" stroke="transparent" points="-4,4 -4,-615.7 718,-615.7 718,4 -4,4"/>
<text text-anchor="middle" x="72.4936" y="-7.3" font-family="Helvetica,sans-Serif" font-size="11.00" fill="#000000">Generated by SchemaSpy</text>
<!-- chapter_tags -->
<g id="node1" class="node">
<title>chapter_tags</title>
<g id="a_node1"><a xlink:href="../../tables/chapter_tags.html" xlink:title="chapter_tags" target="_top">
<polygon fill="#ffffff" stroke="transparent" points="411,-99.7 411,-204.7 526,-204.7 526,-99.7 411,-99.7"/>
<polygon fill="#f5f5f5" stroke="transparent" points="411.5,-181.2 411.5,-204.2 526.5,-204.2 526.5,-181.2 411.5,-181.2"/>
<polygon fill="none" stroke="#000000" points="411.5,-181.2 411.5,-204.2 526.5,-204.2 526.5,-181.2 411.5,-181.2"/>
<text text-anchor="start" x="416.5" y="-189.8" font-family="Helvetica,sans-Serif" font-weight="bold" font-size="11.00" fill="#000000">chapter_tags</text>
<text text-anchor="start" x="492.0219" y="-189.3" font-family="Helvetica,sans-Serif" font-size="11.00" fill="#000000">[table]</text>
<polygon fill="none" stroke="#000000" points="411.5,-159.2 411.5,-181.2 526.5,-181.2 526.5,-159.2 411.5,-159.2"/>
<image xlink:href="../../images/primaryKeys.png" width="11px" height="12px" preserveAspectRatio="xMinYMin meet" x="416.5" y="-176.2"/>
<text text-anchor="start" x="440.5" y="-166.3" font-family="Helvetica,sans-Serif" font-size="11.00" fill="#000000">chapter_id</text>
<polygon fill="none" stroke="#000000" points="411.5,-137.2 411.5,-159.2 526.5,-159.2 526.5,-137.2 411.5,-137.2"/>
<image xlink:href="../../images/primaryKeys.png" width="11px" height="12px" preserveAspectRatio="xMinYMin meet" x="416.5" y="-154.2"/>
<text text-anchor="start" x="440.5" y="-144.3" font-family="Helvetica,sans-Serif" font-size="11.00" fill="#000000">tag_id</text>
<polygon fill="none" stroke="#000000" points="411.5,-118.2 411.5,-137.2 526.5,-137.2 526.5,-118.2 411.5,-118.2"/>
<text text-anchor="start" x="414.5" y="-124.3" font-family="Helvetica,sans-Serif" font-size="11.00" fill="#000000">...</text>
<polygon fill="#ffffff" stroke="transparent" points="411.5,-99.2 411.5,-118.2 454.5,-118.2 454.5,-99.2 411.5,-99.2"/>
<polygon fill="none" stroke="#000000" points="411.5,-99.2 411.5,-118.2 454.5,-118.2 454.5,-99.2 411.5,-99.2"/>
<text text-anchor="start" x="414.5" y="-105.3" font-family="Helvetica,sans-Serif" font-size="11.00" fill="#000000">&lt; 2</text>
<polygon fill="#ffffff" stroke="transparent" points="454.5,-99.2 454.5,-118.2 503.5,-118.2 503.5,-99.2 454.5,-99.2"/>
<polygon fill="none" stroke="#000000" points="454.5,-99.2 454.5,-118.2 503.5,-118.2 503.5,-99.2 454.5,-99.2"/>
<text text-anchor="start" x="468.1105" y="-105.3" font-family="Helvetica,sans-Serif" font-size="11.00" fill="#000000">0 rows</text>
<polygon fill="#ffffff" stroke="transparent" points="503.5,-99.2 503.5,-118.2 526.5,-118.2 526.5,-99.2 503.5,-99.2"/>
<polygon fill="none" stroke="#000000" points="503.5,-99.2 503.5,-118.2 526.5,-118.2 526.5,-99.2 503.5,-99.2"/>
<text text-anchor="start" x="517.3862" y="-105.3" font-family="Helvetica,sans-Serif" font-size="11.00" fill="#000000"> &#160;</text>
</a>
</g>
</g>
<!-- chapters -->
<g id="node2" class="node">
<title>chapters</title>
<g id="a_node2"><a xlink:href="../../tables/chapters.html" xlink:title="chapters" target="_top">
<polygon fill="#ffffff" stroke="transparent" points="8,-38.2 8,-392.2 191,-392.2 191,-38.2 8,-38.2"/>
<polygon fill="#f5f5f5" stroke="transparent" points="10.5,-367.2 10.5,-390.2 189.5,-390.2 189.5,-367.2 10.5,-367.2"/>
<polygon fill="none" stroke="#000000" points="10.5,-367.2 10.5,-390.2 189.5,-390.2 189.5,-367.2 10.5,-367.2"/>
<text text-anchor="start" x="15.5" y="-375.8" font-family="Helvetica,sans-Serif" font-weight="bold" font-size="11.00" fill="#000000">chapters</text>
<text text-anchor="start" x="154.5437" y="-375.3" font-family="Helvetica,sans-Serif" font-size="11.00" fill="#000000">[table]</text>
<polygon fill="none" stroke="#000000" points="10.5,-345.2 10.5,-367.2 99.5,-367.2 99.5,-345.2 10.5,-345.2"/>
<text text-anchor="start" x="30.5" y="-352.3" font-family="Helvetica,sans-Serif" font-size="11.00" fill="#000000">created_at</text>
<polygon fill="none" stroke="#000000" points="99.5,-345.2 99.5,-367.2 189.5,-367.2 189.5,-345.2 99.5,-345.2"/>
<text text-anchor="start" x="102.5" y="-352.9" font-family="Helvetica,sans-Serif" font-size="11.00" fill="#000000">timestamp[26,3]</text>
<polygon fill="none" stroke="#000000" points="10.5,-323.2 10.5,-345.2 99.5,-345.2 99.5,-323.2 10.5,-323.2"/>
<text text-anchor="start" x="30.5" y="-330.3" font-family="Helvetica,sans-Serif" font-size="11.00" fill="#000000">updated_at</text>
<polygon fill="none" stroke="#000000" points="99.5,-323.2 99.5,-345.2 189.5,-345.2 189.5,-323.2 99.5,-323.2"/>
<text text-anchor="start" x="102.5" y="-330.9" font-family="Helvetica,sans-Serif" font-size="11.00" fill="#000000">timestamp[26,3]</text>
<polygon fill="none" stroke="#000000" points="10.5,-301.2 10.5,-323.2 99.5,-323.2 99.5,-301.2 10.5,-301.2"/>
<image xlink:href="../../images/primaryKeys.png" width="11px" height="12px" preserveAspectRatio="xMinYMin meet" x="15.5" y="-318.2"/>
<text text-anchor="start" x="30.5" y="-308.3" font-family="Helvetica,sans-Serif" font-size="11.00" fill="#000000">id</text>
<polygon fill="none" stroke="#000000" points="99.5,-301.2 99.5,-323.2 189.5,-323.2 189.5,-301.2 99.5,-301.2"/>
<text text-anchor="start" x="102.5" y="-308.9" font-family="Helvetica,sans-Serif" font-size="11.00" fill="#000000">serial[10]</text>
<polygon fill="none" stroke="#000000" points="10.5,-279.2 10.5,-301.2 99.5,-301.2 99.5,-279.2 10.5,-279.2"/>
<text text-anchor="start" x="30.5" y="-286.3" font-family="Helvetica,sans-Serif" font-size="11.00" fill="#000000">name</text>
<polygon fill="none" stroke="#000000" points="99.5,-279.2 99.5,-301.2 189.5,-301.2 189.5,-279.2 99.5,-279.2"/>
<text text-anchor="start" x="102.0042" y="-286.9" font-family="Helvetica,sans-Serif" font-size="11.00" fill="#000000">text[2147483647]</text>
<polygon fill="none" stroke="#000000" points="10.5,-257.2 10.5,-279.2 99.5,-279.2 99.5,-257.2 10.5,-257.2"/>
<text text-anchor="start" x="30.5" y="-264.3" font-family="Helvetica,sans-Serif" font-size="11.00" fill="#000000">description</text>
<polygon fill="none" stroke="#000000" points="99.5,-257.2 99.5,-279.2 189.5,-279.2 189.5,-257.2 99.5,-257.2"/>
<text text-anchor="start" x="102.0042" y="-264.9" font-family="Helvetica,sans-Serif" font-size="11.00" fill="#000000">text[2147483647]</text>
<polygon fill="none" stroke="#000000" points="10.5,-235.2 10.5,-257.2 99.5,-257.2 99.5,-235.2 10.5,-235.2"/>
<text text-anchor="start" x="30.5" y="-242.3" font-family="Helvetica,sans-Serif" font-size="11.00" fill="#000000">category</text>
<polygon fill="none" stroke="#000000" points="99.5,-235.2 99.5,-257.2 189.5,-257.2 189.5,-235.2 99.5,-235.2"/>
<text text-anchor="start" x="102.0042" y="-242.9" font-family="Helvetica,sans-Serif" font-size="11.00" fill="#000000">text[2147483647]</text>
<polygon fill="none" stroke="#000000" points="10.5,-213.2 10.5,-235.2 99.5,-235.2 99.5,-213.2 10.5,-213.2"/>
<text text-anchor="start" x="30.5" y="-220.3" font-family="Helvetica,sans-Serif" font-size="11.00" fill="#000000">city</text>
<polygon fill="none" stroke="#000000" points="99.5,-213.2 99.5,-235.2 189.5,-235.2 189.5,-213.2 99.5,-213.2"/>
<text text-anchor="start" x="102.0042" y="-220.9" font-family="Helvetica,sans-Serif" font-size="11.00" fill="#000000">text[2147483647]</text>
<polygon fill="none" stroke="#000000" points="10.5,-191.2 10.5,-213.2 99.5,-213.2 99.5,-191.2 10.5,-191.2"/>
<text text-anchor="start" x="30.5" y="-198.3" font-family="Helvetica,sans-Serif" font-size="11.00" fill="#000000">region</text>
<polygon fill="none" stroke="#000000" points="99.5,-191.2 99.5,-213.2 189.5,-213.2 189.5,-191.2 99.5,-191.2"/>
<text text-anchor="start" x="102.0042" y="-198.9" font-family="Helvetica,sans-Serif" font-size="11.00" fill="#000000">text[2147483647]</text>
<polygon fill="none" stroke="#000000" points="10.5,-169.2 10.5,-191.2 99.5,-191.2 99.5,-169.2 10.5,-169.2"/>
<text text-anchor="start" x="30.5" y="-176.3" font-family="Helvetica,sans-Serif" font-size="11.00" fill="#000000">country</text>
<polygon fill="none" stroke="#000000" points="99.5,-169.2 99.5,-191.2 189.5,-191.2 189.5,-169.2 99.5,-169.2"/>
<text text-anchor="start" x="102.0042" y="-176.9" font-family="Helvetica,sans-Serif" font-size="11.00" fill="#000000">text[2147483647]</text>
<polygon fill="none" stroke="#000000" points="10.5,-147.2 10.5,-169.2 99.5,-169.2 99.5,-147.2 10.5,-147.2"/>
<text text-anchor="start" x="30.5" y="-154.3" font-family="Helvetica,sans-Serif" font-size="11.00" fill="#000000">banner_url</text>
<polygon fill="none" stroke="#000000" points="99.5,-147.2 99.5,-169.2 189.5,-169.2 189.5,-147.2 99.5,-147.2"/>
<text text-anchor="start" x="102.0042" y="-154.9" font-family="Helvetica,sans-Serif" font-size="11.00" fill="#000000">text[2147483647]</text>
<polygon fill="none" stroke="#000000" points="10.5,-125.2 10.5,-147.2 99.5,-147.2 99.5,-125.2 10.5,-125.2"/>
<text text-anchor="start" x="30.5" y="-132.3" font-family="Helvetica,sans-Serif" font-size="11.00" fill="#000000">calendar_id</text>
<polygon fill="none" stroke="#000000" points="99.5,-125.2 99.5,-147.2 189.5,-147.2 189.5,-125.2 99.5,-125.2"/>
<text text-anchor="start" x="102.0042" y="-132.9" font-family="Helvetica,sans-Serif" font-size="11.00" fill="#000000">text[2147483647]</text>
<polygon fill="none" stroke="#000000" points="10.5,-103.2 10.5,-125.2 99.5,-125.2 99.5,-103.2 10.5,-103.2"/>
<text text-anchor="start" x="30.5" y="-110.3" font-family="Helvetica,sans-Serif" font-size="11.00" fill="#000000">chat_url</text>
<polygon fill="none" stroke="#000000" points="99.5,-103.2 99.5,-125.2 189.5,-125.2 189.5,-103.2 99.5,-103.2"/>
<text text-anchor="start" x="102.0042" y="-110.9" font-family="Helvetica,sans-Serif" font-size="11.00" fill="#000000">text[2147483647]</text>
<polygon fill="none" stroke="#000000" points="10.5,-81.2 10.5,-103.2 99.5,-103.2 99.5,-81.2 10.5,-81.2"/>
<text text-anchor="start" x="30.5" y="-88.3" font-family="Helvetica,sans-Serif" font-size="11.00" fill="#000000">creator_id</text>
<polygon fill="none" stroke="#000000" points="99.5,-81.2 99.5,-103.2 189.5,-103.2 189.5,-81.2 99.5,-81.2"/>
<text text-anchor="start" x="102.5" y="-88.9" font-family="Helvetica,sans-Serif" font-size="11.00" fill="#000000">int4[10]</text>
<polygon fill="none" stroke="#000000" points="10.5,-59.2 10.5,-81.2 99.5,-81.2 99.5,-59.2 10.5,-59.2"/>
<text text-anchor="start" x="30.5" y="-66.3" font-family="Helvetica,sans-Serif" font-size="11.00" fill="#000000">logo_url</text>
<polygon fill="none" stroke="#000000" points="99.5,-59.2 99.5,-81.2 189.5,-81.2 189.5,-59.2 99.5,-59.2"/>
<text text-anchor="start" x="102.0042" y="-66.9" font-family="Helvetica,sans-Serif" font-size="11.00" fill="#000000">text[2147483647]</text>
<polygon fill="#ffffff" stroke="transparent" points="10.5,-40.2 10.5,-59.2 46.5,-59.2 46.5,-40.2 10.5,-40.2"/>
<polygon fill="none" stroke="#000000" points="10.5,-40.2 10.5,-59.2 46.5,-59.2 46.5,-40.2 10.5,-40.2"/>
<text text-anchor="start" x="13.5" y="-46.3" font-family="Helvetica,sans-Serif" font-size="11.00" fill="#000000">&lt; 0</text>
<polygon fill="#ffffff" stroke="transparent" points="46.5,-40.2 46.5,-59.2 99.5,-59.2 99.5,-40.2 46.5,-40.2"/>
<polygon fill="none" stroke="#000000" points="46.5,-40.2 46.5,-59.2 99.5,-59.2 99.5,-40.2 46.5,-40.2"/>
<text text-anchor="start" x="64.1105" y="-46.3" font-family="Helvetica,sans-Serif" font-size="11.00" fill="#000000">0 rows</text>
<polygon fill="#ffffff" stroke="transparent" points="99.5,-40.2 99.5,-59.2 189.5,-59.2 189.5,-40.2 99.5,-40.2"/>
<polygon fill="none" stroke="#000000" points="99.5,-40.2 99.5,-59.2 189.5,-59.2 189.5,-40.2 99.5,-40.2"/>
<text text-anchor="start" x="170.9053" y="-46.3" font-family="Helvetica,sans-Serif" font-size="11.00" fill="#000000">5 &gt;</text>
<polygon fill="none" stroke="#000000" stroke-width="2" points="9,-39.2 9,-391.2 190,-391.2 190,-39.2 9,-39.2"/>
</a>
</g>
</g>
<!-- chapter_tags&#45;&gt;chapters -->
<g id="edge1" class="edge">
<title>chapter_tags:w&#45;&gt;chapters:e</title>
<path fill="none" stroke="#000000" d="M397.1192,-173.0267C388.4698,-176.942 383.3351,-184.006 370,-188.2 310.2999,-206.9762 280.7767,-176.9894 232,-216.2 195.6329,-245.4347 236.1608,-312.2 189.5,-312.2"/>
<polygon fill="#000000" stroke="#000000" points="403.6502,-171.743 412.1944,-173.7324 407.5751,-170.9715 411.5,-170.2 411.5,-170.2 411.5,-170.2 407.5751,-170.9715 410.8056,-166.6676 403.6502,-171.743 403.6502,-171.743"/>
<ellipse fill="none" stroke="#000000" cx="400.5103" cy="-172.3602" rx="3.2" ry="3.2"/>
</g>
<!-- tags -->
<g id="node3" class="node">
<title>tags</title>
<g id="a_node3"><a xlink:href="../../tables/tags.html" xlink:title="tags" target="_top">
<polygon fill="#ffffff" stroke="transparent" points="265.5,-116.7 265.5,-177.7 336.5,-177.7 336.5,-116.7 265.5,-116.7"/>
<polygon fill="#f5f5f5" stroke="transparent" points="266,-154.2 266,-177.2 337,-177.2 337,-154.2 266,-154.2"/>
<polygon fill="none" stroke="#000000" points="266,-154.2 266,-177.2 337,-177.2 337,-154.2 266,-154.2"/>
<text text-anchor="start" x="271" y="-162.8" font-family="Helvetica,sans-Serif" font-weight="bold" font-size="11.00" fill="#000000">tags</text>
<text text-anchor="start" x="302.0437" y="-162.3" font-family="Helvetica,sans-Serif" font-size="11.00" fill="#000000">[table]</text>
<polygon fill="none" stroke="#000000" points="266,-135.2 266,-154.2 337,-154.2 337,-135.2 266,-135.2"/>
<text text-anchor="start" x="269" y="-141.3" font-family="Helvetica,sans-Serif" font-size="11.00" fill="#000000">...</text>
<polygon fill="#ffffff" stroke="transparent" points="266,-116.2 266,-135.2 278,-135.2 278,-116.2 266,-116.2"/>
<polygon fill="none" stroke="#000000" points="266,-116.2 266,-135.2 278,-135.2 278,-116.2 266,-116.2"/>
<text text-anchor="start" x="268.9431" y="-122.3" font-family="Helvetica,sans-Serif" font-size="11.00" fill="#000000"> &#160;</text>
<polygon fill="#ffffff" stroke="transparent" points="278,-116.2 278,-135.2 316,-135.2 316,-116.2 278,-116.2"/>
<polygon fill="none" stroke="#000000" points="278,-116.2 278,-135.2 316,-135.2 316,-116.2 278,-116.2"/>
<text text-anchor="start" x="280.8053" y="-122.3" font-family="Helvetica,sans-Serif" font-size="11.00" fill="#000000">0 rows</text>
<polygon fill="#ffffff" stroke="transparent" points="316,-116.2 316,-135.2 337,-135.2 337,-116.2 316,-116.2"/>
<polygon fill="none" stroke="#000000" points="316,-116.2 316,-135.2 337,-135.2 337,-116.2 316,-116.2"/>
<text text-anchor="start" x="318.7027" y="-122.3" font-family="Helvetica,sans-Serif" font-size="11.00" fill="#000000">3 &gt;</text>
</a>
</g>
</g>
<!-- chapter_tags&#45;&gt;tags -->
<g id="edge2" class="edge">
<title>chapter_tags:w&#45;&gt;tags:e</title>
<path fill="none" stroke="#000000" d="M396.9759,-147.9123C374.9841,-146.9952 364.7187,-144.2 337,-144.2"/>
<polygon fill="#000000" stroke="#000000" points="403.5016,-148.0415 411.4287,-151.7993 407.5008,-148.1208 411.5,-148.2 411.5,-148.2 411.5,-148.2 407.5008,-148.1208 411.5713,-144.6007 403.5016,-148.0415 403.5016,-148.0415"/>
<ellipse fill="none" stroke="#000000" cx="400.3022" cy="-147.9781" rx="3.2" ry="3.2"/>
</g>
<!-- chapter_users -->
<g id="node4" class="node">
<title>chapter_users</title>
<g id="a_node4"><a xlink:href="../../tables/chapter_users.html" xlink:title="chapter_users" target="_top">
<polygon fill="#ffffff" stroke="transparent" points="240,-462.7 240,-589.7 362,-589.7 362,-462.7 240,-462.7"/>
<polygon fill="#f5f5f5" stroke="transparent" points="240,-566.2 240,-589.2 362,-589.2 362,-566.2 240,-566.2"/>
<polygon fill="none" stroke="#000000" points="240,-566.2 240,-589.2 362,-589.2 362,-566.2 240,-566.2"/>
<text text-anchor="start" x="245" y="-574.8" font-family="Helvetica,sans-Serif" font-weight="bold" font-size="11.00" fill="#000000">chapter_users</text>
<text text-anchor="start" x="327.5219" y="-574.3" font-family="Helvetica,sans-Serif" font-size="11.00" fill="#000000">[table]</text>
<polygon fill="none" stroke="#000000" points="240,-544.2 240,-566.2 362,-566.2 362,-544.2 240,-544.2"/>
<image xlink:href="../../images/primaryKeys.png" width="11px" height="12px" preserveAspectRatio="xMinYMin meet" x="245" y="-561.2"/>
<text text-anchor="start" x="265" y="-551.3" font-family="Helvetica,sans-Serif" font-size="11.00" fill="#000000">user_id</text>
<polygon fill="none" stroke="#000000" points="240,-522.2 240,-544.2 362,-544.2 362,-522.2 240,-522.2"/>
<image xlink:href="../../images/primaryKeys.png" width="11px" height="12px" preserveAspectRatio="xMinYMin meet" x="245" y="-539.2"/>
<text text-anchor="start" x="265" y="-529.3" font-family="Helvetica,sans-Serif" font-size="11.00" fill="#000000">chapter_id</text>
<polygon fill="none" stroke="#000000" points="240,-500.2 240,-522.2 362,-522.2 362,-500.2 240,-500.2"/>
<image xlink:href="../../images/foreignKeys.png" width="11px" height="12px" preserveAspectRatio="xMinYMin meet" x="245" y="-517.2"/>
<text text-anchor="start" x="265" y="-507.3" font-family="Helvetica,sans-Serif" font-size="11.00" fill="#000000">chapter_role_id</text>
<polygon fill="none" stroke="#000000" points="240,-481.2 240,-500.2 362,-500.2 362,-481.2 240,-481.2"/>
<text text-anchor="start" x="243" y="-487.3" font-family="Helvetica,sans-Serif" font-size="11.00" fill="#000000">...</text>
<polygon fill="#ffffff" stroke="transparent" points="240,-462.2 240,-481.2 286,-481.2 286,-462.2 240,-462.2"/>
<polygon fill="none" stroke="#000000" points="240,-462.2 240,-481.2 286,-481.2 286,-462.2 240,-462.2"/>
<text text-anchor="start" x="243" y="-468.3" font-family="Helvetica,sans-Serif" font-size="11.00" fill="#000000">&lt; 3</text>
<polygon fill="#ffffff" stroke="transparent" points="286,-462.2 286,-481.2 337,-481.2 337,-462.2 286,-462.2"/>
<polygon fill="none" stroke="#000000" points="286,-462.2 286,-481.2 337,-481.2 337,-462.2 286,-462.2"/>
<text text-anchor="start" x="301.6105" y="-468.3" font-family="Helvetica,sans-Serif" font-size="11.00" fill="#000000">0 rows</text>
<polygon fill="#ffffff" stroke="transparent" points="337,-462.2 337,-481.2 362,-481.2 362,-462.2 337,-462.2"/>
<polygon fill="none" stroke="#000000" points="337,-462.2 337,-481.2 362,-481.2 362,-462.2 337,-462.2"/>
<text text-anchor="start" x="352.8862" y="-468.3" font-family="Helvetica,sans-Serif" font-size="11.00" fill="#000000"> &#160;</text>
</a>
</g>
</g>
<!-- chapter_users&#45;&gt;chapters -->
<g id="edge3" class="edge">
<title>chapter_users:w&#45;&gt;chapters:e</title>
<path fill="none" stroke="#000000" d="M225.6466,-531.2894C155.0096,-509.6891 284.744,-312.2 189.5,-312.2"/>
<polygon fill="#000000" stroke="#000000" points="232.0699,-532.1444 239.525,-536.7685 236.035,-532.6722 240,-533.2 240,-533.2 240,-533.2 236.035,-532.6722 240.475,-529.6315 232.0699,-532.1444 232.0699,-532.1444"/>
<ellipse fill="none" stroke="#000000" cx="228.8979" cy="-531.7222" rx="3.2" ry="3.2"/>
</g>
<!-- chapter_roles -->
<g id="node5" class="node">
<title>chapter_roles</title>
<g id="a_node5"><a xlink:href="../../tables/chapter_roles.html" xlink:title="chapter_roles" target="_top">
<polygon fill="#ffffff" stroke="transparent" points="39.5,-464.7 39.5,-525.7 159.5,-525.7 159.5,-464.7 39.5,-464.7"/>
<polygon fill="#f5f5f5" stroke="transparent" points="39.5,-502.2 39.5,-525.2 159.5,-525.2 159.5,-502.2 39.5,-502.2"/>
<polygon fill="none" stroke="#000000" points="39.5,-502.2 39.5,-525.2 159.5,-525.2 159.5,-502.2 39.5,-502.2"/>
<text text-anchor="start" x="44.5" y="-510.8" font-family="Helvetica,sans-Serif" font-weight="bold" font-size="11.00" fill="#000000">chapter_roles</text>
<text text-anchor="start" x="125.0219" y="-510.3" font-family="Helvetica,sans-Serif" font-size="11.00" fill="#000000">[table]</text>
<polygon fill="none" stroke="#000000" points="39.5,-483.2 39.5,-502.2 159.5,-502.2 159.5,-483.2 39.5,-483.2"/>
<text text-anchor="start" x="42.5" y="-489.3" font-family="Helvetica,sans-Serif" font-size="11.00" fill="#000000">...</text>
<polygon fill="#ffffff" stroke="transparent" points="39.5,-464.2 39.5,-483.2 75.5,-483.2 75.5,-464.2 39.5,-464.2"/>
<polygon fill="none" stroke="#000000" points="39.5,-464.2 39.5,-483.2 75.5,-483.2 75.5,-464.2 39.5,-464.2"/>
<text text-anchor="start" x="42.5" y="-470.3" font-family="Helvetica,sans-Serif" font-size="11.00" fill="#000000"> &#160;</text>
<polygon fill="#ffffff" stroke="transparent" points="75.5,-464.2 75.5,-483.2 125.5,-483.2 125.5,-464.2 75.5,-464.2"/>
<polygon fill="none" stroke="#000000" points="75.5,-464.2 75.5,-483.2 125.5,-483.2 125.5,-464.2 75.5,-464.2"/>
<text text-anchor="start" x="90.1105" y="-470.3" font-family="Helvetica,sans-Serif" font-size="11.00" fill="#000000">0 rows</text>
<polygon fill="#ffffff" stroke="transparent" points="125.5,-464.2 125.5,-483.2 159.5,-483.2 159.5,-464.2 125.5,-464.2"/>
<polygon fill="none" stroke="#000000" points="125.5,-464.2 125.5,-483.2 159.5,-483.2 159.5,-464.2 125.5,-464.2"/>
<text text-anchor="start" x="140.9053" y="-470.3" font-family="Helvetica,sans-Serif" font-size="11.00" fill="#000000">2 &gt;</text>
</a>
</g>
</g>
<!-- chapter_users&#45;&gt;chapter_roles -->
<g id="edge4" class="edge">
<title>chapter_users:w&#45;&gt;chapter_roles:e</title>
<path fill="none" stroke="#000000" d="M225.4038,-510.0684C200.5113,-505.978 190.8041,-492.2 159.5,-492.2"/>
<polygon fill="#000000" stroke="#000000" points="232.0239,-510.5816 239.7217,-514.7892 236.012,-510.8908 240,-511.2 240,-511.2 240,-511.2 236.012,-510.8908 240.2783,-507.6108 232.0239,-510.5816 232.0239,-510.5816"/>
<ellipse fill="none" stroke="#000000" cx="228.8335" cy="-510.3342" rx="3.2" ry="3.2"/>
</g>
<!-- users -->
<g id="node6" class="node">
<title>users</title>
<g id="a_node6"><a xlink:href="../../tables/users.html" xlink:title="users" target="_top">
<polygon fill="#ffffff" stroke="transparent" points="59.5,-546.7 59.5,-607.7 139.5,-607.7 139.5,-546.7 59.5,-546.7"/>
<polygon fill="#f5f5f5" stroke="transparent" points="59.5,-584.2 59.5,-607.2 139.5,-607.2 139.5,-584.2 59.5,-584.2"/>
<polygon fill="none" stroke="#000000" points="59.5,-584.2 59.5,-607.2 139.5,-607.2 139.5,-584.2 59.5,-584.2"/>
<text text-anchor="start" x="64.5" y="-592.8" font-family="Helvetica,sans-Serif" font-weight="bold" font-size="11.00" fill="#000000">users</text>
<text text-anchor="start" x="104.5437" y="-592.3" font-family="Helvetica,sans-Serif" font-size="11.00" fill="#000000">[table]</text>
<polygon fill="none" stroke="#000000" points="59.5,-565.2 59.5,-584.2 139.5,-584.2 139.5,-565.2 59.5,-565.2"/>
<text text-anchor="start" x="62.5" y="-571.3" font-family="Helvetica,sans-Serif" font-size="11.00" fill="#000000">...</text>
<polygon fill="#ffffff" stroke="transparent" points="59.5,-546.2 59.5,-565.2 80.5,-565.2 80.5,-546.2 59.5,-546.2"/>
<polygon fill="none" stroke="#000000" points="59.5,-546.2 59.5,-565.2 80.5,-565.2 80.5,-546.2 59.5,-546.2"/>
<text text-anchor="start" x="62.2027" y="-552.3" font-family="Helvetica,sans-Serif" font-size="11.00" fill="#000000">&lt; 1</text>
<polygon fill="#ffffff" stroke="transparent" points="80.5,-546.2 80.5,-565.2 118.5,-565.2 118.5,-546.2 80.5,-546.2"/>
<polygon fill="none" stroke="#000000" points="80.5,-546.2 80.5,-565.2 118.5,-565.2 118.5,-546.2 80.5,-546.2"/>
<text text-anchor="start" x="83.3053" y="-552.3" font-family="Helvetica,sans-Serif" font-size="11.00" fill="#000000">0 rows</text>
<polygon fill="#ffffff" stroke="transparent" points="118.5,-546.2 118.5,-565.2 139.5,-565.2 139.5,-546.2 118.5,-546.2"/>
<polygon fill="none" stroke="#000000" points="118.5,-546.2 118.5,-565.2 139.5,-565.2 139.5,-546.2 118.5,-546.2"/>
<text text-anchor="start" x="121.2027" y="-552.3" font-family="Helvetica,sans-Serif" font-size="11.00" fill="#000000">4 &gt;</text>
</a>
</g>
</g>
<!-- chapter_users&#45;&gt;users -->
<g id="edge5" class="edge">
<title>chapter_users:w&#45;&gt;users:e</title>
<path fill="none" stroke="#000000" d="M225.3812,-555.9216C191.8032,-559.3922 179.6308,-574.2 139.5,-574.2"/>
<polygon fill="#000000" stroke="#000000" points="232.0097,-555.5945 240.1775,-558.7956 236.0049,-555.3972 240,-555.2 240,-555.2 240,-555.2 236.0049,-555.3972 239.8225,-551.6044 232.0097,-555.5945 232.0097,-555.5945"/>
<ellipse fill="none" stroke="#000000" cx="228.8136" cy="-555.7523" rx="3.2" ry="3.2"/>
</g>
<!-- event_sponsors -->
<g id="node7" class="node">
<title>event_sponsors</title>
<g id="a_node7"><a xlink:href="../../tables/event_sponsors.html" xlink:title="event_sponsors" target="_top">
<polygon fill="#ffffff" stroke="transparent" points="575,-310.7 575,-371.7 706,-371.7 706,-310.7 575,-310.7"/>
<polygon fill="#f5f5f5" stroke="transparent" points="575.5,-348.2 575.5,-371.2 706.5,-371.2 706.5,-348.2 575.5,-348.2"/>
<polygon fill="none" stroke="#000000" points="575.5,-348.2 575.5,-371.2 706.5,-371.2 706.5,-348.2 575.5,-348.2"/>
<text text-anchor="start" x="580.5" y="-356.8" font-family="Helvetica,sans-Serif" font-weight="bold" font-size="11.00" fill="#000000">event_sponsors</text>
<text text-anchor="start" x="672.0219" y="-356.3" font-family="Helvetica,sans-Serif" font-size="11.00" fill="#000000">[table]</text>
<polygon fill="none" stroke="#000000" points="575.5,-329.2 575.5,-348.2 706.5,-348.2 706.5,-329.2 575.5,-329.2"/>
<text text-anchor="start" x="578.5" y="-335.3" font-family="Helvetica,sans-Serif" font-size="11.00" fill="#000000">...</text>
<polygon fill="#ffffff" stroke="transparent" points="575.5,-310.2 575.5,-329.2 626.5,-329.2 626.5,-310.2 575.5,-310.2"/>
<polygon fill="none" stroke="#000000" points="575.5,-310.2 575.5,-329.2 626.5,-329.2 626.5,-310.2 575.5,-310.2"/>
<text text-anchor="start" x="578.5" y="-316.3" font-family="Helvetica,sans-Serif" font-size="11.00" fill="#000000">&lt; 2</text>
<polygon fill="#ffffff" stroke="transparent" points="626.5,-310.2 626.5,-329.2 679.5,-329.2 679.5,-310.2 626.5,-310.2"/>
<polygon fill="none" stroke="#000000" points="626.5,-310.2 626.5,-329.2 679.5,-329.2 679.5,-310.2 626.5,-310.2"/>
<text text-anchor="start" x="644.1105" y="-316.3" font-family="Helvetica,sans-Serif" font-size="11.00" fill="#000000">0 rows</text>
<polygon fill="#ffffff" stroke="transparent" points="679.5,-310.2 679.5,-329.2 706.5,-329.2 706.5,-310.2 679.5,-310.2"/>
<polygon fill="none" stroke="#000000" points="679.5,-310.2 679.5,-329.2 706.5,-329.2 706.5,-310.2 679.5,-310.2"/>
<text text-anchor="start" x="697.3862" y="-316.3" font-family="Helvetica,sans-Serif" font-size="11.00" fill="#000000"> &#160;</text>
</a>
</g>
</g>
<!-- events -->
<g id="node8" class="node">
<title>events</title>
<g id="a_node8"><a xlink:href="../../tables/events.html" xlink:title="events" target="_top">
<polygon fill="#ffffff" stroke="transparent" points="428.5,-307.7 428.5,-368.7 508.5,-368.7 508.5,-307.7 428.5,-307.7"/>
<polygon fill="#f5f5f5" stroke="transparent" points="428.5,-345.2 428.5,-368.2 508.5,-368.2 508.5,-345.2 428.5,-345.2"/>
<polygon fill="none" stroke="#000000" points="428.5,-345.2 428.5,-368.2 508.5,-368.2 508.5,-345.2 428.5,-345.2"/>
<text text-anchor="start" x="433.5" y="-353.8" font-family="Helvetica,sans-Serif" font-weight="bold" font-size="11.00" fill="#000000">events</text>
<text text-anchor="start" x="474.0219" y="-353.3" font-family="Helvetica,sans-Serif" font-size="11.00" fill="#000000">[table]</text>
<polygon fill="none" stroke="#000000" points="428.5,-326.2 428.5,-345.2 508.5,-345.2 508.5,-326.2 428.5,-326.2"/>
<text text-anchor="start" x="431.5" y="-332.3" font-family="Helvetica,sans-Serif" font-size="11.00" fill="#000000">...</text>
<polygon fill="#ffffff" stroke="transparent" points="428.5,-307.2 428.5,-326.2 449.5,-326.2 449.5,-307.2 428.5,-307.2"/>
<polygon fill="none" stroke="#000000" points="428.5,-307.2 428.5,-326.2 449.5,-326.2 449.5,-307.2 428.5,-307.2"/>
<text text-anchor="start" x="431.2027" y="-313.3" font-family="Helvetica,sans-Serif" font-size="11.00" fill="#000000">&lt; 2</text>
<polygon fill="#ffffff" stroke="transparent" points="449.5,-307.2 449.5,-326.2 487.5,-326.2 487.5,-307.2 449.5,-307.2"/>
<polygon fill="none" stroke="#000000" points="449.5,-307.2 449.5,-326.2 487.5,-326.2 487.5,-307.2 449.5,-307.2"/>
<text text-anchor="start" x="452.3053" y="-313.3" font-family="Helvetica,sans-Serif" font-size="11.00" fill="#000000">0 rows</text>
<polygon fill="#ffffff" stroke="transparent" points="487.5,-307.2 487.5,-326.2 508.5,-326.2 508.5,-307.2 487.5,-307.2"/>
<polygon fill="none" stroke="#000000" points="487.5,-307.2 487.5,-326.2 508.5,-326.2 508.5,-307.2 487.5,-307.2"/>
<text text-anchor="start" x="490.2027" y="-313.3" font-family="Helvetica,sans-Serif" font-size="11.00" fill="#000000">3 &gt;</text>
</a>
</g>
</g>
<!-- event_sponsors&#45;&gt;events -->
<g id="edge6" class="edge">
<title>event_sponsors:w&#45;&gt;events:e</title>
<path fill="none" stroke="#000000" d="M560.7894,-338.2C545.8617,-338.2 530.5038,-338.2 516.7044,-338.2"/>
<polygon fill="#000000" stroke="#000000" points="567.5,-338.2001 575.5,-341.8 571.5,-338.2 575.5,-338.2 575.5,-338.2 575.5,-338.2 571.5,-338.2 575.5,-334.6 567.5,-338.2001 567.5,-338.2001"/>
<ellipse fill="none" stroke="#000000" cx="564.3" cy="-338.2001" rx="3.2" ry="3.2"/>
</g>
<!-- events&#45;&gt;chapters -->
<g id="edge11" class="edge">
<title>events:w&#45;&gt;chapters:e</title>
<path fill="none" stroke="#000000" d="M405.8286,-329.0042C349.3848,-321.5236 264.0768,-312.2 189.5,-312.2"/>
<polygon fill="#000000" stroke="#000000" points="412.313,-329.883 419.757,-334.5249 416.2768,-330.4203 420.2405,-330.9576 420.2405,-330.9576 420.2405,-330.9576 416.2768,-330.4203 420.7241,-327.3902 412.313,-329.883 412.313,-329.883"/>
<ellipse fill="none" stroke="#000000" cx="409.142" cy="-329.4532" rx="3.2" ry="3.2"/>
</g>
<!-- venues -->
<g id="node11" class="node">
<title>venues</title>
<g id="a_node11"><a xlink:href="../../tables/venues.html" xlink:title="venues" target="_top">
<polygon fill="#ffffff" stroke="transparent" points="260.5,-226.7 260.5,-287.7 341.5,-287.7 341.5,-226.7 260.5,-226.7"/>
<polygon fill="#f5f5f5" stroke="transparent" points="261,-264.2 261,-287.2 342,-287.2 342,-264.2 261,-264.2"/>
<polygon fill="none" stroke="#000000" points="261,-264.2 261,-287.2 342,-287.2 342,-264.2 261,-264.2"/>
<text text-anchor="start" x="266" y="-272.8" font-family="Helvetica,sans-Serif" font-weight="bold" font-size="11.00" fill="#000000">venues</text>
<text text-anchor="start" x="307.5219" y="-272.3" font-family="Helvetica,sans-Serif" font-size="11.00" fill="#000000">[table]</text>
<polygon fill="none" stroke="#000000" points="261,-245.2 261,-264.2 342,-264.2 342,-245.2 261,-245.2"/>
<text text-anchor="start" x="264" y="-251.3" font-family="Helvetica,sans-Serif" font-size="11.00" fill="#000000">...</text>
<polygon fill="#ffffff" stroke="transparent" points="261,-226.2 261,-245.2 282,-245.2 282,-226.2 261,-226.2"/>
<polygon fill="none" stroke="#000000" points="261,-226.2 261,-245.2 282,-245.2 282,-226.2 261,-226.2"/>
<text text-anchor="start" x="263.7027" y="-232.3" font-family="Helvetica,sans-Serif" font-size="11.00" fill="#000000">&lt; 1</text>
<polygon fill="#ffffff" stroke="transparent" points="282,-226.2 282,-245.2 320,-245.2 320,-226.2 282,-226.2"/>
<polygon fill="none" stroke="#000000" points="282,-226.2 282,-245.2 320,-245.2 320,-226.2 282,-226.2"/>
<text text-anchor="start" x="284.8053" y="-232.3" font-family="Helvetica,sans-Serif" font-size="11.00" fill="#000000">0 rows</text>
<polygon fill="#ffffff" stroke="transparent" points="320,-226.2 320,-245.2 342,-245.2 342,-226.2 320,-226.2"/>
<polygon fill="none" stroke="#000000" points="320,-226.2 320,-245.2 342,-245.2 342,-226.2 320,-226.2"/>
<text text-anchor="start" x="323.4053" y="-232.3" font-family="Helvetica,sans-Serif" font-size="11.00" fill="#000000">2 &gt;</text>
</a>
</g>
</g>
<!-- events&#45;&gt;venues -->
<g id="edge12" class="edge">
<title>events:w&#45;&gt;venues:e</title>
<path fill="none" stroke="#000000" d="M406.961,-308.4409C388.0625,-299.3018 367.5375,-289.3763 349.629,-280.7161"/>
<polygon fill="#000000" stroke="#000000" points="412.85,-311.2886 418.4848,-318.0124 416.451,-313.03 420.0521,-314.7714 420.0521,-314.7714 420.0521,-314.7714 416.451,-313.03 421.6193,-311.5305 412.85,-311.2886 412.85,-311.2886"/>
<ellipse fill="none" stroke="#000000" cx="409.9691" cy="-309.8955" rx="3.2" ry="3.2"/>
</g>
<!-- event_tags -->
<g id="node9" class="node">
<title>event_tags</title>
<g id="a_node9"><a xlink:href="../../tables/event_tags.html" xlink:title="event_tags" target="_top">
<polygon fill="#ffffff" stroke="transparent" points="589,-138.7 589,-199.7 692,-199.7 692,-138.7 589,-138.7"/>
<polygon fill="#f5f5f5" stroke="transparent" points="589.5,-176.2 589.5,-199.2 692.5,-199.2 692.5,-176.2 589.5,-176.2"/>
<polygon fill="none" stroke="#000000" points="589.5,-176.2 589.5,-199.2 692.5,-199.2 692.5,-176.2 589.5,-176.2"/>
<text text-anchor="start" x="594.5" y="-184.8" font-family="Helvetica,sans-Serif" font-weight="bold" font-size="11.00" fill="#000000">event_tags</text>
<text text-anchor="start" x="658.0219" y="-184.3" font-family="Helvetica,sans-Serif" font-size="11.00" fill="#000000">[table]</text>
<polygon fill="none" stroke="#000000" points="589.5,-157.2 589.5,-176.2 692.5,-176.2 692.5,-157.2 589.5,-157.2"/>
<text text-anchor="start" x="592.5" y="-163.3" font-family="Helvetica,sans-Serif" font-size="11.00" fill="#000000">...</text>
<polygon fill="#ffffff" stroke="transparent" points="589.5,-138.2 589.5,-157.2 626.5,-157.2 626.5,-138.2 589.5,-138.2"/>
<polygon fill="none" stroke="#000000" points="589.5,-138.2 589.5,-157.2 626.5,-157.2 626.5,-138.2 589.5,-138.2"/>
<text text-anchor="start" x="592.5" y="-144.3" font-family="Helvetica,sans-Serif" font-size="11.00" fill="#000000">&lt; 2</text>
<polygon fill="#ffffff" stroke="transparent" points="626.5,-138.2 626.5,-157.2 672.5,-157.2 672.5,-138.2 626.5,-138.2"/>
<polygon fill="none" stroke="#000000" points="626.5,-138.2 626.5,-157.2 672.5,-157.2 672.5,-138.2 626.5,-138.2"/>
<text text-anchor="start" x="637.1105" y="-144.3" font-family="Helvetica,sans-Serif" font-size="11.00" fill="#000000">0 rows</text>
<polygon fill="#ffffff" stroke="transparent" points="672.5,-138.2 672.5,-157.2 692.5,-157.2 692.5,-138.2 672.5,-138.2"/>
<polygon fill="none" stroke="#000000" points="672.5,-138.2 672.5,-157.2 692.5,-157.2 692.5,-138.2 672.5,-138.2"/>
<text text-anchor="start" x="683.3862" y="-144.3" font-family="Helvetica,sans-Serif" font-size="11.00" fill="#000000"> &#160;</text>
</a>
</g>
</g>
<!-- event_tags&#45;&gt;tags -->
<g id="edge8" class="edge">
<title>event_tags:w&#45;&gt;tags:e</title>
<path fill="none" stroke="#000000" d="M575.2871,-163.0402C552.9093,-150.7126 566.2705,-105.7196 534,-89.2 482.1737,-62.6696 457.7447,-69.3797 403,-89.2 367.0972,-102.1986 375.1834,-144.2 337,-144.2"/>
<polygon fill="#000000" stroke="#000000" points="581.6907,-164.4638 588.7187,-169.7142 585.5953,-165.3319 589.5,-166.2 589.5,-166.2 589.5,-166.2 585.5953,-165.3319 590.2813,-162.6858 581.6907,-164.4638 581.6907,-164.4638"/>
<ellipse fill="none" stroke="#000000" cx="578.5669" cy="-163.7693" rx="3.2" ry="3.2"/>
</g>
<!-- event_tags&#45;&gt;events -->
<g id="edge7" class="edge">
<title>event_tags:w&#45;&gt;events:e</title>
<path fill="none" stroke="#000000" d="M575.0227,-168.1219C534.3053,-180.8132 571.3442,-253.4106 534,-297.2 529.038,-303.0184 523.0384,-308.2784 516.7093,-312.9402"/>
<polygon fill="#000000" stroke="#000000" points="581.5696,-167.2528 589.9738,-169.7687 585.5348,-166.7264 589.5,-166.2 589.5,-166.2 589.5,-166.2 585.5348,-166.7264 589.0262,-162.6313 581.5696,-167.2528 581.5696,-167.2528"/>
<ellipse fill="none" stroke="#000000" cx="578.3974" cy="-167.6739" rx="3.2" ry="3.2"/>
</g>
<!-- event_users -->
<g id="node10" class="node">
<title>event_users</title>
<g id="a_node10"><a xlink:href="../../tables/event_users.html" xlink:title="event_users" target="_top">
<polygon fill="#ffffff" stroke="transparent" points="585.5,-487.7 585.5,-548.7 695.5,-548.7 695.5,-487.7 585.5,-487.7"/>
<polygon fill="#f5f5f5" stroke="transparent" points="585.5,-525.2 585.5,-548.2 695.5,-548.2 695.5,-525.2 585.5,-525.2"/>
<polygon fill="none" stroke="#000000" points="585.5,-525.2 585.5,-548.2 695.5,-548.2 695.5,-525.2 585.5,-525.2"/>
<text text-anchor="start" x="590.5" y="-533.8" font-family="Helvetica,sans-Serif" font-weight="bold" font-size="11.00" fill="#000000">event_users</text>
<text text-anchor="start" x="661.0219" y="-533.3" font-family="Helvetica,sans-Serif" font-size="11.00" fill="#000000">[table]</text>
<polygon fill="none" stroke="#000000" points="585.5,-506.2 585.5,-525.2 695.5,-525.2 695.5,-506.2 585.5,-506.2"/>
<text text-anchor="start" x="588.5" y="-512.3" font-family="Helvetica,sans-Serif" font-size="11.00" fill="#000000">...</text>
<polygon fill="#ffffff" stroke="transparent" points="585.5,-487.2 585.5,-506.2 621.5,-506.2 621.5,-487.2 585.5,-487.2"/>
<polygon fill="none" stroke="#000000" points="585.5,-487.2 585.5,-506.2 621.5,-506.2 621.5,-487.2 585.5,-487.2"/>
<text text-anchor="start" x="588.5" y="-493.3" font-family="Helvetica,sans-Serif" font-size="11.00" fill="#000000">&lt; 4</text>
<polygon fill="#ffffff" stroke="transparent" points="621.5,-487.2 621.5,-506.2 666.5,-506.2 666.5,-487.2 621.5,-487.2"/>
<polygon fill="none" stroke="#000000" points="621.5,-487.2 621.5,-506.2 666.5,-506.2 666.5,-487.2 621.5,-487.2"/>
<text text-anchor="start" x="631.1105" y="-493.3" font-family="Helvetica,sans-Serif" font-size="11.00" fill="#000000">0 rows</text>
<polygon fill="#ffffff" stroke="transparent" points="666.5,-487.2 666.5,-506.2 695.5,-506.2 695.5,-487.2 666.5,-487.2"/>
<polygon fill="none" stroke="#000000" points="666.5,-487.2 666.5,-506.2 695.5,-506.2 695.5,-487.2 666.5,-487.2"/>
<text text-anchor="start" x="676.9053" y="-493.3" font-family="Helvetica,sans-Serif" font-size="11.00" fill="#000000">2 &gt;</text>
</a>
</g>
</g>
<!-- event_users&#45;&gt;users -->
<g id="edge10" class="edge">
<title>event_users:w&#45;&gt;users:e</title>
<path fill="none" stroke="#000000" d="M571.0519,-515.6574C481.2144,-521.5122 466.2089,-581.9117 370,-600.2 309.7456,-611.6537 292.7586,-608.5767 232,-600.2 189.6959,-594.3676 182.2043,-574.2 139.5,-574.2"/>
<polygon fill="#000000" stroke="#000000" points="577.504,-515.4532 585.6139,-518.7982 581.502,-515.3266 585.5,-515.2 585.5,-515.2 585.5,-515.2 581.502,-515.3266 585.3861,-511.6018 577.504,-515.4532 577.504,-515.4532"/>
<ellipse fill="none" stroke="#000000" cx="574.3056" cy="-515.5544" rx="3.2" ry="3.2"/>
</g>
<!-- event_users&#45;&gt;events -->
<g id="edge9" class="edge">
<title>event_users:w&#45;&gt;events:e</title>
<path fill="none" stroke="#000000" d="M571.0504,-513.7505C513.4369,-501.918 486.2075,-420.4348 475.0727,-372.7476"/>
<polygon fill="#000000" stroke="#000000" points="577.54,-514.4014 585.1406,-518.782 581.52,-514.8007 585.5,-515.2 585.5,-515.2 585.5,-515.2 581.52,-514.8007 585.8594,-511.618 577.54,-514.4014 577.54,-514.4014"/>
<ellipse fill="none" stroke="#000000" cx="574.3559" cy="-514.082" rx="3.2" ry="3.2"/>
</g>
<!-- venues&#45;&gt;chapters -->
<g id="edge17" class="edge">
<title>venues:w&#45;&gt;chapters:e</title>
<path fill="none" stroke="#000000" d="M239.5588,-293.4296C219.8561,-303.7255 200.345,-312.2 189.5,-312.2"/>
<polygon fill="#000000" stroke="#000000" points="245.4055,-290.2725 254.1553,-289.6391 248.9251,-288.3719 252.4448,-286.4714 252.4448,-286.4714 252.4448,-286.4714 248.9251,-288.3719 250.7343,-283.3037 245.4055,-290.2725 245.4055,-290.2725"/>
<ellipse fill="none" stroke="#000000" cx="242.5897" cy="-291.7929" rx="3.2" ry="3.2"/>
</g>
<!-- user_bans -->
<g id="node12" class="node">
<title>user_bans</title>
<g id="a_node12"><a xlink:href="../../tables/user_bans.html" xlink:title="user_bans" target="_top">
<polygon fill="#ffffff" stroke="transparent" points="251.5,-336.7 251.5,-441.7 350.5,-441.7 350.5,-336.7 251.5,-336.7"/>
<polygon fill="#f5f5f5" stroke="transparent" points="252,-418.2 252,-441.2 351,-441.2 351,-418.2 252,-418.2"/>
<polygon fill="none" stroke="#000000" points="252,-418.2 252,-441.2 351,-441.2 351,-418.2 252,-418.2"/>
<text text-anchor="start" x="257" y="-426.8" font-family="Helvetica,sans-Serif" font-weight="bold" font-size="11.00" fill="#000000">user_bans</text>
<text text-anchor="start" x="316.5219" y="-426.3" font-family="Helvetica,sans-Serif" font-size="11.00" fill="#000000">[table]</text>
<polygon fill="none" stroke="#000000" points="252,-396.2 252,-418.2 351,-418.2 351,-396.2 252,-396.2"/>
<image xlink:href="../../images/primaryKeys.png" width="11px" height="12px" preserveAspectRatio="xMinYMin meet" x="257" y="-413.2"/>
<text text-anchor="start" x="278" y="-403.3" font-family="Helvetica,sans-Serif" font-size="11.00" fill="#000000">user_id</text>
<polygon fill="none" stroke="#000000" points="252,-374.2 252,-396.2 351,-396.2 351,-374.2 252,-374.2"/>
<image xlink:href="../../images/primaryKeys.png" width="11px" height="12px" preserveAspectRatio="xMinYMin meet" x="257" y="-391.2"/>
<text text-anchor="start" x="278" y="-381.3" font-family="Helvetica,sans-Serif" font-size="11.00" fill="#000000">chapter_id</text>
<polygon fill="none" stroke="#000000" points="252,-355.2 252,-374.2 351,-374.2 351,-355.2 252,-355.2"/>
<text text-anchor="start" x="255" y="-361.3" font-family="Helvetica,sans-Serif" font-size="11.00" fill="#000000">...</text>
<polygon fill="#ffffff" stroke="transparent" points="252,-336.2 252,-355.2 287,-355.2 287,-336.2 252,-336.2"/>
<polygon fill="none" stroke="#000000" points="252,-336.2 252,-355.2 287,-355.2 287,-336.2 252,-336.2"/>
<text text-anchor="start" x="255" y="-342.3" font-family="Helvetica,sans-Serif" font-size="11.00" fill="#000000">&lt; 2</text>
<polygon fill="#ffffff" stroke="transparent" points="287,-336.2 287,-355.2 332,-355.2 332,-336.2 287,-336.2"/>
<polygon fill="none" stroke="#000000" points="287,-336.2 287,-355.2 332,-355.2 332,-336.2 287,-336.2"/>
<text text-anchor="start" x="296.6105" y="-342.3" font-family="Helvetica,sans-Serif" font-size="11.00" fill="#000000">0 rows</text>
<polygon fill="#ffffff" stroke="transparent" points="332,-336.2 332,-355.2 351,-355.2 351,-336.2 332,-336.2"/>
<polygon fill="none" stroke="#000000" points="332,-336.2 332,-355.2 351,-355.2 351,-336.2 332,-336.2"/>
<text text-anchor="start" x="341.8862" y="-342.3" font-family="Helvetica,sans-Serif" font-size="11.00" fill="#000000"> &#160;</text>
</a>
</g>
</g>
<!-- user_bans&#45;&gt;chapters -->
<g id="edge13" class="edge">
<title>user_bans:w&#45;&gt;chapters:e</title>
<path fill="none" stroke="#000000" d="M237.8267,-381.4796C214.3298,-366.6036 226.3718,-312.2 189.5,-312.2"/>
<polygon fill="#000000" stroke="#000000" points="244.2621,-383.1688 251.086,-388.682 248.1311,-384.1844 252,-385.2 252,-385.2 252,-385.2 248.1311,-384.1844 252.914,-381.718 244.2621,-383.1688 244.2621,-383.1688"/>
<ellipse fill="none" stroke="#000000" cx="241.167" cy="-382.3563" rx="3.2" ry="3.2"/>
</g>
<!-- user_bans&#45;&gt;users -->
<g id="edge14" class="edge">
<title>user_bans:w&#45;&gt;users:e</title>
<path fill="none" stroke="#000000" d="M237.5666,-409.1625C198.1558,-421.815 234.7629,-492.7259 199,-536.2 179.0662,-560.4319 170.8774,-574.2 139.5,-574.2"/>
<polygon fill="#000000" stroke="#000000" points="244.0729,-408.2779 252.4851,-410.7672 248.0365,-407.7389 252,-407.2 252,-407.2 252,-407.2 248.0365,-407.7389 251.5149,-403.6328 244.0729,-408.2779 244.0729,-408.2779"/>
<ellipse fill="none" stroke="#000000" cx="240.9021" cy="-408.7091" rx="3.2" ry="3.2"/>
</g>
<!-- venue_tags -->
<g id="node13" class="node">
<title>venue_tags</title>
<g id="a_node13"><a xlink:href="../../tables/venue_tags.html" xlink:title="venue_tags" target="_top">
<polygon fill="#ffffff" stroke="transparent" points="416,-225.7 416,-286.7 521,-286.7 521,-225.7 416,-225.7"/>
<polygon fill="#f5f5f5" stroke="transparent" points="416.5,-263.2 416.5,-286.2 521.5,-286.2 521.5,-263.2 416.5,-263.2"/>
<polygon fill="none" stroke="#000000" points="416.5,-263.2 416.5,-286.2 521.5,-286.2 521.5,-263.2 416.5,-263.2"/>
<text text-anchor="start" x="421.5" y="-271.8" font-family="Helvetica,sans-Serif" font-weight="bold" font-size="11.00" fill="#000000">venue_tags</text>
<text text-anchor="start" x="487.0219" y="-271.3" font-family="Helvetica,sans-Serif" font-size="11.00" fill="#000000">[table]</text>
<polygon fill="none" stroke="#000000" points="416.5,-244.2 416.5,-263.2 521.5,-263.2 521.5,-244.2 416.5,-244.2"/>
<text text-anchor="start" x="419.5" y="-250.3" font-family="Helvetica,sans-Serif" font-size="11.00" fill="#000000">...</text>
<polygon fill="#ffffff" stroke="transparent" points="416.5,-225.2 416.5,-244.2 454.5,-244.2 454.5,-225.2 416.5,-225.2"/>
<polygon fill="none" stroke="#000000" points="416.5,-225.2 416.5,-244.2 454.5,-244.2 454.5,-225.2 416.5,-225.2"/>
<text text-anchor="start" x="419.5" y="-231.3" font-family="Helvetica,sans-Serif" font-size="11.00" fill="#000000">&lt; 2</text>
<polygon fill="#ffffff" stroke="transparent" points="454.5,-225.2 454.5,-244.2 500.5,-244.2 500.5,-225.2 454.5,-225.2"/>
<polygon fill="none" stroke="#000000" points="454.5,-225.2 454.5,-244.2 500.5,-244.2 500.5,-225.2 454.5,-225.2"/>
<text text-anchor="start" x="465.1105" y="-231.3" font-family="Helvetica,sans-Serif" font-size="11.00" fill="#000000">0 rows</text>
<polygon fill="#ffffff" stroke="transparent" points="500.5,-225.2 500.5,-244.2 521.5,-244.2 521.5,-225.2 500.5,-225.2"/>
<polygon fill="none" stroke="#000000" points="500.5,-225.2 500.5,-244.2 521.5,-244.2 521.5,-225.2 500.5,-225.2"/>
<text text-anchor="start" x="512.3862" y="-231.3" font-family="Helvetica,sans-Serif" font-size="11.00" fill="#000000"> &#160;</text>
</a>
</g>
</g>
<!-- venue_tags&#45;&gt;tags -->
<g id="edge15" class="edge">
<title>venue_tags:w&#45;&gt;tags:e</title>
<path fill="none" stroke="#000000" d="M402.1174,-250.5056C363.2359,-233.7205 391.3396,-144.2 337,-144.2"/>
<polygon fill="#000000" stroke="#000000" points="408.6368,-251.7269 415.8371,-256.7384 412.5684,-252.4634 416.5,-253.2 416.5,-253.2 416.5,-253.2 412.5684,-252.4634 417.1629,-249.6616 408.6368,-251.7269 408.6368,-251.7269"/>
<ellipse fill="none" stroke="#000000" cx="405.4915" cy="-251.1376" rx="3.2" ry="3.2"/>
</g>
<!-- venue_tags&#45;&gt;venues -->
<g id="edge16" class="edge">
<title>venue_tags:w&#45;&gt;venues:e</title>
<path fill="none" stroke="#000000" d="M402.0756,-253.2951C384.2554,-253.5193 365.7918,-254.1118 349.5979,-254.7694"/>
<polygon fill="#000000" stroke="#000000" points="408.5002,-253.2528 416.5238,-256.7999 412.5001,-253.2264 416.5,-253.2 416.5,-253.2 416.5,-253.2 412.5001,-253.2264 416.4762,-249.6001 408.5002,-253.2528 408.5002,-253.2528"/>
<ellipse fill="none" stroke="#000000" cx="405.3002" cy="-253.2739" rx="3.2" ry="3.2"/>
</g>
</g>
</svg>
