<?xml version="1.0" encoding="UTF-8" standalone="no"?>
<!DOCTYPE svg PUBLIC "-//W3C//DTD SVG 1.1//EN"
 "http://www.w3.org/Graphics/SVG/1.1/DTD/svg11.dtd">
<!-- Generated by graphviz version 2.40.1 (20161225.0304)
 -->
<!-- Title: twoDegreesRelationshipsDiagram Pages: 1 -->
<svg width="714pt" height="569pt"
 viewBox="0.00 0.00 714.00 568.70" xmlns="http://www.w3.org/2000/svg" xmlns:xlink="http://www.w3.org/1999/xlink">
<g id="graph0" class="graph" transform="scale(1 1) rotate(0) translate(4 564.7)">
<title>twoDegreesRelationshipsDiagram</title>
<polygon fill="#ffffff" stroke="transparent" points="-4,4 -4,-564.7 710,-564.7 710,4 -4,4"/>
<text text-anchor="middle" x="72.4936" y="-7.3" font-family="Helvetica,sans-Serif" font-size="11.00" fill="#000000">Generated by SchemaSpy</text>
<!-- chapter_users -->
<g id="node1" class="node">
<title>chapter_users</title>
<g id="a_node1"><a xlink:href="../../tables/chapter_users.html" xlink:title="chapter_users" target="_top">
<polygon fill="#ffffff" stroke="transparent" points="240,-149.2 240,-276.2 352,-276.2 352,-149.2 240,-149.2"/>
<polygon fill="#f5f5f5" stroke="transparent" points="240,-252.7 240,-275.7 352,-275.7 352,-252.7 240,-252.7"/>
<polygon fill="none" stroke="#000000" points="240,-252.7 240,-275.7 352,-275.7 352,-252.7 240,-252.7"/>
<text text-anchor="start" x="244.6575" y="-261.8" font-family="Helvetica,sans-Serif" font-weight="bold" font-size="11.00" fill="#000000">chapter_users</text>
<text text-anchor="start" x="317.5219" y="-260.8" font-family="Helvetica,sans-Serif" font-size="11.00" fill="#000000">[table]</text>
<polygon fill="none" stroke="#000000" points="240,-230.7 240,-252.7 352,-252.7 352,-230.7 240,-230.7"/>
<image xlink:href="../../images/primaryKeys.png" width="11px" height="12px" preserveAspectRatio="xMinYMin meet" x="245" y="-247.7"/>
<text text-anchor="start" x="260" y="-237.8" font-family="Helvetica,sans-Serif" font-size="11.00" fill="#000000">user_id</text>
<polygon fill="none" stroke="#000000" points="240,-208.7 240,-230.7 352,-230.7 352,-208.7 240,-208.7"/>
<image xlink:href="../../images/primaryKeys.png" width="11px" height="12px" preserveAspectRatio="xMinYMin meet" x="245" y="-225.7"/>
<text text-anchor="start" x="260" y="-215.8" font-family="Helvetica,sans-Serif" font-size="11.00" fill="#000000">chapter_id</text>
<polygon fill="none" stroke="#000000" points="240,-186.7 240,-208.7 352,-208.7 352,-186.7 240,-186.7"/>
<image xlink:href="../../images/foreignKeys.png" width="11px" height="12px" preserveAspectRatio="xMinYMin meet" x="245" y="-203.7"/>
<text text-anchor="start" x="260" y="-193.8" font-family="Helvetica,sans-Serif" font-size="11.00" fill="#000000">chapter_role_id</text>
<polygon fill="none" stroke="#000000" points="240,-167.7 240,-186.7 352,-186.7 352,-167.7 240,-167.7"/>
<text text-anchor="start" x="243" y="-173.8" font-family="Helvetica,sans-Serif" font-size="11.00" fill="#000000">...</text>
<polygon fill="#ffffff" stroke="transparent" points="240,-148.7 240,-167.7 281,-167.7 281,-148.7 240,-148.7"/>
<polygon fill="none" stroke="#000000" points="240,-148.7 240,-167.7 281,-167.7 281,-148.7 240,-148.7"/>
<text text-anchor="start" x="243" y="-154.8" font-family="Helvetica,sans-Serif" font-size="11.00" fill="#000000">&lt; 3</text>
<polygon fill="#ffffff" stroke="transparent" points="281,-148.7 281,-167.7 329,-167.7 329,-148.7 281,-148.7"/>
<polygon fill="none" stroke="#000000" points="281,-148.7 281,-167.7 329,-167.7 329,-148.7 281,-148.7"/>
<text text-anchor="start" x="293.6105" y="-154.8" font-family="Helvetica,sans-Serif" font-size="11.00" fill="#000000">0 rows</text>
<polygon fill="#ffffff" stroke="transparent" points="329,-148.7 329,-167.7 352,-167.7 352,-148.7 329,-148.7"/>
<polygon fill="none" stroke="#000000" points="329,-148.7 329,-167.7 352,-167.7 352,-148.7 329,-148.7"/>
<text text-anchor="start" x="342.8862" y="-154.8" font-family="Helvetica,sans-Serif" font-size="11.00" fill="#000000"> &#160;</text>
</a>
</g>
</g>
<!-- chapters -->
<g id="node2" class="node">
<title>chapters</title>
<g id="a_node2"><a xlink:href="../../tables/chapters.html" xlink:title="chapters" target="_top">
<polygon fill="#ffffff" stroke="transparent" points="8,-202.7 8,-556.7 191,-556.7 191,-202.7 8,-202.7"/>
<polygon fill="#f5f5f5" stroke="transparent" points="10.5,-531.7 10.5,-554.7 189.5,-554.7 189.5,-531.7 10.5,-531.7"/>
<polygon fill="none" stroke="#000000" points="10.5,-531.7 10.5,-554.7 189.5,-554.7 189.5,-531.7 10.5,-531.7"/>
<text text-anchor="start" x="15.5" y="-540.8" font-family="Helvetica,sans-Serif" font-weight="bold" font-size="11.00" fill="#000000">chapters</text>
<text text-anchor="start" x="154.5437" y="-539.8" font-family="Helvetica,sans-Serif" font-size="11.00" fill="#000000">[table]</text>
<polygon fill="none" stroke="#000000" points="10.5,-509.7 10.5,-531.7 99.5,-531.7 99.5,-509.7 10.5,-509.7"/>
<text text-anchor="start" x="30.5" y="-516.8" font-family="Helvetica,sans-Serif" font-size="11.00" fill="#000000">created_at</text>
<polygon fill="none" stroke="#000000" points="99.5,-509.7 99.5,-531.7 189.5,-531.7 189.5,-509.7 99.5,-509.7"/>
<text text-anchor="start" x="102.5" y="-517.4" font-family="Helvetica,sans-Serif" font-size="11.00" fill="#000000">timestamp[26,3]</text>
<polygon fill="none" stroke="#000000" points="10.5,-487.7 10.5,-509.7 99.5,-509.7 99.5,-487.7 10.5,-487.7"/>
<text text-anchor="start" x="30.5" y="-494.8" font-family="Helvetica,sans-Serif" font-size="11.00" fill="#000000">updated_at</text>
<polygon fill="none" stroke="#000000" points="99.5,-487.7 99.5,-509.7 189.5,-509.7 189.5,-487.7 99.5,-487.7"/>
<text text-anchor="start" x="102.5" y="-495.4" font-family="Helvetica,sans-Serif" font-size="11.00" fill="#000000">timestamp[26,3]</text>
<polygon fill="none" stroke="#000000" points="10.5,-465.7 10.5,-487.7 99.5,-487.7 99.5,-465.7 10.5,-465.7"/>
<image xlink:href="../../images/primaryKeys.png" width="11px" height="12px" preserveAspectRatio="xMinYMin meet" x="15.5" y="-482.7"/>
<text text-anchor="start" x="30.5" y="-472.8" font-family="Helvetica,sans-Serif" font-size="11.00" fill="#000000">id</text>
<polygon fill="none" stroke="#000000" points="99.5,-465.7 99.5,-487.7 189.5,-487.7 189.5,-465.7 99.5,-465.7"/>
<text text-anchor="start" x="102.5" y="-473.4" font-family="Helvetica,sans-Serif" font-size="11.00" fill="#000000">serial[10]</text>
<polygon fill="none" stroke="#000000" points="10.5,-443.7 10.5,-465.7 99.5,-465.7 99.5,-443.7 10.5,-443.7"/>
<text text-anchor="start" x="30.5" y="-450.8" font-family="Helvetica,sans-Serif" font-size="11.00" fill="#000000">name</text>
<polygon fill="none" stroke="#000000" points="99.5,-443.7 99.5,-465.7 189.5,-465.7 189.5,-443.7 99.5,-443.7"/>
<text text-anchor="start" x="102.0042" y="-451.4" font-family="Helvetica,sans-Serif" font-size="11.00" fill="#000000">text[2147483647]</text>
<polygon fill="none" stroke="#000000" points="10.5,-421.7 10.5,-443.7 99.5,-443.7 99.5,-421.7 10.5,-421.7"/>
<text text-anchor="start" x="30.5" y="-428.8" font-family="Helvetica,sans-Serif" font-size="11.00" fill="#000000">description</text>
<polygon fill="none" stroke="#000000" points="99.5,-421.7 99.5,-443.7 189.5,-443.7 189.5,-421.7 99.5,-421.7"/>
<text text-anchor="start" x="102.0042" y="-429.4" font-family="Helvetica,sans-Serif" font-size="11.00" fill="#000000">text[2147483647]</text>
<polygon fill="none" stroke="#000000" points="10.5,-399.7 10.5,-421.7 99.5,-421.7 99.5,-399.7 10.5,-399.7"/>
<text text-anchor="start" x="30.5" y="-406.8" font-family="Helvetica,sans-Serif" font-size="11.00" fill="#000000">category</text>
<polygon fill="none" stroke="#000000" points="99.5,-399.7 99.5,-421.7 189.5,-421.7 189.5,-399.7 99.5,-399.7"/>
<text text-anchor="start" x="102.0042" y="-407.4" font-family="Helvetica,sans-Serif" font-size="11.00" fill="#000000">text[2147483647]</text>
<polygon fill="none" stroke="#000000" points="10.5,-377.7 10.5,-399.7 99.5,-399.7 99.5,-377.7 10.5,-377.7"/>
<text text-anchor="start" x="30.5" y="-384.8" font-family="Helvetica,sans-Serif" font-size="11.00" fill="#000000">city</text>
<polygon fill="none" stroke="#000000" points="99.5,-377.7 99.5,-399.7 189.5,-399.7 189.5,-377.7 99.5,-377.7"/>
<text text-anchor="start" x="102.0042" y="-385.4" font-family="Helvetica,sans-Serif" font-size="11.00" fill="#000000">text[2147483647]</text>
<polygon fill="none" stroke="#000000" points="10.5,-355.7 10.5,-377.7 99.5,-377.7 99.5,-355.7 10.5,-355.7"/>
<text text-anchor="start" x="30.5" y="-362.8" font-family="Helvetica,sans-Serif" font-size="11.00" fill="#000000">region</text>
<polygon fill="none" stroke="#000000" points="99.5,-355.7 99.5,-377.7 189.5,-377.7 189.5,-355.7 99.5,-355.7"/>
<text text-anchor="start" x="102.0042" y="-363.4" font-family="Helvetica,sans-Serif" font-size="11.00" fill="#000000">text[2147483647]</text>
<polygon fill="none" stroke="#000000" points="10.5,-333.7 10.5,-355.7 99.5,-355.7 99.5,-333.7 10.5,-333.7"/>
<text text-anchor="start" x="30.5" y="-340.8" font-family="Helvetica,sans-Serif" font-size="11.00" fill="#000000">country</text>
<polygon fill="none" stroke="#000000" points="99.5,-333.7 99.5,-355.7 189.5,-355.7 189.5,-333.7 99.5,-333.7"/>
<text text-anchor="start" x="102.0042" y="-341.4" font-family="Helvetica,sans-Serif" font-size="11.00" fill="#000000">text[2147483647]</text>
<polygon fill="none" stroke="#000000" points="10.5,-311.7 10.5,-333.7 99.5,-333.7 99.5,-311.7 10.5,-311.7"/>
<text text-anchor="start" x="30.5" y="-318.8" font-family="Helvetica,sans-Serif" font-size="11.00" fill="#000000">banner_url</text>
<polygon fill="none" stroke="#000000" points="99.5,-311.7 99.5,-333.7 189.5,-333.7 189.5,-311.7 99.5,-311.7"/>
<text text-anchor="start" x="102.0042" y="-319.4" font-family="Helvetica,sans-Serif" font-size="11.00" fill="#000000">text[2147483647]</text>
<polygon fill="none" stroke="#000000" points="10.5,-289.7 10.5,-311.7 99.5,-311.7 99.5,-289.7 10.5,-289.7"/>
<text text-anchor="start" x="30.5" y="-296.8" font-family="Helvetica,sans-Serif" font-size="11.00" fill="#000000">calendar_id</text>
<polygon fill="none" stroke="#000000" points="99.5,-289.7 99.5,-311.7 189.5,-311.7 189.5,-289.7 99.5,-289.7"/>
<text text-anchor="start" x="102.0042" y="-297.4" font-family="Helvetica,sans-Serif" font-size="11.00" fill="#000000">text[2147483647]</text>
<polygon fill="none" stroke="#000000" points="10.5,-267.7 10.5,-289.7 99.5,-289.7 99.5,-267.7 10.5,-267.7"/>
<text text-anchor="start" x="30.5" y="-274.8" font-family="Helvetica,sans-Serif" font-size="11.00" fill="#000000">chat_url</text>
<polygon fill="none" stroke="#000000" points="99.5,-267.7 99.5,-289.7 189.5,-289.7 189.5,-267.7 99.5,-267.7"/>
<text text-anchor="start" x="102.0042" y="-275.4" font-family="Helvetica,sans-Serif" font-size="11.00" fill="#000000">text[2147483647]</text>
<polygon fill="none" stroke="#000000" points="10.5,-245.7 10.5,-267.7 99.5,-267.7 99.5,-245.7 10.5,-245.7"/>
<text text-anchor="start" x="30.5" y="-252.8" font-family="Helvetica,sans-Serif" font-size="11.00" fill="#000000">creator_id</text>
<polygon fill="none" stroke="#000000" points="99.5,-245.7 99.5,-267.7 189.5,-267.7 189.5,-245.7 99.5,-245.7"/>
<text text-anchor="start" x="102.5" y="-253.4" font-family="Helvetica,sans-Serif" font-size="11.00" fill="#000000">int4[10]</text>
<polygon fill="none" stroke="#000000" points="10.5,-223.7 10.5,-245.7 99.5,-245.7 99.5,-223.7 10.5,-223.7"/>
<text text-anchor="start" x="30.5" y="-230.8" font-family="Helvetica,sans-Serif" font-size="11.00" fill="#000000">logo_url</text>
<polygon fill="none" stroke="#000000" points="99.5,-223.7 99.5,-245.7 189.5,-245.7 189.5,-223.7 99.5,-223.7"/>
<text text-anchor="start" x="102.0042" y="-231.4" font-family="Helvetica,sans-Serif" font-size="11.00" fill="#000000">text[2147483647]</text>
<polygon fill="#ffffff" stroke="transparent" points="10.5,-204.7 10.5,-223.7 46.5,-223.7 46.5,-204.7 10.5,-204.7"/>
<polygon fill="none" stroke="#000000" points="10.5,-204.7 10.5,-223.7 46.5,-223.7 46.5,-204.7 10.5,-204.7"/>
<text text-anchor="start" x="13.5" y="-210.8" font-family="Helvetica,sans-Serif" font-size="11.00" fill="#000000">&lt; 0</text>
<polygon fill="#ffffff" stroke="transparent" points="46.5,-204.7 46.5,-223.7 99.5,-223.7 99.5,-204.7 46.5,-204.7"/>
<polygon fill="none" stroke="#000000" points="46.5,-204.7 46.5,-223.7 99.5,-223.7 99.5,-204.7 46.5,-204.7"/>
<text text-anchor="start" x="64.1105" y="-210.8" font-family="Helvetica,sans-Serif" font-size="11.00" fill="#000000">0 rows</text>
<polygon fill="#ffffff" stroke="transparent" points="99.5,-204.7 99.5,-223.7 189.5,-223.7 189.5,-204.7 99.5,-204.7"/>
<polygon fill="none" stroke="#000000" points="99.5,-204.7 99.5,-223.7 189.5,-223.7 189.5,-204.7 99.5,-204.7"/>
<text text-anchor="start" x="170.9053" y="-210.8" font-family="Helvetica,sans-Serif" font-size="11.00" fill="#000000">4 &gt;</text>
<polygon fill="none" stroke="#000000" stroke-width="2" points="9,-203.7 9,-555.7 190,-555.7 190,-203.7 9,-203.7"/>
</a>
</g>
</g>
<!-- chapter_users&#45;&gt;chapters -->
<g id="edge1" class="edge">
<title>chapter_users:w&#45;&gt;chapters:e</title>
<path fill="none" stroke="#000000" d="M225.5379,-221.3412C140.029,-243.2291 300.4499,-476.7 189.5,-476.7"/>
<polygon fill="#000000" stroke="#000000" points="232.051,-220.6021 240.4059,-223.277 236.0255,-220.151 240,-219.7 240,-219.7 240,-219.7 236.0255,-220.151 239.5941,-216.123 232.051,-220.6021 232.051,-220.6021"/>
<ellipse fill="none" stroke="#000000" cx="228.8714" cy="-220.9629" rx="3.2" ry="3.2"/>
</g>
<!-- chapter_roles -->
<g id="node3" class="node">
<title>chapter_roles</title>
<g id="a_node3"><a xlink:href="../../tables/chapter_roles.html" xlink:title="chapter_roles" target="_top">
<polygon fill="#ffffff" stroke="transparent" points="45,-38.2 45,-99.2 154,-99.2 154,-38.2 45,-38.2"/>
<polygon fill="#f5f5f5" stroke="transparent" points="45.5,-75.7 45.5,-98.7 154.5,-98.7 154.5,-75.7 45.5,-75.7"/>
<polygon fill="none" stroke="#000000" points="45.5,-75.7 45.5,-98.7 154.5,-98.7 154.5,-75.7 45.5,-75.7"/>
<text text-anchor="start" x="50.1871" y="-84.8" font-family="Helvetica,sans-Serif" font-weight="bold" font-size="11.00" fill="#000000">chapter_roles</text>
<text text-anchor="start" x="120.0219" y="-83.8" font-family="Helvetica,sans-Serif" font-size="11.00" fill="#000000">[table]</text>
<polygon fill="none" stroke="#000000" points="45.5,-56.7 45.5,-75.7 154.5,-75.7 154.5,-56.7 45.5,-56.7"/>
<text text-anchor="start" x="48.5" y="-62.8" font-family="Helvetica,sans-Serif" font-size="11.00" fill="#000000">...</text>
<polygon fill="#ffffff" stroke="transparent" points="45.5,-37.7 45.5,-56.7 76.5,-56.7 76.5,-37.7 45.5,-37.7"/>
<polygon fill="none" stroke="#000000" points="45.5,-37.7 45.5,-56.7 76.5,-56.7 76.5,-37.7 45.5,-37.7"/>
<text text-anchor="start" x="48.5" y="-43.8" font-family="Helvetica,sans-Serif" font-size="11.00" fill="#000000"> &#160;</text>
<polygon fill="#ffffff" stroke="transparent" points="76.5,-37.7 76.5,-56.7 123.5,-56.7 123.5,-37.7 76.5,-37.7"/>
<polygon fill="none" stroke="#000000" points="76.5,-37.7 76.5,-56.7 123.5,-56.7 123.5,-37.7 76.5,-37.7"/>
<text text-anchor="start" x="88.1105" y="-43.8" font-family="Helvetica,sans-Serif" font-size="11.00" fill="#000000">0 rows</text>
<polygon fill="#ffffff" stroke="transparent" points="123.5,-37.7 123.5,-56.7 154.5,-56.7 154.5,-37.7 123.5,-37.7"/>
<polygon fill="none" stroke="#000000" points="123.5,-37.7 123.5,-56.7 154.5,-56.7 154.5,-37.7 123.5,-37.7"/>
<text text-anchor="start" x="135.9053" y="-43.8" font-family="Helvetica,sans-Serif" font-size="11.00" fill="#000000">2 &gt;</text>
</a>
</g>
</g>
<!-- chapter_users&#45;&gt;chapter_roles -->
<g id="edge2" class="edge">
<title>chapter_users:w&#45;&gt;chapter_roles:e</title>
<path fill="none" stroke="#000000" d="M225.6189,-194.7674C203.4182,-183.217 220.349,-140.0175 199,-109.7 182.9864,-86.9592 182.3133,-65.7 154.5,-65.7"/>
<polygon fill="#000000" stroke="#000000" points="232.1613,-196.1015 239.2807,-201.2274 236.0807,-196.9007 240,-197.7 240,-197.7 240,-197.7 236.0807,-196.9007 240.7193,-194.1726 232.1613,-196.1015 232.1613,-196.1015"/>
<ellipse fill="none" stroke="#000000" cx="229.0259" cy="-195.4621" rx="3.2" ry="3.2"/>
</g>
<!-- users -->
<g id="node4" class="node">
<title>users</title>
<g id="a_node4"><a xlink:href="../../tables/users.html" xlink:title="users" target="_top">
<polygon fill="#ffffff" stroke="transparent" points="59.5,-120.2 59.5,-181.2 139.5,-181.2 139.5,-120.2 59.5,-120.2"/>
<polygon fill="#f5f5f5" stroke="transparent" points="59.5,-157.7 59.5,-180.7 139.5,-180.7 139.5,-157.7 59.5,-157.7"/>
<polygon fill="none" stroke="#000000" points="59.5,-157.7 59.5,-180.7 139.5,-180.7 139.5,-157.7 59.5,-157.7"/>
<text text-anchor="start" x="64.5" y="-166.8" font-family="Helvetica,sans-Serif" font-weight="bold" font-size="11.00" fill="#000000">users</text>
<text text-anchor="start" x="104.5437" y="-165.8" font-family="Helvetica,sans-Serif" font-size="11.00" fill="#000000">[table]</text>
<polygon fill="none" stroke="#000000" points="59.5,-138.7 59.5,-157.7 139.5,-157.7 139.5,-138.7 59.5,-138.7"/>
<text text-anchor="start" x="62.5" y="-144.8" font-family="Helvetica,sans-Serif" font-size="11.00" fill="#000000">...</text>
<polygon fill="#ffffff" stroke="transparent" points="59.5,-119.7 59.5,-138.7 80.5,-138.7 80.5,-119.7 59.5,-119.7"/>
<polygon fill="none" stroke="#000000" points="59.5,-119.7 59.5,-138.7 80.5,-138.7 80.5,-119.7 59.5,-119.7"/>
<text text-anchor="start" x="62.2027" y="-125.8" font-family="Helvetica,sans-Serif" font-size="11.00" fill="#000000">&lt; 1</text>
<polygon fill="#ffffff" stroke="transparent" points="80.5,-119.7 80.5,-138.7 118.5,-138.7 118.5,-119.7 80.5,-119.7"/>
<polygon fill="none" stroke="#000000" points="80.5,-119.7 80.5,-138.7 118.5,-138.7 118.5,-119.7 80.5,-119.7"/>
<text text-anchor="start" x="83.3053" y="-125.8" font-family="Helvetica,sans-Serif" font-size="11.00" fill="#000000">0 rows</text>
<polygon fill="#ffffff" stroke="transparent" points="118.5,-119.7 118.5,-138.7 139.5,-138.7 139.5,-119.7 118.5,-119.7"/>
<polygon fill="none" stroke="#000000" points="118.5,-119.7 118.5,-138.7 139.5,-138.7 139.5,-119.7 118.5,-119.7"/>
<text text-anchor="start" x="121.2027" y="-125.8" font-family="Helvetica,sans-Serif" font-size="11.00" fill="#000000">4 &gt;</text>
</a>
</g>
</g>
<!-- chapter_users&#45;&gt;users -->
<g id="edge3" class="edge">
<title>chapter_users:w&#45;&gt;users:e</title>
<path fill="none" stroke="#000000" d="M225.7971,-237.7903C213.6014,-228.9871 215.2681,-207.1733 199,-191.7 175.1686,-169.033 172.3896,-147.7 139.5,-147.7"/>
<polygon fill="#000000" stroke="#000000" points="232.2869,-239.5767 239.0445,-245.1709 236.1435,-240.6384 240,-241.7 240,-241.7 240,-241.7 236.1435,-240.6384 240.9555,-238.2291 232.2869,-239.5767 232.2869,-239.5767"/>
<ellipse fill="none" stroke="#000000" cx="229.2017" cy="-238.7274" rx="3.2" ry="3.2"/>
</g>
<!-- event_sponsors -->
<g id="node5" class="node">
<title>event_sponsors</title>
<g id="a_node5"><a xlink:href="../../tables/event_sponsors.html" xlink:title="event_sponsors" target="_top">
<polygon fill="#ffffff" stroke="transparent" points="578,-402.2 578,-463.2 698,-463.2 698,-402.2 578,-402.2"/>
<polygon fill="#f5f5f5" stroke="transparent" points="578,-439.7 578,-462.7 698,-462.7 698,-439.7 578,-439.7"/>
<polygon fill="none" stroke="#000000" points="578,-439.7 578,-462.7 698,-462.7 698,-439.7 578,-439.7"/>
<text text-anchor="start" x="582.681" y="-448.8" font-family="Helvetica,sans-Serif" font-weight="bold" font-size="11.00" fill="#000000">event_sponsors</text>
<text text-anchor="start" x="663.5219" y="-447.8" font-family="Helvetica,sans-Serif" font-size="11.00" fill="#000000">[table]</text>
<polygon fill="none" stroke="#000000" points="578,-420.7 578,-439.7 698,-439.7 698,-420.7 578,-420.7"/>
<text text-anchor="start" x="581" y="-426.8" font-family="Helvetica,sans-Serif" font-size="11.00" fill="#000000">...</text>
<polygon fill="#ffffff" stroke="transparent" points="578,-401.7 578,-420.7 623,-420.7 623,-401.7 578,-401.7"/>
<polygon fill="none" stroke="#000000" points="578,-401.7 578,-420.7 623,-420.7 623,-401.7 578,-401.7"/>
<text text-anchor="start" x="581" y="-407.8" font-family="Helvetica,sans-Serif" font-size="11.00" fill="#000000">&lt; 2</text>
<polygon fill="#ffffff" stroke="transparent" points="623,-401.7 623,-420.7 673,-420.7 673,-401.7 623,-401.7"/>
<polygon fill="none" stroke="#000000" points="623,-401.7 623,-420.7 673,-420.7 673,-401.7 623,-401.7"/>
<text text-anchor="start" x="637.6105" y="-407.8" font-family="Helvetica,sans-Serif" font-size="11.00" fill="#000000">0 rows</text>
<polygon fill="#ffffff" stroke="transparent" points="673,-401.7 673,-420.7 698,-420.7 698,-401.7 673,-401.7"/>
<polygon fill="none" stroke="#000000" points="673,-401.7 673,-420.7 698,-420.7 698,-401.7 673,-401.7"/>
<text text-anchor="start" x="688.8862" y="-407.8" font-family="Helvetica,sans-Serif" font-size="11.00" fill="#000000"> &#160;</text>
</a>
</g>
</g>
<!-- events -->
<g id="node6" class="node">
<title>events</title>
<g id="a_node6"><a xlink:href="../../tables/events.html" xlink:title="events" target="_top">
<polygon fill="#ffffff" stroke="transparent" points="401,-378.2 401,-505.2 529,-505.2 529,-378.2 401,-378.2"/>
<polygon fill="#f5f5f5" stroke="transparent" points="401,-481.7 401,-504.7 529,-504.7 529,-481.7 401,-481.7"/>
<polygon fill="none" stroke="#000000" points="401,-481.7 401,-504.7 529,-504.7 529,-481.7 401,-481.7"/>
<text text-anchor="start" x="406" y="-490.8" font-family="Helvetica,sans-Serif" font-weight="bold" font-size="11.00" fill="#000000">events</text>
<text text-anchor="start" x="494.0437" y="-489.8" font-family="Helvetica,sans-Serif" font-size="11.00" fill="#000000">[table]</text>
<polygon fill="none" stroke="#000000" points="401,-459.7 401,-481.7 529,-481.7 529,-459.7 401,-459.7"/>
<image xlink:href="../../images/primaryKeys.png" width="11px" height="12px" preserveAspectRatio="xMinYMin meet" x="406" y="-476.7"/>
<text text-anchor="start" x="421" y="-466.8" font-family="Helvetica,sans-Serif" font-size="11.00" fill="#000000">id</text>
<polygon fill="none" stroke="#000000" points="401,-437.7 401,-459.7 529,-459.7 529,-437.7 401,-437.7"/>
<image xlink:href="../../images/foreignKeys.png" width="11px" height="12px" preserveAspectRatio="xMinYMin meet" x="406" y="-454.7"/>
<text text-anchor="start" x="421" y="-444.8" font-family="Helvetica,sans-Serif" font-size="11.00" fill="#000000">venue_id</text>
<polygon fill="none" stroke="#000000" points="401,-415.7 401,-437.7 529,-437.7 529,-415.7 401,-415.7"/>
<image xlink:href="../../images/foreignKeys.png" width="11px" height="12px" preserveAspectRatio="xMinYMin meet" x="406" y="-432.7"/>
<text text-anchor="start" x="421" y="-422.8" font-family="Helvetica,sans-Serif" font-size="11.00" fill="#000000">chapter_id</text>
<polygon fill="none" stroke="#000000" points="401,-396.7 401,-415.7 529,-415.7 529,-396.7 401,-396.7"/>
<text text-anchor="start" x="404" y="-402.8" font-family="Helvetica,sans-Serif" font-size="11.00" fill="#000000">...</text>
<polygon fill="#ffffff" stroke="transparent" points="401,-377.7 401,-396.7 446,-396.7 446,-377.7 401,-377.7"/>
<polygon fill="none" stroke="#000000" points="401,-377.7 401,-396.7 446,-396.7 446,-377.7 401,-377.7"/>
<text text-anchor="start" x="404" y="-383.8" font-family="Helvetica,sans-Serif" font-size="11.00" fill="#000000">&lt; 2</text>
<polygon fill="#ffffff" stroke="transparent" points="446,-377.7 446,-396.7 496,-396.7 496,-377.7 446,-377.7"/>
<polygon fill="none" stroke="#000000" points="446,-377.7 446,-396.7 496,-396.7 496,-377.7 446,-377.7"/>
<text text-anchor="start" x="460.6105" y="-383.8" font-family="Helvetica,sans-Serif" font-size="11.00" fill="#000000">0 rows</text>
<polygon fill="#ffffff" stroke="transparent" points="496,-377.7 496,-396.7 529,-396.7 529,-377.7 496,-377.7"/>
<polygon fill="none" stroke="#000000" points="496,-377.7 496,-396.7 529,-396.7 529,-377.7 496,-377.7"/>
<text text-anchor="start" x="510.4053" y="-383.8" font-family="Helvetica,sans-Serif" font-size="11.00" fill="#000000">3 &gt;</text>
</a>
</g>
</g>
<!-- event_sponsors&#45;&gt;events -->
<g id="edge4" class="edge">
<title>event_sponsors:w&#45;&gt;events:e</title>
<path fill="none" stroke="#000000" d="M564.1819,-434.4032C551.2811,-445.1726 551.4061,-470.7 529,-470.7"/>
<polygon fill="#000000" stroke="#000000" points="570.4267,-432.2778 579.16,-433.108 574.2133,-430.9889 578,-429.7 578,-429.7 578,-429.7 574.2133,-430.9889 576.84,-426.292 570.4267,-432.2778 570.4267,-432.2778"/>
<ellipse fill="none" stroke="#000000" cx="567.3973" cy="-433.3089" rx="3.2" ry="3.2"/>
</g>
<!-- events&#45;&gt;chapters -->
<g id="edge8" class="edge">
<title>events:w&#45;&gt;chapters:e</title>
<path fill="none" stroke="#000000" d="M386.2327,-426.5106C322.137,-424.8748 296.8709,-413.8282 232,-440.7 209.1299,-450.1736 214.2546,-476.7 189.5,-476.7"/>
<polygon fill="#000000" stroke="#000000" points="393.0007,-426.5974 400.9538,-430.2997 397.0003,-426.6487 401,-426.7 401,-426.7 401,-426.7 397.0003,-426.6487 401.0462,-423.1003 393.0007,-426.5974 393.0007,-426.5974"/>
<ellipse fill="none" stroke="#000000" cx="389.8009" cy="-426.5563" rx="3.2" ry="3.2"/>
</g>
<!-- venues -->
<g id="node9" class="node">
<title>venues</title>
<g id="a_node9"><a xlink:href="../../tables/venues.html" xlink:title="venues" target="_top">
<polygon fill="#ffffff" stroke="transparent" points="242,-451.2 242,-556.2 350,-556.2 350,-451.2 242,-451.2"/>
<polygon fill="#f5f5f5" stroke="transparent" points="242,-532.7 242,-555.7 350,-555.7 350,-532.7 242,-532.7"/>
<polygon fill="none" stroke="#000000" points="242,-532.7 242,-555.7 350,-555.7 350,-532.7 242,-532.7"/>
<text text-anchor="start" x="247" y="-541.8" font-family="Helvetica,sans-Serif" font-weight="bold" font-size="11.00" fill="#000000">venues</text>
<text text-anchor="start" x="315.0437" y="-540.8" font-family="Helvetica,sans-Serif" font-size="11.00" fill="#000000">[table]</text>
<polygon fill="none" stroke="#000000" points="242,-510.7 242,-532.7 350,-532.7 350,-510.7 242,-510.7"/>
<image xlink:href="../../images/primaryKeys.png" width="11px" height="12px" preserveAspectRatio="xMinYMin meet" x="247" y="-527.7"/>
<text text-anchor="start" x="262" y="-517.8" font-family="Helvetica,sans-Serif" font-size="11.00" fill="#000000">id</text>
<polygon fill="none" stroke="#000000" points="242,-488.7 242,-510.7 350,-510.7 350,-488.7 242,-488.7"/>
<image xlink:href="../../images/foreignKeys.png" width="11px" height="12px" preserveAspectRatio="xMinYMin meet" x="247" y="-505.7"/>
<text text-anchor="start" x="262" y="-495.8" font-family="Helvetica,sans-Serif" font-size="11.00" fill="#000000">chapter_id</text>
<polygon fill="none" stroke="#000000" points="242,-469.7 242,-488.7 350,-488.7 350,-469.7 242,-469.7"/>
<text text-anchor="start" x="245" y="-475.8" font-family="Helvetica,sans-Serif" font-size="11.00" fill="#000000">...</text>
<polygon fill="#ffffff" stroke="transparent" points="242,-450.7 242,-469.7 277,-469.7 277,-450.7 242,-450.7"/>
<polygon fill="none" stroke="#000000" points="242,-450.7 242,-469.7 277,-469.7 277,-450.7 242,-450.7"/>
<text text-anchor="start" x="245" y="-456.8" font-family="Helvetica,sans-Serif" font-size="11.00" fill="#000000">&lt; 1</text>
<polygon fill="#ffffff" stroke="transparent" points="277,-450.7 277,-469.7 322,-469.7 322,-450.7 277,-450.7"/>
<polygon fill="none" stroke="#000000" points="277,-450.7 277,-469.7 322,-469.7 322,-450.7 277,-450.7"/>
<text text-anchor="start" x="286.6105" y="-456.8" font-family="Helvetica,sans-Serif" font-size="11.00" fill="#000000">0 rows</text>
<polygon fill="#ffffff" stroke="transparent" points="322,-450.7 322,-469.7 350,-469.7 350,-450.7 322,-450.7"/>
<polygon fill="none" stroke="#000000" points="322,-450.7 322,-469.7 350,-469.7 350,-450.7 322,-450.7"/>
<text text-anchor="start" x="331.4053" y="-456.8" font-family="Helvetica,sans-Serif" font-size="11.00" fill="#000000">1 &gt;</text>
</a>
</g>
</g>
<!-- events&#45;&gt;venues -->
<g id="edge9" class="edge">
<title>events:w&#45;&gt;venues:e</title>
<path fill="none" stroke="#000000" d="M387.1487,-453.2665C368.4288,-469.248 383.5486,-521.7 350,-521.7"/>
<polygon fill="#000000" stroke="#000000" points="393.4022,-451.2049 402.1272,-452.119 397.2011,-449.9524 401,-448.7 401,-448.7 401,-448.7 397.2011,-449.9524 399.8728,-445.281 393.4022,-451.2049 393.4022,-451.2049"/>
<ellipse fill="none" stroke="#000000" cx="390.3631" cy="-452.2068" rx="3.2" ry="3.2"/>
</g>
<!-- event_tags -->
<g id="node7" class="node">
<title>event_tags</title>
<g id="a_node7"><a xlink:href="../../tables/event_tags.html" xlink:title="event_tags" target="_top">
<polygon fill="#ffffff" stroke="transparent" points="590,-484.2 590,-545.2 686,-545.2 686,-484.2 590,-484.2"/>
<polygon fill="#f5f5f5" stroke="transparent" points="590,-521.7 590,-544.7 686,-544.7 686,-521.7 590,-521.7"/>
<polygon fill="none" stroke="#000000" points="590,-521.7 590,-544.7 686,-544.7 686,-521.7 590,-521.7"/>
<text text-anchor="start" x="594.5984" y="-530.8" font-family="Helvetica,sans-Serif" font-weight="bold" font-size="11.00" fill="#000000">event_tags</text>
<text text-anchor="start" x="651.5219" y="-529.8" font-family="Helvetica,sans-Serif" font-size="11.00" fill="#000000">[table]</text>
<polygon fill="none" stroke="#000000" points="590,-502.7 590,-521.7 686,-521.7 686,-502.7 590,-502.7"/>
<text text-anchor="start" x="593" y="-508.8" font-family="Helvetica,sans-Serif" font-size="11.00" fill="#000000">...</text>
<polygon fill="#ffffff" stroke="transparent" points="590,-483.7 590,-502.7 623,-502.7 623,-483.7 590,-483.7"/>
<polygon fill="none" stroke="#000000" points="590,-483.7 590,-502.7 623,-502.7 623,-483.7 590,-483.7"/>
<text text-anchor="start" x="593" y="-489.8" font-family="Helvetica,sans-Serif" font-size="11.00" fill="#000000">&lt; 2</text>
<polygon fill="#ffffff" stroke="transparent" points="623,-483.7 623,-502.7 667,-502.7 667,-483.7 623,-483.7"/>
<polygon fill="none" stroke="#000000" points="623,-483.7 623,-502.7 667,-502.7 667,-483.7 623,-483.7"/>
<text text-anchor="start" x="631.6105" y="-489.8" font-family="Helvetica,sans-Serif" font-size="11.00" fill="#000000">0 rows</text>
<polygon fill="#ffffff" stroke="transparent" points="667,-483.7 667,-502.7 686,-502.7 686,-483.7 667,-483.7"/>
<polygon fill="none" stroke="#000000" points="667,-483.7 667,-502.7 686,-502.7 686,-483.7 667,-483.7"/>
<text text-anchor="start" x="676.8862" y="-489.8" font-family="Helvetica,sans-Serif" font-size="11.00" fill="#000000"> &#160;</text>
</a>
</g>
</g>
<!-- event_tags&#45;&gt;events -->
<g id="edge5" class="edge">
<title>event_tags:w&#45;&gt;events:e</title>
<path fill="none" stroke="#000000" d="M575.8015,-508.3448C557.7138,-498.5528 555.9239,-470.7 529,-470.7"/>
<polygon fill="#000000" stroke="#000000" points="582.2144,-509.8602 589.1721,-515.2035 586.1072,-510.7801 590,-511.7 590,-511.7 590,-511.7 586.1072,-510.7801 590.8279,-508.1965 582.2144,-509.8602 582.2144,-509.8602"/>
<ellipse fill="none" stroke="#000000" cx="579.1002" cy="-509.1242" rx="3.2" ry="3.2"/>
</g>
<!-- event_users -->
<g id="node8" class="node">
<title>event_users</title>
<g id="a_node8"><a xlink:href="../../tables/event_users.html" xlink:title="event_users" target="_top">
<polygon fill="#ffffff" stroke="transparent" points="587,-188.2 587,-249.2 689,-249.2 689,-188.2 587,-188.2"/>
<polygon fill="#f5f5f5" stroke="transparent" points="587,-225.7 587,-248.7 689,-248.7 689,-225.7 587,-225.7"/>
<polygon fill="none" stroke="#000000" points="587,-225.7 587,-248.7 689,-248.7 689,-225.7 587,-225.7"/>
<text text-anchor="start" x="591.5459" y="-234.8" font-family="Helvetica,sans-Serif" font-weight="bold" font-size="11.00" fill="#000000">event_users</text>
<text text-anchor="start" x="654.5219" y="-233.8" font-family="Helvetica,sans-Serif" font-size="11.00" fill="#000000">[table]</text>
<polygon fill="none" stroke="#000000" points="587,-206.7 587,-225.7 689,-225.7 689,-206.7 587,-206.7"/>
<text text-anchor="start" x="590" y="-212.8" font-family="Helvetica,sans-Serif" font-size="11.00" fill="#000000">...</text>
<polygon fill="#ffffff" stroke="transparent" points="587,-187.7 587,-206.7 619,-206.7 619,-187.7 587,-187.7"/>
<polygon fill="none" stroke="#000000" points="587,-187.7 587,-206.7 619,-206.7 619,-187.7 587,-187.7"/>
<text text-anchor="start" x="590" y="-193.8" font-family="Helvetica,sans-Serif" font-size="11.00" fill="#000000">&lt; 4</text>
<polygon fill="#ffffff" stroke="transparent" points="619,-187.7 619,-206.7 662,-206.7 662,-187.7 619,-187.7"/>
<polygon fill="none" stroke="#000000" points="619,-187.7 619,-206.7 662,-206.7 662,-187.7 619,-187.7"/>
<text text-anchor="start" x="626.6105" y="-193.8" font-family="Helvetica,sans-Serif" font-size="11.00" fill="#000000">0 rows</text>
<polygon fill="#ffffff" stroke="transparent" points="662,-187.7 662,-206.7 689,-206.7 689,-187.7 662,-187.7"/>
<polygon fill="none" stroke="#000000" points="662,-187.7 662,-206.7 689,-206.7 689,-187.7 662,-187.7"/>
<text text-anchor="start" x="670.4053" y="-193.8" font-family="Helvetica,sans-Serif" font-size="11.00" fill="#000000">2 &gt;</text>
</a>
</g>
</g>
<!-- event_users&#45;&gt;users -->
<g id="edge7" class="edge">
<title>event_users:w&#45;&gt;users:e</title>
<path fill="none" stroke="#000000" d="M572.6009,-215.3173C478.8285,-210.2001 460.1869,-155.2295 360,-138.7 303.8699,-129.4393 288.822,-135.9422 232,-138.7 190.7433,-140.7024 180.8052,-147.7 139.5,-147.7"/>
<polygon fill="#000000" stroke="#000000" points="579.0028,-215.4874 586.9043,-219.2987 583.0014,-215.5937 587,-215.7 587,-215.7 587,-215.7 583.0014,-215.5937 587.0957,-212.1013 579.0028,-215.4874 579.0028,-215.4874"/>
<ellipse fill="none" stroke="#000000" cx="575.804" cy="-215.4023" rx="3.2" ry="3.2"/>
</g>
<!-- event_users&#45;&gt;events -->
<g id="edge6" class="edge">
<title>event_users:w&#45;&gt;events:e</title>
<path fill="none" stroke="#000000" d="M573.5313,-222.0034C538.7812,-261.2713 581.6658,-470.7 529,-470.7"/>
<polygon fill="#000000" stroke="#000000" points="579.7543,-219.0911 588.526,-218.9606 583.3771,-217.3955 587,-215.7 587,-215.7 587,-215.7 583.3771,-217.3955 585.474,-212.4394 579.7543,-219.0911 579.7543,-219.0911"/>
<ellipse fill="none" stroke="#000000" cx="576.856" cy="-220.4475" rx="3.2" ry="3.2"/>
</g>
<!-- venues&#45;&gt;chapters -->
<g id="edge12" class="edge">
<title>venues:w&#45;&gt;chapters:e</title>
<path fill="none" stroke="#000000" d="M227.8129,-496.6932C214.5948,-490.4587 209.2028,-476.7 189.5,-476.7"/>
<polygon fill="#000000" stroke="#000000" points="234.1738,-498.0413 241.2536,-503.2218 238.0869,-498.8706 242,-499.7 242,-499.7 242,-499.7 238.0869,-498.8706 242.7464,-496.1782 234.1738,-498.0413 234.1738,-498.0413"/>
<ellipse fill="none" stroke="#000000" cx="231.0434" cy="-497.3778" rx="3.2" ry="3.2"/>
</g>
<!-- user_bans -->
<g id="node10" class="node">
<title>user_bans</title>
<g id="a_node10"><a xlink:href="../../tables/user_bans.html" xlink:title="user_bans" target="_top">
<polygon fill="#ffffff" stroke="transparent" points="249,-297.2 249,-402.2 343,-402.2 343,-297.2 249,-297.2"/>
<polygon fill="#f5f5f5" stroke="transparent" points="249,-378.7 249,-401.7 343,-401.7 343,-378.7 249,-378.7"/>
<polygon fill="none" stroke="#000000" points="249,-378.7 249,-401.7 343,-401.7 343,-378.7 249,-378.7"/>
<text text-anchor="start" x="253.8244" y="-387.8" font-family="Helvetica,sans-Serif" font-weight="bold" font-size="11.00" fill="#000000">user_bans</text>
<text text-anchor="start" x="308.5219" y="-386.8" font-family="Helvetica,sans-Serif" font-size="11.00" fill="#000000">[table]</text>
<polygon fill="none" stroke="#000000" points="249,-356.7 249,-378.7 343,-378.7 343,-356.7 249,-356.7"/>
<image xlink:href="../../images/primaryKeys.png" width="11px" height="12px" preserveAspectRatio="xMinYMin meet" x="254" y="-373.7"/>
<text text-anchor="start" x="272" y="-363.8" font-family="Helvetica,sans-Serif" font-size="11.00" fill="#000000">user_id</text>
<polygon fill="none" stroke="#000000" points="249,-334.7 249,-356.7 343,-356.7 343,-334.7 249,-334.7"/>
<image xlink:href="../../images/primaryKeys.png" width="11px" height="12px" preserveAspectRatio="xMinYMin meet" x="254" y="-351.7"/>
<text text-anchor="start" x="272" y="-341.8" font-family="Helvetica,sans-Serif" font-size="11.00" fill="#000000">chapter_id</text>
<polygon fill="none" stroke="#000000" points="249,-315.7 249,-334.7 343,-334.7 343,-315.7 249,-315.7"/>
<text text-anchor="start" x="252" y="-321.8" font-family="Helvetica,sans-Serif" font-size="11.00" fill="#000000">...</text>
<polygon fill="#ffffff" stroke="transparent" points="249,-296.7 249,-315.7 281,-315.7 281,-296.7 249,-296.7"/>
<polygon fill="none" stroke="#000000" points="249,-296.7 249,-315.7 281,-315.7 281,-296.7 249,-296.7"/>
<text text-anchor="start" x="252" y="-302.8" font-family="Helvetica,sans-Serif" font-size="11.00" fill="#000000">&lt; 2</text>
<polygon fill="#ffffff" stroke="transparent" points="281,-296.7 281,-315.7 325,-315.7 325,-296.7 281,-296.7"/>
<polygon fill="none" stroke="#000000" points="281,-296.7 281,-315.7 325,-315.7 325,-296.7 281,-296.7"/>
<text text-anchor="start" x="289.6105" y="-302.8" font-family="Helvetica,sans-Serif" font-size="11.00" fill="#000000">0 rows</text>
<polygon fill="#ffffff" stroke="transparent" points="325,-296.7 325,-315.7 343,-315.7 343,-296.7 325,-296.7"/>
<polygon fill="none" stroke="#000000" points="325,-296.7 325,-315.7 343,-315.7 343,-296.7 325,-296.7"/>
<text text-anchor="start" x="333.8862" y="-302.8" font-family="Helvetica,sans-Serif" font-size="11.00" fill="#000000"> &#160;</text>
</a>
</g>
</g>
<!-- user_bans&#45;&gt;chapters -->
<g id="edge10" class="edge">
<title>user_bans:w&#45;&gt;chapters:e</title>
<path fill="none" stroke="#000000" d="M234.7772,-348.6823C196.2747,-368.1816 247.7012,-476.7 189.5,-476.7"/>
<polygon fill="#000000" stroke="#000000" points="241.1703,-347.3418 249.7388,-349.2234 245.0851,-346.5209 249,-345.7 249,-345.7 249,-345.7 245.0851,-346.5209 248.2612,-342.1766 241.1703,-347.3418 241.1703,-347.3418"/>
<ellipse fill="none" stroke="#000000" cx="238.0384" cy="-347.9985" rx="3.2" ry="3.2"/>
</g>
<!-- user_bans&#45;&gt;users -->
<g id="edge11" class="edge">
<title>user_bans:w&#45;&gt;users:e</title>
<path fill="none" stroke="#000000" d="M234.461,-366.2184C177.7125,-352.9766 242.1152,-253.9934 199,-191.7 180.2821,-164.6562 172.3896,-147.7 139.5,-147.7"/>
<polygon fill="#000000" stroke="#000000" points="241.0412,-366.8889 248.635,-371.2815 245.0206,-367.2945 249,-367.7 249,-367.7 249,-367.7 245.0206,-367.2945 249.365,-364.1185 241.0412,-366.8889 241.0412,-366.8889"/>
<ellipse fill="none" stroke="#000000" cx="237.8577" cy="-366.5645" rx="3.2" ry="3.2"/>
</g>
</g>
</svg>
