<?xml version="1.0" encoding="UTF-8" standalone="no"?>
<!DOCTYPE svg PUBLIC "-//W3C//DTD SVG 1.1//EN"
 "http://www.w3.org/Graphics/SVG/1.1/DTD/svg11.dtd">
<!-- Generated by graphviz version 2.40.1 (20161225.0304)
 -->
<!-- Title: twoDegreesRelationshipsDiagram Pages: 1 -->
<svg width="714pt" height="557pt"
 viewBox="0.00 0.00 714.00 557.20" xmlns="http://www.w3.org/2000/svg" xmlns:xlink="http://www.w3.org/1999/xlink">
<g id="graph0" class="graph" transform="scale(1 1) rotate(0) translate(4 553.2)">
<title>twoDegreesRelationshipsDiagram</title>
<polygon fill="#ffffff" stroke="transparent" points="-4,4 -4,-553.2 710,-553.2 710,4 -4,4"/>
<text text-anchor="middle" x="72.4936" y="-7.3" font-family="Helvetica,sans-Serif" font-size="11.00" fill="#000000">Generated by SchemaSpy</text>
<!-- chapter_users -->
<g id="node1" class="node">
<title>chapter_users</title>
<g id="a_node1"><a xlink:href="../../tables/chapter_users.html" xlink:title="chapter_users" target="_top">
<polygon fill="#ffffff" stroke="transparent" points="240,-138.2 240,-265.2 352,-265.2 352,-138.2 240,-138.2"/>
<polygon fill="#f5f5f5" stroke="transparent" points="240,-241.7 240,-264.7 352,-264.7 352,-241.7 240,-241.7"/>
<polygon fill="none" stroke="#000000" points="240,-241.7 240,-264.7 352,-264.7 352,-241.7 240,-241.7"/>
<text text-anchor="start" x="244.6575" y="-250.8" font-family="Helvetica,sans-Serif" font-weight="bold" font-size="11.00" fill="#000000">chapter_users</text>
<text text-anchor="start" x="317.5219" y="-249.8" font-family="Helvetica,sans-Serif" font-size="11.00" fill="#000000">[table]</text>
<polygon fill="none" stroke="#000000" points="240,-219.7 240,-241.7 352,-241.7 352,-219.7 240,-219.7"/>
<image xlink:href="../../images/primaryKeys.png" width="11px" height="12px" preserveAspectRatio="xMinYMin meet" x="245" y="-236.7"/>
<text text-anchor="start" x="260" y="-226.8" font-family="Helvetica,sans-Serif" font-size="11.00" fill="#000000">user_id</text>
<polygon fill="none" stroke="#000000" points="240,-197.7 240,-219.7 352,-219.7 352,-197.7 240,-197.7"/>
<image xlink:href="../../images/primaryKeys.png" width="11px" height="12px" preserveAspectRatio="xMinYMin meet" x="245" y="-214.7"/>
<text text-anchor="start" x="260" y="-204.8" font-family="Helvetica,sans-Serif" font-size="11.00" fill="#000000">chapter_id</text>
<polygon fill="none" stroke="#000000" points="240,-175.7 240,-197.7 352,-197.7 352,-175.7 240,-175.7"/>
<image xlink:href="../../images/foreignKeys.png" width="11px" height="12px" preserveAspectRatio="xMinYMin meet" x="245" y="-192.7"/>
<text text-anchor="start" x="260" y="-182.8" font-family="Helvetica,sans-Serif" font-size="11.00" fill="#000000">chapter_role_id</text>
<polygon fill="none" stroke="#000000" points="240,-156.7 240,-175.7 352,-175.7 352,-156.7 240,-156.7"/>
<text text-anchor="start" x="243" y="-162.8" font-family="Helvetica,sans-Serif" font-size="11.00" fill="#000000">...</text>
<polygon fill="#ffffff" stroke="transparent" points="240,-137.7 240,-156.7 281,-156.7 281,-137.7 240,-137.7"/>
<polygon fill="none" stroke="#000000" points="240,-137.7 240,-156.7 281,-156.7 281,-137.7 240,-137.7"/>
<text text-anchor="start" x="243" y="-143.8" font-family="Helvetica,sans-Serif" font-size="11.00" fill="#000000">&lt; 3</text>
<polygon fill="#ffffff" stroke="transparent" points="281,-137.7 281,-156.7 329,-156.7 329,-137.7 281,-137.7"/>
<polygon fill="none" stroke="#000000" points="281,-137.7 281,-156.7 329,-156.7 329,-137.7 281,-137.7"/>
<text text-anchor="start" x="293.6105" y="-143.8" font-family="Helvetica,sans-Serif" font-size="11.00" fill="#000000">0 rows</text>
<polygon fill="#ffffff" stroke="transparent" points="329,-137.7 329,-156.7 352,-156.7 352,-137.7 329,-137.7"/>
<polygon fill="none" stroke="#000000" points="329,-137.7 329,-156.7 352,-156.7 352,-137.7 329,-137.7"/>
<text text-anchor="start" x="342.8862" y="-143.8" font-family="Helvetica,sans-Serif" font-size="11.00" fill="#000000"> &#160;</text>
</a>
</g>
</g>
<!-- chapters -->
<g id="node2" class="node">
<title>chapters</title>
<g id="a_node2"><a xlink:href="../../tables/chapters.html" xlink:title="chapters" target="_top">
<polygon fill="#ffffff" stroke="transparent" points="8,-202.7 8,-534.7 191,-534.7 191,-202.7 8,-202.7"/>
<polygon fill="#f5f5f5" stroke="transparent" points="10.5,-509.7 10.5,-532.7 189.5,-532.7 189.5,-509.7 10.5,-509.7"/>
<polygon fill="none" stroke="#000000" points="10.5,-509.7 10.5,-532.7 189.5,-532.7 189.5,-509.7 10.5,-509.7"/>
<text text-anchor="start" x="15.5" y="-518.8" font-family="Helvetica,sans-Serif" font-weight="bold" font-size="11.00" fill="#000000">chapters</text>
<text text-anchor="start" x="154.5437" y="-517.8" font-family="Helvetica,sans-Serif" font-size="11.00" fill="#000000">[table]</text>
<polygon fill="none" stroke="#000000" points="10.5,-487.7 10.5,-509.7 99.5,-509.7 99.5,-487.7 10.5,-487.7"/>
<text text-anchor="start" x="30.5" y="-494.8" font-family="Helvetica,sans-Serif" font-size="11.00" fill="#000000">created_at</text>
<polygon fill="none" stroke="#000000" points="99.5,-487.7 99.5,-509.7 189.5,-509.7 189.5,-487.7 99.5,-487.7"/>
<text text-anchor="start" x="102.5" y="-495.4" font-family="Helvetica,sans-Serif" font-size="11.00" fill="#000000">timestamp[26,3]</text>
<polygon fill="none" stroke="#000000" points="10.5,-465.7 10.5,-487.7 99.5,-487.7 99.5,-465.7 10.5,-465.7"/>
<text text-anchor="start" x="30.5" y="-472.8" font-family="Helvetica,sans-Serif" font-size="11.00" fill="#000000">updated_at</text>
<polygon fill="none" stroke="#000000" points="99.5,-465.7 99.5,-487.7 189.5,-487.7 189.5,-465.7 99.5,-465.7"/>
<text text-anchor="start" x="102.5" y="-473.4" font-family="Helvetica,sans-Serif" font-size="11.00" fill="#000000">timestamp[26,3]</text>
<polygon fill="none" stroke="#000000" points="10.5,-443.7 10.5,-465.7 99.5,-465.7 99.5,-443.7 10.5,-443.7"/>
<image xlink:href="../../images/primaryKeys.png" width="11px" height="12px" preserveAspectRatio="xMinYMin meet" x="15.5" y="-460.7"/>
<text text-anchor="start" x="30.5" y="-450.8" font-family="Helvetica,sans-Serif" font-size="11.00" fill="#000000">id</text>
<polygon fill="none" stroke="#000000" points="99.5,-443.7 99.5,-465.7 189.5,-465.7 189.5,-443.7 99.5,-443.7"/>
<text text-anchor="start" x="102.5" y="-451.4" font-family="Helvetica,sans-Serif" font-size="11.00" fill="#000000">serial[10]</text>
<polygon fill="none" stroke="#000000" points="10.5,-421.7 10.5,-443.7 99.5,-443.7 99.5,-421.7 10.5,-421.7"/>
<text text-anchor="start" x="30.5" y="-428.8" font-family="Helvetica,sans-Serif" font-size="11.00" fill="#000000">name</text>
<polygon fill="none" stroke="#000000" points="99.5,-421.7 99.5,-443.7 189.5,-443.7 189.5,-421.7 99.5,-421.7"/>
<text text-anchor="start" x="102.0042" y="-429.4" font-family="Helvetica,sans-Serif" font-size="11.00" fill="#000000">text[2147483647]</text>
<polygon fill="none" stroke="#000000" points="10.5,-399.7 10.5,-421.7 99.5,-421.7 99.5,-399.7 10.5,-399.7"/>
<text text-anchor="start" x="30.5" y="-406.8" font-family="Helvetica,sans-Serif" font-size="11.00" fill="#000000">description</text>
<polygon fill="none" stroke="#000000" points="99.5,-399.7 99.5,-421.7 189.5,-421.7 189.5,-399.7 99.5,-399.7"/>
<text text-anchor="start" x="102.0042" y="-407.4" font-family="Helvetica,sans-Serif" font-size="11.00" fill="#000000">text[2147483647]</text>
<polygon fill="none" stroke="#000000" points="10.5,-377.7 10.5,-399.7 99.5,-399.7 99.5,-377.7 10.5,-377.7"/>
<text text-anchor="start" x="30.5" y="-384.8" font-family="Helvetica,sans-Serif" font-size="11.00" fill="#000000">category</text>
<polygon fill="none" stroke="#000000" points="99.5,-377.7 99.5,-399.7 189.5,-399.7 189.5,-377.7 99.5,-377.7"/>
<text text-anchor="start" x="102.0042" y="-385.4" font-family="Helvetica,sans-Serif" font-size="11.00" fill="#000000">text[2147483647]</text>
<polygon fill="none" stroke="#000000" points="10.5,-355.7 10.5,-377.7 99.5,-377.7 99.5,-355.7 10.5,-355.7"/>
<text text-anchor="start" x="30.5" y="-362.8" font-family="Helvetica,sans-Serif" font-size="11.00" fill="#000000">city</text>
<polygon fill="none" stroke="#000000" points="99.5,-355.7 99.5,-377.7 189.5,-377.7 189.5,-355.7 99.5,-355.7"/>
<text text-anchor="start" x="102.0042" y="-363.4" font-family="Helvetica,sans-Serif" font-size="11.00" fill="#000000">text[2147483647]</text>
<polygon fill="none" stroke="#000000" points="10.5,-333.7 10.5,-355.7 99.5,-355.7 99.5,-333.7 10.5,-333.7"/>
<text text-anchor="start" x="30.5" y="-340.8" font-family="Helvetica,sans-Serif" font-size="11.00" fill="#000000">region</text>
<polygon fill="none" stroke="#000000" points="99.5,-333.7 99.5,-355.7 189.5,-355.7 189.5,-333.7 99.5,-333.7"/>
<text text-anchor="start" x="102.0042" y="-341.4" font-family="Helvetica,sans-Serif" font-size="11.00" fill="#000000">text[2147483647]</text>
<polygon fill="none" stroke="#000000" points="10.5,-311.7 10.5,-333.7 99.5,-333.7 99.5,-311.7 10.5,-311.7"/>
<text text-anchor="start" x="30.5" y="-318.8" font-family="Helvetica,sans-Serif" font-size="11.00" fill="#000000">country</text>
<polygon fill="none" stroke="#000000" points="99.5,-311.7 99.5,-333.7 189.5,-333.7 189.5,-311.7 99.5,-311.7"/>
<text text-anchor="start" x="102.0042" y="-319.4" font-family="Helvetica,sans-Serif" font-size="11.00" fill="#000000">text[2147483647]</text>
<polygon fill="none" stroke="#000000" points="10.5,-289.7 10.5,-311.7 99.5,-311.7 99.5,-289.7 10.5,-289.7"/>
<text text-anchor="start" x="30.5" y="-296.8" font-family="Helvetica,sans-Serif" font-size="11.00" fill="#000000">banner_url</text>
<polygon fill="none" stroke="#000000" points="99.5,-289.7 99.5,-311.7 189.5,-311.7 189.5,-289.7 99.5,-289.7"/>
<text text-anchor="start" x="102.0042" y="-297.4" font-family="Helvetica,sans-Serif" font-size="11.00" fill="#000000">text[2147483647]</text>
<polygon fill="none" stroke="#000000" points="10.5,-267.7 10.5,-289.7 99.5,-289.7 99.5,-267.7 10.5,-267.7"/>
<text text-anchor="start" x="30.5" y="-274.8" font-family="Helvetica,sans-Serif" font-size="11.00" fill="#000000">calendar_id</text>
<polygon fill="none" stroke="#000000" points="99.5,-267.7 99.5,-289.7 189.5,-289.7 189.5,-267.7 99.5,-267.7"/>
<text text-anchor="start" x="102.0042" y="-275.4" font-family="Helvetica,sans-Serif" font-size="11.00" fill="#000000">text[2147483647]</text>
<polygon fill="none" stroke="#000000" points="10.5,-245.7 10.5,-267.7 99.5,-267.7 99.5,-245.7 10.5,-245.7"/>
<text text-anchor="start" x="30.5" y="-252.8" font-family="Helvetica,sans-Serif" font-size="11.00" fill="#000000">chat_url</text>
<polygon fill="none" stroke="#000000" points="99.5,-245.7 99.5,-267.7 189.5,-267.7 189.5,-245.7 99.5,-245.7"/>
<text text-anchor="start" x="102.0042" y="-253.4" font-family="Helvetica,sans-Serif" font-size="11.00" fill="#000000">text[2147483647]</text>
<polygon fill="none" stroke="#000000" points="10.5,-223.7 10.5,-245.7 99.5,-245.7 99.5,-223.7 10.5,-223.7"/>
<text text-anchor="start" x="30.5" y="-230.8" font-family="Helvetica,sans-Serif" font-size="11.00" fill="#000000">creator_id</text>
<polygon fill="none" stroke="#000000" points="99.5,-223.7 99.5,-245.7 189.5,-245.7 189.5,-223.7 99.5,-223.7"/>
<text text-anchor="start" x="102.5" y="-231.4" font-family="Helvetica,sans-Serif" font-size="11.00" fill="#000000">int4[10]</text>
<polygon fill="#ffffff" stroke="transparent" points="10.5,-204.7 10.5,-223.7 46.5,-223.7 46.5,-204.7 10.5,-204.7"/>
<polygon fill="none" stroke="#000000" points="10.5,-204.7 10.5,-223.7 46.5,-223.7 46.5,-204.7 10.5,-204.7"/>
<text text-anchor="start" x="13.5" y="-210.8" font-family="Helvetica,sans-Serif" font-size="11.00" fill="#000000">&lt; 0</text>
<polygon fill="#ffffff" stroke="transparent" points="46.5,-204.7 46.5,-223.7 99.5,-223.7 99.5,-204.7 46.5,-204.7"/>
<polygon fill="none" stroke="#000000" points="46.5,-204.7 46.5,-223.7 99.5,-223.7 99.5,-204.7 46.5,-204.7"/>
<text text-anchor="start" x="64.1105" y="-210.8" font-family="Helvetica,sans-Serif" font-size="11.00" fill="#000000">0 rows</text>
<polygon fill="#ffffff" stroke="transparent" points="99.5,-204.7 99.5,-223.7 189.5,-223.7 189.5,-204.7 99.5,-204.7"/>
<polygon fill="none" stroke="#000000" points="99.5,-204.7 99.5,-223.7 189.5,-223.7 189.5,-204.7 99.5,-204.7"/>
<text text-anchor="start" x="170.9053" y="-210.8" font-family="Helvetica,sans-Serif" font-size="11.00" fill="#000000">4 &gt;</text>
<polygon fill="none" stroke="#000000" stroke-width="2" points="9,-203.7 9,-533.7 190,-533.7 190,-203.7 9,-203.7"/>
</a>
</g>
</g>
<!-- chapter_users&#45;&gt;chapters -->
<g id="edge1" class="edge">
<title>chapter_users:w&#45;&gt;chapters:e</title>
<path fill="none" stroke="#000000" d="M225.6179,-210.4023C144.5766,-232.1369 295.6634,-454.7 189.5,-454.7"/>
<polygon fill="#000000" stroke="#000000" points="232.0555,-209.6404 240.4232,-212.275 236.0277,-209.1702 240,-208.7 240,-208.7 240,-208.7 236.0277,-209.1702 239.5768,-205.125 232.0555,-209.6404 232.0555,-209.6404"/>
<ellipse fill="none" stroke="#000000" cx="228.8776" cy="-210.0165" rx="3.2" ry="3.2"/>
</g>
<!-- chapter_roles -->
<g id="node3" class="node">
<title>chapter_roles</title>
<g id="a_node3"><a xlink:href="../../tables/chapter_roles.html" xlink:title="chapter_roles" target="_top">
<polygon fill="#ffffff" stroke="transparent" points="45,-38.2 45,-99.2 154,-99.2 154,-38.2 45,-38.2"/>
<polygon fill="#f5f5f5" stroke="transparent" points="45.5,-75.7 45.5,-98.7 154.5,-98.7 154.5,-75.7 45.5,-75.7"/>
<polygon fill="none" stroke="#000000" points="45.5,-75.7 45.5,-98.7 154.5,-98.7 154.5,-75.7 45.5,-75.7"/>
<text text-anchor="start" x="50.1871" y="-84.8" font-family="Helvetica,sans-Serif" font-weight="bold" font-size="11.00" fill="#000000">chapter_roles</text>
<text text-anchor="start" x="120.0219" y="-83.8" font-family="Helvetica,sans-Serif" font-size="11.00" fill="#000000">[table]</text>
<polygon fill="none" stroke="#000000" points="45.5,-56.7 45.5,-75.7 154.5,-75.7 154.5,-56.7 45.5,-56.7"/>
<text text-anchor="start" x="48.5" y="-62.8" font-family="Helvetica,sans-Serif" font-size="11.00" fill="#000000">...</text>
<polygon fill="#ffffff" stroke="transparent" points="45.5,-37.7 45.5,-56.7 76.5,-56.7 76.5,-37.7 45.5,-37.7"/>
<polygon fill="none" stroke="#000000" points="45.5,-37.7 45.5,-56.7 76.5,-56.7 76.5,-37.7 45.5,-37.7"/>
<text text-anchor="start" x="48.5" y="-43.8" font-family="Helvetica,sans-Serif" font-size="11.00" fill="#000000"> &#160;</text>
<polygon fill="#ffffff" stroke="transparent" points="76.5,-37.7 76.5,-56.7 123.5,-56.7 123.5,-37.7 76.5,-37.7"/>
<polygon fill="none" stroke="#000000" points="76.5,-37.7 76.5,-56.7 123.5,-56.7 123.5,-37.7 76.5,-37.7"/>
<text text-anchor="start" x="88.1105" y="-43.8" font-family="Helvetica,sans-Serif" font-size="11.00" fill="#000000">0 rows</text>
<polygon fill="#ffffff" stroke="transparent" points="123.5,-37.7 123.5,-56.7 154.5,-56.7 154.5,-37.7 123.5,-37.7"/>
<polygon fill="none" stroke="#000000" points="123.5,-37.7 123.5,-56.7 154.5,-56.7 154.5,-37.7 123.5,-37.7"/>
<text text-anchor="start" x="135.9053" y="-43.8" font-family="Helvetica,sans-Serif" font-size="11.00" fill="#000000">2 &gt;</text>
</a>
</g>
</g>
<!-- chapter_users&#45;&gt;chapter_roles -->
<g id="edge2" class="edge">
<title>chapter_users:w&#45;&gt;chapter_roles:e</title>
<path fill="none" stroke="#000000" d="M225.8027,-183.5694C206.6931,-172.7161 218.5405,-135.9359 199,-109.7 182.3863,-87.3938 182.3133,-65.7 154.5,-65.7"/>
<polygon fill="#000000" stroke="#000000" points="232.1877,-184.9773 239.2248,-190.2155 236.0938,-185.8386 240,-186.7 240,-186.7 240,-186.7 236.0938,-185.8386 240.7752,-183.1845 232.1877,-184.9773 232.1877,-184.9773"/>
<ellipse fill="none" stroke="#000000" cx="229.0627" cy="-184.2882" rx="3.2" ry="3.2"/>
</g>
<!-- users -->
<g id="node4" class="node">
<title>users</title>
<g id="a_node4"><a xlink:href="../../tables/users.html" xlink:title="users" target="_top">
<polygon fill="#ffffff" stroke="transparent" points="59.5,-120.2 59.5,-181.2 139.5,-181.2 139.5,-120.2 59.5,-120.2"/>
<polygon fill="#f5f5f5" stroke="transparent" points="59.5,-157.7 59.5,-180.7 139.5,-180.7 139.5,-157.7 59.5,-157.7"/>
<polygon fill="none" stroke="#000000" points="59.5,-157.7 59.5,-180.7 139.5,-180.7 139.5,-157.7 59.5,-157.7"/>
<text text-anchor="start" x="64.5" y="-166.8" font-family="Helvetica,sans-Serif" font-weight="bold" font-size="11.00" fill="#000000">users</text>
<text text-anchor="start" x="104.5437" y="-165.8" font-family="Helvetica,sans-Serif" font-size="11.00" fill="#000000">[table]</text>
<polygon fill="none" stroke="#000000" points="59.5,-138.7 59.5,-157.7 139.5,-157.7 139.5,-138.7 59.5,-138.7"/>
<text text-anchor="start" x="62.5" y="-144.8" font-family="Helvetica,sans-Serif" font-size="11.00" fill="#000000">...</text>
<polygon fill="#ffffff" stroke="transparent" points="59.5,-119.7 59.5,-138.7 80.5,-138.7 80.5,-119.7 59.5,-119.7"/>
<polygon fill="none" stroke="#000000" points="59.5,-119.7 59.5,-138.7 80.5,-138.7 80.5,-119.7 59.5,-119.7"/>
<text text-anchor="start" x="62.2027" y="-125.8" font-family="Helvetica,sans-Serif" font-size="11.00" fill="#000000">&lt; 1</text>
<polygon fill="#ffffff" stroke="transparent" points="80.5,-119.7 80.5,-138.7 118.5,-138.7 118.5,-119.7 80.5,-119.7"/>
<polygon fill="none" stroke="#000000" points="80.5,-119.7 80.5,-138.7 118.5,-138.7 118.5,-119.7 80.5,-119.7"/>
<text text-anchor="start" x="83.3053" y="-125.8" font-family="Helvetica,sans-Serif" font-size="11.00" fill="#000000">0 rows</text>
<polygon fill="#ffffff" stroke="transparent" points="118.5,-119.7 118.5,-138.7 139.5,-138.7 139.5,-119.7 118.5,-119.7"/>
<polygon fill="none" stroke="#000000" points="118.5,-119.7 118.5,-138.7 139.5,-138.7 139.5,-119.7 118.5,-119.7"/>
<text text-anchor="start" x="121.2027" y="-125.8" font-family="Helvetica,sans-Serif" font-size="11.00" fill="#000000">4 &gt;</text>
</a>
</g>
</g>
<!-- chapter_users&#45;&gt;users -->
<g id="edge3" class="edge">
<title>chapter_users:w&#45;&gt;users:e</title>
<path fill="none" stroke="#000000" d="M226.0248,-227.1022C215.1718,-220.0339 213.5943,-203.9571 199,-191.7 173.8144,-170.5478 172.3896,-147.7 139.5,-147.7"/>
<polygon fill="#000000" stroke="#000000" points="232.2526,-228.7055 239.1025,-234.1863 236.1263,-229.7027 240,-230.7 240,-230.7 240,-230.7 236.1263,-229.7027 240.8975,-227.2137 232.2526,-228.7055 232.2526,-228.7055"/>
<ellipse fill="none" stroke="#000000" cx="229.1537" cy="-227.9077" rx="3.2" ry="3.2"/>
</g>
<!-- event_sponsors -->
<g id="node5" class="node">
<title>event_sponsors</title>
<g id="a_node5"><a xlink:href="../../tables/event_sponsors.html" xlink:title="event_sponsors" target="_top">
<polygon fill="#ffffff" stroke="transparent" points="578,-391.2 578,-452.2 698,-452.2 698,-391.2 578,-391.2"/>
<polygon fill="#f5f5f5" stroke="transparent" points="578,-428.7 578,-451.7 698,-451.7 698,-428.7 578,-428.7"/>
<polygon fill="none" stroke="#000000" points="578,-428.7 578,-451.7 698,-451.7 698,-428.7 578,-428.7"/>
<text text-anchor="start" x="582.681" y="-437.8" font-family="Helvetica,sans-Serif" font-weight="bold" font-size="11.00" fill="#000000">event_sponsors</text>
<text text-anchor="start" x="663.5219" y="-436.8" font-family="Helvetica,sans-Serif" font-size="11.00" fill="#000000">[table]</text>
<polygon fill="none" stroke="#000000" points="578,-409.7 578,-428.7 698,-428.7 698,-409.7 578,-409.7"/>
<text text-anchor="start" x="581" y="-415.8" font-family="Helvetica,sans-Serif" font-size="11.00" fill="#000000">...</text>
<polygon fill="#ffffff" stroke="transparent" points="578,-390.7 578,-409.7 623,-409.7 623,-390.7 578,-390.7"/>
<polygon fill="none" stroke="#000000" points="578,-390.7 578,-409.7 623,-409.7 623,-390.7 578,-390.7"/>
<text text-anchor="start" x="581" y="-396.8" font-family="Helvetica,sans-Serif" font-size="11.00" fill="#000000">&lt; 2</text>
<polygon fill="#ffffff" stroke="transparent" points="623,-390.7 623,-409.7 673,-409.7 673,-390.7 623,-390.7"/>
<polygon fill="none" stroke="#000000" points="623,-390.7 623,-409.7 673,-409.7 673,-390.7 623,-390.7"/>
<text text-anchor="start" x="637.6105" y="-396.8" font-family="Helvetica,sans-Serif" font-size="11.00" fill="#000000">0 rows</text>
<polygon fill="#ffffff" stroke="transparent" points="673,-390.7 673,-409.7 698,-409.7 698,-390.7 673,-390.7"/>
<polygon fill="none" stroke="#000000" points="673,-390.7 673,-409.7 698,-409.7 698,-390.7 673,-390.7"/>
<text text-anchor="start" x="688.8862" y="-396.8" font-family="Helvetica,sans-Serif" font-size="11.00" fill="#000000"> &#160;</text>
</a>
</g>
</g>
<!-- events -->
<g id="node6" class="node">
<title>events</title>
<g id="a_node6"><a xlink:href="../../tables/events.html" xlink:title="events" target="_top">
<polygon fill="#ffffff" stroke="transparent" points="401,-367.2 401,-494.2 529,-494.2 529,-367.2 401,-367.2"/>
<polygon fill="#f5f5f5" stroke="transparent" points="401,-470.7 401,-493.7 529,-493.7 529,-470.7 401,-470.7"/>
<polygon fill="none" stroke="#000000" points="401,-470.7 401,-493.7 529,-493.7 529,-470.7 401,-470.7"/>
<text text-anchor="start" x="406" y="-479.8" font-family="Helvetica,sans-Serif" font-weight="bold" font-size="11.00" fill="#000000">events</text>
<text text-anchor="start" x="494.0437" y="-478.8" font-family="Helvetica,sans-Serif" font-size="11.00" fill="#000000">[table]</text>
<polygon fill="none" stroke="#000000" points="401,-448.7 401,-470.7 529,-470.7 529,-448.7 401,-448.7"/>
<image xlink:href="../../images/primaryKeys.png" width="11px" height="12px" preserveAspectRatio="xMinYMin meet" x="406" y="-465.7"/>
<text text-anchor="start" x="421" y="-455.8" font-family="Helvetica,sans-Serif" font-size="11.00" fill="#000000">id</text>
<polygon fill="none" stroke="#000000" points="401,-426.7 401,-448.7 529,-448.7 529,-426.7 401,-426.7"/>
<image xlink:href="../../images/foreignKeys.png" width="11px" height="12px" preserveAspectRatio="xMinYMin meet" x="406" y="-443.7"/>
<text text-anchor="start" x="421" y="-433.8" font-family="Helvetica,sans-Serif" font-size="11.00" fill="#000000">venue_id</text>
<polygon fill="none" stroke="#000000" points="401,-404.7 401,-426.7 529,-426.7 529,-404.7 401,-404.7"/>
<image xlink:href="../../images/foreignKeys.png" width="11px" height="12px" preserveAspectRatio="xMinYMin meet" x="406" y="-421.7"/>
<text text-anchor="start" x="421" y="-411.8" font-family="Helvetica,sans-Serif" font-size="11.00" fill="#000000">chapter_id</text>
<polygon fill="none" stroke="#000000" points="401,-385.7 401,-404.7 529,-404.7 529,-385.7 401,-385.7"/>
<text text-anchor="start" x="404" y="-391.8" font-family="Helvetica,sans-Serif" font-size="11.00" fill="#000000">...</text>
<polygon fill="#ffffff" stroke="transparent" points="401,-366.7 401,-385.7 446,-385.7 446,-366.7 401,-366.7"/>
<polygon fill="none" stroke="#000000" points="401,-366.7 401,-385.7 446,-385.7 446,-366.7 401,-366.7"/>
<text text-anchor="start" x="404" y="-372.8" font-family="Helvetica,sans-Serif" font-size="11.00" fill="#000000">&lt; 2</text>
<polygon fill="#ffffff" stroke="transparent" points="446,-366.7 446,-385.7 496,-385.7 496,-366.7 446,-366.7"/>
<polygon fill="none" stroke="#000000" points="446,-366.7 446,-385.7 496,-385.7 496,-366.7 446,-366.7"/>
<text text-anchor="start" x="460.6105" y="-372.8" font-family="Helvetica,sans-Serif" font-size="11.00" fill="#000000">0 rows</text>
<polygon fill="#ffffff" stroke="transparent" points="496,-366.7 496,-385.7 529,-385.7 529,-366.7 496,-366.7"/>
<polygon fill="none" stroke="#000000" points="496,-366.7 496,-385.7 529,-385.7 529,-366.7 496,-366.7"/>
<text text-anchor="start" x="510.4053" y="-372.8" font-family="Helvetica,sans-Serif" font-size="11.00" fill="#000000">3 &gt;</text>
</a>
</g>
</g>
<!-- event_sponsors&#45;&gt;events -->
<g id="edge4" class="edge">
<title>event_sponsors:w&#45;&gt;events:e</title>
<path fill="none" stroke="#000000" d="M564.1819,-423.4032C551.2811,-434.1726 551.4061,-459.7 529,-459.7"/>
<polygon fill="#000000" stroke="#000000" points="570.4267,-421.2778 579.16,-422.108 574.2133,-419.9889 578,-418.7 578,-418.7 578,-418.7 574.2133,-419.9889 576.84,-415.292 570.4267,-421.2778 570.4267,-421.2778"/>
<ellipse fill="none" stroke="#000000" cx="567.3973" cy="-422.3089" rx="3.2" ry="3.2"/>
</g>
<!-- events&#45;&gt;chapters -->
<g id="edge8" class="edge">
<title>events:w&#45;&gt;chapters:e</title>
<path fill="none" stroke="#000000" d="M386.2616,-415.5897C322.4184,-414.6458 298.9293,-408.4681 232,-429.7 211.1113,-436.3265 211.4145,-454.7 189.5,-454.7"/>
<polygon fill="#000000" stroke="#000000" points="393.0002,-415.6401 400.973,-419.2999 397.0001,-415.67 401,-415.7 401,-415.7 401,-415.7 397.0001,-415.67 401.027,-412.1001 393.0002,-415.6401 393.0002,-415.6401"/>
<ellipse fill="none" stroke="#000000" cx="389.8003" cy="-415.6161" rx="3.2" ry="3.2"/>
</g>
<!-- venues -->
<g id="node9" class="node">
<title>venues</title>
<g id="a_node9"><a xlink:href="../../tables/venues.html" xlink:title="venues" target="_top">
<polygon fill="#ffffff" stroke="transparent" points="242,-440.2 242,-545.2 350,-545.2 350,-440.2 242,-440.2"/>
<polygon fill="#f5f5f5" stroke="transparent" points="242,-521.7 242,-544.7 350,-544.7 350,-521.7 242,-521.7"/>
<polygon fill="none" stroke="#000000" points="242,-521.7 242,-544.7 350,-544.7 350,-521.7 242,-521.7"/>
<text text-anchor="start" x="247" y="-530.8" font-family="Helvetica,sans-Serif" font-weight="bold" font-size="11.00" fill="#000000">venues</text>
<text text-anchor="start" x="315.0437" y="-529.8" font-family="Helvetica,sans-Serif" font-size="11.00" fill="#000000">[table]</text>
<polygon fill="none" stroke="#000000" points="242,-499.7 242,-521.7 350,-521.7 350,-499.7 242,-499.7"/>
<image xlink:href="../../images/primaryKeys.png" width="11px" height="12px" preserveAspectRatio="xMinYMin meet" x="247" y="-516.7"/>
<text text-anchor="start" x="262" y="-506.8" font-family="Helvetica,sans-Serif" font-size="11.00" fill="#000000">id</text>
<polygon fill="none" stroke="#000000" points="242,-477.7 242,-499.7 350,-499.7 350,-477.7 242,-477.7"/>
<image xlink:href="../../images/foreignKeys.png" width="11px" height="12px" preserveAspectRatio="xMinYMin meet" x="247" y="-494.7"/>
<text text-anchor="start" x="262" y="-484.8" font-family="Helvetica,sans-Serif" font-size="11.00" fill="#000000">chapter_id</text>
<polygon fill="none" stroke="#000000" points="242,-458.7 242,-477.7 350,-477.7 350,-458.7 242,-458.7"/>
<text text-anchor="start" x="245" y="-464.8" font-family="Helvetica,sans-Serif" font-size="11.00" fill="#000000">...</text>
<polygon fill="#ffffff" stroke="transparent" points="242,-439.7 242,-458.7 277,-458.7 277,-439.7 242,-439.7"/>
<polygon fill="none" stroke="#000000" points="242,-439.7 242,-458.7 277,-458.7 277,-439.7 242,-439.7"/>
<text text-anchor="start" x="245" y="-445.8" font-family="Helvetica,sans-Serif" font-size="11.00" fill="#000000">&lt; 1</text>
<polygon fill="#ffffff" stroke="transparent" points="277,-439.7 277,-458.7 322,-458.7 322,-439.7 277,-439.7"/>
<polygon fill="none" stroke="#000000" points="277,-439.7 277,-458.7 322,-458.7 322,-439.7 277,-439.7"/>
<text text-anchor="start" x="286.6105" y="-445.8" font-family="Helvetica,sans-Serif" font-size="11.00" fill="#000000">0 rows</text>
<polygon fill="#ffffff" stroke="transparent" points="322,-439.7 322,-458.7 350,-458.7 350,-439.7 322,-439.7"/>
<polygon fill="none" stroke="#000000" points="322,-439.7 322,-458.7 350,-458.7 350,-439.7 322,-439.7"/>
<text text-anchor="start" x="331.4053" y="-445.8" font-family="Helvetica,sans-Serif" font-size="11.00" fill="#000000">1 &gt;</text>
</a>
</g>
</g>
<!-- events&#45;&gt;venues -->
<g id="edge9" class="edge">
<title>events:w&#45;&gt;venues:e</title>
<path fill="none" stroke="#000000" d="M387.1487,-442.2665C368.4288,-458.248 383.5486,-510.7 350,-510.7"/>
<polygon fill="#000000" stroke="#000000" points="393.4022,-440.2049 402.1272,-441.119 397.2011,-438.9524 401,-437.7 401,-437.7 401,-437.7 397.2011,-438.9524 399.8728,-434.281 393.4022,-440.2049 393.4022,-440.2049"/>
<ellipse fill="none" stroke="#000000" cx="390.3631" cy="-441.2068" rx="3.2" ry="3.2"/>
</g>
<!-- event_tags -->
<g id="node7" class="node">
<title>event_tags</title>
<g id="a_node7"><a xlink:href="../../tables/event_tags.html" xlink:title="event_tags" target="_top">
<polygon fill="#ffffff" stroke="transparent" points="590,-473.2 590,-534.2 686,-534.2 686,-473.2 590,-473.2"/>
<polygon fill="#f5f5f5" stroke="transparent" points="590,-510.7 590,-533.7 686,-533.7 686,-510.7 590,-510.7"/>
<polygon fill="none" stroke="#000000" points="590,-510.7 590,-533.7 686,-533.7 686,-510.7 590,-510.7"/>
<text text-anchor="start" x="594.5984" y="-519.8" font-family="Helvetica,sans-Serif" font-weight="bold" font-size="11.00" fill="#000000">event_tags</text>
<text text-anchor="start" x="651.5219" y="-518.8" font-family="Helvetica,sans-Serif" font-size="11.00" fill="#000000">[table]</text>
<polygon fill="none" stroke="#000000" points="590,-491.7 590,-510.7 686,-510.7 686,-491.7 590,-491.7"/>
<text text-anchor="start" x="593" y="-497.8" font-family="Helvetica,sans-Serif" font-size="11.00" fill="#000000">...</text>
<polygon fill="#ffffff" stroke="transparent" points="590,-472.7 590,-491.7 623,-491.7 623,-472.7 590,-472.7"/>
<polygon fill="none" stroke="#000000" points="590,-472.7 590,-491.7 623,-491.7 623,-472.7 590,-472.7"/>
<text text-anchor="start" x="593" y="-478.8" font-family="Helvetica,sans-Serif" font-size="11.00" fill="#000000">&lt; 2</text>
<polygon fill="#ffffff" stroke="transparent" points="623,-472.7 623,-491.7 667,-491.7 667,-472.7 623,-472.7"/>
<polygon fill="none" stroke="#000000" points="623,-472.7 623,-491.7 667,-491.7 667,-472.7 623,-472.7"/>
<text text-anchor="start" x="631.6105" y="-478.8" font-family="Helvetica,sans-Serif" font-size="11.00" fill="#000000">0 rows</text>
<polygon fill="#ffffff" stroke="transparent" points="667,-472.7 667,-491.7 686,-491.7 686,-472.7 667,-472.7"/>
<polygon fill="none" stroke="#000000" points="667,-472.7 667,-491.7 686,-491.7 686,-472.7 667,-472.7"/>
<text text-anchor="start" x="676.8862" y="-478.8" font-family="Helvetica,sans-Serif" font-size="11.00" fill="#000000"> &#160;</text>
</a>
</g>
</g>
<!-- event_tags&#45;&gt;events -->
<g id="edge5" class="edge">
<title>event_tags:w&#45;&gt;events:e</title>
<path fill="none" stroke="#000000" d="M575.8015,-497.3448C557.7138,-487.5528 555.9239,-459.7 529,-459.7"/>
<polygon fill="#000000" stroke="#000000" points="582.2144,-498.8602 589.1721,-504.2035 586.1072,-499.7801 590,-500.7 590,-500.7 590,-500.7 586.1072,-499.7801 590.8279,-497.1965 582.2144,-498.8602 582.2144,-498.8602"/>
<ellipse fill="none" stroke="#000000" cx="579.1002" cy="-498.1242" rx="3.2" ry="3.2"/>
</g>
<!-- event_users -->
<g id="node8" class="node">
<title>event_users</title>
<g id="a_node8"><a xlink:href="../../tables/event_users.html" xlink:title="event_users" target="_top">
<polygon fill="#ffffff" stroke="transparent" points="587,-177.2 587,-238.2 689,-238.2 689,-177.2 587,-177.2"/>
<polygon fill="#f5f5f5" stroke="transparent" points="587,-214.7 587,-237.7 689,-237.7 689,-214.7 587,-214.7"/>
<polygon fill="none" stroke="#000000" points="587,-214.7 587,-237.7 689,-237.7 689,-214.7 587,-214.7"/>
<text text-anchor="start" x="591.5459" y="-223.8" font-family="Helvetica,sans-Serif" font-weight="bold" font-size="11.00" fill="#000000">event_users</text>
<text text-anchor="start" x="654.5219" y="-222.8" font-family="Helvetica,sans-Serif" font-size="11.00" fill="#000000">[table]</text>
<polygon fill="none" stroke="#000000" points="587,-195.7 587,-214.7 689,-214.7 689,-195.7 587,-195.7"/>
<text text-anchor="start" x="590" y="-201.8" font-family="Helvetica,sans-Serif" font-size="11.00" fill="#000000">...</text>
<polygon fill="#ffffff" stroke="transparent" points="587,-176.7 587,-195.7 619,-195.7 619,-176.7 587,-176.7"/>
<polygon fill="none" stroke="#000000" points="587,-176.7 587,-195.7 619,-195.7 619,-176.7 587,-176.7"/>
<text text-anchor="start" x="590" y="-182.8" font-family="Helvetica,sans-Serif" font-size="11.00" fill="#000000">&lt; 4</text>
<polygon fill="#ffffff" stroke="transparent" points="619,-176.7 619,-195.7 662,-195.7 662,-176.7 619,-176.7"/>
<polygon fill="none" stroke="#000000" points="619,-176.7 619,-195.7 662,-195.7 662,-176.7 619,-176.7"/>
<text text-anchor="start" x="626.6105" y="-182.8" font-family="Helvetica,sans-Serif" font-size="11.00" fill="#000000">0 rows</text>
<polygon fill="#ffffff" stroke="transparent" points="662,-176.7 662,-195.7 689,-195.7 689,-176.7 662,-176.7"/>
<polygon fill="none" stroke="#000000" points="662,-176.7 662,-195.7 689,-195.7 689,-176.7 662,-176.7"/>
<text text-anchor="start" x="670.4053" y="-182.8" font-family="Helvetica,sans-Serif" font-size="11.00" fill="#000000">2 &gt;</text>
</a>
</g>
</g>
<!-- event_users&#45;&gt;users -->
<g id="edge7" class="edge">
<title>event_users:w&#45;&gt;users:e</title>
<path fill="none" stroke="#000000" d="M572.6009,-204.3173C478.8285,-199.2001 460.1869,-144.2295 360,-127.7 303.8699,-118.4393 288.5668,-121.6545 232,-127.7 190.1771,-132.1698 181.5611,-147.7 139.5,-147.7"/>
<polygon fill="#000000" stroke="#000000" points="579.0028,-204.4874 586.9043,-208.2987 583.0014,-204.5937 587,-204.7 587,-204.7 587,-204.7 583.0014,-204.5937 587.0957,-201.1013 579.0028,-204.4874 579.0028,-204.4874"/>
<ellipse fill="none" stroke="#000000" cx="575.804" cy="-204.4023" rx="3.2" ry="3.2"/>
</g>
<!-- event_users&#45;&gt;events -->
<g id="edge6" class="edge">
<title>event_users:w&#45;&gt;events:e</title>
<path fill="none" stroke="#000000" d="M573.5313,-211.0034C538.7812,-250.2713 581.6658,-459.7 529,-459.7"/>
<polygon fill="#000000" stroke="#000000" points="579.7543,-208.0911 588.526,-207.9606 583.3771,-206.3955 587,-204.7 587,-204.7 587,-204.7 583.3771,-206.3955 585.474,-201.4394 579.7543,-208.0911 579.7543,-208.0911"/>
<ellipse fill="none" stroke="#000000" cx="576.856" cy="-209.4475" rx="3.2" ry="3.2"/>
</g>
<!-- venues&#45;&gt;chapters -->
<g id="edge12" class="edge">
<title>venues:w&#45;&gt;chapters:e</title>
<path fill="none" stroke="#000000" d="M227.9527,-484.7998C214.1332,-475.8691 211.4352,-454.7 189.5,-454.7"/>
<polygon fill="#000000" stroke="#000000" points="234.2916,-486.5597 241.0369,-492.1688 238.1458,-487.6299 242,-488.7 242,-488.7 242,-488.7 238.1458,-487.6299 242.9631,-485.2312 234.2916,-486.5597 234.2916,-486.5597"/>
<ellipse fill="none" stroke="#000000" cx="231.2082" cy="-485.7036" rx="3.2" ry="3.2"/>
</g>
<!-- user_bans -->
<g id="node10" class="node">
<title>user_bans</title>
<g id="a_node10"><a xlink:href="../../tables/user_bans.html" xlink:title="user_bans" target="_top">
<polygon fill="#ffffff" stroke="transparent" points="249,-286.2 249,-391.2 343,-391.2 343,-286.2 249,-286.2"/>
<polygon fill="#f5f5f5" stroke="transparent" points="249,-367.7 249,-390.7 343,-390.7 343,-367.7 249,-367.7"/>
<polygon fill="none" stroke="#000000" points="249,-367.7 249,-390.7 343,-390.7 343,-367.7 249,-367.7"/>
<text text-anchor="start" x="253.8244" y="-376.8" font-family="Helvetica,sans-Serif" font-weight="bold" font-size="11.00" fill="#000000">user_bans</text>
<text text-anchor="start" x="308.5219" y="-375.8" font-family="Helvetica,sans-Serif" font-size="11.00" fill="#000000">[table]</text>
<polygon fill="none" stroke="#000000" points="249,-345.7 249,-367.7 343,-367.7 343,-345.7 249,-345.7"/>
<image xlink:href="../../images/primaryKeys.png" width="11px" height="12px" preserveAspectRatio="xMinYMin meet" x="254" y="-362.7"/>
<text text-anchor="start" x="272" y="-352.8" font-family="Helvetica,sans-Serif" font-size="11.00" fill="#000000">user_id</text>
<polygon fill="none" stroke="#000000" points="249,-323.7 249,-345.7 343,-345.7 343,-323.7 249,-323.7"/>
<image xlink:href="../../images/primaryKeys.png" width="11px" height="12px" preserveAspectRatio="xMinYMin meet" x="254" y="-340.7"/>
<text text-anchor="start" x="272" y="-330.8" font-family="Helvetica,sans-Serif" font-size="11.00" fill="#000000">chapter_id</text>
<polygon fill="none" stroke="#000000" points="249,-304.7 249,-323.7 343,-323.7 343,-304.7 249,-304.7"/>
<text text-anchor="start" x="252" y="-310.8" font-family="Helvetica,sans-Serif" font-size="11.00" fill="#000000">...</text>
<polygon fill="#ffffff" stroke="transparent" points="249,-285.7 249,-304.7 281,-304.7 281,-285.7 249,-285.7"/>
<polygon fill="none" stroke="#000000" points="249,-285.7 249,-304.7 281,-304.7 281,-285.7 249,-285.7"/>
<text text-anchor="start" x="252" y="-291.8" font-family="Helvetica,sans-Serif" font-size="11.00" fill="#000000">&lt; 2</text>
<polygon fill="#ffffff" stroke="transparent" points="281,-285.7 281,-304.7 325,-304.7 325,-285.7 281,-285.7"/>
<polygon fill="none" stroke="#000000" points="281,-285.7 281,-304.7 325,-304.7 325,-285.7 281,-285.7"/>
<text text-anchor="start" x="289.6105" y="-291.8" font-family="Helvetica,sans-Serif" font-size="11.00" fill="#000000">0 rows</text>
<polygon fill="#ffffff" stroke="transparent" points="325,-285.7 325,-304.7 343,-304.7 343,-285.7 325,-285.7"/>
<polygon fill="none" stroke="#000000" points="325,-285.7 325,-304.7 343,-304.7 343,-285.7 325,-285.7"/>
<text text-anchor="start" x="333.8862" y="-291.8" font-family="Helvetica,sans-Serif" font-size="11.00" fill="#000000"> &#160;</text>
</a>
</g>
</g>
<!-- user_bans&#45;&gt;chapters -->
<g id="edge10" class="edge">
<title>user_bans:w&#45;&gt;chapters:e</title>
<path fill="none" stroke="#000000" d="M234.7451,-337.9097C199.9674,-356.9931 243.216,-454.7 189.5,-454.7"/>
<polygon fill="#000000" stroke="#000000" points="241.1954,-336.4574 249.7908,-338.2121 245.0977,-335.5787 249,-334.7 249,-334.7 249,-334.7 245.0977,-335.5787 248.2092,-331.1879 241.1954,-336.4574 241.1954,-336.4574"/>
<ellipse fill="none" stroke="#000000" cx="238.0736" cy="-337.1603" rx="3.2" ry="3.2"/>
</g>
<!-- user_bans&#45;&gt;users -->
<g id="edge11" class="edge">
<title>user_bans:w&#45;&gt;users:e</title>
<path fill="none" stroke="#000000" d="M234.5981,-355.1497C182.0037,-342.1111 239.9656,-249.7987 199,-191.7 180.0471,-164.8204 172.3896,-147.7 139.5,-147.7"/>
<polygon fill="#000000" stroke="#000000" points="241.0459,-355.8437 248.6147,-360.2793 245.023,-356.2719 249,-356.7 249,-356.7 249,-356.7 245.023,-356.2719 249.3853,-353.1207 241.0459,-355.8437 241.0459,-355.8437"/>
<ellipse fill="none" stroke="#000000" cx="237.8643" cy="-355.5012" rx="3.2" ry="3.2"/>
</g>
</g>
</svg>
