<?xml version="1.0" encoding="UTF-8" standalone="no"?>
<!DOCTYPE svg PUBLIC "-//W3C//DTD SVG 1.1//EN"
 "http://www.w3.org/Graphics/SVG/1.1/DTD/svg11.dtd">
<!-- Generated by graphviz version 2.40.1 (20161225.0304)
 -->
<!-- Title: twoDegreesRelationshipsDiagram Pages: 1 -->
<svg width="746pt" height="669pt"
 viewBox="0.00 0.00 746.00 668.50" xmlns="http://www.w3.org/2000/svg" xmlns:xlink="http://www.w3.org/1999/xlink">
<g id="graph0" class="graph" transform="scale(1 1) rotate(0) translate(4 664.5011)">
<title>twoDegreesRelationshipsDiagram</title>
<polygon fill="#ffffff" stroke="transparent" points="-4,4 -4,-664.5011 742,-664.5011 742,4 -4,4"/>
<text text-anchor="middle" x="72.4936" y="-7.3" font-family="Helvetica,sans-Serif" font-size="11.00" fill="#000000">Generated by SchemaSpy</text>
<!-- chapters -->
<g id="node1" class="node">
<title>chapters</title>
<g id="a_node1"><a xlink:href="../../tables/chapters.html" xlink:title="chapters" target="_top">
<polygon fill="#ffffff" stroke="transparent" points="154,-198.7 154,-486.7 364,-486.7 364,-198.7 154,-198.7"/>
<polygon fill="#f5f5f5" stroke="transparent" points="156,-461.7 156,-484.7 362,-484.7 362,-461.7 156,-461.7"/>
<polygon fill="none" stroke="#000000" points="156,-461.7 156,-484.7 362,-484.7 362,-461.7 156,-461.7"/>
<text text-anchor="start" x="161" y="-470.8" font-family="Helvetica,sans-Serif" font-weight="bold" font-size="11.00" fill="#000000">chapters</text>
<text text-anchor="start" x="327.0437" y="-469.8" font-family="Helvetica,sans-Serif" font-size="11.00" fill="#000000">[table]</text>
<polygon fill="none" stroke="#000000" points="156,-439.7 156,-461.7 253,-461.7 253,-439.7 156,-439.7"/>
<image xlink:href="../../images/primaryKeys.png" width="11px" height="12px" preserveAspectRatio="xMinYMin meet" x="161" y="-456.7"/>
<text text-anchor="start" x="176" y="-446.8" font-family="Helvetica,sans-Serif" font-size="11.00" fill="#000000">id</text>
<polygon fill="none" stroke="#000000" points="253,-439.7 253,-461.7 362,-461.7 362,-439.7 253,-439.7"/>
<text text-anchor="start" x="256" y="-447.4" font-family="Helvetica,sans-Serif" font-size="11.00" fill="#000000">serial[10]</text>
<polygon fill="none" stroke="#000000" points="156,-417.7 156,-439.7 253,-439.7 253,-417.7 156,-417.7"/>
<text text-anchor="start" x="176" y="-424.8" font-family="Helvetica,sans-Serif" font-size="11.00" fill="#000000">name</text>
<polygon fill="none" stroke="#000000" points="253,-417.7 253,-439.7 362,-439.7 362,-417.7 253,-417.7"/>
<text text-anchor="start" x="255.5344" y="-425.4" font-family="Helvetica,sans-Serif" font-size="11.00" fill="#000000">varchar[2147483647]</text>
<polygon fill="none" stroke="#000000" points="156,-395.7 156,-417.7 253,-417.7 253,-395.7 156,-395.7"/>
<text text-anchor="start" x="176" y="-402.8" font-family="Helvetica,sans-Serif" font-size="11.00" fill="#000000">description</text>
<polygon fill="none" stroke="#000000" points="253,-395.7 253,-417.7 362,-417.7 362,-395.7 253,-395.7"/>
<text text-anchor="start" x="255.5344" y="-403.4" font-family="Helvetica,sans-Serif" font-size="11.00" fill="#000000">varchar[2147483647]</text>
<polygon fill="none" stroke="#000000" points="156,-373.7 156,-395.7 253,-395.7 253,-373.7 156,-373.7"/>
<text text-anchor="start" x="176" y="-380.8" font-family="Helvetica,sans-Serif" font-size="11.00" fill="#000000">category</text>
<polygon fill="none" stroke="#000000" points="253,-373.7 253,-395.7 362,-395.7 362,-373.7 253,-373.7"/>
<text text-anchor="start" x="255.5344" y="-381.4" font-family="Helvetica,sans-Serif" font-size="11.00" fill="#000000">varchar[2147483647]</text>
<polygon fill="none" stroke="#000000" points="156,-351.7 156,-373.7 253,-373.7 253,-351.7 156,-351.7"/>
<text text-anchor="start" x="176" y="-358.8" font-family="Helvetica,sans-Serif" font-size="11.00" fill="#000000">details</text>
<polygon fill="none" stroke="#000000" points="253,-351.7 253,-373.7 362,-373.7 362,-351.7 253,-351.7"/>
<text text-anchor="start" x="256" y="-359.4" font-family="Helvetica,sans-Serif" font-size="11.00" fill="#000000">json[2147483647]</text>
<polygon fill="none" stroke="#000000" points="156,-329.7 156,-351.7 253,-351.7 253,-329.7 156,-329.7"/>
<image xlink:href="../../images/foreignKeys.png" width="11px" height="12px" preserveAspectRatio="xMinYMin meet" x="161" y="-346.7"/>
<text text-anchor="start" x="176" y="-336.8" font-family="Helvetica,sans-Serif" font-size="11.00" fill="#000000">creator_id</text>
<polygon fill="none" stroke="#000000" points="253,-329.7 253,-351.7 362,-351.7 362,-329.7 253,-329.7"/>
<text text-anchor="start" x="256" y="-337.4" font-family="Helvetica,sans-Serif" font-size="11.00" fill="#000000">int4[10]</text>
<polygon fill="none" stroke="#000000" points="156,-307.7 156,-329.7 253,-329.7 253,-307.7 156,-307.7"/>
<text text-anchor="start" x="176" y="-314.8" font-family="Helvetica,sans-Serif" font-size="11.00" fill="#000000">created_at</text>
<polygon fill="none" stroke="#000000" points="253,-307.7 253,-329.7 362,-329.7 362,-307.7 253,-307.7"/>
<text text-anchor="start" x="256" y="-315.4" font-family="Helvetica,sans-Serif" font-size="11.00" fill="#000000">timestamp[29,6]</text>
<polygon fill="none" stroke="#000000" points="156,-285.7 156,-307.7 253,-307.7 253,-285.7 156,-285.7"/>
<text text-anchor="start" x="176" y="-292.8" font-family="Helvetica,sans-Serif" font-size="11.00" fill="#000000">updated_at</text>
<polygon fill="none" stroke="#000000" points="253,-285.7 253,-307.7 362,-307.7 362,-285.7 253,-285.7"/>
<text text-anchor="start" x="256" y="-293.4" font-family="Helvetica,sans-Serif" font-size="11.00" fill="#000000">timestamp[29,6]</text>
<polygon fill="none" stroke="#000000" points="156,-263.7 156,-285.7 253,-285.7 253,-263.7 156,-263.7"/>
<text text-anchor="start" x="176" y="-270.8" font-family="Helvetica,sans-Serif" font-size="11.00" fill="#000000">city</text>
<polygon fill="none" stroke="#000000" points="253,-263.7 253,-285.7 362,-285.7 362,-263.7 253,-263.7"/>
<text text-anchor="start" x="255.5344" y="-271.4" font-family="Helvetica,sans-Serif" font-size="11.00" fill="#000000">varchar[2147483647]</text>
<polygon fill="none" stroke="#000000" points="156,-241.7 156,-263.7 253,-263.7 253,-241.7 156,-241.7"/>
<text text-anchor="start" x="176" y="-248.8" font-family="Helvetica,sans-Serif" font-size="11.00" fill="#000000">region</text>
<polygon fill="none" stroke="#000000" points="253,-241.7 253,-263.7 362,-263.7 362,-241.7 253,-241.7"/>
<text text-anchor="start" x="255.5344" y="-249.4" font-family="Helvetica,sans-Serif" font-size="11.00" fill="#000000">varchar[2147483647]</text>
<polygon fill="none" stroke="#000000" points="156,-219.7 156,-241.7 253,-241.7 253,-219.7 156,-219.7"/>
<text text-anchor="start" x="176" y="-226.8" font-family="Helvetica,sans-Serif" font-size="11.00" fill="#000000">country</text>
<polygon fill="none" stroke="#000000" points="253,-219.7 253,-241.7 362,-241.7 362,-219.7 253,-219.7"/>
<text text-anchor="start" x="255.5344" y="-227.4" font-family="Helvetica,sans-Serif" font-size="11.00" fill="#000000">varchar[2147483647]</text>
<polygon fill="#ffffff" stroke="transparent" points="156,-200.7 156,-219.7 196,-219.7 196,-200.7 156,-200.7"/>
<polygon fill="none" stroke="#000000" points="156,-200.7 156,-219.7 196,-219.7 196,-200.7 156,-200.7"/>
<text text-anchor="start" x="159" y="-206.8" font-family="Helvetica,sans-Serif" font-size="11.00" fill="#000000">&lt; 1</text>
<polygon fill="#ffffff" stroke="transparent" points="196,-200.7 196,-219.7 253,-219.7 253,-200.7 196,-200.7"/>
<polygon fill="none" stroke="#000000" points="196,-200.7 196,-219.7 253,-219.7 253,-200.7 196,-200.7"/>
<text text-anchor="start" x="217.6105" y="-206.8" font-family="Helvetica,sans-Serif" font-size="11.00" fill="#000000">4 rows</text>
<polygon fill="#ffffff" stroke="transparent" points="253,-200.7 253,-219.7 362,-219.7 362,-200.7 253,-200.7"/>
<polygon fill="none" stroke="#000000" points="253,-200.7 253,-219.7 362,-219.7 362,-200.7 253,-200.7"/>
<text text-anchor="start" x="343.4053" y="-206.8" font-family="Helvetica,sans-Serif" font-size="11.00" fill="#000000">4 &gt;</text>
<polygon fill="none" stroke="#000000" stroke-width="2" points="155,-199.7 155,-485.7 363,-485.7 363,-199.7 155,-199.7"/>
</a>
</g>
</g>
<!-- users -->
<g id="node2" class="node">
<title>users</title>
<g id="a_node2"><a xlink:href="../../tables/users.html" xlink:title="users" target="_top">
<polygon fill="#ffffff" stroke="transparent" points="8,-475.2 8,-558.2 105,-558.2 105,-475.2 8,-475.2"/>
<polygon fill="#f5f5f5" stroke="transparent" points="8.5,-534.7 8.5,-557.7 105.5,-557.7 105.5,-534.7 8.5,-534.7"/>
<polygon fill="none" stroke="#000000" points="8.5,-534.7 8.5,-557.7 105.5,-557.7 105.5,-534.7 8.5,-534.7"/>
<text text-anchor="start" x="13.5" y="-543.8" font-family="Helvetica,sans-Serif" font-weight="bold" font-size="11.00" fill="#000000">users</text>
<text text-anchor="start" x="70.5437" y="-542.8" font-family="Helvetica,sans-Serif" font-size="11.00" fill="#000000">[table]</text>
<polygon fill="none" stroke="#000000" points="8.5,-512.7 8.5,-534.7 105.5,-534.7 105.5,-512.7 8.5,-512.7"/>
<image xlink:href="../../images/primaryKeys.png" width="11px" height="12px" preserveAspectRatio="xMinYMin meet" x="13.5" y="-529.7"/>
<text text-anchor="start" x="28.5" y="-519.8" font-family="Helvetica,sans-Serif" font-size="11.00" fill="#000000">id</text>
<polygon fill="none" stroke="#000000" points="8.5,-493.7 8.5,-512.7 105.5,-512.7 105.5,-493.7 8.5,-493.7"/>
<text text-anchor="start" x="11.5" y="-499.8" font-family="Helvetica,sans-Serif" font-size="11.00" fill="#000000">...</text>
<polygon fill="#ffffff" stroke="transparent" points="8.5,-474.7 8.5,-493.7 36.5,-493.7 36.5,-474.7 8.5,-474.7"/>
<polygon fill="none" stroke="#000000" points="8.5,-474.7 8.5,-493.7 36.5,-493.7 36.5,-474.7 8.5,-474.7"/>
<text text-anchor="start" x="11.5" y="-480.8" font-family="Helvetica,sans-Serif" font-size="11.00" fill="#000000"> &#160;</text>
<polygon fill="#ffffff" stroke="transparent" points="36.5,-474.7 36.5,-493.7 76.5,-493.7 76.5,-474.7 36.5,-474.7"/>
<polygon fill="none" stroke="#000000" points="36.5,-474.7 36.5,-493.7 76.5,-493.7 76.5,-474.7 36.5,-474.7"/>
<text text-anchor="start" x="46.6105" y="-480.8" font-family="Helvetica,sans-Serif" font-size="11.00" fill="#000000">1 row</text>
<polygon fill="#ffffff" stroke="transparent" points="76.5,-474.7 76.5,-493.7 105.5,-493.7 105.5,-474.7 76.5,-474.7"/>
<polygon fill="none" stroke="#000000" points="76.5,-474.7 76.5,-493.7 105.5,-493.7 105.5,-474.7 76.5,-474.7"/>
<text text-anchor="start" x="86.9053" y="-480.8" font-family="Helvetica,sans-Serif" font-size="11.00" fill="#000000">6 &gt;</text>
</a>
</g>
</g>
<!-- chapters&#45;&gt;users -->
<g id="edge1" class="edge">
<title>chapters:w&#45;&gt;users:e</title>
<path fill="none" stroke="#000000" d="M141.7531,-343.0138C86.4378,-364.1977 184.2704,-523.7 105.5,-523.7"/>
<polygon fill="#000000" stroke="#000000" points="148.1035,-341.9825 156.5771,-344.2534 152.0517,-341.3413 156,-340.7 156,-340.7 156,-340.7 152.0517,-341.3413 155.4229,-337.1466 148.1035,-341.9825 148.1035,-341.9825"/>
<ellipse fill="none" stroke="#000000" cx="144.9448" cy="-342.4955" rx="3.2" ry="3.2"/>
</g>
<!-- event_sponsors -->
<g id="node3" class="node">
<title>event_sponsors</title>
<g id="a_node3"><a xlink:href="../../tables/event_sponsors.html" xlink:title="event_sponsors" target="_top">
<polygon fill="#ffffff" stroke="transparent" points="610,-144.2 610,-205.2 730,-205.2 730,-144.2 610,-144.2"/>
<polygon fill="#f5f5f5" stroke="transparent" points="610,-181.7 610,-204.7 730,-204.7 730,-181.7 610,-181.7"/>
<polygon fill="none" stroke="#000000" points="610,-181.7 610,-204.7 730,-204.7 730,-181.7 610,-181.7"/>
<text text-anchor="start" x="614.681" y="-190.8" font-family="Helvetica,sans-Serif" font-weight="bold" font-size="11.00" fill="#000000">event_sponsors</text>
<text text-anchor="start" x="695.5219" y="-189.8" font-family="Helvetica,sans-Serif" font-size="11.00" fill="#000000">[table]</text>
<polygon fill="none" stroke="#000000" points="610,-162.7 610,-181.7 730,-181.7 730,-162.7 610,-162.7"/>
<text text-anchor="start" x="613" y="-168.8" font-family="Helvetica,sans-Serif" font-size="11.00" fill="#000000">...</text>
<polygon fill="#ffffff" stroke="transparent" points="610,-143.7 610,-162.7 655,-162.7 655,-143.7 610,-143.7"/>
<polygon fill="none" stroke="#000000" points="610,-143.7 610,-162.7 655,-162.7 655,-143.7 610,-143.7"/>
<text text-anchor="start" x="613" y="-149.8" font-family="Helvetica,sans-Serif" font-size="11.00" fill="#000000">&lt; 2</text>
<polygon fill="#ffffff" stroke="transparent" points="655,-143.7 655,-162.7 705,-162.7 705,-143.7 655,-143.7"/>
<polygon fill="none" stroke="#000000" points="655,-143.7 655,-162.7 705,-162.7 705,-143.7 655,-143.7"/>
<text text-anchor="start" x="669.6105" y="-149.8" font-family="Helvetica,sans-Serif" font-size="11.00" fill="#000000">8 rows</text>
<polygon fill="#ffffff" stroke="transparent" points="705,-143.7 705,-162.7 730,-162.7 730,-143.7 705,-143.7"/>
<polygon fill="none" stroke="#000000" points="705,-143.7 705,-162.7 730,-162.7 730,-143.7 705,-143.7"/>
<text text-anchor="start" x="720.8862" y="-149.8" font-family="Helvetica,sans-Serif" font-size="11.00" fill="#000000"> &#160;</text>
</a>
</g>
</g>
<!-- events -->
<g id="node4" class="node">
<title>events</title>
<g id="a_node4"><a xlink:href="../../tables/events.html" xlink:title="events" target="_top">
<polygon fill="#ffffff" stroke="transparent" points="438,-38.2 438,-165.2 536,-165.2 536,-38.2 438,-38.2"/>
<polygon fill="#f5f5f5" stroke="transparent" points="438,-141.7 438,-164.7 536,-164.7 536,-141.7 438,-141.7"/>
<polygon fill="none" stroke="#000000" points="438,-141.7 438,-164.7 536,-164.7 536,-141.7 438,-141.7"/>
<text text-anchor="start" x="443" y="-150.8" font-family="Helvetica,sans-Serif" font-weight="bold" font-size="11.00" fill="#000000">events</text>
<text text-anchor="start" x="501.0437" y="-149.8" font-family="Helvetica,sans-Serif" font-size="11.00" fill="#000000">[table]</text>
<polygon fill="none" stroke="#000000" points="438,-119.7 438,-141.7 536,-141.7 536,-119.7 438,-119.7"/>
<image xlink:href="../../images/primaryKeys.png" width="11px" height="12px" preserveAspectRatio="xMinYMin meet" x="443" y="-136.7"/>
<text text-anchor="start" x="458" y="-126.8" font-family="Helvetica,sans-Serif" font-size="11.00" fill="#000000">id</text>
<polygon fill="none" stroke="#000000" points="438,-97.7 438,-119.7 536,-119.7 536,-97.7 438,-97.7"/>
<image xlink:href="../../images/foreignKeys.png" width="11px" height="12px" preserveAspectRatio="xMinYMin meet" x="443" y="-114.7"/>
<text text-anchor="start" x="458" y="-104.8" font-family="Helvetica,sans-Serif" font-size="11.00" fill="#000000">venue_id</text>
<polygon fill="none" stroke="#000000" points="438,-75.7 438,-97.7 536,-97.7 536,-75.7 438,-75.7"/>
<image xlink:href="../../images/foreignKeys.png" width="11px" height="12px" preserveAspectRatio="xMinYMin meet" x="443" y="-92.7"/>
<text text-anchor="start" x="458" y="-82.8" font-family="Helvetica,sans-Serif" font-size="11.00" fill="#000000">chapter_id</text>
<polygon fill="none" stroke="#000000" points="438,-56.7 438,-75.7 536,-75.7 536,-56.7 438,-56.7"/>
<text text-anchor="start" x="441" y="-62.8" font-family="Helvetica,sans-Serif" font-size="11.00" fill="#000000">...</text>
<polygon fill="#ffffff" stroke="transparent" points="438,-37.7 438,-56.7 468,-56.7 468,-37.7 438,-37.7"/>
<polygon fill="none" stroke="#000000" points="438,-37.7 438,-56.7 468,-56.7 468,-37.7 438,-37.7"/>
<text text-anchor="start" x="441" y="-43.8" font-family="Helvetica,sans-Serif" font-size="11.00" fill="#000000">&lt; 2</text>
<polygon fill="#ffffff" stroke="transparent" points="468,-37.7 468,-56.7 510,-56.7 510,-37.7 468,-37.7"/>
<polygon fill="none" stroke="#000000" points="468,-37.7 468,-56.7 510,-56.7 510,-37.7 468,-37.7"/>
<text text-anchor="start" x="474.6105" y="-43.8" font-family="Helvetica,sans-Serif" font-size="11.00" fill="#000000">4 rows</text>
<polygon fill="#ffffff" stroke="transparent" points="510,-37.7 510,-56.7 536,-56.7 536,-37.7 510,-37.7"/>
<polygon fill="none" stroke="#000000" points="510,-37.7 510,-56.7 536,-56.7 536,-37.7 510,-37.7"/>
<text text-anchor="start" x="517.4053" y="-43.8" font-family="Helvetica,sans-Serif" font-size="11.00" fill="#000000">3 &gt;</text>
</a>
</g>
</g>
<!-- event_sponsors&#45;&gt;events -->
<g id="edge2" class="edge">
<title>event_sponsors:w&#45;&gt;events:e</title>
<path fill="none" stroke="#000000" d="M595.5673,-169.258C571.9015,-160.4315 568.0184,-130.7 536,-130.7"/>
<polygon fill="#000000" stroke="#000000" points="602.1121,-170.3654 609.3994,-175.2496 606.0561,-171.0327 610,-171.7 610,-171.7 610,-171.7 606.0561,-171.0327 610.6006,-168.1504 602.1121,-170.3654 602.1121,-170.3654"/>
<ellipse fill="none" stroke="#000000" cx="598.9569" cy="-169.8315" rx="3.2" ry="3.2"/>
</g>
<!-- events&#45;&gt;chapters -->
<g id="edge3" class="edge">
<title>events:w&#45;&gt;chapters:e</title>
<path fill="none" stroke="#000000" d="M424.0724,-91.0415C366.1597,-132.1097 439.3072,-450.7 362,-450.7"/>
<polygon fill="#000000" stroke="#000000" points="430.3625,-89.0808 439.0714,-90.1369 434.1812,-87.8904 438,-86.7 438,-86.7 438,-86.7 434.1812,-87.8904 436.9286,-83.2631 430.3625,-89.0808 430.3625,-89.0808"/>
<ellipse fill="none" stroke="#000000" cx="427.3074" cy="-90.0331" rx="3.2" ry="3.2"/>
</g>
<!-- venues -->
<g id="node5" class="node">
<title>venues</title>
<g id="a_node5"><a xlink:href="../../tables/venues.html" xlink:title="venues" target="_top">
<polygon fill="#ffffff" stroke="transparent" points="220,-81.2 220,-142.2 298,-142.2 298,-81.2 220,-81.2"/>
<polygon fill="#f5f5f5" stroke="transparent" points="220,-118.7 220,-141.7 298,-141.7 298,-118.7 220,-118.7"/>
<polygon fill="none" stroke="#000000" points="220,-118.7 220,-141.7 298,-141.7 298,-118.7 220,-118.7"/>
<text text-anchor="start" x="224.7702" y="-127.8" font-family="Helvetica,sans-Serif" font-weight="bold" font-size="11.00" fill="#000000">venues</text>
<text text-anchor="start" x="263.5219" y="-126.8" font-family="Helvetica,sans-Serif" font-size="11.00" fill="#000000">[table]</text>
<polygon fill="none" stroke="#000000" points="220,-99.7 220,-118.7 298,-118.7 298,-99.7 220,-99.7"/>
<text text-anchor="start" x="223" y="-105.8" font-family="Helvetica,sans-Serif" font-size="11.00" fill="#000000">...</text>
<polygon fill="#ffffff" stroke="transparent" points="220,-80.7 220,-99.7 235,-99.7 235,-80.7 220,-80.7"/>
<polygon fill="none" stroke="#000000" points="220,-80.7 220,-99.7 235,-99.7 235,-80.7 220,-80.7"/>
<text text-anchor="start" x="223" y="-86.8" font-family="Helvetica,sans-Serif" font-size="11.00" fill="#000000"> &#160;</text>
<polygon fill="#ffffff" stroke="transparent" points="235,-80.7 235,-99.7 275,-99.7 275,-80.7 235,-80.7"/>
<polygon fill="none" stroke="#000000" points="235,-80.7 235,-99.7 275,-99.7 275,-80.7 235,-80.7"/>
<text text-anchor="start" x="239.6105" y="-86.8" font-family="Helvetica,sans-Serif" font-size="11.00" fill="#000000">4 rows</text>
<polygon fill="#ffffff" stroke="transparent" points="275,-80.7 275,-99.7 298,-99.7 298,-80.7 275,-80.7"/>
<polygon fill="none" stroke="#000000" points="275,-80.7 275,-99.7 298,-99.7 298,-80.7 275,-80.7"/>
<text text-anchor="start" x="279.4053" y="-86.8" font-family="Helvetica,sans-Serif" font-size="11.00" fill="#000000">1 &gt;</text>
</a>
</g>
</g>
<!-- events&#45;&gt;venues -->
<g id="edge4" class="edge">
<title>events:w&#45;&gt;venues:e</title>
<path fill="none" stroke="#000000" d="M423.5781,-108.7C372.9117,-108.7 355.1181,-108.7 298,-108.7"/>
<polygon fill="#000000" stroke="#000000" points="430,-108.7001 438,-112.3 434,-108.7 438,-108.7 438,-108.7 438,-108.7 434,-108.7 438,-105.1 430,-108.7001 430,-108.7001"/>
<ellipse fill="none" stroke="#000000" cx="426.8" cy="-108.7001" rx="3.2" ry="3.2"/>
</g>
<!-- rsvps -->
<g id="node6" class="node">
<title>rsvps</title>
<g id="a_node6"><a xlink:href="../../tables/rsvps.html" xlink:title="rsvps" target="_top">
<polygon fill="#ffffff" stroke="transparent" points="634.5,-447.2 634.5,-508.2 705.5,-508.2 705.5,-447.2 634.5,-447.2"/>
<polygon fill="#f5f5f5" stroke="transparent" points="635,-484.7 635,-507.7 706,-507.7 706,-484.7 635,-484.7"/>
<polygon fill="none" stroke="#000000" points="635,-484.7 635,-507.7 706,-507.7 706,-484.7 635,-484.7"/>
<text text-anchor="start" x="640" y="-493.8" font-family="Helvetica,sans-Serif" font-weight="bold" font-size="11.00" fill="#000000">rsvps</text>
<text text-anchor="start" x="671.0437" y="-492.8" font-family="Helvetica,sans-Serif" font-size="11.00" fill="#000000">[table]</text>
<polygon fill="none" stroke="#000000" points="635,-465.7 635,-484.7 706,-484.7 706,-465.7 635,-465.7"/>
<text text-anchor="start" x="638" y="-471.8" font-family="Helvetica,sans-Serif" font-size="11.00" fill="#000000">...</text>
<polygon fill="#ffffff" stroke="transparent" points="635,-446.7 635,-465.7 656,-465.7 656,-446.7 635,-446.7"/>
<polygon fill="none" stroke="#000000" points="635,-446.7 635,-465.7 656,-465.7 656,-446.7 635,-446.7"/>
<text text-anchor="start" x="637.7026" y="-452.8" font-family="Helvetica,sans-Serif" font-size="11.00" fill="#000000">&lt; 2</text>
<polygon fill="#ffffff" stroke="transparent" points="656,-446.7 656,-465.7 694,-465.7 694,-446.7 656,-446.7"/>
<polygon fill="none" stroke="#000000" points="656,-446.7 656,-465.7 694,-465.7 694,-446.7 656,-446.7"/>
<text text-anchor="start" x="658.8053" y="-452.8" font-family="Helvetica,sans-Serif" font-size="11.00" fill="#000000">0 rows</text>
<polygon fill="#ffffff" stroke="transparent" points="694,-446.7 694,-465.7 706,-465.7 706,-446.7 694,-446.7"/>
<polygon fill="none" stroke="#000000" points="694,-446.7 694,-465.7 706,-465.7 706,-446.7 694,-446.7"/>
<text text-anchor="start" x="696.9431" y="-452.8" font-family="Helvetica,sans-Serif" font-size="11.00" fill="#000000"> &#160;</text>
</a>
</g>
</g>
<!-- rsvps&#45;&gt;users -->
<g id="edge6" class="edge">
<title>rsvps:w&#45;&gt;users:e</title>
<path fill="none" stroke="#000000" d="M620.4265,-476.4419C565.693,-491.4913 630.3538,-599.9761 569,-641.7 527.581,-669.8671 189.8325,-665.2876 146,-633.7 103.7342,-603.2414 157.5972,-523.7 105.5,-523.7"/>
<polygon fill="#000000" stroke="#000000" points="627.0565,-475.6495 635.4273,-478.2746 631.0283,-475.1748 635,-474.7 635,-474.7 635,-474.7 631.0283,-475.1748 634.5727,-471.1254 627.0565,-475.6495 627.0565,-475.6495"/>
<ellipse fill="none" stroke="#000000" cx="623.8792" cy="-476.0293" rx="3.2" ry="3.2"/>
</g>
<!-- rsvps&#45;&gt;events -->
<g id="edge5" class="edge">
<title>rsvps:w&#45;&gt;events:e</title>
<path fill="none" stroke="#000000" d="M620.3761,-473.5875C490.0441,-452.2355 689.8119,-130.7 536,-130.7"/>
<polygon fill="#000000" stroke="#000000" points="627.0231,-474.0931 634.7269,-478.2896 631.0115,-474.3965 635,-474.7 635,-474.7 635,-474.7 631.0115,-474.3965 635.2731,-471.1104 627.0231,-474.0931 627.0231,-474.0931"/>
<ellipse fill="none" stroke="#000000" cx="623.8323" cy="-473.8503" rx="3.2" ry="3.2"/>
</g>
<!-- tags -->
<g id="node7" class="node">
<title>tags</title>
<g id="a_node7"><a xlink:href="../../tables/tags.html" xlink:title="tags" target="_top">
<polygon fill="#ffffff" stroke="transparent" points="634.5,-62.2 634.5,-123.2 705.5,-123.2 705.5,-62.2 634.5,-62.2"/>
<polygon fill="#f5f5f5" stroke="transparent" points="635,-99.7 635,-122.7 706,-122.7 706,-99.7 635,-99.7"/>
<polygon fill="none" stroke="#000000" points="635,-99.7 635,-122.7 706,-122.7 706,-99.7 635,-99.7"/>
<text text-anchor="start" x="640" y="-108.8" font-family="Helvetica,sans-Serif" font-weight="bold" font-size="11.00" fill="#000000">tags</text>
<text text-anchor="start" x="671.0437" y="-107.8" font-family="Helvetica,sans-Serif" font-size="11.00" fill="#000000">[table]</text>
<polygon fill="none" stroke="#000000" points="635,-80.7 635,-99.7 706,-99.7 706,-80.7 635,-80.7"/>
<text text-anchor="start" x="638" y="-86.8" font-family="Helvetica,sans-Serif" font-size="11.00" fill="#000000">...</text>
<polygon fill="#ffffff" stroke="transparent" points="635,-61.7 635,-80.7 656,-80.7 656,-61.7 635,-61.7"/>
<polygon fill="none" stroke="#000000" points="635,-61.7 635,-80.7 656,-80.7 656,-61.7 635,-61.7"/>
<text text-anchor="start" x="637.7026" y="-67.8" font-family="Helvetica,sans-Serif" font-size="11.00" fill="#000000">&lt; 1</text>
<polygon fill="#ffffff" stroke="transparent" points="656,-61.7 656,-80.7 694,-80.7 694,-61.7 656,-61.7"/>
<polygon fill="none" stroke="#000000" points="656,-61.7 656,-80.7 694,-80.7 694,-61.7 656,-61.7"/>
<text text-anchor="start" x="658.8053" y="-67.8" font-family="Helvetica,sans-Serif" font-size="11.00" fill="#000000">9 rows</text>
<polygon fill="#ffffff" stroke="transparent" points="694,-61.7 694,-80.7 706,-80.7 706,-61.7 694,-61.7"/>
<polygon fill="none" stroke="#000000" points="694,-61.7 694,-80.7 706,-80.7 706,-61.7 694,-61.7"/>
<text text-anchor="start" x="696.9431" y="-67.8" font-family="Helvetica,sans-Serif" font-size="11.00" fill="#000000"> &#160;</text>
</a>
</g>
</g>
<!-- tags&#45;&gt;events -->
<g id="edge7" class="edge">
<title>tags:w&#45;&gt;events:e</title>
<path fill="none" stroke="#000000" d="M620.3767,-91.1592C585.9629,-98.4629 578.2291,-130.7 536,-130.7"/>
<polygon fill="#000000" stroke="#000000" points="627.0395,-90.4944 635.3575,-93.2822 631.0198,-90.0972 635,-89.7 635,-89.7 635,-89.7 631.0198,-90.0972 634.6425,-86.1178 627.0395,-90.4944 627.0395,-90.4944"/>
<ellipse fill="none" stroke="#000000" cx="623.8553" cy="-90.8122" rx="3.2" ry="3.2"/>
</g>
<!-- user_bans -->
<g id="node8" class="node">
<title>user_bans</title>
<g id="a_node8"><a xlink:href="../../tables/user_bans.html" xlink:title="user_bans" target="_top">
<polygon fill="#ffffff" stroke="transparent" points="438.5,-356.2 438.5,-483.2 535.5,-483.2 535.5,-356.2 438.5,-356.2"/>
<polygon fill="#f5f5f5" stroke="transparent" points="439,-459.7 439,-482.7 536,-482.7 536,-459.7 439,-459.7"/>
<polygon fill="none" stroke="#000000" points="439,-459.7 439,-482.7 536,-482.7 536,-459.7 439,-459.7"/>
<text text-anchor="start" x="444" y="-468.8" font-family="Helvetica,sans-Serif" font-weight="bold" font-size="11.00" fill="#000000">user_bans</text>
<text text-anchor="start" x="501.0437" y="-467.8" font-family="Helvetica,sans-Serif" font-size="11.00" fill="#000000">[table]</text>
<polygon fill="none" stroke="#000000" points="439,-437.7 439,-459.7 536,-459.7 536,-437.7 439,-437.7"/>
<image xlink:href="../../images/primaryKeys.png" width="11px" height="12px" preserveAspectRatio="xMinYMin meet" x="444" y="-454.7"/>
<text text-anchor="start" x="459" y="-444.8" font-family="Helvetica,sans-Serif" font-size="11.00" fill="#000000">id</text>
<polygon fill="none" stroke="#000000" points="439,-415.7 439,-437.7 536,-437.7 536,-415.7 439,-415.7"/>
<image xlink:href="../../images/foreignKeys.png" width="11px" height="12px" preserveAspectRatio="xMinYMin meet" x="444" y="-432.7"/>
<text text-anchor="start" x="459" y="-422.8" font-family="Helvetica,sans-Serif" font-size="11.00" fill="#000000">user_id</text>
<polygon fill="none" stroke="#000000" points="439,-393.7 439,-415.7 536,-415.7 536,-393.7 439,-393.7"/>
<image xlink:href="../../images/foreignKeys.png" width="11px" height="12px" preserveAspectRatio="xMinYMin meet" x="444" y="-410.7"/>
<text text-anchor="start" x="459" y="-400.8" font-family="Helvetica,sans-Serif" font-size="11.00" fill="#000000">chapter_id</text>
<polygon fill="none" stroke="#000000" points="439,-374.7 439,-393.7 536,-393.7 536,-374.7 439,-374.7"/>
<text text-anchor="start" x="442" y="-380.8" font-family="Helvetica,sans-Serif" font-size="11.00" fill="#000000">...</text>
<polygon fill="#ffffff" stroke="transparent" points="439,-355.7 439,-374.7 473,-374.7 473,-355.7 439,-355.7"/>
<polygon fill="none" stroke="#000000" points="439,-355.7 439,-374.7 473,-374.7 473,-355.7 439,-355.7"/>
<text text-anchor="start" x="442" y="-361.8" font-family="Helvetica,sans-Serif" font-size="11.00" fill="#000000">&lt; 2</text>
<polygon fill="#ffffff" stroke="transparent" points="473,-355.7 473,-374.7 517,-374.7 517,-355.7 473,-355.7"/>
<polygon fill="none" stroke="#000000" points="473,-355.7 473,-374.7 517,-374.7 517,-355.7 473,-355.7"/>
<text text-anchor="start" x="481.6105" y="-361.8" font-family="Helvetica,sans-Serif" font-size="11.00" fill="#000000">0 rows</text>
<polygon fill="#ffffff" stroke="transparent" points="517,-355.7 517,-374.7 536,-374.7 536,-355.7 517,-355.7"/>
<polygon fill="none" stroke="#000000" points="517,-355.7 517,-374.7 536,-374.7 536,-355.7 517,-355.7"/>
<text text-anchor="start" x="526.8862" y="-361.8" font-family="Helvetica,sans-Serif" font-size="11.00" fill="#000000"> &#160;</text>
</a>
</g>
</g>
<!-- user_bans&#45;&gt;chapters -->
<g id="edge8" class="edge">
<title>user_bans:w&#45;&gt;chapters:e</title>
<path fill="none" stroke="#000000" d="M424.4723,-407.1732C399.061,-416.7278 396.2581,-450.7 362,-450.7"/>
<polygon fill="#000000" stroke="#000000" points="431.1135,-406.0426 439.6042,-408.2489 435.0567,-405.3713 439,-404.7 439,-404.7 439,-404.7 435.0567,-405.3713 438.3958,-401.1511 431.1135,-406.0426 431.1135,-406.0426"/>
<ellipse fill="none" stroke="#000000" cx="427.9588" cy="-406.5797" rx="3.2" ry="3.2"/>
</g>
<!-- user_bans&#45;&gt;users -->
<g id="edge9" class="edge">
<title>user_bans:w&#45;&gt;users:e</title>
<path fill="none" stroke="#000000" d="M424.6407,-429.2093C398.9137,-439.7073 405.5604,-480.3172 372,-496.7 358.627,-503.2282 120.3813,-523.7 105.5,-523.7"/>
<polygon fill="#000000" stroke="#000000" points="431.1194,-428.0772 439.6197,-430.2463 435.0597,-427.3886 439,-426.7 439,-426.7 439,-426.7 435.0597,-427.3886 438.3803,-423.1537 431.1194,-428.0772 431.1194,-428.0772"/>
<ellipse fill="none" stroke="#000000" cx="427.9672" cy="-428.6281" rx="3.2" ry="3.2"/>
</g>
<!-- user_chapter_roles -->
<g id="node9" class="node">
<title>user_chapter_roles</title>
<g id="a_node9"><a xlink:href="../../tables/user_chapter_roles.html" xlink:title="user_chapter_roles" target="_top">
<polygon fill="#ffffff" stroke="transparent" points="413,-186.2 413,-335.2 561,-335.2 561,-186.2 413,-186.2"/>
<polygon fill="#f5f5f5" stroke="transparent" points="413,-311.7 413,-334.7 561,-334.7 561,-311.7 413,-311.7"/>
<polygon fill="none" stroke="#000000" points="413,-311.7 413,-334.7 561,-334.7 561,-311.7 413,-311.7"/>
<text text-anchor="start" x="418" y="-320.8" font-family="Helvetica,sans-Serif" font-weight="bold" font-size="11.00" fill="#000000">user_chapter_roles</text>
<text text-anchor="start" x="526.0437" y="-319.8" font-family="Helvetica,sans-Serif" font-size="11.00" fill="#000000">[table]</text>
<polygon fill="none" stroke="#000000" points="413,-289.7 413,-311.7 561,-311.7 561,-289.7 413,-289.7"/>
<image xlink:href="../../images/primaryKeys.png" width="11px" height="12px" preserveAspectRatio="xMinYMin meet" x="418" y="-306.7"/>
<text text-anchor="start" x="433" y="-296.8" font-family="Helvetica,sans-Serif" font-size="11.00" fill="#000000">user_id</text>
<polygon fill="none" stroke="#000000" points="413,-267.7 413,-289.7 561,-289.7 561,-267.7 413,-267.7"/>
<image xlink:href="../../images/primaryKeys.png" width="11px" height="12px" preserveAspectRatio="xMinYMin meet" x="418" y="-284.7"/>
<text text-anchor="start" x="433" y="-274.8" font-family="Helvetica,sans-Serif" font-size="11.00" fill="#000000">chapter_id</text>
<polygon fill="none" stroke="#000000" points="413,-245.7 413,-267.7 561,-267.7 561,-245.7 413,-245.7"/>
<image xlink:href="../../images/primaryKeys.png" width="11px" height="12px" preserveAspectRatio="xMinYMin meet" x="418" y="-262.7"/>
<text text-anchor="start" x="433" y="-252.8" font-family="Helvetica,sans-Serif" font-size="11.00" fill="#000000">id</text>
<polygon fill="none" stroke="#000000" points="413,-223.7 413,-245.7 561,-245.7 561,-223.7 413,-223.7"/>
<image xlink:href="../../images/primaryKeys.png" width="11px" height="12px" preserveAspectRatio="xMinYMin meet" x="418" y="-240.7"/>
<text text-anchor="start" x="433" y="-230.8" font-family="Helvetica,sans-Serif" font-size="11.00" fill="#000000">role_name</text>
<polygon fill="none" stroke="#000000" points="413,-204.7 413,-223.7 561,-223.7 561,-204.7 413,-204.7"/>
<text text-anchor="start" x="416" y="-210.8" font-family="Helvetica,sans-Serif" font-size="11.00" fill="#000000">...</text>
<polygon fill="#ffffff" stroke="transparent" points="413,-185.7 413,-204.7 472,-204.7 472,-185.7 413,-185.7"/>
<polygon fill="none" stroke="#000000" points="413,-185.7 413,-204.7 472,-204.7 472,-185.7 413,-185.7"/>
<text text-anchor="start" x="416" y="-191.8" font-family="Helvetica,sans-Serif" font-size="11.00" fill="#000000">&lt; 2</text>
<polygon fill="#ffffff" stroke="transparent" points="472,-185.7 472,-204.7 529,-204.7 529,-185.7 472,-185.7"/>
<polygon fill="none" stroke="#000000" points="472,-185.7 472,-204.7 529,-204.7 529,-185.7 472,-185.7"/>
<text text-anchor="start" x="493.6105" y="-191.8" font-family="Helvetica,sans-Serif" font-size="11.00" fill="#000000">0 rows</text>
<polygon fill="#ffffff" stroke="transparent" points="529,-185.7 529,-204.7 561,-204.7 561,-185.7 529,-185.7"/>
<polygon fill="none" stroke="#000000" points="529,-185.7 529,-204.7 561,-204.7 561,-185.7 529,-185.7"/>
<text text-anchor="start" x="551.8862" y="-191.8" font-family="Helvetica,sans-Serif" font-size="11.00" fill="#000000"> &#160;</text>
</a>
</g>
</g>
<!-- user_chapter_roles&#45;&gt;chapters -->
<g id="edge10" class="edge">
<title>user_chapter_roles:w&#45;&gt;chapters:e</title>
<path fill="none" stroke="#000000" d="M398.5204,-281.2649C347.9601,-302.6611 435.9721,-450.7 362,-450.7"/>
<polygon fill="#000000" stroke="#000000" points="405.1226,-280.0954 413.6279,-282.2448 409.0613,-279.3977 413,-278.7 413,-278.7 413,-278.7 409.0613,-279.3977 412.3721,-275.1552 405.1226,-280.0954 405.1226,-280.0954"/>
<ellipse fill="none" stroke="#000000" cx="401.9717" cy="-280.6536" rx="3.2" ry="3.2"/>
</g>
<!-- user_chapter_roles&#45;&gt;users -->
<g id="edge11" class="edge">
<title>user_chapter_roles:w&#45;&gt;users:e</title>
<path fill="none" stroke="#000000" d="M398.7584,-297.7251C371.0189,-282.7092 410.7926,-214.8919 372,-187.7 330.8749,-158.873 183.5773,-154.3801 146,-187.7 89.7284,-237.5961 180.7071,-523.7 105.5,-523.7"/>
<polygon fill="#000000" stroke="#000000" points="405.169,-299.0642 412.2639,-304.2239 409.0845,-299.8821 413,-300.7 413,-300.7 413,-300.7 409.0845,-299.8821 413.7361,-297.1761 405.169,-299.0642 405.169,-299.0642"/>
<ellipse fill="none" stroke="#000000" cx="402.0366" cy="-298.4098" rx="3.2" ry="3.2"/>
</g>
<!-- user_chapters -->
<g id="node10" class="node">
<title>user_chapters</title>
<g id="a_node10"><a xlink:href="../../tables/user_chapters.html" xlink:title="user_chapters" target="_top">
<polygon fill="#ffffff" stroke="transparent" points="429,-504.2 429,-631.2 545,-631.2 545,-504.2 429,-504.2"/>
<polygon fill="#f5f5f5" stroke="transparent" points="429,-607.7 429,-630.7 545,-630.7 545,-607.7 429,-607.7"/>
<polygon fill="none" stroke="#000000" points="429,-607.7 429,-630.7 545,-630.7 545,-607.7 429,-607.7"/>
<text text-anchor="start" x="434" y="-616.8" font-family="Helvetica,sans-Serif" font-weight="bold" font-size="11.00" fill="#000000">user_chapters</text>
<text text-anchor="start" x="510.0437" y="-615.8" font-family="Helvetica,sans-Serif" font-size="11.00" fill="#000000">[table]</text>
<polygon fill="none" stroke="#000000" points="429,-585.7 429,-607.7 545,-607.7 545,-585.7 429,-585.7"/>
<image xlink:href="../../images/primaryKeys.png" width="11px" height="12px" preserveAspectRatio="xMinYMin meet" x="434" y="-602.7"/>
<text text-anchor="start" x="449" y="-592.8" font-family="Helvetica,sans-Serif" font-size="11.00" fill="#000000">id</text>
<polygon fill="none" stroke="#000000" points="429,-563.7 429,-585.7 545,-585.7 545,-563.7 429,-563.7"/>
<image xlink:href="../../images/foreignKeys.png" width="11px" height="12px" preserveAspectRatio="xMinYMin meet" x="434" y="-580.7"/>
<text text-anchor="start" x="449" y="-570.8" font-family="Helvetica,sans-Serif" font-size="11.00" fill="#000000">user_id</text>
<polygon fill="none" stroke="#000000" points="429,-541.7 429,-563.7 545,-563.7 545,-541.7 429,-541.7"/>
<image xlink:href="../../images/foreignKeys.png" width="11px" height="12px" preserveAspectRatio="xMinYMin meet" x="434" y="-558.7"/>
<text text-anchor="start" x="449" y="-548.8" font-family="Helvetica,sans-Serif" font-size="11.00" fill="#000000">chapter_id</text>
<polygon fill="none" stroke="#000000" points="429,-522.7 429,-541.7 545,-541.7 545,-522.7 429,-522.7"/>
<text text-anchor="start" x="432" y="-528.8" font-family="Helvetica,sans-Serif" font-size="11.00" fill="#000000">...</text>
<polygon fill="#ffffff" stroke="transparent" points="429,-503.7 429,-522.7 472,-522.7 472,-503.7 429,-503.7"/>
<polygon fill="none" stroke="#000000" points="429,-503.7 429,-522.7 472,-522.7 472,-503.7 429,-503.7"/>
<text text-anchor="start" x="432" y="-509.8" font-family="Helvetica,sans-Serif" font-size="11.00" fill="#000000">&lt; 2</text>
<polygon fill="#ffffff" stroke="transparent" points="472,-503.7 472,-522.7 521,-522.7 521,-503.7 472,-503.7"/>
<polygon fill="none" stroke="#000000" points="472,-503.7 472,-522.7 521,-522.7 521,-503.7 472,-503.7"/>
<text text-anchor="start" x="485.6105" y="-509.8" font-family="Helvetica,sans-Serif" font-size="11.00" fill="#000000">0 rows</text>
<polygon fill="#ffffff" stroke="transparent" points="521,-503.7 521,-522.7 545,-522.7 545,-503.7 521,-503.7"/>
<polygon fill="none" stroke="#000000" points="521,-503.7 521,-522.7 545,-522.7 545,-503.7 521,-503.7"/>
<text text-anchor="start" x="535.8862" y="-509.8" font-family="Helvetica,sans-Serif" font-size="11.00" fill="#000000"> &#160;</text>
</a>
</g>
</g>
<!-- user_chapters&#45;&gt;chapters -->
<g id="edge12" class="edge">
<title>user_chapters:w&#45;&gt;chapters:e</title>
<path fill="none" stroke="#000000" d="M414.8081,-549.5355C382.4458,-532.319 410.5181,-450.7 362,-450.7"/>
<polygon fill="#000000" stroke="#000000" points="421.1918,-550.9589 428.2165,-556.2137 425.0959,-551.8294 429,-552.7 429,-552.7 429,-552.7 425.0959,-551.8294 429.7835,-549.1863 421.1918,-550.9589 421.1918,-550.9589"/>
<ellipse fill="none" stroke="#000000" cx="418.0685" cy="-550.2624" rx="3.2" ry="3.2"/>
</g>
<!-- user_chapters&#45;&gt;users -->
<g id="edge13" class="edge">
<title>user_chapters:w&#45;&gt;users:e</title>
<path fill="none" stroke="#000000" d="M414.4901,-572.757C399.3048,-568.2181 392.9166,-556.9097 372,-551.7 256.4343,-522.9159 224.5964,-523.7 105.5,-523.7"/>
<polygon fill="#000000" stroke="#000000" points="421.0708,-573.6382 428.5222,-578.2682 425.0354,-574.1691 429,-574.7 429,-574.7 429,-574.7 425.0354,-574.1691 429.4778,-571.1318 421.0708,-573.6382 421.0708,-573.6382"/>
<ellipse fill="none" stroke="#000000" cx="417.8991" cy="-573.2134" rx="3.2" ry="3.2"/>
</g>
<!-- user_instance_roles -->
<g id="node11" class="node">
<title>user_instance_roles</title>
<g id="a_node11"><a xlink:href="../../tables/user_instance_roles.html" xlink:title="user_instance_roles" target="_top">
<polygon fill="#ffffff" stroke="transparent" points="188.5,-562.2 188.5,-623.2 329.5,-623.2 329.5,-562.2 188.5,-562.2"/>
<polygon fill="#f5f5f5" stroke="transparent" points="189,-599.7 189,-622.7 330,-622.7 330,-599.7 189,-599.7"/>
<polygon fill="none" stroke="#000000" points="189,-599.7 189,-622.7 330,-622.7 330,-599.7 189,-599.7"/>
<text text-anchor="start" x="193.7943" y="-608.8" font-family="Helvetica,sans-Serif" font-weight="bold" font-size="11.00" fill="#000000">user_instance_roles</text>
<text text-anchor="start" x="295.5219" y="-607.8" font-family="Helvetica,sans-Serif" font-size="11.00" fill="#000000">[table]</text>
<polygon fill="none" stroke="#000000" points="189,-580.7 189,-599.7 330,-599.7 330,-580.7 189,-580.7"/>
<text text-anchor="start" x="192" y="-586.8" font-family="Helvetica,sans-Serif" font-size="11.00" fill="#000000">...</text>
<polygon fill="#ffffff" stroke="transparent" points="189,-561.7 189,-580.7 245,-580.7 245,-561.7 189,-561.7"/>
<polygon fill="none" stroke="#000000" points="189,-561.7 189,-580.7 245,-580.7 245,-561.7 189,-561.7"/>
<text text-anchor="start" x="192" y="-567.8" font-family="Helvetica,sans-Serif" font-size="11.00" fill="#000000">&lt; 1</text>
<polygon fill="#ffffff" stroke="transparent" points="245,-561.7 245,-580.7 300,-580.7 300,-561.7 245,-561.7"/>
<polygon fill="none" stroke="#000000" points="245,-561.7 245,-580.7 300,-580.7 300,-561.7 245,-561.7"/>
<text text-anchor="start" x="264.6105" y="-567.8" font-family="Helvetica,sans-Serif" font-size="11.00" fill="#000000">0 rows</text>
<polygon fill="#ffffff" stroke="transparent" points="300,-561.7 300,-580.7 330,-580.7 330,-561.7 300,-561.7"/>
<polygon fill="none" stroke="#000000" points="300,-561.7 300,-580.7 330,-580.7 330,-561.7 300,-561.7"/>
<text text-anchor="start" x="320.8862" y="-567.8" font-family="Helvetica,sans-Serif" font-size="11.00" fill="#000000"> &#160;</text>
</a>
</g>
</g>
<!-- user_instance_roles&#45;&gt;users -->
<g id="edge14" class="edge">
<title>user_instance_roles:w&#45;&gt;users:e</title>
<path fill="none" stroke="#000000" d="M174.5882,-587.1933C143.4972,-575.1376 147.2607,-523.7 105.5,-523.7"/>
<polygon fill="#000000" stroke="#000000" points="181.1183,-588.3291 188.3831,-593.2468 185.0592,-589.0145 189,-589.7 189,-589.7 189,-589.7 185.0592,-589.0145 189.6169,-586.1532 181.1183,-588.3291 181.1183,-588.3291"/>
<ellipse fill="none" stroke="#000000" cx="177.9657" cy="-587.7807" rx="3.2" ry="3.2"/>
</g>
</g>
</svg>
