<?xml version="1.0" encoding="UTF-8" standalone="no"?>
<!DOCTYPE svg PUBLIC "-//W3C//DTD SVG 1.1//EN"
 "http://www.w3.org/Graphics/SVG/1.1/DTD/svg11.dtd">
<!-- Generated by graphviz version 2.40.1 (20161225.0304)
 -->
<!-- Title: twoDegreesRelationshipsDiagram Pages: 1 -->
<svg width="672pt" height="515pt"
 viewBox="0.00 0.00 672.00 514.70" xmlns="http://www.w3.org/2000/svg" xmlns:xlink="http://www.w3.org/1999/xlink">
<g id="graph0" class="graph" transform="scale(1 1) rotate(0) translate(4 510.7)">
<title>twoDegreesRelationshipsDiagram</title>
<polygon fill="#ffffff" stroke="transparent" points="-4,4 -4,-510.7 668,-510.7 668,4 -4,4"/>
<text text-anchor="middle" x="72.4936" y="-7.3" font-family="Helvetica,sans-Serif" font-size="11.00" fill="#000000">Generated by SchemaSpy</text>
<!-- chapter_tags -->
<g id="node1" class="node">
<title>chapter_tags</title>
<g id="a_node1"><a xlink:href="../../tables/chapter_tags.html" xlink:title="chapter_tags" target="_top">
<polygon fill="#ffffff" stroke="transparent" points="319,-368.7 319,-502.7 504,-502.7 504,-368.7 319,-368.7"/>
<polygon fill="#f5f5f5" stroke="transparent" points="321.5,-477.7 321.5,-500.7 502.5,-500.7 502.5,-477.7 321.5,-477.7"/>
<polygon fill="none" stroke="#000000" points="321.5,-477.7 321.5,-500.7 502.5,-500.7 502.5,-477.7 321.5,-477.7"/>
<text text-anchor="start" x="326.5" y="-486.3" font-family="Helvetica,sans-Serif" font-weight="bold" font-size="11.00" fill="#000000">chapter_tags</text>
<text text-anchor="start" x="467.5437" y="-485.8" font-family="Helvetica,sans-Serif" font-size="11.00" fill="#000000">[table]</text>
<polygon fill="none" stroke="#000000" points="321.5,-455.7 321.5,-477.7 418.5,-477.7 418.5,-455.7 321.5,-455.7"/>
<text text-anchor="start" x="341.5" y="-462.8" font-family="Helvetica,sans-Serif" font-size="11.00" fill="#000000">created_at</text>
<polygon fill="none" stroke="#000000" points="418.5,-455.7 418.5,-477.7 502.5,-477.7 502.5,-455.7 418.5,-455.7"/>
<text text-anchor="start" x="421.3807" y="-463.4" font-family="Helvetica,sans-Serif" font-size="11.00" fill="#000000">timestamp[26,3]</text>
<polygon fill="none" stroke="#000000" points="321.5,-433.7 321.5,-455.7 418.5,-455.7 418.5,-433.7 321.5,-433.7"/>
<text text-anchor="start" x="341.5" y="-440.8" font-family="Helvetica,sans-Serif" font-size="11.00" fill="#000000">updated_at</text>
<polygon fill="none" stroke="#000000" points="418.5,-433.7 418.5,-455.7 502.5,-455.7 502.5,-433.7 418.5,-433.7"/>
<text text-anchor="start" x="421.3807" y="-441.4" font-family="Helvetica,sans-Serif" font-size="11.00" fill="#000000">timestamp[26,3]</text>
<polygon fill="none" stroke="#000000" points="321.5,-411.7 321.5,-433.7 418.5,-433.7 418.5,-411.7 321.5,-411.7"/>
<image xlink:href="../../images/primaryKeys.png" width="11px" height="12px" preserveAspectRatio="xMinYMin meet" x="326.5" y="-428.7"/>
<text text-anchor="start" x="341.5" y="-418.8" font-family="Helvetica,sans-Serif" font-size="11.00" fill="#000000">chapter_id</text>
<polygon fill="none" stroke="#000000" points="418.5,-411.7 418.5,-433.7 502.5,-433.7 502.5,-411.7 418.5,-411.7"/>
<text text-anchor="start" x="421.5" y="-419.4" font-family="Helvetica,sans-Serif" font-size="11.00" fill="#000000">int4[10]</text>
<polygon fill="none" stroke="#000000" points="321.5,-389.7 321.5,-411.7 418.5,-411.7 418.5,-389.7 321.5,-389.7"/>
<image xlink:href="../../images/primaryKeys.png" width="11px" height="12px" preserveAspectRatio="xMinYMin meet" x="326.5" y="-406.7"/>
<text text-anchor="start" x="341.5" y="-396.8" font-family="Helvetica,sans-Serif" font-size="11.00" fill="#000000">tag_id</text>
<polygon fill="none" stroke="#000000" points="418.5,-389.7 418.5,-411.7 502.5,-411.7 502.5,-389.7 418.5,-389.7"/>
<text text-anchor="start" x="421.5" y="-397.4" font-family="Helvetica,sans-Serif" font-size="11.00" fill="#000000">int4[10]</text>
<polygon fill="#ffffff" stroke="transparent" points="321.5,-370.7 321.5,-389.7 361.5,-389.7 361.5,-370.7 321.5,-370.7"/>
<polygon fill="none" stroke="#000000" points="321.5,-370.7 321.5,-389.7 361.5,-389.7 361.5,-370.7 321.5,-370.7"/>
<text text-anchor="start" x="324.5" y="-376.8" font-family="Helvetica,sans-Serif" font-size="11.00" fill="#000000">&lt; 2</text>
<polygon fill="#ffffff" stroke="transparent" points="361.5,-370.7 361.5,-389.7 418.5,-389.7 418.5,-370.7 361.5,-370.7"/>
<polygon fill="none" stroke="#000000" points="361.5,-370.7 361.5,-389.7 418.5,-389.7 418.5,-370.7 361.5,-370.7"/>
<text text-anchor="start" x="383.1105" y="-376.8" font-family="Helvetica,sans-Serif" font-size="11.00" fill="#000000">0 rows</text>
<polygon fill="#ffffff" stroke="transparent" points="418.5,-370.7 418.5,-389.7 502.5,-389.7 502.5,-370.7 418.5,-370.7"/>
<polygon fill="none" stroke="#000000" points="418.5,-370.7 418.5,-389.7 502.5,-389.7 502.5,-370.7 418.5,-370.7"/>
<text text-anchor="start" x="483.9053" y="-376.8" font-family="Helvetica,sans-Serif" font-size="11.00" fill="#000000">0 &gt;</text>
<polygon fill="none" stroke="#000000" stroke-width="2" points="320,-369.7 320,-501.7 503,-501.7 503,-369.7 320,-369.7"/>
</a>
</g>
</g>
<!-- chapters -->
<g id="node2" class="node">
<title>chapters</title>
<g id="a_node2"><a xlink:href="../../tables/chapters.html" xlink:title="chapters" target="_top">
<polygon fill="#ffffff" stroke="transparent" points="8,-127.2 8,-210.2 99,-210.2 99,-127.2 8,-127.2"/>
<polygon fill="#f5f5f5" stroke="transparent" points="8.5,-186.7 8.5,-209.7 99.5,-209.7 99.5,-186.7 8.5,-186.7"/>
<polygon fill="none" stroke="#000000" points="8.5,-186.7 8.5,-209.7 99.5,-209.7 99.5,-186.7 8.5,-186.7"/>
<text text-anchor="start" x="13.5" y="-195.3" font-family="Helvetica,sans-Serif" font-weight="bold" font-size="11.00" fill="#000000">chapters</text>
<text text-anchor="start" x="65.0219" y="-194.8" font-family="Helvetica,sans-Serif" font-size="11.00" fill="#000000">[table]</text>
<polygon fill="none" stroke="#000000" points="8.5,-164.7 8.5,-186.7 99.5,-186.7 99.5,-164.7 8.5,-164.7"/>
<image xlink:href="../../images/primaryKeys.png" width="11px" height="12px" preserveAspectRatio="xMinYMin meet" x="13.5" y="-181.7"/>
<text text-anchor="start" x="29.5" y="-171.8" font-family="Helvetica,sans-Serif" font-size="11.00" fill="#000000">id</text>
<polygon fill="none" stroke="#000000" points="8.5,-145.7 8.5,-164.7 99.5,-164.7 99.5,-145.7 8.5,-145.7"/>
<text text-anchor="start" x="11.5" y="-151.8" font-family="Helvetica,sans-Serif" font-size="11.00" fill="#000000">...</text>
<polygon fill="#ffffff" stroke="transparent" points="8.5,-126.7 8.5,-145.7 30.5,-145.7 30.5,-126.7 8.5,-126.7"/>
<polygon fill="none" stroke="#000000" points="8.5,-126.7 8.5,-145.7 30.5,-145.7 30.5,-126.7 8.5,-126.7"/>
<text text-anchor="start" x="11.5" y="-132.8" font-family="Helvetica,sans-Serif" font-size="11.00" fill="#000000"> &#160;</text>
<polygon fill="#ffffff" stroke="transparent" points="30.5,-126.7 30.5,-145.7 73.5,-145.7 73.5,-126.7 30.5,-126.7"/>
<polygon fill="none" stroke="#000000" points="30.5,-126.7 30.5,-145.7 73.5,-145.7 73.5,-126.7 30.5,-126.7"/>
<text text-anchor="start" x="38.1105" y="-132.8" font-family="Helvetica,sans-Serif" font-size="11.00" fill="#000000">0 rows</text>
<polygon fill="#ffffff" stroke="transparent" points="73.5,-126.7 73.5,-145.7 99.5,-145.7 99.5,-126.7 73.5,-126.7"/>
<polygon fill="none" stroke="#000000" points="73.5,-126.7 73.5,-145.7 99.5,-145.7 99.5,-126.7 73.5,-126.7"/>
<text text-anchor="start" x="80.9053" y="-132.8" font-family="Helvetica,sans-Serif" font-size="11.00" fill="#000000">5 &gt;</text>
</a>
</g>
</g>
<!-- chapter_tags&#45;&gt;chapters -->
<g id="edge1" class="edge">
<title>chapter_tags:w&#45;&gt;chapters:e</title>
<path fill="none" stroke="#000000" d="M306.838,-423.3312C235.7941,-429.4389 197.5833,-476.7678 140,-427.7 96.829,-390.9132 156.2186,-175.7 99.5,-175.7"/>
<polygon fill="#000000" stroke="#000000" points="313.5074,-423.0441 321.6549,-426.2967 317.5037,-422.8721 321.5,-422.7 321.5,-422.7 321.5,-422.7 317.5037,-422.8721 321.3451,-419.1033 313.5074,-423.0441 313.5074,-423.0441"/>
<ellipse fill="none" stroke="#000000" cx="310.3104" cy="-423.1818" rx="3.2" ry="3.2"/>
</g>
<!-- tags -->
<g id="node3" class="node">
<title>tags</title>
<g id="a_node3"><a xlink:href="../../tables/tags.html" xlink:title="tags" target="_top">
<polygon fill="#ffffff" stroke="transparent" points="165,-312.2 165,-417.2 253,-417.2 253,-312.2 165,-312.2"/>
<polygon fill="#f5f5f5" stroke="transparent" points="165,-393.7 165,-416.7 253,-416.7 253,-393.7 165,-393.7"/>
<polygon fill="none" stroke="#000000" points="165,-393.7 165,-416.7 253,-416.7 253,-393.7 165,-393.7"/>
<text text-anchor="start" x="170" y="-402.3" font-family="Helvetica,sans-Serif" font-weight="bold" font-size="11.00" fill="#000000">tags</text>
<text text-anchor="start" x="218.0437" y="-401.8" font-family="Helvetica,sans-Serif" font-size="11.00" fill="#000000">[table]</text>
<polygon fill="none" stroke="#000000" points="165,-371.7 165,-393.7 253,-393.7 253,-371.7 165,-371.7"/>
<image xlink:href="../../images/primaryKeys.png" width="11px" height="12px" preserveAspectRatio="xMinYMin meet" x="170" y="-388.7"/>
<text text-anchor="start" x="185" y="-378.8" font-family="Helvetica,sans-Serif" font-size="11.00" fill="#000000">id</text>
<polygon fill="#ffffff" stroke="transparent" points="165,-349.7 165,-371.7 253,-371.7 253,-349.7 165,-349.7"/>
<polygon fill="none" stroke="#000000" points="165,-349.7 165,-371.7 253,-371.7 253,-349.7 165,-349.7"/>
<text text-anchor="start" x="185" y="-356.8" font-family="Helvetica,sans-Serif" font-size="11.00" fill="#000000">name</text>
<polygon fill="none" stroke="#000000" points="165,-330.7 165,-349.7 253,-349.7 253,-330.7 165,-330.7"/>
<text text-anchor="start" x="168" y="-336.8" font-family="Helvetica,sans-Serif" font-size="11.00" fill="#000000">...</text>
<polygon fill="#ffffff" stroke="transparent" points="165,-311.7 165,-330.7 185,-330.7 185,-311.7 165,-311.7"/>
<polygon fill="none" stroke="#000000" points="165,-311.7 165,-330.7 185,-330.7 185,-311.7 165,-311.7"/>
<text text-anchor="start" x="168" y="-317.8" font-family="Helvetica,sans-Serif" font-size="11.00" fill="#000000"> &#160;</text>
<polygon fill="#ffffff" stroke="transparent" points="185,-311.7 185,-330.7 227,-330.7 227,-311.7 185,-311.7"/>
<polygon fill="none" stroke="#000000" points="185,-311.7 185,-330.7 227,-330.7 227,-311.7 185,-311.7"/>
<text text-anchor="start" x="191.6105" y="-317.8" font-family="Helvetica,sans-Serif" font-size="11.00" fill="#000000">0 rows</text>
<polygon fill="#ffffff" stroke="transparent" points="227,-311.7 227,-330.7 253,-330.7 253,-311.7 227,-311.7"/>
<polygon fill="none" stroke="#000000" points="227,-311.7 227,-330.7 253,-330.7 253,-311.7 227,-311.7"/>
<text text-anchor="start" x="234.4053" y="-317.8" font-family="Helvetica,sans-Serif" font-size="11.00" fill="#000000">3 &gt;</text>
</a>
</g>
</g>
<!-- chapter_tags&#45;&gt;tags -->
<g id="edge2" class="edge">
<title>chapter_tags:w&#45;&gt;tags:e</title>
<path fill="none" stroke="#000000" d="M307.0226,-399.227C287.2716,-394.9281 278.9448,-382.7 253,-382.7"/>
<polygon fill="#000000" stroke="#000000" points="313.5411,-399.8902 321.1356,-404.2815 317.5205,-400.2951 321.5,-400.7 321.5,-400.7 321.5,-400.7 317.5205,-400.2951 321.8644,-397.1185 313.5411,-399.8902 313.5411,-399.8902"/>
<ellipse fill="none" stroke="#000000" cx="310.3575" cy="-399.5662" rx="3.2" ry="3.2"/>
</g>
<!-- chapter_users -->
<g id="node4" class="node">
<title>chapter_users</title>
<g id="a_node4"><a xlink:href="../../tables/chapter_users.html" xlink:title="chapter_users" target="_top">
<polygon fill="#ffffff" stroke="transparent" points="148,-230.2 148,-291.2 270,-291.2 270,-230.2 148,-230.2"/>
<polygon fill="#f5f5f5" stroke="transparent" points="148,-267.7 148,-290.7 270,-290.7 270,-267.7 148,-267.7"/>
<polygon fill="none" stroke="#000000" points="148,-267.7 148,-290.7 270,-290.7 270,-267.7 148,-267.7"/>
<text text-anchor="start" x="153" y="-276.3" font-family="Helvetica,sans-Serif" font-weight="bold" font-size="11.00" fill="#000000">chapter_users</text>
<text text-anchor="start" x="235.5219" y="-275.8" font-family="Helvetica,sans-Serif" font-size="11.00" fill="#000000">[table]</text>
<polygon fill="none" stroke="#000000" points="148,-248.7 148,-267.7 270,-267.7 270,-248.7 148,-248.7"/>
<text text-anchor="start" x="151" y="-254.8" font-family="Helvetica,sans-Serif" font-size="11.00" fill="#000000">...</text>
<polygon fill="#ffffff" stroke="transparent" points="148,-229.7 148,-248.7 194,-248.7 194,-229.7 148,-229.7"/>
<polygon fill="none" stroke="#000000" points="148,-229.7 148,-248.7 194,-248.7 194,-229.7 148,-229.7"/>
<text text-anchor="start" x="151" y="-235.8" font-family="Helvetica,sans-Serif" font-size="11.00" fill="#000000">&lt; 3</text>
<polygon fill="#ffffff" stroke="transparent" points="194,-229.7 194,-248.7 245,-248.7 245,-229.7 194,-229.7"/>
<polygon fill="none" stroke="#000000" points="194,-229.7 194,-248.7 245,-248.7 245,-229.7 194,-229.7"/>
<text text-anchor="start" x="209.6105" y="-235.8" font-family="Helvetica,sans-Serif" font-size="11.00" fill="#000000">0 rows</text>
<polygon fill="#ffffff" stroke="transparent" points="245,-229.7 245,-248.7 270,-248.7 270,-229.7 245,-229.7"/>
<polygon fill="none" stroke="#000000" points="245,-229.7 245,-248.7 270,-248.7 270,-229.7 245,-229.7"/>
<text text-anchor="start" x="260.8862" y="-235.8" font-family="Helvetica,sans-Serif" font-size="11.00" fill="#000000"> &#160;</text>
</a>
</g>
</g>
<!-- chapter_users&#45;&gt;chapters -->
<g id="edge3" class="edge">
<title>chapter_users:w&#45;&gt;chapters:e</title>
<path fill="none" stroke="#000000" d="M134.0877,-253.0564C114.4771,-235.7098 135.7222,-175.7 99.5,-175.7"/>
<polygon fill="#000000" stroke="#000000" points="140.4115,-255.1671 146.8602,-261.1148 144.2058,-256.4336 148,-257.7 148,-257.7 148,-257.7 144.2058,-256.4336 149.1398,-254.2852 140.4115,-255.1671 140.4115,-255.1671"/>
<ellipse fill="none" stroke="#000000" cx="137.3762" cy="-254.1539" rx="3.2" ry="3.2"/>
</g>
<!-- event_tags -->
<g id="node5" class="node">
<title>event_tags</title>
<g id="a_node5"><a xlink:href="../../tables/event_tags.html" xlink:title="event_tags" target="_top">
<polygon fill="#ffffff" stroke="transparent" points="553,-231.2 553,-292.2 656,-292.2 656,-231.2 553,-231.2"/>
<polygon fill="#f5f5f5" stroke="transparent" points="553.5,-268.7 553.5,-291.7 656.5,-291.7 656.5,-268.7 553.5,-268.7"/>
<polygon fill="none" stroke="#000000" points="553.5,-268.7 553.5,-291.7 656.5,-291.7 656.5,-268.7 553.5,-268.7"/>
<text text-anchor="start" x="558.5" y="-277.3" font-family="Helvetica,sans-Serif" font-weight="bold" font-size="11.00" fill="#000000">event_tags</text>
<text text-anchor="start" x="622.0219" y="-276.8" font-family="Helvetica,sans-Serif" font-size="11.00" fill="#000000">[table]</text>
<polygon fill="none" stroke="#000000" points="553.5,-249.7 553.5,-268.7 656.5,-268.7 656.5,-249.7 553.5,-249.7"/>
<text text-anchor="start" x="556.5" y="-255.8" font-family="Helvetica,sans-Serif" font-size="11.00" fill="#000000">...</text>
<polygon fill="#ffffff" stroke="transparent" points="553.5,-230.7 553.5,-249.7 590.5,-249.7 590.5,-230.7 553.5,-230.7"/>
<polygon fill="none" stroke="#000000" points="553.5,-230.7 553.5,-249.7 590.5,-249.7 590.5,-230.7 553.5,-230.7"/>
<text text-anchor="start" x="556.5" y="-236.8" font-family="Helvetica,sans-Serif" font-size="11.00" fill="#000000">&lt; 2</text>
<polygon fill="#ffffff" stroke="transparent" points="590.5,-230.7 590.5,-249.7 636.5,-249.7 636.5,-230.7 590.5,-230.7"/>
<polygon fill="none" stroke="#000000" points="590.5,-230.7 590.5,-249.7 636.5,-249.7 636.5,-230.7 590.5,-230.7"/>
<text text-anchor="start" x="601.1105" y="-236.8" font-family="Helvetica,sans-Serif" font-size="11.00" fill="#000000">0 rows</text>
<polygon fill="#ffffff" stroke="transparent" points="636.5,-230.7 636.5,-249.7 656.5,-249.7 656.5,-230.7 636.5,-230.7"/>
<polygon fill="none" stroke="#000000" points="636.5,-230.7 636.5,-249.7 656.5,-249.7 656.5,-230.7 636.5,-230.7"/>
<text text-anchor="start" x="647.3862" y="-236.8" font-family="Helvetica,sans-Serif" font-size="11.00" fill="#000000"> &#160;</text>
</a>
</g>
</g>
<!-- event_tags&#45;&gt;tags -->
<g id="edge5" class="edge">
<title>event_tags:w&#45;&gt;tags:e</title>
<path fill="none" stroke="#000000" d="M539.5012,-262.9987C525.6202,-274.7344 534.9434,-307.4584 512,-322.7 436.4054,-372.9186 398.0995,-333.2025 311,-358.7 284.2261,-366.5378 280.8975,-382.7 253,-382.7"/>
<polygon fill="#000000" stroke="#000000" points="545.8524,-261.0484 554.5568,-262.1414 549.6762,-259.8742 553.5,-258.7 553.5,-258.7 553.5,-258.7 549.6762,-259.8742 552.4432,-255.2586 545.8524,-261.0484 545.8524,-261.0484"/>
<ellipse fill="none" stroke="#000000" cx="542.7934" cy="-261.9878" rx="3.2" ry="3.2"/>
</g>
<!-- events -->
<g id="node6" class="node">
<title>events</title>
<g id="a_node6"><a xlink:href="../../tables/events.html" xlink:title="events" target="_top">
<polygon fill="#ffffff" stroke="transparent" points="371.5,-148.2 371.5,-209.2 451.5,-209.2 451.5,-148.2 371.5,-148.2"/>
<polygon fill="#f5f5f5" stroke="transparent" points="371.5,-185.7 371.5,-208.7 451.5,-208.7 451.5,-185.7 371.5,-185.7"/>
<polygon fill="none" stroke="#000000" points="371.5,-185.7 371.5,-208.7 451.5,-208.7 451.5,-185.7 371.5,-185.7"/>
<text text-anchor="start" x="376.5" y="-194.3" font-family="Helvetica,sans-Serif" font-weight="bold" font-size="11.00" fill="#000000">events</text>
<text text-anchor="start" x="417.0219" y="-193.8" font-family="Helvetica,sans-Serif" font-size="11.00" fill="#000000">[table]</text>
<polygon fill="none" stroke="#000000" points="371.5,-166.7 371.5,-185.7 451.5,-185.7 451.5,-166.7 371.5,-166.7"/>
<text text-anchor="start" x="374.5" y="-172.8" font-family="Helvetica,sans-Serif" font-size="11.00" fill="#000000">...</text>
<polygon fill="#ffffff" stroke="transparent" points="371.5,-147.7 371.5,-166.7 392.5,-166.7 392.5,-147.7 371.5,-147.7"/>
<polygon fill="none" stroke="#000000" points="371.5,-147.7 371.5,-166.7 392.5,-166.7 392.5,-147.7 371.5,-147.7"/>
<text text-anchor="start" x="374.2027" y="-153.8" font-family="Helvetica,sans-Serif" font-size="11.00" fill="#000000">&lt; 2</text>
<polygon fill="#ffffff" stroke="transparent" points="392.5,-147.7 392.5,-166.7 430.5,-166.7 430.5,-147.7 392.5,-147.7"/>
<polygon fill="none" stroke="#000000" points="392.5,-147.7 392.5,-166.7 430.5,-166.7 430.5,-147.7 392.5,-147.7"/>
<text text-anchor="start" x="395.3053" y="-153.8" font-family="Helvetica,sans-Serif" font-size="11.00" fill="#000000">0 rows</text>
<polygon fill="#ffffff" stroke="transparent" points="430.5,-147.7 430.5,-166.7 451.5,-166.7 451.5,-147.7 430.5,-147.7"/>
<polygon fill="none" stroke="#000000" points="430.5,-147.7 430.5,-166.7 451.5,-166.7 451.5,-147.7 430.5,-147.7"/>
<text text-anchor="start" x="433.2027" y="-153.8" font-family="Helvetica,sans-Serif" font-size="11.00" fill="#000000">3 &gt;</text>
</a>
</g>
</g>
<!-- event_tags&#45;&gt;events -->
<g id="edge4" class="edge">
<title>event_tags:w&#45;&gt;events:e</title>
<path fill="none" stroke="#000000" d="M539.1451,-256.7302C497.1703,-244.1611 504.5806,-175.7 451.5,-175.7"/>
<polygon fill="#000000" stroke="#000000" points="545.5743,-257.6124 553.0106,-262.2666 549.5371,-258.1562 553.5,-258.7 553.5,-258.7 553.5,-258.7 549.5371,-258.1562 553.9894,-255.1334 545.5743,-257.6124 545.5743,-257.6124"/>
<ellipse fill="none" stroke="#000000" cx="542.404" cy="-257.1773" rx="3.2" ry="3.2"/>
</g>
<!-- events&#45;&gt;chapters -->
<g id="edge6" class="edge">
<title>events:w&#45;&gt;chapters:e</title>
<path fill="none" stroke="#000000" d="M356.8331,-174.496C324.9468,-168.8856 316.6925,-145.2623 278,-137.7 217.8056,-125.9352 197.031,-115.1337 140,-137.7 117.0487,-146.7815 124.1827,-175.7 99.5,-175.7"/>
<polygon fill="#000000" stroke="#000000" points="363.5268,-175.0454 371.2054,-179.2879 367.5134,-175.3727 371.5,-175.7 371.5,-175.7 371.5,-175.7 367.5134,-175.3727 371.7946,-172.1121 363.5268,-175.0454 363.5268,-175.0454"/>
<ellipse fill="none" stroke="#000000" cx="360.3375" cy="-174.7836" rx="3.2" ry="3.2"/>
</g>
<!-- venues -->
<g id="node7" class="node">
<title>venues</title>
<g id="a_node7"><a xlink:href="../../tables/venues.html" xlink:title="venues" target="_top">
<polygon fill="#ffffff" stroke="transparent" points="168.5,-148.2 168.5,-209.2 249.5,-209.2 249.5,-148.2 168.5,-148.2"/>
<polygon fill="#f5f5f5" stroke="transparent" points="169,-185.7 169,-208.7 250,-208.7 250,-185.7 169,-185.7"/>
<polygon fill="none" stroke="#000000" points="169,-185.7 169,-208.7 250,-208.7 250,-185.7 169,-185.7"/>
<text text-anchor="start" x="174" y="-194.3" font-family="Helvetica,sans-Serif" font-weight="bold" font-size="11.00" fill="#000000">venues</text>
<text text-anchor="start" x="215.5219" y="-193.8" font-family="Helvetica,sans-Serif" font-size="11.00" fill="#000000">[table]</text>
<polygon fill="none" stroke="#000000" points="169,-166.7 169,-185.7 250,-185.7 250,-166.7 169,-166.7"/>
<text text-anchor="start" x="172" y="-172.8" font-family="Helvetica,sans-Serif" font-size="11.00" fill="#000000">...</text>
<polygon fill="#ffffff" stroke="transparent" points="169,-147.7 169,-166.7 190,-166.7 190,-147.7 169,-147.7"/>
<polygon fill="none" stroke="#000000" points="169,-147.7 169,-166.7 190,-166.7 190,-147.7 169,-147.7"/>
<text text-anchor="start" x="171.7027" y="-153.8" font-family="Helvetica,sans-Serif" font-size="11.00" fill="#000000">&lt; 1</text>
<polygon fill="#ffffff" stroke="transparent" points="190,-147.7 190,-166.7 228,-166.7 228,-147.7 190,-147.7"/>
<polygon fill="none" stroke="#000000" points="190,-147.7 190,-166.7 228,-166.7 228,-147.7 190,-147.7"/>
<text text-anchor="start" x="192.8053" y="-153.8" font-family="Helvetica,sans-Serif" font-size="11.00" fill="#000000">0 rows</text>
<polygon fill="#ffffff" stroke="transparent" points="228,-147.7 228,-166.7 250,-166.7 250,-147.7 228,-147.7"/>
<polygon fill="none" stroke="#000000" points="228,-147.7 228,-166.7 250,-166.7 250,-147.7 228,-147.7"/>
<text text-anchor="start" x="231.4053" y="-153.8" font-family="Helvetica,sans-Serif" font-size="11.00" fill="#000000">2 &gt;</text>
</a>
</g>
</g>
<!-- events&#45;&gt;venues -->
<g id="edge7" class="edge">
<title>events:w&#45;&gt;venues:e</title>
<path fill="none" stroke="#000000" d="M357.0379,-175.7C314.5451,-175.7 298.832,-175.7 250,-175.7"/>
<polygon fill="#000000" stroke="#000000" points="363.5,-175.7001 371.5,-179.3 367.5,-175.7 371.5,-175.7 371.5,-175.7 371.5,-175.7 367.5,-175.7 371.5,-172.1 363.5,-175.7001 363.5,-175.7001"/>
<ellipse fill="none" stroke="#000000" cx="360.3" cy="-175.7001" rx="3.2" ry="3.2"/>
</g>
<!-- venues&#45;&gt;chapters -->
<g id="edge11" class="edge">
<title>venues:w&#45;&gt;chapters:e</title>
<path fill="none" stroke="#000000" d="M154.3241,-175.7C134.5879,-175.7 124.8385,-175.7 99.5,-175.7"/>
<polygon fill="#000000" stroke="#000000" points="161,-175.7001 169,-179.3 165,-175.7 169,-175.7 169,-175.7 169,-175.7 165,-175.7 169,-172.1 161,-175.7001 161,-175.7001"/>
<ellipse fill="none" stroke="#000000" cx="157.8" cy="-175.7001" rx="3.2" ry="3.2"/>
</g>
<!-- user_bans -->
<g id="node8" class="node">
<title>user_bans</title>
<g id="a_node8"><a xlink:href="../../tables/user_bans.html" xlink:title="user_bans" target="_top">
<polygon fill="#ffffff" stroke="transparent" points="159.5,-38.2 159.5,-99.2 258.5,-99.2 258.5,-38.2 159.5,-38.2"/>
<polygon fill="#f5f5f5" stroke="transparent" points="160,-75.7 160,-98.7 259,-98.7 259,-75.7 160,-75.7"/>
<polygon fill="none" stroke="#000000" points="160,-75.7 160,-98.7 259,-98.7 259,-75.7 160,-75.7"/>
<text text-anchor="start" x="165" y="-84.3" font-family="Helvetica,sans-Serif" font-weight="bold" font-size="11.00" fill="#000000">user_bans</text>
<text text-anchor="start" x="224.5219" y="-83.8" font-family="Helvetica,sans-Serif" font-size="11.00" fill="#000000">[table]</text>
<polygon fill="none" stroke="#000000" points="160,-56.7 160,-75.7 259,-75.7 259,-56.7 160,-56.7"/>
<text text-anchor="start" x="163" y="-62.8" font-family="Helvetica,sans-Serif" font-size="11.00" fill="#000000">...</text>
<polygon fill="#ffffff" stroke="transparent" points="160,-37.7 160,-56.7 195,-56.7 195,-37.7 160,-37.7"/>
<polygon fill="none" stroke="#000000" points="160,-37.7 160,-56.7 195,-56.7 195,-37.7 160,-37.7"/>
<text text-anchor="start" x="163" y="-43.8" font-family="Helvetica,sans-Serif" font-size="11.00" fill="#000000">&lt; 2</text>
<polygon fill="#ffffff" stroke="transparent" points="195,-37.7 195,-56.7 240,-56.7 240,-37.7 195,-37.7"/>
<polygon fill="none" stroke="#000000" points="195,-37.7 195,-56.7 240,-56.7 240,-37.7 195,-37.7"/>
<text text-anchor="start" x="204.6105" y="-43.8" font-family="Helvetica,sans-Serif" font-size="11.00" fill="#000000">0 rows</text>
<polygon fill="#ffffff" stroke="transparent" points="240,-37.7 240,-56.7 259,-56.7 259,-37.7 240,-37.7"/>
<polygon fill="none" stroke="#000000" points="240,-37.7 240,-56.7 259,-56.7 259,-37.7 240,-37.7"/>
<text text-anchor="start" x="249.8862" y="-43.8" font-family="Helvetica,sans-Serif" font-size="11.00" fill="#000000"> &#160;</text>
</a>
</g>
</g>
<!-- user_bans&#45;&gt;chapters -->
<g id="edge8" class="edge">
<title>user_bans:w&#45;&gt;chapters:e</title>
<path fill="none" stroke="#000000" d="M145.6621,-69.1127C113.7926,-87.6795 149.4108,-175.7 99.5,-175.7"/>
<polygon fill="#000000" stroke="#000000" points="152.2174,-67.5524 160.8336,-69.2022 156.1087,-66.6262 160,-65.7 160,-65.7 160,-65.7 156.1087,-66.6262 159.1664,-62.1978 152.2174,-67.5524 152.2174,-67.5524"/>
<ellipse fill="none" stroke="#000000" cx="149.1044" cy="-68.2934" rx="3.2" ry="3.2"/>
</g>
<!-- venue_tags -->
<g id="node9" class="node">
<title>venue_tags</title>
<g id="a_node9"><a xlink:href="../../tables/venue_tags.html" xlink:title="venue_tags" target="_top">
<polygon fill="#ffffff" stroke="transparent" points="359,-251.2 359,-312.2 464,-312.2 464,-251.2 359,-251.2"/>
<polygon fill="#f5f5f5" stroke="transparent" points="359.5,-288.7 359.5,-311.7 464.5,-311.7 464.5,-288.7 359.5,-288.7"/>
<polygon fill="none" stroke="#000000" points="359.5,-288.7 359.5,-311.7 464.5,-311.7 464.5,-288.7 359.5,-288.7"/>
<text text-anchor="start" x="364.5" y="-297.3" font-family="Helvetica,sans-Serif" font-weight="bold" font-size="11.00" fill="#000000">venue_tags</text>
<text text-anchor="start" x="430.0219" y="-296.8" font-family="Helvetica,sans-Serif" font-size="11.00" fill="#000000">[table]</text>
<polygon fill="none" stroke="#000000" points="359.5,-269.7 359.5,-288.7 464.5,-288.7 464.5,-269.7 359.5,-269.7"/>
<text text-anchor="start" x="362.5" y="-275.8" font-family="Helvetica,sans-Serif" font-size="11.00" fill="#000000">...</text>
<polygon fill="#ffffff" stroke="transparent" points="359.5,-250.7 359.5,-269.7 397.5,-269.7 397.5,-250.7 359.5,-250.7"/>
<polygon fill="none" stroke="#000000" points="359.5,-250.7 359.5,-269.7 397.5,-269.7 397.5,-250.7 359.5,-250.7"/>
<text text-anchor="start" x="362.5" y="-256.8" font-family="Helvetica,sans-Serif" font-size="11.00" fill="#000000">&lt; 2</text>
<polygon fill="#ffffff" stroke="transparent" points="397.5,-250.7 397.5,-269.7 443.5,-269.7 443.5,-250.7 397.5,-250.7"/>
<polygon fill="none" stroke="#000000" points="397.5,-250.7 397.5,-269.7 443.5,-269.7 443.5,-250.7 397.5,-250.7"/>
<text text-anchor="start" x="408.1105" y="-256.8" font-family="Helvetica,sans-Serif" font-size="11.00" fill="#000000">0 rows</text>
<polygon fill="#ffffff" stroke="transparent" points="443.5,-250.7 443.5,-269.7 464.5,-269.7 464.5,-250.7 443.5,-250.7"/>
<polygon fill="none" stroke="#000000" points="443.5,-250.7 443.5,-269.7 464.5,-269.7 464.5,-250.7 443.5,-250.7"/>
<text text-anchor="start" x="455.3862" y="-256.8" font-family="Helvetica,sans-Serif" font-size="11.00" fill="#000000"> &#160;</text>
</a>
</g>
</g>
<!-- venue_tags&#45;&gt;tags -->
<g id="edge9" class="edge">
<title>venue_tags:w&#45;&gt;tags:e</title>
<path fill="none" stroke="#000000" d="M344.974,-280.6847C296.9582,-295.0627 313.7314,-382.7 253,-382.7"/>
<polygon fill="#000000" stroke="#000000" points="351.5736,-279.783 359.9874,-282.2669 355.5368,-279.2415 359.5,-278.7 359.5,-278.7 359.5,-278.7 355.5368,-279.2415 359.0126,-275.1331 351.5736,-279.783 351.5736,-279.783"/>
<ellipse fill="none" stroke="#000000" cx="348.4031" cy="-280.2162" rx="3.2" ry="3.2"/>
</g>
<!-- venue_tags&#45;&gt;venues -->
<g id="edge10" class="edge">
<title>venue_tags:w&#45;&gt;venues:e</title>
<path fill="none" stroke="#000000" d="M345.1052,-276.8243C295.9674,-262.8644 311.4632,-175.7 250,-175.7"/>
<polygon fill="#000000" stroke="#000000" points="351.5671,-277.6663 359.0348,-282.2698 355.5335,-278.1831 359.5,-278.7 359.5,-278.7 359.5,-278.7 355.5335,-278.1831 359.9652,-275.1302 351.5671,-277.6663 351.5671,-277.6663"/>
<ellipse fill="none" stroke="#000000" cx="348.3939" cy="-277.2528" rx="3.2" ry="3.2"/>
</g>
</g>
</svg>
