<?xml version="1.0" encoding="UTF-8" standalone="no"?>
<!DOCTYPE svg PUBLIC "-//W3C//DTD SVG 1.1//EN"
 "http://www.w3.org/Graphics/SVG/1.1/DTD/svg11.dtd">
<!-- Generated by graphviz version 2.40.1 (20161225.0304)
 -->
<!-- Title: oneDegreeRelationshipsDiagram Pages: 1 -->
<svg width="555pt" height="566pt"
 viewBox="0.00 0.00 555.00 565.70" xmlns="http://www.w3.org/2000/svg" xmlns:xlink="http://www.w3.org/1999/xlink">
<g id="graph0" class="graph" transform="scale(1 1) rotate(0) translate(4 561.7)">
<title>oneDegreeRelationshipsDiagram</title>
<polygon fill="#ffffff" stroke="transparent" points="-4,4 -4,-561.7 551,-561.7 551,4 -4,4"/>
<text text-anchor="middle" x="72.4936" y="-7.3" font-family="Helvetica,sans-Serif" font-size="11.00" fill="#000000">Generated by SchemaSpy</text>
<!-- chapter_users -->
<g id="node1" class="node">
<title>chapter_users</title>
<g id="a_node1"><a xlink:href="../../tables/chapter_users.html" xlink:title="chapter_users" target="_top">
<polygon fill="#ffffff" stroke="transparent" points="240,-426.7 240,-553.7 362,-553.7 362,-426.7 240,-426.7"/>
<polygon fill="#f5f5f5" stroke="transparent" points="240,-530.2 240,-553.2 362,-553.2 362,-530.2 240,-530.2"/>
<polygon fill="none" stroke="#000000" points="240,-530.2 240,-553.2 362,-553.2 362,-530.2 240,-530.2"/>
<text text-anchor="start" x="245" y="-538.8" font-family="Helvetica,sans-Serif" font-weight="bold" font-size="11.00" fill="#000000">chapter_users</text>
<text text-anchor="start" x="327.5219" y="-538.3" font-family="Helvetica,sans-Serif" font-size="11.00" fill="#000000">[table]</text>
<polygon fill="none" stroke="#000000" points="240,-508.2 240,-530.2 362,-530.2 362,-508.2 240,-508.2"/>
<image xlink:href="../../images/primaryKeys.png" width="11px" height="12px" preserveAspectRatio="xMinYMin meet" x="245" y="-525.2"/>
<text text-anchor="start" x="265" y="-515.3" font-family="Helvetica,sans-Serif" font-size="11.00" fill="#000000">user_id</text>
<polygon fill="none" stroke="#000000" points="240,-486.2 240,-508.2 362,-508.2 362,-486.2 240,-486.2"/>
<image xlink:href="../../images/primaryKeys.png" width="11px" height="12px" preserveAspectRatio="xMinYMin meet" x="245" y="-503.2"/>
<text text-anchor="start" x="265" y="-493.3" font-family="Helvetica,sans-Serif" font-size="11.00" fill="#000000">chapter_id</text>
<polygon fill="none" stroke="#000000" points="240,-464.2 240,-486.2 362,-486.2 362,-464.2 240,-464.2"/>
<image xlink:href="../../images/foreignKeys.png" width="11px" height="12px" preserveAspectRatio="xMinYMin meet" x="245" y="-481.2"/>
<text text-anchor="start" x="265" y="-471.3" font-family="Helvetica,sans-Serif" font-size="11.00" fill="#000000">chapter_role_id</text>
<polygon fill="none" stroke="#000000" points="240,-445.2 240,-464.2 362,-464.2 362,-445.2 240,-445.2"/>
<text text-anchor="start" x="243" y="-451.3" font-family="Helvetica,sans-Serif" font-size="11.00" fill="#000000">...</text>
<polygon fill="#ffffff" stroke="transparent" points="240,-426.2 240,-445.2 286,-445.2 286,-426.2 240,-426.2"/>
<polygon fill="none" stroke="#000000" points="240,-426.2 240,-445.2 286,-445.2 286,-426.2 240,-426.2"/>
<text text-anchor="start" x="243" y="-432.3" font-family="Helvetica,sans-Serif" font-size="11.00" fill="#000000">&lt; 3</text>
<polygon fill="#ffffff" stroke="transparent" points="286,-426.2 286,-445.2 337,-445.2 337,-426.2 286,-426.2"/>
<polygon fill="none" stroke="#000000" points="286,-426.2 286,-445.2 337,-445.2 337,-426.2 286,-426.2"/>
<text text-anchor="start" x="301.6105" y="-432.3" font-family="Helvetica,sans-Serif" font-size="11.00" fill="#000000">0 rows</text>
<polygon fill="#ffffff" stroke="transparent" points="337,-426.2 337,-445.2 362,-445.2 362,-426.2 337,-426.2"/>
<polygon fill="none" stroke="#000000" points="337,-426.2 337,-445.2 362,-445.2 362,-426.2 337,-426.2"/>
<text text-anchor="start" x="352.8862" y="-432.3" font-family="Helvetica,sans-Serif" font-size="11.00" fill="#000000"> &#160;</text>
</a>
</g>
</g>
<!-- chapters -->
<g id="node2" class="node">
<title>chapters</title>
<g id="a_node2"><a xlink:href="../../tables/chapters.html" xlink:title="chapters" target="_top">
<polygon fill="#ffffff" stroke="transparent" points="8,-38.2 8,-392.2 191,-392.2 191,-38.2 8,-38.2"/>
<polygon fill="#f5f5f5" stroke="transparent" points="10.5,-367.2 10.5,-390.2 189.5,-390.2 189.5,-367.2 10.5,-367.2"/>
<polygon fill="none" stroke="#000000" points="10.5,-367.2 10.5,-390.2 189.5,-390.2 189.5,-367.2 10.5,-367.2"/>
<text text-anchor="start" x="15.5" y="-375.8" font-family="Helvetica,sans-Serif" font-weight="bold" font-size="11.00" fill="#000000">chapters</text>
<text text-anchor="start" x="154.5437" y="-375.3" font-family="Helvetica,sans-Serif" font-size="11.00" fill="#000000">[table]</text>
<polygon fill="none" stroke="#000000" points="10.5,-345.2 10.5,-367.2 99.5,-367.2 99.5,-345.2 10.5,-345.2"/>
<text text-anchor="start" x="30.5" y="-352.3" font-family="Helvetica,sans-Serif" font-size="11.00" fill="#000000">created_at</text>
<polygon fill="none" stroke="#000000" points="99.5,-345.2 99.5,-367.2 189.5,-367.2 189.5,-345.2 99.5,-345.2"/>
<text text-anchor="start" x="102.5" y="-352.9" font-family="Helvetica,sans-Serif" font-size="11.00" fill="#000000">timestamp[26,3]</text>
<polygon fill="none" stroke="#000000" points="10.5,-323.2 10.5,-345.2 99.5,-345.2 99.5,-323.2 10.5,-323.2"/>
<text text-anchor="start" x="30.5" y="-330.3" font-family="Helvetica,sans-Serif" font-size="11.00" fill="#000000">updated_at</text>
<polygon fill="none" stroke="#000000" points="99.5,-323.2 99.5,-345.2 189.5,-345.2 189.5,-323.2 99.5,-323.2"/>
<text text-anchor="start" x="102.5" y="-330.9" font-family="Helvetica,sans-Serif" font-size="11.00" fill="#000000">timestamp[26,3]</text>
<polygon fill="none" stroke="#000000" points="10.5,-301.2 10.5,-323.2 99.5,-323.2 99.5,-301.2 10.5,-301.2"/>
<image xlink:href="../../images/primaryKeys.png" width="11px" height="12px" preserveAspectRatio="xMinYMin meet" x="15.5" y="-318.2"/>
<text text-anchor="start" x="30.5" y="-308.3" font-family="Helvetica,sans-Serif" font-size="11.00" fill="#000000">id</text>
<polygon fill="none" stroke="#000000" points="99.5,-301.2 99.5,-323.2 189.5,-323.2 189.5,-301.2 99.5,-301.2"/>
<text text-anchor="start" x="102.5" y="-308.9" font-family="Helvetica,sans-Serif" font-size="11.00" fill="#000000">serial[10]</text>
<polygon fill="none" stroke="#000000" points="10.5,-279.2 10.5,-301.2 99.5,-301.2 99.5,-279.2 10.5,-279.2"/>
<text text-anchor="start" x="30.5" y="-286.3" font-family="Helvetica,sans-Serif" font-size="11.00" fill="#000000">name</text>
<polygon fill="none" stroke="#000000" points="99.5,-279.2 99.5,-301.2 189.5,-301.2 189.5,-279.2 99.5,-279.2"/>
<text text-anchor="start" x="102.0042" y="-286.9" font-family="Helvetica,sans-Serif" font-size="11.00" fill="#000000">text[2147483647]</text>
<polygon fill="none" stroke="#000000" points="10.5,-257.2 10.5,-279.2 99.5,-279.2 99.5,-257.2 10.5,-257.2"/>
<text text-anchor="start" x="30.5" y="-264.3" font-family="Helvetica,sans-Serif" font-size="11.00" fill="#000000">description</text>
<polygon fill="none" stroke="#000000" points="99.5,-257.2 99.5,-279.2 189.5,-279.2 189.5,-257.2 99.5,-257.2"/>
<text text-anchor="start" x="102.0042" y="-264.9" font-family="Helvetica,sans-Serif" font-size="11.00" fill="#000000">text[2147483647]</text>
<polygon fill="none" stroke="#000000" points="10.5,-235.2 10.5,-257.2 99.5,-257.2 99.5,-235.2 10.5,-235.2"/>
<text text-anchor="start" x="30.5" y="-242.3" font-family="Helvetica,sans-Serif" font-size="11.00" fill="#000000">category</text>
<polygon fill="none" stroke="#000000" points="99.5,-235.2 99.5,-257.2 189.5,-257.2 189.5,-235.2 99.5,-235.2"/>
<text text-anchor="start" x="102.0042" y="-242.9" font-family="Helvetica,sans-Serif" font-size="11.00" fill="#000000">text[2147483647]</text>
<polygon fill="none" stroke="#000000" points="10.5,-213.2 10.5,-235.2 99.5,-235.2 99.5,-213.2 10.5,-213.2"/>
<text text-anchor="start" x="30.5" y="-220.3" font-family="Helvetica,sans-Serif" font-size="11.00" fill="#000000">city</text>
<polygon fill="none" stroke="#000000" points="99.5,-213.2 99.5,-235.2 189.5,-235.2 189.5,-213.2 99.5,-213.2"/>
<text text-anchor="start" x="102.0042" y="-220.9" font-family="Helvetica,sans-Serif" font-size="11.00" fill="#000000">text[2147483647]</text>
<polygon fill="none" stroke="#000000" points="10.5,-191.2 10.5,-213.2 99.5,-213.2 99.5,-191.2 10.5,-191.2"/>
<text text-anchor="start" x="30.5" y="-198.3" font-family="Helvetica,sans-Serif" font-size="11.00" fill="#000000">region</text>
<polygon fill="none" stroke="#000000" points="99.5,-191.2 99.5,-213.2 189.5,-213.2 189.5,-191.2 99.5,-191.2"/>
<text text-anchor="start" x="102.0042" y="-198.9" font-family="Helvetica,sans-Serif" font-size="11.00" fill="#000000">text[2147483647]</text>
<polygon fill="none" stroke="#000000" points="10.5,-169.2 10.5,-191.2 99.5,-191.2 99.5,-169.2 10.5,-169.2"/>
<text text-anchor="start" x="30.5" y="-176.3" font-family="Helvetica,sans-Serif" font-size="11.00" fill="#000000">country</text>
<polygon fill="none" stroke="#000000" points="99.5,-169.2 99.5,-191.2 189.5,-191.2 189.5,-169.2 99.5,-169.2"/>
<text text-anchor="start" x="102.0042" y="-176.9" font-family="Helvetica,sans-Serif" font-size="11.00" fill="#000000">text[2147483647]</text>
<polygon fill="none" stroke="#000000" points="10.5,-147.2 10.5,-169.2 99.5,-169.2 99.5,-147.2 10.5,-147.2"/>
<text text-anchor="start" x="30.5" y="-154.3" font-family="Helvetica,sans-Serif" font-size="11.00" fill="#000000">banner_url</text>
<polygon fill="none" stroke="#000000" points="99.5,-147.2 99.5,-169.2 189.5,-169.2 189.5,-147.2 99.5,-147.2"/>
<text text-anchor="start" x="102.0042" y="-154.9" font-family="Helvetica,sans-Serif" font-size="11.00" fill="#000000">text[2147483647]</text>
<polygon fill="none" stroke="#000000" points="10.5,-125.2 10.5,-147.2 99.5,-147.2 99.5,-125.2 10.5,-125.2"/>
<text text-anchor="start" x="30.5" y="-132.3" font-family="Helvetica,sans-Serif" font-size="11.00" fill="#000000">calendar_id</text>
<polygon fill="none" stroke="#000000" points="99.5,-125.2 99.5,-147.2 189.5,-147.2 189.5,-125.2 99.5,-125.2"/>
<text text-anchor="start" x="102.0042" y="-132.9" font-family="Helvetica,sans-Serif" font-size="11.00" fill="#000000">text[2147483647]</text>
<polygon fill="none" stroke="#000000" points="10.5,-103.2 10.5,-125.2 99.5,-125.2 99.5,-103.2 10.5,-103.2"/>
<text text-anchor="start" x="30.5" y="-110.3" font-family="Helvetica,sans-Serif" font-size="11.00" fill="#000000">chat_url</text>
<polygon fill="none" stroke="#000000" points="99.5,-103.2 99.5,-125.2 189.5,-125.2 189.5,-103.2 99.5,-103.2"/>
<text text-anchor="start" x="102.0042" y="-110.9" font-family="Helvetica,sans-Serif" font-size="11.00" fill="#000000">text[2147483647]</text>
<polygon fill="none" stroke="#000000" points="10.5,-81.2 10.5,-103.2 99.5,-103.2 99.5,-81.2 10.5,-81.2"/>
<text text-anchor="start" x="30.5" y="-88.3" font-family="Helvetica,sans-Serif" font-size="11.00" fill="#000000">creator_id</text>
<polygon fill="none" stroke="#000000" points="99.5,-81.2 99.5,-103.2 189.5,-103.2 189.5,-81.2 99.5,-81.2"/>
<text text-anchor="start" x="102.5" y="-88.9" font-family="Helvetica,sans-Serif" font-size="11.00" fill="#000000">int4[10]</text>
<polygon fill="none" stroke="#000000" points="10.5,-59.2 10.5,-81.2 99.5,-81.2 99.5,-59.2 10.5,-59.2"/>
<text text-anchor="start" x="30.5" y="-66.3" font-family="Helvetica,sans-Serif" font-size="11.00" fill="#000000">logo_url</text>
<polygon fill="none" stroke="#000000" points="99.5,-59.2 99.5,-81.2 189.5,-81.2 189.5,-59.2 99.5,-59.2"/>
<text text-anchor="start" x="102.0042" y="-66.9" font-family="Helvetica,sans-Serif" font-size="11.00" fill="#000000">text[2147483647]</text>
<polygon fill="#ffffff" stroke="transparent" points="10.5,-40.2 10.5,-59.2 46.5,-59.2 46.5,-40.2 10.5,-40.2"/>
<polygon fill="none" stroke="#000000" points="10.5,-40.2 10.5,-59.2 46.5,-59.2 46.5,-40.2 10.5,-40.2"/>
<text text-anchor="start" x="13.5" y="-46.3" font-family="Helvetica,sans-Serif" font-size="11.00" fill="#000000">&lt; 0</text>
<polygon fill="#ffffff" stroke="transparent" points="46.5,-40.2 46.5,-59.2 99.5,-59.2 99.5,-40.2 46.5,-40.2"/>
<polygon fill="none" stroke="#000000" points="46.5,-40.2 46.5,-59.2 99.5,-59.2 99.5,-40.2 46.5,-40.2"/>
<text text-anchor="start" x="64.1105" y="-46.3" font-family="Helvetica,sans-Serif" font-size="11.00" fill="#000000">0 rows</text>
<polygon fill="#ffffff" stroke="transparent" points="99.5,-40.2 99.5,-59.2 189.5,-59.2 189.5,-40.2 99.5,-40.2"/>
<polygon fill="none" stroke="#000000" points="99.5,-40.2 99.5,-59.2 189.5,-59.2 189.5,-40.2 99.5,-40.2"/>
<text text-anchor="start" x="170.9053" y="-46.3" font-family="Helvetica,sans-Serif" font-size="11.00" fill="#000000">4 &gt;</text>
<polygon fill="none" stroke="#000000" stroke-width="2" points="9,-39.2 9,-391.2 190,-391.2 190,-39.2 9,-39.2"/>
</a>
</g>
</g>
<!-- chapter_users&#45;&gt;chapters -->
<g id="edge1" class="edge">
<title>chapter_users:w&#45;&gt;chapters:e</title>
<path fill="none" stroke="#000000" d="M225.6149,-494.8609C169.7969,-473.4455 269.0707,-312.2 189.5,-312.2"/>
<polygon fill="#000000" stroke="#000000" points="232.1037,-495.916 239.4222,-500.7533 236.0519,-496.558 240,-497.2 240,-497.2 240,-497.2 236.0519,-496.558 240.5778,-493.6467 232.1037,-495.916 232.1037,-495.916"/>
<ellipse fill="none" stroke="#000000" cx="228.9452" cy="-495.4024" rx="3.2" ry="3.2"/>
</g>
<!-- events -->
<g id="node3" class="node">
<title>events</title>
<g id="a_node3"><a xlink:href="../../tables/events.html" xlink:title="events" target="_top">
<polygon fill="#ffffff" stroke="transparent" points="411,-263.7 411,-390.7 539,-390.7 539,-263.7 411,-263.7"/>
<polygon fill="#f5f5f5" stroke="transparent" points="411,-367.2 411,-390.2 539,-390.2 539,-367.2 411,-367.2"/>
<polygon fill="none" stroke="#000000" points="411,-367.2 411,-390.2 539,-390.2 539,-367.2 411,-367.2"/>
<text text-anchor="start" x="416" y="-375.8" font-family="Helvetica,sans-Serif" font-weight="bold" font-size="11.00" fill="#000000">events</text>
<text text-anchor="start" x="504.0437" y="-375.3" font-family="Helvetica,sans-Serif" font-size="11.00" fill="#000000">[table]</text>
<polygon fill="none" stroke="#000000" points="411,-345.2 411,-367.2 539,-367.2 539,-345.2 411,-345.2"/>
<image xlink:href="../../images/primaryKeys.png" width="11px" height="12px" preserveAspectRatio="xMinYMin meet" x="416" y="-362.2"/>
<text text-anchor="start" x="431" y="-352.3" font-family="Helvetica,sans-Serif" font-size="11.00" fill="#000000">id</text>
<polygon fill="none" stroke="#000000" points="411,-323.2 411,-345.2 539,-345.2 539,-323.2 411,-323.2"/>
<image xlink:href="../../images/foreignKeys.png" width="11px" height="12px" preserveAspectRatio="xMinYMin meet" x="416" y="-340.2"/>
<text text-anchor="start" x="431" y="-330.3" font-family="Helvetica,sans-Serif" font-size="11.00" fill="#000000">venue_id</text>
<polygon fill="none" stroke="#000000" points="411,-301.2 411,-323.2 539,-323.2 539,-301.2 411,-301.2"/>
<image xlink:href="../../images/foreignKeys.png" width="11px" height="12px" preserveAspectRatio="xMinYMin meet" x="416" y="-318.2"/>
<text text-anchor="start" x="431" y="-308.3" font-family="Helvetica,sans-Serif" font-size="11.00" fill="#000000">chapter_id</text>
<polygon fill="none" stroke="#000000" points="411,-282.2 411,-301.2 539,-301.2 539,-282.2 411,-282.2"/>
<text text-anchor="start" x="414" y="-288.3" font-family="Helvetica,sans-Serif" font-size="11.00" fill="#000000">...</text>
<polygon fill="#ffffff" stroke="transparent" points="411,-263.2 411,-282.2 456,-282.2 456,-263.2 411,-263.2"/>
<polygon fill="none" stroke="#000000" points="411,-263.2 411,-282.2 456,-282.2 456,-263.2 411,-263.2"/>
<text text-anchor="start" x="414" y="-269.3" font-family="Helvetica,sans-Serif" font-size="11.00" fill="#000000">&lt; 2</text>
<polygon fill="#ffffff" stroke="transparent" points="456,-263.2 456,-282.2 506,-282.2 506,-263.2 456,-263.2"/>
<polygon fill="none" stroke="#000000" points="456,-263.2 456,-282.2 506,-282.2 506,-263.2 456,-263.2"/>
<text text-anchor="start" x="470.6105" y="-269.3" font-family="Helvetica,sans-Serif" font-size="11.00" fill="#000000">0 rows</text>
<polygon fill="#ffffff" stroke="transparent" points="506,-263.2 506,-282.2 539,-282.2 539,-263.2 506,-263.2"/>
<polygon fill="none" stroke="#000000" points="506,-263.2 506,-282.2 539,-282.2 539,-263.2 506,-263.2"/>
<text text-anchor="start" x="520.4053" y="-269.3" font-family="Helvetica,sans-Serif" font-size="11.00" fill="#000000">3 &gt;</text>
</a>
</g>
</g>
<!-- events&#45;&gt;chapters -->
<g id="edge2" class="edge">
<title>events:w&#45;&gt;chapters:e</title>
<path fill="none" stroke="#000000" d="M396.928,-308.4715C388.419,-303.181 384.1019,-293.7444 370,-290.2 310.5168,-275.2493 291.5924,-275.6905 232,-290.2 211.3342,-295.2317 210.7696,-312.2 189.5,-312.2"/>
<polygon fill="#000000" stroke="#000000" points="403.2668,-310.151 410.078,-315.6799 407.1334,-311.1755 411,-312.2 411,-312.2 411,-312.2 407.1334,-311.1755 411.922,-308.7201 403.2668,-310.151 403.2668,-310.151"/>
<ellipse fill="none" stroke="#000000" cx="400.1736" cy="-309.3314" rx="3.2" ry="3.2"/>
</g>
<!-- venues -->
<g id="node4" class="node">
<title>venues</title>
<g id="a_node4"><a xlink:href="../../tables/venues.html" xlink:title="venues" target="_top">
<polygon fill="#ffffff" stroke="transparent" points="247,-300.7 247,-405.7 355,-405.7 355,-300.7 247,-300.7"/>
<polygon fill="#f5f5f5" stroke="transparent" points="247,-382.2 247,-405.2 355,-405.2 355,-382.2 247,-382.2"/>
<polygon fill="none" stroke="#000000" points="247,-382.2 247,-405.2 355,-405.2 355,-382.2 247,-382.2"/>
<text text-anchor="start" x="252" y="-390.8" font-family="Helvetica,sans-Serif" font-weight="bold" font-size="11.00" fill="#000000">venues</text>
<text text-anchor="start" x="320.0437" y="-390.3" font-family="Helvetica,sans-Serif" font-size="11.00" fill="#000000">[table]</text>
<polygon fill="none" stroke="#000000" points="247,-360.2 247,-382.2 355,-382.2 355,-360.2 247,-360.2"/>
<image xlink:href="../../images/primaryKeys.png" width="11px" height="12px" preserveAspectRatio="xMinYMin meet" x="252" y="-377.2"/>
<text text-anchor="start" x="267" y="-367.3" font-family="Helvetica,sans-Serif" font-size="11.00" fill="#000000">id</text>
<polygon fill="none" stroke="#000000" points="247,-338.2 247,-360.2 355,-360.2 355,-338.2 247,-338.2"/>
<image xlink:href="../../images/foreignKeys.png" width="11px" height="12px" preserveAspectRatio="xMinYMin meet" x="252" y="-355.2"/>
<text text-anchor="start" x="267" y="-345.3" font-family="Helvetica,sans-Serif" font-size="11.00" fill="#000000">chapter_id</text>
<polygon fill="none" stroke="#000000" points="247,-319.2 247,-338.2 355,-338.2 355,-319.2 247,-319.2"/>
<text text-anchor="start" x="250" y="-325.3" font-family="Helvetica,sans-Serif" font-size="11.00" fill="#000000">...</text>
<polygon fill="#ffffff" stroke="transparent" points="247,-300.2 247,-319.2 282,-319.2 282,-300.2 247,-300.2"/>
<polygon fill="none" stroke="#000000" points="247,-300.2 247,-319.2 282,-319.2 282,-300.2 247,-300.2"/>
<text text-anchor="start" x="250" y="-306.3" font-family="Helvetica,sans-Serif" font-size="11.00" fill="#000000">&lt; 1</text>
<polygon fill="#ffffff" stroke="transparent" points="282,-300.2 282,-319.2 327,-319.2 327,-300.2 282,-300.2"/>
<polygon fill="none" stroke="#000000" points="282,-300.2 282,-319.2 327,-319.2 327,-300.2 282,-300.2"/>
<text text-anchor="start" x="291.6105" y="-306.3" font-family="Helvetica,sans-Serif" font-size="11.00" fill="#000000">0 rows</text>
<polygon fill="#ffffff" stroke="transparent" points="327,-300.2 327,-319.2 355,-319.2 355,-300.2 327,-300.2"/>
<polygon fill="none" stroke="#000000" points="327,-300.2 327,-319.2 355,-319.2 355,-300.2 327,-300.2"/>
<text text-anchor="start" x="336.4053" y="-306.3" font-family="Helvetica,sans-Serif" font-size="11.00" fill="#000000">1 &gt;</text>
</a>
</g>
</g>
<!-- events&#45;&gt;venues -->
<g id="edge3" class="edge">
<title>events:w&#45;&gt;venues:e</title>
<path fill="none" stroke="#000000" d="M396.8548,-337.883C381.3219,-347.2417 379.0045,-371.2 355,-371.2"/>
<polygon fill="#000000" stroke="#000000" points="403.2581,-336.2158 411.9071,-337.6838 407.1291,-335.2079 411,-334.2 411,-334.2 411,-334.2 407.1291,-335.2079 410.0929,-330.7162 403.2581,-336.2158 403.2581,-336.2158"/>
<ellipse fill="none" stroke="#000000" cx="400.1614" cy="-337.0221" rx="3.2" ry="3.2"/>
</g>
<!-- venues&#45;&gt;chapters -->
<g id="edge5" class="edge">
<title>venues:w&#45;&gt;chapters:e</title>
<path fill="none" stroke="#000000" d="M232.5451,-345.517C216.6071,-336.1583 213.9538,-312.2 189.5,-312.2"/>
<polygon fill="#000000" stroke="#000000" points="239.2477,-347.2247 246.1111,-352.6885 243.1238,-348.2124 247,-349.2 247,-349.2 247,-349.2 243.1238,-348.2124 247.8889,-345.7115 239.2477,-347.2247 239.2477,-347.2247"/>
<ellipse fill="none" stroke="#000000" cx="236.1467" cy="-346.4346" rx="3.2" ry="3.2"/>
</g>
<!-- user_bans -->
<g id="node5" class="node">
<title>user_bans</title>
<g id="a_node5"><a xlink:href="../../tables/user_bans.html" xlink:title="user_bans" target="_top">
<polygon fill="#ffffff" stroke="transparent" points="251.5,-146.7 251.5,-251.7 350.5,-251.7 350.5,-146.7 251.5,-146.7"/>
<polygon fill="#f5f5f5" stroke="transparent" points="252,-228.2 252,-251.2 351,-251.2 351,-228.2 252,-228.2"/>
<polygon fill="none" stroke="#000000" points="252,-228.2 252,-251.2 351,-251.2 351,-228.2 252,-228.2"/>
<text text-anchor="start" x="257" y="-236.8" font-family="Helvetica,sans-Serif" font-weight="bold" font-size="11.00" fill="#000000">user_bans</text>
<text text-anchor="start" x="316.5219" y="-236.3" font-family="Helvetica,sans-Serif" font-size="11.00" fill="#000000">[table]</text>
<polygon fill="none" stroke="#000000" points="252,-206.2 252,-228.2 351,-228.2 351,-206.2 252,-206.2"/>
<image xlink:href="../../images/primaryKeys.png" width="11px" height="12px" preserveAspectRatio="xMinYMin meet" x="257" y="-223.2"/>
<text text-anchor="start" x="278" y="-213.3" font-family="Helvetica,sans-Serif" font-size="11.00" fill="#000000">user_id</text>
<polygon fill="none" stroke="#000000" points="252,-184.2 252,-206.2 351,-206.2 351,-184.2 252,-184.2"/>
<image xlink:href="../../images/primaryKeys.png" width="11px" height="12px" preserveAspectRatio="xMinYMin meet" x="257" y="-201.2"/>
<text text-anchor="start" x="278" y="-191.3" font-family="Helvetica,sans-Serif" font-size="11.00" fill="#000000">chapter_id</text>
<polygon fill="none" stroke="#000000" points="252,-165.2 252,-184.2 351,-184.2 351,-165.2 252,-165.2"/>
<text text-anchor="start" x="255" y="-171.3" font-family="Helvetica,sans-Serif" font-size="11.00" fill="#000000">...</text>
<polygon fill="#ffffff" stroke="transparent" points="252,-146.2 252,-165.2 287,-165.2 287,-146.2 252,-146.2"/>
<polygon fill="none" stroke="#000000" points="252,-146.2 252,-165.2 287,-165.2 287,-146.2 252,-146.2"/>
<text text-anchor="start" x="255" y="-152.3" font-family="Helvetica,sans-Serif" font-size="11.00" fill="#000000">&lt; 2</text>
<polygon fill="#ffffff" stroke="transparent" points="287,-146.2 287,-165.2 332,-165.2 332,-146.2 287,-146.2"/>
<polygon fill="none" stroke="#000000" points="287,-146.2 287,-165.2 332,-165.2 332,-146.2 287,-146.2"/>
<text text-anchor="start" x="296.6105" y="-152.3" font-family="Helvetica,sans-Serif" font-size="11.00" fill="#000000">0 rows</text>
<polygon fill="#ffffff" stroke="transparent" points="332,-146.2 332,-165.2 351,-165.2 351,-146.2 332,-146.2"/>
<polygon fill="none" stroke="#000000" points="332,-146.2 332,-165.2 351,-165.2 351,-146.2 332,-146.2"/>
<text text-anchor="start" x="341.8862" y="-152.3" font-family="Helvetica,sans-Serif" font-size="11.00" fill="#000000"> &#160;</text>
</a>
</g>
</g>
<!-- user_bans&#45;&gt;chapters -->
<g id="edge4" class="edge">
<title>user_bans:w&#45;&gt;chapters:e</title>
<path fill="none" stroke="#000000" d="M237.7872,-198.3295C202.7771,-216.9358 242.697,-312.2 189.5,-312.2"/>
<polygon fill="#000000" stroke="#000000" points="244.1871,-196.9203 252.7741,-198.7158 248.0936,-196.0602 252,-195.2 252,-195.2 252,-195.2 248.0936,-196.0602 251.2259,-191.6842 244.1871,-196.9203 244.1871,-196.9203"/>
<ellipse fill="none" stroke="#000000" cx="241.062" cy="-197.6085" rx="3.2" ry="3.2"/>
</g>
</g>
</svg>
