<?xml version="1.0" encoding="UTF-8" standalone="no"?>
<!DOCTYPE svg PUBLIC "-//W3C//DTD SVG 1.1//EN"
 "http://www.w3.org/Graphics/SVG/1.1/DTD/svg11.dtd">
<!-- Generated by graphviz version 2.40.1 (20161225.0304)
 -->
<!-- Title: twoDegreesRelationshipsDiagram Pages: 1 -->
<svg width="724pt" height="676pt"
 viewBox="0.00 0.00 724.00 676.24" xmlns="http://www.w3.org/2000/svg" xmlns:xlink="http://www.w3.org/1999/xlink">
<g id="graph0" class="graph" transform="scale(1 1) rotate(0) translate(4 672.2364)">
<title>twoDegreesRelationshipsDiagram</title>
<polygon fill="#ffffff" stroke="transparent" points="-4,4 -4,-672.2364 720,-672.2364 720,4 -4,4"/>
<text text-anchor="middle" x="72.4936" y="-7.3" font-family="Helvetica,sans-Serif" font-size="11.00" fill="#000000">Generated by SchemaSpy</text>
<!-- chapters -->
<g id="node1" class="node">
<title>chapters</title>
<g id="a_node1"><a xlink:href="../../tables/chapters.html" xlink:title="chapters" target="_top">
<polygon fill="#ffffff" stroke="transparent" points="145,-191.7364 145,-479.7364 346,-479.7364 346,-191.7364 145,-191.7364"/>
<polygon fill="#f5f5f5" stroke="transparent" points="147.5,-454.7364 147.5,-477.7364 344.5,-477.7364 344.5,-454.7364 147.5,-454.7364"/>
<polygon fill="none" stroke="#000000" points="147.5,-454.7364 147.5,-477.7364 344.5,-477.7364 344.5,-454.7364 147.5,-454.7364"/>
<text text-anchor="start" x="152.5" y="-463.8364" font-family="Helvetica,sans-Serif" font-weight="bold" font-size="11.00" fill="#000000">chapters</text>
<text text-anchor="start" x="309.5437" y="-462.8364" font-family="Helvetica,sans-Serif" font-size="11.00" fill="#000000">[table]</text>
<polygon fill="none" stroke="#000000" points="147.5,-432.7364 147.5,-454.7364 235.5,-454.7364 235.5,-432.7364 147.5,-432.7364"/>
<image xlink:href="../../images/primaryKeys.png" width="11px" height="12px" preserveAspectRatio="xMinYMin meet" x="152.5" y="-449.736"/>
<text text-anchor="start" x="167.5" y="-439.8364" font-family="Helvetica,sans-Serif" font-size="11.00" fill="#000000">id</text>
<polygon fill="none" stroke="#000000" points="235.5,-432.7364 235.5,-454.7364 344.5,-454.7364 344.5,-432.7364 235.5,-432.7364"/>
<text text-anchor="start" x="238.5" y="-440.4364" font-family="Helvetica,sans-Serif" font-size="11.00" fill="#000000">serial[10]</text>
<polygon fill="none" stroke="#000000" points="147.5,-410.7364 147.5,-432.7364 235.5,-432.7364 235.5,-410.7364 147.5,-410.7364"/>
<text text-anchor="start" x="167.5" y="-417.8364" font-family="Helvetica,sans-Serif" font-size="11.00" fill="#000000">created_at</text>
<polygon fill="none" stroke="#000000" points="235.5,-410.7364 235.5,-432.7364 344.5,-432.7364 344.5,-410.7364 235.5,-410.7364"/>
<text text-anchor="start" x="238.5" y="-418.4364" font-family="Helvetica,sans-Serif" font-size="11.00" fill="#000000">timestamp[29,6]</text>
<polygon fill="none" stroke="#000000" points="147.5,-388.7364 147.5,-410.7364 235.5,-410.7364 235.5,-388.7364 147.5,-388.7364"/>
<text text-anchor="start" x="167.5" y="-395.8364" font-family="Helvetica,sans-Serif" font-size="11.00" fill="#000000">updated_at</text>
<polygon fill="none" stroke="#000000" points="235.5,-388.7364 235.5,-410.7364 344.5,-410.7364 344.5,-388.7364 235.5,-388.7364"/>
<text text-anchor="start" x="238.5" y="-396.4364" font-family="Helvetica,sans-Serif" font-size="11.00" fill="#000000">timestamp[29,6]</text>
<polygon fill="none" stroke="#000000" points="147.5,-366.7364 147.5,-388.7364 235.5,-388.7364 235.5,-366.7364 147.5,-366.7364"/>
<text text-anchor="start" x="167.5" y="-373.8364" font-family="Helvetica,sans-Serif" font-size="11.00" fill="#000000">name</text>
<polygon fill="none" stroke="#000000" points="235.5,-366.7364 235.5,-388.7364 344.5,-388.7364 344.5,-366.7364 235.5,-366.7364"/>
<text text-anchor="start" x="238.0344" y="-374.4364" font-family="Helvetica,sans-Serif" font-size="11.00" fill="#000000">varchar[2147483647]</text>
<polygon fill="none" stroke="#000000" points="147.5,-344.7364 147.5,-366.7364 235.5,-366.7364 235.5,-344.7364 147.5,-344.7364"/>
<text text-anchor="start" x="167.5" y="-351.8364" font-family="Helvetica,sans-Serif" font-size="11.00" fill="#000000">description</text>
<polygon fill="none" stroke="#000000" points="235.5,-344.7364 235.5,-366.7364 344.5,-366.7364 344.5,-344.7364 235.5,-344.7364"/>
<text text-anchor="start" x="238.0344" y="-352.4364" font-family="Helvetica,sans-Serif" font-size="11.00" fill="#000000">varchar[2147483647]</text>
<polygon fill="none" stroke="#000000" points="147.5,-322.7364 147.5,-344.7364 235.5,-344.7364 235.5,-322.7364 147.5,-322.7364"/>
<text text-anchor="start" x="167.5" y="-329.8364" font-family="Helvetica,sans-Serif" font-size="11.00" fill="#000000">category</text>
<polygon fill="none" stroke="#000000" points="235.5,-322.7364 235.5,-344.7364 344.5,-344.7364 344.5,-322.7364 235.5,-322.7364"/>
<text text-anchor="start" x="238.0344" y="-330.4364" font-family="Helvetica,sans-Serif" font-size="11.00" fill="#000000">varchar[2147483647]</text>
<polygon fill="none" stroke="#000000" points="147.5,-300.7364 147.5,-322.7364 235.5,-322.7364 235.5,-300.7364 147.5,-300.7364"/>
<text text-anchor="start" x="167.5" y="-307.8364" font-family="Helvetica,sans-Serif" font-size="11.00" fill="#000000">details</text>
<polygon fill="none" stroke="#000000" points="235.5,-300.7364 235.5,-322.7364 344.5,-322.7364 344.5,-300.7364 235.5,-300.7364"/>
<text text-anchor="start" x="238.5" y="-308.4364" font-family="Helvetica,sans-Serif" font-size="11.00" fill="#000000">json[2147483647]</text>
<polygon fill="none" stroke="#000000" points="147.5,-278.7364 147.5,-300.7364 235.5,-300.7364 235.5,-278.7364 147.5,-278.7364"/>
<text text-anchor="start" x="167.5" y="-285.8364" font-family="Helvetica,sans-Serif" font-size="11.00" fill="#000000">city</text>
<polygon fill="none" stroke="#000000" points="235.5,-278.7364 235.5,-300.7364 344.5,-300.7364 344.5,-278.7364 235.5,-278.7364"/>
<text text-anchor="start" x="238.0344" y="-286.4364" font-family="Helvetica,sans-Serif" font-size="11.00" fill="#000000">varchar[2147483647]</text>
<polygon fill="none" stroke="#000000" points="147.5,-256.7364 147.5,-278.7364 235.5,-278.7364 235.5,-256.7364 147.5,-256.7364"/>
<text text-anchor="start" x="167.5" y="-263.8364" font-family="Helvetica,sans-Serif" font-size="11.00" fill="#000000">region</text>
<polygon fill="none" stroke="#000000" points="235.5,-256.7364 235.5,-278.7364 344.5,-278.7364 344.5,-256.7364 235.5,-256.7364"/>
<text text-anchor="start" x="238.0344" y="-264.4364" font-family="Helvetica,sans-Serif" font-size="11.00" fill="#000000">varchar[2147483647]</text>
<polygon fill="none" stroke="#000000" points="147.5,-234.7364 147.5,-256.7364 235.5,-256.7364 235.5,-234.7364 147.5,-234.7364"/>
<text text-anchor="start" x="167.5" y="-241.8364" font-family="Helvetica,sans-Serif" font-size="11.00" fill="#000000">country</text>
<polygon fill="none" stroke="#000000" points="235.5,-234.7364 235.5,-256.7364 344.5,-256.7364 344.5,-234.7364 235.5,-234.7364"/>
<text text-anchor="start" x="238.0344" y="-242.4364" font-family="Helvetica,sans-Serif" font-size="11.00" fill="#000000">varchar[2147483647]</text>
<polygon fill="none" stroke="#000000" points="147.5,-212.7364 147.5,-234.7364 235.5,-234.7364 235.5,-212.7364 147.5,-212.7364"/>
<image xlink:href="../../images/foreignKeys.png" width="11px" height="12px" preserveAspectRatio="xMinYMin meet" x="152.5" y="-229.736"/>
<text text-anchor="start" x="167.5" y="-219.8364" font-family="Helvetica,sans-Serif" font-size="11.00" fill="#000000">creator_id</text>
<polygon fill="none" stroke="#000000" points="235.5,-212.7364 235.5,-234.7364 344.5,-234.7364 344.5,-212.7364 235.5,-212.7364"/>
<text text-anchor="start" x="238.5" y="-220.4364" font-family="Helvetica,sans-Serif" font-size="11.00" fill="#000000">int4[10]</text>
<polygon fill="#ffffff" stroke="transparent" points="147.5,-193.7364 147.5,-212.7364 182.5,-212.7364 182.5,-193.7364 147.5,-193.7364"/>
<polygon fill="none" stroke="#000000" points="147.5,-193.7364 147.5,-212.7364 182.5,-212.7364 182.5,-193.7364 147.5,-193.7364"/>
<text text-anchor="start" x="150.5" y="-199.8364" font-family="Helvetica,sans-Serif" font-size="11.00" fill="#000000">&lt; 1</text>
<polygon fill="#ffffff" stroke="transparent" points="182.5,-193.7364 182.5,-212.7364 235.5,-212.7364 235.5,-193.7364 182.5,-193.7364"/>
<polygon fill="none" stroke="#000000" points="182.5,-193.7364 182.5,-212.7364 235.5,-212.7364 235.5,-193.7364 182.5,-193.7364"/>
<text text-anchor="start" x="200.1105" y="-199.8364" font-family="Helvetica,sans-Serif" font-size="11.00" fill="#000000">0 rows</text>
<polygon fill="#ffffff" stroke="transparent" points="235.5,-193.7364 235.5,-212.7364 344.5,-212.7364 344.5,-193.7364 235.5,-193.7364"/>
<polygon fill="none" stroke="#000000" points="235.5,-193.7364 235.5,-212.7364 344.5,-212.7364 344.5,-193.7364 235.5,-193.7364"/>
<text text-anchor="start" x="325.9053" y="-199.8364" font-family="Helvetica,sans-Serif" font-size="11.00" fill="#000000">3 &gt;</text>
<polygon fill="none" stroke="#000000" stroke-width="2" points="146,-192.7364 146,-478.7364 345,-478.7364 345,-192.7364 146,-192.7364"/>
</a>
</g>
</g>
<!-- users -->
<g id="node2" class="node">
<title>users</title>
<g id="a_node2"><a xlink:href="../../tables/users.html" xlink:title="users" target="_top">
<polygon fill="#ffffff" stroke="transparent" points="8,-446.2364 8,-551.2364 96,-551.2364 96,-446.2364 8,-446.2364"/>
<polygon fill="#f5f5f5" stroke="transparent" points="8,-527.7364 8,-550.7364 96,-550.7364 96,-527.7364 8,-527.7364"/>
<polygon fill="none" stroke="#000000" points="8,-527.7364 8,-550.7364 96,-550.7364 96,-527.7364 8,-527.7364"/>
<text text-anchor="start" x="13" y="-536.8364" font-family="Helvetica,sans-Serif" font-weight="bold" font-size="11.00" fill="#000000">users</text>
<text text-anchor="start" x="61.0437" y="-535.8364" font-family="Helvetica,sans-Serif" font-size="11.00" fill="#000000">[table]</text>
<polygon fill="none" stroke="#000000" points="8,-505.7364 8,-527.7364 96,-527.7364 96,-505.7364 8,-505.7364"/>
<image xlink:href="../../images/primaryKeys.png" width="11px" height="12px" preserveAspectRatio="xMinYMin meet" x="13" y="-522.736"/>
<text text-anchor="start" x="28" y="-512.8364" font-family="Helvetica,sans-Serif" font-size="11.00" fill="#000000">id</text>
<polygon fill="#ffffff" stroke="transparent" points="8,-483.7364 8,-505.7364 96,-505.7364 96,-483.7364 8,-483.7364"/>
<polygon fill="none" stroke="#000000" points="8,-483.7364 8,-505.7364 96,-505.7364 96,-483.7364 8,-483.7364"/>
<text text-anchor="start" x="28" y="-490.8364" font-family="Helvetica,sans-Serif" font-size="11.00" fill="#000000">email</text>
<polygon fill="none" stroke="#000000" points="8,-464.7364 8,-483.7364 96,-483.7364 96,-464.7364 8,-464.7364"/>
<text text-anchor="start" x="11" y="-470.8364" font-family="Helvetica,sans-Serif" font-size="11.00" fill="#000000">...</text>
<polygon fill="#ffffff" stroke="transparent" points="8,-445.7364 8,-464.7364 28,-464.7364 28,-445.7364 8,-445.7364"/>
<polygon fill="none" stroke="#000000" points="8,-445.7364 8,-464.7364 28,-464.7364 28,-445.7364 8,-445.7364"/>
<text text-anchor="start" x="11" y="-451.8364" font-family="Helvetica,sans-Serif" font-size="11.00" fill="#000000"> &#160;</text>
<polygon fill="#ffffff" stroke="transparent" points="28,-445.7364 28,-464.7364 70,-464.7364 70,-445.7364 28,-445.7364"/>
<polygon fill="none" stroke="#000000" points="28,-445.7364 28,-464.7364 70,-464.7364 70,-445.7364 28,-445.7364"/>
<text text-anchor="start" x="34.6105" y="-451.8364" font-family="Helvetica,sans-Serif" font-size="11.00" fill="#000000">0 rows</text>
<polygon fill="#ffffff" stroke="transparent" points="70,-445.7364 70,-464.7364 96,-464.7364 96,-445.7364 70,-445.7364"/>
<polygon fill="none" stroke="#000000" points="70,-445.7364 70,-464.7364 96,-464.7364 96,-445.7364 70,-445.7364"/>
<text text-anchor="start" x="77.4053" y="-451.8364" font-family="Helvetica,sans-Serif" font-size="11.00" fill="#000000">6 &gt;</text>
</a>
</g>
</g>
<!-- chapters&#45;&gt;users -->
<g id="edge1" class="edge">
<title>chapters:w&#45;&gt;users:e</title>
<path fill="none" stroke="#000000" d="M134.0329,-229.3279C93.6456,-269.8351 156.6862,-516.7364 96,-516.7364"/>
<polygon fill="#000000" stroke="#000000" points="140.1115,-226.8041 148.8805,-227.0612 143.8058,-225.2703 147.5,-223.7364 147.5,-223.7364 147.5,-223.7364 143.8058,-225.2703 146.1195,-220.4116 140.1115,-226.8041 140.1115,-226.8041"/>
<ellipse fill="none" stroke="#000000" cx="137.1561" cy="-228.0312" rx="3.2" ry="3.2"/>
</g>
<!-- event_sponsors -->
<g id="node3" class="node">
<title>event_sponsors</title>
<g id="a_node3"><a xlink:href="../../tables/event_sponsors.html" xlink:title="event_sponsors" target="_top">
<polygon fill="#ffffff" stroke="transparent" points="584.5,-165.2364 584.5,-226.2364 704.5,-226.2364 704.5,-165.2364 584.5,-165.2364"/>
<polygon fill="#f5f5f5" stroke="transparent" points="584.5,-202.7364 584.5,-225.7364 704.5,-225.7364 704.5,-202.7364 584.5,-202.7364"/>
<polygon fill="none" stroke="#000000" points="584.5,-202.7364 584.5,-225.7364 704.5,-225.7364 704.5,-202.7364 584.5,-202.7364"/>
<text text-anchor="start" x="589.181" y="-211.8364" font-family="Helvetica,sans-Serif" font-weight="bold" font-size="11.00" fill="#000000">event_sponsors</text>
<text text-anchor="start" x="670.0219" y="-210.8364" font-family="Helvetica,sans-Serif" font-size="11.00" fill="#000000">[table]</text>
<polygon fill="none" stroke="#000000" points="584.5,-183.7364 584.5,-202.7364 704.5,-202.7364 704.5,-183.7364 584.5,-183.7364"/>
<text text-anchor="start" x="587.5" y="-189.8364" font-family="Helvetica,sans-Serif" font-size="11.00" fill="#000000">...</text>
<polygon fill="#ffffff" stroke="transparent" points="584.5,-164.7364 584.5,-183.7364 629.5,-183.7364 629.5,-164.7364 584.5,-164.7364"/>
<polygon fill="none" stroke="#000000" points="584.5,-164.7364 584.5,-183.7364 629.5,-183.7364 629.5,-164.7364 584.5,-164.7364"/>
<text text-anchor="start" x="587.5" y="-170.8364" font-family="Helvetica,sans-Serif" font-size="11.00" fill="#000000">&lt; 2</text>
<polygon fill="#ffffff" stroke="transparent" points="629.5,-164.7364 629.5,-183.7364 679.5,-183.7364 679.5,-164.7364 629.5,-164.7364"/>
<polygon fill="none" stroke="#000000" points="629.5,-164.7364 629.5,-183.7364 679.5,-183.7364 679.5,-164.7364 629.5,-164.7364"/>
<text text-anchor="start" x="644.1105" y="-170.8364" font-family="Helvetica,sans-Serif" font-size="11.00" fill="#000000">0 rows</text>
<polygon fill="#ffffff" stroke="transparent" points="679.5,-164.7364 679.5,-183.7364 704.5,-183.7364 704.5,-164.7364 679.5,-164.7364"/>
<polygon fill="none" stroke="#000000" points="679.5,-164.7364 679.5,-183.7364 704.5,-183.7364 704.5,-164.7364 679.5,-164.7364"/>
<text text-anchor="start" x="695.3862" y="-170.8364" font-family="Helvetica,sans-Serif" font-size="11.00" fill="#000000"> &#160;</text>
</a>
</g>
</g>
<!-- events -->
<g id="node4" class="node">
<title>events</title>
<g id="a_node4"><a xlink:href="../../tables/events.html" xlink:title="events" target="_top">
<polygon fill="#ffffff" stroke="transparent" points="411.5,-109.2364 411.5,-236.2364 515.5,-236.2364 515.5,-109.2364 411.5,-109.2364"/>
<polygon fill="#f5f5f5" stroke="transparent" points="411.5,-212.7364 411.5,-235.7364 515.5,-235.7364 515.5,-212.7364 411.5,-212.7364"/>
<polygon fill="none" stroke="#000000" points="411.5,-212.7364 411.5,-235.7364 515.5,-235.7364 515.5,-212.7364 411.5,-212.7364"/>
<text text-anchor="start" x="416.5" y="-221.8364" font-family="Helvetica,sans-Serif" font-weight="bold" font-size="11.00" fill="#000000">events</text>
<text text-anchor="start" x="480.5437" y="-220.8364" font-family="Helvetica,sans-Serif" font-size="11.00" fill="#000000">[table]</text>
<polygon fill="none" stroke="#000000" points="411.5,-190.7364 411.5,-212.7364 515.5,-212.7364 515.5,-190.7364 411.5,-190.7364"/>
<image xlink:href="../../images/primaryKeys.png" width="11px" height="12px" preserveAspectRatio="xMinYMin meet" x="416.5" y="-207.736"/>
<text text-anchor="start" x="431.5" y="-197.8364" font-family="Helvetica,sans-Serif" font-size="11.00" fill="#000000">id</text>
<polygon fill="none" stroke="#000000" points="411.5,-168.7364 411.5,-190.7364 515.5,-190.7364 515.5,-168.7364 411.5,-168.7364"/>
<image xlink:href="../../images/foreignKeys.png" width="11px" height="12px" preserveAspectRatio="xMinYMin meet" x="416.5" y="-185.736"/>
<text text-anchor="start" x="431.5" y="-175.8364" font-family="Helvetica,sans-Serif" font-size="11.00" fill="#000000">venue_id</text>
<polygon fill="none" stroke="#000000" points="411.5,-146.7364 411.5,-168.7364 515.5,-168.7364 515.5,-146.7364 411.5,-146.7364"/>
<image xlink:href="../../images/foreignKeys.png" width="11px" height="12px" preserveAspectRatio="xMinYMin meet" x="416.5" y="-163.736"/>
<text text-anchor="start" x="431.5" y="-153.8364" font-family="Helvetica,sans-Serif" font-size="11.00" fill="#000000">chapter_id</text>
<polygon fill="none" stroke="#000000" points="411.5,-127.7364 411.5,-146.7364 515.5,-146.7364 515.5,-127.7364 411.5,-127.7364"/>
<text text-anchor="start" x="414.5" y="-133.8364" font-family="Helvetica,sans-Serif" font-size="11.00" fill="#000000">...</text>
<polygon fill="#ffffff" stroke="transparent" points="411.5,-108.7364 411.5,-127.7364 444.5,-127.7364 444.5,-108.7364 411.5,-108.7364"/>
<polygon fill="none" stroke="#000000" points="411.5,-108.7364 411.5,-127.7364 444.5,-127.7364 444.5,-108.7364 411.5,-108.7364"/>
<text text-anchor="start" x="414.5" y="-114.8364" font-family="Helvetica,sans-Serif" font-size="11.00" fill="#000000">&lt; 2</text>
<polygon fill="#ffffff" stroke="transparent" points="444.5,-108.7364 444.5,-127.7364 488.5,-127.7364 488.5,-108.7364 444.5,-108.7364"/>
<polygon fill="none" stroke="#000000" points="444.5,-108.7364 444.5,-127.7364 488.5,-127.7364 488.5,-108.7364 444.5,-108.7364"/>
<text text-anchor="start" x="453.1105" y="-114.8364" font-family="Helvetica,sans-Serif" font-size="11.00" fill="#000000">0 rows</text>
<polygon fill="#ffffff" stroke="transparent" points="488.5,-108.7364 488.5,-127.7364 515.5,-127.7364 515.5,-108.7364 488.5,-108.7364"/>
<polygon fill="none" stroke="#000000" points="488.5,-108.7364 488.5,-127.7364 515.5,-127.7364 515.5,-108.7364 488.5,-108.7364"/>
<text text-anchor="start" x="496.9053" y="-114.8364" font-family="Helvetica,sans-Serif" font-size="11.00" fill="#000000">4 &gt;</text>
</a>
</g>
</g>
<!-- event_sponsors&#45;&gt;events -->
<g id="edge2" class="edge">
<title>event_sponsors:w&#45;&gt;events:e</title>
<path fill="none" stroke="#000000" d="M569.8561,-193.5038C550.2373,-195.6802 540.8693,-201.7364 515.5,-201.7364"/>
<polygon fill="#000000" stroke="#000000" points="576.511,-193.1551 584.6884,-196.3315 580.5055,-192.9458 584.5,-192.7364 584.5,-192.7364 584.5,-192.7364 580.5055,-192.9458 584.3116,-189.1414 576.511,-193.1551 576.511,-193.1551"/>
<ellipse fill="none" stroke="#000000" cx="573.3153" cy="-193.3226" rx="3.2" ry="3.2"/>
</g>
<!-- events&#45;&gt;chapters -->
<g id="edge3" class="edge">
<title>events:w&#45;&gt;chapters:e</title>
<path fill="none" stroke="#000000" d="M397.8944,-163.1943C355.7834,-202.7338 404.4215,-443.7364 344.5,-443.7364"/>
<polygon fill="#000000" stroke="#000000" points="404.0751,-160.7149 412.8403,-161.0776 407.7876,-159.2257 411.5,-157.7364 411.5,-157.7364 411.5,-157.7364 407.7876,-159.2257 410.1597,-154.3952 404.0751,-160.7149 404.0751,-160.7149"/>
<ellipse fill="none" stroke="#000000" cx="401.1052" cy="-161.9063" rx="3.2" ry="3.2"/>
</g>
<!-- venues -->
<g id="node5" class="node">
<title>venues</title>
<g id="a_node5"><a xlink:href="../../tables/venues.html" xlink:title="venues" target="_top">
<polygon fill="#ffffff" stroke="transparent" points="206.5,-109.2364 206.5,-170.2364 284.5,-170.2364 284.5,-109.2364 206.5,-109.2364"/>
<polygon fill="#f5f5f5" stroke="transparent" points="206.5,-146.7364 206.5,-169.7364 284.5,-169.7364 284.5,-146.7364 206.5,-146.7364"/>
<polygon fill="none" stroke="#000000" points="206.5,-146.7364 206.5,-169.7364 284.5,-169.7364 284.5,-146.7364 206.5,-146.7364"/>
<text text-anchor="start" x="211.2702" y="-155.8364" font-family="Helvetica,sans-Serif" font-weight="bold" font-size="11.00" fill="#000000">venues</text>
<text text-anchor="start" x="250.0219" y="-154.8364" font-family="Helvetica,sans-Serif" font-size="11.00" fill="#000000">[table]</text>
<polygon fill="none" stroke="#000000" points="206.5,-127.7364 206.5,-146.7364 284.5,-146.7364 284.5,-127.7364 206.5,-127.7364"/>
<text text-anchor="start" x="209.5" y="-133.8364" font-family="Helvetica,sans-Serif" font-size="11.00" fill="#000000">...</text>
<polygon fill="#ffffff" stroke="transparent" points="206.5,-108.7364 206.5,-127.7364 221.5,-127.7364 221.5,-108.7364 206.5,-108.7364"/>
<polygon fill="none" stroke="#000000" points="206.5,-108.7364 206.5,-127.7364 221.5,-127.7364 221.5,-108.7364 206.5,-108.7364"/>
<text text-anchor="start" x="209.5" y="-114.8364" font-family="Helvetica,sans-Serif" font-size="11.00" fill="#000000"> &#160;</text>
<polygon fill="#ffffff" stroke="transparent" points="221.5,-108.7364 221.5,-127.7364 261.5,-127.7364 261.5,-108.7364 221.5,-108.7364"/>
<polygon fill="none" stroke="#000000" points="221.5,-108.7364 221.5,-127.7364 261.5,-127.7364 261.5,-108.7364 221.5,-108.7364"/>
<text text-anchor="start" x="226.1105" y="-114.8364" font-family="Helvetica,sans-Serif" font-size="11.00" fill="#000000">0 rows</text>
<polygon fill="#ffffff" stroke="transparent" points="261.5,-108.7364 261.5,-127.7364 284.5,-127.7364 284.5,-108.7364 261.5,-108.7364"/>
<polygon fill="none" stroke="#000000" points="261.5,-108.7364 261.5,-127.7364 284.5,-127.7364 284.5,-108.7364 261.5,-108.7364"/>
<text text-anchor="start" x="265.9053" y="-114.8364" font-family="Helvetica,sans-Serif" font-size="11.00" fill="#000000">1 &gt;</text>
</a>
</g>
</g>
<!-- events&#45;&gt;venues -->
<g id="edge4" class="edge">
<title>events:w&#45;&gt;venues:e</title>
<path fill="none" stroke="#000000" d="M396.9168,-178.7983C350.1341,-172.51 338.8544,-136.7364 284.5,-136.7364"/>
<polygon fill="#000000" stroke="#000000" points="403.5165,-179.2228 411.2689,-183.329 407.5083,-179.4796 411.5,-179.7364 411.5,-179.7364 411.5,-179.7364 407.5083,-179.4796 411.7311,-176.1439 403.5165,-179.2228 403.5165,-179.2228"/>
<ellipse fill="none" stroke="#000000" cx="400.3231" cy="-179.0174" rx="3.2" ry="3.2"/>
</g>
<!-- rsvps -->
<g id="node6" class="node">
<title>rsvps</title>
<g id="a_node6"><a xlink:href="../../tables/rsvps.html" xlink:title="rsvps" target="_top">
<polygon fill="#ffffff" stroke="transparent" points="609,-66.2364 609,-127.2364 680,-127.2364 680,-66.2364 609,-66.2364"/>
<polygon fill="#f5f5f5" stroke="transparent" points="609.5,-103.7364 609.5,-126.7364 680.5,-126.7364 680.5,-103.7364 609.5,-103.7364"/>
<polygon fill="none" stroke="#000000" points="609.5,-103.7364 609.5,-126.7364 680.5,-126.7364 680.5,-103.7364 609.5,-103.7364"/>
<text text-anchor="start" x="614.5" y="-112.8364" font-family="Helvetica,sans-Serif" font-weight="bold" font-size="11.00" fill="#000000">rsvps</text>
<text text-anchor="start" x="645.5437" y="-111.8364" font-family="Helvetica,sans-Serif" font-size="11.00" fill="#000000">[table]</text>
<polygon fill="none" stroke="#000000" points="609.5,-84.7364 609.5,-103.7364 680.5,-103.7364 680.5,-84.7364 609.5,-84.7364"/>
<text text-anchor="start" x="612.5" y="-90.8364" font-family="Helvetica,sans-Serif" font-size="11.00" fill="#000000">...</text>
<polygon fill="#ffffff" stroke="transparent" points="609.5,-65.7364 609.5,-84.7364 630.5,-84.7364 630.5,-65.7364 609.5,-65.7364"/>
<polygon fill="none" stroke="#000000" points="609.5,-65.7364 609.5,-84.7364 630.5,-84.7364 630.5,-65.7364 609.5,-65.7364"/>
<text text-anchor="start" x="612.2026" y="-71.8364" font-family="Helvetica,sans-Serif" font-size="11.00" fill="#000000">&lt; 2</text>
<polygon fill="#ffffff" stroke="transparent" points="630.5,-65.7364 630.5,-84.7364 668.5,-84.7364 668.5,-65.7364 630.5,-65.7364"/>
<polygon fill="none" stroke="#000000" points="630.5,-65.7364 630.5,-84.7364 668.5,-84.7364 668.5,-65.7364 630.5,-65.7364"/>
<text text-anchor="start" x="633.3053" y="-71.8364" font-family="Helvetica,sans-Serif" font-size="11.00" fill="#000000">0 rows</text>
<polygon fill="#ffffff" stroke="transparent" points="668.5,-65.7364 668.5,-84.7364 680.5,-84.7364 680.5,-65.7364 668.5,-65.7364"/>
<polygon fill="none" stroke="#000000" points="668.5,-65.7364 668.5,-84.7364 680.5,-84.7364 680.5,-65.7364 668.5,-65.7364"/>
<text text-anchor="start" x="671.4431" y="-71.8364" font-family="Helvetica,sans-Serif" font-size="11.00" fill="#000000"> &#160;</text>
</a>
</g>
</g>
<!-- rsvps&#45;&gt;users -->
<g id="edge6" class="edge">
<title>rsvps:w&#45;&gt;users:e</title>
<path fill="none" stroke="#000000" d="M594.9003,-93.5162C394.4159,-87.473 288.2027,39.8257 137,-98.7364 68.1888,-161.795 189.3347,-516.7364 96,-516.7364"/>
<polygon fill="#000000" stroke="#000000" points="601.5009,-93.6157 609.4457,-97.336 605.5005,-93.6761 609.5,-93.7364 609.5,-93.7364 609.5,-93.7364 605.5005,-93.6761 609.5543,-90.1368 601.5009,-93.6157 601.5009,-93.6157"/>
<ellipse fill="none" stroke="#000000" cx="598.3013" cy="-93.5674" rx="3.2" ry="3.2"/>
</g>
<!-- rsvps&#45;&gt;events -->
<g id="edge5" class="edge">
<title>rsvps:w&#45;&gt;events:e</title>
<path fill="none" stroke="#000000" d="M595.1181,-95.9922C550.8678,-111.5013 573.6661,-201.7364 515.5,-201.7364"/>
<polygon fill="#000000" stroke="#000000" points="601.5966,-94.9761 610.0578,-97.293 605.5483,-94.3563 609.5,-93.7364 609.5,-93.7364 609.5,-93.7364 605.5483,-94.3563 608.9422,-90.1799 601.5966,-94.9761 601.5966,-94.9761"/>
<ellipse fill="none" stroke="#000000" cx="598.4353" cy="-95.472" rx="3.2" ry="3.2"/>
</g>
<!-- tags -->
<g id="node7" class="node">
<title>tags</title>
<g id="a_node7"><a xlink:href="../../tables/tags.html" xlink:title="tags" target="_top">
<polygon fill="#ffffff" stroke="transparent" points="609,-247.2364 609,-308.2364 680,-308.2364 680,-247.2364 609,-247.2364"/>
<polygon fill="#f5f5f5" stroke="transparent" points="609.5,-284.7364 609.5,-307.7364 680.5,-307.7364 680.5,-284.7364 609.5,-284.7364"/>
<polygon fill="none" stroke="#000000" points="609.5,-284.7364 609.5,-307.7364 680.5,-307.7364 680.5,-284.7364 609.5,-284.7364"/>
<text text-anchor="start" x="614.5" y="-293.8364" font-family="Helvetica,sans-Serif" font-weight="bold" font-size="11.00" fill="#000000">tags</text>
<text text-anchor="start" x="645.5437" y="-292.8364" font-family="Helvetica,sans-Serif" font-size="11.00" fill="#000000">[table]</text>
<polygon fill="none" stroke="#000000" points="609.5,-265.7364 609.5,-284.7364 680.5,-284.7364 680.5,-265.7364 609.5,-265.7364"/>
<text text-anchor="start" x="612.5" y="-271.8364" font-family="Helvetica,sans-Serif" font-size="11.00" fill="#000000">...</text>
<polygon fill="#ffffff" stroke="transparent" points="609.5,-246.7364 609.5,-265.7364 630.5,-265.7364 630.5,-246.7364 609.5,-246.7364"/>
<polygon fill="none" stroke="#000000" points="609.5,-246.7364 609.5,-265.7364 630.5,-265.7364 630.5,-246.7364 609.5,-246.7364"/>
<text text-anchor="start" x="612.2026" y="-252.8364" font-family="Helvetica,sans-Serif" font-size="11.00" fill="#000000">&lt; 1</text>
<polygon fill="#ffffff" stroke="transparent" points="630.5,-246.7364 630.5,-265.7364 668.5,-265.7364 668.5,-246.7364 630.5,-246.7364"/>
<polygon fill="none" stroke="#000000" points="630.5,-246.7364 630.5,-265.7364 668.5,-265.7364 668.5,-246.7364 630.5,-246.7364"/>
<text text-anchor="start" x="633.3053" y="-252.8364" font-family="Helvetica,sans-Serif" font-size="11.00" fill="#000000">0 rows</text>
<polygon fill="#ffffff" stroke="transparent" points="668.5,-246.7364 668.5,-265.7364 680.5,-265.7364 680.5,-246.7364 668.5,-246.7364"/>
<polygon fill="none" stroke="#000000" points="668.5,-246.7364 668.5,-265.7364 680.5,-265.7364 680.5,-246.7364 668.5,-246.7364"/>
<text text-anchor="start" x="671.4431" y="-252.8364" font-family="Helvetica,sans-Serif" font-size="11.00" fill="#000000"> &#160;</text>
</a>
</g>
</g>
<!-- tags&#45;&gt;events -->
<g id="edge7" class="edge">
<title>tags:w&#45;&gt;events:e</title>
<path fill="none" stroke="#000000" d="M595.2494,-272.6304C558.3318,-260.6613 563.0241,-201.7364 515.5,-201.7364"/>
<polygon fill="#000000" stroke="#000000" points="601.586,-273.5668 608.9737,-278.2978 605.543,-274.1516 609.5,-274.7364 609.5,-274.7364 609.5,-274.7364 605.543,-274.1516 610.0263,-271.1751 601.586,-273.5668 601.586,-273.5668"/>
<ellipse fill="none" stroke="#000000" cx="598.4203" cy="-273.099" rx="3.2" ry="3.2"/>
</g>
<!-- user_bans -->
<g id="node8" class="node">
<title>user_bans</title>
<g id="a_node8"><a xlink:href="../../tables/user_bans.html" xlink:title="user_bans" target="_top">
<polygon fill="#ffffff" stroke="transparent" points="416.5,-427.2364 416.5,-554.2364 510.5,-554.2364 510.5,-427.2364 416.5,-427.2364"/>
<polygon fill="#f5f5f5" stroke="transparent" points="416.5,-530.7364 416.5,-553.7364 510.5,-553.7364 510.5,-530.7364 416.5,-530.7364"/>
<polygon fill="none" stroke="#000000" points="416.5,-530.7364 416.5,-553.7364 510.5,-553.7364 510.5,-530.7364 416.5,-530.7364"/>
<text text-anchor="start" x="421.3244" y="-539.8364" font-family="Helvetica,sans-Serif" font-weight="bold" font-size="11.00" fill="#000000">user_bans</text>
<text text-anchor="start" x="476.0219" y="-538.8364" font-family="Helvetica,sans-Serif" font-size="11.00" fill="#000000">[table]</text>
<polygon fill="none" stroke="#000000" points="416.5,-508.7364 416.5,-530.7364 510.5,-530.7364 510.5,-508.7364 416.5,-508.7364"/>
<image xlink:href="../../images/primaryKeys.png" width="11px" height="12px" preserveAspectRatio="xMinYMin meet" x="421.5" y="-525.736"/>
<text text-anchor="start" x="439.5" y="-515.8364" font-family="Helvetica,sans-Serif" font-size="11.00" fill="#000000">id</text>
<polygon fill="none" stroke="#000000" points="416.5,-486.7364 416.5,-508.7364 510.5,-508.7364 510.5,-486.7364 416.5,-486.7364"/>
<image xlink:href="../../images/foreignKeys.png" width="11px" height="12px" preserveAspectRatio="xMinYMin meet" x="421.5" y="-503.736"/>
<text text-anchor="start" x="439.5" y="-493.8364" font-family="Helvetica,sans-Serif" font-size="11.00" fill="#000000">user_id</text>
<polygon fill="none" stroke="#000000" points="416.5,-464.7364 416.5,-486.7364 510.5,-486.7364 510.5,-464.7364 416.5,-464.7364"/>
<image xlink:href="../../images/foreignKeys.png" width="11px" height="12px" preserveAspectRatio="xMinYMin meet" x="421.5" y="-481.736"/>
<text text-anchor="start" x="439.5" y="-471.8364" font-family="Helvetica,sans-Serif" font-size="11.00" fill="#000000">chapter_id</text>
<polygon fill="none" stroke="#000000" points="416.5,-445.7364 416.5,-464.7364 510.5,-464.7364 510.5,-445.7364 416.5,-445.7364"/>
<text text-anchor="start" x="419.5" y="-451.8364" font-family="Helvetica,sans-Serif" font-size="11.00" fill="#000000">...</text>
<polygon fill="#ffffff" stroke="transparent" points="416.5,-426.7364 416.5,-445.7364 448.5,-445.7364 448.5,-426.7364 416.5,-426.7364"/>
<polygon fill="none" stroke="#000000" points="416.5,-426.7364 416.5,-445.7364 448.5,-445.7364 448.5,-426.7364 416.5,-426.7364"/>
<text text-anchor="start" x="419.5" y="-432.8364" font-family="Helvetica,sans-Serif" font-size="11.00" fill="#000000">&lt; 2</text>
<polygon fill="#ffffff" stroke="transparent" points="448.5,-426.7364 448.5,-445.7364 492.5,-445.7364 492.5,-426.7364 448.5,-426.7364"/>
<polygon fill="none" stroke="#000000" points="448.5,-426.7364 448.5,-445.7364 492.5,-445.7364 492.5,-426.7364 448.5,-426.7364"/>
<text text-anchor="start" x="457.1105" y="-432.8364" font-family="Helvetica,sans-Serif" font-size="11.00" fill="#000000">0 rows</text>
<polygon fill="#ffffff" stroke="transparent" points="492.5,-426.7364 492.5,-445.7364 510.5,-445.7364 510.5,-426.7364 492.5,-426.7364"/>
<polygon fill="none" stroke="#000000" points="492.5,-426.7364 492.5,-445.7364 510.5,-445.7364 510.5,-426.7364 492.5,-426.7364"/>
<text text-anchor="start" x="501.3862" y="-432.8364" font-family="Helvetica,sans-Serif" font-size="11.00" fill="#000000"> &#160;</text>
</a>
</g>
</g>
<!-- user_bans&#45;&gt;chapters -->
<g id="edge8" class="edge">
<title>user_bans:w&#45;&gt;chapters:e</title>
<path fill="none" stroke="#000000" d="M401.9468,-473.5369C380.005,-466.3072 373.9098,-443.7364 344.5,-443.7364"/>
<polygon fill="#000000" stroke="#000000" points="408.5898,-474.5409 415.962,-479.296 412.5449,-475.1387 416.5,-475.7364 416.5,-475.7364 416.5,-475.7364 412.5449,-475.1387 417.038,-472.1769 408.5898,-474.5409 408.5898,-474.5409"/>
<ellipse fill="none" stroke="#000000" cx="405.4258" cy="-474.0627" rx="3.2" ry="3.2"/>
</g>
<!-- user_bans&#45;&gt;users -->
<g id="edge9" class="edge">
<title>user_bans:w&#45;&gt;users:e</title>
<path fill="none" stroke="#000000" d="M402.0177,-498.9838C384.839,-502.1977 376.8752,-510.7197 354,-513.7364 240.31,-528.7298 210.6744,-516.7364 96,-516.7364"/>
<polygon fill="#000000" stroke="#000000" points="408.5295,-498.423 416.809,-501.3232 412.5148,-498.0797 416.5,-497.7364 416.5,-497.7364 416.5,-497.7364 412.5148,-498.0797 416.191,-494.1497 408.5295,-498.423 408.5295,-498.423"/>
<ellipse fill="none" stroke="#000000" cx="405.3413" cy="-498.6976" rx="3.2" ry="3.2"/>
</g>
<!-- user_chapter_roles -->
<g id="node9" class="node">
<title>user_chapter_roles</title>
<g id="a_node9"><a xlink:href="../../tables/user_chapter_roles.html" xlink:title="user_chapter_roles" target="_top">
<polygon fill="#ffffff" stroke="transparent" points="395,-257.2364 395,-406.2364 532,-406.2364 532,-257.2364 395,-257.2364"/>
<polygon fill="#f5f5f5" stroke="transparent" points="395.5,-382.7364 395.5,-405.7364 532.5,-405.7364 532.5,-382.7364 395.5,-382.7364"/>
<polygon fill="none" stroke="#000000" points="395.5,-382.7364 395.5,-405.7364 532.5,-405.7364 532.5,-382.7364 395.5,-382.7364"/>
<text text-anchor="start" x="400.4338" y="-391.8364" font-family="Helvetica,sans-Serif" font-weight="bold" font-size="11.00" fill="#000000">user_chapter_roles</text>
<text text-anchor="start" x="498.0219" y="-390.8364" font-family="Helvetica,sans-Serif" font-size="11.00" fill="#000000">[table]</text>
<polygon fill="none" stroke="#000000" points="395.5,-360.7364 395.5,-382.7364 532.5,-382.7364 532.5,-360.7364 395.5,-360.7364"/>
<image xlink:href="../../images/primaryKeys.png" width="11px" height="12px" preserveAspectRatio="xMinYMin meet" x="400.5" y="-377.736"/>
<text text-anchor="start" x="417.5" y="-367.8364" font-family="Helvetica,sans-Serif" font-size="11.00" fill="#000000">id</text>
<polygon fill="none" stroke="#000000" points="395.5,-338.7364 395.5,-360.7364 532.5,-360.7364 532.5,-338.7364 395.5,-338.7364"/>
<image xlink:href="../../images/primaryKeys.png" width="11px" height="12px" preserveAspectRatio="xMinYMin meet" x="400.5" y="-355.736"/>
<text text-anchor="start" x="417.5" y="-345.8364" font-family="Helvetica,sans-Serif" font-size="11.00" fill="#000000">user_id</text>
<polygon fill="none" stroke="#000000" points="395.5,-316.7364 395.5,-338.7364 532.5,-338.7364 532.5,-316.7364 395.5,-316.7364"/>
<image xlink:href="../../images/primaryKeys.png" width="11px" height="12px" preserveAspectRatio="xMinYMin meet" x="400.5" y="-333.736"/>
<text text-anchor="start" x="417.5" y="-323.8364" font-family="Helvetica,sans-Serif" font-size="11.00" fill="#000000">chapter_id</text>
<polygon fill="none" stroke="#000000" points="395.5,-294.7364 395.5,-316.7364 532.5,-316.7364 532.5,-294.7364 395.5,-294.7364"/>
<image xlink:href="../../images/primaryKeys.png" width="11px" height="12px" preserveAspectRatio="xMinYMin meet" x="400.5" y="-311.736"/>
<text text-anchor="start" x="417.5" y="-301.8364" font-family="Helvetica,sans-Serif" font-size="11.00" fill="#000000">role_name</text>
<polygon fill="none" stroke="#000000" points="395.5,-275.7364 395.5,-294.7364 532.5,-294.7364 532.5,-275.7364 395.5,-275.7364"/>
<text text-anchor="start" x="398.5" y="-281.8364" font-family="Helvetica,sans-Serif" font-size="11.00" fill="#000000">...</text>
<polygon fill="#ffffff" stroke="transparent" points="395.5,-256.7364 395.5,-275.7364 449.5,-275.7364 449.5,-256.7364 395.5,-256.7364"/>
<polygon fill="none" stroke="#000000" points="395.5,-256.7364 395.5,-275.7364 449.5,-275.7364 449.5,-256.7364 395.5,-256.7364"/>
<text text-anchor="start" x="398.5" y="-262.8364" font-family="Helvetica,sans-Serif" font-size="11.00" fill="#000000">&lt; 2</text>
<polygon fill="#ffffff" stroke="transparent" points="449.5,-256.7364 449.5,-275.7364 503.5,-275.7364 503.5,-256.7364 449.5,-256.7364"/>
<polygon fill="none" stroke="#000000" points="449.5,-256.7364 449.5,-275.7364 503.5,-275.7364 503.5,-256.7364 449.5,-256.7364"/>
<text text-anchor="start" x="468.1105" y="-262.8364" font-family="Helvetica,sans-Serif" font-size="11.00" fill="#000000">0 rows</text>
<polygon fill="#ffffff" stroke="transparent" points="503.5,-256.7364 503.5,-275.7364 532.5,-275.7364 532.5,-256.7364 503.5,-256.7364"/>
<polygon fill="none" stroke="#000000" points="503.5,-256.7364 503.5,-275.7364 532.5,-275.7364 532.5,-256.7364 503.5,-256.7364"/>
<text text-anchor="start" x="523.3862" y="-262.8364" font-family="Helvetica,sans-Serif" font-size="11.00" fill="#000000"> &#160;</text>
</a>
</g>
</g>
<!-- user_chapter_roles&#45;&gt;chapters -->
<g id="edge10" class="edge">
<title>user_chapter_roles:w&#45;&gt;chapters:e</title>
<path fill="none" stroke="#000000" d="M381.34,-331.3353C350.8711,-350.9148 394.8785,-443.7364 344.5,-443.7364"/>
<polygon fill="#000000" stroke="#000000" points="387.7465,-329.7071 396.3868,-331.2255 391.6233,-328.7218 395.5,-327.7364 395.5,-327.7364 395.5,-327.7364 391.6233,-328.7218 394.6132,-324.2474 387.7465,-329.7071 387.7465,-329.7071"/>
<ellipse fill="none" stroke="#000000" cx="384.6451" cy="-330.4953" rx="3.2" ry="3.2"/>
</g>
<!-- user_chapter_roles&#45;&gt;users -->
<g id="edge11" class="edge">
<title>user_chapter_roles:w&#45;&gt;users:e</title>
<path fill="none" stroke="#000000" d="M381.165,-352.0093C342.7796,-366.9784 399.4259,-451.9809 354,-489.7364 342.9168,-498.9482 110.4116,-516.7364 96,-516.7364"/>
<polygon fill="#000000" stroke="#000000" points="387.5987,-350.9893 396.0638,-353.292 391.5493,-350.3628 395.5,-349.7364 395.5,-349.7364 395.5,-349.7364 391.5493,-350.3628 394.9362,-346.1808 387.5987,-350.9893 387.5987,-350.9893"/>
<ellipse fill="none" stroke="#000000" cx="384.4382" cy="-351.4904" rx="3.2" ry="3.2"/>
</g>
<!-- user_event_roles -->
<g id="node10" class="node">
<title>user_event_roles</title>
<g id="a_node10"><a xlink:href="../../tables/user_event_roles.html" xlink:title="user_event_roles" target="_top">
<polygon fill="#ffffff" stroke="transparent" points="581,-444.2364 581,-505.2364 708,-505.2364 708,-444.2364 581,-444.2364"/>
<polygon fill="#f5f5f5" stroke="transparent" points="581.5,-481.7364 581.5,-504.7364 708.5,-504.7364 708.5,-481.7364 581.5,-481.7364"/>
<polygon fill="none" stroke="#000000" points="581.5,-481.7364 581.5,-504.7364 708.5,-504.7364 708.5,-481.7364 581.5,-481.7364"/>
<text text-anchor="start" x="586.3222" y="-490.8364" font-family="Helvetica,sans-Serif" font-weight="bold" font-size="11.00" fill="#000000">user_event_roles</text>
<text text-anchor="start" x="674.0219" y="-489.8364" font-family="Helvetica,sans-Serif" font-size="11.00" fill="#000000">[table]</text>
<polygon fill="none" stroke="#000000" points="581.5,-462.7364 581.5,-481.7364 708.5,-481.7364 708.5,-462.7364 581.5,-462.7364"/>
<text text-anchor="start" x="584.5" y="-468.8364" font-family="Helvetica,sans-Serif" font-size="11.00" fill="#000000">...</text>
<polygon fill="#ffffff" stroke="transparent" points="581.5,-443.7364 581.5,-462.7364 630.5,-462.7364 630.5,-443.7364 581.5,-443.7364"/>
<polygon fill="none" stroke="#000000" points="581.5,-443.7364 581.5,-462.7364 630.5,-462.7364 630.5,-443.7364 581.5,-443.7364"/>
<text text-anchor="start" x="584.5" y="-449.8364" font-family="Helvetica,sans-Serif" font-size="11.00" fill="#000000">&lt; 2</text>
<polygon fill="#ffffff" stroke="transparent" points="630.5,-443.7364 630.5,-462.7364 682.5,-462.7364 682.5,-443.7364 630.5,-443.7364"/>
<polygon fill="none" stroke="#000000" points="630.5,-443.7364 630.5,-462.7364 682.5,-462.7364 682.5,-443.7364 630.5,-443.7364"/>
<text text-anchor="start" x="647.1105" y="-449.8364" font-family="Helvetica,sans-Serif" font-size="11.00" fill="#000000">0 rows</text>
<polygon fill="#ffffff" stroke="transparent" points="682.5,-443.7364 682.5,-462.7364 708.5,-462.7364 708.5,-443.7364 682.5,-443.7364"/>
<polygon fill="none" stroke="#000000" points="682.5,-443.7364 682.5,-462.7364 708.5,-462.7364 708.5,-443.7364 682.5,-443.7364"/>
<text text-anchor="start" x="699.3862" y="-449.8364" font-family="Helvetica,sans-Serif" font-size="11.00" fill="#000000"> &#160;</text>
</a>
</g>
</g>
<!-- user_event_roles&#45;&gt;users -->
<g id="edge13" class="edge">
<title>user_event_roles:w&#45;&gt;users:e</title>
<path fill="none" stroke="#000000" d="M567.3878,-475.2836C546.1594,-489.6125 572.779,-543.4691 540,-564.7364 482.9548,-601.7479 454.8166,-569.7277 387,-564.7364 274.9816,-556.492 246.9803,-550.5493 137,-527.7364 118.5266,-523.9045 114.8667,-516.7364 96,-516.7364"/>
<polygon fill="#000000" stroke="#000000" points="573.7413,-473.6866 582.3776,-475.2278 577.6207,-472.7115 581.5,-471.7364 581.5,-471.7364 581.5,-471.7364 577.6207,-472.7115 580.6224,-468.245 573.7413,-473.6866 573.7413,-473.6866"/>
<ellipse fill="none" stroke="#000000" cx="570.6379" cy="-474.4667" rx="3.2" ry="3.2"/>
</g>
<!-- user_event_roles&#45;&gt;events -->
<g id="edge12" class="edge">
<title>user_event_roles:w&#45;&gt;events:e</title>
<path fill="none" stroke="#000000" d="M568.0675,-466.0971C528.7409,-427.3242 571.9585,-201.7364 515.5,-201.7364"/>
<polygon fill="#000000" stroke="#000000" points="574.1237,-468.6396 580.1064,-475.0558 577.8118,-470.188 581.5,-471.7364 581.5,-471.7364 581.5,-471.7364 577.8118,-470.188 582.8936,-468.4171 574.1237,-468.6396 574.1237,-468.6396"/>
<ellipse fill="none" stroke="#000000" cx="571.1732" cy="-467.4009" rx="3.2" ry="3.2"/>
</g>
<!-- user_instance_roles -->
<g id="node11" class="node">
<title>user_instance_roles</title>
<g id="a_node11"><a xlink:href="../../tables/user_instance_roles.html" xlink:title="user_instance_roles" target="_top">
<polygon fill="#ffffff" stroke="transparent" points="175,-603.2364 175,-664.2364 316,-664.2364 316,-603.2364 175,-603.2364"/>
<polygon fill="#f5f5f5" stroke="transparent" points="175.5,-640.7364 175.5,-663.7364 316.5,-663.7364 316.5,-640.7364 175.5,-640.7364"/>
<polygon fill="none" stroke="#000000" points="175.5,-640.7364 175.5,-663.7364 316.5,-663.7364 316.5,-640.7364 175.5,-640.7364"/>
<text text-anchor="start" x="180.2943" y="-649.8364" font-family="Helvetica,sans-Serif" font-weight="bold" font-size="11.00" fill="#000000">user_instance_roles</text>
<text text-anchor="start" x="282.0219" y="-648.8364" font-family="Helvetica,sans-Serif" font-size="11.00" fill="#000000">[table]</text>
<polygon fill="none" stroke="#000000" points="175.5,-621.7364 175.5,-640.7364 316.5,-640.7364 316.5,-621.7364 175.5,-621.7364"/>
<text text-anchor="start" x="178.5" y="-627.8364" font-family="Helvetica,sans-Serif" font-size="11.00" fill="#000000">...</text>
<polygon fill="#ffffff" stroke="transparent" points="175.5,-602.7364 175.5,-621.7364 231.5,-621.7364 231.5,-602.7364 175.5,-602.7364"/>
<polygon fill="none" stroke="#000000" points="175.5,-602.7364 175.5,-621.7364 231.5,-621.7364 231.5,-602.7364 175.5,-602.7364"/>
<text text-anchor="start" x="178.5" y="-608.8364" font-family="Helvetica,sans-Serif" font-size="11.00" fill="#000000">&lt; 1</text>
<polygon fill="#ffffff" stroke="transparent" points="231.5,-602.7364 231.5,-621.7364 286.5,-621.7364 286.5,-602.7364 231.5,-602.7364"/>
<polygon fill="none" stroke="#000000" points="231.5,-602.7364 231.5,-621.7364 286.5,-621.7364 286.5,-602.7364 231.5,-602.7364"/>
<text text-anchor="start" x="251.1105" y="-608.8364" font-family="Helvetica,sans-Serif" font-size="11.00" fill="#000000">0 rows</text>
<polygon fill="#ffffff" stroke="transparent" points="286.5,-602.7364 286.5,-621.7364 316.5,-621.7364 316.5,-602.7364 286.5,-602.7364"/>
<polygon fill="none" stroke="#000000" points="286.5,-602.7364 286.5,-621.7364 316.5,-621.7364 316.5,-602.7364 286.5,-602.7364"/>
<text text-anchor="start" x="307.3862" y="-608.8364" font-family="Helvetica,sans-Serif" font-size="11.00" fill="#000000"> &#160;</text>
</a>
</g>
</g>
<!-- user_instance_roles&#45;&gt;users -->
<g id="edge14" class="edge">
<title>user_instance_roles:w&#45;&gt;users:e</title>
<path fill="none" stroke="#000000" d="M161.2422,-627.2681C150.0421,-620.3679 148.3024,-604.2446 137,-588.7364 115.311,-558.9768 132.8246,-516.7364 96,-516.7364"/>
<polygon fill="#000000" stroke="#000000" points="167.7267,-628.8455 174.6491,-634.2344 171.6133,-629.7909 175.5,-630.7364 175.5,-630.7364 175.5,-630.7364 171.6133,-629.7909 176.3509,-627.2384 167.7267,-628.8455 167.7267,-628.8455"/>
<ellipse fill="none" stroke="#000000" cx="164.6174" cy="-628.0891" rx="3.2" ry="3.2"/>
</g>
</g>
</svg>
