<?xml version="1.0" encoding="UTF-8" standalone="no"?>
<!DOCTYPE svg PUBLIC "-//W3C//DTD SVG 1.1//EN"
 "http://www.w3.org/Graphics/SVG/1.1/DTD/svg11.dtd">
<!-- Generated by graphviz version 2.40.1 (20161225.0304)
 -->
<!-- Title: twoDegreesRelationshipsDiagram Pages: 1 -->
<svg width="854pt" height="716pt"
 viewBox="0.00 0.00 854.00 716.20" xmlns="http://www.w3.org/2000/svg" xmlns:xlink="http://www.w3.org/1999/xlink">
<g id="graph0" class="graph" transform="scale(1 1) rotate(0) translate(4 712.2)">
<title>twoDegreesRelationshipsDiagram</title>
<polygon fill="#ffffff" stroke="transparent" points="-4,4 -4,-712.2 850,-712.2 850,4 -4,4"/>
<text text-anchor="middle" x="72.4936" y="-7.3" font-family="Helvetica,sans-Serif" font-size="11.00" fill="#000000">Generated by SchemaSpy</text>
<!-- chapter_role_permissions -->
<g id="node1" class="node">
<title>chapter_role_permissions</title>
<g id="a_node1"><a xlink:href="../../tables/chapter_role_permissions.html" xlink:title="chapter_role_permissions" target="_top">
<polygon fill="#ffffff" stroke="transparent" points="354.5,-643.2 354.5,-704.2 545.5,-704.2 545.5,-643.2 354.5,-643.2"/>
<polygon fill="#f5f5f5" stroke="transparent" points="355,-680.7 355,-703.7 546,-703.7 546,-680.7 355,-680.7"/>
<polygon fill="none" stroke="#000000" points="355,-680.7 355,-703.7 546,-703.7 546,-680.7 355,-680.7"/>
<text text-anchor="start" x="360" y="-689.3" font-family="Helvetica,sans-Serif" font-weight="bold" font-size="11.00" fill="#000000">chapter_role_permissions</text>
<text text-anchor="start" x="511.5219" y="-688.8" font-family="Helvetica,sans-Serif" font-size="11.00" fill="#000000">[table]</text>
<polygon fill="none" stroke="#000000" points="355,-661.7 355,-680.7 546,-680.7 546,-661.7 355,-661.7"/>
<text text-anchor="start" x="358" y="-667.8" font-family="Helvetica,sans-Serif" font-size="11.00" fill="#000000">...</text>
<polygon fill="#ffffff" stroke="transparent" points="355,-642.7 355,-661.7 436,-661.7 436,-642.7 355,-642.7"/>
<polygon fill="none" stroke="#000000" points="355,-642.7 355,-661.7 436,-661.7 436,-642.7 355,-642.7"/>
<text text-anchor="start" x="358" y="-648.8" font-family="Helvetica,sans-Serif" font-size="11.00" fill="#000000">&lt; 2</text>
<polygon fill="#ffffff" stroke="transparent" points="436,-642.7 436,-661.7 504,-661.7 504,-642.7 436,-642.7"/>
<polygon fill="none" stroke="#000000" points="436,-642.7 436,-661.7 504,-661.7 504,-642.7 436,-642.7"/>
<text text-anchor="start" x="468.6105" y="-648.8" font-family="Helvetica,sans-Serif" font-size="11.00" fill="#000000">0 rows</text>
<polygon fill="#ffffff" stroke="transparent" points="504,-642.7 504,-661.7 546,-661.7 546,-642.7 504,-642.7"/>
<polygon fill="none" stroke="#000000" points="504,-642.7 504,-661.7 546,-661.7 546,-642.7 504,-642.7"/>
<text text-anchor="start" x="536.8862" y="-648.8" font-family="Helvetica,sans-Serif" font-size="11.00" fill="#000000"> &#160;</text>
</a>
</g>
</g>
<!-- chapter_roles -->
<g id="node2" class="node">
<title>chapter_roles</title>
<g id="a_node2"><a xlink:href="../../tables/chapter_roles.html" xlink:title="chapter_roles" target="_top">
<polygon fill="#ffffff" stroke="transparent" points="181,-522.2 181,-627.2 301,-627.2 301,-522.2 181,-522.2"/>
<polygon fill="#f5f5f5" stroke="transparent" points="181,-603.7 181,-626.7 301,-626.7 301,-603.7 181,-603.7"/>
<polygon fill="none" stroke="#000000" points="181,-603.7 181,-626.7 301,-626.7 301,-603.7 181,-603.7"/>
<text text-anchor="start" x="186" y="-612.3" font-family="Helvetica,sans-Serif" font-weight="bold" font-size="11.00" fill="#000000">chapter_roles</text>
<text text-anchor="start" x="266.5219" y="-611.8" font-family="Helvetica,sans-Serif" font-size="11.00" fill="#000000">[table]</text>
<polygon fill="none" stroke="#000000" points="181,-581.7 181,-603.7 301,-603.7 301,-581.7 181,-581.7"/>
<image xlink:href="../../images/primaryKeys.png" width="11px" height="12px" preserveAspectRatio="xMinYMin meet" x="186" y="-598.7"/>
<text text-anchor="start" x="210" y="-588.8" font-family="Helvetica,sans-Serif" font-size="11.00" fill="#000000">id</text>
<polygon fill="#ffffff" stroke="transparent" points="181,-559.7 181,-581.7 301,-581.7 301,-559.7 181,-559.7"/>
<polygon fill="none" stroke="#000000" points="181,-559.7 181,-581.7 301,-581.7 301,-559.7 181,-559.7"/>
<text text-anchor="start" x="210" y="-566.8" font-family="Helvetica,sans-Serif" font-size="11.00" fill="#000000">name</text>
<polygon fill="none" stroke="#000000" points="181,-540.7 181,-559.7 301,-559.7 301,-540.7 181,-540.7"/>
<text text-anchor="start" x="184" y="-546.8" font-family="Helvetica,sans-Serif" font-size="11.00" fill="#000000">...</text>
<polygon fill="#ffffff" stroke="transparent" points="181,-521.7 181,-540.7 217,-540.7 217,-521.7 181,-521.7"/>
<polygon fill="none" stroke="#000000" points="181,-521.7 181,-540.7 217,-540.7 217,-521.7 181,-521.7"/>
<text text-anchor="start" x="184" y="-527.8" font-family="Helvetica,sans-Serif" font-size="11.00" fill="#000000"> &#160;</text>
<polygon fill="#ffffff" stroke="transparent" points="217,-521.7 217,-540.7 267,-540.7 267,-521.7 217,-521.7"/>
<polygon fill="none" stroke="#000000" points="217,-521.7 217,-540.7 267,-540.7 267,-521.7 217,-521.7"/>
<text text-anchor="start" x="231.6105" y="-527.8" font-family="Helvetica,sans-Serif" font-size="11.00" fill="#000000">0 rows</text>
<polygon fill="#ffffff" stroke="transparent" points="267,-521.7 267,-540.7 301,-540.7 301,-521.7 267,-521.7"/>
<polygon fill="none" stroke="#000000" points="267,-521.7 267,-540.7 301,-540.7 301,-521.7 267,-521.7"/>
<text text-anchor="start" x="282.4053" y="-527.8" font-family="Helvetica,sans-Serif" font-size="11.00" fill="#000000">2 &gt;</text>
</a>
</g>
</g>
<!-- chapter_role_permissions&#45;&gt;chapter_roles -->
<g id="edge1" class="edge">
<title>chapter_role_permissions:w&#45;&gt;chapter_roles:e</title>
<path fill="none" stroke="#000000" d="M341.1096,-666.5064C319.9323,-650.305 337.2344,-592.7 301,-592.7"/>
<polygon fill="#000000" stroke="#000000" points="347.3414,-668.3878 353.9595,-674.1464 351.1707,-669.5439 355,-670.7 355,-670.7 355,-670.7 351.1707,-669.5439 356.0405,-667.2536 347.3414,-668.3878 347.3414,-668.3878"/>
<ellipse fill="none" stroke="#000000" cx="344.278" cy="-667.4629" rx="3.2" ry="3.2"/>
</g>
<!-- chapter_tags -->
<g id="node3" class="node">
<title>chapter_tags</title>
<g id="a_node3"><a xlink:href="../../tables/chapter_tags.html" xlink:title="chapter_tags" target="_top">
<polygon fill="#ffffff" stroke="transparent" points="392.5,-561.2 392.5,-622.2 507.5,-622.2 507.5,-561.2 392.5,-561.2"/>
<polygon fill="#f5f5f5" stroke="transparent" points="393,-598.7 393,-621.7 508,-621.7 508,-598.7 393,-598.7"/>
<polygon fill="none" stroke="#000000" points="393,-598.7 393,-621.7 508,-621.7 508,-598.7 393,-598.7"/>
<text text-anchor="start" x="398" y="-607.3" font-family="Helvetica,sans-Serif" font-weight="bold" font-size="11.00" fill="#000000">chapter_tags</text>
<text text-anchor="start" x="473.5219" y="-606.8" font-family="Helvetica,sans-Serif" font-size="11.00" fill="#000000">[table]</text>
<polygon fill="none" stroke="#000000" points="393,-579.7 393,-598.7 508,-598.7 508,-579.7 393,-579.7"/>
<text text-anchor="start" x="396" y="-585.8" font-family="Helvetica,sans-Serif" font-size="11.00" fill="#000000">...</text>
<polygon fill="#ffffff" stroke="transparent" points="393,-560.7 393,-579.7 436,-579.7 436,-560.7 393,-560.7"/>
<polygon fill="none" stroke="#000000" points="393,-560.7 393,-579.7 436,-579.7 436,-560.7 393,-560.7"/>
<text text-anchor="start" x="396" y="-566.8" font-family="Helvetica,sans-Serif" font-size="11.00" fill="#000000">&lt; 2</text>
<polygon fill="#ffffff" stroke="transparent" points="436,-560.7 436,-579.7 485,-579.7 485,-560.7 436,-560.7"/>
<polygon fill="none" stroke="#000000" points="436,-560.7 436,-579.7 485,-579.7 485,-560.7 436,-560.7"/>
<text text-anchor="start" x="449.6105" y="-566.8" font-family="Helvetica,sans-Serif" font-size="11.00" fill="#000000">0 rows</text>
<polygon fill="#ffffff" stroke="transparent" points="485,-560.7 485,-579.7 508,-579.7 508,-560.7 485,-560.7"/>
<polygon fill="none" stroke="#000000" points="485,-560.7 485,-579.7 508,-579.7 508,-560.7 485,-560.7"/>
<text text-anchor="start" x="498.8862" y="-566.8" font-family="Helvetica,sans-Serif" font-size="11.00" fill="#000000"> &#160;</text>
</a>
</g>
</g>
<!-- chapters -->
<g id="node4" class="node">
<title>chapters</title>
<g id="a_node4"><a xlink:href="../../tables/chapters.html" xlink:title="chapters" target="_top">
<polygon fill="#ffffff" stroke="transparent" points="195.5,-340.2 195.5,-423.2 286.5,-423.2 286.5,-340.2 195.5,-340.2"/>
<polygon fill="#f5f5f5" stroke="transparent" points="196,-399.7 196,-422.7 287,-422.7 287,-399.7 196,-399.7"/>
<polygon fill="none" stroke="#000000" points="196,-399.7 196,-422.7 287,-422.7 287,-399.7 196,-399.7"/>
<text text-anchor="start" x="201" y="-408.3" font-family="Helvetica,sans-Serif" font-weight="bold" font-size="11.00" fill="#000000">chapters</text>
<text text-anchor="start" x="252.5219" y="-407.8" font-family="Helvetica,sans-Serif" font-size="11.00" fill="#000000">[table]</text>
<polygon fill="none" stroke="#000000" points="196,-377.7 196,-399.7 287,-399.7 287,-377.7 196,-377.7"/>
<image xlink:href="../../images/primaryKeys.png" width="11px" height="12px" preserveAspectRatio="xMinYMin meet" x="201" y="-394.7"/>
<text text-anchor="start" x="217" y="-384.8" font-family="Helvetica,sans-Serif" font-size="11.00" fill="#000000">id</text>
<polygon fill="none" stroke="#000000" points="196,-358.7 196,-377.7 287,-377.7 287,-358.7 196,-358.7"/>
<text text-anchor="start" x="199" y="-364.8" font-family="Helvetica,sans-Serif" font-size="11.00" fill="#000000">...</text>
<polygon fill="#ffffff" stroke="transparent" points="196,-339.7 196,-358.7 218,-358.7 218,-339.7 196,-339.7"/>
<polygon fill="none" stroke="#000000" points="196,-339.7 196,-358.7 218,-358.7 218,-339.7 196,-339.7"/>
<text text-anchor="start" x="199" y="-345.8" font-family="Helvetica,sans-Serif" font-size="11.00" fill="#000000"> &#160;</text>
<polygon fill="#ffffff" stroke="transparent" points="218,-339.7 218,-358.7 261,-358.7 261,-339.7 218,-339.7"/>
<polygon fill="none" stroke="#000000" points="218,-339.7 218,-358.7 261,-358.7 261,-339.7 218,-339.7"/>
<text text-anchor="start" x="225.6105" y="-345.8" font-family="Helvetica,sans-Serif" font-size="11.00" fill="#000000">0 rows</text>
<polygon fill="#ffffff" stroke="transparent" points="261,-339.7 261,-358.7 287,-358.7 287,-339.7 261,-339.7"/>
<polygon fill="none" stroke="#000000" points="261,-339.7 261,-358.7 287,-358.7 287,-339.7 261,-339.7"/>
<text text-anchor="start" x="268.4053" y="-345.8" font-family="Helvetica,sans-Serif" font-size="11.00" fill="#000000">5 &gt;</text>
</a>
</g>
</g>
<!-- chapter_tags&#45;&gt;chapters -->
<g id="edge2" class="edge">
<title>chapter_tags:w&#45;&gt;chapters:e</title>
<path fill="none" stroke="#000000" d="M378.3283,-586.7382C361.2856,-581.4695 355.5055,-566.0884 342,-546.7 299.5003,-485.688 361.3552,-388.7 287,-388.7"/>
<polygon fill="#000000" stroke="#000000" points="385.0706,-587.6397 392.5228,-592.2682 389.0353,-588.1698 393,-588.7 393,-588.7 393,-588.7 389.0353,-588.1698 393.4772,-585.1318 385.0706,-587.6397 385.0706,-587.6397"/>
<ellipse fill="none" stroke="#000000" cx="381.8988" cy="-587.2155" rx="3.2" ry="3.2"/>
</g>
<!-- chapter_users -->
<g id="node5" class="node">
<title>chapter_users</title>
<g id="a_node5"><a xlink:href="../../tables/chapter_users.html" xlink:title="chapter_users" target="_top">
<polygon fill="#ffffff" stroke="transparent" points="350,-312.7 350,-512.7 550,-512.7 550,-312.7 350,-312.7"/>
<polygon fill="#f5f5f5" stroke="transparent" points="352,-487.7 352,-510.7 548,-510.7 548,-487.7 352,-487.7"/>
<polygon fill="none" stroke="#000000" points="352,-487.7 352,-510.7 548,-510.7 548,-487.7 352,-487.7"/>
<text text-anchor="start" x="357" y="-496.3" font-family="Helvetica,sans-Serif" font-weight="bold" font-size="11.00" fill="#000000">chapter_users</text>
<text text-anchor="start" x="513.0437" y="-495.8" font-family="Helvetica,sans-Serif" font-size="11.00" fill="#000000">[table]</text>
<polygon fill="none" stroke="#000000" points="352,-465.7 352,-487.7 464,-487.7 464,-465.7 352,-465.7"/>
<text text-anchor="start" x="372" y="-472.8" font-family="Helvetica,sans-Serif" font-size="11.00" fill="#000000">created_at</text>
<polygon fill="none" stroke="#000000" points="464,-465.7 464,-487.7 548,-487.7 548,-465.7 464,-465.7"/>
<text text-anchor="start" x="466.8807" y="-473.4" font-family="Helvetica,sans-Serif" font-size="11.00" fill="#000000">timestamp[26,3]</text>
<polygon fill="none" stroke="#000000" points="352,-443.7 352,-465.7 464,-465.7 464,-443.7 352,-443.7"/>
<text text-anchor="start" x="372" y="-450.8" font-family="Helvetica,sans-Serif" font-size="11.00" fill="#000000">updated_at</text>
<polygon fill="none" stroke="#000000" points="464,-443.7 464,-465.7 548,-465.7 548,-443.7 464,-443.7"/>
<text text-anchor="start" x="466.8807" y="-451.4" font-family="Helvetica,sans-Serif" font-size="11.00" fill="#000000">timestamp[26,3]</text>
<polygon fill="none" stroke="#000000" points="352,-421.7 352,-443.7 464,-443.7 464,-421.7 352,-421.7"/>
<text text-anchor="start" x="372" y="-428.8" font-family="Helvetica,sans-Serif" font-size="11.00" fill="#000000">joined_date</text>
<polygon fill="none" stroke="#000000" points="464,-421.7 464,-443.7 548,-443.7 548,-421.7 464,-421.7"/>
<text text-anchor="start" x="466.8807" y="-429.4" font-family="Helvetica,sans-Serif" font-size="11.00" fill="#000000">timestamp[26,3]</text>
<polygon fill="none" stroke="#000000" points="352,-399.7 352,-421.7 464,-421.7 464,-399.7 352,-399.7"/>
<image xlink:href="../../images/primaryKeys.png" width="11px" height="12px" preserveAspectRatio="xMinYMin meet" x="357" y="-416.7"/>
<text text-anchor="start" x="372" y="-406.8" font-family="Helvetica,sans-Serif" font-size="11.00" fill="#000000">user_id</text>
<polygon fill="none" stroke="#000000" points="464,-399.7 464,-421.7 548,-421.7 548,-399.7 464,-399.7"/>
<text text-anchor="start" x="467" y="-407.4" font-family="Helvetica,sans-Serif" font-size="11.00" fill="#000000">int4[10]</text>
<polygon fill="none" stroke="#000000" points="352,-377.7 352,-399.7 464,-399.7 464,-377.7 352,-377.7"/>
<image xlink:href="../../images/primaryKeys.png" width="11px" height="12px" preserveAspectRatio="xMinYMin meet" x="357" y="-394.7"/>
<text text-anchor="start" x="372" y="-384.8" font-family="Helvetica,sans-Serif" font-size="11.00" fill="#000000">chapter_id</text>
<polygon fill="none" stroke="#000000" points="464,-377.7 464,-399.7 548,-399.7 548,-377.7 464,-377.7"/>
<text text-anchor="start" x="467" y="-385.4" font-family="Helvetica,sans-Serif" font-size="11.00" fill="#000000">int4[10]</text>
<polygon fill="none" stroke="#000000" points="352,-355.7 352,-377.7 464,-377.7 464,-355.7 352,-355.7"/>
<image xlink:href="../../images/foreignKeys.png" width="11px" height="12px" preserveAspectRatio="xMinYMin meet" x="357" y="-372.7"/>
<text text-anchor="start" x="372" y="-362.8" font-family="Helvetica,sans-Serif" font-size="11.00" fill="#000000">chapter_role_id</text>
<polygon fill="none" stroke="#000000" points="464,-355.7 464,-377.7 548,-377.7 548,-355.7 464,-355.7"/>
<text text-anchor="start" x="467" y="-363.4" font-family="Helvetica,sans-Serif" font-size="11.00" fill="#000000">int4[10]</text>
<polygon fill="none" stroke="#000000" points="352,-333.7 352,-355.7 464,-355.7 464,-333.7 352,-333.7"/>
<text text-anchor="start" x="372" y="-340.8" font-family="Helvetica,sans-Serif" font-size="11.00" fill="#000000">subscribed</text>
<polygon fill="none" stroke="#000000" points="464,-333.7 464,-355.7 548,-355.7 548,-333.7 464,-333.7"/>
<text text-anchor="start" x="467" y="-341.4" font-family="Helvetica,sans-Serif" font-size="11.00" fill="#000000">bool[1]</text>
<polygon fill="#ffffff" stroke="transparent" points="352,-314.7 352,-333.7 399,-333.7 399,-314.7 352,-314.7"/>
<polygon fill="none" stroke="#000000" points="352,-314.7 352,-333.7 399,-333.7 399,-314.7 352,-314.7"/>
<text text-anchor="start" x="355" y="-320.8" font-family="Helvetica,sans-Serif" font-size="11.00" fill="#000000">&lt; 3</text>
<polygon fill="#ffffff" stroke="transparent" points="399,-314.7 399,-333.7 464,-333.7 464,-314.7 399,-314.7"/>
<polygon fill="none" stroke="#000000" points="399,-314.7 399,-333.7 464,-333.7 464,-314.7 399,-314.7"/>
<text text-anchor="start" x="428.6105" y="-320.8" font-family="Helvetica,sans-Serif" font-size="11.00" fill="#000000">0 rows</text>
<polygon fill="#ffffff" stroke="transparent" points="464,-314.7 464,-333.7 548,-333.7 548,-314.7 464,-314.7"/>
<polygon fill="none" stroke="#000000" points="464,-314.7 464,-333.7 548,-333.7 548,-314.7 464,-314.7"/>
<text text-anchor="start" x="529.4053" y="-320.8" font-family="Helvetica,sans-Serif" font-size="11.00" fill="#000000">0 &gt;</text>
<polygon fill="none" stroke="#000000" stroke-width="2" points="351,-313.7 351,-511.7 549,-511.7 549,-313.7 351,-313.7"/>
</a>
</g>
</g>
<!-- chapter_users&#45;&gt;chapter_roles -->
<g id="edge4" class="edge">
<title>chapter_users:w&#45;&gt;chapter_roles:e</title>
<path fill="none" stroke="#000000" d="M337.3361,-368.6538C265.2051,-390.7428 398.339,-592.7 301,-592.7"/>
<polygon fill="#000000" stroke="#000000" points="344.0701,-367.7566 352.4755,-370.2685 348.035,-367.2283 352,-366.7 352,-366.7 352,-366.7 348.035,-367.2283 351.5245,-363.1315 344.0701,-367.7566 344.0701,-367.7566"/>
<ellipse fill="none" stroke="#000000" cx="340.8981" cy="-368.1793" rx="3.2" ry="3.2"/>
</g>
<!-- chapter_users&#45;&gt;chapters -->
<g id="edge3" class="edge">
<title>chapter_users:w&#45;&gt;chapters:e</title>
<path fill="none" stroke="#000000" d="M337.4889,-388.7C319.5526,-388.7 310.3594,-388.7 287,-388.7"/>
<polygon fill="#000000" stroke="#000000" points="344,-388.7001 352,-392.3 348,-388.7 352,-388.7 352,-388.7 352,-388.7 348,-388.7 352,-385.1 344,-388.7001 344,-388.7001"/>
<ellipse fill="none" stroke="#000000" cx="340.8" cy="-388.7001" rx="3.2" ry="3.2"/>
</g>
<!-- users -->
<g id="node6" class="node">
<title>users</title>
<g id="a_node6"><a xlink:href="../../tables/users.html" xlink:title="users" target="_top">
<polygon fill="#ffffff" stroke="transparent" points="183,-57.2 183,-184.2 299,-184.2 299,-57.2 183,-57.2"/>
<polygon fill="#f5f5f5" stroke="transparent" points="183,-160.7 183,-183.7 299,-183.7 299,-160.7 183,-160.7"/>
<polygon fill="none" stroke="#000000" points="183,-160.7 183,-183.7 299,-183.7 299,-160.7 183,-160.7"/>
<text text-anchor="start" x="188" y="-169.3" font-family="Helvetica,sans-Serif" font-weight="bold" font-size="11.00" fill="#000000">users</text>
<text text-anchor="start" x="264.0437" y="-168.8" font-family="Helvetica,sans-Serif" font-size="11.00" fill="#000000">[table]</text>
<polygon fill="none" stroke="#000000" points="183,-138.7 183,-160.7 299,-160.7 299,-138.7 183,-138.7"/>
<image xlink:href="../../images/primaryKeys.png" width="11px" height="12px" preserveAspectRatio="xMinYMin meet" x="188" y="-155.7"/>
<text text-anchor="start" x="203" y="-145.8" font-family="Helvetica,sans-Serif" font-size="11.00" fill="#000000">id</text>
<polygon fill="#ffffff" stroke="transparent" points="183,-116.7 183,-138.7 299,-138.7 299,-116.7 183,-116.7"/>
<polygon fill="none" stroke="#000000" points="183,-116.7 183,-138.7 299,-138.7 299,-116.7 183,-116.7"/>
<text text-anchor="start" x="203" y="-123.8" font-family="Helvetica,sans-Serif" font-size="11.00" fill="#000000">email</text>
<polygon fill="none" stroke="#000000" points="183,-94.7 183,-116.7 299,-116.7 299,-94.7 183,-94.7"/>
<image xlink:href="../../images/foreignKeys.png" width="11px" height="12px" preserveAspectRatio="xMinYMin meet" x="188" y="-111.7"/>
<text text-anchor="start" x="203" y="-101.8" font-family="Helvetica,sans-Serif" font-size="11.00" fill="#000000">instance_role_id</text>
<polygon fill="none" stroke="#000000" points="183,-75.7 183,-94.7 299,-94.7 299,-75.7 183,-75.7"/>
<text text-anchor="start" x="186" y="-81.8" font-family="Helvetica,sans-Serif" font-size="11.00" fill="#000000">...</text>
<polygon fill="#ffffff" stroke="transparent" points="183,-56.7 183,-75.7 222,-75.7 222,-56.7 183,-56.7"/>
<polygon fill="none" stroke="#000000" points="183,-56.7 183,-75.7 222,-75.7 222,-56.7 183,-56.7"/>
<text text-anchor="start" x="186" y="-62.8" font-family="Helvetica,sans-Serif" font-size="11.00" fill="#000000">&lt; 1</text>
<polygon fill="#ffffff" stroke="transparent" points="222,-56.7 222,-75.7 269,-75.7 269,-56.7 222,-56.7"/>
<polygon fill="none" stroke="#000000" points="222,-56.7 222,-75.7 269,-75.7 269,-56.7 222,-56.7"/>
<text text-anchor="start" x="233.6105" y="-62.8" font-family="Helvetica,sans-Serif" font-size="11.00" fill="#000000">0 rows</text>
<polygon fill="#ffffff" stroke="transparent" points="269,-56.7 269,-75.7 299,-75.7 299,-56.7 269,-56.7"/>
<polygon fill="none" stroke="#000000" points="269,-56.7 269,-75.7 299,-75.7 299,-56.7 269,-56.7"/>
<text text-anchor="start" x="280.4053" y="-62.8" font-family="Helvetica,sans-Serif" font-size="11.00" fill="#000000">4 &gt;</text>
</a>
</g>
</g>
<!-- chapter_users&#45;&gt;users -->
<g id="edge5" class="edge">
<title>chapter_users:w&#45;&gt;users:e</title>
<path fill="none" stroke="#000000" d="M337.5522,-409.101C249.8624,-387.2909 411.9346,-149.7 299,-149.7"/>
<polygon fill="#000000" stroke="#000000" points="344.0486,-409.8199 351.604,-414.2782 348.0243,-410.26 352,-410.7 352,-410.7 352,-410.7 348.0243,-410.26 352.396,-407.1218 344.0486,-409.8199 344.0486,-409.8199"/>
<ellipse fill="none" stroke="#000000" cx="340.868" cy="-409.4679" rx="3.2" ry="3.2"/>
</g>
<!-- instance_roles -->
<g id="node12" class="node">
<title>instance_roles</title>
<g id="a_node12"><a xlink:href="../../tables/instance_roles.html" xlink:title="instance_roles" target="_top">
<polygon fill="#ffffff" stroke="transparent" points="8,-78.2 8,-139.2 132,-139.2 132,-78.2 8,-78.2"/>
<polygon fill="#f5f5f5" stroke="transparent" points="8,-115.7 8,-138.7 132,-138.7 132,-115.7 8,-115.7"/>
<polygon fill="none" stroke="#000000" points="8,-115.7 8,-138.7 132,-138.7 132,-115.7 8,-115.7"/>
<text text-anchor="start" x="13" y="-124.3" font-family="Helvetica,sans-Serif" font-weight="bold" font-size="11.00" fill="#000000">instance_roles</text>
<text text-anchor="start" x="97.5219" y="-123.8" font-family="Helvetica,sans-Serif" font-size="11.00" fill="#000000">[table]</text>
<polygon fill="none" stroke="#000000" points="8,-96.7 8,-115.7 132,-115.7 132,-96.7 8,-96.7"/>
<text text-anchor="start" x="11" y="-102.8" font-family="Helvetica,sans-Serif" font-size="11.00" fill="#000000">...</text>
<polygon fill="#ffffff" stroke="transparent" points="8,-77.7 8,-96.7 46,-96.7 46,-77.7 8,-77.7"/>
<polygon fill="none" stroke="#000000" points="8,-77.7 8,-96.7 46,-96.7 46,-77.7 8,-77.7"/>
<text text-anchor="start" x="11" y="-83.8" font-family="Helvetica,sans-Serif" font-size="11.00" fill="#000000"> &#160;</text>
<polygon fill="#ffffff" stroke="transparent" points="46,-77.7 46,-96.7 97,-96.7 97,-77.7 46,-77.7"/>
<polygon fill="none" stroke="#000000" points="46,-77.7 46,-96.7 97,-96.7 97,-77.7 46,-77.7"/>
<text text-anchor="start" x="61.6105" y="-83.8" font-family="Helvetica,sans-Serif" font-size="11.00" fill="#000000">0 rows</text>
<polygon fill="#ffffff" stroke="transparent" points="97,-77.7 97,-96.7 132,-96.7 132,-77.7 97,-77.7"/>
<polygon fill="none" stroke="#000000" points="97,-77.7 97,-96.7 132,-96.7 132,-77.7 97,-77.7"/>
<text text-anchor="start" x="113.4053" y="-83.8" font-family="Helvetica,sans-Serif" font-size="11.00" fill="#000000">2 &gt;</text>
</a>
</g>
</g>
<!-- users&#45;&gt;instance_roles -->
<g id="edge13" class="edge">
<title>users:w&#45;&gt;instance_roles:e</title>
<path fill="none" stroke="#000000" d="M168.276,-105.7C156.2815,-105.7 148.8229,-105.7 132,-105.7"/>
<polygon fill="#000000" stroke="#000000" points="175,-105.7001 183,-109.3 179,-105.7 183,-105.7 183,-105.7 183,-105.7 179,-105.7 183,-102.1 175,-105.7001 175,-105.7001"/>
<ellipse fill="none" stroke="#000000" cx="171.8" cy="-105.7001" rx="3.2" ry="3.2"/>
</g>
<!-- event_users -->
<g id="node7" class="node">
<title>event_users</title>
<g id="a_node7"><a xlink:href="../../tables/event_users.html" xlink:title="event_users" target="_top">
<polygon fill="#ffffff" stroke="transparent" points="728,-163.2 728,-224.2 838,-224.2 838,-163.2 728,-163.2"/>
<polygon fill="#f5f5f5" stroke="transparent" points="728,-200.7 728,-223.7 838,-223.7 838,-200.7 728,-200.7"/>
<polygon fill="none" stroke="#000000" points="728,-200.7 728,-223.7 838,-223.7 838,-200.7 728,-200.7"/>
<text text-anchor="start" x="733" y="-209.3" font-family="Helvetica,sans-Serif" font-weight="bold" font-size="11.00" fill="#000000">event_users</text>
<text text-anchor="start" x="803.5219" y="-208.8" font-family="Helvetica,sans-Serif" font-size="11.00" fill="#000000">[table]</text>
<polygon fill="none" stroke="#000000" points="728,-181.7 728,-200.7 838,-200.7 838,-181.7 728,-181.7"/>
<text text-anchor="start" x="731" y="-187.8" font-family="Helvetica,sans-Serif" font-size="11.00" fill="#000000">...</text>
<polygon fill="#ffffff" stroke="transparent" points="728,-162.7 728,-181.7 764,-181.7 764,-162.7 728,-162.7"/>
<polygon fill="none" stroke="#000000" points="728,-162.7 728,-181.7 764,-181.7 764,-162.7 728,-162.7"/>
<text text-anchor="start" x="731" y="-168.8" font-family="Helvetica,sans-Serif" font-size="11.00" fill="#000000">&lt; 4</text>
<polygon fill="#ffffff" stroke="transparent" points="764,-162.7 764,-181.7 809,-181.7 809,-162.7 764,-162.7"/>
<polygon fill="none" stroke="#000000" points="764,-162.7 764,-181.7 809,-181.7 809,-162.7 764,-162.7"/>
<text text-anchor="start" x="773.6105" y="-168.8" font-family="Helvetica,sans-Serif" font-size="11.00" fill="#000000">0 rows</text>
<polygon fill="#ffffff" stroke="transparent" points="809,-162.7 809,-181.7 838,-181.7 838,-162.7 809,-162.7"/>
<polygon fill="none" stroke="#000000" points="809,-162.7 809,-181.7 838,-181.7 838,-162.7 809,-162.7"/>
<text text-anchor="start" x="819.4053" y="-168.8" font-family="Helvetica,sans-Serif" font-size="11.00" fill="#000000">2 &gt;</text>
</a>
</g>
</g>
<!-- event_users&#45;&gt;users -->
<g id="edge7" class="edge">
<title>event_users:w&#45;&gt;users:e</title>
<path fill="none" stroke="#000000" d="M713.4908,-190.2068C646.9586,-185.5249 631.1976,-148.8457 558,-137.7 463.0939,-123.2488 437.1126,-124.6773 342,-137.7 322.3421,-140.3915 318.8413,-149.7 299,-149.7"/>
<polygon fill="#000000" stroke="#000000" points="720.0046,-190.4281 727.8777,-194.2979 724.0023,-190.5641 728,-190.7 728,-190.7 728,-190.7 724.0023,-190.5641 728.1223,-187.1021 720.0046,-190.4281 720.0046,-190.4281"/>
<ellipse fill="none" stroke="#000000" cx="716.8065" cy="-190.3194" rx="3.2" ry="3.2"/>
</g>
<!-- events -->
<g id="node8" class="node">
<title>events</title>
<g id="a_node8"><a xlink:href="../../tables/events.html" xlink:title="events" target="_top">
<polygon fill="#ffffff" stroke="transparent" points="599,-230.2 599,-291.2 679,-291.2 679,-230.2 599,-230.2"/>
<polygon fill="#f5f5f5" stroke="transparent" points="599,-267.7 599,-290.7 679,-290.7 679,-267.7 599,-267.7"/>
<polygon fill="none" stroke="#000000" points="599,-267.7 599,-290.7 679,-290.7 679,-267.7 599,-267.7"/>
<text text-anchor="start" x="604" y="-276.3" font-family="Helvetica,sans-Serif" font-weight="bold" font-size="11.00" fill="#000000">events</text>
<text text-anchor="start" x="644.5219" y="-275.8" font-family="Helvetica,sans-Serif" font-size="11.00" fill="#000000">[table]</text>
<polygon fill="none" stroke="#000000" points="599,-248.7 599,-267.7 679,-267.7 679,-248.7 599,-248.7"/>
<text text-anchor="start" x="602" y="-254.8" font-family="Helvetica,sans-Serif" font-size="11.00" fill="#000000">...</text>
<polygon fill="#ffffff" stroke="transparent" points="599,-229.7 599,-248.7 620,-248.7 620,-229.7 599,-229.7"/>
<polygon fill="none" stroke="#000000" points="599,-229.7 599,-248.7 620,-248.7 620,-229.7 599,-229.7"/>
<text text-anchor="start" x="601.7026" y="-235.8" font-family="Helvetica,sans-Serif" font-size="11.00" fill="#000000">&lt; 2</text>
<polygon fill="#ffffff" stroke="transparent" points="620,-229.7 620,-248.7 658,-248.7 658,-229.7 620,-229.7"/>
<polygon fill="none" stroke="#000000" points="620,-229.7 620,-248.7 658,-248.7 658,-229.7 620,-229.7"/>
<text text-anchor="start" x="622.8053" y="-235.8" font-family="Helvetica,sans-Serif" font-size="11.00" fill="#000000">0 rows</text>
<polygon fill="#ffffff" stroke="transparent" points="658,-229.7 658,-248.7 679,-248.7 679,-229.7 658,-229.7"/>
<polygon fill="none" stroke="#000000" points="658,-229.7 658,-248.7 679,-248.7 679,-229.7 658,-229.7"/>
<text text-anchor="start" x="660.7026" y="-235.8" font-family="Helvetica,sans-Serif" font-size="11.00" fill="#000000">3 &gt;</text>
</a>
</g>
</g>
<!-- event_users&#45;&gt;events -->
<g id="edge6" class="edge">
<title>event_users:w&#45;&gt;events:e</title>
<path fill="none" stroke="#000000" d="M714.2779,-195.5185C697.5803,-210.881 709.839,-257.7 679,-257.7"/>
<polygon fill="#000000" stroke="#000000" points="720.4518,-193.3506 729.1928,-194.0967 724.2259,-192.0253 728,-190.7 728,-190.7 728,-190.7 724.2259,-192.0253 726.8072,-187.3033 720.4518,-193.3506 720.4518,-193.3506"/>
<ellipse fill="none" stroke="#000000" cx="717.4326" cy="-194.4108" rx="3.2" ry="3.2"/>
</g>
<!-- events&#45;&gt;chapters -->
<g id="edge8" class="edge">
<title>events:w&#45;&gt;chapters:e</title>
<path fill="none" stroke="#000000" d="M585.2562,-263.3449C550.2665,-298.6208 599.1425,-488.4132 558,-523.7 521.5652,-554.9491 381.8327,-550.4835 342,-523.7 288.2355,-487.5488 351.7884,-388.7 287,-388.7"/>
<polygon fill="#000000" stroke="#000000" points="591.5999,-260.7394 600.3677,-261.0301 595.2999,-259.2197 599,-257.7 599,-257.7 599,-257.7 595.2999,-259.2197 597.6323,-254.3699 591.5999,-260.7394 591.5999,-260.7394"/>
<ellipse fill="none" stroke="#000000" cx="588.6398" cy="-261.9552" rx="3.2" ry="3.2"/>
</g>
<!-- venues -->
<g id="node9" class="node">
<title>venues</title>
<g id="a_node9"><a xlink:href="../../tables/venues.html" xlink:title="venues" target="_top">
<polygon fill="#ffffff" stroke="transparent" points="409.5,-230.2 409.5,-291.2 490.5,-291.2 490.5,-230.2 409.5,-230.2"/>
<polygon fill="#f5f5f5" stroke="transparent" points="410,-267.7 410,-290.7 491,-290.7 491,-267.7 410,-267.7"/>
<polygon fill="none" stroke="#000000" points="410,-267.7 410,-290.7 491,-290.7 491,-267.7 410,-267.7"/>
<text text-anchor="start" x="415" y="-276.3" font-family="Helvetica,sans-Serif" font-weight="bold" font-size="11.00" fill="#000000">venues</text>
<text text-anchor="start" x="456.5219" y="-275.8" font-family="Helvetica,sans-Serif" font-size="11.00" fill="#000000">[table]</text>
<polygon fill="none" stroke="#000000" points="410,-248.7 410,-267.7 491,-267.7 491,-248.7 410,-248.7"/>
<text text-anchor="start" x="413" y="-254.8" font-family="Helvetica,sans-Serif" font-size="11.00" fill="#000000">...</text>
<polygon fill="#ffffff" stroke="transparent" points="410,-229.7 410,-248.7 431,-248.7 431,-229.7 410,-229.7"/>
<polygon fill="none" stroke="#000000" points="410,-229.7 410,-248.7 431,-248.7 431,-229.7 410,-229.7"/>
<text text-anchor="start" x="412.7027" y="-235.8" font-family="Helvetica,sans-Serif" font-size="11.00" fill="#000000">&lt; 1</text>
<polygon fill="#ffffff" stroke="transparent" points="431,-229.7 431,-248.7 469,-248.7 469,-229.7 431,-229.7"/>
<polygon fill="none" stroke="#000000" points="431,-229.7 431,-248.7 469,-248.7 469,-229.7 431,-229.7"/>
<text text-anchor="start" x="433.8053" y="-235.8" font-family="Helvetica,sans-Serif" font-size="11.00" fill="#000000">0 rows</text>
<polygon fill="#ffffff" stroke="transparent" points="469,-229.7 469,-248.7 491,-248.7 491,-229.7 469,-229.7"/>
<polygon fill="none" stroke="#000000" points="469,-229.7 469,-248.7 491,-248.7 491,-229.7 469,-229.7"/>
<text text-anchor="start" x="472.4053" y="-235.8" font-family="Helvetica,sans-Serif" font-size="11.00" fill="#000000">2 &gt;</text>
</a>
</g>
</g>
<!-- events&#45;&gt;venues -->
<g id="edge9" class="edge">
<title>events:w&#45;&gt;venues:e</title>
<path fill="none" stroke="#000000" d="M584.4478,-257.7C547.9443,-257.7 533.75,-257.7 491,-257.7"/>
<polygon fill="#000000" stroke="#000000" points="591,-257.7001 599,-261.3 595,-257.7 599,-257.7 599,-257.7 599,-257.7 595,-257.7 599,-254.1 591,-257.7001 591,-257.7001"/>
<ellipse fill="none" stroke="#000000" cx="587.8" cy="-257.7001" rx="3.2" ry="3.2"/>
</g>
<!-- venues&#45;&gt;chapters -->
<g id="edge14" class="edge">
<title>venues:w&#45;&gt;chapters:e</title>
<path fill="none" stroke="#000000" d="M395.3459,-258.9908C371.3863,-263.6966 363.5517,-280.809 342,-302.7 310.1698,-335.0312 332.3704,-388.7 287,-388.7"/>
<polygon fill="#000000" stroke="#000000" points="402.0309,-258.402 410.3159,-261.2861 406.0154,-258.051 410,-257.7 410,-257.7 410,-257.7 406.0154,-258.051 409.6841,-254.1139 402.0309,-258.402 402.0309,-258.402"/>
<ellipse fill="none" stroke="#000000" cx="398.8432" cy="-258.6828" rx="3.2" ry="3.2"/>
</g>
<!-- sessions -->
<g id="node10" class="node">
<title>sessions</title>
<g id="a_node10"><a xlink:href="../../tables/sessions.html" xlink:title="sessions" target="_top">
<polygon fill="#ffffff" stroke="transparent" points="406,-38.2 406,-99.2 494,-99.2 494,-38.2 406,-38.2"/>
<polygon fill="#f5f5f5" stroke="transparent" points="406,-75.7 406,-98.7 494,-98.7 494,-75.7 406,-75.7"/>
<polygon fill="none" stroke="#000000" points="406,-75.7 406,-98.7 494,-98.7 494,-75.7 406,-75.7"/>
<text text-anchor="start" x="411" y="-84.3" font-family="Helvetica,sans-Serif" font-weight="bold" font-size="11.00" fill="#000000">sessions</text>
<text text-anchor="start" x="459.5219" y="-83.8" font-family="Helvetica,sans-Serif" font-size="11.00" fill="#000000">[table]</text>
<polygon fill="none" stroke="#000000" points="406,-56.7 406,-75.7 494,-75.7 494,-56.7 406,-56.7"/>
<text text-anchor="start" x="409" y="-62.8" font-family="Helvetica,sans-Serif" font-size="11.00" fill="#000000">...</text>
<polygon fill="#ffffff" stroke="transparent" points="406,-37.7 406,-56.7 435,-56.7 435,-37.7 406,-37.7"/>
<polygon fill="none" stroke="#000000" points="406,-37.7 406,-56.7 435,-56.7 435,-37.7 406,-37.7"/>
<text text-anchor="start" x="409" y="-43.8" font-family="Helvetica,sans-Serif" font-size="11.00" fill="#000000">&lt; 1</text>
<polygon fill="#ffffff" stroke="transparent" points="435,-37.7 435,-56.7 477,-56.7 477,-37.7 435,-37.7"/>
<polygon fill="none" stroke="#000000" points="435,-37.7 435,-56.7 477,-56.7 477,-37.7 435,-37.7"/>
<text text-anchor="start" x="441.6105" y="-43.8" font-family="Helvetica,sans-Serif" font-size="11.00" fill="#000000">0 rows</text>
<polygon fill="#ffffff" stroke="transparent" points="477,-37.7 477,-56.7 494,-56.7 494,-37.7 477,-37.7"/>
<polygon fill="none" stroke="#000000" points="477,-37.7 477,-56.7 494,-56.7 494,-37.7 477,-37.7"/>
<text text-anchor="start" x="484.8862" y="-43.8" font-family="Helvetica,sans-Serif" font-size="11.00" fill="#000000"> &#160;</text>
</a>
</g>
</g>
<!-- sessions&#45;&gt;users -->
<g id="edge10" class="edge">
<title>sessions:w&#45;&gt;users:e</title>
<path fill="none" stroke="#000000" d="M395.5071,-66.5911C369.991,-71.3227 366.8159,-94.029 342,-113.7 322.4676,-129.1829 323.9246,-149.7 299,-149.7"/>
<polygon fill="#000000" stroke="#000000" points="404.8644,-61.782 405.5414,-69.7534 403.9471,-69.8888 403.2701,-61.9174 404.8644,-61.782"/>
<polyline fill="none" stroke="#000000" points="406,-65.7 402.0143,-66.0385 "/>
<ellipse fill="none" stroke="#000000" cx="398.8258" cy="-66.3093" rx="3.2" ry="3.2"/>
</g>
<!-- user_bans -->
<g id="node11" class="node">
<title>user_bans</title>
<g id="a_node11"><a xlink:href="../../tables/user_bans.html" xlink:title="user_bans" target="_top">
<polygon fill="#ffffff" stroke="transparent" points="400.5,-148.2 400.5,-209.2 499.5,-209.2 499.5,-148.2 400.5,-148.2"/>
<polygon fill="#f5f5f5" stroke="transparent" points="401,-185.7 401,-208.7 500,-208.7 500,-185.7 401,-185.7"/>
<polygon fill="none" stroke="#000000" points="401,-185.7 401,-208.7 500,-208.7 500,-185.7 401,-185.7"/>
<text text-anchor="start" x="406" y="-194.3" font-family="Helvetica,sans-Serif" font-weight="bold" font-size="11.00" fill="#000000">user_bans</text>
<text text-anchor="start" x="465.5219" y="-193.8" font-family="Helvetica,sans-Serif" font-size="11.00" fill="#000000">[table]</text>
<polygon fill="none" stroke="#000000" points="401,-166.7 401,-185.7 500,-185.7 500,-166.7 401,-166.7"/>
<text text-anchor="start" x="404" y="-172.8" font-family="Helvetica,sans-Serif" font-size="11.00" fill="#000000">...</text>
<polygon fill="#ffffff" stroke="transparent" points="401,-147.7 401,-166.7 436,-166.7 436,-147.7 401,-147.7"/>
<polygon fill="none" stroke="#000000" points="401,-147.7 401,-166.7 436,-166.7 436,-147.7 401,-147.7"/>
<text text-anchor="start" x="404" y="-153.8" font-family="Helvetica,sans-Serif" font-size="11.00" fill="#000000">&lt; 2</text>
<polygon fill="#ffffff" stroke="transparent" points="436,-147.7 436,-166.7 481,-166.7 481,-147.7 436,-147.7"/>
<polygon fill="none" stroke="#000000" points="436,-147.7 436,-166.7 481,-166.7 481,-147.7 436,-147.7"/>
<text text-anchor="start" x="445.6105" y="-153.8" font-family="Helvetica,sans-Serif" font-size="11.00" fill="#000000">0 rows</text>
<polygon fill="#ffffff" stroke="transparent" points="481,-147.7 481,-166.7 500,-166.7 500,-147.7 481,-147.7"/>
<polygon fill="none" stroke="#000000" points="481,-147.7 481,-166.7 500,-166.7 500,-147.7 481,-147.7"/>
<text text-anchor="start" x="490.8862" y="-153.8" font-family="Helvetica,sans-Serif" font-size="11.00" fill="#000000"> &#160;</text>
</a>
</g>
</g>
<!-- user_bans&#45;&gt;chapters -->
<g id="edge11" class="edge">
<title>user_bans:w&#45;&gt;chapters:e</title>
<path fill="none" stroke="#000000" d="M386.4972,-177.1354C365.5288,-181.8108 357.8653,-197.5857 342,-219.7 295.9556,-283.8804 365.9887,-388.7 287,-388.7"/>
<polygon fill="#000000" stroke="#000000" points="393.0389,-176.488 401.3546,-179.2825 397.0194,-176.094 401,-175.7 401,-175.7 401,-175.7 397.0194,-176.094 400.6454,-172.1175 393.0389,-176.488 393.0389,-176.488"/>
<ellipse fill="none" stroke="#000000" cx="389.8545" cy="-176.8032" rx="3.2" ry="3.2"/>
</g>
<!-- user_bans&#45;&gt;users -->
<g id="edge12" class="edge">
<title>user_bans:w&#45;&gt;users:e</title>
<path fill="none" stroke="#000000" d="M386.466,-174.7746C351.8141,-170.143 340.4833,-149.7 299,-149.7"/>
<polygon fill="#000000" stroke="#000000" points="393.0162,-175.1916 400.7712,-179.2927 397.0081,-175.4458 401,-175.7 401,-175.7 401,-175.7 397.0081,-175.4458 401.2288,-172.1073 393.0162,-175.1916 393.0162,-175.1916"/>
<ellipse fill="none" stroke="#000000" cx="389.8226" cy="-174.9883" rx="3.2" ry="3.2"/>
</g>
</g>
</svg>
