<?xml version="1.0" encoding="UTF-8" standalone="no"?>
<!DOCTYPE svg PUBLIC "-//W3C//DTD SVG 1.1//EN"
 "http://www.w3.org/Graphics/SVG/1.1/DTD/svg11.dtd">
<!-- Generated by graphviz version 2.40.1 (20161225.0304)
 -->
<!-- Title: oneDegreeRelationshipsDiagram Pages: 1 -->
<svg width="367pt" height="507pt"
 viewBox="0.00 0.00 367.00 506.70" xmlns="http://www.w3.org/2000/svg" xmlns:xlink="http://www.w3.org/1999/xlink">
<g id="graph0" class="graph" transform="scale(1 1) rotate(0) translate(4 502.7)">
<title>oneDegreeRelationshipsDiagram</title>
<polygon fill="#ffffff" stroke="transparent" points="-4,4 -4,-502.7 363,-502.7 363,4 -4,4"/>
<text text-anchor="middle" x="72.4936" y="-7.3" font-family="Helvetica,sans-Serif" font-size="11.00" fill="#000000">Generated by SchemaSpy</text>
<!-- chapter_users -->
<g id="node1" class="node">
<title>chapter_users</title>
<g id="a_node1"><a xlink:href="../../tables/chapter_users.html" xlink:title="chapter_users" target="_top">
<polygon fill="#ffffff" stroke="transparent" points="239,-367.7 239,-494.7 351,-494.7 351,-367.7 239,-367.7"/>
<polygon fill="#f5f5f5" stroke="transparent" points="239,-471.2 239,-494.2 351,-494.2 351,-471.2 239,-471.2"/>
<polygon fill="none" stroke="#000000" points="239,-471.2 239,-494.2 351,-494.2 351,-471.2 239,-471.2"/>
<text text-anchor="start" x="243.6575" y="-480.3" font-family="Helvetica,sans-Serif" font-weight="bold" font-size="11.00" fill="#000000">chapter_users</text>
<text text-anchor="start" x="316.5219" y="-479.3" font-family="Helvetica,sans-Serif" font-size="11.00" fill="#000000">[table]</text>
<polygon fill="none" stroke="#000000" points="239,-449.2 239,-471.2 351,-471.2 351,-449.2 239,-449.2"/>
<image xlink:href="../../images/primaryKeys.png" width="11px" height="12px" preserveAspectRatio="xMinYMin meet" x="244" y="-466.2"/>
<text text-anchor="start" x="259" y="-456.3" font-family="Helvetica,sans-Serif" font-size="11.00" fill="#000000">user_id</text>
<polygon fill="none" stroke="#000000" points="239,-427.2 239,-449.2 351,-449.2 351,-427.2 239,-427.2"/>
<image xlink:href="../../images/primaryKeys.png" width="11px" height="12px" preserveAspectRatio="xMinYMin meet" x="244" y="-444.2"/>
<text text-anchor="start" x="259" y="-434.3" font-family="Helvetica,sans-Serif" font-size="11.00" fill="#000000">chapter_id</text>
<polygon fill="none" stroke="#000000" points="239,-405.2 239,-427.2 351,-427.2 351,-405.2 239,-405.2"/>
<image xlink:href="../../images/foreignKeys.png" width="11px" height="12px" preserveAspectRatio="xMinYMin meet" x="244" y="-422.2"/>
<text text-anchor="start" x="259" y="-412.3" font-family="Helvetica,sans-Serif" font-size="11.00" fill="#000000">chapter_role_id</text>
<polygon fill="none" stroke="#000000" points="239,-386.2 239,-405.2 351,-405.2 351,-386.2 239,-386.2"/>
<text text-anchor="start" x="242" y="-392.3" font-family="Helvetica,sans-Serif" font-size="11.00" fill="#000000">...</text>
<polygon fill="#ffffff" stroke="transparent" points="239,-367.2 239,-386.2 280,-386.2 280,-367.2 239,-367.2"/>
<polygon fill="none" stroke="#000000" points="239,-367.2 239,-386.2 280,-386.2 280,-367.2 239,-367.2"/>
<text text-anchor="start" x="242" y="-373.3" font-family="Helvetica,sans-Serif" font-size="11.00" fill="#000000">&lt; 3</text>
<polygon fill="#ffffff" stroke="transparent" points="280,-367.2 280,-386.2 328,-386.2 328,-367.2 280,-367.2"/>
<polygon fill="none" stroke="#000000" points="280,-367.2 280,-386.2 328,-386.2 328,-367.2 280,-367.2"/>
<text text-anchor="start" x="292.6105" y="-373.3" font-family="Helvetica,sans-Serif" font-size="11.00" fill="#000000">0 rows</text>
<polygon fill="#ffffff" stroke="transparent" points="328,-367.2 328,-386.2 351,-386.2 351,-367.2 328,-367.2"/>
<polygon fill="none" stroke="#000000" points="328,-367.2 328,-386.2 351,-386.2 351,-367.2 328,-367.2"/>
<text text-anchor="start" x="341.8862" y="-373.3" font-family="Helvetica,sans-Serif" font-size="11.00" fill="#000000"> &#160;</text>
</a>
</g>
</g>
<!-- chapters -->
<g id="node2" class="node">
<title>chapters</title>
<g id="a_node2"><a xlink:href="../../tables/chapters.html" xlink:title="chapters" target="_top">
<polygon fill="#ffffff" stroke="transparent" points="8,-38.2 8,-348.2 190,-348.2 190,-38.2 8,-38.2"/>
<polygon fill="#f5f5f5" stroke="transparent" points="10,-323.2 10,-346.2 188,-346.2 188,-323.2 10,-323.2"/>
<polygon fill="none" stroke="#000000" points="10,-323.2 10,-346.2 188,-346.2 188,-323.2 10,-323.2"/>
<text text-anchor="start" x="15" y="-332.3" font-family="Helvetica,sans-Serif" font-weight="bold" font-size="11.00" fill="#000000">chapters</text>
<text text-anchor="start" x="153.0437" y="-331.3" font-family="Helvetica,sans-Serif" font-size="11.00" fill="#000000">[table]</text>
<polygon fill="none" stroke="#000000" points="10,-301.2 10,-323.2 98,-323.2 98,-301.2 10,-301.2"/>
<text text-anchor="start" x="30" y="-308.3" font-family="Helvetica,sans-Serif" font-size="11.00" fill="#000000">created_at</text>
<polygon fill="none" stroke="#000000" points="98,-301.2 98,-323.2 188,-323.2 188,-301.2 98,-301.2"/>
<text text-anchor="start" x="101" y="-308.9" font-family="Helvetica,sans-Serif" font-size="11.00" fill="#000000">timestamp[26,3]</text>
<polygon fill="none" stroke="#000000" points="10,-279.2 10,-301.2 98,-301.2 98,-279.2 10,-279.2"/>
<text text-anchor="start" x="30" y="-286.3" font-family="Helvetica,sans-Serif" font-size="11.00" fill="#000000">updated_at</text>
<polygon fill="none" stroke="#000000" points="98,-279.2 98,-301.2 188,-301.2 188,-279.2 98,-279.2"/>
<text text-anchor="start" x="101" y="-286.9" font-family="Helvetica,sans-Serif" font-size="11.00" fill="#000000">timestamp[26,3]</text>
<polygon fill="none" stroke="#000000" points="10,-257.2 10,-279.2 98,-279.2 98,-257.2 10,-257.2"/>
<image xlink:href="../../images/primaryKeys.png" width="11px" height="12px" preserveAspectRatio="xMinYMin meet" x="15" y="-274.2"/>
<text text-anchor="start" x="30" y="-264.3" font-family="Helvetica,sans-Serif" font-size="11.00" fill="#000000">id</text>
<polygon fill="none" stroke="#000000" points="98,-257.2 98,-279.2 188,-279.2 188,-257.2 98,-257.2"/>
<text text-anchor="start" x="101" y="-264.9" font-family="Helvetica,sans-Serif" font-size="11.00" fill="#000000">serial[10]</text>
<polygon fill="none" stroke="#000000" points="10,-235.2 10,-257.2 98,-257.2 98,-235.2 10,-235.2"/>
<text text-anchor="start" x="30" y="-242.3" font-family="Helvetica,sans-Serif" font-size="11.00" fill="#000000">name</text>
<polygon fill="none" stroke="#000000" points="98,-235.2 98,-257.2 188,-257.2 188,-235.2 98,-235.2"/>
<text text-anchor="start" x="100.5042" y="-242.9" font-family="Helvetica,sans-Serif" font-size="11.00" fill="#000000">text[2147483647]</text>
<polygon fill="none" stroke="#000000" points="10,-213.2 10,-235.2 98,-235.2 98,-213.2 10,-213.2"/>
<text text-anchor="start" x="30" y="-220.3" font-family="Helvetica,sans-Serif" font-size="11.00" fill="#000000">description</text>
<polygon fill="none" stroke="#000000" points="98,-213.2 98,-235.2 188,-235.2 188,-213.2 98,-213.2"/>
<text text-anchor="start" x="100.5042" y="-220.9" font-family="Helvetica,sans-Serif" font-size="11.00" fill="#000000">text[2147483647]</text>
<polygon fill="none" stroke="#000000" points="10,-191.2 10,-213.2 98,-213.2 98,-191.2 10,-191.2"/>
<text text-anchor="start" x="30" y="-198.3" font-family="Helvetica,sans-Serif" font-size="11.00" fill="#000000">category</text>
<polygon fill="none" stroke="#000000" points="98,-191.2 98,-213.2 188,-213.2 188,-191.2 98,-191.2"/>
<text text-anchor="start" x="100.5042" y="-198.9" font-family="Helvetica,sans-Serif" font-size="11.00" fill="#000000">text[2147483647]</text>
<polygon fill="none" stroke="#000000" points="10,-169.2 10,-191.2 98,-191.2 98,-169.2 10,-169.2"/>
<text text-anchor="start" x="30" y="-176.3" font-family="Helvetica,sans-Serif" font-size="11.00" fill="#000000">city</text>
<polygon fill="none" stroke="#000000" points="98,-169.2 98,-191.2 188,-191.2 188,-169.2 98,-169.2"/>
<text text-anchor="start" x="100.5042" y="-176.9" font-family="Helvetica,sans-Serif" font-size="11.00" fill="#000000">text[2147483647]</text>
<polygon fill="none" stroke="#000000" points="10,-147.2 10,-169.2 98,-169.2 98,-147.2 10,-147.2"/>
<text text-anchor="start" x="30" y="-154.3" font-family="Helvetica,sans-Serif" font-size="11.00" fill="#000000">region</text>
<polygon fill="none" stroke="#000000" points="98,-147.2 98,-169.2 188,-169.2 188,-147.2 98,-147.2"/>
<text text-anchor="start" x="100.5042" y="-154.9" font-family="Helvetica,sans-Serif" font-size="11.00" fill="#000000">text[2147483647]</text>
<polygon fill="none" stroke="#000000" points="10,-125.2 10,-147.2 98,-147.2 98,-125.2 10,-125.2"/>
<text text-anchor="start" x="30" y="-132.3" font-family="Helvetica,sans-Serif" font-size="11.00" fill="#000000">country</text>
<polygon fill="none" stroke="#000000" points="98,-125.2 98,-147.2 188,-147.2 188,-125.2 98,-125.2"/>
<text text-anchor="start" x="100.5042" y="-132.9" font-family="Helvetica,sans-Serif" font-size="11.00" fill="#000000">text[2147483647]</text>
<polygon fill="none" stroke="#000000" points="10,-103.2 10,-125.2 98,-125.2 98,-103.2 10,-103.2"/>
<text text-anchor="start" x="30" y="-110.3" font-family="Helvetica,sans-Serif" font-size="11.00" fill="#000000">imageUrl</text>
<polygon fill="none" stroke="#000000" points="98,-103.2 98,-125.2 188,-125.2 188,-103.2 98,-103.2"/>
<text text-anchor="start" x="100.5042" y="-110.9" font-family="Helvetica,sans-Serif" font-size="11.00" fill="#000000">text[2147483647]</text>
<polygon fill="none" stroke="#000000" points="10,-81.2 10,-103.2 98,-103.2 98,-81.2 10,-81.2"/>
<text text-anchor="start" x="30" y="-88.3" font-family="Helvetica,sans-Serif" font-size="11.00" fill="#000000">chatUrl</text>
<polygon fill="none" stroke="#000000" points="98,-81.2 98,-103.2 188,-103.2 188,-81.2 98,-81.2"/>
<text text-anchor="start" x="100.5042" y="-88.9" font-family="Helvetica,sans-Serif" font-size="11.00" fill="#000000">text[2147483647]</text>
<polygon fill="none" stroke="#000000" points="10,-59.2 10,-81.2 98,-81.2 98,-59.2 10,-59.2"/>
<text text-anchor="start" x="30" y="-66.3" font-family="Helvetica,sans-Serif" font-size="11.00" fill="#000000">creator_id</text>
<polygon fill="none" stroke="#000000" points="98,-59.2 98,-81.2 188,-81.2 188,-59.2 98,-59.2"/>
<text text-anchor="start" x="101" y="-66.9" font-family="Helvetica,sans-Serif" font-size="11.00" fill="#000000">int4[10]</text>
<polygon fill="#ffffff" stroke="transparent" points="10,-40.2 10,-59.2 45,-59.2 45,-40.2 10,-40.2"/>
<polygon fill="none" stroke="#000000" points="10,-40.2 10,-59.2 45,-59.2 45,-40.2 10,-40.2"/>
<text text-anchor="start" x="13" y="-46.3" font-family="Helvetica,sans-Serif" font-size="11.00" fill="#000000">&lt; 0</text>
<polygon fill="#ffffff" stroke="transparent" points="45,-40.2 45,-59.2 98,-59.2 98,-40.2 45,-40.2"/>
<polygon fill="none" stroke="#000000" points="45,-40.2 45,-59.2 98,-59.2 98,-40.2 45,-40.2"/>
<text text-anchor="start" x="62.6105" y="-46.3" font-family="Helvetica,sans-Serif" font-size="11.00" fill="#000000">0 rows</text>
<polygon fill="#ffffff" stroke="transparent" points="98,-40.2 98,-59.2 188,-59.2 188,-40.2 98,-40.2"/>
<polygon fill="none" stroke="#000000" points="98,-40.2 98,-59.2 188,-59.2 188,-40.2 98,-40.2"/>
<text text-anchor="start" x="169.4053" y="-46.3" font-family="Helvetica,sans-Serif" font-size="11.00" fill="#000000">3 &gt;</text>
<polygon fill="none" stroke="#000000" stroke-width="2" points="9,-39.2 9,-347.2 189,-347.2 189,-39.2 9,-39.2"/>
</a>
</g>
</g>
<!-- chapter_users&#45;&gt;chapters -->
<g id="edge1" class="edge">
<title>chapter_users:w&#45;&gt;chapters:e</title>
<path fill="none" stroke="#000000" d="M224.667,-435.6649C174.579,-414.5175 261.1818,-268.2 188,-268.2"/>
<polygon fill="#000000" stroke="#000000" points="231.1223,-436.8066 238.373,-441.745 235.0611,-437.5033 239,-438.2 239,-438.2 239,-438.2 235.0611,-437.5033 239.627,-434.655 231.1223,-436.8066 231.1223,-436.8066"/>
<ellipse fill="none" stroke="#000000" cx="227.9712" cy="-436.2493" rx="3.2" ry="3.2"/>
</g>
<!-- events -->
<g id="node3" class="node">
<title>events</title>
<g id="a_node3"><a xlink:href="../../tables/events.html" xlink:title="events" target="_top">
<polygon fill="#ffffff" stroke="transparent" points="243,-219.7 243,-346.7 347,-346.7 347,-219.7 243,-219.7"/>
<polygon fill="#f5f5f5" stroke="transparent" points="243,-323.2 243,-346.2 347,-346.2 347,-323.2 243,-323.2"/>
<polygon fill="none" stroke="#000000" points="243,-323.2 243,-346.2 347,-346.2 347,-323.2 243,-323.2"/>
<text text-anchor="start" x="248" y="-332.3" font-family="Helvetica,sans-Serif" font-weight="bold" font-size="11.00" fill="#000000">events</text>
<text text-anchor="start" x="312.0437" y="-331.3" font-family="Helvetica,sans-Serif" font-size="11.00" fill="#000000">[table]</text>
<polygon fill="none" stroke="#000000" points="243,-301.2 243,-323.2 347,-323.2 347,-301.2 243,-301.2"/>
<image xlink:href="../../images/primaryKeys.png" width="11px" height="12px" preserveAspectRatio="xMinYMin meet" x="248" y="-318.2"/>
<text text-anchor="start" x="263" y="-308.3" font-family="Helvetica,sans-Serif" font-size="11.00" fill="#000000">id</text>
<polygon fill="none" stroke="#000000" points="243,-279.2 243,-301.2 347,-301.2 347,-279.2 243,-279.2"/>
<image xlink:href="../../images/foreignKeys.png" width="11px" height="12px" preserveAspectRatio="xMinYMin meet" x="248" y="-296.2"/>
<text text-anchor="start" x="263" y="-286.3" font-family="Helvetica,sans-Serif" font-size="11.00" fill="#000000">venue_id</text>
<polygon fill="none" stroke="#000000" points="243,-257.2 243,-279.2 347,-279.2 347,-257.2 243,-257.2"/>
<image xlink:href="../../images/foreignKeys.png" width="11px" height="12px" preserveAspectRatio="xMinYMin meet" x="248" y="-274.2"/>
<text text-anchor="start" x="263" y="-264.3" font-family="Helvetica,sans-Serif" font-size="11.00" fill="#000000">chapter_id</text>
<polygon fill="none" stroke="#000000" points="243,-238.2 243,-257.2 347,-257.2 347,-238.2 243,-238.2"/>
<text text-anchor="start" x="246" y="-244.3" font-family="Helvetica,sans-Serif" font-size="11.00" fill="#000000">...</text>
<polygon fill="#ffffff" stroke="transparent" points="243,-219.2 243,-238.2 276,-238.2 276,-219.2 243,-219.2"/>
<polygon fill="none" stroke="#000000" points="243,-219.2 243,-238.2 276,-238.2 276,-219.2 243,-219.2"/>
<text text-anchor="start" x="246" y="-225.3" font-family="Helvetica,sans-Serif" font-size="11.00" fill="#000000">&lt; 2</text>
<polygon fill="#ffffff" stroke="transparent" points="276,-219.2 276,-238.2 320,-238.2 320,-219.2 276,-219.2"/>
<polygon fill="none" stroke="#000000" points="276,-219.2 276,-238.2 320,-238.2 320,-219.2 276,-219.2"/>
<text text-anchor="start" x="284.6105" y="-225.3" font-family="Helvetica,sans-Serif" font-size="11.00" fill="#000000">0 rows</text>
<polygon fill="#ffffff" stroke="transparent" points="320,-219.2 320,-238.2 347,-238.2 347,-219.2 320,-219.2"/>
<polygon fill="none" stroke="#000000" points="320,-219.2 320,-238.2 347,-238.2 347,-219.2 320,-219.2"/>
<text text-anchor="start" x="328.4053" y="-225.3" font-family="Helvetica,sans-Serif" font-size="11.00" fill="#000000">3 &gt;</text>
</a>
</g>
</g>
<!-- events&#45;&gt;chapters -->
<g id="edge2" class="edge">
<title>events:w&#45;&gt;chapters:e</title>
<path fill="none" stroke="#000000" d="M228.3617,-268.2C214.6839,-268.2 206.7153,-268.2 188,-268.2"/>
<polygon fill="#000000" stroke="#000000" points="235,-268.2001 243,-271.8 239,-268.2 243,-268.2 243,-268.2 243,-268.2 239,-268.2 243,-264.6 235,-268.2001 235,-268.2001"/>
<ellipse fill="none" stroke="#000000" cx="231.8" cy="-268.2001" rx="3.2" ry="3.2"/>
</g>
<!-- user_bans -->
<g id="node4" class="node">
<title>user_bans</title>
<g id="a_node4"><a xlink:href="../../tables/user_bans.html" xlink:title="user_bans" target="_top">
<polygon fill="#ffffff" stroke="transparent" points="248,-93.7 248,-198.7 342,-198.7 342,-93.7 248,-93.7"/>
<polygon fill="#f5f5f5" stroke="transparent" points="248,-175.2 248,-198.2 342,-198.2 342,-175.2 248,-175.2"/>
<polygon fill="none" stroke="#000000" points="248,-175.2 248,-198.2 342,-198.2 342,-175.2 248,-175.2"/>
<text text-anchor="start" x="252.8244" y="-184.3" font-family="Helvetica,sans-Serif" font-weight="bold" font-size="11.00" fill="#000000">user_bans</text>
<text text-anchor="start" x="307.5219" y="-183.3" font-family="Helvetica,sans-Serif" font-size="11.00" fill="#000000">[table]</text>
<polygon fill="none" stroke="#000000" points="248,-153.2 248,-175.2 342,-175.2 342,-153.2 248,-153.2"/>
<image xlink:href="../../images/primaryKeys.png" width="11px" height="12px" preserveAspectRatio="xMinYMin meet" x="253" y="-170.2"/>
<text text-anchor="start" x="271" y="-160.3" font-family="Helvetica,sans-Serif" font-size="11.00" fill="#000000">user_id</text>
<polygon fill="none" stroke="#000000" points="248,-131.2 248,-153.2 342,-153.2 342,-131.2 248,-131.2"/>
<image xlink:href="../../images/primaryKeys.png" width="11px" height="12px" preserveAspectRatio="xMinYMin meet" x="253" y="-148.2"/>
<text text-anchor="start" x="271" y="-138.3" font-family="Helvetica,sans-Serif" font-size="11.00" fill="#000000">chapter_id</text>
<polygon fill="none" stroke="#000000" points="248,-112.2 248,-131.2 342,-131.2 342,-112.2 248,-112.2"/>
<text text-anchor="start" x="251" y="-118.3" font-family="Helvetica,sans-Serif" font-size="11.00" fill="#000000">...</text>
<polygon fill="#ffffff" stroke="transparent" points="248,-93.2 248,-112.2 280,-112.2 280,-93.2 248,-93.2"/>
<polygon fill="none" stroke="#000000" points="248,-93.2 248,-112.2 280,-112.2 280,-93.2 248,-93.2"/>
<text text-anchor="start" x="251" y="-99.3" font-family="Helvetica,sans-Serif" font-size="11.00" fill="#000000">&lt; 2</text>
<polygon fill="#ffffff" stroke="transparent" points="280,-93.2 280,-112.2 324,-112.2 324,-93.2 280,-93.2"/>
<polygon fill="none" stroke="#000000" points="280,-93.2 280,-112.2 324,-112.2 324,-93.2 280,-93.2"/>
<text text-anchor="start" x="288.6105" y="-99.3" font-family="Helvetica,sans-Serif" font-size="11.00" fill="#000000">0 rows</text>
<polygon fill="#ffffff" stroke="transparent" points="324,-93.2 324,-112.2 342,-112.2 342,-93.2 324,-93.2"/>
<polygon fill="none" stroke="#000000" points="324,-93.2 324,-112.2 342,-112.2 342,-93.2 324,-93.2"/>
<text text-anchor="start" x="332.8862" y="-99.3" font-family="Helvetica,sans-Serif" font-size="11.00" fill="#000000"> &#160;</text>
</a>
</g>
</g>
<!-- user_bans&#45;&gt;chapters -->
<g id="edge3" class="edge">
<title>user_bans:w&#45;&gt;chapters:e</title>
<path fill="none" stroke="#000000" d="M233.6719,-145.3146C196.8762,-164.7176 244.2102,-268.2 188,-268.2"/>
<polygon fill="#000000" stroke="#000000" points="240.1826,-143.8994 248.7647,-145.7178 244.0913,-143.0497 248,-142.2 248,-142.2 248,-142.2 244.0913,-143.0497 247.2353,-138.6822 240.1826,-143.8994 240.1826,-143.8994"/>
<ellipse fill="none" stroke="#000000" cx="237.0556" cy="-144.5791" rx="3.2" ry="3.2"/>
</g>
</g>
</svg>
