<?xml version="1.0" encoding="UTF-8" standalone="no"?>
<!DOCTYPE svg PUBLIC "-//W3C//DTD SVG 1.1//EN"
 "http://www.w3.org/Graphics/SVG/1.1/DTD/svg11.dtd">
<!-- Generated by graphviz version 2.40.1 (20161225.0304)
 -->
<!-- Title: oneDegreeRelationshipsDiagram Pages: 1 -->
<svg width="389pt" height="407pt"
 viewBox="0.00 0.00 389.00 407.20" xmlns="http://www.w3.org/2000/svg" xmlns:xlink="http://www.w3.org/1999/xlink">
<g id="graph0" class="graph" transform="scale(1 1) rotate(0) translate(4 403.2)">
<title>oneDegreeRelationshipsDiagram</title>
<polygon fill="#ffffff" stroke="transparent" points="-4,4 -4,-403.2 385,-403.2 385,4 -4,4"/>
<text text-anchor="middle" x="72.4936" y="-7.3" font-family="Helvetica,sans-Serif" font-size="11.00" fill="#000000">Generated by SchemaSpy</text>
<!-- chapter_users -->
<g id="node1" class="node">
<title>chapter_users</title>
<g id="a_node1"><a xlink:href="../../tables/chapter_users.html" xlink:title="chapter_users" target="_top">
<polygon fill="#ffffff" stroke="transparent" points="173,-136.7 173,-336.7 373,-336.7 373,-136.7 173,-136.7"/>
<polygon fill="#f5f5f5" stroke="transparent" points="175,-311.7 175,-334.7 371,-334.7 371,-311.7 175,-311.7"/>
<polygon fill="none" stroke="#000000" points="175,-311.7 175,-334.7 371,-334.7 371,-311.7 175,-311.7"/>
<text text-anchor="start" x="180" y="-320.8" font-family="Helvetica,sans-Serif" font-weight="bold" font-size="11.00" fill="#000000">chapter_users</text>
<text text-anchor="start" x="336.0437" y="-319.8" font-family="Helvetica,sans-Serif" font-size="11.00" fill="#000000">[table]</text>
<polygon fill="none" stroke="#000000" points="175,-289.7 175,-311.7 287,-311.7 287,-289.7 175,-289.7"/>
<text text-anchor="start" x="195" y="-296.8" font-family="Helvetica,sans-Serif" font-size="11.00" fill="#000000">created_at</text>
<polygon fill="none" stroke="#000000" points="287,-289.7 287,-311.7 371,-311.7 371,-289.7 287,-289.7"/>
<text text-anchor="start" x="289.8807" y="-297.4" font-family="Helvetica,sans-Serif" font-size="11.00" fill="#000000">timestamp[26,3]</text>
<polygon fill="none" stroke="#000000" points="175,-267.7 175,-289.7 287,-289.7 287,-267.7 175,-267.7"/>
<text text-anchor="start" x="195" y="-274.8" font-family="Helvetica,sans-Serif" font-size="11.00" fill="#000000">updated_at</text>
<polygon fill="none" stroke="#000000" points="287,-267.7 287,-289.7 371,-289.7 371,-267.7 287,-267.7"/>
<text text-anchor="start" x="289.8807" y="-275.4" font-family="Helvetica,sans-Serif" font-size="11.00" fill="#000000">timestamp[26,3]</text>
<polygon fill="none" stroke="#000000" points="175,-245.7 175,-267.7 287,-267.7 287,-245.7 175,-245.7"/>
<text text-anchor="start" x="195" y="-252.8" font-family="Helvetica,sans-Serif" font-size="11.00" fill="#000000">joined_date</text>
<polygon fill="none" stroke="#000000" points="287,-245.7 287,-267.7 371,-267.7 371,-245.7 287,-245.7"/>
<text text-anchor="start" x="289.8807" y="-253.4" font-family="Helvetica,sans-Serif" font-size="11.00" fill="#000000">timestamp[26,3]</text>
<polygon fill="none" stroke="#000000" points="175,-223.7 175,-245.7 287,-245.7 287,-223.7 175,-223.7"/>
<image xlink:href="../../images/primaryKeys.png" width="11px" height="12px" preserveAspectRatio="xMinYMin meet" x="180" y="-240.7"/>
<text text-anchor="start" x="195" y="-230.8" font-family="Helvetica,sans-Serif" font-size="11.00" fill="#000000">user_id</text>
<polygon fill="none" stroke="#000000" points="287,-223.7 287,-245.7 371,-245.7 371,-223.7 287,-223.7"/>
<text text-anchor="start" x="290" y="-231.4" font-family="Helvetica,sans-Serif" font-size="11.00" fill="#000000">int4[10]</text>
<polygon fill="none" stroke="#000000" points="175,-201.7 175,-223.7 287,-223.7 287,-201.7 175,-201.7"/>
<image xlink:href="../../images/primaryKeys.png" width="11px" height="12px" preserveAspectRatio="xMinYMin meet" x="180" y="-218.7"/>
<text text-anchor="start" x="195" y="-208.8" font-family="Helvetica,sans-Serif" font-size="11.00" fill="#000000">chapter_id</text>
<polygon fill="none" stroke="#000000" points="287,-201.7 287,-223.7 371,-223.7 371,-201.7 287,-201.7"/>
<text text-anchor="start" x="290" y="-209.4" font-family="Helvetica,sans-Serif" font-size="11.00" fill="#000000">int4[10]</text>
<polygon fill="none" stroke="#000000" points="175,-179.7 175,-201.7 287,-201.7 287,-179.7 175,-179.7"/>
<image xlink:href="../../images/foreignKeys.png" width="11px" height="12px" preserveAspectRatio="xMinYMin meet" x="180" y="-196.7"/>
<text text-anchor="start" x="195" y="-186.8" font-family="Helvetica,sans-Serif" font-size="11.00" fill="#000000">chapter_role_id</text>
<polygon fill="none" stroke="#000000" points="287,-179.7 287,-201.7 371,-201.7 371,-179.7 287,-179.7"/>
<text text-anchor="start" x="290" y="-187.4" font-family="Helvetica,sans-Serif" font-size="11.00" fill="#000000">int4[10]</text>
<polygon fill="none" stroke="#000000" points="175,-157.7 175,-179.7 287,-179.7 287,-157.7 175,-157.7"/>
<text text-anchor="start" x="195" y="-164.8" font-family="Helvetica,sans-Serif" font-size="11.00" fill="#000000">subscribed</text>
<polygon fill="none" stroke="#000000" points="287,-157.7 287,-179.7 371,-179.7 371,-157.7 287,-157.7"/>
<text text-anchor="start" x="290" y="-165.4" font-family="Helvetica,sans-Serif" font-size="11.00" fill="#000000">bool[1]</text>
<polygon fill="#ffffff" stroke="transparent" points="175,-138.7 175,-157.7 222,-157.7 222,-138.7 175,-138.7"/>
<polygon fill="none" stroke="#000000" points="175,-138.7 175,-157.7 222,-157.7 222,-138.7 175,-138.7"/>
<text text-anchor="start" x="178" y="-144.8" font-family="Helvetica,sans-Serif" font-size="11.00" fill="#000000">&lt; 3</text>
<polygon fill="#ffffff" stroke="transparent" points="222,-138.7 222,-157.7 287,-157.7 287,-138.7 222,-138.7"/>
<polygon fill="none" stroke="#000000" points="222,-138.7 222,-157.7 287,-157.7 287,-138.7 222,-138.7"/>
<text text-anchor="start" x="251.6105" y="-144.8" font-family="Helvetica,sans-Serif" font-size="11.00" fill="#000000">0 rows</text>
<polygon fill="#ffffff" stroke="transparent" points="287,-138.7 287,-157.7 371,-157.7 371,-138.7 287,-138.7"/>
<polygon fill="none" stroke="#000000" points="287,-138.7 287,-157.7 371,-157.7 371,-138.7 287,-138.7"/>
<text text-anchor="start" x="352.4053" y="-144.8" font-family="Helvetica,sans-Serif" font-size="11.00" fill="#000000">0 &gt;</text>
<polygon fill="none" stroke="#000000" stroke-width="2" points="174,-137.7 174,-335.7 372,-335.7 372,-137.7 174,-137.7"/>
</a>
</g>
</g>
<!-- chapters -->
<g id="node2" class="node">
<title>chapters</title>
<g id="a_node2"><a xlink:href="../../tables/chapters.html" xlink:title="chapters" target="_top">
<polygon fill="#ffffff" stroke="transparent" points="21.5,-164.2 21.5,-247.2 110.5,-247.2 110.5,-164.2 21.5,-164.2"/>
<polygon fill="#f5f5f5" stroke="transparent" points="22,-223.7 22,-246.7 111,-246.7 111,-223.7 22,-223.7"/>
<polygon fill="none" stroke="#000000" points="22,-223.7 22,-246.7 111,-246.7 111,-223.7 22,-223.7"/>
<text text-anchor="start" x="27" y="-232.8" font-family="Helvetica,sans-Serif" font-weight="bold" font-size="11.00" fill="#000000">chapters</text>
<text text-anchor="start" x="76.0437" y="-231.8" font-family="Helvetica,sans-Serif" font-size="11.00" fill="#000000">[table]</text>
<polygon fill="none" stroke="#000000" points="22,-201.7 22,-223.7 111,-223.7 111,-201.7 22,-201.7"/>
<image xlink:href="../../images/primaryKeys.png" width="11px" height="12px" preserveAspectRatio="xMinYMin meet" x="27" y="-218.7"/>
<text text-anchor="start" x="42" y="-208.8" font-family="Helvetica,sans-Serif" font-size="11.00" fill="#000000">id</text>
<polygon fill="none" stroke="#000000" points="22,-182.7 22,-201.7 111,-201.7 111,-182.7 22,-182.7"/>
<text text-anchor="start" x="25" y="-188.8" font-family="Helvetica,sans-Serif" font-size="11.00" fill="#000000">...</text>
<polygon fill="#ffffff" stroke="transparent" points="22,-163.7 22,-182.7 43,-182.7 43,-163.7 22,-163.7"/>
<polygon fill="none" stroke="#000000" points="22,-163.7 22,-182.7 43,-182.7 43,-163.7 22,-163.7"/>
<text text-anchor="start" x="25" y="-169.8" font-family="Helvetica,sans-Serif" font-size="11.00" fill="#000000"> &#160;</text>
<polygon fill="#ffffff" stroke="transparent" points="43,-163.7 43,-182.7 85,-182.7 85,-163.7 43,-163.7"/>
<polygon fill="none" stroke="#000000" points="43,-163.7 43,-182.7 85,-182.7 85,-163.7 43,-163.7"/>
<text text-anchor="start" x="49.6105" y="-169.8" font-family="Helvetica,sans-Serif" font-size="11.00" fill="#000000">0 rows</text>
<polygon fill="#ffffff" stroke="transparent" points="85,-163.7 85,-182.7 111,-182.7 111,-163.7 85,-163.7"/>
<polygon fill="none" stroke="#000000" points="85,-163.7 85,-182.7 111,-182.7 111,-163.7 85,-163.7"/>
<text text-anchor="start" x="92.4053" y="-169.8" font-family="Helvetica,sans-Serif" font-size="11.00" fill="#000000">4 &gt;</text>
</a>
</g>
</g>
<!-- chapter_users&#45;&gt;chapters -->
<g id="edge1" class="edge">
<title>chapter_users:w&#45;&gt;chapters:e</title>
<path fill="none" stroke="#000000" d="M160.4568,-212.7C142.964,-212.7 133.8889,-212.7 111,-212.7"/>
<polygon fill="#000000" stroke="#000000" points="167,-212.7001 175,-216.3 171,-212.7 175,-212.7 175,-212.7 175,-212.7 171,-212.7 175,-209.1 167,-212.7001 167,-212.7001"/>
<ellipse fill="none" stroke="#000000" cx="163.8" cy="-212.7001" rx="3.2" ry="3.2"/>
</g>
<!-- chapter_roles -->
<g id="node3" class="node">
<title>chapter_roles</title>
<g id="a_node3"><a xlink:href="../../tables/chapter_roles.html" xlink:title="chapter_roles" target="_top">
<polygon fill="#ffffff" stroke="transparent" points="11.5,-38.2 11.5,-143.2 120.5,-143.2 120.5,-38.2 11.5,-38.2"/>
<polygon fill="#f5f5f5" stroke="transparent" points="12,-119.7 12,-142.7 121,-142.7 121,-119.7 12,-119.7"/>
<polygon fill="none" stroke="#000000" points="12,-119.7 12,-142.7 121,-142.7 121,-119.7 12,-119.7"/>
<text text-anchor="start" x="16.6871" y="-128.8" font-family="Helvetica,sans-Serif" font-weight="bold" font-size="11.00" fill="#000000">chapter_roles</text>
<text text-anchor="start" x="86.5219" y="-127.8" font-family="Helvetica,sans-Serif" font-size="11.00" fill="#000000">[table]</text>
<polygon fill="none" stroke="#000000" points="12,-97.7 12,-119.7 121,-119.7 121,-97.7 12,-97.7"/>
<image xlink:href="../../images/primaryKeys.png" width="11px" height="12px" preserveAspectRatio="xMinYMin meet" x="17" y="-114.7"/>
<text text-anchor="start" x="36" y="-104.8" font-family="Helvetica,sans-Serif" font-size="11.00" fill="#000000">id</text>
<polygon fill="#ffffff" stroke="transparent" points="12,-75.7 12,-97.7 121,-97.7 121,-75.7 12,-75.7"/>
<polygon fill="none" stroke="#000000" points="12,-75.7 12,-97.7 121,-97.7 121,-75.7 12,-75.7"/>
<text text-anchor="start" x="36" y="-82.8" font-family="Helvetica,sans-Serif" font-size="11.00" fill="#000000">name</text>
<polygon fill="none" stroke="#000000" points="12,-56.7 12,-75.7 121,-75.7 121,-56.7 12,-56.7"/>
<text text-anchor="start" x="15" y="-62.8" font-family="Helvetica,sans-Serif" font-size="11.00" fill="#000000">...</text>
<polygon fill="#ffffff" stroke="transparent" points="12,-37.7 12,-56.7 43,-56.7 43,-37.7 12,-37.7"/>
<polygon fill="none" stroke="#000000" points="12,-37.7 12,-56.7 43,-56.7 43,-37.7 12,-37.7"/>
<text text-anchor="start" x="15" y="-43.8" font-family="Helvetica,sans-Serif" font-size="11.00" fill="#000000"> &#160;</text>
<polygon fill="#ffffff" stroke="transparent" points="43,-37.7 43,-56.7 90,-56.7 90,-37.7 43,-37.7"/>
<polygon fill="none" stroke="#000000" points="43,-37.7 43,-56.7 90,-56.7 90,-37.7 43,-37.7"/>
<text text-anchor="start" x="54.6105" y="-43.8" font-family="Helvetica,sans-Serif" font-size="11.00" fill="#000000">0 rows</text>
<polygon fill="#ffffff" stroke="transparent" points="90,-37.7 90,-56.7 121,-56.7 121,-37.7 90,-37.7"/>
<polygon fill="none" stroke="#000000" points="90,-37.7 90,-56.7 121,-56.7 121,-37.7 90,-37.7"/>
<text text-anchor="start" x="102.4053" y="-43.8" font-family="Helvetica,sans-Serif" font-size="11.00" fill="#000000">2 &gt;</text>
</a>
</g>
</g>
<!-- chapter_users&#45;&gt;chapter_roles -->
<g id="edge2" class="edge">
<title>chapter_users:w&#45;&gt;chapter_roles:e</title>
<path fill="none" stroke="#000000" d="M161.0217,-186.5209C139.0237,-169.8109 158.6711,-108.7 121,-108.7"/>
<polygon fill="#000000" stroke="#000000" points="167.3352,-188.4084 173.9688,-194.1491 171.1676,-189.5542 175,-190.7 175,-190.7 175,-190.7 171.1676,-189.5542 176.0312,-187.2509 167.3352,-188.4084 167.3352,-188.4084"/>
<ellipse fill="none" stroke="#000000" cx="164.2693" cy="-187.4918" rx="3.2" ry="3.2"/>
</g>
<!-- users -->
<g id="node4" class="node">
<title>users</title>
<g id="a_node4"><a xlink:href="../../tables/users.html" xlink:title="users" target="_top">
<polygon fill="#ffffff" stroke="transparent" points="8,-268.2 8,-395.2 124,-395.2 124,-268.2 8,-268.2"/>
<polygon fill="#f5f5f5" stroke="transparent" points="8,-371.7 8,-394.7 124,-394.7 124,-371.7 8,-371.7"/>
<polygon fill="none" stroke="#000000" points="8,-371.7 8,-394.7 124,-394.7 124,-371.7 8,-371.7"/>
<text text-anchor="start" x="13" y="-380.8" font-family="Helvetica,sans-Serif" font-weight="bold" font-size="11.00" fill="#000000">users</text>
<text text-anchor="start" x="89.0437" y="-379.8" font-family="Helvetica,sans-Serif" font-size="11.00" fill="#000000">[table]</text>
<polygon fill="none" stroke="#000000" points="8,-349.7 8,-371.7 124,-371.7 124,-349.7 8,-349.7"/>
<image xlink:href="../../images/primaryKeys.png" width="11px" height="12px" preserveAspectRatio="xMinYMin meet" x="13" y="-366.7"/>
<text text-anchor="start" x="28" y="-356.8" font-family="Helvetica,sans-Serif" font-size="11.00" fill="#000000">id</text>
<polygon fill="#ffffff" stroke="transparent" points="8,-327.7 8,-349.7 124,-349.7 124,-327.7 8,-327.7"/>
<polygon fill="none" stroke="#000000" points="8,-327.7 8,-349.7 124,-349.7 124,-327.7 8,-327.7"/>
<text text-anchor="start" x="28" y="-334.8" font-family="Helvetica,sans-Serif" font-size="11.00" fill="#000000">email</text>
<polygon fill="none" stroke="#000000" points="8,-305.7 8,-327.7 124,-327.7 124,-305.7 8,-305.7"/>
<image xlink:href="../../images/foreignKeys.png" width="11px" height="12px" preserveAspectRatio="xMinYMin meet" x="13" y="-322.7"/>
<text text-anchor="start" x="28" y="-312.8" font-family="Helvetica,sans-Serif" font-size="11.00" fill="#000000">instance_role_id</text>
<polygon fill="none" stroke="#000000" points="8,-286.7 8,-305.7 124,-305.7 124,-286.7 8,-286.7"/>
<text text-anchor="start" x="11" y="-292.8" font-family="Helvetica,sans-Serif" font-size="11.00" fill="#000000">...</text>
<polygon fill="#ffffff" stroke="transparent" points="8,-267.7 8,-286.7 47,-286.7 47,-267.7 8,-267.7"/>
<polygon fill="none" stroke="#000000" points="8,-267.7 8,-286.7 47,-286.7 47,-267.7 8,-267.7"/>
<text text-anchor="start" x="11" y="-273.8" font-family="Helvetica,sans-Serif" font-size="11.00" fill="#000000">&lt; 1</text>
<polygon fill="#ffffff" stroke="transparent" points="47,-267.7 47,-286.7 94,-286.7 94,-267.7 47,-267.7"/>
<polygon fill="none" stroke="#000000" points="47,-267.7 47,-286.7 94,-286.7 94,-267.7 47,-267.7"/>
<text text-anchor="start" x="58.6105" y="-273.8" font-family="Helvetica,sans-Serif" font-size="11.00" fill="#000000">0 rows</text>
<polygon fill="#ffffff" stroke="transparent" points="94,-267.7 94,-286.7 124,-286.7 124,-267.7 94,-267.7"/>
<polygon fill="none" stroke="#000000" points="94,-267.7 94,-286.7 124,-286.7 124,-267.7 94,-267.7"/>
<text text-anchor="start" x="105.4053" y="-273.8" font-family="Helvetica,sans-Serif" font-size="11.00" fill="#000000">4 &gt;</text>
</a>
</g>
</g>
<!-- chapter_users&#45;&gt;users -->
<g id="edge3" class="edge">
<title>chapter_users:w&#45;&gt;users:e</title>
<path fill="none" stroke="#000000" d="M160.7844,-238.0702C126.9826,-258.1077 178.5136,-360.7 124,-360.7"/>
<polygon fill="#000000" stroke="#000000" points="167.2158,-236.5455 175.8305,-238.2029 171.1079,-235.6228 175,-234.7 175,-234.7 175,-234.7 171.1079,-235.6228 174.1695,-231.1971 167.2158,-236.5455 167.2158,-236.5455"/>
<ellipse fill="none" stroke="#000000" cx="164.1021" cy="-237.2837" rx="3.2" ry="3.2"/>
</g>
</g>
</svg>
