<?xml version="1.0" encoding="UTF-8" standalone="no"?>
<!DOCTYPE svg PUBLIC "-//W3C//DTD SVG 1.1//EN"
 "http://www.w3.org/Graphics/SVG/1.1/DTD/svg11.dtd">
<!-- Generated by graphviz version 2.40.1 (20161225.0304)
 -->
<!-- Title: oneDegreeRelationshipsDiagram Pages: 1 -->
<svg width="460pt" height="303pt"
 viewBox="0.00 0.00 460.00 303.20" xmlns="http://www.w3.org/2000/svg" xmlns:xlink="http://www.w3.org/1999/xlink">
<g id="graph0" class="graph" transform="scale(1 1) rotate(0) translate(4 299.2)">
<title>oneDegreeRelationshipsDiagram</title>
<polygon fill="#ffffff" stroke="transparent" points="-4,4 -4,-299.2 456,-299.2 456,4 -4,4"/>
<text text-anchor="middle" x="72.4936" y="-7.3" font-family="Helvetica,sans-Serif" font-size="11.00" fill="#000000">Generated by SchemaSpy</text>
<!-- chapter_role_permissions -->
<g id="node1" class="node">
<title>chapter_role_permissions</title>
<g id="a_node1"><a xlink:href="../../tables/chapter_role_permissions.html" xlink:title="chapter_role_permissions" target="_top">
<polygon fill="#ffffff" stroke="transparent" points="253,-186.2 253,-291.2 444,-291.2 444,-186.2 253,-186.2"/>
<polygon fill="#f5f5f5" stroke="transparent" points="253.5,-267.7 253.5,-290.7 444.5,-290.7 444.5,-267.7 253.5,-267.7"/>
<polygon fill="none" stroke="#000000" points="253.5,-267.7 253.5,-290.7 444.5,-290.7 444.5,-267.7 253.5,-267.7"/>
<text text-anchor="start" x="258.5" y="-276.3" font-family="Helvetica,sans-Serif" font-weight="bold" font-size="11.00" fill="#000000">chapter_role_permissions</text>
<text text-anchor="start" x="410.0219" y="-275.8" font-family="Helvetica,sans-Serif" font-size="11.00" fill="#000000">[table]</text>
<polygon fill="none" stroke="#000000" points="253.5,-245.7 253.5,-267.7 444.5,-267.7 444.5,-245.7 253.5,-245.7"/>
<image xlink:href="../../images/primaryKeys.png" width="11px" height="12px" preserveAspectRatio="xMinYMin meet" x="258.5" y="-262.7"/>
<text text-anchor="start" x="282.5" y="-252.8" font-family="Helvetica,sans-Serif" font-size="11.00" fill="#000000">chapter_role_id</text>
<polygon fill="none" stroke="#000000" points="253.5,-223.7 253.5,-245.7 444.5,-245.7 444.5,-223.7 253.5,-223.7"/>
<image xlink:href="../../images/primaryKeys.png" width="11px" height="12px" preserveAspectRatio="xMinYMin meet" x="258.5" y="-240.7"/>
<text text-anchor="start" x="282.5" y="-230.8" font-family="Helvetica,sans-Serif" font-size="11.00" fill="#000000">chapter_permissions_id</text>
<polygon fill="none" stroke="#000000" points="253.5,-204.7 253.5,-223.7 444.5,-223.7 444.5,-204.7 253.5,-204.7"/>
<text text-anchor="start" x="256.5" y="-210.8" font-family="Helvetica,sans-Serif" font-size="11.00" fill="#000000">...</text>
<polygon fill="#ffffff" stroke="transparent" points="253.5,-185.7 253.5,-204.7 334.5,-204.7 334.5,-185.7 253.5,-185.7"/>
<polygon fill="none" stroke="#000000" points="253.5,-185.7 253.5,-204.7 334.5,-204.7 334.5,-185.7 253.5,-185.7"/>
<text text-anchor="start" x="256.5" y="-191.8" font-family="Helvetica,sans-Serif" font-size="11.00" fill="#000000">&lt; 2</text>
<polygon fill="#ffffff" stroke="transparent" points="334.5,-185.7 334.5,-204.7 402.5,-204.7 402.5,-185.7 334.5,-185.7"/>
<polygon fill="none" stroke="#000000" points="334.5,-185.7 334.5,-204.7 402.5,-204.7 402.5,-185.7 334.5,-185.7"/>
<text text-anchor="start" x="367.1105" y="-191.8" font-family="Helvetica,sans-Serif" font-size="11.00" fill="#000000">0 rows</text>
<polygon fill="#ffffff" stroke="transparent" points="402.5,-185.7 402.5,-204.7 444.5,-204.7 444.5,-185.7 402.5,-185.7"/>
<polygon fill="none" stroke="#000000" points="402.5,-185.7 402.5,-204.7 444.5,-204.7 444.5,-185.7 402.5,-185.7"/>
<text text-anchor="start" x="435.3862" y="-191.8" font-family="Helvetica,sans-Serif" font-size="11.00" fill="#000000"> &#160;</text>
</a>
</g>
</g>
<!-- chapter_roles -->
<g id="node2" class="node">
<title>chapter_roles</title>
<g id="a_node2"><a xlink:href="../../tables/chapter_roles.html" xlink:title="chapter_roles" target="_top">
<polygon fill="#ffffff" stroke="transparent" points="8,-117.7 8,-251.7 204,-251.7 204,-117.7 8,-117.7"/>
<polygon fill="#f5f5f5" stroke="transparent" points="10,-226.7 10,-249.7 202,-249.7 202,-226.7 10,-226.7"/>
<polygon fill="none" stroke="#000000" points="10,-226.7 10,-249.7 202,-249.7 202,-226.7 10,-226.7"/>
<text text-anchor="start" x="15" y="-235.3" font-family="Helvetica,sans-Serif" font-weight="bold" font-size="11.00" fill="#000000">chapter_roles</text>
<text text-anchor="start" x="167.0437" y="-234.8" font-family="Helvetica,sans-Serif" font-size="11.00" fill="#000000">[table]</text>
<polygon fill="none" stroke="#000000" points="10,-204.7 10,-226.7 112,-226.7 112,-204.7 10,-204.7"/>
<text text-anchor="start" x="30" y="-211.8" font-family="Helvetica,sans-Serif" font-size="11.00" fill="#000000">created_at</text>
<polygon fill="none" stroke="#000000" points="112,-204.7 112,-226.7 202,-226.7 202,-204.7 112,-204.7"/>
<text text-anchor="start" x="115" y="-212.4" font-family="Helvetica,sans-Serif" font-size="11.00" fill="#000000">timestamp[26,3]</text>
<polygon fill="none" stroke="#000000" points="10,-182.7 10,-204.7 112,-204.7 112,-182.7 10,-182.7"/>
<text text-anchor="start" x="30" y="-189.8" font-family="Helvetica,sans-Serif" font-size="11.00" fill="#000000">updated_at</text>
<polygon fill="none" stroke="#000000" points="112,-182.7 112,-204.7 202,-204.7 202,-182.7 112,-182.7"/>
<text text-anchor="start" x="115" y="-190.4" font-family="Helvetica,sans-Serif" font-size="11.00" fill="#000000">timestamp[26,3]</text>
<polygon fill="none" stroke="#000000" points="10,-160.7 10,-182.7 112,-182.7 112,-160.7 10,-160.7"/>
<image xlink:href="../../images/primaryKeys.png" width="11px" height="12px" preserveAspectRatio="xMinYMin meet" x="15" y="-177.7"/>
<text text-anchor="start" x="30" y="-167.8" font-family="Helvetica,sans-Serif" font-size="11.00" fill="#000000">id</text>
<polygon fill="none" stroke="#000000" points="112,-160.7 112,-182.7 202,-182.7 202,-160.7 112,-160.7"/>
<text text-anchor="start" x="115" y="-168.4" font-family="Helvetica,sans-Serif" font-size="11.00" fill="#000000">serial[10]</text>
<polygon fill="#ffffff" stroke="transparent" points="10,-138.7 10,-160.7 112,-160.7 112,-138.7 10,-138.7"/>
<polygon fill="none" stroke="#000000" points="10,-138.7 10,-160.7 112,-160.7 112,-138.7 10,-138.7"/>
<text text-anchor="start" x="30" y="-145.8" font-family="Helvetica,sans-Serif" font-size="11.00" fill="#000000">name</text>
<polygon fill="none" stroke="#000000" points="112,-138.7 112,-160.7 202,-160.7 202,-138.7 112,-138.7"/>
<text text-anchor="start" x="114.5042" y="-146.4" font-family="Helvetica,sans-Serif" font-size="11.00" fill="#000000">text[2147483647]</text>
<polygon fill="#ffffff" stroke="transparent" points="10,-119.7 10,-138.7 52,-138.7 52,-119.7 10,-119.7"/>
<polygon fill="none" stroke="#000000" points="10,-119.7 10,-138.7 52,-138.7 52,-119.7 10,-119.7"/>
<text text-anchor="start" x="13" y="-125.8" font-family="Helvetica,sans-Serif" font-size="11.00" fill="#000000">&lt; 0</text>
<polygon fill="#ffffff" stroke="transparent" points="52,-119.7 52,-138.7 112,-138.7 112,-119.7 52,-119.7"/>
<polygon fill="none" stroke="#000000" points="52,-119.7 52,-138.7 112,-138.7 112,-119.7 52,-119.7"/>
<text text-anchor="start" x="76.6105" y="-125.8" font-family="Helvetica,sans-Serif" font-size="11.00" fill="#000000">0 rows</text>
<polygon fill="#ffffff" stroke="transparent" points="112,-119.7 112,-138.7 202,-138.7 202,-119.7 112,-119.7"/>
<polygon fill="none" stroke="#000000" points="112,-119.7 112,-138.7 202,-138.7 202,-119.7 112,-119.7"/>
<text text-anchor="start" x="183.4053" y="-125.8" font-family="Helvetica,sans-Serif" font-size="11.00" fill="#000000">2 &gt;</text>
<polygon fill="none" stroke="#000000" stroke-width="2" points="9,-118.7 9,-250.7 203,-250.7 203,-118.7 9,-118.7"/>
</a>
</g>
</g>
<!-- chapter_role_permissions&#45;&gt;chapter_roles -->
<g id="edge1" class="edge">
<title>chapter_role_permissions:w&#45;&gt;chapter_roles:e</title>
<path fill="none" stroke="#000000" d="M239.5119,-252.368C217.8888,-235.0466 240.1318,-171.7 202,-171.7"/>
<polygon fill="#000000" stroke="#000000" points="245.8581,-254.3333 252.435,-260.1389 249.679,-255.5167 253.5,-256.7 253.5,-256.7 253.5,-256.7 249.679,-255.5167 254.565,-253.2611 245.8581,-254.3333 245.8581,-254.3333"/>
<ellipse fill="none" stroke="#000000" cx="242.8013" cy="-253.3866" rx="3.2" ry="3.2"/>
</g>
<!-- chapter_users -->
<g id="node3" class="node">
<title>chapter_users</title>
<g id="a_node3"><a xlink:href="../../tables/chapter_users.html" xlink:title="chapter_users" target="_top">
<polygon fill="#ffffff" stroke="transparent" points="287.5,-38.2 287.5,-165.2 409.5,-165.2 409.5,-38.2 287.5,-38.2"/>
<polygon fill="#f5f5f5" stroke="transparent" points="287.5,-141.7 287.5,-164.7 409.5,-164.7 409.5,-141.7 287.5,-141.7"/>
<polygon fill="none" stroke="#000000" points="287.5,-141.7 287.5,-164.7 409.5,-164.7 409.5,-141.7 287.5,-141.7"/>
<text text-anchor="start" x="292.5" y="-150.3" font-family="Helvetica,sans-Serif" font-weight="bold" font-size="11.00" fill="#000000">chapter_users</text>
<text text-anchor="start" x="375.0219" y="-149.8" font-family="Helvetica,sans-Serif" font-size="11.00" fill="#000000">[table]</text>
<polygon fill="none" stroke="#000000" points="287.5,-119.7 287.5,-141.7 409.5,-141.7 409.5,-119.7 287.5,-119.7"/>
<image xlink:href="../../images/primaryKeys.png" width="11px" height="12px" preserveAspectRatio="xMinYMin meet" x="292.5" y="-136.7"/>
<text text-anchor="start" x="312.5" y="-126.8" font-family="Helvetica,sans-Serif" font-size="11.00" fill="#000000">user_id</text>
<polygon fill="none" stroke="#000000" points="287.5,-97.7 287.5,-119.7 409.5,-119.7 409.5,-97.7 287.5,-97.7"/>
<image xlink:href="../../images/primaryKeys.png" width="11px" height="12px" preserveAspectRatio="xMinYMin meet" x="292.5" y="-114.7"/>
<text text-anchor="start" x="312.5" y="-104.8" font-family="Helvetica,sans-Serif" font-size="11.00" fill="#000000">chapter_id</text>
<polygon fill="none" stroke="#000000" points="287.5,-75.7 287.5,-97.7 409.5,-97.7 409.5,-75.7 287.5,-75.7"/>
<image xlink:href="../../images/foreignKeys.png" width="11px" height="12px" preserveAspectRatio="xMinYMin meet" x="292.5" y="-92.7"/>
<text text-anchor="start" x="312.5" y="-82.8" font-family="Helvetica,sans-Serif" font-size="11.00" fill="#000000">chapter_role_id</text>
<polygon fill="none" stroke="#000000" points="287.5,-56.7 287.5,-75.7 409.5,-75.7 409.5,-56.7 287.5,-56.7"/>
<text text-anchor="start" x="290.5" y="-62.8" font-family="Helvetica,sans-Serif" font-size="11.00" fill="#000000">...</text>
<polygon fill="#ffffff" stroke="transparent" points="287.5,-37.7 287.5,-56.7 333.5,-56.7 333.5,-37.7 287.5,-37.7"/>
<polygon fill="none" stroke="#000000" points="287.5,-37.7 287.5,-56.7 333.5,-56.7 333.5,-37.7 287.5,-37.7"/>
<text text-anchor="start" x="290.5" y="-43.8" font-family="Helvetica,sans-Serif" font-size="11.00" fill="#000000">&lt; 3</text>
<polygon fill="#ffffff" stroke="transparent" points="333.5,-37.7 333.5,-56.7 384.5,-56.7 384.5,-37.7 333.5,-37.7"/>
<polygon fill="none" stroke="#000000" points="333.5,-37.7 333.5,-56.7 384.5,-56.7 384.5,-37.7 333.5,-37.7"/>
<text text-anchor="start" x="349.1105" y="-43.8" font-family="Helvetica,sans-Serif" font-size="11.00" fill="#000000">0 rows</text>
<polygon fill="#ffffff" stroke="transparent" points="384.5,-37.7 384.5,-56.7 409.5,-56.7 409.5,-37.7 384.5,-37.7"/>
<polygon fill="none" stroke="#000000" points="384.5,-37.7 384.5,-56.7 409.5,-56.7 409.5,-37.7 384.5,-37.7"/>
<text text-anchor="start" x="400.3862" y="-43.8" font-family="Helvetica,sans-Serif" font-size="11.00" fill="#000000"> &#160;</text>
</a>
</g>
</g>
<!-- chapter_users&#45;&gt;chapter_roles -->
<g id="edge2" class="edge">
<title>chapter_users:w&#45;&gt;chapter_roles:e</title>
<path fill="none" stroke="#000000" d="M272.8805,-89.3371C237.65,-103.6842 249.9319,-171.7 202,-171.7"/>
<polygon fill="#000000" stroke="#000000" points="279.6271,-88.1202 288.1391,-90.2428 283.5635,-87.4101 287.5,-86.7 287.5,-86.7 287.5,-86.7 283.5635,-87.4101 286.8609,-83.1572 279.6271,-88.1202 279.6271,-88.1202"/>
<ellipse fill="none" stroke="#000000" cx="276.4779" cy="-88.6883" rx="3.2" ry="3.2"/>
</g>
</g>
</svg>
