<?xml version="1.0" encoding="UTF-8" standalone="no"?>
<!DOCTYPE svg PUBLIC "-//W3C//DTD SVG 1.1//EN"
 "http://www.w3.org/Graphics/SVG/1.1/DTD/svg11.dtd">
<!-- Generated by graphviz version 2.40.1 (20161225.0304)
 -->
<!-- Title: twoDegreesRelationshipsDiagram Pages: 1 -->
<svg width="460pt" height="435pt"
 viewBox="0.00 0.00 460.00 434.70" xmlns="http://www.w3.org/2000/svg" xmlns:xlink="http://www.w3.org/1999/xlink">
<g id="graph0" class="graph" transform="scale(1 1) rotate(0) translate(4 430.7)">
<title>twoDegreesRelationshipsDiagram</title>
<polygon fill="#ffffff" stroke="transparent" points="-4,4 -4,-430.7 456,-430.7 456,4 -4,4"/>
<text text-anchor="middle" x="72.4936" y="-7.3" font-family="Helvetica,sans-Serif" font-size="11.00" fill="#000000">Generated by SchemaSpy</text>
<!-- chapter_role_permissions -->
<g id="node1" class="node">
<title>chapter_role_permissions</title>
<g id="a_node1"><a xlink:href="../../tables/chapter_role_permissions.html" xlink:title="chapter_role_permissions" target="_top">
<polygon fill="#ffffff" stroke="transparent" points="253,-317.7 253,-422.7 444,-422.7 444,-317.7 253,-317.7"/>
<polygon fill="#f5f5f5" stroke="transparent" points="253.5,-399.2 253.5,-422.2 444.5,-422.2 444.5,-399.2 253.5,-399.2"/>
<polygon fill="none" stroke="#000000" points="253.5,-399.2 253.5,-422.2 444.5,-422.2 444.5,-399.2 253.5,-399.2"/>
<text text-anchor="start" x="258.5" y="-407.8" font-family="Helvetica,sans-Serif" font-weight="bold" font-size="11.00" fill="#000000">chapter_role_permissions</text>
<text text-anchor="start" x="410.0219" y="-407.3" font-family="Helvetica,sans-Serif" font-size="11.00" fill="#000000">[table]</text>
<polygon fill="none" stroke="#000000" points="253.5,-377.2 253.5,-399.2 444.5,-399.2 444.5,-377.2 253.5,-377.2"/>
<image xlink:href="../../images/primaryKeys.png" width="11px" height="12px" preserveAspectRatio="xMinYMin meet" x="258.5" y="-394.2"/>
<text text-anchor="start" x="282.5" y="-384.3" font-family="Helvetica,sans-Serif" font-size="11.00" fill="#000000">chapter_role_id</text>
<polygon fill="none" stroke="#000000" points="253.5,-355.2 253.5,-377.2 444.5,-377.2 444.5,-355.2 253.5,-355.2"/>
<image xlink:href="../../images/primaryKeys.png" width="11px" height="12px" preserveAspectRatio="xMinYMin meet" x="258.5" y="-372.2"/>
<text text-anchor="start" x="282.5" y="-362.3" font-family="Helvetica,sans-Serif" font-size="11.00" fill="#000000">chapter_permissions_id</text>
<polygon fill="none" stroke="#000000" points="253.5,-336.2 253.5,-355.2 444.5,-355.2 444.5,-336.2 253.5,-336.2"/>
<text text-anchor="start" x="256.5" y="-342.3" font-family="Helvetica,sans-Serif" font-size="11.00" fill="#000000">...</text>
<polygon fill="#ffffff" stroke="transparent" points="253.5,-317.2 253.5,-336.2 334.5,-336.2 334.5,-317.2 253.5,-317.2"/>
<polygon fill="none" stroke="#000000" points="253.5,-317.2 253.5,-336.2 334.5,-336.2 334.5,-317.2 253.5,-317.2"/>
<text text-anchor="start" x="256.5" y="-323.3" font-family="Helvetica,sans-Serif" font-size="11.00" fill="#000000">&lt; 2</text>
<polygon fill="#ffffff" stroke="transparent" points="334.5,-317.2 334.5,-336.2 402.5,-336.2 402.5,-317.2 334.5,-317.2"/>
<polygon fill="none" stroke="#000000" points="334.5,-317.2 334.5,-336.2 402.5,-336.2 402.5,-317.2 334.5,-317.2"/>
<text text-anchor="start" x="367.1105" y="-323.3" font-family="Helvetica,sans-Serif" font-size="11.00" fill="#000000">0 rows</text>
<polygon fill="#ffffff" stroke="transparent" points="402.5,-317.2 402.5,-336.2 444.5,-336.2 444.5,-317.2 402.5,-317.2"/>
<polygon fill="none" stroke="#000000" points="402.5,-317.2 402.5,-336.2 444.5,-336.2 444.5,-317.2 402.5,-317.2"/>
<text text-anchor="start" x="435.3862" y="-323.3" font-family="Helvetica,sans-Serif" font-size="11.00" fill="#000000"> &#160;</text>
</a>
</g>
</g>
<!-- chapter_permissions -->
<g id="node2" class="node">
<title>chapter_permissions</title>
<g id="a_node2"><a xlink:href="../../tables/chapter_permissions.html" xlink:title="chapter_permissions" target="_top">
<polygon fill="#ffffff" stroke="transparent" points="24.5,-357.7 24.5,-418.7 187.5,-418.7 187.5,-357.7 24.5,-357.7"/>
<polygon fill="#f5f5f5" stroke="transparent" points="25,-395.2 25,-418.2 188,-418.2 188,-395.2 25,-395.2"/>
<polygon fill="none" stroke="#000000" points="25,-395.2 25,-418.2 188,-418.2 188,-395.2 25,-395.2"/>
<text text-anchor="start" x="30" y="-403.8" font-family="Helvetica,sans-Serif" font-weight="bold" font-size="11.00" fill="#000000">chapter_permissions</text>
<text text-anchor="start" x="153.5219" y="-403.3" font-family="Helvetica,sans-Serif" font-size="11.00" fill="#000000">[table]</text>
<polygon fill="none" stroke="#000000" points="25,-376.2 25,-395.2 188,-395.2 188,-376.2 25,-376.2"/>
<text text-anchor="start" x="28" y="-382.3" font-family="Helvetica,sans-Serif" font-size="11.00" fill="#000000">...</text>
<polygon fill="#ffffff" stroke="transparent" points="25,-357.2 25,-376.2 83,-376.2 83,-357.2 25,-357.2"/>
<polygon fill="none" stroke="#000000" points="25,-357.2 25,-376.2 83,-376.2 83,-357.2 25,-357.2"/>
<text text-anchor="start" x="28" y="-363.3" font-family="Helvetica,sans-Serif" font-size="11.00" fill="#000000"> &#160;</text>
<polygon fill="#ffffff" stroke="transparent" points="83,-357.2 83,-376.2 144,-376.2 144,-357.2 83,-357.2"/>
<polygon fill="none" stroke="#000000" points="83,-357.2 83,-376.2 144,-376.2 144,-357.2 83,-357.2"/>
<text text-anchor="start" x="108.6105" y="-363.3" font-family="Helvetica,sans-Serif" font-size="11.00" fill="#000000">0 rows</text>
<polygon fill="#ffffff" stroke="transparent" points="144,-357.2 144,-376.2 188,-376.2 188,-357.2 144,-357.2"/>
<polygon fill="none" stroke="#000000" points="144,-357.2 144,-376.2 188,-376.2 188,-357.2 144,-357.2"/>
<text text-anchor="start" x="169.4053" y="-363.3" font-family="Helvetica,sans-Serif" font-size="11.00" fill="#000000">1 &gt;</text>
</a>
</g>
</g>
<!-- chapter_role_permissions&#45;&gt;chapter_permissions -->
<g id="edge1" class="edge">
<title>chapter_role_permissions:w&#45;&gt;chapter_permissions:e</title>
<path fill="none" stroke="#000000" d="M239.0622,-367.8861C220.5405,-372.5361 212.7462,-385.2 188,-385.2"/>
<polygon fill="#000000" stroke="#000000" points="245.554,-367.128 253.9176,-369.7757 249.527,-366.664 253.5,-366.2 253.5,-366.2 253.5,-366.2 249.527,-366.664 253.0824,-362.6243 245.554,-367.128 245.554,-367.128"/>
<ellipse fill="none" stroke="#000000" cx="242.3756" cy="-367.4992" rx="3.2" ry="3.2"/>
</g>
<!-- chapter_roles -->
<g id="node3" class="node">
<title>chapter_roles</title>
<g id="a_node3"><a xlink:href="../../tables/chapter_roles.html" xlink:title="chapter_roles" target="_top">
<polygon fill="#ffffff" stroke="transparent" points="8,-38.2 8,-172.2 204,-172.2 204,-38.2 8,-38.2"/>
<polygon fill="#f5f5f5" stroke="transparent" points="10,-147.2 10,-170.2 202,-170.2 202,-147.2 10,-147.2"/>
<polygon fill="none" stroke="#000000" points="10,-147.2 10,-170.2 202,-170.2 202,-147.2 10,-147.2"/>
<text text-anchor="start" x="15" y="-155.8" font-family="Helvetica,sans-Serif" font-weight="bold" font-size="11.00" fill="#000000">chapter_roles</text>
<text text-anchor="start" x="167.0437" y="-155.3" font-family="Helvetica,sans-Serif" font-size="11.00" fill="#000000">[table]</text>
<polygon fill="none" stroke="#000000" points="10,-125.2 10,-147.2 112,-147.2 112,-125.2 10,-125.2"/>
<text text-anchor="start" x="30" y="-132.3" font-family="Helvetica,sans-Serif" font-size="11.00" fill="#000000">created_at</text>
<polygon fill="none" stroke="#000000" points="112,-125.2 112,-147.2 202,-147.2 202,-125.2 112,-125.2"/>
<text text-anchor="start" x="115" y="-132.9" font-family="Helvetica,sans-Serif" font-size="11.00" fill="#000000">timestamp[26,3]</text>
<polygon fill="none" stroke="#000000" points="10,-103.2 10,-125.2 112,-125.2 112,-103.2 10,-103.2"/>
<text text-anchor="start" x="30" y="-110.3" font-family="Helvetica,sans-Serif" font-size="11.00" fill="#000000">updated_at</text>
<polygon fill="none" stroke="#000000" points="112,-103.2 112,-125.2 202,-125.2 202,-103.2 112,-103.2"/>
<text text-anchor="start" x="115" y="-110.9" font-family="Helvetica,sans-Serif" font-size="11.00" fill="#000000">timestamp[26,3]</text>
<polygon fill="none" stroke="#000000" points="10,-81.2 10,-103.2 112,-103.2 112,-81.2 10,-81.2"/>
<image xlink:href="../../images/primaryKeys.png" width="11px" height="12px" preserveAspectRatio="xMinYMin meet" x="15" y="-98.2"/>
<text text-anchor="start" x="30" y="-88.3" font-family="Helvetica,sans-Serif" font-size="11.00" fill="#000000">id</text>
<polygon fill="none" stroke="#000000" points="112,-81.2 112,-103.2 202,-103.2 202,-81.2 112,-81.2"/>
<text text-anchor="start" x="115" y="-88.9" font-family="Helvetica,sans-Serif" font-size="11.00" fill="#000000">serial[10]</text>
<polygon fill="#ffffff" stroke="transparent" points="10,-59.2 10,-81.2 112,-81.2 112,-59.2 10,-59.2"/>
<polygon fill="none" stroke="#000000" points="10,-59.2 10,-81.2 112,-81.2 112,-59.2 10,-59.2"/>
<text text-anchor="start" x="30" y="-66.3" font-family="Helvetica,sans-Serif" font-size="11.00" fill="#000000">name</text>
<polygon fill="none" stroke="#000000" points="112,-59.2 112,-81.2 202,-81.2 202,-59.2 112,-59.2"/>
<text text-anchor="start" x="114.5042" y="-66.9" font-family="Helvetica,sans-Serif" font-size="11.00" fill="#000000">text[2147483647]</text>
<polygon fill="#ffffff" stroke="transparent" points="10,-40.2 10,-59.2 52,-59.2 52,-40.2 10,-40.2"/>
<polygon fill="none" stroke="#000000" points="10,-40.2 10,-59.2 52,-59.2 52,-40.2 10,-40.2"/>
<text text-anchor="start" x="13" y="-46.3" font-family="Helvetica,sans-Serif" font-size="11.00" fill="#000000">&lt; 0</text>
<polygon fill="#ffffff" stroke="transparent" points="52,-40.2 52,-59.2 112,-59.2 112,-40.2 52,-40.2"/>
<polygon fill="none" stroke="#000000" points="52,-40.2 52,-59.2 112,-59.2 112,-40.2 52,-40.2"/>
<text text-anchor="start" x="76.6105" y="-46.3" font-family="Helvetica,sans-Serif" font-size="11.00" fill="#000000">0 rows</text>
<polygon fill="#ffffff" stroke="transparent" points="112,-40.2 112,-59.2 202,-59.2 202,-40.2 112,-40.2"/>
<polygon fill="none" stroke="#000000" points="112,-40.2 112,-59.2 202,-59.2 202,-40.2 112,-40.2"/>
<text text-anchor="start" x="183.4053" y="-46.3" font-family="Helvetica,sans-Serif" font-size="11.00" fill="#000000">2 &gt;</text>
<polygon fill="none" stroke="#000000" stroke-width="2" points="9,-39.2 9,-171.2 203,-171.2 203,-39.2 9,-39.2"/>
</a>
</g>
</g>
<!-- chapter_role_permissions&#45;&gt;chapter_roles -->
<g id="edge2" class="edge">
<title>chapter_role_permissions:w&#45;&gt;chapter_roles:e</title>
<path fill="none" stroke="#000000" d="M239.9089,-382.5513C199.1911,-341.6293 263.2891,-92.2 202,-92.2"/>
<polygon fill="#000000" stroke="#000000" points="246.1126,-385.1297 252.1183,-391.5243 249.8063,-386.6648 253.5,-388.2 253.5,-388.2 253.5,-388.2 249.8063,-386.6648 254.8817,-384.8757 246.1126,-385.1297 246.1126,-385.1297"/>
<ellipse fill="none" stroke="#000000" cx="243.1577" cy="-383.9015" rx="3.2" ry="3.2"/>
</g>
<!-- chapter_users -->
<g id="node4" class="node">
<title>chapter_users</title>
<g id="a_node4"><a xlink:href="../../tables/chapter_users.html" xlink:title="chapter_users" target="_top">
<polygon fill="#ffffff" stroke="transparent" points="287.5,-150.7 287.5,-277.7 409.5,-277.7 409.5,-150.7 287.5,-150.7"/>
<polygon fill="#f5f5f5" stroke="transparent" points="287.5,-254.2 287.5,-277.2 409.5,-277.2 409.5,-254.2 287.5,-254.2"/>
<polygon fill="none" stroke="#000000" points="287.5,-254.2 287.5,-277.2 409.5,-277.2 409.5,-254.2 287.5,-254.2"/>
<text text-anchor="start" x="292.5" y="-262.8" font-family="Helvetica,sans-Serif" font-weight="bold" font-size="11.00" fill="#000000">chapter_users</text>
<text text-anchor="start" x="375.0219" y="-262.3" font-family="Helvetica,sans-Serif" font-size="11.00" fill="#000000">[table]</text>
<polygon fill="none" stroke="#000000" points="287.5,-232.2 287.5,-254.2 409.5,-254.2 409.5,-232.2 287.5,-232.2"/>
<image xlink:href="../../images/primaryKeys.png" width="11px" height="12px" preserveAspectRatio="xMinYMin meet" x="292.5" y="-249.2"/>
<text text-anchor="start" x="312.5" y="-239.3" font-family="Helvetica,sans-Serif" font-size="11.00" fill="#000000">user_id</text>
<polygon fill="none" stroke="#000000" points="287.5,-210.2 287.5,-232.2 409.5,-232.2 409.5,-210.2 287.5,-210.2"/>
<image xlink:href="../../images/primaryKeys.png" width="11px" height="12px" preserveAspectRatio="xMinYMin meet" x="292.5" y="-227.2"/>
<text text-anchor="start" x="312.5" y="-217.3" font-family="Helvetica,sans-Serif" font-size="11.00" fill="#000000">chapter_id</text>
<polygon fill="none" stroke="#000000" points="287.5,-188.2 287.5,-210.2 409.5,-210.2 409.5,-188.2 287.5,-188.2"/>
<image xlink:href="../../images/foreignKeys.png" width="11px" height="12px" preserveAspectRatio="xMinYMin meet" x="292.5" y="-205.2"/>
<text text-anchor="start" x="312.5" y="-195.3" font-family="Helvetica,sans-Serif" font-size="11.00" fill="#000000">chapter_role_id</text>
<polygon fill="none" stroke="#000000" points="287.5,-169.2 287.5,-188.2 409.5,-188.2 409.5,-169.2 287.5,-169.2"/>
<text text-anchor="start" x="290.5" y="-175.3" font-family="Helvetica,sans-Serif" font-size="11.00" fill="#000000">...</text>
<polygon fill="#ffffff" stroke="transparent" points="287.5,-150.2 287.5,-169.2 333.5,-169.2 333.5,-150.2 287.5,-150.2"/>
<polygon fill="none" stroke="#000000" points="287.5,-150.2 287.5,-169.2 333.5,-169.2 333.5,-150.2 287.5,-150.2"/>
<text text-anchor="start" x="290.5" y="-156.3" font-family="Helvetica,sans-Serif" font-size="11.00" fill="#000000">&lt; 3</text>
<polygon fill="#ffffff" stroke="transparent" points="333.5,-150.2 333.5,-169.2 384.5,-169.2 384.5,-150.2 333.5,-150.2"/>
<polygon fill="none" stroke="#000000" points="333.5,-150.2 333.5,-169.2 384.5,-169.2 384.5,-150.2 333.5,-150.2"/>
<text text-anchor="start" x="349.1105" y="-156.3" font-family="Helvetica,sans-Serif" font-size="11.00" fill="#000000">0 rows</text>
<polygon fill="#ffffff" stroke="transparent" points="384.5,-150.2 384.5,-169.2 409.5,-169.2 409.5,-150.2 384.5,-150.2"/>
<polygon fill="none" stroke="#000000" points="384.5,-150.2 384.5,-169.2 409.5,-169.2 409.5,-150.2 384.5,-150.2"/>
<text text-anchor="start" x="400.3862" y="-156.3" font-family="Helvetica,sans-Serif" font-size="11.00" fill="#000000"> &#160;</text>
</a>
</g>
</g>
<!-- chapter_users&#45;&gt;chapter_roles -->
<g id="edge4" class="edge">
<title>chapter_users:w&#45;&gt;chapter_roles:e</title>
<path fill="none" stroke="#000000" d="M273.3038,-196.7641C232.356,-180.8371 257.404,-92.2 202,-92.2"/>
<polygon fill="#000000" stroke="#000000" points="279.6152,-197.847 286.8912,-202.7481 283.5576,-198.5235 287.5,-199.2 287.5,-199.2 287.5,-199.2 283.5576,-198.5235 288.1088,-195.6519 279.6152,-197.847 279.6152,-197.847"/>
<ellipse fill="none" stroke="#000000" cx="276.4613" cy="-197.3058" rx="3.2" ry="3.2"/>
</g>
<!-- chapters -->
<g id="node5" class="node">
<title>chapters</title>
<g id="a_node5"><a xlink:href="../../tables/chapters.html" xlink:title="chapters" target="_top">
<polygon fill="#ffffff" stroke="transparent" points="60.5,-193.7 60.5,-254.7 151.5,-254.7 151.5,-193.7 60.5,-193.7"/>
<polygon fill="#f5f5f5" stroke="transparent" points="61,-231.2 61,-254.2 152,-254.2 152,-231.2 61,-231.2"/>
<polygon fill="none" stroke="#000000" points="61,-231.2 61,-254.2 152,-254.2 152,-231.2 61,-231.2"/>
<text text-anchor="start" x="66" y="-239.8" font-family="Helvetica,sans-Serif" font-weight="bold" font-size="11.00" fill="#000000">chapters</text>
<text text-anchor="start" x="117.5219" y="-239.3" font-family="Helvetica,sans-Serif" font-size="11.00" fill="#000000">[table]</text>
<polygon fill="none" stroke="#000000" points="61,-212.2 61,-231.2 152,-231.2 152,-212.2 61,-212.2"/>
<text text-anchor="start" x="64" y="-218.3" font-family="Helvetica,sans-Serif" font-size="11.00" fill="#000000">...</text>
<polygon fill="#ffffff" stroke="transparent" points="61,-193.2 61,-212.2 83,-212.2 83,-193.2 61,-193.2"/>
<polygon fill="none" stroke="#000000" points="61,-193.2 61,-212.2 83,-212.2 83,-193.2 61,-193.2"/>
<text text-anchor="start" x="64" y="-199.3" font-family="Helvetica,sans-Serif" font-size="11.00" fill="#000000"> &#160;</text>
<polygon fill="#ffffff" stroke="transparent" points="83,-193.2 83,-212.2 126,-212.2 126,-193.2 83,-193.2"/>
<polygon fill="none" stroke="#000000" points="83,-193.2 83,-212.2 126,-212.2 126,-193.2 83,-193.2"/>
<text text-anchor="start" x="90.6105" y="-199.3" font-family="Helvetica,sans-Serif" font-size="11.00" fill="#000000">0 rows</text>
<polygon fill="#ffffff" stroke="transparent" points="126,-193.2 126,-212.2 152,-212.2 152,-193.2 126,-193.2"/>
<polygon fill="none" stroke="#000000" points="126,-193.2 126,-212.2 152,-212.2 152,-193.2 126,-193.2"/>
<text text-anchor="start" x="133.4053" y="-199.3" font-family="Helvetica,sans-Serif" font-size="11.00" fill="#000000">4 &gt;</text>
</a>
</g>
</g>
<!-- chapter_users&#45;&gt;chapters -->
<g id="edge3" class="edge">
<title>chapter_users:w&#45;&gt;chapters:e</title>
<path fill="none" stroke="#000000" d="M272.9173,-221.2C224.3565,-221.2 207.0469,-221.2 152,-221.2"/>
<polygon fill="#000000" stroke="#000000" points="279.5,-221.2001 287.5,-224.8 283.5,-221.2 287.5,-221.2 287.5,-221.2 287.5,-221.2 283.5,-221.2 287.5,-217.6 279.5,-221.2001 279.5,-221.2001"/>
<ellipse fill="none" stroke="#000000" cx="276.3" cy="-221.2001" rx="3.2" ry="3.2"/>
</g>
<!-- users -->
<g id="node6" class="node">
<title>users</title>
<g id="a_node6"><a xlink:href="../../tables/users.html" xlink:title="users" target="_top">
<polygon fill="#ffffff" stroke="transparent" points="66,-275.7 66,-336.7 146,-336.7 146,-275.7 66,-275.7"/>
<polygon fill="#f5f5f5" stroke="transparent" points="66,-313.2 66,-336.2 146,-336.2 146,-313.2 66,-313.2"/>
<polygon fill="none" stroke="#000000" points="66,-313.2 66,-336.2 146,-336.2 146,-313.2 66,-313.2"/>
<text text-anchor="start" x="71" y="-321.8" font-family="Helvetica,sans-Serif" font-weight="bold" font-size="11.00" fill="#000000">users</text>
<text text-anchor="start" x="111.0437" y="-321.3" font-family="Helvetica,sans-Serif" font-size="11.00" fill="#000000">[table]</text>
<polygon fill="none" stroke="#000000" points="66,-294.2 66,-313.2 146,-313.2 146,-294.2 66,-294.2"/>
<text text-anchor="start" x="69" y="-300.3" font-family="Helvetica,sans-Serif" font-size="11.00" fill="#000000">...</text>
<polygon fill="#ffffff" stroke="transparent" points="66,-275.2 66,-294.2 87,-294.2 87,-275.2 66,-275.2"/>
<polygon fill="none" stroke="#000000" points="66,-275.2 66,-294.2 87,-294.2 87,-275.2 66,-275.2"/>
<text text-anchor="start" x="68.7027" y="-281.3" font-family="Helvetica,sans-Serif" font-size="11.00" fill="#000000">&lt; 1</text>
<polygon fill="#ffffff" stroke="transparent" points="87,-275.2 87,-294.2 125,-294.2 125,-275.2 87,-275.2"/>
<polygon fill="none" stroke="#000000" points="87,-275.2 87,-294.2 125,-294.2 125,-275.2 87,-275.2"/>
<text text-anchor="start" x="89.8053" y="-281.3" font-family="Helvetica,sans-Serif" font-size="11.00" fill="#000000">0 rows</text>
<polygon fill="#ffffff" stroke="transparent" points="125,-275.2 125,-294.2 146,-294.2 146,-275.2 125,-275.2"/>
<polygon fill="none" stroke="#000000" points="125,-275.2 125,-294.2 146,-294.2 146,-275.2 125,-275.2"/>
<text text-anchor="start" x="127.7027" y="-281.3" font-family="Helvetica,sans-Serif" font-size="11.00" fill="#000000">4 &gt;</text>
</a>
</g>
</g>
<!-- chapter_users&#45;&gt;users -->
<g id="edge5" class="edge">
<title>chapter_users:w&#45;&gt;users:e</title>
<path fill="none" stroke="#000000" d="M272.9383,-244.1914C218.0792,-251.9925 209.1058,-303.2 146,-303.2"/>
<polygon fill="#000000" stroke="#000000" points="279.5185,-243.7434 287.7445,-246.7917 283.5092,-243.4717 287.5,-243.2 287.5,-243.2 287.5,-243.2 283.5092,-243.4717 287.2555,-239.6083 279.5185,-243.7434 279.5185,-243.7434"/>
<ellipse fill="none" stroke="#000000" cx="276.3259" cy="-243.9608" rx="3.2" ry="3.2"/>
</g>
</g>
</svg>
