<?xml version="1.0" encoding="UTF-8" standalone="no"?>
<!DOCTYPE svg PUBLIC "-//W3C//DTD SVG 1.1//EN"
 "http://www.w3.org/Graphics/SVG/1.1/DTD/svg11.dtd">
<!-- Generated by graphviz version 2.40.1 (20161225.0304)
 -->
<!-- Title: oneDegreeRelationshipsDiagram Pages: 1 -->
<svg width="393pt" height="407pt"
 viewBox="0.00 0.00 393.00 407.20" xmlns="http://www.w3.org/2000/svg" xmlns:xlink="http://www.w3.org/1999/xlink">
<g id="graph0" class="graph" transform="scale(1 1) rotate(0) translate(4 403.2)">
<title>oneDegreeRelationshipsDiagram</title>
<polygon fill="#ffffff" stroke="transparent" points="-4,4 -4,-403.2 389,-403.2 389,4 -4,4"/>
<text text-anchor="middle" x="72.4936" y="-7.3" font-family="Helvetica,sans-Serif" font-size="11.00" fill="#000000">Generated by SchemaSpy</text>
<!-- chapter_users -->
<g id="node1" class="node">
<title>chapter_users</title>
<g id="a_node1"><a xlink:href="../../tables/chapter_users.html" xlink:title="chapter_users" target="_top">
<polygon fill="#ffffff" stroke="transparent" points="177,-136.7 177,-336.7 377,-336.7 377,-136.7 177,-136.7"/>
<polygon fill="#f5f5f5" stroke="transparent" points="179,-311.7 179,-334.7 375,-334.7 375,-311.7 179,-311.7"/>
<polygon fill="none" stroke="#000000" points="179,-311.7 179,-334.7 375,-334.7 375,-311.7 179,-311.7"/>
<text text-anchor="start" x="184" y="-320.3" font-family="Helvetica,sans-Serif" font-weight="bold" font-size="11.00" fill="#000000">chapter_users</text>
<text text-anchor="start" x="340.0437" y="-319.8" font-family="Helvetica,sans-Serif" font-size="11.00" fill="#000000">[table]</text>
<polygon fill="none" stroke="#000000" points="179,-289.7 179,-311.7 291,-311.7 291,-289.7 179,-289.7"/>
<text text-anchor="start" x="199" y="-296.8" font-family="Helvetica,sans-Serif" font-size="11.00" fill="#000000">created_at</text>
<polygon fill="none" stroke="#000000" points="291,-289.7 291,-311.7 375,-311.7 375,-289.7 291,-289.7"/>
<text text-anchor="start" x="293.8807" y="-297.4" font-family="Helvetica,sans-Serif" font-size="11.00" fill="#000000">timestamp[26,3]</text>
<polygon fill="none" stroke="#000000" points="179,-267.7 179,-289.7 291,-289.7 291,-267.7 179,-267.7"/>
<text text-anchor="start" x="199" y="-274.8" font-family="Helvetica,sans-Serif" font-size="11.00" fill="#000000">updated_at</text>
<polygon fill="none" stroke="#000000" points="291,-267.7 291,-289.7 375,-289.7 375,-267.7 291,-267.7"/>
<text text-anchor="start" x="293.8807" y="-275.4" font-family="Helvetica,sans-Serif" font-size="11.00" fill="#000000">timestamp[26,3]</text>
<polygon fill="none" stroke="#000000" points="179,-245.7 179,-267.7 291,-267.7 291,-245.7 179,-245.7"/>
<text text-anchor="start" x="199" y="-252.8" font-family="Helvetica,sans-Serif" font-size="11.00" fill="#000000">joined_date</text>
<polygon fill="none" stroke="#000000" points="291,-245.7 291,-267.7 375,-267.7 375,-245.7 291,-245.7"/>
<text text-anchor="start" x="293.8807" y="-253.4" font-family="Helvetica,sans-Serif" font-size="11.00" fill="#000000">timestamp[26,3]</text>
<polygon fill="none" stroke="#000000" points="179,-223.7 179,-245.7 291,-245.7 291,-223.7 179,-223.7"/>
<image xlink:href="../../images/primaryKeys.png" width="11px" height="12px" preserveAspectRatio="xMinYMin meet" x="184" y="-240.7"/>
<text text-anchor="start" x="199" y="-230.8" font-family="Helvetica,sans-Serif" font-size="11.00" fill="#000000">user_id</text>
<polygon fill="none" stroke="#000000" points="291,-223.7 291,-245.7 375,-245.7 375,-223.7 291,-223.7"/>
<text text-anchor="start" x="294" y="-231.4" font-family="Helvetica,sans-Serif" font-size="11.00" fill="#000000">int4[10]</text>
<polygon fill="none" stroke="#000000" points="179,-201.7 179,-223.7 291,-223.7 291,-201.7 179,-201.7"/>
<image xlink:href="../../images/primaryKeys.png" width="11px" height="12px" preserveAspectRatio="xMinYMin meet" x="184" y="-218.7"/>
<text text-anchor="start" x="199" y="-208.8" font-family="Helvetica,sans-Serif" font-size="11.00" fill="#000000">chapter_id</text>
<polygon fill="none" stroke="#000000" points="291,-201.7 291,-223.7 375,-223.7 375,-201.7 291,-201.7"/>
<text text-anchor="start" x="294" y="-209.4" font-family="Helvetica,sans-Serif" font-size="11.00" fill="#000000">int4[10]</text>
<polygon fill="none" stroke="#000000" points="179,-179.7 179,-201.7 291,-201.7 291,-179.7 179,-179.7"/>
<image xlink:href="../../images/foreignKeys.png" width="11px" height="12px" preserveAspectRatio="xMinYMin meet" x="184" y="-196.7"/>
<text text-anchor="start" x="199" y="-186.8" font-family="Helvetica,sans-Serif" font-size="11.00" fill="#000000">chapter_role_id</text>
<polygon fill="none" stroke="#000000" points="291,-179.7 291,-201.7 375,-201.7 375,-179.7 291,-179.7"/>
<text text-anchor="start" x="294" y="-187.4" font-family="Helvetica,sans-Serif" font-size="11.00" fill="#000000">int4[10]</text>
<polygon fill="none" stroke="#000000" points="179,-157.7 179,-179.7 291,-179.7 291,-157.7 179,-157.7"/>
<text text-anchor="start" x="199" y="-164.8" font-family="Helvetica,sans-Serif" font-size="11.00" fill="#000000">subscribed</text>
<polygon fill="none" stroke="#000000" points="291,-157.7 291,-179.7 375,-179.7 375,-157.7 291,-157.7"/>
<text text-anchor="start" x="294" y="-165.4" font-family="Helvetica,sans-Serif" font-size="11.00" fill="#000000">bool[1]</text>
<polygon fill="#ffffff" stroke="transparent" points="179,-138.7 179,-157.7 226,-157.7 226,-138.7 179,-138.7"/>
<polygon fill="none" stroke="#000000" points="179,-138.7 179,-157.7 226,-157.7 226,-138.7 179,-138.7"/>
<text text-anchor="start" x="182" y="-144.8" font-family="Helvetica,sans-Serif" font-size="11.00" fill="#000000">&lt; 3</text>
<polygon fill="#ffffff" stroke="transparent" points="226,-138.7 226,-157.7 291,-157.7 291,-138.7 226,-138.7"/>
<polygon fill="none" stroke="#000000" points="226,-138.7 226,-157.7 291,-157.7 291,-138.7 226,-138.7"/>
<text text-anchor="start" x="255.6105" y="-144.8" font-family="Helvetica,sans-Serif" font-size="11.00" fill="#000000">0 rows</text>
<polygon fill="#ffffff" stroke="transparent" points="291,-138.7 291,-157.7 375,-157.7 375,-138.7 291,-138.7"/>
<polygon fill="none" stroke="#000000" points="291,-138.7 291,-157.7 375,-157.7 375,-138.7 291,-138.7"/>
<text text-anchor="start" x="356.4053" y="-144.8" font-family="Helvetica,sans-Serif" font-size="11.00" fill="#000000">0 &gt;</text>
<polygon fill="none" stroke="#000000" stroke-width="2" points="178,-137.7 178,-335.7 376,-335.7 376,-137.7 178,-137.7"/>
</a>
</g>
</g>
<!-- chapters -->
<g id="node2" class="node">
<title>chapters</title>
<g id="a_node2"><a xlink:href="../../tables/chapters.html" xlink:title="chapters" target="_top">
<polygon fill="#ffffff" stroke="transparent" points="22.5,-164.2 22.5,-247.2 113.5,-247.2 113.5,-164.2 22.5,-164.2"/>
<polygon fill="#f5f5f5" stroke="transparent" points="23,-223.7 23,-246.7 114,-246.7 114,-223.7 23,-223.7"/>
<polygon fill="none" stroke="#000000" points="23,-223.7 23,-246.7 114,-246.7 114,-223.7 23,-223.7"/>
<text text-anchor="start" x="28" y="-232.3" font-family="Helvetica,sans-Serif" font-weight="bold" font-size="11.00" fill="#000000">chapters</text>
<text text-anchor="start" x="79.5219" y="-231.8" font-family="Helvetica,sans-Serif" font-size="11.00" fill="#000000">[table]</text>
<polygon fill="none" stroke="#000000" points="23,-201.7 23,-223.7 114,-223.7 114,-201.7 23,-201.7"/>
<image xlink:href="../../images/primaryKeys.png" width="11px" height="12px" preserveAspectRatio="xMinYMin meet" x="28" y="-218.7"/>
<text text-anchor="start" x="44" y="-208.8" font-family="Helvetica,sans-Serif" font-size="11.00" fill="#000000">id</text>
<polygon fill="none" stroke="#000000" points="23,-182.7 23,-201.7 114,-201.7 114,-182.7 23,-182.7"/>
<text text-anchor="start" x="26" y="-188.8" font-family="Helvetica,sans-Serif" font-size="11.00" fill="#000000">...</text>
<polygon fill="#ffffff" stroke="transparent" points="23,-163.7 23,-182.7 45,-182.7 45,-163.7 23,-163.7"/>
<polygon fill="none" stroke="#000000" points="23,-163.7 23,-182.7 45,-182.7 45,-163.7 23,-163.7"/>
<text text-anchor="start" x="26" y="-169.8" font-family="Helvetica,sans-Serif" font-size="11.00" fill="#000000"> &#160;</text>
<polygon fill="#ffffff" stroke="transparent" points="45,-163.7 45,-182.7 88,-182.7 88,-163.7 45,-163.7"/>
<polygon fill="none" stroke="#000000" points="45,-163.7 45,-182.7 88,-182.7 88,-163.7 45,-163.7"/>
<text text-anchor="start" x="52.6105" y="-169.8" font-family="Helvetica,sans-Serif" font-size="11.00" fill="#000000">0 rows</text>
<polygon fill="#ffffff" stroke="transparent" points="88,-163.7 88,-182.7 114,-182.7 114,-163.7 88,-163.7"/>
<polygon fill="none" stroke="#000000" points="88,-163.7 88,-182.7 114,-182.7 114,-163.7 88,-163.7"/>
<text text-anchor="start" x="95.4053" y="-169.8" font-family="Helvetica,sans-Serif" font-size="11.00" fill="#000000">4 &gt;</text>
</a>
</g>
</g>
<!-- chapter_users&#45;&gt;chapters -->
<g id="edge1" class="edge">
<title>chapter_users:w&#45;&gt;chapters:e</title>
<path fill="none" stroke="#000000" d="M164.4889,-212.7C146.5526,-212.7 137.3594,-212.7 114,-212.7"/>
<polygon fill="#000000" stroke="#000000" points="171,-212.7001 179,-216.3 175,-212.7 179,-212.7 179,-212.7 179,-212.7 175,-212.7 179,-209.1 171,-212.7001 171,-212.7001"/>
<ellipse fill="none" stroke="#000000" cx="167.8" cy="-212.7001" rx="3.2" ry="3.2"/>
</g>
<!-- chapter_roles -->
<g id="node3" class="node">
<title>chapter_roles</title>
<g id="a_node3"><a xlink:href="../../tables/chapter_roles.html" xlink:title="chapter_roles" target="_top">
<polygon fill="#ffffff" stroke="transparent" points="8,-38.2 8,-143.2 128,-143.2 128,-38.2 8,-38.2"/>
<polygon fill="#f5f5f5" stroke="transparent" points="8,-119.7 8,-142.7 128,-142.7 128,-119.7 8,-119.7"/>
<polygon fill="none" stroke="#000000" points="8,-119.7 8,-142.7 128,-142.7 128,-119.7 8,-119.7"/>
<text text-anchor="start" x="13" y="-128.3" font-family="Helvetica,sans-Serif" font-weight="bold" font-size="11.00" fill="#000000">chapter_roles</text>
<text text-anchor="start" x="93.5219" y="-127.8" font-family="Helvetica,sans-Serif" font-size="11.00" fill="#000000">[table]</text>
<polygon fill="none" stroke="#000000" points="8,-97.7 8,-119.7 128,-119.7 128,-97.7 8,-97.7"/>
<image xlink:href="../../images/primaryKeys.png" width="11px" height="12px" preserveAspectRatio="xMinYMin meet" x="13" y="-114.7"/>
<text text-anchor="start" x="37" y="-104.8" font-family="Helvetica,sans-Serif" font-size="11.00" fill="#000000">id</text>
<polygon fill="#ffffff" stroke="transparent" points="8,-75.7 8,-97.7 128,-97.7 128,-75.7 8,-75.7"/>
<polygon fill="none" stroke="#000000" points="8,-75.7 8,-97.7 128,-97.7 128,-75.7 8,-75.7"/>
<text text-anchor="start" x="37" y="-82.8" font-family="Helvetica,sans-Serif" font-size="11.00" fill="#000000">name</text>
<polygon fill="none" stroke="#000000" points="8,-56.7 8,-75.7 128,-75.7 128,-56.7 8,-56.7"/>
<text text-anchor="start" x="11" y="-62.8" font-family="Helvetica,sans-Serif" font-size="11.00" fill="#000000">...</text>
<polygon fill="#ffffff" stroke="transparent" points="8,-37.7 8,-56.7 44,-56.7 44,-37.7 8,-37.7"/>
<polygon fill="none" stroke="#000000" points="8,-37.7 8,-56.7 44,-56.7 44,-37.7 8,-37.7"/>
<text text-anchor="start" x="11" y="-43.8" font-family="Helvetica,sans-Serif" font-size="11.00" fill="#000000"> &#160;</text>
<polygon fill="#ffffff" stroke="transparent" points="44,-37.7 44,-56.7 94,-56.7 94,-37.7 44,-37.7"/>
<polygon fill="none" stroke="#000000" points="44,-37.7 44,-56.7 94,-56.7 94,-37.7 44,-37.7"/>
<text text-anchor="start" x="58.6105" y="-43.8" font-family="Helvetica,sans-Serif" font-size="11.00" fill="#000000">0 rows</text>
<polygon fill="#ffffff" stroke="transparent" points="94,-37.7 94,-56.7 128,-56.7 128,-37.7 94,-37.7"/>
<polygon fill="none" stroke="#000000" points="94,-37.7 94,-56.7 128,-56.7 128,-37.7 94,-37.7"/>
<text text-anchor="start" x="109.4053" y="-43.8" font-family="Helvetica,sans-Serif" font-size="11.00" fill="#000000">2 &gt;</text>
</a>
</g>
</g>
<!-- chapter_users&#45;&gt;chapter_roles -->
<g id="edge2" class="edge">
<title>chapter_users:w&#45;&gt;chapter_roles:e</title>
<path fill="none" stroke="#000000" d="M165.0743,-186.2913C144.3419,-169.2591 164.8829,-108.7 128,-108.7"/>
<polygon fill="#000000" stroke="#000000" points="171.3731,-188.2854 177.9134,-194.1321 175.1865,-189.4927 179,-190.7 179,-190.7 179,-190.7 175.1865,-189.4927 180.0866,-187.2679 171.3731,-188.2854 171.3731,-188.2854"/>
<ellipse fill="none" stroke="#000000" cx="168.3223" cy="-187.3195" rx="3.2" ry="3.2"/>
</g>
<!-- users -->
<g id="node4" class="node">
<title>users</title>
<g id="a_node4"><a xlink:href="../../tables/users.html" xlink:title="users" target="_top">
<polygon fill="#ffffff" stroke="transparent" points="10,-268.2 10,-395.2 126,-395.2 126,-268.2 10,-268.2"/>
<polygon fill="#f5f5f5" stroke="transparent" points="10,-371.7 10,-394.7 126,-394.7 126,-371.7 10,-371.7"/>
<polygon fill="none" stroke="#000000" points="10,-371.7 10,-394.7 126,-394.7 126,-371.7 10,-371.7"/>
<text text-anchor="start" x="15" y="-380.3" font-family="Helvetica,sans-Serif" font-weight="bold" font-size="11.00" fill="#000000">users</text>
<text text-anchor="start" x="91.0437" y="-379.8" font-family="Helvetica,sans-Serif" font-size="11.00" fill="#000000">[table]</text>
<polygon fill="none" stroke="#000000" points="10,-349.7 10,-371.7 126,-371.7 126,-349.7 10,-349.7"/>
<image xlink:href="../../images/primaryKeys.png" width="11px" height="12px" preserveAspectRatio="xMinYMin meet" x="15" y="-366.7"/>
<text text-anchor="start" x="30" y="-356.8" font-family="Helvetica,sans-Serif" font-size="11.00" fill="#000000">id</text>
<polygon fill="#ffffff" stroke="transparent" points="10,-327.7 10,-349.7 126,-349.7 126,-327.7 10,-327.7"/>
<polygon fill="none" stroke="#000000" points="10,-327.7 10,-349.7 126,-349.7 126,-327.7 10,-327.7"/>
<text text-anchor="start" x="30" y="-334.8" font-family="Helvetica,sans-Serif" font-size="11.00" fill="#000000">email</text>
<polygon fill="none" stroke="#000000" points="10,-305.7 10,-327.7 126,-327.7 126,-305.7 10,-305.7"/>
<image xlink:href="../../images/foreignKeys.png" width="11px" height="12px" preserveAspectRatio="xMinYMin meet" x="15" y="-322.7"/>
<text text-anchor="start" x="30" y="-312.8" font-family="Helvetica,sans-Serif" font-size="11.00" fill="#000000">instance_role_id</text>
<polygon fill="none" stroke="#000000" points="10,-286.7 10,-305.7 126,-305.7 126,-286.7 10,-286.7"/>
<text text-anchor="start" x="13" y="-292.8" font-family="Helvetica,sans-Serif" font-size="11.00" fill="#000000">...</text>
<polygon fill="#ffffff" stroke="transparent" points="10,-267.7 10,-286.7 49,-286.7 49,-267.7 10,-267.7"/>
<polygon fill="none" stroke="#000000" points="10,-267.7 10,-286.7 49,-286.7 49,-267.7 10,-267.7"/>
<text text-anchor="start" x="13" y="-273.8" font-family="Helvetica,sans-Serif" font-size="11.00" fill="#000000">&lt; 1</text>
<polygon fill="#ffffff" stroke="transparent" points="49,-267.7 49,-286.7 96,-286.7 96,-267.7 49,-267.7"/>
<polygon fill="none" stroke="#000000" points="49,-267.7 49,-286.7 96,-286.7 96,-267.7 49,-267.7"/>
<text text-anchor="start" x="60.6105" y="-273.8" font-family="Helvetica,sans-Serif" font-size="11.00" fill="#000000">0 rows</text>
<polygon fill="#ffffff" stroke="transparent" points="96,-267.7 96,-286.7 126,-286.7 126,-267.7 96,-267.7"/>
<polygon fill="none" stroke="#000000" points="96,-267.7 96,-286.7 126,-286.7 126,-267.7 96,-267.7"/>
<text text-anchor="start" x="107.4053" y="-273.8" font-family="Helvetica,sans-Serif" font-size="11.00" fill="#000000">4 &gt;</text>
</a>
</g>
</g>
<!-- chapter_users&#45;&gt;users -->
<g id="edge3" class="edge">
<title>chapter_users:w&#45;&gt;users:e</title>
<path fill="none" stroke="#000000" d="M164.6587,-238.0702C130.3947,-258.1077 180.8196,-360.7 126,-360.7"/>
<polygon fill="#000000" stroke="#000000" points="171.2122,-236.5302 179.8236,-238.2045 175.1061,-235.6151 179,-234.7 179,-234.7 179,-234.7 175.1061,-235.6151 178.1764,-231.1955 171.2122,-236.5302 171.2122,-236.5302"/>
<ellipse fill="none" stroke="#000000" cx="168.097" cy="-237.2623" rx="3.2" ry="3.2"/>
</g>
</g>
</svg>
