<?xml version="1.0" encoding="UTF-8" standalone="no"?>
<!DOCTYPE svg PUBLIC "-//W3C//DTD SVG 1.1//EN"
 "http://www.w3.org/Graphics/SVG/1.1/DTD/svg11.dtd">
<!-- Generated by graphviz version 2.40.1 (20161225.0304)
 -->
<!-- Title: oneDegreeRelationshipsDiagram Pages: 1 -->
<svg width="349pt" height="264pt"
 viewBox="0.00 0.00 349.00 263.70" xmlns="http://www.w3.org/2000/svg" xmlns:xlink="http://www.w3.org/1999/xlink">
<g id="graph0" class="graph" transform="scale(1 1) rotate(0) translate(4 259.7)">
<title>oneDegreeRelationshipsDiagram</title>
<polygon fill="#ffffff" stroke="transparent" points="-4,4 -4,-259.7 345,-259.7 345,4 -4,4"/>
<text text-anchor="middle" x="72.4936" y="-7.3" font-family="Helvetica,sans-Serif" font-size="11.00" fill="#000000">Generated by SchemaSpy</text>
<!-- chapter_tags -->
<g id="node1" class="node">
<title>chapter_tags</title>
<g id="a_node1"><a xlink:href="../../tables/chapter_tags.html" xlink:title="chapter_tags" target="_top">
<polygon fill="#ffffff" stroke="transparent" points="148,-117.7 148,-251.7 333,-251.7 333,-117.7 148,-117.7"/>
<polygon fill="#f5f5f5" stroke="transparent" points="150.5,-226.7 150.5,-249.7 331.5,-249.7 331.5,-226.7 150.5,-226.7"/>
<polygon fill="none" stroke="#000000" points="150.5,-226.7 150.5,-249.7 331.5,-249.7 331.5,-226.7 150.5,-226.7"/>
<text text-anchor="start" x="155.5" y="-235.3" font-family="Helvetica,sans-Serif" font-weight="bold" font-size="11.00" fill="#000000">chapter_tags</text>
<text text-anchor="start" x="296.5437" y="-234.8" font-family="Helvetica,sans-Serif" font-size="11.00" fill="#000000">[table]</text>
<polygon fill="none" stroke="#000000" points="150.5,-204.7 150.5,-226.7 247.5,-226.7 247.5,-204.7 150.5,-204.7"/>
<text text-anchor="start" x="170.5" y="-211.8" font-family="Helvetica,sans-Serif" font-size="11.00" fill="#000000">created_at</text>
<polygon fill="none" stroke="#000000" points="247.5,-204.7 247.5,-226.7 331.5,-226.7 331.5,-204.7 247.5,-204.7"/>
<text text-anchor="start" x="250.3807" y="-212.4" font-family="Helvetica,sans-Serif" font-size="11.00" fill="#000000">timestamp[26,3]</text>
<polygon fill="none" stroke="#000000" points="150.5,-182.7 150.5,-204.7 247.5,-204.7 247.5,-182.7 150.5,-182.7"/>
<text text-anchor="start" x="170.5" y="-189.8" font-family="Helvetica,sans-Serif" font-size="11.00" fill="#000000">updated_at</text>
<polygon fill="none" stroke="#000000" points="247.5,-182.7 247.5,-204.7 331.5,-204.7 331.5,-182.7 247.5,-182.7"/>
<text text-anchor="start" x="250.3807" y="-190.4" font-family="Helvetica,sans-Serif" font-size="11.00" fill="#000000">timestamp[26,3]</text>
<polygon fill="none" stroke="#000000" points="150.5,-160.7 150.5,-182.7 247.5,-182.7 247.5,-160.7 150.5,-160.7"/>
<image xlink:href="../../images/primaryKeys.png" width="11px" height="12px" preserveAspectRatio="xMinYMin meet" x="155.5" y="-177.7"/>
<text text-anchor="start" x="170.5" y="-167.8" font-family="Helvetica,sans-Serif" font-size="11.00" fill="#000000">chapter_id</text>
<polygon fill="none" stroke="#000000" points="247.5,-160.7 247.5,-182.7 331.5,-182.7 331.5,-160.7 247.5,-160.7"/>
<text text-anchor="start" x="250.5" y="-168.4" font-family="Helvetica,sans-Serif" font-size="11.00" fill="#000000">int4[10]</text>
<polygon fill="none" stroke="#000000" points="150.5,-138.7 150.5,-160.7 247.5,-160.7 247.5,-138.7 150.5,-138.7"/>
<image xlink:href="../../images/primaryKeys.png" width="11px" height="12px" preserveAspectRatio="xMinYMin meet" x="155.5" y="-155.7"/>
<text text-anchor="start" x="170.5" y="-145.8" font-family="Helvetica,sans-Serif" font-size="11.00" fill="#000000">tag_id</text>
<polygon fill="none" stroke="#000000" points="247.5,-138.7 247.5,-160.7 331.5,-160.7 331.5,-138.7 247.5,-138.7"/>
<text text-anchor="start" x="250.5" y="-146.4" font-family="Helvetica,sans-Serif" font-size="11.00" fill="#000000">int4[10]</text>
<polygon fill="#ffffff" stroke="transparent" points="150.5,-119.7 150.5,-138.7 190.5,-138.7 190.5,-119.7 150.5,-119.7"/>
<polygon fill="none" stroke="#000000" points="150.5,-119.7 150.5,-138.7 190.5,-138.7 190.5,-119.7 150.5,-119.7"/>
<text text-anchor="start" x="153.5" y="-125.8" font-family="Helvetica,sans-Serif" font-size="11.00" fill="#000000">&lt; 2</text>
<polygon fill="#ffffff" stroke="transparent" points="190.5,-119.7 190.5,-138.7 247.5,-138.7 247.5,-119.7 190.5,-119.7"/>
<polygon fill="none" stroke="#000000" points="190.5,-119.7 190.5,-138.7 247.5,-138.7 247.5,-119.7 190.5,-119.7"/>
<text text-anchor="start" x="212.1105" y="-125.8" font-family="Helvetica,sans-Serif" font-size="11.00" fill="#000000">0 rows</text>
<polygon fill="#ffffff" stroke="transparent" points="247.5,-119.7 247.5,-138.7 331.5,-138.7 331.5,-119.7 247.5,-119.7"/>
<polygon fill="none" stroke="#000000" points="247.5,-119.7 247.5,-138.7 331.5,-138.7 331.5,-119.7 247.5,-119.7"/>
<text text-anchor="start" x="312.9053" y="-125.8" font-family="Helvetica,sans-Serif" font-size="11.00" fill="#000000">0 &gt;</text>
<polygon fill="none" stroke="#000000" stroke-width="2" points="149,-118.7 149,-250.7 332,-250.7 332,-118.7 149,-118.7"/>
</a>
</g>
</g>
<!-- chapters -->
<g id="node2" class="node">
<title>chapters</title>
<g id="a_node2"><a xlink:href="../../tables/chapters.html" xlink:title="chapters" target="_top">
<polygon fill="#ffffff" stroke="transparent" points="8,-164.2 8,-247.2 99,-247.2 99,-164.2 8,-164.2"/>
<polygon fill="#f5f5f5" stroke="transparent" points="8.5,-223.7 8.5,-246.7 99.5,-246.7 99.5,-223.7 8.5,-223.7"/>
<polygon fill="none" stroke="#000000" points="8.5,-223.7 8.5,-246.7 99.5,-246.7 99.5,-223.7 8.5,-223.7"/>
<text text-anchor="start" x="13.5" y="-232.3" font-family="Helvetica,sans-Serif" font-weight="bold" font-size="11.00" fill="#000000">chapters</text>
<text text-anchor="start" x="65.0219" y="-231.8" font-family="Helvetica,sans-Serif" font-size="11.00" fill="#000000">[table]</text>
<polygon fill="none" stroke="#000000" points="8.5,-201.7 8.5,-223.7 99.5,-223.7 99.5,-201.7 8.5,-201.7"/>
<image xlink:href="../../images/primaryKeys.png" width="11px" height="12px" preserveAspectRatio="xMinYMin meet" x="13.5" y="-218.7"/>
<text text-anchor="start" x="29.5" y="-208.8" font-family="Helvetica,sans-Serif" font-size="11.00" fill="#000000">id</text>
<polygon fill="none" stroke="#000000" points="8.5,-182.7 8.5,-201.7 99.5,-201.7 99.5,-182.7 8.5,-182.7"/>
<text text-anchor="start" x="11.5" y="-188.8" font-family="Helvetica,sans-Serif" font-size="11.00" fill="#000000">...</text>
<polygon fill="#ffffff" stroke="transparent" points="8.5,-163.7 8.5,-182.7 30.5,-182.7 30.5,-163.7 8.5,-163.7"/>
<polygon fill="none" stroke="#000000" points="8.5,-163.7 8.5,-182.7 30.5,-182.7 30.5,-163.7 8.5,-163.7"/>
<text text-anchor="start" x="11.5" y="-169.8" font-family="Helvetica,sans-Serif" font-size="11.00" fill="#000000"> &#160;</text>
<polygon fill="#ffffff" stroke="transparent" points="30.5,-163.7 30.5,-182.7 73.5,-182.7 73.5,-163.7 30.5,-163.7"/>
<polygon fill="none" stroke="#000000" points="30.5,-163.7 30.5,-182.7 73.5,-182.7 73.5,-163.7 30.5,-163.7"/>
<text text-anchor="start" x="38.1105" y="-169.8" font-family="Helvetica,sans-Serif" font-size="11.00" fill="#000000">0 rows</text>
<polygon fill="#ffffff" stroke="transparent" points="73.5,-163.7 73.5,-182.7 99.5,-182.7 99.5,-163.7 73.5,-163.7"/>
<polygon fill="none" stroke="#000000" points="73.5,-163.7 73.5,-182.7 99.5,-182.7 99.5,-163.7 73.5,-163.7"/>
<text text-anchor="start" x="80.9053" y="-169.8" font-family="Helvetica,sans-Serif" font-size="11.00" fill="#000000">5 &gt;</text>
</a>
</g>
</g>
<!-- chapter_tags&#45;&gt;chapters -->
<g id="edge1" class="edge">
<title>chapter_tags:w&#45;&gt;chapters:e</title>
<path fill="none" stroke="#000000" d="M136.6568,-176.0877C122.8325,-186.6646 122.6756,-212.7 99.5,-212.7"/>
<polygon fill="#000000" stroke="#000000" points="142.8739,-174.1172 151.5877,-175.1317 146.6869,-172.9086 150.5,-171.7 150.5,-171.7 150.5,-171.7 146.6869,-172.9086 149.4123,-168.2683 142.8739,-174.1172 142.8739,-174.1172"/>
<ellipse fill="none" stroke="#000000" cx="139.8235" cy="-175.0841" rx="3.2" ry="3.2"/>
</g>
<!-- tags -->
<g id="node3" class="node">
<title>tags</title>
<g id="a_node3"><a xlink:href="../../tables/tags.html" xlink:title="tags" target="_top">
<polygon fill="#ffffff" stroke="transparent" points="9.5,-38.2 9.5,-143.2 97.5,-143.2 97.5,-38.2 9.5,-38.2"/>
<polygon fill="#f5f5f5" stroke="transparent" points="9.5,-119.7 9.5,-142.7 97.5,-142.7 97.5,-119.7 9.5,-119.7"/>
<polygon fill="none" stroke="#000000" points="9.5,-119.7 9.5,-142.7 97.5,-142.7 97.5,-119.7 9.5,-119.7"/>
<text text-anchor="start" x="14.5" y="-128.3" font-family="Helvetica,sans-Serif" font-weight="bold" font-size="11.00" fill="#000000">tags</text>
<text text-anchor="start" x="62.5437" y="-127.8" font-family="Helvetica,sans-Serif" font-size="11.00" fill="#000000">[table]</text>
<polygon fill="none" stroke="#000000" points="9.5,-97.7 9.5,-119.7 97.5,-119.7 97.5,-97.7 9.5,-97.7"/>
<image xlink:href="../../images/primaryKeys.png" width="11px" height="12px" preserveAspectRatio="xMinYMin meet" x="14.5" y="-114.7"/>
<text text-anchor="start" x="29.5" y="-104.8" font-family="Helvetica,sans-Serif" font-size="11.00" fill="#000000">id</text>
<polygon fill="#ffffff" stroke="transparent" points="9.5,-75.7 9.5,-97.7 97.5,-97.7 97.5,-75.7 9.5,-75.7"/>
<polygon fill="none" stroke="#000000" points="9.5,-75.7 9.5,-97.7 97.5,-97.7 97.5,-75.7 9.5,-75.7"/>
<text text-anchor="start" x="29.5" y="-82.8" font-family="Helvetica,sans-Serif" font-size="11.00" fill="#000000">name</text>
<polygon fill="none" stroke="#000000" points="9.5,-56.7 9.5,-75.7 97.5,-75.7 97.5,-56.7 9.5,-56.7"/>
<text text-anchor="start" x="12.5" y="-62.8" font-family="Helvetica,sans-Serif" font-size="11.00" fill="#000000">...</text>
<polygon fill="#ffffff" stroke="transparent" points="9.5,-37.7 9.5,-56.7 29.5,-56.7 29.5,-37.7 9.5,-37.7"/>
<polygon fill="none" stroke="#000000" points="9.5,-37.7 9.5,-56.7 29.5,-56.7 29.5,-37.7 9.5,-37.7"/>
<text text-anchor="start" x="12.5" y="-43.8" font-family="Helvetica,sans-Serif" font-size="11.00" fill="#000000"> &#160;</text>
<polygon fill="#ffffff" stroke="transparent" points="29.5,-37.7 29.5,-56.7 71.5,-56.7 71.5,-37.7 29.5,-37.7"/>
<polygon fill="none" stroke="#000000" points="29.5,-37.7 29.5,-56.7 71.5,-56.7 71.5,-37.7 29.5,-37.7"/>
<text text-anchor="start" x="36.1105" y="-43.8" font-family="Helvetica,sans-Serif" font-size="11.00" fill="#000000">0 rows</text>
<polygon fill="#ffffff" stroke="transparent" points="71.5,-37.7 71.5,-56.7 97.5,-56.7 97.5,-37.7 71.5,-37.7"/>
<polygon fill="none" stroke="#000000" points="71.5,-37.7 71.5,-56.7 97.5,-56.7 97.5,-37.7 71.5,-37.7"/>
<text text-anchor="start" x="78.9053" y="-43.8" font-family="Helvetica,sans-Serif" font-size="11.00" fill="#000000">3 &gt;</text>
</a>
</g>
</g>
<!-- chapter_tags&#45;&gt;tags -->
<g id="edge2" class="edge">
<title>chapter_tags:w&#45;&gt;tags:e</title>
<path fill="none" stroke="#000000" d="M136.6677,-145.6189C121.8959,-135.2484 121.4645,-108.7 97.5,-108.7"/>
<polygon fill="#000000" stroke="#000000" points="142.827,-147.4361 149.4812,-153.1528 146.6635,-148.568 150.5,-149.7 150.5,-149.7 150.5,-149.7 146.6635,-148.568 151.5188,-146.2472 142.827,-147.4361 142.827,-147.4361"/>
<ellipse fill="none" stroke="#000000" cx="139.7578" cy="-146.5305" rx="3.2" ry="3.2"/>
</g>
</g>
</svg>
