<?xml version="1.0" encoding="UTF-8" standalone="no"?>
<!DOCTYPE svg PUBLIC "-//W3C//DTD SVG 1.1//EN"
 "http://www.w3.org/Graphics/SVG/1.1/DTD/svg11.dtd">
<!-- Generated by graphviz version 2.40.1 (20161225.0304)
 -->
<!-- Title: twoDegreesRelationshipsDiagram Pages: 1 -->
<svg width="485pt" height="267pt"
 viewBox="0.00 0.00 485.00 266.70" xmlns="http://www.w3.org/2000/svg" xmlns:xlink="http://www.w3.org/1999/xlink">
<g id="graph0" class="graph" transform="scale(1 1) rotate(0) translate(4 262.7)">
<title>twoDegreesRelationshipsDiagram</title>
<polygon fill="#ffffff" stroke="transparent" points="-4,4 -4,-262.7 481,-262.7 481,4 -4,4"/>
<text text-anchor="middle" x="72.4936" y="-7.3" font-family="Helvetica,sans-Serif" font-size="11.00" fill="#000000">Generated by SchemaSpy</text>
<!-- chapter_role_permissions -->
<g id="node1" class="node">
<title>chapter_role_permissions</title>
<g id="a_node1"><a xlink:href="../../tables/chapter_role_permissions.html" xlink:title="chapter_role_permissions" target="_top">
<polygon fill="#ffffff" stroke="transparent" points="296,-96.7 296,-201.7 469,-201.7 469,-96.7 296,-96.7"/>
<polygon fill="#f5f5f5" stroke="transparent" points="296.5,-178.2 296.5,-201.2 469.5,-201.2 469.5,-178.2 296.5,-178.2"/>
<polygon fill="none" stroke="#000000" points="296.5,-178.2 296.5,-201.2 469.5,-201.2 469.5,-178.2 296.5,-178.2"/>
<text text-anchor="start" x="301.5" y="-187.3" font-family="Helvetica,sans-Serif" font-weight="bold" font-size="11.00" fill="#000000">chapter_role_permissions</text>
<text text-anchor="start" x="434.5437" y="-186.3" font-family="Helvetica,sans-Serif" font-size="11.00" fill="#000000">[table]</text>
<polygon fill="none" stroke="#000000" points="296.5,-156.2 296.5,-178.2 469.5,-178.2 469.5,-156.2 296.5,-156.2"/>
<image xlink:href="../../images/primaryKeys.png" width="11px" height="12px" preserveAspectRatio="xMinYMin meet" x="301.5" y="-173.2"/>
<text text-anchor="start" x="316.5" y="-163.3" font-family="Helvetica,sans-Serif" font-size="11.00" fill="#000000">chapter_role_id</text>
<polygon fill="none" stroke="#000000" points="296.5,-134.2 296.5,-156.2 469.5,-156.2 469.5,-134.2 296.5,-134.2"/>
<image xlink:href="../../images/primaryKeys.png" width="11px" height="12px" preserveAspectRatio="xMinYMin meet" x="301.5" y="-151.2"/>
<text text-anchor="start" x="316.5" y="-141.3" font-family="Helvetica,sans-Serif" font-size="11.00" fill="#000000">chapter_permissions_id</text>
<polygon fill="none" stroke="#000000" points="296.5,-115.2 296.5,-134.2 469.5,-134.2 469.5,-115.2 296.5,-115.2"/>
<text text-anchor="start" x="299.5" y="-121.3" font-family="Helvetica,sans-Serif" font-size="11.00" fill="#000000">...</text>
<polygon fill="#ffffff" stroke="transparent" points="296.5,-96.2 296.5,-115.2 365.5,-115.2 365.5,-96.2 296.5,-96.2"/>
<polygon fill="none" stroke="#000000" points="296.5,-96.2 296.5,-115.2 365.5,-115.2 365.5,-96.2 296.5,-96.2"/>
<text text-anchor="start" x="299.5" y="-102.3" font-family="Helvetica,sans-Serif" font-size="11.00" fill="#000000">&lt; 2</text>
<polygon fill="#ffffff" stroke="transparent" points="365.5,-96.2 365.5,-115.2 433.5,-115.2 433.5,-96.2 365.5,-96.2"/>
<polygon fill="none" stroke="#000000" points="365.5,-96.2 365.5,-115.2 433.5,-115.2 433.5,-96.2 365.5,-96.2"/>
<text text-anchor="start" x="391.9956" y="-102.3" font-family="Helvetica,sans-Serif" font-size="11.00" fill="#000000">16 rows</text>
<polygon fill="#ffffff" stroke="transparent" points="433.5,-96.2 433.5,-115.2 469.5,-115.2 469.5,-96.2 433.5,-96.2"/>
<polygon fill="none" stroke="#000000" points="433.5,-96.2 433.5,-115.2 469.5,-115.2 469.5,-96.2 433.5,-96.2"/>
<text text-anchor="start" x="460.3862" y="-102.3" font-family="Helvetica,sans-Serif" font-size="11.00" fill="#000000"> &#160;</text>
</a>
</g>
</g>
<!-- chapter_permissions -->
<g id="node2" class="node">
<title>chapter_permissions</title>
<g id="a_node2"><a xlink:href="../../tables/chapter_permissions.html" xlink:title="chapter_permissions" target="_top">
<polygon fill="#ffffff" stroke="transparent" points="8,-38.2 8,-172.2 247,-172.2 247,-38.2 8,-38.2"/>
<polygon fill="#f5f5f5" stroke="transparent" points="10.5,-147.2 10.5,-170.2 245.5,-170.2 245.5,-147.2 10.5,-147.2"/>
<polygon fill="none" stroke="#000000" points="10.5,-147.2 10.5,-170.2 245.5,-170.2 245.5,-147.2 10.5,-147.2"/>
<text text-anchor="start" x="15.5" y="-156.3" font-family="Helvetica,sans-Serif" font-weight="bold" font-size="11.00" fill="#000000">chapter_permissions</text>
<text text-anchor="start" x="210.5437" y="-155.3" font-family="Helvetica,sans-Serif" font-size="11.00" fill="#000000">[table]</text>
<polygon fill="none" stroke="#000000" points="10.5,-125.2 10.5,-147.2 155.5,-147.2 155.5,-125.2 10.5,-125.2"/>
<text text-anchor="start" x="30.5" y="-132.3" font-family="Helvetica,sans-Serif" font-size="11.00" fill="#000000">created_at</text>
<polygon fill="none" stroke="#000000" points="155.5,-125.2 155.5,-147.2 245.5,-147.2 245.5,-125.2 155.5,-125.2"/>
<text text-anchor="start" x="158.5" y="-132.9" font-family="Helvetica,sans-Serif" font-size="11.00" fill="#000000">timestamp[26,3]</text>
<polygon fill="none" stroke="#000000" points="10.5,-103.2 10.5,-125.2 155.5,-125.2 155.5,-103.2 10.5,-103.2"/>
<text text-anchor="start" x="30.5" y="-110.3" font-family="Helvetica,sans-Serif" font-size="11.00" fill="#000000">updated_at</text>
<polygon fill="none" stroke="#000000" points="155.5,-103.2 155.5,-125.2 245.5,-125.2 245.5,-103.2 155.5,-103.2"/>
<text text-anchor="start" x="158.5" y="-110.9" font-family="Helvetica,sans-Serif" font-size="11.00" fill="#000000">timestamp[26,3]</text>
<polygon fill="none" stroke="#000000" points="10.5,-81.2 10.5,-103.2 155.5,-103.2 155.5,-81.2 10.5,-81.2"/>
<image xlink:href="../../images/primaryKeys.png" width="11px" height="12px" preserveAspectRatio="xMinYMin meet" x="15.5" y="-98.2"/>
<text text-anchor="start" x="30.5" y="-88.3" font-family="Helvetica,sans-Serif" font-size="11.00" fill="#000000">id</text>
<polygon fill="none" stroke="#000000" points="155.5,-81.2 155.5,-103.2 245.5,-103.2 245.5,-81.2 155.5,-81.2"/>
<text text-anchor="start" x="158.5" y="-88.9" font-family="Helvetica,sans-Serif" font-size="11.00" fill="#000000">serial[10]</text>
<polygon fill="#ffffff" stroke="transparent" points="10.5,-59.2 10.5,-81.2 155.5,-81.2 155.5,-59.2 10.5,-59.2"/>
<polygon fill="none" stroke="#000000" points="10.5,-59.2 10.5,-81.2 155.5,-81.2 155.5,-59.2 10.5,-59.2"/>
<text text-anchor="start" x="30.5" y="-66.3" font-family="Helvetica,sans-Serif" font-size="11.00" fill="#000000">name</text>
<polygon fill="none" stroke="#000000" points="155.5,-59.2 155.5,-81.2 245.5,-81.2 245.5,-59.2 155.5,-59.2"/>
<text text-anchor="start" x="158.0042" y="-66.9" font-family="Helvetica,sans-Serif" font-size="11.00" fill="#000000">text[2147483647]</text>
<polygon fill="#ffffff" stroke="transparent" points="10.5,-40.2 10.5,-59.2 71.5,-59.2 71.5,-40.2 10.5,-40.2"/>
<polygon fill="none" stroke="#000000" points="10.5,-40.2 10.5,-59.2 71.5,-59.2 71.5,-40.2 10.5,-40.2"/>
<text text-anchor="start" x="13.5" y="-46.3" font-family="Helvetica,sans-Serif" font-size="11.00" fill="#000000">&lt; 0</text>
<polygon fill="#ffffff" stroke="transparent" points="71.5,-40.2 71.5,-59.2 155.5,-59.2 155.5,-40.2 71.5,-40.2"/>
<polygon fill="none" stroke="#000000" points="71.5,-40.2 71.5,-59.2 155.5,-59.2 155.5,-40.2 71.5,-40.2"/>
<text text-anchor="start" x="113.9956" y="-46.3" font-family="Helvetica,sans-Serif" font-size="11.00" fill="#000000">14 rows</text>
<polygon fill="#ffffff" stroke="transparent" points="155.5,-40.2 155.5,-59.2 245.5,-59.2 245.5,-40.2 155.5,-40.2"/>
<polygon fill="none" stroke="#000000" points="155.5,-40.2 155.5,-59.2 245.5,-59.2 245.5,-40.2 155.5,-40.2"/>
<text text-anchor="start" x="226.9053" y="-46.3" font-family="Helvetica,sans-Serif" font-size="11.00" fill="#000000">1 &gt;</text>
<polygon fill="none" stroke="#000000" stroke-width="2" points="9,-39.2 9,-171.2 246,-171.2 246,-39.2 9,-39.2"/>
</a>
</g>
</g>
<!-- chapter_role_permissions&#45;&gt;chapter_permissions -->
<g id="edge1" class="edge">
<title>chapter_role_permissions:w&#45;&gt;chapter_permissions:e</title>
<path fill="none" stroke="#000000" d="M282.4557,-140.3089C267.5477,-127.1883 272.0607,-92.2 245.5,-92.2"/>
<polygon fill="#000000" stroke="#000000" points="288.945,-142.5689 295.316,-148.5997 292.7225,-143.8844 296.5,-145.2 296.5,-145.2 296.5,-145.2 292.7225,-143.8844 297.684,-141.8003 288.945,-142.5689 288.945,-142.5689"/>
<ellipse fill="none" stroke="#000000" cx="285.9231" cy="-141.5164" rx="3.2" ry="3.2"/>
</g>
<!-- chapter_roles -->
<g id="node3" class="node">
<title>chapter_roles</title>
<g id="a_node3"><a xlink:href="../../tables/chapter_roles.html" xlink:title="chapter_roles" target="_top">
<polygon fill="#ffffff" stroke="transparent" points="73,-193.7 73,-254.7 182,-254.7 182,-193.7 73,-193.7"/>
<polygon fill="#f5f5f5" stroke="transparent" points="73.5,-231.2 73.5,-254.2 182.5,-254.2 182.5,-231.2 73.5,-231.2"/>
<polygon fill="none" stroke="#000000" points="73.5,-231.2 73.5,-254.2 182.5,-254.2 182.5,-231.2 73.5,-231.2"/>
<text text-anchor="start" x="78.1871" y="-240.3" font-family="Helvetica,sans-Serif" font-weight="bold" font-size="11.00" fill="#000000">chapter_roles</text>
<text text-anchor="start" x="148.0219" y="-239.3" font-family="Helvetica,sans-Serif" font-size="11.00" fill="#000000">[table]</text>
<polygon fill="none" stroke="#000000" points="73.5,-212.2 73.5,-231.2 182.5,-231.2 182.5,-212.2 73.5,-212.2"/>
<text text-anchor="start" x="76.5" y="-218.3" font-family="Helvetica,sans-Serif" font-size="11.00" fill="#000000">...</text>
<polygon fill="#ffffff" stroke="transparent" points="73.5,-193.2 73.5,-212.2 104.5,-212.2 104.5,-193.2 73.5,-193.2"/>
<polygon fill="none" stroke="#000000" points="73.5,-193.2 73.5,-212.2 104.5,-212.2 104.5,-193.2 73.5,-193.2"/>
<text text-anchor="start" x="76.5" y="-199.3" font-family="Helvetica,sans-Serif" font-size="11.00" fill="#000000"> &#160;</text>
<polygon fill="#ffffff" stroke="transparent" points="104.5,-193.2 104.5,-212.2 151.5,-212.2 151.5,-193.2 104.5,-193.2"/>
<polygon fill="none" stroke="#000000" points="104.5,-193.2 104.5,-212.2 151.5,-212.2 151.5,-193.2 104.5,-193.2"/>
<text text-anchor="start" x="116.1105" y="-199.3" font-family="Helvetica,sans-Serif" font-size="11.00" fill="#000000">2 rows</text>
<polygon fill="#ffffff" stroke="transparent" points="151.5,-193.2 151.5,-212.2 182.5,-212.2 182.5,-193.2 151.5,-193.2"/>
<polygon fill="none" stroke="#000000" points="151.5,-193.2 151.5,-212.2 182.5,-212.2 182.5,-193.2 151.5,-193.2"/>
<text text-anchor="start" x="163.9053" y="-199.3" font-family="Helvetica,sans-Serif" font-size="11.00" fill="#000000">2 &gt;</text>
</a>
</g>
</g>
<!-- chapter_role_permissions&#45;&gt;chapter_roles -->
<g id="edge2" class="edge">
<title>chapter_role_permissions:w&#45;&gt;chapter_roles:e</title>
<path fill="none" stroke="#000000" d="M282.236,-170.4162C251.9273,-182.0414 206.3708,-221.2 182.5,-221.2"/>
<polygon fill="#000000" stroke="#000000" points="288.6959,-168.9597 297.2919,-170.7118 292.598,-168.0798 296.5,-167.2 296.5,-167.2 296.5,-167.2 292.598,-168.0798 295.7081,-163.6882 288.6959,-168.9597 288.6959,-168.9597"/>
<ellipse fill="none" stroke="#000000" cx="285.5743" cy="-169.6636" rx="3.2" ry="3.2"/>
</g>
</g>
</svg>
