<?xml version="1.0" encoding="UTF-8" standalone="no"?>
<!DOCTYPE svg PUBLIC "-//W3C//DTD SVG 1.1//EN"
 "http://www.w3.org/Graphics/SVG/1.1/DTD/svg11.dtd">
<!-- Generated by graphviz version 2.40.1 (20161225.0304)
 -->
<!-- Title: twoDegreesRelationshipsDiagram Pages: 1 -->
<svg width="831pt" height="552pt"
 viewBox="0.00 0.00 831.00 552.20" xmlns="http://www.w3.org/2000/svg" xmlns:xlink="http://www.w3.org/1999/xlink">
<g id="graph0" class="graph" transform="scale(1 1) rotate(0) translate(4 548.2)">
<title>twoDegreesRelationshipsDiagram</title>
<polygon fill="#ffffff" stroke="transparent" points="-4,4 -4,-548.2 827,-548.2 827,4 -4,4"/>
<text text-anchor="middle" x="72.4936" y="-7.3" font-family="Helvetica,sans-Serif" font-size="11.00" fill="#000000">Generated by SchemaSpy</text>
<!-- chapter_role_permissions -->
<g id="node1" class="node">
<title>chapter_role_permissions</title>
<g id="a_node1"><a xlink:href="../../tables/chapter_role_permissions.html" xlink:title="chapter_role_permissions" target="_top">
<polygon fill="#ffffff" stroke="transparent" points="351,-479.2 351,-540.2 519,-540.2 519,-479.2 351,-479.2"/>
<polygon fill="#f5f5f5" stroke="transparent" points="351,-516.7 351,-539.7 519,-539.7 519,-516.7 351,-516.7"/>
<polygon fill="none" stroke="#000000" points="351,-516.7 351,-539.7 519,-539.7 519,-516.7 351,-516.7"/>
<text text-anchor="start" x="355.547" y="-525.8" font-family="Helvetica,sans-Serif" font-weight="bold" font-size="11.00" fill="#000000">chapter_role_permissions</text>
<text text-anchor="start" x="484.5219" y="-524.8" font-family="Helvetica,sans-Serif" font-size="11.00" fill="#000000">[table]</text>
<polygon fill="none" stroke="#000000" points="351,-497.7 351,-516.7 519,-516.7 519,-497.7 351,-497.7"/>
<text text-anchor="start" x="354" y="-503.8" font-family="Helvetica,sans-Serif" font-size="11.00" fill="#000000">...</text>
<polygon fill="#ffffff" stroke="transparent" points="351,-478.7 351,-497.7 420,-497.7 420,-478.7 351,-478.7"/>
<polygon fill="none" stroke="#000000" points="351,-478.7 351,-497.7 420,-497.7 420,-478.7 351,-478.7"/>
<text text-anchor="start" x="354" y="-484.8" font-family="Helvetica,sans-Serif" font-size="11.00" fill="#000000">&lt; 2</text>
<polygon fill="#ffffff" stroke="transparent" points="420,-478.7 420,-497.7 482,-497.7 482,-478.7 420,-478.7"/>
<polygon fill="none" stroke="#000000" points="420,-478.7 420,-497.7 482,-497.7 482,-478.7 420,-478.7"/>
<text text-anchor="start" x="446.6105" y="-484.8" font-family="Helvetica,sans-Serif" font-size="11.00" fill="#000000">0 rows</text>
<polygon fill="#ffffff" stroke="transparent" points="482,-478.7 482,-497.7 519,-497.7 519,-478.7 482,-478.7"/>
<polygon fill="none" stroke="#000000" points="482,-478.7 482,-497.7 519,-497.7 519,-478.7 482,-478.7"/>
<text text-anchor="start" x="509.8862" y="-484.8" font-family="Helvetica,sans-Serif" font-size="11.00" fill="#000000"> &#160;</text>
</a>
</g>
</g>
<!-- chapter_roles -->
<g id="node2" class="node">
<title>chapter_roles</title>
<g id="a_node2"><a xlink:href="../../tables/chapter_roles.html" xlink:title="chapter_roles" target="_top">
<polygon fill="#ffffff" stroke="transparent" points="173.5,-381.2 173.5,-486.2 282.5,-486.2 282.5,-381.2 173.5,-381.2"/>
<polygon fill="#f5f5f5" stroke="transparent" points="174,-462.7 174,-485.7 283,-485.7 283,-462.7 174,-462.7"/>
<polygon fill="none" stroke="#000000" points="174,-462.7 174,-485.7 283,-485.7 283,-462.7 174,-462.7"/>
<text text-anchor="start" x="178.6871" y="-471.8" font-family="Helvetica,sans-Serif" font-weight="bold" font-size="11.00" fill="#000000">chapter_roles</text>
<text text-anchor="start" x="248.5219" y="-470.8" font-family="Helvetica,sans-Serif" font-size="11.00" fill="#000000">[table]</text>
<polygon fill="none" stroke="#000000" points="174,-440.7 174,-462.7 283,-462.7 283,-440.7 174,-440.7"/>
<image xlink:href="../../images/primaryKeys.png" width="11px" height="12px" preserveAspectRatio="xMinYMin meet" x="179" y="-457.7"/>
<text text-anchor="start" x="198" y="-447.8" font-family="Helvetica,sans-Serif" font-size="11.00" fill="#000000">id</text>
<polygon fill="#ffffff" stroke="transparent" points="174,-418.7 174,-440.7 283,-440.7 283,-418.7 174,-418.7"/>
<polygon fill="none" stroke="#000000" points="174,-418.7 174,-440.7 283,-440.7 283,-418.7 174,-418.7"/>
<text text-anchor="start" x="198" y="-425.8" font-family="Helvetica,sans-Serif" font-size="11.00" fill="#000000">name</text>
<polygon fill="none" stroke="#000000" points="174,-399.7 174,-418.7 283,-418.7 283,-399.7 174,-399.7"/>
<text text-anchor="start" x="177" y="-405.8" font-family="Helvetica,sans-Serif" font-size="11.00" fill="#000000">...</text>
<polygon fill="#ffffff" stroke="transparent" points="174,-380.7 174,-399.7 205,-399.7 205,-380.7 174,-380.7"/>
<polygon fill="none" stroke="#000000" points="174,-380.7 174,-399.7 205,-399.7 205,-380.7 174,-380.7"/>
<text text-anchor="start" x="177" y="-386.8" font-family="Helvetica,sans-Serif" font-size="11.00" fill="#000000"> &#160;</text>
<polygon fill="#ffffff" stroke="transparent" points="205,-380.7 205,-399.7 252,-399.7 252,-380.7 205,-380.7"/>
<polygon fill="none" stroke="#000000" points="205,-380.7 205,-399.7 252,-399.7 252,-380.7 205,-380.7"/>
<text text-anchor="start" x="216.6105" y="-386.8" font-family="Helvetica,sans-Serif" font-size="11.00" fill="#000000">0 rows</text>
<polygon fill="#ffffff" stroke="transparent" points="252,-380.7 252,-399.7 283,-399.7 283,-380.7 252,-380.7"/>
<polygon fill="none" stroke="#000000" points="252,-380.7 252,-399.7 283,-399.7 283,-380.7 252,-380.7"/>
<text text-anchor="start" x="264.4053" y="-386.8" font-family="Helvetica,sans-Serif" font-size="11.00" fill="#000000">2 &gt;</text>
</a>
</g>
</g>
<!-- chapter_role_permissions&#45;&gt;chapter_roles -->
<g id="edge1" class="edge">
<title>chapter_role_permissions:w&#45;&gt;chapter_roles:e</title>
<path fill="none" stroke="#000000" d="M336.8988,-503.5854C313.9298,-491.9505 316.2525,-451.7 283,-451.7"/>
<polygon fill="#000000" stroke="#000000" points="343.1883,-504.9745 350.2235,-510.2153 347.0941,-505.8373 351,-506.7 351,-506.7 351,-506.7 347.0941,-505.8373 351.7765,-503.1847 343.1883,-504.9745 343.1883,-504.9745"/>
<ellipse fill="none" stroke="#000000" cx="340.0636" cy="-504.2843" rx="3.2" ry="3.2"/>
</g>
<!-- chapter_users -->
<g id="node3" class="node">
<title>chapter_users</title>
<g id="a_node3"><a xlink:href="../../tables/chapter_users.html" xlink:title="chapter_users" target="_top">
<polygon fill="#ffffff" stroke="transparent" points="335,-257.7 335,-457.7 535,-457.7 535,-257.7 335,-257.7"/>
<polygon fill="#f5f5f5" stroke="transparent" points="337,-432.7 337,-455.7 533,-455.7 533,-432.7 337,-432.7"/>
<polygon fill="none" stroke="#000000" points="337,-432.7 337,-455.7 533,-455.7 533,-432.7 337,-432.7"/>
<text text-anchor="start" x="342" y="-441.8" font-family="Helvetica,sans-Serif" font-weight="bold" font-size="11.00" fill="#000000">chapter_users</text>
<text text-anchor="start" x="498.0437" y="-440.8" font-family="Helvetica,sans-Serif" font-size="11.00" fill="#000000">[table]</text>
<polygon fill="none" stroke="#000000" points="337,-410.7 337,-432.7 449,-432.7 449,-410.7 337,-410.7"/>
<text text-anchor="start" x="357" y="-417.8" font-family="Helvetica,sans-Serif" font-size="11.00" fill="#000000">created_at</text>
<polygon fill="none" stroke="#000000" points="449,-410.7 449,-432.7 533,-432.7 533,-410.7 449,-410.7"/>
<text text-anchor="start" x="451.8807" y="-418.4" font-family="Helvetica,sans-Serif" font-size="11.00" fill="#000000">timestamp[26,3]</text>
<polygon fill="none" stroke="#000000" points="337,-388.7 337,-410.7 449,-410.7 449,-388.7 337,-388.7"/>
<text text-anchor="start" x="357" y="-395.8" font-family="Helvetica,sans-Serif" font-size="11.00" fill="#000000">updated_at</text>
<polygon fill="none" stroke="#000000" points="449,-388.7 449,-410.7 533,-410.7 533,-388.7 449,-388.7"/>
<text text-anchor="start" x="451.8807" y="-396.4" font-family="Helvetica,sans-Serif" font-size="11.00" fill="#000000">timestamp[26,3]</text>
<polygon fill="none" stroke="#000000" points="337,-366.7 337,-388.7 449,-388.7 449,-366.7 337,-366.7"/>
<text text-anchor="start" x="357" y="-373.8" font-family="Helvetica,sans-Serif" font-size="11.00" fill="#000000">joined_date</text>
<polygon fill="none" stroke="#000000" points="449,-366.7 449,-388.7 533,-388.7 533,-366.7 449,-366.7"/>
<text text-anchor="start" x="451.8807" y="-374.4" font-family="Helvetica,sans-Serif" font-size="11.00" fill="#000000">timestamp[26,3]</text>
<polygon fill="none" stroke="#000000" points="337,-344.7 337,-366.7 449,-366.7 449,-344.7 337,-344.7"/>
<image xlink:href="../../images/primaryKeys.png" width="11px" height="12px" preserveAspectRatio="xMinYMin meet" x="342" y="-361.7"/>
<text text-anchor="start" x="357" y="-351.8" font-family="Helvetica,sans-Serif" font-size="11.00" fill="#000000">user_id</text>
<polygon fill="none" stroke="#000000" points="449,-344.7 449,-366.7 533,-366.7 533,-344.7 449,-344.7"/>
<text text-anchor="start" x="452" y="-352.4" font-family="Helvetica,sans-Serif" font-size="11.00" fill="#000000">int4[10]</text>
<polygon fill="none" stroke="#000000" points="337,-322.7 337,-344.7 449,-344.7 449,-322.7 337,-322.7"/>
<image xlink:href="../../images/primaryKeys.png" width="11px" height="12px" preserveAspectRatio="xMinYMin meet" x="342" y="-339.7"/>
<text text-anchor="start" x="357" y="-329.8" font-family="Helvetica,sans-Serif" font-size="11.00" fill="#000000">chapter_id</text>
<polygon fill="none" stroke="#000000" points="449,-322.7 449,-344.7 533,-344.7 533,-322.7 449,-322.7"/>
<text text-anchor="start" x="452" y="-330.4" font-family="Helvetica,sans-Serif" font-size="11.00" fill="#000000">int4[10]</text>
<polygon fill="none" stroke="#000000" points="337,-300.7 337,-322.7 449,-322.7 449,-300.7 337,-300.7"/>
<image xlink:href="../../images/foreignKeys.png" width="11px" height="12px" preserveAspectRatio="xMinYMin meet" x="342" y="-317.7"/>
<text text-anchor="start" x="357" y="-307.8" font-family="Helvetica,sans-Serif" font-size="11.00" fill="#000000">chapter_role_id</text>
<polygon fill="none" stroke="#000000" points="449,-300.7 449,-322.7 533,-322.7 533,-300.7 449,-300.7"/>
<text text-anchor="start" x="452" y="-308.4" font-family="Helvetica,sans-Serif" font-size="11.00" fill="#000000">int4[10]</text>
<polygon fill="none" stroke="#000000" points="337,-278.7 337,-300.7 449,-300.7 449,-278.7 337,-278.7"/>
<text text-anchor="start" x="357" y="-285.8" font-family="Helvetica,sans-Serif" font-size="11.00" fill="#000000">subscribed</text>
<polygon fill="none" stroke="#000000" points="449,-278.7 449,-300.7 533,-300.7 533,-278.7 449,-278.7"/>
<text text-anchor="start" x="452" y="-286.4" font-family="Helvetica,sans-Serif" font-size="11.00" fill="#000000">bool[1]</text>
<polygon fill="#ffffff" stroke="transparent" points="337,-259.7 337,-278.7 384,-278.7 384,-259.7 337,-259.7"/>
<polygon fill="none" stroke="#000000" points="337,-259.7 337,-278.7 384,-278.7 384,-259.7 337,-259.7"/>
<text text-anchor="start" x="340" y="-265.8" font-family="Helvetica,sans-Serif" font-size="11.00" fill="#000000">&lt; 3</text>
<polygon fill="#ffffff" stroke="transparent" points="384,-259.7 384,-278.7 449,-278.7 449,-259.7 384,-259.7"/>
<polygon fill="none" stroke="#000000" points="384,-259.7 384,-278.7 449,-278.7 449,-259.7 384,-259.7"/>
<text text-anchor="start" x="413.6105" y="-265.8" font-family="Helvetica,sans-Serif" font-size="11.00" fill="#000000">0 rows</text>
<polygon fill="#ffffff" stroke="transparent" points="449,-259.7 449,-278.7 533,-278.7 533,-259.7 449,-259.7"/>
<polygon fill="none" stroke="#000000" points="449,-259.7 449,-278.7 533,-278.7 533,-259.7 449,-259.7"/>
<text text-anchor="start" x="514.4053" y="-265.8" font-family="Helvetica,sans-Serif" font-size="11.00" fill="#000000">0 &gt;</text>
<polygon fill="none" stroke="#000000" stroke-width="2" points="336,-258.7 336,-456.7 534,-456.7 534,-258.7 336,-258.7"/>
</a>
</g>
</g>
<!-- chapter_users&#45;&gt;chapter_roles -->
<g id="edge3" class="edge">
<title>chapter_users:w&#45;&gt;chapter_roles:e</title>
<path fill="none" stroke="#000000" d="M322.8573,-314.6241C282.8744,-334.7286 343.9592,-451.7 283,-451.7"/>
<polygon fill="#000000" stroke="#000000" points="329.1657,-313.3198 337.7289,-315.2254 333.0828,-312.5099 337,-311.7 337,-311.7 337,-311.7 333.0828,-312.5099 336.2711,-308.1746 329.1657,-313.3198 329.1657,-313.3198"/>
<ellipse fill="none" stroke="#000000" cx="326.032" cy="-313.9678" rx="3.2" ry="3.2"/>
</g>
<!-- chapters -->
<g id="node4" class="node">
<title>chapters</title>
<g id="a_node4"><a xlink:href="../../tables/chapters.html" xlink:title="chapters" target="_top">
<polygon fill="#ffffff" stroke="transparent" points="184,-75.2 184,-158.2 272,-158.2 272,-75.2 184,-75.2"/>
<polygon fill="#f5f5f5" stroke="transparent" points="184,-134.7 184,-157.7 272,-157.7 272,-134.7 184,-134.7"/>
<polygon fill="none" stroke="#000000" points="184,-134.7 184,-157.7 272,-157.7 272,-134.7 184,-134.7"/>
<text text-anchor="start" x="189" y="-143.8" font-family="Helvetica,sans-Serif" font-weight="bold" font-size="11.00" fill="#000000">chapters</text>
<text text-anchor="start" x="237.0437" y="-142.8" font-family="Helvetica,sans-Serif" font-size="11.00" fill="#000000">[table]</text>
<polygon fill="none" stroke="#000000" points="184,-112.7 184,-134.7 272,-134.7 272,-112.7 184,-112.7"/>
<image xlink:href="../../images/primaryKeys.png" width="11px" height="12px" preserveAspectRatio="xMinYMin meet" x="189" y="-129.7"/>
<text text-anchor="start" x="204" y="-119.8" font-family="Helvetica,sans-Serif" font-size="11.00" fill="#000000">id</text>
<polygon fill="none" stroke="#000000" points="184,-93.7 184,-112.7 272,-112.7 272,-93.7 184,-93.7"/>
<text text-anchor="start" x="187" y="-99.8" font-family="Helvetica,sans-Serif" font-size="11.00" fill="#000000">...</text>
<polygon fill="#ffffff" stroke="transparent" points="184,-74.7 184,-93.7 204,-93.7 204,-74.7 184,-74.7"/>
<polygon fill="none" stroke="#000000" points="184,-74.7 184,-93.7 204,-93.7 204,-74.7 184,-74.7"/>
<text text-anchor="start" x="187" y="-80.8" font-family="Helvetica,sans-Serif" font-size="11.00" fill="#000000"> &#160;</text>
<polygon fill="#ffffff" stroke="transparent" points="204,-74.7 204,-93.7 246,-93.7 246,-74.7 204,-74.7"/>
<polygon fill="none" stroke="#000000" points="204,-74.7 204,-93.7 246,-93.7 246,-74.7 204,-74.7"/>
<text text-anchor="start" x="210.6105" y="-80.8" font-family="Helvetica,sans-Serif" font-size="11.00" fill="#000000">0 rows</text>
<polygon fill="#ffffff" stroke="transparent" points="246,-74.7 246,-93.7 272,-93.7 272,-74.7 246,-74.7"/>
<polygon fill="none" stroke="#000000" points="246,-74.7 246,-93.7 272,-93.7 272,-74.7 246,-74.7"/>
<text text-anchor="start" x="253.4053" y="-80.8" font-family="Helvetica,sans-Serif" font-size="11.00" fill="#000000">4 &gt;</text>
</a>
</g>
</g>
<!-- chapter_users&#45;&gt;chapters -->
<g id="edge2" class="edge">
<title>chapter_users:w&#45;&gt;chapters:e</title>
<path fill="none" stroke="#000000" d="M322.5108,-331.7552C253.3385,-310.5847 364.1681,-123.7 272,-123.7"/>
<polygon fill="#000000" stroke="#000000" points="329.0711,-332.6357 336.5211,-337.268 333.0356,-333.1678 337,-333.7 337,-333.7 337,-333.7 333.0356,-333.1678 337.4789,-330.132 329.0711,-332.6357 329.0711,-332.6357"/>
<ellipse fill="none" stroke="#000000" cx="325.8995" cy="-332.21" rx="3.2" ry="3.2"/>
</g>
<!-- users -->
<g id="node5" class="node">
<title>users</title>
<g id="a_node5"><a xlink:href="../../tables/users.html" xlink:title="users" target="_top">
<polygon fill="#ffffff" stroke="transparent" points="170,-179.2 170,-306.2 286,-306.2 286,-179.2 170,-179.2"/>
<polygon fill="#f5f5f5" stroke="transparent" points="170,-282.7 170,-305.7 286,-305.7 286,-282.7 170,-282.7"/>
<polygon fill="none" stroke="#000000" points="170,-282.7 170,-305.7 286,-305.7 286,-282.7 170,-282.7"/>
<text text-anchor="start" x="175" y="-291.8" font-family="Helvetica,sans-Serif" font-weight="bold" font-size="11.00" fill="#000000">users</text>
<text text-anchor="start" x="251.0437" y="-290.8" font-family="Helvetica,sans-Serif" font-size="11.00" fill="#000000">[table]</text>
<polygon fill="none" stroke="#000000" points="170,-260.7 170,-282.7 286,-282.7 286,-260.7 170,-260.7"/>
<image xlink:href="../../images/primaryKeys.png" width="11px" height="12px" preserveAspectRatio="xMinYMin meet" x="175" y="-277.7"/>
<text text-anchor="start" x="190" y="-267.8" font-family="Helvetica,sans-Serif" font-size="11.00" fill="#000000">id</text>
<polygon fill="#ffffff" stroke="transparent" points="170,-238.7 170,-260.7 286,-260.7 286,-238.7 170,-238.7"/>
<polygon fill="none" stroke="#000000" points="170,-238.7 170,-260.7 286,-260.7 286,-238.7 170,-238.7"/>
<text text-anchor="start" x="190" y="-245.8" font-family="Helvetica,sans-Serif" font-size="11.00" fill="#000000">email</text>
<polygon fill="none" stroke="#000000" points="170,-216.7 170,-238.7 286,-238.7 286,-216.7 170,-216.7"/>
<image xlink:href="../../images/foreignKeys.png" width="11px" height="12px" preserveAspectRatio="xMinYMin meet" x="175" y="-233.7"/>
<text text-anchor="start" x="190" y="-223.8" font-family="Helvetica,sans-Serif" font-size="11.00" fill="#000000">instance_role_id</text>
<polygon fill="none" stroke="#000000" points="170,-197.7 170,-216.7 286,-216.7 286,-197.7 170,-197.7"/>
<text text-anchor="start" x="173" y="-203.8" font-family="Helvetica,sans-Serif" font-size="11.00" fill="#000000">...</text>
<polygon fill="#ffffff" stroke="transparent" points="170,-178.7 170,-197.7 209,-197.7 209,-178.7 170,-178.7"/>
<polygon fill="none" stroke="#000000" points="170,-178.7 170,-197.7 209,-197.7 209,-178.7 170,-178.7"/>
<text text-anchor="start" x="173" y="-184.8" font-family="Helvetica,sans-Serif" font-size="11.00" fill="#000000">&lt; 1</text>
<polygon fill="#ffffff" stroke="transparent" points="209,-178.7 209,-197.7 256,-197.7 256,-178.7 209,-178.7"/>
<polygon fill="none" stroke="#000000" points="209,-178.7 209,-197.7 256,-197.7 256,-178.7 209,-178.7"/>
<text text-anchor="start" x="220.6105" y="-184.8" font-family="Helvetica,sans-Serif" font-size="11.00" fill="#000000">0 rows</text>
<polygon fill="#ffffff" stroke="transparent" points="256,-178.7 256,-197.7 286,-197.7 286,-178.7 256,-178.7"/>
<polygon fill="none" stroke="#000000" points="256,-178.7 256,-197.7 286,-197.7 286,-178.7 256,-178.7"/>
<text text-anchor="start" x="267.4053" y="-184.8" font-family="Helvetica,sans-Serif" font-size="11.00" fill="#000000">3 &gt;</text>
</a>
</g>
</g>
<!-- chapter_users&#45;&gt;users -->
<g id="edge4" class="edge">
<title>chapter_users:w&#45;&gt;users:e</title>
<path fill="none" stroke="#000000" d="M323.1647,-351.4189C301.7683,-334.3014 323.7043,-271.7 286,-271.7"/>
<polygon fill="#000000" stroke="#000000" points="329.3575,-353.3351 335.9358,-359.1391 333.1788,-354.5176 337,-355.7 337,-355.7 337,-355.7 333.1788,-354.5176 338.0642,-352.2609 329.3575,-353.3351 329.3575,-353.3351"/>
<ellipse fill="none" stroke="#000000" cx="326.3005" cy="-352.3892" rx="3.2" ry="3.2"/>
</g>
<!-- instance_roles -->
<g id="node10" class="node">
<title>instance_roles</title>
<g id="a_node10"><a xlink:href="../../tables/instance_roles.html" xlink:title="instance_roles" target="_top">
<polygon fill="#ffffff" stroke="transparent" points="8,-200.2 8,-261.2 121,-261.2 121,-200.2 8,-200.2"/>
<polygon fill="#f5f5f5" stroke="transparent" points="8.5,-237.7 8.5,-260.7 121.5,-260.7 121.5,-237.7 8.5,-237.7"/>
<polygon fill="none" stroke="#000000" points="8.5,-237.7 8.5,-260.7 121.5,-260.7 121.5,-237.7 8.5,-237.7"/>
<text text-anchor="start" x="13.0476" y="-246.8" font-family="Helvetica,sans-Serif" font-weight="bold" font-size="11.00" fill="#000000">instance_roles</text>
<text text-anchor="start" x="87.0219" y="-245.8" font-family="Helvetica,sans-Serif" font-size="11.00" fill="#000000">[table]</text>
<polygon fill="none" stroke="#000000" points="8.5,-218.7 8.5,-237.7 121.5,-237.7 121.5,-218.7 8.5,-218.7"/>
<text text-anchor="start" x="11.5" y="-224.8" font-family="Helvetica,sans-Serif" font-size="11.00" fill="#000000">...</text>
<polygon fill="#ffffff" stroke="transparent" points="8.5,-199.7 8.5,-218.7 41.5,-218.7 41.5,-199.7 8.5,-199.7"/>
<polygon fill="none" stroke="#000000" points="8.5,-199.7 8.5,-218.7 41.5,-218.7 41.5,-199.7 8.5,-199.7"/>
<text text-anchor="start" x="11.5" y="-205.8" font-family="Helvetica,sans-Serif" font-size="11.00" fill="#000000"> &#160;</text>
<polygon fill="#ffffff" stroke="transparent" points="41.5,-199.7 41.5,-218.7 89.5,-218.7 89.5,-199.7 41.5,-199.7"/>
<polygon fill="none" stroke="#000000" points="41.5,-199.7 41.5,-218.7 89.5,-218.7 89.5,-199.7 41.5,-199.7"/>
<text text-anchor="start" x="54.1105" y="-205.8" font-family="Helvetica,sans-Serif" font-size="11.00" fill="#000000">0 rows</text>
<polygon fill="#ffffff" stroke="transparent" points="89.5,-199.7 89.5,-218.7 121.5,-218.7 121.5,-199.7 89.5,-199.7"/>
<polygon fill="none" stroke="#000000" points="89.5,-199.7 89.5,-218.7 121.5,-218.7 121.5,-199.7 89.5,-199.7"/>
<text text-anchor="start" x="102.9053" y="-205.8" font-family="Helvetica,sans-Serif" font-size="11.00" fill="#000000">2 &gt;</text>
</a>
</g>
</g>
<!-- users&#45;&gt;instance_roles -->
<g id="edge12" class="edge">
<title>users:w&#45;&gt;instance_roles:e</title>
<path fill="none" stroke="#000000" d="M155.2829,-227.7C144.2886,-227.7 137.1615,-227.7 121.5,-227.7"/>
<polygon fill="#000000" stroke="#000000" points="162,-227.7001 170,-231.3 166,-227.7 170,-227.7 170,-227.7 170,-227.7 166,-227.7 170,-224.1 162,-227.7001 162,-227.7001"/>
<ellipse fill="none" stroke="#000000" cx="158.8" cy="-227.7001" rx="3.2" ry="3.2"/>
</g>
<!-- event_users -->
<g id="node6" class="node">
<title>event_users</title>
<g id="a_node6"><a xlink:href="../../tables/event_users.html" xlink:title="event_users" target="_top">
<polygon fill="#ffffff" stroke="transparent" points="713,-136.2 713,-197.2 815,-197.2 815,-136.2 713,-136.2"/>
<polygon fill="#f5f5f5" stroke="transparent" points="713,-173.7 713,-196.7 815,-196.7 815,-173.7 713,-173.7"/>
<polygon fill="none" stroke="#000000" points="713,-173.7 713,-196.7 815,-196.7 815,-173.7 713,-173.7"/>
<text text-anchor="start" x="717.5459" y="-182.8" font-family="Helvetica,sans-Serif" font-weight="bold" font-size="11.00" fill="#000000">event_users</text>
<text text-anchor="start" x="780.5219" y="-181.8" font-family="Helvetica,sans-Serif" font-size="11.00" fill="#000000">[table]</text>
<polygon fill="none" stroke="#000000" points="713,-154.7 713,-173.7 815,-173.7 815,-154.7 713,-154.7"/>
<text text-anchor="start" x="716" y="-160.8" font-family="Helvetica,sans-Serif" font-size="11.00" fill="#000000">...</text>
<polygon fill="#ffffff" stroke="transparent" points="713,-135.7 713,-154.7 745,-154.7 745,-135.7 713,-135.7"/>
<polygon fill="none" stroke="#000000" points="713,-135.7 713,-154.7 745,-154.7 745,-135.7 713,-135.7"/>
<text text-anchor="start" x="716" y="-141.8" font-family="Helvetica,sans-Serif" font-size="11.00" fill="#000000">&lt; 4</text>
<polygon fill="#ffffff" stroke="transparent" points="745,-135.7 745,-154.7 788,-154.7 788,-135.7 745,-135.7"/>
<polygon fill="none" stroke="#000000" points="745,-135.7 745,-154.7 788,-154.7 788,-135.7 745,-135.7"/>
<text text-anchor="start" x="752.6105" y="-141.8" font-family="Helvetica,sans-Serif" font-size="11.00" fill="#000000">0 rows</text>
<polygon fill="#ffffff" stroke="transparent" points="788,-135.7 788,-154.7 815,-154.7 815,-135.7 788,-135.7"/>
<polygon fill="none" stroke="#000000" points="788,-135.7 788,-154.7 815,-154.7 815,-135.7 788,-135.7"/>
<text text-anchor="start" x="796.4053" y="-141.8" font-family="Helvetica,sans-Serif" font-size="11.00" fill="#000000">2 &gt;</text>
</a>
</g>
</g>
<!-- event_users&#45;&gt;users -->
<g id="edge6" class="edge">
<title>event_users:w&#45;&gt;users:e</title>
<path fill="none" stroke="#000000" d="M698.4141,-164.1623C631.5215,-168.5592 615.57,-203.2001 543,-219.7 448.6059,-241.1619 418.6034,-216.4003 327,-247.7 307.0196,-254.5271 307.1146,-271.7 286,-271.7"/>
<polygon fill="#000000" stroke="#000000" points="705.004,-163.9535 713.1141,-167.2982 709.002,-163.8267 713,-163.7 713,-163.7 713,-163.7 709.002,-163.8267 712.8859,-160.1018 705.004,-163.9535 705.004,-163.9535"/>
<ellipse fill="none" stroke="#000000" cx="701.8056" cy="-164.0549" rx="3.2" ry="3.2"/>
</g>
<!-- events -->
<g id="node7" class="node">
<title>events</title>
<g id="a_node7"><a xlink:href="../../tables/events.html" xlink:title="events" target="_top">
<polygon fill="#ffffff" stroke="transparent" points="584,-67.2 584,-128.2 664,-128.2 664,-67.2 584,-67.2"/>
<polygon fill="#f5f5f5" stroke="transparent" points="584,-104.7 584,-127.7 664,-127.7 664,-104.7 584,-104.7"/>
<polygon fill="none" stroke="#000000" points="584,-104.7 584,-127.7 664,-127.7 664,-104.7 584,-104.7"/>
<text text-anchor="start" x="589" y="-113.8" font-family="Helvetica,sans-Serif" font-weight="bold" font-size="11.00" fill="#000000">events</text>
<text text-anchor="start" x="629.0437" y="-112.8" font-family="Helvetica,sans-Serif" font-size="11.00" fill="#000000">[table]</text>
<polygon fill="none" stroke="#000000" points="584,-85.7 584,-104.7 664,-104.7 664,-85.7 584,-85.7"/>
<text text-anchor="start" x="587" y="-91.8" font-family="Helvetica,sans-Serif" font-size="11.00" fill="#000000">...</text>
<polygon fill="#ffffff" stroke="transparent" points="584,-66.7 584,-85.7 605,-85.7 605,-66.7 584,-66.7"/>
<polygon fill="none" stroke="#000000" points="584,-66.7 584,-85.7 605,-85.7 605,-66.7 584,-66.7"/>
<text text-anchor="start" x="586.7026" y="-72.8" font-family="Helvetica,sans-Serif" font-size="11.00" fill="#000000">&lt; 3</text>
<polygon fill="#ffffff" stroke="transparent" points="605,-66.7 605,-85.7 643,-85.7 643,-66.7 605,-66.7"/>
<polygon fill="none" stroke="#000000" points="605,-66.7 605,-85.7 643,-85.7 643,-66.7 605,-66.7"/>
<text text-anchor="start" x="607.8053" y="-72.8" font-family="Helvetica,sans-Serif" font-size="11.00" fill="#000000">0 rows</text>
<polygon fill="#ffffff" stroke="transparent" points="643,-66.7 643,-85.7 664,-85.7 664,-66.7 643,-66.7"/>
<polygon fill="none" stroke="#000000" points="643,-66.7 643,-85.7 664,-85.7 664,-66.7 643,-66.7"/>
<text text-anchor="start" x="645.7026" y="-72.8" font-family="Helvetica,sans-Serif" font-size="11.00" fill="#000000">3 &gt;</text>
</a>
</g>
</g>
<!-- event_users&#45;&gt;events -->
<g id="edge5" class="edge">
<title>event_users:w&#45;&gt;events:e</title>
<path fill="none" stroke="#000000" d="M699.0786,-158.7377C682.2742,-142.9166 695.4419,-94.7 664,-94.7"/>
<polygon fill="#000000" stroke="#000000" points="705.4644,-161.0139 711.7913,-167.091 709.2322,-162.3569 713,-163.7 713,-163.7 713,-163.7 709.2322,-162.3569 714.2087,-160.309 705.4644,-161.0139 705.4644,-161.0139"/>
<ellipse fill="none" stroke="#000000" cx="702.4502" cy="-159.9395" rx="3.2" ry="3.2"/>
</g>
<!-- events&#45;&gt;chapters -->
<g id="edge7" class="edge">
<title>events:w&#45;&gt;chapters:e</title>
<path fill="none" stroke="#000000" d="M569.7221,-97.3981C561.377,-100.9442 556.0708,-107.0345 543,-109.7 424.8272,-133.799 392.6051,-123.7 272,-123.7"/>
<polygon fill="#000000" stroke="#000000" points="576.1391,-96.1855 584.6685,-98.2374 580.0696,-95.4428 584,-94.7 584,-94.7 584,-94.7 580.0696,-95.4428 583.3315,-91.1626 576.1391,-96.1855 576.1391,-96.1855"/>
<ellipse fill="none" stroke="#000000" cx="572.9948" cy="-96.7797" rx="3.2" ry="3.2"/>
</g>
<!-- venues -->
<g id="node8" class="node">
<title>venues</title>
<g id="a_node8"><a xlink:href="../../tables/venues.html" xlink:title="venues" target="_top">
<polygon fill="#ffffff" stroke="transparent" points="395,-38.2 395,-99.2 475,-99.2 475,-38.2 395,-38.2"/>
<polygon fill="#f5f5f5" stroke="transparent" points="395,-75.7 395,-98.7 475,-98.7 475,-75.7 395,-75.7"/>
<polygon fill="none" stroke="#000000" points="395,-75.7 395,-98.7 475,-98.7 475,-75.7 395,-75.7"/>
<text text-anchor="start" x="400" y="-84.8" font-family="Helvetica,sans-Serif" font-weight="bold" font-size="11.00" fill="#000000">venues</text>
<text text-anchor="start" x="440.0437" y="-83.8" font-family="Helvetica,sans-Serif" font-size="11.00" fill="#000000">[table]</text>
<polygon fill="none" stroke="#000000" points="395,-56.7 395,-75.7 475,-75.7 475,-56.7 395,-56.7"/>
<text text-anchor="start" x="398" y="-62.8" font-family="Helvetica,sans-Serif" font-size="11.00" fill="#000000">...</text>
<polygon fill="#ffffff" stroke="transparent" points="395,-37.7 395,-56.7 416,-56.7 416,-37.7 395,-37.7"/>
<polygon fill="none" stroke="#000000" points="395,-37.7 395,-56.7 416,-56.7 416,-37.7 395,-37.7"/>
<text text-anchor="start" x="397.7027" y="-43.8" font-family="Helvetica,sans-Serif" font-size="11.00" fill="#000000">&lt; 1</text>
<polygon fill="#ffffff" stroke="transparent" points="416,-37.7 416,-56.7 454,-56.7 454,-37.7 416,-37.7"/>
<polygon fill="none" stroke="#000000" points="416,-37.7 416,-56.7 454,-56.7 454,-37.7 416,-37.7"/>
<text text-anchor="start" x="418.8053" y="-43.8" font-family="Helvetica,sans-Serif" font-size="11.00" fill="#000000">0 rows</text>
<polygon fill="#ffffff" stroke="transparent" points="454,-37.7 454,-56.7 475,-56.7 475,-37.7 454,-37.7"/>
<polygon fill="none" stroke="#000000" points="454,-37.7 454,-56.7 475,-56.7 475,-37.7 454,-37.7"/>
<text text-anchor="start" x="456.7027" y="-43.8" font-family="Helvetica,sans-Serif" font-size="11.00" fill="#000000">2 &gt;</text>
</a>
</g>
</g>
<!-- events&#45;&gt;venues -->
<g id="edge8" class="edge">
<title>events:w&#45;&gt;venues:e</title>
<path fill="none" stroke="#000000" d="M569.4227,-92.1021C531.5662,-82.9721 519.8426,-60.3328 475,-65.7"/>
<polygon fill="#000000" stroke="#000000" points="576.1241,-93.2963 583.3683,-98.2442 580.062,-93.9982 584,-94.7 584,-94.7 584,-94.7 580.062,-93.9982 584.6317,-91.1558 576.1241,-93.2963 576.1241,-93.2963"/>
<ellipse fill="none" stroke="#000000" cx="572.9737" cy="-92.7349" rx="3.2" ry="3.2"/>
</g>
<!-- events&#45;&gt;venues -->
<g id="edge9" class="edge">
<title>events:w&#45;&gt;venues:e</title>
<path fill="none" stroke="#000000" d="M569.4227,-95.7815C531.5662,-95.8275 519.8426,-71.9617 475,-65.7"/>
<polygon fill="#000000" stroke="#000000" points="576.0219,-95.292 584.2664,-98.2901 580.011,-94.996 584,-94.7 584,-94.7 584,-94.7 580.011,-94.996 583.7336,-91.1099 576.0219,-95.292 576.0219,-95.292"/>
<ellipse fill="none" stroke="#000000" cx="572.8307" cy="-95.5288" rx="3.2" ry="3.2"/>
</g>
<!-- venues&#45;&gt;chapters -->
<g id="edge13" class="edge">
<title>venues:w&#45;&gt;chapters:e</title>
<path fill="none" stroke="#000000" d="M380.636,-66.9114C333.7652,-75.2404 327.2455,-123.7 272,-123.7"/>
<polygon fill="#000000" stroke="#000000" points="387.0283,-66.3724 395.3026,-69.2873 391.0141,-66.0362 395,-65.7 395,-65.7 395,-65.7 391.0141,-66.0362 394.6974,-62.1127 387.0283,-66.3724 387.0283,-66.3724"/>
<ellipse fill="none" stroke="#000000" cx="383.8396" cy="-66.6413" rx="3.2" ry="3.2"/>
</g>
<!-- user_bans -->
<g id="node9" class="node">
<title>user_bans</title>
<g id="a_node9"><a xlink:href="../../tables/user_bans.html" xlink:title="user_bans" target="_top">
<polygon fill="#ffffff" stroke="transparent" points="388,-148.2 388,-209.2 482,-209.2 482,-148.2 388,-148.2"/>
<polygon fill="#f5f5f5" stroke="transparent" points="388,-185.7 388,-208.7 482,-208.7 482,-185.7 388,-185.7"/>
<polygon fill="none" stroke="#000000" points="388,-185.7 388,-208.7 482,-208.7 482,-185.7 388,-185.7"/>
<text text-anchor="start" x="392.8244" y="-194.8" font-family="Helvetica,sans-Serif" font-weight="bold" font-size="11.00" fill="#000000">user_bans</text>
<text text-anchor="start" x="447.5219" y="-193.8" font-family="Helvetica,sans-Serif" font-size="11.00" fill="#000000">[table]</text>
<polygon fill="none" stroke="#000000" points="388,-166.7 388,-185.7 482,-185.7 482,-166.7 388,-166.7"/>
<text text-anchor="start" x="391" y="-172.8" font-family="Helvetica,sans-Serif" font-size="11.00" fill="#000000">...</text>
<polygon fill="#ffffff" stroke="transparent" points="388,-147.7 388,-166.7 420,-166.7 420,-147.7 388,-147.7"/>
<polygon fill="none" stroke="#000000" points="388,-147.7 388,-166.7 420,-166.7 420,-147.7 388,-147.7"/>
<text text-anchor="start" x="391" y="-153.8" font-family="Helvetica,sans-Serif" font-size="11.00" fill="#000000">&lt; 2</text>
<polygon fill="#ffffff" stroke="transparent" points="420,-147.7 420,-166.7 464,-166.7 464,-147.7 420,-147.7"/>
<polygon fill="none" stroke="#000000" points="420,-147.7 420,-166.7 464,-166.7 464,-147.7 420,-147.7"/>
<text text-anchor="start" x="428.6105" y="-153.8" font-family="Helvetica,sans-Serif" font-size="11.00" fill="#000000">0 rows</text>
<polygon fill="#ffffff" stroke="transparent" points="464,-147.7 464,-166.7 482,-166.7 482,-147.7 464,-147.7"/>
<polygon fill="none" stroke="#000000" points="464,-147.7 464,-166.7 482,-166.7 482,-147.7 464,-147.7"/>
<text text-anchor="start" x="472.8862" y="-153.8" font-family="Helvetica,sans-Serif" font-size="11.00" fill="#000000"> &#160;</text>
</a>
</g>
</g>
<!-- user_bans&#45;&gt;chapters -->
<g id="edge10" class="edge">
<title>user_bans:w&#45;&gt;chapters:e</title>
<path fill="none" stroke="#000000" d="M373.4321,-174.4146C330.4682,-166.407 323.2019,-123.7 272,-123.7"/>
<polygon fill="#000000" stroke="#000000" points="380.031,-174.9968 387.6836,-179.2861 384.0155,-175.3484 388,-175.7 388,-175.7 388,-175.7 384.0155,-175.3484 388.3164,-172.1139 380.031,-174.9968 380.031,-174.9968"/>
<ellipse fill="none" stroke="#000000" cx="376.8433" cy="-174.7155" rx="3.2" ry="3.2"/>
</g>
<!-- user_bans&#45;&gt;users -->
<g id="edge11" class="edge">
<title>user_bans:w&#45;&gt;users:e</title>
<path fill="none" stroke="#000000" d="M373.4273,-177.5389C352.3435,-183.6028 347.7976,-203.7224 327,-223.7 306.7663,-243.136 314.0564,-271.7 286,-271.7"/>
<polygon fill="#000000" stroke="#000000" points="380.0629,-176.7016 388.4507,-179.2717 384.0315,-176.2008 388,-175.7 388,-175.7 388,-175.7 384.0315,-176.2008 387.5493,-172.1283 380.0629,-176.7016 380.0629,-176.7016"/>
<ellipse fill="none" stroke="#000000" cx="376.8881" cy="-177.1022" rx="3.2" ry="3.2"/>
</g>
</g>
</svg>
