<?xml version="1.0" encoding="UTF-8" standalone="no"?>
<!DOCTYPE svg PUBLIC "-//W3C//DTD SVG 1.1//EN"
 "http://www.w3.org/Graphics/SVG/1.1/DTD/svg11.dtd">
<!-- Generated by graphviz version 2.40.1 (20161225.0304)
 -->
<!-- Title: twoDegreesRelationshipsDiagram Pages: 1 -->
<svg width="689pt" height="538pt"
 viewBox="0.00 0.00 689.00 538.20" xmlns="http://www.w3.org/2000/svg" xmlns:xlink="http://www.w3.org/1999/xlink">
<g id="graph0" class="graph" transform="scale(1 1) rotate(0) translate(4 534.2)">
<title>twoDegreesRelationshipsDiagram</title>
<polygon fill="#ffffff" stroke="transparent" points="-4,4 -4,-534.2 685,-534.2 685,4 -4,4"/>
<text text-anchor="middle" x="72.4936" y="-7.3" font-family="Helvetica,sans-Serif" font-size="11.00" fill="#000000">Generated by SchemaSpy</text>
<!-- chapter_users -->
<g id="node1" class="node">
<title>chapter_users</title>
<g id="a_node1"><a xlink:href="../../tables/chapter_users.html" xlink:title="chapter_users" target="_top">
<polygon fill="#ffffff" stroke="transparent" points="239,-119.2 239,-246.2 351,-246.2 351,-119.2 239,-119.2"/>
<polygon fill="#f5f5f5" stroke="transparent" points="239,-222.7 239,-245.7 351,-245.7 351,-222.7 239,-222.7"/>
<polygon fill="none" stroke="#000000" points="239,-222.7 239,-245.7 351,-245.7 351,-222.7 239,-222.7"/>
<text text-anchor="start" x="243.6575" y="-231.8" font-family="Helvetica,sans-Serif" font-weight="bold" font-size="11.00" fill="#000000">chapter_users</text>
<text text-anchor="start" x="316.5219" y="-230.8" font-family="Helvetica,sans-Serif" font-size="11.00" fill="#000000">[table]</text>
<polygon fill="none" stroke="#000000" points="239,-200.7 239,-222.7 351,-222.7 351,-200.7 239,-200.7"/>
<image xlink:href="../../images/primaryKeys.png" width="11px" height="12px" preserveAspectRatio="xMinYMin meet" x="244" y="-217.7"/>
<text text-anchor="start" x="259" y="-207.8" font-family="Helvetica,sans-Serif" font-size="11.00" fill="#000000">user_id</text>
<polygon fill="none" stroke="#000000" points="239,-178.7 239,-200.7 351,-200.7 351,-178.7 239,-178.7"/>
<image xlink:href="../../images/primaryKeys.png" width="11px" height="12px" preserveAspectRatio="xMinYMin meet" x="244" y="-195.7"/>
<text text-anchor="start" x="259" y="-185.8" font-family="Helvetica,sans-Serif" font-size="11.00" fill="#000000">chapter_id</text>
<polygon fill="none" stroke="#000000" points="239,-156.7 239,-178.7 351,-178.7 351,-156.7 239,-156.7"/>
<image xlink:href="../../images/foreignKeys.png" width="11px" height="12px" preserveAspectRatio="xMinYMin meet" x="244" y="-173.7"/>
<text text-anchor="start" x="259" y="-163.8" font-family="Helvetica,sans-Serif" font-size="11.00" fill="#000000">chapter_role_id</text>
<polygon fill="none" stroke="#000000" points="239,-137.7 239,-156.7 351,-156.7 351,-137.7 239,-137.7"/>
<text text-anchor="start" x="242" y="-143.8" font-family="Helvetica,sans-Serif" font-size="11.00" fill="#000000">...</text>
<polygon fill="#ffffff" stroke="transparent" points="239,-118.7 239,-137.7 280,-137.7 280,-118.7 239,-118.7"/>
<polygon fill="none" stroke="#000000" points="239,-118.7 239,-137.7 280,-137.7 280,-118.7 239,-118.7"/>
<text text-anchor="start" x="242" y="-124.8" font-family="Helvetica,sans-Serif" font-size="11.00" fill="#000000">&lt; 3</text>
<polygon fill="#ffffff" stroke="transparent" points="280,-118.7 280,-137.7 328,-137.7 328,-118.7 280,-118.7"/>
<polygon fill="none" stroke="#000000" points="280,-118.7 280,-137.7 328,-137.7 328,-118.7 280,-118.7"/>
<text text-anchor="start" x="292.6105" y="-124.8" font-family="Helvetica,sans-Serif" font-size="11.00" fill="#000000">0 rows</text>
<polygon fill="#ffffff" stroke="transparent" points="328,-118.7 328,-137.7 351,-137.7 351,-118.7 328,-118.7"/>
<polygon fill="none" stroke="#000000" points="328,-118.7 328,-137.7 351,-137.7 351,-118.7 328,-118.7"/>
<text text-anchor="start" x="341.8862" y="-124.8" font-family="Helvetica,sans-Serif" font-size="11.00" fill="#000000"> &#160;</text>
</a>
</g>
</g>
<!-- chapters -->
<g id="node2" class="node">
<title>chapters</title>
<g id="a_node2"><a xlink:href="../../tables/chapters.html" xlink:title="chapters" target="_top">
<polygon fill="#ffffff" stroke="transparent" points="8,-202.7 8,-512.7 190,-512.7 190,-202.7 8,-202.7"/>
<polygon fill="#f5f5f5" stroke="transparent" points="10,-487.7 10,-510.7 188,-510.7 188,-487.7 10,-487.7"/>
<polygon fill="none" stroke="#000000" points="10,-487.7 10,-510.7 188,-510.7 188,-487.7 10,-487.7"/>
<text text-anchor="start" x="15" y="-496.8" font-family="Helvetica,sans-Serif" font-weight="bold" font-size="11.00" fill="#000000">chapters</text>
<text text-anchor="start" x="153.0437" y="-495.8" font-family="Helvetica,sans-Serif" font-size="11.00" fill="#000000">[table]</text>
<polygon fill="none" stroke="#000000" points="10,-465.7 10,-487.7 98,-487.7 98,-465.7 10,-465.7"/>
<text text-anchor="start" x="30" y="-472.8" font-family="Helvetica,sans-Serif" font-size="11.00" fill="#000000">created_at</text>
<polygon fill="none" stroke="#000000" points="98,-465.7 98,-487.7 188,-487.7 188,-465.7 98,-465.7"/>
<text text-anchor="start" x="101" y="-473.4" font-family="Helvetica,sans-Serif" font-size="11.00" fill="#000000">timestamp[26,3]</text>
<polygon fill="none" stroke="#000000" points="10,-443.7 10,-465.7 98,-465.7 98,-443.7 10,-443.7"/>
<text text-anchor="start" x="30" y="-450.8" font-family="Helvetica,sans-Serif" font-size="11.00" fill="#000000">updated_at</text>
<polygon fill="none" stroke="#000000" points="98,-443.7 98,-465.7 188,-465.7 188,-443.7 98,-443.7"/>
<text text-anchor="start" x="101" y="-451.4" font-family="Helvetica,sans-Serif" font-size="11.00" fill="#000000">timestamp[26,3]</text>
<polygon fill="none" stroke="#000000" points="10,-421.7 10,-443.7 98,-443.7 98,-421.7 10,-421.7"/>
<image xlink:href="../../images/primaryKeys.png" width="11px" height="12px" preserveAspectRatio="xMinYMin meet" x="15" y="-438.7"/>
<text text-anchor="start" x="30" y="-428.8" font-family="Helvetica,sans-Serif" font-size="11.00" fill="#000000">id</text>
<polygon fill="none" stroke="#000000" points="98,-421.7 98,-443.7 188,-443.7 188,-421.7 98,-421.7"/>
<text text-anchor="start" x="101" y="-429.4" font-family="Helvetica,sans-Serif" font-size="11.00" fill="#000000">serial[10]</text>
<polygon fill="none" stroke="#000000" points="10,-399.7 10,-421.7 98,-421.7 98,-399.7 10,-399.7"/>
<text text-anchor="start" x="30" y="-406.8" font-family="Helvetica,sans-Serif" font-size="11.00" fill="#000000">name</text>
<polygon fill="none" stroke="#000000" points="98,-399.7 98,-421.7 188,-421.7 188,-399.7 98,-399.7"/>
<text text-anchor="start" x="100.5042" y="-407.4" font-family="Helvetica,sans-Serif" font-size="11.00" fill="#000000">text[2147483647]</text>
<polygon fill="none" stroke="#000000" points="10,-377.7 10,-399.7 98,-399.7 98,-377.7 10,-377.7"/>
<text text-anchor="start" x="30" y="-384.8" font-family="Helvetica,sans-Serif" font-size="11.00" fill="#000000">description</text>
<polygon fill="none" stroke="#000000" points="98,-377.7 98,-399.7 188,-399.7 188,-377.7 98,-377.7"/>
<text text-anchor="start" x="100.5042" y="-385.4" font-family="Helvetica,sans-Serif" font-size="11.00" fill="#000000">text[2147483647]</text>
<polygon fill="none" stroke="#000000" points="10,-355.7 10,-377.7 98,-377.7 98,-355.7 10,-355.7"/>
<text text-anchor="start" x="30" y="-362.8" font-family="Helvetica,sans-Serif" font-size="11.00" fill="#000000">category</text>
<polygon fill="none" stroke="#000000" points="98,-355.7 98,-377.7 188,-377.7 188,-355.7 98,-355.7"/>
<text text-anchor="start" x="100.5042" y="-363.4" font-family="Helvetica,sans-Serif" font-size="11.00" fill="#000000">text[2147483647]</text>
<polygon fill="none" stroke="#000000" points="10,-333.7 10,-355.7 98,-355.7 98,-333.7 10,-333.7"/>
<text text-anchor="start" x="30" y="-340.8" font-family="Helvetica,sans-Serif" font-size="11.00" fill="#000000">city</text>
<polygon fill="none" stroke="#000000" points="98,-333.7 98,-355.7 188,-355.7 188,-333.7 98,-333.7"/>
<text text-anchor="start" x="100.5042" y="-341.4" font-family="Helvetica,sans-Serif" font-size="11.00" fill="#000000">text[2147483647]</text>
<polygon fill="none" stroke="#000000" points="10,-311.7 10,-333.7 98,-333.7 98,-311.7 10,-311.7"/>
<text text-anchor="start" x="30" y="-318.8" font-family="Helvetica,sans-Serif" font-size="11.00" fill="#000000">region</text>
<polygon fill="none" stroke="#000000" points="98,-311.7 98,-333.7 188,-333.7 188,-311.7 98,-311.7"/>
<text text-anchor="start" x="100.5042" y="-319.4" font-family="Helvetica,sans-Serif" font-size="11.00" fill="#000000">text[2147483647]</text>
<polygon fill="none" stroke="#000000" points="10,-289.7 10,-311.7 98,-311.7 98,-289.7 10,-289.7"/>
<text text-anchor="start" x="30" y="-296.8" font-family="Helvetica,sans-Serif" font-size="11.00" fill="#000000">country</text>
<polygon fill="none" stroke="#000000" points="98,-289.7 98,-311.7 188,-311.7 188,-289.7 98,-289.7"/>
<text text-anchor="start" x="100.5042" y="-297.4" font-family="Helvetica,sans-Serif" font-size="11.00" fill="#000000">text[2147483647]</text>
<polygon fill="none" stroke="#000000" points="10,-267.7 10,-289.7 98,-289.7 98,-267.7 10,-267.7"/>
<text text-anchor="start" x="30" y="-274.8" font-family="Helvetica,sans-Serif" font-size="11.00" fill="#000000">imageUrl</text>
<polygon fill="none" stroke="#000000" points="98,-267.7 98,-289.7 188,-289.7 188,-267.7 98,-267.7"/>
<text text-anchor="start" x="100.5042" y="-275.4" font-family="Helvetica,sans-Serif" font-size="11.00" fill="#000000">text[2147483647]</text>
<polygon fill="none" stroke="#000000" points="10,-245.7 10,-267.7 98,-267.7 98,-245.7 10,-245.7"/>
<text text-anchor="start" x="30" y="-252.8" font-family="Helvetica,sans-Serif" font-size="11.00" fill="#000000">chatUrl</text>
<polygon fill="none" stroke="#000000" points="98,-245.7 98,-267.7 188,-267.7 188,-245.7 98,-245.7"/>
<text text-anchor="start" x="100.5042" y="-253.4" font-family="Helvetica,sans-Serif" font-size="11.00" fill="#000000">text[2147483647]</text>
<polygon fill="none" stroke="#000000" points="10,-223.7 10,-245.7 98,-245.7 98,-223.7 10,-223.7"/>
<text text-anchor="start" x="30" y="-230.8" font-family="Helvetica,sans-Serif" font-size="11.00" fill="#000000">creator_id</text>
<polygon fill="none" stroke="#000000" points="98,-223.7 98,-245.7 188,-245.7 188,-223.7 98,-223.7"/>
<text text-anchor="start" x="101" y="-231.4" font-family="Helvetica,sans-Serif" font-size="11.00" fill="#000000">int4[10]</text>
<polygon fill="#ffffff" stroke="transparent" points="10,-204.7 10,-223.7 45,-223.7 45,-204.7 10,-204.7"/>
<polygon fill="none" stroke="#000000" points="10,-204.7 10,-223.7 45,-223.7 45,-204.7 10,-204.7"/>
<text text-anchor="start" x="13" y="-210.8" font-family="Helvetica,sans-Serif" font-size="11.00" fill="#000000">&lt; 0</text>
<polygon fill="#ffffff" stroke="transparent" points="45,-204.7 45,-223.7 98,-223.7 98,-204.7 45,-204.7"/>
<polygon fill="none" stroke="#000000" points="45,-204.7 45,-223.7 98,-223.7 98,-204.7 45,-204.7"/>
<text text-anchor="start" x="62.6105" y="-210.8" font-family="Helvetica,sans-Serif" font-size="11.00" fill="#000000">0 rows</text>
<polygon fill="#ffffff" stroke="transparent" points="98,-204.7 98,-223.7 188,-223.7 188,-204.7 98,-204.7"/>
<polygon fill="none" stroke="#000000" points="98,-204.7 98,-223.7 188,-223.7 188,-204.7 98,-204.7"/>
<text text-anchor="start" x="169.4053" y="-210.8" font-family="Helvetica,sans-Serif" font-size="11.00" fill="#000000">4 &gt;</text>
<polygon fill="none" stroke="#000000" stroke-width="2" points="9,-203.7 9,-511.7 189,-511.7 189,-203.7 9,-203.7"/>
</a>
</g>
</g>
<!-- chapter_users&#45;&gt;chapters -->
<g id="edge1" class="edge">
<title>chapter_users:w&#45;&gt;chapters:e</title>
<path fill="none" stroke="#000000" d="M224.2817,-191.5163C145.1606,-213.7531 292.7491,-432.7 188,-432.7"/>
<polygon fill="#000000" stroke="#000000" points="231.0602,-190.6798 239.4409,-193.2729 235.0301,-190.1899 239,-189.7 239,-189.7 239,-189.7 235.0301,-190.1899 238.5591,-186.1271 231.0602,-190.6798 231.0602,-190.6798"/>
<ellipse fill="none" stroke="#000000" cx="227.8843" cy="-191.0718" rx="3.2" ry="3.2"/>
</g>
<!-- chapter_roles -->
<g id="node3" class="node">
<title>chapter_roles</title>
<g id="a_node3"><a xlink:href="../../tables/chapter_roles.html" xlink:title="chapter_roles" target="_top">
<polygon fill="#ffffff" stroke="transparent" points="44.5,-38.2 44.5,-99.2 153.5,-99.2 153.5,-38.2 44.5,-38.2"/>
<polygon fill="#f5f5f5" stroke="transparent" points="45,-75.7 45,-98.7 154,-98.7 154,-75.7 45,-75.7"/>
<polygon fill="none" stroke="#000000" points="45,-75.7 45,-98.7 154,-98.7 154,-75.7 45,-75.7"/>
<text text-anchor="start" x="49.6871" y="-84.8" font-family="Helvetica,sans-Serif" font-weight="bold" font-size="11.00" fill="#000000">chapter_roles</text>
<text text-anchor="start" x="119.5219" y="-83.8" font-family="Helvetica,sans-Serif" font-size="11.00" fill="#000000">[table]</text>
<polygon fill="none" stroke="#000000" points="45,-56.7 45,-75.7 154,-75.7 154,-56.7 45,-56.7"/>
<text text-anchor="start" x="48" y="-62.8" font-family="Helvetica,sans-Serif" font-size="11.00" fill="#000000">...</text>
<polygon fill="#ffffff" stroke="transparent" points="45,-37.7 45,-56.7 76,-56.7 76,-37.7 45,-37.7"/>
<polygon fill="none" stroke="#000000" points="45,-37.7 45,-56.7 76,-56.7 76,-37.7 45,-37.7"/>
<text text-anchor="start" x="48" y="-43.8" font-family="Helvetica,sans-Serif" font-size="11.00" fill="#000000"> &#160;</text>
<polygon fill="#ffffff" stroke="transparent" points="76,-37.7 76,-56.7 123,-56.7 123,-37.7 76,-37.7"/>
<polygon fill="none" stroke="#000000" points="76,-37.7 76,-56.7 123,-56.7 123,-37.7 76,-37.7"/>
<text text-anchor="start" x="87.6105" y="-43.8" font-family="Helvetica,sans-Serif" font-size="11.00" fill="#000000">0 rows</text>
<polygon fill="#ffffff" stroke="transparent" points="123,-37.7 123,-56.7 154,-56.7 154,-37.7 123,-37.7"/>
<polygon fill="none" stroke="#000000" points="123,-37.7 123,-56.7 154,-56.7 154,-37.7 123,-37.7"/>
<text text-anchor="start" x="135.4053" y="-43.8" font-family="Helvetica,sans-Serif" font-size="11.00" fill="#000000">2 &gt;</text>
</a>
</g>
</g>
<!-- chapter_users&#45;&gt;chapter_roles -->
<g id="edge2" class="edge">
<title>chapter_users:w&#45;&gt;chapter_roles:e</title>
<path fill="none" stroke="#000000" d="M224.8153,-164.1495C210.5026,-154.8433 214.3719,-129.1228 198,-109.7 180.1759,-88.5543 181.6557,-65.7 154,-65.7"/>
<polygon fill="#000000" stroke="#000000" points="231.2394,-165.7574 238.1258,-171.1923 235.1197,-166.7287 239,-167.7 239,-167.7 239,-167.7 235.1197,-166.7287 239.8742,-164.2077 231.2394,-165.7574 231.2394,-165.7574"/>
<ellipse fill="none" stroke="#000000" cx="228.1352" cy="-164.9804" rx="3.2" ry="3.2"/>
</g>
<!-- users -->
<g id="node4" class="node">
<title>users</title>
<g id="a_node4"><a xlink:href="../../tables/users.html" xlink:title="users" target="_top">
<polygon fill="#ffffff" stroke="transparent" points="59,-120.2 59,-181.2 139,-181.2 139,-120.2 59,-120.2"/>
<polygon fill="#f5f5f5" stroke="transparent" points="59,-157.7 59,-180.7 139,-180.7 139,-157.7 59,-157.7"/>
<polygon fill="none" stroke="#000000" points="59,-157.7 59,-180.7 139,-180.7 139,-157.7 59,-157.7"/>
<text text-anchor="start" x="64" y="-166.8" font-family="Helvetica,sans-Serif" font-weight="bold" font-size="11.00" fill="#000000">users</text>
<text text-anchor="start" x="104.0437" y="-165.8" font-family="Helvetica,sans-Serif" font-size="11.00" fill="#000000">[table]</text>
<polygon fill="none" stroke="#000000" points="59,-138.7 59,-157.7 139,-157.7 139,-138.7 59,-138.7"/>
<text text-anchor="start" x="62" y="-144.8" font-family="Helvetica,sans-Serif" font-size="11.00" fill="#000000">...</text>
<polygon fill="#ffffff" stroke="transparent" points="59,-119.7 59,-138.7 80,-138.7 80,-119.7 59,-119.7"/>
<polygon fill="none" stroke="#000000" points="59,-119.7 59,-138.7 80,-138.7 80,-119.7 59,-119.7"/>
<text text-anchor="start" x="61.7027" y="-125.8" font-family="Helvetica,sans-Serif" font-size="11.00" fill="#000000">&lt; 1</text>
<polygon fill="#ffffff" stroke="transparent" points="80,-119.7 80,-138.7 118,-138.7 118,-119.7 80,-119.7"/>
<polygon fill="none" stroke="#000000" points="80,-119.7 80,-138.7 118,-138.7 118,-119.7 80,-119.7"/>
<text text-anchor="start" x="82.8053" y="-125.8" font-family="Helvetica,sans-Serif" font-size="11.00" fill="#000000">0 rows</text>
<polygon fill="#ffffff" stroke="transparent" points="118,-119.7 118,-138.7 139,-138.7 139,-119.7 118,-119.7"/>
<polygon fill="none" stroke="#000000" points="118,-119.7 118,-138.7 139,-138.7 139,-119.7 118,-119.7"/>
<text text-anchor="start" x="120.7027" y="-125.8" font-family="Helvetica,sans-Serif" font-size="11.00" fill="#000000">3 &gt;</text>
</a>
</g>
</g>
<!-- chapter_users&#45;&gt;users -->
<g id="edge3" class="edge">
<title>chapter_users:w&#45;&gt;users:e</title>
<path fill="none" stroke="#000000" d="M224.6044,-209.8536C186.7555,-199.3602 186.4082,-147.7 139,-147.7"/>
<polygon fill="#000000" stroke="#000000" points="231.065,-210.6822 238.542,-215.2707 235.0325,-211.1911 239,-211.7 239,-211.7 239,-211.7 235.0325,-211.1911 239.458,-208.1293 231.065,-210.6822 231.065,-210.6822"/>
<ellipse fill="none" stroke="#000000" cx="227.891" cy="-210.2751" rx="3.2" ry="3.2"/>
</g>
<!-- event_sponsors -->
<g id="node5" class="node">
<title>event_sponsors</title>
<g id="a_node5"><a xlink:href="../../tables/event_sponsors.html" xlink:title="event_sponsors" target="_top">
<polygon fill="#ffffff" stroke="transparent" points="553,-372.2 553,-433.2 673,-433.2 673,-372.2 553,-372.2"/>
<polygon fill="#f5f5f5" stroke="transparent" points="553,-409.7 553,-432.7 673,-432.7 673,-409.7 553,-409.7"/>
<polygon fill="none" stroke="#000000" points="553,-409.7 553,-432.7 673,-432.7 673,-409.7 553,-409.7"/>
<text text-anchor="start" x="557.681" y="-418.8" font-family="Helvetica,sans-Serif" font-weight="bold" font-size="11.00" fill="#000000">event_sponsors</text>
<text text-anchor="start" x="638.5219" y="-417.8" font-family="Helvetica,sans-Serif" font-size="11.00" fill="#000000">[table]</text>
<polygon fill="none" stroke="#000000" points="553,-390.7 553,-409.7 673,-409.7 673,-390.7 553,-390.7"/>
<text text-anchor="start" x="556" y="-396.8" font-family="Helvetica,sans-Serif" font-size="11.00" fill="#000000">...</text>
<polygon fill="#ffffff" stroke="transparent" points="553,-371.7 553,-390.7 598,-390.7 598,-371.7 553,-371.7"/>
<polygon fill="none" stroke="#000000" points="553,-371.7 553,-390.7 598,-390.7 598,-371.7 553,-371.7"/>
<text text-anchor="start" x="556" y="-377.8" font-family="Helvetica,sans-Serif" font-size="11.00" fill="#000000">&lt; 2</text>
<polygon fill="#ffffff" stroke="transparent" points="598,-371.7 598,-390.7 648,-390.7 648,-371.7 598,-371.7"/>
<polygon fill="none" stroke="#000000" points="598,-371.7 598,-390.7 648,-390.7 648,-371.7 598,-371.7"/>
<text text-anchor="start" x="612.6105" y="-377.8" font-family="Helvetica,sans-Serif" font-size="11.00" fill="#000000">0 rows</text>
<polygon fill="#ffffff" stroke="transparent" points="648,-371.7 648,-390.7 673,-390.7 673,-371.7 648,-371.7"/>
<polygon fill="none" stroke="#000000" points="648,-371.7 648,-390.7 673,-390.7 673,-371.7 648,-371.7"/>
<text text-anchor="start" x="663.8862" y="-377.8" font-family="Helvetica,sans-Serif" font-size="11.00" fill="#000000"> &#160;</text>
</a>
</g>
</g>
<!-- events -->
<g id="node6" class="node">
<title>events</title>
<g id="a_node6"><a xlink:href="../../tables/events.html" xlink:title="events" target="_top">
<polygon fill="#ffffff" stroke="transparent" points="400,-348.2 400,-475.2 504,-475.2 504,-348.2 400,-348.2"/>
<polygon fill="#f5f5f5" stroke="transparent" points="400,-451.7 400,-474.7 504,-474.7 504,-451.7 400,-451.7"/>
<polygon fill="none" stroke="#000000" points="400,-451.7 400,-474.7 504,-474.7 504,-451.7 400,-451.7"/>
<text text-anchor="start" x="405" y="-460.8" font-family="Helvetica,sans-Serif" font-weight="bold" font-size="11.00" fill="#000000">events</text>
<text text-anchor="start" x="469.0437" y="-459.8" font-family="Helvetica,sans-Serif" font-size="11.00" fill="#000000">[table]</text>
<polygon fill="none" stroke="#000000" points="400,-429.7 400,-451.7 504,-451.7 504,-429.7 400,-429.7"/>
<image xlink:href="../../images/primaryKeys.png" width="11px" height="12px" preserveAspectRatio="xMinYMin meet" x="405" y="-446.7"/>
<text text-anchor="start" x="420" y="-436.8" font-family="Helvetica,sans-Serif" font-size="11.00" fill="#000000">id</text>
<polygon fill="none" stroke="#000000" points="400,-407.7 400,-429.7 504,-429.7 504,-407.7 400,-407.7"/>
<image xlink:href="../../images/foreignKeys.png" width="11px" height="12px" preserveAspectRatio="xMinYMin meet" x="405" y="-424.7"/>
<text text-anchor="start" x="420" y="-414.8" font-family="Helvetica,sans-Serif" font-size="11.00" fill="#000000">venue_id</text>
<polygon fill="none" stroke="#000000" points="400,-385.7 400,-407.7 504,-407.7 504,-385.7 400,-385.7"/>
<image xlink:href="../../images/foreignKeys.png" width="11px" height="12px" preserveAspectRatio="xMinYMin meet" x="405" y="-402.7"/>
<text text-anchor="start" x="420" y="-392.8" font-family="Helvetica,sans-Serif" font-size="11.00" fill="#000000">chapter_id</text>
<polygon fill="none" stroke="#000000" points="400,-366.7 400,-385.7 504,-385.7 504,-366.7 400,-366.7"/>
<text text-anchor="start" x="403" y="-372.8" font-family="Helvetica,sans-Serif" font-size="11.00" fill="#000000">...</text>
<polygon fill="#ffffff" stroke="transparent" points="400,-347.7 400,-366.7 433,-366.7 433,-347.7 400,-347.7"/>
<polygon fill="none" stroke="#000000" points="400,-347.7 400,-366.7 433,-366.7 433,-347.7 400,-347.7"/>
<text text-anchor="start" x="403" y="-353.8" font-family="Helvetica,sans-Serif" font-size="11.00" fill="#000000">&lt; 2</text>
<polygon fill="#ffffff" stroke="transparent" points="433,-347.7 433,-366.7 477,-366.7 477,-347.7 433,-347.7"/>
<polygon fill="none" stroke="#000000" points="433,-347.7 433,-366.7 477,-366.7 477,-347.7 433,-347.7"/>
<text text-anchor="start" x="441.6105" y="-353.8" font-family="Helvetica,sans-Serif" font-size="11.00" fill="#000000">0 rows</text>
<polygon fill="#ffffff" stroke="transparent" points="477,-347.7 477,-366.7 504,-366.7 504,-347.7 477,-347.7"/>
<polygon fill="none" stroke="#000000" points="477,-347.7 477,-366.7 504,-366.7 504,-347.7 477,-347.7"/>
<text text-anchor="start" x="485.4053" y="-353.8" font-family="Helvetica,sans-Serif" font-size="11.00" fill="#000000">3 &gt;</text>
</a>
</g>
</g>
<!-- event_sponsors&#45;&gt;events -->
<g id="edge4" class="edge">
<title>event_sponsors:w&#45;&gt;events:e</title>
<path fill="none" stroke="#000000" d="M539.1819,-404.4032C526.2811,-415.1726 526.4061,-440.7 504,-440.7"/>
<polygon fill="#000000" stroke="#000000" points="545.4267,-402.2778 554.16,-403.108 549.2133,-400.9889 553,-399.7 553,-399.7 553,-399.7 549.2133,-400.9889 551.84,-396.292 545.4267,-402.2778 545.4267,-402.2778"/>
<ellipse fill="none" stroke="#000000" cx="542.3973" cy="-403.3089" rx="3.2" ry="3.2"/>
</g>
<!-- events&#45;&gt;chapters -->
<g id="edge8" class="edge">
<title>events:w&#45;&gt;chapters:e</title>
<path fill="none" stroke="#000000" d="M385.2699,-396.6174C321.4998,-395.9162 298.5246,-391.4453 231,-410.7 210.3557,-416.5867 209.4672,-432.7 188,-432.7"/>
<polygon fill="#000000" stroke="#000000" points="392.0001,-396.6551 399.9798,-400.2999 396.0001,-396.6775 400,-396.7 400,-396.7 400,-396.7 396.0001,-396.6775 400.0202,-393.1001 392.0001,-396.6551 392.0001,-396.6551"/>
<ellipse fill="none" stroke="#000000" cx="388.8002" cy="-396.6371" rx="3.2" ry="3.2"/>
</g>
<!-- venues -->
<g id="node9" class="node">
<title>venues</title>
<g id="a_node9"><a xlink:href="../../tables/venues.html" xlink:title="venues" target="_top">
<polygon fill="#ffffff" stroke="transparent" points="241,-421.2 241,-526.2 349,-526.2 349,-421.2 241,-421.2"/>
<polygon fill="#f5f5f5" stroke="transparent" points="241,-502.7 241,-525.7 349,-525.7 349,-502.7 241,-502.7"/>
<polygon fill="none" stroke="#000000" points="241,-502.7 241,-525.7 349,-525.7 349,-502.7 241,-502.7"/>
<text text-anchor="start" x="246" y="-511.8" font-family="Helvetica,sans-Serif" font-weight="bold" font-size="11.00" fill="#000000">venues</text>
<text text-anchor="start" x="314.0437" y="-510.8" font-family="Helvetica,sans-Serif" font-size="11.00" fill="#000000">[table]</text>
<polygon fill="none" stroke="#000000" points="241,-480.7 241,-502.7 349,-502.7 349,-480.7 241,-480.7"/>
<image xlink:href="../../images/primaryKeys.png" width="11px" height="12px" preserveAspectRatio="xMinYMin meet" x="246" y="-497.7"/>
<text text-anchor="start" x="261" y="-487.8" font-family="Helvetica,sans-Serif" font-size="11.00" fill="#000000">id</text>
<polygon fill="#ffffff" stroke="transparent" points="241,-458.7 241,-480.7 349,-480.7 349,-458.7 241,-458.7"/>
<polygon fill="none" stroke="#000000" points="241,-458.7 241,-480.7 349,-480.7 349,-458.7 241,-458.7"/>
<image xlink:href="../../images/foreignKeys.png" width="11px" height="12px" preserveAspectRatio="xMinYMin meet" x="246" y="-475.7"/>
<text text-anchor="start" x="261" y="-465.8" font-family="Helvetica,sans-Serif" font-size="11.00" fill="#000000">chapter_id</text>
<polygon fill="none" stroke="#000000" points="241,-439.7 241,-458.7 349,-458.7 349,-439.7 241,-439.7"/>
<text text-anchor="start" x="244" y="-445.8" font-family="Helvetica,sans-Serif" font-size="11.00" fill="#000000">...</text>
<polygon fill="#ffffff" stroke="transparent" points="241,-420.7 241,-439.7 276,-439.7 276,-420.7 241,-420.7"/>
<polygon fill="none" stroke="#000000" points="241,-420.7 241,-439.7 276,-439.7 276,-420.7 241,-420.7"/>
<text text-anchor="start" x="244" y="-426.8" font-family="Helvetica,sans-Serif" font-size="11.00" fill="#000000">&lt; 1</text>
<polygon fill="#ffffff" stroke="transparent" points="276,-420.7 276,-439.7 321,-439.7 321,-420.7 276,-420.7"/>
<polygon fill="none" stroke="#000000" points="276,-420.7 276,-439.7 321,-439.7 321,-420.7 276,-420.7"/>
<text text-anchor="start" x="285.6105" y="-426.8" font-family="Helvetica,sans-Serif" font-size="11.00" fill="#000000">0 rows</text>
<polygon fill="#ffffff" stroke="transparent" points="321,-420.7 321,-439.7 349,-439.7 349,-420.7 321,-420.7"/>
<polygon fill="none" stroke="#000000" points="321,-420.7 321,-439.7 349,-439.7 349,-420.7 321,-420.7"/>
<text text-anchor="start" x="330.4053" y="-426.8" font-family="Helvetica,sans-Serif" font-size="11.00" fill="#000000">1 &gt;</text>
</a>
</g>
</g>
<!-- events&#45;&gt;venues -->
<g id="edge9" class="edge">
<title>events:w&#45;&gt;venues:e</title>
<path fill="none" stroke="#000000" d="M386.1487,-423.2665C367.4288,-439.248 382.5486,-491.7 349,-491.7"/>
<polygon fill="#000000" stroke="#000000" points="392.4022,-421.2049 401.1272,-422.119 396.2011,-419.9524 400,-418.7 400,-418.7 400,-418.7 396.2011,-419.9524 398.8728,-415.281 392.4022,-421.2049 392.4022,-421.2049"/>
<ellipse fill="none" stroke="#000000" cx="389.3631" cy="-422.2068" rx="3.2" ry="3.2"/>
</g>
<!-- event_tags -->
<g id="node7" class="node">
<title>event_tags</title>
<g id="a_node7"><a xlink:href="../../tables/event_tags.html" xlink:title="event_tags" target="_top">
<polygon fill="#ffffff" stroke="transparent" points="565,-454.2 565,-515.2 661,-515.2 661,-454.2 565,-454.2"/>
<polygon fill="#f5f5f5" stroke="transparent" points="565,-491.7 565,-514.7 661,-514.7 661,-491.7 565,-491.7"/>
<polygon fill="none" stroke="#000000" points="565,-491.7 565,-514.7 661,-514.7 661,-491.7 565,-491.7"/>
<text text-anchor="start" x="569.5984" y="-500.8" font-family="Helvetica,sans-Serif" font-weight="bold" font-size="11.00" fill="#000000">event_tags</text>
<text text-anchor="start" x="626.5219" y="-499.8" font-family="Helvetica,sans-Serif" font-size="11.00" fill="#000000">[table]</text>
<polygon fill="none" stroke="#000000" points="565,-472.7 565,-491.7 661,-491.7 661,-472.7 565,-472.7"/>
<text text-anchor="start" x="568" y="-478.8" font-family="Helvetica,sans-Serif" font-size="11.00" fill="#000000">...</text>
<polygon fill="#ffffff" stroke="transparent" points="565,-453.7 565,-472.7 598,-472.7 598,-453.7 565,-453.7"/>
<polygon fill="none" stroke="#000000" points="565,-453.7 565,-472.7 598,-472.7 598,-453.7 565,-453.7"/>
<text text-anchor="start" x="568" y="-459.8" font-family="Helvetica,sans-Serif" font-size="11.00" fill="#000000">&lt; 2</text>
<polygon fill="#ffffff" stroke="transparent" points="598,-453.7 598,-472.7 642,-472.7 642,-453.7 598,-453.7"/>
<polygon fill="none" stroke="#000000" points="598,-453.7 598,-472.7 642,-472.7 642,-453.7 598,-453.7"/>
<text text-anchor="start" x="606.6105" y="-459.8" font-family="Helvetica,sans-Serif" font-size="11.00" fill="#000000">0 rows</text>
<polygon fill="#ffffff" stroke="transparent" points="642,-453.7 642,-472.7 661,-472.7 661,-453.7 642,-453.7"/>
<polygon fill="none" stroke="#000000" points="642,-453.7 642,-472.7 661,-472.7 661,-453.7 642,-453.7"/>
<text text-anchor="start" x="651.8862" y="-459.8" font-family="Helvetica,sans-Serif" font-size="11.00" fill="#000000"> &#160;</text>
</a>
</g>
</g>
<!-- event_tags&#45;&gt;events -->
<g id="edge5" class="edge">
<title>event_tags:w&#45;&gt;events:e</title>
<path fill="none" stroke="#000000" d="M550.8015,-478.3448C532.7138,-468.5528 530.9239,-440.7 504,-440.7"/>
<polygon fill="#000000" stroke="#000000" points="557.2144,-479.8602 564.1721,-485.2035 561.1072,-480.7801 565,-481.7 565,-481.7 565,-481.7 561.1072,-480.7801 565.8279,-478.1965 557.2144,-479.8602 557.2144,-479.8602"/>
<ellipse fill="none" stroke="#000000" cx="554.1002" cy="-479.1242" rx="3.2" ry="3.2"/>
</g>
<!-- event_users -->
<g id="node8" class="node">
<title>event_users</title>
<g id="a_node8"><a xlink:href="../../tables/event_users.html" xlink:title="event_users" target="_top">
<polygon fill="#ffffff" stroke="transparent" points="562,-158.2 562,-219.2 664,-219.2 664,-158.2 562,-158.2"/>
<polygon fill="#f5f5f5" stroke="transparent" points="562,-195.7 562,-218.7 664,-218.7 664,-195.7 562,-195.7"/>
<polygon fill="none" stroke="#000000" points="562,-195.7 562,-218.7 664,-218.7 664,-195.7 562,-195.7"/>
<text text-anchor="start" x="566.5459" y="-204.8" font-family="Helvetica,sans-Serif" font-weight="bold" font-size="11.00" fill="#000000">event_users</text>
<text text-anchor="start" x="629.5219" y="-203.8" font-family="Helvetica,sans-Serif" font-size="11.00" fill="#000000">[table]</text>
<polygon fill="none" stroke="#000000" points="562,-176.7 562,-195.7 664,-195.7 664,-176.7 562,-176.7"/>
<text text-anchor="start" x="565" y="-182.8" font-family="Helvetica,sans-Serif" font-size="11.00" fill="#000000">...</text>
<polygon fill="#ffffff" stroke="transparent" points="562,-157.7 562,-176.7 594,-176.7 594,-157.7 562,-157.7"/>
<polygon fill="none" stroke="#000000" points="562,-157.7 562,-176.7 594,-176.7 594,-157.7 562,-157.7"/>
<text text-anchor="start" x="565" y="-163.8" font-family="Helvetica,sans-Serif" font-size="11.00" fill="#000000">&lt; 4</text>
<polygon fill="#ffffff" stroke="transparent" points="594,-157.7 594,-176.7 637,-176.7 637,-157.7 594,-157.7"/>
<polygon fill="none" stroke="#000000" points="594,-157.7 594,-176.7 637,-176.7 637,-157.7 594,-157.7"/>
<text text-anchor="start" x="601.6105" y="-163.8" font-family="Helvetica,sans-Serif" font-size="11.00" fill="#000000">0 rows</text>
<polygon fill="#ffffff" stroke="transparent" points="637,-157.7 637,-176.7 664,-176.7 664,-157.7 637,-157.7"/>
<polygon fill="none" stroke="#000000" points="637,-157.7 637,-176.7 664,-176.7 664,-157.7 637,-157.7"/>
<text text-anchor="start" x="645.4053" y="-163.8" font-family="Helvetica,sans-Serif" font-size="11.00" fill="#000000">2 &gt;</text>
</a>
</g>
</g>
<!-- event_users&#45;&gt;users -->
<g id="edge7" class="edge">
<title>event_users:w&#45;&gt;users:e</title>
<path fill="none" stroke="#000000" d="M547.4179,-185.2177C464.0511,-179.531 448.9084,-125.1788 359,-108.7 303.0432,-98.444 286.7495,-97.3715 231,-108.7 187.4784,-117.5438 183.4111,-147.7 139,-147.7"/>
<polygon fill="#000000" stroke="#000000" points="554.0044,-185.4355 561.881,-189.298 558.0022,-185.5677 562,-185.7 562,-185.7 562,-185.7 558.0022,-185.5677 562.119,-182.102 554.0044,-185.4355 554.0044,-185.4355"/>
<ellipse fill="none" stroke="#000000" cx="550.8061" cy="-185.3297" rx="3.2" ry="3.2"/>
</g>
<!-- event_users&#45;&gt;events -->
<g id="edge6" class="edge">
<title>event_users:w&#45;&gt;events:e</title>
<path fill="none" stroke="#000000" d="M548.5313,-192.0034C513.7812,-231.2713 556.6658,-440.7 504,-440.7"/>
<polygon fill="#000000" stroke="#000000" points="554.7543,-189.0911 563.526,-188.9606 558.3771,-187.3955 562,-185.7 562,-185.7 562,-185.7 558.3771,-187.3955 560.474,-182.4394 554.7543,-189.0911 554.7543,-189.0911"/>
<ellipse fill="none" stroke="#000000" cx="551.856" cy="-190.4475" rx="3.2" ry="3.2"/>
</g>
<!-- venues&#45;&gt;chapters -->
<g id="edge12" class="edge">
<title>venues:w&#45;&gt;chapters:e</title>
<path fill="none" stroke="#000000" d="M227.0452,-465.7404C212.7132,-456.1954 210.8924,-432.7 188,-432.7"/>
<polygon fill="#000000" stroke="#000000" points="233.3038,-467.5162 240.0173,-473.1633 237.1519,-468.6081 241,-469.7 241,-469.7 241,-469.7 237.1519,-468.6081 241.9827,-466.2367 233.3038,-467.5162 233.3038,-467.5162"/>
<ellipse fill="none" stroke="#000000" cx="230.2254" cy="-466.6427" rx="3.2" ry="3.2"/>
</g>
<!-- user_bans -->
<g id="node10" class="node">
<title>user_bans</title>
<g id="a_node10"><a xlink:href="../../tables/user_bans.html" xlink:title="user_bans" target="_top">
<polygon fill="#ffffff" stroke="transparent" points="248,-267.2 248,-372.2 342,-372.2 342,-267.2 248,-267.2"/>
<polygon fill="#f5f5f5" stroke="transparent" points="248,-348.7 248,-371.7 342,-371.7 342,-348.7 248,-348.7"/>
<polygon fill="none" stroke="#000000" points="248,-348.7 248,-371.7 342,-371.7 342,-348.7 248,-348.7"/>
<text text-anchor="start" x="252.8244" y="-357.8" font-family="Helvetica,sans-Serif" font-weight="bold" font-size="11.00" fill="#000000">user_bans</text>
<text text-anchor="start" x="307.5219" y="-356.8" font-family="Helvetica,sans-Serif" font-size="11.00" fill="#000000">[table]</text>
<polygon fill="none" stroke="#000000" points="248,-326.7 248,-348.7 342,-348.7 342,-326.7 248,-326.7"/>
<image xlink:href="../../images/primaryKeys.png" width="11px" height="12px" preserveAspectRatio="xMinYMin meet" x="253" y="-343.7"/>
<text text-anchor="start" x="271" y="-333.8" font-family="Helvetica,sans-Serif" font-size="11.00" fill="#000000">user_id</text>
<polygon fill="none" stroke="#000000" points="248,-304.7 248,-326.7 342,-326.7 342,-304.7 248,-304.7"/>
<image xlink:href="../../images/primaryKeys.png" width="11px" height="12px" preserveAspectRatio="xMinYMin meet" x="253" y="-321.7"/>
<text text-anchor="start" x="271" y="-311.8" font-family="Helvetica,sans-Serif" font-size="11.00" fill="#000000">chapter_id</text>
<polygon fill="none" stroke="#000000" points="248,-285.7 248,-304.7 342,-304.7 342,-285.7 248,-285.7"/>
<text text-anchor="start" x="251" y="-291.8" font-family="Helvetica,sans-Serif" font-size="11.00" fill="#000000">...</text>
<polygon fill="#ffffff" stroke="transparent" points="248,-266.7 248,-285.7 280,-285.7 280,-266.7 248,-266.7"/>
<polygon fill="none" stroke="#000000" points="248,-266.7 248,-285.7 280,-285.7 280,-266.7 248,-266.7"/>
<text text-anchor="start" x="251" y="-272.8" font-family="Helvetica,sans-Serif" font-size="11.00" fill="#000000">&lt; 2</text>
<polygon fill="#ffffff" stroke="transparent" points="280,-266.7 280,-285.7 324,-285.7 324,-266.7 280,-266.7"/>
<polygon fill="none" stroke="#000000" points="280,-266.7 280,-285.7 324,-285.7 324,-266.7 280,-266.7"/>
<text text-anchor="start" x="288.6105" y="-272.8" font-family="Helvetica,sans-Serif" font-size="11.00" fill="#000000">0 rows</text>
<polygon fill="#ffffff" stroke="transparent" points="324,-266.7 324,-285.7 342,-285.7 342,-266.7 324,-266.7"/>
<polygon fill="none" stroke="#000000" points="324,-266.7 324,-285.7 342,-285.7 342,-266.7 324,-266.7"/>
<text text-anchor="start" x="332.8862" y="-272.8" font-family="Helvetica,sans-Serif" font-size="11.00" fill="#000000"> &#160;</text>
</a>
</g>
</g>
<!-- user_bans&#45;&gt;chapters -->
<g id="edge10" class="edge">
<title>user_bans:w&#45;&gt;chapters:e</title>
<path fill="none" stroke="#000000" d="M233.5212,-319.0754C199.9249,-338.2588 240.5037,-432.7 188,-432.7"/>
<polygon fill="#000000" stroke="#000000" points="240.2089,-317.5164 248.8174,-319.206 244.1045,-316.6082 248,-315.7 248,-315.7 248,-315.7 244.1045,-316.6082 247.1826,-312.194 240.2089,-317.5164 240.2089,-317.5164"/>
<ellipse fill="none" stroke="#000000" cx="237.0925" cy="-318.2429" rx="3.2" ry="3.2"/>
</g>
<!-- user_bans&#45;&gt;users -->
<g id="edge11" class="edge">
<title>user_bans:w&#45;&gt;users:e</title>
<path fill="none" stroke="#000000" d="M233.5711,-335.9409C188.4216,-323.0762 235.0928,-242.5759 198,-191.7 178.7289,-165.268 171.7112,-147.7 139,-147.7"/>
<polygon fill="#000000" stroke="#000000" points="240.0588,-336.7318 247.5643,-341.2735 244.0294,-337.2159 248,-337.7 248,-337.7 248,-337.7 244.0294,-337.2159 248.4357,-334.1265 240.0588,-336.7318 240.0588,-336.7318"/>
<ellipse fill="none" stroke="#000000" cx="236.8823" cy="-336.3445" rx="3.2" ry="3.2"/>
</g>
</g>
</svg>
