<?xml version="1.0" encoding="UTF-8" standalone="no"?>
<!DOCTYPE svg PUBLIC "-//W3C//DTD SVG 1.1//EN"
 "http://www.w3.org/Graphics/SVG/1.1/DTD/svg11.dtd">
<!-- Generated by graphviz version 2.40.1 (20161225.0304)
 -->
<!-- Title: twoDegreesRelationshipsDiagram Pages: 1 -->
<svg width="503pt" height="267pt"
 viewBox="0.00 0.00 503.00 266.70" xmlns="http://www.w3.org/2000/svg" xmlns:xlink="http://www.w3.org/1999/xlink">
<g id="graph0" class="graph" transform="scale(1 1) rotate(0) translate(4 262.7)">
<title>twoDegreesRelationshipsDiagram</title>
<polygon fill="#ffffff" stroke="transparent" points="-4,4 -4,-262.7 499,-262.7 499,4 -4,4"/>
<text text-anchor="middle" x="72.4936" y="-7.3" font-family="Helvetica,sans-Serif" font-size="11.00" fill="#000000">Generated by SchemaSpy</text>
<!-- chapter_role_permissions -->
<g id="node1" class="node">
<title>chapter_role_permissions</title>
<g id="a_node1"><a xlink:href="../../tables/chapter_role_permissions.html" xlink:title="chapter_role_permissions" target="_top">
<polygon fill="#ffffff" stroke="transparent" points="296,-96.7 296,-201.7 487,-201.7 487,-96.7 296,-96.7"/>
<polygon fill="#f5f5f5" stroke="transparent" points="296.5,-178.2 296.5,-201.2 487.5,-201.2 487.5,-178.2 296.5,-178.2"/>
<polygon fill="none" stroke="#000000" points="296.5,-178.2 296.5,-201.2 487.5,-201.2 487.5,-178.2 296.5,-178.2"/>
<text text-anchor="start" x="301.5" y="-186.8" font-family="Helvetica,sans-Serif" font-weight="bold" font-size="11.00" fill="#000000">chapter_role_permissions</text>
<text text-anchor="start" x="453.0219" y="-186.3" font-family="Helvetica,sans-Serif" font-size="11.00" fill="#000000">[table]</text>
<polygon fill="none" stroke="#000000" points="296.5,-156.2 296.5,-178.2 487.5,-178.2 487.5,-156.2 296.5,-156.2"/>
<image xlink:href="../../images/primaryKeys.png" width="11px" height="12px" preserveAspectRatio="xMinYMin meet" x="301.5" y="-173.2"/>
<text text-anchor="start" x="325.5" y="-163.3" font-family="Helvetica,sans-Serif" font-size="11.00" fill="#000000">chapter_role_id</text>
<polygon fill="none" stroke="#000000" points="296.5,-134.2 296.5,-156.2 487.5,-156.2 487.5,-134.2 296.5,-134.2"/>
<image xlink:href="../../images/primaryKeys.png" width="11px" height="12px" preserveAspectRatio="xMinYMin meet" x="301.5" y="-151.2"/>
<text text-anchor="start" x="325.5" y="-141.3" font-family="Helvetica,sans-Serif" font-size="11.00" fill="#000000">chapter_permissions_id</text>
<polygon fill="none" stroke="#000000" points="296.5,-115.2 296.5,-134.2 487.5,-134.2 487.5,-115.2 296.5,-115.2"/>
<text text-anchor="start" x="299.5" y="-121.3" font-family="Helvetica,sans-Serif" font-size="11.00" fill="#000000">...</text>
<polygon fill="#ffffff" stroke="transparent" points="296.5,-96.2 296.5,-115.2 377.5,-115.2 377.5,-96.2 296.5,-96.2"/>
<polygon fill="none" stroke="#000000" points="296.5,-96.2 296.5,-115.2 377.5,-115.2 377.5,-96.2 296.5,-96.2"/>
<text text-anchor="start" x="299.5" y="-102.3" font-family="Helvetica,sans-Serif" font-size="11.00" fill="#000000">&lt; 2</text>
<polygon fill="#ffffff" stroke="transparent" points="377.5,-96.2 377.5,-115.2 445.5,-115.2 445.5,-96.2 377.5,-96.2"/>
<polygon fill="none" stroke="#000000" points="377.5,-96.2 377.5,-115.2 445.5,-115.2 445.5,-96.2 377.5,-96.2"/>
<text text-anchor="start" x="410.1105" y="-102.3" font-family="Helvetica,sans-Serif" font-size="11.00" fill="#000000">0 rows</text>
<polygon fill="#ffffff" stroke="transparent" points="445.5,-96.2 445.5,-115.2 487.5,-115.2 487.5,-96.2 445.5,-96.2"/>
<polygon fill="none" stroke="#000000" points="445.5,-96.2 445.5,-115.2 487.5,-115.2 487.5,-96.2 445.5,-96.2"/>
<text text-anchor="start" x="478.3862" y="-102.3" font-family="Helvetica,sans-Serif" font-size="11.00" fill="#000000"> &#160;</text>
</a>
</g>
</g>
<!-- chapter_permissions -->
<g id="node2" class="node">
<title>chapter_permissions</title>
<g id="a_node2"><a xlink:href="../../tables/chapter_permissions.html" xlink:title="chapter_permissions" target="_top">
<polygon fill="#ffffff" stroke="transparent" points="8,-38.2 8,-172.2 247,-172.2 247,-38.2 8,-38.2"/>
<polygon fill="#f5f5f5" stroke="transparent" points="10.5,-147.2 10.5,-170.2 245.5,-170.2 245.5,-147.2 10.5,-147.2"/>
<polygon fill="none" stroke="#000000" points="10.5,-147.2 10.5,-170.2 245.5,-170.2 245.5,-147.2 10.5,-147.2"/>
<text text-anchor="start" x="15.5" y="-155.8" font-family="Helvetica,sans-Serif" font-weight="bold" font-size="11.00" fill="#000000">chapter_permissions</text>
<text text-anchor="start" x="210.5437" y="-155.3" font-family="Helvetica,sans-Serif" font-size="11.00" fill="#000000">[table]</text>
<polygon fill="none" stroke="#000000" points="10.5,-125.2 10.5,-147.2 155.5,-147.2 155.5,-125.2 10.5,-125.2"/>
<text text-anchor="start" x="30.5" y="-132.3" font-family="Helvetica,sans-Serif" font-size="11.00" fill="#000000">created_at</text>
<polygon fill="none" stroke="#000000" points="155.5,-125.2 155.5,-147.2 245.5,-147.2 245.5,-125.2 155.5,-125.2"/>
<text text-anchor="start" x="158.5" y="-132.9" font-family="Helvetica,sans-Serif" font-size="11.00" fill="#000000">timestamp[26,3]</text>
<polygon fill="none" stroke="#000000" points="10.5,-103.2 10.5,-125.2 155.5,-125.2 155.5,-103.2 10.5,-103.2"/>
<text text-anchor="start" x="30.5" y="-110.3" font-family="Helvetica,sans-Serif" font-size="11.00" fill="#000000">updated_at</text>
<polygon fill="none" stroke="#000000" points="155.5,-103.2 155.5,-125.2 245.5,-125.2 245.5,-103.2 155.5,-103.2"/>
<text text-anchor="start" x="158.5" y="-110.9" font-family="Helvetica,sans-Serif" font-size="11.00" fill="#000000">timestamp[26,3]</text>
<polygon fill="none" stroke="#000000" points="10.5,-81.2 10.5,-103.2 155.5,-103.2 155.5,-81.2 10.5,-81.2"/>
<image xlink:href="../../images/primaryKeys.png" width="11px" height="12px" preserveAspectRatio="xMinYMin meet" x="15.5" y="-98.2"/>
<text text-anchor="start" x="30.5" y="-88.3" font-family="Helvetica,sans-Serif" font-size="11.00" fill="#000000">id</text>
<polygon fill="none" stroke="#000000" points="155.5,-81.2 155.5,-103.2 245.5,-103.2 245.5,-81.2 155.5,-81.2"/>
<text text-anchor="start" x="158.5" y="-88.9" font-family="Helvetica,sans-Serif" font-size="11.00" fill="#000000">serial[10]</text>
<polygon fill="#ffffff" stroke="transparent" points="10.5,-59.2 10.5,-81.2 155.5,-81.2 155.5,-59.2 10.5,-59.2"/>
<polygon fill="none" stroke="#000000" points="10.5,-59.2 10.5,-81.2 155.5,-81.2 155.5,-59.2 10.5,-59.2"/>
<text text-anchor="start" x="30.5" y="-66.3" font-family="Helvetica,sans-Serif" font-size="11.00" fill="#000000">name</text>
<polygon fill="none" stroke="#000000" points="155.5,-59.2 155.5,-81.2 245.5,-81.2 245.5,-59.2 155.5,-59.2"/>
<text text-anchor="start" x="158.0042" y="-66.9" font-family="Helvetica,sans-Serif" font-size="11.00" fill="#000000">text[2147483647]</text>
<polygon fill="#ffffff" stroke="transparent" points="10.5,-40.2 10.5,-59.2 74.5,-59.2 74.5,-40.2 10.5,-40.2"/>
<polygon fill="none" stroke="#000000" points="10.5,-40.2 10.5,-59.2 74.5,-59.2 74.5,-40.2 10.5,-40.2"/>
<text text-anchor="start" x="13.5" y="-46.3" font-family="Helvetica,sans-Serif" font-size="11.00" fill="#000000">&lt; 0</text>
<polygon fill="#ffffff" stroke="transparent" points="74.5,-40.2 74.5,-59.2 155.5,-59.2 155.5,-40.2 74.5,-40.2"/>
<polygon fill="none" stroke="#000000" points="74.5,-40.2 74.5,-59.2 155.5,-59.2 155.5,-40.2 74.5,-40.2"/>
<text text-anchor="start" x="120.1105" y="-46.3" font-family="Helvetica,sans-Serif" font-size="11.00" fill="#000000">0 rows</text>
<polygon fill="#ffffff" stroke="transparent" points="155.5,-40.2 155.5,-59.2 245.5,-59.2 245.5,-40.2 155.5,-40.2"/>
<polygon fill="none" stroke="#000000" points="155.5,-40.2 155.5,-59.2 245.5,-59.2 245.5,-40.2 155.5,-40.2"/>
<text text-anchor="start" x="226.9053" y="-46.3" font-family="Helvetica,sans-Serif" font-size="11.00" fill="#000000">1 &gt;</text>
<polygon fill="none" stroke="#000000" stroke-width="2" points="9,-39.2 9,-171.2 246,-171.2 246,-39.2 9,-39.2"/>
</a>
</g>
</g>
<!-- chapter_role_permissions&#45;&gt;chapter_permissions -->
<g id="edge1" class="edge">
<title>chapter_role_permissions:w&#45;&gt;chapter_permissions:e</title>
<path fill="none" stroke="#000000" d="M282.4557,-140.3089C267.5477,-127.1883 272.0607,-92.2 245.5,-92.2"/>
<polygon fill="#000000" stroke="#000000" points="288.945,-142.5689 295.316,-148.5997 292.7225,-143.8844 296.5,-145.2 296.5,-145.2 296.5,-145.2 292.7225,-143.8844 297.684,-141.8003 288.945,-142.5689 288.945,-142.5689"/>
<ellipse fill="none" stroke="#000000" cx="285.9231" cy="-141.5164" rx="3.2" ry="3.2"/>
</g>
<!-- chapter_roles -->
<g id="node3" class="node">
<title>chapter_roles</title>
<g id="a_node3"><a xlink:href="../../tables/chapter_roles.html" xlink:title="chapter_roles" target="_top">
<polygon fill="#ffffff" stroke="transparent" points="67.5,-193.7 67.5,-254.7 187.5,-254.7 187.5,-193.7 67.5,-193.7"/>
<polygon fill="#f5f5f5" stroke="transparent" points="67.5,-231.2 67.5,-254.2 187.5,-254.2 187.5,-231.2 67.5,-231.2"/>
<polygon fill="none" stroke="#000000" points="67.5,-231.2 67.5,-254.2 187.5,-254.2 187.5,-231.2 67.5,-231.2"/>
<text text-anchor="start" x="72.5" y="-239.8" font-family="Helvetica,sans-Serif" font-weight="bold" font-size="11.00" fill="#000000">chapter_roles</text>
<text text-anchor="start" x="153.0219" y="-239.3" font-family="Helvetica,sans-Serif" font-size="11.00" fill="#000000">[table]</text>
<polygon fill="none" stroke="#000000" points="67.5,-212.2 67.5,-231.2 187.5,-231.2 187.5,-212.2 67.5,-212.2"/>
<text text-anchor="start" x="70.5" y="-218.3" font-family="Helvetica,sans-Serif" font-size="11.00" fill="#000000">...</text>
<polygon fill="#ffffff" stroke="transparent" points="67.5,-193.2 67.5,-212.2 103.5,-212.2 103.5,-193.2 67.5,-193.2"/>
<polygon fill="none" stroke="#000000" points="67.5,-193.2 67.5,-212.2 103.5,-212.2 103.5,-193.2 67.5,-193.2"/>
<text text-anchor="start" x="70.5" y="-199.3" font-family="Helvetica,sans-Serif" font-size="11.00" fill="#000000"> &#160;</text>
<polygon fill="#ffffff" stroke="transparent" points="103.5,-193.2 103.5,-212.2 153.5,-212.2 153.5,-193.2 103.5,-193.2"/>
<polygon fill="none" stroke="#000000" points="103.5,-193.2 103.5,-212.2 153.5,-212.2 153.5,-193.2 103.5,-193.2"/>
<text text-anchor="start" x="118.1105" y="-199.3" font-family="Helvetica,sans-Serif" font-size="11.00" fill="#000000">0 rows</text>
<polygon fill="#ffffff" stroke="transparent" points="153.5,-193.2 153.5,-212.2 187.5,-212.2 187.5,-193.2 153.5,-193.2"/>
<polygon fill="none" stroke="#000000" points="153.5,-193.2 153.5,-212.2 187.5,-212.2 187.5,-193.2 153.5,-193.2"/>
<text text-anchor="start" x="168.9053" y="-199.3" font-family="Helvetica,sans-Serif" font-size="11.00" fill="#000000">2 &gt;</text>
</a>
</g>
</g>
<!-- chapter_role_permissions&#45;&gt;chapter_roles -->
<g id="edge2" class="edge">
<title>chapter_role_permissions:w&#45;&gt;chapter_roles:e</title>
<path fill="none" stroke="#000000" d="M282.4001,-170.5779C253.3774,-182.3999 210.4136,-221.2 187.5,-221.2"/>
<polygon fill="#000000" stroke="#000000" points="288.7201,-169.0639 297.3387,-170.7009 292.6101,-168.1319 296.5,-167.2 296.5,-167.2 296.5,-167.2 292.6101,-168.1319 295.6613,-163.6991 288.7201,-169.0639 288.7201,-169.0639"/>
<ellipse fill="none" stroke="#000000" cx="285.6082" cy="-169.8094" rx="3.2" ry="3.2"/>
</g>
</g>
</svg>
