<?xml version="1.0" encoding="UTF-8" standalone="no"?>
<!DOCTYPE svg PUBLIC "-//W3C//DTD SVG 1.1//EN"
 "http://www.w3.org/Graphics/SVG/1.1/DTD/svg11.dtd">
<!-- Generated by graphviz version 2.40.1 (20161225.0304)
 -->
<!-- Title: twoDegreesRelationshipsDiagram Pages: 1 -->
<svg width="724pt" height="649pt"
 viewBox="0.00 0.00 724.00 648.98" xmlns="http://www.w3.org/2000/svg" xmlns:xlink="http://www.w3.org/1999/xlink">
<g id="graph0" class="graph" transform="scale(1 1) rotate(0) translate(4 644.9821)">
<title>twoDegreesRelationshipsDiagram</title>
<polygon fill="#ffffff" stroke="transparent" points="-4,4 -4,-644.9821 720,-644.9821 720,4 -4,4"/>
<text text-anchor="middle" x="72.4936" y="-7.3" font-family="Helvetica,sans-Serif" font-size="11.00" fill="#000000">Generated by SchemaSpy</text>
<!-- chapter_role_permissions -->
<g id="node1" class="node">
<title>chapter_role_permissions</title>
<g id="a_node1"><a xlink:href="../../tables/chapter_role_permissions.html" xlink:title="chapter_role_permissions" target="_top">
<polygon fill="#ffffff" stroke="transparent" points="351,-38.2 351,-99.2 519,-99.2 519,-38.2 351,-38.2"/>
<polygon fill="#f5f5f5" stroke="transparent" points="351,-75.7 351,-98.7 519,-98.7 519,-75.7 351,-75.7"/>
<polygon fill="none" stroke="#000000" points="351,-75.7 351,-98.7 519,-98.7 519,-75.7 351,-75.7"/>
<text text-anchor="start" x="355.547" y="-84.8" font-family="Helvetica,sans-Serif" font-weight="bold" font-size="11.00" fill="#000000">chapter_role_permissions</text>
<text text-anchor="start" x="484.5219" y="-83.8" font-family="Helvetica,sans-Serif" font-size="11.00" fill="#000000">[table]</text>
<polygon fill="none" stroke="#000000" points="351,-56.7 351,-75.7 519,-75.7 519,-56.7 351,-56.7"/>
<text text-anchor="start" x="354" y="-62.8" font-family="Helvetica,sans-Serif" font-size="11.00" fill="#000000">...</text>
<polygon fill="#ffffff" stroke="transparent" points="351,-37.7 351,-56.7 420,-56.7 420,-37.7 351,-37.7"/>
<polygon fill="none" stroke="#000000" points="351,-37.7 351,-56.7 420,-56.7 420,-37.7 351,-37.7"/>
<text text-anchor="start" x="354" y="-43.8" font-family="Helvetica,sans-Serif" font-size="11.00" fill="#000000">&lt; 2</text>
<polygon fill="#ffffff" stroke="transparent" points="420,-37.7 420,-56.7 482,-56.7 482,-37.7 420,-37.7"/>
<polygon fill="none" stroke="#000000" points="420,-37.7 420,-56.7 482,-56.7 482,-37.7 420,-37.7"/>
<text text-anchor="start" x="446.6105" y="-43.8" font-family="Helvetica,sans-Serif" font-size="11.00" fill="#000000">0 rows</text>
<polygon fill="#ffffff" stroke="transparent" points="482,-37.7 482,-56.7 519,-56.7 519,-37.7 482,-37.7"/>
<polygon fill="none" stroke="#000000" points="482,-37.7 482,-56.7 519,-56.7 519,-37.7 482,-37.7"/>
<text text-anchor="start" x="509.8862" y="-43.8" font-family="Helvetica,sans-Serif" font-size="11.00" fill="#000000"> &#160;</text>
</a>
</g>
</g>
<!-- chapter_roles -->
<g id="node2" class="node">
<title>chapter_roles</title>
<g id="a_node2"><a xlink:href="../../tables/chapter_roles.html" xlink:title="chapter_roles" target="_top">
<polygon fill="#ffffff" stroke="transparent" points="173.5,-50.2 173.5,-155.2 282.5,-155.2 282.5,-50.2 173.5,-50.2"/>
<polygon fill="#f5f5f5" stroke="transparent" points="174,-131.7 174,-154.7 283,-154.7 283,-131.7 174,-131.7"/>
<polygon fill="none" stroke="#000000" points="174,-131.7 174,-154.7 283,-154.7 283,-131.7 174,-131.7"/>
<text text-anchor="start" x="178.6871" y="-140.8" font-family="Helvetica,sans-Serif" font-weight="bold" font-size="11.00" fill="#000000">chapter_roles</text>
<text text-anchor="start" x="248.5219" y="-139.8" font-family="Helvetica,sans-Serif" font-size="11.00" fill="#000000">[table]</text>
<polygon fill="none" stroke="#000000" points="174,-109.7 174,-131.7 283,-131.7 283,-109.7 174,-109.7"/>
<image xlink:href="../../images/primaryKeys.png" width="11px" height="12px" preserveAspectRatio="xMinYMin meet" x="179" y="-126.7"/>
<text text-anchor="start" x="198" y="-116.8" font-family="Helvetica,sans-Serif" font-size="11.00" fill="#000000">id</text>
<polygon fill="#ffffff" stroke="transparent" points="174,-87.7 174,-109.7 283,-109.7 283,-87.7 174,-87.7"/>
<polygon fill="none" stroke="#000000" points="174,-87.7 174,-109.7 283,-109.7 283,-87.7 174,-87.7"/>
<text text-anchor="start" x="198" y="-94.8" font-family="Helvetica,sans-Serif" font-size="11.00" fill="#000000">name</text>
<polygon fill="none" stroke="#000000" points="174,-68.7 174,-87.7 283,-87.7 283,-68.7 174,-68.7"/>
<text text-anchor="start" x="177" y="-74.8" font-family="Helvetica,sans-Serif" font-size="11.00" fill="#000000">...</text>
<polygon fill="#ffffff" stroke="transparent" points="174,-49.7 174,-68.7 205,-68.7 205,-49.7 174,-49.7"/>
<polygon fill="none" stroke="#000000" points="174,-49.7 174,-68.7 205,-68.7 205,-49.7 174,-49.7"/>
<text text-anchor="start" x="177" y="-55.8" font-family="Helvetica,sans-Serif" font-size="11.00" fill="#000000"> &#160;</text>
<polygon fill="#ffffff" stroke="transparent" points="205,-49.7 205,-68.7 252,-68.7 252,-49.7 205,-49.7"/>
<polygon fill="none" stroke="#000000" points="205,-49.7 205,-68.7 252,-68.7 252,-49.7 205,-49.7"/>
<text text-anchor="start" x="216.6105" y="-55.8" font-family="Helvetica,sans-Serif" font-size="11.00" fill="#000000">0 rows</text>
<polygon fill="#ffffff" stroke="transparent" points="252,-49.7 252,-68.7 283,-68.7 283,-49.7 252,-49.7"/>
<polygon fill="none" stroke="#000000" points="252,-49.7 252,-68.7 283,-68.7 283,-49.7 252,-49.7"/>
<text text-anchor="start" x="264.4053" y="-55.8" font-family="Helvetica,sans-Serif" font-size="11.00" fill="#000000">2 &gt;</text>
</a>
</g>
</g>
<!-- chapter_role_permissions&#45;&gt;chapter_roles -->
<g id="edge1" class="edge">
<title>chapter_role_permissions:w&#45;&gt;chapter_roles:e</title>
<path fill="none" stroke="#000000" d="M336.8988,-68.8146C313.9298,-80.4495 316.2525,-120.7 283,-120.7"/>
<polygon fill="#000000" stroke="#000000" points="343.1883,-67.4255 351.7765,-69.2153 347.0941,-66.5627 351,-65.7 351,-65.7 351,-65.7 347.0941,-66.5627 350.2235,-62.1847 343.1883,-67.4255 343.1883,-67.4255"/>
<ellipse fill="none" stroke="#000000" cx="340.0636" cy="-68.1157" rx="3.2" ry="3.2"/>
</g>
<!-- chapter_users -->
<g id="node3" class="node">
<title>chapter_users</title>
<g id="a_node3"><a xlink:href="../../tables/chapter_users.html" xlink:title="chapter_users" target="_top">
<polygon fill="#ffffff" stroke="transparent" points="335,-120.7 335,-320.7 535,-320.7 535,-120.7 335,-120.7"/>
<polygon fill="#f5f5f5" stroke="transparent" points="337,-295.7 337,-318.7 533,-318.7 533,-295.7 337,-295.7"/>
<polygon fill="none" stroke="#000000" points="337,-295.7 337,-318.7 533,-318.7 533,-295.7 337,-295.7"/>
<text text-anchor="start" x="342" y="-304.8" font-family="Helvetica,sans-Serif" font-weight="bold" font-size="11.00" fill="#000000">chapter_users</text>
<text text-anchor="start" x="498.0437" y="-303.8" font-family="Helvetica,sans-Serif" font-size="11.00" fill="#000000">[table]</text>
<polygon fill="none" stroke="#000000" points="337,-273.7 337,-295.7 449,-295.7 449,-273.7 337,-273.7"/>
<text text-anchor="start" x="357" y="-280.8" font-family="Helvetica,sans-Serif" font-size="11.00" fill="#000000">created_at</text>
<polygon fill="none" stroke="#000000" points="449,-273.7 449,-295.7 533,-295.7 533,-273.7 449,-273.7"/>
<text text-anchor="start" x="451.8807" y="-281.4" font-family="Helvetica,sans-Serif" font-size="11.00" fill="#000000">timestamp[26,3]</text>
<polygon fill="none" stroke="#000000" points="337,-251.7 337,-273.7 449,-273.7 449,-251.7 337,-251.7"/>
<text text-anchor="start" x="357" y="-258.8" font-family="Helvetica,sans-Serif" font-size="11.00" fill="#000000">updated_at</text>
<polygon fill="none" stroke="#000000" points="449,-251.7 449,-273.7 533,-273.7 533,-251.7 449,-251.7"/>
<text text-anchor="start" x="451.8807" y="-259.4" font-family="Helvetica,sans-Serif" font-size="11.00" fill="#000000">timestamp[26,3]</text>
<polygon fill="none" stroke="#000000" points="337,-229.7 337,-251.7 449,-251.7 449,-229.7 337,-229.7"/>
<text text-anchor="start" x="357" y="-236.8" font-family="Helvetica,sans-Serif" font-size="11.00" fill="#000000">joined_date</text>
<polygon fill="none" stroke="#000000" points="449,-229.7 449,-251.7 533,-251.7 533,-229.7 449,-229.7"/>
<text text-anchor="start" x="451.8807" y="-237.4" font-family="Helvetica,sans-Serif" font-size="11.00" fill="#000000">timestamp[26,3]</text>
<polygon fill="none" stroke="#000000" points="337,-207.7 337,-229.7 449,-229.7 449,-207.7 337,-207.7"/>
<image xlink:href="../../images/primaryKeys.png" width="11px" height="12px" preserveAspectRatio="xMinYMin meet" x="342" y="-224.7"/>
<text text-anchor="start" x="357" y="-214.8" font-family="Helvetica,sans-Serif" font-size="11.00" fill="#000000">user_id</text>
<polygon fill="none" stroke="#000000" points="449,-207.7 449,-229.7 533,-229.7 533,-207.7 449,-207.7"/>
<text text-anchor="start" x="452" y="-215.4" font-family="Helvetica,sans-Serif" font-size="11.00" fill="#000000">int4[10]</text>
<polygon fill="none" stroke="#000000" points="337,-185.7 337,-207.7 449,-207.7 449,-185.7 337,-185.7"/>
<image xlink:href="../../images/primaryKeys.png" width="11px" height="12px" preserveAspectRatio="xMinYMin meet" x="342" y="-202.7"/>
<text text-anchor="start" x="357" y="-192.8" font-family="Helvetica,sans-Serif" font-size="11.00" fill="#000000">chapter_id</text>
<polygon fill="none" stroke="#000000" points="449,-185.7 449,-207.7 533,-207.7 533,-185.7 449,-185.7"/>
<text text-anchor="start" x="452" y="-193.4" font-family="Helvetica,sans-Serif" font-size="11.00" fill="#000000">int4[10]</text>
<polygon fill="none" stroke="#000000" points="337,-163.7 337,-185.7 449,-185.7 449,-163.7 337,-163.7"/>
<image xlink:href="../../images/foreignKeys.png" width="11px" height="12px" preserveAspectRatio="xMinYMin meet" x="342" y="-180.7"/>
<text text-anchor="start" x="357" y="-170.8" font-family="Helvetica,sans-Serif" font-size="11.00" fill="#000000">chapter_role_id</text>
<polygon fill="none" stroke="#000000" points="449,-163.7 449,-185.7 533,-185.7 533,-163.7 449,-163.7"/>
<text text-anchor="start" x="452" y="-171.4" font-family="Helvetica,sans-Serif" font-size="11.00" fill="#000000">int4[10]</text>
<polygon fill="none" stroke="#000000" points="337,-141.7 337,-163.7 449,-163.7 449,-141.7 337,-141.7"/>
<text text-anchor="start" x="357" y="-148.8" font-family="Helvetica,sans-Serif" font-size="11.00" fill="#000000">subscribed</text>
<polygon fill="none" stroke="#000000" points="449,-141.7 449,-163.7 533,-163.7 533,-141.7 449,-141.7"/>
<text text-anchor="start" x="452" y="-149.4" font-family="Helvetica,sans-Serif" font-size="11.00" fill="#000000">bool[1]</text>
<polygon fill="#ffffff" stroke="transparent" points="337,-122.7 337,-141.7 384,-141.7 384,-122.7 337,-122.7"/>
<polygon fill="none" stroke="#000000" points="337,-122.7 337,-141.7 384,-141.7 384,-122.7 337,-122.7"/>
<text text-anchor="start" x="340" y="-128.8" font-family="Helvetica,sans-Serif" font-size="11.00" fill="#000000">&lt; 3</text>
<polygon fill="#ffffff" stroke="transparent" points="384,-122.7 384,-141.7 449,-141.7 449,-122.7 384,-122.7"/>
<polygon fill="none" stroke="#000000" points="384,-122.7 384,-141.7 449,-141.7 449,-122.7 384,-122.7"/>
<text text-anchor="start" x="413.6105" y="-128.8" font-family="Helvetica,sans-Serif" font-size="11.00" fill="#000000">0 rows</text>
<polygon fill="#ffffff" stroke="transparent" points="449,-122.7 449,-141.7 533,-141.7 533,-122.7 449,-122.7"/>
<polygon fill="none" stroke="#000000" points="449,-122.7 449,-141.7 533,-141.7 533,-122.7 449,-122.7"/>
<text text-anchor="start" x="514.4053" y="-128.8" font-family="Helvetica,sans-Serif" font-size="11.00" fill="#000000">0 &gt;</text>
<polygon fill="none" stroke="#000000" stroke-width="2" points="336,-121.7 336,-319.7 534,-319.7 534,-121.7 336,-121.7"/>
</a>
</g>
</g>
<!-- chapter_users&#45;&gt;chapter_roles -->
<g id="edge3" class="edge">
<title>chapter_users:w&#45;&gt;chapter_roles:e</title>
<path fill="none" stroke="#000000" d="M322.781,-170.096C306.5037,-157.0373 310.8423,-120.7 283,-120.7"/>
<polygon fill="#000000" stroke="#000000" points="329.389,-172.2356 335.891,-178.1249 333.1945,-173.4678 337,-174.7 337,-174.7 337,-174.7 333.1945,-173.4678 338.109,-171.2751 329.389,-172.2356 329.389,-172.2356"/>
<ellipse fill="none" stroke="#000000" cx="326.3446" cy="-171.2498" rx="3.2" ry="3.2"/>
</g>
<!-- chapters -->
<g id="node4" class="node">
<title>chapters</title>
<g id="a_node4"><a xlink:href="../../tables/chapters.html" xlink:title="chapters" target="_top">
<polygon fill="#ffffff" stroke="transparent" points="20.5,-267.2 20.5,-350.2 108.5,-350.2 108.5,-267.2 20.5,-267.2"/>
<polygon fill="#f5f5f5" stroke="transparent" points="20.5,-326.7 20.5,-349.7 108.5,-349.7 108.5,-326.7 20.5,-326.7"/>
<polygon fill="none" stroke="#000000" points="20.5,-326.7 20.5,-349.7 108.5,-349.7 108.5,-326.7 20.5,-326.7"/>
<text text-anchor="start" x="25.5" y="-335.8" font-family="Helvetica,sans-Serif" font-weight="bold" font-size="11.00" fill="#000000">chapters</text>
<text text-anchor="start" x="73.5437" y="-334.8" font-family="Helvetica,sans-Serif" font-size="11.00" fill="#000000">[table]</text>
<polygon fill="none" stroke="#000000" points="20.5,-304.7 20.5,-326.7 108.5,-326.7 108.5,-304.7 20.5,-304.7"/>
<image xlink:href="../../images/primaryKeys.png" width="11px" height="12px" preserveAspectRatio="xMinYMin meet" x="25.5" y="-321.7"/>
<text text-anchor="start" x="40.5" y="-311.8" font-family="Helvetica,sans-Serif" font-size="11.00" fill="#000000">id</text>
<polygon fill="none" stroke="#000000" points="20.5,-285.7 20.5,-304.7 108.5,-304.7 108.5,-285.7 20.5,-285.7"/>
<text text-anchor="start" x="23.5" y="-291.8" font-family="Helvetica,sans-Serif" font-size="11.00" fill="#000000">...</text>
<polygon fill="#ffffff" stroke="transparent" points="20.5,-266.7 20.5,-285.7 40.5,-285.7 40.5,-266.7 20.5,-266.7"/>
<polygon fill="none" stroke="#000000" points="20.5,-266.7 20.5,-285.7 40.5,-285.7 40.5,-266.7 20.5,-266.7"/>
<text text-anchor="start" x="23.5" y="-272.8" font-family="Helvetica,sans-Serif" font-size="11.00" fill="#000000"> &#160;</text>
<polygon fill="#ffffff" stroke="transparent" points="40.5,-266.7 40.5,-285.7 82.5,-285.7 82.5,-266.7 40.5,-266.7"/>
<polygon fill="none" stroke="#000000" points="40.5,-266.7 40.5,-285.7 82.5,-285.7 82.5,-266.7 40.5,-266.7"/>
<text text-anchor="start" x="47.1105" y="-272.8" font-family="Helvetica,sans-Serif" font-size="11.00" fill="#000000">0 rows</text>
<polygon fill="#ffffff" stroke="transparent" points="82.5,-266.7 82.5,-285.7 108.5,-285.7 108.5,-266.7 82.5,-266.7"/>
<polygon fill="none" stroke="#000000" points="82.5,-266.7 82.5,-285.7 108.5,-285.7 108.5,-266.7 82.5,-266.7"/>
<text text-anchor="start" x="89.9053" y="-272.8" font-family="Helvetica,sans-Serif" font-size="11.00" fill="#000000">3 &gt;</text>
</a>
</g>
</g>
<!-- chapter_users&#45;&gt;chapters -->
<g id="edge2" class="edge">
<title>chapter_users:w&#45;&gt;chapters:e</title>
<path fill="none" stroke="#000000" d="M322.5513,-197.3692C222.32,-206.9292 217.9704,-315.7 108.5,-315.7"/>
<polygon fill="#000000" stroke="#000000" points="329.0086,-197.0702 337.1666,-200.2961 333.0043,-196.8851 337,-196.7 337,-196.7 337,-196.7 333.0043,-196.8851 336.8334,-193.1039 329.0086,-197.0702 329.0086,-197.0702"/>
<ellipse fill="none" stroke="#000000" cx="325.812" cy="-197.2183" rx="3.2" ry="3.2"/>
</g>
<!-- users -->
<g id="node5" class="node">
<title>users</title>
<g id="a_node5"><a xlink:href="../../tables/users.html" xlink:title="users" target="_top">
<polygon fill="#ffffff" stroke="transparent" points="170,-348.2 170,-475.2 286,-475.2 286,-348.2 170,-348.2"/>
<polygon fill="#f5f5f5" stroke="transparent" points="170,-451.7 170,-474.7 286,-474.7 286,-451.7 170,-451.7"/>
<polygon fill="none" stroke="#000000" points="170,-451.7 170,-474.7 286,-474.7 286,-451.7 170,-451.7"/>
<text text-anchor="start" x="175" y="-460.8" font-family="Helvetica,sans-Serif" font-weight="bold" font-size="11.00" fill="#000000">users</text>
<text text-anchor="start" x="251.0437" y="-459.8" font-family="Helvetica,sans-Serif" font-size="11.00" fill="#000000">[table]</text>
<polygon fill="none" stroke="#000000" points="170,-429.7 170,-451.7 286,-451.7 286,-429.7 170,-429.7"/>
<image xlink:href="../../images/primaryKeys.png" width="11px" height="12px" preserveAspectRatio="xMinYMin meet" x="175" y="-446.7"/>
<text text-anchor="start" x="190" y="-436.8" font-family="Helvetica,sans-Serif" font-size="11.00" fill="#000000">id</text>
<polygon fill="#ffffff" stroke="transparent" points="170,-407.7 170,-429.7 286,-429.7 286,-407.7 170,-407.7"/>
<polygon fill="none" stroke="#000000" points="170,-407.7 170,-429.7 286,-429.7 286,-407.7 170,-407.7"/>
<text text-anchor="start" x="190" y="-414.8" font-family="Helvetica,sans-Serif" font-size="11.00" fill="#000000">email</text>
<polygon fill="none" stroke="#000000" points="170,-385.7 170,-407.7 286,-407.7 286,-385.7 170,-385.7"/>
<image xlink:href="../../images/foreignKeys.png" width="11px" height="12px" preserveAspectRatio="xMinYMin meet" x="175" y="-402.7"/>
<text text-anchor="start" x="190" y="-392.8" font-family="Helvetica,sans-Serif" font-size="11.00" fill="#000000">instance_role_id</text>
<polygon fill="none" stroke="#000000" points="170,-366.7 170,-385.7 286,-385.7 286,-366.7 170,-366.7"/>
<text text-anchor="start" x="173" y="-372.8" font-family="Helvetica,sans-Serif" font-size="11.00" fill="#000000">...</text>
<polygon fill="#ffffff" stroke="transparent" points="170,-347.7 170,-366.7 209,-366.7 209,-347.7 170,-347.7"/>
<polygon fill="none" stroke="#000000" points="170,-347.7 170,-366.7 209,-366.7 209,-347.7 170,-347.7"/>
<text text-anchor="start" x="173" y="-353.8" font-family="Helvetica,sans-Serif" font-size="11.00" fill="#000000">&lt; 1</text>
<polygon fill="#ffffff" stroke="transparent" points="209,-347.7 209,-366.7 256,-366.7 256,-347.7 209,-347.7"/>
<polygon fill="none" stroke="#000000" points="209,-347.7 209,-366.7 256,-366.7 256,-347.7 209,-347.7"/>
<text text-anchor="start" x="220.6105" y="-353.8" font-family="Helvetica,sans-Serif" font-size="11.00" fill="#000000">0 rows</text>
<polygon fill="#ffffff" stroke="transparent" points="256,-347.7 256,-366.7 286,-366.7 286,-347.7 256,-347.7"/>
<polygon fill="none" stroke="#000000" points="256,-347.7 256,-366.7 286,-366.7 286,-347.7 256,-347.7"/>
<text text-anchor="start" x="267.4053" y="-353.8" font-family="Helvetica,sans-Serif" font-size="11.00" fill="#000000">5 &gt;</text>
</a>
</g>
</g>
<!-- chapter_users&#45;&gt;users -->
<g id="edge4" class="edge">
<title>chapter_users:w&#45;&gt;users:e</title>
<path fill="none" stroke="#000000" d="M322.5755,-220.6192C251.5748,-242.3173 381.7004,-440.7 286,-440.7"/>
<polygon fill="#000000" stroke="#000000" points="329.0699,-219.7552 337.4748,-222.2686 333.0349,-219.2276 337,-218.7 337,-218.7 337,-218.7 333.0349,-219.2276 336.5252,-215.1314 329.0699,-219.7552 329.0699,-219.7552"/>
<ellipse fill="none" stroke="#000000" cx="325.8978" cy="-220.1772" rx="3.2" ry="3.2"/>
</g>
<!-- instance_roles -->
<g id="node11" class="node">
<title>instance_roles</title>
<g id="a_node11"><a xlink:href="../../tables/instance_roles.html" xlink:title="instance_roles" target="_top">
<polygon fill="#ffffff" stroke="transparent" points="8,-371.2 8,-432.2 121,-432.2 121,-371.2 8,-371.2"/>
<polygon fill="#f5f5f5" stroke="transparent" points="8.5,-408.7 8.5,-431.7 121.5,-431.7 121.5,-408.7 8.5,-408.7"/>
<polygon fill="none" stroke="#000000" points="8.5,-408.7 8.5,-431.7 121.5,-431.7 121.5,-408.7 8.5,-408.7"/>
<text text-anchor="start" x="13.0476" y="-417.8" font-family="Helvetica,sans-Serif" font-weight="bold" font-size="11.00" fill="#000000">instance_roles</text>
<text text-anchor="start" x="87.0219" y="-416.8" font-family="Helvetica,sans-Serif" font-size="11.00" fill="#000000">[table]</text>
<polygon fill="none" stroke="#000000" points="8.5,-389.7 8.5,-408.7 121.5,-408.7 121.5,-389.7 8.5,-389.7"/>
<text text-anchor="start" x="11.5" y="-395.8" font-family="Helvetica,sans-Serif" font-size="11.00" fill="#000000">...</text>
<polygon fill="#ffffff" stroke="transparent" points="8.5,-370.7 8.5,-389.7 41.5,-389.7 41.5,-370.7 8.5,-370.7"/>
<polygon fill="none" stroke="#000000" points="8.5,-370.7 8.5,-389.7 41.5,-389.7 41.5,-370.7 8.5,-370.7"/>
<text text-anchor="start" x="11.5" y="-376.8" font-family="Helvetica,sans-Serif" font-size="11.00" fill="#000000"> &#160;</text>
<polygon fill="#ffffff" stroke="transparent" points="41.5,-370.7 41.5,-389.7 89.5,-389.7 89.5,-370.7 41.5,-370.7"/>
<polygon fill="none" stroke="#000000" points="41.5,-370.7 41.5,-389.7 89.5,-389.7 89.5,-370.7 41.5,-370.7"/>
<text text-anchor="start" x="54.1105" y="-376.8" font-family="Helvetica,sans-Serif" font-size="11.00" fill="#000000">0 rows</text>
<polygon fill="#ffffff" stroke="transparent" points="89.5,-370.7 89.5,-389.7 121.5,-389.7 121.5,-370.7 89.5,-370.7"/>
<polygon fill="none" stroke="#000000" points="89.5,-370.7 89.5,-389.7 121.5,-389.7 121.5,-370.7 89.5,-370.7"/>
<text text-anchor="start" x="102.9053" y="-376.8" font-family="Helvetica,sans-Serif" font-size="11.00" fill="#000000">2 &gt;</text>
</a>
</g>
</g>
<!-- users&#45;&gt;instance_roles -->
<g id="edge16" class="edge">
<title>users:w&#45;&gt;instance_roles:e</title>
<path fill="none" stroke="#000000" d="M155.278,-397.0668C144.2863,-397.6442 137.1748,-398.7 121.5,-398.7"/>
<polygon fill="#000000" stroke="#000000" points="162.0025,-396.8993 170.0897,-400.2989 166.0012,-396.7997 170,-396.7 170,-396.7 170,-396.7 166.0012,-396.7997 169.9103,-393.1011 162.0025,-396.8993 162.0025,-396.8993"/>
<ellipse fill="none" stroke="#000000" cx="158.8035" cy="-396.9791" rx="3.2" ry="3.2"/>
</g>
<!-- event_reminders -->
<g id="node6" class="node">
<title>event_reminders</title>
<g id="a_node6"><a xlink:href="../../tables/event_reminders.html" xlink:title="event_reminders" target="_top">
<polygon fill="#ffffff" stroke="transparent" points="584,-452.2 584,-513.2 708,-513.2 708,-452.2 584,-452.2"/>
<polygon fill="#f5f5f5" stroke="transparent" points="584,-489.7 584,-512.7 708,-512.7 708,-489.7 584,-489.7"/>
<polygon fill="none" stroke="#000000" points="584,-489.7 584,-512.7 708,-512.7 708,-489.7 584,-489.7"/>
<text text-anchor="start" x="588.5486" y="-498.8" font-family="Helvetica,sans-Serif" font-weight="bold" font-size="11.00" fill="#000000">event_reminders</text>
<text text-anchor="start" x="673.5219" y="-497.8" font-family="Helvetica,sans-Serif" font-size="11.00" fill="#000000">[table]</text>
<polygon fill="none" stroke="#000000" points="584,-470.7 584,-489.7 708,-489.7 708,-470.7 584,-470.7"/>
<text text-anchor="start" x="587" y="-476.8" font-family="Helvetica,sans-Serif" font-size="11.00" fill="#000000">...</text>
<polygon fill="#ffffff" stroke="transparent" points="584,-451.7 584,-470.7 631,-470.7 631,-451.7 584,-451.7"/>
<polygon fill="none" stroke="#000000" points="584,-451.7 584,-470.7 631,-470.7 631,-451.7 584,-451.7"/>
<text text-anchor="start" x="587" y="-457.8" font-family="Helvetica,sans-Serif" font-size="11.00" fill="#000000">&lt; 4</text>
<polygon fill="#ffffff" stroke="transparent" points="631,-451.7 631,-470.7 682,-470.7 682,-451.7 631,-451.7"/>
<polygon fill="none" stroke="#000000" points="631,-451.7 631,-470.7 682,-470.7 682,-451.7 631,-451.7"/>
<text text-anchor="start" x="646.6105" y="-457.8" font-family="Helvetica,sans-Serif" font-size="11.00" fill="#000000">0 rows</text>
<polygon fill="#ffffff" stroke="transparent" points="682,-451.7 682,-470.7 708,-470.7 708,-451.7 682,-451.7"/>
<polygon fill="none" stroke="#000000" points="682,-451.7 682,-470.7 708,-470.7 708,-451.7 682,-451.7"/>
<text text-anchor="start" x="698.8862" y="-457.8" font-family="Helvetica,sans-Serif" font-size="11.00" fill="#000000"> &#160;</text>
</a>
</g>
</g>
<!-- event_reminders&#45;&gt;users -->
<g id="edge8" class="edge">
<title>event_reminders:w&#45;&gt;users:e</title>
<path fill="none" stroke="#000000" d="M570.3624,-475.0444C560.7543,-466.4933 560.3344,-448.5366 543,-441.7 436.7424,-399.7924 400.2231,-440.7 286,-440.7"/>
<polygon fill="#000000" stroke="#000000" points="576.429,-477.1154 582.8369,-483.1069 580.2145,-478.4077 584,-479.7 584,-479.7 584,-479.7 580.2145,-478.4077 585.1631,-476.2931 576.429,-477.1154 576.429,-477.1154"/>
<ellipse fill="none" stroke="#000000" cx="573.4006" cy="-476.0815" rx="3.2" ry="3.2"/>
</g>
<!-- events -->
<g id="node7" class="node">
<title>events</title>
<g id="a_node7"><a xlink:href="../../tables/events.html" xlink:title="events" target="_top">
<polygon fill="#ffffff" stroke="transparent" points="188,-521.2 188,-582.2 268,-582.2 268,-521.2 188,-521.2"/>
<polygon fill="#f5f5f5" stroke="transparent" points="188,-558.7 188,-581.7 268,-581.7 268,-558.7 188,-558.7"/>
<polygon fill="none" stroke="#000000" points="188,-558.7 188,-581.7 268,-581.7 268,-558.7 188,-558.7"/>
<text text-anchor="start" x="193" y="-567.8" font-family="Helvetica,sans-Serif" font-weight="bold" font-size="11.00" fill="#000000">events</text>
<text text-anchor="start" x="233.0437" y="-566.8" font-family="Helvetica,sans-Serif" font-size="11.00" fill="#000000">[table]</text>
<polygon fill="none" stroke="#000000" points="188,-539.7 188,-558.7 268,-558.7 268,-539.7 188,-539.7"/>
<text text-anchor="start" x="191" y="-545.8" font-family="Helvetica,sans-Serif" font-size="11.00" fill="#000000">...</text>
<polygon fill="#ffffff" stroke="transparent" points="188,-520.7 188,-539.7 209,-539.7 209,-520.7 188,-520.7"/>
<polygon fill="none" stroke="#000000" points="188,-520.7 188,-539.7 209,-539.7 209,-520.7 188,-520.7"/>
<text text-anchor="start" x="190.7027" y="-526.8" font-family="Helvetica,sans-Serif" font-size="11.00" fill="#000000">&lt; 2</text>
<polygon fill="#ffffff" stroke="transparent" points="209,-520.7 209,-539.7 247,-539.7 247,-520.7 209,-520.7"/>
<polygon fill="none" stroke="#000000" points="209,-520.7 209,-539.7 247,-539.7 247,-520.7 209,-520.7"/>
<text text-anchor="start" x="211.8053" y="-526.8" font-family="Helvetica,sans-Serif" font-size="11.00" fill="#000000">0 rows</text>
<polygon fill="#ffffff" stroke="transparent" points="247,-520.7 247,-539.7 268,-539.7 268,-520.7 247,-520.7"/>
<polygon fill="none" stroke="#000000" points="247,-520.7 247,-539.7 268,-539.7 268,-520.7 247,-520.7"/>
<text text-anchor="start" x="249.7027" y="-526.8" font-family="Helvetica,sans-Serif" font-size="11.00" fill="#000000">5 &gt;</text>
</a>
</g>
</g>
<!-- event_reminders&#45;&gt;events -->
<g id="edge5" class="edge">
<title>event_reminders:w&#45;&gt;events:e</title>
<path fill="none" stroke="#000000" d="M569.6585,-482.373C537.2553,-497.6789 585.8111,-574.61 543,-605.7 465.3222,-662.1106 416.0058,-641.6717 327,-605.7 293.1957,-592.038 304.4607,-548.7 268,-548.7"/>
<polygon fill="#000000" stroke="#000000" points="576.1354,-481.1658 584.6596,-483.2391 580.0677,-480.4329 584,-479.7 584,-479.7 584,-479.7 580.0677,-480.4329 583.3404,-476.1609 576.1354,-481.1658 576.1354,-481.1658"/>
<ellipse fill="none" stroke="#000000" cx="572.9896" cy="-481.7522" rx="3.2" ry="3.2"/>
</g>
<!-- rsvps -->
<g id="node8" class="node">
<title>rsvps</title>
<g id="a_node8"><a xlink:href="../../tables/rsvps.html" xlink:title="rsvps" target="_top">
<polygon fill="#ffffff" stroke="transparent" points="395,-452.2 395,-513.2 475,-513.2 475,-452.2 395,-452.2"/>
<polygon fill="#f5f5f5" stroke="transparent" points="395,-489.7 395,-512.7 475,-512.7 475,-489.7 395,-489.7"/>
<polygon fill="none" stroke="#000000" points="395,-489.7 395,-512.7 475,-512.7 475,-489.7 395,-489.7"/>
<text text-anchor="start" x="400" y="-498.8" font-family="Helvetica,sans-Serif" font-weight="bold" font-size="11.00" fill="#000000">rsvps</text>
<text text-anchor="start" x="440.0437" y="-497.8" font-family="Helvetica,sans-Serif" font-size="11.00" fill="#000000">[table]</text>
<polygon fill="none" stroke="#000000" points="395,-470.7 395,-489.7 475,-489.7 475,-470.7 395,-470.7"/>
<text text-anchor="start" x="398" y="-476.8" font-family="Helvetica,sans-Serif" font-size="11.00" fill="#000000">...</text>
<polygon fill="#ffffff" stroke="transparent" points="395,-451.7 395,-470.7 416,-470.7 416,-451.7 395,-451.7"/>
<polygon fill="none" stroke="#000000" points="395,-451.7 395,-470.7 416,-470.7 416,-451.7 395,-451.7"/>
<text text-anchor="start" x="397.7027" y="-457.8" font-family="Helvetica,sans-Serif" font-size="11.00" fill="#000000">&lt; 2</text>
<polygon fill="#ffffff" stroke="transparent" points="416,-451.7 416,-470.7 454,-470.7 454,-451.7 416,-451.7"/>
<polygon fill="none" stroke="#000000" points="416,-451.7 416,-470.7 454,-470.7 454,-451.7 416,-451.7"/>
<text text-anchor="start" x="418.8053" y="-457.8" font-family="Helvetica,sans-Serif" font-size="11.00" fill="#000000">0 rows</text>
<polygon fill="#ffffff" stroke="transparent" points="454,-451.7 454,-470.7 475,-470.7 475,-451.7 454,-451.7"/>
<polygon fill="none" stroke="#000000" points="454,-451.7 454,-470.7 475,-470.7 475,-451.7 454,-451.7"/>
<text text-anchor="start" x="456.7027" y="-457.8" font-family="Helvetica,sans-Serif" font-size="11.00" fill="#000000">2 &gt;</text>
</a>
</g>
</g>
<!-- event_reminders&#45;&gt;rsvps -->
<g id="edge6" class="edge">
<title>event_reminders:w&#45;&gt;rsvps:e</title>
<path fill="none" stroke="#000000" d="M569.313,-477.9466C532.4716,-473.7718 518.1458,-474.3563 475,-479.7"/>
<polygon fill="#000000" stroke="#000000" points="576.0564,-478.7516 583.5732,-483.2746 580.0282,-479.2258 584,-479.7 584,-479.7 584,-479.7 580.0282,-479.2258 584.4268,-476.1254 576.0564,-478.7516 576.0564,-478.7516"/>
<ellipse fill="none" stroke="#000000" cx="572.879" cy="-478.3722" rx="3.2" ry="3.2"/>
</g>
<!-- event_reminders&#45;&gt;rsvps -->
<g id="edge7" class="edge">
<title>event_reminders:w&#45;&gt;rsvps:e</title>
<path fill="none" stroke="#000000" d="M569.313,-481.7457C532.4716,-486.6163 518.1458,-485.9344 475,-479.7"/>
<polygon fill="#000000" stroke="#000000" points="576.0765,-480.8037 584.4966,-483.2656 580.0382,-480.2518 584,-479.7 584,-479.7 584,-479.7 580.0382,-480.2518 583.5034,-476.1344 576.0765,-480.8037 576.0765,-480.8037"/>
<ellipse fill="none" stroke="#000000" cx="572.9071" cy="-481.2451" rx="3.2" ry="3.2"/>
</g>
<!-- events&#45;&gt;chapters -->
<g id="edge9" class="edge">
<title>events:w&#45;&gt;chapters:e</title>
<path fill="none" stroke="#000000" d="M173.4411,-547.0237C91.8445,-526.069 212.468,-315.7 108.5,-315.7"/>
<polygon fill="#000000" stroke="#000000" points="180.0525,-547.7849 187.5882,-552.2764 184.0263,-548.2424 188,-548.7 188,-548.7 188,-548.7 184.0263,-548.2424 188.4118,-545.1236 180.0525,-547.7849 180.0525,-547.7849"/>
<ellipse fill="none" stroke="#000000" cx="176.8735" cy="-547.4188" rx="3.2" ry="3.2"/>
</g>
<!-- rsvps&#45;&gt;users -->
<g id="edge11" class="edge">
<title>rsvps:w&#45;&gt;users:e</title>
<path fill="none" stroke="#000000" d="M380.6317,-478.5749C341.8419,-472.1804 332.2264,-440.7 286,-440.7"/>
<polygon fill="#000000" stroke="#000000" points="387.0244,-479.0754 394.7189,-483.289 391.0122,-479.3877 395,-479.7 395,-479.7 395,-479.7 391.0122,-479.3877 395.2811,-476.111 387.0244,-479.0754 387.0244,-479.0754"/>
<ellipse fill="none" stroke="#000000" cx="383.8342" cy="-478.8256" rx="3.2" ry="3.2"/>
</g>
<!-- rsvps&#45;&gt;events -->
<g id="edge10" class="edge">
<title>rsvps:w&#45;&gt;events:e</title>
<path fill="none" stroke="#000000" d="M380.4456,-481.0168C330.5625,-490.556 326.9678,-548.7 268,-548.7"/>
<polygon fill="#000000" stroke="#000000" points="387.0325,-480.4209 395.3244,-483.2854 391.0163,-480.0604 395,-479.7 395,-479.7 395,-479.7 391.0163,-480.0604 394.6756,-476.1146 387.0325,-480.4209 387.0325,-480.4209"/>
<ellipse fill="none" stroke="#000000" cx="383.8456" cy="-480.7092" rx="3.2" ry="3.2"/>
</g>
<!-- user_bans -->
<g id="node9" class="node">
<title>user_bans</title>
<g id="a_node9"><a xlink:href="../../tables/user_bans.html" xlink:title="user_bans" target="_top">
<polygon fill="#ffffff" stroke="transparent" points="388,-342.2 388,-403.2 482,-403.2 482,-342.2 388,-342.2"/>
<polygon fill="#f5f5f5" stroke="transparent" points="388,-379.7 388,-402.7 482,-402.7 482,-379.7 388,-379.7"/>
<polygon fill="none" stroke="#000000" points="388,-379.7 388,-402.7 482,-402.7 482,-379.7 388,-379.7"/>
<text text-anchor="start" x="392.8244" y="-388.8" font-family="Helvetica,sans-Serif" font-weight="bold" font-size="11.00" fill="#000000">user_bans</text>
<text text-anchor="start" x="447.5219" y="-387.8" font-family="Helvetica,sans-Serif" font-size="11.00" fill="#000000">[table]</text>
<polygon fill="none" stroke="#000000" points="388,-360.7 388,-379.7 482,-379.7 482,-360.7 388,-360.7"/>
<text text-anchor="start" x="391" y="-366.8" font-family="Helvetica,sans-Serif" font-size="11.00" fill="#000000">...</text>
<polygon fill="#ffffff" stroke="transparent" points="388,-341.7 388,-360.7 420,-360.7 420,-341.7 388,-341.7"/>
<polygon fill="none" stroke="#000000" points="388,-341.7 388,-360.7 420,-360.7 420,-341.7 388,-341.7"/>
<text text-anchor="start" x="391" y="-347.8" font-family="Helvetica,sans-Serif" font-size="11.00" fill="#000000">&lt; 2</text>
<polygon fill="#ffffff" stroke="transparent" points="420,-341.7 420,-360.7 464,-360.7 464,-341.7 420,-341.7"/>
<polygon fill="none" stroke="#000000" points="420,-341.7 420,-360.7 464,-360.7 464,-341.7 420,-341.7"/>
<text text-anchor="start" x="428.6105" y="-347.8" font-family="Helvetica,sans-Serif" font-size="11.00" fill="#000000">0 rows</text>
<polygon fill="#ffffff" stroke="transparent" points="464,-341.7 464,-360.7 482,-360.7 482,-341.7 464,-341.7"/>
<polygon fill="none" stroke="#000000" points="464,-341.7 464,-360.7 482,-360.7 482,-341.7 464,-341.7"/>
<text text-anchor="start" x="472.8862" y="-347.8" font-family="Helvetica,sans-Serif" font-size="11.00" fill="#000000"> &#160;</text>
</a>
</g>
</g>
<!-- user_bans&#45;&gt;chapters -->
<g id="edge12" class="edge">
<title>user_bans:w&#45;&gt;chapters:e</title>
<path fill="none" stroke="#000000" d="M373.4781,-368.7834C341.6829,-364.4975 331.8269,-346.2814 294,-337.7 213.0351,-319.3324 191.5222,-315.7 108.5,-315.7"/>
<polygon fill="#000000" stroke="#000000" points="380.0159,-369.196 387.7732,-373.2929 384.0079,-369.448 388,-369.7 388,-369.7 388,-369.7 384.0079,-369.448 388.2268,-366.1071 380.0159,-369.196 380.0159,-369.196"/>
<ellipse fill="none" stroke="#000000" cx="376.8222" cy="-368.9944" rx="3.2" ry="3.2"/>
</g>
<!-- user_bans&#45;&gt;users -->
<g id="edge13" class="edge">
<title>user_bans:w&#45;&gt;users:e</title>
<path fill="none" stroke="#000000" d="M374.1802,-374.1414C346.5783,-389.685 309.41,-440.7 286,-440.7"/>
<polygon fill="#000000" stroke="#000000" points="380.3837,-372.1478 389.1015,-373.1274 384.1918,-370.9239 388,-369.7 388,-369.7 388,-369.7 384.1918,-370.9239 386.8985,-366.2726 380.3837,-372.1478 380.3837,-372.1478"/>
<ellipse fill="none" stroke="#000000" cx="377.3371" cy="-373.1269" rx="3.2" ry="3.2"/>
</g>
<!-- user_event_roles -->
<g id="node10" class="node">
<title>user_event_roles</title>
<g id="a_node10"><a xlink:href="../../tables/user_event_roles.html" xlink:title="user_event_roles" target="_top">
<polygon fill="#ffffff" stroke="transparent" points="371.5,-534.2 371.5,-595.2 498.5,-595.2 498.5,-534.2 371.5,-534.2"/>
<polygon fill="#f5f5f5" stroke="transparent" points="372,-571.7 372,-594.7 499,-594.7 499,-571.7 372,-571.7"/>
<polygon fill="none" stroke="#000000" points="372,-571.7 372,-594.7 499,-594.7 499,-571.7 372,-571.7"/>
<text text-anchor="start" x="376.8222" y="-580.8" font-family="Helvetica,sans-Serif" font-weight="bold" font-size="11.00" fill="#000000">user_event_roles</text>
<text text-anchor="start" x="464.5219" y="-579.8" font-family="Helvetica,sans-Serif" font-size="11.00" fill="#000000">[table]</text>
<polygon fill="none" stroke="#000000" points="372,-552.7 372,-571.7 499,-571.7 499,-552.7 372,-552.7"/>
<text text-anchor="start" x="375" y="-558.8" font-family="Helvetica,sans-Serif" font-size="11.00" fill="#000000">...</text>
<polygon fill="#ffffff" stroke="transparent" points="372,-533.7 372,-552.7 421,-552.7 421,-533.7 372,-533.7"/>
<polygon fill="none" stroke="#000000" points="372,-533.7 372,-552.7 421,-552.7 421,-533.7 372,-533.7"/>
<text text-anchor="start" x="375" y="-539.8" font-family="Helvetica,sans-Serif" font-size="11.00" fill="#000000">&lt; 2</text>
<polygon fill="#ffffff" stroke="transparent" points="421,-533.7 421,-552.7 473,-552.7 473,-533.7 421,-533.7"/>
<polygon fill="none" stroke="#000000" points="421,-533.7 421,-552.7 473,-552.7 473,-533.7 421,-533.7"/>
<text text-anchor="start" x="437.6105" y="-539.8" font-family="Helvetica,sans-Serif" font-size="11.00" fill="#000000">0 rows</text>
<polygon fill="#ffffff" stroke="transparent" points="473,-533.7 473,-552.7 499,-552.7 499,-533.7 473,-533.7"/>
<polygon fill="none" stroke="#000000" points="473,-533.7 473,-552.7 499,-552.7 499,-533.7 473,-533.7"/>
<text text-anchor="start" x="489.8862" y="-539.8" font-family="Helvetica,sans-Serif" font-size="11.00" fill="#000000"> &#160;</text>
</a>
</g>
</g>
<!-- user_event_roles&#45;&gt;users -->
<g id="edge15" class="edge">
<title>user_event_roles:w&#45;&gt;users:e</title>
<path fill="none" stroke="#000000" d="M357.3955,-559.1872C343.915,-553.6557 339.48,-539.6424 327,-523.7 301.6383,-491.3021 327.1441,-440.7 286,-440.7"/>
<polygon fill="#000000" stroke="#000000" points="364.1159,-560.3434 371.3895,-565.2479 368.0579,-561.0217 372,-561.7 372,-561.7 372,-561.7 368.0579,-561.0217 372.6105,-558.1521 364.1159,-560.3434 364.1159,-560.3434"/>
<ellipse fill="none" stroke="#000000" cx="360.9622" cy="-559.8008" rx="3.2" ry="3.2"/>
</g>
<!-- user_event_roles&#45;&gt;events -->
<g id="edge14" class="edge">
<title>user_event_roles:w&#45;&gt;events:e</title>
<path fill="none" stroke="#000000" d="M357.4416,-561.2373C322.5043,-558.9215 309.3051,-548.7 268,-548.7"/>
<polygon fill="#000000" stroke="#000000" points="364.004,-561.4458 371.8856,-565.2982 368.002,-561.5729 372,-561.7 372,-561.7 372,-561.7 368.002,-561.5729 372.1144,-558.1018 364.004,-561.4458 364.004,-561.4458"/>
<ellipse fill="none" stroke="#000000" cx="360.8057" cy="-561.3442" rx="3.2" ry="3.2"/>
</g>
</g>
</svg>
