<?xml version="1.0" encoding="UTF-8" standalone="no"?>
<!DOCTYPE svg PUBLIC "-//W3C//DTD SVG 1.1//EN"
 "http://www.w3.org/Graphics/SVG/1.1/DTD/svg11.dtd">
<!-- Generated by graphviz version 2.40.1 (20161225.0304)
 -->
<!-- Title: twoDegreesRelationshipsDiagram Pages: 1 -->
<svg width="718pt" height="721pt"
 viewBox="0.00 0.00 718.00 720.70" xmlns="http://www.w3.org/2000/svg" xmlns:xlink="http://www.w3.org/1999/xlink">
<g id="graph0" class="graph" transform="scale(1 1) rotate(0) translate(4 716.7)">
<title>twoDegreesRelationshipsDiagram</title>
<polygon fill="#ffffff" stroke="transparent" points="-4,4 -4,-716.7 714,-716.7 714,4 -4,4"/>
<text text-anchor="middle" x="72.4936" y="-7.3" font-family="Helvetica,sans-Serif" font-size="11.00" fill="#000000">Generated by SchemaSpy</text>
<!-- event_reminders -->
<g id="node1" class="node">
<title>event_reminders</title>
<g id="a_node1"><a xlink:href="../../tables/event_reminders.html" xlink:title="event_reminders" target="_top">
<polygon fill="#ffffff" stroke="transparent" points="578,-455.7 578,-516.7 702,-516.7 702,-455.7 578,-455.7"/>
<polygon fill="#f5f5f5" stroke="transparent" points="578,-493.2 578,-516.2 702,-516.2 702,-493.2 578,-493.2"/>
<polygon fill="none" stroke="#000000" points="578,-493.2 578,-516.2 702,-516.2 702,-493.2 578,-493.2"/>
<text text-anchor="start" x="582.5486" y="-502.3" font-family="Helvetica,sans-Serif" font-weight="bold" font-size="11.00" fill="#000000">event_reminders</text>
<text text-anchor="start" x="667.5219" y="-501.3" font-family="Helvetica,sans-Serif" font-size="11.00" fill="#000000">[table]</text>
<polygon fill="none" stroke="#000000" points="578,-474.2 578,-493.2 702,-493.2 702,-474.2 578,-474.2"/>
<text text-anchor="start" x="581" y="-480.3" font-family="Helvetica,sans-Serif" font-size="11.00" fill="#000000">...</text>
<polygon fill="#ffffff" stroke="transparent" points="578,-455.2 578,-474.2 625,-474.2 625,-455.2 578,-455.2"/>
<polygon fill="none" stroke="#000000" points="578,-455.2 578,-474.2 625,-474.2 625,-455.2 578,-455.2"/>
<text text-anchor="start" x="581" y="-461.3" font-family="Helvetica,sans-Serif" font-size="11.00" fill="#000000">&lt; 4</text>
<polygon fill="#ffffff" stroke="transparent" points="625,-455.2 625,-474.2 676,-474.2 676,-455.2 625,-455.2"/>
<polygon fill="none" stroke="#000000" points="625,-455.2 625,-474.2 676,-474.2 676,-455.2 625,-455.2"/>
<text text-anchor="start" x="640.6105" y="-461.3" font-family="Helvetica,sans-Serif" font-size="11.00" fill="#000000">0 rows</text>
<polygon fill="#ffffff" stroke="transparent" points="676,-455.2 676,-474.2 702,-474.2 702,-455.2 676,-455.2"/>
<polygon fill="none" stroke="#000000" points="676,-455.2 676,-474.2 702,-474.2 702,-455.2 676,-455.2"/>
<text text-anchor="start" x="692.8862" y="-461.3" font-family="Helvetica,sans-Serif" font-size="11.00" fill="#000000"> &#160;</text>
</a>
</g>
</g>
<!-- events -->
<g id="node2" class="node">
<title>events</title>
<g id="a_node2"><a xlink:href="../../tables/events.html" xlink:title="events" target="_top">
<polygon fill="#ffffff" stroke="transparent" points="239,-437.7 239,-564.7 343,-564.7 343,-437.7 239,-437.7"/>
<polygon fill="#f5f5f5" stroke="transparent" points="239,-541.2 239,-564.2 343,-564.2 343,-541.2 239,-541.2"/>
<polygon fill="none" stroke="#000000" points="239,-541.2 239,-564.2 343,-564.2 343,-541.2 239,-541.2"/>
<text text-anchor="start" x="244" y="-550.3" font-family="Helvetica,sans-Serif" font-weight="bold" font-size="11.00" fill="#000000">events</text>
<text text-anchor="start" x="308.0437" y="-549.3" font-family="Helvetica,sans-Serif" font-size="11.00" fill="#000000">[table]</text>
<polygon fill="none" stroke="#000000" points="239,-519.2 239,-541.2 343,-541.2 343,-519.2 239,-519.2"/>
<image xlink:href="../../images/primaryKeys.png" width="11px" height="12px" preserveAspectRatio="xMinYMin meet" x="244" y="-536.2"/>
<text text-anchor="start" x="259" y="-526.3" font-family="Helvetica,sans-Serif" font-size="11.00" fill="#000000">id</text>
<polygon fill="none" stroke="#000000" points="239,-497.2 239,-519.2 343,-519.2 343,-497.2 239,-497.2"/>
<image xlink:href="../../images/foreignKeys.png" width="11px" height="12px" preserveAspectRatio="xMinYMin meet" x="244" y="-514.2"/>
<text text-anchor="start" x="259" y="-504.3" font-family="Helvetica,sans-Serif" font-size="11.00" fill="#000000">venue_id</text>
<polygon fill="none" stroke="#000000" points="239,-475.2 239,-497.2 343,-497.2 343,-475.2 239,-475.2"/>
<image xlink:href="../../images/foreignKeys.png" width="11px" height="12px" preserveAspectRatio="xMinYMin meet" x="244" y="-492.2"/>
<text text-anchor="start" x="259" y="-482.3" font-family="Helvetica,sans-Serif" font-size="11.00" fill="#000000">chapter_id</text>
<polygon fill="none" stroke="#000000" points="239,-456.2 239,-475.2 343,-475.2 343,-456.2 239,-456.2"/>
<text text-anchor="start" x="242" y="-462.3" font-family="Helvetica,sans-Serif" font-size="11.00" fill="#000000">...</text>
<polygon fill="#ffffff" stroke="transparent" points="239,-437.2 239,-456.2 272,-456.2 272,-437.2 239,-437.2"/>
<polygon fill="none" stroke="#000000" points="239,-437.2 239,-456.2 272,-456.2 272,-437.2 239,-437.2"/>
<text text-anchor="start" x="242" y="-443.3" font-family="Helvetica,sans-Serif" font-size="11.00" fill="#000000">&lt; 2</text>
<polygon fill="#ffffff" stroke="transparent" points="272,-437.2 272,-456.2 316,-456.2 316,-437.2 272,-437.2"/>
<polygon fill="none" stroke="#000000" points="272,-437.2 272,-456.2 316,-456.2 316,-437.2 272,-437.2"/>
<text text-anchor="start" x="280.6105" y="-443.3" font-family="Helvetica,sans-Serif" font-size="11.00" fill="#000000">0 rows</text>
<polygon fill="#ffffff" stroke="transparent" points="316,-437.2 316,-456.2 343,-456.2 343,-437.2 316,-437.2"/>
<polygon fill="none" stroke="#000000" points="316,-437.2 316,-456.2 343,-456.2 343,-437.2 316,-437.2"/>
<text text-anchor="start" x="324.4053" y="-443.3" font-family="Helvetica,sans-Serif" font-size="11.00" fill="#000000">5 &gt;</text>
</a>
</g>
</g>
<!-- event_reminders&#45;&gt;events -->
<g id="edge1" class="edge">
<title>event_reminders:w&#45;&gt;events:e</title>
<path fill="none" stroke="#000000" d="M563.6585,-485.873C531.2553,-501.1789 579.8111,-578.11 537,-609.2 509.4891,-629.1788 413.056,-626.8564 384,-609.2 350.1941,-588.6573 382.5581,-530.2 343,-530.2"/>
<polygon fill="#000000" stroke="#000000" points="570.1354,-484.6658 578.6596,-486.7391 574.0677,-483.9329 578,-483.2 578,-483.2 578,-483.2 574.0677,-483.9329 577.3404,-479.6609 570.1354,-484.6658 570.1354,-484.6658"/>
<ellipse fill="none" stroke="#000000" cx="566.9896" cy="-485.2522" rx="3.2" ry="3.2"/>
</g>
<!-- rsvps -->
<g id="node3" class="node">
<title>rsvps</title>
<g id="a_node3"><a xlink:href="../../tables/rsvps.html" xlink:title="rsvps" target="_top">
<polygon fill="#ffffff" stroke="transparent" points="420.5,-455.7 420.5,-516.7 500.5,-516.7 500.5,-455.7 420.5,-455.7"/>
<polygon fill="#f5f5f5" stroke="transparent" points="420.5,-493.2 420.5,-516.2 500.5,-516.2 500.5,-493.2 420.5,-493.2"/>
<polygon fill="none" stroke="#000000" points="420.5,-493.2 420.5,-516.2 500.5,-516.2 500.5,-493.2 420.5,-493.2"/>
<text text-anchor="start" x="425.5" y="-502.3" font-family="Helvetica,sans-Serif" font-weight="bold" font-size="11.00" fill="#000000">rsvps</text>
<text text-anchor="start" x="465.5437" y="-501.3" font-family="Helvetica,sans-Serif" font-size="11.00" fill="#000000">[table]</text>
<polygon fill="none" stroke="#000000" points="420.5,-474.2 420.5,-493.2 500.5,-493.2 500.5,-474.2 420.5,-474.2"/>
<text text-anchor="start" x="423.5" y="-480.3" font-family="Helvetica,sans-Serif" font-size="11.00" fill="#000000">...</text>
<polygon fill="#ffffff" stroke="transparent" points="420.5,-455.2 420.5,-474.2 441.5,-474.2 441.5,-455.2 420.5,-455.2"/>
<polygon fill="none" stroke="#000000" points="420.5,-455.2 420.5,-474.2 441.5,-474.2 441.5,-455.2 420.5,-455.2"/>
<text text-anchor="start" x="423.2027" y="-461.3" font-family="Helvetica,sans-Serif" font-size="11.00" fill="#000000">&lt; 2</text>
<polygon fill="#ffffff" stroke="transparent" points="441.5,-455.2 441.5,-474.2 479.5,-474.2 479.5,-455.2 441.5,-455.2"/>
<polygon fill="none" stroke="#000000" points="441.5,-455.2 441.5,-474.2 479.5,-474.2 479.5,-455.2 441.5,-455.2"/>
<text text-anchor="start" x="444.3053" y="-461.3" font-family="Helvetica,sans-Serif" font-size="11.00" fill="#000000">0 rows</text>
<polygon fill="#ffffff" stroke="transparent" points="479.5,-455.2 479.5,-474.2 500.5,-474.2 500.5,-455.2 479.5,-455.2"/>
<polygon fill="none" stroke="#000000" points="479.5,-455.2 479.5,-474.2 500.5,-474.2 500.5,-455.2 479.5,-455.2"/>
<text text-anchor="start" x="482.2027" y="-461.3" font-family="Helvetica,sans-Serif" font-size="11.00" fill="#000000">2 &gt;</text>
</a>
</g>
</g>
<!-- event_reminders&#45;&gt;rsvps -->
<g id="edge2" class="edge">
<title>event_reminders:w&#45;&gt;rsvps:e</title>
<path fill="none" stroke="#000000" d="M563.5492,-480.827C540.2339,-477.3465 529.5625,-478.1375 500.5,-483.2"/>
<polygon fill="#000000" stroke="#000000" points="570.1057,-481.9036 577.4166,-486.7524 574.0529,-482.5518 578,-483.2 578,-483.2 578,-483.2 574.0529,-482.5518 578.5834,-479.6476 570.1057,-481.9036 570.1057,-481.9036"/>
<ellipse fill="none" stroke="#000000" cx="566.948" cy="-481.385" rx="3.2" ry="3.2"/>
</g>
<!-- event_reminders&#45;&gt;rsvps -->
<g id="edge3" class="edge">
<title>event_reminders:w&#45;&gt;rsvps:e</title>
<path fill="none" stroke="#000000" d="M563.5492,-485.9686C540.2339,-490.0291 529.5625,-489.1063 500.5,-483.2"/>
<polygon fill="#000000" stroke="#000000" points="570.1429,-484.7053 578.6774,-486.7357 574.0714,-483.9527 578,-483.2 578,-483.2 578,-483.2 574.0714,-483.9527 577.3226,-479.6643 570.1429,-484.7053 570.1429,-484.7053"/>
<ellipse fill="none" stroke="#000000" cx="567.0001" cy="-485.3075" rx="3.2" ry="3.2"/>
</g>
<!-- users -->
<g id="node4" class="node">
<title>users</title>
<g id="a_node4"><a xlink:href="../../tables/users.html" xlink:title="users" target="_top">
<polygon fill="#ffffff" stroke="transparent" points="251,-321.7 251,-382.7 331,-382.7 331,-321.7 251,-321.7"/>
<polygon fill="#f5f5f5" stroke="transparent" points="251,-359.2 251,-382.2 331,-382.2 331,-359.2 251,-359.2"/>
<polygon fill="none" stroke="#000000" points="251,-359.2 251,-382.2 331,-382.2 331,-359.2 251,-359.2"/>
<text text-anchor="start" x="256" y="-368.3" font-family="Helvetica,sans-Serif" font-weight="bold" font-size="11.00" fill="#000000">users</text>
<text text-anchor="start" x="296.0437" y="-367.3" font-family="Helvetica,sans-Serif" font-size="11.00" fill="#000000">[table]</text>
<polygon fill="none" stroke="#000000" points="251,-340.2 251,-359.2 331,-359.2 331,-340.2 251,-340.2"/>
<text text-anchor="start" x="254" y="-346.3" font-family="Helvetica,sans-Serif" font-size="11.00" fill="#000000">...</text>
<polygon fill="#ffffff" stroke="transparent" points="251,-321.2 251,-340.2 272,-340.2 272,-321.2 251,-321.2"/>
<polygon fill="none" stroke="#000000" points="251,-321.2 251,-340.2 272,-340.2 272,-321.2 251,-321.2"/>
<text text-anchor="start" x="253.7027" y="-327.3" font-family="Helvetica,sans-Serif" font-size="11.00" fill="#000000">&lt; 1</text>
<polygon fill="#ffffff" stroke="transparent" points="272,-321.2 272,-340.2 310,-340.2 310,-321.2 272,-321.2"/>
<polygon fill="none" stroke="#000000" points="272,-321.2 272,-340.2 310,-340.2 310,-321.2 272,-321.2"/>
<text text-anchor="start" x="274.8053" y="-327.3" font-family="Helvetica,sans-Serif" font-size="11.00" fill="#000000">0 rows</text>
<polygon fill="#ffffff" stroke="transparent" points="310,-321.2 310,-340.2 331,-340.2 331,-321.2 310,-321.2"/>
<polygon fill="none" stroke="#000000" points="310,-321.2 310,-340.2 331,-340.2 331,-321.2 310,-321.2"/>
<text text-anchor="start" x="312.7027" y="-327.3" font-family="Helvetica,sans-Serif" font-size="11.00" fill="#000000">5 &gt;</text>
</a>
</g>
</g>
<!-- event_reminders&#45;&gt;users -->
<g id="edge4" class="edge">
<title>event_reminders:w&#45;&gt;users:e</title>
<path fill="none" stroke="#000000" d="M563.793,-480.5015C533.1445,-465.6981 576.9913,-393.8999 537,-363.2 500.6042,-335.2602 376.8834,-349.2 331,-349.2"/>
<polygon fill="#000000" stroke="#000000" points="570.1405,-481.7071 577.3282,-486.7368 574.0703,-482.4536 578,-483.2 578,-483.2 578,-483.2 574.0703,-482.4536 578.6718,-479.6632 570.1405,-481.7071 570.1405,-481.7071"/>
<ellipse fill="none" stroke="#000000" cx="566.9967" cy="-481.11" rx="3.2" ry="3.2"/>
</g>
<!-- chapters -->
<g id="node7" class="node">
<title>chapters</title>
<g id="a_node7"><a xlink:href="../../tables/chapters.html" xlink:title="chapters" target="_top">
<polygon fill="#ffffff" stroke="transparent" points="8,-38.2 8,-348.2 190,-348.2 190,-38.2 8,-38.2"/>
<polygon fill="#f5f5f5" stroke="transparent" points="10,-323.2 10,-346.2 188,-346.2 188,-323.2 10,-323.2"/>
<polygon fill="none" stroke="#000000" points="10,-323.2 10,-346.2 188,-346.2 188,-323.2 10,-323.2"/>
<text text-anchor="start" x="15" y="-332.3" font-family="Helvetica,sans-Serif" font-weight="bold" font-size="11.00" fill="#000000">chapters</text>
<text text-anchor="start" x="153.0437" y="-331.3" font-family="Helvetica,sans-Serif" font-size="11.00" fill="#000000">[table]</text>
<polygon fill="none" stroke="#000000" points="10,-301.2 10,-323.2 98,-323.2 98,-301.2 10,-301.2"/>
<text text-anchor="start" x="30" y="-308.3" font-family="Helvetica,sans-Serif" font-size="11.00" fill="#000000">created_at</text>
<polygon fill="none" stroke="#000000" points="98,-301.2 98,-323.2 188,-323.2 188,-301.2 98,-301.2"/>
<text text-anchor="start" x="101" y="-308.9" font-family="Helvetica,sans-Serif" font-size="11.00" fill="#000000">timestamp[26,3]</text>
<polygon fill="none" stroke="#000000" points="10,-279.2 10,-301.2 98,-301.2 98,-279.2 10,-279.2"/>
<text text-anchor="start" x="30" y="-286.3" font-family="Helvetica,sans-Serif" font-size="11.00" fill="#000000">updated_at</text>
<polygon fill="none" stroke="#000000" points="98,-279.2 98,-301.2 188,-301.2 188,-279.2 98,-279.2"/>
<text text-anchor="start" x="101" y="-286.9" font-family="Helvetica,sans-Serif" font-size="11.00" fill="#000000">timestamp[26,3]</text>
<polygon fill="none" stroke="#000000" points="10,-257.2 10,-279.2 98,-279.2 98,-257.2 10,-257.2"/>
<image xlink:href="../../images/primaryKeys.png" width="11px" height="12px" preserveAspectRatio="xMinYMin meet" x="15" y="-274.2"/>
<text text-anchor="start" x="30" y="-264.3" font-family="Helvetica,sans-Serif" font-size="11.00" fill="#000000">id</text>
<polygon fill="none" stroke="#000000" points="98,-257.2 98,-279.2 188,-279.2 188,-257.2 98,-257.2"/>
<text text-anchor="start" x="101" y="-264.9" font-family="Helvetica,sans-Serif" font-size="11.00" fill="#000000">serial[10]</text>
<polygon fill="none" stroke="#000000" points="10,-235.2 10,-257.2 98,-257.2 98,-235.2 10,-235.2"/>
<text text-anchor="start" x="30" y="-242.3" font-family="Helvetica,sans-Serif" font-size="11.00" fill="#000000">name</text>
<polygon fill="none" stroke="#000000" points="98,-235.2 98,-257.2 188,-257.2 188,-235.2 98,-235.2"/>
<text text-anchor="start" x="100.5042" y="-242.9" font-family="Helvetica,sans-Serif" font-size="11.00" fill="#000000">text[2147483647]</text>
<polygon fill="none" stroke="#000000" points="10,-213.2 10,-235.2 98,-235.2 98,-213.2 10,-213.2"/>
<text text-anchor="start" x="30" y="-220.3" font-family="Helvetica,sans-Serif" font-size="11.00" fill="#000000">description</text>
<polygon fill="none" stroke="#000000" points="98,-213.2 98,-235.2 188,-235.2 188,-213.2 98,-213.2"/>
<text text-anchor="start" x="100.5042" y="-220.9" font-family="Helvetica,sans-Serif" font-size="11.00" fill="#000000">text[2147483647]</text>
<polygon fill="none" stroke="#000000" points="10,-191.2 10,-213.2 98,-213.2 98,-191.2 10,-191.2"/>
<text text-anchor="start" x="30" y="-198.3" font-family="Helvetica,sans-Serif" font-size="11.00" fill="#000000">category</text>
<polygon fill="none" stroke="#000000" points="98,-191.2 98,-213.2 188,-213.2 188,-191.2 98,-191.2"/>
<text text-anchor="start" x="100.5042" y="-198.9" font-family="Helvetica,sans-Serif" font-size="11.00" fill="#000000">text[2147483647]</text>
<polygon fill="none" stroke="#000000" points="10,-169.2 10,-191.2 98,-191.2 98,-169.2 10,-169.2"/>
<text text-anchor="start" x="30" y="-176.3" font-family="Helvetica,sans-Serif" font-size="11.00" fill="#000000">city</text>
<polygon fill="none" stroke="#000000" points="98,-169.2 98,-191.2 188,-191.2 188,-169.2 98,-169.2"/>
<text text-anchor="start" x="100.5042" y="-176.9" font-family="Helvetica,sans-Serif" font-size="11.00" fill="#000000">text[2147483647]</text>
<polygon fill="none" stroke="#000000" points="10,-147.2 10,-169.2 98,-169.2 98,-147.2 10,-147.2"/>
<text text-anchor="start" x="30" y="-154.3" font-family="Helvetica,sans-Serif" font-size="11.00" fill="#000000">region</text>
<polygon fill="none" stroke="#000000" points="98,-147.2 98,-169.2 188,-169.2 188,-147.2 98,-147.2"/>
<text text-anchor="start" x="100.5042" y="-154.9" font-family="Helvetica,sans-Serif" font-size="11.00" fill="#000000">text[2147483647]</text>
<polygon fill="none" stroke="#000000" points="10,-125.2 10,-147.2 98,-147.2 98,-125.2 10,-125.2"/>
<text text-anchor="start" x="30" y="-132.3" font-family="Helvetica,sans-Serif" font-size="11.00" fill="#000000">country</text>
<polygon fill="none" stroke="#000000" points="98,-125.2 98,-147.2 188,-147.2 188,-125.2 98,-125.2"/>
<text text-anchor="start" x="100.5042" y="-132.9" font-family="Helvetica,sans-Serif" font-size="11.00" fill="#000000">text[2147483647]</text>
<polygon fill="none" stroke="#000000" points="10,-103.2 10,-125.2 98,-125.2 98,-103.2 10,-103.2"/>
<text text-anchor="start" x="30" y="-110.3" font-family="Helvetica,sans-Serif" font-size="11.00" fill="#000000">imageUrl</text>
<polygon fill="none" stroke="#000000" points="98,-103.2 98,-125.2 188,-125.2 188,-103.2 98,-103.2"/>
<text text-anchor="start" x="100.5042" y="-110.9" font-family="Helvetica,sans-Serif" font-size="11.00" fill="#000000">text[2147483647]</text>
<polygon fill="none" stroke="#000000" points="10,-81.2 10,-103.2 98,-103.2 98,-81.2 10,-81.2"/>
<text text-anchor="start" x="30" y="-88.3" font-family="Helvetica,sans-Serif" font-size="11.00" fill="#000000">chatUrl</text>
<polygon fill="none" stroke="#000000" points="98,-81.2 98,-103.2 188,-103.2 188,-81.2 98,-81.2"/>
<text text-anchor="start" x="100.5042" y="-88.9" font-family="Helvetica,sans-Serif" font-size="11.00" fill="#000000">text[2147483647]</text>
<polygon fill="none" stroke="#000000" points="10,-59.2 10,-81.2 98,-81.2 98,-59.2 10,-59.2"/>
<text text-anchor="start" x="30" y="-66.3" font-family="Helvetica,sans-Serif" font-size="11.00" fill="#000000">creator_id</text>
<polygon fill="none" stroke="#000000" points="98,-59.2 98,-81.2 188,-81.2 188,-59.2 98,-59.2"/>
<text text-anchor="start" x="101" y="-66.9" font-family="Helvetica,sans-Serif" font-size="11.00" fill="#000000">int4[10]</text>
<polygon fill="#ffffff" stroke="transparent" points="10,-40.2 10,-59.2 45,-59.2 45,-40.2 10,-40.2"/>
<polygon fill="none" stroke="#000000" points="10,-40.2 10,-59.2 45,-59.2 45,-40.2 10,-40.2"/>
<text text-anchor="start" x="13" y="-46.3" font-family="Helvetica,sans-Serif" font-size="11.00" fill="#000000">&lt; 0</text>
<polygon fill="#ffffff" stroke="transparent" points="45,-40.2 45,-59.2 98,-59.2 98,-40.2 45,-40.2"/>
<polygon fill="none" stroke="#000000" points="45,-40.2 45,-59.2 98,-59.2 98,-40.2 45,-40.2"/>
<text text-anchor="start" x="62.6105" y="-46.3" font-family="Helvetica,sans-Serif" font-size="11.00" fill="#000000">0 rows</text>
<polygon fill="#ffffff" stroke="transparent" points="98,-40.2 98,-59.2 188,-59.2 188,-40.2 98,-40.2"/>
<polygon fill="none" stroke="#000000" points="98,-40.2 98,-59.2 188,-59.2 188,-40.2 98,-40.2"/>
<text text-anchor="start" x="169.4053" y="-46.3" font-family="Helvetica,sans-Serif" font-size="11.00" fill="#000000">3 &gt;</text>
<polygon fill="none" stroke="#000000" stroke-width="2" points="9,-39.2 9,-347.2 189,-347.2 189,-39.2 9,-39.2"/>
</a>
</g>
</g>
<!-- events&#45;&gt;chapters -->
<g id="edge7" class="edge">
<title>events:w&#45;&gt;chapters:e</title>
<path fill="none" stroke="#000000" d="M224.3842,-484.1811C155.4677,-462.2041 281.8689,-268.2 188,-268.2"/>
<polygon fill="#000000" stroke="#000000" points="231.0752,-485.1053 238.5074,-489.7661 235.0376,-485.6526 239,-486.2 239,-486.2 239,-486.2 235.0376,-485.6526 239.4926,-482.6339 231.0752,-485.1053 231.0752,-485.1053"/>
<ellipse fill="none" stroke="#000000" cx="227.9053" cy="-484.6674" rx="3.2" ry="3.2"/>
</g>
<!-- venues -->
<g id="node8" class="node">
<title>venues</title>
<g id="a_node8"><a xlink:href="../../tables/venues.html" xlink:title="venues" target="_top">
<polygon fill="#ffffff" stroke="transparent" points="60,-480.7 60,-541.7 138,-541.7 138,-480.7 60,-480.7"/>
<polygon fill="#f5f5f5" stroke="transparent" points="60,-518.2 60,-541.2 138,-541.2 138,-518.2 60,-518.2"/>
<polygon fill="none" stroke="#000000" points="60,-518.2 60,-541.2 138,-541.2 138,-518.2 60,-518.2"/>
<text text-anchor="start" x="64.7702" y="-527.3" font-family="Helvetica,sans-Serif" font-weight="bold" font-size="11.00" fill="#000000">venues</text>
<text text-anchor="start" x="103.5219" y="-526.3" font-family="Helvetica,sans-Serif" font-size="11.00" fill="#000000">[table]</text>
<polygon fill="none" stroke="#000000" points="60,-499.2 60,-518.2 138,-518.2 138,-499.2 60,-499.2"/>
<text text-anchor="start" x="63" y="-505.3" font-family="Helvetica,sans-Serif" font-size="11.00" fill="#000000">...</text>
<polygon fill="#ffffff" stroke="transparent" points="60,-480.2 60,-499.2 75,-499.2 75,-480.2 60,-480.2"/>
<polygon fill="none" stroke="#000000" points="60,-480.2 60,-499.2 75,-499.2 75,-480.2 60,-480.2"/>
<text text-anchor="start" x="63" y="-486.3" font-family="Helvetica,sans-Serif" font-size="11.00" fill="#000000"> &#160;</text>
<polygon fill="#ffffff" stroke="transparent" points="75,-480.2 75,-499.2 115,-499.2 115,-480.2 75,-480.2"/>
<polygon fill="none" stroke="#000000" points="75,-480.2 75,-499.2 115,-499.2 115,-480.2 75,-480.2"/>
<text text-anchor="start" x="79.6105" y="-486.3" font-family="Helvetica,sans-Serif" font-size="11.00" fill="#000000">0 rows</text>
<polygon fill="#ffffff" stroke="transparent" points="115,-480.2 115,-499.2 138,-499.2 138,-480.2 115,-480.2"/>
<polygon fill="none" stroke="#000000" points="115,-480.2 115,-499.2 138,-499.2 138,-480.2 115,-480.2"/>
<text text-anchor="start" x="119.4053" y="-486.3" font-family="Helvetica,sans-Serif" font-size="11.00" fill="#000000">1 &gt;</text>
</a>
</g>
</g>
<!-- events&#45;&gt;venues -->
<g id="edge8" class="edge">
<title>events:w&#45;&gt;venues:e</title>
<path fill="none" stroke="#000000" d="M224.4974,-508.2C191.0186,-508.2 177.6285,-508.2 138,-508.2"/>
<polygon fill="#000000" stroke="#000000" points="231,-508.2001 239,-511.8 235,-508.2 239,-508.2 239,-508.2 239,-508.2 235,-508.2 239,-504.6 231,-508.2001 231,-508.2001"/>
<ellipse fill="none" stroke="#000000" cx="227.8" cy="-508.2001" rx="3.2" ry="3.2"/>
</g>
<!-- rsvps&#45;&gt;events -->
<g id="edge9" class="edge">
<title>rsvps:w&#45;&gt;events:e</title>
<path fill="none" stroke="#000000" d="M406.1868,-485.5954C380.2448,-495.173 377.776,-530.2 343,-530.2"/>
<polygon fill="#000000" stroke="#000000" points="412.6097,-484.5205 421.0942,-486.7506 416.5549,-483.8603 420.5,-483.2 420.5,-483.2 420.5,-483.2 416.5549,-483.8603 419.9058,-479.6494 412.6097,-484.5205 412.6097,-484.5205"/>
<ellipse fill="none" stroke="#000000" cx="409.4536" cy="-485.0487" rx="3.2" ry="3.2"/>
</g>
<!-- rsvps&#45;&gt;users -->
<g id="edge10" class="edge">
<title>rsvps:w&#45;&gt;users:e</title>
<path fill="none" stroke="#000000" d="M406.2053,-480.986C356.341,-463.5634 397.1627,-349.2 331,-349.2"/>
<polygon fill="#000000" stroke="#000000" points="412.5943,-481.9755 419.949,-486.7576 416.5471,-482.5877 420.5,-483.2 420.5,-483.2 420.5,-483.2 416.5471,-482.5877 421.051,-479.6424 412.5943,-481.9755 412.5943,-481.9755"/>
<ellipse fill="none" stroke="#000000" cx="409.432" cy="-481.4857" rx="3.2" ry="3.2"/>
</g>
<!-- event_sponsors -->
<g id="node5" class="node">
<title>event_sponsors</title>
<g id="a_node5"><a xlink:href="../../tables/event_sponsors.html" xlink:title="event_sponsors" target="_top">
<polygon fill="#ffffff" stroke="transparent" points="400.5,-537.7 400.5,-598.7 520.5,-598.7 520.5,-537.7 400.5,-537.7"/>
<polygon fill="#f5f5f5" stroke="transparent" points="400.5,-575.2 400.5,-598.2 520.5,-598.2 520.5,-575.2 400.5,-575.2"/>
<polygon fill="none" stroke="#000000" points="400.5,-575.2 400.5,-598.2 520.5,-598.2 520.5,-575.2 400.5,-575.2"/>
<text text-anchor="start" x="405.181" y="-584.3" font-family="Helvetica,sans-Serif" font-weight="bold" font-size="11.00" fill="#000000">event_sponsors</text>
<text text-anchor="start" x="486.0219" y="-583.3" font-family="Helvetica,sans-Serif" font-size="11.00" fill="#000000">[table]</text>
<polygon fill="none" stroke="#000000" points="400.5,-556.2 400.5,-575.2 520.5,-575.2 520.5,-556.2 400.5,-556.2"/>
<text text-anchor="start" x="403.5" y="-562.3" font-family="Helvetica,sans-Serif" font-size="11.00" fill="#000000">...</text>
<polygon fill="#ffffff" stroke="transparent" points="400.5,-537.2 400.5,-556.2 445.5,-556.2 445.5,-537.2 400.5,-537.2"/>
<polygon fill="none" stroke="#000000" points="400.5,-537.2 400.5,-556.2 445.5,-556.2 445.5,-537.2 400.5,-537.2"/>
<text text-anchor="start" x="403.5" y="-543.3" font-family="Helvetica,sans-Serif" font-size="11.00" fill="#000000">&lt; 2</text>
<polygon fill="#ffffff" stroke="transparent" points="445.5,-537.2 445.5,-556.2 495.5,-556.2 495.5,-537.2 445.5,-537.2"/>
<polygon fill="none" stroke="#000000" points="445.5,-537.2 445.5,-556.2 495.5,-556.2 495.5,-537.2 445.5,-537.2"/>
<text text-anchor="start" x="460.1105" y="-543.3" font-family="Helvetica,sans-Serif" font-size="11.00" fill="#000000">0 rows</text>
<polygon fill="#ffffff" stroke="transparent" points="495.5,-537.2 495.5,-556.2 520.5,-556.2 520.5,-537.2 495.5,-537.2"/>
<polygon fill="none" stroke="#000000" points="495.5,-537.2 495.5,-556.2 520.5,-556.2 520.5,-537.2 495.5,-537.2"/>
<text text-anchor="start" x="511.3862" y="-543.3" font-family="Helvetica,sans-Serif" font-size="11.00" fill="#000000"> &#160;</text>
</a>
</g>
</g>
<!-- event_sponsors&#45;&gt;events -->
<g id="edge5" class="edge">
<title>event_sponsors:w&#45;&gt;events:e</title>
<path fill="none" stroke="#000000" d="M386.1806,-561.7161C370.2642,-552.8633 367.0743,-530.2 343,-530.2"/>
<polygon fill="#000000" stroke="#000000" points="392.7268,-563.3087 399.6489,-568.698 396.6134,-564.2544 400.5,-565.2 400.5,-565.2 400.5,-565.2 396.6134,-564.2544 401.3511,-561.702 392.7268,-563.3087 392.7268,-563.3087"/>
<ellipse fill="none" stroke="#000000" cx="389.6175" cy="-562.5522" rx="3.2" ry="3.2"/>
</g>
<!-- event_tags -->
<g id="node6" class="node">
<title>event_tags</title>
<g id="a_node6"><a xlink:href="../../tables/event_tags.html" xlink:title="event_tags" target="_top">
<polygon fill="#ffffff" stroke="transparent" points="412.5,-647.7 412.5,-708.7 508.5,-708.7 508.5,-647.7 412.5,-647.7"/>
<polygon fill="#f5f5f5" stroke="transparent" points="412.5,-685.2 412.5,-708.2 508.5,-708.2 508.5,-685.2 412.5,-685.2"/>
<polygon fill="none" stroke="#000000" points="412.5,-685.2 412.5,-708.2 508.5,-708.2 508.5,-685.2 412.5,-685.2"/>
<text text-anchor="start" x="417.0984" y="-694.3" font-family="Helvetica,sans-Serif" font-weight="bold" font-size="11.00" fill="#000000">event_tags</text>
<text text-anchor="start" x="474.0219" y="-693.3" font-family="Helvetica,sans-Serif" font-size="11.00" fill="#000000">[table]</text>
<polygon fill="none" stroke="#000000" points="412.5,-666.2 412.5,-685.2 508.5,-685.2 508.5,-666.2 412.5,-666.2"/>
<text text-anchor="start" x="415.5" y="-672.3" font-family="Helvetica,sans-Serif" font-size="11.00" fill="#000000">...</text>
<polygon fill="#ffffff" stroke="transparent" points="412.5,-647.2 412.5,-666.2 445.5,-666.2 445.5,-647.2 412.5,-647.2"/>
<polygon fill="none" stroke="#000000" points="412.5,-647.2 412.5,-666.2 445.5,-666.2 445.5,-647.2 412.5,-647.2"/>
<text text-anchor="start" x="415.5" y="-653.3" font-family="Helvetica,sans-Serif" font-size="11.00" fill="#000000">&lt; 2</text>
<polygon fill="#ffffff" stroke="transparent" points="445.5,-647.2 445.5,-666.2 489.5,-666.2 489.5,-647.2 445.5,-647.2"/>
<polygon fill="none" stroke="#000000" points="445.5,-647.2 445.5,-666.2 489.5,-666.2 489.5,-647.2 445.5,-647.2"/>
<text text-anchor="start" x="454.1105" y="-653.3" font-family="Helvetica,sans-Serif" font-size="11.00" fill="#000000">0 rows</text>
<polygon fill="#ffffff" stroke="transparent" points="489.5,-647.2 489.5,-666.2 508.5,-666.2 508.5,-647.2 489.5,-647.2"/>
<polygon fill="none" stroke="#000000" points="489.5,-647.2 489.5,-666.2 508.5,-666.2 508.5,-647.2 489.5,-647.2"/>
<text text-anchor="start" x="499.3862" y="-653.3" font-family="Helvetica,sans-Serif" font-size="11.00" fill="#000000"> &#160;</text>
</a>
</g>
</g>
<!-- event_tags&#45;&gt;events -->
<g id="edge6" class="edge">
<title>event_tags:w&#45;&gt;events:e</title>
<path fill="none" stroke="#000000" d="M398.2654,-672.6833C351.6242,-653.4288 408.8816,-530.2 343,-530.2"/>
<polygon fill="#000000" stroke="#000000" points="404.6222,-673.8071 411.8732,-678.745 408.5611,-674.5036 412.5,-675.2 412.5,-675.2 412.5,-675.2 408.5611,-674.5036 413.1268,-671.655 404.6222,-673.8071 404.6222,-673.8071"/>
<ellipse fill="none" stroke="#000000" cx="401.4711" cy="-673.25" rx="3.2" ry="3.2"/>
</g>
<!-- user_bans -->
<g id="node9" class="node">
<title>user_bans</title>
<g id="a_node9"><a xlink:href="../../tables/user_bans.html" xlink:title="user_bans" target="_top">
<polygon fill="#ffffff" stroke="transparent" points="413.5,-219.7 413.5,-324.7 507.5,-324.7 507.5,-219.7 413.5,-219.7"/>
<polygon fill="#f5f5f5" stroke="transparent" points="413.5,-301.2 413.5,-324.2 507.5,-324.2 507.5,-301.2 413.5,-301.2"/>
<polygon fill="none" stroke="#000000" points="413.5,-301.2 413.5,-324.2 507.5,-324.2 507.5,-301.2 413.5,-301.2"/>
<text text-anchor="start" x="418.3244" y="-310.3" font-family="Helvetica,sans-Serif" font-weight="bold" font-size="11.00" fill="#000000">user_bans</text>
<text text-anchor="start" x="473.0219" y="-309.3" font-family="Helvetica,sans-Serif" font-size="11.00" fill="#000000">[table]</text>
<polygon fill="none" stroke="#000000" points="413.5,-279.2 413.5,-301.2 507.5,-301.2 507.5,-279.2 413.5,-279.2"/>
<image xlink:href="../../images/primaryKeys.png" width="11px" height="12px" preserveAspectRatio="xMinYMin meet" x="418.5" y="-296.2"/>
<text text-anchor="start" x="436.5" y="-286.3" font-family="Helvetica,sans-Serif" font-size="11.00" fill="#000000">user_id</text>
<polygon fill="none" stroke="#000000" points="413.5,-257.2 413.5,-279.2 507.5,-279.2 507.5,-257.2 413.5,-257.2"/>
<image xlink:href="../../images/primaryKeys.png" width="11px" height="12px" preserveAspectRatio="xMinYMin meet" x="418.5" y="-274.2"/>
<text text-anchor="start" x="436.5" y="-264.3" font-family="Helvetica,sans-Serif" font-size="11.00" fill="#000000">chapter_id</text>
<polygon fill="none" stroke="#000000" points="413.5,-238.2 413.5,-257.2 507.5,-257.2 507.5,-238.2 413.5,-238.2"/>
<text text-anchor="start" x="416.5" y="-244.3" font-family="Helvetica,sans-Serif" font-size="11.00" fill="#000000">...</text>
<polygon fill="#ffffff" stroke="transparent" points="413.5,-219.2 413.5,-238.2 445.5,-238.2 445.5,-219.2 413.5,-219.2"/>
<polygon fill="none" stroke="#000000" points="413.5,-219.2 413.5,-238.2 445.5,-238.2 445.5,-219.2 413.5,-219.2"/>
<text text-anchor="start" x="416.5" y="-225.3" font-family="Helvetica,sans-Serif" font-size="11.00" fill="#000000">&lt; 2</text>
<polygon fill="#ffffff" stroke="transparent" points="445.5,-219.2 445.5,-238.2 489.5,-238.2 489.5,-219.2 445.5,-219.2"/>
<polygon fill="none" stroke="#000000" points="445.5,-219.2 445.5,-238.2 489.5,-238.2 489.5,-219.2 445.5,-219.2"/>
<text text-anchor="start" x="454.1105" y="-225.3" font-family="Helvetica,sans-Serif" font-size="11.00" fill="#000000">0 rows</text>
<polygon fill="#ffffff" stroke="transparent" points="489.5,-219.2 489.5,-238.2 507.5,-238.2 507.5,-219.2 489.5,-219.2"/>
<polygon fill="none" stroke="#000000" points="489.5,-219.2 489.5,-238.2 507.5,-238.2 507.5,-219.2 489.5,-219.2"/>
<text text-anchor="start" x="498.3862" y="-225.3" font-family="Helvetica,sans-Serif" font-size="11.00" fill="#000000"> &#160;</text>
</a>
</g>
</g>
<!-- user_bans&#45;&gt;users -->
<g id="edge12" class="edge">
<title>user_bans:w&#45;&gt;users:e</title>
<path fill="none" stroke="#000000" d="M399.2565,-292.5859C369.5028,-303.6239 370.6196,-349.2 331,-349.2"/>
<polygon fill="#000000" stroke="#000000" points="405.6099,-291.5217 414.0948,-293.7505 409.555,-290.8609 413.5,-290.2 413.5,-290.2 413.5,-290.2 409.555,-290.8609 412.9052,-286.6495 405.6099,-291.5217 405.6099,-291.5217"/>
<ellipse fill="none" stroke="#000000" cx="402.4539" cy="-292.0504" rx="3.2" ry="3.2"/>
</g>
<!-- user_bans&#45;&gt;chapters -->
<g id="edge11" class="edge">
<title>user_bans:w&#45;&gt;chapters:e</title>
<path fill="none" stroke="#000000" d="M399.0662,-268.2C310.5956,-268.2 283.2307,-268.2 188,-268.2"/>
<polygon fill="#000000" stroke="#000000" points="405.5,-268.2001 413.5,-271.8 409.5,-268.2 413.5,-268.2 413.5,-268.2 413.5,-268.2 409.5,-268.2 413.5,-264.6 405.5,-268.2001 405.5,-268.2001"/>
<ellipse fill="none" stroke="#000000" cx="402.3" cy="-268.2001" rx="3.2" ry="3.2"/>
</g>
<!-- user_chapter_roles -->
<g id="node10" class="node">
<title>user_chapter_roles</title>
<g id="a_node10"><a xlink:href="../../tables/user_chapter_roles.html" xlink:title="user_chapter_roles" target="_top">
<polygon fill="#ffffff" stroke="transparent" points="392,-71.7 392,-198.7 529,-198.7 529,-71.7 392,-71.7"/>
<polygon fill="#f5f5f5" stroke="transparent" points="392.5,-175.2 392.5,-198.2 529.5,-198.2 529.5,-175.2 392.5,-175.2"/>
<polygon fill="none" stroke="#000000" points="392.5,-175.2 392.5,-198.2 529.5,-198.2 529.5,-175.2 392.5,-175.2"/>
<text text-anchor="start" x="397.4338" y="-184.3" font-family="Helvetica,sans-Serif" font-weight="bold" font-size="11.00" fill="#000000">user_chapter_roles</text>
<text text-anchor="start" x="495.0219" y="-183.3" font-family="Helvetica,sans-Serif" font-size="11.00" fill="#000000">[table]</text>
<polygon fill="none" stroke="#000000" points="392.5,-153.2 392.5,-175.2 529.5,-175.2 529.5,-153.2 392.5,-153.2"/>
<image xlink:href="../../images/primaryKeys.png" width="11px" height="12px" preserveAspectRatio="xMinYMin meet" x="397.5" y="-170.2"/>
<text text-anchor="start" x="414.5" y="-160.3" font-family="Helvetica,sans-Serif" font-size="11.00" fill="#000000">user_id</text>
<polygon fill="none" stroke="#000000" points="392.5,-131.2 392.5,-153.2 529.5,-153.2 529.5,-131.2 392.5,-131.2"/>
<image xlink:href="../../images/primaryKeys.png" width="11px" height="12px" preserveAspectRatio="xMinYMin meet" x="397.5" y="-148.2"/>
<text text-anchor="start" x="414.5" y="-138.3" font-family="Helvetica,sans-Serif" font-size="11.00" fill="#000000">chapter_id</text>
<polygon fill="none" stroke="#000000" points="392.5,-109.2 392.5,-131.2 529.5,-131.2 529.5,-109.2 392.5,-109.2"/>
<image xlink:href="../../images/primaryKeys.png" width="11px" height="12px" preserveAspectRatio="xMinYMin meet" x="397.5" y="-126.2"/>
<text text-anchor="start" x="414.5" y="-116.3" font-family="Helvetica,sans-Serif" font-size="11.00" fill="#000000">role_name</text>
<polygon fill="none" stroke="#000000" points="392.5,-90.2 392.5,-109.2 529.5,-109.2 529.5,-90.2 392.5,-90.2"/>
<text text-anchor="start" x="395.5" y="-96.3" font-family="Helvetica,sans-Serif" font-size="11.00" fill="#000000">...</text>
<polygon fill="#ffffff" stroke="transparent" points="392.5,-71.2 392.5,-90.2 446.5,-90.2 446.5,-71.2 392.5,-71.2"/>
<polygon fill="none" stroke="#000000" points="392.5,-71.2 392.5,-90.2 446.5,-90.2 446.5,-71.2 392.5,-71.2"/>
<text text-anchor="start" x="395.5" y="-77.3" font-family="Helvetica,sans-Serif" font-size="11.00" fill="#000000">&lt; 2</text>
<polygon fill="#ffffff" stroke="transparent" points="446.5,-71.2 446.5,-90.2 500.5,-90.2 500.5,-71.2 446.5,-71.2"/>
<polygon fill="none" stroke="#000000" points="446.5,-71.2 446.5,-90.2 500.5,-90.2 500.5,-71.2 446.5,-71.2"/>
<text text-anchor="start" x="465.1105" y="-77.3" font-family="Helvetica,sans-Serif" font-size="11.00" fill="#000000">0 rows</text>
<polygon fill="#ffffff" stroke="transparent" points="500.5,-71.2 500.5,-90.2 529.5,-90.2 529.5,-71.2 500.5,-71.2"/>
<polygon fill="none" stroke="#000000" points="500.5,-71.2 500.5,-90.2 529.5,-90.2 529.5,-71.2 500.5,-71.2"/>
<text text-anchor="start" x="520.3862" y="-77.3" font-family="Helvetica,sans-Serif" font-size="11.00" fill="#000000"> &#160;</text>
</a>
</g>
</g>
<!-- user_chapter_roles&#45;&gt;users -->
<g id="edge14" class="edge">
<title>user_chapter_roles:w&#45;&gt;users:e</title>
<path fill="none" stroke="#000000" d="M378.1129,-166.4065C319.44,-187.2791 412.0618,-349.2 331,-349.2"/>
<polygon fill="#000000" stroke="#000000" points="384.5925,-165.4128 393.0458,-167.7584 388.5462,-164.8064 392.5,-164.2 392.5,-164.2 392.5,-164.2 388.5462,-164.8064 391.9542,-160.6416 384.5925,-165.4128 384.5925,-165.4128"/>
<ellipse fill="none" stroke="#000000" cx="381.4294" cy="-165.8979" rx="3.2" ry="3.2"/>
</g>
<!-- user_chapter_roles&#45;&gt;chapters -->
<g id="edge13" class="edge">
<title>user_chapter_roles:w&#45;&gt;chapters:e</title>
<path fill="none" stroke="#000000" d="M378.165,-144.7169C323.0171,-162.4753 236.895,-268.2 188,-268.2"/>
<polygon fill="#000000" stroke="#000000" points="384.6205,-143.5835 393.1226,-145.7458 388.5603,-142.8918 392.5,-142.2 392.5,-142.2 392.5,-142.2 388.5603,-142.8918 391.8774,-138.6542 384.6205,-143.5835 384.6205,-143.5835"/>
<ellipse fill="none" stroke="#000000" cx="381.4687" cy="-144.1369" rx="3.2" ry="3.2"/>
</g>
<!-- user_event_roles -->
<g id="node11" class="node">
<title>user_event_roles</title>
<g id="a_node11"><a xlink:href="../../tables/user_event_roles.html" xlink:title="user_event_roles" target="_top">
<polygon fill="#ffffff" stroke="transparent" points="397,-373.7 397,-434.7 524,-434.7 524,-373.7 397,-373.7"/>
<polygon fill="#f5f5f5" stroke="transparent" points="397.5,-411.2 397.5,-434.2 524.5,-434.2 524.5,-411.2 397.5,-411.2"/>
<polygon fill="none" stroke="#000000" points="397.5,-411.2 397.5,-434.2 524.5,-434.2 524.5,-411.2 397.5,-411.2"/>
<text text-anchor="start" x="402.3222" y="-420.3" font-family="Helvetica,sans-Serif" font-weight="bold" font-size="11.00" fill="#000000">user_event_roles</text>
<text text-anchor="start" x="490.0219" y="-419.3" font-family="Helvetica,sans-Serif" font-size="11.00" fill="#000000">[table]</text>
<polygon fill="none" stroke="#000000" points="397.5,-392.2 397.5,-411.2 524.5,-411.2 524.5,-392.2 397.5,-392.2"/>
<text text-anchor="start" x="400.5" y="-398.3" font-family="Helvetica,sans-Serif" font-size="11.00" fill="#000000">...</text>
<polygon fill="#ffffff" stroke="transparent" points="397.5,-373.2 397.5,-392.2 446.5,-392.2 446.5,-373.2 397.5,-373.2"/>
<polygon fill="none" stroke="#000000" points="397.5,-373.2 397.5,-392.2 446.5,-392.2 446.5,-373.2 397.5,-373.2"/>
<text text-anchor="start" x="400.5" y="-379.3" font-family="Helvetica,sans-Serif" font-size="11.00" fill="#000000">&lt; 2</text>
<polygon fill="#ffffff" stroke="transparent" points="446.5,-373.2 446.5,-392.2 498.5,-392.2 498.5,-373.2 446.5,-373.2"/>
<polygon fill="none" stroke="#000000" points="446.5,-373.2 446.5,-392.2 498.5,-392.2 498.5,-373.2 446.5,-373.2"/>
<text text-anchor="start" x="463.1105" y="-379.3" font-family="Helvetica,sans-Serif" font-size="11.00" fill="#000000">0 rows</text>
<polygon fill="#ffffff" stroke="transparent" points="498.5,-373.2 498.5,-392.2 524.5,-392.2 524.5,-373.2 498.5,-373.2"/>
<polygon fill="none" stroke="#000000" points="498.5,-373.2 498.5,-392.2 524.5,-392.2 524.5,-373.2 498.5,-373.2"/>
<text text-anchor="start" x="515.3862" y="-379.3" font-family="Helvetica,sans-Serif" font-size="11.00" fill="#000000"> &#160;</text>
</a>
</g>
</g>
<!-- user_event_roles&#45;&gt;events -->
<g id="edge15" class="edge">
<title>user_event_roles:w&#45;&gt;events:e</title>
<path fill="none" stroke="#000000" d="M383.2634,-404.3888C347.2191,-424.2537 399.4051,-530.2 343,-530.2"/>
<polygon fill="#000000" stroke="#000000" points="389.6934,-402.9486 398.2869,-404.713 393.5967,-402.0743 397.5,-401.2 397.5,-401.2 397.5,-401.2 393.5967,-402.0743 396.7131,-397.687 389.6934,-402.9486 389.6934,-402.9486"/>
<ellipse fill="none" stroke="#000000" cx="386.5708" cy="-403.648" rx="3.2" ry="3.2"/>
</g>
<!-- user_event_roles&#45;&gt;users -->
<g id="edge16" class="edge">
<title>user_event_roles:w&#45;&gt;users:e</title>
<path fill="none" stroke="#000000" d="M383.2338,-397.9472C361.5136,-386.5631 362.803,-349.2 331,-349.2"/>
<polygon fill="#000000" stroke="#000000" points="389.7002,-399.4215 396.6997,-404.7099 393.6001,-400.3108 397.5,-401.2 397.5,-401.2 397.5,-401.2 393.6001,-400.3108 398.3003,-397.6901 389.7002,-399.4215 389.7002,-399.4215"/>
<ellipse fill="none" stroke="#000000" cx="386.5803" cy="-398.7101" rx="3.2" ry="3.2"/>
</g>
</g>
</svg>
