<?xml version="1.0" encoding="UTF-8" standalone="no"?>
<!DOCTYPE svg PUBLIC "-//W3C//DTD SVG 1.1//EN"
 "http://www.w3.org/Graphics/SVG/1.1/DTD/svg11.dtd">
<!-- Generated by graphviz version 2.40.1 (20161225.0304)
 -->
<!-- Title: twoDegreesRelationshipsDiagram Pages: 1 -->
<svg width="718pt" height="699pt"
 viewBox="0.00 0.00 718.00 698.70" xmlns="http://www.w3.org/2000/svg" xmlns:xlink="http://www.w3.org/1999/xlink">
<g id="graph0" class="graph" transform="scale(1 1) rotate(0) translate(4 694.7)">
<title>twoDegreesRelationshipsDiagram</title>
<polygon fill="#ffffff" stroke="transparent" points="-4,4 -4,-694.7 714,-694.7 714,4 -4,4"/>
<text text-anchor="middle" x="72.4936" y="-7.3" font-family="Helvetica,sans-Serif" font-size="11.00" fill="#000000">Generated by SchemaSpy</text>
<!-- event_reminders -->
<g id="node1" class="node">
<title>event_reminders</title>
<g id="a_node1"><a xlink:href="../../tables/event_reminders.html" xlink:title="event_reminders" target="_top">
<polygon fill="#ffffff" stroke="transparent" points="578,-433.7 578,-494.7 702,-494.7 702,-433.7 578,-433.7"/>
<polygon fill="#f5f5f5" stroke="transparent" points="578,-471.2 578,-494.2 702,-494.2 702,-471.2 578,-471.2"/>
<polygon fill="none" stroke="#000000" points="578,-471.2 578,-494.2 702,-494.2 702,-471.2 578,-471.2"/>
<text text-anchor="start" x="582.5486" y="-480.3" font-family="Helvetica,sans-Serif" font-weight="bold" font-size="11.00" fill="#000000">event_reminders</text>
<text text-anchor="start" x="667.5219" y="-479.3" font-family="Helvetica,sans-Serif" font-size="11.00" fill="#000000">[table]</text>
<polygon fill="none" stroke="#000000" points="578,-452.2 578,-471.2 702,-471.2 702,-452.2 578,-452.2"/>
<text text-anchor="start" x="581" y="-458.3" font-family="Helvetica,sans-Serif" font-size="11.00" fill="#000000">...</text>
<polygon fill="#ffffff" stroke="transparent" points="578,-433.2 578,-452.2 625,-452.2 625,-433.2 578,-433.2"/>
<polygon fill="none" stroke="#000000" points="578,-433.2 578,-452.2 625,-452.2 625,-433.2 578,-433.2"/>
<text text-anchor="start" x="581" y="-439.3" font-family="Helvetica,sans-Serif" font-size="11.00" fill="#000000">&lt; 4</text>
<polygon fill="#ffffff" stroke="transparent" points="625,-433.2 625,-452.2 676,-452.2 676,-433.2 625,-433.2"/>
<polygon fill="none" stroke="#000000" points="625,-433.2 625,-452.2 676,-452.2 676,-433.2 625,-433.2"/>
<text text-anchor="start" x="640.6105" y="-439.3" font-family="Helvetica,sans-Serif" font-size="11.00" fill="#000000">0 rows</text>
<polygon fill="#ffffff" stroke="transparent" points="676,-433.2 676,-452.2 702,-452.2 702,-433.2 676,-433.2"/>
<polygon fill="none" stroke="#000000" points="676,-433.2 676,-452.2 702,-452.2 702,-433.2 676,-433.2"/>
<text text-anchor="start" x="692.8862" y="-439.3" font-family="Helvetica,sans-Serif" font-size="11.00" fill="#000000"> &#160;</text>
</a>
</g>
</g>
<!-- events -->
<g id="node2" class="node">
<title>events</title>
<g id="a_node2"><a xlink:href="../../tables/events.html" xlink:title="events" target="_top">
<polygon fill="#ffffff" stroke="transparent" points="239,-415.7 239,-542.7 343,-542.7 343,-415.7 239,-415.7"/>
<polygon fill="#f5f5f5" stroke="transparent" points="239,-519.2 239,-542.2 343,-542.2 343,-519.2 239,-519.2"/>
<polygon fill="none" stroke="#000000" points="239,-519.2 239,-542.2 343,-542.2 343,-519.2 239,-519.2"/>
<text text-anchor="start" x="244" y="-528.3" font-family="Helvetica,sans-Serif" font-weight="bold" font-size="11.00" fill="#000000">events</text>
<text text-anchor="start" x="308.0437" y="-527.3" font-family="Helvetica,sans-Serif" font-size="11.00" fill="#000000">[table]</text>
<polygon fill="none" stroke="#000000" points="239,-497.2 239,-519.2 343,-519.2 343,-497.2 239,-497.2"/>
<image xlink:href="../../images/primaryKeys.png" width="11px" height="12px" preserveAspectRatio="xMinYMin meet" x="244" y="-514.2"/>
<text text-anchor="start" x="259" y="-504.3" font-family="Helvetica,sans-Serif" font-size="11.00" fill="#000000">id</text>
<polygon fill="none" stroke="#000000" points="239,-475.2 239,-497.2 343,-497.2 343,-475.2 239,-475.2"/>
<image xlink:href="../../images/foreignKeys.png" width="11px" height="12px" preserveAspectRatio="xMinYMin meet" x="244" y="-492.2"/>
<text text-anchor="start" x="259" y="-482.3" font-family="Helvetica,sans-Serif" font-size="11.00" fill="#000000">venue_id</text>
<polygon fill="none" stroke="#000000" points="239,-453.2 239,-475.2 343,-475.2 343,-453.2 239,-453.2"/>
<image xlink:href="../../images/foreignKeys.png" width="11px" height="12px" preserveAspectRatio="xMinYMin meet" x="244" y="-470.2"/>
<text text-anchor="start" x="259" y="-460.3" font-family="Helvetica,sans-Serif" font-size="11.00" fill="#000000">chapter_id</text>
<polygon fill="none" stroke="#000000" points="239,-434.2 239,-453.2 343,-453.2 343,-434.2 239,-434.2"/>
<text text-anchor="start" x="242" y="-440.3" font-family="Helvetica,sans-Serif" font-size="11.00" fill="#000000">...</text>
<polygon fill="#ffffff" stroke="transparent" points="239,-415.2 239,-434.2 272,-434.2 272,-415.2 239,-415.2"/>
<polygon fill="none" stroke="#000000" points="239,-415.2 239,-434.2 272,-434.2 272,-415.2 239,-415.2"/>
<text text-anchor="start" x="242" y="-421.3" font-family="Helvetica,sans-Serif" font-size="11.00" fill="#000000">&lt; 2</text>
<polygon fill="#ffffff" stroke="transparent" points="272,-415.2 272,-434.2 316,-434.2 316,-415.2 272,-415.2"/>
<polygon fill="none" stroke="#000000" points="272,-415.2 272,-434.2 316,-434.2 316,-415.2 272,-415.2"/>
<text text-anchor="start" x="280.6105" y="-421.3" font-family="Helvetica,sans-Serif" font-size="11.00" fill="#000000">0 rows</text>
<polygon fill="#ffffff" stroke="transparent" points="316,-415.2 316,-434.2 343,-434.2 343,-415.2 316,-415.2"/>
<polygon fill="none" stroke="#000000" points="316,-415.2 316,-434.2 343,-434.2 343,-415.2 316,-415.2"/>
<text text-anchor="start" x="324.4053" y="-421.3" font-family="Helvetica,sans-Serif" font-size="11.00" fill="#000000">5 &gt;</text>
</a>
</g>
</g>
<!-- event_reminders&#45;&gt;events -->
<g id="edge1" class="edge">
<title>event_reminders:w&#45;&gt;events:e</title>
<path fill="none" stroke="#000000" d="M563.6585,-463.873C531.2553,-479.1789 579.8111,-556.11 537,-587.2 509.4891,-607.1788 413.056,-604.8564 384,-587.2 350.1941,-566.6573 382.5581,-508.2 343,-508.2"/>
<polygon fill="#000000" stroke="#000000" points="570.1354,-462.6658 578.6596,-464.7391 574.0677,-461.9329 578,-461.2 578,-461.2 578,-461.2 574.0677,-461.9329 577.3404,-457.6609 570.1354,-462.6658 570.1354,-462.6658"/>
<ellipse fill="none" stroke="#000000" cx="566.9896" cy="-463.2522" rx="3.2" ry="3.2"/>
</g>
<!-- rsvps -->
<g id="node3" class="node">
<title>rsvps</title>
<g id="a_node3"><a xlink:href="../../tables/rsvps.html" xlink:title="rsvps" target="_top">
<polygon fill="#ffffff" stroke="transparent" points="420.5,-433.7 420.5,-494.7 500.5,-494.7 500.5,-433.7 420.5,-433.7"/>
<polygon fill="#f5f5f5" stroke="transparent" points="420.5,-471.2 420.5,-494.2 500.5,-494.2 500.5,-471.2 420.5,-471.2"/>
<polygon fill="none" stroke="#000000" points="420.5,-471.2 420.5,-494.2 500.5,-494.2 500.5,-471.2 420.5,-471.2"/>
<text text-anchor="start" x="425.5" y="-480.3" font-family="Helvetica,sans-Serif" font-weight="bold" font-size="11.00" fill="#000000">rsvps</text>
<text text-anchor="start" x="465.5437" y="-479.3" font-family="Helvetica,sans-Serif" font-size="11.00" fill="#000000">[table]</text>
<polygon fill="none" stroke="#000000" points="420.5,-452.2 420.5,-471.2 500.5,-471.2 500.5,-452.2 420.5,-452.2"/>
<text text-anchor="start" x="423.5" y="-458.3" font-family="Helvetica,sans-Serif" font-size="11.00" fill="#000000">...</text>
<polygon fill="#ffffff" stroke="transparent" points="420.5,-433.2 420.5,-452.2 441.5,-452.2 441.5,-433.2 420.5,-433.2"/>
<polygon fill="none" stroke="#000000" points="420.5,-433.2 420.5,-452.2 441.5,-452.2 441.5,-433.2 420.5,-433.2"/>
<text text-anchor="start" x="423.2027" y="-439.3" font-family="Helvetica,sans-Serif" font-size="11.00" fill="#000000">&lt; 2</text>
<polygon fill="#ffffff" stroke="transparent" points="441.5,-433.2 441.5,-452.2 479.5,-452.2 479.5,-433.2 441.5,-433.2"/>
<polygon fill="none" stroke="#000000" points="441.5,-433.2 441.5,-452.2 479.5,-452.2 479.5,-433.2 441.5,-433.2"/>
<text text-anchor="start" x="444.3053" y="-439.3" font-family="Helvetica,sans-Serif" font-size="11.00" fill="#000000">0 rows</text>
<polygon fill="#ffffff" stroke="transparent" points="479.5,-433.2 479.5,-452.2 500.5,-452.2 500.5,-433.2 479.5,-433.2"/>
<polygon fill="none" stroke="#000000" points="479.5,-433.2 479.5,-452.2 500.5,-452.2 500.5,-433.2 479.5,-433.2"/>
<text text-anchor="start" x="482.2027" y="-439.3" font-family="Helvetica,sans-Serif" font-size="11.00" fill="#000000">2 &gt;</text>
</a>
</g>
</g>
<!-- event_reminders&#45;&gt;rsvps -->
<g id="edge2" class="edge">
<title>event_reminders:w&#45;&gt;rsvps:e</title>
<path fill="none" stroke="#000000" d="M563.5492,-458.827C540.2339,-455.3465 529.5625,-456.1375 500.5,-461.2"/>
<polygon fill="#000000" stroke="#000000" points="570.1057,-459.9036 577.4166,-464.7524 574.0529,-460.5518 578,-461.2 578,-461.2 578,-461.2 574.0529,-460.5518 578.5834,-457.6476 570.1057,-459.9036 570.1057,-459.9036"/>
<ellipse fill="none" stroke="#000000" cx="566.948" cy="-459.385" rx="3.2" ry="3.2"/>
</g>
<!-- event_reminders&#45;&gt;rsvps -->
<g id="edge3" class="edge">
<title>event_reminders:w&#45;&gt;rsvps:e</title>
<path fill="none" stroke="#000000" d="M563.5492,-463.9686C540.2339,-468.0291 529.5625,-467.1063 500.5,-461.2"/>
<polygon fill="#000000" stroke="#000000" points="570.1429,-462.7053 578.6774,-464.7357 574.0714,-461.9527 578,-461.2 578,-461.2 578,-461.2 574.0714,-461.9527 577.3226,-457.6643 570.1429,-462.7053 570.1429,-462.7053"/>
<ellipse fill="none" stroke="#000000" cx="567.0001" cy="-463.3075" rx="3.2" ry="3.2"/>
</g>
<!-- users -->
<g id="node4" class="node">
<title>users</title>
<g id="a_node4"><a xlink:href="../../tables/users.html" xlink:title="users" target="_top">
<polygon fill="#ffffff" stroke="transparent" points="255.5,-299.7 255.5,-360.7 326.5,-360.7 326.5,-299.7 255.5,-299.7"/>
<polygon fill="#f5f5f5" stroke="transparent" points="256,-337.2 256,-360.2 327,-360.2 327,-337.2 256,-337.2"/>
<polygon fill="none" stroke="#000000" points="256,-337.2 256,-360.2 327,-360.2 327,-337.2 256,-337.2"/>
<text text-anchor="start" x="261" y="-346.3" font-family="Helvetica,sans-Serif" font-weight="bold" font-size="11.00" fill="#000000">users</text>
<text text-anchor="start" x="292.0437" y="-345.3" font-family="Helvetica,sans-Serif" font-size="11.00" fill="#000000">[table]</text>
<polygon fill="none" stroke="#000000" points="256,-318.2 256,-337.2 327,-337.2 327,-318.2 256,-318.2"/>
<text text-anchor="start" x="259" y="-324.3" font-family="Helvetica,sans-Serif" font-size="11.00" fill="#000000">...</text>
<polygon fill="#ffffff" stroke="transparent" points="256,-299.2 256,-318.2 268,-318.2 268,-299.2 256,-299.2"/>
<polygon fill="none" stroke="#000000" points="256,-299.2 256,-318.2 268,-318.2 268,-299.2 256,-299.2"/>
<text text-anchor="start" x="258.9431" y="-305.3" font-family="Helvetica,sans-Serif" font-size="11.00" fill="#000000"> &#160;</text>
<polygon fill="#ffffff" stroke="transparent" points="268,-299.2 268,-318.2 306,-318.2 306,-299.2 268,-299.2"/>
<polygon fill="none" stroke="#000000" points="268,-299.2 268,-318.2 306,-318.2 306,-299.2 268,-299.2"/>
<text text-anchor="start" x="270.8053" y="-305.3" font-family="Helvetica,sans-Serif" font-size="11.00" fill="#000000">0 rows</text>
<polygon fill="#ffffff" stroke="transparent" points="306,-299.2 306,-318.2 327,-318.2 327,-299.2 306,-299.2"/>
<polygon fill="none" stroke="#000000" points="306,-299.2 306,-318.2 327,-318.2 327,-299.2 306,-299.2"/>
<text text-anchor="start" x="308.7027" y="-305.3" font-family="Helvetica,sans-Serif" font-size="11.00" fill="#000000">6 &gt;</text>
</a>
</g>
</g>
<!-- event_reminders&#45;&gt;users -->
<g id="edge4" class="edge">
<title>event_reminders:w&#45;&gt;users:e</title>
<path fill="none" stroke="#000000" d="M563.7937,-458.5007C533.1487,-443.6927 577.0111,-371.8741 537,-341.2 499.8824,-312.7441 373.7703,-327.2 327,-327.2"/>
<polygon fill="#000000" stroke="#000000" points="570.1406,-459.7066 577.328,-464.7367 574.0703,-460.4533 578,-461.2 578,-461.2 578,-461.2 574.0703,-460.4533 578.672,-457.6633 570.1406,-459.7066 570.1406,-459.7066"/>
<ellipse fill="none" stroke="#000000" cx="566.9969" cy="-459.1092" rx="3.2" ry="3.2"/>
</g>
<!-- chapters -->
<g id="node7" class="node">
<title>chapters</title>
<g id="a_node7"><a xlink:href="../../tables/chapters.html" xlink:title="chapters" target="_top">
<polygon fill="#ffffff" stroke="transparent" points="8,-38.2 8,-326.2 190,-326.2 190,-38.2 8,-38.2"/>
<polygon fill="#f5f5f5" stroke="transparent" points="10,-301.2 10,-324.2 188,-324.2 188,-301.2 10,-301.2"/>
<polygon fill="none" stroke="#000000" points="10,-301.2 10,-324.2 188,-324.2 188,-301.2 10,-301.2"/>
<text text-anchor="start" x="15" y="-310.3" font-family="Helvetica,sans-Serif" font-weight="bold" font-size="11.00" fill="#000000">chapters</text>
<text text-anchor="start" x="153.0437" y="-309.3" font-family="Helvetica,sans-Serif" font-size="11.00" fill="#000000">[table]</text>
<polygon fill="none" stroke="#000000" points="10,-279.2 10,-301.2 98,-301.2 98,-279.2 10,-279.2"/>
<text text-anchor="start" x="30" y="-286.3" font-family="Helvetica,sans-Serif" font-size="11.00" fill="#000000">created_at</text>
<polygon fill="none" stroke="#000000" points="98,-279.2 98,-301.2 188,-301.2 188,-279.2 98,-279.2"/>
<text text-anchor="start" x="101" y="-286.9" font-family="Helvetica,sans-Serif" font-size="11.00" fill="#000000">timestamp[26,3]</text>
<polygon fill="none" stroke="#000000" points="10,-257.2 10,-279.2 98,-279.2 98,-257.2 10,-257.2"/>
<text text-anchor="start" x="30" y="-264.3" font-family="Helvetica,sans-Serif" font-size="11.00" fill="#000000">updated_at</text>
<polygon fill="none" stroke="#000000" points="98,-257.2 98,-279.2 188,-279.2 188,-257.2 98,-257.2"/>
<text text-anchor="start" x="101" y="-264.9" font-family="Helvetica,sans-Serif" font-size="11.00" fill="#000000">timestamp[26,3]</text>
<polygon fill="none" stroke="#000000" points="10,-235.2 10,-257.2 98,-257.2 98,-235.2 10,-235.2"/>
<image xlink:href="../../images/primaryKeys.png" width="11px" height="12px" preserveAspectRatio="xMinYMin meet" x="15" y="-252.2"/>
<text text-anchor="start" x="30" y="-242.3" font-family="Helvetica,sans-Serif" font-size="11.00" fill="#000000">id</text>
<polygon fill="none" stroke="#000000" points="98,-235.2 98,-257.2 188,-257.2 188,-235.2 98,-235.2"/>
<text text-anchor="start" x="101" y="-242.9" font-family="Helvetica,sans-Serif" font-size="11.00" fill="#000000">serial[10]</text>
<polygon fill="none" stroke="#000000" points="10,-213.2 10,-235.2 98,-235.2 98,-213.2 10,-213.2"/>
<text text-anchor="start" x="30" y="-220.3" font-family="Helvetica,sans-Serif" font-size="11.00" fill="#000000">name</text>
<polygon fill="none" stroke="#000000" points="98,-213.2 98,-235.2 188,-235.2 188,-213.2 98,-213.2"/>
<text text-anchor="start" x="100.5042" y="-220.9" font-family="Helvetica,sans-Serif" font-size="11.00" fill="#000000">text[2147483647]</text>
<polygon fill="none" stroke="#000000" points="10,-191.2 10,-213.2 98,-213.2 98,-191.2 10,-191.2"/>
<text text-anchor="start" x="30" y="-198.3" font-family="Helvetica,sans-Serif" font-size="11.00" fill="#000000">description</text>
<polygon fill="none" stroke="#000000" points="98,-191.2 98,-213.2 188,-213.2 188,-191.2 98,-191.2"/>
<text text-anchor="start" x="100.5042" y="-198.9" font-family="Helvetica,sans-Serif" font-size="11.00" fill="#000000">text[2147483647]</text>
<polygon fill="none" stroke="#000000" points="10,-169.2 10,-191.2 98,-191.2 98,-169.2 10,-169.2"/>
<text text-anchor="start" x="30" y="-176.3" font-family="Helvetica,sans-Serif" font-size="11.00" fill="#000000">category</text>
<polygon fill="none" stroke="#000000" points="98,-169.2 98,-191.2 188,-191.2 188,-169.2 98,-169.2"/>
<text text-anchor="start" x="100.5042" y="-176.9" font-family="Helvetica,sans-Serif" font-size="11.00" fill="#000000">text[2147483647]</text>
<polygon fill="none" stroke="#000000" points="10,-147.2 10,-169.2 98,-169.2 98,-147.2 10,-147.2"/>
<text text-anchor="start" x="30" y="-154.3" font-family="Helvetica,sans-Serif" font-size="11.00" fill="#000000">city</text>
<polygon fill="none" stroke="#000000" points="98,-147.2 98,-169.2 188,-169.2 188,-147.2 98,-147.2"/>
<text text-anchor="start" x="100.5042" y="-154.9" font-family="Helvetica,sans-Serif" font-size="11.00" fill="#000000">text[2147483647]</text>
<polygon fill="none" stroke="#000000" points="10,-125.2 10,-147.2 98,-147.2 98,-125.2 10,-125.2"/>
<text text-anchor="start" x="30" y="-132.3" font-family="Helvetica,sans-Serif" font-size="11.00" fill="#000000">region</text>
<polygon fill="none" stroke="#000000" points="98,-125.2 98,-147.2 188,-147.2 188,-125.2 98,-125.2"/>
<text text-anchor="start" x="100.5042" y="-132.9" font-family="Helvetica,sans-Serif" font-size="11.00" fill="#000000">text[2147483647]</text>
<polygon fill="none" stroke="#000000" points="10,-103.2 10,-125.2 98,-125.2 98,-103.2 10,-103.2"/>
<text text-anchor="start" x="30" y="-110.3" font-family="Helvetica,sans-Serif" font-size="11.00" fill="#000000">country</text>
<polygon fill="none" stroke="#000000" points="98,-103.2 98,-125.2 188,-125.2 188,-103.2 98,-103.2"/>
<text text-anchor="start" x="100.5042" y="-110.9" font-family="Helvetica,sans-Serif" font-size="11.00" fill="#000000">text[2147483647]</text>
<polygon fill="none" stroke="#000000" points="10,-81.2 10,-103.2 98,-103.2 98,-81.2 10,-81.2"/>
<text text-anchor="start" x="30" y="-88.3" font-family="Helvetica,sans-Serif" font-size="11.00" fill="#000000">imageUrl</text>
<polygon fill="none" stroke="#000000" points="98,-81.2 98,-103.2 188,-103.2 188,-81.2 98,-81.2"/>
<text text-anchor="start" x="100.5042" y="-88.9" font-family="Helvetica,sans-Serif" font-size="11.00" fill="#000000">text[2147483647]</text>
<polygon fill="none" stroke="#000000" points="10,-59.2 10,-81.2 98,-81.2 98,-59.2 10,-59.2"/>
<text text-anchor="start" x="30" y="-66.3" font-family="Helvetica,sans-Serif" font-size="11.00" fill="#000000">creator_id</text>
<polygon fill="none" stroke="#000000" points="98,-59.2 98,-81.2 188,-81.2 188,-59.2 98,-59.2"/>
<text text-anchor="start" x="101" y="-66.9" font-family="Helvetica,sans-Serif" font-size="11.00" fill="#000000">int4[10]</text>
<polygon fill="#ffffff" stroke="transparent" points="10,-40.2 10,-59.2 45,-59.2 45,-40.2 10,-40.2"/>
<polygon fill="none" stroke="#000000" points="10,-40.2 10,-59.2 45,-59.2 45,-40.2 10,-40.2"/>
<text text-anchor="start" x="13" y="-46.3" font-family="Helvetica,sans-Serif" font-size="11.00" fill="#000000">&lt; 0</text>
<polygon fill="#ffffff" stroke="transparent" points="45,-40.2 45,-59.2 98,-59.2 98,-40.2 45,-40.2"/>
<polygon fill="none" stroke="#000000" points="45,-40.2 45,-59.2 98,-59.2 98,-40.2 45,-40.2"/>
<text text-anchor="start" x="62.6105" y="-46.3" font-family="Helvetica,sans-Serif" font-size="11.00" fill="#000000">0 rows</text>
<polygon fill="#ffffff" stroke="transparent" points="98,-40.2 98,-59.2 188,-59.2 188,-40.2 98,-40.2"/>
<polygon fill="none" stroke="#000000" points="98,-40.2 98,-59.2 188,-59.2 188,-40.2 98,-40.2"/>
<text text-anchor="start" x="169.4053" y="-46.3" font-family="Helvetica,sans-Serif" font-size="11.00" fill="#000000">3 &gt;</text>
<polygon fill="none" stroke="#000000" stroke-width="2" points="9,-39.2 9,-325.2 189,-325.2 189,-39.2 9,-39.2"/>
</a>
</g>
</g>
<!-- events&#45;&gt;chapters -->
<g id="edge7" class="edge">
<title>events:w&#45;&gt;chapters:e</title>
<path fill="none" stroke="#000000" d="M224.3842,-462.1811C155.4677,-440.2041 281.8689,-246.2 188,-246.2"/>
<polygon fill="#000000" stroke="#000000" points="231.0752,-463.1053 238.5074,-467.7661 235.0376,-463.6526 239,-464.2 239,-464.2 239,-464.2 235.0376,-463.6526 239.4926,-460.6339 231.0752,-463.1053 231.0752,-463.1053"/>
<ellipse fill="none" stroke="#000000" cx="227.9053" cy="-462.6674" rx="3.2" ry="3.2"/>
</g>
<!-- venues -->
<g id="node8" class="node">
<title>venues</title>
<g id="a_node8"><a xlink:href="../../tables/venues.html" xlink:title="venues" target="_top">
<polygon fill="#ffffff" stroke="transparent" points="60,-458.7 60,-519.7 138,-519.7 138,-458.7 60,-458.7"/>
<polygon fill="#f5f5f5" stroke="transparent" points="60,-496.2 60,-519.2 138,-519.2 138,-496.2 60,-496.2"/>
<polygon fill="none" stroke="#000000" points="60,-496.2 60,-519.2 138,-519.2 138,-496.2 60,-496.2"/>
<text text-anchor="start" x="64.7702" y="-505.3" font-family="Helvetica,sans-Serif" font-weight="bold" font-size="11.00" fill="#000000">venues</text>
<text text-anchor="start" x="103.5219" y="-504.3" font-family="Helvetica,sans-Serif" font-size="11.00" fill="#000000">[table]</text>
<polygon fill="none" stroke="#000000" points="60,-477.2 60,-496.2 138,-496.2 138,-477.2 60,-477.2"/>
<text text-anchor="start" x="63" y="-483.3" font-family="Helvetica,sans-Serif" font-size="11.00" fill="#000000">...</text>
<polygon fill="#ffffff" stroke="transparent" points="60,-458.2 60,-477.2 75,-477.2 75,-458.2 60,-458.2"/>
<polygon fill="none" stroke="#000000" points="60,-458.2 60,-477.2 75,-477.2 75,-458.2 60,-458.2"/>
<text text-anchor="start" x="63" y="-464.3" font-family="Helvetica,sans-Serif" font-size="11.00" fill="#000000"> &#160;</text>
<polygon fill="#ffffff" stroke="transparent" points="75,-458.2 75,-477.2 115,-477.2 115,-458.2 75,-458.2"/>
<polygon fill="none" stroke="#000000" points="75,-458.2 75,-477.2 115,-477.2 115,-458.2 75,-458.2"/>
<text text-anchor="start" x="79.6105" y="-464.3" font-family="Helvetica,sans-Serif" font-size="11.00" fill="#000000">0 rows</text>
<polygon fill="#ffffff" stroke="transparent" points="115,-458.2 115,-477.2 138,-477.2 138,-458.2 115,-458.2"/>
<polygon fill="none" stroke="#000000" points="115,-458.2 115,-477.2 138,-477.2 138,-458.2 115,-458.2"/>
<text text-anchor="start" x="119.4053" y="-464.3" font-family="Helvetica,sans-Serif" font-size="11.00" fill="#000000">1 &gt;</text>
</a>
</g>
</g>
<!-- events&#45;&gt;venues -->
<g id="edge8" class="edge">
<title>events:w&#45;&gt;venues:e</title>
<path fill="none" stroke="#000000" d="M224.4974,-486.2C191.0186,-486.2 177.6285,-486.2 138,-486.2"/>
<polygon fill="#000000" stroke="#000000" points="231,-486.2001 239,-489.8 235,-486.2 239,-486.2 239,-486.2 239,-486.2 235,-486.2 239,-482.6 231,-486.2001 231,-486.2001"/>
<ellipse fill="none" stroke="#000000" cx="227.8" cy="-486.2001" rx="3.2" ry="3.2"/>
</g>
<!-- rsvps&#45;&gt;events -->
<g id="edge9" class="edge">
<title>rsvps:w&#45;&gt;events:e</title>
<path fill="none" stroke="#000000" d="M406.1868,-463.5954C380.2448,-473.173 377.776,-508.2 343,-508.2"/>
<polygon fill="#000000" stroke="#000000" points="412.6097,-462.5205 421.0942,-464.7506 416.5549,-461.8603 420.5,-461.2 420.5,-461.2 420.5,-461.2 416.5549,-461.8603 419.9058,-457.6494 412.6097,-462.5205 412.6097,-462.5205"/>
<ellipse fill="none" stroke="#000000" cx="409.4536" cy="-463.0487" rx="3.2" ry="3.2"/>
</g>
<!-- rsvps&#45;&gt;users -->
<g id="edge10" class="edge">
<title>rsvps:w&#45;&gt;users:e</title>
<path fill="none" stroke="#000000" d="M405.9599,-458.986C355.0404,-441.5634 394.0888,-327.2 327,-327.2"/>
<polygon fill="#000000" stroke="#000000" points="412.5912,-459.9957 419.9581,-464.759 416.5456,-460.5978 420.5,-461.2 420.5,-461.2 420.5,-461.2 416.5456,-460.5978 421.0419,-457.641 412.5912,-459.9957 412.5912,-459.9957"/>
<ellipse fill="none" stroke="#000000" cx="409.4276" cy="-459.514" rx="3.2" ry="3.2"/>
</g>
<!-- event_sponsors -->
<g id="node5" class="node">
<title>event_sponsors</title>
<g id="a_node5"><a xlink:href="../../tables/event_sponsors.html" xlink:title="event_sponsors" target="_top">
<polygon fill="#ffffff" stroke="transparent" points="400.5,-515.7 400.5,-576.7 520.5,-576.7 520.5,-515.7 400.5,-515.7"/>
<polygon fill="#f5f5f5" stroke="transparent" points="400.5,-553.2 400.5,-576.2 520.5,-576.2 520.5,-553.2 400.5,-553.2"/>
<polygon fill="none" stroke="#000000" points="400.5,-553.2 400.5,-576.2 520.5,-576.2 520.5,-553.2 400.5,-553.2"/>
<text text-anchor="start" x="405.181" y="-562.3" font-family="Helvetica,sans-Serif" font-weight="bold" font-size="11.00" fill="#000000">event_sponsors</text>
<text text-anchor="start" x="486.0219" y="-561.3" font-family="Helvetica,sans-Serif" font-size="11.00" fill="#000000">[table]</text>
<polygon fill="none" stroke="#000000" points="400.5,-534.2 400.5,-553.2 520.5,-553.2 520.5,-534.2 400.5,-534.2"/>
<text text-anchor="start" x="403.5" y="-540.3" font-family="Helvetica,sans-Serif" font-size="11.00" fill="#000000">...</text>
<polygon fill="#ffffff" stroke="transparent" points="400.5,-515.2 400.5,-534.2 445.5,-534.2 445.5,-515.2 400.5,-515.2"/>
<polygon fill="none" stroke="#000000" points="400.5,-515.2 400.5,-534.2 445.5,-534.2 445.5,-515.2 400.5,-515.2"/>
<text text-anchor="start" x="403.5" y="-521.3" font-family="Helvetica,sans-Serif" font-size="11.00" fill="#000000">&lt; 2</text>
<polygon fill="#ffffff" stroke="transparent" points="445.5,-515.2 445.5,-534.2 495.5,-534.2 495.5,-515.2 445.5,-515.2"/>
<polygon fill="none" stroke="#000000" points="445.5,-515.2 445.5,-534.2 495.5,-534.2 495.5,-515.2 445.5,-515.2"/>
<text text-anchor="start" x="460.1105" y="-521.3" font-family="Helvetica,sans-Serif" font-size="11.00" fill="#000000">0 rows</text>
<polygon fill="#ffffff" stroke="transparent" points="495.5,-515.2 495.5,-534.2 520.5,-534.2 520.5,-515.2 495.5,-515.2"/>
<polygon fill="none" stroke="#000000" points="495.5,-515.2 495.5,-534.2 520.5,-534.2 520.5,-515.2 495.5,-515.2"/>
<text text-anchor="start" x="511.3862" y="-521.3" font-family="Helvetica,sans-Serif" font-size="11.00" fill="#000000"> &#160;</text>
</a>
</g>
</g>
<!-- event_sponsors&#45;&gt;events -->
<g id="edge5" class="edge">
<title>event_sponsors:w&#45;&gt;events:e</title>
<path fill="none" stroke="#000000" d="M386.1806,-539.7161C370.2642,-530.8633 367.0743,-508.2 343,-508.2"/>
<polygon fill="#000000" stroke="#000000" points="392.7268,-541.3087 399.6489,-546.698 396.6134,-542.2544 400.5,-543.2 400.5,-543.2 400.5,-543.2 396.6134,-542.2544 401.3511,-539.702 392.7268,-541.3087 392.7268,-541.3087"/>
<ellipse fill="none" stroke="#000000" cx="389.6175" cy="-540.5522" rx="3.2" ry="3.2"/>
</g>
<!-- event_tags -->
<g id="node6" class="node">
<title>event_tags</title>
<g id="a_node6"><a xlink:href="../../tables/event_tags.html" xlink:title="event_tags" target="_top">
<polygon fill="#ffffff" stroke="transparent" points="412.5,-625.7 412.5,-686.7 508.5,-686.7 508.5,-625.7 412.5,-625.7"/>
<polygon fill="#f5f5f5" stroke="transparent" points="412.5,-663.2 412.5,-686.2 508.5,-686.2 508.5,-663.2 412.5,-663.2"/>
<polygon fill="none" stroke="#000000" points="412.5,-663.2 412.5,-686.2 508.5,-686.2 508.5,-663.2 412.5,-663.2"/>
<text text-anchor="start" x="417.0984" y="-672.3" font-family="Helvetica,sans-Serif" font-weight="bold" font-size="11.00" fill="#000000">event_tags</text>
<text text-anchor="start" x="474.0219" y="-671.3" font-family="Helvetica,sans-Serif" font-size="11.00" fill="#000000">[table]</text>
<polygon fill="none" stroke="#000000" points="412.5,-644.2 412.5,-663.2 508.5,-663.2 508.5,-644.2 412.5,-644.2"/>
<text text-anchor="start" x="415.5" y="-650.3" font-family="Helvetica,sans-Serif" font-size="11.00" fill="#000000">...</text>
<polygon fill="#ffffff" stroke="transparent" points="412.5,-625.2 412.5,-644.2 445.5,-644.2 445.5,-625.2 412.5,-625.2"/>
<polygon fill="none" stroke="#000000" points="412.5,-625.2 412.5,-644.2 445.5,-644.2 445.5,-625.2 412.5,-625.2"/>
<text text-anchor="start" x="415.5" y="-631.3" font-family="Helvetica,sans-Serif" font-size="11.00" fill="#000000">&lt; 2</text>
<polygon fill="#ffffff" stroke="transparent" points="445.5,-625.2 445.5,-644.2 489.5,-644.2 489.5,-625.2 445.5,-625.2"/>
<polygon fill="none" stroke="#000000" points="445.5,-625.2 445.5,-644.2 489.5,-644.2 489.5,-625.2 445.5,-625.2"/>
<text text-anchor="start" x="454.1105" y="-631.3" font-family="Helvetica,sans-Serif" font-size="11.00" fill="#000000">0 rows</text>
<polygon fill="#ffffff" stroke="transparent" points="489.5,-625.2 489.5,-644.2 508.5,-644.2 508.5,-625.2 489.5,-625.2"/>
<polygon fill="none" stroke="#000000" points="489.5,-625.2 489.5,-644.2 508.5,-644.2 508.5,-625.2 489.5,-625.2"/>
<text text-anchor="start" x="499.3862" y="-631.3" font-family="Helvetica,sans-Serif" font-size="11.00" fill="#000000"> &#160;</text>
</a>
</g>
</g>
<!-- event_tags&#45;&gt;events -->
<g id="edge6" class="edge">
<title>event_tags:w&#45;&gt;events:e</title>
<path fill="none" stroke="#000000" d="M398.2654,-650.6833C351.6242,-631.4288 408.8816,-508.2 343,-508.2"/>
<polygon fill="#000000" stroke="#000000" points="404.6222,-651.8071 411.8732,-656.745 408.5611,-652.5036 412.5,-653.2 412.5,-653.2 412.5,-653.2 408.5611,-652.5036 413.1268,-649.655 404.6222,-651.8071 404.6222,-651.8071"/>
<ellipse fill="none" stroke="#000000" cx="401.4711" cy="-651.25" rx="3.2" ry="3.2"/>
</g>
<!-- user_bans -->
<g id="node9" class="node">
<title>user_bans</title>
<g id="a_node9"><a xlink:href="../../tables/user_bans.html" xlink:title="user_bans" target="_top">
<polygon fill="#ffffff" stroke="transparent" points="413.5,-197.7 413.5,-302.7 507.5,-302.7 507.5,-197.7 413.5,-197.7"/>
<polygon fill="#f5f5f5" stroke="transparent" points="413.5,-279.2 413.5,-302.2 507.5,-302.2 507.5,-279.2 413.5,-279.2"/>
<polygon fill="none" stroke="#000000" points="413.5,-279.2 413.5,-302.2 507.5,-302.2 507.5,-279.2 413.5,-279.2"/>
<text text-anchor="start" x="418.3244" y="-288.3" font-family="Helvetica,sans-Serif" font-weight="bold" font-size="11.00" fill="#000000">user_bans</text>
<text text-anchor="start" x="473.0219" y="-287.3" font-family="Helvetica,sans-Serif" font-size="11.00" fill="#000000">[table]</text>
<polygon fill="none" stroke="#000000" points="413.5,-257.2 413.5,-279.2 507.5,-279.2 507.5,-257.2 413.5,-257.2"/>
<image xlink:href="../../images/primaryKeys.png" width="11px" height="12px" preserveAspectRatio="xMinYMin meet" x="418.5" y="-274.2"/>
<text text-anchor="start" x="436.5" y="-264.3" font-family="Helvetica,sans-Serif" font-size="11.00" fill="#000000">user_id</text>
<polygon fill="none" stroke="#000000" points="413.5,-235.2 413.5,-257.2 507.5,-257.2 507.5,-235.2 413.5,-235.2"/>
<image xlink:href="../../images/primaryKeys.png" width="11px" height="12px" preserveAspectRatio="xMinYMin meet" x="418.5" y="-252.2"/>
<text text-anchor="start" x="436.5" y="-242.3" font-family="Helvetica,sans-Serif" font-size="11.00" fill="#000000">chapter_id</text>
<polygon fill="none" stroke="#000000" points="413.5,-216.2 413.5,-235.2 507.5,-235.2 507.5,-216.2 413.5,-216.2"/>
<text text-anchor="start" x="416.5" y="-222.3" font-family="Helvetica,sans-Serif" font-size="11.00" fill="#000000">...</text>
<polygon fill="#ffffff" stroke="transparent" points="413.5,-197.2 413.5,-216.2 445.5,-216.2 445.5,-197.2 413.5,-197.2"/>
<polygon fill="none" stroke="#000000" points="413.5,-197.2 413.5,-216.2 445.5,-216.2 445.5,-197.2 413.5,-197.2"/>
<text text-anchor="start" x="416.5" y="-203.3" font-family="Helvetica,sans-Serif" font-size="11.00" fill="#000000">&lt; 2</text>
<polygon fill="#ffffff" stroke="transparent" points="445.5,-197.2 445.5,-216.2 489.5,-216.2 489.5,-197.2 445.5,-197.2"/>
<polygon fill="none" stroke="#000000" points="445.5,-197.2 445.5,-216.2 489.5,-216.2 489.5,-197.2 445.5,-197.2"/>
<text text-anchor="start" x="454.1105" y="-203.3" font-family="Helvetica,sans-Serif" font-size="11.00" fill="#000000">0 rows</text>
<polygon fill="#ffffff" stroke="transparent" points="489.5,-197.2 489.5,-216.2 507.5,-216.2 507.5,-197.2 489.5,-197.2"/>
<polygon fill="none" stroke="#000000" points="489.5,-197.2 489.5,-216.2 507.5,-216.2 507.5,-197.2 489.5,-197.2"/>
<text text-anchor="start" x="498.3862" y="-203.3" font-family="Helvetica,sans-Serif" font-size="11.00" fill="#000000"> &#160;</text>
</a>
</g>
</g>
<!-- user_bans&#45;&gt;users -->
<g id="edge12" class="edge">
<title>user_bans:w&#45;&gt;users:e</title>
<path fill="none" stroke="#000000" d="M399.1568,-270.4408C367.7751,-281.2179 368.0824,-327.2 327,-327.2"/>
<polygon fill="#000000" stroke="#000000" points="405.5959,-269.4349 414.0557,-271.7569 409.5479,-268.8174 413.5,-268.2 413.5,-268.2 413.5,-268.2 409.5479,-268.8174 412.9443,-264.6431 405.5959,-269.4349 405.5959,-269.4349"/>
<ellipse fill="none" stroke="#000000" cx="402.4342" cy="-269.9289" rx="3.2" ry="3.2"/>
</g>
<!-- user_bans&#45;&gt;chapters -->
<g id="edge11" class="edge">
<title>user_bans:w&#45;&gt;chapters:e</title>
<path fill="none" stroke="#000000" d="M399.0662,-246.2C310.5956,-246.2 283.2307,-246.2 188,-246.2"/>
<polygon fill="#000000" stroke="#000000" points="405.5,-246.2001 413.5,-249.8 409.5,-246.2 413.5,-246.2 413.5,-246.2 413.5,-246.2 409.5,-246.2 413.5,-242.6 405.5,-246.2001 405.5,-246.2001"/>
<ellipse fill="none" stroke="#000000" cx="402.3" cy="-246.2001" rx="3.2" ry="3.2"/>
</g>
<!-- user_chapter_roles -->
<g id="node10" class="node">
<title>user_chapter_roles</title>
<g id="a_node10"><a xlink:href="../../tables/user_chapter_roles.html" xlink:title="user_chapter_roles" target="_top">
<polygon fill="#ffffff" stroke="transparent" points="392,-49.7 392,-176.7 529,-176.7 529,-49.7 392,-49.7"/>
<polygon fill="#f5f5f5" stroke="transparent" points="392.5,-153.2 392.5,-176.2 529.5,-176.2 529.5,-153.2 392.5,-153.2"/>
<polygon fill="none" stroke="#000000" points="392.5,-153.2 392.5,-176.2 529.5,-176.2 529.5,-153.2 392.5,-153.2"/>
<text text-anchor="start" x="397.4338" y="-162.3" font-family="Helvetica,sans-Serif" font-weight="bold" font-size="11.00" fill="#000000">user_chapter_roles</text>
<text text-anchor="start" x="495.0219" y="-161.3" font-family="Helvetica,sans-Serif" font-size="11.00" fill="#000000">[table]</text>
<polygon fill="none" stroke="#000000" points="392.5,-131.2 392.5,-153.2 529.5,-153.2 529.5,-131.2 392.5,-131.2"/>
<image xlink:href="../../images/primaryKeys.png" width="11px" height="12px" preserveAspectRatio="xMinYMin meet" x="397.5" y="-148.2"/>
<text text-anchor="start" x="414.5" y="-138.3" font-family="Helvetica,sans-Serif" font-size="11.00" fill="#000000">user_id</text>
<polygon fill="none" stroke="#000000" points="392.5,-109.2 392.5,-131.2 529.5,-131.2 529.5,-109.2 392.5,-109.2"/>
<image xlink:href="../../images/primaryKeys.png" width="11px" height="12px" preserveAspectRatio="xMinYMin meet" x="397.5" y="-126.2"/>
<text text-anchor="start" x="414.5" y="-116.3" font-family="Helvetica,sans-Serif" font-size="11.00" fill="#000000">chapter_id</text>
<polygon fill="none" stroke="#000000" points="392.5,-87.2 392.5,-109.2 529.5,-109.2 529.5,-87.2 392.5,-87.2"/>
<image xlink:href="../../images/primaryKeys.png" width="11px" height="12px" preserveAspectRatio="xMinYMin meet" x="397.5" y="-104.2"/>
<text text-anchor="start" x="414.5" y="-94.3" font-family="Helvetica,sans-Serif" font-size="11.00" fill="#000000">role_name</text>
<polygon fill="none" stroke="#000000" points="392.5,-68.2 392.5,-87.2 529.5,-87.2 529.5,-68.2 392.5,-68.2"/>
<text text-anchor="start" x="395.5" y="-74.3" font-family="Helvetica,sans-Serif" font-size="11.00" fill="#000000">...</text>
<polygon fill="#ffffff" stroke="transparent" points="392.5,-49.2 392.5,-68.2 446.5,-68.2 446.5,-49.2 392.5,-49.2"/>
<polygon fill="none" stroke="#000000" points="392.5,-49.2 392.5,-68.2 446.5,-68.2 446.5,-49.2 392.5,-49.2"/>
<text text-anchor="start" x="395.5" y="-55.3" font-family="Helvetica,sans-Serif" font-size="11.00" fill="#000000">&lt; 2</text>
<polygon fill="#ffffff" stroke="transparent" points="446.5,-49.2 446.5,-68.2 500.5,-68.2 500.5,-49.2 446.5,-49.2"/>
<polygon fill="none" stroke="#000000" points="446.5,-49.2 446.5,-68.2 500.5,-68.2 500.5,-49.2 446.5,-49.2"/>
<text text-anchor="start" x="465.1105" y="-55.3" font-family="Helvetica,sans-Serif" font-size="11.00" fill="#000000">0 rows</text>
<polygon fill="#ffffff" stroke="transparent" points="500.5,-49.2 500.5,-68.2 529.5,-68.2 529.5,-49.2 500.5,-49.2"/>
<polygon fill="none" stroke="#000000" points="500.5,-49.2 500.5,-68.2 529.5,-68.2 529.5,-49.2 500.5,-49.2"/>
<text text-anchor="start" x="520.3862" y="-55.3" font-family="Helvetica,sans-Serif" font-size="11.00" fill="#000000"> &#160;</text>
</a>
</g>
</g>
<!-- user_chapter_roles&#45;&gt;users -->
<g id="edge14" class="edge">
<title>user_chapter_roles:w&#45;&gt;users:e</title>
<path fill="none" stroke="#000000" d="M377.9743,-144.4065C318.5055,-165.2791 408.6017,-327.2 327,-327.2"/>
<polygon fill="#000000" stroke="#000000" points="384.5907,-143.4015 393.0407,-145.7592 388.5454,-142.8007 392.5,-142.2 392.5,-142.2 392.5,-142.2 388.5454,-142.8007 391.9593,-138.6408 384.5907,-143.4015 384.5907,-143.4015"/>
<ellipse fill="none" stroke="#000000" cx="381.427" cy="-143.8821" rx="3.2" ry="3.2"/>
</g>
<!-- user_chapter_roles&#45;&gt;chapters -->
<g id="edge13" class="edge">
<title>user_chapter_roles:w&#45;&gt;chapters:e</title>
<path fill="none" stroke="#000000" d="M377.9446,-121.0379C286.3416,-131.9701 289.6473,-246.2 188,-246.2"/>
<polygon fill="#000000" stroke="#000000" points="384.5132,-120.6598 392.7069,-123.794 388.5066,-120.4299 392.5,-120.2 392.5,-120.2 392.5,-120.2 388.5066,-120.4299 392.2931,-116.606 384.5132,-120.6598 384.5132,-120.6598"/>
<ellipse fill="none" stroke="#000000" cx="381.3185" cy="-120.8438" rx="3.2" ry="3.2"/>
</g>
<!-- user_event_roles -->
<g id="node11" class="node">
<title>user_event_roles</title>
<g id="a_node11"><a xlink:href="../../tables/user_event_roles.html" xlink:title="user_event_roles" target="_top">
<polygon fill="#ffffff" stroke="transparent" points="397,-351.7 397,-412.7 524,-412.7 524,-351.7 397,-351.7"/>
<polygon fill="#f5f5f5" stroke="transparent" points="397.5,-389.2 397.5,-412.2 524.5,-412.2 524.5,-389.2 397.5,-389.2"/>
<polygon fill="none" stroke="#000000" points="397.5,-389.2 397.5,-412.2 524.5,-412.2 524.5,-389.2 397.5,-389.2"/>
<text text-anchor="start" x="402.3222" y="-398.3" font-family="Helvetica,sans-Serif" font-weight="bold" font-size="11.00" fill="#000000">user_event_roles</text>
<text text-anchor="start" x="490.0219" y="-397.3" font-family="Helvetica,sans-Serif" font-size="11.00" fill="#000000">[table]</text>
<polygon fill="none" stroke="#000000" points="397.5,-370.2 397.5,-389.2 524.5,-389.2 524.5,-370.2 397.5,-370.2"/>
<text text-anchor="start" x="400.5" y="-376.3" font-family="Helvetica,sans-Serif" font-size="11.00" fill="#000000">...</text>
<polygon fill="#ffffff" stroke="transparent" points="397.5,-351.2 397.5,-370.2 446.5,-370.2 446.5,-351.2 397.5,-351.2"/>
<polygon fill="none" stroke="#000000" points="397.5,-351.2 397.5,-370.2 446.5,-370.2 446.5,-351.2 397.5,-351.2"/>
<text text-anchor="start" x="400.5" y="-357.3" font-family="Helvetica,sans-Serif" font-size="11.00" fill="#000000">&lt; 2</text>
<polygon fill="#ffffff" stroke="transparent" points="446.5,-351.2 446.5,-370.2 498.5,-370.2 498.5,-351.2 446.5,-351.2"/>
<polygon fill="none" stroke="#000000" points="446.5,-351.2 446.5,-370.2 498.5,-370.2 498.5,-351.2 446.5,-351.2"/>
<text text-anchor="start" x="463.1105" y="-357.3" font-family="Helvetica,sans-Serif" font-size="11.00" fill="#000000">0 rows</text>
<polygon fill="#ffffff" stroke="transparent" points="498.5,-351.2 498.5,-370.2 524.5,-370.2 524.5,-351.2 498.5,-351.2"/>
<polygon fill="none" stroke="#000000" points="498.5,-351.2 498.5,-370.2 524.5,-370.2 524.5,-351.2 498.5,-351.2"/>
<text text-anchor="start" x="515.3862" y="-357.3" font-family="Helvetica,sans-Serif" font-size="11.00" fill="#000000"> &#160;</text>
</a>
</g>
</g>
<!-- user_event_roles&#45;&gt;events -->
<g id="edge15" class="edge">
<title>user_event_roles:w&#45;&gt;events:e</title>
<path fill="none" stroke="#000000" d="M383.2634,-382.3888C347.2191,-402.2537 399.4051,-508.2 343,-508.2"/>
<polygon fill="#000000" stroke="#000000" points="389.6934,-380.9486 398.2869,-382.713 393.5967,-380.0743 397.5,-379.2 397.5,-379.2 397.5,-379.2 393.5967,-380.0743 396.7131,-375.687 389.6934,-380.9486 389.6934,-380.9486"/>
<ellipse fill="none" stroke="#000000" cx="386.5708" cy="-381.648" rx="3.2" ry="3.2"/>
</g>
<!-- user_event_roles&#45;&gt;users -->
<g id="edge16" class="edge">
<title>user_event_roles:w&#45;&gt;users:e</title>
<path fill="none" stroke="#000000" d="M383.2404,-376.2553C359.7283,-365.255 360.3073,-327.2 327,-327.2"/>
<polygon fill="#000000" stroke="#000000" points="389.6653,-377.582 396.7719,-382.7256 393.5827,-378.391 397.5,-379.2 397.5,-379.2 397.5,-379.2 393.5827,-378.391 398.2281,-375.6744 389.6653,-377.582 389.6653,-377.582"/>
<ellipse fill="none" stroke="#000000" cx="386.5314" cy="-376.9348" rx="3.2" ry="3.2"/>
</g>
</g>
</svg>
