<?xml version="1.0" encoding="UTF-8" standalone="no"?>
<!DOCTYPE svg PUBLIC "-//W3C//DTD SVG 1.1//EN"
 "http://www.w3.org/Graphics/SVG/1.1/DTD/svg11.dtd">
<!-- Generated by graphviz version 2.40.1 (20161225.0304)
 -->
<!-- Title: oneDegreeRelationshipsDiagram Pages: 1 -->
<svg width="392pt" height="485pt"
 viewBox="0.00 0.00 392.00 484.70" xmlns="http://www.w3.org/2000/svg" xmlns:xlink="http://www.w3.org/1999/xlink">
<g id="graph0" class="graph" transform="scale(1 1) rotate(0) translate(4 480.7)">
<title>oneDegreeRelationshipsDiagram</title>
<polygon fill="#ffffff" stroke="transparent" points="-4,4 -4,-480.7 388,-480.7 388,4 -4,4"/>
<text text-anchor="middle" x="72.4936" y="-7.3" font-family="Helvetica,sans-Serif" font-size="11.00" fill="#000000">Generated by SchemaSpy</text>
<!-- events -->
<g id="node1" class="node">
<title>events</title>
<g id="a_node1"><a xlink:href="../../tables/events.html" xlink:title="events" target="_top">
<polygon fill="#ffffff" stroke="transparent" points="255.5,-345.7 255.5,-472.7 359.5,-472.7 359.5,-345.7 255.5,-345.7"/>
<polygon fill="#f5f5f5" stroke="transparent" points="255.5,-449.2 255.5,-472.2 359.5,-472.2 359.5,-449.2 255.5,-449.2"/>
<polygon fill="none" stroke="#000000" points="255.5,-449.2 255.5,-472.2 359.5,-472.2 359.5,-449.2 255.5,-449.2"/>
<text text-anchor="start" x="260.5" y="-458.3" font-family="Helvetica,sans-Serif" font-weight="bold" font-size="11.00" fill="#000000">events</text>
<text text-anchor="start" x="324.5437" y="-457.3" font-family="Helvetica,sans-Serif" font-size="11.00" fill="#000000">[table]</text>
<polygon fill="none" stroke="#000000" points="255.5,-427.2 255.5,-449.2 359.5,-449.2 359.5,-427.2 255.5,-427.2"/>
<image xlink:href="../../images/primaryKeys.png" width="11px" height="12px" preserveAspectRatio="xMinYMin meet" x="260.5" y="-444.2"/>
<text text-anchor="start" x="275.5" y="-434.3" font-family="Helvetica,sans-Serif" font-size="11.00" fill="#000000">id</text>
<polygon fill="none" stroke="#000000" points="255.5,-405.2 255.5,-427.2 359.5,-427.2 359.5,-405.2 255.5,-405.2"/>
<image xlink:href="../../images/foreignKeys.png" width="11px" height="12px" preserveAspectRatio="xMinYMin meet" x="260.5" y="-422.2"/>
<text text-anchor="start" x="275.5" y="-412.3" font-family="Helvetica,sans-Serif" font-size="11.00" fill="#000000">venue_id</text>
<polygon fill="none" stroke="#000000" points="255.5,-383.2 255.5,-405.2 359.5,-405.2 359.5,-383.2 255.5,-383.2"/>
<image xlink:href="../../images/foreignKeys.png" width="11px" height="12px" preserveAspectRatio="xMinYMin meet" x="260.5" y="-400.2"/>
<text text-anchor="start" x="275.5" y="-390.3" font-family="Helvetica,sans-Serif" font-size="11.00" fill="#000000">chapter_id</text>
<polygon fill="none" stroke="#000000" points="255.5,-364.2 255.5,-383.2 359.5,-383.2 359.5,-364.2 255.5,-364.2"/>
<text text-anchor="start" x="258.5" y="-370.3" font-family="Helvetica,sans-Serif" font-size="11.00" fill="#000000">...</text>
<polygon fill="#ffffff" stroke="transparent" points="255.5,-345.2 255.5,-364.2 288.5,-364.2 288.5,-345.2 255.5,-345.2"/>
<polygon fill="none" stroke="#000000" points="255.5,-345.2 255.5,-364.2 288.5,-364.2 288.5,-345.2 255.5,-345.2"/>
<text text-anchor="start" x="258.5" y="-351.3" font-family="Helvetica,sans-Serif" font-size="11.00" fill="#000000">&lt; 2</text>
<polygon fill="#ffffff" stroke="transparent" points="288.5,-345.2 288.5,-364.2 332.5,-364.2 332.5,-345.2 288.5,-345.2"/>
<polygon fill="none" stroke="#000000" points="288.5,-345.2 288.5,-364.2 332.5,-364.2 332.5,-345.2 288.5,-345.2"/>
<text text-anchor="start" x="297.1105" y="-351.3" font-family="Helvetica,sans-Serif" font-size="11.00" fill="#000000">0 rows</text>
<polygon fill="#ffffff" stroke="transparent" points="332.5,-345.2 332.5,-364.2 359.5,-364.2 359.5,-345.2 332.5,-345.2"/>
<polygon fill="none" stroke="#000000" points="332.5,-345.2 332.5,-364.2 359.5,-364.2 359.5,-345.2 332.5,-345.2"/>
<text text-anchor="start" x="340.9053" y="-351.3" font-family="Helvetica,sans-Serif" font-size="11.00" fill="#000000">5 &gt;</text>
</a>
</g>
</g>
<!-- chapters -->
<g id="node2" class="node">
<title>chapters</title>
<g id="a_node2"><a xlink:href="../../tables/chapters.html" xlink:title="chapters" target="_top">
<polygon fill="#ffffff" stroke="transparent" points="8,-38.2 8,-348.2 190,-348.2 190,-38.2 8,-38.2"/>
<polygon fill="#f5f5f5" stroke="transparent" points="10,-323.2 10,-346.2 188,-346.2 188,-323.2 10,-323.2"/>
<polygon fill="none" stroke="#000000" points="10,-323.2 10,-346.2 188,-346.2 188,-323.2 10,-323.2"/>
<text text-anchor="start" x="15" y="-332.3" font-family="Helvetica,sans-Serif" font-weight="bold" font-size="11.00" fill="#000000">chapters</text>
<text text-anchor="start" x="153.0437" y="-331.3" font-family="Helvetica,sans-Serif" font-size="11.00" fill="#000000">[table]</text>
<polygon fill="none" stroke="#000000" points="10,-301.2 10,-323.2 98,-323.2 98,-301.2 10,-301.2"/>
<text text-anchor="start" x="30" y="-308.3" font-family="Helvetica,sans-Serif" font-size="11.00" fill="#000000">created_at</text>
<polygon fill="none" stroke="#000000" points="98,-301.2 98,-323.2 188,-323.2 188,-301.2 98,-301.2"/>
<text text-anchor="start" x="101" y="-308.9" font-family="Helvetica,sans-Serif" font-size="11.00" fill="#000000">timestamp[26,3]</text>
<polygon fill="none" stroke="#000000" points="10,-279.2 10,-301.2 98,-301.2 98,-279.2 10,-279.2"/>
<text text-anchor="start" x="30" y="-286.3" font-family="Helvetica,sans-Serif" font-size="11.00" fill="#000000">updated_at</text>
<polygon fill="none" stroke="#000000" points="98,-279.2 98,-301.2 188,-301.2 188,-279.2 98,-279.2"/>
<text text-anchor="start" x="101" y="-286.9" font-family="Helvetica,sans-Serif" font-size="11.00" fill="#000000">timestamp[26,3]</text>
<polygon fill="none" stroke="#000000" points="10,-257.2 10,-279.2 98,-279.2 98,-257.2 10,-257.2"/>
<image xlink:href="../../images/primaryKeys.png" width="11px" height="12px" preserveAspectRatio="xMinYMin meet" x="15" y="-274.2"/>
<text text-anchor="start" x="30" y="-264.3" font-family="Helvetica,sans-Serif" font-size="11.00" fill="#000000">id</text>
<polygon fill="none" stroke="#000000" points="98,-257.2 98,-279.2 188,-279.2 188,-257.2 98,-257.2"/>
<text text-anchor="start" x="101" y="-264.9" font-family="Helvetica,sans-Serif" font-size="11.00" fill="#000000">serial[10]</text>
<polygon fill="none" stroke="#000000" points="10,-235.2 10,-257.2 98,-257.2 98,-235.2 10,-235.2"/>
<text text-anchor="start" x="30" y="-242.3" font-family="Helvetica,sans-Serif" font-size="11.00" fill="#000000">name</text>
<polygon fill="none" stroke="#000000" points="98,-235.2 98,-257.2 188,-257.2 188,-235.2 98,-235.2"/>
<text text-anchor="start" x="100.5042" y="-242.9" font-family="Helvetica,sans-Serif" font-size="11.00" fill="#000000">text[2147483647]</text>
<polygon fill="none" stroke="#000000" points="10,-213.2 10,-235.2 98,-235.2 98,-213.2 10,-213.2"/>
<text text-anchor="start" x="30" y="-220.3" font-family="Helvetica,sans-Serif" font-size="11.00" fill="#000000">description</text>
<polygon fill="none" stroke="#000000" points="98,-213.2 98,-235.2 188,-235.2 188,-213.2 98,-213.2"/>
<text text-anchor="start" x="100.5042" y="-220.9" font-family="Helvetica,sans-Serif" font-size="11.00" fill="#000000">text[2147483647]</text>
<polygon fill="none" stroke="#000000" points="10,-191.2 10,-213.2 98,-213.2 98,-191.2 10,-191.2"/>
<text text-anchor="start" x="30" y="-198.3" font-family="Helvetica,sans-Serif" font-size="11.00" fill="#000000">category</text>
<polygon fill="none" stroke="#000000" points="98,-191.2 98,-213.2 188,-213.2 188,-191.2 98,-191.2"/>
<text text-anchor="start" x="100.5042" y="-198.9" font-family="Helvetica,sans-Serif" font-size="11.00" fill="#000000">text[2147483647]</text>
<polygon fill="none" stroke="#000000" points="10,-169.2 10,-191.2 98,-191.2 98,-169.2 10,-169.2"/>
<text text-anchor="start" x="30" y="-176.3" font-family="Helvetica,sans-Serif" font-size="11.00" fill="#000000">city</text>
<polygon fill="none" stroke="#000000" points="98,-169.2 98,-191.2 188,-191.2 188,-169.2 98,-169.2"/>
<text text-anchor="start" x="100.5042" y="-176.9" font-family="Helvetica,sans-Serif" font-size="11.00" fill="#000000">text[2147483647]</text>
<polygon fill="none" stroke="#000000" points="10,-147.2 10,-169.2 98,-169.2 98,-147.2 10,-147.2"/>
<text text-anchor="start" x="30" y="-154.3" font-family="Helvetica,sans-Serif" font-size="11.00" fill="#000000">region</text>
<polygon fill="none" stroke="#000000" points="98,-147.2 98,-169.2 188,-169.2 188,-147.2 98,-147.2"/>
<text text-anchor="start" x="100.5042" y="-154.9" font-family="Helvetica,sans-Serif" font-size="11.00" fill="#000000">text[2147483647]</text>
<polygon fill="none" stroke="#000000" points="10,-125.2 10,-147.2 98,-147.2 98,-125.2 10,-125.2"/>
<text text-anchor="start" x="30" y="-132.3" font-family="Helvetica,sans-Serif" font-size="11.00" fill="#000000">country</text>
<polygon fill="none" stroke="#000000" points="98,-125.2 98,-147.2 188,-147.2 188,-125.2 98,-125.2"/>
<text text-anchor="start" x="100.5042" y="-132.9" font-family="Helvetica,sans-Serif" font-size="11.00" fill="#000000">text[2147483647]</text>
<polygon fill="none" stroke="#000000" points="10,-103.2 10,-125.2 98,-125.2 98,-103.2 10,-103.2"/>
<text text-anchor="start" x="30" y="-110.3" font-family="Helvetica,sans-Serif" font-size="11.00" fill="#000000">imageUrl</text>
<polygon fill="none" stroke="#000000" points="98,-103.2 98,-125.2 188,-125.2 188,-103.2 98,-103.2"/>
<text text-anchor="start" x="100.5042" y="-110.9" font-family="Helvetica,sans-Serif" font-size="11.00" fill="#000000">text[2147483647]</text>
<polygon fill="none" stroke="#000000" points="10,-81.2 10,-103.2 98,-103.2 98,-81.2 10,-81.2"/>
<text text-anchor="start" x="30" y="-88.3" font-family="Helvetica,sans-Serif" font-size="11.00" fill="#000000">chatUrl</text>
<polygon fill="none" stroke="#000000" points="98,-81.2 98,-103.2 188,-103.2 188,-81.2 98,-81.2"/>
<text text-anchor="start" x="100.5042" y="-88.9" font-family="Helvetica,sans-Serif" font-size="11.00" fill="#000000">text[2147483647]</text>
<polygon fill="none" stroke="#000000" points="10,-59.2 10,-81.2 98,-81.2 98,-59.2 10,-59.2"/>
<text text-anchor="start" x="30" y="-66.3" font-family="Helvetica,sans-Serif" font-size="11.00" fill="#000000">creator_id</text>
<polygon fill="none" stroke="#000000" points="98,-59.2 98,-81.2 188,-81.2 188,-59.2 98,-59.2"/>
<text text-anchor="start" x="101" y="-66.9" font-family="Helvetica,sans-Serif" font-size="11.00" fill="#000000">int4[10]</text>
<polygon fill="#ffffff" stroke="transparent" points="10,-40.2 10,-59.2 45,-59.2 45,-40.2 10,-40.2"/>
<polygon fill="none" stroke="#000000" points="10,-40.2 10,-59.2 45,-59.2 45,-40.2 10,-40.2"/>
<text text-anchor="start" x="13" y="-46.3" font-family="Helvetica,sans-Serif" font-size="11.00" fill="#000000">&lt; 0</text>
<polygon fill="#ffffff" stroke="transparent" points="45,-40.2 45,-59.2 98,-59.2 98,-40.2 45,-40.2"/>
<polygon fill="none" stroke="#000000" points="45,-40.2 45,-59.2 98,-59.2 98,-40.2 45,-40.2"/>
<text text-anchor="start" x="62.6105" y="-46.3" font-family="Helvetica,sans-Serif" font-size="11.00" fill="#000000">0 rows</text>
<polygon fill="#ffffff" stroke="transparent" points="98,-40.2 98,-59.2 188,-59.2 188,-40.2 98,-40.2"/>
<polygon fill="none" stroke="#000000" points="98,-40.2 98,-59.2 188,-59.2 188,-40.2 98,-40.2"/>
<text text-anchor="start" x="169.4053" y="-46.3" font-family="Helvetica,sans-Serif" font-size="11.00" fill="#000000">3 &gt;</text>
<polygon fill="none" stroke="#000000" stroke-width="2" points="9,-39.2 9,-347.2 189,-347.2 189,-39.2 9,-39.2"/>
</a>
</g>
</g>
<!-- events&#45;&gt;chapters -->
<g id="edge1" class="edge">
<title>events:w&#45;&gt;chapters:e</title>
<path fill="none" stroke="#000000" d="M241.179,-391.3316C201.6789,-372.5764 245.8218,-268.2 188,-268.2"/>
<polygon fill="#000000" stroke="#000000" points="247.6558,-392.6288 254.793,-397.7299 251.5779,-393.4144 255.5,-394.2 255.5,-394.2 255.5,-394.2 251.5779,-393.4144 256.207,-390.6701 247.6558,-392.6288 247.6558,-392.6288"/>
<ellipse fill="none" stroke="#000000" cx="244.5181" cy="-392.0003" rx="3.2" ry="3.2"/>
</g>
<!-- user_bans -->
<g id="node3" class="node">
<title>user_bans</title>
<g id="a_node3"><a xlink:href="../../tables/user_bans.html" xlink:title="user_bans" target="_top">
<polygon fill="#ffffff" stroke="transparent" points="260.5,-219.7 260.5,-324.7 354.5,-324.7 354.5,-219.7 260.5,-219.7"/>
<polygon fill="#f5f5f5" stroke="transparent" points="260.5,-301.2 260.5,-324.2 354.5,-324.2 354.5,-301.2 260.5,-301.2"/>
<polygon fill="none" stroke="#000000" points="260.5,-301.2 260.5,-324.2 354.5,-324.2 354.5,-301.2 260.5,-301.2"/>
<text text-anchor="start" x="265.3244" y="-310.3" font-family="Helvetica,sans-Serif" font-weight="bold" font-size="11.00" fill="#000000">user_bans</text>
<text text-anchor="start" x="320.0219" y="-309.3" font-family="Helvetica,sans-Serif" font-size="11.00" fill="#000000">[table]</text>
<polygon fill="none" stroke="#000000" points="260.5,-279.2 260.5,-301.2 354.5,-301.2 354.5,-279.2 260.5,-279.2"/>
<image xlink:href="../../images/primaryKeys.png" width="11px" height="12px" preserveAspectRatio="xMinYMin meet" x="265.5" y="-296.2"/>
<text text-anchor="start" x="283.5" y="-286.3" font-family="Helvetica,sans-Serif" font-size="11.00" fill="#000000">user_id</text>
<polygon fill="none" stroke="#000000" points="260.5,-257.2 260.5,-279.2 354.5,-279.2 354.5,-257.2 260.5,-257.2"/>
<image xlink:href="../../images/primaryKeys.png" width="11px" height="12px" preserveAspectRatio="xMinYMin meet" x="265.5" y="-274.2"/>
<text text-anchor="start" x="283.5" y="-264.3" font-family="Helvetica,sans-Serif" font-size="11.00" fill="#000000">chapter_id</text>
<polygon fill="none" stroke="#000000" points="260.5,-238.2 260.5,-257.2 354.5,-257.2 354.5,-238.2 260.5,-238.2"/>
<text text-anchor="start" x="263.5" y="-244.3" font-family="Helvetica,sans-Serif" font-size="11.00" fill="#000000">...</text>
<polygon fill="#ffffff" stroke="transparent" points="260.5,-219.2 260.5,-238.2 292.5,-238.2 292.5,-219.2 260.5,-219.2"/>
<polygon fill="none" stroke="#000000" points="260.5,-219.2 260.5,-238.2 292.5,-238.2 292.5,-219.2 260.5,-219.2"/>
<text text-anchor="start" x="263.5" y="-225.3" font-family="Helvetica,sans-Serif" font-size="11.00" fill="#000000">&lt; 2</text>
<polygon fill="#ffffff" stroke="transparent" points="292.5,-219.2 292.5,-238.2 336.5,-238.2 336.5,-219.2 292.5,-219.2"/>
<polygon fill="none" stroke="#000000" points="292.5,-219.2 292.5,-238.2 336.5,-238.2 336.5,-219.2 292.5,-219.2"/>
<text text-anchor="start" x="301.1105" y="-225.3" font-family="Helvetica,sans-Serif" font-size="11.00" fill="#000000">0 rows</text>
<polygon fill="#ffffff" stroke="transparent" points="336.5,-219.2 336.5,-238.2 354.5,-238.2 354.5,-219.2 336.5,-219.2"/>
<polygon fill="none" stroke="#000000" points="336.5,-219.2 336.5,-238.2 354.5,-238.2 354.5,-219.2 336.5,-219.2"/>
<text text-anchor="start" x="345.3862" y="-225.3" font-family="Helvetica,sans-Serif" font-size="11.00" fill="#000000"> &#160;</text>
</a>
</g>
</g>
<!-- user_bans&#45;&gt;chapters -->
<g id="edge2" class="edge">
<title>user_bans:w&#45;&gt;chapters:e</title>
<path fill="none" stroke="#000000" d="M246.0794,-268.2C224.8898,-268.2 214.8099,-268.2 188,-268.2"/>
<polygon fill="#000000" stroke="#000000" points="252.5,-268.2001 260.5,-271.8 256.5,-268.2 260.5,-268.2 260.5,-268.2 260.5,-268.2 256.5,-268.2 260.5,-264.6 252.5,-268.2001 252.5,-268.2001"/>
<ellipse fill="none" stroke="#000000" cx="249.3" cy="-268.2001" rx="3.2" ry="3.2"/>
</g>
<!-- user_chapter_roles -->
<g id="node4" class="node">
<title>user_chapter_roles</title>
<g id="a_node4"><a xlink:href="../../tables/user_chapter_roles.html" xlink:title="user_chapter_roles" target="_top">
<polygon fill="#ffffff" stroke="transparent" points="239,-71.7 239,-198.7 376,-198.7 376,-71.7 239,-71.7"/>
<polygon fill="#f5f5f5" stroke="transparent" points="239.5,-175.2 239.5,-198.2 376.5,-198.2 376.5,-175.2 239.5,-175.2"/>
<polygon fill="none" stroke="#000000" points="239.5,-175.2 239.5,-198.2 376.5,-198.2 376.5,-175.2 239.5,-175.2"/>
<text text-anchor="start" x="244.4338" y="-184.3" font-family="Helvetica,sans-Serif" font-weight="bold" font-size="11.00" fill="#000000">user_chapter_roles</text>
<text text-anchor="start" x="342.0219" y="-183.3" font-family="Helvetica,sans-Serif" font-size="11.00" fill="#000000">[table]</text>
<polygon fill="none" stroke="#000000" points="239.5,-153.2 239.5,-175.2 376.5,-175.2 376.5,-153.2 239.5,-153.2"/>
<image xlink:href="../../images/primaryKeys.png" width="11px" height="12px" preserveAspectRatio="xMinYMin meet" x="244.5" y="-170.2"/>
<text text-anchor="start" x="261.5" y="-160.3" font-family="Helvetica,sans-Serif" font-size="11.00" fill="#000000">user_id</text>
<polygon fill="none" stroke="#000000" points="239.5,-131.2 239.5,-153.2 376.5,-153.2 376.5,-131.2 239.5,-131.2"/>
<image xlink:href="../../images/primaryKeys.png" width="11px" height="12px" preserveAspectRatio="xMinYMin meet" x="244.5" y="-148.2"/>
<text text-anchor="start" x="261.5" y="-138.3" font-family="Helvetica,sans-Serif" font-size="11.00" fill="#000000">chapter_id</text>
<polygon fill="none" stroke="#000000" points="239.5,-109.2 239.5,-131.2 376.5,-131.2 376.5,-109.2 239.5,-109.2"/>
<image xlink:href="../../images/primaryKeys.png" width="11px" height="12px" preserveAspectRatio="xMinYMin meet" x="244.5" y="-126.2"/>
<text text-anchor="start" x="261.5" y="-116.3" font-family="Helvetica,sans-Serif" font-size="11.00" fill="#000000">role_name</text>
<polygon fill="none" stroke="#000000" points="239.5,-90.2 239.5,-109.2 376.5,-109.2 376.5,-90.2 239.5,-90.2"/>
<text text-anchor="start" x="242.5" y="-96.3" font-family="Helvetica,sans-Serif" font-size="11.00" fill="#000000">...</text>
<polygon fill="#ffffff" stroke="transparent" points="239.5,-71.2 239.5,-90.2 293.5,-90.2 293.5,-71.2 239.5,-71.2"/>
<polygon fill="none" stroke="#000000" points="239.5,-71.2 239.5,-90.2 293.5,-90.2 293.5,-71.2 239.5,-71.2"/>
<text text-anchor="start" x="242.5" y="-77.3" font-family="Helvetica,sans-Serif" font-size="11.00" fill="#000000">&lt; 2</text>
<polygon fill="#ffffff" stroke="transparent" points="293.5,-71.2 293.5,-90.2 347.5,-90.2 347.5,-71.2 293.5,-71.2"/>
<polygon fill="none" stroke="#000000" points="293.5,-71.2 293.5,-90.2 347.5,-90.2 347.5,-71.2 293.5,-71.2"/>
<text text-anchor="start" x="312.1105" y="-77.3" font-family="Helvetica,sans-Serif" font-size="11.00" fill="#000000">0 rows</text>
<polygon fill="#ffffff" stroke="transparent" points="347.5,-71.2 347.5,-90.2 376.5,-90.2 376.5,-71.2 347.5,-71.2"/>
<polygon fill="none" stroke="#000000" points="347.5,-71.2 347.5,-90.2 376.5,-90.2 376.5,-71.2 347.5,-71.2"/>
<text text-anchor="start" x="367.3862" y="-77.3" font-family="Helvetica,sans-Serif" font-size="11.00" fill="#000000"> &#160;</text>
</a>
</g>
</g>
<!-- user_chapter_roles&#45;&gt;chapters -->
<g id="edge3" class="edge">
<title>user_chapter_roles:w&#45;&gt;chapters:e</title>
<path fill="none" stroke="#000000" d="M225.2532,-145.5702C191.3363,-165.6077 242.5892,-268.2 188,-268.2"/>
<polygon fill="#000000" stroke="#000000" points="231.7149,-144.0417 240.3288,-145.7033 235.6074,-143.1208 239.5,-142.2 239.5,-142.2 239.5,-142.2 235.6074,-143.1208 238.6712,-138.6967 231.7149,-144.0417 231.7149,-144.0417"/>
<ellipse fill="none" stroke="#000000" cx="228.6008" cy="-144.7783" rx="3.2" ry="3.2"/>
</g>
</g>
</svg>
