<?xml version="1.0" encoding="UTF-8" standalone="no"?>
<!DOCTYPE svg PUBLIC "-//W3C//DTD SVG 1.1//EN"
 "http://www.w3.org/Graphics/SVG/1.1/DTD/svg11.dtd">
<!-- Generated by graphviz version 2.40.1 (20161225.0304)
 -->
<!-- Title: oneDegreeRelationshipsDiagram Pages: 1 -->
<svg width="497pt" height="281pt"
 viewBox="0.00 0.00 497.00 281.20" xmlns="http://www.w3.org/2000/svg" xmlns:xlink="http://www.w3.org/1999/xlink">
<g id="graph0" class="graph" transform="scale(1 1) rotate(0) translate(4 277.2)">
<title>oneDegreeRelationshipsDiagram</title>
<polygon fill="#ffffff" stroke="transparent" points="-4,4 -4,-277.2 493,-277.2 493,4 -4,4"/>
<text text-anchor="middle" x="72.4936" y="-7.3" font-family="Helvetica,sans-Serif" font-size="11.00" fill="#000000">Generated by SchemaSpy</text>
<!-- chapter_role_permissions -->
<g id="node1" class="node">
<title>chapter_role_permissions</title>
<g id="a_node1"><a xlink:href="../../tables/chapter_role_permissions.html" xlink:title="chapter_role_permissions" target="_top">
<polygon fill="#ffffff" stroke="transparent" points="220,-128.7 220,-262.7 481,-262.7 481,-128.7 220,-128.7"/>
<polygon fill="#f5f5f5" stroke="transparent" points="222.5,-237.7 222.5,-260.7 479.5,-260.7 479.5,-237.7 222.5,-237.7"/>
<polygon fill="none" stroke="#000000" points="222.5,-237.7 222.5,-260.7 479.5,-260.7 479.5,-237.7 222.5,-237.7"/>
<text text-anchor="start" x="227.5" y="-246.3" font-family="Helvetica,sans-Serif" font-weight="bold" font-size="11.00" fill="#000000">chapter_role_permissions</text>
<text text-anchor="start" x="444.5437" y="-245.8" font-family="Helvetica,sans-Serif" font-size="11.00" fill="#000000">[table]</text>
<polygon fill="none" stroke="#000000" points="222.5,-215.7 222.5,-237.7 395.5,-237.7 395.5,-215.7 222.5,-215.7"/>
<text text-anchor="start" x="242.5" y="-222.8" font-family="Helvetica,sans-Serif" font-size="11.00" fill="#000000">created_at</text>
<polygon fill="none" stroke="#000000" points="395.5,-215.7 395.5,-237.7 479.5,-237.7 479.5,-215.7 395.5,-215.7"/>
<text text-anchor="start" x="398.3807" y="-223.4" font-family="Helvetica,sans-Serif" font-size="11.00" fill="#000000">timestamp[26,3]</text>
<polygon fill="none" stroke="#000000" points="222.5,-193.7 222.5,-215.7 395.5,-215.7 395.5,-193.7 222.5,-193.7"/>
<text text-anchor="start" x="242.5" y="-200.8" font-family="Helvetica,sans-Serif" font-size="11.00" fill="#000000">updated_at</text>
<polygon fill="none" stroke="#000000" points="395.5,-193.7 395.5,-215.7 479.5,-215.7 479.5,-193.7 395.5,-193.7"/>
<text text-anchor="start" x="398.3807" y="-201.4" font-family="Helvetica,sans-Serif" font-size="11.00" fill="#000000">timestamp[26,3]</text>
<polygon fill="none" stroke="#000000" points="222.5,-171.7 222.5,-193.7 395.5,-193.7 395.5,-171.7 222.5,-171.7"/>
<image xlink:href="../../images/primaryKeys.png" width="11px" height="12px" preserveAspectRatio="xMinYMin meet" x="227.5" y="-188.7"/>
<text text-anchor="start" x="242.5" y="-178.8" font-family="Helvetica,sans-Serif" font-size="11.00" fill="#000000">chapter_role_id</text>
<polygon fill="none" stroke="#000000" points="395.5,-171.7 395.5,-193.7 479.5,-193.7 479.5,-171.7 395.5,-171.7"/>
<text text-anchor="start" x="398.5" y="-179.4" font-family="Helvetica,sans-Serif" font-size="11.00" fill="#000000">int4[10]</text>
<polygon fill="none" stroke="#000000" points="222.5,-149.7 222.5,-171.7 395.5,-171.7 395.5,-149.7 222.5,-149.7"/>
<image xlink:href="../../images/primaryKeys.png" width="11px" height="12px" preserveAspectRatio="xMinYMin meet" x="227.5" y="-166.7"/>
<text text-anchor="start" x="242.5" y="-156.8" font-family="Helvetica,sans-Serif" font-size="11.00" fill="#000000">chapter_permissions_id</text>
<polygon fill="none" stroke="#000000" points="395.5,-149.7 395.5,-171.7 479.5,-171.7 479.5,-149.7 395.5,-149.7"/>
<text text-anchor="start" x="398.5" y="-157.4" font-family="Helvetica,sans-Serif" font-size="11.00" fill="#000000">int4[10]</text>
<polygon fill="#ffffff" stroke="transparent" points="222.5,-130.7 222.5,-149.7 300.5,-149.7 300.5,-130.7 222.5,-130.7"/>
<polygon fill="none" stroke="#000000" points="222.5,-130.7 222.5,-149.7 300.5,-149.7 300.5,-130.7 222.5,-130.7"/>
<text text-anchor="start" x="225.5" y="-136.8" font-family="Helvetica,sans-Serif" font-size="11.00" fill="#000000">&lt; 2</text>
<polygon fill="#ffffff" stroke="transparent" points="300.5,-130.7 300.5,-149.7 395.5,-149.7 395.5,-130.7 300.5,-130.7"/>
<polygon fill="none" stroke="#000000" points="300.5,-130.7 300.5,-149.7 395.5,-149.7 395.5,-130.7 300.5,-130.7"/>
<text text-anchor="start" x="360.1105" y="-136.8" font-family="Helvetica,sans-Serif" font-size="11.00" fill="#000000">0 rows</text>
<polygon fill="#ffffff" stroke="transparent" points="395.5,-130.7 395.5,-149.7 479.5,-149.7 479.5,-130.7 395.5,-130.7"/>
<polygon fill="none" stroke="#000000" points="395.5,-130.7 395.5,-149.7 479.5,-149.7 479.5,-130.7 395.5,-130.7"/>
<text text-anchor="start" x="460.9053" y="-136.8" font-family="Helvetica,sans-Serif" font-size="11.00" fill="#000000">0 &gt;</text>
<polygon fill="none" stroke="#000000" stroke-width="2" points="221,-129.7 221,-261.7 480,-261.7 480,-129.7 221,-129.7"/>
</a>
</g>
</g>
<!-- chapter_permissions -->
<g id="node2" class="node">
<title>chapter_permissions</title>
<g id="a_node2"><a xlink:href="../../tables/chapter_permissions.html" xlink:title="chapter_permissions" target="_top">
<polygon fill="#ffffff" stroke="transparent" points="8,-38.2 8,-143.2 171,-143.2 171,-38.2 8,-38.2"/>
<polygon fill="#f5f5f5" stroke="transparent" points="8.5,-119.7 8.5,-142.7 171.5,-142.7 171.5,-119.7 8.5,-119.7"/>
<polygon fill="none" stroke="#000000" points="8.5,-119.7 8.5,-142.7 171.5,-142.7 171.5,-119.7 8.5,-119.7"/>
<text text-anchor="start" x="13.5" y="-128.3" font-family="Helvetica,sans-Serif" font-weight="bold" font-size="11.00" fill="#000000">chapter_permissions</text>
<text text-anchor="start" x="137.0219" y="-127.8" font-family="Helvetica,sans-Serif" font-size="11.00" fill="#000000">[table]</text>
<polygon fill="none" stroke="#000000" points="8.5,-97.7 8.5,-119.7 171.5,-119.7 171.5,-97.7 8.5,-97.7"/>
<image xlink:href="../../images/primaryKeys.png" width="11px" height="12px" preserveAspectRatio="xMinYMin meet" x="13.5" y="-114.7"/>
<text text-anchor="start" x="37.5" y="-104.8" font-family="Helvetica,sans-Serif" font-size="11.00" fill="#000000">id</text>
<polygon fill="#ffffff" stroke="transparent" points="8.5,-75.7 8.5,-97.7 171.5,-97.7 171.5,-75.7 8.5,-75.7"/>
<polygon fill="none" stroke="#000000" points="8.5,-75.7 8.5,-97.7 171.5,-97.7 171.5,-75.7 8.5,-75.7"/>
<text text-anchor="start" x="37.5" y="-82.8" font-family="Helvetica,sans-Serif" font-size="11.00" fill="#000000">name</text>
<polygon fill="none" stroke="#000000" points="8.5,-56.7 8.5,-75.7 171.5,-75.7 171.5,-56.7 8.5,-56.7"/>
<text text-anchor="start" x="11.5" y="-62.8" font-family="Helvetica,sans-Serif" font-size="11.00" fill="#000000">...</text>
<polygon fill="#ffffff" stroke="transparent" points="8.5,-37.7 8.5,-56.7 66.5,-56.7 66.5,-37.7 8.5,-37.7"/>
<polygon fill="none" stroke="#000000" points="8.5,-37.7 8.5,-56.7 66.5,-56.7 66.5,-37.7 8.5,-37.7"/>
<text text-anchor="start" x="11.5" y="-43.8" font-family="Helvetica,sans-Serif" font-size="11.00" fill="#000000"> &#160;</text>
<polygon fill="#ffffff" stroke="transparent" points="66.5,-37.7 66.5,-56.7 127.5,-56.7 127.5,-37.7 66.5,-37.7"/>
<polygon fill="none" stroke="#000000" points="66.5,-37.7 66.5,-56.7 127.5,-56.7 127.5,-37.7 66.5,-37.7"/>
<text text-anchor="start" x="92.1105" y="-43.8" font-family="Helvetica,sans-Serif" font-size="11.00" fill="#000000">0 rows</text>
<polygon fill="#ffffff" stroke="transparent" points="127.5,-37.7 127.5,-56.7 171.5,-56.7 171.5,-37.7 127.5,-37.7"/>
<polygon fill="none" stroke="#000000" points="127.5,-37.7 127.5,-56.7 171.5,-56.7 171.5,-37.7 127.5,-37.7"/>
<text text-anchor="start" x="152.9053" y="-43.8" font-family="Helvetica,sans-Serif" font-size="11.00" fill="#000000">1 &gt;</text>
</a>
</g>
</g>
<!-- chapter_role_permissions&#45;&gt;chapter_permissions -->
<g id="edge1" class="edge">
<title>chapter_role_permissions:w&#45;&gt;chapter_permissions:e</title>
<path fill="none" stroke="#000000" d="M208.5468,-155.9012C193.661,-143.0281 197.8017,-108.7 171.5,-108.7"/>
<polygon fill="#000000" stroke="#000000" points="214.9349,-158.0982 221.3292,-164.1043 218.7175,-159.3991 222.5,-160.7 222.5,-160.7 222.5,-160.7 218.7175,-159.3991 223.6708,-157.2957 214.9349,-158.0982 214.9349,-158.0982"/>
<ellipse fill="none" stroke="#000000" cx="211.9089" cy="-157.0574" rx="3.2" ry="3.2"/>
</g>
<!-- chapter_roles -->
<g id="node3" class="node">
<title>chapter_roles</title>
<g id="a_node3"><a xlink:href="../../tables/chapter_roles.html" xlink:title="chapter_roles" target="_top">
<polygon fill="#ffffff" stroke="transparent" points="29.5,-164.2 29.5,-269.2 149.5,-269.2 149.5,-164.2 29.5,-164.2"/>
<polygon fill="#f5f5f5" stroke="transparent" points="29.5,-245.7 29.5,-268.7 149.5,-268.7 149.5,-245.7 29.5,-245.7"/>
<polygon fill="none" stroke="#000000" points="29.5,-245.7 29.5,-268.7 149.5,-268.7 149.5,-245.7 29.5,-245.7"/>
<text text-anchor="start" x="34.5" y="-254.3" font-family="Helvetica,sans-Serif" font-weight="bold" font-size="11.00" fill="#000000">chapter_roles</text>
<text text-anchor="start" x="115.0219" y="-253.8" font-family="Helvetica,sans-Serif" font-size="11.00" fill="#000000">[table]</text>
<polygon fill="none" stroke="#000000" points="29.5,-223.7 29.5,-245.7 149.5,-245.7 149.5,-223.7 29.5,-223.7"/>
<image xlink:href="../../images/primaryKeys.png" width="11px" height="12px" preserveAspectRatio="xMinYMin meet" x="34.5" y="-240.7"/>
<text text-anchor="start" x="58.5" y="-230.8" font-family="Helvetica,sans-Serif" font-size="11.00" fill="#000000">id</text>
<polygon fill="#ffffff" stroke="transparent" points="29.5,-201.7 29.5,-223.7 149.5,-223.7 149.5,-201.7 29.5,-201.7"/>
<polygon fill="none" stroke="#000000" points="29.5,-201.7 29.5,-223.7 149.5,-223.7 149.5,-201.7 29.5,-201.7"/>
<text text-anchor="start" x="58.5" y="-208.8" font-family="Helvetica,sans-Serif" font-size="11.00" fill="#000000">name</text>
<polygon fill="none" stroke="#000000" points="29.5,-182.7 29.5,-201.7 149.5,-201.7 149.5,-182.7 29.5,-182.7"/>
<text text-anchor="start" x="32.5" y="-188.8" font-family="Helvetica,sans-Serif" font-size="11.00" fill="#000000">...</text>
<polygon fill="#ffffff" stroke="transparent" points="29.5,-163.7 29.5,-182.7 65.5,-182.7 65.5,-163.7 29.5,-163.7"/>
<polygon fill="none" stroke="#000000" points="29.5,-163.7 29.5,-182.7 65.5,-182.7 65.5,-163.7 29.5,-163.7"/>
<text text-anchor="start" x="32.5" y="-169.8" font-family="Helvetica,sans-Serif" font-size="11.00" fill="#000000"> &#160;</text>
<polygon fill="#ffffff" stroke="transparent" points="65.5,-163.7 65.5,-182.7 115.5,-182.7 115.5,-163.7 65.5,-163.7"/>
<polygon fill="none" stroke="#000000" points="65.5,-163.7 65.5,-182.7 115.5,-182.7 115.5,-163.7 65.5,-163.7"/>
<text text-anchor="start" x="80.1105" y="-169.8" font-family="Helvetica,sans-Serif" font-size="11.00" fill="#000000">0 rows</text>
<polygon fill="#ffffff" stroke="transparent" points="115.5,-163.7 115.5,-182.7 149.5,-182.7 149.5,-163.7 115.5,-163.7"/>
<polygon fill="none" stroke="#000000" points="115.5,-163.7 115.5,-182.7 149.5,-182.7 149.5,-163.7 115.5,-163.7"/>
<text text-anchor="start" x="130.9053" y="-169.8" font-family="Helvetica,sans-Serif" font-size="11.00" fill="#000000">2 &gt;</text>
</a>
</g>
</g>
<!-- chapter_role_permissions&#45;&gt;chapter_roles -->
<g id="edge2" class="edge">
<title>chapter_role_permissions:w&#45;&gt;chapter_roles:e</title>
<path fill="none" stroke="#000000" d="M208.1951,-185.4957C183.6217,-196.2967 183.7325,-234.7 149.5,-234.7"/>
<polygon fill="#000000" stroke="#000000" points="214.6485,-184.2345 223.1905,-186.2332 218.5743,-183.4673 222.5,-182.7 222.5,-182.7 222.5,-182.7 218.5743,-183.4673 221.8095,-179.1668 214.6485,-184.2345 214.6485,-184.2345"/>
<ellipse fill="none" stroke="#000000" cx="211.508" cy="-184.8483" rx="3.2" ry="3.2"/>
</g>
</g>
</svg>
