<?xml version="1.0" encoding="UTF-8" standalone="no"?>
<!DOCTYPE svg PUBLIC "-//W3C//DTD SVG 1.1//EN"
 "http://www.w3.org/Graphics/SVG/1.1/DTD/svg11.dtd">
<!-- Generated by graphviz version 2.40.1 (20161225.0304)
 -->
<!-- Title: twoDegreesRelationshipsDiagram Pages: 1 -->
<svg width="545pt" height="649pt"
 viewBox="0.00 0.00 545.00 648.70" xmlns="http://www.w3.org/2000/svg" xmlns:xlink="http://www.w3.org/1999/xlink">
<g id="graph0" class="graph" transform="scale(1 1) rotate(0) translate(4 644.7)">
<title>twoDegreesRelationshipsDiagram</title>
<polygon fill="#ffffff" stroke="transparent" points="-4,4 -4,-644.7 541,-644.7 541,4 -4,4"/>
<text text-anchor="middle" x="72.4936" y="-7.3" font-family="Helvetica,sans-Serif" font-size="11.00" fill="#000000">Generated by SchemaSpy</text>
<!-- event_sponsors -->
<g id="node1" class="node">
<title>event_sponsors</title>
<g id="a_node1"><a xlink:href="../../tables/event_sponsors.html" xlink:title="event_sponsors" target="_top">
<polygon fill="#ffffff" stroke="transparent" points="400.5,-575.7 400.5,-636.7 520.5,-636.7 520.5,-575.7 400.5,-575.7"/>
<polygon fill="#f5f5f5" stroke="transparent" points="400.5,-613.2 400.5,-636.2 520.5,-636.2 520.5,-613.2 400.5,-613.2"/>
<polygon fill="none" stroke="#000000" points="400.5,-613.2 400.5,-636.2 520.5,-636.2 520.5,-613.2 400.5,-613.2"/>
<text text-anchor="start" x="405.181" y="-622.3" font-family="Helvetica,sans-Serif" font-weight="bold" font-size="11.00" fill="#000000">event_sponsors</text>
<text text-anchor="start" x="486.0219" y="-621.3" font-family="Helvetica,sans-Serif" font-size="11.00" fill="#000000">[table]</text>
<polygon fill="none" stroke="#000000" points="400.5,-594.2 400.5,-613.2 520.5,-613.2 520.5,-594.2 400.5,-594.2"/>
<text text-anchor="start" x="403.5" y="-600.3" font-family="Helvetica,sans-Serif" font-size="11.00" fill="#000000">...</text>
<polygon fill="#ffffff" stroke="transparent" points="400.5,-575.2 400.5,-594.2 445.5,-594.2 445.5,-575.2 400.5,-575.2"/>
<polygon fill="none" stroke="#000000" points="400.5,-575.2 400.5,-594.2 445.5,-594.2 445.5,-575.2 400.5,-575.2"/>
<text text-anchor="start" x="403.5" y="-581.3" font-family="Helvetica,sans-Serif" font-size="11.00" fill="#000000">&lt; 2</text>
<polygon fill="#ffffff" stroke="transparent" points="445.5,-575.2 445.5,-594.2 495.5,-594.2 495.5,-575.2 445.5,-575.2"/>
<polygon fill="none" stroke="#000000" points="445.5,-575.2 445.5,-594.2 495.5,-594.2 495.5,-575.2 445.5,-575.2"/>
<text text-anchor="start" x="460.1105" y="-581.3" font-family="Helvetica,sans-Serif" font-size="11.00" fill="#000000">0 rows</text>
<polygon fill="#ffffff" stroke="transparent" points="495.5,-575.2 495.5,-594.2 520.5,-594.2 520.5,-575.2 495.5,-575.2"/>
<polygon fill="none" stroke="#000000" points="495.5,-575.2 495.5,-594.2 520.5,-594.2 520.5,-575.2 495.5,-575.2"/>
<text text-anchor="start" x="511.3862" y="-581.3" font-family="Helvetica,sans-Serif" font-size="11.00" fill="#000000"> &#160;</text>
</a>
</g>
</g>
<!-- events -->
<g id="node2" class="node">
<title>events</title>
<g id="a_node2"><a xlink:href="../../tables/events.html" xlink:title="events" target="_top">
<polygon fill="#ffffff" stroke="transparent" points="239,-352.7 239,-479.7 343,-479.7 343,-352.7 239,-352.7"/>
<polygon fill="#f5f5f5" stroke="transparent" points="239,-456.2 239,-479.2 343,-479.2 343,-456.2 239,-456.2"/>
<polygon fill="none" stroke="#000000" points="239,-456.2 239,-479.2 343,-479.2 343,-456.2 239,-456.2"/>
<text text-anchor="start" x="244" y="-465.3" font-family="Helvetica,sans-Serif" font-weight="bold" font-size="11.00" fill="#000000">events</text>
<text text-anchor="start" x="308.0437" y="-464.3" font-family="Helvetica,sans-Serif" font-size="11.00" fill="#000000">[table]</text>
<polygon fill="none" stroke="#000000" points="239,-434.2 239,-456.2 343,-456.2 343,-434.2 239,-434.2"/>
<image xlink:href="../../images/primaryKeys.png" width="11px" height="12px" preserveAspectRatio="xMinYMin meet" x="244" y="-451.2"/>
<text text-anchor="start" x="259" y="-441.3" font-family="Helvetica,sans-Serif" font-size="11.00" fill="#000000">id</text>
<polygon fill="none" stroke="#000000" points="239,-412.2 239,-434.2 343,-434.2 343,-412.2 239,-412.2"/>
<image xlink:href="../../images/foreignKeys.png" width="11px" height="12px" preserveAspectRatio="xMinYMin meet" x="244" y="-429.2"/>
<text text-anchor="start" x="259" y="-419.3" font-family="Helvetica,sans-Serif" font-size="11.00" fill="#000000">venue_id</text>
<polygon fill="none" stroke="#000000" points="239,-390.2 239,-412.2 343,-412.2 343,-390.2 239,-390.2"/>
<image xlink:href="../../images/foreignKeys.png" width="11px" height="12px" preserveAspectRatio="xMinYMin meet" x="244" y="-407.2"/>
<text text-anchor="start" x="259" y="-397.3" font-family="Helvetica,sans-Serif" font-size="11.00" fill="#000000">chapter_id</text>
<polygon fill="none" stroke="#000000" points="239,-371.2 239,-390.2 343,-390.2 343,-371.2 239,-371.2"/>
<text text-anchor="start" x="242" y="-377.3" font-family="Helvetica,sans-Serif" font-size="11.00" fill="#000000">...</text>
<polygon fill="#ffffff" stroke="transparent" points="239,-352.2 239,-371.2 272,-371.2 272,-352.2 239,-352.2"/>
<polygon fill="none" stroke="#000000" points="239,-352.2 239,-371.2 272,-371.2 272,-352.2 239,-352.2"/>
<text text-anchor="start" x="242" y="-358.3" font-family="Helvetica,sans-Serif" font-size="11.00" fill="#000000">&lt; 2</text>
<polygon fill="#ffffff" stroke="transparent" points="272,-352.2 272,-371.2 316,-371.2 316,-352.2 272,-352.2"/>
<polygon fill="none" stroke="#000000" points="272,-352.2 272,-371.2 316,-371.2 316,-352.2 272,-352.2"/>
<text text-anchor="start" x="280.6105" y="-358.3" font-family="Helvetica,sans-Serif" font-size="11.00" fill="#000000">0 rows</text>
<polygon fill="#ffffff" stroke="transparent" points="316,-352.2 316,-371.2 343,-371.2 343,-352.2 316,-352.2"/>
<polygon fill="none" stroke="#000000" points="316,-352.2 316,-371.2 343,-371.2 343,-352.2 316,-352.2"/>
<text text-anchor="start" x="324.4053" y="-358.3" font-family="Helvetica,sans-Serif" font-size="11.00" fill="#000000">4 &gt;</text>
</a>
</g>
</g>
<!-- event_sponsors&#45;&gt;events -->
<g id="edge1" class="edge">
<title>event_sponsors:w&#45;&gt;events:e</title>
<path fill="none" stroke="#000000" d="M386.1776,-600.5894C338.8139,-580.0464 412.0357,-445.2 343,-445.2"/>
<polygon fill="#000000" stroke="#000000" points="392.6297,-601.7654 399.8544,-606.7416 396.5648,-602.4827 400.5,-603.2 400.5,-603.2 400.5,-603.2 396.5648,-602.4827 401.1456,-599.6584 392.6297,-601.7654 392.6297,-601.7654"/>
<ellipse fill="none" stroke="#000000" cx="389.4815" cy="-601.1916" rx="3.2" ry="3.2"/>
</g>
<!-- chapters -->
<g id="node3" class="node">
<title>chapters</title>
<g id="a_node3"><a xlink:href="../../tables/chapters.html" xlink:title="chapters" target="_top">
<polygon fill="#ffffff" stroke="transparent" points="8,-38.2 8,-326.2 190,-326.2 190,-38.2 8,-38.2"/>
<polygon fill="#f5f5f5" stroke="transparent" points="10,-301.2 10,-324.2 188,-324.2 188,-301.2 10,-301.2"/>
<polygon fill="none" stroke="#000000" points="10,-301.2 10,-324.2 188,-324.2 188,-301.2 10,-301.2"/>
<text text-anchor="start" x="15" y="-310.3" font-family="Helvetica,sans-Serif" font-weight="bold" font-size="11.00" fill="#000000">chapters</text>
<text text-anchor="start" x="153.0437" y="-309.3" font-family="Helvetica,sans-Serif" font-size="11.00" fill="#000000">[table]</text>
<polygon fill="none" stroke="#000000" points="10,-279.2 10,-301.2 98,-301.2 98,-279.2 10,-279.2"/>
<text text-anchor="start" x="30" y="-286.3" font-family="Helvetica,sans-Serif" font-size="11.00" fill="#000000">created_at</text>
<polygon fill="none" stroke="#000000" points="98,-279.2 98,-301.2 188,-301.2 188,-279.2 98,-279.2"/>
<text text-anchor="start" x="101" y="-286.9" font-family="Helvetica,sans-Serif" font-size="11.00" fill="#000000">timestamp[26,3]</text>
<polygon fill="none" stroke="#000000" points="10,-257.2 10,-279.2 98,-279.2 98,-257.2 10,-257.2"/>
<text text-anchor="start" x="30" y="-264.3" font-family="Helvetica,sans-Serif" font-size="11.00" fill="#000000">updated_at</text>
<polygon fill="none" stroke="#000000" points="98,-257.2 98,-279.2 188,-279.2 188,-257.2 98,-257.2"/>
<text text-anchor="start" x="101" y="-264.9" font-family="Helvetica,sans-Serif" font-size="11.00" fill="#000000">timestamp[26,3]</text>
<polygon fill="none" stroke="#000000" points="10,-235.2 10,-257.2 98,-257.2 98,-235.2 10,-235.2"/>
<image xlink:href="../../images/primaryKeys.png" width="11px" height="12px" preserveAspectRatio="xMinYMin meet" x="15" y="-252.2"/>
<text text-anchor="start" x="30" y="-242.3" font-family="Helvetica,sans-Serif" font-size="11.00" fill="#000000">id</text>
<polygon fill="none" stroke="#000000" points="98,-235.2 98,-257.2 188,-257.2 188,-235.2 98,-235.2"/>
<text text-anchor="start" x="101" y="-242.9" font-family="Helvetica,sans-Serif" font-size="11.00" fill="#000000">serial[10]</text>
<polygon fill="none" stroke="#000000" points="10,-213.2 10,-235.2 98,-235.2 98,-213.2 10,-213.2"/>
<text text-anchor="start" x="30" y="-220.3" font-family="Helvetica,sans-Serif" font-size="11.00" fill="#000000">name</text>
<polygon fill="none" stroke="#000000" points="98,-213.2 98,-235.2 188,-235.2 188,-213.2 98,-213.2"/>
<text text-anchor="start" x="100.5042" y="-220.9" font-family="Helvetica,sans-Serif" font-size="11.00" fill="#000000">text[2147483647]</text>
<polygon fill="none" stroke="#000000" points="10,-191.2 10,-213.2 98,-213.2 98,-191.2 10,-191.2"/>
<text text-anchor="start" x="30" y="-198.3" font-family="Helvetica,sans-Serif" font-size="11.00" fill="#000000">description</text>
<polygon fill="none" stroke="#000000" points="98,-191.2 98,-213.2 188,-213.2 188,-191.2 98,-191.2"/>
<text text-anchor="start" x="100.5042" y="-198.9" font-family="Helvetica,sans-Serif" font-size="11.00" fill="#000000">text[2147483647]</text>
<polygon fill="none" stroke="#000000" points="10,-169.2 10,-191.2 98,-191.2 98,-169.2 10,-169.2"/>
<text text-anchor="start" x="30" y="-176.3" font-family="Helvetica,sans-Serif" font-size="11.00" fill="#000000">category</text>
<polygon fill="none" stroke="#000000" points="98,-169.2 98,-191.2 188,-191.2 188,-169.2 98,-169.2"/>
<text text-anchor="start" x="100.5042" y="-176.9" font-family="Helvetica,sans-Serif" font-size="11.00" fill="#000000">text[2147483647]</text>
<polygon fill="none" stroke="#000000" points="10,-147.2 10,-169.2 98,-169.2 98,-147.2 10,-147.2"/>
<text text-anchor="start" x="30" y="-154.3" font-family="Helvetica,sans-Serif" font-size="11.00" fill="#000000">city</text>
<polygon fill="none" stroke="#000000" points="98,-147.2 98,-169.2 188,-169.2 188,-147.2 98,-147.2"/>
<text text-anchor="start" x="100.5042" y="-154.9" font-family="Helvetica,sans-Serif" font-size="11.00" fill="#000000">text[2147483647]</text>
<polygon fill="none" stroke="#000000" points="10,-125.2 10,-147.2 98,-147.2 98,-125.2 10,-125.2"/>
<text text-anchor="start" x="30" y="-132.3" font-family="Helvetica,sans-Serif" font-size="11.00" fill="#000000">region</text>
<polygon fill="none" stroke="#000000" points="98,-125.2 98,-147.2 188,-147.2 188,-125.2 98,-125.2"/>
<text text-anchor="start" x="100.5042" y="-132.9" font-family="Helvetica,sans-Serif" font-size="11.00" fill="#000000">text[2147483647]</text>
<polygon fill="none" stroke="#000000" points="10,-103.2 10,-125.2 98,-125.2 98,-103.2 10,-103.2"/>
<text text-anchor="start" x="30" y="-110.3" font-family="Helvetica,sans-Serif" font-size="11.00" fill="#000000">country</text>
<polygon fill="none" stroke="#000000" points="98,-103.2 98,-125.2 188,-125.2 188,-103.2 98,-103.2"/>
<text text-anchor="start" x="100.5042" y="-110.9" font-family="Helvetica,sans-Serif" font-size="11.00" fill="#000000">text[2147483647]</text>
<polygon fill="none" stroke="#000000" points="10,-81.2 10,-103.2 98,-103.2 98,-81.2 10,-81.2"/>
<text text-anchor="start" x="30" y="-88.3" font-family="Helvetica,sans-Serif" font-size="11.00" fill="#000000">imageUrl</text>
<polygon fill="none" stroke="#000000" points="98,-81.2 98,-103.2 188,-103.2 188,-81.2 98,-81.2"/>
<text text-anchor="start" x="100.5042" y="-88.9" font-family="Helvetica,sans-Serif" font-size="11.00" fill="#000000">text[2147483647]</text>
<polygon fill="none" stroke="#000000" points="10,-59.2 10,-81.2 98,-81.2 98,-59.2 10,-59.2"/>
<text text-anchor="start" x="30" y="-66.3" font-family="Helvetica,sans-Serif" font-size="11.00" fill="#000000">creator_id</text>
<polygon fill="none" stroke="#000000" points="98,-59.2 98,-81.2 188,-81.2 188,-59.2 98,-59.2"/>
<text text-anchor="start" x="101" y="-66.9" font-family="Helvetica,sans-Serif" font-size="11.00" fill="#000000">int4[10]</text>
<polygon fill="#ffffff" stroke="transparent" points="10,-40.2 10,-59.2 45,-59.2 45,-40.2 10,-40.2"/>
<polygon fill="none" stroke="#000000" points="10,-40.2 10,-59.2 45,-59.2 45,-40.2 10,-40.2"/>
<text text-anchor="start" x="13" y="-46.3" font-family="Helvetica,sans-Serif" font-size="11.00" fill="#000000">&lt; 0</text>
<polygon fill="#ffffff" stroke="transparent" points="45,-40.2 45,-59.2 98,-59.2 98,-40.2 45,-40.2"/>
<polygon fill="none" stroke="#000000" points="45,-40.2 45,-59.2 98,-59.2 98,-40.2 45,-40.2"/>
<text text-anchor="start" x="62.6105" y="-46.3" font-family="Helvetica,sans-Serif" font-size="11.00" fill="#000000">0 rows</text>
<polygon fill="#ffffff" stroke="transparent" points="98,-40.2 98,-59.2 188,-59.2 188,-40.2 98,-40.2"/>
<polygon fill="none" stroke="#000000" points="98,-40.2 98,-59.2 188,-59.2 188,-40.2 98,-40.2"/>
<text text-anchor="start" x="169.4053" y="-46.3" font-family="Helvetica,sans-Serif" font-size="11.00" fill="#000000">3 &gt;</text>
<polygon fill="none" stroke="#000000" stroke-width="2" points="9,-39.2 9,-325.2 189,-325.2 189,-39.2 9,-39.2"/>
</a>
</g>
</g>
<!-- events&#45;&gt;chapters -->
<g id="edge2" class="edge">
<title>events:w&#45;&gt;chapters:e</title>
<path fill="none" stroke="#000000" d="M224.611,-398.3774C180.4716,-377.3697 254.7147,-246.2 188,-246.2"/>
<polygon fill="#000000" stroke="#000000" points="231.1496,-399.66 238.307,-404.7327 235.0748,-400.43 239,-401.2 239,-401.2 239,-401.2 235.0748,-400.43 239.693,-397.6673 231.1496,-399.66 231.1496,-399.66"/>
<ellipse fill="none" stroke="#000000" cx="228.0095" cy="-399.044" rx="3.2" ry="3.2"/>
</g>
<!-- venues -->
<g id="node4" class="node">
<title>venues</title>
<g id="a_node4"><a xlink:href="../../tables/venues.html" xlink:title="venues" target="_top">
<polygon fill="#ffffff" stroke="transparent" points="60,-395.7 60,-456.7 138,-456.7 138,-395.7 60,-395.7"/>
<polygon fill="#f5f5f5" stroke="transparent" points="60,-433.2 60,-456.2 138,-456.2 138,-433.2 60,-433.2"/>
<polygon fill="none" stroke="#000000" points="60,-433.2 60,-456.2 138,-456.2 138,-433.2 60,-433.2"/>
<text text-anchor="start" x="64.7702" y="-442.3" font-family="Helvetica,sans-Serif" font-weight="bold" font-size="11.00" fill="#000000">venues</text>
<text text-anchor="start" x="103.5219" y="-441.3" font-family="Helvetica,sans-Serif" font-size="11.00" fill="#000000">[table]</text>
<polygon fill="none" stroke="#000000" points="60,-414.2 60,-433.2 138,-433.2 138,-414.2 60,-414.2"/>
<text text-anchor="start" x="63" y="-420.3" font-family="Helvetica,sans-Serif" font-size="11.00" fill="#000000">...</text>
<polygon fill="#ffffff" stroke="transparent" points="60,-395.2 60,-414.2 75,-414.2 75,-395.2 60,-395.2"/>
<polygon fill="none" stroke="#000000" points="60,-395.2 60,-414.2 75,-414.2 75,-395.2 60,-395.2"/>
<text text-anchor="start" x="63" y="-401.3" font-family="Helvetica,sans-Serif" font-size="11.00" fill="#000000"> &#160;</text>
<polygon fill="#ffffff" stroke="transparent" points="75,-395.2 75,-414.2 115,-414.2 115,-395.2 75,-395.2"/>
<polygon fill="none" stroke="#000000" points="75,-395.2 75,-414.2 115,-414.2 115,-395.2 75,-395.2"/>
<text text-anchor="start" x="79.6105" y="-401.3" font-family="Helvetica,sans-Serif" font-size="11.00" fill="#000000">0 rows</text>
<polygon fill="#ffffff" stroke="transparent" points="115,-395.2 115,-414.2 138,-414.2 138,-395.2 115,-395.2"/>
<polygon fill="none" stroke="#000000" points="115,-395.2 115,-414.2 138,-414.2 138,-395.2 115,-395.2"/>
<text text-anchor="start" x="119.4053" y="-401.3" font-family="Helvetica,sans-Serif" font-size="11.00" fill="#000000">1 &gt;</text>
</a>
</g>
</g>
<!-- events&#45;&gt;venues -->
<g id="edge3" class="edge">
<title>events:w&#45;&gt;venues:e</title>
<path fill="none" stroke="#000000" d="M224.4974,-423.2C191.0186,-423.2 177.6285,-423.2 138,-423.2"/>
<polygon fill="#000000" stroke="#000000" points="231,-423.2001 239,-426.8 235,-423.2 239,-423.2 239,-423.2 239,-423.2 235,-423.2 239,-419.6 231,-423.2001 231,-423.2001"/>
<ellipse fill="none" stroke="#000000" cx="227.8" cy="-423.2001" rx="3.2" ry="3.2"/>
</g>
<!-- rsvps -->
<g id="node5" class="node">
<title>rsvps</title>
<g id="a_node5"><a xlink:href="../../tables/rsvps.html" xlink:title="rsvps" target="_top">
<polygon fill="#ffffff" stroke="transparent" points="425,-411.7 425,-472.7 496,-472.7 496,-411.7 425,-411.7"/>
<polygon fill="#f5f5f5" stroke="transparent" points="425.5,-449.2 425.5,-472.2 496.5,-472.2 496.5,-449.2 425.5,-449.2"/>
<polygon fill="none" stroke="#000000" points="425.5,-449.2 425.5,-472.2 496.5,-472.2 496.5,-449.2 425.5,-449.2"/>
<text text-anchor="start" x="430.5" y="-458.3" font-family="Helvetica,sans-Serif" font-weight="bold" font-size="11.00" fill="#000000">rsvps</text>
<text text-anchor="start" x="461.5437" y="-457.3" font-family="Helvetica,sans-Serif" font-size="11.00" fill="#000000">[table]</text>
<polygon fill="none" stroke="#000000" points="425.5,-430.2 425.5,-449.2 496.5,-449.2 496.5,-430.2 425.5,-430.2"/>
<text text-anchor="start" x="428.5" y="-436.3" font-family="Helvetica,sans-Serif" font-size="11.00" fill="#000000">...</text>
<polygon fill="#ffffff" stroke="transparent" points="425.5,-411.2 425.5,-430.2 446.5,-430.2 446.5,-411.2 425.5,-411.2"/>
<polygon fill="none" stroke="#000000" points="425.5,-411.2 425.5,-430.2 446.5,-430.2 446.5,-411.2 425.5,-411.2"/>
<text text-anchor="start" x="428.2027" y="-417.3" font-family="Helvetica,sans-Serif" font-size="11.00" fill="#000000">&lt; 2</text>
<polygon fill="#ffffff" stroke="transparent" points="446.5,-411.2 446.5,-430.2 484.5,-430.2 484.5,-411.2 446.5,-411.2"/>
<polygon fill="none" stroke="#000000" points="446.5,-411.2 446.5,-430.2 484.5,-430.2 484.5,-411.2 446.5,-411.2"/>
<text text-anchor="start" x="449.3053" y="-417.3" font-family="Helvetica,sans-Serif" font-size="11.00" fill="#000000">0 rows</text>
<polygon fill="#ffffff" stroke="transparent" points="484.5,-411.2 484.5,-430.2 496.5,-430.2 496.5,-411.2 484.5,-411.2"/>
<polygon fill="none" stroke="#000000" points="484.5,-411.2 484.5,-430.2 496.5,-430.2 496.5,-411.2 484.5,-411.2"/>
<text text-anchor="start" x="487.4431" y="-417.3" font-family="Helvetica,sans-Serif" font-size="11.00" fill="#000000"> &#160;</text>
</a>
</g>
</g>
<!-- rsvps&#45;&gt;events -->
<g id="edge4" class="edge">
<title>rsvps:w&#45;&gt;events:e</title>
<path fill="none" stroke="#000000" d="M410.7839,-439.5574C385.4603,-440.849 374.3064,-445.2 343,-445.2"/>
<polygon fill="#000000" stroke="#000000" points="417.5024,-439.3943 425.5874,-442.7989 421.5012,-439.2971 425.5,-439.2 425.5,-439.2 425.5,-439.2 421.5012,-439.2971 425.4126,-435.6011 417.5024,-439.3943 417.5024,-439.3943"/>
<ellipse fill="none" stroke="#000000" cx="414.3033" cy="-439.472" rx="3.2" ry="3.2"/>
</g>
<!-- users -->
<g id="node6" class="node">
<title>users</title>
<g id="a_node6"><a xlink:href="../../tables/users.html" xlink:title="users" target="_top">
<polygon fill="#ffffff" stroke="transparent" points="255.5,-270.7 255.5,-331.7 326.5,-331.7 326.5,-270.7 255.5,-270.7"/>
<polygon fill="#f5f5f5" stroke="transparent" points="256,-308.2 256,-331.2 327,-331.2 327,-308.2 256,-308.2"/>
<polygon fill="none" stroke="#000000" points="256,-308.2 256,-331.2 327,-331.2 327,-308.2 256,-308.2"/>
<text text-anchor="start" x="261" y="-317.3" font-family="Helvetica,sans-Serif" font-weight="bold" font-size="11.00" fill="#000000">users</text>
<text text-anchor="start" x="292.0437" y="-316.3" font-family="Helvetica,sans-Serif" font-size="11.00" fill="#000000">[table]</text>
<polygon fill="none" stroke="#000000" points="256,-289.2 256,-308.2 327,-308.2 327,-289.2 256,-289.2"/>
<text text-anchor="start" x="259" y="-295.3" font-family="Helvetica,sans-Serif" font-size="11.00" fill="#000000">...</text>
<polygon fill="#ffffff" stroke="transparent" points="256,-270.2 256,-289.2 268,-289.2 268,-270.2 256,-270.2"/>
<polygon fill="none" stroke="#000000" points="256,-270.2 256,-289.2 268,-289.2 268,-270.2 256,-270.2"/>
<text text-anchor="start" x="258.9431" y="-276.3" font-family="Helvetica,sans-Serif" font-size="11.00" fill="#000000"> &#160;</text>
<polygon fill="#ffffff" stroke="transparent" points="268,-270.2 268,-289.2 306,-289.2 306,-270.2 268,-270.2"/>
<polygon fill="none" stroke="#000000" points="268,-270.2 268,-289.2 306,-289.2 306,-270.2 268,-270.2"/>
<text text-anchor="start" x="270.8053" y="-276.3" font-family="Helvetica,sans-Serif" font-size="11.00" fill="#000000">0 rows</text>
<polygon fill="#ffffff" stroke="transparent" points="306,-270.2 306,-289.2 327,-289.2 327,-270.2 306,-270.2"/>
<polygon fill="none" stroke="#000000" points="306,-270.2 306,-289.2 327,-289.2 327,-270.2 306,-270.2"/>
<text text-anchor="start" x="308.7027" y="-276.3" font-family="Helvetica,sans-Serif" font-size="11.00" fill="#000000">5 &gt;</text>
</a>
</g>
</g>
<!-- rsvps&#45;&gt;users -->
<g id="edge5" class="edge">
<title>rsvps:w&#45;&gt;users:e</title>
<path fill="none" stroke="#000000" d="M411.2247,-437.2068C356.0579,-420.069 398.0685,-298.2 327,-298.2"/>
<polygon fill="#000000" stroke="#000000" points="417.5769,-438.0937 425.0022,-442.7654 421.5384,-438.6468 425.5,-439.2 425.5,-439.2 425.5,-439.2 421.5384,-438.6468 425.9978,-435.6346 417.5769,-438.0937 417.5769,-438.0937"/>
<ellipse fill="none" stroke="#000000" cx="414.4076" cy="-437.6511" rx="3.2" ry="3.2"/>
</g>
<!-- tags -->
<g id="node7" class="node">
<title>tags</title>
<g id="a_node7"><a xlink:href="../../tables/tags.html" xlink:title="tags" target="_top">
<polygon fill="#ffffff" stroke="transparent" points="425,-493.7 425,-554.7 496,-554.7 496,-493.7 425,-493.7"/>
<polygon fill="#f5f5f5" stroke="transparent" points="425.5,-531.2 425.5,-554.2 496.5,-554.2 496.5,-531.2 425.5,-531.2"/>
<polygon fill="none" stroke="#000000" points="425.5,-531.2 425.5,-554.2 496.5,-554.2 496.5,-531.2 425.5,-531.2"/>
<text text-anchor="start" x="430.5" y="-540.3" font-family="Helvetica,sans-Serif" font-weight="bold" font-size="11.00" fill="#000000">tags</text>
<text text-anchor="start" x="461.5437" y="-539.3" font-family="Helvetica,sans-Serif" font-size="11.00" fill="#000000">[table]</text>
<polygon fill="none" stroke="#000000" points="425.5,-512.2 425.5,-531.2 496.5,-531.2 496.5,-512.2 425.5,-512.2"/>
<text text-anchor="start" x="428.5" y="-518.3" font-family="Helvetica,sans-Serif" font-size="11.00" fill="#000000">...</text>
<polygon fill="#ffffff" stroke="transparent" points="425.5,-493.2 425.5,-512.2 446.5,-512.2 446.5,-493.2 425.5,-493.2"/>
<polygon fill="none" stroke="#000000" points="425.5,-493.2 425.5,-512.2 446.5,-512.2 446.5,-493.2 425.5,-493.2"/>
<text text-anchor="start" x="428.2027" y="-499.3" font-family="Helvetica,sans-Serif" font-size="11.00" fill="#000000">&lt; 1</text>
<polygon fill="#ffffff" stroke="transparent" points="446.5,-493.2 446.5,-512.2 484.5,-512.2 484.5,-493.2 446.5,-493.2"/>
<polygon fill="none" stroke="#000000" points="446.5,-493.2 446.5,-512.2 484.5,-512.2 484.5,-493.2 446.5,-493.2"/>
<text text-anchor="start" x="449.3053" y="-499.3" font-family="Helvetica,sans-Serif" font-size="11.00" fill="#000000">0 rows</text>
<polygon fill="#ffffff" stroke="transparent" points="484.5,-493.2 484.5,-512.2 496.5,-512.2 496.5,-493.2 484.5,-493.2"/>
<polygon fill="none" stroke="#000000" points="484.5,-493.2 484.5,-512.2 496.5,-512.2 496.5,-493.2 484.5,-493.2"/>
<text text-anchor="start" x="487.4431" y="-499.3" font-family="Helvetica,sans-Serif" font-size="11.00" fill="#000000"> &#160;</text>
</a>
</g>
</g>
<!-- tags&#45;&gt;events -->
<g id="edge6" class="edge">
<title>tags:w&#45;&gt;events:e</title>
<path fill="none" stroke="#000000" d="M411.3944,-517.8525C400.2222,-511.2424 397.9387,-496.0408 384,-483.2 365.7269,-466.3662 367.8452,-445.2 343,-445.2"/>
<polygon fill="#000000" stroke="#000000" points="417.7162,-519.3527 424.6687,-524.7027 421.6081,-520.2764 425.5,-521.2 425.5,-521.2 425.5,-521.2 421.6081,-520.2764 426.3313,-517.6973 417.7162,-519.3527 417.7162,-519.3527"/>
<ellipse fill="none" stroke="#000000" cx="414.6027" cy="-518.6138" rx="3.2" ry="3.2"/>
</g>
<!-- user_bans -->
<g id="node8" class="node">
<title>user_bans</title>
<g id="a_node8"><a xlink:href="../../tables/user_bans.html" xlink:title="user_bans" target="_top">
<polygon fill="#ffffff" stroke="transparent" points="413.5,-203.7 413.5,-308.7 507.5,-308.7 507.5,-203.7 413.5,-203.7"/>
<polygon fill="#f5f5f5" stroke="transparent" points="413.5,-285.2 413.5,-308.2 507.5,-308.2 507.5,-285.2 413.5,-285.2"/>
<polygon fill="none" stroke="#000000" points="413.5,-285.2 413.5,-308.2 507.5,-308.2 507.5,-285.2 413.5,-285.2"/>
<text text-anchor="start" x="418.3244" y="-294.3" font-family="Helvetica,sans-Serif" font-weight="bold" font-size="11.00" fill="#000000">user_bans</text>
<text text-anchor="start" x="473.0219" y="-293.3" font-family="Helvetica,sans-Serif" font-size="11.00" fill="#000000">[table]</text>
<polygon fill="none" stroke="#000000" points="413.5,-263.2 413.5,-285.2 507.5,-285.2 507.5,-263.2 413.5,-263.2"/>
<image xlink:href="../../images/primaryKeys.png" width="11px" height="12px" preserveAspectRatio="xMinYMin meet" x="418.5" y="-280.2"/>
<text text-anchor="start" x="436.5" y="-270.3" font-family="Helvetica,sans-Serif" font-size="11.00" fill="#000000">user_id</text>
<polygon fill="none" stroke="#000000" points="413.5,-241.2 413.5,-263.2 507.5,-263.2 507.5,-241.2 413.5,-241.2"/>
<image xlink:href="../../images/primaryKeys.png" width="11px" height="12px" preserveAspectRatio="xMinYMin meet" x="418.5" y="-258.2"/>
<text text-anchor="start" x="436.5" y="-248.3" font-family="Helvetica,sans-Serif" font-size="11.00" fill="#000000">chapter_id</text>
<polygon fill="none" stroke="#000000" points="413.5,-222.2 413.5,-241.2 507.5,-241.2 507.5,-222.2 413.5,-222.2"/>
<text text-anchor="start" x="416.5" y="-228.3" font-family="Helvetica,sans-Serif" font-size="11.00" fill="#000000">...</text>
<polygon fill="#ffffff" stroke="transparent" points="413.5,-203.2 413.5,-222.2 445.5,-222.2 445.5,-203.2 413.5,-203.2"/>
<polygon fill="none" stroke="#000000" points="413.5,-203.2 413.5,-222.2 445.5,-222.2 445.5,-203.2 413.5,-203.2"/>
<text text-anchor="start" x="416.5" y="-209.3" font-family="Helvetica,sans-Serif" font-size="11.00" fill="#000000">&lt; 2</text>
<polygon fill="#ffffff" stroke="transparent" points="445.5,-203.2 445.5,-222.2 489.5,-222.2 489.5,-203.2 445.5,-203.2"/>
<polygon fill="none" stroke="#000000" points="445.5,-203.2 445.5,-222.2 489.5,-222.2 489.5,-203.2 445.5,-203.2"/>
<text text-anchor="start" x="454.1105" y="-209.3" font-family="Helvetica,sans-Serif" font-size="11.00" fill="#000000">0 rows</text>
<polygon fill="#ffffff" stroke="transparent" points="489.5,-203.2 489.5,-222.2 507.5,-222.2 507.5,-203.2 489.5,-203.2"/>
<polygon fill="none" stroke="#000000" points="489.5,-203.2 489.5,-222.2 507.5,-222.2 507.5,-203.2 489.5,-203.2"/>
<text text-anchor="start" x="498.3862" y="-209.3" font-family="Helvetica,sans-Serif" font-size="11.00" fill="#000000"> &#160;</text>
</a>
</g>
</g>
<!-- user_bans&#45;&gt;chapters -->
<g id="edge7" class="edge">
<title>user_bans:w&#45;&gt;chapters:e</title>
<path fill="none" stroke="#000000" d="M399.0616,-252.1568C310.5669,-251.6172 283.2644,-246.2 188,-246.2"/>
<polygon fill="#000000" stroke="#000000" points="405.5,-252.176 413.4892,-255.8 409.5,-252.188 413.5,-252.2 413.5,-252.2 413.5,-252.2 409.5,-252.188 413.5108,-248.6 405.5,-252.176 405.5,-252.176"/>
<ellipse fill="none" stroke="#000000" cx="402.3001" cy="-252.1664" rx="3.2" ry="3.2"/>
</g>
<!-- user_bans&#45;&gt;users -->
<g id="edge8" class="edge">
<title>user_bans:w&#45;&gt;users:e</title>
<path fill="none" stroke="#000000" d="M398.8276,-275.4232C371.149,-280.3139 361.4421,-298.2 327,-298.2"/>
<polygon fill="#000000" stroke="#000000" points="405.5277,-274.8647 413.7991,-277.7876 409.5138,-274.5323 413.5,-274.2 413.5,-274.2 413.5,-274.2 409.5138,-274.5323 413.2009,-270.6124 405.5277,-274.8647 405.5277,-274.8647"/>
<ellipse fill="none" stroke="#000000" cx="402.3387" cy="-275.1305" rx="3.2" ry="3.2"/>
</g>
<!-- user_chapter_roles -->
<g id="node9" class="node">
<title>user_chapter_roles</title>
<g id="a_node9"><a xlink:href="../../tables/user_chapter_roles.html" xlink:title="user_chapter_roles" target="_top">
<polygon fill="#ffffff" stroke="transparent" points="392,-55.7 392,-182.7 529,-182.7 529,-55.7 392,-55.7"/>
<polygon fill="#f5f5f5" stroke="transparent" points="392.5,-159.2 392.5,-182.2 529.5,-182.2 529.5,-159.2 392.5,-159.2"/>
<polygon fill="none" stroke="#000000" points="392.5,-159.2 392.5,-182.2 529.5,-182.2 529.5,-159.2 392.5,-159.2"/>
<text text-anchor="start" x="397.4338" y="-168.3" font-family="Helvetica,sans-Serif" font-weight="bold" font-size="11.00" fill="#000000">user_chapter_roles</text>
<text text-anchor="start" x="495.0219" y="-167.3" font-family="Helvetica,sans-Serif" font-size="11.00" fill="#000000">[table]</text>
<polygon fill="none" stroke="#000000" points="392.5,-137.2 392.5,-159.2 529.5,-159.2 529.5,-137.2 392.5,-137.2"/>
<image xlink:href="../../images/primaryKeys.png" width="11px" height="12px" preserveAspectRatio="xMinYMin meet" x="397.5" y="-154.2"/>
<text text-anchor="start" x="414.5" y="-144.3" font-family="Helvetica,sans-Serif" font-size="11.00" fill="#000000">user_id</text>
<polygon fill="none" stroke="#000000" points="392.5,-115.2 392.5,-137.2 529.5,-137.2 529.5,-115.2 392.5,-115.2"/>
<image xlink:href="../../images/primaryKeys.png" width="11px" height="12px" preserveAspectRatio="xMinYMin meet" x="397.5" y="-132.2"/>
<text text-anchor="start" x="414.5" y="-122.3" font-family="Helvetica,sans-Serif" font-size="11.00" fill="#000000">chapter_id</text>
<polygon fill="none" stroke="#000000" points="392.5,-93.2 392.5,-115.2 529.5,-115.2 529.5,-93.2 392.5,-93.2"/>
<image xlink:href="../../images/primaryKeys.png" width="11px" height="12px" preserveAspectRatio="xMinYMin meet" x="397.5" y="-110.2"/>
<text text-anchor="start" x="414.5" y="-100.3" font-family="Helvetica,sans-Serif" font-size="11.00" fill="#000000">role_name</text>
<polygon fill="none" stroke="#000000" points="392.5,-74.2 392.5,-93.2 529.5,-93.2 529.5,-74.2 392.5,-74.2"/>
<text text-anchor="start" x="395.5" y="-80.3" font-family="Helvetica,sans-Serif" font-size="11.00" fill="#000000">...</text>
<polygon fill="#ffffff" stroke="transparent" points="392.5,-55.2 392.5,-74.2 446.5,-74.2 446.5,-55.2 392.5,-55.2"/>
<polygon fill="none" stroke="#000000" points="392.5,-55.2 392.5,-74.2 446.5,-74.2 446.5,-55.2 392.5,-55.2"/>
<text text-anchor="start" x="395.5" y="-61.3" font-family="Helvetica,sans-Serif" font-size="11.00" fill="#000000">&lt; 2</text>
<polygon fill="#ffffff" stroke="transparent" points="446.5,-55.2 446.5,-74.2 500.5,-74.2 500.5,-55.2 446.5,-55.2"/>
<polygon fill="none" stroke="#000000" points="446.5,-55.2 446.5,-74.2 500.5,-74.2 500.5,-55.2 446.5,-55.2"/>
<text text-anchor="start" x="465.1105" y="-61.3" font-family="Helvetica,sans-Serif" font-size="11.00" fill="#000000">0 rows</text>
<polygon fill="#ffffff" stroke="transparent" points="500.5,-55.2 500.5,-74.2 529.5,-74.2 529.5,-55.2 500.5,-55.2"/>
<polygon fill="none" stroke="#000000" points="500.5,-55.2 500.5,-74.2 529.5,-74.2 529.5,-55.2 500.5,-55.2"/>
<text text-anchor="start" x="520.3862" y="-61.3" font-family="Helvetica,sans-Serif" font-size="11.00" fill="#000000"> &#160;</text>
</a>
</g>
</g>
<!-- user_chapter_roles&#45;&gt;chapters -->
<g id="edge9" class="edge">
<title>user_chapter_roles:w&#45;&gt;chapters:e</title>
<path fill="none" stroke="#000000" d="M378.297,-128.597C323.488,-145.5098 236.2655,-246.2 188,-246.2"/>
<polygon fill="#000000" stroke="#000000" points="384.6116,-127.5314 393.0991,-129.7498 388.5558,-126.8657 392.5,-126.2 392.5,-126.2 392.5,-126.2 388.5558,-126.8657 391.9009,-122.6502 384.6116,-127.5314 384.6116,-127.5314"/>
<ellipse fill="none" stroke="#000000" cx="381.4562" cy="-128.0639" rx="3.2" ry="3.2"/>
</g>
<!-- user_chapter_roles&#45;&gt;users -->
<g id="edge10" class="edge">
<title>user_chapter_roles:w&#45;&gt;users:e</title>
<path fill="none" stroke="#000000" d="M378.1013,-150.8035C331.3209,-170.722 394.0622,-298.2 327,-298.2"/>
<polygon fill="#000000" stroke="#000000" points="384.6277,-149.6235 393.1406,-151.7426 388.5638,-148.9117 392.5,-148.2 392.5,-148.2 392.5,-148.2 388.5638,-148.9117 391.8594,-144.6574 384.6277,-149.6235 384.6277,-149.6235"/>
<ellipse fill="none" stroke="#000000" cx="381.4787" cy="-150.1929" rx="3.2" ry="3.2"/>
</g>
<!-- user_event_roles -->
<g id="node10" class="node">
<title>user_event_roles</title>
<g id="a_node10"><a xlink:href="../../tables/user_event_roles.html" xlink:title="user_event_roles" target="_top">
<polygon fill="#ffffff" stroke="transparent" points="397,-329.7 397,-390.7 524,-390.7 524,-329.7 397,-329.7"/>
<polygon fill="#f5f5f5" stroke="transparent" points="397.5,-367.2 397.5,-390.2 524.5,-390.2 524.5,-367.2 397.5,-367.2"/>
<polygon fill="none" stroke="#000000" points="397.5,-367.2 397.5,-390.2 524.5,-390.2 524.5,-367.2 397.5,-367.2"/>
<text text-anchor="start" x="402.3222" y="-376.3" font-family="Helvetica,sans-Serif" font-weight="bold" font-size="11.00" fill="#000000">user_event_roles</text>
<text text-anchor="start" x="490.0219" y="-375.3" font-family="Helvetica,sans-Serif" font-size="11.00" fill="#000000">[table]</text>
<polygon fill="none" stroke="#000000" points="397.5,-348.2 397.5,-367.2 524.5,-367.2 524.5,-348.2 397.5,-348.2"/>
<text text-anchor="start" x="400.5" y="-354.3" font-family="Helvetica,sans-Serif" font-size="11.00" fill="#000000">...</text>
<polygon fill="#ffffff" stroke="transparent" points="397.5,-329.2 397.5,-348.2 446.5,-348.2 446.5,-329.2 397.5,-329.2"/>
<polygon fill="none" stroke="#000000" points="397.5,-329.2 397.5,-348.2 446.5,-348.2 446.5,-329.2 397.5,-329.2"/>
<text text-anchor="start" x="400.5" y="-335.3" font-family="Helvetica,sans-Serif" font-size="11.00" fill="#000000">&lt; 2</text>
<polygon fill="#ffffff" stroke="transparent" points="446.5,-329.2 446.5,-348.2 498.5,-348.2 498.5,-329.2 446.5,-329.2"/>
<polygon fill="none" stroke="#000000" points="446.5,-329.2 446.5,-348.2 498.5,-348.2 498.5,-329.2 446.5,-329.2"/>
<text text-anchor="start" x="463.1105" y="-335.3" font-family="Helvetica,sans-Serif" font-size="11.00" fill="#000000">0 rows</text>
<polygon fill="#ffffff" stroke="transparent" points="498.5,-329.2 498.5,-348.2 524.5,-348.2 524.5,-329.2 498.5,-329.2"/>
<polygon fill="none" stroke="#000000" points="498.5,-329.2 498.5,-348.2 524.5,-348.2 524.5,-329.2 498.5,-329.2"/>
<text text-anchor="start" x="515.3862" y="-335.3" font-family="Helvetica,sans-Serif" font-size="11.00" fill="#000000"> &#160;</text>
</a>
</g>
</g>
<!-- user_event_roles&#45;&gt;events -->
<g id="edge11" class="edge">
<title>user_event_roles:w&#45;&gt;events:e</title>
<path fill="none" stroke="#000000" d="M383.5147,-361.2098C359.7782,-378.4252 383.0741,-445.2 343,-445.2"/>
<polygon fill="#000000" stroke="#000000" points="389.8098,-359.4049 398.4922,-360.6606 393.6549,-358.3025 397.5,-357.2 397.5,-357.2 397.5,-357.2 393.6549,-358.3025 396.5078,-353.7394 389.8098,-359.4049 389.8098,-359.4049"/>
<ellipse fill="none" stroke="#000000" cx="386.7338" cy="-360.2869" rx="3.2" ry="3.2"/>
</g>
<!-- user_event_roles&#45;&gt;users -->
<g id="edge12" class="edge">
<title>user_event_roles:w&#45;&gt;users:e</title>
<path fill="none" stroke="#000000" d="M383.3958,-354.1931C358.7355,-342.17 362.272,-298.2 327,-298.2"/>
<polygon fill="#000000" stroke="#000000" points="389.6758,-355.5319 396.7494,-360.7209 393.5879,-356.3659 397.5,-357.2 397.5,-357.2 397.5,-357.2 393.5879,-356.3659 398.2506,-353.6791 389.6758,-355.5319 389.6758,-355.5319"/>
<ellipse fill="none" stroke="#000000" cx="386.5462" cy="-354.8647" rx="3.2" ry="3.2"/>
</g>
</g>
</svg>
