<?xml version="1.0" encoding="UTF-8" standalone="no"?>
<!DOCTYPE svg PUBLIC "-//W3C//DTD SVG 1.1//EN"
 "http://www.w3.org/Graphics/SVG/1.1/DTD/svg11.dtd">
<!-- Generated by graphviz version 2.40.1 (20161225.0304)
 -->
<!-- Title: twoDegreesRelationshipsDiagram Pages: 1 -->
<svg width="772pt" height="793pt"
 viewBox="0.00 0.00 772.00 792.90" xmlns="http://www.w3.org/2000/svg" xmlns:xlink="http://www.w3.org/1999/xlink">
<g id="graph0" class="graph" transform="scale(1 1) rotate(0) translate(4 788.9003)">
<title>twoDegreesRelationshipsDiagram</title>
<polygon fill="#ffffff" stroke="transparent" points="-4,4 -4,-788.9003 768,-788.9003 768,4 -4,4"/>
<text text-anchor="middle" x="72.4936" y="-7.3" font-family="Helvetica,sans-Serif" font-size="11.00" fill="#000000">Generated by SchemaSpy</text>
<!-- chapters -->
<g id="node1" class="node">
<title>chapters</title>
<g id="a_node1"><a xlink:href="../../tables/chapters.html" xlink:title="chapters" target="_top">
<polygon fill="#ffffff" stroke="transparent" points="138,-124.9003 138,-229.9003 226,-229.9003 226,-124.9003 138,-124.9003"/>
<polygon fill="#f5f5f5" stroke="transparent" points="138,-206.4003 138,-229.4003 226,-229.4003 226,-206.4003 138,-206.4003"/>
<polygon fill="none" stroke="#000000" points="138,-206.4003 138,-229.4003 226,-229.4003 226,-206.4003 138,-206.4003"/>
<text text-anchor="start" x="143" y="-215.5003" font-family="Helvetica,sans-Serif" font-weight="bold" font-size="11.00" fill="#000000">chapters</text>
<text text-anchor="start" x="191.0437" y="-214.5003" font-family="Helvetica,sans-Serif" font-size="11.00" fill="#000000">[table]</text>
<polygon fill="none" stroke="#000000" points="138,-184.4003 138,-206.4003 226,-206.4003 226,-184.4003 138,-184.4003"/>
<image xlink:href="../../images/primaryKeys.png" width="11px" height="12px" preserveAspectRatio="xMinYMin meet" x="143" y="-201.4"/>
<text text-anchor="start" x="158" y="-191.5003" font-family="Helvetica,sans-Serif" font-size="11.00" fill="#000000">id</text>
<polygon fill="none" stroke="#000000" points="138,-162.4003 138,-184.4003 226,-184.4003 226,-162.4003 138,-162.4003"/>
<image xlink:href="../../images/foreignKeys.png" width="11px" height="12px" preserveAspectRatio="xMinYMin meet" x="143" y="-179.4"/>
<text text-anchor="start" x="158" y="-169.5003" font-family="Helvetica,sans-Serif" font-size="11.00" fill="#000000">creator_id</text>
<polygon fill="none" stroke="#000000" points="138,-143.4003 138,-162.4003 226,-162.4003 226,-143.4003 138,-143.4003"/>
<text text-anchor="start" x="141" y="-149.5003" font-family="Helvetica,sans-Serif" font-size="11.00" fill="#000000">...</text>
<polygon fill="#ffffff" stroke="transparent" points="138,-124.4003 138,-143.4003 163,-143.4003 163,-124.4003 138,-124.4003"/>
<polygon fill="none" stroke="#000000" points="138,-124.4003 138,-143.4003 163,-143.4003 163,-124.4003 138,-124.4003"/>
<text text-anchor="start" x="141" y="-130.5003" font-family="Helvetica,sans-Serif" font-size="11.00" fill="#000000">&lt; 1</text>
<polygon fill="#ffffff" stroke="transparent" points="163,-124.4003 163,-143.4003 203,-143.4003 203,-124.4003 163,-124.4003"/>
<polygon fill="none" stroke="#000000" points="163,-124.4003 163,-143.4003 203,-143.4003 203,-124.4003 163,-124.4003"/>
<text text-anchor="start" x="167.6105" y="-130.5003" font-family="Helvetica,sans-Serif" font-size="11.00" fill="#000000">0 rows</text>
<polygon fill="#ffffff" stroke="transparent" points="203,-124.4003 203,-143.4003 226,-143.4003 226,-124.4003 203,-124.4003"/>
<polygon fill="none" stroke="#000000" points="203,-124.4003 203,-143.4003 226,-143.4003 226,-124.4003 203,-124.4003"/>
<text text-anchor="start" x="207.4053" y="-130.5003" font-family="Helvetica,sans-Serif" font-size="11.00" fill="#000000">3 &gt;</text>
</a>
</g>
</g>
<!-- users -->
<g id="node2" class="node">
<title>users</title>
<g id="a_node2"><a xlink:href="../../tables/users.html" xlink:title="users" target="_top">
<polygon fill="#ffffff" stroke="transparent" points="8,-145.9003 8,-206.9003 79,-206.9003 79,-145.9003 8,-145.9003"/>
<polygon fill="#f5f5f5" stroke="transparent" points="8.5,-183.4003 8.5,-206.4003 79.5,-206.4003 79.5,-183.4003 8.5,-183.4003"/>
<polygon fill="none" stroke="#000000" points="8.5,-183.4003 8.5,-206.4003 79.5,-206.4003 79.5,-183.4003 8.5,-183.4003"/>
<text text-anchor="start" x="13.5" y="-192.5003" font-family="Helvetica,sans-Serif" font-weight="bold" font-size="11.00" fill="#000000">users</text>
<text text-anchor="start" x="44.5437" y="-191.5003" font-family="Helvetica,sans-Serif" font-size="11.00" fill="#000000">[table]</text>
<polygon fill="none" stroke="#000000" points="8.5,-164.4003 8.5,-183.4003 79.5,-183.4003 79.5,-164.4003 8.5,-164.4003"/>
<text text-anchor="start" x="11.5" y="-170.5003" font-family="Helvetica,sans-Serif" font-size="11.00" fill="#000000">...</text>
<polygon fill="#ffffff" stroke="transparent" points="8.5,-145.4003 8.5,-164.4003 20.5,-164.4003 20.5,-145.4003 8.5,-145.4003"/>
<polygon fill="none" stroke="#000000" points="8.5,-145.4003 8.5,-164.4003 20.5,-164.4003 20.5,-145.4003 8.5,-145.4003"/>
<text text-anchor="start" x="11.4431" y="-151.5003" font-family="Helvetica,sans-Serif" font-size="11.00" fill="#000000"> &#160;</text>
<polygon fill="#ffffff" stroke="transparent" points="20.5,-145.4003 20.5,-164.4003 58.5,-164.4003 58.5,-145.4003 20.5,-145.4003"/>
<polygon fill="none" stroke="#000000" points="20.5,-145.4003 20.5,-164.4003 58.5,-164.4003 58.5,-145.4003 20.5,-145.4003"/>
<text text-anchor="start" x="23.3053" y="-151.5003" font-family="Helvetica,sans-Serif" font-size="11.00" fill="#000000">0 rows</text>
<polygon fill="#ffffff" stroke="transparent" points="58.5,-145.4003 58.5,-164.4003 79.5,-164.4003 79.5,-145.4003 58.5,-145.4003"/>
<polygon fill="none" stroke="#000000" points="58.5,-145.4003 58.5,-164.4003 79.5,-164.4003 79.5,-145.4003 58.5,-145.4003"/>
<text text-anchor="start" x="61.2027" y="-151.5003" font-family="Helvetica,sans-Serif" font-size="11.00" fill="#000000">6 &gt;</text>
</a>
</g>
</g>
<!-- chapters&#45;&gt;users -->
<g id="edge1" class="edge">
<title>chapters:w&#45;&gt;users:e</title>
<path fill="none" stroke="#000000" d="M123.3286,-173.4003C108.2231,-173.4003 99.8125,-173.4003 79.5,-173.4003"/>
<polygon fill="#000000" stroke="#000000" points="130,-173.4003 138,-177.0003 134,-173.4003 138,-173.4003 138,-173.4003 138,-173.4003 134,-173.4003 138,-169.8003 130,-173.4003 130,-173.4003"/>
<ellipse fill="none" stroke="#000000" cx="126.8" cy="-173.4004" rx="3.2" ry="3.2"/>
</g>
<!-- event_sponsors -->
<g id="node3" class="node">
<title>event_sponsors</title>
<g id="a_node3"><a xlink:href="../../tables/event_sponsors.html" xlink:title="event_sponsors" target="_top">
<polygon fill="#ffffff" stroke="transparent" points="632.5,-483.9003 632.5,-610.9003 752.5,-610.9003 752.5,-483.9003 632.5,-483.9003"/>
<polygon fill="#f5f5f5" stroke="transparent" points="632.5,-587.4003 632.5,-610.4003 752.5,-610.4003 752.5,-587.4003 632.5,-587.4003"/>
<polygon fill="none" stroke="#000000" points="632.5,-587.4003 632.5,-610.4003 752.5,-610.4003 752.5,-587.4003 632.5,-587.4003"/>
<text text-anchor="start" x="637.181" y="-596.5003" font-family="Helvetica,sans-Serif" font-weight="bold" font-size="11.00" fill="#000000">event_sponsors</text>
<text text-anchor="start" x="718.0219" y="-595.5003" font-family="Helvetica,sans-Serif" font-size="11.00" fill="#000000">[table]</text>
<polygon fill="none" stroke="#000000" points="632.5,-565.4003 632.5,-587.4003 752.5,-587.4003 752.5,-565.4003 632.5,-565.4003"/>
<image xlink:href="../../images/primaryKeys.png" width="11px" height="12px" preserveAspectRatio="xMinYMin meet" x="637.5" y="-582.4"/>
<text text-anchor="start" x="656.5" y="-572.5003" font-family="Helvetica,sans-Serif" font-size="11.00" fill="#000000">id</text>
<polygon fill="none" stroke="#000000" points="632.5,-543.4003 632.5,-565.4003 752.5,-565.4003 752.5,-543.4003 632.5,-543.4003"/>
<image xlink:href="../../images/foreignKeys.png" width="11px" height="12px" preserveAspectRatio="xMinYMin meet" x="637.5" y="-560.4"/>
<text text-anchor="start" x="656.5" y="-550.5003" font-family="Helvetica,sans-Serif" font-size="11.00" fill="#000000">sponsor_id</text>
<polygon fill="none" stroke="#000000" points="632.5,-521.4003 632.5,-543.4003 752.5,-543.4003 752.5,-521.4003 632.5,-521.4003"/>
<image xlink:href="../../images/foreignKeys.png" width="11px" height="12px" preserveAspectRatio="xMinYMin meet" x="637.5" y="-538.4"/>
<text text-anchor="start" x="656.5" y="-528.5003" font-family="Helvetica,sans-Serif" font-size="11.00" fill="#000000">event_id</text>
<polygon fill="none" stroke="#000000" points="632.5,-502.4003 632.5,-521.4003 752.5,-521.4003 752.5,-502.4003 632.5,-502.4003"/>
<text text-anchor="start" x="635.5" y="-508.5003" font-family="Helvetica,sans-Serif" font-size="11.00" fill="#000000">...</text>
<polygon fill="#ffffff" stroke="transparent" points="632.5,-483.4003 632.5,-502.4003 677.5,-502.4003 677.5,-483.4003 632.5,-483.4003"/>
<polygon fill="none" stroke="#000000" points="632.5,-483.4003 632.5,-502.4003 677.5,-502.4003 677.5,-483.4003 632.5,-483.4003"/>
<text text-anchor="start" x="635.5" y="-489.5003" font-family="Helvetica,sans-Serif" font-size="11.00" fill="#000000">&lt; 2</text>
<polygon fill="#ffffff" stroke="transparent" points="677.5,-483.4003 677.5,-502.4003 727.5,-502.4003 727.5,-483.4003 677.5,-483.4003"/>
<polygon fill="none" stroke="#000000" points="677.5,-483.4003 677.5,-502.4003 727.5,-502.4003 727.5,-483.4003 677.5,-483.4003"/>
<text text-anchor="start" x="692.1105" y="-489.5003" font-family="Helvetica,sans-Serif" font-size="11.00" fill="#000000">0 rows</text>
<polygon fill="#ffffff" stroke="transparent" points="727.5,-483.4003 727.5,-502.4003 752.5,-502.4003 752.5,-483.4003 727.5,-483.4003"/>
<polygon fill="none" stroke="#000000" points="727.5,-483.4003 727.5,-502.4003 752.5,-502.4003 752.5,-483.4003 727.5,-483.4003"/>
<text text-anchor="start" x="743.3862" y="-489.5003" font-family="Helvetica,sans-Serif" font-size="11.00" fill="#000000"> &#160;</text>
</a>
</g>
</g>
<!-- events -->
<g id="node4" class="node">
<title>events</title>
<g id="a_node4"><a xlink:href="../../tables/events.html" xlink:title="events" target="_top">
<polygon fill="#ffffff" stroke="transparent" points="285,-159.4003 285,-535.4003 580,-535.4003 580,-159.4003 285,-159.4003"/>
<polygon fill="#f5f5f5" stroke="transparent" points="287.5,-510.4003 287.5,-533.4003 578.5,-533.4003 578.5,-510.4003 287.5,-510.4003"/>
<polygon fill="none" stroke="#000000" points="287.5,-510.4003 287.5,-533.4003 578.5,-533.4003 578.5,-510.4003 287.5,-510.4003"/>
<text text-anchor="start" x="292.5" y="-519.5003" font-family="Helvetica,sans-Serif" font-weight="bold" font-size="11.00" fill="#000000">events</text>
<text text-anchor="start" x="543.5437" y="-518.5003" font-family="Helvetica,sans-Serif" font-size="11.00" fill="#000000">[table]</text>
<polygon fill="none" stroke="#000000" points="287.5,-488.4003 287.5,-510.4003 376.5,-510.4003 376.5,-488.4003 287.5,-488.4003"/>
<image xlink:href="../../images/primaryKeys.png" width="11px" height="12px" preserveAspectRatio="xMinYMin meet" x="292.5" y="-505.4"/>
<text text-anchor="start" x="307.5" y="-495.5003" font-family="Helvetica,sans-Serif" font-size="11.00" fill="#000000">id</text>
<polygon fill="none" stroke="#000000" points="376.5,-488.4003 376.5,-510.4003 578.5,-510.4003 578.5,-488.4003 376.5,-488.4003"/>
<text text-anchor="start" x="379.5" y="-496.1003" font-family="Helvetica,sans-Serif" font-size="11.00" fill="#000000">serial[10]</text>
<polygon fill="none" stroke="#000000" points="287.5,-466.4003 287.5,-488.4003 376.5,-488.4003 376.5,-466.4003 287.5,-466.4003"/>
<text text-anchor="start" x="307.5" y="-473.5003" font-family="Helvetica,sans-Serif" font-size="11.00" fill="#000000">created_at</text>
<polygon fill="none" stroke="#000000" points="376.5,-466.4003 376.5,-488.4003 578.5,-488.4003 578.5,-466.4003 376.5,-466.4003"/>
<text text-anchor="start" x="379.5" y="-474.1003" font-family="Helvetica,sans-Serif" font-size="11.00" fill="#000000">timestamp[29,6]</text>
<polygon fill="none" stroke="#000000" points="287.5,-444.4003 287.5,-466.4003 376.5,-466.4003 376.5,-444.4003 287.5,-444.4003"/>
<text text-anchor="start" x="307.5" y="-451.5003" font-family="Helvetica,sans-Serif" font-size="11.00" fill="#000000">updated_at</text>
<polygon fill="none" stroke="#000000" points="376.5,-444.4003 376.5,-466.4003 578.5,-466.4003 578.5,-444.4003 376.5,-444.4003"/>
<text text-anchor="start" x="379.5" y="-452.1003" font-family="Helvetica,sans-Serif" font-size="11.00" fill="#000000">timestamp[29,6]</text>
<polygon fill="none" stroke="#000000" points="287.5,-422.4003 287.5,-444.4003 376.5,-444.4003 376.5,-422.4003 287.5,-422.4003"/>
<text text-anchor="start" x="307.5" y="-429.5003" font-family="Helvetica,sans-Serif" font-size="11.00" fill="#000000">name</text>
<polygon fill="none" stroke="#000000" points="376.5,-422.4003 376.5,-444.4003 578.5,-444.4003 578.5,-422.4003 376.5,-422.4003"/>
<text text-anchor="start" x="379.5" y="-430.1003" font-family="Helvetica,sans-Serif" font-size="11.00" fill="#000000">varchar[2147483647]</text>
<polygon fill="none" stroke="#000000" points="287.5,-400.4003 287.5,-422.4003 376.5,-422.4003 376.5,-400.4003 287.5,-400.4003"/>
<text text-anchor="start" x="307.5" y="-407.5003" font-family="Helvetica,sans-Serif" font-size="11.00" fill="#000000">description</text>
<polygon fill="none" stroke="#000000" points="376.5,-400.4003 376.5,-422.4003 578.5,-422.4003 578.5,-400.4003 376.5,-400.4003"/>
<text text-anchor="start" x="379.5" y="-408.1003" font-family="Helvetica,sans-Serif" font-size="11.00" fill="#000000">varchar[2147483647]</text>
<polygon fill="none" stroke="#000000" points="287.5,-378.4003 287.5,-400.4003 376.5,-400.4003 376.5,-378.4003 287.5,-378.4003"/>
<text text-anchor="start" x="307.5" y="-385.5003" font-family="Helvetica,sans-Serif" font-size="11.00" fill="#000000">url</text>
<polygon fill="none" stroke="#000000" points="376.5,-378.4003 376.5,-400.4003 578.5,-400.4003 578.5,-378.4003 376.5,-378.4003"/>
<text text-anchor="start" x="379.5" y="-386.1003" font-family="Helvetica,sans-Serif" font-size="11.00" fill="#000000">varchar[2147483647]</text>
<polygon fill="none" stroke="#000000" points="287.5,-356.4003 287.5,-378.4003 376.5,-378.4003 376.5,-356.4003 287.5,-356.4003"/>
<text text-anchor="start" x="307.5" y="-363.5003" font-family="Helvetica,sans-Serif" font-size="11.00" fill="#000000">video_url</text>
<polygon fill="none" stroke="#000000" points="376.5,-356.4003 376.5,-378.4003 578.5,-378.4003 578.5,-356.4003 376.5,-356.4003"/>
<text text-anchor="start" x="379.5" y="-364.1003" font-family="Helvetica,sans-Serif" font-size="11.00" fill="#000000">varchar[2147483647]</text>
<polygon fill="none" stroke="#000000" points="287.5,-334.4003 287.5,-356.4003 376.5,-356.4003 376.5,-334.4003 287.5,-334.4003"/>
<text text-anchor="start" x="307.5" y="-341.5003" font-family="Helvetica,sans-Serif" font-size="11.00" fill="#000000">venue_type</text>
<polygon fill="none" stroke="#000000" points="376.5,-334.4003 376.5,-356.4003 578.5,-356.4003 578.5,-334.4003 376.5,-334.4003"/>
<text text-anchor="start" x="379.369" y="-342.1003" font-family="Helvetica,sans-Serif" font-size="11.00" fill="#000000">events_venue_type_enum[2147483647]</text>
<polygon fill="none" stroke="#000000" points="287.5,-312.4003 287.5,-334.4003 376.5,-334.4003 376.5,-312.4003 287.5,-312.4003"/>
<text text-anchor="start" x="307.5" y="-319.5003" font-family="Helvetica,sans-Serif" font-size="11.00" fill="#000000">start_at</text>
<polygon fill="none" stroke="#000000" points="376.5,-312.4003 376.5,-334.4003 578.5,-334.4003 578.5,-312.4003 376.5,-312.4003"/>
<text text-anchor="start" x="379.5" y="-320.1003" font-family="Helvetica,sans-Serif" font-size="11.00" fill="#000000">timestamp[29,6]</text>
<polygon fill="none" stroke="#000000" points="287.5,-290.4003 287.5,-312.4003 376.5,-312.4003 376.5,-290.4003 287.5,-290.4003"/>
<text text-anchor="start" x="307.5" y="-297.5003" font-family="Helvetica,sans-Serif" font-size="11.00" fill="#000000">ends_at</text>
<polygon fill="none" stroke="#000000" points="376.5,-290.4003 376.5,-312.4003 578.5,-312.4003 578.5,-290.4003 376.5,-290.4003"/>
<text text-anchor="start" x="379.5" y="-298.1003" font-family="Helvetica,sans-Serif" font-size="11.00" fill="#000000">timestamp[29,6]</text>
<polygon fill="none" stroke="#000000" points="287.5,-268.4003 287.5,-290.4003 376.5,-290.4003 376.5,-268.4003 287.5,-268.4003"/>
<text text-anchor="start" x="307.5" y="-275.5003" font-family="Helvetica,sans-Serif" font-size="11.00" fill="#000000">canceled</text>
<polygon fill="none" stroke="#000000" points="376.5,-268.4003 376.5,-290.4003 578.5,-290.4003 578.5,-268.4003 376.5,-268.4003"/>
<text text-anchor="start" x="379.5" y="-276.1003" font-family="Helvetica,sans-Serif" font-size="11.00" fill="#000000">bool[1]</text>
<polygon fill="none" stroke="#000000" points="287.5,-246.4003 287.5,-268.4003 376.5,-268.4003 376.5,-246.4003 287.5,-246.4003"/>
<text text-anchor="start" x="307.5" y="-253.5003" font-family="Helvetica,sans-Serif" font-size="11.00" fill="#000000">capacity</text>
<polygon fill="none" stroke="#000000" points="376.5,-246.4003 376.5,-268.4003 578.5,-268.4003 578.5,-246.4003 376.5,-246.4003"/>
<text text-anchor="start" x="379.5" y="-254.1003" font-family="Helvetica,sans-Serif" font-size="11.00" fill="#000000">int4[10]</text>
<polygon fill="none" stroke="#000000" points="287.5,-224.4003 287.5,-246.4003 376.5,-246.4003 376.5,-224.4003 287.5,-224.4003"/>
<text text-anchor="start" x="307.5" y="-231.5003" font-family="Helvetica,sans-Serif" font-size="11.00" fill="#000000">invite_only</text>
<polygon fill="none" stroke="#000000" points="376.5,-224.4003 376.5,-246.4003 578.5,-246.4003 578.5,-224.4003 376.5,-224.4003"/>
<text text-anchor="start" x="379.5" y="-232.1003" font-family="Helvetica,sans-Serif" font-size="11.00" fill="#000000">bool[1]</text>
<polygon fill="none" stroke="#000000" points="287.5,-202.4003 287.5,-224.4003 376.5,-224.4003 376.5,-202.4003 287.5,-202.4003"/>
<image xlink:href="../../images/foreignKeys.png" width="11px" height="12px" preserveAspectRatio="xMinYMin meet" x="292.5" y="-219.4"/>
<text text-anchor="start" x="307.5" y="-209.5003" font-family="Helvetica,sans-Serif" font-size="11.00" fill="#000000">venue_id</text>
<polygon fill="none" stroke="#000000" points="376.5,-202.4003 376.5,-224.4003 578.5,-224.4003 578.5,-202.4003 376.5,-202.4003"/>
<text text-anchor="start" x="379.5" y="-210.1003" font-family="Helvetica,sans-Serif" font-size="11.00" fill="#000000">int4[10]</text>
<polygon fill="none" stroke="#000000" points="287.5,-180.4003 287.5,-202.4003 376.5,-202.4003 376.5,-180.4003 287.5,-180.4003"/>
<image xlink:href="../../images/foreignKeys.png" width="11px" height="12px" preserveAspectRatio="xMinYMin meet" x="292.5" y="-197.4"/>
<text text-anchor="start" x="307.5" y="-187.5003" font-family="Helvetica,sans-Serif" font-size="11.00" fill="#000000">chapter_id</text>
<polygon fill="none" stroke="#000000" points="376.5,-180.4003 376.5,-202.4003 578.5,-202.4003 578.5,-180.4003 376.5,-180.4003"/>
<text text-anchor="start" x="379.5" y="-188.1003" font-family="Helvetica,sans-Serif" font-size="11.00" fill="#000000">int4[10]</text>
<polygon fill="#ffffff" stroke="transparent" points="287.5,-161.4003 287.5,-180.4003 323.5,-180.4003 323.5,-161.4003 287.5,-161.4003"/>
<polygon fill="none" stroke="#000000" points="287.5,-161.4003 287.5,-180.4003 323.5,-180.4003 323.5,-161.4003 287.5,-161.4003"/>
<text text-anchor="start" x="290.5" y="-167.5003" font-family="Helvetica,sans-Serif" font-size="11.00" fill="#000000">&lt; 2</text>
<polygon fill="#ffffff" stroke="transparent" points="323.5,-161.4003 323.5,-180.4003 376.5,-180.4003 376.5,-161.4003 323.5,-161.4003"/>
<polygon fill="none" stroke="#000000" points="323.5,-161.4003 323.5,-180.4003 376.5,-180.4003 376.5,-161.4003 323.5,-161.4003"/>
<text text-anchor="start" x="341.1105" y="-167.5003" font-family="Helvetica,sans-Serif" font-size="11.00" fill="#000000">0 rows</text>
<polygon fill="#ffffff" stroke="transparent" points="376.5,-161.4003 376.5,-180.4003 578.5,-180.4003 578.5,-161.4003 376.5,-161.4003"/>
<polygon fill="none" stroke="#000000" points="376.5,-161.4003 376.5,-180.4003 578.5,-180.4003 578.5,-161.4003 376.5,-161.4003"/>
<text text-anchor="start" x="559.9053" y="-167.5003" font-family="Helvetica,sans-Serif" font-size="11.00" fill="#000000">4 &gt;</text>
<polygon fill="none" stroke="#000000" stroke-width="2" points="286,-160.4003 286,-534.4003 579,-534.4003 579,-160.4003 286,-160.4003"/>
</a>
</g>
</g>
<!-- event_sponsors&#45;&gt;events -->
<g id="edge2" class="edge">
<title>event_sponsors:w&#45;&gt;events:e</title>
<path fill="none" stroke="#000000" d="M618.1861,-528.6148C603.9722,-519.9467 600.6937,-499.4003 578.5,-499.4003"/>
<polygon fill="#000000" stroke="#000000" points="624.7659,-530.3548 631.5796,-535.8806 628.6329,-531.3776 632.5,-532.4003 632.5,-532.4003 632.5,-532.4003 628.6329,-531.3776 633.4204,-528.9199 624.7659,-530.3548 624.7659,-530.3548"/>
<ellipse fill="none" stroke="#000000" cx="621.6723" cy="-529.5367" rx="3.2" ry="3.2"/>
</g>
<!-- sponsors -->
<g id="node5" class="node">
<title>sponsors</title>
<g id="a_node5"><a xlink:href="../../tables/sponsors.html" xlink:title="sponsors" target="_top">
<polygon fill="#ffffff" stroke="transparent" points="389,-638.9003 389,-699.9003 476,-699.9003 476,-638.9003 389,-638.9003"/>
<polygon fill="#f5f5f5" stroke="transparent" points="389.5,-676.4003 389.5,-699.4003 476.5,-699.4003 476.5,-676.4003 389.5,-676.4003"/>
<polygon fill="none" stroke="#000000" points="389.5,-676.4003 389.5,-699.4003 476.5,-699.4003 476.5,-676.4003 389.5,-676.4003"/>
<text text-anchor="start" x="394.1893" y="-685.5003" font-family="Helvetica,sans-Serif" font-weight="bold" font-size="11.00" fill="#000000">sponsors</text>
<text text-anchor="start" x="442.0219" y="-684.5003" font-family="Helvetica,sans-Serif" font-size="11.00" fill="#000000">[table]</text>
<polygon fill="none" stroke="#000000" points="389.5,-657.4003 389.5,-676.4003 476.5,-676.4003 476.5,-657.4003 389.5,-657.4003"/>
<text text-anchor="start" x="392.5" y="-663.5003" font-family="Helvetica,sans-Serif" font-size="11.00" fill="#000000">...</text>
<polygon fill="#ffffff" stroke="transparent" points="389.5,-638.4003 389.5,-657.4003 409.5,-657.4003 409.5,-638.4003 389.5,-638.4003"/>
<polygon fill="none" stroke="#000000" points="389.5,-638.4003 389.5,-657.4003 409.5,-657.4003 409.5,-638.4003 389.5,-638.4003"/>
<text text-anchor="start" x="392.5" y="-644.5003" font-family="Helvetica,sans-Serif" font-size="11.00" fill="#000000"> &#160;</text>
<polygon fill="#ffffff" stroke="transparent" points="409.5,-638.4003 409.5,-657.4003 451.5,-657.4003 451.5,-638.4003 409.5,-638.4003"/>
<polygon fill="none" stroke="#000000" points="409.5,-638.4003 409.5,-657.4003 451.5,-657.4003 451.5,-638.4003 409.5,-638.4003"/>
<text text-anchor="start" x="416.1105" y="-644.5003" font-family="Helvetica,sans-Serif" font-size="11.00" fill="#000000">0 rows</text>
<polygon fill="#ffffff" stroke="transparent" points="451.5,-638.4003 451.5,-657.4003 476.5,-657.4003 476.5,-638.4003 451.5,-638.4003"/>
<polygon fill="none" stroke="#000000" points="451.5,-638.4003 451.5,-657.4003 476.5,-657.4003 476.5,-638.4003 451.5,-638.4003"/>
<text text-anchor="start" x="457.9053" y="-644.5003" font-family="Helvetica,sans-Serif" font-size="11.00" fill="#000000">1 &gt;</text>
</a>
</g>
</g>
<!-- event_sponsors&#45;&gt;sponsors -->
<g id="edge3" class="edge">
<title>event_sponsors:w&#45;&gt;sponsors:e</title>
<path fill="none" stroke="#000000" d="M618.1163,-558.0954C600.4707,-570.0794 612.9672,-608.2547 588,-628.4003 547.2552,-661.2765 528.8544,-666.4003 476.5,-666.4003"/>
<polygon fill="#000000" stroke="#000000" points="624.7516,-556.3909 633.3958,-557.8871 628.6258,-555.3956 632.5,-554.4003 632.5,-554.4003 632.5,-554.4003 628.6258,-555.3956 631.6042,-550.9135 624.7516,-556.3909 624.7516,-556.3909"/>
<ellipse fill="none" stroke="#000000" cx="621.6522" cy="-557.1871" rx="3.2" ry="3.2"/>
</g>
<!-- events&#45;&gt;chapters -->
<g id="edge4" class="edge">
<title>events:w&#45;&gt;chapters:e</title>
<path fill="none" stroke="#000000" d="M273.021,-191.8283C256.5268,-192.8602 247.8273,-195.4003 226,-195.4003"/>
<polygon fill="#000000" stroke="#000000" points="279.5035,-191.6367 287.6064,-194.9987 283.5017,-191.5185 287.5,-191.4003 287.5,-191.4003 287.5,-191.4003 283.5017,-191.5185 287.3936,-187.8019 279.5035,-191.6367 279.5035,-191.6367"/>
<ellipse fill="none" stroke="#000000" cx="276.3049" cy="-191.7313" rx="3.2" ry="3.2"/>
</g>
<!-- venues -->
<g id="node6" class="node">
<title>venues</title>
<g id="a_node6"><a xlink:href="../../tables/venues.html" xlink:title="venues" target="_top">
<polygon fill="#ffffff" stroke="transparent" points="128,-250.9003 128,-333.9003 236,-333.9003 236,-250.9003 128,-250.9003"/>
<polygon fill="#f5f5f5" stroke="transparent" points="128,-310.4003 128,-333.4003 236,-333.4003 236,-310.4003 128,-310.4003"/>
<polygon fill="none" stroke="#000000" points="128,-310.4003 128,-333.4003 236,-333.4003 236,-310.4003 128,-310.4003"/>
<text text-anchor="start" x="133" y="-319.5003" font-family="Helvetica,sans-Serif" font-weight="bold" font-size="11.00" fill="#000000">venues</text>
<text text-anchor="start" x="201.0437" y="-318.5003" font-family="Helvetica,sans-Serif" font-size="11.00" fill="#000000">[table]</text>
<polygon fill="none" stroke="#000000" points="128,-288.4003 128,-310.4003 236,-310.4003 236,-288.4003 128,-288.4003"/>
<image xlink:href="../../images/primaryKeys.png" width="11px" height="12px" preserveAspectRatio="xMinYMin meet" x="133" y="-305.4"/>
<text text-anchor="start" x="148" y="-295.5003" font-family="Helvetica,sans-Serif" font-size="11.00" fill="#000000">id</text>
<polygon fill="none" stroke="#000000" points="128,-269.4003 128,-288.4003 236,-288.4003 236,-269.4003 128,-269.4003"/>
<text text-anchor="start" x="131" y="-275.5003" font-family="Helvetica,sans-Serif" font-size="11.00" fill="#000000">...</text>
<polygon fill="#ffffff" stroke="transparent" points="128,-250.4003 128,-269.4003 158,-269.4003 158,-250.4003 128,-250.4003"/>
<polygon fill="none" stroke="#000000" points="128,-250.4003 128,-269.4003 158,-269.4003 158,-250.4003 128,-250.4003"/>
<text text-anchor="start" x="131" y="-256.5003" font-family="Helvetica,sans-Serif" font-size="11.00" fill="#000000"> &#160;</text>
<polygon fill="#ffffff" stroke="transparent" points="158,-250.4003 158,-269.4003 205,-269.4003 205,-250.4003 158,-250.4003"/>
<polygon fill="none" stroke="#000000" points="158,-250.4003 158,-269.4003 205,-269.4003 205,-250.4003 158,-250.4003"/>
<text text-anchor="start" x="169.6105" y="-256.5003" font-family="Helvetica,sans-Serif" font-size="11.00" fill="#000000">0 rows</text>
<polygon fill="#ffffff" stroke="transparent" points="205,-250.4003 205,-269.4003 236,-269.4003 236,-250.4003 205,-250.4003"/>
<polygon fill="none" stroke="#000000" points="205,-250.4003 205,-269.4003 236,-269.4003 236,-250.4003 205,-250.4003"/>
<text text-anchor="start" x="217.4053" y="-256.5003" font-family="Helvetica,sans-Serif" font-size="11.00" fill="#000000">1 &gt;</text>
</a>
</g>
</g>
<!-- events&#45;&gt;venues -->
<g id="edge5" class="edge">
<title>events:w&#45;&gt;venues:e</title>
<path fill="none" stroke="#000000" d="M273.4139,-217.7833C251.6949,-235.3084 274.4605,-299.4003 236,-299.4003"/>
<polygon fill="#000000" stroke="#000000" points="279.8612,-215.7772 288.5696,-216.8377 283.6806,-214.5887 287.5,-213.4003 287.5,-213.4003 287.5,-213.4003 283.6806,-214.5887 286.4304,-209.9628 279.8612,-215.7772 279.8612,-215.7772"/>
<ellipse fill="none" stroke="#000000" cx="276.8057" cy="-216.7279" rx="3.2" ry="3.2"/>
</g>
<!-- rsvps -->
<g id="node7" class="node">
<title>rsvps</title>
<g id="a_node7"><a xlink:href="../../tables/rsvps.html" xlink:title="rsvps" target="_top">
<polygon fill="#ffffff" stroke="transparent" points="642.5,-106.9003 642.5,-233.9003 742.5,-233.9003 742.5,-106.9003 642.5,-106.9003"/>
<polygon fill="#f5f5f5" stroke="transparent" points="642.5,-210.4003 642.5,-233.4003 742.5,-233.4003 742.5,-210.4003 642.5,-210.4003"/>
<polygon fill="none" stroke="#000000" points="642.5,-210.4003 642.5,-233.4003 742.5,-233.4003 742.5,-210.4003 642.5,-210.4003"/>
<text text-anchor="start" x="647.5" y="-219.5003" font-family="Helvetica,sans-Serif" font-weight="bold" font-size="11.00" fill="#000000">rsvps</text>
<text text-anchor="start" x="707.5437" y="-218.5003" font-family="Helvetica,sans-Serif" font-size="11.00" fill="#000000">[table]</text>
<polygon fill="none" stroke="#000000" points="642.5,-188.4003 642.5,-210.4003 742.5,-210.4003 742.5,-188.4003 642.5,-188.4003"/>
<image xlink:href="../../images/primaryKeys.png" width="11px" height="12px" preserveAspectRatio="xMinYMin meet" x="647.5" y="-205.4"/>
<text text-anchor="start" x="662.5" y="-195.5003" font-family="Helvetica,sans-Serif" font-size="11.00" fill="#000000">id</text>
<polygon fill="none" stroke="#000000" points="642.5,-166.4003 642.5,-188.4003 742.5,-188.4003 742.5,-166.4003 642.5,-166.4003"/>
<image xlink:href="../../images/foreignKeys.png" width="11px" height="12px" preserveAspectRatio="xMinYMin meet" x="647.5" y="-183.4"/>
<text text-anchor="start" x="662.5" y="-173.5003" font-family="Helvetica,sans-Serif" font-size="11.00" fill="#000000">event_id</text>
<polygon fill="none" stroke="#000000" points="642.5,-144.4003 642.5,-166.4003 742.5,-166.4003 742.5,-144.4003 642.5,-144.4003"/>
<image xlink:href="../../images/foreignKeys.png" width="11px" height="12px" preserveAspectRatio="xMinYMin meet" x="647.5" y="-161.4"/>
<text text-anchor="start" x="662.5" y="-151.5003" font-family="Helvetica,sans-Serif" font-size="11.00" fill="#000000">user_id</text>
<polygon fill="none" stroke="#000000" points="642.5,-125.4003 642.5,-144.4003 742.5,-144.4003 742.5,-125.4003 642.5,-125.4003"/>
<text text-anchor="start" x="645.5" y="-131.5003" font-family="Helvetica,sans-Serif" font-size="11.00" fill="#000000">...</text>
<polygon fill="#ffffff" stroke="transparent" points="642.5,-106.4003 642.5,-125.4003 677.5,-125.4003 677.5,-106.4003 642.5,-106.4003"/>
<polygon fill="none" stroke="#000000" points="642.5,-106.4003 642.5,-125.4003 677.5,-125.4003 677.5,-106.4003 642.5,-106.4003"/>
<text text-anchor="start" x="645.5" y="-112.5003" font-family="Helvetica,sans-Serif" font-size="11.00" fill="#000000">&lt; 2</text>
<polygon fill="#ffffff" stroke="transparent" points="677.5,-106.4003 677.5,-125.4003 722.5,-125.4003 722.5,-106.4003 677.5,-106.4003"/>
<polygon fill="none" stroke="#000000" points="677.5,-106.4003 677.5,-125.4003 722.5,-125.4003 722.5,-106.4003 677.5,-106.4003"/>
<text text-anchor="start" x="687.1105" y="-112.5003" font-family="Helvetica,sans-Serif" font-size="11.00" fill="#000000">0 rows</text>
<polygon fill="#ffffff" stroke="transparent" points="722.5,-106.4003 722.5,-125.4003 742.5,-125.4003 742.5,-106.4003 722.5,-106.4003"/>
<polygon fill="none" stroke="#000000" points="722.5,-106.4003 722.5,-125.4003 742.5,-125.4003 742.5,-106.4003 722.5,-106.4003"/>
<text text-anchor="start" x="733.3862" y="-112.5003" font-family="Helvetica,sans-Serif" font-size="11.00" fill="#000000"> &#160;</text>
</a>
</g>
</g>
<!-- rsvps&#45;&gt;users -->
<g id="edge7" class="edge">
<title>rsvps:w&#45;&gt;users:e</title>
<path fill="none" stroke="#000000" d="M628.1631,-152.3293C603.247,-139.0251 623.2489,-86.148 588,-66.4003 467.4125,1.1574 414.9717,-58.082 277,-66.4003 206.8405,-70.6302 176.7957,-43.9939 120,-85.4003 85.2097,-110.7639 122.5544,-173.4003 79.5,-173.4003"/>
<polygon fill="#000000" stroke="#000000" points="634.6774,-153.7246 641.746,-158.9204 638.5887,-154.5625 642.5,-155.4003 642.5,-155.4003 642.5,-155.4003 638.5887,-154.5625 643.254,-151.8801 634.6774,-153.7246 634.6774,-153.7246"/>
<ellipse fill="none" stroke="#000000" cx="631.5484" cy="-153.0544" rx="3.2" ry="3.2"/>
</g>
<!-- rsvps&#45;&gt;events -->
<g id="edge6" class="edge">
<title>rsvps:w&#45;&gt;events:e</title>
<path fill="none" stroke="#000000" d="M628.6886,-182.4581C580.8503,-223.4234 646.0406,-499.4003 578.5,-499.4003"/>
<polygon fill="#000000" stroke="#000000" points="634.9879,-180.1513 643.738,-180.7807 638.7439,-178.7758 642.5,-177.4003 642.5,-177.4003 642.5,-177.4003 638.7439,-178.7758 641.262,-174.0198 634.9879,-180.1513 634.9879,-180.1513"/>
<ellipse fill="none" stroke="#000000" cx="631.983" cy="-181.2517" rx="3.2" ry="3.2"/>
</g>
<!-- tags -->
<g id="node8" class="node">
<title>tags</title>
<g id="a_node8"><a xlink:href="../../tables/tags.html" xlink:title="tags" target="_top">
<polygon fill="#ffffff" stroke="transparent" points="648.5,-357.9003 648.5,-462.9003 736.5,-462.9003 736.5,-357.9003 648.5,-357.9003"/>
<polygon fill="#f5f5f5" stroke="transparent" points="648.5,-439.4003 648.5,-462.4003 736.5,-462.4003 736.5,-439.4003 648.5,-439.4003"/>
<polygon fill="none" stroke="#000000" points="648.5,-439.4003 648.5,-462.4003 736.5,-462.4003 736.5,-439.4003 648.5,-439.4003"/>
<text text-anchor="start" x="653.5" y="-448.5003" font-family="Helvetica,sans-Serif" font-weight="bold" font-size="11.00" fill="#000000">tags</text>
<text text-anchor="start" x="701.5437" y="-447.5003" font-family="Helvetica,sans-Serif" font-size="11.00" fill="#000000">[table]</text>
<polygon fill="none" stroke="#000000" points="648.5,-417.4003 648.5,-439.4003 736.5,-439.4003 736.5,-417.4003 648.5,-417.4003"/>
<image xlink:href="../../images/primaryKeys.png" width="11px" height="12px" preserveAspectRatio="xMinYMin meet" x="653.5" y="-434.4"/>
<text text-anchor="start" x="668.5" y="-424.5003" font-family="Helvetica,sans-Serif" font-size="11.00" fill="#000000">id</text>
<polygon fill="none" stroke="#000000" points="648.5,-395.4003 648.5,-417.4003 736.5,-417.4003 736.5,-395.4003 648.5,-395.4003"/>
<image xlink:href="../../images/foreignKeys.png" width="11px" height="12px" preserveAspectRatio="xMinYMin meet" x="653.5" y="-412.4"/>
<text text-anchor="start" x="668.5" y="-402.5003" font-family="Helvetica,sans-Serif" font-size="11.00" fill="#000000">event_id</text>
<polygon fill="none" stroke="#000000" points="648.5,-376.4003 648.5,-395.4003 736.5,-395.4003 736.5,-376.4003 648.5,-376.4003"/>
<text text-anchor="start" x="651.5" y="-382.5003" font-family="Helvetica,sans-Serif" font-size="11.00" fill="#000000">...</text>
<polygon fill="#ffffff" stroke="transparent" points="648.5,-357.4003 648.5,-376.4003 677.5,-376.4003 677.5,-357.4003 648.5,-357.4003"/>
<polygon fill="none" stroke="#000000" points="648.5,-357.4003 648.5,-376.4003 677.5,-376.4003 677.5,-357.4003 648.5,-357.4003"/>
<text text-anchor="start" x="651.5" y="-363.5003" font-family="Helvetica,sans-Serif" font-size="11.00" fill="#000000">&lt; 1</text>
<polygon fill="#ffffff" stroke="transparent" points="677.5,-357.4003 677.5,-376.4003 719.5,-376.4003 719.5,-357.4003 677.5,-357.4003"/>
<polygon fill="none" stroke="#000000" points="677.5,-357.4003 677.5,-376.4003 719.5,-376.4003 719.5,-357.4003 677.5,-357.4003"/>
<text text-anchor="start" x="684.1105" y="-363.5003" font-family="Helvetica,sans-Serif" font-size="11.00" fill="#000000">0 rows</text>
<polygon fill="#ffffff" stroke="transparent" points="719.5,-357.4003 719.5,-376.4003 736.5,-376.4003 736.5,-357.4003 719.5,-357.4003"/>
<polygon fill="none" stroke="#000000" points="719.5,-357.4003 719.5,-376.4003 736.5,-376.4003 736.5,-357.4003 719.5,-357.4003"/>
<text text-anchor="start" x="727.3862" y="-363.5003" font-family="Helvetica,sans-Serif" font-size="11.00" fill="#000000"> &#160;</text>
</a>
</g>
</g>
<!-- tags&#45;&gt;events -->
<g id="edge8" class="edge">
<title>tags:w&#45;&gt;events:e</title>
<path fill="none" stroke="#000000" d="M634.3597,-409.4946C603.0682,-425.6315 624.5751,-499.4003 578.5,-499.4003"/>
<polygon fill="#000000" stroke="#000000" points="640.6849,-408.1105 649.2696,-409.9171 644.5925,-407.2554 648.5,-406.4003 648.5,-406.4003 648.5,-406.4003 644.5925,-407.2554 647.7304,-402.8835 640.6849,-408.1105 640.6849,-408.1105"/>
<ellipse fill="none" stroke="#000000" cx="637.5589" cy="-408.7946" rx="3.2" ry="3.2"/>
</g>
<!-- user_bans -->
<g id="node9" class="node">
<title>user_bans</title>
<g id="a_node9"><a xlink:href="../../tables/user_bans.html" xlink:title="user_bans" target="_top">
<polygon fill="#ffffff" stroke="transparent" points="385.5,-556.9003 385.5,-617.9003 479.5,-617.9003 479.5,-556.9003 385.5,-556.9003"/>
<polygon fill="#f5f5f5" stroke="transparent" points="385.5,-594.4003 385.5,-617.4003 479.5,-617.4003 479.5,-594.4003 385.5,-594.4003"/>
<polygon fill="none" stroke="#000000" points="385.5,-594.4003 385.5,-617.4003 479.5,-617.4003 479.5,-594.4003 385.5,-594.4003"/>
<text text-anchor="start" x="390.3244" y="-603.5003" font-family="Helvetica,sans-Serif" font-weight="bold" font-size="11.00" fill="#000000">user_bans</text>
<text text-anchor="start" x="445.0219" y="-602.5003" font-family="Helvetica,sans-Serif" font-size="11.00" fill="#000000">[table]</text>
<polygon fill="none" stroke="#000000" points="385.5,-575.4003 385.5,-594.4003 479.5,-594.4003 479.5,-575.4003 385.5,-575.4003"/>
<text text-anchor="start" x="388.5" y="-581.5003" font-family="Helvetica,sans-Serif" font-size="11.00" fill="#000000">...</text>
<polygon fill="#ffffff" stroke="transparent" points="385.5,-556.4003 385.5,-575.4003 417.5,-575.4003 417.5,-556.4003 385.5,-556.4003"/>
<polygon fill="none" stroke="#000000" points="385.5,-556.4003 385.5,-575.4003 417.5,-575.4003 417.5,-556.4003 385.5,-556.4003"/>
<text text-anchor="start" x="388.5" y="-562.5003" font-family="Helvetica,sans-Serif" font-size="11.00" fill="#000000">&lt; 2</text>
<polygon fill="#ffffff" stroke="transparent" points="417.5,-556.4003 417.5,-575.4003 461.5,-575.4003 461.5,-556.4003 417.5,-556.4003"/>
<polygon fill="none" stroke="#000000" points="417.5,-556.4003 417.5,-575.4003 461.5,-575.4003 461.5,-556.4003 417.5,-556.4003"/>
<text text-anchor="start" x="426.1105" y="-562.5003" font-family="Helvetica,sans-Serif" font-size="11.00" fill="#000000">0 rows</text>
<polygon fill="#ffffff" stroke="transparent" points="461.5,-556.4003 461.5,-575.4003 479.5,-575.4003 479.5,-556.4003 461.5,-556.4003"/>
<polygon fill="none" stroke="#000000" points="461.5,-556.4003 461.5,-575.4003 479.5,-575.4003 479.5,-556.4003 461.5,-556.4003"/>
<text text-anchor="start" x="470.3862" y="-562.5003" font-family="Helvetica,sans-Serif" font-size="11.00" fill="#000000"> &#160;</text>
</a>
</g>
</g>
<!-- user_bans&#45;&gt;chapters -->
<g id="edge9" class="edge">
<title>user_bans:w&#45;&gt;chapters:e</title>
<path fill="none" stroke="#000000" d="M370.9578,-584.4171C329.2352,-584.3869 305.5925,-582.4406 277,-546.4003 228.013,-484.6531 304.8191,-195.4003 226,-195.4003"/>
<polygon fill="#000000" stroke="#000000" points="377.5,-584.4096 385.5042,-588.0003 381.5,-584.4049 385.5,-584.4003 385.5,-584.4003 385.5,-584.4003 381.5,-584.4049 385.4958,-580.8003 377.5,-584.4096 377.5,-584.4096"/>
<ellipse fill="none" stroke="#000000" cx="374.3" cy="-584.4133" rx="3.2" ry="3.2"/>
</g>
<!-- user_bans&#45;&gt;users -->
<g id="edge10" class="edge">
<title>user_bans:w&#45;&gt;users:e</title>
<path fill="none" stroke="#000000" d="M370.9385,-584.119C224.0463,-578.3209 186.5576,-483.3794 120,-344.4003 86.2654,-273.959 157.6025,-173.4003 79.5,-173.4003"/>
<polygon fill="#000000" stroke="#000000" points="377.5015,-584.2457 385.4304,-587.9996 381.5007,-584.323 385.5,-584.4003 385.5,-584.4003 385.5,-584.4003 381.5007,-584.323 385.5696,-580.801 377.5015,-584.2457 377.5015,-584.2457"/>
<ellipse fill="none" stroke="#000000" cx="374.3021" cy="-584.1839" rx="3.2" ry="3.2"/>
</g>
<!-- user_chapter_roles -->
<g id="node10" class="node">
<title>user_chapter_roles</title>
<g id="a_node10"><a xlink:href="../../tables/user_chapter_roles.html" xlink:title="user_chapter_roles" target="_top">
<polygon fill="#ffffff" stroke="transparent" points="364,-76.9003 364,-137.9003 501,-137.9003 501,-76.9003 364,-76.9003"/>
<polygon fill="#f5f5f5" stroke="transparent" points="364.5,-114.4003 364.5,-137.4003 501.5,-137.4003 501.5,-114.4003 364.5,-114.4003"/>
<polygon fill="none" stroke="#000000" points="364.5,-114.4003 364.5,-137.4003 501.5,-137.4003 501.5,-114.4003 364.5,-114.4003"/>
<text text-anchor="start" x="369.4338" y="-123.5003" font-family="Helvetica,sans-Serif" font-weight="bold" font-size="11.00" fill="#000000">user_chapter_roles</text>
<text text-anchor="start" x="467.0219" y="-122.5003" font-family="Helvetica,sans-Serif" font-size="11.00" fill="#000000">[table]</text>
<polygon fill="none" stroke="#000000" points="364.5,-95.4003 364.5,-114.4003 501.5,-114.4003 501.5,-95.4003 364.5,-95.4003"/>
<text text-anchor="start" x="367.5" y="-101.5003" font-family="Helvetica,sans-Serif" font-size="11.00" fill="#000000">...</text>
<polygon fill="#ffffff" stroke="transparent" points="364.5,-76.4003 364.5,-95.4003 418.5,-95.4003 418.5,-76.4003 364.5,-76.4003"/>
<polygon fill="none" stroke="#000000" points="364.5,-76.4003 364.5,-95.4003 418.5,-95.4003 418.5,-76.4003 364.5,-76.4003"/>
<text text-anchor="start" x="367.5" y="-82.5003" font-family="Helvetica,sans-Serif" font-size="11.00" fill="#000000">&lt; 2</text>
<polygon fill="#ffffff" stroke="transparent" points="418.5,-76.4003 418.5,-95.4003 472.5,-95.4003 472.5,-76.4003 418.5,-76.4003"/>
<polygon fill="none" stroke="#000000" points="418.5,-76.4003 418.5,-95.4003 472.5,-95.4003 472.5,-76.4003 418.5,-76.4003"/>
<text text-anchor="start" x="437.1105" y="-82.5003" font-family="Helvetica,sans-Serif" font-size="11.00" fill="#000000">0 rows</text>
<polygon fill="#ffffff" stroke="transparent" points="472.5,-76.4003 472.5,-95.4003 501.5,-95.4003 501.5,-76.4003 472.5,-76.4003"/>
<polygon fill="none" stroke="#000000" points="472.5,-76.4003 472.5,-95.4003 501.5,-95.4003 501.5,-76.4003 472.5,-76.4003"/>
<text text-anchor="start" x="492.3862" y="-82.5003" font-family="Helvetica,sans-Serif" font-size="11.00" fill="#000000"> &#160;</text>
</a>
</g>
</g>
<!-- user_chapter_roles&#45;&gt;chapters -->
<g id="edge11" class="edge">
<title>user_chapter_roles:w&#45;&gt;chapters:e</title>
<path fill="none" stroke="#000000" d="M350.0808,-105.2592C318.4701,-109.3487 308.6247,-127.5572 277,-149.4003 251.884,-166.7478 256.5246,-195.4003 226,-195.4003"/>
<polygon fill="#000000" stroke="#000000" points="356.5142,-104.876 364.7141,-107.9939 360.5071,-104.6381 364.5,-104.4003 364.5,-104.4003 364.5,-104.4003 360.5071,-104.6381 364.2859,-100.8066 356.5142,-104.876 356.5142,-104.876"/>
<ellipse fill="none" stroke="#000000" cx="353.3198" cy="-105.0663" rx="3.2" ry="3.2"/>
</g>
<!-- user_chapter_roles&#45;&gt;users -->
<g id="edge12" class="edge">
<title>user_chapter_roles:w&#45;&gt;users:e</title>
<path fill="none" stroke="#000000" d="M349.9437,-104.1442C251.9038,-100.6883 210.8105,-64.1929 120,-114.4003 92.1652,-129.7896 111.3057,-173.4003 79.5,-173.4003"/>
<polygon fill="#000000" stroke="#000000" points="356.5012,-104.2595 364.4367,-107.9997 360.5006,-104.3299 364.5,-104.4003 364.5,-104.4003 364.5,-104.4003 360.5006,-104.3299 364.5633,-100.8008 356.5012,-104.2595 356.5012,-104.2595"/>
<ellipse fill="none" stroke="#000000" cx="353.3017" cy="-104.2032" rx="3.2" ry="3.2"/>
</g>
<!-- user_event_roles -->
<g id="node11" class="node">
<title>user_event_roles</title>
<g id="a_node11"><a xlink:href="../../tables/user_event_roles.html" xlink:title="user_event_roles" target="_top">
<polygon fill="#ffffff" stroke="transparent" points="629,-631.9003 629,-780.9003 756,-780.9003 756,-631.9003 629,-631.9003"/>
<polygon fill="#f5f5f5" stroke="transparent" points="629.5,-757.4003 629.5,-780.4003 756.5,-780.4003 756.5,-757.4003 629.5,-757.4003"/>
<polygon fill="none" stroke="#000000" points="629.5,-757.4003 629.5,-780.4003 756.5,-780.4003 756.5,-757.4003 629.5,-757.4003"/>
<text text-anchor="start" x="634.3222" y="-766.5003" font-family="Helvetica,sans-Serif" font-weight="bold" font-size="11.00" fill="#000000">user_event_roles</text>
<text text-anchor="start" x="722.0219" y="-765.5003" font-family="Helvetica,sans-Serif" font-size="11.00" fill="#000000">[table]</text>
<polygon fill="none" stroke="#000000" points="629.5,-735.4003 629.5,-757.4003 756.5,-757.4003 756.5,-735.4003 629.5,-735.4003"/>
<image xlink:href="../../images/primaryKeys.png" width="11px" height="12px" preserveAspectRatio="xMinYMin meet" x="634.5" y="-752.4"/>
<text text-anchor="start" x="653.5" y="-742.5003" font-family="Helvetica,sans-Serif" font-size="11.00" fill="#000000">id</text>
<polygon fill="none" stroke="#000000" points="629.5,-713.4003 629.5,-735.4003 756.5,-735.4003 756.5,-713.4003 629.5,-713.4003"/>
<image xlink:href="../../images/primaryKeys.png" width="11px" height="12px" preserveAspectRatio="xMinYMin meet" x="634.5" y="-730.4"/>
<text text-anchor="start" x="653.5" y="-720.5003" font-family="Helvetica,sans-Serif" font-size="11.00" fill="#000000">user_id</text>
<polygon fill="none" stroke="#000000" points="629.5,-691.4003 629.5,-713.4003 756.5,-713.4003 756.5,-691.4003 629.5,-691.4003"/>
<image xlink:href="../../images/primaryKeys.png" width="11px" height="12px" preserveAspectRatio="xMinYMin meet" x="634.5" y="-708.4"/>
<text text-anchor="start" x="653.5" y="-698.5003" font-family="Helvetica,sans-Serif" font-size="11.00" fill="#000000">event_id</text>
<polygon fill="none" stroke="#000000" points="629.5,-669.4003 629.5,-691.4003 756.5,-691.4003 756.5,-669.4003 629.5,-669.4003"/>
<image xlink:href="../../images/primaryKeys.png" width="11px" height="12px" preserveAspectRatio="xMinYMin meet" x="634.5" y="-686.4"/>
<text text-anchor="start" x="653.5" y="-676.5003" font-family="Helvetica,sans-Serif" font-size="11.00" fill="#000000">role_name</text>
<polygon fill="none" stroke="#000000" points="629.5,-650.4003 629.5,-669.4003 756.5,-669.4003 756.5,-650.4003 629.5,-650.4003"/>
<text text-anchor="start" x="632.5" y="-656.5003" font-family="Helvetica,sans-Serif" font-size="11.00" fill="#000000">...</text>
<polygon fill="#ffffff" stroke="transparent" points="629.5,-631.4003 629.5,-650.4003 678.5,-650.4003 678.5,-631.4003 629.5,-631.4003"/>
<polygon fill="none" stroke="#000000" points="629.5,-631.4003 629.5,-650.4003 678.5,-650.4003 678.5,-631.4003 629.5,-631.4003"/>
<text text-anchor="start" x="632.5" y="-637.5003" font-family="Helvetica,sans-Serif" font-size="11.00" fill="#000000">&lt; 2</text>
<polygon fill="#ffffff" stroke="transparent" points="678.5,-631.4003 678.5,-650.4003 730.5,-650.4003 730.5,-631.4003 678.5,-631.4003"/>
<polygon fill="none" stroke="#000000" points="678.5,-631.4003 678.5,-650.4003 730.5,-650.4003 730.5,-631.4003 678.5,-631.4003"/>
<text text-anchor="start" x="695.1105" y="-637.5003" font-family="Helvetica,sans-Serif" font-size="11.00" fill="#000000">0 rows</text>
<polygon fill="#ffffff" stroke="transparent" points="730.5,-631.4003 730.5,-650.4003 756.5,-650.4003 756.5,-631.4003 730.5,-631.4003"/>
<polygon fill="none" stroke="#000000" points="730.5,-631.4003 730.5,-650.4003 756.5,-650.4003 756.5,-631.4003 730.5,-631.4003"/>
<text text-anchor="start" x="747.3862" y="-637.5003" font-family="Helvetica,sans-Serif" font-size="11.00" fill="#000000"> &#160;</text>
</a>
</g>
</g>
<!-- user_event_roles&#45;&gt;users -->
<g id="edge14" class="edge">
<title>user_event_roles:w&#45;&gt;users:e</title>
<path fill="none" stroke="#000000" d="M615.0776,-724.5858C468.8506,-728.3537 407.9051,-787.4365 277,-710.4003 161.3164,-642.3217 165.4476,-578.7011 120,-452.4003 98.7879,-393.4508 142.1498,-173.4003 79.5,-173.4003"/>
<polygon fill="#000000" stroke="#000000" points="621.5007,-724.5032 629.5463,-728 625.5003,-724.4518 629.5,-724.4003 629.5,-724.4003 629.5,-724.4003 625.5003,-724.4518 629.4537,-720.8006 621.5007,-724.5032 621.5007,-724.5032"/>
<ellipse fill="none" stroke="#000000" cx="618.3009" cy="-724.5444" rx="3.2" ry="3.2"/>
</g>
<!-- user_event_roles&#45;&gt;events -->
<g id="edge13" class="edge">
<title>user_event_roles:w&#45;&gt;events:e</title>
<path fill="none" stroke="#000000" d="M615.0098,-700.2578C551.9919,-678.5624 665.8935,-499.4003 578.5,-499.4003"/>
<polygon fill="#000000" stroke="#000000" points="621.586,-701.2301 628.9734,-705.9616 625.543,-701.8152 629.5,-702.4003 629.5,-702.4003 629.5,-702.4003 625.543,-701.8152 630.0266,-698.839 621.586,-701.2301 621.586,-701.2301"/>
<ellipse fill="none" stroke="#000000" cx="618.4204" cy="-700.7621" rx="3.2" ry="3.2"/>
</g>
</g>
</svg>
