<?xml version="1.0" encoding="UTF-8" standalone="no"?>
<!DOCTYPE svg PUBLIC "-//W3C//DTD SVG 1.1//EN"
 "http://www.w3.org/Graphics/SVG/1.1/DTD/svg11.dtd">
<!-- Generated by graphviz version 2.40.1 (20161225.0304)
 -->
<!-- Title: twoDegreesRelationshipsDiagram Pages: 1 -->
<svg width="456pt" height="305pt"
 viewBox="0.00 0.00 456.00 305.20" xmlns="http://www.w3.org/2000/svg" xmlns:xlink="http://www.w3.org/1999/xlink">
<g id="graph0" class="graph" transform="scale(1 1) rotate(0) translate(4 301.2)">
<title>twoDegreesRelationshipsDiagram</title>
<polygon fill="#ffffff" stroke="transparent" points="-4,4 -4,-301.2 452,-301.2 452,4 -4,4"/>
<text text-anchor="middle" x="72.4936" y="-7.3" font-family="Helvetica,sans-Serif" font-size="11.00" fill="#000000">Generated by SchemaSpy</text>
<!-- event_role_permissions -->
<g id="node1" class="node">
<title>event_role_permissions</title>
<g id="a_node1"><a xlink:href="../../tables/event_role_permissions.html" xlink:title="event_role_permissions" target="_top">
<polygon fill="#ffffff" stroke="transparent" points="191,-76.7 191,-210.7 440,-210.7 440,-76.7 191,-76.7"/>
<polygon fill="#f5f5f5" stroke="transparent" points="193.5,-185.7 193.5,-208.7 438.5,-208.7 438.5,-185.7 193.5,-185.7"/>
<polygon fill="none" stroke="#000000" points="193.5,-185.7 193.5,-208.7 438.5,-208.7 438.5,-185.7 193.5,-185.7"/>
<text text-anchor="start" x="198.5" y="-194.8" font-family="Helvetica,sans-Serif" font-weight="bold" font-size="11.00" fill="#000000">event_role_permissions</text>
<text text-anchor="start" x="403.5437" y="-193.8" font-family="Helvetica,sans-Serif" font-size="11.00" fill="#000000">[table]</text>
<polygon fill="none" stroke="#000000" points="193.5,-163.7 193.5,-185.7 354.5,-185.7 354.5,-163.7 193.5,-163.7"/>
<text text-anchor="start" x="213.5" y="-170.8" font-family="Helvetica,sans-Serif" font-size="11.00" fill="#000000">created_at</text>
<polygon fill="none" stroke="#000000" points="354.5,-163.7 354.5,-185.7 438.5,-185.7 438.5,-163.7 354.5,-163.7"/>
<text text-anchor="start" x="357.3807" y="-171.4" font-family="Helvetica,sans-Serif" font-size="11.00" fill="#000000">timestamp[26,3]</text>
<polygon fill="none" stroke="#000000" points="193.5,-141.7 193.5,-163.7 354.5,-163.7 354.5,-141.7 193.5,-141.7"/>
<text text-anchor="start" x="213.5" y="-148.8" font-family="Helvetica,sans-Serif" font-size="11.00" fill="#000000">updated_at</text>
<polygon fill="none" stroke="#000000" points="354.5,-141.7 354.5,-163.7 438.5,-163.7 438.5,-141.7 354.5,-141.7"/>
<text text-anchor="start" x="357.3807" y="-149.4" font-family="Helvetica,sans-Serif" font-size="11.00" fill="#000000">timestamp[26,3]</text>
<polygon fill="none" stroke="#000000" points="193.5,-119.7 193.5,-141.7 354.5,-141.7 354.5,-119.7 193.5,-119.7"/>
<image xlink:href="../../images/primaryKeys.png" width="11px" height="12px" preserveAspectRatio="xMinYMin meet" x="198.5" y="-136.7"/>
<text text-anchor="start" x="213.5" y="-126.8" font-family="Helvetica,sans-Serif" font-size="11.00" fill="#000000">event_role_id</text>
<polygon fill="none" stroke="#000000" points="354.5,-119.7 354.5,-141.7 438.5,-141.7 438.5,-119.7 354.5,-119.7"/>
<text text-anchor="start" x="357.5" y="-127.4" font-family="Helvetica,sans-Serif" font-size="11.00" fill="#000000">int4[10]</text>
<polygon fill="none" stroke="#000000" points="193.5,-97.7 193.5,-119.7 354.5,-119.7 354.5,-97.7 193.5,-97.7"/>
<image xlink:href="../../images/primaryKeys.png" width="11px" height="12px" preserveAspectRatio="xMinYMin meet" x="198.5" y="-114.7"/>
<text text-anchor="start" x="213.5" y="-104.8" font-family="Helvetica,sans-Serif" font-size="11.00" fill="#000000">event_permission_id</text>
<polygon fill="none" stroke="#000000" points="354.5,-97.7 354.5,-119.7 438.5,-119.7 438.5,-97.7 354.5,-97.7"/>
<text text-anchor="start" x="357.5" y="-105.4" font-family="Helvetica,sans-Serif" font-size="11.00" fill="#000000">int4[10]</text>
<polygon fill="#ffffff" stroke="transparent" points="193.5,-78.7 193.5,-97.7 265.5,-97.7 265.5,-78.7 193.5,-78.7"/>
<polygon fill="none" stroke="#000000" points="193.5,-78.7 193.5,-97.7 265.5,-97.7 265.5,-78.7 193.5,-78.7"/>
<text text-anchor="start" x="196.5" y="-84.8" font-family="Helvetica,sans-Serif" font-size="11.00" fill="#000000">&lt; 2</text>
<polygon fill="#ffffff" stroke="transparent" points="265.5,-78.7 265.5,-97.7 354.5,-97.7 354.5,-78.7 265.5,-78.7"/>
<polygon fill="none" stroke="#000000" points="265.5,-78.7 265.5,-97.7 354.5,-97.7 354.5,-78.7 265.5,-78.7"/>
<text text-anchor="start" x="319.1105" y="-84.8" font-family="Helvetica,sans-Serif" font-size="11.00" fill="#000000">0 rows</text>
<polygon fill="#ffffff" stroke="transparent" points="354.5,-78.7 354.5,-97.7 438.5,-97.7 438.5,-78.7 354.5,-78.7"/>
<polygon fill="none" stroke="#000000" points="354.5,-78.7 354.5,-97.7 438.5,-97.7 438.5,-78.7 354.5,-78.7"/>
<text text-anchor="start" x="419.9053" y="-84.8" font-family="Helvetica,sans-Serif" font-size="11.00" fill="#000000">0 &gt;</text>
<polygon fill="none" stroke="#000000" stroke-width="2" points="192,-77.7 192,-209.7 439,-209.7 439,-77.7 192,-77.7"/>
</a>
</g>
</g>
<!-- event_permissions -->
<g id="node2" class="node">
<title>event_permissions</title>
<g id="a_node2"><a xlink:href="../../tables/event_permissions.html" xlink:title="event_permissions" target="_top">
<polygon fill="#ffffff" stroke="transparent" points="8,-38.2 8,-143.2 142,-143.2 142,-38.2 8,-38.2"/>
<polygon fill="#f5f5f5" stroke="transparent" points="8,-119.7 8,-142.7 142,-142.7 142,-119.7 8,-119.7"/>
<polygon fill="none" stroke="#000000" points="8,-119.7 8,-142.7 142,-142.7 142,-119.7 8,-119.7"/>
<text text-anchor="start" x="12.6592" y="-128.8" font-family="Helvetica,sans-Serif" font-weight="bold" font-size="11.00" fill="#000000">event_permissions</text>
<text text-anchor="start" x="107.5219" y="-127.8" font-family="Helvetica,sans-Serif" font-size="11.00" fill="#000000">[table]</text>
<polygon fill="none" stroke="#000000" points="8,-97.7 8,-119.7 142,-119.7 142,-97.7 8,-97.7"/>
<image xlink:href="../../images/primaryKeys.png" width="11px" height="12px" preserveAspectRatio="xMinYMin meet" x="13" y="-114.7"/>
<text text-anchor="start" x="29" y="-104.8" font-family="Helvetica,sans-Serif" font-size="11.00" fill="#000000">id</text>
<polygon fill="#ffffff" stroke="transparent" points="8,-75.7 8,-97.7 142,-97.7 142,-75.7 8,-75.7"/>
<polygon fill="none" stroke="#000000" points="8,-75.7 8,-97.7 142,-97.7 142,-75.7 8,-75.7"/>
<text text-anchor="start" x="29" y="-82.8" font-family="Helvetica,sans-Serif" font-size="11.00" fill="#000000">name</text>
<polygon fill="none" stroke="#000000" points="8,-56.7 8,-75.7 142,-75.7 142,-56.7 8,-56.7"/>
<text text-anchor="start" x="11" y="-62.8" font-family="Helvetica,sans-Serif" font-size="11.00" fill="#000000">...</text>
<polygon fill="#ffffff" stroke="transparent" points="8,-37.7 8,-56.7 51,-56.7 51,-37.7 8,-37.7"/>
<polygon fill="none" stroke="#000000" points="8,-37.7 8,-56.7 51,-56.7 51,-37.7 8,-37.7"/>
<text text-anchor="start" x="11" y="-43.8" font-family="Helvetica,sans-Serif" font-size="11.00" fill="#000000"> &#160;</text>
<polygon fill="#ffffff" stroke="transparent" points="51,-37.7 51,-56.7 105,-56.7 105,-37.7 51,-37.7"/>
<polygon fill="none" stroke="#000000" points="51,-37.7 51,-56.7 105,-56.7 105,-37.7 51,-37.7"/>
<text text-anchor="start" x="69.6105" y="-43.8" font-family="Helvetica,sans-Serif" font-size="11.00" fill="#000000">0 rows</text>
<polygon fill="#ffffff" stroke="transparent" points="105,-37.7 105,-56.7 142,-56.7 142,-37.7 105,-37.7"/>
<polygon fill="none" stroke="#000000" points="105,-37.7 105,-56.7 142,-56.7 142,-37.7 105,-37.7"/>
<text text-anchor="start" x="123.4053" y="-43.8" font-family="Helvetica,sans-Serif" font-size="11.00" fill="#000000">1 &gt;</text>
</a>
</g>
</g>
<!-- event_role_permissions&#45;&gt;event_permissions -->
<g id="edge1" class="edge">
<title>event_role_permissions:w&#45;&gt;event_permissions:e</title>
<path fill="none" stroke="#000000" d="M179.0156,-108.7C166.6771,-108.7 159.1667,-108.7 142,-108.7"/>
<polygon fill="#000000" stroke="#000000" points="185.5,-108.7001 193.5,-112.3 189.5,-108.7 193.5,-108.7 193.5,-108.7 193.5,-108.7 189.5,-108.7 193.5,-105.1 185.5,-108.7001 185.5,-108.7001"/>
<ellipse fill="none" stroke="#000000" cx="182.3" cy="-108.7001" rx="3.2" ry="3.2"/>
</g>
<!-- event_roles -->
<g id="node3" class="node">
<title>event_roles</title>
<g id="a_node3"><a xlink:href="../../tables/event_roles.html" xlink:title="event_roles" target="_top">
<polygon fill="#ffffff" stroke="transparent" points="25.5,-176.2 25.5,-281.2 124.5,-281.2 124.5,-176.2 25.5,-176.2"/>
<polygon fill="#f5f5f5" stroke="transparent" points="26,-257.7 26,-280.7 125,-280.7 125,-257.7 26,-257.7"/>
<polygon fill="none" stroke="#000000" points="26,-257.7 26,-280.7 125,-280.7 125,-257.7 26,-257.7"/>
<text text-anchor="start" x="30.5755" y="-266.8" font-family="Helvetica,sans-Serif" font-weight="bold" font-size="11.00" fill="#000000">event_roles</text>
<text text-anchor="start" x="90.5219" y="-265.8" font-family="Helvetica,sans-Serif" font-size="11.00" fill="#000000">[table]</text>
<polygon fill="none" stroke="#000000" points="26,-235.7 26,-257.7 125,-257.7 125,-235.7 26,-235.7"/>
<image xlink:href="../../images/primaryKeys.png" width="11px" height="12px" preserveAspectRatio="xMinYMin meet" x="31" y="-252.7"/>
<text text-anchor="start" x="51" y="-242.8" font-family="Helvetica,sans-Serif" font-size="11.00" fill="#000000">id</text>
<polygon fill="#ffffff" stroke="transparent" points="26,-213.7 26,-235.7 125,-235.7 125,-213.7 26,-213.7"/>
<polygon fill="none" stroke="#000000" points="26,-213.7 26,-235.7 125,-235.7 125,-213.7 26,-213.7"/>
<text text-anchor="start" x="51" y="-220.8" font-family="Helvetica,sans-Serif" font-size="11.00" fill="#000000">name</text>
<polygon fill="none" stroke="#000000" points="26,-194.7 26,-213.7 125,-213.7 125,-194.7 26,-194.7"/>
<text text-anchor="start" x="29" y="-200.8" font-family="Helvetica,sans-Serif" font-size="11.00" fill="#000000">...</text>
<polygon fill="#ffffff" stroke="transparent" points="26,-175.7 26,-194.7 55,-194.7 55,-175.7 26,-175.7"/>
<polygon fill="none" stroke="#000000" points="26,-175.7 26,-194.7 55,-194.7 55,-175.7 26,-175.7"/>
<text text-anchor="start" x="29" y="-181.8" font-family="Helvetica,sans-Serif" font-size="11.00" fill="#000000"> &#160;</text>
<polygon fill="#ffffff" stroke="transparent" points="55,-175.7 55,-194.7 95,-194.7 95,-175.7 55,-175.7"/>
<polygon fill="none" stroke="#000000" points="55,-175.7 55,-194.7 95,-194.7 95,-175.7 55,-175.7"/>
<text text-anchor="start" x="65.1105" y="-181.8" font-family="Helvetica,sans-Serif" font-size="11.00" fill="#000000">1 row</text>
<polygon fill="#ffffff" stroke="transparent" points="95,-175.7 95,-194.7 125,-194.7 125,-175.7 95,-175.7"/>
<polygon fill="none" stroke="#000000" points="95,-175.7 95,-194.7 125,-194.7 125,-175.7 95,-175.7"/>
<text text-anchor="start" x="106.4053" y="-181.8" font-family="Helvetica,sans-Serif" font-size="11.00" fill="#000000">2 &gt;</text>
</a>
</g>
</g>
<!-- event_role_permissions&#45;&gt;event_roles -->
<g id="edge2" class="edge">
<title>event_role_permissions:w&#45;&gt;event_roles:e</title>
<path fill="none" stroke="#000000" d="M178.9311,-133.8027C142.5759,-152.25 179.0265,-246.7 125,-246.7"/>
<polygon fill="#000000" stroke="#000000" points="185.6755,-132.3664 194.2499,-134.221 189.5877,-131.5332 193.5,-130.7 193.5,-130.7 193.5,-130.7 189.5877,-131.5332 192.7501,-127.179 185.6755,-132.3664 185.6755,-132.3664"/>
<ellipse fill="none" stroke="#000000" cx="182.5457" cy="-133.033" rx="3.2" ry="3.2"/>
</g>
<!-- event_users -->
<g id="node4" class="node">
<title>event_users</title>
<g id="a_node4"><a xlink:href="../../tables/event_users.html" xlink:title="event_users" target="_top">
<polygon fill="#ffffff" stroke="transparent" points="264.5,-232.2 264.5,-293.2 366.5,-293.2 366.5,-232.2 264.5,-232.2"/>
<polygon fill="#f5f5f5" stroke="transparent" points="264.5,-269.7 264.5,-292.7 366.5,-292.7 366.5,-269.7 264.5,-269.7"/>
<polygon fill="none" stroke="#000000" points="264.5,-269.7 264.5,-292.7 366.5,-292.7 366.5,-269.7 264.5,-269.7"/>
<text text-anchor="start" x="269.0459" y="-278.8" font-family="Helvetica,sans-Serif" font-weight="bold" font-size="11.00" fill="#000000">event_users</text>
<text text-anchor="start" x="332.0219" y="-277.8" font-family="Helvetica,sans-Serif" font-size="11.00" fill="#000000">[table]</text>
<polygon fill="none" stroke="#000000" points="264.5,-250.7 264.5,-269.7 366.5,-269.7 366.5,-250.7 264.5,-250.7"/>
<text text-anchor="start" x="267.5" y="-256.8" font-family="Helvetica,sans-Serif" font-size="11.00" fill="#000000">...</text>
<polygon fill="#ffffff" stroke="transparent" points="264.5,-231.7 264.5,-250.7 296.5,-250.7 296.5,-231.7 264.5,-231.7"/>
<polygon fill="none" stroke="#000000" points="264.5,-231.7 264.5,-250.7 296.5,-250.7 296.5,-231.7 264.5,-231.7"/>
<text text-anchor="start" x="267.5" y="-237.8" font-family="Helvetica,sans-Serif" font-size="11.00" fill="#000000">&lt; 4</text>
<polygon fill="#ffffff" stroke="transparent" points="296.5,-231.7 296.5,-250.7 339.5,-250.7 339.5,-231.7 296.5,-231.7"/>
<polygon fill="none" stroke="#000000" points="296.5,-231.7 296.5,-250.7 339.5,-250.7 339.5,-231.7 296.5,-231.7"/>
<text text-anchor="start" x="304.1105" y="-237.8" font-family="Helvetica,sans-Serif" font-size="11.00" fill="#000000">0 rows</text>
<polygon fill="#ffffff" stroke="transparent" points="339.5,-231.7 339.5,-250.7 366.5,-250.7 366.5,-231.7 339.5,-231.7"/>
<polygon fill="none" stroke="#000000" points="339.5,-231.7 339.5,-250.7 366.5,-250.7 366.5,-231.7 339.5,-231.7"/>
<text text-anchor="start" x="347.9053" y="-237.8" font-family="Helvetica,sans-Serif" font-size="11.00" fill="#000000">2 &gt;</text>
</a>
</g>
</g>
<!-- event_users&#45;&gt;event_roles -->
<g id="edge3" class="edge">
<title>event_users:w&#45;&gt;event_roles:e</title>
<path fill="none" stroke="#000000" d="M250.0788,-259.4519C199.4582,-257.6547 182.1607,-246.7 125,-246.7"/>
<polygon fill="#000000" stroke="#000000" points="256.5012,-259.5623 264.4381,-263.2995 260.5006,-259.6312 264.5,-259.7 264.5,-259.7 264.5,-259.7 260.5006,-259.6312 264.5619,-256.1005 256.5012,-259.5623 256.5012,-259.5623"/>
<ellipse fill="none" stroke="#000000" cx="253.3017" cy="-259.5073" rx="3.2" ry="3.2"/>
</g>
</g>
</svg>
