<?xml version="1.0" encoding="UTF-8" standalone="no"?>
<!DOCTYPE svg PUBLIC "-//W3C//DTD SVG 1.1//EN"
 "http://www.w3.org/Graphics/SVG/1.1/DTD/svg11.dtd">
<!-- Generated by graphviz version 2.40.1 (20161225.0304)
 -->
<!-- Title: twoDegreesRelationshipsDiagram Pages: 1 -->
<svg width="487pt" height="387pt"
 viewBox="0.00 0.00 487.00 387.20" xmlns="http://www.w3.org/2000/svg" xmlns:xlink="http://www.w3.org/1999/xlink">
<g id="graph0" class="graph" transform="scale(1 1) rotate(0) translate(4 383.2)">
<title>twoDegreesRelationshipsDiagram</title>
<polygon fill="#ffffff" stroke="transparent" points="-4,4 -4,-383.2 483,-383.2 483,4 -4,4"/>
<text text-anchor="middle" x="72.4936" y="-7.3" font-family="Helvetica,sans-Serif" font-size="11.00" fill="#000000">Generated by SchemaSpy</text>
<!-- event_sponsors -->
<g id="node1" class="node">
<title>event_sponsors</title>
<g id="a_node1"><a xlink:href="../../tables/event_sponsors.html" xlink:title="event_sponsors" target="_top">
<polygon fill="#ffffff" stroke="transparent" points="323,-314.2 323,-375.2 443,-375.2 443,-314.2 323,-314.2"/>
<polygon fill="#f5f5f5" stroke="transparent" points="323,-351.7 323,-374.7 443,-374.7 443,-351.7 323,-351.7"/>
<polygon fill="none" stroke="#000000" points="323,-351.7 323,-374.7 443,-374.7 443,-351.7 323,-351.7"/>
<text text-anchor="start" x="327.681" y="-360.8" font-family="Helvetica,sans-Serif" font-weight="bold" font-size="11.00" fill="#000000">event_sponsors</text>
<text text-anchor="start" x="408.5219" y="-359.8" font-family="Helvetica,sans-Serif" font-size="11.00" fill="#000000">[table]</text>
<polygon fill="none" stroke="#000000" points="323,-332.7 323,-351.7 443,-351.7 443,-332.7 323,-332.7"/>
<text text-anchor="start" x="326" y="-338.8" font-family="Helvetica,sans-Serif" font-size="11.00" fill="#000000">...</text>
<polygon fill="#ffffff" stroke="transparent" points="323,-313.7 323,-332.7 368,-332.7 368,-313.7 323,-313.7"/>
<polygon fill="none" stroke="#000000" points="323,-313.7 323,-332.7 368,-332.7 368,-313.7 323,-313.7"/>
<text text-anchor="start" x="326" y="-319.8" font-family="Helvetica,sans-Serif" font-size="11.00" fill="#000000">&lt; 2</text>
<polygon fill="#ffffff" stroke="transparent" points="368,-313.7 368,-332.7 418,-332.7 418,-313.7 368,-313.7"/>
<polygon fill="none" stroke="#000000" points="368,-313.7 368,-332.7 418,-332.7 418,-313.7 368,-313.7"/>
<text text-anchor="start" x="382.6105" y="-319.8" font-family="Helvetica,sans-Serif" font-size="11.00" fill="#000000">0 rows</text>
<polygon fill="#ffffff" stroke="transparent" points="418,-313.7 418,-332.7 443,-332.7 443,-313.7 418,-313.7"/>
<polygon fill="none" stroke="#000000" points="418,-313.7 418,-332.7 443,-332.7 443,-313.7 418,-313.7"/>
<text text-anchor="start" x="433.8862" y="-319.8" font-family="Helvetica,sans-Serif" font-size="11.00" fill="#000000"> &#160;</text>
</a>
</g>
</g>
<!-- events -->
<g id="node2" class="node">
<title>events</title>
<g id="a_node2"><a xlink:href="../../tables/events.html" xlink:title="events" target="_top">
<polygon fill="#ffffff" stroke="transparent" points="142,-167.2 142,-294.2 246,-294.2 246,-167.2 142,-167.2"/>
<polygon fill="#f5f5f5" stroke="transparent" points="142,-270.7 142,-293.7 246,-293.7 246,-270.7 142,-270.7"/>
<polygon fill="none" stroke="#000000" points="142,-270.7 142,-293.7 246,-293.7 246,-270.7 142,-270.7"/>
<text text-anchor="start" x="147" y="-279.8" font-family="Helvetica,sans-Serif" font-weight="bold" font-size="11.00" fill="#000000">events</text>
<text text-anchor="start" x="211.0437" y="-278.8" font-family="Helvetica,sans-Serif" font-size="11.00" fill="#000000">[table]</text>
<polygon fill="none" stroke="#000000" points="142,-248.7 142,-270.7 246,-270.7 246,-248.7 142,-248.7"/>
<image xlink:href="../../images/primaryKeys.png" width="11px" height="12px" preserveAspectRatio="xMinYMin meet" x="147" y="-265.7"/>
<text text-anchor="start" x="162" y="-255.8" font-family="Helvetica,sans-Serif" font-size="11.00" fill="#000000">id</text>
<polygon fill="none" stroke="#000000" points="142,-226.7 142,-248.7 246,-248.7 246,-226.7 142,-226.7"/>
<image xlink:href="../../images/foreignKeys.png" width="11px" height="12px" preserveAspectRatio="xMinYMin meet" x="147" y="-243.7"/>
<text text-anchor="start" x="162" y="-233.8" font-family="Helvetica,sans-Serif" font-size="11.00" fill="#000000">venue_id</text>
<polygon fill="none" stroke="#000000" points="142,-204.7 142,-226.7 246,-226.7 246,-204.7 142,-204.7"/>
<image xlink:href="../../images/foreignKeys.png" width="11px" height="12px" preserveAspectRatio="xMinYMin meet" x="147" y="-221.7"/>
<text text-anchor="start" x="162" y="-211.8" font-family="Helvetica,sans-Serif" font-size="11.00" fill="#000000">chapter_id</text>
<polygon fill="none" stroke="#000000" points="142,-185.7 142,-204.7 246,-204.7 246,-185.7 142,-185.7"/>
<text text-anchor="start" x="145" y="-191.8" font-family="Helvetica,sans-Serif" font-size="11.00" fill="#000000">...</text>
<polygon fill="#ffffff" stroke="transparent" points="142,-166.7 142,-185.7 175,-185.7 175,-166.7 142,-166.7"/>
<polygon fill="none" stroke="#000000" points="142,-166.7 142,-185.7 175,-185.7 175,-166.7 142,-166.7"/>
<text text-anchor="start" x="145" y="-172.8" font-family="Helvetica,sans-Serif" font-size="11.00" fill="#000000">&lt; 2</text>
<polygon fill="#ffffff" stroke="transparent" points="175,-166.7 175,-185.7 219,-185.7 219,-166.7 175,-166.7"/>
<polygon fill="none" stroke="#000000" points="175,-166.7 175,-185.7 219,-185.7 219,-166.7 175,-166.7"/>
<text text-anchor="start" x="183.6105" y="-172.8" font-family="Helvetica,sans-Serif" font-size="11.00" fill="#000000">0 rows</text>
<polygon fill="#ffffff" stroke="transparent" points="219,-166.7 219,-185.7 246,-185.7 246,-166.7 219,-166.7"/>
<polygon fill="none" stroke="#000000" points="219,-166.7 219,-185.7 246,-185.7 246,-166.7 219,-166.7"/>
<text text-anchor="start" x="227.4053" y="-172.8" font-family="Helvetica,sans-Serif" font-size="11.00" fill="#000000">3 &gt;</text>
</a>
</g>
</g>
<!-- event_sponsors&#45;&gt;events -->
<g id="edge1" class="edge">
<title>event_sponsors:w&#45;&gt;events:e</title>
<path fill="none" stroke="#000000" d="M308.6074,-338.7816C277.2779,-324.1742 290.3302,-259.7 246,-259.7"/>
<polygon fill="#000000" stroke="#000000" points="315.1596,-340.1101 322.2846,-345.2282 319.0798,-340.9051 323,-341.7 323,-341.7 323,-341.7 319.0798,-340.9051 323.7154,-338.1718 315.1596,-340.1101 315.1596,-340.1101"/>
<ellipse fill="none" stroke="#000000" cx="312.0234" cy="-339.4742" rx="3.2" ry="3.2"/>
</g>
<!-- chapters -->
<g id="node6" class="node">
<title>chapters</title>
<g id="a_node6"><a xlink:href="../../tables/chapters.html" xlink:title="chapters" target="_top">
<polygon fill="#ffffff" stroke="transparent" points="8,-158.2 8,-219.2 93,-219.2 93,-158.2 8,-158.2"/>
<polygon fill="#f5f5f5" stroke="transparent" points="8.5,-195.7 8.5,-218.7 93.5,-218.7 93.5,-195.7 8.5,-195.7"/>
<polygon fill="none" stroke="#000000" points="8.5,-195.7 8.5,-218.7 93.5,-218.7 93.5,-195.7 8.5,-195.7"/>
<text text-anchor="start" x="13.4108" y="-204.8" font-family="Helvetica,sans-Serif" font-weight="bold" font-size="11.00" fill="#000000">chapters</text>
<text text-anchor="start" x="59.0219" y="-203.8" font-family="Helvetica,sans-Serif" font-size="11.00" fill="#000000">[table]</text>
<polygon fill="none" stroke="#000000" points="8.5,-176.7 8.5,-195.7 93.5,-195.7 93.5,-176.7 8.5,-176.7"/>
<text text-anchor="start" x="11.5" y="-182.8" font-family="Helvetica,sans-Serif" font-size="11.00" fill="#000000">...</text>
<polygon fill="#ffffff" stroke="transparent" points="8.5,-157.7 8.5,-176.7 27.5,-176.7 27.5,-157.7 8.5,-157.7"/>
<polygon fill="none" stroke="#000000" points="8.5,-157.7 8.5,-176.7 27.5,-176.7 27.5,-157.7 8.5,-157.7"/>
<text text-anchor="start" x="11.5" y="-163.8" font-family="Helvetica,sans-Serif" font-size="11.00" fill="#000000"> &#160;</text>
<polygon fill="#ffffff" stroke="transparent" points="27.5,-157.7 27.5,-176.7 68.5,-176.7 68.5,-157.7 27.5,-157.7"/>
<polygon fill="none" stroke="#000000" points="27.5,-157.7 27.5,-176.7 68.5,-176.7 68.5,-157.7 27.5,-157.7"/>
<text text-anchor="start" x="33.1105" y="-163.8" font-family="Helvetica,sans-Serif" font-size="11.00" fill="#000000">0 rows</text>
<polygon fill="#ffffff" stroke="transparent" points="68.5,-157.7 68.5,-176.7 93.5,-176.7 93.5,-157.7 68.5,-157.7"/>
<polygon fill="none" stroke="#000000" points="68.5,-157.7 68.5,-176.7 93.5,-176.7 93.5,-157.7 68.5,-157.7"/>
<text text-anchor="start" x="74.9053" y="-163.8" font-family="Helvetica,sans-Serif" font-size="11.00" fill="#000000">3 &gt;</text>
</a>
</g>
</g>
<!-- events&#45;&gt;chapters -->
<g id="edge5" class="edge">
<title>events:w&#45;&gt;chapters:e</title>
<path fill="none" stroke="#000000" d="M128.0076,-211.5286C116.1688,-203.2854 112.9055,-185.7 93.5,-185.7"/>
<polygon fill="#000000" stroke="#000000" points="134.3334,-213.4144 140.9715,-219.15 138.1667,-214.5572 142,-215.7 142,-215.7 142,-215.7 138.1667,-214.5572 143.0285,-212.25 134.3334,-213.4144 134.3334,-213.4144"/>
<ellipse fill="none" stroke="#000000" cx="131.2668" cy="-212.5002" rx="3.2" ry="3.2"/>
</g>
<!-- venues -->
<g id="node7" class="node">
<title>venues</title>
<g id="a_node7"><a xlink:href="../../tables/venues.html" xlink:title="venues" target="_top">
<polygon fill="#ffffff" stroke="transparent" points="11.5,-240.2 11.5,-301.2 89.5,-301.2 89.5,-240.2 11.5,-240.2"/>
<polygon fill="#f5f5f5" stroke="transparent" points="11.5,-277.7 11.5,-300.7 89.5,-300.7 89.5,-277.7 11.5,-277.7"/>
<polygon fill="none" stroke="#000000" points="11.5,-277.7 11.5,-300.7 89.5,-300.7 89.5,-277.7 11.5,-277.7"/>
<text text-anchor="start" x="16.2702" y="-286.8" font-family="Helvetica,sans-Serif" font-weight="bold" font-size="11.00" fill="#000000">venues</text>
<text text-anchor="start" x="55.0219" y="-285.8" font-family="Helvetica,sans-Serif" font-size="11.00" fill="#000000">[table]</text>
<polygon fill="none" stroke="#000000" points="11.5,-258.7 11.5,-277.7 89.5,-277.7 89.5,-258.7 11.5,-258.7"/>
<text text-anchor="start" x="14.5" y="-264.8" font-family="Helvetica,sans-Serif" font-size="11.00" fill="#000000">...</text>
<polygon fill="#ffffff" stroke="transparent" points="11.5,-239.7 11.5,-258.7 26.5,-258.7 26.5,-239.7 11.5,-239.7"/>
<polygon fill="none" stroke="#000000" points="11.5,-239.7 11.5,-258.7 26.5,-258.7 26.5,-239.7 11.5,-239.7"/>
<text text-anchor="start" x="14.5" y="-245.8" font-family="Helvetica,sans-Serif" font-size="11.00" fill="#000000"> &#160;</text>
<polygon fill="#ffffff" stroke="transparent" points="26.5,-239.7 26.5,-258.7 66.5,-258.7 66.5,-239.7 26.5,-239.7"/>
<polygon fill="none" stroke="#000000" points="26.5,-239.7 26.5,-258.7 66.5,-258.7 66.5,-239.7 26.5,-239.7"/>
<text text-anchor="start" x="31.1105" y="-245.8" font-family="Helvetica,sans-Serif" font-size="11.00" fill="#000000">0 rows</text>
<polygon fill="#ffffff" stroke="transparent" points="66.5,-239.7 66.5,-258.7 89.5,-258.7 89.5,-239.7 66.5,-239.7"/>
<polygon fill="none" stroke="#000000" points="66.5,-239.7 66.5,-258.7 89.5,-258.7 89.5,-239.7 66.5,-239.7"/>
<text text-anchor="start" x="70.9053" y="-245.8" font-family="Helvetica,sans-Serif" font-size="11.00" fill="#000000">1 &gt;</text>
</a>
</g>
</g>
<!-- events&#45;&gt;venues -->
<g id="edge6" class="edge">
<title>events:w&#45;&gt;venues:e</title>
<path fill="none" stroke="#000000" d="M127.8122,-241.3786C114.3263,-249.3895 110.4955,-267.7 89.5,-267.7"/>
<polygon fill="#000000" stroke="#000000" points="134.2561,-239.7079 142.9035,-241.1848 138.128,-238.7039 142,-237.7 142,-237.7 142,-237.7 138.128,-238.7039 141.0965,-234.2152 134.2561,-239.7079 134.2561,-239.7079"/>
<ellipse fill="none" stroke="#000000" cx="131.1585" cy="-240.511" rx="3.2" ry="3.2"/>
</g>
<!-- event_tags -->
<g id="node3" class="node">
<title>event_tags</title>
<g id="a_node3"><a xlink:href="../../tables/event_tags.html" xlink:title="event_tags" target="_top">
<polygon fill="#ffffff" stroke="transparent" points="295,-76.7 295,-210.7 471,-210.7 471,-76.7 295,-76.7"/>
<polygon fill="#f5f5f5" stroke="transparent" points="297,-185.7 297,-208.7 469,-208.7 469,-185.7 297,-185.7"/>
<polygon fill="none" stroke="#000000" points="297,-185.7 297,-208.7 469,-208.7 469,-185.7 297,-185.7"/>
<text text-anchor="start" x="302" y="-194.8" font-family="Helvetica,sans-Serif" font-weight="bold" font-size="11.00" fill="#000000">event_tags</text>
<text text-anchor="start" x="434.0437" y="-193.8" font-family="Helvetica,sans-Serif" font-size="11.00" fill="#000000">[table]</text>
<polygon fill="none" stroke="#000000" points="297,-163.7 297,-185.7 385,-185.7 385,-163.7 297,-163.7"/>
<text text-anchor="start" x="317" y="-170.8" font-family="Helvetica,sans-Serif" font-size="11.00" fill="#000000">created_at</text>
<polygon fill="none" stroke="#000000" points="385,-163.7 385,-185.7 469,-185.7 469,-163.7 385,-163.7"/>
<text text-anchor="start" x="387.8807" y="-171.4" font-family="Helvetica,sans-Serif" font-size="11.00" fill="#000000">timestamp[26,3]</text>
<polygon fill="none" stroke="#000000" points="297,-141.7 297,-163.7 385,-163.7 385,-141.7 297,-141.7"/>
<text text-anchor="start" x="317" y="-148.8" font-family="Helvetica,sans-Serif" font-size="11.00" fill="#000000">updated_at</text>
<polygon fill="none" stroke="#000000" points="385,-141.7 385,-163.7 469,-163.7 469,-141.7 385,-141.7"/>
<text text-anchor="start" x="387.8807" y="-149.4" font-family="Helvetica,sans-Serif" font-size="11.00" fill="#000000">timestamp[26,3]</text>
<polygon fill="none" stroke="#000000" points="297,-119.7 297,-141.7 385,-141.7 385,-119.7 297,-119.7"/>
<image xlink:href="../../images/primaryKeys.png" width="11px" height="12px" preserveAspectRatio="xMinYMin meet" x="302" y="-136.7"/>
<text text-anchor="start" x="317" y="-126.8" font-family="Helvetica,sans-Serif" font-size="11.00" fill="#000000">event_id</text>
<polygon fill="none" stroke="#000000" points="385,-119.7 385,-141.7 469,-141.7 469,-119.7 385,-119.7"/>
<text text-anchor="start" x="388" y="-127.4" font-family="Helvetica,sans-Serif" font-size="11.00" fill="#000000">int4[10]</text>
<polygon fill="none" stroke="#000000" points="297,-97.7 297,-119.7 385,-119.7 385,-97.7 297,-97.7"/>
<image xlink:href="../../images/primaryKeys.png" width="11px" height="12px" preserveAspectRatio="xMinYMin meet" x="302" y="-114.7"/>
<text text-anchor="start" x="317" y="-104.8" font-family="Helvetica,sans-Serif" font-size="11.00" fill="#000000">tag_id</text>
<polygon fill="none" stroke="#000000" points="385,-97.7 385,-119.7 469,-119.7 469,-97.7 385,-97.7"/>
<text text-anchor="start" x="388" y="-105.4" font-family="Helvetica,sans-Serif" font-size="11.00" fill="#000000">int4[10]</text>
<polygon fill="#ffffff" stroke="transparent" points="297,-78.7 297,-97.7 332,-97.7 332,-78.7 297,-78.7"/>
<polygon fill="none" stroke="#000000" points="297,-78.7 297,-97.7 332,-97.7 332,-78.7 297,-78.7"/>
<text text-anchor="start" x="300" y="-84.8" font-family="Helvetica,sans-Serif" font-size="11.00" fill="#000000">&lt; 2</text>
<polygon fill="#ffffff" stroke="transparent" points="332,-78.7 332,-97.7 385,-97.7 385,-78.7 332,-78.7"/>
<polygon fill="none" stroke="#000000" points="332,-78.7 332,-97.7 385,-97.7 385,-78.7 332,-78.7"/>
<text text-anchor="start" x="349.6105" y="-84.8" font-family="Helvetica,sans-Serif" font-size="11.00" fill="#000000">0 rows</text>
<polygon fill="#ffffff" stroke="transparent" points="385,-78.7 385,-97.7 469,-97.7 469,-78.7 385,-78.7"/>
<polygon fill="none" stroke="#000000" points="385,-78.7 385,-97.7 469,-97.7 469,-78.7 385,-78.7"/>
<text text-anchor="start" x="450.4053" y="-84.8" font-family="Helvetica,sans-Serif" font-size="11.00" fill="#000000">0 &gt;</text>
<polygon fill="none" stroke="#000000" stroke-width="2" points="296,-77.7 296,-209.7 470,-209.7 470,-77.7 296,-77.7"/>
</a>
</g>
</g>
<!-- event_tags&#45;&gt;events -->
<g id="edge2" class="edge">
<title>event_tags:w&#45;&gt;events:e</title>
<path fill="none" stroke="#000000" d="M282.521,-134.1504C248.1928,-154.6651 301.6307,-259.7 246,-259.7"/>
<polygon fill="#000000" stroke="#000000" points="289.2179,-132.5546 297.8346,-134.2019 293.109,-131.6273 297,-130.7 297,-130.7 297,-130.7 293.109,-131.6273 296.1654,-127.1981 289.2179,-132.5546 289.2179,-132.5546"/>
<ellipse fill="none" stroke="#000000" cx="286.1051" cy="-133.2964" rx="3.2" ry="3.2"/>
</g>
<!-- tags -->
<g id="node4" class="node">
<title>tags</title>
<g id="a_node4"><a xlink:href="../../tables/tags.html" xlink:title="tags" target="_top">
<polygon fill="#ffffff" stroke="transparent" points="150,-38.2 150,-143.2 238,-143.2 238,-38.2 150,-38.2"/>
<polygon fill="#f5f5f5" stroke="transparent" points="150,-119.7 150,-142.7 238,-142.7 238,-119.7 150,-119.7"/>
<polygon fill="none" stroke="#000000" points="150,-119.7 150,-142.7 238,-142.7 238,-119.7 150,-119.7"/>
<text text-anchor="start" x="155" y="-128.8" font-family="Helvetica,sans-Serif" font-weight="bold" font-size="11.00" fill="#000000">tags</text>
<text text-anchor="start" x="203.0437" y="-127.8" font-family="Helvetica,sans-Serif" font-size="11.00" fill="#000000">[table]</text>
<polygon fill="none" stroke="#000000" points="150,-97.7 150,-119.7 238,-119.7 238,-97.7 150,-97.7"/>
<image xlink:href="../../images/primaryKeys.png" width="11px" height="12px" preserveAspectRatio="xMinYMin meet" x="155" y="-114.7"/>
<text text-anchor="start" x="170" y="-104.8" font-family="Helvetica,sans-Serif" font-size="11.00" fill="#000000">id</text>
<polygon fill="#ffffff" stroke="transparent" points="150,-75.7 150,-97.7 238,-97.7 238,-75.7 150,-75.7"/>
<polygon fill="none" stroke="#000000" points="150,-75.7 150,-97.7 238,-97.7 238,-75.7 150,-75.7"/>
<text text-anchor="start" x="170" y="-82.8" font-family="Helvetica,sans-Serif" font-size="11.00" fill="#000000">name</text>
<polygon fill="none" stroke="#000000" points="150,-56.7 150,-75.7 238,-75.7 238,-56.7 150,-56.7"/>
<text text-anchor="start" x="153" y="-62.8" font-family="Helvetica,sans-Serif" font-size="11.00" fill="#000000">...</text>
<polygon fill="#ffffff" stroke="transparent" points="150,-37.7 150,-56.7 170,-56.7 170,-37.7 150,-37.7"/>
<polygon fill="none" stroke="#000000" points="150,-37.7 150,-56.7 170,-56.7 170,-37.7 150,-37.7"/>
<text text-anchor="start" x="153" y="-43.8" font-family="Helvetica,sans-Serif" font-size="11.00" fill="#000000"> &#160;</text>
<polygon fill="#ffffff" stroke="transparent" points="170,-37.7 170,-56.7 212,-56.7 212,-37.7 170,-37.7"/>
<polygon fill="none" stroke="#000000" points="170,-37.7 170,-56.7 212,-56.7 212,-37.7 170,-37.7"/>
<text text-anchor="start" x="176.6105" y="-43.8" font-family="Helvetica,sans-Serif" font-size="11.00" fill="#000000">0 rows</text>
<polygon fill="#ffffff" stroke="transparent" points="212,-37.7 212,-56.7 238,-56.7 238,-37.7 212,-37.7"/>
<polygon fill="none" stroke="#000000" points="212,-37.7 212,-56.7 238,-56.7 238,-37.7 212,-37.7"/>
<text text-anchor="start" x="219.4053" y="-43.8" font-family="Helvetica,sans-Serif" font-size="11.00" fill="#000000">1 &gt;</text>
</a>
</g>
</g>
<!-- event_tags&#45;&gt;tags -->
<g id="edge3" class="edge">
<title>event_tags:w&#45;&gt;tags:e</title>
<path fill="none" stroke="#000000" d="M282.2032,-108.7C266.9686,-108.7 258.4861,-108.7 238,-108.7"/>
<polygon fill="#000000" stroke="#000000" points="289,-108.7001 297,-112.3 293,-108.7 297,-108.7 297,-108.7 297,-108.7 293,-108.7 297,-105.1 289,-108.7001 289,-108.7001"/>
<ellipse fill="none" stroke="#000000" cx="285.8" cy="-108.7001" rx="3.2" ry="3.2"/>
</g>
<!-- event_users -->
<g id="node5" class="node">
<title>event_users</title>
<g id="a_node5"><a xlink:href="../../tables/event_users.html" xlink:title="event_users" target="_top">
<polygon fill="#ffffff" stroke="transparent" points="332,-232.2 332,-293.2 434,-293.2 434,-232.2 332,-232.2"/>
<polygon fill="#f5f5f5" stroke="transparent" points="332,-269.7 332,-292.7 434,-292.7 434,-269.7 332,-269.7"/>
<polygon fill="none" stroke="#000000" points="332,-269.7 332,-292.7 434,-292.7 434,-269.7 332,-269.7"/>
<text text-anchor="start" x="336.5459" y="-278.8" font-family="Helvetica,sans-Serif" font-weight="bold" font-size="11.00" fill="#000000">event_users</text>
<text text-anchor="start" x="399.5219" y="-277.8" font-family="Helvetica,sans-Serif" font-size="11.00" fill="#000000">[table]</text>
<polygon fill="none" stroke="#000000" points="332,-250.7 332,-269.7 434,-269.7 434,-250.7 332,-250.7"/>
<text text-anchor="start" x="335" y="-256.8" font-family="Helvetica,sans-Serif" font-size="11.00" fill="#000000">...</text>
<polygon fill="#ffffff" stroke="transparent" points="332,-231.7 332,-250.7 364,-250.7 364,-231.7 332,-231.7"/>
<polygon fill="none" stroke="#000000" points="332,-231.7 332,-250.7 364,-250.7 364,-231.7 332,-231.7"/>
<text text-anchor="start" x="335" y="-237.8" font-family="Helvetica,sans-Serif" font-size="11.00" fill="#000000">&lt; 4</text>
<polygon fill="#ffffff" stroke="transparent" points="364,-231.7 364,-250.7 407,-250.7 407,-231.7 364,-231.7"/>
<polygon fill="none" stroke="#000000" points="364,-231.7 364,-250.7 407,-250.7 407,-231.7 364,-231.7"/>
<text text-anchor="start" x="371.6105" y="-237.8" font-family="Helvetica,sans-Serif" font-size="11.00" fill="#000000">0 rows</text>
<polygon fill="#ffffff" stroke="transparent" points="407,-231.7 407,-250.7 434,-250.7 434,-231.7 407,-231.7"/>
<polygon fill="none" stroke="#000000" points="407,-231.7 407,-250.7 434,-250.7 434,-231.7 407,-231.7"/>
<text text-anchor="start" x="415.4053" y="-237.8" font-family="Helvetica,sans-Serif" font-size="11.00" fill="#000000">2 &gt;</text>
</a>
</g>
</g>
<!-- event_users&#45;&gt;events -->
<g id="edge4" class="edge">
<title>event_users:w&#45;&gt;events:e</title>
<path fill="none" stroke="#000000" d="M317.4162,-259.7C290.5234,-259.7 278.8472,-259.7 246,-259.7"/>
<polygon fill="#000000" stroke="#000000" points="324,-259.7001 332,-263.3 328,-259.7 332,-259.7 332,-259.7 332,-259.7 328,-259.7 332,-256.1 324,-259.7001 324,-259.7001"/>
<ellipse fill="none" stroke="#000000" cx="320.8" cy="-259.7001" rx="3.2" ry="3.2"/>
</g>
</g>
</svg>
