<?xml version="1.0" encoding="UTF-8" standalone="no"?>
<!DOCTYPE svg PUBLIC "-//W3C//DTD SVG 1.1//EN"
 "http://www.w3.org/Graphics/SVG/1.1/DTD/svg11.dtd">
<!-- Generated by graphviz version 2.40.1 (20161225.0304)
 -->
<!-- Title: twoDegreesRelationshipsDiagram Pages: 1 -->
<svg width="654pt" height="376pt"
 viewBox="0.00 0.00 654.00 375.70" xmlns="http://www.w3.org/2000/svg" xmlns:xlink="http://www.w3.org/1999/xlink">
<g id="graph0" class="graph" transform="scale(1 1) rotate(0) translate(4 371.7)">
<title>twoDegreesRelationshipsDiagram</title>
<polygon fill="#ffffff" stroke="transparent" points="-4,4 -4,-371.7 650,-371.7 650,4 -4,4"/>
<text text-anchor="middle" x="72.4936" y="-7.3" font-family="Helvetica,sans-Serif" font-size="11.00" fill="#000000">Generated by SchemaSpy</text>
<!-- chapter_tags -->
<g id="node1" class="node">
<title>chapter_tags</title>
<g id="a_node1"><a xlink:href="../../tables/chapter_tags.html" xlink:title="chapter_tags" target="_top">
<polygon fill="#ffffff" stroke="transparent" points="291.5,-299.2 291.5,-360.2 406.5,-360.2 406.5,-299.2 291.5,-299.2"/>
<polygon fill="#f5f5f5" stroke="transparent" points="292,-336.7 292,-359.7 407,-359.7 407,-336.7 292,-336.7"/>
<polygon fill="none" stroke="#000000" points="292,-336.7 292,-359.7 407,-359.7 407,-336.7 292,-336.7"/>
<text text-anchor="start" x="297" y="-345.3" font-family="Helvetica,sans-Serif" font-weight="bold" font-size="11.00" fill="#000000">chapter_tags</text>
<text text-anchor="start" x="372.5219" y="-344.8" font-family="Helvetica,sans-Serif" font-size="11.00" fill="#000000">[table]</text>
<polygon fill="none" stroke="#000000" points="292,-317.7 292,-336.7 407,-336.7 407,-317.7 292,-317.7"/>
<text text-anchor="start" x="295" y="-323.8" font-family="Helvetica,sans-Serif" font-size="11.00" fill="#000000">...</text>
<polygon fill="#ffffff" stroke="transparent" points="292,-298.7 292,-317.7 335,-317.7 335,-298.7 292,-298.7"/>
<polygon fill="none" stroke="#000000" points="292,-298.7 292,-317.7 335,-317.7 335,-298.7 292,-298.7"/>
<text text-anchor="start" x="295" y="-304.8" font-family="Helvetica,sans-Serif" font-size="11.00" fill="#000000">&lt; 2</text>
<polygon fill="#ffffff" stroke="transparent" points="335,-298.7 335,-317.7 384,-317.7 384,-298.7 335,-298.7"/>
<polygon fill="none" stroke="#000000" points="335,-298.7 335,-317.7 384,-317.7 384,-298.7 335,-298.7"/>
<text text-anchor="start" x="348.6105" y="-304.8" font-family="Helvetica,sans-Serif" font-size="11.00" fill="#000000">0 rows</text>
<polygon fill="#ffffff" stroke="transparent" points="384,-298.7 384,-317.7 407,-317.7 407,-298.7 384,-298.7"/>
<polygon fill="none" stroke="#000000" points="384,-298.7 384,-317.7 407,-317.7 407,-298.7 384,-298.7"/>
<text text-anchor="start" x="397.8862" y="-304.8" font-family="Helvetica,sans-Serif" font-size="11.00" fill="#000000"> &#160;</text>
</a>
</g>
</g>
<!-- chapters -->
<g id="node2" class="node">
<title>chapters</title>
<g id="a_node2"><a xlink:href="../../tables/chapters.html" xlink:title="chapters" target="_top">
<polygon fill="#ffffff" stroke="transparent" points="8,-115.2 8,-176.2 99,-176.2 99,-115.2 8,-115.2"/>
<polygon fill="#f5f5f5" stroke="transparent" points="8.5,-152.7 8.5,-175.7 99.5,-175.7 99.5,-152.7 8.5,-152.7"/>
<polygon fill="none" stroke="#000000" points="8.5,-152.7 8.5,-175.7 99.5,-175.7 99.5,-152.7 8.5,-152.7"/>
<text text-anchor="start" x="13.5" y="-161.3" font-family="Helvetica,sans-Serif" font-weight="bold" font-size="11.00" fill="#000000">chapters</text>
<text text-anchor="start" x="65.0219" y="-160.8" font-family="Helvetica,sans-Serif" font-size="11.00" fill="#000000">[table]</text>
<polygon fill="none" stroke="#000000" points="8.5,-133.7 8.5,-152.7 99.5,-152.7 99.5,-133.7 8.5,-133.7"/>
<text text-anchor="start" x="11.5" y="-139.8" font-family="Helvetica,sans-Serif" font-size="11.00" fill="#000000">...</text>
<polygon fill="#ffffff" stroke="transparent" points="8.5,-114.7 8.5,-133.7 30.5,-133.7 30.5,-114.7 8.5,-114.7"/>
<polygon fill="none" stroke="#000000" points="8.5,-114.7 8.5,-133.7 30.5,-133.7 30.5,-114.7 8.5,-114.7"/>
<text text-anchor="start" x="11.5" y="-120.8" font-family="Helvetica,sans-Serif" font-size="11.00" fill="#000000"> &#160;</text>
<polygon fill="#ffffff" stroke="transparent" points="30.5,-114.7 30.5,-133.7 73.5,-133.7 73.5,-114.7 30.5,-114.7"/>
<polygon fill="none" stroke="#000000" points="30.5,-114.7 30.5,-133.7 73.5,-133.7 73.5,-114.7 30.5,-114.7"/>
<text text-anchor="start" x="38.1105" y="-120.8" font-family="Helvetica,sans-Serif" font-size="11.00" fill="#000000">0 rows</text>
<polygon fill="#ffffff" stroke="transparent" points="73.5,-114.7 73.5,-133.7 99.5,-133.7 99.5,-114.7 73.5,-114.7"/>
<polygon fill="none" stroke="#000000" points="73.5,-114.7 73.5,-133.7 99.5,-133.7 99.5,-114.7 73.5,-114.7"/>
<text text-anchor="start" x="80.9053" y="-120.8" font-family="Helvetica,sans-Serif" font-size="11.00" fill="#000000">5 &gt;</text>
</a>
</g>
</g>
<!-- chapter_tags&#45;&gt;chapters -->
<g id="edge1" class="edge">
<title>chapter_tags:w&#45;&gt;chapters:e</title>
<path fill="none" stroke="#000000" d="M277.4502,-327.1601C219.1732,-330.8069 187.4501,-353.8477 140,-312.7 81.3205,-261.8143 177.1701,-142.7 99.5,-142.7"/>
<polygon fill="#000000" stroke="#000000" points="284.004,-326.9529 292.1138,-330.2982 288.002,-326.8264 292,-326.7 292,-326.7 292,-326.7 288.002,-326.8264 291.8862,-323.1018 284.004,-326.9529 284.004,-326.9529"/>
<ellipse fill="none" stroke="#000000" cx="280.8056" cy="-327.054" rx="3.2" ry="3.2"/>
</g>
<!-- tags -->
<g id="node3" class="node">
<title>tags</title>
<g id="a_node3"><a xlink:href="../../tables/tags.html" xlink:title="tags" target="_top">
<polygon fill="#ffffff" stroke="transparent" points="148,-197.2 148,-302.2 236,-302.2 236,-197.2 148,-197.2"/>
<polygon fill="#f5f5f5" stroke="transparent" points="148,-278.7 148,-301.7 236,-301.7 236,-278.7 148,-278.7"/>
<polygon fill="none" stroke="#000000" points="148,-278.7 148,-301.7 236,-301.7 236,-278.7 148,-278.7"/>
<text text-anchor="start" x="153" y="-287.3" font-family="Helvetica,sans-Serif" font-weight="bold" font-size="11.00" fill="#000000">tags</text>
<text text-anchor="start" x="201.0437" y="-286.8" font-family="Helvetica,sans-Serif" font-size="11.00" fill="#000000">[table]</text>
<polygon fill="none" stroke="#000000" points="148,-256.7 148,-278.7 236,-278.7 236,-256.7 148,-256.7"/>
<image xlink:href="../../images/primaryKeys.png" width="11px" height="12px" preserveAspectRatio="xMinYMin meet" x="153" y="-273.7"/>
<text text-anchor="start" x="168" y="-263.8" font-family="Helvetica,sans-Serif" font-size="11.00" fill="#000000">id</text>
<polygon fill="#ffffff" stroke="transparent" points="148,-234.7 148,-256.7 236,-256.7 236,-234.7 148,-234.7"/>
<polygon fill="none" stroke="#000000" points="148,-234.7 148,-256.7 236,-256.7 236,-234.7 148,-234.7"/>
<text text-anchor="start" x="168" y="-241.8" font-family="Helvetica,sans-Serif" font-size="11.00" fill="#000000">name</text>
<polygon fill="none" stroke="#000000" points="148,-215.7 148,-234.7 236,-234.7 236,-215.7 148,-215.7"/>
<text text-anchor="start" x="151" y="-221.8" font-family="Helvetica,sans-Serif" font-size="11.00" fill="#000000">...</text>
<polygon fill="#ffffff" stroke="transparent" points="148,-196.7 148,-215.7 168,-215.7 168,-196.7 148,-196.7"/>
<polygon fill="none" stroke="#000000" points="148,-196.7 148,-215.7 168,-215.7 168,-196.7 148,-196.7"/>
<text text-anchor="start" x="151" y="-202.8" font-family="Helvetica,sans-Serif" font-size="11.00" fill="#000000"> &#160;</text>
<polygon fill="#ffffff" stroke="transparent" points="168,-196.7 168,-215.7 210,-215.7 210,-196.7 168,-196.7"/>
<polygon fill="none" stroke="#000000" points="168,-196.7 168,-215.7 210,-215.7 210,-196.7 168,-196.7"/>
<text text-anchor="start" x="174.6105" y="-202.8" font-family="Helvetica,sans-Serif" font-size="11.00" fill="#000000">0 rows</text>
<polygon fill="#ffffff" stroke="transparent" points="210,-196.7 210,-215.7 236,-215.7 236,-196.7 210,-196.7"/>
<polygon fill="none" stroke="#000000" points="210,-196.7 210,-215.7 236,-215.7 236,-196.7 210,-196.7"/>
<text text-anchor="start" x="217.4053" y="-202.8" font-family="Helvetica,sans-Serif" font-size="11.00" fill="#000000">3 &gt;</text>
</a>
</g>
</g>
<!-- chapter_tags&#45;&gt;tags -->
<g id="edge2" class="edge">
<title>chapter_tags:w&#45;&gt;tags:e</title>
<path fill="none" stroke="#000000" d="M277.9786,-322.4569C259.7853,-308.9287 266.2219,-267.7 236,-267.7"/>
<polygon fill="#000000" stroke="#000000" points="284.3429,-324.3828 290.9573,-330.1457 288.1715,-325.5414 292,-326.7 292,-326.7 292,-326.7 288.1715,-325.5414 293.0427,-323.2543 284.3429,-324.3828 284.3429,-324.3828"/>
<ellipse fill="none" stroke="#000000" cx="281.2801" cy="-323.4559" rx="3.2" ry="3.2"/>
</g>
<!-- event_sponsors -->
<g id="node4" class="node">
<title>event_sponsors</title>
<g id="a_node4"><a xlink:href="../../tables/event_sponsors.html" xlink:title="event_sponsors" target="_top">
<polygon fill="#ffffff" stroke="transparent" points="484.5,-120.2 484.5,-181.2 615.5,-181.2 615.5,-120.2 484.5,-120.2"/>
<polygon fill="#f5f5f5" stroke="transparent" points="485,-157.7 485,-180.7 616,-180.7 616,-157.7 485,-157.7"/>
<polygon fill="none" stroke="#000000" points="485,-157.7 485,-180.7 616,-180.7 616,-157.7 485,-157.7"/>
<text text-anchor="start" x="490" y="-166.3" font-family="Helvetica,sans-Serif" font-weight="bold" font-size="11.00" fill="#000000">event_sponsors</text>
<text text-anchor="start" x="581.5219" y="-165.8" font-family="Helvetica,sans-Serif" font-size="11.00" fill="#000000">[table]</text>
<polygon fill="none" stroke="#000000" points="485,-138.7 485,-157.7 616,-157.7 616,-138.7 485,-138.7"/>
<text text-anchor="start" x="488" y="-144.8" font-family="Helvetica,sans-Serif" font-size="11.00" fill="#000000">...</text>
<polygon fill="#ffffff" stroke="transparent" points="485,-119.7 485,-138.7 536,-138.7 536,-119.7 485,-119.7"/>
<polygon fill="none" stroke="#000000" points="485,-119.7 485,-138.7 536,-138.7 536,-119.7 485,-119.7"/>
<text text-anchor="start" x="488" y="-125.8" font-family="Helvetica,sans-Serif" font-size="11.00" fill="#000000">&lt; 2</text>
<polygon fill="#ffffff" stroke="transparent" points="536,-119.7 536,-138.7 589,-138.7 589,-119.7 536,-119.7"/>
<polygon fill="none" stroke="#000000" points="536,-119.7 536,-138.7 589,-138.7 589,-119.7 536,-119.7"/>
<text text-anchor="start" x="553.6105" y="-125.8" font-family="Helvetica,sans-Serif" font-size="11.00" fill="#000000">0 rows</text>
<polygon fill="#ffffff" stroke="transparent" points="589,-119.7 589,-138.7 616,-138.7 616,-119.7 589,-119.7"/>
<polygon fill="none" stroke="#000000" points="589,-119.7 589,-138.7 616,-138.7 616,-119.7 589,-119.7"/>
<text text-anchor="start" x="606.8862" y="-125.8" font-family="Helvetica,sans-Serif" font-size="11.00" fill="#000000"> &#160;</text>
</a>
</g>
</g>
<!-- events -->
<g id="node5" class="node">
<title>events</title>
<g id="a_node5"><a xlink:href="../../tables/events.html" xlink:title="events" target="_top">
<polygon fill="#ffffff" stroke="transparent" points="285,-41.2 285,-168.2 413,-168.2 413,-41.2 285,-41.2"/>
<polygon fill="#f5f5f5" stroke="transparent" points="285,-144.7 285,-167.7 413,-167.7 413,-144.7 285,-144.7"/>
<polygon fill="none" stroke="#000000" points="285,-144.7 285,-167.7 413,-167.7 413,-144.7 285,-144.7"/>
<text text-anchor="start" x="290" y="-153.3" font-family="Helvetica,sans-Serif" font-weight="bold" font-size="11.00" fill="#000000">events</text>
<text text-anchor="start" x="378.0437" y="-152.8" font-family="Helvetica,sans-Serif" font-size="11.00" fill="#000000">[table]</text>
<polygon fill="none" stroke="#000000" points="285,-122.7 285,-144.7 413,-144.7 413,-122.7 285,-122.7"/>
<image xlink:href="../../images/primaryKeys.png" width="11px" height="12px" preserveAspectRatio="xMinYMin meet" x="290" y="-139.7"/>
<text text-anchor="start" x="305" y="-129.8" font-family="Helvetica,sans-Serif" font-size="11.00" fill="#000000">id</text>
<polygon fill="none" stroke="#000000" points="285,-100.7 285,-122.7 413,-122.7 413,-100.7 285,-100.7"/>
<image xlink:href="../../images/foreignKeys.png" width="11px" height="12px" preserveAspectRatio="xMinYMin meet" x="290" y="-117.7"/>
<text text-anchor="start" x="305" y="-107.8" font-family="Helvetica,sans-Serif" font-size="11.00" fill="#000000">venue_id</text>
<polygon fill="none" stroke="#000000" points="285,-78.7 285,-100.7 413,-100.7 413,-78.7 285,-78.7"/>
<image xlink:href="../../images/foreignKeys.png" width="11px" height="12px" preserveAspectRatio="xMinYMin meet" x="290" y="-95.7"/>
<text text-anchor="start" x="305" y="-85.8" font-family="Helvetica,sans-Serif" font-size="11.00" fill="#000000">chapter_id</text>
<polygon fill="none" stroke="#000000" points="285,-59.7 285,-78.7 413,-78.7 413,-59.7 285,-59.7"/>
<text text-anchor="start" x="288" y="-65.8" font-family="Helvetica,sans-Serif" font-size="11.00" fill="#000000">...</text>
<polygon fill="#ffffff" stroke="transparent" points="285,-40.7 285,-59.7 330,-59.7 330,-40.7 285,-40.7"/>
<polygon fill="none" stroke="#000000" points="285,-40.7 285,-59.7 330,-59.7 330,-40.7 285,-40.7"/>
<text text-anchor="start" x="288" y="-46.8" font-family="Helvetica,sans-Serif" font-size="11.00" fill="#000000">&lt; 2</text>
<polygon fill="#ffffff" stroke="transparent" points="330,-40.7 330,-59.7 380,-59.7 380,-40.7 330,-40.7"/>
<polygon fill="none" stroke="#000000" points="330,-40.7 330,-59.7 380,-59.7 380,-40.7 330,-40.7"/>
<text text-anchor="start" x="344.6105" y="-46.8" font-family="Helvetica,sans-Serif" font-size="11.00" fill="#000000">0 rows</text>
<polygon fill="#ffffff" stroke="transparent" points="380,-40.7 380,-59.7 413,-59.7 413,-40.7 380,-40.7"/>
<polygon fill="none" stroke="#000000" points="380,-40.7 380,-59.7 413,-59.7 413,-40.7 380,-40.7"/>
<text text-anchor="start" x="394.4053" y="-46.8" font-family="Helvetica,sans-Serif" font-size="11.00" fill="#000000">3 &gt;</text>
</a>
</g>
</g>
<!-- event_sponsors&#45;&gt;events -->
<g id="edge3" class="edge">
<title>event_sponsors:w&#45;&gt;events:e</title>
<path fill="none" stroke="#000000" d="M470.512,-146.6477C449.388,-143.3919 440.1237,-133.7 413,-133.7"/>
<polygon fill="#000000" stroke="#000000" points="477.021,-147.1204 484.7392,-151.2905 481.0105,-147.4102 485,-147.7 485,-147.7 485,-147.7 481.0105,-147.4102 485.2608,-144.1095 477.021,-147.1204 477.021,-147.1204"/>
<ellipse fill="none" stroke="#000000" cx="473.8294" cy="-146.8886" rx="3.2" ry="3.2"/>
</g>
<!-- events&#45;&gt;chapters -->
<g id="edge7" class="edge">
<title>events:w&#45;&gt;chapters:e</title>
<path fill="none" stroke="#000000" d="M270.5733,-89.5061C216.6574,-88.0761 194.3313,-79.8928 140,-104.7 117.5471,-114.9518 124.1827,-142.7 99.5,-142.7"/>
<polygon fill="#000000" stroke="#000000" points="277.0007,-89.5924 284.9516,-93.2997 281.0004,-89.6462 285,-89.7 285,-89.7 285,-89.7 281.0004,-89.6462 285.0484,-86.1003 277.0007,-89.5924 277.0007,-89.5924"/>
<ellipse fill="none" stroke="#000000" cx="273.801" cy="-89.5494" rx="3.2" ry="3.2"/>
</g>
<!-- venues -->
<g id="node8" class="node">
<title>venues</title>
<g id="a_node8"><a xlink:href="../../tables/venues.html" xlink:title="venues" target="_top">
<polygon fill="#ffffff" stroke="transparent" points="151.5,-115.2 151.5,-176.2 232.5,-176.2 232.5,-115.2 151.5,-115.2"/>
<polygon fill="#f5f5f5" stroke="transparent" points="152,-152.7 152,-175.7 233,-175.7 233,-152.7 152,-152.7"/>
<polygon fill="none" stroke="#000000" points="152,-152.7 152,-175.7 233,-175.7 233,-152.7 152,-152.7"/>
<text text-anchor="start" x="157" y="-161.3" font-family="Helvetica,sans-Serif" font-weight="bold" font-size="11.00" fill="#000000">venues</text>
<text text-anchor="start" x="198.5219" y="-160.8" font-family="Helvetica,sans-Serif" font-size="11.00" fill="#000000">[table]</text>
<polygon fill="none" stroke="#000000" points="152,-133.7 152,-152.7 233,-152.7 233,-133.7 152,-133.7"/>
<text text-anchor="start" x="155" y="-139.8" font-family="Helvetica,sans-Serif" font-size="11.00" fill="#000000">...</text>
<polygon fill="#ffffff" stroke="transparent" points="152,-114.7 152,-133.7 173,-133.7 173,-114.7 152,-114.7"/>
<polygon fill="none" stroke="#000000" points="152,-114.7 152,-133.7 173,-133.7 173,-114.7 152,-114.7"/>
<text text-anchor="start" x="154.7027" y="-120.8" font-family="Helvetica,sans-Serif" font-size="11.00" fill="#000000">&lt; 1</text>
<polygon fill="#ffffff" stroke="transparent" points="173,-114.7 173,-133.7 211,-133.7 211,-114.7 173,-114.7"/>
<polygon fill="none" stroke="#000000" points="173,-114.7 173,-133.7 211,-133.7 211,-114.7 173,-114.7"/>
<text text-anchor="start" x="175.8053" y="-120.8" font-family="Helvetica,sans-Serif" font-size="11.00" fill="#000000">0 rows</text>
<polygon fill="#ffffff" stroke="transparent" points="211,-114.7 211,-133.7 233,-133.7 233,-114.7 211,-114.7"/>
<polygon fill="none" stroke="#000000" points="211,-114.7 211,-133.7 233,-133.7 233,-114.7 211,-114.7"/>
<text text-anchor="start" x="214.4053" y="-120.8" font-family="Helvetica,sans-Serif" font-size="11.00" fill="#000000">2 &gt;</text>
</a>
</g>
</g>
<!-- events&#45;&gt;venues -->
<g id="edge8" class="edge">
<title>events:w&#45;&gt;venues:e</title>
<path fill="none" stroke="#000000" d="M270.8642,-115.5012C257.5125,-123.7791 254.0206,-142.7 233,-142.7"/>
<polygon fill="#000000" stroke="#000000" points="277.2744,-113.7775 285.9349,-115.1765 281.1372,-112.7387 285,-111.7 285,-111.7 285,-111.7 281.1372,-112.7387 284.0651,-108.2235 277.2744,-113.7775 277.2744,-113.7775"/>
<ellipse fill="none" stroke="#000000" cx="274.1842" cy="-114.6085" rx="3.2" ry="3.2"/>
</g>
<!-- event_tags -->
<g id="node6" class="node">
<title>event_tags</title>
<g id="a_node6"><a xlink:href="../../tables/event_tags.html" xlink:title="event_tags" target="_top">
<polygon fill="#ffffff" stroke="transparent" points="462,-229.7 462,-363.7 638,-363.7 638,-229.7 462,-229.7"/>
<polygon fill="#f5f5f5" stroke="transparent" points="464,-338.7 464,-361.7 636,-361.7 636,-338.7 464,-338.7"/>
<polygon fill="none" stroke="#000000" points="464,-338.7 464,-361.7 636,-361.7 636,-338.7 464,-338.7"/>
<text text-anchor="start" x="469" y="-347.3" font-family="Helvetica,sans-Serif" font-weight="bold" font-size="11.00" fill="#000000">event_tags</text>
<text text-anchor="start" x="601.0437" y="-346.8" font-family="Helvetica,sans-Serif" font-size="11.00" fill="#000000">[table]</text>
<polygon fill="none" stroke="#000000" points="464,-316.7 464,-338.7 552,-338.7 552,-316.7 464,-316.7"/>
<text text-anchor="start" x="484" y="-323.8" font-family="Helvetica,sans-Serif" font-size="11.00" fill="#000000">created_at</text>
<polygon fill="none" stroke="#000000" points="552,-316.7 552,-338.7 636,-338.7 636,-316.7 552,-316.7"/>
<text text-anchor="start" x="554.8807" y="-324.4" font-family="Helvetica,sans-Serif" font-size="11.00" fill="#000000">timestamp[26,3]</text>
<polygon fill="none" stroke="#000000" points="464,-294.7 464,-316.7 552,-316.7 552,-294.7 464,-294.7"/>
<text text-anchor="start" x="484" y="-301.8" font-family="Helvetica,sans-Serif" font-size="11.00" fill="#000000">updated_at</text>
<polygon fill="none" stroke="#000000" points="552,-294.7 552,-316.7 636,-316.7 636,-294.7 552,-294.7"/>
<text text-anchor="start" x="554.8807" y="-302.4" font-family="Helvetica,sans-Serif" font-size="11.00" fill="#000000">timestamp[26,3]</text>
<polygon fill="none" stroke="#000000" points="464,-272.7 464,-294.7 552,-294.7 552,-272.7 464,-272.7"/>
<image xlink:href="../../images/primaryKeys.png" width="11px" height="12px" preserveAspectRatio="xMinYMin meet" x="469" y="-289.7"/>
<text text-anchor="start" x="484" y="-279.8" font-family="Helvetica,sans-Serif" font-size="11.00" fill="#000000">event_id</text>
<polygon fill="none" stroke="#000000" points="552,-272.7 552,-294.7 636,-294.7 636,-272.7 552,-272.7"/>
<text text-anchor="start" x="555" y="-280.4" font-family="Helvetica,sans-Serif" font-size="11.00" fill="#000000">int4[10]</text>
<polygon fill="none" stroke="#000000" points="464,-250.7 464,-272.7 552,-272.7 552,-250.7 464,-250.7"/>
<image xlink:href="../../images/primaryKeys.png" width="11px" height="12px" preserveAspectRatio="xMinYMin meet" x="469" y="-267.7"/>
<text text-anchor="start" x="484" y="-257.8" font-family="Helvetica,sans-Serif" font-size="11.00" fill="#000000">tag_id</text>
<polygon fill="none" stroke="#000000" points="552,-250.7 552,-272.7 636,-272.7 636,-250.7 552,-250.7"/>
<text text-anchor="start" x="555" y="-258.4" font-family="Helvetica,sans-Serif" font-size="11.00" fill="#000000">int4[10]</text>
<polygon fill="#ffffff" stroke="transparent" points="464,-231.7 464,-250.7 499,-250.7 499,-231.7 464,-231.7"/>
<polygon fill="none" stroke="#000000" points="464,-231.7 464,-250.7 499,-250.7 499,-231.7 464,-231.7"/>
<text text-anchor="start" x="467" y="-237.8" font-family="Helvetica,sans-Serif" font-size="11.00" fill="#000000">&lt; 2</text>
<polygon fill="#ffffff" stroke="transparent" points="499,-231.7 499,-250.7 552,-250.7 552,-231.7 499,-231.7"/>
<polygon fill="none" stroke="#000000" points="499,-231.7 499,-250.7 552,-250.7 552,-231.7 499,-231.7"/>
<text text-anchor="start" x="516.6105" y="-237.8" font-family="Helvetica,sans-Serif" font-size="11.00" fill="#000000">0 rows</text>
<polygon fill="#ffffff" stroke="transparent" points="552,-231.7 552,-250.7 636,-250.7 636,-231.7 552,-231.7"/>
<polygon fill="none" stroke="#000000" points="552,-231.7 552,-250.7 636,-250.7 636,-231.7 552,-231.7"/>
<text text-anchor="start" x="617.4053" y="-237.8" font-family="Helvetica,sans-Serif" font-size="11.00" fill="#000000">0 &gt;</text>
<polygon fill="none" stroke="#000000" stroke-width="2" points="463,-230.7 463,-362.7 637,-362.7 637,-230.7 463,-230.7"/>
</a>
</g>
</g>
<!-- event_tags&#45;&gt;tags -->
<g id="edge5" class="edge">
<title>event_tags:w&#45;&gt;tags:e</title>
<path fill="none" stroke="#000000" d="M449.4017,-261.7432C359.9264,-262.2828 332.3198,-267.7 236,-267.7"/>
<polygon fill="#000000" stroke="#000000" points="456,-261.7237 464.0107,-265.3 460,-261.7119 464,-261.7 464,-261.7 464,-261.7 460,-261.7119 463.9893,-258.1 456,-261.7237 456,-261.7237"/>
<ellipse fill="none" stroke="#000000" cx="452.8" cy="-261.7332" rx="3.2" ry="3.2"/>
</g>
<!-- event_tags&#45;&gt;events -->
<g id="edge4" class="edge">
<title>event_tags:w&#45;&gt;events:e</title>
<path fill="none" stroke="#000000" d="M449.7294,-280.8375C407.2447,-260.1 477.6384,-133.7 413,-133.7"/>
<polygon fill="#000000" stroke="#000000" points="456.1562,-282.1266 463.292,-287.2297 460.0781,-282.9133 464,-283.7 464,-283.7 464,-283.7 460.0781,-282.9133 464.708,-280.1703 456.1562,-282.1266 456.1562,-282.1266"/>
<ellipse fill="none" stroke="#000000" cx="453.0187" cy="-281.4972" rx="3.2" ry="3.2"/>
</g>
<!-- event_users -->
<g id="node7" class="node">
<title>event_users</title>
<g id="a_node7"><a xlink:href="../../tables/event_users.html" xlink:title="event_users" target="_top">
<polygon fill="#ffffff" stroke="transparent" points="495,-38.2 495,-99.2 605,-99.2 605,-38.2 495,-38.2"/>
<polygon fill="#f5f5f5" stroke="transparent" points="495,-75.7 495,-98.7 605,-98.7 605,-75.7 495,-75.7"/>
<polygon fill="none" stroke="#000000" points="495,-75.7 495,-98.7 605,-98.7 605,-75.7 495,-75.7"/>
<text text-anchor="start" x="500" y="-84.3" font-family="Helvetica,sans-Serif" font-weight="bold" font-size="11.00" fill="#000000">event_users</text>
<text text-anchor="start" x="570.5219" y="-83.8" font-family="Helvetica,sans-Serif" font-size="11.00" fill="#000000">[table]</text>
<polygon fill="none" stroke="#000000" points="495,-56.7 495,-75.7 605,-75.7 605,-56.7 495,-56.7"/>
<text text-anchor="start" x="498" y="-62.8" font-family="Helvetica,sans-Serif" font-size="11.00" fill="#000000">...</text>
<polygon fill="#ffffff" stroke="transparent" points="495,-37.7 495,-56.7 531,-56.7 531,-37.7 495,-37.7"/>
<polygon fill="none" stroke="#000000" points="495,-37.7 495,-56.7 531,-56.7 531,-37.7 495,-37.7"/>
<text text-anchor="start" x="498" y="-43.8" font-family="Helvetica,sans-Serif" font-size="11.00" fill="#000000">&lt; 4</text>
<polygon fill="#ffffff" stroke="transparent" points="531,-37.7 531,-56.7 576,-56.7 576,-37.7 531,-37.7"/>
<polygon fill="none" stroke="#000000" points="531,-37.7 531,-56.7 576,-56.7 576,-37.7 531,-37.7"/>
<text text-anchor="start" x="540.6105" y="-43.8" font-family="Helvetica,sans-Serif" font-size="11.00" fill="#000000">0 rows</text>
<polygon fill="#ffffff" stroke="transparent" points="576,-37.7 576,-56.7 605,-56.7 605,-37.7 576,-37.7"/>
<polygon fill="none" stroke="#000000" points="576,-37.7 576,-56.7 605,-56.7 605,-37.7 576,-37.7"/>
<text text-anchor="start" x="586.4053" y="-43.8" font-family="Helvetica,sans-Serif" font-size="11.00" fill="#000000">2 &gt;</text>
</a>
</g>
</g>
<!-- event_users&#45;&gt;events -->
<g id="edge6" class="edge">
<title>event_users:w&#45;&gt;events:e</title>
<path fill="none" stroke="#000000" d="M480.6353,-68.2826C449.8046,-80.7037 454.797,-133.7 413,-133.7"/>
<polygon fill="#000000" stroke="#000000" points="487.1262,-67.1157 495.6371,-69.2432 491.0631,-66.4078 495,-65.7 495,-65.7 495,-65.7 491.0631,-66.4078 494.3629,-62.1568 487.1262,-67.1157 487.1262,-67.1157"/>
<ellipse fill="none" stroke="#000000" cx="483.9767" cy="-67.682" rx="3.2" ry="3.2"/>
</g>
<!-- venues&#45;&gt;chapters -->
<g id="edge11" class="edge">
<title>venues:w&#45;&gt;chapters:e</title>
<path fill="none" stroke="#000000" d="M137.2344,-142.7C124.6563,-142.7 117,-142.7 99.5,-142.7"/>
<polygon fill="#000000" stroke="#000000" points="144,-142.7001 152,-146.3 148,-142.7 152,-142.7 152,-142.7 152,-142.7 148,-142.7 152,-139.1 144,-142.7001 144,-142.7001"/>
<ellipse fill="none" stroke="#000000" cx="140.8" cy="-142.7001" rx="3.2" ry="3.2"/>
</g>
<!-- venue_tags -->
<g id="node9" class="node">
<title>venue_tags</title>
<g id="a_node9"><a xlink:href="../../tables/venue_tags.html" xlink:title="venue_tags" target="_top">
<polygon fill="#ffffff" stroke="transparent" points="296.5,-189.2 296.5,-250.2 401.5,-250.2 401.5,-189.2 296.5,-189.2"/>
<polygon fill="#f5f5f5" stroke="transparent" points="297,-226.7 297,-249.7 402,-249.7 402,-226.7 297,-226.7"/>
<polygon fill="none" stroke="#000000" points="297,-226.7 297,-249.7 402,-249.7 402,-226.7 297,-226.7"/>
<text text-anchor="start" x="302" y="-235.3" font-family="Helvetica,sans-Serif" font-weight="bold" font-size="11.00" fill="#000000">venue_tags</text>
<text text-anchor="start" x="367.5219" y="-234.8" font-family="Helvetica,sans-Serif" font-size="11.00" fill="#000000">[table]</text>
<polygon fill="none" stroke="#000000" points="297,-207.7 297,-226.7 402,-226.7 402,-207.7 297,-207.7"/>
<text text-anchor="start" x="300" y="-213.8" font-family="Helvetica,sans-Serif" font-size="11.00" fill="#000000">...</text>
<polygon fill="#ffffff" stroke="transparent" points="297,-188.7 297,-207.7 335,-207.7 335,-188.7 297,-188.7"/>
<polygon fill="none" stroke="#000000" points="297,-188.7 297,-207.7 335,-207.7 335,-188.7 297,-188.7"/>
<text text-anchor="start" x="300" y="-194.8" font-family="Helvetica,sans-Serif" font-size="11.00" fill="#000000">&lt; 2</text>
<polygon fill="#ffffff" stroke="transparent" points="335,-188.7 335,-207.7 381,-207.7 381,-188.7 335,-188.7"/>
<polygon fill="none" stroke="#000000" points="335,-188.7 335,-207.7 381,-207.7 381,-188.7 335,-188.7"/>
<text text-anchor="start" x="345.6105" y="-194.8" font-family="Helvetica,sans-Serif" font-size="11.00" fill="#000000">0 rows</text>
<polygon fill="#ffffff" stroke="transparent" points="381,-188.7 381,-207.7 402,-207.7 402,-188.7 381,-188.7"/>
<polygon fill="none" stroke="#000000" points="381,-188.7 381,-207.7 402,-207.7 402,-188.7 381,-188.7"/>
<text text-anchor="start" x="392.8862" y="-194.8" font-family="Helvetica,sans-Serif" font-size="11.00" fill="#000000"> &#160;</text>
</a>
</g>
</g>
<!-- venue_tags&#45;&gt;tags -->
<g id="edge9" class="edge">
<title>venue_tags:w&#45;&gt;tags:e</title>
<path fill="none" stroke="#000000" d="M282.8443,-220.3678C263.6252,-232.0616 265.5405,-267.7 236,-267.7"/>
<polygon fill="#000000" stroke="#000000" points="289.2557,-218.7066 297.903,-220.1849 293.1279,-217.7033 297,-216.7 297,-216.7 297,-216.7 293.1279,-217.7033 296.097,-213.2151 289.2557,-218.7066 289.2557,-218.7066"/>
<ellipse fill="none" stroke="#000000" cx="286.158" cy="-219.5093" rx="3.2" ry="3.2"/>
</g>
<!-- venue_tags&#45;&gt;venues -->
<g id="edge10" class="edge">
<title>venue_tags:w&#45;&gt;venues:e</title>
<path fill="none" stroke="#000000" d="M282.8797,-213.1308C258.4453,-198.349 270.7079,-142.7 233,-142.7"/>
<polygon fill="#000000" stroke="#000000" points="289.2439,-214.7395 296.1178,-220.1902 293.122,-215.7197 297,-216.7 297,-216.7 297,-216.7 293.122,-215.7197 297.8822,-213.2098 289.2439,-214.7395 289.2439,-214.7395"/>
<ellipse fill="none" stroke="#000000" cx="286.1415" cy="-213.9552" rx="3.2" ry="3.2"/>
</g>
</g>
</svg>
