<?xml version="1.0" encoding="UTF-8" standalone="no"?>
<!DOCTYPE svg PUBLIC "-//W3C//DTD SVG 1.1//EN"
 "http://www.w3.org/Graphics/SVG/1.1/DTD/svg11.dtd">
<!-- Generated by graphviz version 2.40.1 (20161225.0304)
 -->
<!-- Title: twoDegreesRelationshipsDiagram Pages: 1 -->
<svg width="616pt" height="387pt"
 viewBox="0.00 0.00 616.00 387.20" xmlns="http://www.w3.org/2000/svg" xmlns:xlink="http://www.w3.org/1999/xlink">
<g id="graph0" class="graph" transform="scale(1 1) rotate(0) translate(4 383.2)">
<title>twoDegreesRelationshipsDiagram</title>
<polygon fill="#ffffff" stroke="transparent" points="-4,4 -4,-383.2 612,-383.2 612,4 -4,4"/>
<text text-anchor="middle" x="72.4936" y="-7.3" font-family="Helvetica,sans-Serif" font-size="11.00" fill="#000000">Generated by SchemaSpy</text>
<!-- event_sponsors -->
<g id="node1" class="node">
<title>event_sponsors</title>
<g id="a_node1"><a xlink:href="../../tables/event_sponsors.html" xlink:title="event_sponsors" target="_top">
<polygon fill="#ffffff" stroke="transparent" points="452,-314.2 452,-375.2 572,-375.2 572,-314.2 452,-314.2"/>
<polygon fill="#f5f5f5" stroke="transparent" points="452,-351.7 452,-374.7 572,-374.7 572,-351.7 452,-351.7"/>
<polygon fill="none" stroke="#000000" points="452,-351.7 452,-374.7 572,-374.7 572,-351.7 452,-351.7"/>
<text text-anchor="start" x="456.681" y="-360.8" font-family="Helvetica,sans-Serif" font-weight="bold" font-size="11.00" fill="#000000">event_sponsors</text>
<text text-anchor="start" x="537.5219" y="-359.8" font-family="Helvetica,sans-Serif" font-size="11.00" fill="#000000">[table]</text>
<polygon fill="none" stroke="#000000" points="452,-332.7 452,-351.7 572,-351.7 572,-332.7 452,-332.7"/>
<text text-anchor="start" x="455" y="-338.8" font-family="Helvetica,sans-Serif" font-size="11.00" fill="#000000">...</text>
<polygon fill="#ffffff" stroke="transparent" points="452,-313.7 452,-332.7 497,-332.7 497,-313.7 452,-313.7"/>
<polygon fill="none" stroke="#000000" points="452,-313.7 452,-332.7 497,-332.7 497,-313.7 452,-313.7"/>
<text text-anchor="start" x="455" y="-319.8" font-family="Helvetica,sans-Serif" font-size="11.00" fill="#000000">&lt; 2</text>
<polygon fill="#ffffff" stroke="transparent" points="497,-313.7 497,-332.7 547,-332.7 547,-313.7 497,-313.7"/>
<polygon fill="none" stroke="#000000" points="497,-313.7 497,-332.7 547,-332.7 547,-313.7 497,-313.7"/>
<text text-anchor="start" x="511.6105" y="-319.8" font-family="Helvetica,sans-Serif" font-size="11.00" fill="#000000">0 rows</text>
<polygon fill="#ffffff" stroke="transparent" points="547,-313.7 547,-332.7 572,-332.7 572,-313.7 547,-313.7"/>
<polygon fill="none" stroke="#000000" points="547,-313.7 547,-332.7 572,-332.7 572,-313.7 547,-313.7"/>
<text text-anchor="start" x="562.8862" y="-319.8" font-family="Helvetica,sans-Serif" font-size="11.00" fill="#000000"> &#160;</text>
</a>
</g>
</g>
<!-- events -->
<g id="node2" class="node">
<title>events</title>
<g id="a_node2"><a xlink:href="../../tables/events.html" xlink:title="events" target="_top">
<polygon fill="#ffffff" stroke="transparent" points="271,-167.2 271,-294.2 375,-294.2 375,-167.2 271,-167.2"/>
<polygon fill="#f5f5f5" stroke="transparent" points="271,-270.7 271,-293.7 375,-293.7 375,-270.7 271,-270.7"/>
<polygon fill="none" stroke="#000000" points="271,-270.7 271,-293.7 375,-293.7 375,-270.7 271,-270.7"/>
<text text-anchor="start" x="276" y="-279.8" font-family="Helvetica,sans-Serif" font-weight="bold" font-size="11.00" fill="#000000">events</text>
<text text-anchor="start" x="340.0437" y="-278.8" font-family="Helvetica,sans-Serif" font-size="11.00" fill="#000000">[table]</text>
<polygon fill="none" stroke="#000000" points="271,-248.7 271,-270.7 375,-270.7 375,-248.7 271,-248.7"/>
<image xlink:href="../../images/primaryKeys.png" width="11px" height="12px" preserveAspectRatio="xMinYMin meet" x="276" y="-265.7"/>
<text text-anchor="start" x="291" y="-255.8" font-family="Helvetica,sans-Serif" font-size="11.00" fill="#000000">id</text>
<polygon fill="none" stroke="#000000" points="271,-226.7 271,-248.7 375,-248.7 375,-226.7 271,-226.7"/>
<image xlink:href="../../images/foreignKeys.png" width="11px" height="12px" preserveAspectRatio="xMinYMin meet" x="276" y="-243.7"/>
<text text-anchor="start" x="291" y="-233.8" font-family="Helvetica,sans-Serif" font-size="11.00" fill="#000000">venue_id</text>
<polygon fill="none" stroke="#000000" points="271,-204.7 271,-226.7 375,-226.7 375,-204.7 271,-204.7"/>
<image xlink:href="../../images/foreignKeys.png" width="11px" height="12px" preserveAspectRatio="xMinYMin meet" x="276" y="-221.7"/>
<text text-anchor="start" x="291" y="-211.8" font-family="Helvetica,sans-Serif" font-size="11.00" fill="#000000">chapter_id</text>
<polygon fill="none" stroke="#000000" points="271,-185.7 271,-204.7 375,-204.7 375,-185.7 271,-185.7"/>
<text text-anchor="start" x="274" y="-191.8" font-family="Helvetica,sans-Serif" font-size="11.00" fill="#000000">...</text>
<polygon fill="#ffffff" stroke="transparent" points="271,-166.7 271,-185.7 304,-185.7 304,-166.7 271,-166.7"/>
<polygon fill="none" stroke="#000000" points="271,-166.7 271,-185.7 304,-185.7 304,-166.7 271,-166.7"/>
<text text-anchor="start" x="274" y="-172.8" font-family="Helvetica,sans-Serif" font-size="11.00" fill="#000000">&lt; 2</text>
<polygon fill="#ffffff" stroke="transparent" points="304,-166.7 304,-185.7 348,-185.7 348,-166.7 304,-166.7"/>
<polygon fill="none" stroke="#000000" points="304,-166.7 304,-185.7 348,-185.7 348,-166.7 304,-166.7"/>
<text text-anchor="start" x="312.6105" y="-172.8" font-family="Helvetica,sans-Serif" font-size="11.00" fill="#000000">0 rows</text>
<polygon fill="#ffffff" stroke="transparent" points="348,-166.7 348,-185.7 375,-185.7 375,-166.7 348,-166.7"/>
<polygon fill="none" stroke="#000000" points="348,-166.7 348,-185.7 375,-185.7 375,-166.7 348,-166.7"/>
<text text-anchor="start" x="356.4053" y="-172.8" font-family="Helvetica,sans-Serif" font-size="11.00" fill="#000000">3 &gt;</text>
</a>
</g>
</g>
<!-- event_sponsors&#45;&gt;events -->
<g id="edge1" class="edge">
<title>event_sponsors:w&#45;&gt;events:e</title>
<path fill="none" stroke="#000000" d="M437.6074,-338.7816C406.2779,-324.1742 419.3302,-259.7 375,-259.7"/>
<polygon fill="#000000" stroke="#000000" points="444.1596,-340.1101 451.2846,-345.2282 448.0798,-340.9051 452,-341.7 452,-341.7 452,-341.7 448.0798,-340.9051 452.7154,-338.1718 444.1596,-340.1101 444.1596,-340.1101"/>
<ellipse fill="none" stroke="#000000" cx="441.0234" cy="-339.4742" rx="3.2" ry="3.2"/>
</g>
<!-- chapters -->
<g id="node6" class="node">
<title>chapters</title>
<g id="a_node6"><a xlink:href="../../tables/chapters.html" xlink:title="chapters" target="_top">
<polygon fill="#ffffff" stroke="transparent" points="8,-199.2 8,-260.2 93,-260.2 93,-199.2 8,-199.2"/>
<polygon fill="#f5f5f5" stroke="transparent" points="8.5,-236.7 8.5,-259.7 93.5,-259.7 93.5,-236.7 8.5,-236.7"/>
<polygon fill="none" stroke="#000000" points="8.5,-236.7 8.5,-259.7 93.5,-259.7 93.5,-236.7 8.5,-236.7"/>
<text text-anchor="start" x="13.4108" y="-245.8" font-family="Helvetica,sans-Serif" font-weight="bold" font-size="11.00" fill="#000000">chapters</text>
<text text-anchor="start" x="59.0219" y="-244.8" font-family="Helvetica,sans-Serif" font-size="11.00" fill="#000000">[table]</text>
<polygon fill="none" stroke="#000000" points="8.5,-217.7 8.5,-236.7 93.5,-236.7 93.5,-217.7 8.5,-217.7"/>
<text text-anchor="start" x="11.5" y="-223.8" font-family="Helvetica,sans-Serif" font-size="11.00" fill="#000000">...</text>
<polygon fill="#ffffff" stroke="transparent" points="8.5,-198.7 8.5,-217.7 27.5,-217.7 27.5,-198.7 8.5,-198.7"/>
<polygon fill="none" stroke="#000000" points="8.5,-198.7 8.5,-217.7 27.5,-217.7 27.5,-198.7 8.5,-198.7"/>
<text text-anchor="start" x="11.5" y="-204.8" font-family="Helvetica,sans-Serif" font-size="11.00" fill="#000000"> &#160;</text>
<polygon fill="#ffffff" stroke="transparent" points="27.5,-198.7 27.5,-217.7 68.5,-217.7 68.5,-198.7 27.5,-198.7"/>
<polygon fill="none" stroke="#000000" points="27.5,-198.7 27.5,-217.7 68.5,-217.7 68.5,-198.7 27.5,-198.7"/>
<text text-anchor="start" x="33.1105" y="-204.8" font-family="Helvetica,sans-Serif" font-size="11.00" fill="#000000">0 rows</text>
<polygon fill="#ffffff" stroke="transparent" points="68.5,-198.7 68.5,-217.7 93.5,-217.7 93.5,-198.7 68.5,-198.7"/>
<polygon fill="none" stroke="#000000" points="68.5,-198.7 68.5,-217.7 93.5,-217.7 93.5,-198.7 68.5,-198.7"/>
<text text-anchor="start" x="74.9053" y="-204.8" font-family="Helvetica,sans-Serif" font-size="11.00" fill="#000000">4 &gt;</text>
</a>
</g>
</g>
<!-- events&#45;&gt;chapters -->
<g id="edge5" class="edge">
<title>events:w&#45;&gt;chapters:e</title>
<path fill="none" stroke="#000000" d="M256.5585,-215.5106C207.134,-214.1944 189.1991,-206.6944 134,-214.7 115.4209,-217.3946 112.2735,-226.7 93.5,-226.7"/>
<polygon fill="#000000" stroke="#000000" points="263.0007,-215.595 270.9528,-219.2997 267.0003,-215.6475 271,-215.7 271,-215.7 271,-215.7 267.0003,-215.6475 271.0472,-212.1003 263.0007,-215.595 263.0007,-215.595"/>
<ellipse fill="none" stroke="#000000" cx="259.801" cy="-215.5531" rx="3.2" ry="3.2"/>
</g>
<!-- venues -->
<g id="node7" class="node">
<title>venues</title>
<g id="a_node7"><a xlink:href="../../tables/venues.html" xlink:title="venues" target="_top">
<polygon fill="#ffffff" stroke="transparent" points="142,-225.2 142,-286.2 222,-286.2 222,-225.2 142,-225.2"/>
<polygon fill="#f5f5f5" stroke="transparent" points="142,-262.7 142,-285.7 222,-285.7 222,-262.7 142,-262.7"/>
<polygon fill="none" stroke="#000000" points="142,-262.7 142,-285.7 222,-285.7 222,-262.7 142,-262.7"/>
<text text-anchor="start" x="147" y="-271.8" font-family="Helvetica,sans-Serif" font-weight="bold" font-size="11.00" fill="#000000">venues</text>
<text text-anchor="start" x="187.0437" y="-270.8" font-family="Helvetica,sans-Serif" font-size="11.00" fill="#000000">[table]</text>
<polygon fill="none" stroke="#000000" points="142,-243.7 142,-262.7 222,-262.7 222,-243.7 142,-243.7"/>
<text text-anchor="start" x="145" y="-249.8" font-family="Helvetica,sans-Serif" font-size="11.00" fill="#000000">...</text>
<polygon fill="#ffffff" stroke="transparent" points="142,-224.7 142,-243.7 163,-243.7 163,-224.7 142,-224.7"/>
<polygon fill="none" stroke="#000000" points="142,-224.7 142,-243.7 163,-243.7 163,-224.7 142,-224.7"/>
<text text-anchor="start" x="144.7027" y="-230.8" font-family="Helvetica,sans-Serif" font-size="11.00" fill="#000000">&lt; 1</text>
<polygon fill="#ffffff" stroke="transparent" points="163,-224.7 163,-243.7 201,-243.7 201,-224.7 163,-224.7"/>
<polygon fill="none" stroke="#000000" points="163,-224.7 163,-243.7 201,-243.7 201,-224.7 163,-224.7"/>
<text text-anchor="start" x="165.8053" y="-230.8" font-family="Helvetica,sans-Serif" font-size="11.00" fill="#000000">0 rows</text>
<polygon fill="#ffffff" stroke="transparent" points="201,-224.7 201,-243.7 222,-243.7 222,-224.7 201,-224.7"/>
<polygon fill="none" stroke="#000000" points="201,-224.7 201,-243.7 222,-243.7 222,-224.7 201,-224.7"/>
<text text-anchor="start" x="203.7027" y="-230.8" font-family="Helvetica,sans-Serif" font-size="11.00" fill="#000000">1 &gt;</text>
</a>
</g>
</g>
<!-- events&#45;&gt;venues -->
<g id="edge6" class="edge">
<title>events:w&#45;&gt;venues:e</title>
<path fill="none" stroke="#000000" d="M256.576,-240.1769C245.1616,-244.4374 238.9036,-252.7 222,-252.7"/>
<polygon fill="#000000" stroke="#000000" points="263.1154,-239.054 271.6093,-241.2481 267.0577,-238.377 271,-237.7 271,-237.7 271,-237.7 267.0577,-238.377 270.3907,-234.1519 263.1154,-239.054 263.1154,-239.054"/>
<ellipse fill="none" stroke="#000000" cx="259.9616" cy="-239.5956" rx="3.2" ry="3.2"/>
</g>
<!-- event_tags -->
<g id="node3" class="node">
<title>event_tags</title>
<g id="a_node3"><a xlink:href="../../tables/event_tags.html" xlink:title="event_tags" target="_top">
<polygon fill="#ffffff" stroke="transparent" points="424,-76.7 424,-210.7 600,-210.7 600,-76.7 424,-76.7"/>
<polygon fill="#f5f5f5" stroke="transparent" points="426,-185.7 426,-208.7 598,-208.7 598,-185.7 426,-185.7"/>
<polygon fill="none" stroke="#000000" points="426,-185.7 426,-208.7 598,-208.7 598,-185.7 426,-185.7"/>
<text text-anchor="start" x="431" y="-194.8" font-family="Helvetica,sans-Serif" font-weight="bold" font-size="11.00" fill="#000000">event_tags</text>
<text text-anchor="start" x="563.0437" y="-193.8" font-family="Helvetica,sans-Serif" font-size="11.00" fill="#000000">[table]</text>
<polygon fill="none" stroke="#000000" points="426,-163.7 426,-185.7 514,-185.7 514,-163.7 426,-163.7"/>
<text text-anchor="start" x="446" y="-170.8" font-family="Helvetica,sans-Serif" font-size="11.00" fill="#000000">created_at</text>
<polygon fill="none" stroke="#000000" points="514,-163.7 514,-185.7 598,-185.7 598,-163.7 514,-163.7"/>
<text text-anchor="start" x="516.8807" y="-171.4" font-family="Helvetica,sans-Serif" font-size="11.00" fill="#000000">timestamp[26,3]</text>
<polygon fill="none" stroke="#000000" points="426,-141.7 426,-163.7 514,-163.7 514,-141.7 426,-141.7"/>
<text text-anchor="start" x="446" y="-148.8" font-family="Helvetica,sans-Serif" font-size="11.00" fill="#000000">updated_at</text>
<polygon fill="none" stroke="#000000" points="514,-141.7 514,-163.7 598,-163.7 598,-141.7 514,-141.7"/>
<text text-anchor="start" x="516.8807" y="-149.4" font-family="Helvetica,sans-Serif" font-size="11.00" fill="#000000">timestamp[26,3]</text>
<polygon fill="none" stroke="#000000" points="426,-119.7 426,-141.7 514,-141.7 514,-119.7 426,-119.7"/>
<image xlink:href="../../images/primaryKeys.png" width="11px" height="12px" preserveAspectRatio="xMinYMin meet" x="431" y="-136.7"/>
<text text-anchor="start" x="446" y="-126.8" font-family="Helvetica,sans-Serif" font-size="11.00" fill="#000000">event_id</text>
<polygon fill="none" stroke="#000000" points="514,-119.7 514,-141.7 598,-141.7 598,-119.7 514,-119.7"/>
<text text-anchor="start" x="517" y="-127.4" font-family="Helvetica,sans-Serif" font-size="11.00" fill="#000000">int4[10]</text>
<polygon fill="none" stroke="#000000" points="426,-97.7 426,-119.7 514,-119.7 514,-97.7 426,-97.7"/>
<image xlink:href="../../images/primaryKeys.png" width="11px" height="12px" preserveAspectRatio="xMinYMin meet" x="431" y="-114.7"/>
<text text-anchor="start" x="446" y="-104.8" font-family="Helvetica,sans-Serif" font-size="11.00" fill="#000000">tag_id</text>
<polygon fill="none" stroke="#000000" points="514,-97.7 514,-119.7 598,-119.7 598,-97.7 514,-97.7"/>
<text text-anchor="start" x="517" y="-105.4" font-family="Helvetica,sans-Serif" font-size="11.00" fill="#000000">int4[10]</text>
<polygon fill="#ffffff" stroke="transparent" points="426,-78.7 426,-97.7 461,-97.7 461,-78.7 426,-78.7"/>
<polygon fill="none" stroke="#000000" points="426,-78.7 426,-97.7 461,-97.7 461,-78.7 426,-78.7"/>
<text text-anchor="start" x="429" y="-84.8" font-family="Helvetica,sans-Serif" font-size="11.00" fill="#000000">&lt; 2</text>
<polygon fill="#ffffff" stroke="transparent" points="461,-78.7 461,-97.7 514,-97.7 514,-78.7 461,-78.7"/>
<polygon fill="none" stroke="#000000" points="461,-78.7 461,-97.7 514,-97.7 514,-78.7 461,-78.7"/>
<text text-anchor="start" x="478.6105" y="-84.8" font-family="Helvetica,sans-Serif" font-size="11.00" fill="#000000">0 rows</text>
<polygon fill="#ffffff" stroke="transparent" points="514,-78.7 514,-97.7 598,-97.7 598,-78.7 514,-78.7"/>
<polygon fill="none" stroke="#000000" points="514,-78.7 514,-97.7 598,-97.7 598,-78.7 514,-78.7"/>
<text text-anchor="start" x="579.4053" y="-84.8" font-family="Helvetica,sans-Serif" font-size="11.00" fill="#000000">0 &gt;</text>
<polygon fill="none" stroke="#000000" stroke-width="2" points="425,-77.7 425,-209.7 599,-209.7 599,-77.7 425,-77.7"/>
</a>
</g>
</g>
<!-- event_tags&#45;&gt;events -->
<g id="edge2" class="edge">
<title>event_tags:w&#45;&gt;events:e</title>
<path fill="none" stroke="#000000" d="M411.521,-134.1504C377.1928,-154.6651 430.6307,-259.7 375,-259.7"/>
<polygon fill="#000000" stroke="#000000" points="418.2179,-132.5546 426.8346,-134.2019 422.109,-131.6273 426,-130.7 426,-130.7 426,-130.7 422.109,-131.6273 425.1654,-127.1981 418.2179,-132.5546 418.2179,-132.5546"/>
<ellipse fill="none" stroke="#000000" cx="415.1051" cy="-133.2964" rx="3.2" ry="3.2"/>
</g>
<!-- tags -->
<g id="node4" class="node">
<title>tags</title>
<g id="a_node4"><a xlink:href="../../tables/tags.html" xlink:title="tags" target="_top">
<polygon fill="#ffffff" stroke="transparent" points="279,-38.2 279,-143.2 367,-143.2 367,-38.2 279,-38.2"/>
<polygon fill="#f5f5f5" stroke="transparent" points="279,-119.7 279,-142.7 367,-142.7 367,-119.7 279,-119.7"/>
<polygon fill="none" stroke="#000000" points="279,-119.7 279,-142.7 367,-142.7 367,-119.7 279,-119.7"/>
<text text-anchor="start" x="284" y="-128.8" font-family="Helvetica,sans-Serif" font-weight="bold" font-size="11.00" fill="#000000">tags</text>
<text text-anchor="start" x="332.0437" y="-127.8" font-family="Helvetica,sans-Serif" font-size="11.00" fill="#000000">[table]</text>
<polygon fill="none" stroke="#000000" points="279,-97.7 279,-119.7 367,-119.7 367,-97.7 279,-97.7"/>
<image xlink:href="../../images/primaryKeys.png" width="11px" height="12px" preserveAspectRatio="xMinYMin meet" x="284" y="-114.7"/>
<text text-anchor="start" x="299" y="-104.8" font-family="Helvetica,sans-Serif" font-size="11.00" fill="#000000">id</text>
<polygon fill="#ffffff" stroke="transparent" points="279,-75.7 279,-97.7 367,-97.7 367,-75.7 279,-75.7"/>
<polygon fill="none" stroke="#000000" points="279,-75.7 279,-97.7 367,-97.7 367,-75.7 279,-75.7"/>
<text text-anchor="start" x="299" y="-82.8" font-family="Helvetica,sans-Serif" font-size="11.00" fill="#000000">name</text>
<polygon fill="none" stroke="#000000" points="279,-56.7 279,-75.7 367,-75.7 367,-56.7 279,-56.7"/>
<text text-anchor="start" x="282" y="-62.8" font-family="Helvetica,sans-Serif" font-size="11.00" fill="#000000">...</text>
<polygon fill="#ffffff" stroke="transparent" points="279,-37.7 279,-56.7 299,-56.7 299,-37.7 279,-37.7"/>
<polygon fill="none" stroke="#000000" points="279,-37.7 279,-56.7 299,-56.7 299,-37.7 279,-37.7"/>
<text text-anchor="start" x="282" y="-43.8" font-family="Helvetica,sans-Serif" font-size="11.00" fill="#000000"> &#160;</text>
<polygon fill="#ffffff" stroke="transparent" points="299,-37.7 299,-56.7 341,-56.7 341,-37.7 299,-37.7"/>
<polygon fill="none" stroke="#000000" points="299,-37.7 299,-56.7 341,-56.7 341,-37.7 299,-37.7"/>
<text text-anchor="start" x="305.6105" y="-43.8" font-family="Helvetica,sans-Serif" font-size="11.00" fill="#000000">0 rows</text>
<polygon fill="#ffffff" stroke="transparent" points="341,-37.7 341,-56.7 367,-56.7 367,-37.7 341,-37.7"/>
<polygon fill="none" stroke="#000000" points="341,-37.7 341,-56.7 367,-56.7 367,-37.7 341,-37.7"/>
<text text-anchor="start" x="348.4053" y="-43.8" font-family="Helvetica,sans-Serif" font-size="11.00" fill="#000000">1 &gt;</text>
</a>
</g>
</g>
<!-- event_tags&#45;&gt;tags -->
<g id="edge3" class="edge">
<title>event_tags:w&#45;&gt;tags:e</title>
<path fill="none" stroke="#000000" d="M411.2032,-108.7C395.9686,-108.7 387.4861,-108.7 367,-108.7"/>
<polygon fill="#000000" stroke="#000000" points="418,-108.7001 426,-112.3 422,-108.7 426,-108.7 426,-108.7 426,-108.7 422,-108.7 426,-105.1 418,-108.7001 418,-108.7001"/>
<ellipse fill="none" stroke="#000000" cx="414.8" cy="-108.7001" rx="3.2" ry="3.2"/>
</g>
<!-- event_users -->
<g id="node5" class="node">
<title>event_users</title>
<g id="a_node5"><a xlink:href="../../tables/event_users.html" xlink:title="event_users" target="_top">
<polygon fill="#ffffff" stroke="transparent" points="461,-232.2 461,-293.2 563,-293.2 563,-232.2 461,-232.2"/>
<polygon fill="#f5f5f5" stroke="transparent" points="461,-269.7 461,-292.7 563,-292.7 563,-269.7 461,-269.7"/>
<polygon fill="none" stroke="#000000" points="461,-269.7 461,-292.7 563,-292.7 563,-269.7 461,-269.7"/>
<text text-anchor="start" x="465.5459" y="-278.8" font-family="Helvetica,sans-Serif" font-weight="bold" font-size="11.00" fill="#000000">event_users</text>
<text text-anchor="start" x="528.5219" y="-277.8" font-family="Helvetica,sans-Serif" font-size="11.00" fill="#000000">[table]</text>
<polygon fill="none" stroke="#000000" points="461,-250.7 461,-269.7 563,-269.7 563,-250.7 461,-250.7"/>
<text text-anchor="start" x="464" y="-256.8" font-family="Helvetica,sans-Serif" font-size="11.00" fill="#000000">...</text>
<polygon fill="#ffffff" stroke="transparent" points="461,-231.7 461,-250.7 493,-250.7 493,-231.7 461,-231.7"/>
<polygon fill="none" stroke="#000000" points="461,-231.7 461,-250.7 493,-250.7 493,-231.7 461,-231.7"/>
<text text-anchor="start" x="464" y="-237.8" font-family="Helvetica,sans-Serif" font-size="11.00" fill="#000000">&lt; 4</text>
<polygon fill="#ffffff" stroke="transparent" points="493,-231.7 493,-250.7 536,-250.7 536,-231.7 493,-231.7"/>
<polygon fill="none" stroke="#000000" points="493,-231.7 493,-250.7 536,-250.7 536,-231.7 493,-231.7"/>
<text text-anchor="start" x="500.6105" y="-237.8" font-family="Helvetica,sans-Serif" font-size="11.00" fill="#000000">0 rows</text>
<polygon fill="#ffffff" stroke="transparent" points="536,-231.7 536,-250.7 563,-250.7 563,-231.7 536,-231.7"/>
<polygon fill="none" stroke="#000000" points="536,-231.7 536,-250.7 563,-250.7 563,-231.7 536,-231.7"/>
<text text-anchor="start" x="544.4053" y="-237.8" font-family="Helvetica,sans-Serif" font-size="11.00" fill="#000000">2 &gt;</text>
</a>
</g>
</g>
<!-- event_users&#45;&gt;events -->
<g id="edge4" class="edge">
<title>event_users:w&#45;&gt;events:e</title>
<path fill="none" stroke="#000000" d="M446.4162,-259.7C419.5234,-259.7 407.8472,-259.7 375,-259.7"/>
<polygon fill="#000000" stroke="#000000" points="453,-259.7001 461,-263.3 457,-259.7 461,-259.7 461,-259.7 461,-259.7 457,-259.7 461,-256.1 453,-259.7001 453,-259.7001"/>
<ellipse fill="none" stroke="#000000" cx="449.8" cy="-259.7001" rx="3.2" ry="3.2"/>
</g>
<!-- venues&#45;&gt;chapters -->
<g id="edge7" class="edge">
<title>venues:w&#45;&gt;chapters:e</title>
<path fill="none" stroke="#000000" d="M127.9001,-248.8636C116.2846,-241.6313 112.0343,-226.7 93.5,-226.7"/>
<polygon fill="#000000" stroke="#000000" points="134.2806,-250.5996 141.0548,-256.1737 138.1403,-251.6498 142,-252.7 142,-252.7 142,-252.7 138.1403,-251.6498 142.9452,-249.2263 134.2806,-250.5996 134.2806,-250.5996"/>
<ellipse fill="none" stroke="#000000" cx="131.1929" cy="-249.7595" rx="3.2" ry="3.2"/>
</g>
</g>
</svg>
