<?xml version="1.0" encoding="UTF-8" standalone="no"?>
<!DOCTYPE svg PUBLIC "-//W3C//DTD SVG 1.1//EN"
 "http://www.w3.org/Graphics/SVG/1.1/DTD/svg11.dtd">
<!-- Generated by graphviz version 2.40.1 (20161225.0304)
 -->
<!-- Title: twoDegreesRelationshipsDiagram Pages: 1 -->
<svg width="672pt" height="349pt"
 viewBox="0.00 0.00 672.00 348.70" xmlns="http://www.w3.org/2000/svg" xmlns:xlink="http://www.w3.org/1999/xlink">
<g id="graph0" class="graph" transform="scale(1 1) rotate(0) translate(4 344.7)">
<title>twoDegreesRelationshipsDiagram</title>
<polygon fill="#ffffff" stroke="transparent" points="-4,4 -4,-344.7 668,-344.7 668,4 -4,4"/>
<text text-anchor="middle" x="72.4936" y="-7.3" font-family="Helvetica,sans-Serif" font-size="11.00" fill="#000000">Generated by SchemaSpy</text>
<!-- event_sponsors -->
<g id="node1" class="node">
<title>event_sponsors</title>
<g id="a_node1"><a xlink:href="../../tables/event_sponsors.html" xlink:title="event_sponsors" target="_top">
<polygon fill="#ffffff" stroke="transparent" points="455,-202.7 455,-336.7 656,-336.7 656,-202.7 455,-202.7"/>
<polygon fill="#f5f5f5" stroke="transparent" points="457.5,-311.7 457.5,-334.7 654.5,-334.7 654.5,-311.7 457.5,-311.7"/>
<polygon fill="none" stroke="#000000" points="457.5,-311.7 457.5,-334.7 654.5,-334.7 654.5,-311.7 457.5,-311.7"/>
<text text-anchor="start" x="462.5" y="-320.3" font-family="Helvetica,sans-Serif" font-weight="bold" font-size="11.00" fill="#000000">event_sponsors</text>
<text text-anchor="start" x="619.5437" y="-319.8" font-family="Helvetica,sans-Serif" font-size="11.00" fill="#000000">[table]</text>
<polygon fill="none" stroke="#000000" points="457.5,-289.7 457.5,-311.7 570.5,-311.7 570.5,-289.7 457.5,-289.7"/>
<text text-anchor="start" x="477.5" y="-296.8" font-family="Helvetica,sans-Serif" font-size="11.00" fill="#000000">created_at</text>
<polygon fill="none" stroke="#000000" points="570.5,-289.7 570.5,-311.7 654.5,-311.7 654.5,-289.7 570.5,-289.7"/>
<text text-anchor="start" x="573.3807" y="-297.4" font-family="Helvetica,sans-Serif" font-size="11.00" fill="#000000">timestamp[26,3]</text>
<polygon fill="none" stroke="#000000" points="457.5,-267.7 457.5,-289.7 570.5,-289.7 570.5,-267.7 457.5,-267.7"/>
<text text-anchor="start" x="477.5" y="-274.8" font-family="Helvetica,sans-Serif" font-size="11.00" fill="#000000">updated_at</text>
<polygon fill="none" stroke="#000000" points="570.5,-267.7 570.5,-289.7 654.5,-289.7 654.5,-267.7 570.5,-267.7"/>
<text text-anchor="start" x="573.3807" y="-275.4" font-family="Helvetica,sans-Serif" font-size="11.00" fill="#000000">timestamp[26,3]</text>
<polygon fill="none" stroke="#000000" points="457.5,-245.7 457.5,-267.7 570.5,-267.7 570.5,-245.7 457.5,-245.7"/>
<image xlink:href="../../images/primaryKeys.png" width="11px" height="12px" preserveAspectRatio="xMinYMin meet" x="462.5" y="-262.7"/>
<text text-anchor="start" x="477.5" y="-252.8" font-family="Helvetica,sans-Serif" font-size="11.00" fill="#000000">sponsor_id</text>
<polygon fill="none" stroke="#000000" points="570.5,-245.7 570.5,-267.7 654.5,-267.7 654.5,-245.7 570.5,-245.7"/>
<text text-anchor="start" x="573.5" y="-253.4" font-family="Helvetica,sans-Serif" font-size="11.00" fill="#000000">int4[10]</text>
<polygon fill="none" stroke="#000000" points="457.5,-223.7 457.5,-245.7 570.5,-245.7 570.5,-223.7 457.5,-223.7"/>
<image xlink:href="../../images/primaryKeys.png" width="11px" height="12px" preserveAspectRatio="xMinYMin meet" x="462.5" y="-240.7"/>
<text text-anchor="start" x="477.5" y="-230.8" font-family="Helvetica,sans-Serif" font-size="11.00" fill="#000000">event_id</text>
<polygon fill="none" stroke="#000000" points="570.5,-223.7 570.5,-245.7 654.5,-245.7 654.5,-223.7 570.5,-223.7"/>
<text text-anchor="start" x="573.5" y="-231.4" font-family="Helvetica,sans-Serif" font-size="11.00" fill="#000000">int4[10]</text>
<polygon fill="#ffffff" stroke="transparent" points="457.5,-204.7 457.5,-223.7 505.5,-223.7 505.5,-204.7 457.5,-204.7"/>
<polygon fill="none" stroke="#000000" points="457.5,-204.7 457.5,-223.7 505.5,-223.7 505.5,-204.7 457.5,-204.7"/>
<text text-anchor="start" x="460.5" y="-210.8" font-family="Helvetica,sans-Serif" font-size="11.00" fill="#000000">&lt; 2</text>
<polygon fill="#ffffff" stroke="transparent" points="505.5,-204.7 505.5,-223.7 570.5,-223.7 570.5,-204.7 505.5,-204.7"/>
<polygon fill="none" stroke="#000000" points="505.5,-204.7 505.5,-223.7 570.5,-223.7 570.5,-204.7 505.5,-204.7"/>
<text text-anchor="start" x="535.1105" y="-210.8" font-family="Helvetica,sans-Serif" font-size="11.00" fill="#000000">0 rows</text>
<polygon fill="#ffffff" stroke="transparent" points="570.5,-204.7 570.5,-223.7 654.5,-223.7 654.5,-204.7 570.5,-204.7"/>
<polygon fill="none" stroke="#000000" points="570.5,-204.7 570.5,-223.7 654.5,-223.7 654.5,-204.7 570.5,-204.7"/>
<text text-anchor="start" x="635.9053" y="-210.8" font-family="Helvetica,sans-Serif" font-size="11.00" fill="#000000">0 &gt;</text>
<polygon fill="none" stroke="#000000" stroke-width="2" points="456,-203.7 456,-335.7 655,-335.7 655,-203.7 456,-203.7"/>
</a>
</g>
</g>
<!-- events -->
<g id="node2" class="node">
<title>events</title>
<g id="a_node2"><a xlink:href="../../tables/events.html" xlink:title="events" target="_top">
<polygon fill="#ffffff" stroke="transparent" points="278,-55.2 278,-182.2 406,-182.2 406,-55.2 278,-55.2"/>
<polygon fill="#f5f5f5" stroke="transparent" points="278,-158.7 278,-181.7 406,-181.7 406,-158.7 278,-158.7"/>
<polygon fill="none" stroke="#000000" points="278,-158.7 278,-181.7 406,-181.7 406,-158.7 278,-158.7"/>
<text text-anchor="start" x="283" y="-167.3" font-family="Helvetica,sans-Serif" font-weight="bold" font-size="11.00" fill="#000000">events</text>
<text text-anchor="start" x="371.0437" y="-166.8" font-family="Helvetica,sans-Serif" font-size="11.00" fill="#000000">[table]</text>
<polygon fill="none" stroke="#000000" points="278,-136.7 278,-158.7 406,-158.7 406,-136.7 278,-136.7"/>
<image xlink:href="../../images/primaryKeys.png" width="11px" height="12px" preserveAspectRatio="xMinYMin meet" x="283" y="-153.7"/>
<text text-anchor="start" x="298" y="-143.8" font-family="Helvetica,sans-Serif" font-size="11.00" fill="#000000">id</text>
<polygon fill="none" stroke="#000000" points="278,-114.7 278,-136.7 406,-136.7 406,-114.7 278,-114.7"/>
<image xlink:href="../../images/foreignKeys.png" width="11px" height="12px" preserveAspectRatio="xMinYMin meet" x="283" y="-131.7"/>
<text text-anchor="start" x="298" y="-121.8" font-family="Helvetica,sans-Serif" font-size="11.00" fill="#000000">venue_id</text>
<polygon fill="none" stroke="#000000" points="278,-92.7 278,-114.7 406,-114.7 406,-92.7 278,-92.7"/>
<image xlink:href="../../images/foreignKeys.png" width="11px" height="12px" preserveAspectRatio="xMinYMin meet" x="283" y="-109.7"/>
<text text-anchor="start" x="298" y="-99.8" font-family="Helvetica,sans-Serif" font-size="11.00" fill="#000000">chapter_id</text>
<polygon fill="none" stroke="#000000" points="278,-73.7 278,-92.7 406,-92.7 406,-73.7 278,-73.7"/>
<text text-anchor="start" x="281" y="-79.8" font-family="Helvetica,sans-Serif" font-size="11.00" fill="#000000">...</text>
<polygon fill="#ffffff" stroke="transparent" points="278,-54.7 278,-73.7 323,-73.7 323,-54.7 278,-54.7"/>
<polygon fill="none" stroke="#000000" points="278,-54.7 278,-73.7 323,-73.7 323,-54.7 278,-54.7"/>
<text text-anchor="start" x="281" y="-60.8" font-family="Helvetica,sans-Serif" font-size="11.00" fill="#000000">&lt; 2</text>
<polygon fill="#ffffff" stroke="transparent" points="323,-54.7 323,-73.7 373,-73.7 373,-54.7 323,-54.7"/>
<polygon fill="none" stroke="#000000" points="323,-54.7 323,-73.7 373,-73.7 373,-54.7 323,-54.7"/>
<text text-anchor="start" x="337.6105" y="-60.8" font-family="Helvetica,sans-Serif" font-size="11.00" fill="#000000">0 rows</text>
<polygon fill="#ffffff" stroke="transparent" points="373,-54.7 373,-73.7 406,-73.7 406,-54.7 373,-54.7"/>
<polygon fill="none" stroke="#000000" points="373,-54.7 373,-73.7 406,-73.7 406,-54.7 373,-54.7"/>
<text text-anchor="start" x="387.4053" y="-60.8" font-family="Helvetica,sans-Serif" font-size="11.00" fill="#000000">3 &gt;</text>
</a>
</g>
</g>
<!-- event_sponsors&#45;&gt;events -->
<g id="edge1" class="edge">
<title>event_sponsors:w&#45;&gt;events:e</title>
<path fill="none" stroke="#000000" d="M443.6146,-230.5038C421.2884,-213.1252 444.9657,-147.7 406,-147.7"/>
<polygon fill="#000000" stroke="#000000" points="449.842,-232.3857 456.4586,-238.1461 453.671,-233.5429 457.5,-234.7 457.5,-234.7 457.5,-234.7 453.671,-233.5429 458.5414,-231.2539 449.842,-232.3857 449.842,-232.3857"/>
<ellipse fill="none" stroke="#000000" cx="446.7789" cy="-231.46" rx="3.2" ry="3.2"/>
</g>
<!-- sponsors -->
<g id="node3" class="node">
<title>sponsors</title>
<g id="a_node3"><a xlink:href="../../tables/sponsors.html" xlink:title="sponsors" target="_top">
<polygon fill="#ffffff" stroke="transparent" points="296,-208.2 296,-291.2 388,-291.2 388,-208.2 296,-208.2"/>
<polygon fill="#f5f5f5" stroke="transparent" points="296,-267.7 296,-290.7 388,-290.7 388,-267.7 296,-267.7"/>
<polygon fill="none" stroke="#000000" points="296,-267.7 296,-290.7 388,-290.7 388,-267.7 296,-267.7"/>
<text text-anchor="start" x="301" y="-276.3" font-family="Helvetica,sans-Serif" font-weight="bold" font-size="11.00" fill="#000000">sponsors</text>
<text text-anchor="start" x="353.5219" y="-275.8" font-family="Helvetica,sans-Serif" font-size="11.00" fill="#000000">[table]</text>
<polygon fill="none" stroke="#000000" points="296,-245.7 296,-267.7 388,-267.7 388,-245.7 296,-245.7"/>
<image xlink:href="../../images/primaryKeys.png" width="11px" height="12px" preserveAspectRatio="xMinYMin meet" x="301" y="-262.7"/>
<text text-anchor="start" x="318" y="-252.8" font-family="Helvetica,sans-Serif" font-size="11.00" fill="#000000">id</text>
<polygon fill="none" stroke="#000000" points="296,-226.7 296,-245.7 388,-245.7 388,-226.7 296,-226.7"/>
<text text-anchor="start" x="299" y="-232.8" font-family="Helvetica,sans-Serif" font-size="11.00" fill="#000000">...</text>
<polygon fill="#ffffff" stroke="transparent" points="296,-207.7 296,-226.7 318,-226.7 318,-207.7 296,-207.7"/>
<polygon fill="none" stroke="#000000" points="296,-207.7 296,-226.7 318,-226.7 318,-207.7 296,-207.7"/>
<text text-anchor="start" x="299" y="-213.8" font-family="Helvetica,sans-Serif" font-size="11.00" fill="#000000"> &#160;</text>
<polygon fill="#ffffff" stroke="transparent" points="318,-207.7 318,-226.7 361,-226.7 361,-207.7 318,-207.7"/>
<polygon fill="none" stroke="#000000" points="318,-207.7 318,-226.7 361,-226.7 361,-207.7 318,-207.7"/>
<text text-anchor="start" x="325.6105" y="-213.8" font-family="Helvetica,sans-Serif" font-size="11.00" fill="#000000">0 rows</text>
<polygon fill="#ffffff" stroke="transparent" points="361,-207.7 361,-226.7 388,-226.7 388,-207.7 361,-207.7"/>
<polygon fill="none" stroke="#000000" points="361,-207.7 361,-226.7 388,-226.7 388,-207.7 361,-207.7"/>
<text text-anchor="start" x="369.4053" y="-213.8" font-family="Helvetica,sans-Serif" font-size="11.00" fill="#000000">1 &gt;</text>
</a>
</g>
</g>
<!-- event_sponsors&#45;&gt;sponsors -->
<g id="edge2" class="edge">
<title>event_sponsors:w&#45;&gt;sponsors:e</title>
<path fill="none" stroke="#000000" d="M442.8241,-256.7C423.0879,-256.7 413.3385,-256.7 388,-256.7"/>
<polygon fill="#000000" stroke="#000000" points="449.5,-256.7001 457.5,-260.3 453.5,-256.7 457.5,-256.7 457.5,-256.7 457.5,-256.7 453.5,-256.7 457.5,-253.1 449.5,-256.7001 449.5,-256.7001"/>
<ellipse fill="none" stroke="#000000" cx="446.3" cy="-256.7001" rx="3.2" ry="3.2"/>
</g>
<!-- chapters -->
<g id="node6" class="node">
<title>chapters</title>
<g id="a_node6"><a xlink:href="../../tables/chapters.html" xlink:title="chapters" target="_top">
<polygon fill="#ffffff" stroke="transparent" points="8,-87.2 8,-148.2 99,-148.2 99,-87.2 8,-87.2"/>
<polygon fill="#f5f5f5" stroke="transparent" points="8.5,-124.7 8.5,-147.7 99.5,-147.7 99.5,-124.7 8.5,-124.7"/>
<polygon fill="none" stroke="#000000" points="8.5,-124.7 8.5,-147.7 99.5,-147.7 99.5,-124.7 8.5,-124.7"/>
<text text-anchor="start" x="13.5" y="-133.3" font-family="Helvetica,sans-Serif" font-weight="bold" font-size="11.00" fill="#000000">chapters</text>
<text text-anchor="start" x="65.0219" y="-132.8" font-family="Helvetica,sans-Serif" font-size="11.00" fill="#000000">[table]</text>
<polygon fill="none" stroke="#000000" points="8.5,-105.7 8.5,-124.7 99.5,-124.7 99.5,-105.7 8.5,-105.7"/>
<text text-anchor="start" x="11.5" y="-111.8" font-family="Helvetica,sans-Serif" font-size="11.00" fill="#000000">...</text>
<polygon fill="#ffffff" stroke="transparent" points="8.5,-86.7 8.5,-105.7 30.5,-105.7 30.5,-86.7 8.5,-86.7"/>
<polygon fill="none" stroke="#000000" points="8.5,-86.7 8.5,-105.7 30.5,-105.7 30.5,-86.7 8.5,-86.7"/>
<text text-anchor="start" x="11.5" y="-92.8" font-family="Helvetica,sans-Serif" font-size="11.00" fill="#000000"> &#160;</text>
<polygon fill="#ffffff" stroke="transparent" points="30.5,-86.7 30.5,-105.7 73.5,-105.7 73.5,-86.7 30.5,-86.7"/>
<polygon fill="none" stroke="#000000" points="30.5,-86.7 30.5,-105.7 73.5,-105.7 73.5,-86.7 30.5,-86.7"/>
<text text-anchor="start" x="38.1105" y="-92.8" font-family="Helvetica,sans-Serif" font-size="11.00" fill="#000000">0 rows</text>
<polygon fill="#ffffff" stroke="transparent" points="73.5,-86.7 73.5,-105.7 99.5,-105.7 99.5,-86.7 73.5,-86.7"/>
<polygon fill="none" stroke="#000000" points="73.5,-86.7 73.5,-105.7 99.5,-105.7 99.5,-86.7 73.5,-86.7"/>
<text text-anchor="start" x="80.9053" y="-92.8" font-family="Helvetica,sans-Serif" font-size="11.00" fill="#000000">4 &gt;</text>
</a>
</g>
</g>
<!-- events&#45;&gt;chapters -->
<g id="edge5" class="edge">
<title>events:w&#45;&gt;chapters:e</title>
<path fill="none" stroke="#000000" d="M263.4531,-103.5094C213.6679,-102.1846 195.602,-94.6359 140,-102.7 121.4209,-105.3946 118.2735,-114.7 99.5,-114.7"/>
<polygon fill="#000000" stroke="#000000" points="270.0007,-103.5951 277.9528,-107.2997 274.0003,-103.6476 278,-103.7 278,-103.7 278,-103.7 274.0003,-103.6476 278.0472,-100.1003 270.0007,-103.5951 270.0007,-103.5951"/>
<ellipse fill="none" stroke="#000000" cx="266.801" cy="-103.5532" rx="3.2" ry="3.2"/>
</g>
<!-- venues -->
<g id="node7" class="node">
<title>venues</title>
<g id="a_node7"><a xlink:href="../../tables/venues.html" xlink:title="venues" target="_top">
<polygon fill="#ffffff" stroke="transparent" points="148,-113.2 148,-174.2 229,-174.2 229,-113.2 148,-113.2"/>
<polygon fill="#f5f5f5" stroke="transparent" points="148.5,-150.7 148.5,-173.7 229.5,-173.7 229.5,-150.7 148.5,-150.7"/>
<polygon fill="none" stroke="#000000" points="148.5,-150.7 148.5,-173.7 229.5,-173.7 229.5,-150.7 148.5,-150.7"/>
<text text-anchor="start" x="153.5" y="-159.3" font-family="Helvetica,sans-Serif" font-weight="bold" font-size="11.00" fill="#000000">venues</text>
<text text-anchor="start" x="195.0219" y="-158.8" font-family="Helvetica,sans-Serif" font-size="11.00" fill="#000000">[table]</text>
<polygon fill="none" stroke="#000000" points="148.5,-131.7 148.5,-150.7 229.5,-150.7 229.5,-131.7 148.5,-131.7"/>
<text text-anchor="start" x="151.5" y="-137.8" font-family="Helvetica,sans-Serif" font-size="11.00" fill="#000000">...</text>
<polygon fill="#ffffff" stroke="transparent" points="148.5,-112.7 148.5,-131.7 169.5,-131.7 169.5,-112.7 148.5,-112.7"/>
<polygon fill="none" stroke="#000000" points="148.5,-112.7 148.5,-131.7 169.5,-131.7 169.5,-112.7 148.5,-112.7"/>
<text text-anchor="start" x="151.2027" y="-118.8" font-family="Helvetica,sans-Serif" font-size="11.00" fill="#000000">&lt; 1</text>
<polygon fill="#ffffff" stroke="transparent" points="169.5,-112.7 169.5,-131.7 207.5,-131.7 207.5,-112.7 169.5,-112.7"/>
<polygon fill="none" stroke="#000000" points="169.5,-112.7 169.5,-131.7 207.5,-131.7 207.5,-112.7 169.5,-112.7"/>
<text text-anchor="start" x="172.3053" y="-118.8" font-family="Helvetica,sans-Serif" font-size="11.00" fill="#000000">0 rows</text>
<polygon fill="#ffffff" stroke="transparent" points="207.5,-112.7 207.5,-131.7 229.5,-131.7 229.5,-112.7 207.5,-112.7"/>
<polygon fill="none" stroke="#000000" points="207.5,-112.7 207.5,-131.7 229.5,-131.7 229.5,-112.7 207.5,-112.7"/>
<text text-anchor="start" x="210.9053" y="-118.8" font-family="Helvetica,sans-Serif" font-size="11.00" fill="#000000">1 &gt;</text>
</a>
</g>
</g>
<!-- events&#45;&gt;venues -->
<g id="edge6" class="edge">
<title>events:w&#45;&gt;venues:e</title>
<path fill="none" stroke="#000000" d="M263.7176,-128.1769C252.4219,-132.4374 246.2459,-140.7 229.5,-140.7"/>
<polygon fill="#000000" stroke="#000000" points="270.1177,-127.0671 278.6152,-129.2471 274.0588,-126.3835 278,-125.7 278,-125.7 278,-125.7 274.0588,-126.3835 277.3848,-122.1529 270.1177,-127.0671 270.1177,-127.0671"/>
<ellipse fill="none" stroke="#000000" cx="266.9647" cy="-127.6139" rx="3.2" ry="3.2"/>
</g>
<!-- event_tags -->
<g id="node4" class="node">
<title>event_tags</title>
<g id="a_node4"><a xlink:href="../../tables/event_tags.html" xlink:title="event_tags" target="_top">
<polygon fill="#ffffff" stroke="transparent" points="504,-120.2 504,-181.2 607,-181.2 607,-120.2 504,-120.2"/>
<polygon fill="#f5f5f5" stroke="transparent" points="504.5,-157.7 504.5,-180.7 607.5,-180.7 607.5,-157.7 504.5,-157.7"/>
<polygon fill="none" stroke="#000000" points="504.5,-157.7 504.5,-180.7 607.5,-180.7 607.5,-157.7 504.5,-157.7"/>
<text text-anchor="start" x="509.5" y="-166.3" font-family="Helvetica,sans-Serif" font-weight="bold" font-size="11.00" fill="#000000">event_tags</text>
<text text-anchor="start" x="573.0219" y="-165.8" font-family="Helvetica,sans-Serif" font-size="11.00" fill="#000000">[table]</text>
<polygon fill="none" stroke="#000000" points="504.5,-138.7 504.5,-157.7 607.5,-157.7 607.5,-138.7 504.5,-138.7"/>
<text text-anchor="start" x="507.5" y="-144.8" font-family="Helvetica,sans-Serif" font-size="11.00" fill="#000000">...</text>
<polygon fill="#ffffff" stroke="transparent" points="504.5,-119.7 504.5,-138.7 541.5,-138.7 541.5,-119.7 504.5,-119.7"/>
<polygon fill="none" stroke="#000000" points="504.5,-119.7 504.5,-138.7 541.5,-138.7 541.5,-119.7 504.5,-119.7"/>
<text text-anchor="start" x="507.5" y="-125.8" font-family="Helvetica,sans-Serif" font-size="11.00" fill="#000000">&lt; 2</text>
<polygon fill="#ffffff" stroke="transparent" points="541.5,-119.7 541.5,-138.7 587.5,-138.7 587.5,-119.7 541.5,-119.7"/>
<polygon fill="none" stroke="#000000" points="541.5,-119.7 541.5,-138.7 587.5,-138.7 587.5,-119.7 541.5,-119.7"/>
<text text-anchor="start" x="552.1105" y="-125.8" font-family="Helvetica,sans-Serif" font-size="11.00" fill="#000000">0 rows</text>
<polygon fill="#ffffff" stroke="transparent" points="587.5,-119.7 587.5,-138.7 607.5,-138.7 607.5,-119.7 587.5,-119.7"/>
<polygon fill="none" stroke="#000000" points="587.5,-119.7 587.5,-138.7 607.5,-138.7 607.5,-119.7 587.5,-119.7"/>
<text text-anchor="start" x="598.3862" y="-125.8" font-family="Helvetica,sans-Serif" font-size="11.00" fill="#000000"> &#160;</text>
</a>
</g>
</g>
<!-- event_tags&#45;&gt;events -->
<g id="edge3" class="edge">
<title>event_tags:w&#45;&gt;events:e</title>
<path fill="none" stroke="#000000" d="M489.9241,-147.7C457.5902,-147.7 444.4766,-147.7 406,-147.7"/>
<polygon fill="#000000" stroke="#000000" points="496.5,-147.7001 504.5,-151.3 500.5,-147.7 504.5,-147.7 504.5,-147.7 504.5,-147.7 500.5,-147.7 504.5,-144.1 496.5,-147.7001 496.5,-147.7001"/>
<ellipse fill="none" stroke="#000000" cx="493.3" cy="-147.7001" rx="3.2" ry="3.2"/>
</g>
<!-- event_users -->
<g id="node5" class="node">
<title>event_users</title>
<g id="a_node5"><a xlink:href="../../tables/event_users.html" xlink:title="event_users" target="_top">
<polygon fill="#ffffff" stroke="transparent" points="500.5,-38.2 500.5,-99.2 610.5,-99.2 610.5,-38.2 500.5,-38.2"/>
<polygon fill="#f5f5f5" stroke="transparent" points="500.5,-75.7 500.5,-98.7 610.5,-98.7 610.5,-75.7 500.5,-75.7"/>
<polygon fill="none" stroke="#000000" points="500.5,-75.7 500.5,-98.7 610.5,-98.7 610.5,-75.7 500.5,-75.7"/>
<text text-anchor="start" x="505.5" y="-84.3" font-family="Helvetica,sans-Serif" font-weight="bold" font-size="11.00" fill="#000000">event_users</text>
<text text-anchor="start" x="576.0219" y="-83.8" font-family="Helvetica,sans-Serif" font-size="11.00" fill="#000000">[table]</text>
<polygon fill="none" stroke="#000000" points="500.5,-56.7 500.5,-75.7 610.5,-75.7 610.5,-56.7 500.5,-56.7"/>
<text text-anchor="start" x="503.5" y="-62.8" font-family="Helvetica,sans-Serif" font-size="11.00" fill="#000000">...</text>
<polygon fill="#ffffff" stroke="transparent" points="500.5,-37.7 500.5,-56.7 536.5,-56.7 536.5,-37.7 500.5,-37.7"/>
<polygon fill="none" stroke="#000000" points="500.5,-37.7 500.5,-56.7 536.5,-56.7 536.5,-37.7 500.5,-37.7"/>
<text text-anchor="start" x="503.5" y="-43.8" font-family="Helvetica,sans-Serif" font-size="11.00" fill="#000000">&lt; 4</text>
<polygon fill="#ffffff" stroke="transparent" points="536.5,-37.7 536.5,-56.7 581.5,-56.7 581.5,-37.7 536.5,-37.7"/>
<polygon fill="none" stroke="#000000" points="536.5,-37.7 536.5,-56.7 581.5,-56.7 581.5,-37.7 536.5,-37.7"/>
<text text-anchor="start" x="546.1105" y="-43.8" font-family="Helvetica,sans-Serif" font-size="11.00" fill="#000000">0 rows</text>
<polygon fill="#ffffff" stroke="transparent" points="581.5,-37.7 581.5,-56.7 610.5,-56.7 610.5,-37.7 581.5,-37.7"/>
<polygon fill="none" stroke="#000000" points="581.5,-37.7 581.5,-56.7 610.5,-56.7 610.5,-37.7 581.5,-37.7"/>
<text text-anchor="start" x="591.9053" y="-43.8" font-family="Helvetica,sans-Serif" font-size="11.00" fill="#000000">2 &gt;</text>
</a>
</g>
</g>
<!-- event_users&#45;&gt;events -->
<g id="edge4" class="edge">
<title>event_users:w&#45;&gt;events:e</title>
<path fill="none" stroke="#000000" d="M486.1177,-68.0252C469.0599,-74.4831 465.841,-93.2466 447,-109.7 428.2861,-126.0424 430.8452,-147.7 406,-147.7"/>
<polygon fill="#000000" stroke="#000000" points="492.6025,-66.9768 501.0746,-69.2539 496.5513,-66.3384 500.5,-65.7 500.5,-65.7 500.5,-65.7 496.5513,-66.3384 499.9254,-62.1461 492.6025,-66.9768 492.6025,-66.9768"/>
<ellipse fill="none" stroke="#000000" cx="489.4436" cy="-67.4876" rx="3.2" ry="3.2"/>
</g>
<!-- venues&#45;&gt;chapters -->
<g id="edge7" class="edge">
<title>venues:w&#45;&gt;chapters:e</title>
<path fill="none" stroke="#000000" d="M134.2707,-136.8636C122.5311,-129.6313 118.1828,-114.7 99.5,-114.7"/>
<polygon fill="#000000" stroke="#000000" points="140.7758,-138.6174 147.5628,-144.1759 144.6379,-139.6587 148.5,-140.7 148.5,-140.7 148.5,-140.7 144.6379,-139.6587 149.4372,-137.2241 140.7758,-138.6174 140.7758,-138.6174"/>
<ellipse fill="none" stroke="#000000" cx="137.6861" cy="-137.7844" rx="3.2" ry="3.2"/>
</g>
</g>
</svg>
