<?xml version="1.0" encoding="UTF-8" standalone="no"?>
<!DOCTYPE svg PUBLIC "-//W3C//DTD SVG 1.1//EN"
 "http://www.w3.org/Graphics/SVG/1.1/DTD/svg11.dtd">
<!-- Generated by graphviz version 2.40.1 (20161225.0304)
 -->
<!-- Title: oneDegreeRelationshipsDiagram Pages: 1 -->
<svg width="548pt" height="326pt"
 viewBox="0.00 0.00 548.00 326.20" xmlns="http://www.w3.org/2000/svg" xmlns:xlink="http://www.w3.org/1999/xlink">
<g id="graph0" class="graph" transform="scale(1 1) rotate(0) translate(4 322.2)">
<title>oneDegreeRelationshipsDiagram</title>
<polygon fill="#ffffff" stroke="transparent" points="-4,4 -4,-322.2 544,-322.2 544,4 -4,4"/>
<text text-anchor="middle" x="72.4936" y="-7.3" font-family="Helvetica,sans-Serif" font-size="11.00" fill="#000000">Generated by SchemaSpy</text>
<!-- event_reminders -->
<g id="node1" class="node">
<title>event_reminders</title>
<g id="a_node1"><a xlink:href="../../tables/event_reminders.html" xlink:title="event_reminders" target="_top">
<polygon fill="#ffffff" stroke="transparent" points="322,-124.7 322,-302.7 532,-302.7 532,-124.7 322,-124.7"/>
<polygon fill="#f5f5f5" stroke="transparent" points="324,-277.7 324,-300.7 530,-300.7 530,-277.7 324,-277.7"/>
<polygon fill="none" stroke="#000000" points="324,-277.7 324,-300.7 530,-300.7 530,-277.7 324,-277.7"/>
<text text-anchor="start" x="329" y="-286.8" font-family="Helvetica,sans-Serif" font-weight="bold" font-size="11.00" fill="#000000">event_reminders</text>
<text text-anchor="start" x="495.0437" y="-285.8" font-family="Helvetica,sans-Serif" font-size="11.00" fill="#000000">[table]</text>
<polygon fill="none" stroke="#000000" points="324,-255.7 324,-277.7 446,-277.7 446,-255.7 324,-255.7"/>
<text text-anchor="start" x="344" y="-262.8" font-family="Helvetica,sans-Serif" font-size="11.00" fill="#000000">created_at</text>
<polygon fill="none" stroke="#000000" points="446,-255.7 446,-277.7 530,-277.7 530,-255.7 446,-255.7"/>
<text text-anchor="start" x="448.8807" y="-263.4" font-family="Helvetica,sans-Serif" font-size="11.00" fill="#000000">timestamp[26,3]</text>
<polygon fill="none" stroke="#000000" points="324,-233.7 324,-255.7 446,-255.7 446,-233.7 324,-233.7"/>
<text text-anchor="start" x="344" y="-240.8" font-family="Helvetica,sans-Serif" font-size="11.00" fill="#000000">updated_at</text>
<polygon fill="none" stroke="#000000" points="446,-233.7 446,-255.7 530,-255.7 530,-233.7 446,-233.7"/>
<text text-anchor="start" x="448.8807" y="-241.4" font-family="Helvetica,sans-Serif" font-size="11.00" fill="#000000">timestamp[26,3]</text>
<polygon fill="none" stroke="#000000" points="324,-211.7 324,-233.7 446,-233.7 446,-211.7 324,-211.7"/>
<image xlink:href="../../images/primaryKeys.png" width="11px" height="12px" preserveAspectRatio="xMinYMin meet" x="329" y="-228.7"/>
<text text-anchor="start" x="344" y="-218.8" font-family="Helvetica,sans-Serif" font-size="11.00" fill="#000000">user_id</text>
<polygon fill="none" stroke="#000000" points="446,-211.7 446,-233.7 530,-233.7 530,-211.7 446,-211.7"/>
<text text-anchor="start" x="449" y="-219.4" font-family="Helvetica,sans-Serif" font-size="11.00" fill="#000000">int4[10]</text>
<polygon fill="none" stroke="#000000" points="324,-189.7 324,-211.7 446,-211.7 446,-189.7 324,-189.7"/>
<image xlink:href="../../images/primaryKeys.png" width="11px" height="12px" preserveAspectRatio="xMinYMin meet" x="329" y="-206.7"/>
<text text-anchor="start" x="344" y="-196.8" font-family="Helvetica,sans-Serif" font-size="11.00" fill="#000000">event_id</text>
<polygon fill="none" stroke="#000000" points="446,-189.7 446,-211.7 530,-211.7 530,-189.7 446,-189.7"/>
<text text-anchor="start" x="449" y="-197.4" font-family="Helvetica,sans-Serif" font-size="11.00" fill="#000000">int4[10]</text>
<polygon fill="none" stroke="#000000" points="324,-167.7 324,-189.7 446,-189.7 446,-167.7 324,-167.7"/>
<text text-anchor="start" x="344" y="-174.8" font-family="Helvetica,sans-Serif" font-size="11.00" fill="#000000">remind_at</text>
<polygon fill="none" stroke="#000000" points="446,-167.7 446,-189.7 530,-189.7 530,-167.7 446,-167.7"/>
<text text-anchor="start" x="448.8807" y="-175.4" font-family="Helvetica,sans-Serif" font-size="11.00" fill="#000000">timestamp[26,3]</text>
<polygon fill="none" stroke="#000000" points="324,-145.7 324,-167.7 446,-167.7 446,-145.7 324,-145.7"/>
<text text-anchor="start" x="344" y="-152.8" font-family="Helvetica,sans-Serif" font-size="11.00" fill="#000000">notifying</text>
<polygon fill="none" stroke="#000000" points="446,-145.7 446,-167.7 530,-167.7 530,-145.7 446,-145.7"/>
<text text-anchor="start" x="449" y="-153.4" font-family="Helvetica,sans-Serif" font-size="11.00" fill="#000000">bool[1]</text>
<polygon fill="#ffffff" stroke="transparent" points="324,-126.7 324,-145.7 376,-145.7 376,-126.7 324,-126.7"/>
<polygon fill="none" stroke="#000000" points="324,-126.7 324,-145.7 376,-145.7 376,-126.7 324,-126.7"/>
<text text-anchor="start" x="327" y="-132.8" font-family="Helvetica,sans-Serif" font-size="11.00" fill="#000000">&lt; 4</text>
<polygon fill="#ffffff" stroke="transparent" points="376,-126.7 376,-145.7 446,-145.7 446,-126.7 376,-126.7"/>
<polygon fill="none" stroke="#000000" points="376,-126.7 376,-145.7 446,-145.7 446,-126.7 376,-126.7"/>
<text text-anchor="start" x="410.6105" y="-132.8" font-family="Helvetica,sans-Serif" font-size="11.00" fill="#000000">0 rows</text>
<polygon fill="#ffffff" stroke="transparent" points="446,-126.7 446,-145.7 530,-145.7 530,-126.7 446,-126.7"/>
<polygon fill="none" stroke="#000000" points="446,-126.7 446,-145.7 530,-145.7 530,-126.7 446,-126.7"/>
<text text-anchor="start" x="511.4053" y="-132.8" font-family="Helvetica,sans-Serif" font-size="11.00" fill="#000000">0 &gt;</text>
<polygon fill="none" stroke="#000000" stroke-width="2" points="323,-125.7 323,-301.7 531,-301.7 531,-125.7 323,-125.7"/>
</a>
</g>
</g>
<!-- events -->
<g id="node2" class="node">
<title>events</title>
<g id="a_node2"><a xlink:href="../../tables/events.html" xlink:title="events" target="_top">
<polygon fill="#ffffff" stroke="transparent" points="14,-38.2 14,-165.2 118,-165.2 118,-38.2 14,-38.2"/>
<polygon fill="#f5f5f5" stroke="transparent" points="14,-141.7 14,-164.7 118,-164.7 118,-141.7 14,-141.7"/>
<polygon fill="none" stroke="#000000" points="14,-141.7 14,-164.7 118,-164.7 118,-141.7 14,-141.7"/>
<text text-anchor="start" x="19" y="-150.8" font-family="Helvetica,sans-Serif" font-weight="bold" font-size="11.00" fill="#000000">events</text>
<text text-anchor="start" x="83.0437" y="-149.8" font-family="Helvetica,sans-Serif" font-size="11.00" fill="#000000">[table]</text>
<polygon fill="none" stroke="#000000" points="14,-119.7 14,-141.7 118,-141.7 118,-119.7 14,-119.7"/>
<image xlink:href="../../images/primaryKeys.png" width="11px" height="12px" preserveAspectRatio="xMinYMin meet" x="19" y="-136.7"/>
<text text-anchor="start" x="34" y="-126.8" font-family="Helvetica,sans-Serif" font-size="11.00" fill="#000000">id</text>
<polygon fill="none" stroke="#000000" points="14,-97.7 14,-119.7 118,-119.7 118,-97.7 14,-97.7"/>
<image xlink:href="../../images/foreignKeys.png" width="11px" height="12px" preserveAspectRatio="xMinYMin meet" x="19" y="-114.7"/>
<text text-anchor="start" x="34" y="-104.8" font-family="Helvetica,sans-Serif" font-size="11.00" fill="#000000">venue_id</text>
<polygon fill="none" stroke="#000000" points="14,-75.7 14,-97.7 118,-97.7 118,-75.7 14,-75.7"/>
<image xlink:href="../../images/foreignKeys.png" width="11px" height="12px" preserveAspectRatio="xMinYMin meet" x="19" y="-92.7"/>
<text text-anchor="start" x="34" y="-82.8" font-family="Helvetica,sans-Serif" font-size="11.00" fill="#000000">chapter_id</text>
<polygon fill="none" stroke="#000000" points="14,-56.7 14,-75.7 118,-75.7 118,-56.7 14,-56.7"/>
<text text-anchor="start" x="17" y="-62.8" font-family="Helvetica,sans-Serif" font-size="11.00" fill="#000000">...</text>
<polygon fill="#ffffff" stroke="transparent" points="14,-37.7 14,-56.7 47,-56.7 47,-37.7 14,-37.7"/>
<polygon fill="none" stroke="#000000" points="14,-37.7 14,-56.7 47,-56.7 47,-37.7 14,-37.7"/>
<text text-anchor="start" x="17" y="-43.8" font-family="Helvetica,sans-Serif" font-size="11.00" fill="#000000">&lt; 2</text>
<polygon fill="#ffffff" stroke="transparent" points="47,-37.7 47,-56.7 91,-56.7 91,-37.7 47,-37.7"/>
<polygon fill="none" stroke="#000000" points="47,-37.7 47,-56.7 91,-56.7 91,-37.7 47,-37.7"/>
<text text-anchor="start" x="55.6105" y="-43.8" font-family="Helvetica,sans-Serif" font-size="11.00" fill="#000000">0 rows</text>
<polygon fill="#ffffff" stroke="transparent" points="91,-37.7 91,-56.7 118,-56.7 118,-37.7 91,-37.7"/>
<polygon fill="none" stroke="#000000" points="91,-37.7 91,-56.7 118,-56.7 118,-37.7 91,-37.7"/>
<text text-anchor="start" x="99.4053" y="-43.8" font-family="Helvetica,sans-Serif" font-size="11.00" fill="#000000">5 &gt;</text>
</a>
</g>
</g>
<!-- event_reminders&#45;&gt;events -->
<g id="edge1" class="edge">
<title>event_reminders:w&#45;&gt;events:e</title>
<path fill="none" stroke="#000000" d="M310.0252,-196.2707C296.7631,-184.831 303.8611,-154.3137 281,-141.7 217.4258,-106.6227 190.6092,-130.7 118,-130.7"/>
<polygon fill="#000000" stroke="#000000" points="316.3739,-198.2829 322.9123,-204.1318 320.1869,-199.4914 324,-200.7 324,-200.7 324,-200.7 320.1869,-199.4914 325.0877,-197.2682 316.3739,-198.2829 316.3739,-198.2829"/>
<ellipse fill="none" stroke="#000000" cx="313.3234" cy="-197.316" rx="3.2" ry="3.2"/>
</g>
<!-- rsvps -->
<g id="node3" class="node">
<title>rsvps</title>
<g id="a_node3"><a xlink:href="../../tables/rsvps.html" xlink:title="rsvps" target="_top">
<polygon fill="#ffffff" stroke="transparent" points="173,-152.2 173,-257.2 273,-257.2 273,-152.2 173,-152.2"/>
<polygon fill="#f5f5f5" stroke="transparent" points="173,-233.7 173,-256.7 273,-256.7 273,-233.7 173,-233.7"/>
<polygon fill="none" stroke="#000000" points="173,-233.7 173,-256.7 273,-256.7 273,-233.7 173,-233.7"/>
<text text-anchor="start" x="178" y="-242.8" font-family="Helvetica,sans-Serif" font-weight="bold" font-size="11.00" fill="#000000">rsvps</text>
<text text-anchor="start" x="238.0437" y="-241.8" font-family="Helvetica,sans-Serif" font-size="11.00" fill="#000000">[table]</text>
<polygon fill="none" stroke="#000000" points="173,-211.7 173,-233.7 273,-233.7 273,-211.7 173,-211.7"/>
<image xlink:href="../../images/primaryKeys.png" width="11px" height="12px" preserveAspectRatio="xMinYMin meet" x="178" y="-228.7"/>
<text text-anchor="start" x="193" y="-218.8" font-family="Helvetica,sans-Serif" font-size="11.00" fill="#000000">user_id</text>
<polygon fill="none" stroke="#000000" points="173,-189.7 173,-211.7 273,-211.7 273,-189.7 173,-189.7"/>
<image xlink:href="../../images/primaryKeys.png" width="11px" height="12px" preserveAspectRatio="xMinYMin meet" x="178" y="-206.7"/>
<text text-anchor="start" x="193" y="-196.8" font-family="Helvetica,sans-Serif" font-size="11.00" fill="#000000">event_id</text>
<polygon fill="none" stroke="#000000" points="173,-170.7 173,-189.7 273,-189.7 273,-170.7 173,-170.7"/>
<text text-anchor="start" x="176" y="-176.8" font-family="Helvetica,sans-Serif" font-size="11.00" fill="#000000">...</text>
<polygon fill="#ffffff" stroke="transparent" points="173,-151.7 173,-170.7 204,-170.7 204,-151.7 173,-151.7"/>
<polygon fill="none" stroke="#000000" points="173,-151.7 173,-170.7 204,-170.7 204,-151.7 173,-151.7"/>
<text text-anchor="start" x="176" y="-157.8" font-family="Helvetica,sans-Serif" font-size="11.00" fill="#000000">&lt; 2</text>
<polygon fill="#ffffff" stroke="transparent" points="204,-151.7 204,-170.7 247,-170.7 247,-151.7 204,-151.7"/>
<polygon fill="none" stroke="#000000" points="204,-151.7 204,-170.7 247,-170.7 247,-151.7 204,-151.7"/>
<text text-anchor="start" x="211.6105" y="-157.8" font-family="Helvetica,sans-Serif" font-size="11.00" fill="#000000">0 rows</text>
<polygon fill="#ffffff" stroke="transparent" points="247,-151.7 247,-170.7 273,-170.7 273,-151.7 247,-151.7"/>
<polygon fill="none" stroke="#000000" points="247,-151.7 247,-170.7 273,-170.7 273,-151.7 247,-151.7"/>
<text text-anchor="start" x="254.4053" y="-157.8" font-family="Helvetica,sans-Serif" font-size="11.00" fill="#000000">2 &gt;</text>
</a>
</g>
</g>
<!-- event_reminders&#45;&gt;rsvps -->
<g id="edge2" class="edge">
<title>event_reminders:w&#45;&gt;rsvps:e</title>
<path fill="none" stroke="#000000" d="M309.276,-200.7C297.2815,-200.7 289.8229,-200.7 273,-200.7"/>
<polygon fill="#000000" stroke="#000000" points="316,-200.7001 324,-204.3 320,-200.7 324,-200.7 324,-200.7 324,-200.7 320,-200.7 324,-197.1 316,-200.7001 316,-200.7001"/>
<ellipse fill="none" stroke="#000000" cx="312.8" cy="-200.7001" rx="3.2" ry="3.2"/>
</g>
<!-- event_reminders&#45;&gt;rsvps -->
<g id="edge3" class="edge">
<title>event_reminders:w&#45;&gt;rsvps:e</title>
<path fill="none" stroke="#000000" d="M309.276,-222.7C297.2815,-222.7 289.8229,-222.7 273,-222.7"/>
<polygon fill="#000000" stroke="#000000" points="316,-222.7001 324,-226.3 320,-222.7 324,-222.7 324,-222.7 324,-222.7 320,-222.7 324,-219.1 316,-222.7001 316,-222.7001"/>
<ellipse fill="none" stroke="#000000" cx="312.8" cy="-222.7001" rx="3.2" ry="3.2"/>
</g>
<!-- users -->
<g id="node4" class="node">
<title>users</title>
<g id="a_node4"><a xlink:href="../../tables/users.html" xlink:title="users" target="_top">
<polygon fill="#ffffff" stroke="transparent" points="8,-187.2 8,-314.2 124,-314.2 124,-187.2 8,-187.2"/>
<polygon fill="#f5f5f5" stroke="transparent" points="8,-290.7 8,-313.7 124,-313.7 124,-290.7 8,-290.7"/>
<polygon fill="none" stroke="#000000" points="8,-290.7 8,-313.7 124,-313.7 124,-290.7 8,-290.7"/>
<text text-anchor="start" x="13" y="-299.8" font-family="Helvetica,sans-Serif" font-weight="bold" font-size="11.00" fill="#000000">users</text>
<text text-anchor="start" x="89.0437" y="-298.8" font-family="Helvetica,sans-Serif" font-size="11.00" fill="#000000">[table]</text>
<polygon fill="none" stroke="#000000" points="8,-268.7 8,-290.7 124,-290.7 124,-268.7 8,-268.7"/>
<image xlink:href="../../images/primaryKeys.png" width="11px" height="12px" preserveAspectRatio="xMinYMin meet" x="13" y="-285.7"/>
<text text-anchor="start" x="28" y="-275.8" font-family="Helvetica,sans-Serif" font-size="11.00" fill="#000000">id</text>
<polygon fill="#ffffff" stroke="transparent" points="8,-246.7 8,-268.7 124,-268.7 124,-246.7 8,-246.7"/>
<polygon fill="none" stroke="#000000" points="8,-246.7 8,-268.7 124,-268.7 124,-246.7 8,-246.7"/>
<text text-anchor="start" x="28" y="-253.8" font-family="Helvetica,sans-Serif" font-size="11.00" fill="#000000">email</text>
<polygon fill="none" stroke="#000000" points="8,-224.7 8,-246.7 124,-246.7 124,-224.7 8,-224.7"/>
<image xlink:href="../../images/foreignKeys.png" width="11px" height="12px" preserveAspectRatio="xMinYMin meet" x="13" y="-241.7"/>
<text text-anchor="start" x="28" y="-231.8" font-family="Helvetica,sans-Serif" font-size="11.00" fill="#000000">instance_role_id</text>
<polygon fill="none" stroke="#000000" points="8,-205.7 8,-224.7 124,-224.7 124,-205.7 8,-205.7"/>
<text text-anchor="start" x="11" y="-211.8" font-family="Helvetica,sans-Serif" font-size="11.00" fill="#000000">...</text>
<polygon fill="#ffffff" stroke="transparent" points="8,-186.7 8,-205.7 47,-205.7 47,-186.7 8,-186.7"/>
<polygon fill="none" stroke="#000000" points="8,-186.7 8,-205.7 47,-205.7 47,-186.7 8,-186.7"/>
<text text-anchor="start" x="11" y="-192.8" font-family="Helvetica,sans-Serif" font-size="11.00" fill="#000000">&lt; 1</text>
<polygon fill="#ffffff" stroke="transparent" points="47,-186.7 47,-205.7 94,-205.7 94,-186.7 47,-186.7"/>
<polygon fill="none" stroke="#000000" points="47,-186.7 47,-205.7 94,-205.7 94,-186.7 47,-186.7"/>
<text text-anchor="start" x="58.6105" y="-192.8" font-family="Helvetica,sans-Serif" font-size="11.00" fill="#000000">0 rows</text>
<polygon fill="#ffffff" stroke="transparent" points="94,-186.7 94,-205.7 124,-205.7 124,-186.7 94,-186.7"/>
<polygon fill="none" stroke="#000000" points="94,-186.7 94,-205.7 124,-205.7 124,-186.7 94,-186.7"/>
<text text-anchor="start" x="105.4053" y="-192.8" font-family="Helvetica,sans-Serif" font-size="11.00" fill="#000000">5 &gt;</text>
</a>
</g>
</g>
<!-- event_reminders&#45;&gt;users -->
<g id="edge4" class="edge">
<title>event_reminders:w&#45;&gt;users:e</title>
<path fill="none" stroke="#000000" d="M310.1088,-227.173C298.9371,-236.632 300.3375,-258.5442 281,-267.7 217.7501,-297.6472 193.9813,-279.7 124,-279.7"/>
<polygon fill="#000000" stroke="#000000" points="316.385,-225.1521 325.1034,-226.1267 320.1925,-223.926 324,-222.7 324,-222.7 324,-222.7 320.1925,-223.926 322.8966,-219.2733 316.385,-225.1521 316.385,-225.1521"/>
<ellipse fill="none" stroke="#000000" cx="313.3391" cy="-226.1329" rx="3.2" ry="3.2"/>
</g>
<!-- rsvps&#45;&gt;events -->
<g id="edge5" class="edge">
<title>rsvps:w&#45;&gt;events:e</title>
<path fill="none" stroke="#000000" d="M159.1747,-196.5308C139.1949,-181.4611 151.6925,-130.7 118,-130.7"/>
<polygon fill="#000000" stroke="#000000" points="165.3407,-198.3902 171.9606,-204.1467 169.1703,-199.5451 173,-200.7 173,-200.7 173,-200.7 169.1703,-199.5451 174.0394,-197.2533 165.3407,-198.3902 165.3407,-198.3902"/>
<ellipse fill="none" stroke="#000000" cx="162.277" cy="-197.4663" rx="3.2" ry="3.2"/>
</g>
<!-- rsvps&#45;&gt;users -->
<g id="edge6" class="edge">
<title>rsvps:w&#45;&gt;users:e</title>
<path fill="none" stroke="#000000" d="M159.3585,-227.5598C144.341,-241.344 151.4044,-279.7 124,-279.7"/>
<polygon fill="#000000" stroke="#000000" points="165.4639,-225.3848 174.2081,-226.0912 169.232,-224.0424 173,-222.7 173,-222.7 173,-222.7 169.232,-224.0424 171.7919,-219.3088 165.4639,-225.3848 165.4639,-225.3848"/>
<ellipse fill="none" stroke="#000000" cx="162.4495" cy="-226.4587" rx="3.2" ry="3.2"/>
</g>
</g>
</svg>
