<?xml version="1.0" encoding="UTF-8" standalone="no"?>
<!DOCTYPE svg PUBLIC "-//W3C//DTD SVG 1.1//EN"
 "http://www.w3.org/Graphics/SVG/1.1/DTD/svg11.dtd">
<!-- Generated by graphviz version 2.40.1 (20161225.0304)
 -->
<!-- Title: twoDegreesRelationshipsDiagram Pages: 1 -->
<svg width="512pt" height="453pt"
 viewBox="0.00 0.00 512.00 452.70" xmlns="http://www.w3.org/2000/svg" xmlns:xlink="http://www.w3.org/1999/xlink">
<g id="graph0" class="graph" transform="scale(1 1) rotate(0) translate(4 448.7)">
<title>twoDegreesRelationshipsDiagram</title>
<polygon fill="#ffffff" stroke="transparent" points="-4,4 -4,-448.7 508,-448.7 508,4 -4,4"/>
<text text-anchor="middle" x="72.4936" y="-7.3" font-family="Helvetica,sans-Serif" font-size="11.00" fill="#000000">Generated by SchemaSpy</text>
<!-- event_sponsors -->
<g id="node1" class="node">
<title>event_sponsors</title>
<g id="a_node1"><a xlink:href="../../tables/event_sponsors.html" xlink:title="event_sponsors" target="_top">
<polygon fill="#ffffff" stroke="transparent" points="295,-284.7 295,-440.7 496,-440.7 496,-284.7 295,-284.7"/>
<polygon fill="#f5f5f5" stroke="transparent" points="297.5,-415.7 297.5,-438.7 494.5,-438.7 494.5,-415.7 297.5,-415.7"/>
<polygon fill="none" stroke="#000000" points="297.5,-415.7 297.5,-438.7 494.5,-438.7 494.5,-415.7 297.5,-415.7"/>
<text text-anchor="start" x="302.5" y="-424.8" font-family="Helvetica,sans-Serif" font-weight="bold" font-size="11.00" fill="#000000">event_sponsors</text>
<text text-anchor="start" x="459.5437" y="-423.8" font-family="Helvetica,sans-Serif" font-size="11.00" fill="#000000">[table]</text>
<polygon fill="none" stroke="#000000" points="297.5,-393.7 297.5,-415.7 410.5,-415.7 410.5,-393.7 297.5,-393.7"/>
<image xlink:href="../../images/primaryKeys.png" width="11px" height="12px" preserveAspectRatio="xMinYMin meet" x="302.5" y="-410.7"/>
<text text-anchor="start" x="317.5" y="-400.8" font-family="Helvetica,sans-Serif" font-size="11.00" fill="#000000">id</text>
<polygon fill="none" stroke="#000000" points="410.5,-393.7 410.5,-415.7 494.5,-415.7 494.5,-393.7 410.5,-393.7"/>
<text text-anchor="start" x="413.5" y="-401.4" font-family="Helvetica,sans-Serif" font-size="11.00" fill="#000000">serial[10]</text>
<polygon fill="none" stroke="#000000" points="297.5,-371.7 297.5,-393.7 410.5,-393.7 410.5,-371.7 297.5,-371.7"/>
<text text-anchor="start" x="317.5" y="-378.8" font-family="Helvetica,sans-Serif" font-size="11.00" fill="#000000">created_at</text>
<polygon fill="none" stroke="#000000" points="410.5,-371.7 410.5,-393.7 494.5,-393.7 494.5,-371.7 410.5,-371.7"/>
<text text-anchor="start" x="413.3807" y="-379.4" font-family="Helvetica,sans-Serif" font-size="11.00" fill="#000000">timestamp[29,6]</text>
<polygon fill="none" stroke="#000000" points="297.5,-349.7 297.5,-371.7 410.5,-371.7 410.5,-349.7 297.5,-349.7"/>
<text text-anchor="start" x="317.5" y="-356.8" font-family="Helvetica,sans-Serif" font-size="11.00" fill="#000000">updated_at</text>
<polygon fill="none" stroke="#000000" points="410.5,-349.7 410.5,-371.7 494.5,-371.7 494.5,-349.7 410.5,-349.7"/>
<text text-anchor="start" x="413.3807" y="-357.4" font-family="Helvetica,sans-Serif" font-size="11.00" fill="#000000">timestamp[29,6]</text>
<polygon fill="none" stroke="#000000" points="297.5,-327.7 297.5,-349.7 410.5,-349.7 410.5,-327.7 297.5,-327.7"/>
<image xlink:href="../../images/foreignKeys.png" width="11px" height="12px" preserveAspectRatio="xMinYMin meet" x="302.5" y="-344.7"/>
<text text-anchor="start" x="317.5" y="-334.8" font-family="Helvetica,sans-Serif" font-size="11.00" fill="#000000">sponsor_id</text>
<polygon fill="none" stroke="#000000" points="410.5,-327.7 410.5,-349.7 494.5,-349.7 494.5,-327.7 410.5,-327.7"/>
<text text-anchor="start" x="413.5" y="-335.4" font-family="Helvetica,sans-Serif" font-size="11.00" fill="#000000">int4[10]</text>
<polygon fill="none" stroke="#000000" points="297.5,-305.7 297.5,-327.7 410.5,-327.7 410.5,-305.7 297.5,-305.7"/>
<image xlink:href="../../images/foreignKeys.png" width="11px" height="12px" preserveAspectRatio="xMinYMin meet" x="302.5" y="-322.7"/>
<text text-anchor="start" x="317.5" y="-312.8" font-family="Helvetica,sans-Serif" font-size="11.00" fill="#000000">event_id</text>
<polygon fill="none" stroke="#000000" points="410.5,-305.7 410.5,-327.7 494.5,-327.7 494.5,-305.7 410.5,-305.7"/>
<text text-anchor="start" x="413.5" y="-313.4" font-family="Helvetica,sans-Serif" font-size="11.00" fill="#000000">int4[10]</text>
<polygon fill="#ffffff" stroke="transparent" points="297.5,-286.7 297.5,-305.7 345.5,-305.7 345.5,-286.7 297.5,-286.7"/>
<polygon fill="none" stroke="#000000" points="297.5,-286.7 297.5,-305.7 345.5,-305.7 345.5,-286.7 297.5,-286.7"/>
<text text-anchor="start" x="300.5" y="-292.8" font-family="Helvetica,sans-Serif" font-size="11.00" fill="#000000">&lt; 2</text>
<polygon fill="#ffffff" stroke="transparent" points="345.5,-286.7 345.5,-305.7 410.5,-305.7 410.5,-286.7 345.5,-286.7"/>
<polygon fill="none" stroke="#000000" points="345.5,-286.7 345.5,-305.7 410.5,-305.7 410.5,-286.7 345.5,-286.7"/>
<text text-anchor="start" x="375.1105" y="-292.8" font-family="Helvetica,sans-Serif" font-size="11.00" fill="#000000">0 rows</text>
<polygon fill="#ffffff" stroke="transparent" points="410.5,-286.7 410.5,-305.7 494.5,-305.7 494.5,-286.7 410.5,-286.7"/>
<polygon fill="none" stroke="#000000" points="410.5,-286.7 410.5,-305.7 494.5,-305.7 494.5,-286.7 410.5,-286.7"/>
<text text-anchor="start" x="475.9053" y="-292.8" font-family="Helvetica,sans-Serif" font-size="11.00" fill="#000000">0 &gt;</text>
<polygon fill="none" stroke="#000000" stroke-width="2" points="296,-285.7 296,-439.7 495,-439.7 495,-285.7 296,-285.7"/>
</a>
</g>
</g>
<!-- events -->
<g id="node2" class="node">
<title>events</title>
<g id="a_node2"><a xlink:href="../../tables/events.html" xlink:title="events" target="_top">
<polygon fill="#ffffff" stroke="transparent" points="142,-96.2 142,-223.2 246,-223.2 246,-96.2 142,-96.2"/>
<polygon fill="#f5f5f5" stroke="transparent" points="142,-199.7 142,-222.7 246,-222.7 246,-199.7 142,-199.7"/>
<polygon fill="none" stroke="#000000" points="142,-199.7 142,-222.7 246,-222.7 246,-199.7 142,-199.7"/>
<text text-anchor="start" x="147" y="-208.8" font-family="Helvetica,sans-Serif" font-weight="bold" font-size="11.00" fill="#000000">events</text>
<text text-anchor="start" x="211.0437" y="-207.8" font-family="Helvetica,sans-Serif" font-size="11.00" fill="#000000">[table]</text>
<polygon fill="none" stroke="#000000" points="142,-177.7 142,-199.7 246,-199.7 246,-177.7 142,-177.7"/>
<image xlink:href="../../images/primaryKeys.png" width="11px" height="12px" preserveAspectRatio="xMinYMin meet" x="147" y="-194.7"/>
<text text-anchor="start" x="162" y="-184.8" font-family="Helvetica,sans-Serif" font-size="11.00" fill="#000000">id</text>
<polygon fill="none" stroke="#000000" points="142,-155.7 142,-177.7 246,-177.7 246,-155.7 142,-155.7"/>
<image xlink:href="../../images/foreignKeys.png" width="11px" height="12px" preserveAspectRatio="xMinYMin meet" x="147" y="-172.7"/>
<text text-anchor="start" x="162" y="-162.8" font-family="Helvetica,sans-Serif" font-size="11.00" fill="#000000">venue_id</text>
<polygon fill="none" stroke="#000000" points="142,-133.7 142,-155.7 246,-155.7 246,-133.7 142,-133.7"/>
<image xlink:href="../../images/foreignKeys.png" width="11px" height="12px" preserveAspectRatio="xMinYMin meet" x="147" y="-150.7"/>
<text text-anchor="start" x="162" y="-140.8" font-family="Helvetica,sans-Serif" font-size="11.00" fill="#000000">chapter_id</text>
<polygon fill="none" stroke="#000000" points="142,-114.7 142,-133.7 246,-133.7 246,-114.7 142,-114.7"/>
<text text-anchor="start" x="145" y="-120.8" font-family="Helvetica,sans-Serif" font-size="11.00" fill="#000000">...</text>
<polygon fill="#ffffff" stroke="transparent" points="142,-95.7 142,-114.7 175,-114.7 175,-95.7 142,-95.7"/>
<polygon fill="none" stroke="#000000" points="142,-95.7 142,-114.7 175,-114.7 175,-95.7 142,-95.7"/>
<text text-anchor="start" x="145" y="-101.8" font-family="Helvetica,sans-Serif" font-size="11.00" fill="#000000">&lt; 2</text>
<polygon fill="#ffffff" stroke="transparent" points="175,-95.7 175,-114.7 219,-114.7 219,-95.7 175,-95.7"/>
<polygon fill="none" stroke="#000000" points="175,-95.7 175,-114.7 219,-114.7 219,-95.7 175,-95.7"/>
<text text-anchor="start" x="183.6105" y="-101.8" font-family="Helvetica,sans-Serif" font-size="11.00" fill="#000000">0 rows</text>
<polygon fill="#ffffff" stroke="transparent" points="219,-95.7 219,-114.7 246,-114.7 246,-95.7 219,-95.7"/>
<polygon fill="none" stroke="#000000" points="219,-95.7 219,-114.7 246,-114.7 246,-95.7 219,-95.7"/>
<text text-anchor="start" x="227.4053" y="-101.8" font-family="Helvetica,sans-Serif" font-size="11.00" fill="#000000">4 &gt;</text>
</a>
</g>
</g>
<!-- event_sponsors&#45;&gt;events -->
<g id="edge1" class="edge">
<title>event_sponsors:w&#45;&gt;events:e</title>
<path fill="none" stroke="#000000" d="M283.078,-313.2763C248.8108,-292.9207 301.3325,-188.7 246,-188.7"/>
<polygon fill="#000000" stroke="#000000" points="289.7163,-314.8522 296.6685,-320.2027 293.6082,-315.7761 297.5,-316.7 297.5,-316.7 297.5,-316.7 293.6082,-315.7761 298.3315,-313.1973 289.7163,-314.8522 289.7163,-314.8522"/>
<ellipse fill="none" stroke="#000000" cx="286.6028" cy="-314.113" rx="3.2" ry="3.2"/>
</g>
<!-- sponsors -->
<g id="node3" class="node">
<title>sponsors</title>
<g id="a_node3"><a xlink:href="../../tables/sponsors.html" xlink:title="sponsors" target="_top">
<polygon fill="#ffffff" stroke="transparent" points="150,-290.2 150,-373.2 238,-373.2 238,-290.2 150,-290.2"/>
<polygon fill="#f5f5f5" stroke="transparent" points="150,-349.7 150,-372.7 238,-372.7 238,-349.7 150,-349.7"/>
<polygon fill="none" stroke="#000000" points="150,-349.7 150,-372.7 238,-372.7 238,-349.7 150,-349.7"/>
<text text-anchor="start" x="155" y="-358.8" font-family="Helvetica,sans-Serif" font-weight="bold" font-size="11.00" fill="#000000">sponsors</text>
<text text-anchor="start" x="203.5219" y="-357.8" font-family="Helvetica,sans-Serif" font-size="11.00" fill="#000000">[table]</text>
<polygon fill="none" stroke="#000000" points="150,-327.7 150,-349.7 238,-349.7 238,-327.7 150,-327.7"/>
<image xlink:href="../../images/primaryKeys.png" width="11px" height="12px" preserveAspectRatio="xMinYMin meet" x="155" y="-344.7"/>
<text text-anchor="start" x="170" y="-334.8" font-family="Helvetica,sans-Serif" font-size="11.00" fill="#000000">id</text>
<polygon fill="none" stroke="#000000" points="150,-308.7 150,-327.7 238,-327.7 238,-308.7 150,-308.7"/>
<text text-anchor="start" x="153" y="-314.8" font-family="Helvetica,sans-Serif" font-size="11.00" fill="#000000">...</text>
<polygon fill="#ffffff" stroke="transparent" points="150,-289.7 150,-308.7 170,-308.7 170,-289.7 150,-289.7"/>
<polygon fill="none" stroke="#000000" points="150,-289.7 150,-308.7 170,-308.7 170,-289.7 150,-289.7"/>
<text text-anchor="start" x="153" y="-295.8" font-family="Helvetica,sans-Serif" font-size="11.00" fill="#000000"> &#160;</text>
<polygon fill="#ffffff" stroke="transparent" points="170,-289.7 170,-308.7 212,-308.7 212,-289.7 170,-289.7"/>
<polygon fill="none" stroke="#000000" points="170,-289.7 170,-308.7 212,-308.7 212,-289.7 170,-289.7"/>
<text text-anchor="start" x="176.6105" y="-295.8" font-family="Helvetica,sans-Serif" font-size="11.00" fill="#000000">0 rows</text>
<polygon fill="#ffffff" stroke="transparent" points="212,-289.7 212,-308.7 238,-308.7 238,-289.7 212,-289.7"/>
<polygon fill="none" stroke="#000000" points="212,-289.7 212,-308.7 238,-308.7 238,-289.7 212,-289.7"/>
<text text-anchor="start" x="219.4053" y="-295.8" font-family="Helvetica,sans-Serif" font-size="11.00" fill="#000000">1 &gt;</text>
</a>
</g>
</g>
<!-- event_sponsors&#45;&gt;sponsors -->
<g id="edge2" class="edge">
<title>event_sponsors:w&#45;&gt;sponsors:e</title>
<path fill="none" stroke="#000000" d="M283.0408,-338.7C267.384,-338.7 258.8663,-338.7 238,-338.7"/>
<polygon fill="#000000" stroke="#000000" points="289.5,-338.7001 297.5,-342.3 293.5,-338.7 297.5,-338.7 297.5,-338.7 297.5,-338.7 293.5,-338.7 297.5,-335.1 289.5,-338.7001 289.5,-338.7001"/>
<ellipse fill="none" stroke="#000000" cx="286.3" cy="-338.7001" rx="3.2" ry="3.2"/>
</g>
<!-- chapters -->
<g id="node4" class="node">
<title>chapters</title>
<g id="a_node4"><a xlink:href="../../tables/chapters.html" xlink:title="chapters" target="_top">
<polygon fill="#ffffff" stroke="transparent" points="8,-87.2 8,-148.2 93,-148.2 93,-87.2 8,-87.2"/>
<polygon fill="#f5f5f5" stroke="transparent" points="8.5,-124.7 8.5,-147.7 93.5,-147.7 93.5,-124.7 8.5,-124.7"/>
<polygon fill="none" stroke="#000000" points="8.5,-124.7 8.5,-147.7 93.5,-147.7 93.5,-124.7 8.5,-124.7"/>
<text text-anchor="start" x="13.4108" y="-133.8" font-family="Helvetica,sans-Serif" font-weight="bold" font-size="11.00" fill="#000000">chapters</text>
<text text-anchor="start" x="59.0219" y="-132.8" font-family="Helvetica,sans-Serif" font-size="11.00" fill="#000000">[table]</text>
<polygon fill="none" stroke="#000000" points="8.5,-105.7 8.5,-124.7 93.5,-124.7 93.5,-105.7 8.5,-105.7"/>
<text text-anchor="start" x="11.5" y="-111.8" font-family="Helvetica,sans-Serif" font-size="11.00" fill="#000000">...</text>
<polygon fill="#ffffff" stroke="transparent" points="8.5,-86.7 8.5,-105.7 31.5,-105.7 31.5,-86.7 8.5,-86.7"/>
<polygon fill="none" stroke="#000000" points="8.5,-86.7 8.5,-105.7 31.5,-105.7 31.5,-86.7 8.5,-86.7"/>
<text text-anchor="start" x="11.5" y="-92.8" font-family="Helvetica,sans-Serif" font-size="11.00" fill="#000000">&lt; 1</text>
<polygon fill="#ffffff" stroke="transparent" points="31.5,-86.7 31.5,-105.7 70.5,-105.7 70.5,-86.7 31.5,-86.7"/>
<polygon fill="none" stroke="#000000" points="31.5,-86.7 31.5,-105.7 70.5,-105.7 70.5,-86.7 31.5,-86.7"/>
<text text-anchor="start" x="35.1105" y="-92.8" font-family="Helvetica,sans-Serif" font-size="11.00" fill="#000000">0 rows</text>
<polygon fill="#ffffff" stroke="transparent" points="70.5,-86.7 70.5,-105.7 93.5,-105.7 93.5,-86.7 70.5,-86.7"/>
<polygon fill="none" stroke="#000000" points="70.5,-86.7 70.5,-105.7 93.5,-105.7 93.5,-86.7 70.5,-86.7"/>
<text text-anchor="start" x="74.9053" y="-92.8" font-family="Helvetica,sans-Serif" font-size="11.00" fill="#000000">3 &gt;</text>
</a>
</g>
</g>
<!-- events&#45;&gt;chapters -->
<g id="edge3" class="edge">
<title>events:w&#45;&gt;chapters:e</title>
<path fill="none" stroke="#000000" d="M128.0076,-140.5286C116.1688,-132.2854 112.9055,-114.7 93.5,-114.7"/>
<polygon fill="#000000" stroke="#000000" points="134.3334,-142.4144 140.9715,-148.15 138.1667,-143.5572 142,-144.7 142,-144.7 142,-144.7 138.1667,-143.5572 143.0285,-141.25 134.3334,-142.4144 134.3334,-142.4144"/>
<ellipse fill="none" stroke="#000000" cx="131.2668" cy="-141.5002" rx="3.2" ry="3.2"/>
</g>
<!-- venues -->
<g id="node5" class="node">
<title>venues</title>
<g id="a_node5"><a xlink:href="../../tables/venues.html" xlink:title="venues" target="_top">
<polygon fill="#ffffff" stroke="transparent" points="11.5,-169.2 11.5,-230.2 89.5,-230.2 89.5,-169.2 11.5,-169.2"/>
<polygon fill="#f5f5f5" stroke="transparent" points="11.5,-206.7 11.5,-229.7 89.5,-229.7 89.5,-206.7 11.5,-206.7"/>
<polygon fill="none" stroke="#000000" points="11.5,-206.7 11.5,-229.7 89.5,-229.7 89.5,-206.7 11.5,-206.7"/>
<text text-anchor="start" x="16.2702" y="-215.8" font-family="Helvetica,sans-Serif" font-weight="bold" font-size="11.00" fill="#000000">venues</text>
<text text-anchor="start" x="55.0219" y="-214.8" font-family="Helvetica,sans-Serif" font-size="11.00" fill="#000000">[table]</text>
<polygon fill="none" stroke="#000000" points="11.5,-187.7 11.5,-206.7 89.5,-206.7 89.5,-187.7 11.5,-187.7"/>
<text text-anchor="start" x="14.5" y="-193.8" font-family="Helvetica,sans-Serif" font-size="11.00" fill="#000000">...</text>
<polygon fill="#ffffff" stroke="transparent" points="11.5,-168.7 11.5,-187.7 26.5,-187.7 26.5,-168.7 11.5,-168.7"/>
<polygon fill="none" stroke="#000000" points="11.5,-168.7 11.5,-187.7 26.5,-187.7 26.5,-168.7 11.5,-168.7"/>
<text text-anchor="start" x="14.5" y="-174.8" font-family="Helvetica,sans-Serif" font-size="11.00" fill="#000000"> &#160;</text>
<polygon fill="#ffffff" stroke="transparent" points="26.5,-168.7 26.5,-187.7 66.5,-187.7 66.5,-168.7 26.5,-168.7"/>
<polygon fill="none" stroke="#000000" points="26.5,-168.7 26.5,-187.7 66.5,-187.7 66.5,-168.7 26.5,-168.7"/>
<text text-anchor="start" x="31.1105" y="-174.8" font-family="Helvetica,sans-Serif" font-size="11.00" fill="#000000">0 rows</text>
<polygon fill="#ffffff" stroke="transparent" points="66.5,-168.7 66.5,-187.7 89.5,-187.7 89.5,-168.7 66.5,-168.7"/>
<polygon fill="none" stroke="#000000" points="66.5,-168.7 66.5,-187.7 89.5,-187.7 89.5,-168.7 66.5,-168.7"/>
<text text-anchor="start" x="70.9053" y="-174.8" font-family="Helvetica,sans-Serif" font-size="11.00" fill="#000000">1 &gt;</text>
</a>
</g>
</g>
<!-- events&#45;&gt;venues -->
<g id="edge4" class="edge">
<title>events:w&#45;&gt;venues:e</title>
<path fill="none" stroke="#000000" d="M127.8122,-170.3786C114.3263,-178.3895 110.4955,-196.7 89.5,-196.7"/>
<polygon fill="#000000" stroke="#000000" points="134.2561,-168.7079 142.9035,-170.1848 138.128,-167.7039 142,-166.7 142,-166.7 142,-166.7 138.128,-167.7039 141.0965,-163.2152 134.2561,-168.7079 134.2561,-168.7079"/>
<ellipse fill="none" stroke="#000000" cx="131.1585" cy="-169.511" rx="3.2" ry="3.2"/>
</g>
<!-- rsvps -->
<g id="node6" class="node">
<title>rsvps</title>
<g id="a_node6"><a xlink:href="../../tables/rsvps.html" xlink:title="rsvps" target="_top">
<polygon fill="#ffffff" stroke="transparent" points="360,-202.2 360,-263.2 431,-263.2 431,-202.2 360,-202.2"/>
<polygon fill="#f5f5f5" stroke="transparent" points="360.5,-239.7 360.5,-262.7 431.5,-262.7 431.5,-239.7 360.5,-239.7"/>
<polygon fill="none" stroke="#000000" points="360.5,-239.7 360.5,-262.7 431.5,-262.7 431.5,-239.7 360.5,-239.7"/>
<text text-anchor="start" x="365.5" y="-248.8" font-family="Helvetica,sans-Serif" font-weight="bold" font-size="11.00" fill="#000000">rsvps</text>
<text text-anchor="start" x="396.5437" y="-247.8" font-family="Helvetica,sans-Serif" font-size="11.00" fill="#000000">[table]</text>
<polygon fill="none" stroke="#000000" points="360.5,-220.7 360.5,-239.7 431.5,-239.7 431.5,-220.7 360.5,-220.7"/>
<text text-anchor="start" x="363.5" y="-226.8" font-family="Helvetica,sans-Serif" font-size="11.00" fill="#000000">...</text>
<polygon fill="#ffffff" stroke="transparent" points="360.5,-201.7 360.5,-220.7 381.5,-220.7 381.5,-201.7 360.5,-201.7"/>
<polygon fill="none" stroke="#000000" points="360.5,-201.7 360.5,-220.7 381.5,-220.7 381.5,-201.7 360.5,-201.7"/>
<text text-anchor="start" x="363.2027" y="-207.8" font-family="Helvetica,sans-Serif" font-size="11.00" fill="#000000">&lt; 2</text>
<polygon fill="#ffffff" stroke="transparent" points="381.5,-201.7 381.5,-220.7 419.5,-220.7 419.5,-201.7 381.5,-201.7"/>
<polygon fill="none" stroke="#000000" points="381.5,-201.7 381.5,-220.7 419.5,-220.7 419.5,-201.7 381.5,-201.7"/>
<text text-anchor="start" x="384.3053" y="-207.8" font-family="Helvetica,sans-Serif" font-size="11.00" fill="#000000">0 rows</text>
<polygon fill="#ffffff" stroke="transparent" points="419.5,-201.7 419.5,-220.7 431.5,-220.7 431.5,-201.7 419.5,-201.7"/>
<polygon fill="none" stroke="#000000" points="419.5,-201.7 419.5,-220.7 431.5,-220.7 431.5,-201.7 419.5,-201.7"/>
<text text-anchor="start" x="422.4431" y="-207.8" font-family="Helvetica,sans-Serif" font-size="11.00" fill="#000000"> &#160;</text>
</a>
</g>
</g>
<!-- rsvps&#45;&gt;events -->
<g id="edge5" class="edge">
<title>rsvps:w&#45;&gt;events:e</title>
<path fill="none" stroke="#000000" d="M345.9389,-228.6033C304.7437,-222.0832 294.7744,-188.7 246,-188.7"/>
<polygon fill="#000000" stroke="#000000" points="352.5226,-229.0991 360.2296,-233.2898 356.5113,-229.3996 360.5,-229.7 360.5,-229.7 360.5,-229.7 356.5113,-229.3996 360.7704,-226.1102 352.5226,-229.0991 352.5226,-229.0991"/>
<ellipse fill="none" stroke="#000000" cx="349.3316" cy="-228.8588" rx="3.2" ry="3.2"/>
</g>
<!-- tags -->
<g id="node7" class="node">
<title>tags</title>
<g id="a_node7"><a xlink:href="../../tables/tags.html" xlink:title="tags" target="_top">
<polygon fill="#ffffff" stroke="transparent" points="360,-120.2 360,-181.2 431,-181.2 431,-120.2 360,-120.2"/>
<polygon fill="#f5f5f5" stroke="transparent" points="360.5,-157.7 360.5,-180.7 431.5,-180.7 431.5,-157.7 360.5,-157.7"/>
<polygon fill="none" stroke="#000000" points="360.5,-157.7 360.5,-180.7 431.5,-180.7 431.5,-157.7 360.5,-157.7"/>
<text text-anchor="start" x="365.5" y="-166.8" font-family="Helvetica,sans-Serif" font-weight="bold" font-size="11.00" fill="#000000">tags</text>
<text text-anchor="start" x="396.5437" y="-165.8" font-family="Helvetica,sans-Serif" font-size="11.00" fill="#000000">[table]</text>
<polygon fill="none" stroke="#000000" points="360.5,-138.7 360.5,-157.7 431.5,-157.7 431.5,-138.7 360.5,-138.7"/>
<text text-anchor="start" x="363.5" y="-144.8" font-family="Helvetica,sans-Serif" font-size="11.00" fill="#000000">...</text>
<polygon fill="#ffffff" stroke="transparent" points="360.5,-119.7 360.5,-138.7 381.5,-138.7 381.5,-119.7 360.5,-119.7"/>
<polygon fill="none" stroke="#000000" points="360.5,-119.7 360.5,-138.7 381.5,-138.7 381.5,-119.7 360.5,-119.7"/>
<text text-anchor="start" x="363.2027" y="-125.8" font-family="Helvetica,sans-Serif" font-size="11.00" fill="#000000">&lt; 1</text>
<polygon fill="#ffffff" stroke="transparent" points="381.5,-119.7 381.5,-138.7 419.5,-138.7 419.5,-119.7 381.5,-119.7"/>
<polygon fill="none" stroke="#000000" points="381.5,-119.7 381.5,-138.7 419.5,-138.7 419.5,-119.7 381.5,-119.7"/>
<text text-anchor="start" x="384.3053" y="-125.8" font-family="Helvetica,sans-Serif" font-size="11.00" fill="#000000">0 rows</text>
<polygon fill="#ffffff" stroke="transparent" points="419.5,-119.7 419.5,-138.7 431.5,-138.7 431.5,-119.7 419.5,-119.7"/>
<polygon fill="none" stroke="#000000" points="419.5,-119.7 419.5,-138.7 431.5,-138.7 431.5,-119.7 419.5,-119.7"/>
<text text-anchor="start" x="422.4431" y="-125.8" font-family="Helvetica,sans-Serif" font-size="11.00" fill="#000000"> &#160;</text>
</a>
</g>
</g>
<!-- tags&#45;&gt;events -->
<g id="edge6" class="edge">
<title>tags:w&#45;&gt;events:e</title>
<path fill="none" stroke="#000000" d="M345.9389,-148.7967C304.7437,-155.3168 294.7744,-188.7 246,-188.7"/>
<polygon fill="#000000" stroke="#000000" points="352.5226,-148.3009 360.7704,-151.2898 356.5113,-148.0004 360.5,-147.7 360.5,-147.7 360.5,-147.7 356.5113,-148.0004 360.2296,-144.1102 352.5226,-148.3009 352.5226,-148.3009"/>
<ellipse fill="none" stroke="#000000" cx="349.3316" cy="-148.5412" rx="3.2" ry="3.2"/>
</g>
<!-- user_event_roles -->
<g id="node8" class="node">
<title>user_event_roles</title>
<g id="a_node8"><a xlink:href="../../tables/user_event_roles.html" xlink:title="user_event_roles" target="_top">
<polygon fill="#ffffff" stroke="transparent" points="332,-38.2 332,-99.2 459,-99.2 459,-38.2 332,-38.2"/>
<polygon fill="#f5f5f5" stroke="transparent" points="332.5,-75.7 332.5,-98.7 459.5,-98.7 459.5,-75.7 332.5,-75.7"/>
<polygon fill="none" stroke="#000000" points="332.5,-75.7 332.5,-98.7 459.5,-98.7 459.5,-75.7 332.5,-75.7"/>
<text text-anchor="start" x="337.3222" y="-84.8" font-family="Helvetica,sans-Serif" font-weight="bold" font-size="11.00" fill="#000000">user_event_roles</text>
<text text-anchor="start" x="425.0219" y="-83.8" font-family="Helvetica,sans-Serif" font-size="11.00" fill="#000000">[table]</text>
<polygon fill="none" stroke="#000000" points="332.5,-56.7 332.5,-75.7 459.5,-75.7 459.5,-56.7 332.5,-56.7"/>
<text text-anchor="start" x="335.5" y="-62.8" font-family="Helvetica,sans-Serif" font-size="11.00" fill="#000000">...</text>
<polygon fill="#ffffff" stroke="transparent" points="332.5,-37.7 332.5,-56.7 381.5,-56.7 381.5,-37.7 332.5,-37.7"/>
<polygon fill="none" stroke="#000000" points="332.5,-37.7 332.5,-56.7 381.5,-56.7 381.5,-37.7 332.5,-37.7"/>
<text text-anchor="start" x="335.5" y="-43.8" font-family="Helvetica,sans-Serif" font-size="11.00" fill="#000000">&lt; 2</text>
<polygon fill="#ffffff" stroke="transparent" points="381.5,-37.7 381.5,-56.7 433.5,-56.7 433.5,-37.7 381.5,-37.7"/>
<polygon fill="none" stroke="#000000" points="381.5,-37.7 381.5,-56.7 433.5,-56.7 433.5,-37.7 381.5,-37.7"/>
<text text-anchor="start" x="398.1105" y="-43.8" font-family="Helvetica,sans-Serif" font-size="11.00" fill="#000000">0 rows</text>
<polygon fill="#ffffff" stroke="transparent" points="433.5,-37.7 433.5,-56.7 459.5,-56.7 459.5,-37.7 433.5,-37.7"/>
<polygon fill="none" stroke="#000000" points="433.5,-37.7 433.5,-56.7 459.5,-56.7 459.5,-37.7 433.5,-37.7"/>
<text text-anchor="start" x="450.3862" y="-43.8" font-family="Helvetica,sans-Serif" font-size="11.00" fill="#000000"> &#160;</text>
</a>
</g>
</g>
<!-- user_event_roles&#45;&gt;events -->
<g id="edge7" class="edge">
<title>user_event_roles:w&#45;&gt;events:e</title>
<path fill="none" stroke="#000000" d="M317.9674,-68.3716C303.4099,-74.796 300.2639,-91.9016 287,-109.7 263.3622,-141.419 285.5581,-188.7 246,-188.7"/>
<polygon fill="#000000" stroke="#000000" points="324.6318,-67.1465 333.1509,-69.2407 328.5659,-66.4232 332.5,-65.7 332.5,-65.7 332.5,-65.7 328.5659,-66.4232 331.8491,-62.1593 324.6318,-67.1465 324.6318,-67.1465"/>
<ellipse fill="none" stroke="#000000" cx="321.4846" cy="-67.725" rx="3.2" ry="3.2"/>
</g>
</g>
</svg>
