<?xml version="1.0" encoding="UTF-8" standalone="no"?>
<!DOCTYPE svg PUBLIC "-//W3C//DTD SVG 1.1//EN"
 "http://www.w3.org/Graphics/SVG/1.1/DTD/svg11.dtd">
<!-- Generated by graphviz version 2.40.1 (20161225.0304)
 -->
<!-- Title: twoDegreesRelationshipsDiagram Pages: 1 -->
<svg width="737pt" height="621pt"
 viewBox="0.00 0.00 737.00 621.20" xmlns="http://www.w3.org/2000/svg" xmlns:xlink="http://www.w3.org/1999/xlink">
<g id="graph0" class="graph" transform="scale(1 1) rotate(0) translate(4 617.2)">
<title>twoDegreesRelationshipsDiagram</title>
<polygon fill="#ffffff" stroke="transparent" points="-4,4 -4,-617.2 733,-617.2 733,4 -4,4"/>
<text text-anchor="middle" x="72.4936" y="-7.3" font-family="Helvetica,sans-Serif" font-size="11.00" fill="#000000">Generated by SchemaSpy</text>
<!-- chapter_users -->
<g id="node1" class="node">
<title>chapter_users</title>
<g id="a_node1"><a xlink:href="../../tables/chapter_users.html" xlink:title="chapter_users" target="_top">
<polygon fill="#ffffff" stroke="transparent" points="342.5,-548.2 342.5,-609.2 454.5,-609.2 454.5,-548.2 342.5,-548.2"/>
<polygon fill="#f5f5f5" stroke="transparent" points="342.5,-585.7 342.5,-608.7 454.5,-608.7 454.5,-585.7 342.5,-585.7"/>
<polygon fill="none" stroke="#000000" points="342.5,-585.7 342.5,-608.7 454.5,-608.7 454.5,-585.7 342.5,-585.7"/>
<text text-anchor="start" x="347.1575" y="-594.8" font-family="Helvetica,sans-Serif" font-weight="bold" font-size="11.00" fill="#000000">chapter_users</text>
<text text-anchor="start" x="420.0219" y="-593.8" font-family="Helvetica,sans-Serif" font-size="11.00" fill="#000000">[table]</text>
<polygon fill="none" stroke="#000000" points="342.5,-566.7 342.5,-585.7 454.5,-585.7 454.5,-566.7 342.5,-566.7"/>
<text text-anchor="start" x="345.5" y="-572.8" font-family="Helvetica,sans-Serif" font-size="11.00" fill="#000000">...</text>
<polygon fill="#ffffff" stroke="transparent" points="342.5,-547.7 342.5,-566.7 383.5,-566.7 383.5,-547.7 342.5,-547.7"/>
<polygon fill="none" stroke="#000000" points="342.5,-547.7 342.5,-566.7 383.5,-566.7 383.5,-547.7 342.5,-547.7"/>
<text text-anchor="start" x="345.5" y="-553.8" font-family="Helvetica,sans-Serif" font-size="11.00" fill="#000000">&lt; 3</text>
<polygon fill="#ffffff" stroke="transparent" points="383.5,-547.7 383.5,-566.7 431.5,-566.7 431.5,-547.7 383.5,-547.7"/>
<polygon fill="none" stroke="#000000" points="383.5,-547.7 383.5,-566.7 431.5,-566.7 431.5,-547.7 383.5,-547.7"/>
<text text-anchor="start" x="396.1105" y="-553.8" font-family="Helvetica,sans-Serif" font-size="11.00" fill="#000000">0 rows</text>
<polygon fill="#ffffff" stroke="transparent" points="431.5,-547.7 431.5,-566.7 454.5,-566.7 454.5,-547.7 431.5,-547.7"/>
<polygon fill="none" stroke="#000000" points="431.5,-547.7 431.5,-566.7 454.5,-566.7 454.5,-547.7 431.5,-547.7"/>
<text text-anchor="start" x="445.3862" y="-553.8" font-family="Helvetica,sans-Serif" font-size="11.00" fill="#000000"> &#160;</text>
</a>
</g>
</g>
<!-- chapters -->
<g id="node2" class="node">
<title>chapters</title>
<g id="a_node2"><a xlink:href="../../tables/chapters.html" xlink:title="chapters" target="_top">
<polygon fill="#ffffff" stroke="transparent" points="22,-156.2 22,-217.2 107,-217.2 107,-156.2 22,-156.2"/>
<polygon fill="#f5f5f5" stroke="transparent" points="22.5,-193.7 22.5,-216.7 107.5,-216.7 107.5,-193.7 22.5,-193.7"/>
<polygon fill="none" stroke="#000000" points="22.5,-193.7 22.5,-216.7 107.5,-216.7 107.5,-193.7 22.5,-193.7"/>
<text text-anchor="start" x="27.4108" y="-202.8" font-family="Helvetica,sans-Serif" font-weight="bold" font-size="11.00" fill="#000000">chapters</text>
<text text-anchor="start" x="73.0219" y="-201.8" font-family="Helvetica,sans-Serif" font-size="11.00" fill="#000000">[table]</text>
<polygon fill="none" stroke="#000000" points="22.5,-174.7 22.5,-193.7 107.5,-193.7 107.5,-174.7 22.5,-174.7"/>
<text text-anchor="start" x="25.5" y="-180.8" font-family="Helvetica,sans-Serif" font-size="11.00" fill="#000000">...</text>
<polygon fill="#ffffff" stroke="transparent" points="22.5,-155.7 22.5,-174.7 41.5,-174.7 41.5,-155.7 22.5,-155.7"/>
<polygon fill="none" stroke="#000000" points="22.5,-155.7 22.5,-174.7 41.5,-174.7 41.5,-155.7 22.5,-155.7"/>
<text text-anchor="start" x="25.5" y="-161.8" font-family="Helvetica,sans-Serif" font-size="11.00" fill="#000000"> &#160;</text>
<polygon fill="#ffffff" stroke="transparent" points="41.5,-155.7 41.5,-174.7 82.5,-174.7 82.5,-155.7 41.5,-155.7"/>
<polygon fill="none" stroke="#000000" points="41.5,-155.7 41.5,-174.7 82.5,-174.7 82.5,-155.7 41.5,-155.7"/>
<text text-anchor="start" x="47.1105" y="-161.8" font-family="Helvetica,sans-Serif" font-size="11.00" fill="#000000">0 rows</text>
<polygon fill="#ffffff" stroke="transparent" points="82.5,-155.7 82.5,-174.7 107.5,-174.7 107.5,-155.7 82.5,-155.7"/>
<polygon fill="none" stroke="#000000" points="82.5,-155.7 82.5,-174.7 107.5,-174.7 107.5,-155.7 82.5,-155.7"/>
<text text-anchor="start" x="88.9053" y="-161.8" font-family="Helvetica,sans-Serif" font-size="11.00" fill="#000000">3 &gt;</text>
</a>
</g>
</g>
<!-- chapter_users&#45;&gt;chapters -->
<g id="edge1" class="edge">
<title>chapter_users:w&#45;&gt;chapters:e</title>
<path fill="none" stroke="#000000" d="M327.9201,-575.6968C252.1067,-575.5879 211.8319,-572.81 162,-509.7 116.4826,-452.0541 180.9498,-183.7 107.5,-183.7"/>
<polygon fill="#000000" stroke="#000000" points="334.5,-575.6982 342.4992,-579.3 338.5,-575.6991 342.5,-575.7 342.5,-575.7 342.5,-575.7 338.5,-575.6991 342.5008,-572.1 334.5,-575.6982 334.5,-575.6982"/>
<ellipse fill="none" stroke="#000000" cx="331.3" cy="-575.6975" rx="3.2" ry="3.2"/>
</g>
<!-- users -->
<g id="node3" class="node">
<title>users</title>
<g id="a_node3"><a xlink:href="../../tables/users.html" xlink:title="users" target="_top">
<polygon fill="#ffffff" stroke="transparent" points="170,-372.2 170,-499.2 286,-499.2 286,-372.2 170,-372.2"/>
<polygon fill="#f5f5f5" stroke="transparent" points="170,-475.7 170,-498.7 286,-498.7 286,-475.7 170,-475.7"/>
<polygon fill="none" stroke="#000000" points="170,-475.7 170,-498.7 286,-498.7 286,-475.7 170,-475.7"/>
<text text-anchor="start" x="175" y="-484.8" font-family="Helvetica,sans-Serif" font-weight="bold" font-size="11.00" fill="#000000">users</text>
<text text-anchor="start" x="251.0437" y="-483.8" font-family="Helvetica,sans-Serif" font-size="11.00" fill="#000000">[table]</text>
<polygon fill="none" stroke="#000000" points="170,-453.7 170,-475.7 286,-475.7 286,-453.7 170,-453.7"/>
<image xlink:href="../../images/primaryKeys.png" width="11px" height="12px" preserveAspectRatio="xMinYMin meet" x="175" y="-470.7"/>
<text text-anchor="start" x="190" y="-460.8" font-family="Helvetica,sans-Serif" font-size="11.00" fill="#000000">id</text>
<polygon fill="#ffffff" stroke="transparent" points="170,-431.7 170,-453.7 286,-453.7 286,-431.7 170,-431.7"/>
<polygon fill="none" stroke="#000000" points="170,-431.7 170,-453.7 286,-453.7 286,-431.7 170,-431.7"/>
<text text-anchor="start" x="190" y="-438.8" font-family="Helvetica,sans-Serif" font-size="11.00" fill="#000000">email</text>
<polygon fill="none" stroke="#000000" points="170,-409.7 170,-431.7 286,-431.7 286,-409.7 170,-409.7"/>
<image xlink:href="../../images/foreignKeys.png" width="11px" height="12px" preserveAspectRatio="xMinYMin meet" x="175" y="-426.7"/>
<text text-anchor="start" x="190" y="-416.8" font-family="Helvetica,sans-Serif" font-size="11.00" fill="#000000">instance_role_id</text>
<polygon fill="none" stroke="#000000" points="170,-390.7 170,-409.7 286,-409.7 286,-390.7 170,-390.7"/>
<text text-anchor="start" x="173" y="-396.8" font-family="Helvetica,sans-Serif" font-size="11.00" fill="#000000">...</text>
<polygon fill="#ffffff" stroke="transparent" points="170,-371.7 170,-390.7 209,-390.7 209,-371.7 170,-371.7"/>
<polygon fill="none" stroke="#000000" points="170,-371.7 170,-390.7 209,-390.7 209,-371.7 170,-371.7"/>
<text text-anchor="start" x="173" y="-377.8" font-family="Helvetica,sans-Serif" font-size="11.00" fill="#000000">&lt; 1</text>
<polygon fill="#ffffff" stroke="transparent" points="209,-371.7 209,-390.7 256,-390.7 256,-371.7 209,-371.7"/>
<polygon fill="none" stroke="#000000" points="209,-371.7 209,-390.7 256,-390.7 256,-371.7 209,-371.7"/>
<text text-anchor="start" x="220.6105" y="-377.8" font-family="Helvetica,sans-Serif" font-size="11.00" fill="#000000">0 rows</text>
<polygon fill="#ffffff" stroke="transparent" points="256,-371.7 256,-390.7 286,-390.7 286,-371.7 256,-371.7"/>
<polygon fill="none" stroke="#000000" points="256,-371.7 256,-390.7 286,-390.7 286,-371.7 256,-371.7"/>
<text text-anchor="start" x="267.4053" y="-377.8" font-family="Helvetica,sans-Serif" font-size="11.00" fill="#000000">5 &gt;</text>
</a>
</g>
</g>
<!-- chapter_users&#45;&gt;users -->
<g id="edge2" class="edge">
<title>chapter_users:w&#45;&gt;users:e</title>
<path fill="none" stroke="#000000" d="M328.3842,-572.2563C297.3602,-553.5207 335.5181,-464.7 286,-464.7"/>
<polygon fill="#000000" stroke="#000000" points="334.7279,-573.8039 341.6467,-579.1974 338.614,-574.7519 342.5,-575.7 342.5,-575.7 342.5,-575.7 338.614,-574.7519 343.3533,-572.2026 334.7279,-573.8039 334.7279,-573.8039"/>
<ellipse fill="none" stroke="#000000" cx="331.6191" cy="-573.0454" rx="3.2" ry="3.2"/>
</g>
<!-- instance_roles -->
<g id="node12" class="node">
<title>instance_roles</title>
<g id="a_node12"><a xlink:href="../../tables/instance_roles.html" xlink:title="instance_roles" target="_top">
<polygon fill="#ffffff" stroke="transparent" points="8,-393.2 8,-454.2 121,-454.2 121,-393.2 8,-393.2"/>
<polygon fill="#f5f5f5" stroke="transparent" points="8.5,-430.7 8.5,-453.7 121.5,-453.7 121.5,-430.7 8.5,-430.7"/>
<polygon fill="none" stroke="#000000" points="8.5,-430.7 8.5,-453.7 121.5,-453.7 121.5,-430.7 8.5,-430.7"/>
<text text-anchor="start" x="13.0476" y="-439.8" font-family="Helvetica,sans-Serif" font-weight="bold" font-size="11.00" fill="#000000">instance_roles</text>
<text text-anchor="start" x="87.0219" y="-438.8" font-family="Helvetica,sans-Serif" font-size="11.00" fill="#000000">[table]</text>
<polygon fill="none" stroke="#000000" points="8.5,-411.7 8.5,-430.7 121.5,-430.7 121.5,-411.7 8.5,-411.7"/>
<text text-anchor="start" x="11.5" y="-417.8" font-family="Helvetica,sans-Serif" font-size="11.00" fill="#000000">...</text>
<polygon fill="#ffffff" stroke="transparent" points="8.5,-392.7 8.5,-411.7 41.5,-411.7 41.5,-392.7 8.5,-392.7"/>
<polygon fill="none" stroke="#000000" points="8.5,-392.7 8.5,-411.7 41.5,-411.7 41.5,-392.7 8.5,-392.7"/>
<text text-anchor="start" x="11.5" y="-398.8" font-family="Helvetica,sans-Serif" font-size="11.00" fill="#000000"> &#160;</text>
<polygon fill="#ffffff" stroke="transparent" points="41.5,-392.7 41.5,-411.7 89.5,-411.7 89.5,-392.7 41.5,-392.7"/>
<polygon fill="none" stroke="#000000" points="41.5,-392.7 41.5,-411.7 89.5,-411.7 89.5,-392.7 41.5,-392.7"/>
<text text-anchor="start" x="54.1105" y="-398.8" font-family="Helvetica,sans-Serif" font-size="11.00" fill="#000000">0 rows</text>
<polygon fill="#ffffff" stroke="transparent" points="89.5,-392.7 89.5,-411.7 121.5,-411.7 121.5,-392.7 89.5,-392.7"/>
<polygon fill="none" stroke="#000000" points="89.5,-392.7 89.5,-411.7 121.5,-411.7 121.5,-392.7 89.5,-392.7"/>
<text text-anchor="start" x="102.9053" y="-398.8" font-family="Helvetica,sans-Serif" font-size="11.00" fill="#000000">2 &gt;</text>
</a>
</g>
</g>
<!-- users&#45;&gt;instance_roles -->
<g id="edge17" class="edge">
<title>users:w&#45;&gt;instance_roles:e</title>
<path fill="none" stroke="#000000" d="M155.2829,-420.7C144.2886,-420.7 137.1615,-420.7 121.5,-420.7"/>
<polygon fill="#000000" stroke="#000000" points="162,-420.7001 170,-424.3 166,-420.7 170,-420.7 170,-420.7 170,-420.7 166,-420.7 170,-417.1 162,-420.7001 162,-420.7001"/>
<ellipse fill="none" stroke="#000000" cx="158.8" cy="-420.7001" rx="3.2" ry="3.2"/>
</g>
<!-- event_reminders -->
<g id="node4" class="node">
<title>event_reminders</title>
<g id="a_node4"><a xlink:href="../../tables/event_reminders.html" xlink:title="event_reminders" target="_top">
<polygon fill="#ffffff" stroke="transparent" points="511,-366.7 511,-544.7 721,-544.7 721,-366.7 511,-366.7"/>
<polygon fill="#f5f5f5" stroke="transparent" points="513,-519.7 513,-542.7 719,-542.7 719,-519.7 513,-519.7"/>
<polygon fill="none" stroke="#000000" points="513,-519.7 513,-542.7 719,-542.7 719,-519.7 513,-519.7"/>
<text text-anchor="start" x="518" y="-528.8" font-family="Helvetica,sans-Serif" font-weight="bold" font-size="11.00" fill="#000000">event_reminders</text>
<text text-anchor="start" x="684.0437" y="-527.8" font-family="Helvetica,sans-Serif" font-size="11.00" fill="#000000">[table]</text>
<polygon fill="none" stroke="#000000" points="513,-497.7 513,-519.7 635,-519.7 635,-497.7 513,-497.7"/>
<text text-anchor="start" x="533" y="-504.8" font-family="Helvetica,sans-Serif" font-size="11.00" fill="#000000">created_at</text>
<polygon fill="none" stroke="#000000" points="635,-497.7 635,-519.7 719,-519.7 719,-497.7 635,-497.7"/>
<text text-anchor="start" x="637.8807" y="-505.4" font-family="Helvetica,sans-Serif" font-size="11.00" fill="#000000">timestamp[26,3]</text>
<polygon fill="none" stroke="#000000" points="513,-475.7 513,-497.7 635,-497.7 635,-475.7 513,-475.7"/>
<text text-anchor="start" x="533" y="-482.8" font-family="Helvetica,sans-Serif" font-size="11.00" fill="#000000">updated_at</text>
<polygon fill="none" stroke="#000000" points="635,-475.7 635,-497.7 719,-497.7 719,-475.7 635,-475.7"/>
<text text-anchor="start" x="637.8807" y="-483.4" font-family="Helvetica,sans-Serif" font-size="11.00" fill="#000000">timestamp[26,3]</text>
<polygon fill="none" stroke="#000000" points="513,-453.7 513,-475.7 635,-475.7 635,-453.7 513,-453.7"/>
<image xlink:href="../../images/primaryKeys.png" width="11px" height="12px" preserveAspectRatio="xMinYMin meet" x="518" y="-470.7"/>
<text text-anchor="start" x="533" y="-460.8" font-family="Helvetica,sans-Serif" font-size="11.00" fill="#000000">user_id</text>
<polygon fill="none" stroke="#000000" points="635,-453.7 635,-475.7 719,-475.7 719,-453.7 635,-453.7"/>
<text text-anchor="start" x="638" y="-461.4" font-family="Helvetica,sans-Serif" font-size="11.00" fill="#000000">int4[10]</text>
<polygon fill="none" stroke="#000000" points="513,-431.7 513,-453.7 635,-453.7 635,-431.7 513,-431.7"/>
<image xlink:href="../../images/primaryKeys.png" width="11px" height="12px" preserveAspectRatio="xMinYMin meet" x="518" y="-448.7"/>
<text text-anchor="start" x="533" y="-438.8" font-family="Helvetica,sans-Serif" font-size="11.00" fill="#000000">event_id</text>
<polygon fill="none" stroke="#000000" points="635,-431.7 635,-453.7 719,-453.7 719,-431.7 635,-431.7"/>
<text text-anchor="start" x="638" y="-439.4" font-family="Helvetica,sans-Serif" font-size="11.00" fill="#000000">int4[10]</text>
<polygon fill="none" stroke="#000000" points="513,-409.7 513,-431.7 635,-431.7 635,-409.7 513,-409.7"/>
<text text-anchor="start" x="533" y="-416.8" font-family="Helvetica,sans-Serif" font-size="11.00" fill="#000000">remind_at</text>
<polygon fill="none" stroke="#000000" points="635,-409.7 635,-431.7 719,-431.7 719,-409.7 635,-409.7"/>
<text text-anchor="start" x="637.8807" y="-417.4" font-family="Helvetica,sans-Serif" font-size="11.00" fill="#000000">timestamp[26,3]</text>
<polygon fill="none" stroke="#000000" points="513,-387.7 513,-409.7 635,-409.7 635,-387.7 513,-387.7"/>
<text text-anchor="start" x="533" y="-394.8" font-family="Helvetica,sans-Serif" font-size="11.00" fill="#000000">notifying</text>
<polygon fill="none" stroke="#000000" points="635,-387.7 635,-409.7 719,-409.7 719,-387.7 635,-387.7"/>
<text text-anchor="start" x="638" y="-395.4" font-family="Helvetica,sans-Serif" font-size="11.00" fill="#000000">bool[1]</text>
<polygon fill="#ffffff" stroke="transparent" points="513,-368.7 513,-387.7 565,-387.7 565,-368.7 513,-368.7"/>
<polygon fill="none" stroke="#000000" points="513,-368.7 513,-387.7 565,-387.7 565,-368.7 513,-368.7"/>
<text text-anchor="start" x="516" y="-374.8" font-family="Helvetica,sans-Serif" font-size="11.00" fill="#000000">&lt; 4</text>
<polygon fill="#ffffff" stroke="transparent" points="565,-368.7 565,-387.7 635,-387.7 635,-368.7 565,-368.7"/>
<polygon fill="none" stroke="#000000" points="565,-368.7 565,-387.7 635,-387.7 635,-368.7 565,-368.7"/>
<text text-anchor="start" x="599.6105" y="-374.8" font-family="Helvetica,sans-Serif" font-size="11.00" fill="#000000">0 rows</text>
<polygon fill="#ffffff" stroke="transparent" points="635,-368.7 635,-387.7 719,-387.7 719,-368.7 635,-368.7"/>
<polygon fill="none" stroke="#000000" points="635,-368.7 635,-387.7 719,-387.7 719,-368.7 635,-368.7"/>
<text text-anchor="start" x="700.4053" y="-374.8" font-family="Helvetica,sans-Serif" font-size="11.00" fill="#000000">0 &gt;</text>
<polygon fill="none" stroke="#000000" stroke-width="2" points="512,-367.7 512,-543.7 720,-543.7 720,-367.7 512,-367.7"/>
</a>
</g>
</g>
<!-- event_reminders&#45;&gt;users -->
<g id="edge6" class="edge">
<title>event_reminders:w&#45;&gt;users:e</title>
<path fill="none" stroke="#000000" d="M499.1604,-469.2876C488.0889,-478.9692 489.6726,-501.2882 470,-509.7 411.5624,-534.6872 385.1367,-535.3795 327,-509.7 302.2505,-498.7679 313.0564,-464.7 286,-464.7"/>
<polygon fill="#000000" stroke="#000000" points="505.4063,-467.2172 514.1328,-468.1172 509.2032,-465.9586 513,-464.7 513,-464.7 513,-464.7 509.2032,-465.9586 511.8672,-461.2828 505.4063,-467.2172 505.4063,-467.2172"/>
<ellipse fill="none" stroke="#000000" cx="502.3689" cy="-468.2241" rx="3.2" ry="3.2"/>
</g>
<!-- events -->
<g id="node5" class="node">
<title>events</title>
<g id="a_node5"><a xlink:href="../../tables/events.html" xlink:title="events" target="_top">
<polygon fill="#ffffff" stroke="transparent" points="176,-165.2 176,-292.2 280,-292.2 280,-165.2 176,-165.2"/>
<polygon fill="#f5f5f5" stroke="transparent" points="176,-268.7 176,-291.7 280,-291.7 280,-268.7 176,-268.7"/>
<polygon fill="none" stroke="#000000" points="176,-268.7 176,-291.7 280,-291.7 280,-268.7 176,-268.7"/>
<text text-anchor="start" x="181" y="-277.8" font-family="Helvetica,sans-Serif" font-weight="bold" font-size="11.00" fill="#000000">events</text>
<text text-anchor="start" x="245.0437" y="-276.8" font-family="Helvetica,sans-Serif" font-size="11.00" fill="#000000">[table]</text>
<polygon fill="none" stroke="#000000" points="176,-246.7 176,-268.7 280,-268.7 280,-246.7 176,-246.7"/>
<image xlink:href="../../images/primaryKeys.png" width="11px" height="12px" preserveAspectRatio="xMinYMin meet" x="181" y="-263.7"/>
<text text-anchor="start" x="196" y="-253.8" font-family="Helvetica,sans-Serif" font-size="11.00" fill="#000000">id</text>
<polygon fill="none" stroke="#000000" points="176,-224.7 176,-246.7 280,-246.7 280,-224.7 176,-224.7"/>
<image xlink:href="../../images/foreignKeys.png" width="11px" height="12px" preserveAspectRatio="xMinYMin meet" x="181" y="-241.7"/>
<text text-anchor="start" x="196" y="-231.8" font-family="Helvetica,sans-Serif" font-size="11.00" fill="#000000">venue_id</text>
<polygon fill="none" stroke="#000000" points="176,-202.7 176,-224.7 280,-224.7 280,-202.7 176,-202.7"/>
<image xlink:href="../../images/foreignKeys.png" width="11px" height="12px" preserveAspectRatio="xMinYMin meet" x="181" y="-219.7"/>
<text text-anchor="start" x="196" y="-209.8" font-family="Helvetica,sans-Serif" font-size="11.00" fill="#000000">chapter_id</text>
<polygon fill="none" stroke="#000000" points="176,-183.7 176,-202.7 280,-202.7 280,-183.7 176,-183.7"/>
<text text-anchor="start" x="179" y="-189.8" font-family="Helvetica,sans-Serif" font-size="11.00" fill="#000000">...</text>
<polygon fill="#ffffff" stroke="transparent" points="176,-164.7 176,-183.7 209,-183.7 209,-164.7 176,-164.7"/>
<polygon fill="none" stroke="#000000" points="176,-164.7 176,-183.7 209,-183.7 209,-164.7 176,-164.7"/>
<text text-anchor="start" x="179" y="-170.8" font-family="Helvetica,sans-Serif" font-size="11.00" fill="#000000">&lt; 2</text>
<polygon fill="#ffffff" stroke="transparent" points="209,-164.7 209,-183.7 253,-183.7 253,-164.7 209,-164.7"/>
<polygon fill="none" stroke="#000000" points="209,-164.7 209,-183.7 253,-183.7 253,-164.7 209,-164.7"/>
<text text-anchor="start" x="217.6105" y="-170.8" font-family="Helvetica,sans-Serif" font-size="11.00" fill="#000000">0 rows</text>
<polygon fill="#ffffff" stroke="transparent" points="253,-164.7 253,-183.7 280,-183.7 280,-164.7 253,-164.7"/>
<polygon fill="none" stroke="#000000" points="253,-164.7 253,-183.7 280,-183.7 280,-164.7 253,-164.7"/>
<text text-anchor="start" x="261.4053" y="-170.8" font-family="Helvetica,sans-Serif" font-size="11.00" fill="#000000">5 &gt;</text>
</a>
</g>
</g>
<!-- event_reminders&#45;&gt;events -->
<g id="edge3" class="edge">
<title>event_reminders:w&#45;&gt;events:e</title>
<path fill="none" stroke="#000000" d="M498.4902,-441.3172C426.2746,-425.6206 543.5805,-280.4478 470,-219.7 420.9893,-179.237 386.9183,-198.5078 327,-219.7 301.6751,-228.6571 306.8622,-257.7 280,-257.7"/>
<polygon fill="#000000" stroke="#000000" points="505.0361,-441.941 512.6584,-446.2838 509.018,-442.3205 513,-442.7 513,-442.7 513,-442.7 509.018,-442.3205 513.3416,-439.1162 505.0361,-441.941 505.0361,-441.941"/>
<ellipse fill="none" stroke="#000000" cx="501.8505" cy="-441.6374" rx="3.2" ry="3.2"/>
</g>
<!-- rsvps -->
<g id="node6" class="node">
<title>rsvps</title>
<g id="a_node6"><a xlink:href="../../tables/rsvps.html" xlink:title="rsvps" target="_top">
<polygon fill="#ffffff" stroke="transparent" points="348.5,-394.2 348.5,-499.2 448.5,-499.2 448.5,-394.2 348.5,-394.2"/>
<polygon fill="#f5f5f5" stroke="transparent" points="348.5,-475.7 348.5,-498.7 448.5,-498.7 448.5,-475.7 348.5,-475.7"/>
<polygon fill="none" stroke="#000000" points="348.5,-475.7 348.5,-498.7 448.5,-498.7 448.5,-475.7 348.5,-475.7"/>
<text text-anchor="start" x="353.5" y="-484.8" font-family="Helvetica,sans-Serif" font-weight="bold" font-size="11.00" fill="#000000">rsvps</text>
<text text-anchor="start" x="413.5437" y="-483.8" font-family="Helvetica,sans-Serif" font-size="11.00" fill="#000000">[table]</text>
<polygon fill="none" stroke="#000000" points="348.5,-453.7 348.5,-475.7 448.5,-475.7 448.5,-453.7 348.5,-453.7"/>
<image xlink:href="../../images/primaryKeys.png" width="11px" height="12px" preserveAspectRatio="xMinYMin meet" x="353.5" y="-470.7"/>
<text text-anchor="start" x="368.5" y="-460.8" font-family="Helvetica,sans-Serif" font-size="11.00" fill="#000000">user_id</text>
<polygon fill="none" stroke="#000000" points="348.5,-431.7 348.5,-453.7 448.5,-453.7 448.5,-431.7 348.5,-431.7"/>
<image xlink:href="../../images/primaryKeys.png" width="11px" height="12px" preserveAspectRatio="xMinYMin meet" x="353.5" y="-448.7"/>
<text text-anchor="start" x="368.5" y="-438.8" font-family="Helvetica,sans-Serif" font-size="11.00" fill="#000000">event_id</text>
<polygon fill="none" stroke="#000000" points="348.5,-412.7 348.5,-431.7 448.5,-431.7 448.5,-412.7 348.5,-412.7"/>
<text text-anchor="start" x="351.5" y="-418.8" font-family="Helvetica,sans-Serif" font-size="11.00" fill="#000000">...</text>
<polygon fill="#ffffff" stroke="transparent" points="348.5,-393.7 348.5,-412.7 379.5,-412.7 379.5,-393.7 348.5,-393.7"/>
<polygon fill="none" stroke="#000000" points="348.5,-393.7 348.5,-412.7 379.5,-412.7 379.5,-393.7 348.5,-393.7"/>
<text text-anchor="start" x="351.5" y="-399.8" font-family="Helvetica,sans-Serif" font-size="11.00" fill="#000000">&lt; 2</text>
<polygon fill="#ffffff" stroke="transparent" points="379.5,-393.7 379.5,-412.7 422.5,-412.7 422.5,-393.7 379.5,-393.7"/>
<polygon fill="none" stroke="#000000" points="379.5,-393.7 379.5,-412.7 422.5,-412.7 422.5,-393.7 379.5,-393.7"/>
<text text-anchor="start" x="387.1105" y="-399.8" font-family="Helvetica,sans-Serif" font-size="11.00" fill="#000000">0 rows</text>
<polygon fill="#ffffff" stroke="transparent" points="422.5,-393.7 422.5,-412.7 448.5,-412.7 448.5,-393.7 422.5,-393.7"/>
<polygon fill="none" stroke="#000000" points="422.5,-393.7 422.5,-412.7 448.5,-412.7 448.5,-393.7 422.5,-393.7"/>
<text text-anchor="start" x="429.9053" y="-399.8" font-family="Helvetica,sans-Serif" font-size="11.00" fill="#000000">2 &gt;</text>
</a>
</g>
</g>
<!-- event_reminders&#45;&gt;rsvps -->
<g id="edge4" class="edge">
<title>event_reminders:w&#45;&gt;rsvps:e</title>
<path fill="none" stroke="#000000" d="M498.3432,-442.7C480.7137,-442.7 471.5677,-442.7 448.5,-442.7"/>
<polygon fill="#000000" stroke="#000000" points="505,-442.7001 513,-446.3 509,-442.7 513,-442.7 513,-442.7 513,-442.7 509,-442.7 513,-439.1 505,-442.7001 505,-442.7001"/>
<ellipse fill="none" stroke="#000000" cx="501.8" cy="-442.7001" rx="3.2" ry="3.2"/>
</g>
<!-- event_reminders&#45;&gt;rsvps -->
<g id="edge5" class="edge">
<title>event_reminders:w&#45;&gt;rsvps:e</title>
<path fill="none" stroke="#000000" d="M498.3432,-464.7C480.7137,-464.7 471.5677,-464.7 448.5,-464.7"/>
<polygon fill="#000000" stroke="#000000" points="505,-464.7001 513,-468.3 509,-464.7 513,-464.7 513,-464.7 513,-464.7 509,-464.7 513,-461.1 505,-464.7001 505,-464.7001"/>
<ellipse fill="none" stroke="#000000" cx="501.8" cy="-464.7001" rx="3.2" ry="3.2"/>
</g>
<!-- events&#45;&gt;chapters -->
<g id="edge9" class="edge">
<title>events:w&#45;&gt;chapters:e</title>
<path fill="none" stroke="#000000" d="M161.5978,-211.4451C141.2022,-204.4683 135.1535,-183.7 107.5,-183.7"/>
<polygon fill="#000000" stroke="#000000" points="168.0963,-212.4625 175.4431,-217.2567 172.0481,-213.0813 176,-213.7 176,-213.7 176,-213.7 172.0481,-213.0813 176.5569,-210.1433 168.0963,-212.4625 168.0963,-212.4625"/>
<ellipse fill="none" stroke="#000000" cx="164.9348" cy="-211.9675" rx="3.2" ry="3.2"/>
</g>
<!-- venues -->
<g id="node9" class="node">
<title>venues</title>
<g id="a_node9"><a xlink:href="../../tables/venues.html" xlink:title="venues" target="_top">
<polygon fill="#ffffff" stroke="transparent" points="25.5,-238.2 25.5,-299.2 103.5,-299.2 103.5,-238.2 25.5,-238.2"/>
<polygon fill="#f5f5f5" stroke="transparent" points="25.5,-275.7 25.5,-298.7 103.5,-298.7 103.5,-275.7 25.5,-275.7"/>
<polygon fill="none" stroke="#000000" points="25.5,-275.7 25.5,-298.7 103.5,-298.7 103.5,-275.7 25.5,-275.7"/>
<text text-anchor="start" x="30.2702" y="-284.8" font-family="Helvetica,sans-Serif" font-weight="bold" font-size="11.00" fill="#000000">venues</text>
<text text-anchor="start" x="69.0219" y="-283.8" font-family="Helvetica,sans-Serif" font-size="11.00" fill="#000000">[table]</text>
<polygon fill="none" stroke="#000000" points="25.5,-256.7 25.5,-275.7 103.5,-275.7 103.5,-256.7 25.5,-256.7"/>
<text text-anchor="start" x="28.5" y="-262.8" font-family="Helvetica,sans-Serif" font-size="11.00" fill="#000000">...</text>
<polygon fill="#ffffff" stroke="transparent" points="25.5,-237.7 25.5,-256.7 40.5,-256.7 40.5,-237.7 25.5,-237.7"/>
<polygon fill="none" stroke="#000000" points="25.5,-237.7 25.5,-256.7 40.5,-256.7 40.5,-237.7 25.5,-237.7"/>
<text text-anchor="start" x="28.5" y="-243.8" font-family="Helvetica,sans-Serif" font-size="11.00" fill="#000000"> &#160;</text>
<polygon fill="#ffffff" stroke="transparent" points="40.5,-237.7 40.5,-256.7 80.5,-256.7 80.5,-237.7 40.5,-237.7"/>
<polygon fill="none" stroke="#000000" points="40.5,-237.7 40.5,-256.7 80.5,-256.7 80.5,-237.7 40.5,-237.7"/>
<text text-anchor="start" x="45.1105" y="-243.8" font-family="Helvetica,sans-Serif" font-size="11.00" fill="#000000">0 rows</text>
<polygon fill="#ffffff" stroke="transparent" points="80.5,-237.7 80.5,-256.7 103.5,-256.7 103.5,-237.7 80.5,-237.7"/>
<polygon fill="none" stroke="#000000" points="80.5,-237.7 80.5,-256.7 103.5,-256.7 103.5,-237.7 80.5,-237.7"/>
<text text-anchor="start" x="84.9053" y="-243.8" font-family="Helvetica,sans-Serif" font-size="11.00" fill="#000000">1 &gt;</text>
</a>
</g>
</g>
<!-- events&#45;&gt;venues -->
<g id="edge10" class="edge">
<title>events:w&#45;&gt;venues:e</title>
<path fill="none" stroke="#000000" d="M161.4526,-237.762C139.4215,-244.5399 132.7869,-265.7 103.5,-265.7"/>
<polygon fill="#000000" stroke="#000000" points="168.0792,-236.8228 176.5053,-239.2644 172.0396,-236.2614 176,-235.7 176,-235.7 176,-235.7 172.0396,-236.2614 175.4947,-232.1356 168.0792,-236.8228 168.0792,-236.8228"/>
<ellipse fill="none" stroke="#000000" cx="164.9108" cy="-237.2719" rx="3.2" ry="3.2"/>
</g>
<!-- rsvps&#45;&gt;users -->
<g id="edge12" class="edge">
<title>rsvps:w&#45;&gt;users:e</title>
<path fill="none" stroke="#000000" d="M333.8024,-464.7C317.0415,-464.7 308.1354,-464.7 286,-464.7"/>
<polygon fill="#000000" stroke="#000000" points="340.5,-464.7001 348.5,-468.3 344.5,-464.7 348.5,-464.7 348.5,-464.7 348.5,-464.7 344.5,-464.7 348.5,-461.1 340.5,-464.7001 340.5,-464.7001"/>
<ellipse fill="none" stroke="#000000" cx="337.3" cy="-464.7001" rx="3.2" ry="3.2"/>
</g>
<!-- rsvps&#45;&gt;events -->
<g id="edge11" class="edge">
<title>rsvps:w&#45;&gt;events:e</title>
<path fill="none" stroke="#000000" d="M334.2451,-440.6224C273.4194,-420.2977 362.1977,-257.7 280,-257.7"/>
<polygon fill="#000000" stroke="#000000" points="340.5836,-441.5461 347.9808,-446.2624 344.5418,-442.1231 348.5,-442.7 348.5,-442.7 348.5,-442.7 344.5418,-442.1231 349.0192,-439.1376 340.5836,-441.5461 340.5836,-441.5461"/>
<ellipse fill="none" stroke="#000000" cx="337.4171" cy="-441.0846" rx="3.2" ry="3.2"/>
</g>
<!-- event_sponsors -->
<g id="node7" class="node">
<title>event_sponsors</title>
<g id="a_node7"><a xlink:href="../../tables/event_sponsors.html" xlink:title="event_sponsors" target="_top">
<polygon fill="#ffffff" stroke="transparent" points="338.5,-120.2 338.5,-181.2 458.5,-181.2 458.5,-120.2 338.5,-120.2"/>
<polygon fill="#f5f5f5" stroke="transparent" points="338.5,-157.7 338.5,-180.7 458.5,-180.7 458.5,-157.7 338.5,-157.7"/>
<polygon fill="none" stroke="#000000" points="338.5,-157.7 338.5,-180.7 458.5,-180.7 458.5,-157.7 338.5,-157.7"/>
<text text-anchor="start" x="343.181" y="-166.8" font-family="Helvetica,sans-Serif" font-weight="bold" font-size="11.00" fill="#000000">event_sponsors</text>
<text text-anchor="start" x="424.0219" y="-165.8" font-family="Helvetica,sans-Serif" font-size="11.00" fill="#000000">[table]</text>
<polygon fill="none" stroke="#000000" points="338.5,-138.7 338.5,-157.7 458.5,-157.7 458.5,-138.7 338.5,-138.7"/>
<text text-anchor="start" x="341.5" y="-144.8" font-family="Helvetica,sans-Serif" font-size="11.00" fill="#000000">...</text>
<polygon fill="#ffffff" stroke="transparent" points="338.5,-119.7 338.5,-138.7 383.5,-138.7 383.5,-119.7 338.5,-119.7"/>
<polygon fill="none" stroke="#000000" points="338.5,-119.7 338.5,-138.7 383.5,-138.7 383.5,-119.7 338.5,-119.7"/>
<text text-anchor="start" x="341.5" y="-125.8" font-family="Helvetica,sans-Serif" font-size="11.00" fill="#000000">&lt; 2</text>
<polygon fill="#ffffff" stroke="transparent" points="383.5,-119.7 383.5,-138.7 433.5,-138.7 433.5,-119.7 383.5,-119.7"/>
<polygon fill="none" stroke="#000000" points="383.5,-119.7 383.5,-138.7 433.5,-138.7 433.5,-119.7 383.5,-119.7"/>
<text text-anchor="start" x="398.1105" y="-125.8" font-family="Helvetica,sans-Serif" font-size="11.00" fill="#000000">0 rows</text>
<polygon fill="#ffffff" stroke="transparent" points="433.5,-119.7 433.5,-138.7 458.5,-138.7 458.5,-119.7 433.5,-119.7"/>
<polygon fill="none" stroke="#000000" points="433.5,-119.7 433.5,-138.7 458.5,-138.7 458.5,-119.7 433.5,-119.7"/>
<text text-anchor="start" x="449.3862" y="-125.8" font-family="Helvetica,sans-Serif" font-size="11.00" fill="#000000"> &#160;</text>
</a>
</g>
</g>
<!-- event_sponsors&#45;&gt;events -->
<g id="edge7" class="edge">
<title>event_sponsors:w&#45;&gt;events:e</title>
<path fill="none" stroke="#000000" d="M324.3186,-151.1127C292.9508,-169.6795 329.5325,-257.7 280,-257.7"/>
<polygon fill="#000000" stroke="#000000" points="330.722,-149.5718 339.3423,-151.2001 334.611,-148.6359 338.5,-147.7 338.5,-147.7 338.5,-147.7 334.611,-148.6359 337.6577,-144.1999 330.722,-149.5718 330.722,-149.5718"/>
<ellipse fill="none" stroke="#000000" cx="327.6109" cy="-150.3205" rx="3.2" ry="3.2"/>
</g>
<!-- event_tags -->
<g id="node8" class="node">
<title>event_tags</title>
<g id="a_node8"><a xlink:href="../../tables/event_tags.html" xlink:title="event_tags" target="_top">
<polygon fill="#ffffff" stroke="transparent" points="350.5,-230.2 350.5,-291.2 446.5,-291.2 446.5,-230.2 350.5,-230.2"/>
<polygon fill="#f5f5f5" stroke="transparent" points="350.5,-267.7 350.5,-290.7 446.5,-290.7 446.5,-267.7 350.5,-267.7"/>
<polygon fill="none" stroke="#000000" points="350.5,-267.7 350.5,-290.7 446.5,-290.7 446.5,-267.7 350.5,-267.7"/>
<text text-anchor="start" x="355.0984" y="-276.8" font-family="Helvetica,sans-Serif" font-weight="bold" font-size="11.00" fill="#000000">event_tags</text>
<text text-anchor="start" x="412.0219" y="-275.8" font-family="Helvetica,sans-Serif" font-size="11.00" fill="#000000">[table]</text>
<polygon fill="none" stroke="#000000" points="350.5,-248.7 350.5,-267.7 446.5,-267.7 446.5,-248.7 350.5,-248.7"/>
<text text-anchor="start" x="353.5" y="-254.8" font-family="Helvetica,sans-Serif" font-size="11.00" fill="#000000">...</text>
<polygon fill="#ffffff" stroke="transparent" points="350.5,-229.7 350.5,-248.7 383.5,-248.7 383.5,-229.7 350.5,-229.7"/>
<polygon fill="none" stroke="#000000" points="350.5,-229.7 350.5,-248.7 383.5,-248.7 383.5,-229.7 350.5,-229.7"/>
<text text-anchor="start" x="353.5" y="-235.8" font-family="Helvetica,sans-Serif" font-size="11.00" fill="#000000">&lt; 2</text>
<polygon fill="#ffffff" stroke="transparent" points="383.5,-229.7 383.5,-248.7 427.5,-248.7 427.5,-229.7 383.5,-229.7"/>
<polygon fill="none" stroke="#000000" points="383.5,-229.7 383.5,-248.7 427.5,-248.7 427.5,-229.7 383.5,-229.7"/>
<text text-anchor="start" x="392.1105" y="-235.8" font-family="Helvetica,sans-Serif" font-size="11.00" fill="#000000">0 rows</text>
<polygon fill="#ffffff" stroke="transparent" points="427.5,-229.7 427.5,-248.7 446.5,-248.7 446.5,-229.7 427.5,-229.7"/>
<polygon fill="none" stroke="#000000" points="427.5,-229.7 427.5,-248.7 446.5,-248.7 446.5,-229.7 427.5,-229.7"/>
<text text-anchor="start" x="437.3862" y="-235.8" font-family="Helvetica,sans-Serif" font-size="11.00" fill="#000000"> &#160;</text>
</a>
</g>
</g>
<!-- event_tags&#45;&gt;events -->
<g id="edge8" class="edge">
<title>event_tags:w&#45;&gt;events:e</title>
<path fill="none" stroke="#000000" d="M335.8997,-257.7C315.6866,-257.7 305.8255,-257.7 280,-257.7"/>
<polygon fill="#000000" stroke="#000000" points="342.5,-257.7001 350.5,-261.3 346.5,-257.7 350.5,-257.7 350.5,-257.7 350.5,-257.7 346.5,-257.7 350.5,-254.1 342.5,-257.7001 342.5,-257.7001"/>
<ellipse fill="none" stroke="#000000" cx="339.3" cy="-257.7001" rx="3.2" ry="3.2"/>
</g>
<!-- user_bans -->
<g id="node10" class="node">
<title>user_bans</title>
<g id="a_node10"><a xlink:href="../../tables/user_bans.html" xlink:title="user_bans" target="_top">
<polygon fill="#ffffff" stroke="transparent" points="351.5,-38.2 351.5,-99.2 445.5,-99.2 445.5,-38.2 351.5,-38.2"/>
<polygon fill="#f5f5f5" stroke="transparent" points="351.5,-75.7 351.5,-98.7 445.5,-98.7 445.5,-75.7 351.5,-75.7"/>
<polygon fill="none" stroke="#000000" points="351.5,-75.7 351.5,-98.7 445.5,-98.7 445.5,-75.7 351.5,-75.7"/>
<text text-anchor="start" x="356.3244" y="-84.8" font-family="Helvetica,sans-Serif" font-weight="bold" font-size="11.00" fill="#000000">user_bans</text>
<text text-anchor="start" x="411.0219" y="-83.8" font-family="Helvetica,sans-Serif" font-size="11.00" fill="#000000">[table]</text>
<polygon fill="none" stroke="#000000" points="351.5,-56.7 351.5,-75.7 445.5,-75.7 445.5,-56.7 351.5,-56.7"/>
<text text-anchor="start" x="354.5" y="-62.8" font-family="Helvetica,sans-Serif" font-size="11.00" fill="#000000">...</text>
<polygon fill="#ffffff" stroke="transparent" points="351.5,-37.7 351.5,-56.7 383.5,-56.7 383.5,-37.7 351.5,-37.7"/>
<polygon fill="none" stroke="#000000" points="351.5,-37.7 351.5,-56.7 383.5,-56.7 383.5,-37.7 351.5,-37.7"/>
<text text-anchor="start" x="354.5" y="-43.8" font-family="Helvetica,sans-Serif" font-size="11.00" fill="#000000">&lt; 2</text>
<polygon fill="#ffffff" stroke="transparent" points="383.5,-37.7 383.5,-56.7 427.5,-56.7 427.5,-37.7 383.5,-37.7"/>
<polygon fill="none" stroke="#000000" points="383.5,-37.7 383.5,-56.7 427.5,-56.7 427.5,-37.7 383.5,-37.7"/>
<text text-anchor="start" x="392.1105" y="-43.8" font-family="Helvetica,sans-Serif" font-size="11.00" fill="#000000">0 rows</text>
<polygon fill="#ffffff" stroke="transparent" points="427.5,-37.7 427.5,-56.7 445.5,-56.7 445.5,-37.7 427.5,-37.7"/>
<polygon fill="none" stroke="#000000" points="427.5,-37.7 427.5,-56.7 445.5,-56.7 445.5,-37.7 427.5,-37.7"/>
<text text-anchor="start" x="436.3862" y="-43.8" font-family="Helvetica,sans-Serif" font-size="11.00" fill="#000000"> &#160;</text>
</a>
</g>
</g>
<!-- user_bans&#45;&gt;chapters -->
<g id="edge13" class="edge">
<title>user_bans:w&#45;&gt;chapters:e</title>
<path fill="none" stroke="#000000" d="M336.9258,-66.1162C256.7938,-70.8623 240.6582,-115.3321 162,-154.7 137.4636,-166.9803 134.9379,-183.7 107.5,-183.7"/>
<polygon fill="#000000" stroke="#000000" points="343.5033,-65.9284 351.6028,-69.2985 347.5016,-65.8142 351.5,-65.7 351.5,-65.7 351.5,-65.7 347.5016,-65.8142 351.3972,-62.1015 343.5033,-65.9284 343.5033,-65.9284"/>
<ellipse fill="none" stroke="#000000" cx="340.3046" cy="-66.0198" rx="3.2" ry="3.2"/>
</g>
<!-- user_bans&#45;&gt;users -->
<g id="edge14" class="edge">
<title>user_bans:w&#45;&gt;users:e</title>
<path fill="none" stroke="#000000" d="M337.3326,-69.911C274.7282,-112.5537 370.4131,-464.7 286,-464.7"/>
<polygon fill="#000000" stroke="#000000" points="343.8316,-67.9793 352.5257,-69.1508 347.6658,-66.8397 351.5,-65.7 351.5,-65.7 351.5,-65.7 347.6658,-66.8397 350.4743,-62.2492 343.8316,-67.9793 343.8316,-67.9793"/>
<ellipse fill="none" stroke="#000000" cx="340.7642" cy="-68.8911" rx="3.2" ry="3.2"/>
</g>
<!-- user_event_roles -->
<g id="node11" class="node">
<title>user_event_roles</title>
<g id="a_node11"><a xlink:href="../../tables/user_event_roles.html" xlink:title="user_event_roles" target="_top">
<polygon fill="#ffffff" stroke="transparent" points="335,-312.2 335,-373.2 462,-373.2 462,-312.2 335,-312.2"/>
<polygon fill="#f5f5f5" stroke="transparent" points="335.5,-349.7 335.5,-372.7 462.5,-372.7 462.5,-349.7 335.5,-349.7"/>
<polygon fill="none" stroke="#000000" points="335.5,-349.7 335.5,-372.7 462.5,-372.7 462.5,-349.7 335.5,-349.7"/>
<text text-anchor="start" x="340.3222" y="-358.8" font-family="Helvetica,sans-Serif" font-weight="bold" font-size="11.00" fill="#000000">user_event_roles</text>
<text text-anchor="start" x="428.0219" y="-357.8" font-family="Helvetica,sans-Serif" font-size="11.00" fill="#000000">[table]</text>
<polygon fill="none" stroke="#000000" points="335.5,-330.7 335.5,-349.7 462.5,-349.7 462.5,-330.7 335.5,-330.7"/>
<text text-anchor="start" x="338.5" y="-336.8" font-family="Helvetica,sans-Serif" font-size="11.00" fill="#000000">...</text>
<polygon fill="#ffffff" stroke="transparent" points="335.5,-311.7 335.5,-330.7 384.5,-330.7 384.5,-311.7 335.5,-311.7"/>
<polygon fill="none" stroke="#000000" points="335.5,-311.7 335.5,-330.7 384.5,-330.7 384.5,-311.7 335.5,-311.7"/>
<text text-anchor="start" x="338.5" y="-317.8" font-family="Helvetica,sans-Serif" font-size="11.00" fill="#000000">&lt; 2</text>
<polygon fill="#ffffff" stroke="transparent" points="384.5,-311.7 384.5,-330.7 436.5,-330.7 436.5,-311.7 384.5,-311.7"/>
<polygon fill="none" stroke="#000000" points="384.5,-311.7 384.5,-330.7 436.5,-330.7 436.5,-311.7 384.5,-311.7"/>
<text text-anchor="start" x="401.1105" y="-317.8" font-family="Helvetica,sans-Serif" font-size="11.00" fill="#000000">0 rows</text>
<polygon fill="#ffffff" stroke="transparent" points="436.5,-311.7 436.5,-330.7 462.5,-330.7 462.5,-311.7 436.5,-311.7"/>
<polygon fill="none" stroke="#000000" points="436.5,-311.7 436.5,-330.7 462.5,-330.7 462.5,-311.7 436.5,-311.7"/>
<text text-anchor="start" x="453.3862" y="-317.8" font-family="Helvetica,sans-Serif" font-size="11.00" fill="#000000"> &#160;</text>
</a>
</g>
</g>
<!-- user_event_roles&#45;&gt;users -->
<g id="edge16" class="edge">
<title>user_event_roles:w&#45;&gt;users:e</title>
<path fill="none" stroke="#000000" d="M321.465,-343.0434C288.1826,-362.922 339.9177,-464.7 286,-464.7"/>
<polygon fill="#000000" stroke="#000000" points="327.7178,-341.5539 336.3343,-343.202 331.6089,-340.627 335.5,-339.7 335.5,-339.7 335.5,-339.7 331.6089,-340.627 334.6657,-336.198 327.7178,-341.5539 327.7178,-341.5539"/>
<ellipse fill="none" stroke="#000000" cx="324.6049" cy="-342.2955" rx="3.2" ry="3.2"/>
</g>
<!-- user_event_roles&#45;&gt;events -->
<g id="edge15" class="edge">
<title>user_event_roles:w&#45;&gt;events:e</title>
<path fill="none" stroke="#000000" d="M321.3501,-335.5209C298.9531,-318.8109 317.9907,-257.7 280,-257.7"/>
<polygon fill="#000000" stroke="#000000" points="327.8276,-337.434 334.4803,-343.1526 331.6638,-338.567 335.5,-339.7 335.5,-339.7 335.5,-339.7 331.6638,-338.567 336.5197,-336.2474 327.8276,-337.434 327.8276,-337.434"/>
<ellipse fill="none" stroke="#000000" cx="324.7587" cy="-336.5275" rx="3.2" ry="3.2"/>
</g>
</g>
</svg>
