<?xml version="1.0" encoding="UTF-8" standalone="no"?>
<!DOCTYPE svg PUBLIC "-//W3C//DTD SVG 1.1//EN"
 "http://www.w3.org/Graphics/SVG/1.1/DTD/svg11.dtd">
<!-- Generated by graphviz version 2.40.1 (20161225.0304)
 -->
<!-- Title: twoDegreesRelationshipsDiagram Pages: 1 -->
<svg width="472pt" height="305pt"
 viewBox="0.00 0.00 472.00 305.20" xmlns="http://www.w3.org/2000/svg" xmlns:xlink="http://www.w3.org/1999/xlink">
<g id="graph0" class="graph" transform="scale(1 1) rotate(0) translate(4 301.2)">
<title>twoDegreesRelationshipsDiagram</title>
<polygon fill="#ffffff" stroke="transparent" points="-4,4 -4,-301.2 468,-301.2 468,4 -4,4"/>
<text text-anchor="middle" x="72.4936" y="-7.3" font-family="Helvetica,sans-Serif" font-size="11.00" fill="#000000">Generated by SchemaSpy</text>
<!-- event_role_permissions -->
<g id="node1" class="node">
<title>event_role_permissions</title>
<g id="a_node1"><a xlink:href="../../tables/event_role_permissions.html" xlink:title="event_role_permissions" target="_top">
<polygon fill="#ffffff" stroke="transparent" points="207,-76.7 207,-210.7 456,-210.7 456,-76.7 207,-76.7"/>
<polygon fill="#f5f5f5" stroke="transparent" points="209.5,-185.7 209.5,-208.7 454.5,-208.7 454.5,-185.7 209.5,-185.7"/>
<polygon fill="none" stroke="#000000" points="209.5,-185.7 209.5,-208.7 454.5,-208.7 454.5,-185.7 209.5,-185.7"/>
<text text-anchor="start" x="214.5" y="-194.3" font-family="Helvetica,sans-Serif" font-weight="bold" font-size="11.00" fill="#000000">event_role_permissions</text>
<text text-anchor="start" x="419.5437" y="-193.8" font-family="Helvetica,sans-Serif" font-size="11.00" fill="#000000">[table]</text>
<polygon fill="none" stroke="#000000" points="209.5,-163.7 209.5,-185.7 370.5,-185.7 370.5,-163.7 209.5,-163.7"/>
<text text-anchor="start" x="229.5" y="-170.8" font-family="Helvetica,sans-Serif" font-size="11.00" fill="#000000">created_at</text>
<polygon fill="none" stroke="#000000" points="370.5,-163.7 370.5,-185.7 454.5,-185.7 454.5,-163.7 370.5,-163.7"/>
<text text-anchor="start" x="373.3807" y="-171.4" font-family="Helvetica,sans-Serif" font-size="11.00" fill="#000000">timestamp[26,3]</text>
<polygon fill="none" stroke="#000000" points="209.5,-141.7 209.5,-163.7 370.5,-163.7 370.5,-141.7 209.5,-141.7"/>
<text text-anchor="start" x="229.5" y="-148.8" font-family="Helvetica,sans-Serif" font-size="11.00" fill="#000000">updated_at</text>
<polygon fill="none" stroke="#000000" points="370.5,-141.7 370.5,-163.7 454.5,-163.7 454.5,-141.7 370.5,-141.7"/>
<text text-anchor="start" x="373.3807" y="-149.4" font-family="Helvetica,sans-Serif" font-size="11.00" fill="#000000">timestamp[26,3]</text>
<polygon fill="none" stroke="#000000" points="209.5,-119.7 209.5,-141.7 370.5,-141.7 370.5,-119.7 209.5,-119.7"/>
<image xlink:href="../../images/primaryKeys.png" width="11px" height="12px" preserveAspectRatio="xMinYMin meet" x="214.5" y="-136.7"/>
<text text-anchor="start" x="229.5" y="-126.8" font-family="Helvetica,sans-Serif" font-size="11.00" fill="#000000">event_role_id</text>
<polygon fill="none" stroke="#000000" points="370.5,-119.7 370.5,-141.7 454.5,-141.7 454.5,-119.7 370.5,-119.7"/>
<text text-anchor="start" x="373.5" y="-127.4" font-family="Helvetica,sans-Serif" font-size="11.00" fill="#000000">int4[10]</text>
<polygon fill="none" stroke="#000000" points="209.5,-97.7 209.5,-119.7 370.5,-119.7 370.5,-97.7 209.5,-97.7"/>
<image xlink:href="../../images/primaryKeys.png" width="11px" height="12px" preserveAspectRatio="xMinYMin meet" x="214.5" y="-114.7"/>
<text text-anchor="start" x="229.5" y="-104.8" font-family="Helvetica,sans-Serif" font-size="11.00" fill="#000000">event_permission_id</text>
<polygon fill="none" stroke="#000000" points="370.5,-97.7 370.5,-119.7 454.5,-119.7 454.5,-97.7 370.5,-97.7"/>
<text text-anchor="start" x="373.5" y="-105.4" font-family="Helvetica,sans-Serif" font-size="11.00" fill="#000000">int4[10]</text>
<polygon fill="#ffffff" stroke="transparent" points="209.5,-78.7 209.5,-97.7 281.5,-97.7 281.5,-78.7 209.5,-78.7"/>
<polygon fill="none" stroke="#000000" points="209.5,-78.7 209.5,-97.7 281.5,-97.7 281.5,-78.7 209.5,-78.7"/>
<text text-anchor="start" x="212.5" y="-84.8" font-family="Helvetica,sans-Serif" font-size="11.00" fill="#000000">&lt; 2</text>
<polygon fill="#ffffff" stroke="transparent" points="281.5,-78.7 281.5,-97.7 370.5,-97.7 370.5,-78.7 281.5,-78.7"/>
<polygon fill="none" stroke="#000000" points="281.5,-78.7 281.5,-97.7 370.5,-97.7 370.5,-78.7 281.5,-78.7"/>
<text text-anchor="start" x="335.1105" y="-84.8" font-family="Helvetica,sans-Serif" font-size="11.00" fill="#000000">0 rows</text>
<polygon fill="#ffffff" stroke="transparent" points="370.5,-78.7 370.5,-97.7 454.5,-97.7 454.5,-78.7 370.5,-78.7"/>
<polygon fill="none" stroke="#000000" points="370.5,-78.7 370.5,-97.7 454.5,-97.7 454.5,-78.7 370.5,-78.7"/>
<text text-anchor="start" x="435.9053" y="-84.8" font-family="Helvetica,sans-Serif" font-size="11.00" fill="#000000">0 &gt;</text>
<polygon fill="none" stroke="#000000" stroke-width="2" points="208,-77.7 208,-209.7 455,-209.7 455,-77.7 208,-77.7"/>
</a>
</g>
</g>
<!-- event_permissions -->
<g id="node2" class="node">
<title>event_permissions</title>
<g id="a_node2"><a xlink:href="../../tables/event_permissions.html" xlink:title="event_permissions" target="_top">
<polygon fill="#ffffff" stroke="transparent" points="8,-38.2 8,-143.2 158,-143.2 158,-38.2 8,-38.2"/>
<polygon fill="#f5f5f5" stroke="transparent" points="8,-119.7 8,-142.7 158,-142.7 158,-119.7 8,-119.7"/>
<polygon fill="none" stroke="#000000" points="8,-119.7 8,-142.7 158,-142.7 158,-119.7 8,-119.7"/>
<text text-anchor="start" x="13" y="-128.3" font-family="Helvetica,sans-Serif" font-weight="bold" font-size="11.00" fill="#000000">event_permissions</text>
<text text-anchor="start" x="123.5219" y="-127.8" font-family="Helvetica,sans-Serif" font-size="11.00" fill="#000000">[table]</text>
<polygon fill="none" stroke="#000000" points="8,-97.7 8,-119.7 158,-119.7 158,-97.7 8,-97.7"/>
<image xlink:href="../../images/primaryKeys.png" width="11px" height="12px" preserveAspectRatio="xMinYMin meet" x="13" y="-114.7"/>
<text text-anchor="start" x="37" y="-104.8" font-family="Helvetica,sans-Serif" font-size="11.00" fill="#000000">id</text>
<polygon fill="#ffffff" stroke="transparent" points="8,-75.7 8,-97.7 158,-97.7 158,-75.7 8,-75.7"/>
<polygon fill="none" stroke="#000000" points="8,-75.7 8,-97.7 158,-97.7 158,-75.7 8,-75.7"/>
<text text-anchor="start" x="37" y="-82.8" font-family="Helvetica,sans-Serif" font-size="11.00" fill="#000000">name</text>
<polygon fill="none" stroke="#000000" points="8,-56.7 8,-75.7 158,-75.7 158,-56.7 8,-56.7"/>
<text text-anchor="start" x="11" y="-62.8" font-family="Helvetica,sans-Serif" font-size="11.00" fill="#000000">...</text>
<polygon fill="#ffffff" stroke="transparent" points="8,-37.7 8,-56.7 59,-56.7 59,-37.7 8,-37.7"/>
<polygon fill="none" stroke="#000000" points="8,-37.7 8,-56.7 59,-56.7 59,-37.7 8,-37.7"/>
<text text-anchor="start" x="11" y="-43.8" font-family="Helvetica,sans-Serif" font-size="11.00" fill="#000000"> &#160;</text>
<polygon fill="#ffffff" stroke="transparent" points="59,-37.7 59,-56.7 117,-56.7 117,-37.7 59,-37.7"/>
<polygon fill="none" stroke="#000000" points="59,-37.7 59,-56.7 117,-56.7 117,-37.7 59,-37.7"/>
<text text-anchor="start" x="81.6105" y="-43.8" font-family="Helvetica,sans-Serif" font-size="11.00" fill="#000000">0 rows</text>
<polygon fill="#ffffff" stroke="transparent" points="117,-37.7 117,-56.7 158,-56.7 158,-37.7 117,-37.7"/>
<polygon fill="none" stroke="#000000" points="117,-37.7 117,-56.7 158,-56.7 158,-37.7 117,-37.7"/>
<text text-anchor="start" x="139.4053" y="-43.8" font-family="Helvetica,sans-Serif" font-size="11.00" fill="#000000">1 &gt;</text>
</a>
</g>
</g>
<!-- event_role_permissions&#45;&gt;event_permissions -->
<g id="edge1" class="edge">
<title>event_role_permissions:w&#45;&gt;event_permissions:e</title>
<path fill="none" stroke="#000000" d="M195.0156,-108.7C182.6771,-108.7 175.1667,-108.7 158,-108.7"/>
<polygon fill="#000000" stroke="#000000" points="201.5,-108.7001 209.5,-112.3 205.5,-108.7 209.5,-108.7 209.5,-108.7 209.5,-108.7 205.5,-108.7 209.5,-105.1 201.5,-108.7001 201.5,-108.7001"/>
<ellipse fill="none" stroke="#000000" cx="198.3" cy="-108.7001" rx="3.2" ry="3.2"/>
</g>
<!-- event_roles -->
<g id="node3" class="node">
<title>event_roles</title>
<g id="a_node3"><a xlink:href="../../tables/event_roles.html" xlink:title="event_roles" target="_top">
<polygon fill="#ffffff" stroke="transparent" points="29.5,-176.2 29.5,-281.2 136.5,-281.2 136.5,-176.2 29.5,-176.2"/>
<polygon fill="#f5f5f5" stroke="transparent" points="30,-257.7 30,-280.7 137,-280.7 137,-257.7 30,-257.7"/>
<polygon fill="none" stroke="#000000" points="30,-257.7 30,-280.7 137,-280.7 137,-257.7 30,-257.7"/>
<text text-anchor="start" x="35" y="-266.3" font-family="Helvetica,sans-Serif" font-weight="bold" font-size="11.00" fill="#000000">event_roles</text>
<text text-anchor="start" x="102.5219" y="-265.8" font-family="Helvetica,sans-Serif" font-size="11.00" fill="#000000">[table]</text>
<polygon fill="none" stroke="#000000" points="30,-235.7 30,-257.7 137,-257.7 137,-235.7 30,-235.7"/>
<image xlink:href="../../images/primaryKeys.png" width="11px" height="12px" preserveAspectRatio="xMinYMin meet" x="35" y="-252.7"/>
<text text-anchor="start" x="59" y="-242.8" font-family="Helvetica,sans-Serif" font-size="11.00" fill="#000000">id</text>
<polygon fill="#ffffff" stroke="transparent" points="30,-213.7 30,-235.7 137,-235.7 137,-213.7 30,-213.7"/>
<polygon fill="none" stroke="#000000" points="30,-213.7 30,-235.7 137,-235.7 137,-213.7 30,-213.7"/>
<text text-anchor="start" x="59" y="-220.8" font-family="Helvetica,sans-Serif" font-size="11.00" fill="#000000">name</text>
<polygon fill="none" stroke="#000000" points="30,-194.7 30,-213.7 137,-213.7 137,-194.7 30,-194.7"/>
<text text-anchor="start" x="33" y="-200.8" font-family="Helvetica,sans-Serif" font-size="11.00" fill="#000000">...</text>
<polygon fill="#ffffff" stroke="transparent" points="30,-175.7 30,-194.7 60,-194.7 60,-175.7 30,-175.7"/>
<polygon fill="none" stroke="#000000" points="30,-175.7 30,-194.7 60,-194.7 60,-175.7 30,-175.7"/>
<text text-anchor="start" x="33" y="-181.8" font-family="Helvetica,sans-Serif" font-size="11.00" fill="#000000"> &#160;</text>
<polygon fill="#ffffff" stroke="transparent" points="60,-175.7 60,-194.7 107,-194.7 107,-175.7 60,-175.7"/>
<polygon fill="none" stroke="#000000" points="60,-175.7 60,-194.7 107,-194.7 107,-175.7 60,-175.7"/>
<text text-anchor="start" x="71.6105" y="-181.8" font-family="Helvetica,sans-Serif" font-size="11.00" fill="#000000">0 rows</text>
<polygon fill="#ffffff" stroke="transparent" points="107,-175.7 107,-194.7 137,-194.7 137,-175.7 107,-175.7"/>
<polygon fill="none" stroke="#000000" points="107,-175.7 107,-194.7 137,-194.7 137,-175.7 107,-175.7"/>
<text text-anchor="start" x="118.4053" y="-181.8" font-family="Helvetica,sans-Serif" font-size="11.00" fill="#000000">2 &gt;</text>
</a>
</g>
</g>
<!-- event_role_permissions&#45;&gt;event_roles -->
<g id="edge2" class="edge">
<title>event_role_permissions:w&#45;&gt;event_roles:e</title>
<path fill="none" stroke="#000000" d="M195.3652,-133.453C156.7905,-151.0194 192.2158,-246.7 137,-246.7"/>
<polygon fill="#000000" stroke="#000000" points="201.6476,-132.2295 210.1883,-134.2336 205.5738,-131.4647 209.5,-130.7 209.5,-130.7 209.5,-130.7 205.5738,-131.4647 208.8117,-127.1664 201.6476,-132.2295 201.6476,-132.2295"/>
<ellipse fill="none" stroke="#000000" cx="198.5066" cy="-132.8412" rx="3.2" ry="3.2"/>
</g>
<!-- event_users -->
<g id="node4" class="node">
<title>event_users</title>
<g id="a_node4"><a xlink:href="../../tables/event_users.html" xlink:title="event_users" target="_top">
<polygon fill="#ffffff" stroke="transparent" points="276.5,-232.2 276.5,-293.2 386.5,-293.2 386.5,-232.2 276.5,-232.2"/>
<polygon fill="#f5f5f5" stroke="transparent" points="276.5,-269.7 276.5,-292.7 386.5,-292.7 386.5,-269.7 276.5,-269.7"/>
<polygon fill="none" stroke="#000000" points="276.5,-269.7 276.5,-292.7 386.5,-292.7 386.5,-269.7 276.5,-269.7"/>
<text text-anchor="start" x="281.5" y="-278.3" font-family="Helvetica,sans-Serif" font-weight="bold" font-size="11.00" fill="#000000">event_users</text>
<text text-anchor="start" x="352.0219" y="-277.8" font-family="Helvetica,sans-Serif" font-size="11.00" fill="#000000">[table]</text>
<polygon fill="none" stroke="#000000" points="276.5,-250.7 276.5,-269.7 386.5,-269.7 386.5,-250.7 276.5,-250.7"/>
<text text-anchor="start" x="279.5" y="-256.8" font-family="Helvetica,sans-Serif" font-size="11.00" fill="#000000">...</text>
<polygon fill="#ffffff" stroke="transparent" points="276.5,-231.7 276.5,-250.7 312.5,-250.7 312.5,-231.7 276.5,-231.7"/>
<polygon fill="none" stroke="#000000" points="276.5,-231.7 276.5,-250.7 312.5,-250.7 312.5,-231.7 276.5,-231.7"/>
<text text-anchor="start" x="279.5" y="-237.8" font-family="Helvetica,sans-Serif" font-size="11.00" fill="#000000">&lt; 4</text>
<polygon fill="#ffffff" stroke="transparent" points="312.5,-231.7 312.5,-250.7 357.5,-250.7 357.5,-231.7 312.5,-231.7"/>
<polygon fill="none" stroke="#000000" points="312.5,-231.7 312.5,-250.7 357.5,-250.7 357.5,-231.7 312.5,-231.7"/>
<text text-anchor="start" x="322.1105" y="-237.8" font-family="Helvetica,sans-Serif" font-size="11.00" fill="#000000">0 rows</text>
<polygon fill="#ffffff" stroke="transparent" points="357.5,-231.7 357.5,-250.7 386.5,-250.7 386.5,-231.7 357.5,-231.7"/>
<polygon fill="none" stroke="#000000" points="357.5,-231.7 357.5,-250.7 386.5,-250.7 386.5,-231.7 357.5,-231.7"/>
<text text-anchor="start" x="367.9053" y="-237.8" font-family="Helvetica,sans-Serif" font-size="11.00" fill="#000000">2 &gt;</text>
</a>
</g>
</g>
<!-- event_users&#45;&gt;event_roles -->
<g id="edge3" class="edge">
<title>event_users:w&#45;&gt;event_roles:e</title>
<path fill="none" stroke="#000000" d="M262.0788,-259.4519C211.4582,-257.6547 194.1607,-246.7 137,-246.7"/>
<polygon fill="#000000" stroke="#000000" points="268.5012,-259.5623 276.4381,-263.2995 272.5006,-259.6312 276.5,-259.7 276.5,-259.7 276.5,-259.7 272.5006,-259.6312 276.5619,-256.1005 268.5012,-259.5623 268.5012,-259.5623"/>
<ellipse fill="none" stroke="#000000" cx="265.3017" cy="-259.5073" rx="3.2" ry="3.2"/>
</g>
</g>
</svg>
