<?xml version="1.0" encoding="UTF-8" standalone="no"?>
<!DOCTYPE svg PUBLIC "-//W3C//DTD SVG 1.1//EN"
 "http://www.w3.org/Graphics/SVG/1.1/DTD/svg11.dtd">
<!-- Generated by graphviz version 2.40.1 (20161225.0304)
 -->
<!-- Title: oneDegreeRelationshipsDiagram Pages: 1 -->
<svg width="353pt" height="303pt"
 viewBox="0.00 0.00 353.00 303.20" xmlns="http://www.w3.org/2000/svg" xmlns:xlink="http://www.w3.org/1999/xlink">
<g id="graph0" class="graph" transform="scale(1 1) rotate(0) translate(4 299.2)">
<title>oneDegreeRelationshipsDiagram</title>
<polygon fill="#ffffff" stroke="transparent" points="-4,4 -4,-299.2 349,-299.2 349,4 -4,4"/>
<text text-anchor="middle" x="72.4936" y="-7.3" font-family="Helvetica,sans-Serif" font-size="11.00" fill="#000000">Generated by SchemaSpy</text>
<!-- event_tags -->
<g id="node1" class="node">
<title>event_tags</title>
<g id="a_node1"><a xlink:href="../../tables/event_tags.html" xlink:title="event_tags" target="_top">
<polygon fill="#ffffff" stroke="transparent" points="161,-139.7 161,-273.7 337,-273.7 337,-139.7 161,-139.7"/>
<polygon fill="#f5f5f5" stroke="transparent" points="163,-248.7 163,-271.7 335,-271.7 335,-248.7 163,-248.7"/>
<polygon fill="none" stroke="#000000" points="163,-248.7 163,-271.7 335,-271.7 335,-248.7 163,-248.7"/>
<text text-anchor="start" x="168" y="-257.8" font-family="Helvetica,sans-Serif" font-weight="bold" font-size="11.00" fill="#000000">event_tags</text>
<text text-anchor="start" x="300.0437" y="-256.8" font-family="Helvetica,sans-Serif" font-size="11.00" fill="#000000">[table]</text>
<polygon fill="none" stroke="#000000" points="163,-226.7 163,-248.7 251,-248.7 251,-226.7 163,-226.7"/>
<text text-anchor="start" x="183" y="-233.8" font-family="Helvetica,sans-Serif" font-size="11.00" fill="#000000">created_at</text>
<polygon fill="none" stroke="#000000" points="251,-226.7 251,-248.7 335,-248.7 335,-226.7 251,-226.7"/>
<text text-anchor="start" x="253.8807" y="-234.4" font-family="Helvetica,sans-Serif" font-size="11.00" fill="#000000">timestamp[26,3]</text>
<polygon fill="none" stroke="#000000" points="163,-204.7 163,-226.7 251,-226.7 251,-204.7 163,-204.7"/>
<text text-anchor="start" x="183" y="-211.8" font-family="Helvetica,sans-Serif" font-size="11.00" fill="#000000">updated_at</text>
<polygon fill="none" stroke="#000000" points="251,-204.7 251,-226.7 335,-226.7 335,-204.7 251,-204.7"/>
<text text-anchor="start" x="253.8807" y="-212.4" font-family="Helvetica,sans-Serif" font-size="11.00" fill="#000000">timestamp[26,3]</text>
<polygon fill="none" stroke="#000000" points="163,-182.7 163,-204.7 251,-204.7 251,-182.7 163,-182.7"/>
<image xlink:href="../../images/primaryKeys.png" width="11px" height="12px" preserveAspectRatio="xMinYMin meet" x="168" y="-199.7"/>
<text text-anchor="start" x="183" y="-189.8" font-family="Helvetica,sans-Serif" font-size="11.00" fill="#000000">event_id</text>
<polygon fill="none" stroke="#000000" points="251,-182.7 251,-204.7 335,-204.7 335,-182.7 251,-182.7"/>
<text text-anchor="start" x="254" y="-190.4" font-family="Helvetica,sans-Serif" font-size="11.00" fill="#000000">int4[10]</text>
<polygon fill="none" stroke="#000000" points="163,-160.7 163,-182.7 251,-182.7 251,-160.7 163,-160.7"/>
<image xlink:href="../../images/primaryKeys.png" width="11px" height="12px" preserveAspectRatio="xMinYMin meet" x="168" y="-177.7"/>
<text text-anchor="start" x="183" y="-167.8" font-family="Helvetica,sans-Serif" font-size="11.00" fill="#000000">tag_id</text>
<polygon fill="none" stroke="#000000" points="251,-160.7 251,-182.7 335,-182.7 335,-160.7 251,-160.7"/>
<text text-anchor="start" x="254" y="-168.4" font-family="Helvetica,sans-Serif" font-size="11.00" fill="#000000">int4[10]</text>
<polygon fill="#ffffff" stroke="transparent" points="163,-141.7 163,-160.7 198,-160.7 198,-141.7 163,-141.7"/>
<polygon fill="none" stroke="#000000" points="163,-141.7 163,-160.7 198,-160.7 198,-141.7 163,-141.7"/>
<text text-anchor="start" x="166" y="-147.8" font-family="Helvetica,sans-Serif" font-size="11.00" fill="#000000">&lt; 2</text>
<polygon fill="#ffffff" stroke="transparent" points="198,-141.7 198,-160.7 251,-160.7 251,-141.7 198,-141.7"/>
<polygon fill="none" stroke="#000000" points="198,-141.7 198,-160.7 251,-160.7 251,-141.7 198,-141.7"/>
<text text-anchor="start" x="215.6105" y="-147.8" font-family="Helvetica,sans-Serif" font-size="11.00" fill="#000000">0 rows</text>
<polygon fill="#ffffff" stroke="transparent" points="251,-141.7 251,-160.7 335,-160.7 335,-141.7 251,-141.7"/>
<polygon fill="none" stroke="#000000" points="251,-141.7 251,-160.7 335,-160.7 335,-141.7 251,-141.7"/>
<text text-anchor="start" x="316.4053" y="-147.8" font-family="Helvetica,sans-Serif" font-size="11.00" fill="#000000">0 &gt;</text>
<polygon fill="none" stroke="#000000" stroke-width="2" points="162,-140.7 162,-272.7 336,-272.7 336,-140.7 162,-140.7"/>
</a>
</g>
</g>
<!-- events -->
<g id="node2" class="node">
<title>events</title>
<g id="a_node2"><a xlink:href="../../tables/events.html" xlink:title="events" target="_top">
<polygon fill="#ffffff" stroke="transparent" points="8,-164.2 8,-291.2 112,-291.2 112,-164.2 8,-164.2"/>
<polygon fill="#f5f5f5" stroke="transparent" points="8,-267.7 8,-290.7 112,-290.7 112,-267.7 8,-267.7"/>
<polygon fill="none" stroke="#000000" points="8,-267.7 8,-290.7 112,-290.7 112,-267.7 8,-267.7"/>
<text text-anchor="start" x="13" y="-276.8" font-family="Helvetica,sans-Serif" font-weight="bold" font-size="11.00" fill="#000000">events</text>
<text text-anchor="start" x="77.0437" y="-275.8" font-family="Helvetica,sans-Serif" font-size="11.00" fill="#000000">[table]</text>
<polygon fill="none" stroke="#000000" points="8,-245.7 8,-267.7 112,-267.7 112,-245.7 8,-245.7"/>
<image xlink:href="../../images/primaryKeys.png" width="11px" height="12px" preserveAspectRatio="xMinYMin meet" x="13" y="-262.7"/>
<text text-anchor="start" x="28" y="-252.8" font-family="Helvetica,sans-Serif" font-size="11.00" fill="#000000">id</text>
<polygon fill="none" stroke="#000000" points="8,-223.7 8,-245.7 112,-245.7 112,-223.7 8,-223.7"/>
<image xlink:href="../../images/foreignKeys.png" width="11px" height="12px" preserveAspectRatio="xMinYMin meet" x="13" y="-240.7"/>
<text text-anchor="start" x="28" y="-230.8" font-family="Helvetica,sans-Serif" font-size="11.00" fill="#000000">venue_id</text>
<polygon fill="none" stroke="#000000" points="8,-201.7 8,-223.7 112,-223.7 112,-201.7 8,-201.7"/>
<image xlink:href="../../images/foreignKeys.png" width="11px" height="12px" preserveAspectRatio="xMinYMin meet" x="13" y="-218.7"/>
<text text-anchor="start" x="28" y="-208.8" font-family="Helvetica,sans-Serif" font-size="11.00" fill="#000000">chapter_id</text>
<polygon fill="none" stroke="#000000" points="8,-182.7 8,-201.7 112,-201.7 112,-182.7 8,-182.7"/>
<text text-anchor="start" x="11" y="-188.8" font-family="Helvetica,sans-Serif" font-size="11.00" fill="#000000">...</text>
<polygon fill="#ffffff" stroke="transparent" points="8,-163.7 8,-182.7 41,-182.7 41,-163.7 8,-163.7"/>
<polygon fill="none" stroke="#000000" points="8,-163.7 8,-182.7 41,-182.7 41,-163.7 8,-163.7"/>
<text text-anchor="start" x="11" y="-169.8" font-family="Helvetica,sans-Serif" font-size="11.00" fill="#000000">&lt; 3</text>
<polygon fill="#ffffff" stroke="transparent" points="41,-163.7 41,-182.7 85,-182.7 85,-163.7 41,-163.7"/>
<polygon fill="none" stroke="#000000" points="41,-163.7 41,-182.7 85,-182.7 85,-163.7 41,-163.7"/>
<text text-anchor="start" x="49.6105" y="-169.8" font-family="Helvetica,sans-Serif" font-size="11.00" fill="#000000">0 rows</text>
<polygon fill="#ffffff" stroke="transparent" points="85,-163.7 85,-182.7 112,-182.7 112,-163.7 85,-163.7"/>
<polygon fill="none" stroke="#000000" points="85,-163.7 85,-182.7 112,-182.7 112,-163.7 85,-163.7"/>
<text text-anchor="start" x="93.4053" y="-169.8" font-family="Helvetica,sans-Serif" font-size="11.00" fill="#000000">3 &gt;</text>
</a>
</g>
</g>
<!-- event_tags&#45;&gt;events -->
<g id="edge1" class="edge">
<title>event_tags:w&#45;&gt;events:e</title>
<path fill="none" stroke="#000000" d="M148.9033,-198.6435C132.525,-213.4952 141.8329,-256.7 112,-256.7"/>
<polygon fill="#000000" stroke="#000000" points="155.4507,-196.3474 164.1913,-197.0972 159.2254,-195.0237 163,-193.7 163,-193.7 163,-193.7 159.2254,-195.0237 161.8087,-190.3028 155.4507,-196.3474 155.4507,-196.3474"/>
<ellipse fill="none" stroke="#000000" cx="152.431" cy="-197.4064" rx="3.2" ry="3.2"/>
</g>
<!-- tags -->
<g id="node3" class="node">
<title>tags</title>
<g id="a_node3"><a xlink:href="../../tables/tags.html" xlink:title="tags" target="_top">
<polygon fill="#ffffff" stroke="transparent" points="16,-38.2 16,-143.2 104,-143.2 104,-38.2 16,-38.2"/>
<polygon fill="#f5f5f5" stroke="transparent" points="16,-119.7 16,-142.7 104,-142.7 104,-119.7 16,-119.7"/>
<polygon fill="none" stroke="#000000" points="16,-119.7 16,-142.7 104,-142.7 104,-119.7 16,-119.7"/>
<text text-anchor="start" x="21" y="-128.8" font-family="Helvetica,sans-Serif" font-weight="bold" font-size="11.00" fill="#000000">tags</text>
<text text-anchor="start" x="69.0437" y="-127.8" font-family="Helvetica,sans-Serif" font-size="11.00" fill="#000000">[table]</text>
<polygon fill="none" stroke="#000000" points="16,-97.7 16,-119.7 104,-119.7 104,-97.7 16,-97.7"/>
<image xlink:href="../../images/primaryKeys.png" width="11px" height="12px" preserveAspectRatio="xMinYMin meet" x="21" y="-114.7"/>
<text text-anchor="start" x="36" y="-104.8" font-family="Helvetica,sans-Serif" font-size="11.00" fill="#000000">id</text>
<polygon fill="#ffffff" stroke="transparent" points="16,-75.7 16,-97.7 104,-97.7 104,-75.7 16,-75.7"/>
<polygon fill="none" stroke="#000000" points="16,-75.7 16,-97.7 104,-97.7 104,-75.7 16,-75.7"/>
<text text-anchor="start" x="36" y="-82.8" font-family="Helvetica,sans-Serif" font-size="11.00" fill="#000000">name</text>
<polygon fill="none" stroke="#000000" points="16,-56.7 16,-75.7 104,-75.7 104,-56.7 16,-56.7"/>
<text text-anchor="start" x="19" y="-62.8" font-family="Helvetica,sans-Serif" font-size="11.00" fill="#000000">...</text>
<polygon fill="#ffffff" stroke="transparent" points="16,-37.7 16,-56.7 36,-56.7 36,-37.7 16,-37.7"/>
<polygon fill="none" stroke="#000000" points="16,-37.7 16,-56.7 36,-56.7 36,-37.7 16,-37.7"/>
<text text-anchor="start" x="19" y="-43.8" font-family="Helvetica,sans-Serif" font-size="11.00" fill="#000000"> &#160;</text>
<polygon fill="#ffffff" stroke="transparent" points="36,-37.7 36,-56.7 78,-56.7 78,-37.7 36,-37.7"/>
<polygon fill="none" stroke="#000000" points="36,-37.7 36,-56.7 78,-56.7 78,-37.7 36,-37.7"/>
<text text-anchor="start" x="42.6105" y="-43.8" font-family="Helvetica,sans-Serif" font-size="11.00" fill="#000000">0 rows</text>
<polygon fill="#ffffff" stroke="transparent" points="78,-37.7 78,-56.7 104,-56.7 104,-37.7 78,-37.7"/>
<polygon fill="none" stroke="#000000" points="78,-37.7 78,-56.7 104,-56.7 104,-37.7 78,-37.7"/>
<text text-anchor="start" x="85.4053" y="-43.8" font-family="Helvetica,sans-Serif" font-size="11.00" fill="#000000">1 &gt;</text>
</a>
</g>
</g>
<!-- event_tags&#45;&gt;tags -->
<g id="edge2" class="edge">
<title>event_tags:w&#45;&gt;tags:e</title>
<path fill="none" stroke="#000000" d="M148.9759,-167.7591C128.7368,-153.9668 136.5174,-108.7 104,-108.7"/>
<polygon fill="#000000" stroke="#000000" points="155.2983,-169.5357 162.0261,-175.1658 159.1492,-170.6178 163,-171.7 163,-171.7 163,-171.7 159.1492,-170.6178 163.9739,-168.2342 155.2983,-169.5357 155.2983,-169.5357"/>
<ellipse fill="none" stroke="#000000" cx="152.2176" cy="-168.67" rx="3.2" ry="3.2"/>
</g>
</g>
</svg>
