<?xml version="1.0" encoding="UTF-8" standalone="no"?>
<!DOCTYPE svg PUBLIC "-//W3C//DTD SVG 1.1//EN"
 "http://www.w3.org/Graphics/SVG/1.1/DTD/svg11.dtd">
<!-- Generated by graphviz version 2.40.1 (20161225.0304)
 -->
<!-- Title: oneDegreeRelationshipsDiagram Pages: 1 -->
<svg width="797pt" height="545pt"
 viewBox="0.00 0.00 797.00 545.20" xmlns="http://www.w3.org/2000/svg" xmlns:xlink="http://www.w3.org/1999/xlink">
<g id="graph0" class="graph" transform="scale(1 1) rotate(0) translate(4 541.2)">
<title>oneDegreeRelationshipsDiagram</title>
<polygon fill="#ffffff" stroke="transparent" points="-4,4 -4,-541.2 793,-541.2 793,4 -4,4"/>
<text text-anchor="middle" x="72.4936" y="-7.3" font-family="Helvetica,sans-Serif" font-size="11.00" fill="#000000">Generated by SchemaSpy</text>
<!-- event_sponsors -->
<g id="node1" class="node">
<title>event_sponsors</title>
<g id="a_node1"><a xlink:href="../../tables/event_sponsors.html" xlink:title="event_sponsors" target="_top">
<polygon fill="#ffffff" stroke="transparent" points="661,-428.2 661,-533.2 781,-533.2 781,-428.2 661,-428.2"/>
<polygon fill="#f5f5f5" stroke="transparent" points="661,-509.7 661,-532.7 781,-532.7 781,-509.7 661,-509.7"/>
<polygon fill="none" stroke="#000000" points="661,-509.7 661,-532.7 781,-532.7 781,-509.7 661,-509.7"/>
<text text-anchor="start" x="665.681" y="-518.8" font-family="Helvetica,sans-Serif" font-weight="bold" font-size="11.00" fill="#000000">event_sponsors</text>
<text text-anchor="start" x="746.5219" y="-517.8" font-family="Helvetica,sans-Serif" font-size="11.00" fill="#000000">[table]</text>
<polygon fill="none" stroke="#000000" points="661,-487.7 661,-509.7 781,-509.7 781,-487.7 661,-487.7"/>
<image xlink:href="../../images/primaryKeys.png" width="11px" height="12px" preserveAspectRatio="xMinYMin meet" x="666" y="-504.7"/>
<text text-anchor="start" x="685" y="-494.8" font-family="Helvetica,sans-Serif" font-size="11.00" fill="#000000">sponsor_id</text>
<polygon fill="none" stroke="#000000" points="661,-465.7 661,-487.7 781,-487.7 781,-465.7 661,-465.7"/>
<image xlink:href="../../images/primaryKeys.png" width="11px" height="12px" preserveAspectRatio="xMinYMin meet" x="666" y="-482.7"/>
<text text-anchor="start" x="685" y="-472.8" font-family="Helvetica,sans-Serif" font-size="11.00" fill="#000000">event_id</text>
<polygon fill="none" stroke="#000000" points="661,-446.7 661,-465.7 781,-465.7 781,-446.7 661,-446.7"/>
<text text-anchor="start" x="664" y="-452.8" font-family="Helvetica,sans-Serif" font-size="11.00" fill="#000000">...</text>
<polygon fill="#ffffff" stroke="transparent" points="661,-427.7 661,-446.7 706,-446.7 706,-427.7 661,-427.7"/>
<polygon fill="none" stroke="#000000" points="661,-427.7 661,-446.7 706,-446.7 706,-427.7 661,-427.7"/>
<text text-anchor="start" x="664" y="-433.8" font-family="Helvetica,sans-Serif" font-size="11.00" fill="#000000">&lt; 2</text>
<polygon fill="#ffffff" stroke="transparent" points="706,-427.7 706,-446.7 756,-446.7 756,-427.7 706,-427.7"/>
<polygon fill="none" stroke="#000000" points="706,-427.7 706,-446.7 756,-446.7 756,-427.7 706,-427.7"/>
<text text-anchor="start" x="720.6105" y="-433.8" font-family="Helvetica,sans-Serif" font-size="11.00" fill="#000000">0 rows</text>
<polygon fill="#ffffff" stroke="transparent" points="756,-427.7 756,-446.7 781,-446.7 781,-427.7 756,-427.7"/>
<polygon fill="none" stroke="#000000" points="756,-427.7 756,-446.7 781,-446.7 781,-427.7 756,-427.7"/>
<text text-anchor="start" x="771.8862" y="-433.8" font-family="Helvetica,sans-Serif" font-size="11.00" fill="#000000"> &#160;</text>
</a>
</g>
</g>
<!-- events -->
<g id="node2" class="node">
<title>events</title>
<g id="a_node2"><a xlink:href="../../tables/events.html" xlink:title="events" target="_top">
<polygon fill="#ffffff" stroke="transparent" points="302,-54.7 302,-452.7 612,-452.7 612,-54.7 302,-54.7"/>
<polygon fill="#f5f5f5" stroke="transparent" points="304,-427.7 304,-450.7 610,-450.7 610,-427.7 304,-427.7"/>
<polygon fill="none" stroke="#000000" points="304,-427.7 304,-450.7 610,-450.7 610,-427.7 304,-427.7"/>
<text text-anchor="start" x="309" y="-436.8" font-family="Helvetica,sans-Serif" font-weight="bold" font-size="11.00" fill="#000000">events</text>
<text text-anchor="start" x="575.0437" y="-435.8" font-family="Helvetica,sans-Serif" font-size="11.00" fill="#000000">[table]</text>
<polygon fill="none" stroke="#000000" points="304,-405.7 304,-427.7 408,-427.7 408,-405.7 304,-405.7"/>
<text text-anchor="start" x="324" y="-412.8" font-family="Helvetica,sans-Serif" font-size="11.00" fill="#000000">created_at</text>
<polygon fill="none" stroke="#000000" points="408,-405.7 408,-427.7 610,-427.7 610,-405.7 408,-405.7"/>
<text text-anchor="start" x="411" y="-413.4" font-family="Helvetica,sans-Serif" font-size="11.00" fill="#000000">timestamp[26,3]</text>
<polygon fill="none" stroke="#000000" points="304,-383.7 304,-405.7 408,-405.7 408,-383.7 304,-383.7"/>
<text text-anchor="start" x="324" y="-390.8" font-family="Helvetica,sans-Serif" font-size="11.00" fill="#000000">updated_at</text>
<polygon fill="none" stroke="#000000" points="408,-383.7 408,-405.7 610,-405.7 610,-383.7 408,-383.7"/>
<text text-anchor="start" x="411" y="-391.4" font-family="Helvetica,sans-Serif" font-size="11.00" fill="#000000">timestamp[26,3]</text>
<polygon fill="none" stroke="#000000" points="304,-361.7 304,-383.7 408,-383.7 408,-361.7 304,-361.7"/>
<image xlink:href="../../images/primaryKeys.png" width="11px" height="12px" preserveAspectRatio="xMinYMin meet" x="309" y="-378.7"/>
<text text-anchor="start" x="324" y="-368.8" font-family="Helvetica,sans-Serif" font-size="11.00" fill="#000000">id</text>
<polygon fill="none" stroke="#000000" points="408,-361.7 408,-383.7 610,-383.7 610,-361.7 408,-361.7"/>
<text text-anchor="start" x="411" y="-369.4" font-family="Helvetica,sans-Serif" font-size="11.00" fill="#000000">serial[10]</text>
<polygon fill="none" stroke="#000000" points="304,-339.7 304,-361.7 408,-361.7 408,-339.7 304,-339.7"/>
<text text-anchor="start" x="324" y="-346.8" font-family="Helvetica,sans-Serif" font-size="11.00" fill="#000000">name</text>
<polygon fill="none" stroke="#000000" points="408,-339.7 408,-361.7 610,-361.7 610,-339.7 408,-339.7"/>
<text text-anchor="start" x="411" y="-347.4" font-family="Helvetica,sans-Serif" font-size="11.00" fill="#000000">text[2147483647]</text>
<polygon fill="none" stroke="#000000" points="304,-317.7 304,-339.7 408,-339.7 408,-317.7 304,-317.7"/>
<text text-anchor="start" x="324" y="-324.8" font-family="Helvetica,sans-Serif" font-size="11.00" fill="#000000">description</text>
<polygon fill="none" stroke="#000000" points="408,-317.7 408,-339.7 610,-339.7 610,-317.7 408,-317.7"/>
<text text-anchor="start" x="411" y="-325.4" font-family="Helvetica,sans-Serif" font-size="11.00" fill="#000000">text[2147483647]</text>
<polygon fill="none" stroke="#000000" points="304,-295.7 304,-317.7 408,-317.7 408,-295.7 304,-295.7"/>
<text text-anchor="start" x="324" y="-302.8" font-family="Helvetica,sans-Serif" font-size="11.00" fill="#000000">url</text>
<polygon fill="none" stroke="#000000" points="408,-295.7 408,-317.7 610,-317.7 610,-295.7 408,-295.7"/>
<text text-anchor="start" x="411" y="-303.4" font-family="Helvetica,sans-Serif" font-size="11.00" fill="#000000">text[2147483647]</text>
<polygon fill="none" stroke="#000000" points="304,-273.7 304,-295.7 408,-295.7 408,-273.7 304,-273.7"/>
<text text-anchor="start" x="324" y="-280.8" font-family="Helvetica,sans-Serif" font-size="11.00" fill="#000000">streaming_url</text>
<polygon fill="none" stroke="#000000" points="408,-273.7 408,-295.7 610,-295.7 610,-273.7 408,-273.7"/>
<text text-anchor="start" x="411" y="-281.4" font-family="Helvetica,sans-Serif" font-size="11.00" fill="#000000">text[2147483647]</text>
<polygon fill="none" stroke="#000000" points="304,-251.7 304,-273.7 408,-273.7 408,-251.7 304,-251.7"/>
<text text-anchor="start" x="324" y="-258.8" font-family="Helvetica,sans-Serif" font-size="11.00" fill="#000000">venue_type</text>
<polygon fill="none" stroke="#000000" points="408,-251.7 408,-273.7 610,-273.7 610,-251.7 408,-251.7"/>
<text text-anchor="start" x="410.869" y="-259.4" font-family="Helvetica,sans-Serif" font-size="11.00" fill="#000000">events_venue_type_enum[2147483647]</text>
<polygon fill="none" stroke="#000000" points="304,-229.7 304,-251.7 408,-251.7 408,-229.7 304,-229.7"/>
<text text-anchor="start" x="324" y="-236.8" font-family="Helvetica,sans-Serif" font-size="11.00" fill="#000000">start_at</text>
<polygon fill="none" stroke="#000000" points="408,-229.7 408,-251.7 610,-251.7 610,-229.7 408,-229.7"/>
<text text-anchor="start" x="411" y="-237.4" font-family="Helvetica,sans-Serif" font-size="11.00" fill="#000000">timestamp[26,3]</text>
<polygon fill="none" stroke="#000000" points="304,-207.7 304,-229.7 408,-229.7 408,-207.7 304,-207.7"/>
<text text-anchor="start" x="324" y="-214.8" font-family="Helvetica,sans-Serif" font-size="11.00" fill="#000000">ends_at</text>
<polygon fill="none" stroke="#000000" points="408,-207.7 408,-229.7 610,-229.7 610,-207.7 408,-207.7"/>
<text text-anchor="start" x="411" y="-215.4" font-family="Helvetica,sans-Serif" font-size="11.00" fill="#000000">timestamp[26,3]</text>
<polygon fill="none" stroke="#000000" points="304,-185.7 304,-207.7 408,-207.7 408,-185.7 304,-185.7"/>
<text text-anchor="start" x="324" y="-192.8" font-family="Helvetica,sans-Serif" font-size="11.00" fill="#000000">canceled</text>
<polygon fill="none" stroke="#000000" points="408,-185.7 408,-207.7 610,-207.7 610,-185.7 408,-185.7"/>
<text text-anchor="start" x="411" y="-193.4" font-family="Helvetica,sans-Serif" font-size="11.00" fill="#000000">bool[1]</text>
<polygon fill="none" stroke="#000000" points="304,-163.7 304,-185.7 408,-185.7 408,-163.7 304,-163.7"/>
<text text-anchor="start" x="324" y="-170.8" font-family="Helvetica,sans-Serif" font-size="11.00" fill="#000000">capacity</text>
<polygon fill="none" stroke="#000000" points="408,-163.7 408,-185.7 610,-185.7 610,-163.7 408,-163.7"/>
<text text-anchor="start" x="411" y="-171.4" font-family="Helvetica,sans-Serif" font-size="11.00" fill="#000000">int4[10]</text>
<polygon fill="none" stroke="#000000" points="304,-141.7 304,-163.7 408,-163.7 408,-141.7 304,-141.7"/>
<text text-anchor="start" x="324" y="-148.8" font-family="Helvetica,sans-Serif" font-size="11.00" fill="#000000">invite_only</text>
<polygon fill="none" stroke="#000000" points="408,-141.7 408,-163.7 610,-163.7 610,-141.7 408,-141.7"/>
<text text-anchor="start" x="411" y="-149.4" font-family="Helvetica,sans-Serif" font-size="11.00" fill="#000000">bool[1]</text>
<polygon fill="none" stroke="#000000" points="304,-119.7 304,-141.7 408,-141.7 408,-119.7 304,-119.7"/>
<text text-anchor="start" x="324" y="-126.8" font-family="Helvetica,sans-Serif" font-size="11.00" fill="#000000">image_url</text>
<polygon fill="none" stroke="#000000" points="408,-119.7 408,-141.7 610,-141.7 610,-119.7 408,-119.7"/>
<text text-anchor="start" x="411" y="-127.4" font-family="Helvetica,sans-Serif" font-size="11.00" fill="#000000">text[2147483647]</text>
<polygon fill="none" stroke="#000000" points="304,-97.7 304,-119.7 408,-119.7 408,-97.7 304,-97.7"/>
<image xlink:href="../../images/foreignKeys.png" width="11px" height="12px" preserveAspectRatio="xMinYMin meet" x="309" y="-114.7"/>
<text text-anchor="start" x="324" y="-104.8" font-family="Helvetica,sans-Serif" font-size="11.00" fill="#000000">venue_id</text>
<polygon fill="none" stroke="#000000" points="408,-97.7 408,-119.7 610,-119.7 610,-97.7 408,-97.7"/>
<text text-anchor="start" x="411" y="-105.4" font-family="Helvetica,sans-Serif" font-size="11.00" fill="#000000">int4[10]</text>
<polygon fill="none" stroke="#000000" points="304,-75.7 304,-97.7 408,-97.7 408,-75.7 304,-75.7"/>
<image xlink:href="../../images/foreignKeys.png" width="11px" height="12px" preserveAspectRatio="xMinYMin meet" x="309" y="-92.7"/>
<text text-anchor="start" x="324" y="-82.8" font-family="Helvetica,sans-Serif" font-size="11.00" fill="#000000">chapter_id</text>
<polygon fill="none" stroke="#000000" points="408,-75.7 408,-97.7 610,-97.7 610,-75.7 408,-75.7"/>
<text text-anchor="start" x="411" y="-83.4" font-family="Helvetica,sans-Serif" font-size="11.00" fill="#000000">int4[10]</text>
<polygon fill="#ffffff" stroke="transparent" points="304,-56.7 304,-75.7 347,-75.7 347,-56.7 304,-56.7"/>
<polygon fill="none" stroke="#000000" points="304,-56.7 304,-75.7 347,-75.7 347,-56.7 304,-56.7"/>
<text text-anchor="start" x="307" y="-62.8" font-family="Helvetica,sans-Serif" font-size="11.00" fill="#000000">&lt; 2</text>
<polygon fill="#ffffff" stroke="transparent" points="347,-56.7 347,-75.7 408,-75.7 408,-56.7 347,-56.7"/>
<polygon fill="none" stroke="#000000" points="347,-56.7 347,-75.7 408,-75.7 408,-56.7 347,-56.7"/>
<text text-anchor="start" x="372.6105" y="-62.8" font-family="Helvetica,sans-Serif" font-size="11.00" fill="#000000">0 rows</text>
<polygon fill="#ffffff" stroke="transparent" points="408,-56.7 408,-75.7 610,-75.7 610,-56.7 408,-56.7"/>
<polygon fill="none" stroke="#000000" points="408,-56.7 408,-75.7 610,-75.7 610,-56.7 408,-56.7"/>
<text text-anchor="start" x="591.4053" y="-62.8" font-family="Helvetica,sans-Serif" font-size="11.00" fill="#000000">3 &gt;</text>
<polygon fill="none" stroke="#000000" stroke-width="2" points="303,-55.7 303,-451.7 611,-451.7 611,-55.7 303,-55.7"/>
</a>
</g>
</g>
<!-- event_sponsors&#45;&gt;events -->
<g id="edge1" class="edge">
<title>event_sponsors:w&#45;&gt;events:e</title>
<path fill="none" stroke="#000000" d="M646.83,-472.7501C620.2771,-453.7532 655.4479,-372.7 610,-372.7"/>
<polygon fill="#000000" stroke="#000000" points="653.2938,-474.5518 660.0333,-480.1678 657.1469,-475.6259 661,-476.7 661,-476.7 661,-476.7 657.1469,-475.6259 661.9667,-473.2322 653.2938,-474.5518 653.2938,-474.5518"/>
<ellipse fill="none" stroke="#000000" cx="650.2113" cy="-473.6926" rx="3.2" ry="3.2"/>
</g>
<!-- chapters -->
<g id="node5" class="node">
<title>chapters</title>
<g id="a_node5"><a xlink:href="../../tables/chapters.html" xlink:title="chapters" target="_top">
<polygon fill="#ffffff" stroke="transparent" points="8,-38.2 8,-121.2 96,-121.2 96,-38.2 8,-38.2"/>
<polygon fill="#f5f5f5" stroke="transparent" points="8,-97.7 8,-120.7 96,-120.7 96,-97.7 8,-97.7"/>
<polygon fill="none" stroke="#000000" points="8,-97.7 8,-120.7 96,-120.7 96,-97.7 8,-97.7"/>
<text text-anchor="start" x="13" y="-106.8" font-family="Helvetica,sans-Serif" font-weight="bold" font-size="11.00" fill="#000000">chapters</text>
<text text-anchor="start" x="61.0437" y="-105.8" font-family="Helvetica,sans-Serif" font-size="11.00" fill="#000000">[table]</text>
<polygon fill="none" stroke="#000000" points="8,-75.7 8,-97.7 96,-97.7 96,-75.7 8,-75.7"/>
<image xlink:href="../../images/primaryKeys.png" width="11px" height="12px" preserveAspectRatio="xMinYMin meet" x="13" y="-92.7"/>
<text text-anchor="start" x="28" y="-82.8" font-family="Helvetica,sans-Serif" font-size="11.00" fill="#000000">id</text>
<polygon fill="none" stroke="#000000" points="8,-56.7 8,-75.7 96,-75.7 96,-56.7 8,-56.7"/>
<text text-anchor="start" x="11" y="-62.8" font-family="Helvetica,sans-Serif" font-size="11.00" fill="#000000">...</text>
<polygon fill="#ffffff" stroke="transparent" points="8,-37.7 8,-56.7 28,-56.7 28,-37.7 8,-37.7"/>
<polygon fill="none" stroke="#000000" points="8,-37.7 8,-56.7 28,-56.7 28,-37.7 8,-37.7"/>
<text text-anchor="start" x="11" y="-43.8" font-family="Helvetica,sans-Serif" font-size="11.00" fill="#000000"> &#160;</text>
<polygon fill="#ffffff" stroke="transparent" points="28,-37.7 28,-56.7 70,-56.7 70,-37.7 28,-37.7"/>
<polygon fill="none" stroke="#000000" points="28,-37.7 28,-56.7 70,-56.7 70,-37.7 28,-37.7"/>
<text text-anchor="start" x="34.6105" y="-43.8" font-family="Helvetica,sans-Serif" font-size="11.00" fill="#000000">0 rows</text>
<polygon fill="#ffffff" stroke="transparent" points="70,-37.7 70,-56.7 96,-56.7 96,-37.7 70,-37.7"/>
<polygon fill="none" stroke="#000000" points="70,-37.7 70,-56.7 96,-56.7 96,-37.7 70,-37.7"/>
<text text-anchor="start" x="77.4053" y="-43.8" font-family="Helvetica,sans-Serif" font-size="11.00" fill="#000000">4 &gt;</text>
</a>
</g>
</g>
<!-- events&#45;&gt;chapters -->
<g id="edge4" class="edge">
<title>events:w&#45;&gt;chapters:e</title>
<path fill="none" stroke="#000000" d="M289.9116,-83.3159C280.5615,-78.0984 276.0002,-68.3145 261,-64.7 207.4224,-51.7899 190.4487,-51.266 137,-64.7 116.944,-69.7409 116.6798,-86.7 96,-86.7"/>
<polygon fill="#000000" stroke="#000000" points="296.2213,-84.8315 303.1592,-90.2004 300.1106,-85.7657 304,-86.7 304,-86.7 304,-86.7 300.1106,-85.7657 304.8408,-83.1996 296.2213,-84.8315 296.2213,-84.8315"/>
<ellipse fill="none" stroke="#000000" cx="293.1098" cy="-84.0841" rx="3.2" ry="3.2"/>
</g>
<!-- venues -->
<g id="node6" class="node">
<title>venues</title>
<g id="a_node6"><a xlink:href="../../tables/venues.html" xlink:title="venues" target="_top">
<polygon fill="#ffffff" stroke="transparent" points="145,-75.2 145,-180.2 253,-180.2 253,-75.2 145,-75.2"/>
<polygon fill="#f5f5f5" stroke="transparent" points="145,-156.7 145,-179.7 253,-179.7 253,-156.7 145,-156.7"/>
<polygon fill="none" stroke="#000000" points="145,-156.7 145,-179.7 253,-179.7 253,-156.7 145,-156.7"/>
<text text-anchor="start" x="150" y="-165.8" font-family="Helvetica,sans-Serif" font-weight="bold" font-size="11.00" fill="#000000">venues</text>
<text text-anchor="start" x="218.0437" y="-164.8" font-family="Helvetica,sans-Serif" font-size="11.00" fill="#000000">[table]</text>
<polygon fill="none" stroke="#000000" points="145,-134.7 145,-156.7 253,-156.7 253,-134.7 145,-134.7"/>
<image xlink:href="../../images/primaryKeys.png" width="11px" height="12px" preserveAspectRatio="xMinYMin meet" x="150" y="-151.7"/>
<text text-anchor="start" x="165" y="-141.8" font-family="Helvetica,sans-Serif" font-size="11.00" fill="#000000">id</text>
<polygon fill="none" stroke="#000000" points="145,-112.7 145,-134.7 253,-134.7 253,-112.7 145,-112.7"/>
<image xlink:href="../../images/foreignKeys.png" width="11px" height="12px" preserveAspectRatio="xMinYMin meet" x="150" y="-129.7"/>
<text text-anchor="start" x="165" y="-119.8" font-family="Helvetica,sans-Serif" font-size="11.00" fill="#000000">chapter_id</text>
<polygon fill="none" stroke="#000000" points="145,-93.7 145,-112.7 253,-112.7 253,-93.7 145,-93.7"/>
<text text-anchor="start" x="148" y="-99.8" font-family="Helvetica,sans-Serif" font-size="11.00" fill="#000000">...</text>
<polygon fill="#ffffff" stroke="transparent" points="145,-74.7 145,-93.7 180,-93.7 180,-74.7 145,-74.7"/>
<polygon fill="none" stroke="#000000" points="145,-74.7 145,-93.7 180,-93.7 180,-74.7 145,-74.7"/>
<text text-anchor="start" x="148" y="-80.8" font-family="Helvetica,sans-Serif" font-size="11.00" fill="#000000">&lt; 1</text>
<polygon fill="#ffffff" stroke="transparent" points="180,-74.7 180,-93.7 225,-93.7 225,-74.7 180,-74.7"/>
<polygon fill="none" stroke="#000000" points="180,-74.7 180,-93.7 225,-93.7 225,-74.7 180,-74.7"/>
<text text-anchor="start" x="189.6105" y="-80.8" font-family="Helvetica,sans-Serif" font-size="11.00" fill="#000000">0 rows</text>
<polygon fill="#ffffff" stroke="transparent" points="225,-74.7 225,-93.7 253,-93.7 253,-74.7 225,-74.7"/>
<polygon fill="none" stroke="#000000" points="225,-74.7 225,-93.7 253,-93.7 253,-74.7 225,-74.7"/>
<text text-anchor="start" x="234.4053" y="-80.8" font-family="Helvetica,sans-Serif" font-size="11.00" fill="#000000">1 &gt;</text>
</a>
</g>
</g>
<!-- events&#45;&gt;venues -->
<g id="edge5" class="edge">
<title>events:w&#45;&gt;venues:e</title>
<path fill="none" stroke="#000000" d="M290.0658,-112.9444C276.64,-122.6631 275.0965,-145.7 253,-145.7"/>
<polygon fill="#000000" stroke="#000000" points="296.3471,-111.0311 305.049,-112.1438 300.1736,-109.8655 304,-108.7 304,-108.7 304,-108.7 300.1736,-109.8655 302.951,-105.2562 296.3471,-111.0311 296.3471,-111.0311"/>
<ellipse fill="none" stroke="#000000" cx="293.286" cy="-111.9635" rx="3.2" ry="3.2"/>
</g>
<!-- event_tags -->
<g id="node3" class="node">
<title>event_tags</title>
<g id="a_node3"><a xlink:href="../../tables/event_tags.html" xlink:title="event_tags" target="_top">
<polygon fill="#ffffff" stroke="transparent" points="673,-302.2 673,-407.2 769,-407.2 769,-302.2 673,-302.2"/>
<polygon fill="#f5f5f5" stroke="transparent" points="673,-383.7 673,-406.7 769,-406.7 769,-383.7 673,-383.7"/>
<polygon fill="none" stroke="#000000" points="673,-383.7 673,-406.7 769,-406.7 769,-383.7 673,-383.7"/>
<text text-anchor="start" x="677.5984" y="-392.8" font-family="Helvetica,sans-Serif" font-weight="bold" font-size="11.00" fill="#000000">event_tags</text>
<text text-anchor="start" x="734.5219" y="-391.8" font-family="Helvetica,sans-Serif" font-size="11.00" fill="#000000">[table]</text>
<polygon fill="none" stroke="#000000" points="673,-361.7 673,-383.7 769,-383.7 769,-361.7 673,-361.7"/>
<image xlink:href="../../images/primaryKeys.png" width="11px" height="12px" preserveAspectRatio="xMinYMin meet" x="678" y="-378.7"/>
<text text-anchor="start" x="697" y="-368.8" font-family="Helvetica,sans-Serif" font-size="11.00" fill="#000000">event_id</text>
<polygon fill="none" stroke="#000000" points="673,-339.7 673,-361.7 769,-361.7 769,-339.7 673,-339.7"/>
<image xlink:href="../../images/primaryKeys.png" width="11px" height="12px" preserveAspectRatio="xMinYMin meet" x="678" y="-356.7"/>
<text text-anchor="start" x="697" y="-346.8" font-family="Helvetica,sans-Serif" font-size="11.00" fill="#000000">tag_id</text>
<polygon fill="none" stroke="#000000" points="673,-320.7 673,-339.7 769,-339.7 769,-320.7 673,-320.7"/>
<text text-anchor="start" x="676" y="-326.8" font-family="Helvetica,sans-Serif" font-size="11.00" fill="#000000">...</text>
<polygon fill="#ffffff" stroke="transparent" points="673,-301.7 673,-320.7 706,-320.7 706,-301.7 673,-301.7"/>
<polygon fill="none" stroke="#000000" points="673,-301.7 673,-320.7 706,-320.7 706,-301.7 673,-301.7"/>
<text text-anchor="start" x="676" y="-307.8" font-family="Helvetica,sans-Serif" font-size="11.00" fill="#000000">&lt; 2</text>
<polygon fill="#ffffff" stroke="transparent" points="706,-301.7 706,-320.7 750,-320.7 750,-301.7 706,-301.7"/>
<polygon fill="none" stroke="#000000" points="706,-301.7 706,-320.7 750,-320.7 750,-301.7 706,-301.7"/>
<text text-anchor="start" x="714.6105" y="-307.8" font-family="Helvetica,sans-Serif" font-size="11.00" fill="#000000">0 rows</text>
<polygon fill="#ffffff" stroke="transparent" points="750,-301.7 750,-320.7 769,-320.7 769,-301.7 750,-301.7"/>
<polygon fill="none" stroke="#000000" points="750,-301.7 750,-320.7 769,-320.7 769,-301.7 750,-301.7"/>
<text text-anchor="start" x="759.8862" y="-307.8" font-family="Helvetica,sans-Serif" font-size="11.00" fill="#000000"> &#160;</text>
</a>
</g>
</g>
<!-- event_tags&#45;&gt;events -->
<g id="edge2" class="edge">
<title>event_tags:w&#45;&gt;events:e</title>
<path fill="none" stroke="#000000" d="M658.1849,-372.7C641.2898,-372.7 632.3125,-372.7 610,-372.7"/>
<polygon fill="#000000" stroke="#000000" points="665,-372.7001 673,-376.3 669,-372.7 673,-372.7 673,-372.7 673,-372.7 669,-372.7 673,-369.1 665,-372.7001 665,-372.7001"/>
<ellipse fill="none" stroke="#000000" cx="661.8" cy="-372.7001" rx="3.2" ry="3.2"/>
</g>
<!-- event_users -->
<g id="node4" class="node">
<title>event_users</title>
<g id="a_node4"><a xlink:href="../../tables/event_users.html" xlink:title="event_users" target="_top">
<polygon fill="#ffffff" stroke="transparent" points="670,-132.2 670,-281.2 772,-281.2 772,-132.2 670,-132.2"/>
<polygon fill="#f5f5f5" stroke="transparent" points="670,-257.7 670,-280.7 772,-280.7 772,-257.7 670,-257.7"/>
<polygon fill="none" stroke="#000000" points="670,-257.7 670,-280.7 772,-280.7 772,-257.7 670,-257.7"/>
<text text-anchor="start" x="674.5459" y="-266.8" font-family="Helvetica,sans-Serif" font-weight="bold" font-size="11.00" fill="#000000">event_users</text>
<text text-anchor="start" x="737.5219" y="-265.8" font-family="Helvetica,sans-Serif" font-size="11.00" fill="#000000">[table]</text>
<polygon fill="none" stroke="#000000" points="670,-235.7 670,-257.7 772,-257.7 772,-235.7 670,-235.7"/>
<image xlink:href="../../images/primaryKeys.png" width="11px" height="12px" preserveAspectRatio="xMinYMin meet" x="675" y="-252.7"/>
<text text-anchor="start" x="692" y="-242.8" font-family="Helvetica,sans-Serif" font-size="11.00" fill="#000000">user_id</text>
<polygon fill="none" stroke="#000000" points="670,-213.7 670,-235.7 772,-235.7 772,-213.7 670,-213.7"/>
<image xlink:href="../../images/primaryKeys.png" width="11px" height="12px" preserveAspectRatio="xMinYMin meet" x="675" y="-230.7"/>
<text text-anchor="start" x="692" y="-220.8" font-family="Helvetica,sans-Serif" font-size="11.00" fill="#000000">event_id</text>
<polygon fill="none" stroke="#000000" points="670,-191.7 670,-213.7 772,-213.7 772,-191.7 670,-191.7"/>
<image xlink:href="../../images/foreignKeys.png" width="11px" height="12px" preserveAspectRatio="xMinYMin meet" x="675" y="-208.7"/>
<text text-anchor="start" x="692" y="-198.8" font-family="Helvetica,sans-Serif" font-size="11.00" fill="#000000">event_role_id</text>
<polygon fill="none" stroke="#000000" points="670,-169.7 670,-191.7 772,-191.7 772,-169.7 670,-169.7"/>
<image xlink:href="../../images/foreignKeys.png" width="11px" height="12px" preserveAspectRatio="xMinYMin meet" x="675" y="-186.7"/>
<text text-anchor="start" x="692" y="-176.8" font-family="Helvetica,sans-Serif" font-size="11.00" fill="#000000">rsvp_id</text>
<polygon fill="none" stroke="#000000" points="670,-150.7 670,-169.7 772,-169.7 772,-150.7 670,-150.7"/>
<text text-anchor="start" x="673" y="-156.8" font-family="Helvetica,sans-Serif" font-size="11.00" fill="#000000">...</text>
<polygon fill="#ffffff" stroke="transparent" points="670,-131.7 670,-150.7 702,-150.7 702,-131.7 670,-131.7"/>
<polygon fill="none" stroke="#000000" points="670,-131.7 670,-150.7 702,-150.7 702,-131.7 670,-131.7"/>
<text text-anchor="start" x="673" y="-137.8" font-family="Helvetica,sans-Serif" font-size="11.00" fill="#000000">&lt; 4</text>
<polygon fill="#ffffff" stroke="transparent" points="702,-131.7 702,-150.7 745,-150.7 745,-131.7 702,-131.7"/>
<polygon fill="none" stroke="#000000" points="702,-131.7 702,-150.7 745,-150.7 745,-131.7 702,-131.7"/>
<text text-anchor="start" x="709.6105" y="-137.8" font-family="Helvetica,sans-Serif" font-size="11.00" fill="#000000">0 rows</text>
<polygon fill="#ffffff" stroke="transparent" points="745,-131.7 745,-150.7 772,-150.7 772,-131.7 745,-131.7"/>
<polygon fill="none" stroke="#000000" points="745,-131.7 745,-150.7 772,-150.7 772,-131.7 745,-131.7"/>
<text text-anchor="start" x="753.4053" y="-137.8" font-family="Helvetica,sans-Serif" font-size="11.00" fill="#000000">2 &gt;</text>
</a>
</g>
</g>
<!-- event_users&#45;&gt;events -->
<g id="edge3" class="edge">
<title>event_users:w&#45;&gt;events:e</title>
<path fill="none" stroke="#000000" d="M655.7337,-227.3952C611.1673,-247.4541 675.2939,-372.7 610,-372.7"/>
<polygon fill="#000000" stroke="#000000" points="662.139,-226.1851 670.6683,-228.2374 666.0695,-225.4426 670,-224.7 670,-224.7 670,-224.7 666.0695,-225.4426 669.3317,-221.1626 662.139,-226.1851 662.139,-226.1851"/>
<ellipse fill="none" stroke="#000000" cx="658.9947" cy="-226.7792" rx="3.2" ry="3.2"/>
</g>
<!-- venues&#45;&gt;chapters -->
<g id="edge6" class="edge">
<title>venues:w&#45;&gt;chapters:e</title>
<path fill="none" stroke="#000000" d="M131.1217,-119.1631C118.5786,-109.283 117.3196,-86.7 96,-86.7"/>
<polygon fill="#000000" stroke="#000000" points="137.396,-121.2142 143.8814,-127.1218 141.198,-122.4571 145,-123.7 145,-123.7 145,-123.7 141.198,-122.4571 146.1186,-120.2782 137.396,-121.2142 137.396,-121.2142"/>
<ellipse fill="none" stroke="#000000" cx="134.3544" cy="-120.2198" rx="3.2" ry="3.2"/>
</g>
</g>
</svg>
