<?xml version="1.0" encoding="UTF-8" standalone="no"?>
<!DOCTYPE svg PUBLIC "-//W3C//DTD SVG 1.1//EN"
 "http://www.w3.org/Graphics/SVG/1.1/DTD/svg11.dtd">
<!-- Generated by graphviz version 2.40.1 (20161225.0304)
 -->
<!-- Title: oneDegreeRelationshipsDiagram Pages: 1 -->
<svg width="435pt" height="325pt"
 viewBox="0.00 0.00 435.00 325.20" xmlns="http://www.w3.org/2000/svg" xmlns:xlink="http://www.w3.org/1999/xlink">
<g id="graph0" class="graph" transform="scale(1 1) rotate(0) translate(4 321.2)">
<title>oneDegreeRelationshipsDiagram</title>
<polygon fill="#ffffff" stroke="transparent" points="-4,4 -4,-321.2 431,-321.2 431,4 -4,4"/>
<text text-anchor="middle" x="72.4936" y="-7.3" font-family="Helvetica,sans-Serif" font-size="11.00" fill="#000000">Generated by SchemaSpy</text>
<!-- event_role_permissions -->
<g id="node1" class="node">
<title>event_role_permissions</title>
<g id="a_node1"><a xlink:href="../../tables/event_role_permissions.html" xlink:title="event_role_permissions" target="_top">
<polygon fill="#ffffff" stroke="transparent" points="240,-208.2 240,-313.2 419,-313.2 419,-208.2 240,-208.2"/>
<polygon fill="#f5f5f5" stroke="transparent" points="240.5,-289.7 240.5,-312.7 419.5,-312.7 419.5,-289.7 240.5,-289.7"/>
<polygon fill="none" stroke="#000000" points="240.5,-289.7 240.5,-312.7 419.5,-312.7 419.5,-289.7 240.5,-289.7"/>
<text text-anchor="start" x="245.5" y="-298.3" font-family="Helvetica,sans-Serif" font-weight="bold" font-size="11.00" fill="#000000">event_role_permissions</text>
<text text-anchor="start" x="385.0219" y="-297.8" font-family="Helvetica,sans-Serif" font-size="11.00" fill="#000000">[table]</text>
<polygon fill="none" stroke="#000000" points="240.5,-267.7 240.5,-289.7 419.5,-289.7 419.5,-267.7 240.5,-267.7"/>
<image xlink:href="../../images/primaryKeys.png" width="11px" height="12px" preserveAspectRatio="xMinYMin meet" x="245.5" y="-284.7"/>
<text text-anchor="start" x="269.5" y="-274.8" font-family="Helvetica,sans-Serif" font-size="11.00" fill="#000000">event_role_id</text>
<polygon fill="none" stroke="#000000" points="240.5,-245.7 240.5,-267.7 419.5,-267.7 419.5,-245.7 240.5,-245.7"/>
<image xlink:href="../../images/primaryKeys.png" width="11px" height="12px" preserveAspectRatio="xMinYMin meet" x="245.5" y="-262.7"/>
<text text-anchor="start" x="269.5" y="-252.8" font-family="Helvetica,sans-Serif" font-size="11.00" fill="#000000">event_permission_id</text>
<polygon fill="none" stroke="#000000" points="240.5,-226.7 240.5,-245.7 419.5,-245.7 419.5,-226.7 240.5,-226.7"/>
<text text-anchor="start" x="243.5" y="-232.8" font-family="Helvetica,sans-Serif" font-size="11.00" fill="#000000">...</text>
<polygon fill="#ffffff" stroke="transparent" points="240.5,-207.7 240.5,-226.7 315.5,-226.7 315.5,-207.7 240.5,-207.7"/>
<polygon fill="none" stroke="#000000" points="240.5,-207.7 240.5,-226.7 315.5,-226.7 315.5,-207.7 240.5,-207.7"/>
<text text-anchor="start" x="243.5" y="-213.8" font-family="Helvetica,sans-Serif" font-size="11.00" fill="#000000">&lt; 2</text>
<polygon fill="#ffffff" stroke="transparent" points="315.5,-207.7 315.5,-226.7 380.5,-226.7 380.5,-207.7 315.5,-207.7"/>
<polygon fill="none" stroke="#000000" points="315.5,-207.7 315.5,-226.7 380.5,-226.7 380.5,-207.7 315.5,-207.7"/>
<text text-anchor="start" x="345.1105" y="-213.8" font-family="Helvetica,sans-Serif" font-size="11.00" fill="#000000">0 rows</text>
<polygon fill="#ffffff" stroke="transparent" points="380.5,-207.7 380.5,-226.7 419.5,-226.7 419.5,-207.7 380.5,-207.7"/>
<polygon fill="none" stroke="#000000" points="380.5,-207.7 380.5,-226.7 419.5,-226.7 419.5,-207.7 380.5,-207.7"/>
<text text-anchor="start" x="410.3862" y="-213.8" font-family="Helvetica,sans-Serif" font-size="11.00" fill="#000000"> &#160;</text>
</a>
</g>
</g>
<!-- event_roles -->
<g id="node2" class="node">
<title>event_roles</title>
<g id="a_node2"><a xlink:href="../../tables/event_roles.html" xlink:title="event_roles" target="_top">
<polygon fill="#ffffff" stroke="transparent" points="8,-139.7 8,-273.7 191,-273.7 191,-139.7 8,-139.7"/>
<polygon fill="#f5f5f5" stroke="transparent" points="10.5,-248.7 10.5,-271.7 189.5,-271.7 189.5,-248.7 10.5,-248.7"/>
<polygon fill="none" stroke="#000000" points="10.5,-248.7 10.5,-271.7 189.5,-271.7 189.5,-248.7 10.5,-248.7"/>
<text text-anchor="start" x="15.5" y="-257.3" font-family="Helvetica,sans-Serif" font-weight="bold" font-size="11.00" fill="#000000">event_roles</text>
<text text-anchor="start" x="154.5437" y="-256.8" font-family="Helvetica,sans-Serif" font-size="11.00" fill="#000000">[table]</text>
<polygon fill="none" stroke="#000000" points="10.5,-226.7 10.5,-248.7 99.5,-248.7 99.5,-226.7 10.5,-226.7"/>
<text text-anchor="start" x="30.5" y="-233.8" font-family="Helvetica,sans-Serif" font-size="11.00" fill="#000000">created_at</text>
<polygon fill="none" stroke="#000000" points="99.5,-226.7 99.5,-248.7 189.5,-248.7 189.5,-226.7 99.5,-226.7"/>
<text text-anchor="start" x="102.5" y="-234.4" font-family="Helvetica,sans-Serif" font-size="11.00" fill="#000000">timestamp[26,3]</text>
<polygon fill="none" stroke="#000000" points="10.5,-204.7 10.5,-226.7 99.5,-226.7 99.5,-204.7 10.5,-204.7"/>
<text text-anchor="start" x="30.5" y="-211.8" font-family="Helvetica,sans-Serif" font-size="11.00" fill="#000000">updated_at</text>
<polygon fill="none" stroke="#000000" points="99.5,-204.7 99.5,-226.7 189.5,-226.7 189.5,-204.7 99.5,-204.7"/>
<text text-anchor="start" x="102.5" y="-212.4" font-family="Helvetica,sans-Serif" font-size="11.00" fill="#000000">timestamp[26,3]</text>
<polygon fill="none" stroke="#000000" points="10.5,-182.7 10.5,-204.7 99.5,-204.7 99.5,-182.7 10.5,-182.7"/>
<image xlink:href="../../images/primaryKeys.png" width="11px" height="12px" preserveAspectRatio="xMinYMin meet" x="15.5" y="-199.7"/>
<text text-anchor="start" x="30.5" y="-189.8" font-family="Helvetica,sans-Serif" font-size="11.00" fill="#000000">id</text>
<polygon fill="none" stroke="#000000" points="99.5,-182.7 99.5,-204.7 189.5,-204.7 189.5,-182.7 99.5,-182.7"/>
<text text-anchor="start" x="102.5" y="-190.4" font-family="Helvetica,sans-Serif" font-size="11.00" fill="#000000">serial[10]</text>
<polygon fill="#ffffff" stroke="transparent" points="10.5,-160.7 10.5,-182.7 99.5,-182.7 99.5,-160.7 10.5,-160.7"/>
<polygon fill="none" stroke="#000000" points="10.5,-160.7 10.5,-182.7 99.5,-182.7 99.5,-160.7 10.5,-160.7"/>
<text text-anchor="start" x="30.5" y="-167.8" font-family="Helvetica,sans-Serif" font-size="11.00" fill="#000000">name</text>
<polygon fill="none" stroke="#000000" points="99.5,-160.7 99.5,-182.7 189.5,-182.7 189.5,-160.7 99.5,-160.7"/>
<text text-anchor="start" x="102.0042" y="-168.4" font-family="Helvetica,sans-Serif" font-size="11.00" fill="#000000">text[2147483647]</text>
<polygon fill="#ffffff" stroke="transparent" points="10.5,-141.7 10.5,-160.7 46.5,-160.7 46.5,-141.7 10.5,-141.7"/>
<polygon fill="none" stroke="#000000" points="10.5,-141.7 10.5,-160.7 46.5,-160.7 46.5,-141.7 10.5,-141.7"/>
<text text-anchor="start" x="13.5" y="-147.8" font-family="Helvetica,sans-Serif" font-size="11.00" fill="#000000">&lt; 0</text>
<polygon fill="#ffffff" stroke="transparent" points="46.5,-141.7 46.5,-160.7 99.5,-160.7 99.5,-141.7 46.5,-141.7"/>
<polygon fill="none" stroke="#000000" points="46.5,-141.7 46.5,-160.7 99.5,-160.7 99.5,-141.7 46.5,-141.7"/>
<text text-anchor="start" x="64.1105" y="-147.8" font-family="Helvetica,sans-Serif" font-size="11.00" fill="#000000">0 rows</text>
<polygon fill="#ffffff" stroke="transparent" points="99.5,-141.7 99.5,-160.7 189.5,-160.7 189.5,-141.7 99.5,-141.7"/>
<polygon fill="none" stroke="#000000" points="99.5,-141.7 99.5,-160.7 189.5,-160.7 189.5,-141.7 99.5,-141.7"/>
<text text-anchor="start" x="170.9053" y="-147.8" font-family="Helvetica,sans-Serif" font-size="11.00" fill="#000000">2 &gt;</text>
<polygon fill="none" stroke="#000000" stroke-width="2" points="9,-140.7 9,-272.7 190,-272.7 190,-140.7 9,-140.7"/>
</a>
</g>
</g>
<!-- event_role_permissions&#45;&gt;event_roles -->
<g id="edge1" class="edge">
<title>event_role_permissions:w&#45;&gt;event_roles:e</title>
<path fill="none" stroke="#000000" d="M226.5669,-274.368C205.0746,-257.0466 227.5328,-193.7 189.5,-193.7"/>
<polygon fill="#000000" stroke="#000000" points="232.8607,-276.3248 239.4312,-282.1377 236.6804,-277.5124 240.5,-278.7 240.5,-278.7 240.5,-278.7 236.6804,-277.5124 241.5688,-275.2623 232.8607,-276.3248 232.8607,-276.3248"/>
<ellipse fill="none" stroke="#000000" cx="229.805" cy="-275.3747" rx="3.2" ry="3.2"/>
</g>
<!-- event_users -->
<g id="node3" class="node">
<title>event_users</title>
<g id="a_node3"><a xlink:href="../../tables/event_users.html" xlink:title="event_users" target="_top">
<polygon fill="#ffffff" stroke="transparent" points="274.5,-38.2 274.5,-187.2 384.5,-187.2 384.5,-38.2 274.5,-38.2"/>
<polygon fill="#f5f5f5" stroke="transparent" points="274.5,-163.7 274.5,-186.7 384.5,-186.7 384.5,-163.7 274.5,-163.7"/>
<polygon fill="none" stroke="#000000" points="274.5,-163.7 274.5,-186.7 384.5,-186.7 384.5,-163.7 274.5,-163.7"/>
<text text-anchor="start" x="279.5" y="-172.3" font-family="Helvetica,sans-Serif" font-weight="bold" font-size="11.00" fill="#000000">event_users</text>
<text text-anchor="start" x="350.0219" y="-171.8" font-family="Helvetica,sans-Serif" font-size="11.00" fill="#000000">[table]</text>
<polygon fill="none" stroke="#000000" points="274.5,-141.7 274.5,-163.7 384.5,-163.7 384.5,-141.7 274.5,-141.7"/>
<image xlink:href="../../images/primaryKeys.png" width="11px" height="12px" preserveAspectRatio="xMinYMin meet" x="279.5" y="-158.7"/>
<text text-anchor="start" x="297.5" y="-148.8" font-family="Helvetica,sans-Serif" font-size="11.00" fill="#000000">user_id</text>
<polygon fill="none" stroke="#000000" points="274.5,-119.7 274.5,-141.7 384.5,-141.7 384.5,-119.7 274.5,-119.7"/>
<image xlink:href="../../images/primaryKeys.png" width="11px" height="12px" preserveAspectRatio="xMinYMin meet" x="279.5" y="-136.7"/>
<text text-anchor="start" x="297.5" y="-126.8" font-family="Helvetica,sans-Serif" font-size="11.00" fill="#000000">event_id</text>
<polygon fill="none" stroke="#000000" points="274.5,-97.7 274.5,-119.7 384.5,-119.7 384.5,-97.7 274.5,-97.7"/>
<image xlink:href="../../images/foreignKeys.png" width="11px" height="12px" preserveAspectRatio="xMinYMin meet" x="279.5" y="-114.7"/>
<text text-anchor="start" x="297.5" y="-104.8" font-family="Helvetica,sans-Serif" font-size="11.00" fill="#000000">event_role_id</text>
<polygon fill="none" stroke="#000000" points="274.5,-75.7 274.5,-97.7 384.5,-97.7 384.5,-75.7 274.5,-75.7"/>
<image xlink:href="../../images/foreignKeys.png" width="11px" height="12px" preserveAspectRatio="xMinYMin meet" x="279.5" y="-92.7"/>
<text text-anchor="start" x="297.5" y="-82.8" font-family="Helvetica,sans-Serif" font-size="11.00" fill="#000000">attendance_id</text>
<polygon fill="none" stroke="#000000" points="274.5,-56.7 274.5,-75.7 384.5,-75.7 384.5,-56.7 274.5,-56.7"/>
<text text-anchor="start" x="277.5" y="-62.8" font-family="Helvetica,sans-Serif" font-size="11.00" fill="#000000">...</text>
<polygon fill="#ffffff" stroke="transparent" points="274.5,-37.7 274.5,-56.7 310.5,-56.7 310.5,-37.7 274.5,-37.7"/>
<polygon fill="none" stroke="#000000" points="274.5,-37.7 274.5,-56.7 310.5,-56.7 310.5,-37.7 274.5,-37.7"/>
<text text-anchor="start" x="277.5" y="-43.8" font-family="Helvetica,sans-Serif" font-size="11.00" fill="#000000">&lt; 4</text>
<polygon fill="#ffffff" stroke="transparent" points="310.5,-37.7 310.5,-56.7 355.5,-56.7 355.5,-37.7 310.5,-37.7"/>
<polygon fill="none" stroke="#000000" points="310.5,-37.7 310.5,-56.7 355.5,-56.7 355.5,-37.7 310.5,-37.7"/>
<text text-anchor="start" x="320.1105" y="-43.8" font-family="Helvetica,sans-Serif" font-size="11.00" fill="#000000">0 rows</text>
<polygon fill="#ffffff" stroke="transparent" points="355.5,-37.7 355.5,-56.7 384.5,-56.7 384.5,-37.7 355.5,-37.7"/>
<polygon fill="none" stroke="#000000" points="355.5,-37.7 355.5,-56.7 384.5,-56.7 384.5,-37.7 355.5,-37.7"/>
<text text-anchor="start" x="365.9053" y="-43.8" font-family="Helvetica,sans-Serif" font-size="11.00" fill="#000000">2 &gt;</text>
</a>
</g>
</g>
<!-- event_users&#45;&gt;event_roles -->
<g id="edge2" class="edge">
<title>event_users:w&#45;&gt;event_roles:e</title>
<path fill="none" stroke="#000000" d="M259.9312,-111.3371C224.8461,-125.6842 237.2911,-193.7 189.5,-193.7"/>
<polygon fill="#000000" stroke="#000000" points="266.6279,-110.125 275.1412,-112.2424 270.564,-109.4125 274.5,-108.7 274.5,-108.7 274.5,-108.7 270.564,-109.4125 273.8588,-105.1576 266.6279,-110.125 266.6279,-110.125"/>
<ellipse fill="none" stroke="#000000" cx="263.4791" cy="-110.6949" rx="3.2" ry="3.2"/>
</g>
</g>
</svg>
