<?xml version="1.0" encoding="UTF-8" standalone="no"?>
<!DOCTYPE svg PUBLIC "-//W3C//DTD SVG 1.1//EN"
 "http://www.w3.org/Graphics/SVG/1.1/DTD/svg11.dtd">
<!-- Generated by graphviz version 2.40.1 (20161225.0304)
 -->
<!-- Title: oneDegreeRelationshipsDiagram Pages: 1 -->
<svg width="660pt" height="586pt"
 viewBox="0.00 0.00 660.00 586.20" xmlns="http://www.w3.org/2000/svg" xmlns:xlink="http://www.w3.org/1999/xlink">
<g id="graph0" class="graph" transform="scale(1 1) rotate(0) translate(4 582.2)">
<title>oneDegreeRelationshipsDiagram</title>
<polygon fill="#ffffff" stroke="transparent" points="-4,4 -4,-582.2 656,-582.2 656,4 -4,4"/>
<text text-anchor="middle" x="72.4936" y="-7.3" font-family="Helvetica,sans-Serif" font-size="11.00" fill="#000000">Generated by SchemaSpy</text>
<!-- event_sponsors -->
<g id="node1" class="node">
<title>event_sponsors</title>
<g id="a_node1"><a xlink:href="../../tables/event_sponsors.html" xlink:title="event_sponsors" target="_top">
<polygon fill="#ffffff" stroke="transparent" points="524,-469.2 524,-574.2 644,-574.2 644,-469.2 524,-469.2"/>
<polygon fill="#f5f5f5" stroke="transparent" points="524,-550.7 524,-573.7 644,-573.7 644,-550.7 524,-550.7"/>
<polygon fill="none" stroke="#000000" points="524,-550.7 524,-573.7 644,-573.7 644,-550.7 524,-550.7"/>
<text text-anchor="start" x="528.681" y="-559.8" font-family="Helvetica,sans-Serif" font-weight="bold" font-size="11.00" fill="#000000">event_sponsors</text>
<text text-anchor="start" x="609.5219" y="-558.8" font-family="Helvetica,sans-Serif" font-size="11.00" fill="#000000">[table]</text>
<polygon fill="none" stroke="#000000" points="524,-528.7 524,-550.7 644,-550.7 644,-528.7 524,-528.7"/>
<image xlink:href="../../images/primaryKeys.png" width="11px" height="12px" preserveAspectRatio="xMinYMin meet" x="529" y="-545.7"/>
<text text-anchor="start" x="548" y="-535.8" font-family="Helvetica,sans-Serif" font-size="11.00" fill="#000000">sponsor_id</text>
<polygon fill="none" stroke="#000000" points="524,-506.7 524,-528.7 644,-528.7 644,-506.7 524,-506.7"/>
<image xlink:href="../../images/primaryKeys.png" width="11px" height="12px" preserveAspectRatio="xMinYMin meet" x="529" y="-523.7"/>
<text text-anchor="start" x="548" y="-513.8" font-family="Helvetica,sans-Serif" font-size="11.00" fill="#000000">event_id</text>
<polygon fill="none" stroke="#000000" points="524,-487.7 524,-506.7 644,-506.7 644,-487.7 524,-487.7"/>
<text text-anchor="start" x="527" y="-493.8" font-family="Helvetica,sans-Serif" font-size="11.00" fill="#000000">...</text>
<polygon fill="#ffffff" stroke="transparent" points="524,-468.7 524,-487.7 569,-487.7 569,-468.7 524,-468.7"/>
<polygon fill="none" stroke="#000000" points="524,-468.7 524,-487.7 569,-487.7 569,-468.7 524,-468.7"/>
<text text-anchor="start" x="527" y="-474.8" font-family="Helvetica,sans-Serif" font-size="11.00" fill="#000000">&lt; 2</text>
<polygon fill="#ffffff" stroke="transparent" points="569,-468.7 569,-487.7 619,-487.7 619,-468.7 569,-468.7"/>
<polygon fill="none" stroke="#000000" points="569,-468.7 569,-487.7 619,-487.7 619,-468.7 569,-468.7"/>
<text text-anchor="start" x="583.6105" y="-474.8" font-family="Helvetica,sans-Serif" font-size="11.00" fill="#000000">0 rows</text>
<polygon fill="#ffffff" stroke="transparent" points="619,-468.7 619,-487.7 644,-487.7 644,-468.7 619,-468.7"/>
<polygon fill="none" stroke="#000000" points="619,-468.7 619,-487.7 644,-487.7 644,-468.7 619,-468.7"/>
<text text-anchor="start" x="634.8862" y="-474.8" font-family="Helvetica,sans-Serif" font-size="11.00" fill="#000000"> &#160;</text>
</a>
</g>
</g>
<!-- events -->
<g id="node2" class="node">
<title>events</title>
<g id="a_node2"><a xlink:href="../../tables/events.html" xlink:title="events" target="_top">
<polygon fill="#ffffff" stroke="transparent" points="165,-95.7 165,-493.7 475,-493.7 475,-95.7 165,-95.7"/>
<polygon fill="#f5f5f5" stroke="transparent" points="167,-468.7 167,-491.7 473,-491.7 473,-468.7 167,-468.7"/>
<polygon fill="none" stroke="#000000" points="167,-468.7 167,-491.7 473,-491.7 473,-468.7 167,-468.7"/>
<text text-anchor="start" x="172" y="-477.8" font-family="Helvetica,sans-Serif" font-weight="bold" font-size="11.00" fill="#000000">events</text>
<text text-anchor="start" x="438.0437" y="-476.8" font-family="Helvetica,sans-Serif" font-size="11.00" fill="#000000">[table]</text>
<polygon fill="none" stroke="#000000" points="167,-446.7 167,-468.7 271,-468.7 271,-446.7 167,-446.7"/>
<text text-anchor="start" x="187" y="-453.8" font-family="Helvetica,sans-Serif" font-size="11.00" fill="#000000">created_at</text>
<polygon fill="none" stroke="#000000" points="271,-446.7 271,-468.7 473,-468.7 473,-446.7 271,-446.7"/>
<text text-anchor="start" x="274" y="-454.4" font-family="Helvetica,sans-Serif" font-size="11.00" fill="#000000">timestamp[26,3]</text>
<polygon fill="none" stroke="#000000" points="167,-424.7 167,-446.7 271,-446.7 271,-424.7 167,-424.7"/>
<text text-anchor="start" x="187" y="-431.8" font-family="Helvetica,sans-Serif" font-size="11.00" fill="#000000">updated_at</text>
<polygon fill="none" stroke="#000000" points="271,-424.7 271,-446.7 473,-446.7 473,-424.7 271,-424.7"/>
<text text-anchor="start" x="274" y="-432.4" font-family="Helvetica,sans-Serif" font-size="11.00" fill="#000000">timestamp[26,3]</text>
<polygon fill="none" stroke="#000000" points="167,-402.7 167,-424.7 271,-424.7 271,-402.7 167,-402.7"/>
<image xlink:href="../../images/primaryKeys.png" width="11px" height="12px" preserveAspectRatio="xMinYMin meet" x="172" y="-419.7"/>
<text text-anchor="start" x="187" y="-409.8" font-family="Helvetica,sans-Serif" font-size="11.00" fill="#000000">id</text>
<polygon fill="none" stroke="#000000" points="271,-402.7 271,-424.7 473,-424.7 473,-402.7 271,-402.7"/>
<text text-anchor="start" x="274" y="-410.4" font-family="Helvetica,sans-Serif" font-size="11.00" fill="#000000">serial[10]</text>
<polygon fill="none" stroke="#000000" points="167,-380.7 167,-402.7 271,-402.7 271,-380.7 167,-380.7"/>
<text text-anchor="start" x="187" y="-387.8" font-family="Helvetica,sans-Serif" font-size="11.00" fill="#000000">name</text>
<polygon fill="none" stroke="#000000" points="271,-380.7 271,-402.7 473,-402.7 473,-380.7 271,-380.7"/>
<text text-anchor="start" x="274" y="-388.4" font-family="Helvetica,sans-Serif" font-size="11.00" fill="#000000">text[2147483647]</text>
<polygon fill="none" stroke="#000000" points="167,-358.7 167,-380.7 271,-380.7 271,-358.7 167,-358.7"/>
<text text-anchor="start" x="187" y="-365.8" font-family="Helvetica,sans-Serif" font-size="11.00" fill="#000000">description</text>
<polygon fill="none" stroke="#000000" points="271,-358.7 271,-380.7 473,-380.7 473,-358.7 271,-358.7"/>
<text text-anchor="start" x="274" y="-366.4" font-family="Helvetica,sans-Serif" font-size="11.00" fill="#000000">text[2147483647]</text>
<polygon fill="none" stroke="#000000" points="167,-336.7 167,-358.7 271,-358.7 271,-336.7 167,-336.7"/>
<text text-anchor="start" x="187" y="-343.8" font-family="Helvetica,sans-Serif" font-size="11.00" fill="#000000">url</text>
<polygon fill="none" stroke="#000000" points="271,-336.7 271,-358.7 473,-358.7 473,-336.7 271,-336.7"/>
<text text-anchor="start" x="274" y="-344.4" font-family="Helvetica,sans-Serif" font-size="11.00" fill="#000000">text[2147483647]</text>
<polygon fill="none" stroke="#000000" points="167,-314.7 167,-336.7 271,-336.7 271,-314.7 167,-314.7"/>
<text text-anchor="start" x="187" y="-321.8" font-family="Helvetica,sans-Serif" font-size="11.00" fill="#000000">streaming_url</text>
<polygon fill="none" stroke="#000000" points="271,-314.7 271,-336.7 473,-336.7 473,-314.7 271,-314.7"/>
<text text-anchor="start" x="274" y="-322.4" font-family="Helvetica,sans-Serif" font-size="11.00" fill="#000000">text[2147483647]</text>
<polygon fill="none" stroke="#000000" points="167,-292.7 167,-314.7 271,-314.7 271,-292.7 167,-292.7"/>
<text text-anchor="start" x="187" y="-299.8" font-family="Helvetica,sans-Serif" font-size="11.00" fill="#000000">venue_type</text>
<polygon fill="none" stroke="#000000" points="271,-292.7 271,-314.7 473,-314.7 473,-292.7 271,-292.7"/>
<text text-anchor="start" x="273.869" y="-300.4" font-family="Helvetica,sans-Serif" font-size="11.00" fill="#000000">events_venue_type_enum[2147483647]</text>
<polygon fill="none" stroke="#000000" points="167,-270.7 167,-292.7 271,-292.7 271,-270.7 167,-270.7"/>
<text text-anchor="start" x="187" y="-277.8" font-family="Helvetica,sans-Serif" font-size="11.00" fill="#000000">start_at</text>
<polygon fill="none" stroke="#000000" points="271,-270.7 271,-292.7 473,-292.7 473,-270.7 271,-270.7"/>
<text text-anchor="start" x="274" y="-278.4" font-family="Helvetica,sans-Serif" font-size="11.00" fill="#000000">timestamp[26,3]</text>
<polygon fill="none" stroke="#000000" points="167,-248.7 167,-270.7 271,-270.7 271,-248.7 167,-248.7"/>
<text text-anchor="start" x="187" y="-255.8" font-family="Helvetica,sans-Serif" font-size="11.00" fill="#000000">ends_at</text>
<polygon fill="none" stroke="#000000" points="271,-248.7 271,-270.7 473,-270.7 473,-248.7 271,-248.7"/>
<text text-anchor="start" x="274" y="-256.4" font-family="Helvetica,sans-Serif" font-size="11.00" fill="#000000">timestamp[26,3]</text>
<polygon fill="none" stroke="#000000" points="167,-226.7 167,-248.7 271,-248.7 271,-226.7 167,-226.7"/>
<text text-anchor="start" x="187" y="-233.8" font-family="Helvetica,sans-Serif" font-size="11.00" fill="#000000">canceled</text>
<polygon fill="none" stroke="#000000" points="271,-226.7 271,-248.7 473,-248.7 473,-226.7 271,-226.7"/>
<text text-anchor="start" x="274" y="-234.4" font-family="Helvetica,sans-Serif" font-size="11.00" fill="#000000">bool[1]</text>
<polygon fill="none" stroke="#000000" points="167,-204.7 167,-226.7 271,-226.7 271,-204.7 167,-204.7"/>
<text text-anchor="start" x="187" y="-211.8" font-family="Helvetica,sans-Serif" font-size="11.00" fill="#000000">capacity</text>
<polygon fill="none" stroke="#000000" points="271,-204.7 271,-226.7 473,-226.7 473,-204.7 271,-204.7"/>
<text text-anchor="start" x="274" y="-212.4" font-family="Helvetica,sans-Serif" font-size="11.00" fill="#000000">int4[10]</text>
<polygon fill="none" stroke="#000000" points="167,-182.7 167,-204.7 271,-204.7 271,-182.7 167,-182.7"/>
<text text-anchor="start" x="187" y="-189.8" font-family="Helvetica,sans-Serif" font-size="11.00" fill="#000000">invite_only</text>
<polygon fill="none" stroke="#000000" points="271,-182.7 271,-204.7 473,-204.7 473,-182.7 271,-182.7"/>
<text text-anchor="start" x="274" y="-190.4" font-family="Helvetica,sans-Serif" font-size="11.00" fill="#000000">bool[1]</text>
<polygon fill="none" stroke="#000000" points="167,-160.7 167,-182.7 271,-182.7 271,-160.7 167,-160.7"/>
<text text-anchor="start" x="187" y="-167.8" font-family="Helvetica,sans-Serif" font-size="11.00" fill="#000000">image_url</text>
<polygon fill="none" stroke="#000000" points="271,-160.7 271,-182.7 473,-182.7 473,-160.7 271,-160.7"/>
<text text-anchor="start" x="274" y="-168.4" font-family="Helvetica,sans-Serif" font-size="11.00" fill="#000000">text[2147483647]</text>
<polygon fill="none" stroke="#000000" points="167,-138.7 167,-160.7 271,-160.7 271,-138.7 167,-138.7"/>
<image xlink:href="../../images/foreignKeys.png" width="11px" height="12px" preserveAspectRatio="xMinYMin meet" x="172" y="-155.7"/>
<text text-anchor="start" x="187" y="-145.8" font-family="Helvetica,sans-Serif" font-size="11.00" fill="#000000">venue_id</text>
<polygon fill="none" stroke="#000000" points="271,-138.7 271,-160.7 473,-160.7 473,-138.7 271,-138.7"/>
<text text-anchor="start" x="274" y="-146.4" font-family="Helvetica,sans-Serif" font-size="11.00" fill="#000000">int4[10]</text>
<polygon fill="none" stroke="#000000" points="167,-116.7 167,-138.7 271,-138.7 271,-116.7 167,-116.7"/>
<image xlink:href="../../images/foreignKeys.png" width="11px" height="12px" preserveAspectRatio="xMinYMin meet" x="172" y="-133.7"/>
<text text-anchor="start" x="187" y="-123.8" font-family="Helvetica,sans-Serif" font-size="11.00" fill="#000000">chapter_id</text>
<polygon fill="none" stroke="#000000" points="271,-116.7 271,-138.7 473,-138.7 473,-116.7 271,-116.7"/>
<text text-anchor="start" x="274" y="-124.4" font-family="Helvetica,sans-Serif" font-size="11.00" fill="#000000">int4[10]</text>
<polygon fill="#ffffff" stroke="transparent" points="167,-97.7 167,-116.7 210,-116.7 210,-97.7 167,-97.7"/>
<polygon fill="none" stroke="#000000" points="167,-97.7 167,-116.7 210,-116.7 210,-97.7 167,-97.7"/>
<text text-anchor="start" x="170" y="-103.8" font-family="Helvetica,sans-Serif" font-size="11.00" fill="#000000">&lt; 2</text>
<polygon fill="#ffffff" stroke="transparent" points="210,-97.7 210,-116.7 271,-116.7 271,-97.7 210,-97.7"/>
<polygon fill="none" stroke="#000000" points="210,-97.7 210,-116.7 271,-116.7 271,-97.7 210,-97.7"/>
<text text-anchor="start" x="235.6105" y="-103.8" font-family="Helvetica,sans-Serif" font-size="11.00" fill="#000000">0 rows</text>
<polygon fill="#ffffff" stroke="transparent" points="271,-97.7 271,-116.7 473,-116.7 473,-97.7 271,-97.7"/>
<polygon fill="none" stroke="#000000" points="271,-97.7 271,-116.7 473,-116.7 473,-97.7 271,-97.7"/>
<text text-anchor="start" x="454.4053" y="-103.8" font-family="Helvetica,sans-Serif" font-size="11.00" fill="#000000">3 &gt;</text>
<polygon fill="none" stroke="#000000" stroke-width="2" points="166,-96.7 166,-492.7 474,-492.7 474,-96.7 166,-96.7"/>
</a>
</g>
</g>
<!-- event_sponsors&#45;&gt;events -->
<g id="edge1" class="edge">
<title>event_sponsors:w&#45;&gt;events:e</title>
<path fill="none" stroke="#000000" d="M509.83,-513.7501C483.2771,-494.7532 518.4479,-413.7 473,-413.7"/>
<polygon fill="#000000" stroke="#000000" points="516.2938,-515.5518 523.0333,-521.1678 520.1469,-516.6259 524,-517.7 524,-517.7 524,-517.7 520.1469,-516.6259 524.9667,-514.2322 516.2938,-515.5518 516.2938,-515.5518"/>
<ellipse fill="none" stroke="#000000" cx="513.2113" cy="-514.6926" rx="3.2" ry="3.2"/>
</g>
<!-- chapters -->
<g id="node5" class="node">
<title>chapters</title>
<g id="a_node5"><a xlink:href="../../tables/chapters.html" xlink:title="chapters" target="_top">
<polygon fill="#ffffff" stroke="transparent" points="18,-38.2 18,-121.2 106,-121.2 106,-38.2 18,-38.2"/>
<polygon fill="#f5f5f5" stroke="transparent" points="18,-97.7 18,-120.7 106,-120.7 106,-97.7 18,-97.7"/>
<polygon fill="none" stroke="#000000" points="18,-97.7 18,-120.7 106,-120.7 106,-97.7 18,-97.7"/>
<text text-anchor="start" x="23" y="-106.8" font-family="Helvetica,sans-Serif" font-weight="bold" font-size="11.00" fill="#000000">chapters</text>
<text text-anchor="start" x="71.0437" y="-105.8" font-family="Helvetica,sans-Serif" font-size="11.00" fill="#000000">[table]</text>
<polygon fill="none" stroke="#000000" points="18,-75.7 18,-97.7 106,-97.7 106,-75.7 18,-75.7"/>
<image xlink:href="../../images/primaryKeys.png" width="11px" height="12px" preserveAspectRatio="xMinYMin meet" x="23" y="-92.7"/>
<text text-anchor="start" x="38" y="-82.8" font-family="Helvetica,sans-Serif" font-size="11.00" fill="#000000">id</text>
<polygon fill="none" stroke="#000000" points="18,-56.7 18,-75.7 106,-75.7 106,-56.7 18,-56.7"/>
<text text-anchor="start" x="21" y="-62.8" font-family="Helvetica,sans-Serif" font-size="11.00" fill="#000000">...</text>
<polygon fill="#ffffff" stroke="transparent" points="18,-37.7 18,-56.7 38,-56.7 38,-37.7 18,-37.7"/>
<polygon fill="none" stroke="#000000" points="18,-37.7 18,-56.7 38,-56.7 38,-37.7 18,-37.7"/>
<text text-anchor="start" x="21" y="-43.8" font-family="Helvetica,sans-Serif" font-size="11.00" fill="#000000"> &#160;</text>
<polygon fill="#ffffff" stroke="transparent" points="38,-37.7 38,-56.7 80,-56.7 80,-37.7 38,-37.7"/>
<polygon fill="none" stroke="#000000" points="38,-37.7 38,-56.7 80,-56.7 80,-37.7 38,-37.7"/>
<text text-anchor="start" x="44.6105" y="-43.8" font-family="Helvetica,sans-Serif" font-size="11.00" fill="#000000">0 rows</text>
<polygon fill="#ffffff" stroke="transparent" points="80,-37.7 80,-56.7 106,-56.7 106,-37.7 80,-37.7"/>
<polygon fill="none" stroke="#000000" points="80,-37.7 80,-56.7 106,-56.7 106,-37.7 80,-37.7"/>
<text text-anchor="start" x="87.4053" y="-43.8" font-family="Helvetica,sans-Serif" font-size="11.00" fill="#000000">3 &gt;</text>
</a>
</g>
</g>
<!-- events&#45;&gt;chapters -->
<g id="edge4" class="edge">
<title>events:w&#45;&gt;chapters:e</title>
<path fill="none" stroke="#000000" d="M152.8015,-124.3448C134.7138,-114.5528 132.9239,-86.7 106,-86.7"/>
<polygon fill="#000000" stroke="#000000" points="159.2144,-125.8602 166.1721,-131.2035 163.1072,-126.7801 167,-127.7 167,-127.7 167,-127.7 163.1072,-126.7801 167.8279,-124.1965 159.2144,-125.8602 159.2144,-125.8602"/>
<ellipse fill="none" stroke="#000000" cx="156.1002" cy="-125.1242" rx="3.2" ry="3.2"/>
</g>
<!-- venues -->
<g id="node6" class="node">
<title>venues</title>
<g id="a_node6"><a xlink:href="../../tables/venues.html" xlink:title="venues" target="_top">
<polygon fill="#ffffff" stroke="transparent" points="8,-142.2 8,-225.2 116,-225.2 116,-142.2 8,-142.2"/>
<polygon fill="#f5f5f5" stroke="transparent" points="8,-201.7 8,-224.7 116,-224.7 116,-201.7 8,-201.7"/>
<polygon fill="none" stroke="#000000" points="8,-201.7 8,-224.7 116,-224.7 116,-201.7 8,-201.7"/>
<text text-anchor="start" x="13" y="-210.8" font-family="Helvetica,sans-Serif" font-weight="bold" font-size="11.00" fill="#000000">venues</text>
<text text-anchor="start" x="81.0437" y="-209.8" font-family="Helvetica,sans-Serif" font-size="11.00" fill="#000000">[table]</text>
<polygon fill="none" stroke="#000000" points="8,-179.7 8,-201.7 116,-201.7 116,-179.7 8,-179.7"/>
<image xlink:href="../../images/primaryKeys.png" width="11px" height="12px" preserveAspectRatio="xMinYMin meet" x="13" y="-196.7"/>
<text text-anchor="start" x="28" y="-186.8" font-family="Helvetica,sans-Serif" font-size="11.00" fill="#000000">id</text>
<polygon fill="none" stroke="#000000" points="8,-160.7 8,-179.7 116,-179.7 116,-160.7 8,-160.7"/>
<text text-anchor="start" x="11" y="-166.8" font-family="Helvetica,sans-Serif" font-size="11.00" fill="#000000">...</text>
<polygon fill="#ffffff" stroke="transparent" points="8,-141.7 8,-160.7 38,-160.7 38,-141.7 8,-141.7"/>
<polygon fill="none" stroke="#000000" points="8,-141.7 8,-160.7 38,-160.7 38,-141.7 8,-141.7"/>
<text text-anchor="start" x="11" y="-147.8" font-family="Helvetica,sans-Serif" font-size="11.00" fill="#000000"> &#160;</text>
<polygon fill="#ffffff" stroke="transparent" points="38,-141.7 38,-160.7 85,-160.7 85,-141.7 38,-141.7"/>
<polygon fill="none" stroke="#000000" points="38,-141.7 38,-160.7 85,-160.7 85,-141.7 38,-141.7"/>
<text text-anchor="start" x="49.6105" y="-147.8" font-family="Helvetica,sans-Serif" font-size="11.00" fill="#000000">0 rows</text>
<polygon fill="#ffffff" stroke="transparent" points="85,-141.7 85,-160.7 116,-160.7 116,-141.7 85,-141.7"/>
<polygon fill="none" stroke="#000000" points="85,-141.7 85,-160.7 116,-160.7 116,-141.7 85,-141.7"/>
<text text-anchor="start" x="97.4053" y="-147.8" font-family="Helvetica,sans-Serif" font-size="11.00" fill="#000000">1 &gt;</text>
</a>
</g>
</g>
<!-- events&#45;&gt;venues -->
<g id="edge5" class="edge">
<title>events:w&#45;&gt;venues:e</title>
<path fill="none" stroke="#000000" d="M153.1568,-154.0877C139.3325,-164.6646 139.1756,-190.7 116,-190.7"/>
<polygon fill="#000000" stroke="#000000" points="159.3739,-152.1172 168.0877,-153.1317 163.1869,-150.9086 167,-149.7 167,-149.7 167,-149.7 163.1869,-150.9086 165.9123,-146.2683 159.3739,-152.1172 159.3739,-152.1172"/>
<ellipse fill="none" stroke="#000000" cx="156.3235" cy="-153.0841" rx="3.2" ry="3.2"/>
</g>
<!-- event_tags -->
<g id="node3" class="node">
<title>event_tags</title>
<g id="a_node3"><a xlink:href="../../tables/event_tags.html" xlink:title="event_tags" target="_top">
<polygon fill="#ffffff" stroke="transparent" points="536,-343.2 536,-448.2 632,-448.2 632,-343.2 536,-343.2"/>
<polygon fill="#f5f5f5" stroke="transparent" points="536,-424.7 536,-447.7 632,-447.7 632,-424.7 536,-424.7"/>
<polygon fill="none" stroke="#000000" points="536,-424.7 536,-447.7 632,-447.7 632,-424.7 536,-424.7"/>
<text text-anchor="start" x="540.5984" y="-433.8" font-family="Helvetica,sans-Serif" font-weight="bold" font-size="11.00" fill="#000000">event_tags</text>
<text text-anchor="start" x="597.5219" y="-432.8" font-family="Helvetica,sans-Serif" font-size="11.00" fill="#000000">[table]</text>
<polygon fill="none" stroke="#000000" points="536,-402.7 536,-424.7 632,-424.7 632,-402.7 536,-402.7"/>
<image xlink:href="../../images/primaryKeys.png" width="11px" height="12px" preserveAspectRatio="xMinYMin meet" x="541" y="-419.7"/>
<text text-anchor="start" x="560" y="-409.8" font-family="Helvetica,sans-Serif" font-size="11.00" fill="#000000">event_id</text>
<polygon fill="none" stroke="#000000" points="536,-380.7 536,-402.7 632,-402.7 632,-380.7 536,-380.7"/>
<image xlink:href="../../images/primaryKeys.png" width="11px" height="12px" preserveAspectRatio="xMinYMin meet" x="541" y="-397.7"/>
<text text-anchor="start" x="560" y="-387.8" font-family="Helvetica,sans-Serif" font-size="11.00" fill="#000000">tag_id</text>
<polygon fill="none" stroke="#000000" points="536,-361.7 536,-380.7 632,-380.7 632,-361.7 536,-361.7"/>
<text text-anchor="start" x="539" y="-367.8" font-family="Helvetica,sans-Serif" font-size="11.00" fill="#000000">...</text>
<polygon fill="#ffffff" stroke="transparent" points="536,-342.7 536,-361.7 569,-361.7 569,-342.7 536,-342.7"/>
<polygon fill="none" stroke="#000000" points="536,-342.7 536,-361.7 569,-361.7 569,-342.7 536,-342.7"/>
<text text-anchor="start" x="539" y="-348.8" font-family="Helvetica,sans-Serif" font-size="11.00" fill="#000000">&lt; 2</text>
<polygon fill="#ffffff" stroke="transparent" points="569,-342.7 569,-361.7 613,-361.7 613,-342.7 569,-342.7"/>
<polygon fill="none" stroke="#000000" points="569,-342.7 569,-361.7 613,-361.7 613,-342.7 569,-342.7"/>
<text text-anchor="start" x="577.6105" y="-348.8" font-family="Helvetica,sans-Serif" font-size="11.00" fill="#000000">0 rows</text>
<polygon fill="#ffffff" stroke="transparent" points="613,-342.7 613,-361.7 632,-361.7 632,-342.7 613,-342.7"/>
<polygon fill="none" stroke="#000000" points="613,-342.7 613,-361.7 632,-361.7 632,-342.7 613,-342.7"/>
<text text-anchor="start" x="622.8862" y="-348.8" font-family="Helvetica,sans-Serif" font-size="11.00" fill="#000000"> &#160;</text>
</a>
</g>
</g>
<!-- event_tags&#45;&gt;events -->
<g id="edge2" class="edge">
<title>event_tags:w&#45;&gt;events:e</title>
<path fill="none" stroke="#000000" d="M521.1849,-413.7C504.2898,-413.7 495.3125,-413.7 473,-413.7"/>
<polygon fill="#000000" stroke="#000000" points="528,-413.7001 536,-417.3 532,-413.7 536,-413.7 536,-413.7 536,-413.7 532,-413.7 536,-410.1 528,-413.7001 528,-413.7001"/>
<ellipse fill="none" stroke="#000000" cx="524.8" cy="-413.7001" rx="3.2" ry="3.2"/>
</g>
<!-- event_users -->
<g id="node4" class="node">
<title>event_users</title>
<g id="a_node4"><a xlink:href="../../tables/event_users.html" xlink:title="event_users" target="_top">
<polygon fill="#ffffff" stroke="transparent" points="533,-173.2 533,-322.2 635,-322.2 635,-173.2 533,-173.2"/>
<polygon fill="#f5f5f5" stroke="transparent" points="533,-298.7 533,-321.7 635,-321.7 635,-298.7 533,-298.7"/>
<polygon fill="none" stroke="#000000" points="533,-298.7 533,-321.7 635,-321.7 635,-298.7 533,-298.7"/>
<text text-anchor="start" x="537.5459" y="-307.8" font-family="Helvetica,sans-Serif" font-weight="bold" font-size="11.00" fill="#000000">event_users</text>
<text text-anchor="start" x="600.5219" y="-306.8" font-family="Helvetica,sans-Serif" font-size="11.00" fill="#000000">[table]</text>
<polygon fill="none" stroke="#000000" points="533,-276.7 533,-298.7 635,-298.7 635,-276.7 533,-276.7"/>
<image xlink:href="../../images/primaryKeys.png" width="11px" height="12px" preserveAspectRatio="xMinYMin meet" x="538" y="-293.7"/>
<text text-anchor="start" x="555" y="-283.8" font-family="Helvetica,sans-Serif" font-size="11.00" fill="#000000">user_id</text>
<polygon fill="none" stroke="#000000" points="533,-254.7 533,-276.7 635,-276.7 635,-254.7 533,-254.7"/>
<image xlink:href="../../images/primaryKeys.png" width="11px" height="12px" preserveAspectRatio="xMinYMin meet" x="538" y="-271.7"/>
<text text-anchor="start" x="555" y="-261.8" font-family="Helvetica,sans-Serif" font-size="11.00" fill="#000000">event_id</text>
<polygon fill="none" stroke="#000000" points="533,-232.7 533,-254.7 635,-254.7 635,-232.7 533,-232.7"/>
<image xlink:href="../../images/foreignKeys.png" width="11px" height="12px" preserveAspectRatio="xMinYMin meet" x="538" y="-249.7"/>
<text text-anchor="start" x="555" y="-239.8" font-family="Helvetica,sans-Serif" font-size="11.00" fill="#000000">event_role_id</text>
<polygon fill="none" stroke="#000000" points="533,-210.7 533,-232.7 635,-232.7 635,-210.7 533,-210.7"/>
<image xlink:href="../../images/foreignKeys.png" width="11px" height="12px" preserveAspectRatio="xMinYMin meet" x="538" y="-227.7"/>
<text text-anchor="start" x="555" y="-217.8" font-family="Helvetica,sans-Serif" font-size="11.00" fill="#000000">rsvp_id</text>
<polygon fill="none" stroke="#000000" points="533,-191.7 533,-210.7 635,-210.7 635,-191.7 533,-191.7"/>
<text text-anchor="start" x="536" y="-197.8" font-family="Helvetica,sans-Serif" font-size="11.00" fill="#000000">...</text>
<polygon fill="#ffffff" stroke="transparent" points="533,-172.7 533,-191.7 565,-191.7 565,-172.7 533,-172.7"/>
<polygon fill="none" stroke="#000000" points="533,-172.7 533,-191.7 565,-191.7 565,-172.7 533,-172.7"/>
<text text-anchor="start" x="536" y="-178.8" font-family="Helvetica,sans-Serif" font-size="11.00" fill="#000000">&lt; 4</text>
<polygon fill="#ffffff" stroke="transparent" points="565,-172.7 565,-191.7 608,-191.7 608,-172.7 565,-172.7"/>
<polygon fill="none" stroke="#000000" points="565,-172.7 565,-191.7 608,-191.7 608,-172.7 565,-172.7"/>
<text text-anchor="start" x="572.6105" y="-178.8" font-family="Helvetica,sans-Serif" font-size="11.00" fill="#000000">0 rows</text>
<polygon fill="#ffffff" stroke="transparent" points="608,-172.7 608,-191.7 635,-191.7 635,-172.7 608,-172.7"/>
<polygon fill="none" stroke="#000000" points="608,-172.7 608,-191.7 635,-191.7 635,-172.7 608,-172.7"/>
<text text-anchor="start" x="616.4053" y="-178.8" font-family="Helvetica,sans-Serif" font-size="11.00" fill="#000000">2 &gt;</text>
</a>
</g>
</g>
<!-- event_users&#45;&gt;events -->
<g id="edge3" class="edge">
<title>event_users:w&#45;&gt;events:e</title>
<path fill="none" stroke="#000000" d="M518.7337,-268.3952C474.1673,-288.4541 538.2939,-413.7 473,-413.7"/>
<polygon fill="#000000" stroke="#000000" points="525.139,-267.1851 533.6683,-269.2374 529.0695,-266.4426 533,-265.7 533,-265.7 533,-265.7 529.0695,-266.4426 532.3317,-262.1626 525.139,-267.1851 525.139,-267.1851"/>
<ellipse fill="none" stroke="#000000" cx="521.9947" cy="-267.7792" rx="3.2" ry="3.2"/>
</g>
</g>
</svg>
