<?xml version="1.0" encoding="UTF-8" standalone="no"?>
<!DOCTYPE svg PUBLIC "-//W3C//DTD SVG 1.1//EN"
 "http://www.w3.org/Graphics/SVG/1.1/DTD/svg11.dtd">
<!-- Generated by graphviz version 2.40.1 (20161225.0304)
 -->
<!-- Title: twoDegreesRelationshipsDiagram Pages: 1 -->
<svg width="747pt" height="621pt"
 viewBox="0.00 0.00 747.00 621.20" xmlns="http://www.w3.org/2000/svg" xmlns:xlink="http://www.w3.org/1999/xlink">
<g id="graph0" class="graph" transform="scale(1 1) rotate(0) translate(4 617.2)">
<title>twoDegreesRelationshipsDiagram</title>
<polygon fill="#ffffff" stroke="transparent" points="-4,4 -4,-617.2 743,-617.2 743,4 -4,4"/>
<text text-anchor="middle" x="72.4936" y="-7.3" font-family="Helvetica,sans-Serif" font-size="11.00" fill="#000000">Generated by SchemaSpy</text>
<!-- event_reminders -->
<g id="node1" class="node">
<title>event_reminders</title>
<g id="a_node1"><a xlink:href="../../tables/event_reminders.html" xlink:title="event_reminders" target="_top">
<polygon fill="#ffffff" stroke="transparent" points="521,-203.7 521,-381.7 731,-381.7 731,-203.7 521,-203.7"/>
<polygon fill="#f5f5f5" stroke="transparent" points="523,-356.7 523,-379.7 729,-379.7 729,-356.7 523,-356.7"/>
<polygon fill="none" stroke="#000000" points="523,-356.7 523,-379.7 729,-379.7 729,-356.7 523,-356.7"/>
<text text-anchor="start" x="528" y="-365.8" font-family="Helvetica,sans-Serif" font-weight="bold" font-size="11.00" fill="#000000">event_reminders</text>
<text text-anchor="start" x="694.0437" y="-364.8" font-family="Helvetica,sans-Serif" font-size="11.00" fill="#000000">[table]</text>
<polygon fill="none" stroke="#000000" points="523,-334.7 523,-356.7 645,-356.7 645,-334.7 523,-334.7"/>
<text text-anchor="start" x="543" y="-341.8" font-family="Helvetica,sans-Serif" font-size="11.00" fill="#000000">created_at</text>
<polygon fill="none" stroke="#000000" points="645,-334.7 645,-356.7 729,-356.7 729,-334.7 645,-334.7"/>
<text text-anchor="start" x="647.8807" y="-342.4" font-family="Helvetica,sans-Serif" font-size="11.00" fill="#000000">timestamp[26,3]</text>
<polygon fill="none" stroke="#000000" points="523,-312.7 523,-334.7 645,-334.7 645,-312.7 523,-312.7"/>
<text text-anchor="start" x="543" y="-319.8" font-family="Helvetica,sans-Serif" font-size="11.00" fill="#000000">updated_at</text>
<polygon fill="none" stroke="#000000" points="645,-312.7 645,-334.7 729,-334.7 729,-312.7 645,-312.7"/>
<text text-anchor="start" x="647.8807" y="-320.4" font-family="Helvetica,sans-Serif" font-size="11.00" fill="#000000">timestamp[26,3]</text>
<polygon fill="none" stroke="#000000" points="523,-290.7 523,-312.7 645,-312.7 645,-290.7 523,-290.7"/>
<image xlink:href="../../images/primaryKeys.png" width="11px" height="12px" preserveAspectRatio="xMinYMin meet" x="528" y="-307.7"/>
<text text-anchor="start" x="543" y="-297.8" font-family="Helvetica,sans-Serif" font-size="11.00" fill="#000000">user_id</text>
<polygon fill="none" stroke="#000000" points="645,-290.7 645,-312.7 729,-312.7 729,-290.7 645,-290.7"/>
<text text-anchor="start" x="648" y="-298.4" font-family="Helvetica,sans-Serif" font-size="11.00" fill="#000000">int4[10]</text>
<polygon fill="none" stroke="#000000" points="523,-268.7 523,-290.7 645,-290.7 645,-268.7 523,-268.7"/>
<image xlink:href="../../images/primaryKeys.png" width="11px" height="12px" preserveAspectRatio="xMinYMin meet" x="528" y="-285.7"/>
<text text-anchor="start" x="543" y="-275.8" font-family="Helvetica,sans-Serif" font-size="11.00" fill="#000000">event_id</text>
<polygon fill="none" stroke="#000000" points="645,-268.7 645,-290.7 729,-290.7 729,-268.7 645,-268.7"/>
<text text-anchor="start" x="648" y="-276.4" font-family="Helvetica,sans-Serif" font-size="11.00" fill="#000000">int4[10]</text>
<polygon fill="none" stroke="#000000" points="523,-246.7 523,-268.7 645,-268.7 645,-246.7 523,-246.7"/>
<text text-anchor="start" x="543" y="-253.8" font-family="Helvetica,sans-Serif" font-size="11.00" fill="#000000">remind_at</text>
<polygon fill="none" stroke="#000000" points="645,-246.7 645,-268.7 729,-268.7 729,-246.7 645,-246.7"/>
<text text-anchor="start" x="647.8807" y="-254.4" font-family="Helvetica,sans-Serif" font-size="11.00" fill="#000000">timestamp[26,3]</text>
<polygon fill="none" stroke="#000000" points="523,-224.7 523,-246.7 645,-246.7 645,-224.7 523,-224.7"/>
<text text-anchor="start" x="543" y="-231.8" font-family="Helvetica,sans-Serif" font-size="11.00" fill="#000000">notifying</text>
<polygon fill="none" stroke="#000000" points="645,-224.7 645,-246.7 729,-246.7 729,-224.7 645,-224.7"/>
<text text-anchor="start" x="648" y="-232.4" font-family="Helvetica,sans-Serif" font-size="11.00" fill="#000000">bool[1]</text>
<polygon fill="#ffffff" stroke="transparent" points="523,-205.7 523,-224.7 575,-224.7 575,-205.7 523,-205.7"/>
<polygon fill="none" stroke="#000000" points="523,-205.7 523,-224.7 575,-224.7 575,-205.7 523,-205.7"/>
<text text-anchor="start" x="526" y="-211.8" font-family="Helvetica,sans-Serif" font-size="11.00" fill="#000000">&lt; 4</text>
<polygon fill="#ffffff" stroke="transparent" points="575,-205.7 575,-224.7 645,-224.7 645,-205.7 575,-205.7"/>
<polygon fill="none" stroke="#000000" points="575,-205.7 575,-224.7 645,-224.7 645,-205.7 575,-205.7"/>
<text text-anchor="start" x="609.6105" y="-211.8" font-family="Helvetica,sans-Serif" font-size="11.00" fill="#000000">0 rows</text>
<polygon fill="#ffffff" stroke="transparent" points="645,-205.7 645,-224.7 729,-224.7 729,-205.7 645,-205.7"/>
<polygon fill="none" stroke="#000000" points="645,-205.7 645,-224.7 729,-224.7 729,-205.7 645,-205.7"/>
<text text-anchor="start" x="710.4053" y="-211.8" font-family="Helvetica,sans-Serif" font-size="11.00" fill="#000000">0 &gt;</text>
<polygon fill="none" stroke="#000000" stroke-width="2" points="522,-204.7 522,-380.7 730,-380.7 730,-204.7 522,-204.7"/>
</a>
</g>
</g>
<!-- events -->
<g id="node2" class="node">
<title>events</title>
<g id="a_node2"><a xlink:href="../../tables/events.html" xlink:title="events" target="_top">
<polygon fill="#ffffff" stroke="transparent" points="176,-338.2 176,-465.2 280,-465.2 280,-338.2 176,-338.2"/>
<polygon fill="#f5f5f5" stroke="transparent" points="176,-441.7 176,-464.7 280,-464.7 280,-441.7 176,-441.7"/>
<polygon fill="none" stroke="#000000" points="176,-441.7 176,-464.7 280,-464.7 280,-441.7 176,-441.7"/>
<text text-anchor="start" x="181" y="-450.8" font-family="Helvetica,sans-Serif" font-weight="bold" font-size="11.00" fill="#000000">events</text>
<text text-anchor="start" x="245.0437" y="-449.8" font-family="Helvetica,sans-Serif" font-size="11.00" fill="#000000">[table]</text>
<polygon fill="none" stroke="#000000" points="176,-419.7 176,-441.7 280,-441.7 280,-419.7 176,-419.7"/>
<image xlink:href="../../images/primaryKeys.png" width="11px" height="12px" preserveAspectRatio="xMinYMin meet" x="181" y="-436.7"/>
<text text-anchor="start" x="196" y="-426.8" font-family="Helvetica,sans-Serif" font-size="11.00" fill="#000000">id</text>
<polygon fill="none" stroke="#000000" points="176,-397.7 176,-419.7 280,-419.7 280,-397.7 176,-397.7"/>
<image xlink:href="../../images/foreignKeys.png" width="11px" height="12px" preserveAspectRatio="xMinYMin meet" x="181" y="-414.7"/>
<text text-anchor="start" x="196" y="-404.8" font-family="Helvetica,sans-Serif" font-size="11.00" fill="#000000">venue_id</text>
<polygon fill="none" stroke="#000000" points="176,-375.7 176,-397.7 280,-397.7 280,-375.7 176,-375.7"/>
<image xlink:href="../../images/foreignKeys.png" width="11px" height="12px" preserveAspectRatio="xMinYMin meet" x="181" y="-392.7"/>
<text text-anchor="start" x="196" y="-382.8" font-family="Helvetica,sans-Serif" font-size="11.00" fill="#000000">chapter_id</text>
<polygon fill="none" stroke="#000000" points="176,-356.7 176,-375.7 280,-375.7 280,-356.7 176,-356.7"/>
<text text-anchor="start" x="179" y="-362.8" font-family="Helvetica,sans-Serif" font-size="11.00" fill="#000000">...</text>
<polygon fill="#ffffff" stroke="transparent" points="176,-337.7 176,-356.7 209,-356.7 209,-337.7 176,-337.7"/>
<polygon fill="none" stroke="#000000" points="176,-337.7 176,-356.7 209,-356.7 209,-337.7 176,-337.7"/>
<text text-anchor="start" x="179" y="-343.8" font-family="Helvetica,sans-Serif" font-size="11.00" fill="#000000">&lt; 2</text>
<polygon fill="#ffffff" stroke="transparent" points="209,-337.7 209,-356.7 253,-356.7 253,-337.7 209,-337.7"/>
<polygon fill="none" stroke="#000000" points="209,-337.7 209,-356.7 253,-356.7 253,-337.7 209,-337.7"/>
<text text-anchor="start" x="217.6105" y="-343.8" font-family="Helvetica,sans-Serif" font-size="11.00" fill="#000000">0 rows</text>
<polygon fill="#ffffff" stroke="transparent" points="253,-337.7 253,-356.7 280,-356.7 280,-337.7 253,-337.7"/>
<polygon fill="none" stroke="#000000" points="253,-337.7 253,-356.7 280,-356.7 280,-337.7 253,-337.7"/>
<text text-anchor="start" x="261.4053" y="-343.8" font-family="Helvetica,sans-Serif" font-size="11.00" fill="#000000">5 &gt;</text>
</a>
</g>
</g>
<!-- event_reminders&#45;&gt;events -->
<g id="edge1" class="edge">
<title>event_reminders:w&#45;&gt;events:e</title>
<path fill="none" stroke="#000000" d="M508.7157,-281.8512C466.9856,-297.1245 529.8926,-389.6517 480,-427.7 409.3109,-481.6079 368.8989,-430.7 280,-430.7"/>
<polygon fill="#000000" stroke="#000000" points="515.0892,-280.8914 523.5361,-283.2599 519.0446,-280.2957 523,-279.7 523,-279.7 523,-279.7 519.0446,-280.2957 522.4639,-276.1401 515.0892,-280.8914 515.0892,-280.8914"/>
<ellipse fill="none" stroke="#000000" cx="511.9249" cy="-281.368" rx="3.2" ry="3.2"/>
</g>
<!-- rsvps -->
<g id="node3" class="node">
<title>rsvps</title>
<g id="a_node3"><a xlink:href="../../tables/rsvps.html" xlink:title="rsvps" target="_top">
<polygon fill="#ffffff" stroke="transparent" points="353.5,-202.2 353.5,-307.2 453.5,-307.2 453.5,-202.2 353.5,-202.2"/>
<polygon fill="#f5f5f5" stroke="transparent" points="353.5,-283.7 353.5,-306.7 453.5,-306.7 453.5,-283.7 353.5,-283.7"/>
<polygon fill="none" stroke="#000000" points="353.5,-283.7 353.5,-306.7 453.5,-306.7 453.5,-283.7 353.5,-283.7"/>
<text text-anchor="start" x="358.5" y="-292.8" font-family="Helvetica,sans-Serif" font-weight="bold" font-size="11.00" fill="#000000">rsvps</text>
<text text-anchor="start" x="418.5437" y="-291.8" font-family="Helvetica,sans-Serif" font-size="11.00" fill="#000000">[table]</text>
<polygon fill="none" stroke="#000000" points="353.5,-261.7 353.5,-283.7 453.5,-283.7 453.5,-261.7 353.5,-261.7"/>
<image xlink:href="../../images/primaryKeys.png" width="11px" height="12px" preserveAspectRatio="xMinYMin meet" x="358.5" y="-278.7"/>
<text text-anchor="start" x="373.5" y="-268.8" font-family="Helvetica,sans-Serif" font-size="11.00" fill="#000000">user_id</text>
<polygon fill="none" stroke="#000000" points="353.5,-239.7 353.5,-261.7 453.5,-261.7 453.5,-239.7 353.5,-239.7"/>
<image xlink:href="../../images/primaryKeys.png" width="11px" height="12px" preserveAspectRatio="xMinYMin meet" x="358.5" y="-256.7"/>
<text text-anchor="start" x="373.5" y="-246.8" font-family="Helvetica,sans-Serif" font-size="11.00" fill="#000000">event_id</text>
<polygon fill="none" stroke="#000000" points="353.5,-220.7 353.5,-239.7 453.5,-239.7 453.5,-220.7 353.5,-220.7"/>
<text text-anchor="start" x="356.5" y="-226.8" font-family="Helvetica,sans-Serif" font-size="11.00" fill="#000000">...</text>
<polygon fill="#ffffff" stroke="transparent" points="353.5,-201.7 353.5,-220.7 384.5,-220.7 384.5,-201.7 353.5,-201.7"/>
<polygon fill="none" stroke="#000000" points="353.5,-201.7 353.5,-220.7 384.5,-220.7 384.5,-201.7 353.5,-201.7"/>
<text text-anchor="start" x="356.5" y="-207.8" font-family="Helvetica,sans-Serif" font-size="11.00" fill="#000000">&lt; 2</text>
<polygon fill="#ffffff" stroke="transparent" points="384.5,-201.7 384.5,-220.7 427.5,-220.7 427.5,-201.7 384.5,-201.7"/>
<polygon fill="none" stroke="#000000" points="384.5,-201.7 384.5,-220.7 427.5,-220.7 427.5,-201.7 384.5,-201.7"/>
<text text-anchor="start" x="392.1105" y="-207.8" font-family="Helvetica,sans-Serif" font-size="11.00" fill="#000000">0 rows</text>
<polygon fill="#ffffff" stroke="transparent" points="427.5,-201.7 427.5,-220.7 453.5,-220.7 453.5,-201.7 427.5,-201.7"/>
<polygon fill="none" stroke="#000000" points="427.5,-201.7 427.5,-220.7 453.5,-220.7 453.5,-201.7 427.5,-201.7"/>
<text text-anchor="start" x="434.9053" y="-207.8" font-family="Helvetica,sans-Serif" font-size="11.00" fill="#000000">2 &gt;</text>
</a>
</g>
</g>
<!-- event_reminders&#45;&gt;rsvps -->
<g id="edge2" class="edge">
<title>event_reminders:w&#45;&gt;rsvps:e</title>
<path fill="none" stroke="#000000" d="M508.7494,-277.6144C487.858,-270.965 481.4789,-250.7 453.5,-250.7"/>
<polygon fill="#000000" stroke="#000000" points="515.0843,-278.5415 522.4787,-283.2621 519.0422,-279.1207 523,-279.7 523,-279.7 523,-279.7 519.0422,-279.1207 523.5213,-276.1379 515.0843,-278.5415 515.0843,-278.5415"/>
<ellipse fill="none" stroke="#000000" cx="511.9181" cy="-278.0781" rx="3.2" ry="3.2"/>
</g>
<!-- event_reminders&#45;&gt;rsvps -->
<g id="edge3" class="edge">
<title>event_reminders:w&#45;&gt;rsvps:e</title>
<path fill="none" stroke="#000000" d="M508.7494,-299.6144C487.858,-292.965 481.4789,-272.7 453.5,-272.7"/>
<polygon fill="#000000" stroke="#000000" points="515.0843,-300.5415 522.4787,-305.2621 519.0422,-301.1207 523,-301.7 523,-301.7 523,-301.7 519.0422,-301.1207 523.5213,-298.1379 515.0843,-300.5415 515.0843,-300.5415"/>
<ellipse fill="none" stroke="#000000" cx="511.9181" cy="-300.0781" rx="3.2" ry="3.2"/>
</g>
<!-- users -->
<g id="node4" class="node">
<title>users</title>
<g id="a_node4"><a xlink:href="../../tables/users.html" xlink:title="users" target="_top">
<polygon fill="#ffffff" stroke="transparent" points="170,-180.2 170,-307.2 286,-307.2 286,-180.2 170,-180.2"/>
<polygon fill="#f5f5f5" stroke="transparent" points="170,-283.7 170,-306.7 286,-306.7 286,-283.7 170,-283.7"/>
<polygon fill="none" stroke="#000000" points="170,-283.7 170,-306.7 286,-306.7 286,-283.7 170,-283.7"/>
<text text-anchor="start" x="175" y="-292.8" font-family="Helvetica,sans-Serif" font-weight="bold" font-size="11.00" fill="#000000">users</text>
<text text-anchor="start" x="251.0437" y="-291.8" font-family="Helvetica,sans-Serif" font-size="11.00" fill="#000000">[table]</text>
<polygon fill="none" stroke="#000000" points="170,-261.7 170,-283.7 286,-283.7 286,-261.7 170,-261.7"/>
<image xlink:href="../../images/primaryKeys.png" width="11px" height="12px" preserveAspectRatio="xMinYMin meet" x="175" y="-278.7"/>
<text text-anchor="start" x="190" y="-268.8" font-family="Helvetica,sans-Serif" font-size="11.00" fill="#000000">id</text>
<polygon fill="#ffffff" stroke="transparent" points="170,-239.7 170,-261.7 286,-261.7 286,-239.7 170,-239.7"/>
<polygon fill="none" stroke="#000000" points="170,-239.7 170,-261.7 286,-261.7 286,-239.7 170,-239.7"/>
<text text-anchor="start" x="190" y="-246.8" font-family="Helvetica,sans-Serif" font-size="11.00" fill="#000000">email</text>
<polygon fill="none" stroke="#000000" points="170,-217.7 170,-239.7 286,-239.7 286,-217.7 170,-217.7"/>
<image xlink:href="../../images/foreignKeys.png" width="11px" height="12px" preserveAspectRatio="xMinYMin meet" x="175" y="-234.7"/>
<text text-anchor="start" x="190" y="-224.8" font-family="Helvetica,sans-Serif" font-size="11.00" fill="#000000">instance_role_id</text>
<polygon fill="none" stroke="#000000" points="170,-198.7 170,-217.7 286,-217.7 286,-198.7 170,-198.7"/>
<text text-anchor="start" x="173" y="-204.8" font-family="Helvetica,sans-Serif" font-size="11.00" fill="#000000">...</text>
<polygon fill="#ffffff" stroke="transparent" points="170,-179.7 170,-198.7 209,-198.7 209,-179.7 170,-179.7"/>
<polygon fill="none" stroke="#000000" points="170,-179.7 170,-198.7 209,-198.7 209,-179.7 170,-179.7"/>
<text text-anchor="start" x="173" y="-185.8" font-family="Helvetica,sans-Serif" font-size="11.00" fill="#000000">&lt; 1</text>
<polygon fill="#ffffff" stroke="transparent" points="209,-179.7 209,-198.7 256,-198.7 256,-179.7 209,-179.7"/>
<polygon fill="none" stroke="#000000" points="209,-179.7 209,-198.7 256,-198.7 256,-179.7 209,-179.7"/>
<text text-anchor="start" x="220.6105" y="-185.8" font-family="Helvetica,sans-Serif" font-size="11.00" fill="#000000">0 rows</text>
<polygon fill="#ffffff" stroke="transparent" points="256,-179.7 256,-198.7 286,-198.7 286,-179.7 256,-179.7"/>
<polygon fill="none" stroke="#000000" points="256,-179.7 256,-198.7 286,-198.7 286,-179.7 256,-179.7"/>
<text text-anchor="start" x="267.4053" y="-185.8" font-family="Helvetica,sans-Serif" font-size="11.00" fill="#000000">5 &gt;</text>
</a>
</g>
</g>
<!-- event_reminders&#45;&gt;users -->
<g id="edge4" class="edge">
<title>event_reminders:w&#45;&gt;users:e</title>
<path fill="none" stroke="#000000" d="M508.6333,-304.4216C499.5557,-308.2816 494.1108,-315.1598 480,-317.7 413.0757,-329.7475 389.2022,-345.1753 327,-317.7 302.2505,-306.7679 313.0564,-272.7 286,-272.7"/>
<polygon fill="#000000" stroke="#000000" points="515.1398,-303.189 523.6701,-305.2371 519.0699,-302.4445 523,-301.7 523,-301.7 523,-301.7 519.0699,-302.4445 522.3299,-298.1629 515.1398,-303.189 515.1398,-303.189"/>
<ellipse fill="none" stroke="#000000" cx="511.9957" cy="-303.7847" rx="3.2" ry="3.2"/>
</g>
<!-- chapters -->
<g id="node7" class="node">
<title>chapters</title>
<g id="a_node7"><a xlink:href="../../tables/chapters.html" xlink:title="chapters" target="_top">
<polygon fill="#ffffff" stroke="transparent" points="22,-119.2 22,-180.2 107,-180.2 107,-119.2 22,-119.2"/>
<polygon fill="#f5f5f5" stroke="transparent" points="22.5,-156.7 22.5,-179.7 107.5,-179.7 107.5,-156.7 22.5,-156.7"/>
<polygon fill="none" stroke="#000000" points="22.5,-156.7 22.5,-179.7 107.5,-179.7 107.5,-156.7 22.5,-156.7"/>
<text text-anchor="start" x="27.4108" y="-165.8" font-family="Helvetica,sans-Serif" font-weight="bold" font-size="11.00" fill="#000000">chapters</text>
<text text-anchor="start" x="73.0219" y="-164.8" font-family="Helvetica,sans-Serif" font-size="11.00" fill="#000000">[table]</text>
<polygon fill="none" stroke="#000000" points="22.5,-137.7 22.5,-156.7 107.5,-156.7 107.5,-137.7 22.5,-137.7"/>
<text text-anchor="start" x="25.5" y="-143.8" font-family="Helvetica,sans-Serif" font-size="11.00" fill="#000000">...</text>
<polygon fill="#ffffff" stroke="transparent" points="22.5,-118.7 22.5,-137.7 41.5,-137.7 41.5,-118.7 22.5,-118.7"/>
<polygon fill="none" stroke="#000000" points="22.5,-118.7 22.5,-137.7 41.5,-137.7 41.5,-118.7 22.5,-118.7"/>
<text text-anchor="start" x="25.5" y="-124.8" font-family="Helvetica,sans-Serif" font-size="11.00" fill="#000000"> &#160;</text>
<polygon fill="#ffffff" stroke="transparent" points="41.5,-118.7 41.5,-137.7 82.5,-137.7 82.5,-118.7 41.5,-118.7"/>
<polygon fill="none" stroke="#000000" points="41.5,-118.7 41.5,-137.7 82.5,-137.7 82.5,-118.7 41.5,-118.7"/>
<text text-anchor="start" x="47.1105" y="-124.8" font-family="Helvetica,sans-Serif" font-size="11.00" fill="#000000">0 rows</text>
<polygon fill="#ffffff" stroke="transparent" points="82.5,-118.7 82.5,-137.7 107.5,-137.7 107.5,-118.7 82.5,-118.7"/>
<polygon fill="none" stroke="#000000" points="82.5,-118.7 82.5,-137.7 107.5,-137.7 107.5,-118.7 82.5,-118.7"/>
<text text-anchor="start" x="88.9053" y="-124.8" font-family="Helvetica,sans-Serif" font-size="11.00" fill="#000000">3 &gt;</text>
</a>
</g>
</g>
<!-- events&#45;&gt;chapters -->
<g id="edge7" class="edge">
<title>events:w&#45;&gt;chapters:e</title>
<path fill="none" stroke="#000000" d="M161.5798,-385.0393C79.4195,-363.8347 213.01,-146.7 107.5,-146.7"/>
<polygon fill="#000000" stroke="#000000" points="168.0525,-385.7847 175.5881,-390.2764 172.0263,-386.2423 176,-386.7 176,-386.7 176,-386.7 172.0263,-386.2423 176.4119,-383.1236 168.0525,-385.7847 168.0525,-385.7847"/>
<ellipse fill="none" stroke="#000000" cx="164.8735" cy="-385.4185" rx="3.2" ry="3.2"/>
</g>
<!-- venues -->
<g id="node8" class="node">
<title>venues</title>
<g id="a_node8"><a xlink:href="../../tables/venues.html" xlink:title="venues" target="_top">
<polygon fill="#ffffff" stroke="transparent" points="25.5,-381.2 25.5,-442.2 103.5,-442.2 103.5,-381.2 25.5,-381.2"/>
<polygon fill="#f5f5f5" stroke="transparent" points="25.5,-418.7 25.5,-441.7 103.5,-441.7 103.5,-418.7 25.5,-418.7"/>
<polygon fill="none" stroke="#000000" points="25.5,-418.7 25.5,-441.7 103.5,-441.7 103.5,-418.7 25.5,-418.7"/>
<text text-anchor="start" x="30.2702" y="-427.8" font-family="Helvetica,sans-Serif" font-weight="bold" font-size="11.00" fill="#000000">venues</text>
<text text-anchor="start" x="69.0219" y="-426.8" font-family="Helvetica,sans-Serif" font-size="11.00" fill="#000000">[table]</text>
<polygon fill="none" stroke="#000000" points="25.5,-399.7 25.5,-418.7 103.5,-418.7 103.5,-399.7 25.5,-399.7"/>
<text text-anchor="start" x="28.5" y="-405.8" font-family="Helvetica,sans-Serif" font-size="11.00" fill="#000000">...</text>
<polygon fill="#ffffff" stroke="transparent" points="25.5,-380.7 25.5,-399.7 40.5,-399.7 40.5,-380.7 25.5,-380.7"/>
<polygon fill="none" stroke="#000000" points="25.5,-380.7 25.5,-399.7 40.5,-399.7 40.5,-380.7 25.5,-380.7"/>
<text text-anchor="start" x="28.5" y="-386.8" font-family="Helvetica,sans-Serif" font-size="11.00" fill="#000000"> &#160;</text>
<polygon fill="#ffffff" stroke="transparent" points="40.5,-380.7 40.5,-399.7 80.5,-399.7 80.5,-380.7 40.5,-380.7"/>
<polygon fill="none" stroke="#000000" points="40.5,-380.7 40.5,-399.7 80.5,-399.7 80.5,-380.7 40.5,-380.7"/>
<text text-anchor="start" x="45.1105" y="-386.8" font-family="Helvetica,sans-Serif" font-size="11.00" fill="#000000">0 rows</text>
<polygon fill="#ffffff" stroke="transparent" points="80.5,-380.7 80.5,-399.7 103.5,-399.7 103.5,-380.7 80.5,-380.7"/>
<polygon fill="none" stroke="#000000" points="80.5,-380.7 80.5,-399.7 103.5,-399.7 103.5,-380.7 80.5,-380.7"/>
<text text-anchor="start" x="84.9053" y="-386.8" font-family="Helvetica,sans-Serif" font-size="11.00" fill="#000000">1 &gt;</text>
</a>
</g>
</g>
<!-- events&#45;&gt;venues -->
<g id="edge8" class="edge">
<title>events:w&#45;&gt;venues:e</title>
<path fill="none" stroke="#000000" d="M161.5794,-408.7C140.3898,-408.7 130.3099,-408.7 103.5,-408.7"/>
<polygon fill="#000000" stroke="#000000" points="168,-408.7001 176,-412.3 172,-408.7 176,-408.7 176,-408.7 176,-408.7 172,-408.7 176,-405.1 168,-408.7001 168,-408.7001"/>
<ellipse fill="none" stroke="#000000" cx="164.8" cy="-408.7001" rx="3.2" ry="3.2"/>
</g>
<!-- rsvps&#45;&gt;events -->
<g id="edge9" class="edge">
<title>rsvps:w&#45;&gt;events:e</title>
<path fill="none" stroke="#000000" d="M339.0067,-252.8469C279.1196,-273.1554 360.8429,-430.7 280,-430.7"/>
<polygon fill="#000000" stroke="#000000" points="345.5863,-251.8723 354.0275,-254.2611 349.5432,-251.2861 353.5,-250.7 353.5,-250.7 353.5,-250.7 349.5432,-251.2861 352.9725,-247.1389 345.5863,-251.8723 345.5863,-251.8723"/>
<ellipse fill="none" stroke="#000000" cx="342.4209" cy="-252.3412" rx="3.2" ry="3.2"/>
</g>
<!-- rsvps&#45;&gt;users -->
<g id="edge10" class="edge">
<title>rsvps:w&#45;&gt;users:e</title>
<path fill="none" stroke="#000000" d="M338.9733,-272.7C319.9877,-272.7 310.4922,-272.7 286,-272.7"/>
<polygon fill="#000000" stroke="#000000" points="345.5,-272.7001 353.5,-276.3 349.5,-272.7 353.5,-272.7 353.5,-272.7 353.5,-272.7 349.5,-272.7 353.5,-269.1 345.5,-272.7001 345.5,-272.7001"/>
<ellipse fill="none" stroke="#000000" cx="342.3" cy="-272.7001" rx="3.2" ry="3.2"/>
</g>
<!-- instance_roles -->
<g id="node12" class="node">
<title>instance_roles</title>
<g id="a_node12"><a xlink:href="../../tables/instance_roles.html" xlink:title="instance_roles" target="_top">
<polygon fill="#ffffff" stroke="transparent" points="8,-201.2 8,-262.2 121,-262.2 121,-201.2 8,-201.2"/>
<polygon fill="#f5f5f5" stroke="transparent" points="8.5,-238.7 8.5,-261.7 121.5,-261.7 121.5,-238.7 8.5,-238.7"/>
<polygon fill="none" stroke="#000000" points="8.5,-238.7 8.5,-261.7 121.5,-261.7 121.5,-238.7 8.5,-238.7"/>
<text text-anchor="start" x="13.0476" y="-247.8" font-family="Helvetica,sans-Serif" font-weight="bold" font-size="11.00" fill="#000000">instance_roles</text>
<text text-anchor="start" x="87.0219" y="-246.8" font-family="Helvetica,sans-Serif" font-size="11.00" fill="#000000">[table]</text>
<polygon fill="none" stroke="#000000" points="8.5,-219.7 8.5,-238.7 121.5,-238.7 121.5,-219.7 8.5,-219.7"/>
<text text-anchor="start" x="11.5" y="-225.8" font-family="Helvetica,sans-Serif" font-size="11.00" fill="#000000">...</text>
<polygon fill="#ffffff" stroke="transparent" points="8.5,-200.7 8.5,-219.7 41.5,-219.7 41.5,-200.7 8.5,-200.7"/>
<polygon fill="none" stroke="#000000" points="8.5,-200.7 8.5,-219.7 41.5,-219.7 41.5,-200.7 8.5,-200.7"/>
<text text-anchor="start" x="11.5" y="-206.8" font-family="Helvetica,sans-Serif" font-size="11.00" fill="#000000"> &#160;</text>
<polygon fill="#ffffff" stroke="transparent" points="41.5,-200.7 41.5,-219.7 89.5,-219.7 89.5,-200.7 41.5,-200.7"/>
<polygon fill="none" stroke="#000000" points="41.5,-200.7 41.5,-219.7 89.5,-219.7 89.5,-200.7 41.5,-200.7"/>
<text text-anchor="start" x="54.1105" y="-206.8" font-family="Helvetica,sans-Serif" font-size="11.00" fill="#000000">0 rows</text>
<polygon fill="#ffffff" stroke="transparent" points="89.5,-200.7 89.5,-219.7 121.5,-219.7 121.5,-200.7 89.5,-200.7"/>
<polygon fill="none" stroke="#000000" points="89.5,-200.7 89.5,-219.7 121.5,-219.7 121.5,-200.7 89.5,-200.7"/>
<text text-anchor="start" x="102.9053" y="-206.8" font-family="Helvetica,sans-Serif" font-size="11.00" fill="#000000">2 &gt;</text>
</a>
</g>
</g>
<!-- users&#45;&gt;instance_roles -->
<g id="edge17" class="edge">
<title>users:w&#45;&gt;instance_roles:e</title>
<path fill="none" stroke="#000000" d="M155.2829,-228.7C144.2886,-228.7 137.1615,-228.7 121.5,-228.7"/>
<polygon fill="#000000" stroke="#000000" points="162,-228.7001 170,-232.3 166,-228.7 170,-228.7 170,-228.7 170,-228.7 166,-228.7 170,-225.1 162,-228.7001 162,-228.7001"/>
<ellipse fill="none" stroke="#000000" cx="158.8" cy="-228.7001" rx="3.2" ry="3.2"/>
</g>
<!-- event_sponsors -->
<g id="node5" class="node">
<title>event_sponsors</title>
<g id="a_node5"><a xlink:href="../../tables/event_sponsors.html" xlink:title="event_sponsors" target="_top">
<polygon fill="#ffffff" stroke="transparent" points="343.5,-466.2 343.5,-527.2 463.5,-527.2 463.5,-466.2 343.5,-466.2"/>
<polygon fill="#f5f5f5" stroke="transparent" points="343.5,-503.7 343.5,-526.7 463.5,-526.7 463.5,-503.7 343.5,-503.7"/>
<polygon fill="none" stroke="#000000" points="343.5,-503.7 343.5,-526.7 463.5,-526.7 463.5,-503.7 343.5,-503.7"/>
<text text-anchor="start" x="348.181" y="-512.8" font-family="Helvetica,sans-Serif" font-weight="bold" font-size="11.00" fill="#000000">event_sponsors</text>
<text text-anchor="start" x="429.0219" y="-511.8" font-family="Helvetica,sans-Serif" font-size="11.00" fill="#000000">[table]</text>
<polygon fill="none" stroke="#000000" points="343.5,-484.7 343.5,-503.7 463.5,-503.7 463.5,-484.7 343.5,-484.7"/>
<text text-anchor="start" x="346.5" y="-490.8" font-family="Helvetica,sans-Serif" font-size="11.00" fill="#000000">...</text>
<polygon fill="#ffffff" stroke="transparent" points="343.5,-465.7 343.5,-484.7 388.5,-484.7 388.5,-465.7 343.5,-465.7"/>
<polygon fill="none" stroke="#000000" points="343.5,-465.7 343.5,-484.7 388.5,-484.7 388.5,-465.7 343.5,-465.7"/>
<text text-anchor="start" x="346.5" y="-471.8" font-family="Helvetica,sans-Serif" font-size="11.00" fill="#000000">&lt; 2</text>
<polygon fill="#ffffff" stroke="transparent" points="388.5,-465.7 388.5,-484.7 438.5,-484.7 438.5,-465.7 388.5,-465.7"/>
<polygon fill="none" stroke="#000000" points="388.5,-465.7 388.5,-484.7 438.5,-484.7 438.5,-465.7 388.5,-465.7"/>
<text text-anchor="start" x="403.1105" y="-471.8" font-family="Helvetica,sans-Serif" font-size="11.00" fill="#000000">0 rows</text>
<polygon fill="#ffffff" stroke="transparent" points="438.5,-465.7 438.5,-484.7 463.5,-484.7 463.5,-465.7 438.5,-465.7"/>
<polygon fill="none" stroke="#000000" points="438.5,-465.7 438.5,-484.7 463.5,-484.7 463.5,-465.7 438.5,-465.7"/>
<text text-anchor="start" x="454.3862" y="-471.8" font-family="Helvetica,sans-Serif" font-size="11.00" fill="#000000"> &#160;</text>
</a>
</g>
</g>
<!-- event_sponsors&#45;&gt;events -->
<g id="edge5" class="edge">
<title>event_sponsors:w&#45;&gt;events:e</title>
<path fill="none" stroke="#000000" d="M329.4203,-490.1323C307.2078,-476.8051 314.0095,-430.7 280,-430.7"/>
<polygon fill="#000000" stroke="#000000" points="335.7451,-491.7349 342.6157,-497.1897 339.6225,-492.7175 343.5,-493.7 343.5,-493.7 343.5,-493.7 339.6225,-492.7175 344.3843,-490.2103 335.7451,-491.7349 335.7451,-491.7349"/>
<ellipse fill="none" stroke="#000000" cx="332.6431" cy="-490.9489" rx="3.2" ry="3.2"/>
</g>
<!-- event_tags -->
<g id="node6" class="node">
<title>event_tags</title>
<g id="a_node6"><a xlink:href="../../tables/event_tags.html" xlink:title="event_tags" target="_top">
<polygon fill="#ffffff" stroke="transparent" points="355.5,-548.2 355.5,-609.2 451.5,-609.2 451.5,-548.2 355.5,-548.2"/>
<polygon fill="#f5f5f5" stroke="transparent" points="355.5,-585.7 355.5,-608.7 451.5,-608.7 451.5,-585.7 355.5,-585.7"/>
<polygon fill="none" stroke="#000000" points="355.5,-585.7 355.5,-608.7 451.5,-608.7 451.5,-585.7 355.5,-585.7"/>
<text text-anchor="start" x="360.0984" y="-594.8" font-family="Helvetica,sans-Serif" font-weight="bold" font-size="11.00" fill="#000000">event_tags</text>
<text text-anchor="start" x="417.0219" y="-593.8" font-family="Helvetica,sans-Serif" font-size="11.00" fill="#000000">[table]</text>
<polygon fill="none" stroke="#000000" points="355.5,-566.7 355.5,-585.7 451.5,-585.7 451.5,-566.7 355.5,-566.7"/>
<text text-anchor="start" x="358.5" y="-572.8" font-family="Helvetica,sans-Serif" font-size="11.00" fill="#000000">...</text>
<polygon fill="#ffffff" stroke="transparent" points="355.5,-547.7 355.5,-566.7 388.5,-566.7 388.5,-547.7 355.5,-547.7"/>
<polygon fill="none" stroke="#000000" points="355.5,-547.7 355.5,-566.7 388.5,-566.7 388.5,-547.7 355.5,-547.7"/>
<text text-anchor="start" x="358.5" y="-553.8" font-family="Helvetica,sans-Serif" font-size="11.00" fill="#000000">&lt; 2</text>
<polygon fill="#ffffff" stroke="transparent" points="388.5,-547.7 388.5,-566.7 432.5,-566.7 432.5,-547.7 388.5,-547.7"/>
<polygon fill="none" stroke="#000000" points="388.5,-547.7 388.5,-566.7 432.5,-566.7 432.5,-547.7 388.5,-547.7"/>
<text text-anchor="start" x="397.1105" y="-553.8" font-family="Helvetica,sans-Serif" font-size="11.00" fill="#000000">0 rows</text>
<polygon fill="#ffffff" stroke="transparent" points="432.5,-547.7 432.5,-566.7 451.5,-566.7 451.5,-547.7 432.5,-547.7"/>
<polygon fill="none" stroke="#000000" points="432.5,-547.7 432.5,-566.7 451.5,-566.7 451.5,-547.7 432.5,-547.7"/>
<text text-anchor="start" x="442.3862" y="-553.8" font-family="Helvetica,sans-Serif" font-size="11.00" fill="#000000"> &#160;</text>
</a>
</g>
</g>
<!-- event_tags&#45;&gt;events -->
<g id="edge6" class="edge">
<title>event_tags:w&#45;&gt;events:e</title>
<path fill="none" stroke="#000000" d="M341.2507,-573.3042C292.652,-554.4515 347.1227,-430.7 280,-430.7"/>
<polygon fill="#000000" stroke="#000000" points="347.6107,-574.3735 354.9031,-579.2502 351.5554,-575.0368 355.5,-575.7 355.5,-575.7 355.5,-575.7 351.5554,-575.0368 356.0969,-572.1498 347.6107,-574.3735 347.6107,-574.3735"/>
<ellipse fill="none" stroke="#000000" cx="344.455" cy="-573.8429" rx="3.2" ry="3.2"/>
</g>
<!-- user_bans -->
<g id="node9" class="node">
<title>user_bans</title>
<g id="a_node9"><a xlink:href="../../tables/user_bans.html" xlink:title="user_bans" target="_top">
<polygon fill="#ffffff" stroke="transparent" points="356.5,-120.2 356.5,-181.2 450.5,-181.2 450.5,-120.2 356.5,-120.2"/>
<polygon fill="#f5f5f5" stroke="transparent" points="356.5,-157.7 356.5,-180.7 450.5,-180.7 450.5,-157.7 356.5,-157.7"/>
<polygon fill="none" stroke="#000000" points="356.5,-157.7 356.5,-180.7 450.5,-180.7 450.5,-157.7 356.5,-157.7"/>
<text text-anchor="start" x="361.3244" y="-166.8" font-family="Helvetica,sans-Serif" font-weight="bold" font-size="11.00" fill="#000000">user_bans</text>
<text text-anchor="start" x="416.0219" y="-165.8" font-family="Helvetica,sans-Serif" font-size="11.00" fill="#000000">[table]</text>
<polygon fill="none" stroke="#000000" points="356.5,-138.7 356.5,-157.7 450.5,-157.7 450.5,-138.7 356.5,-138.7"/>
<text text-anchor="start" x="359.5" y="-144.8" font-family="Helvetica,sans-Serif" font-size="11.00" fill="#000000">...</text>
<polygon fill="#ffffff" stroke="transparent" points="356.5,-119.7 356.5,-138.7 388.5,-138.7 388.5,-119.7 356.5,-119.7"/>
<polygon fill="none" stroke="#000000" points="356.5,-119.7 356.5,-138.7 388.5,-138.7 388.5,-119.7 356.5,-119.7"/>
<text text-anchor="start" x="359.5" y="-125.8" font-family="Helvetica,sans-Serif" font-size="11.00" fill="#000000">&lt; 2</text>
<polygon fill="#ffffff" stroke="transparent" points="388.5,-119.7 388.5,-138.7 432.5,-138.7 432.5,-119.7 388.5,-119.7"/>
<polygon fill="none" stroke="#000000" points="388.5,-119.7 388.5,-138.7 432.5,-138.7 432.5,-119.7 388.5,-119.7"/>
<text text-anchor="start" x="397.1105" y="-125.8" font-family="Helvetica,sans-Serif" font-size="11.00" fill="#000000">0 rows</text>
<polygon fill="#ffffff" stroke="transparent" points="432.5,-119.7 432.5,-138.7 450.5,-138.7 450.5,-119.7 432.5,-119.7"/>
<polygon fill="none" stroke="#000000" points="432.5,-119.7 432.5,-138.7 450.5,-138.7 450.5,-119.7 432.5,-119.7"/>
<text text-anchor="start" x="441.3862" y="-125.8" font-family="Helvetica,sans-Serif" font-size="11.00" fill="#000000"> &#160;</text>
</a>
</g>
</g>
<!-- user_bans&#45;&gt;users -->
<g id="edge12" class="edge">
<title>user_bans:w&#45;&gt;users:e</title>
<path fill="none" stroke="#000000" d="M342.3188,-150.4271C301.815,-168.7071 344.1765,-272.7 286,-272.7"/>
<polygon fill="#000000" stroke="#000000" points="348.6439,-149.2108 357.1798,-151.2352 352.572,-148.4554 356.5,-147.7 356.5,-147.7 356.5,-147.7 352.572,-148.4554 355.8202,-144.1648 348.6439,-149.2108 348.6439,-149.2108"/>
<ellipse fill="none" stroke="#000000" cx="345.5015" cy="-149.8151" rx="3.2" ry="3.2"/>
</g>
<!-- user_bans&#45;&gt;chapters -->
<g id="edge11" class="edge">
<title>user_bans:w&#45;&gt;chapters:e</title>
<path fill="none" stroke="#000000" d="M342.0733,-147.6941C243.1794,-147.6122 213.1962,-146.7 107.5,-146.7"/>
<polygon fill="#000000" stroke="#000000" points="348.5,-147.6967 356.4985,-151.3 352.5,-147.6983 356.5,-147.7 356.5,-147.7 356.5,-147.7 352.5,-147.6983 356.5015,-144.1 348.5,-147.6967 348.5,-147.6967"/>
<ellipse fill="none" stroke="#000000" cx="345.3" cy="-147.6954" rx="3.2" ry="3.2"/>
</g>
<!-- user_chapter_roles -->
<g id="node10" class="node">
<title>user_chapter_roles</title>
<g id="a_node10"><a xlink:href="../../tables/user_chapter_roles.html" xlink:title="user_chapter_roles" target="_top">
<polygon fill="#ffffff" stroke="transparent" points="335,-38.2 335,-99.2 472,-99.2 472,-38.2 335,-38.2"/>
<polygon fill="#f5f5f5" stroke="transparent" points="335.5,-75.7 335.5,-98.7 472.5,-98.7 472.5,-75.7 335.5,-75.7"/>
<polygon fill="none" stroke="#000000" points="335.5,-75.7 335.5,-98.7 472.5,-98.7 472.5,-75.7 335.5,-75.7"/>
<text text-anchor="start" x="340.4338" y="-84.8" font-family="Helvetica,sans-Serif" font-weight="bold" font-size="11.00" fill="#000000">user_chapter_roles</text>
<text text-anchor="start" x="438.0219" y="-83.8" font-family="Helvetica,sans-Serif" font-size="11.00" fill="#000000">[table]</text>
<polygon fill="none" stroke="#000000" points="335.5,-56.7 335.5,-75.7 472.5,-75.7 472.5,-56.7 335.5,-56.7"/>
<text text-anchor="start" x="338.5" y="-62.8" font-family="Helvetica,sans-Serif" font-size="11.00" fill="#000000">...</text>
<polygon fill="#ffffff" stroke="transparent" points="335.5,-37.7 335.5,-56.7 389.5,-56.7 389.5,-37.7 335.5,-37.7"/>
<polygon fill="none" stroke="#000000" points="335.5,-37.7 335.5,-56.7 389.5,-56.7 389.5,-37.7 335.5,-37.7"/>
<text text-anchor="start" x="338.5" y="-43.8" font-family="Helvetica,sans-Serif" font-size="11.00" fill="#000000">&lt; 2</text>
<polygon fill="#ffffff" stroke="transparent" points="389.5,-37.7 389.5,-56.7 443.5,-56.7 443.5,-37.7 389.5,-37.7"/>
<polygon fill="none" stroke="#000000" points="389.5,-37.7 389.5,-56.7 443.5,-56.7 443.5,-37.7 389.5,-37.7"/>
<text text-anchor="start" x="408.1105" y="-43.8" font-family="Helvetica,sans-Serif" font-size="11.00" fill="#000000">0 rows</text>
<polygon fill="#ffffff" stroke="transparent" points="443.5,-37.7 443.5,-56.7 472.5,-56.7 472.5,-37.7 443.5,-37.7"/>
<polygon fill="none" stroke="#000000" points="443.5,-37.7 443.5,-56.7 472.5,-56.7 472.5,-37.7 443.5,-37.7"/>
<text text-anchor="start" x="463.3862" y="-43.8" font-family="Helvetica,sans-Serif" font-size="11.00" fill="#000000"> &#160;</text>
</a>
</g>
</g>
<!-- user_chapter_roles&#45;&gt;users -->
<g id="edge14" class="edge">
<title>user_chapter_roles:w&#45;&gt;users:e</title>
<path fill="none" stroke="#000000" d="M321.1909,-67.7488C256.4714,-89.2471 375.0513,-272.7 286,-272.7"/>
<polygon fill="#000000" stroke="#000000" points="327.5808,-66.8339 336.0103,-69.2637 331.5404,-66.267 335.5,-65.7 335.5,-65.7 335.5,-65.7 331.5404,-66.267 334.9897,-62.1363 327.5808,-66.8339 327.5808,-66.8339"/>
<ellipse fill="none" stroke="#000000" cx="324.4131" cy="-67.2875" rx="3.2" ry="3.2"/>
</g>
<!-- user_chapter_roles&#45;&gt;chapters -->
<g id="edge13" class="edge">
<title>user_chapter_roles:w&#45;&gt;chapters:e</title>
<path fill="none" stroke="#000000" d="M320.9816,-66.2173C226.5424,-73.1158 209.9973,-146.7 107.5,-146.7"/>
<polygon fill="#000000" stroke="#000000" points="327.5051,-65.9849 335.6282,-69.2977 331.5025,-65.8424 335.5,-65.7 335.5,-65.7 335.5,-65.7 331.5025,-65.8424 335.3718,-62.1023 327.5051,-65.9849 327.5051,-65.9849"/>
<ellipse fill="none" stroke="#000000" cx="324.3071" cy="-66.0988" rx="3.2" ry="3.2"/>
</g>
<!-- user_event_roles -->
<g id="node11" class="node">
<title>user_event_roles</title>
<g id="a_node11"><a xlink:href="../../tables/user_event_roles.html" xlink:title="user_event_roles" target="_top">
<polygon fill="#ffffff" stroke="transparent" points="340,-356.2 340,-417.2 467,-417.2 467,-356.2 340,-356.2"/>
<polygon fill="#f5f5f5" stroke="transparent" points="340.5,-393.7 340.5,-416.7 467.5,-416.7 467.5,-393.7 340.5,-393.7"/>
<polygon fill="none" stroke="#000000" points="340.5,-393.7 340.5,-416.7 467.5,-416.7 467.5,-393.7 340.5,-393.7"/>
<text text-anchor="start" x="345.3222" y="-402.8" font-family="Helvetica,sans-Serif" font-weight="bold" font-size="11.00" fill="#000000">user_event_roles</text>
<text text-anchor="start" x="433.0219" y="-401.8" font-family="Helvetica,sans-Serif" font-size="11.00" fill="#000000">[table]</text>
<polygon fill="none" stroke="#000000" points="340.5,-374.7 340.5,-393.7 467.5,-393.7 467.5,-374.7 340.5,-374.7"/>
<text text-anchor="start" x="343.5" y="-380.8" font-family="Helvetica,sans-Serif" font-size="11.00" fill="#000000">...</text>
<polygon fill="#ffffff" stroke="transparent" points="340.5,-355.7 340.5,-374.7 389.5,-374.7 389.5,-355.7 340.5,-355.7"/>
<polygon fill="none" stroke="#000000" points="340.5,-355.7 340.5,-374.7 389.5,-374.7 389.5,-355.7 340.5,-355.7"/>
<text text-anchor="start" x="343.5" y="-361.8" font-family="Helvetica,sans-Serif" font-size="11.00" fill="#000000">&lt; 2</text>
<polygon fill="#ffffff" stroke="transparent" points="389.5,-355.7 389.5,-374.7 441.5,-374.7 441.5,-355.7 389.5,-355.7"/>
<polygon fill="none" stroke="#000000" points="389.5,-355.7 389.5,-374.7 441.5,-374.7 441.5,-355.7 389.5,-355.7"/>
<text text-anchor="start" x="406.1105" y="-361.8" font-family="Helvetica,sans-Serif" font-size="11.00" fill="#000000">0 rows</text>
<polygon fill="#ffffff" stroke="transparent" points="441.5,-355.7 441.5,-374.7 467.5,-374.7 467.5,-355.7 441.5,-355.7"/>
<polygon fill="none" stroke="#000000" points="441.5,-355.7 441.5,-374.7 467.5,-374.7 467.5,-355.7 441.5,-355.7"/>
<text text-anchor="start" x="458.3862" y="-361.8" font-family="Helvetica,sans-Serif" font-size="11.00" fill="#000000"> &#160;</text>
</a>
</g>
</g>
<!-- user_event_roles&#45;&gt;events -->
<g id="edge15" class="edge">
<title>user_event_roles:w&#45;&gt;events:e</title>
<path fill="none" stroke="#000000" d="M326.4727,-387.2326C307.8283,-398.163 308.3301,-430.7 280,-430.7"/>
<polygon fill="#000000" stroke="#000000" points="332.7422,-385.6538 341.3792,-387.191 336.6211,-384.6769 340.5,-383.7 340.5,-383.7 340.5,-383.7 336.6211,-384.6769 339.6208,-380.209 332.7422,-385.6538 332.7422,-385.6538"/>
<ellipse fill="none" stroke="#000000" cx="329.6391" cy="-386.4353" rx="3.2" ry="3.2"/>
</g>
<!-- user_event_roles&#45;&gt;users -->
<g id="edge16" class="edge">
<title>user_event_roles:w&#45;&gt;users:e</title>
<path fill="none" stroke="#000000" d="M326.139,-380.0068C296.3432,-360.7466 334.9479,-272.7 286,-272.7"/>
<polygon fill="#000000" stroke="#000000" points="332.7521,-381.7075 339.6034,-387.1866 336.626,-382.7037 340.5,-383.7 340.5,-383.7 340.5,-383.7 336.626,-382.7037 341.3966,-380.2134 332.7521,-381.7075 332.7521,-381.7075"/>
<ellipse fill="none" stroke="#000000" cx="329.6529" cy="-380.9104" rx="3.2" ry="3.2"/>
</g>
</g>
</svg>
