<?xml version="1.0" encoding="UTF-8" standalone="no"?>
<!DOCTYPE svg PUBLIC "-//W3C//DTD SVG 1.1//EN"
 "http://www.w3.org/Graphics/SVG/1.1/DTD/svg11.dtd">
<!-- Generated by graphviz version 2.40.1 (20161225.0304)
 -->
<!-- Title: oneDegreeRelationshipsDiagram Pages: 1 -->
<svg width="652pt" height="770pt"
 viewBox="0.00 0.00 652.00 770.20" xmlns="http://www.w3.org/2000/svg" xmlns:xlink="http://www.w3.org/1999/xlink">
<g id="graph0" class="graph" transform="scale(1 1) rotate(0) translate(4 766.2)">
<title>oneDegreeRelationshipsDiagram</title>
<polygon fill="#ffffff" stroke="transparent" points="-4,4 -4,-766.2 648,-766.2 648,4 -4,4"/>
<text text-anchor="middle" x="72.4936" y="-7.3" font-family="Helvetica,sans-Serif" font-size="11.00" fill="#000000">Generated by SchemaSpy</text>
<!-- event_sponsors -->
<g id="node1" class="node">
<title>event_sponsors</title>
<g id="a_node1"><a xlink:href="../../tables/event_sponsors.html" xlink:title="event_sponsors" target="_top">
<polygon fill="#ffffff" stroke="transparent" points="512.5,-631.2 512.5,-758.2 632.5,-758.2 632.5,-631.2 512.5,-631.2"/>
<polygon fill="#f5f5f5" stroke="transparent" points="512.5,-734.7 512.5,-757.7 632.5,-757.7 632.5,-734.7 512.5,-734.7"/>
<polygon fill="none" stroke="#000000" points="512.5,-734.7 512.5,-757.7 632.5,-757.7 632.5,-734.7 512.5,-734.7"/>
<text text-anchor="start" x="517.181" y="-743.8" font-family="Helvetica,sans-Serif" font-weight="bold" font-size="11.00" fill="#000000">event_sponsors</text>
<text text-anchor="start" x="598.0219" y="-742.8" font-family="Helvetica,sans-Serif" font-size="11.00" fill="#000000">[table]</text>
<polygon fill="none" stroke="#000000" points="512.5,-712.7 512.5,-734.7 632.5,-734.7 632.5,-712.7 512.5,-712.7"/>
<image xlink:href="../../images/primaryKeys.png" width="11px" height="12px" preserveAspectRatio="xMinYMin meet" x="517.5" y="-729.7"/>
<text text-anchor="start" x="536.5" y="-719.8" font-family="Helvetica,sans-Serif" font-size="11.00" fill="#000000">id</text>
<polygon fill="none" stroke="#000000" points="512.5,-690.7 512.5,-712.7 632.5,-712.7 632.5,-690.7 512.5,-690.7"/>
<image xlink:href="../../images/foreignKeys.png" width="11px" height="12px" preserveAspectRatio="xMinYMin meet" x="517.5" y="-707.7"/>
<text text-anchor="start" x="536.5" y="-697.8" font-family="Helvetica,sans-Serif" font-size="11.00" fill="#000000">sponsor_id</text>
<polygon fill="none" stroke="#000000" points="512.5,-668.7 512.5,-690.7 632.5,-690.7 632.5,-668.7 512.5,-668.7"/>
<image xlink:href="../../images/foreignKeys.png" width="11px" height="12px" preserveAspectRatio="xMinYMin meet" x="517.5" y="-685.7"/>
<text text-anchor="start" x="536.5" y="-675.8" font-family="Helvetica,sans-Serif" font-size="11.00" fill="#000000">event_id</text>
<polygon fill="none" stroke="#000000" points="512.5,-649.7 512.5,-668.7 632.5,-668.7 632.5,-649.7 512.5,-649.7"/>
<text text-anchor="start" x="515.5" y="-655.8" font-family="Helvetica,sans-Serif" font-size="11.00" fill="#000000">...</text>
<polygon fill="#ffffff" stroke="transparent" points="512.5,-630.7 512.5,-649.7 557.5,-649.7 557.5,-630.7 512.5,-630.7"/>
<polygon fill="none" stroke="#000000" points="512.5,-630.7 512.5,-649.7 557.5,-649.7 557.5,-630.7 512.5,-630.7"/>
<text text-anchor="start" x="515.5" y="-636.8" font-family="Helvetica,sans-Serif" font-size="11.00" fill="#000000">&lt; 2</text>
<polygon fill="#ffffff" stroke="transparent" points="557.5,-630.7 557.5,-649.7 607.5,-649.7 607.5,-630.7 557.5,-630.7"/>
<polygon fill="none" stroke="#000000" points="557.5,-630.7 557.5,-649.7 607.5,-649.7 607.5,-630.7 557.5,-630.7"/>
<text text-anchor="start" x="572.1105" y="-636.8" font-family="Helvetica,sans-Serif" font-size="11.00" fill="#000000">0 rows</text>
<polygon fill="#ffffff" stroke="transparent" points="607.5,-630.7 607.5,-649.7 632.5,-649.7 632.5,-630.7 607.5,-630.7"/>
<polygon fill="none" stroke="#000000" points="607.5,-630.7 607.5,-649.7 632.5,-649.7 632.5,-630.7 607.5,-630.7"/>
<text text-anchor="start" x="623.3862" y="-636.8" font-family="Helvetica,sans-Serif" font-size="11.00" fill="#000000"> &#160;</text>
</a>
</g>
</g>
<!-- events -->
<g id="node2" class="node">
<title>events</title>
<g id="a_node2"><a xlink:href="../../tables/events.html" xlink:title="events" target="_top">
<polygon fill="#ffffff" stroke="transparent" points="165,-117.7 165,-515.7 460,-515.7 460,-117.7 165,-117.7"/>
<polygon fill="#f5f5f5" stroke="transparent" points="167.5,-490.7 167.5,-513.7 458.5,-513.7 458.5,-490.7 167.5,-490.7"/>
<polygon fill="none" stroke="#000000" points="167.5,-490.7 167.5,-513.7 458.5,-513.7 458.5,-490.7 167.5,-490.7"/>
<text text-anchor="start" x="172.5" y="-499.8" font-family="Helvetica,sans-Serif" font-weight="bold" font-size="11.00" fill="#000000">events</text>
<text text-anchor="start" x="423.5437" y="-498.8" font-family="Helvetica,sans-Serif" font-size="11.00" fill="#000000">[table]</text>
<polygon fill="none" stroke="#000000" points="167.5,-468.7 167.5,-490.7 256.5,-490.7 256.5,-468.7 167.5,-468.7"/>
<image xlink:href="../../images/primaryKeys.png" width="11px" height="12px" preserveAspectRatio="xMinYMin meet" x="172.5" y="-485.7"/>
<text text-anchor="start" x="187.5" y="-475.8" font-family="Helvetica,sans-Serif" font-size="11.00" fill="#000000">id</text>
<polygon fill="none" stroke="#000000" points="256.5,-468.7 256.5,-490.7 458.5,-490.7 458.5,-468.7 256.5,-468.7"/>
<text text-anchor="start" x="259.5" y="-476.4" font-family="Helvetica,sans-Serif" font-size="11.00" fill="#000000">serial[10]</text>
<polygon fill="none" stroke="#000000" points="167.5,-446.7 167.5,-468.7 256.5,-468.7 256.5,-446.7 167.5,-446.7"/>
<text text-anchor="start" x="187.5" y="-453.8" font-family="Helvetica,sans-Serif" font-size="11.00" fill="#000000">created_at</text>
<polygon fill="none" stroke="#000000" points="256.5,-446.7 256.5,-468.7 458.5,-468.7 458.5,-446.7 256.5,-446.7"/>
<text text-anchor="start" x="259.5" y="-454.4" font-family="Helvetica,sans-Serif" font-size="11.00" fill="#000000">timestamp[29,6]</text>
<polygon fill="none" stroke="#000000" points="167.5,-424.7 167.5,-446.7 256.5,-446.7 256.5,-424.7 167.5,-424.7"/>
<text text-anchor="start" x="187.5" y="-431.8" font-family="Helvetica,sans-Serif" font-size="11.00" fill="#000000">updated_at</text>
<polygon fill="none" stroke="#000000" points="256.5,-424.7 256.5,-446.7 458.5,-446.7 458.5,-424.7 256.5,-424.7"/>
<text text-anchor="start" x="259.5" y="-432.4" font-family="Helvetica,sans-Serif" font-size="11.00" fill="#000000">timestamp[29,6]</text>
<polygon fill="none" stroke="#000000" points="167.5,-402.7 167.5,-424.7 256.5,-424.7 256.5,-402.7 167.5,-402.7"/>
<text text-anchor="start" x="187.5" y="-409.8" font-family="Helvetica,sans-Serif" font-size="11.00" fill="#000000">name</text>
<polygon fill="none" stroke="#000000" points="256.5,-402.7 256.5,-424.7 458.5,-424.7 458.5,-402.7 256.5,-402.7"/>
<text text-anchor="start" x="259.5" y="-410.4" font-family="Helvetica,sans-Serif" font-size="11.00" fill="#000000">varchar[2147483647]</text>
<polygon fill="none" stroke="#000000" points="167.5,-380.7 167.5,-402.7 256.5,-402.7 256.5,-380.7 167.5,-380.7"/>
<text text-anchor="start" x="187.5" y="-387.8" font-family="Helvetica,sans-Serif" font-size="11.00" fill="#000000">description</text>
<polygon fill="none" stroke="#000000" points="256.5,-380.7 256.5,-402.7 458.5,-402.7 458.5,-380.7 256.5,-380.7"/>
<text text-anchor="start" x="259.5" y="-388.4" font-family="Helvetica,sans-Serif" font-size="11.00" fill="#000000">varchar[2147483647]</text>
<polygon fill="none" stroke="#000000" points="167.5,-358.7 167.5,-380.7 256.5,-380.7 256.5,-358.7 167.5,-358.7"/>
<text text-anchor="start" x="187.5" y="-365.8" font-family="Helvetica,sans-Serif" font-size="11.00" fill="#000000">url</text>
<polygon fill="none" stroke="#000000" points="256.5,-358.7 256.5,-380.7 458.5,-380.7 458.5,-358.7 256.5,-358.7"/>
<text text-anchor="start" x="259.5" y="-366.4" font-family="Helvetica,sans-Serif" font-size="11.00" fill="#000000">varchar[2147483647]</text>
<polygon fill="none" stroke="#000000" points="167.5,-336.7 167.5,-358.7 256.5,-358.7 256.5,-336.7 167.5,-336.7"/>
<text text-anchor="start" x="187.5" y="-343.8" font-family="Helvetica,sans-Serif" font-size="11.00" fill="#000000">video_url</text>
<polygon fill="none" stroke="#000000" points="256.5,-336.7 256.5,-358.7 458.5,-358.7 458.5,-336.7 256.5,-336.7"/>
<text text-anchor="start" x="259.5" y="-344.4" font-family="Helvetica,sans-Serif" font-size="11.00" fill="#000000">varchar[2147483647]</text>
<polygon fill="none" stroke="#000000" points="167.5,-314.7 167.5,-336.7 256.5,-336.7 256.5,-314.7 167.5,-314.7"/>
<text text-anchor="start" x="187.5" y="-321.8" font-family="Helvetica,sans-Serif" font-size="11.00" fill="#000000">venue_type</text>
<polygon fill="none" stroke="#000000" points="256.5,-314.7 256.5,-336.7 458.5,-336.7 458.5,-314.7 256.5,-314.7"/>
<text text-anchor="start" x="259.369" y="-322.4" font-family="Helvetica,sans-Serif" font-size="11.00" fill="#000000">events_venue_type_enum[2147483647]</text>
<polygon fill="none" stroke="#000000" points="167.5,-292.7 167.5,-314.7 256.5,-314.7 256.5,-292.7 167.5,-292.7"/>
<text text-anchor="start" x="187.5" y="-299.8" font-family="Helvetica,sans-Serif" font-size="11.00" fill="#000000">start_at</text>
<polygon fill="none" stroke="#000000" points="256.5,-292.7 256.5,-314.7 458.5,-314.7 458.5,-292.7 256.5,-292.7"/>
<text text-anchor="start" x="259.5" y="-300.4" font-family="Helvetica,sans-Serif" font-size="11.00" fill="#000000">timestamp[29,6]</text>
<polygon fill="none" stroke="#000000" points="167.5,-270.7 167.5,-292.7 256.5,-292.7 256.5,-270.7 167.5,-270.7"/>
<text text-anchor="start" x="187.5" y="-277.8" font-family="Helvetica,sans-Serif" font-size="11.00" fill="#000000">ends_at</text>
<polygon fill="none" stroke="#000000" points="256.5,-270.7 256.5,-292.7 458.5,-292.7 458.5,-270.7 256.5,-270.7"/>
<text text-anchor="start" x="259.5" y="-278.4" font-family="Helvetica,sans-Serif" font-size="11.00" fill="#000000">timestamp[29,6]</text>
<polygon fill="none" stroke="#000000" points="167.5,-248.7 167.5,-270.7 256.5,-270.7 256.5,-248.7 167.5,-248.7"/>
<text text-anchor="start" x="187.5" y="-255.8" font-family="Helvetica,sans-Serif" font-size="11.00" fill="#000000">canceled</text>
<polygon fill="none" stroke="#000000" points="256.5,-248.7 256.5,-270.7 458.5,-270.7 458.5,-248.7 256.5,-248.7"/>
<text text-anchor="start" x="259.5" y="-256.4" font-family="Helvetica,sans-Serif" font-size="11.00" fill="#000000">bool[1]</text>
<polygon fill="none" stroke="#000000" points="167.5,-226.7 167.5,-248.7 256.5,-248.7 256.5,-226.7 167.5,-226.7"/>
<text text-anchor="start" x="187.5" y="-233.8" font-family="Helvetica,sans-Serif" font-size="11.00" fill="#000000">capacity</text>
<polygon fill="none" stroke="#000000" points="256.5,-226.7 256.5,-248.7 458.5,-248.7 458.5,-226.7 256.5,-226.7"/>
<text text-anchor="start" x="259.5" y="-234.4" font-family="Helvetica,sans-Serif" font-size="11.00" fill="#000000">int4[10]</text>
<polygon fill="none" stroke="#000000" points="167.5,-204.7 167.5,-226.7 256.5,-226.7 256.5,-204.7 167.5,-204.7"/>
<text text-anchor="start" x="187.5" y="-211.8" font-family="Helvetica,sans-Serif" font-size="11.00" fill="#000000">invite_only</text>
<polygon fill="none" stroke="#000000" points="256.5,-204.7 256.5,-226.7 458.5,-226.7 458.5,-204.7 256.5,-204.7"/>
<text text-anchor="start" x="259.5" y="-212.4" font-family="Helvetica,sans-Serif" font-size="11.00" fill="#000000">bool[1]</text>
<polygon fill="none" stroke="#000000" points="167.5,-182.7 167.5,-204.7 256.5,-204.7 256.5,-182.7 167.5,-182.7"/>
<text text-anchor="start" x="187.5" y="-189.8" font-family="Helvetica,sans-Serif" font-size="11.00" fill="#000000">image_url</text>
<polygon fill="none" stroke="#000000" points="256.5,-182.7 256.5,-204.7 458.5,-204.7 458.5,-182.7 256.5,-182.7"/>
<text text-anchor="start" x="259.5" y="-190.4" font-family="Helvetica,sans-Serif" font-size="11.00" fill="#000000">varchar[2147483647]</text>
<polygon fill="none" stroke="#000000" points="167.5,-160.7 167.5,-182.7 256.5,-182.7 256.5,-160.7 167.5,-160.7"/>
<image xlink:href="../../images/foreignKeys.png" width="11px" height="12px" preserveAspectRatio="xMinYMin meet" x="172.5" y="-177.7"/>
<text text-anchor="start" x="187.5" y="-167.8" font-family="Helvetica,sans-Serif" font-size="11.00" fill="#000000">venue_id</text>
<polygon fill="none" stroke="#000000" points="256.5,-160.7 256.5,-182.7 458.5,-182.7 458.5,-160.7 256.5,-160.7"/>
<text text-anchor="start" x="259.5" y="-168.4" font-family="Helvetica,sans-Serif" font-size="11.00" fill="#000000">int4[10]</text>
<polygon fill="none" stroke="#000000" points="167.5,-138.7 167.5,-160.7 256.5,-160.7 256.5,-138.7 167.5,-138.7"/>
<image xlink:href="../../images/foreignKeys.png" width="11px" height="12px" preserveAspectRatio="xMinYMin meet" x="172.5" y="-155.7"/>
<text text-anchor="start" x="187.5" y="-145.8" font-family="Helvetica,sans-Serif" font-size="11.00" fill="#000000">chapter_id</text>
<polygon fill="none" stroke="#000000" points="256.5,-138.7 256.5,-160.7 458.5,-160.7 458.5,-138.7 256.5,-138.7"/>
<text text-anchor="start" x="259.5" y="-146.4" font-family="Helvetica,sans-Serif" font-size="11.00" fill="#000000">int4[10]</text>
<polygon fill="#ffffff" stroke="transparent" points="167.5,-119.7 167.5,-138.7 203.5,-138.7 203.5,-119.7 167.5,-119.7"/>
<polygon fill="none" stroke="#000000" points="167.5,-119.7 167.5,-138.7 203.5,-138.7 203.5,-119.7 167.5,-119.7"/>
<text text-anchor="start" x="170.5" y="-125.8" font-family="Helvetica,sans-Serif" font-size="11.00" fill="#000000">&lt; 2</text>
<polygon fill="#ffffff" stroke="transparent" points="203.5,-119.7 203.5,-138.7 256.5,-138.7 256.5,-119.7 203.5,-119.7"/>
<polygon fill="none" stroke="#000000" points="203.5,-119.7 203.5,-138.7 256.5,-138.7 256.5,-119.7 203.5,-119.7"/>
<text text-anchor="start" x="221.1105" y="-125.8" font-family="Helvetica,sans-Serif" font-size="11.00" fill="#000000">0 rows</text>
<polygon fill="#ffffff" stroke="transparent" points="256.5,-119.7 256.5,-138.7 458.5,-138.7 458.5,-119.7 256.5,-119.7"/>
<polygon fill="none" stroke="#000000" points="256.5,-119.7 256.5,-138.7 458.5,-138.7 458.5,-119.7 256.5,-119.7"/>
<text text-anchor="start" x="439.9053" y="-125.8" font-family="Helvetica,sans-Serif" font-size="11.00" fill="#000000">4 &gt;</text>
<polygon fill="none" stroke="#000000" stroke-width="2" points="166,-118.7 166,-514.7 459,-514.7 459,-118.7 166,-118.7"/>
</a>
</g>
</g>
<!-- event_sponsors&#45;&gt;events -->
<g id="edge1" class="edge">
<title>event_sponsors:w&#45;&gt;events:e</title>
<path fill="none" stroke="#000000" d="M498.1212,-677.5892C435.3731,-656.2144 544.9972,-479.7 458.5,-479.7"/>
<polygon fill="#000000" stroke="#000000" points="504.5848,-678.538 511.9771,-683.2618 508.5424,-679.119 512.5,-679.7 512.5,-679.7 512.5,-679.7 508.5424,-679.119 513.0229,-676.1382 504.5848,-678.538 504.5848,-678.538"/>
<ellipse fill="none" stroke="#000000" cx="501.4188" cy="-678.0732" rx="3.2" ry="3.2"/>
</g>
<!-- chapters -->
<g id="node3" class="node">
<title>chapters</title>
<g id="a_node3"><a xlink:href="../../tables/chapters.html" xlink:title="chapters" target="_top">
<polygon fill="#ffffff" stroke="transparent" points="18,-38.2 18,-143.2 106,-143.2 106,-38.2 18,-38.2"/>
<polygon fill="#f5f5f5" stroke="transparent" points="18,-119.7 18,-142.7 106,-142.7 106,-119.7 18,-119.7"/>
<polygon fill="none" stroke="#000000" points="18,-119.7 18,-142.7 106,-142.7 106,-119.7 18,-119.7"/>
<text text-anchor="start" x="23" y="-128.8" font-family="Helvetica,sans-Serif" font-weight="bold" font-size="11.00" fill="#000000">chapters</text>
<text text-anchor="start" x="71.0437" y="-127.8" font-family="Helvetica,sans-Serif" font-size="11.00" fill="#000000">[table]</text>
<polygon fill="none" stroke="#000000" points="18,-97.7 18,-119.7 106,-119.7 106,-97.7 18,-97.7"/>
<image xlink:href="../../images/primaryKeys.png" width="11px" height="12px" preserveAspectRatio="xMinYMin meet" x="23" y="-114.7"/>
<text text-anchor="start" x="38" y="-104.8" font-family="Helvetica,sans-Serif" font-size="11.00" fill="#000000">id</text>
<polygon fill="none" stroke="#000000" points="18,-75.7 18,-97.7 106,-97.7 106,-75.7 18,-75.7"/>
<image xlink:href="../../images/foreignKeys.png" width="11px" height="12px" preserveAspectRatio="xMinYMin meet" x="23" y="-92.7"/>
<text text-anchor="start" x="38" y="-82.8" font-family="Helvetica,sans-Serif" font-size="11.00" fill="#000000">creator_id</text>
<polygon fill="none" stroke="#000000" points="18,-56.7 18,-75.7 106,-75.7 106,-56.7 18,-56.7"/>
<text text-anchor="start" x="21" y="-62.8" font-family="Helvetica,sans-Serif" font-size="11.00" fill="#000000">...</text>
<polygon fill="#ffffff" stroke="transparent" points="18,-37.7 18,-56.7 43,-56.7 43,-37.7 18,-37.7"/>
<polygon fill="none" stroke="#000000" points="18,-37.7 18,-56.7 43,-56.7 43,-37.7 18,-37.7"/>
<text text-anchor="start" x="21" y="-43.8" font-family="Helvetica,sans-Serif" font-size="11.00" fill="#000000">&lt; 1</text>
<polygon fill="#ffffff" stroke="transparent" points="43,-37.7 43,-56.7 83,-56.7 83,-37.7 43,-37.7"/>
<polygon fill="none" stroke="#000000" points="43,-37.7 43,-56.7 83,-56.7 83,-37.7 43,-37.7"/>
<text text-anchor="start" x="47.6105" y="-43.8" font-family="Helvetica,sans-Serif" font-size="11.00" fill="#000000">0 rows</text>
<polygon fill="#ffffff" stroke="transparent" points="83,-37.7 83,-56.7 106,-56.7 106,-37.7 83,-37.7"/>
<polygon fill="none" stroke="#000000" points="83,-37.7 83,-56.7 106,-56.7 106,-37.7 83,-37.7"/>
<text text-anchor="start" x="87.4053" y="-43.8" font-family="Helvetica,sans-Serif" font-size="11.00" fill="#000000">3 &gt;</text>
</a>
</g>
</g>
<!-- events&#45;&gt;chapters -->
<g id="edge2" class="edge">
<title>events:w&#45;&gt;chapters:e</title>
<path fill="none" stroke="#000000" d="M153.2086,-146.3448C134.9815,-136.5528 133.0761,-108.7 106,-108.7"/>
<polygon fill="#000000" stroke="#000000" points="159.7118,-147.8715 166.6772,-153.2047 163.6059,-148.7858 167.5,-149.7 167.5,-149.7 167.5,-149.7 163.6059,-148.7858 168.3228,-146.1953 159.7118,-147.8715 159.7118,-147.8715"/>
<ellipse fill="none" stroke="#000000" cx="156.5965" cy="-147.1401" rx="3.2" ry="3.2"/>
</g>
<!-- venues -->
<g id="node4" class="node">
<title>venues</title>
<g id="a_node4"><a xlink:href="../../tables/venues.html" xlink:title="venues" target="_top">
<polygon fill="#ffffff" stroke="transparent" points="8,-164.2 8,-247.2 116,-247.2 116,-164.2 8,-164.2"/>
<polygon fill="#f5f5f5" stroke="transparent" points="8,-223.7 8,-246.7 116,-246.7 116,-223.7 8,-223.7"/>
<polygon fill="none" stroke="#000000" points="8,-223.7 8,-246.7 116,-246.7 116,-223.7 8,-223.7"/>
<text text-anchor="start" x="13" y="-232.8" font-family="Helvetica,sans-Serif" font-weight="bold" font-size="11.00" fill="#000000">venues</text>
<text text-anchor="start" x="81.0437" y="-231.8" font-family="Helvetica,sans-Serif" font-size="11.00" fill="#000000">[table]</text>
<polygon fill="none" stroke="#000000" points="8,-201.7 8,-223.7 116,-223.7 116,-201.7 8,-201.7"/>
<image xlink:href="../../images/primaryKeys.png" width="11px" height="12px" preserveAspectRatio="xMinYMin meet" x="13" y="-218.7"/>
<text text-anchor="start" x="28" y="-208.8" font-family="Helvetica,sans-Serif" font-size="11.00" fill="#000000">id</text>
<polygon fill="none" stroke="#000000" points="8,-182.7 8,-201.7 116,-201.7 116,-182.7 8,-182.7"/>
<text text-anchor="start" x="11" y="-188.8" font-family="Helvetica,sans-Serif" font-size="11.00" fill="#000000">...</text>
<polygon fill="#ffffff" stroke="transparent" points="8,-163.7 8,-182.7 38,-182.7 38,-163.7 8,-163.7"/>
<polygon fill="none" stroke="#000000" points="8,-163.7 8,-182.7 38,-182.7 38,-163.7 8,-163.7"/>
<text text-anchor="start" x="11" y="-169.8" font-family="Helvetica,sans-Serif" font-size="11.00" fill="#000000"> &#160;</text>
<polygon fill="#ffffff" stroke="transparent" points="38,-163.7 38,-182.7 85,-182.7 85,-163.7 38,-163.7"/>
<polygon fill="none" stroke="#000000" points="38,-163.7 38,-182.7 85,-182.7 85,-163.7 38,-163.7"/>
<text text-anchor="start" x="49.6105" y="-169.8" font-family="Helvetica,sans-Serif" font-size="11.00" fill="#000000">0 rows</text>
<polygon fill="#ffffff" stroke="transparent" points="85,-163.7 85,-182.7 116,-182.7 116,-163.7 85,-163.7"/>
<polygon fill="none" stroke="#000000" points="85,-163.7 85,-182.7 116,-182.7 116,-163.7 85,-163.7"/>
<text text-anchor="start" x="97.4053" y="-169.8" font-family="Helvetica,sans-Serif" font-size="11.00" fill="#000000">1 &gt;</text>
</a>
</g>
</g>
<!-- events&#45;&gt;venues -->
<g id="edge3" class="edge">
<title>events:w&#45;&gt;venues:e</title>
<path fill="none" stroke="#000000" d="M153.5533,-176.0877C139.596,-186.6646 139.3139,-212.7 116,-212.7"/>
<polygon fill="#000000" stroke="#000000" points="159.8687,-174.1009 168.5804,-175.1341 163.6844,-172.9004 167.5,-171.7 167.5,-171.7 167.5,-171.7 163.6844,-172.9004 166.4196,-168.2659 159.8687,-174.1009 159.8687,-174.1009"/>
<ellipse fill="none" stroke="#000000" cx="156.8162" cy="-175.0612" rx="3.2" ry="3.2"/>
</g>
<!-- rsvps -->
<g id="node5" class="node">
<title>rsvps</title>
<g id="a_node5"><a xlink:href="../../tables/rsvps.html" xlink:title="rsvps" target="_top">
<polygon fill="#ffffff" stroke="transparent" points="522.5,-483.2 522.5,-610.2 622.5,-610.2 622.5,-483.2 522.5,-483.2"/>
<polygon fill="#f5f5f5" stroke="transparent" points="522.5,-586.7 522.5,-609.7 622.5,-609.7 622.5,-586.7 522.5,-586.7"/>
<polygon fill="none" stroke="#000000" points="522.5,-586.7 522.5,-609.7 622.5,-609.7 622.5,-586.7 522.5,-586.7"/>
<text text-anchor="start" x="527.5" y="-595.8" font-family="Helvetica,sans-Serif" font-weight="bold" font-size="11.00" fill="#000000">rsvps</text>
<text text-anchor="start" x="587.5437" y="-594.8" font-family="Helvetica,sans-Serif" font-size="11.00" fill="#000000">[table]</text>
<polygon fill="none" stroke="#000000" points="522.5,-564.7 522.5,-586.7 622.5,-586.7 622.5,-564.7 522.5,-564.7"/>
<image xlink:href="../../images/primaryKeys.png" width="11px" height="12px" preserveAspectRatio="xMinYMin meet" x="527.5" y="-581.7"/>
<text text-anchor="start" x="542.5" y="-571.8" font-family="Helvetica,sans-Serif" font-size="11.00" fill="#000000">id</text>
<polygon fill="none" stroke="#000000" points="522.5,-542.7 522.5,-564.7 622.5,-564.7 622.5,-542.7 522.5,-542.7"/>
<image xlink:href="../../images/foreignKeys.png" width="11px" height="12px" preserveAspectRatio="xMinYMin meet" x="527.5" y="-559.7"/>
<text text-anchor="start" x="542.5" y="-549.8" font-family="Helvetica,sans-Serif" font-size="11.00" fill="#000000">event_id</text>
<polygon fill="none" stroke="#000000" points="522.5,-520.7 522.5,-542.7 622.5,-542.7 622.5,-520.7 522.5,-520.7"/>
<image xlink:href="../../images/foreignKeys.png" width="11px" height="12px" preserveAspectRatio="xMinYMin meet" x="527.5" y="-537.7"/>
<text text-anchor="start" x="542.5" y="-527.8" font-family="Helvetica,sans-Serif" font-size="11.00" fill="#000000">user_id</text>
<polygon fill="none" stroke="#000000" points="522.5,-501.7 522.5,-520.7 622.5,-520.7 622.5,-501.7 522.5,-501.7"/>
<text text-anchor="start" x="525.5" y="-507.8" font-family="Helvetica,sans-Serif" font-size="11.00" fill="#000000">...</text>
<polygon fill="#ffffff" stroke="transparent" points="522.5,-482.7 522.5,-501.7 557.5,-501.7 557.5,-482.7 522.5,-482.7"/>
<polygon fill="none" stroke="#000000" points="522.5,-482.7 522.5,-501.7 557.5,-501.7 557.5,-482.7 522.5,-482.7"/>
<text text-anchor="start" x="525.5" y="-488.8" font-family="Helvetica,sans-Serif" font-size="11.00" fill="#000000">&lt; 2</text>
<polygon fill="#ffffff" stroke="transparent" points="557.5,-482.7 557.5,-501.7 602.5,-501.7 602.5,-482.7 557.5,-482.7"/>
<polygon fill="none" stroke="#000000" points="557.5,-482.7 557.5,-501.7 602.5,-501.7 602.5,-482.7 557.5,-482.7"/>
<text text-anchor="start" x="567.1105" y="-488.8" font-family="Helvetica,sans-Serif" font-size="11.00" fill="#000000">0 rows</text>
<polygon fill="#ffffff" stroke="transparent" points="602.5,-482.7 602.5,-501.7 622.5,-501.7 622.5,-482.7 602.5,-482.7"/>
<polygon fill="none" stroke="#000000" points="602.5,-482.7 602.5,-501.7 622.5,-501.7 622.5,-482.7 602.5,-482.7"/>
<text text-anchor="start" x="613.3862" y="-488.8" font-family="Helvetica,sans-Serif" font-size="11.00" fill="#000000"> &#160;</text>
</a>
</g>
</g>
<!-- rsvps&#45;&gt;events -->
<g id="edge4" class="edge">
<title>rsvps:w&#45;&gt;events:e</title>
<path fill="none" stroke="#000000" d="M508.3797,-550.1308C483.9453,-535.349 496.2079,-479.7 458.5,-479.7"/>
<polygon fill="#000000" stroke="#000000" points="514.7439,-551.7395 521.6178,-557.1902 518.622,-552.7197 522.5,-553.7 522.5,-553.7 522.5,-553.7 518.622,-552.7197 523.3822,-550.2098 514.7439,-551.7395 514.7439,-551.7395"/>
<ellipse fill="none" stroke="#000000" cx="511.6415" cy="-550.9552" rx="3.2" ry="3.2"/>
</g>
<!-- tags -->
<g id="node6" class="node">
<title>tags</title>
<g id="a_node6"><a xlink:href="../../tables/tags.html" xlink:title="tags" target="_top">
<polygon fill="#ffffff" stroke="transparent" points="528.5,-357.2 528.5,-462.2 616.5,-462.2 616.5,-357.2 528.5,-357.2"/>
<polygon fill="#f5f5f5" stroke="transparent" points="528.5,-438.7 528.5,-461.7 616.5,-461.7 616.5,-438.7 528.5,-438.7"/>
<polygon fill="none" stroke="#000000" points="528.5,-438.7 528.5,-461.7 616.5,-461.7 616.5,-438.7 528.5,-438.7"/>
<text text-anchor="start" x="533.5" y="-447.8" font-family="Helvetica,sans-Serif" font-weight="bold" font-size="11.00" fill="#000000">tags</text>
<text text-anchor="start" x="581.5437" y="-446.8" font-family="Helvetica,sans-Serif" font-size="11.00" fill="#000000">[table]</text>
<polygon fill="none" stroke="#000000" points="528.5,-416.7 528.5,-438.7 616.5,-438.7 616.5,-416.7 528.5,-416.7"/>
<image xlink:href="../../images/primaryKeys.png" width="11px" height="12px" preserveAspectRatio="xMinYMin meet" x="533.5" y="-433.7"/>
<text text-anchor="start" x="548.5" y="-423.8" font-family="Helvetica,sans-Serif" font-size="11.00" fill="#000000">id</text>
<polygon fill="none" stroke="#000000" points="528.5,-394.7 528.5,-416.7 616.5,-416.7 616.5,-394.7 528.5,-394.7"/>
<image xlink:href="../../images/foreignKeys.png" width="11px" height="12px" preserveAspectRatio="xMinYMin meet" x="533.5" y="-411.7"/>
<text text-anchor="start" x="548.5" y="-401.8" font-family="Helvetica,sans-Serif" font-size="11.00" fill="#000000">event_id</text>
<polygon fill="none" stroke="#000000" points="528.5,-375.7 528.5,-394.7 616.5,-394.7 616.5,-375.7 528.5,-375.7"/>
<text text-anchor="start" x="531.5" y="-381.8" font-family="Helvetica,sans-Serif" font-size="11.00" fill="#000000">...</text>
<polygon fill="#ffffff" stroke="transparent" points="528.5,-356.7 528.5,-375.7 557.5,-375.7 557.5,-356.7 528.5,-356.7"/>
<polygon fill="none" stroke="#000000" points="528.5,-356.7 528.5,-375.7 557.5,-375.7 557.5,-356.7 528.5,-356.7"/>
<text text-anchor="start" x="531.5" y="-362.8" font-family="Helvetica,sans-Serif" font-size="11.00" fill="#000000">&lt; 1</text>
<polygon fill="#ffffff" stroke="transparent" points="557.5,-356.7 557.5,-375.7 599.5,-375.7 599.5,-356.7 557.5,-356.7"/>
<polygon fill="none" stroke="#000000" points="557.5,-356.7 557.5,-375.7 599.5,-375.7 599.5,-356.7 557.5,-356.7"/>
<text text-anchor="start" x="564.1105" y="-362.8" font-family="Helvetica,sans-Serif" font-size="11.00" fill="#000000">0 rows</text>
<polygon fill="#ffffff" stroke="transparent" points="599.5,-356.7 599.5,-375.7 616.5,-375.7 616.5,-356.7 599.5,-356.7"/>
<polygon fill="none" stroke="#000000" points="599.5,-356.7 599.5,-375.7 616.5,-375.7 616.5,-356.7 599.5,-356.7"/>
<text text-anchor="start" x="607.3862" y="-362.8" font-family="Helvetica,sans-Serif" font-size="11.00" fill="#000000"> &#160;</text>
</a>
</g>
</g>
<!-- tags&#45;&gt;events -->
<g id="edge5" class="edge">
<title>tags:w&#45;&gt;events:e</title>
<path fill="none" stroke="#000000" d="M514.351,-408.8797C487.3355,-423.0438 498.1133,-479.7 458.5,-479.7"/>
<polygon fill="#000000" stroke="#000000" points="520.6947,-407.4541 529.2894,-409.2124 524.5973,-406.5771 528.5,-405.7 528.5,-405.7 528.5,-405.7 524.5973,-406.5771 527.7106,-402.1876 520.6947,-407.4541 520.6947,-407.4541"/>
<ellipse fill="none" stroke="#000000" cx="517.5725" cy="-408.1558" rx="3.2" ry="3.2"/>
</g>
<!-- user_event_roles -->
<g id="node7" class="node">
<title>user_event_roles</title>
<g id="a_node7"><a xlink:href="../../tables/user_event_roles.html" xlink:title="user_event_roles" target="_top">
<polygon fill="#ffffff" stroke="transparent" points="509,-187.2 509,-336.2 636,-336.2 636,-187.2 509,-187.2"/>
<polygon fill="#f5f5f5" stroke="transparent" points="509.5,-312.7 509.5,-335.7 636.5,-335.7 636.5,-312.7 509.5,-312.7"/>
<polygon fill="none" stroke="#000000" points="509.5,-312.7 509.5,-335.7 636.5,-335.7 636.5,-312.7 509.5,-312.7"/>
<text text-anchor="start" x="514.3222" y="-321.8" font-family="Helvetica,sans-Serif" font-weight="bold" font-size="11.00" fill="#000000">user_event_roles</text>
<text text-anchor="start" x="602.0219" y="-320.8" font-family="Helvetica,sans-Serif" font-size="11.00" fill="#000000">[table]</text>
<polygon fill="none" stroke="#000000" points="509.5,-290.7 509.5,-312.7 636.5,-312.7 636.5,-290.7 509.5,-290.7"/>
<image xlink:href="../../images/primaryKeys.png" width="11px" height="12px" preserveAspectRatio="xMinYMin meet" x="514.5" y="-307.7"/>
<text text-anchor="start" x="533.5" y="-297.8" font-family="Helvetica,sans-Serif" font-size="11.00" fill="#000000">id</text>
<polygon fill="none" stroke="#000000" points="509.5,-268.7 509.5,-290.7 636.5,-290.7 636.5,-268.7 509.5,-268.7"/>
<image xlink:href="../../images/primaryKeys.png" width="11px" height="12px" preserveAspectRatio="xMinYMin meet" x="514.5" y="-285.7"/>
<text text-anchor="start" x="533.5" y="-275.8" font-family="Helvetica,sans-Serif" font-size="11.00" fill="#000000">user_id</text>
<polygon fill="none" stroke="#000000" points="509.5,-246.7 509.5,-268.7 636.5,-268.7 636.5,-246.7 509.5,-246.7"/>
<image xlink:href="../../images/primaryKeys.png" width="11px" height="12px" preserveAspectRatio="xMinYMin meet" x="514.5" y="-263.7"/>
<text text-anchor="start" x="533.5" y="-253.8" font-family="Helvetica,sans-Serif" font-size="11.00" fill="#000000">event_id</text>
<polygon fill="none" stroke="#000000" points="509.5,-224.7 509.5,-246.7 636.5,-246.7 636.5,-224.7 509.5,-224.7"/>
<image xlink:href="../../images/primaryKeys.png" width="11px" height="12px" preserveAspectRatio="xMinYMin meet" x="514.5" y="-241.7"/>
<text text-anchor="start" x="533.5" y="-231.8" font-family="Helvetica,sans-Serif" font-size="11.00" fill="#000000">role_name</text>
<polygon fill="none" stroke="#000000" points="509.5,-205.7 509.5,-224.7 636.5,-224.7 636.5,-205.7 509.5,-205.7"/>
<text text-anchor="start" x="512.5" y="-211.8" font-family="Helvetica,sans-Serif" font-size="11.00" fill="#000000">...</text>
<polygon fill="#ffffff" stroke="transparent" points="509.5,-186.7 509.5,-205.7 558.5,-205.7 558.5,-186.7 509.5,-186.7"/>
<polygon fill="none" stroke="#000000" points="509.5,-186.7 509.5,-205.7 558.5,-205.7 558.5,-186.7 509.5,-186.7"/>
<text text-anchor="start" x="512.5" y="-192.8" font-family="Helvetica,sans-Serif" font-size="11.00" fill="#000000">&lt; 2</text>
<polygon fill="#ffffff" stroke="transparent" points="558.5,-186.7 558.5,-205.7 610.5,-205.7 610.5,-186.7 558.5,-186.7"/>
<polygon fill="none" stroke="#000000" points="558.5,-186.7 558.5,-205.7 610.5,-205.7 610.5,-186.7 558.5,-186.7"/>
<text text-anchor="start" x="575.1105" y="-192.8" font-family="Helvetica,sans-Serif" font-size="11.00" fill="#000000">0 rows</text>
<polygon fill="#ffffff" stroke="transparent" points="610.5,-186.7 610.5,-205.7 636.5,-205.7 636.5,-186.7 610.5,-186.7"/>
<polygon fill="none" stroke="#000000" points="610.5,-186.7 610.5,-205.7 636.5,-205.7 636.5,-186.7 610.5,-186.7"/>
<text text-anchor="start" x="627.3862" y="-192.8" font-family="Helvetica,sans-Serif" font-size="11.00" fill="#000000"> &#160;</text>
</a>
</g>
</g>
<!-- user_event_roles&#45;&gt;events -->
<g id="edge6" class="edge">
<title>user_event_roles:w&#45;&gt;events:e</title>
<path fill="none" stroke="#000000" d="M495.0755,-259.6192C424.0748,-281.3173 554.2004,-479.7 458.5,-479.7"/>
<polygon fill="#000000" stroke="#000000" points="501.5699,-258.7552 509.9748,-261.2686 505.5349,-258.2276 509.5,-257.7 509.5,-257.7 509.5,-257.7 505.5349,-258.2276 509.0252,-254.1314 501.5699,-258.7552 501.5699,-258.7552"/>
<ellipse fill="none" stroke="#000000" cx="498.3978" cy="-259.1772" rx="3.2" ry="3.2"/>
</g>
</g>
</svg>
