<?xml version="1.0" encoding="UTF-8" standalone="no"?>
<!DOCTYPE svg PUBLIC "-//W3C//DTD SVG 1.1//EN"
 "http://www.w3.org/Graphics/SVG/1.1/DTD/svg11.dtd">
<!-- Generated by graphviz version 2.40.1 (20161225.0304)
 -->
<!-- Title: twoDegreesRelationshipsDiagram Pages: 1 -->
<svg width="1068pt" height="621pt"
 viewBox="0.00 0.00 1068.00 621.20" xmlns="http://www.w3.org/2000/svg" xmlns:xlink="http://www.w3.org/1999/xlink">
<g id="graph0" class="graph" transform="scale(1 1) rotate(0) translate(4 617.2)">
<title>twoDegreesRelationshipsDiagram</title>
<polygon fill="#ffffff" stroke="transparent" points="-4,4 -4,-617.2 1064,-617.2 1064,4 -4,4"/>
<text text-anchor="middle" x="72.4936" y="-7.3" font-family="Helvetica,sans-Serif" font-size="11.00" fill="#000000">Generated by SchemaSpy</text>
<!-- chapter_users -->
<g id="node1" class="node">
<title>chapter_users</title>
<g id="a_node1"><a xlink:href="../../tables/chapter_users.html" xlink:title="chapter_users" target="_top">
<polygon fill="#ffffff" stroke="transparent" points="335,-405.2 335,-466.2 447,-466.2 447,-405.2 335,-405.2"/>
<polygon fill="#f5f5f5" stroke="transparent" points="335,-442.7 335,-465.7 447,-465.7 447,-442.7 335,-442.7"/>
<polygon fill="none" stroke="#000000" points="335,-442.7 335,-465.7 447,-465.7 447,-442.7 335,-442.7"/>
<text text-anchor="start" x="339.6575" y="-451.8" font-family="Helvetica,sans-Serif" font-weight="bold" font-size="11.00" fill="#000000">chapter_users</text>
<text text-anchor="start" x="412.5219" y="-450.8" font-family="Helvetica,sans-Serif" font-size="11.00" fill="#000000">[table]</text>
<polygon fill="none" stroke="#000000" points="335,-423.7 335,-442.7 447,-442.7 447,-423.7 335,-423.7"/>
<text text-anchor="start" x="338" y="-429.8" font-family="Helvetica,sans-Serif" font-size="11.00" fill="#000000">...</text>
<polygon fill="#ffffff" stroke="transparent" points="335,-404.7 335,-423.7 376,-423.7 376,-404.7 335,-404.7"/>
<polygon fill="none" stroke="#000000" points="335,-404.7 335,-423.7 376,-423.7 376,-404.7 335,-404.7"/>
<text text-anchor="start" x="338" y="-410.8" font-family="Helvetica,sans-Serif" font-size="11.00" fill="#000000">&lt; 3</text>
<polygon fill="#ffffff" stroke="transparent" points="376,-404.7 376,-423.7 424,-423.7 424,-404.7 376,-404.7"/>
<polygon fill="none" stroke="#000000" points="376,-404.7 376,-423.7 424,-423.7 424,-404.7 376,-404.7"/>
<text text-anchor="start" x="388.6105" y="-410.8" font-family="Helvetica,sans-Serif" font-size="11.00" fill="#000000">0 rows</text>
<polygon fill="#ffffff" stroke="transparent" points="424,-404.7 424,-423.7 447,-423.7 447,-404.7 424,-404.7"/>
<polygon fill="none" stroke="#000000" points="424,-404.7 424,-423.7 447,-423.7 447,-404.7 424,-404.7"/>
<text text-anchor="start" x="437.8862" y="-410.8" font-family="Helvetica,sans-Serif" font-size="11.00" fill="#000000"> &#160;</text>
</a>
</g>
</g>
<!-- chapters -->
<g id="node2" class="node">
<title>chapters</title>
<g id="a_node2"><a xlink:href="../../tables/chapters.html" xlink:title="chapters" target="_top">
<polygon fill="#ffffff" stroke="transparent" points="185.5,-434.2 185.5,-495.2 270.5,-495.2 270.5,-434.2 185.5,-434.2"/>
<polygon fill="#f5f5f5" stroke="transparent" points="186,-471.7 186,-494.7 271,-494.7 271,-471.7 186,-471.7"/>
<polygon fill="none" stroke="#000000" points="186,-471.7 186,-494.7 271,-494.7 271,-471.7 186,-471.7"/>
<text text-anchor="start" x="190.9108" y="-480.8" font-family="Helvetica,sans-Serif" font-weight="bold" font-size="11.00" fill="#000000">chapters</text>
<text text-anchor="start" x="236.5219" y="-479.8" font-family="Helvetica,sans-Serif" font-size="11.00" fill="#000000">[table]</text>
<polygon fill="none" stroke="#000000" points="186,-452.7 186,-471.7 271,-471.7 271,-452.7 186,-452.7"/>
<text text-anchor="start" x="189" y="-458.8" font-family="Helvetica,sans-Serif" font-size="11.00" fill="#000000">...</text>
<polygon fill="#ffffff" stroke="transparent" points="186,-433.7 186,-452.7 205,-452.7 205,-433.7 186,-433.7"/>
<polygon fill="none" stroke="#000000" points="186,-433.7 186,-452.7 205,-452.7 205,-433.7 186,-433.7"/>
<text text-anchor="start" x="189" y="-439.8" font-family="Helvetica,sans-Serif" font-size="11.00" fill="#000000"> &#160;</text>
<polygon fill="#ffffff" stroke="transparent" points="205,-433.7 205,-452.7 246,-452.7 246,-433.7 205,-433.7"/>
<polygon fill="none" stroke="#000000" points="205,-433.7 205,-452.7 246,-452.7 246,-433.7 205,-433.7"/>
<text text-anchor="start" x="210.6105" y="-439.8" font-family="Helvetica,sans-Serif" font-size="11.00" fill="#000000">0 rows</text>
<polygon fill="#ffffff" stroke="transparent" points="246,-433.7 246,-452.7 271,-452.7 271,-433.7 246,-433.7"/>
<polygon fill="none" stroke="#000000" points="246,-433.7 246,-452.7 271,-452.7 271,-433.7 246,-433.7"/>
<text text-anchor="start" x="252.4053" y="-439.8" font-family="Helvetica,sans-Serif" font-size="11.00" fill="#000000">4 &gt;</text>
</a>
</g>
</g>
<!-- chapter_users&#45;&gt;chapters -->
<g id="edge1" class="edge">
<title>chapter_users:w&#45;&gt;chapters:e</title>
<path fill="none" stroke="#000000" d="M320.6969,-435.1725C302.2586,-442.1855 296.617,-461.7 271,-461.7"/>
<polygon fill="#000000" stroke="#000000" points="327.1169,-434.0628 335.6132,-436.2474 331.0585,-433.3814 335,-432.7 335,-432.7 335,-432.7 331.0585,-433.3814 334.3868,-429.1526 327.1169,-434.0628 327.1169,-434.0628"/>
<ellipse fill="none" stroke="#000000" cx="323.9637" cy="-434.6079" rx="3.2" ry="3.2"/>
</g>
<!-- users -->
<g id="node3" class="node">
<title>users</title>
<g id="a_node3"><a xlink:href="../../tables/users.html" xlink:title="users" target="_top">
<polygon fill="#ffffff" stroke="transparent" points="170,-232.2 170,-359.2 286,-359.2 286,-232.2 170,-232.2"/>
<polygon fill="#f5f5f5" stroke="transparent" points="170,-335.7 170,-358.7 286,-358.7 286,-335.7 170,-335.7"/>
<polygon fill="none" stroke="#000000" points="170,-335.7 170,-358.7 286,-358.7 286,-335.7 170,-335.7"/>
<text text-anchor="start" x="175" y="-344.8" font-family="Helvetica,sans-Serif" font-weight="bold" font-size="11.00" fill="#000000">users</text>
<text text-anchor="start" x="251.0437" y="-343.8" font-family="Helvetica,sans-Serif" font-size="11.00" fill="#000000">[table]</text>
<polygon fill="none" stroke="#000000" points="170,-313.7 170,-335.7 286,-335.7 286,-313.7 170,-313.7"/>
<image xlink:href="../../images/primaryKeys.png" width="11px" height="12px" preserveAspectRatio="xMinYMin meet" x="175" y="-330.7"/>
<text text-anchor="start" x="190" y="-320.8" font-family="Helvetica,sans-Serif" font-size="11.00" fill="#000000">id</text>
<polygon fill="#ffffff" stroke="transparent" points="170,-291.7 170,-313.7 286,-313.7 286,-291.7 170,-291.7"/>
<polygon fill="none" stroke="#000000" points="170,-291.7 170,-313.7 286,-313.7 286,-291.7 170,-291.7"/>
<text text-anchor="start" x="190" y="-298.8" font-family="Helvetica,sans-Serif" font-size="11.00" fill="#000000">email</text>
<polygon fill="none" stroke="#000000" points="170,-269.7 170,-291.7 286,-291.7 286,-269.7 170,-269.7"/>
<image xlink:href="../../images/foreignKeys.png" width="11px" height="12px" preserveAspectRatio="xMinYMin meet" x="175" y="-286.7"/>
<text text-anchor="start" x="190" y="-276.8" font-family="Helvetica,sans-Serif" font-size="11.00" fill="#000000">instance_role_id</text>
<polygon fill="none" stroke="#000000" points="170,-250.7 170,-269.7 286,-269.7 286,-250.7 170,-250.7"/>
<text text-anchor="start" x="173" y="-256.8" font-family="Helvetica,sans-Serif" font-size="11.00" fill="#000000">...</text>
<polygon fill="#ffffff" stroke="transparent" points="170,-231.7 170,-250.7 209,-250.7 209,-231.7 170,-231.7"/>
<polygon fill="none" stroke="#000000" points="170,-231.7 170,-250.7 209,-250.7 209,-231.7 170,-231.7"/>
<text text-anchor="start" x="173" y="-237.8" font-family="Helvetica,sans-Serif" font-size="11.00" fill="#000000">&lt; 1</text>
<polygon fill="#ffffff" stroke="transparent" points="209,-231.7 209,-250.7 256,-250.7 256,-231.7 209,-231.7"/>
<polygon fill="none" stroke="#000000" points="209,-231.7 209,-250.7 256,-250.7 256,-231.7 209,-231.7"/>
<text text-anchor="start" x="220.6105" y="-237.8" font-family="Helvetica,sans-Serif" font-size="11.00" fill="#000000">0 rows</text>
<polygon fill="#ffffff" stroke="transparent" points="256,-231.7 256,-250.7 286,-250.7 286,-231.7 256,-231.7"/>
<polygon fill="none" stroke="#000000" points="256,-231.7 256,-250.7 286,-250.7 286,-231.7 256,-231.7"/>
<text text-anchor="start" x="267.4053" y="-237.8" font-family="Helvetica,sans-Serif" font-size="11.00" fill="#000000">4 &gt;</text>
</a>
</g>
</g>
<!-- chapter_users&#45;&gt;users -->
<g id="edge2" class="edge">
<title>chapter_users:w&#45;&gt;users:e</title>
<path fill="none" stroke="#000000" d="M320.971,-428.8562C293.6726,-409.6172 332.7383,-324.7 286,-324.7"/>
<polygon fill="#000000" stroke="#000000" points="327.2844,-430.586 334.0487,-436.172 331.1422,-431.643 335,-432.7 335,-432.7 335,-432.7 331.1422,-431.643 335.9513,-429.228 327.2844,-430.586 327.2844,-430.586"/>
<ellipse fill="none" stroke="#000000" cx="324.1981" cy="-429.7404" rx="3.2" ry="3.2"/>
</g>
<!-- instance_roles -->
<g id="node15" class="node">
<title>instance_roles</title>
<g id="a_node15"><a xlink:href="../../tables/instance_roles.html" xlink:title="instance_roles" target="_top">
<polygon fill="#ffffff" stroke="transparent" points="8,-253.2 8,-314.2 121,-314.2 121,-253.2 8,-253.2"/>
<polygon fill="#f5f5f5" stroke="transparent" points="8.5,-290.7 8.5,-313.7 121.5,-313.7 121.5,-290.7 8.5,-290.7"/>
<polygon fill="none" stroke="#000000" points="8.5,-290.7 8.5,-313.7 121.5,-313.7 121.5,-290.7 8.5,-290.7"/>
<text text-anchor="start" x="13.0476" y="-299.8" font-family="Helvetica,sans-Serif" font-weight="bold" font-size="11.00" fill="#000000">instance_roles</text>
<text text-anchor="start" x="87.0219" y="-298.8" font-family="Helvetica,sans-Serif" font-size="11.00" fill="#000000">[table]</text>
<polygon fill="none" stroke="#000000" points="8.5,-271.7 8.5,-290.7 121.5,-290.7 121.5,-271.7 8.5,-271.7"/>
<text text-anchor="start" x="11.5" y="-277.8" font-family="Helvetica,sans-Serif" font-size="11.00" fill="#000000">...</text>
<polygon fill="#ffffff" stroke="transparent" points="8.5,-252.7 8.5,-271.7 41.5,-271.7 41.5,-252.7 8.5,-252.7"/>
<polygon fill="none" stroke="#000000" points="8.5,-252.7 8.5,-271.7 41.5,-271.7 41.5,-252.7 8.5,-252.7"/>
<text text-anchor="start" x="11.5" y="-258.8" font-family="Helvetica,sans-Serif" font-size="11.00" fill="#000000"> &#160;</text>
<polygon fill="#ffffff" stroke="transparent" points="41.5,-252.7 41.5,-271.7 89.5,-271.7 89.5,-252.7 41.5,-252.7"/>
<polygon fill="none" stroke="#000000" points="41.5,-252.7 41.5,-271.7 89.5,-271.7 89.5,-252.7 41.5,-252.7"/>
<text text-anchor="start" x="54.1105" y="-258.8" font-family="Helvetica,sans-Serif" font-size="11.00" fill="#000000">3 rows</text>
<polygon fill="#ffffff" stroke="transparent" points="89.5,-252.7 89.5,-271.7 121.5,-271.7 121.5,-252.7 89.5,-252.7"/>
<polygon fill="none" stroke="#000000" points="89.5,-252.7 89.5,-271.7 121.5,-271.7 121.5,-252.7 89.5,-252.7"/>
<text text-anchor="start" x="102.9053" y="-258.8" font-family="Helvetica,sans-Serif" font-size="11.00" fill="#000000">2 &gt;</text>
</a>
</g>
</g>
<!-- users&#45;&gt;instance_roles -->
<g id="edge17" class="edge">
<title>users:w&#45;&gt;instance_roles:e</title>
<path fill="none" stroke="#000000" d="M155.2829,-280.7C144.2886,-280.7 137.1615,-280.7 121.5,-280.7"/>
<polygon fill="#000000" stroke="#000000" points="162,-280.7001 170,-284.3 166,-280.7 170,-280.7 170,-280.7 170,-280.7 166,-280.7 170,-277.1 162,-280.7001 162,-280.7001"/>
<ellipse fill="none" stroke="#000000" cx="158.8" cy="-280.7001" rx="3.2" ry="3.2"/>
</g>
<!-- event_reminders -->
<g id="node4" class="node">
<title>event_reminders</title>
<g id="a_node4"><a xlink:href="../../tables/event_reminders.html" xlink:title="event_reminders" target="_top">
<polygon fill="#ffffff" stroke="transparent" points="928,-232.2 928,-337.2 1052,-337.2 1052,-232.2 928,-232.2"/>
<polygon fill="#f5f5f5" stroke="transparent" points="928,-313.7 928,-336.7 1052,-336.7 1052,-313.7 928,-313.7"/>
<polygon fill="none" stroke="#000000" points="928,-313.7 928,-336.7 1052,-336.7 1052,-313.7 928,-313.7"/>
<text text-anchor="start" x="932.5487" y="-322.8" font-family="Helvetica,sans-Serif" font-weight="bold" font-size="11.00" fill="#000000">event_reminders</text>
<text text-anchor="start" x="1017.5219" y="-321.8" font-family="Helvetica,sans-Serif" font-size="11.00" fill="#000000">[table]</text>
<polygon fill="none" stroke="#000000" points="928,-291.7 928,-313.7 1052,-313.7 1052,-291.7 928,-291.7"/>
<image xlink:href="../../images/primaryKeys.png" width="11px" height="12px" preserveAspectRatio="xMinYMin meet" x="933" y="-308.7"/>
<text text-anchor="start" x="949" y="-298.8" font-family="Helvetica,sans-Serif" font-size="11.00" fill="#000000">user_id</text>
<polygon fill="none" stroke="#000000" points="928,-269.7 928,-291.7 1052,-291.7 1052,-269.7 928,-269.7"/>
<image xlink:href="../../images/primaryKeys.png" width="11px" height="12px" preserveAspectRatio="xMinYMin meet" x="933" y="-286.7"/>
<text text-anchor="start" x="949" y="-276.8" font-family="Helvetica,sans-Serif" font-size="11.00" fill="#000000">event_id</text>
<polygon fill="none" stroke="#000000" points="928,-250.7 928,-269.7 1052,-269.7 1052,-250.7 928,-250.7"/>
<text text-anchor="start" x="931" y="-256.8" font-family="Helvetica,sans-Serif" font-size="11.00" fill="#000000">...</text>
<polygon fill="#ffffff" stroke="transparent" points="928,-231.7 928,-250.7 975,-250.7 975,-231.7 928,-231.7"/>
<polygon fill="none" stroke="#000000" points="928,-231.7 928,-250.7 975,-250.7 975,-231.7 928,-231.7"/>
<text text-anchor="start" x="931" y="-237.8" font-family="Helvetica,sans-Serif" font-size="11.00" fill="#000000">&lt; 2</text>
<polygon fill="#ffffff" stroke="transparent" points="975,-231.7 975,-250.7 1026,-250.7 1026,-231.7 975,-231.7"/>
<polygon fill="none" stroke="#000000" points="975,-231.7 975,-250.7 1026,-250.7 1026,-231.7 975,-231.7"/>
<text text-anchor="start" x="990.6105" y="-237.8" font-family="Helvetica,sans-Serif" font-size="11.00" fill="#000000">0 rows</text>
<polygon fill="#ffffff" stroke="transparent" points="1026,-231.7 1026,-250.7 1052,-250.7 1052,-231.7 1026,-231.7"/>
<polygon fill="none" stroke="#000000" points="1026,-231.7 1026,-250.7 1052,-250.7 1052,-231.7 1026,-231.7"/>
<text text-anchor="start" x="1042.8862" y="-237.8" font-family="Helvetica,sans-Serif" font-size="11.00" fill="#000000"> &#160;</text>
</a>
</g>
</g>
<!-- event_users -->
<g id="node5" class="node">
<title>event_users</title>
<g id="a_node5"><a xlink:href="../../tables/event_users.html" xlink:title="event_users" target="_top">
<polygon fill="#ffffff" stroke="transparent" points="673,-160.7 673,-382.7 879,-382.7 879,-160.7 673,-160.7"/>
<polygon fill="#f5f5f5" stroke="transparent" points="675,-357.7 675,-380.7 877,-380.7 877,-357.7 675,-357.7"/>
<polygon fill="none" stroke="#000000" points="675,-357.7 675,-380.7 877,-380.7 877,-357.7 675,-357.7"/>
<text text-anchor="start" x="680" y="-366.8" font-family="Helvetica,sans-Serif" font-weight="bold" font-size="11.00" fill="#000000">event_users</text>
<text text-anchor="start" x="842.0437" y="-365.8" font-family="Helvetica,sans-Serif" font-size="11.00" fill="#000000">[table]</text>
<polygon fill="none" stroke="#000000" points="675,-335.7 675,-357.7 780,-357.7 780,-335.7 675,-335.7"/>
<text text-anchor="start" x="695" y="-342.8" font-family="Helvetica,sans-Serif" font-size="11.00" fill="#000000">created_at</text>
<polygon fill="none" stroke="#000000" points="780,-335.7 780,-357.7 877,-357.7 877,-335.7 780,-335.7"/>
<text text-anchor="start" x="783" y="-343.4" font-family="Helvetica,sans-Serif" font-size="11.00" fill="#000000">timestamp[26,3]</text>
<polygon fill="none" stroke="#000000" points="675,-313.7 675,-335.7 780,-335.7 780,-313.7 675,-313.7"/>
<text text-anchor="start" x="695" y="-320.8" font-family="Helvetica,sans-Serif" font-size="11.00" fill="#000000">updated_at</text>
<polygon fill="none" stroke="#000000" points="780,-313.7 780,-335.7 877,-335.7 877,-313.7 780,-313.7"/>
<text text-anchor="start" x="783" y="-321.4" font-family="Helvetica,sans-Serif" font-size="11.00" fill="#000000">timestamp[26,3]</text>
<polygon fill="none" stroke="#000000" points="675,-291.7 675,-313.7 780,-313.7 780,-291.7 675,-291.7"/>
<image xlink:href="../../images/primaryKeys.png" width="11px" height="12px" preserveAspectRatio="xMinYMin meet" x="680" y="-308.7"/>
<text text-anchor="start" x="695" y="-298.8" font-family="Helvetica,sans-Serif" font-size="11.00" fill="#000000">user_id</text>
<polygon fill="none" stroke="#000000" points="780,-291.7 780,-313.7 877,-313.7 877,-291.7 780,-291.7"/>
<text text-anchor="start" x="783" y="-299.4" font-family="Helvetica,sans-Serif" font-size="11.00" fill="#000000">int4[10]</text>
<polygon fill="none" stroke="#000000" points="675,-269.7 675,-291.7 780,-291.7 780,-269.7 675,-269.7"/>
<image xlink:href="../../images/primaryKeys.png" width="11px" height="12px" preserveAspectRatio="xMinYMin meet" x="680" y="-286.7"/>
<text text-anchor="start" x="695" y="-276.8" font-family="Helvetica,sans-Serif" font-size="11.00" fill="#000000">event_id</text>
<polygon fill="none" stroke="#000000" points="780,-269.7 780,-291.7 877,-291.7 877,-269.7 780,-269.7"/>
<text text-anchor="start" x="783" y="-277.4" font-family="Helvetica,sans-Serif" font-size="11.00" fill="#000000">int4[10]</text>
<polygon fill="none" stroke="#000000" points="675,-247.7 675,-269.7 780,-269.7 780,-247.7 675,-247.7"/>
<image xlink:href="../../images/foreignKeys.png" width="11px" height="12px" preserveAspectRatio="xMinYMin meet" x="680" y="-264.7"/>
<text text-anchor="start" x="695" y="-254.8" font-family="Helvetica,sans-Serif" font-size="11.00" fill="#000000">event_role_id</text>
<polygon fill="none" stroke="#000000" points="780,-247.7 780,-269.7 877,-269.7 877,-247.7 780,-247.7"/>
<text text-anchor="start" x="783" y="-255.4" font-family="Helvetica,sans-Serif" font-size="11.00" fill="#000000">int4[10]</text>
<polygon fill="none" stroke="#000000" points="675,-225.7 675,-247.7 780,-247.7 780,-225.7 675,-225.7"/>
<image xlink:href="../../images/foreignKeys.png" width="11px" height="12px" preserveAspectRatio="xMinYMin meet" x="680" y="-242.7"/>
<text text-anchor="start" x="695" y="-232.8" font-family="Helvetica,sans-Serif" font-size="11.00" fill="#000000">attendance_id</text>
<polygon fill="none" stroke="#000000" points="780,-225.7 780,-247.7 877,-247.7 877,-225.7 780,-225.7"/>
<text text-anchor="start" x="783" y="-233.4" font-family="Helvetica,sans-Serif" font-size="11.00" fill="#000000">int4[10]</text>
<polygon fill="none" stroke="#000000" points="675,-203.7 675,-225.7 780,-225.7 780,-203.7 675,-203.7"/>
<text text-anchor="start" x="695" y="-210.8" font-family="Helvetica,sans-Serif" font-size="11.00" fill="#000000">subscribed</text>
<polygon fill="none" stroke="#000000" points="780,-203.7 780,-225.7 877,-225.7 877,-203.7 780,-203.7"/>
<text text-anchor="start" x="783" y="-211.4" font-family="Helvetica,sans-Serif" font-size="11.00" fill="#000000">bool[1]</text>
<polygon fill="none" stroke="#000000" points="675,-181.7 675,-203.7 780,-203.7 780,-181.7 675,-181.7"/>
<text text-anchor="start" x="695" y="-188.8" font-family="Helvetica,sans-Serif" font-size="11.00" fill="#000000">title</text>
<polygon fill="none" stroke="#000000" points="780,-181.7 780,-203.7 877,-203.7 877,-181.7 780,-181.7"/>
<text text-anchor="start" x="782.9468" y="-189.4" font-family="Helvetica,sans-Serif" font-size="11.00" fill="#000000">_text[2147483647]</text>
<polygon fill="#ffffff" stroke="transparent" points="675,-162.7 675,-181.7 719,-181.7 719,-162.7 675,-162.7"/>
<polygon fill="none" stroke="#000000" points="675,-162.7 675,-181.7 719,-181.7 719,-162.7 675,-162.7"/>
<text text-anchor="start" x="678" y="-168.8" font-family="Helvetica,sans-Serif" font-size="11.00" fill="#000000">&lt; 4</text>
<polygon fill="#ffffff" stroke="transparent" points="719,-162.7 719,-181.7 780,-181.7 780,-162.7 719,-162.7"/>
<polygon fill="none" stroke="#000000" points="719,-162.7 719,-181.7 780,-181.7 780,-162.7 719,-162.7"/>
<text text-anchor="start" x="744.6105" y="-168.8" font-family="Helvetica,sans-Serif" font-size="11.00" fill="#000000">0 rows</text>
<polygon fill="#ffffff" stroke="transparent" points="780,-162.7 780,-181.7 877,-181.7 877,-162.7 780,-162.7"/>
<polygon fill="none" stroke="#000000" points="780,-162.7 780,-181.7 877,-181.7 877,-162.7 780,-162.7"/>
<text text-anchor="start" x="858.4053" y="-168.8" font-family="Helvetica,sans-Serif" font-size="11.00" fill="#000000">2 &gt;</text>
<polygon fill="none" stroke="#000000" stroke-width="2" points="674,-161.7 674,-381.7 878,-381.7 878,-161.7 674,-161.7"/>
</a>
</g>
</g>
<!-- event_reminders&#45;&gt;event_users -->
<g id="edge3" class="edge">
<title>event_reminders:w&#45;&gt;event_users:e</title>
<path fill="none" stroke="#000000" d="M913.276,-280.7C901.2815,-280.7 893.8229,-280.7 877,-280.7"/>
<polygon fill="#000000" stroke="#000000" points="920,-280.7001 928,-284.3 924,-280.7 928,-280.7 928,-280.7 928,-280.7 924,-280.7 928,-277.1 920,-280.7001 920,-280.7001"/>
<ellipse fill="none" stroke="#000000" cx="916.8" cy="-280.7001" rx="3.2" ry="3.2"/>
</g>
<!-- event_reminders&#45;&gt;event_users -->
<g id="edge4" class="edge">
<title>event_reminders:w&#45;&gt;event_users:e</title>
<path fill="none" stroke="#000000" d="M913.276,-302.7C901.2815,-302.7 893.8229,-302.7 877,-302.7"/>
<polygon fill="#000000" stroke="#000000" points="920,-302.7001 928,-306.3 924,-302.7 928,-302.7 928,-302.7 928,-302.7 924,-302.7 928,-299.1 920,-302.7001 920,-302.7001"/>
<ellipse fill="none" stroke="#000000" cx="916.8" cy="-302.7001" rx="3.2" ry="3.2"/>
</g>
<!-- event_users&#45;&gt;users -->
<g id="edge11" class="edge">
<title>event_users:w&#45;&gt;users:e</title>
<path fill="none" stroke="#000000" d="M660.3892,-302.6577C517.5466,-301.8277 474.9087,-289.3267 327,-312.7 308.246,-315.6636 304.9867,-324.7 286,-324.7"/>
<polygon fill="#000000" stroke="#000000" points="667,-302.6768 674.9895,-306.3 671,-302.6884 675,-302.7 675,-302.7 675,-302.7 671,-302.6884 675.0105,-299.1 667,-302.6768 667,-302.6768"/>
<ellipse fill="none" stroke="#000000" cx="663.8" cy="-302.6675" rx="3.2" ry="3.2"/>
</g>
<!-- event_roles -->
<g id="node7" class="node">
<title>event_roles</title>
<g id="a_node7"><a xlink:href="../../tables/event_roles.html" xlink:title="event_roles" target="_top">
<polygon fill="#ffffff" stroke="transparent" points="510.5,-38.2 510.5,-143.2 609.5,-143.2 609.5,-38.2 510.5,-38.2"/>
<polygon fill="#f5f5f5" stroke="transparent" points="511,-119.7 511,-142.7 610,-142.7 610,-119.7 511,-119.7"/>
<polygon fill="none" stroke="#000000" points="511,-119.7 511,-142.7 610,-142.7 610,-119.7 511,-119.7"/>
<text text-anchor="start" x="515.5755" y="-128.8" font-family="Helvetica,sans-Serif" font-weight="bold" font-size="11.00" fill="#000000">event_roles</text>
<text text-anchor="start" x="575.5219" y="-127.8" font-family="Helvetica,sans-Serif" font-size="11.00" fill="#000000">[table]</text>
<polygon fill="none" stroke="#000000" points="511,-97.7 511,-119.7 610,-119.7 610,-97.7 511,-97.7"/>
<image xlink:href="../../images/primaryKeys.png" width="11px" height="12px" preserveAspectRatio="xMinYMin meet" x="516" y="-114.7"/>
<text text-anchor="start" x="536" y="-104.8" font-family="Helvetica,sans-Serif" font-size="11.00" fill="#000000">id</text>
<polygon fill="#ffffff" stroke="transparent" points="511,-75.7 511,-97.7 610,-97.7 610,-75.7 511,-75.7"/>
<polygon fill="none" stroke="#000000" points="511,-75.7 511,-97.7 610,-97.7 610,-75.7 511,-75.7"/>
<text text-anchor="start" x="536" y="-82.8" font-family="Helvetica,sans-Serif" font-size="11.00" fill="#000000">name</text>
<polygon fill="none" stroke="#000000" points="511,-56.7 511,-75.7 610,-75.7 610,-56.7 511,-56.7"/>
<text text-anchor="start" x="514" y="-62.8" font-family="Helvetica,sans-Serif" font-size="11.00" fill="#000000">...</text>
<polygon fill="#ffffff" stroke="transparent" points="511,-37.7 511,-56.7 540,-56.7 540,-37.7 511,-37.7"/>
<polygon fill="none" stroke="#000000" points="511,-37.7 511,-56.7 540,-56.7 540,-37.7 511,-37.7"/>
<text text-anchor="start" x="514" y="-43.8" font-family="Helvetica,sans-Serif" font-size="11.00" fill="#000000"> &#160;</text>
<polygon fill="#ffffff" stroke="transparent" points="540,-37.7 540,-56.7 580,-56.7 580,-37.7 540,-37.7"/>
<polygon fill="none" stroke="#000000" points="540,-37.7 540,-56.7 580,-56.7 580,-37.7 540,-37.7"/>
<text text-anchor="start" x="550.1105" y="-43.8" font-family="Helvetica,sans-Serif" font-size="11.00" fill="#000000">1 row</text>
<polygon fill="#ffffff" stroke="transparent" points="580,-37.7 580,-56.7 610,-56.7 610,-37.7 580,-37.7"/>
<polygon fill="none" stroke="#000000" points="580,-37.7 580,-56.7 610,-56.7 610,-37.7 580,-37.7"/>
<text text-anchor="start" x="591.4053" y="-43.8" font-family="Helvetica,sans-Serif" font-size="11.00" fill="#000000">2 &gt;</text>
</a>
</g>
</g>
<!-- event_users&#45;&gt;event_roles -->
<g id="edge10" class="edge">
<title>event_users:w&#45;&gt;event_roles:e</title>
<path fill="none" stroke="#000000" d="M660.6261,-256.0965C613.9585,-236.178 676.9805,-108.7 610,-108.7"/>
<polygon fill="#000000" stroke="#000000" points="667.1281,-257.2741 674.3584,-262.2424 671.064,-257.9871 675,-258.7 675,-258.7 675,-258.7 671.064,-257.9871 675.6416,-255.1576 667.1281,-257.2741 667.1281,-257.2741"/>
<ellipse fill="none" stroke="#000000" cx="663.9793" cy="-256.7038" rx="3.2" ry="3.2"/>
</g>
<!-- events -->
<g id="node9" class="node">
<title>events</title>
<g id="a_node9"><a xlink:href="../../tables/events.html" xlink:title="events" target="_top">
<polygon fill="#ffffff" stroke="transparent" points="496,-442.2 496,-569.2 624,-569.2 624,-442.2 496,-442.2"/>
<polygon fill="#f5f5f5" stroke="transparent" points="496,-545.7 496,-568.7 624,-568.7 624,-545.7 496,-545.7"/>
<polygon fill="none" stroke="#000000" points="496,-545.7 496,-568.7 624,-568.7 624,-545.7 496,-545.7"/>
<text text-anchor="start" x="501" y="-554.8" font-family="Helvetica,sans-Serif" font-weight="bold" font-size="11.00" fill="#000000">events</text>
<text text-anchor="start" x="589.0437" y="-553.8" font-family="Helvetica,sans-Serif" font-size="11.00" fill="#000000">[table]</text>
<polygon fill="none" stroke="#000000" points="496,-523.7 496,-545.7 624,-545.7 624,-523.7 496,-523.7"/>
<image xlink:href="../../images/primaryKeys.png" width="11px" height="12px" preserveAspectRatio="xMinYMin meet" x="501" y="-540.7"/>
<text text-anchor="start" x="516" y="-530.8" font-family="Helvetica,sans-Serif" font-size="11.00" fill="#000000">id</text>
<polygon fill="none" stroke="#000000" points="496,-501.7 496,-523.7 624,-523.7 624,-501.7 496,-501.7"/>
<image xlink:href="../../images/foreignKeys.png" width="11px" height="12px" preserveAspectRatio="xMinYMin meet" x="501" y="-518.7"/>
<text text-anchor="start" x="516" y="-508.8" font-family="Helvetica,sans-Serif" font-size="11.00" fill="#000000">venue_id</text>
<polygon fill="none" stroke="#000000" points="496,-479.7 496,-501.7 624,-501.7 624,-479.7 496,-479.7"/>
<image xlink:href="../../images/foreignKeys.png" width="11px" height="12px" preserveAspectRatio="xMinYMin meet" x="501" y="-496.7"/>
<text text-anchor="start" x="516" y="-486.8" font-family="Helvetica,sans-Serif" font-size="11.00" fill="#000000">chapter_id</text>
<polygon fill="none" stroke="#000000" points="496,-460.7 496,-479.7 624,-479.7 624,-460.7 496,-460.7"/>
<text text-anchor="start" x="499" y="-466.8" font-family="Helvetica,sans-Serif" font-size="11.00" fill="#000000">...</text>
<polygon fill="#ffffff" stroke="transparent" points="496,-441.7 496,-460.7 541,-460.7 541,-441.7 496,-441.7"/>
<polygon fill="none" stroke="#000000" points="496,-441.7 496,-460.7 541,-460.7 541,-441.7 496,-441.7"/>
<text text-anchor="start" x="499" y="-447.8" font-family="Helvetica,sans-Serif" font-size="11.00" fill="#000000">&lt; 2</text>
<polygon fill="#ffffff" stroke="transparent" points="541,-441.7 541,-460.7 591,-460.7 591,-441.7 541,-441.7"/>
<polygon fill="none" stroke="#000000" points="541,-441.7 541,-460.7 591,-460.7 591,-441.7 541,-441.7"/>
<text text-anchor="start" x="555.6105" y="-447.8" font-family="Helvetica,sans-Serif" font-size="11.00" fill="#000000">0 rows</text>
<polygon fill="#ffffff" stroke="transparent" points="591,-441.7 591,-460.7 624,-460.7 624,-441.7 591,-441.7"/>
<polygon fill="none" stroke="#000000" points="591,-441.7 591,-460.7 624,-460.7 624,-441.7 591,-441.7"/>
<text text-anchor="start" x="605.4053" y="-447.8" font-family="Helvetica,sans-Serif" font-size="11.00" fill="#000000">3 &gt;</text>
</a>
</g>
</g>
<!-- event_users&#45;&gt;events -->
<g id="edge9" class="edge">
<title>event_users:w&#45;&gt;events:e</title>
<path fill="none" stroke="#000000" d="M660.6883,-282.322C576.0189,-303.9544 733.7447,-534.7 624,-534.7"/>
<polygon fill="#000000" stroke="#000000" points="667.0509,-281.6009 675.4054,-284.2771 671.0254,-281.1505 675,-280.7 675,-280.7 675,-280.7 671.0254,-281.1505 674.5946,-277.1229 667.0509,-281.6009 667.0509,-281.6009"/>
<ellipse fill="none" stroke="#000000" cx="663.8712" cy="-281.9613" rx="3.2" ry="3.2"/>
</g>
<!-- attendance -->
<g id="node11" class="node">
<title>attendance</title>
<g id="a_node11"><a xlink:href="../../tables/attendance.html" xlink:title="attendance" target="_top">
<polygon fill="#ffffff" stroke="transparent" points="511.5,-166.2 511.5,-271.2 608.5,-271.2 608.5,-166.2 511.5,-166.2"/>
<polygon fill="#f5f5f5" stroke="transparent" points="512,-247.7 512,-270.7 609,-270.7 609,-247.7 512,-247.7"/>
<polygon fill="none" stroke="#000000" points="512,-247.7 512,-270.7 609,-270.7 609,-247.7 512,-247.7"/>
<text text-anchor="start" x="516.7909" y="-256.8" font-family="Helvetica,sans-Serif" font-weight="bold" font-size="11.00" fill="#000000">attendance</text>
<text text-anchor="start" x="574.5219" y="-255.8" font-family="Helvetica,sans-Serif" font-size="11.00" fill="#000000">[table]</text>
<polygon fill="none" stroke="#000000" points="512,-225.7 512,-247.7 609,-247.7 609,-225.7 512,-225.7"/>
<image xlink:href="../../images/primaryKeys.png" width="11px" height="12px" preserveAspectRatio="xMinYMin meet" x="517" y="-242.7"/>
<text text-anchor="start" x="536" y="-232.8" font-family="Helvetica,sans-Serif" font-size="11.00" fill="#000000">id</text>
<polygon fill="#ffffff" stroke="transparent" points="512,-203.7 512,-225.7 609,-225.7 609,-203.7 512,-203.7"/>
<polygon fill="none" stroke="#000000" points="512,-203.7 512,-225.7 609,-225.7 609,-203.7 512,-203.7"/>
<text text-anchor="start" x="536" y="-210.8" font-family="Helvetica,sans-Serif" font-size="11.00" fill="#000000">name</text>
<polygon fill="none" stroke="#000000" points="512,-184.7 512,-203.7 609,-203.7 609,-184.7 512,-184.7"/>
<text text-anchor="start" x="515" y="-190.8" font-family="Helvetica,sans-Serif" font-size="11.00" fill="#000000">...</text>
<polygon fill="#ffffff" stroke="transparent" points="512,-165.7 512,-184.7 537,-184.7 537,-165.7 512,-165.7"/>
<polygon fill="none" stroke="#000000" points="512,-165.7 512,-184.7 537,-184.7 537,-165.7 512,-165.7"/>
<text text-anchor="start" x="515" y="-171.8" font-family="Helvetica,sans-Serif" font-size="11.00" fill="#000000"> &#160;</text>
<polygon fill="#ffffff" stroke="transparent" points="537,-165.7 537,-184.7 581,-184.7 581,-165.7 537,-165.7"/>
<polygon fill="none" stroke="#000000" points="537,-165.7 537,-184.7 581,-184.7 581,-165.7 537,-165.7"/>
<text text-anchor="start" x="545.6105" y="-171.8" font-family="Helvetica,sans-Serif" font-size="11.00" fill="#000000">4 rows</text>
<polygon fill="#ffffff" stroke="transparent" points="581,-165.7 581,-184.7 609,-184.7 609,-165.7 581,-165.7"/>
<polygon fill="none" stroke="#000000" points="581,-165.7 581,-184.7 609,-184.7 609,-165.7 581,-165.7"/>
<text text-anchor="start" x="590.4053" y="-171.8" font-family="Helvetica,sans-Serif" font-size="11.00" fill="#000000">1 &gt;</text>
</a>
</g>
</g>
<!-- event_users&#45;&gt;attendance -->
<g id="edge8" class="edge">
<title>event_users:w&#45;&gt;attendance:e</title>
<path fill="none" stroke="#000000" d="M660.5303,-236.7C642.1432,-236.7 632.8333,-236.7 609,-236.7"/>
<polygon fill="#000000" stroke="#000000" points="667,-236.7001 675,-240.3 671,-236.7 675,-236.7 675,-236.7 675,-236.7 671,-236.7 675,-233.1 667,-236.7001 667,-236.7001"/>
<ellipse fill="none" stroke="#000000" cx="663.8" cy="-236.7001" rx="3.2" ry="3.2"/>
</g>
<!-- event_role_permissions -->
<g id="node6" class="node">
<title>event_role_permissions</title>
<g id="a_node6"><a xlink:href="../../tables/event_role_permissions.html" xlink:title="event_role_permissions" target="_top">
<polygon fill="#ffffff" stroke="transparent" points="696.5,-78.2 696.5,-139.2 855.5,-139.2 855.5,-78.2 696.5,-78.2"/>
<polygon fill="#f5f5f5" stroke="transparent" points="697,-115.7 697,-138.7 856,-138.7 856,-115.7 697,-115.7"/>
<polygon fill="none" stroke="#000000" points="697,-115.7 697,-138.7 856,-138.7 856,-115.7 697,-115.7"/>
<text text-anchor="start" x="701.9354" y="-124.8" font-family="Helvetica,sans-Serif" font-weight="bold" font-size="11.00" fill="#000000">event_role_permissions</text>
<text text-anchor="start" x="821.5219" y="-123.8" font-family="Helvetica,sans-Serif" font-size="11.00" fill="#000000">[table]</text>
<polygon fill="none" stroke="#000000" points="697,-96.7 697,-115.7 856,-115.7 856,-96.7 697,-96.7"/>
<text text-anchor="start" x="700" y="-102.8" font-family="Helvetica,sans-Serif" font-size="11.00" fill="#000000">...</text>
<polygon fill="#ffffff" stroke="transparent" points="697,-77.7 697,-96.7 762,-96.7 762,-77.7 697,-77.7"/>
<polygon fill="none" stroke="#000000" points="697,-77.7 697,-96.7 762,-96.7 762,-77.7 697,-77.7"/>
<text text-anchor="start" x="700" y="-83.8" font-family="Helvetica,sans-Serif" font-size="11.00" fill="#000000">&lt; 2</text>
<polygon fill="#ffffff" stroke="transparent" points="762,-77.7 762,-96.7 822,-96.7 822,-77.7 762,-77.7"/>
<polygon fill="none" stroke="#000000" points="762,-77.7 762,-96.7 822,-96.7 822,-77.7 762,-77.7"/>
<text text-anchor="start" x="786.6105" y="-83.8" font-family="Helvetica,sans-Serif" font-size="11.00" fill="#000000">0 rows</text>
<polygon fill="#ffffff" stroke="transparent" points="822,-77.7 822,-96.7 856,-96.7 856,-77.7 822,-77.7"/>
<polygon fill="none" stroke="#000000" points="822,-77.7 822,-96.7 856,-96.7 856,-77.7 822,-77.7"/>
<text text-anchor="start" x="846.8862" y="-83.8" font-family="Helvetica,sans-Serif" font-size="11.00" fill="#000000"> &#160;</text>
</a>
</g>
</g>
<!-- event_role_permissions&#45;&gt;event_roles -->
<g id="edge5" class="edge">
<title>event_role_permissions:w&#45;&gt;event_roles:e</title>
<path fill="none" stroke="#000000" d="M682.2407,-105.8613C655.0297,-106.4844 643.2489,-108.7 610,-108.7"/>
<polygon fill="#000000" stroke="#000000" points="689.0005,-105.7875 697.0394,-109.2998 693.0002,-105.7437 697,-105.7 697,-105.7 697,-105.7 693.0002,-105.7437 696.9606,-102.1002 689.0005,-105.7875 689.0005,-105.7875"/>
<ellipse fill="none" stroke="#000000" cx="685.8007" cy="-105.8225" rx="3.2" ry="3.2"/>
</g>
<!-- event_sponsors -->
<g id="node8" class="node">
<title>event_sponsors</title>
<g id="a_node8"><a xlink:href="../../tables/event_sponsors.html" xlink:title="event_sponsors" target="_top">
<polygon fill="#ffffff" stroke="transparent" points="716,-548.2 716,-609.2 836,-609.2 836,-548.2 716,-548.2"/>
<polygon fill="#f5f5f5" stroke="transparent" points="716,-585.7 716,-608.7 836,-608.7 836,-585.7 716,-585.7"/>
<polygon fill="none" stroke="#000000" points="716,-585.7 716,-608.7 836,-608.7 836,-585.7 716,-585.7"/>
<text text-anchor="start" x="720.681" y="-594.8" font-family="Helvetica,sans-Serif" font-weight="bold" font-size="11.00" fill="#000000">event_sponsors</text>
<text text-anchor="start" x="801.5219" y="-593.8" font-family="Helvetica,sans-Serif" font-size="11.00" fill="#000000">[table]</text>
<polygon fill="none" stroke="#000000" points="716,-566.7 716,-585.7 836,-585.7 836,-566.7 716,-566.7"/>
<text text-anchor="start" x="719" y="-572.8" font-family="Helvetica,sans-Serif" font-size="11.00" fill="#000000">...</text>
<polygon fill="#ffffff" stroke="transparent" points="716,-547.7 716,-566.7 761,-566.7 761,-547.7 716,-547.7"/>
<polygon fill="none" stroke="#000000" points="716,-547.7 716,-566.7 761,-566.7 761,-547.7 716,-547.7"/>
<text text-anchor="start" x="719" y="-553.8" font-family="Helvetica,sans-Serif" font-size="11.00" fill="#000000">&lt; 2</text>
<polygon fill="#ffffff" stroke="transparent" points="761,-547.7 761,-566.7 811,-566.7 811,-547.7 761,-547.7"/>
<polygon fill="none" stroke="#000000" points="761,-547.7 761,-566.7 811,-566.7 811,-547.7 761,-547.7"/>
<text text-anchor="start" x="775.6105" y="-553.8" font-family="Helvetica,sans-Serif" font-size="11.00" fill="#000000">0 rows</text>
<polygon fill="#ffffff" stroke="transparent" points="811,-547.7 811,-566.7 836,-566.7 836,-547.7 811,-547.7"/>
<polygon fill="none" stroke="#000000" points="811,-547.7 811,-566.7 836,-566.7 836,-547.7 811,-547.7"/>
<text text-anchor="start" x="826.8862" y="-553.8" font-family="Helvetica,sans-Serif" font-size="11.00" fill="#000000"> &#160;</text>
</a>
</g>
</g>
<!-- event_sponsors&#45;&gt;events -->
<g id="edge6" class="edge">
<title>event_sponsors:w&#45;&gt;events:e</title>
<path fill="none" stroke="#000000" d="M701.448,-574.042C670.0163,-566.3715 663.3447,-534.7 624,-534.7"/>
<polygon fill="#000000" stroke="#000000" points="708.0514,-574.7943 715.5924,-579.2769 712.0257,-575.2472 716,-575.7 716,-575.7 716,-575.7 712.0257,-575.2472 716.4076,-572.1231 708.0514,-574.7943 708.0514,-574.7943"/>
<ellipse fill="none" stroke="#000000" cx="704.872" cy="-574.432" rx="3.2" ry="3.2"/>
</g>
<!-- events&#45;&gt;chapters -->
<g id="edge12" class="edge">
<title>events:w&#45;&gt;chapters:e</title>
<path fill="none" stroke="#000000" d="M481.2931,-490.6813C417.7259,-490.4961 396.178,-488.7304 327,-476.7 301.6147,-472.2854 296.7663,-461.7 271,-461.7"/>
<polygon fill="#000000" stroke="#000000" points="488,-490.6898 495.9954,-494.3 492,-490.6949 496,-490.7 496,-490.7 496,-490.7 492,-490.6949 496.0046,-487.1 488,-490.6898 488,-490.6898"/>
<ellipse fill="none" stroke="#000000" cx="484.8" cy="-490.6857" rx="3.2" ry="3.2"/>
</g>
<!-- venues -->
<g id="node12" class="node">
<title>venues</title>
<g id="a_node12"><a xlink:href="../../tables/venues.html" xlink:title="venues" target="_top">
<polygon fill="#ffffff" stroke="transparent" points="351,-515.2 351,-576.2 431,-576.2 431,-515.2 351,-515.2"/>
<polygon fill="#f5f5f5" stroke="transparent" points="351,-552.7 351,-575.7 431,-575.7 431,-552.7 351,-552.7"/>
<polygon fill="none" stroke="#000000" points="351,-552.7 351,-575.7 431,-575.7 431,-552.7 351,-552.7"/>
<text text-anchor="start" x="356" y="-561.8" font-family="Helvetica,sans-Serif" font-weight="bold" font-size="11.00" fill="#000000">venues</text>
<text text-anchor="start" x="396.0437" y="-560.8" font-family="Helvetica,sans-Serif" font-size="11.00" fill="#000000">[table]</text>
<polygon fill="none" stroke="#000000" points="351,-533.7 351,-552.7 431,-552.7 431,-533.7 351,-533.7"/>
<text text-anchor="start" x="354" y="-539.8" font-family="Helvetica,sans-Serif" font-size="11.00" fill="#000000">...</text>
<polygon fill="#ffffff" stroke="transparent" points="351,-514.7 351,-533.7 372,-533.7 372,-514.7 351,-514.7"/>
<polygon fill="none" stroke="#000000" points="351,-514.7 351,-533.7 372,-533.7 372,-514.7 351,-514.7"/>
<text text-anchor="start" x="353.7027" y="-520.8" font-family="Helvetica,sans-Serif" font-size="11.00" fill="#000000">&lt; 1</text>
<polygon fill="#ffffff" stroke="transparent" points="372,-514.7 372,-533.7 410,-533.7 410,-514.7 372,-514.7"/>
<polygon fill="none" stroke="#000000" points="372,-514.7 372,-533.7 410,-533.7 410,-514.7 372,-514.7"/>
<text text-anchor="start" x="374.8053" y="-520.8" font-family="Helvetica,sans-Serif" font-size="11.00" fill="#000000">0 rows</text>
<polygon fill="#ffffff" stroke="transparent" points="410,-514.7 410,-533.7 431,-533.7 431,-514.7 410,-514.7"/>
<polygon fill="none" stroke="#000000" points="410,-514.7 410,-533.7 431,-533.7 431,-514.7 410,-514.7"/>
<text text-anchor="start" x="412.7027" y="-520.8" font-family="Helvetica,sans-Serif" font-size="11.00" fill="#000000">1 &gt;</text>
</a>
</g>
</g>
<!-- events&#45;&gt;venues -->
<g id="edge13" class="edge">
<title>events:w&#45;&gt;venues:e</title>
<path fill="none" stroke="#000000" d="M481.7133,-515.155C462.7617,-522.3199 457.2245,-542.7 431,-542.7"/>
<polygon fill="#000000" stroke="#000000" points="488.1156,-514.0549 496.6097,-516.248 492.0578,-513.3775 496,-512.7 496,-512.7 496,-512.7 492.0578,-513.3775 495.3903,-509.152 488.1156,-514.0549 488.1156,-514.0549"/>
<ellipse fill="none" stroke="#000000" cx="484.9618" cy="-514.5969" rx="3.2" ry="3.2"/>
</g>
<!-- event_tags -->
<g id="node10" class="node">
<title>event_tags</title>
<g id="a_node10"><a xlink:href="../../tables/event_tags.html" xlink:title="event_tags" target="_top">
<polygon fill="#ffffff" stroke="transparent" points="728,-466.2 728,-527.2 824,-527.2 824,-466.2 728,-466.2"/>
<polygon fill="#f5f5f5" stroke="transparent" points="728,-503.7 728,-526.7 824,-526.7 824,-503.7 728,-503.7"/>
<polygon fill="none" stroke="#000000" points="728,-503.7 728,-526.7 824,-526.7 824,-503.7 728,-503.7"/>
<text text-anchor="start" x="732.5984" y="-512.8" font-family="Helvetica,sans-Serif" font-weight="bold" font-size="11.00" fill="#000000">event_tags</text>
<text text-anchor="start" x="789.5219" y="-511.8" font-family="Helvetica,sans-Serif" font-size="11.00" fill="#000000">[table]</text>
<polygon fill="none" stroke="#000000" points="728,-484.7 728,-503.7 824,-503.7 824,-484.7 728,-484.7"/>
<text text-anchor="start" x="731" y="-490.8" font-family="Helvetica,sans-Serif" font-size="11.00" fill="#000000">...</text>
<polygon fill="#ffffff" stroke="transparent" points="728,-465.7 728,-484.7 761,-484.7 761,-465.7 728,-465.7"/>
<polygon fill="none" stroke="#000000" points="728,-465.7 728,-484.7 761,-484.7 761,-465.7 728,-465.7"/>
<text text-anchor="start" x="731" y="-471.8" font-family="Helvetica,sans-Serif" font-size="11.00" fill="#000000">&lt; 2</text>
<polygon fill="#ffffff" stroke="transparent" points="761,-465.7 761,-484.7 805,-484.7 805,-465.7 761,-465.7"/>
<polygon fill="none" stroke="#000000" points="761,-465.7 761,-484.7 805,-484.7 805,-465.7 761,-465.7"/>
<text text-anchor="start" x="769.6105" y="-471.8" font-family="Helvetica,sans-Serif" font-size="11.00" fill="#000000">0 rows</text>
<polygon fill="#ffffff" stroke="transparent" points="805,-465.7 805,-484.7 824,-484.7 824,-465.7 805,-465.7"/>
<polygon fill="none" stroke="#000000" points="805,-465.7 805,-484.7 824,-484.7 824,-465.7 805,-465.7"/>
<text text-anchor="start" x="814.8862" y="-471.8" font-family="Helvetica,sans-Serif" font-size="11.00" fill="#000000"> &#160;</text>
</a>
</g>
</g>
<!-- event_tags&#45;&gt;events -->
<g id="edge7" class="edge">
<title>event_tags:w&#45;&gt;events:e</title>
<path fill="none" stroke="#000000" d="M713.1963,-495.0641C676.7635,-502.1783 668.2502,-534.7 624,-534.7"/>
<polygon fill="#000000" stroke="#000000" points="720.0338,-494.4341 728.3304,-497.2848 724.0169,-494.0671 728,-493.7 728,-493.7 728,-493.7 724.0169,-494.0671 727.6696,-490.1152 720.0338,-494.4341 720.0338,-494.4341"/>
<ellipse fill="none" stroke="#000000" cx="716.8473" cy="-494.7278" rx="3.2" ry="3.2"/>
</g>
<!-- venues&#45;&gt;chapters -->
<g id="edge18" class="edge">
<title>venues:w&#45;&gt;chapters:e</title>
<path fill="none" stroke="#000000" d="M336.7862,-540.005C304.1795,-525.9502 316.0642,-461.7 271,-461.7"/>
<polygon fill="#000000" stroke="#000000" points="343.14,-541.2097 350.3294,-546.237 347.07,-541.9548 351,-542.7 351,-542.7 351,-542.7 347.07,-541.9548 351.6706,-539.163 343.14,-541.2097 343.14,-541.2097"/>
<ellipse fill="none" stroke="#000000" cx="339.996" cy="-540.6135" rx="3.2" ry="3.2"/>
</g>
<!-- sessions -->
<g id="node13" class="node">
<title>sessions</title>
<g id="a_node13"><a xlink:href="../../tables/sessions.html" xlink:title="sessions" target="_top">
<polygon fill="#ffffff" stroke="transparent" points="348.5,-213.2 348.5,-274.2 433.5,-274.2 433.5,-213.2 348.5,-213.2"/>
<polygon fill="#f5f5f5" stroke="transparent" points="349,-250.7 349,-273.7 434,-273.7 434,-250.7 349,-250.7"/>
<polygon fill="none" stroke="#000000" points="349,-250.7 349,-273.7 434,-273.7 434,-250.7 349,-250.7"/>
<text text-anchor="start" x="353.6072" y="-259.8" font-family="Helvetica,sans-Serif" font-weight="bold" font-size="11.00" fill="#000000">sessions</text>
<text text-anchor="start" x="399.5219" y="-258.8" font-family="Helvetica,sans-Serif" font-size="11.00" fill="#000000">[table]</text>
<polygon fill="none" stroke="#000000" points="349,-231.7 349,-250.7 434,-250.7 434,-231.7 349,-231.7"/>
<text text-anchor="start" x="352" y="-237.8" font-family="Helvetica,sans-Serif" font-size="11.00" fill="#000000">...</text>
<polygon fill="#ffffff" stroke="transparent" points="349,-212.7 349,-231.7 377,-231.7 377,-212.7 349,-212.7"/>
<polygon fill="none" stroke="#000000" points="349,-212.7 349,-231.7 377,-231.7 377,-212.7 349,-212.7"/>
<text text-anchor="start" x="352" y="-218.8" font-family="Helvetica,sans-Serif" font-size="11.00" fill="#000000">&lt; 1</text>
<polygon fill="#ffffff" stroke="transparent" points="377,-212.7 377,-231.7 418,-231.7 418,-212.7 377,-212.7"/>
<polygon fill="none" stroke="#000000" points="377,-212.7 377,-231.7 418,-231.7 418,-212.7 377,-212.7"/>
<text text-anchor="start" x="382.6105" y="-218.8" font-family="Helvetica,sans-Serif" font-size="11.00" fill="#000000">0 rows</text>
<polygon fill="#ffffff" stroke="transparent" points="418,-212.7 418,-231.7 434,-231.7 434,-212.7 418,-212.7"/>
<polygon fill="none" stroke="#000000" points="418,-212.7 418,-231.7 434,-231.7 434,-212.7 418,-212.7"/>
<text text-anchor="start" x="424.8862" y="-218.8" font-family="Helvetica,sans-Serif" font-size="11.00" fill="#000000"> &#160;</text>
</a>
</g>
</g>
<!-- sessions&#45;&gt;users -->
<g id="edge14" class="edge">
<title>sessions:w&#45;&gt;users:e</title>
<path fill="none" stroke="#000000" d="M338.577,-242.4545C306.9782,-254.5171 328.6563,-324.7 286,-324.7"/>
<polygon fill="#000000" stroke="#000000" points="347.5471,-236.8883 348.8751,-244.7773 347.2973,-245.0429 345.9693,-237.1539 347.5471,-236.8883"/>
<polyline fill="none" stroke="#000000" points="349,-240.7 345.0555,-241.364 "/>
<ellipse fill="none" stroke="#000000" cx="341.8999" cy="-241.8952" rx="3.2" ry="3.2"/>
</g>
<!-- user_bans -->
<g id="node14" class="node">
<title>user_bans</title>
<g id="a_node14"><a xlink:href="../../tables/user_bans.html" xlink:title="user_bans" target="_top">
<polygon fill="#ffffff" stroke="transparent" points="344,-323.2 344,-384.2 438,-384.2 438,-323.2 344,-323.2"/>
<polygon fill="#f5f5f5" stroke="transparent" points="344,-360.7 344,-383.7 438,-383.7 438,-360.7 344,-360.7"/>
<polygon fill="none" stroke="#000000" points="344,-360.7 344,-383.7 438,-383.7 438,-360.7 344,-360.7"/>
<text text-anchor="start" x="348.8244" y="-369.8" font-family="Helvetica,sans-Serif" font-weight="bold" font-size="11.00" fill="#000000">user_bans</text>
<text text-anchor="start" x="403.5219" y="-368.8" font-family="Helvetica,sans-Serif" font-size="11.00" fill="#000000">[table]</text>
<polygon fill="none" stroke="#000000" points="344,-341.7 344,-360.7 438,-360.7 438,-341.7 344,-341.7"/>
<text text-anchor="start" x="347" y="-347.8" font-family="Helvetica,sans-Serif" font-size="11.00" fill="#000000">...</text>
<polygon fill="#ffffff" stroke="transparent" points="344,-322.7 344,-341.7 376,-341.7 376,-322.7 344,-322.7"/>
<polygon fill="none" stroke="#000000" points="344,-322.7 344,-341.7 376,-341.7 376,-322.7 344,-322.7"/>
<text text-anchor="start" x="347" y="-328.8" font-family="Helvetica,sans-Serif" font-size="11.00" fill="#000000">&lt; 2</text>
<polygon fill="#ffffff" stroke="transparent" points="376,-322.7 376,-341.7 420,-341.7 420,-322.7 376,-322.7"/>
<polygon fill="none" stroke="#000000" points="376,-322.7 376,-341.7 420,-341.7 420,-322.7 376,-322.7"/>
<text text-anchor="start" x="384.6105" y="-328.8" font-family="Helvetica,sans-Serif" font-size="11.00" fill="#000000">0 rows</text>
<polygon fill="#ffffff" stroke="transparent" points="420,-322.7 420,-341.7 438,-341.7 438,-322.7 420,-322.7"/>
<polygon fill="none" stroke="#000000" points="420,-322.7 420,-341.7 438,-341.7 438,-322.7 420,-322.7"/>
<text text-anchor="start" x="428.8862" y="-328.8" font-family="Helvetica,sans-Serif" font-size="11.00" fill="#000000"> &#160;</text>
</a>
</g>
</g>
<!-- user_bans&#45;&gt;chapters -->
<g id="edge15" class="edge">
<title>user_bans:w&#45;&gt;chapters:e</title>
<path fill="none" stroke="#000000" d="M329.4868,-353.669C292.7679,-371.3211 324.2797,-461.7 271,-461.7"/>
<polygon fill="#000000" stroke="#000000" points="336.1623,-352.3034 344.7215,-354.227 340.0812,-351.5017 344,-350.7 344,-350.7 344,-350.7 340.0812,-351.5017 343.2785,-347.173 336.1623,-352.3034 336.1623,-352.3034"/>
<ellipse fill="none" stroke="#000000" cx="333.0272" cy="-352.9448" rx="3.2" ry="3.2"/>
</g>
<!-- user_bans&#45;&gt;users -->
<g id="edge16" class="edge">
<title>user_bans:w&#45;&gt;users:e</title>
<path fill="none" stroke="#000000" d="M329.6481,-347.9175C314.0371,-341.2103 308.5112,-324.7 286,-324.7"/>
<polygon fill="#000000" stroke="#000000" points="336.1462,-349.1773 343.3148,-354.2342 340.0731,-349.9387 344,-350.7 344,-350.7 344,-350.7 340.0731,-349.9387 344.6852,-347.1658 336.1462,-349.1773 336.1462,-349.1773"/>
<ellipse fill="none" stroke="#000000" cx="333.0047" cy="-348.5682" rx="3.2" ry="3.2"/>
</g>
</g>
</svg>
