<?xml version="1.0" encoding="UTF-8" standalone="no"?>
<!DOCTYPE svg PUBLIC "-//W3C//DTD SVG 1.1//EN"
 "http://www.w3.org/Graphics/SVG/1.1/DTD/svg11.dtd">
<!-- Generated by graphviz version 2.40.1 (20161225.0304)
 -->
<!-- Title: twoDegreesRelationshipsDiagram Pages: 1 -->
<svg width="641pt" height="349pt"
 viewBox="0.00 0.00 641.00 348.70" xmlns="http://www.w3.org/2000/svg" xmlns:xlink="http://www.w3.org/1999/xlink">
<g id="graph0" class="graph" transform="scale(1 1) rotate(0) translate(4 344.7)">
<title>twoDegreesRelationshipsDiagram</title>
<polygon fill="#ffffff" stroke="transparent" points="-4,4 -4,-344.7 637,-344.7 637,4 -4,4"/>
<text text-anchor="middle" x="72.4936" y="-7.3" font-family="Helvetica,sans-Serif" font-size="11.00" fill="#000000">Generated by SchemaSpy</text>
<!-- event_sponsors -->
<g id="node1" class="node">
<title>event_sponsors</title>
<g id="a_node1"><a xlink:href="../../tables/event_sponsors.html" xlink:title="event_sponsors" target="_top">
<polygon fill="#ffffff" stroke="transparent" points="424,-202.7 424,-336.7 625,-336.7 625,-202.7 424,-202.7"/>
<polygon fill="#f5f5f5" stroke="transparent" points="426.5,-311.7 426.5,-334.7 623.5,-334.7 623.5,-311.7 426.5,-311.7"/>
<polygon fill="none" stroke="#000000" points="426.5,-311.7 426.5,-334.7 623.5,-334.7 623.5,-311.7 426.5,-311.7"/>
<text text-anchor="start" x="431.5" y="-320.8" font-family="Helvetica,sans-Serif" font-weight="bold" font-size="11.00" fill="#000000">event_sponsors</text>
<text text-anchor="start" x="588.5437" y="-319.8" font-family="Helvetica,sans-Serif" font-size="11.00" fill="#000000">[table]</text>
<polygon fill="none" stroke="#000000" points="426.5,-289.7 426.5,-311.7 539.5,-311.7 539.5,-289.7 426.5,-289.7"/>
<text text-anchor="start" x="446.5" y="-296.8" font-family="Helvetica,sans-Serif" font-size="11.00" fill="#000000">created_at</text>
<polygon fill="none" stroke="#000000" points="539.5,-289.7 539.5,-311.7 623.5,-311.7 623.5,-289.7 539.5,-289.7"/>
<text text-anchor="start" x="542.3807" y="-297.4" font-family="Helvetica,sans-Serif" font-size="11.00" fill="#000000">timestamp[26,3]</text>
<polygon fill="none" stroke="#000000" points="426.5,-267.7 426.5,-289.7 539.5,-289.7 539.5,-267.7 426.5,-267.7"/>
<text text-anchor="start" x="446.5" y="-274.8" font-family="Helvetica,sans-Serif" font-size="11.00" fill="#000000">updated_at</text>
<polygon fill="none" stroke="#000000" points="539.5,-267.7 539.5,-289.7 623.5,-289.7 623.5,-267.7 539.5,-267.7"/>
<text text-anchor="start" x="542.3807" y="-275.4" font-family="Helvetica,sans-Serif" font-size="11.00" fill="#000000">timestamp[26,3]</text>
<polygon fill="none" stroke="#000000" points="426.5,-245.7 426.5,-267.7 539.5,-267.7 539.5,-245.7 426.5,-245.7"/>
<image xlink:href="../../images/primaryKeys.png" width="11px" height="12px" preserveAspectRatio="xMinYMin meet" x="431.5" y="-262.7"/>
<text text-anchor="start" x="446.5" y="-252.8" font-family="Helvetica,sans-Serif" font-size="11.00" fill="#000000">sponsor_id</text>
<polygon fill="none" stroke="#000000" points="539.5,-245.7 539.5,-267.7 623.5,-267.7 623.5,-245.7 539.5,-245.7"/>
<text text-anchor="start" x="542.5" y="-253.4" font-family="Helvetica,sans-Serif" font-size="11.00" fill="#000000">int4[10]</text>
<polygon fill="none" stroke="#000000" points="426.5,-223.7 426.5,-245.7 539.5,-245.7 539.5,-223.7 426.5,-223.7"/>
<image xlink:href="../../images/primaryKeys.png" width="11px" height="12px" preserveAspectRatio="xMinYMin meet" x="431.5" y="-240.7"/>
<text text-anchor="start" x="446.5" y="-230.8" font-family="Helvetica,sans-Serif" font-size="11.00" fill="#000000">event_id</text>
<polygon fill="none" stroke="#000000" points="539.5,-223.7 539.5,-245.7 623.5,-245.7 623.5,-223.7 539.5,-223.7"/>
<text text-anchor="start" x="542.5" y="-231.4" font-family="Helvetica,sans-Serif" font-size="11.00" fill="#000000">int4[10]</text>
<polygon fill="#ffffff" stroke="transparent" points="426.5,-204.7 426.5,-223.7 474.5,-223.7 474.5,-204.7 426.5,-204.7"/>
<polygon fill="none" stroke="#000000" points="426.5,-204.7 426.5,-223.7 474.5,-223.7 474.5,-204.7 426.5,-204.7"/>
<text text-anchor="start" x="429.5" y="-210.8" font-family="Helvetica,sans-Serif" font-size="11.00" fill="#000000">&lt; 2</text>
<polygon fill="#ffffff" stroke="transparent" points="474.5,-204.7 474.5,-223.7 539.5,-223.7 539.5,-204.7 474.5,-204.7"/>
<polygon fill="none" stroke="#000000" points="474.5,-204.7 474.5,-223.7 539.5,-223.7 539.5,-204.7 474.5,-204.7"/>
<text text-anchor="start" x="504.1105" y="-210.8" font-family="Helvetica,sans-Serif" font-size="11.00" fill="#000000">0 rows</text>
<polygon fill="#ffffff" stroke="transparent" points="539.5,-204.7 539.5,-223.7 623.5,-223.7 623.5,-204.7 539.5,-204.7"/>
<polygon fill="none" stroke="#000000" points="539.5,-204.7 539.5,-223.7 623.5,-223.7 623.5,-204.7 539.5,-204.7"/>
<text text-anchor="start" x="604.9053" y="-210.8" font-family="Helvetica,sans-Serif" font-size="11.00" fill="#000000">0 &gt;</text>
<polygon fill="none" stroke="#000000" stroke-width="2" points="425,-203.7 425,-335.7 624,-335.7 624,-203.7 425,-203.7"/>
</a>
</g>
</g>
<!-- events -->
<g id="node2" class="node">
<title>events</title>
<g id="a_node2"><a xlink:href="../../tables/events.html" xlink:title="events" target="_top">
<polygon fill="#ffffff" stroke="transparent" points="271,-55.2 271,-182.2 375,-182.2 375,-55.2 271,-55.2"/>
<polygon fill="#f5f5f5" stroke="transparent" points="271,-158.7 271,-181.7 375,-181.7 375,-158.7 271,-158.7"/>
<polygon fill="none" stroke="#000000" points="271,-158.7 271,-181.7 375,-181.7 375,-158.7 271,-158.7"/>
<text text-anchor="start" x="276" y="-167.8" font-family="Helvetica,sans-Serif" font-weight="bold" font-size="11.00" fill="#000000">events</text>
<text text-anchor="start" x="340.0437" y="-166.8" font-family="Helvetica,sans-Serif" font-size="11.00" fill="#000000">[table]</text>
<polygon fill="none" stroke="#000000" points="271,-136.7 271,-158.7 375,-158.7 375,-136.7 271,-136.7"/>
<image xlink:href="../../images/primaryKeys.png" width="11px" height="12px" preserveAspectRatio="xMinYMin meet" x="276" y="-153.7"/>
<text text-anchor="start" x="291" y="-143.8" font-family="Helvetica,sans-Serif" font-size="11.00" fill="#000000">id</text>
<polygon fill="none" stroke="#000000" points="271,-114.7 271,-136.7 375,-136.7 375,-114.7 271,-114.7"/>
<image xlink:href="../../images/foreignKeys.png" width="11px" height="12px" preserveAspectRatio="xMinYMin meet" x="276" y="-131.7"/>
<text text-anchor="start" x="291" y="-121.8" font-family="Helvetica,sans-Serif" font-size="11.00" fill="#000000">venue_id</text>
<polygon fill="none" stroke="#000000" points="271,-92.7 271,-114.7 375,-114.7 375,-92.7 271,-92.7"/>
<image xlink:href="../../images/foreignKeys.png" width="11px" height="12px" preserveAspectRatio="xMinYMin meet" x="276" y="-109.7"/>
<text text-anchor="start" x="291" y="-99.8" font-family="Helvetica,sans-Serif" font-size="11.00" fill="#000000">chapter_id</text>
<polygon fill="none" stroke="#000000" points="271,-73.7 271,-92.7 375,-92.7 375,-73.7 271,-73.7"/>
<text text-anchor="start" x="274" y="-79.8" font-family="Helvetica,sans-Serif" font-size="11.00" fill="#000000">...</text>
<polygon fill="#ffffff" stroke="transparent" points="271,-54.7 271,-73.7 304,-73.7 304,-54.7 271,-54.7"/>
<polygon fill="none" stroke="#000000" points="271,-54.7 271,-73.7 304,-73.7 304,-54.7 271,-54.7"/>
<text text-anchor="start" x="274" y="-60.8" font-family="Helvetica,sans-Serif" font-size="11.00" fill="#000000">&lt; 3</text>
<polygon fill="#ffffff" stroke="transparent" points="304,-54.7 304,-73.7 348,-73.7 348,-54.7 304,-54.7"/>
<polygon fill="none" stroke="#000000" points="304,-54.7 304,-73.7 348,-73.7 348,-54.7 304,-54.7"/>
<text text-anchor="start" x="312.6105" y="-60.8" font-family="Helvetica,sans-Serif" font-size="11.00" fill="#000000">0 rows</text>
<polygon fill="#ffffff" stroke="transparent" points="348,-54.7 348,-73.7 375,-73.7 375,-54.7 348,-54.7"/>
<polygon fill="none" stroke="#000000" points="348,-54.7 348,-73.7 375,-73.7 375,-54.7 348,-54.7"/>
<text text-anchor="start" x="356.4053" y="-60.8" font-family="Helvetica,sans-Serif" font-size="11.00" fill="#000000">3 &gt;</text>
</a>
</g>
</g>
<!-- event_sponsors&#45;&gt;events -->
<g id="edge1" class="edge">
<title>event_sponsors:w&#45;&gt;events:e</title>
<path fill="none" stroke="#000000" d="M412.6146,-230.5038C390.2884,-213.1252 413.9657,-147.7 375,-147.7"/>
<polygon fill="#000000" stroke="#000000" points="418.842,-232.3857 425.4586,-238.1461 422.671,-233.5429 426.5,-234.7 426.5,-234.7 426.5,-234.7 422.671,-233.5429 427.5414,-231.2539 418.842,-232.3857 418.842,-232.3857"/>
<ellipse fill="none" stroke="#000000" cx="415.7789" cy="-231.46" rx="3.2" ry="3.2"/>
</g>
<!-- sponsors -->
<g id="node3" class="node">
<title>sponsors</title>
<g id="a_node3"><a xlink:href="../../tables/sponsors.html" xlink:title="sponsors" target="_top">
<polygon fill="#ffffff" stroke="transparent" points="279,-208.2 279,-291.2 367,-291.2 367,-208.2 279,-208.2"/>
<polygon fill="#f5f5f5" stroke="transparent" points="279,-267.7 279,-290.7 367,-290.7 367,-267.7 279,-267.7"/>
<polygon fill="none" stroke="#000000" points="279,-267.7 279,-290.7 367,-290.7 367,-267.7 279,-267.7"/>
<text text-anchor="start" x="284" y="-276.8" font-family="Helvetica,sans-Serif" font-weight="bold" font-size="11.00" fill="#000000">sponsors</text>
<text text-anchor="start" x="332.5219" y="-275.8" font-family="Helvetica,sans-Serif" font-size="11.00" fill="#000000">[table]</text>
<polygon fill="none" stroke="#000000" points="279,-245.7 279,-267.7 367,-267.7 367,-245.7 279,-245.7"/>
<image xlink:href="../../images/primaryKeys.png" width="11px" height="12px" preserveAspectRatio="xMinYMin meet" x="284" y="-262.7"/>
<text text-anchor="start" x="299" y="-252.8" font-family="Helvetica,sans-Serif" font-size="11.00" fill="#000000">id</text>
<polygon fill="none" stroke="#000000" points="279,-226.7 279,-245.7 367,-245.7 367,-226.7 279,-226.7"/>
<text text-anchor="start" x="282" y="-232.8" font-family="Helvetica,sans-Serif" font-size="11.00" fill="#000000">...</text>
<polygon fill="#ffffff" stroke="transparent" points="279,-207.7 279,-226.7 299,-226.7 299,-207.7 279,-207.7"/>
<polygon fill="none" stroke="#000000" points="279,-207.7 279,-226.7 299,-226.7 299,-207.7 279,-207.7"/>
<text text-anchor="start" x="282" y="-213.8" font-family="Helvetica,sans-Serif" font-size="11.00" fill="#000000"> &#160;</text>
<polygon fill="#ffffff" stroke="transparent" points="299,-207.7 299,-226.7 341,-226.7 341,-207.7 299,-207.7"/>
<polygon fill="none" stroke="#000000" points="299,-207.7 299,-226.7 341,-226.7 341,-207.7 299,-207.7"/>
<text text-anchor="start" x="305.6105" y="-213.8" font-family="Helvetica,sans-Serif" font-size="11.00" fill="#000000">0 rows</text>
<polygon fill="#ffffff" stroke="transparent" points="341,-207.7 341,-226.7 367,-226.7 367,-207.7 341,-207.7"/>
<polygon fill="none" stroke="#000000" points="341,-207.7 341,-226.7 367,-226.7 367,-207.7 341,-207.7"/>
<text text-anchor="start" x="348.4053" y="-213.8" font-family="Helvetica,sans-Serif" font-size="11.00" fill="#000000">1 &gt;</text>
</a>
</g>
</g>
<!-- event_sponsors&#45;&gt;sponsors -->
<g id="edge2" class="edge">
<title>event_sponsors:w&#45;&gt;sponsors:e</title>
<path fill="none" stroke="#000000" d="M412.0408,-256.7C396.384,-256.7 387.8663,-256.7 367,-256.7"/>
<polygon fill="#000000" stroke="#000000" points="418.5,-256.7001 426.5,-260.3 422.5,-256.7 426.5,-256.7 426.5,-256.7 426.5,-256.7 422.5,-256.7 426.5,-253.1 418.5,-256.7001 418.5,-256.7001"/>
<ellipse fill="none" stroke="#000000" cx="415.3" cy="-256.7001" rx="3.2" ry="3.2"/>
</g>
<!-- chapters -->
<g id="node6" class="node">
<title>chapters</title>
<g id="a_node6"><a xlink:href="../../tables/chapters.html" xlink:title="chapters" target="_top">
<polygon fill="#ffffff" stroke="transparent" points="8,-72.2 8,-133.2 93,-133.2 93,-72.2 8,-72.2"/>
<polygon fill="#f5f5f5" stroke="transparent" points="8.5,-109.7 8.5,-132.7 93.5,-132.7 93.5,-109.7 8.5,-109.7"/>
<polygon fill="none" stroke="#000000" points="8.5,-109.7 8.5,-132.7 93.5,-132.7 93.5,-109.7 8.5,-109.7"/>
<text text-anchor="start" x="13.4108" y="-118.8" font-family="Helvetica,sans-Serif" font-weight="bold" font-size="11.00" fill="#000000">chapters</text>
<text text-anchor="start" x="59.0219" y="-117.8" font-family="Helvetica,sans-Serif" font-size="11.00" fill="#000000">[table]</text>
<polygon fill="none" stroke="#000000" points="8.5,-90.7 8.5,-109.7 93.5,-109.7 93.5,-90.7 8.5,-90.7"/>
<text text-anchor="start" x="11.5" y="-96.8" font-family="Helvetica,sans-Serif" font-size="11.00" fill="#000000">...</text>
<polygon fill="#ffffff" stroke="transparent" points="8.5,-71.7 8.5,-90.7 27.5,-90.7 27.5,-71.7 8.5,-71.7"/>
<polygon fill="none" stroke="#000000" points="8.5,-71.7 8.5,-90.7 27.5,-90.7 27.5,-71.7 8.5,-71.7"/>
<text text-anchor="start" x="11.5" y="-77.8" font-family="Helvetica,sans-Serif" font-size="11.00" fill="#000000"> &#160;</text>
<polygon fill="#ffffff" stroke="transparent" points="27.5,-71.7 27.5,-90.7 68.5,-90.7 68.5,-71.7 27.5,-71.7"/>
<polygon fill="none" stroke="#000000" points="27.5,-71.7 27.5,-90.7 68.5,-90.7 68.5,-71.7 27.5,-71.7"/>
<text text-anchor="start" x="33.1105" y="-77.8" font-family="Helvetica,sans-Serif" font-size="11.00" fill="#000000">0 rows</text>
<polygon fill="#ffffff" stroke="transparent" points="68.5,-71.7 68.5,-90.7 93.5,-90.7 93.5,-71.7 68.5,-71.7"/>
<polygon fill="none" stroke="#000000" points="68.5,-71.7 68.5,-90.7 93.5,-90.7 93.5,-71.7 68.5,-71.7"/>
<text text-anchor="start" x="74.9053" y="-77.8" font-family="Helvetica,sans-Serif" font-size="11.00" fill="#000000">4 &gt;</text>
</a>
</g>
</g>
<!-- events&#45;&gt;chapters -->
<g id="edge5" class="edge">
<title>events:w&#45;&gt;chapters:e</title>
<path fill="none" stroke="#000000" d="M256.695,-100.7178C248.3934,-96.8171 243.2159,-90.1874 230,-87.7 188.0695,-79.8083 176.2249,-81.576 134,-87.7 115.4209,-90.3946 112.2735,-99.7 93.5,-99.7"/>
<polygon fill="#000000" stroke="#000000" points="263.1684,-102.0673 270.2653,-107.2242 267.0842,-102.8836 271,-103.7 271,-103.7 271,-103.7 267.0842,-102.8836 271.7347,-100.1758 263.1684,-102.0673 263.1684,-102.0673"/>
<ellipse fill="none" stroke="#000000" cx="260.0357" cy="-101.4142" rx="3.2" ry="3.2"/>
</g>
<!-- venues -->
<g id="node7" class="node">
<title>venues</title>
<g id="a_node7"><a xlink:href="../../tables/venues.html" xlink:title="venues" target="_top">
<polygon fill="#ffffff" stroke="transparent" points="142,-98.2 142,-159.2 222,-159.2 222,-98.2 142,-98.2"/>
<polygon fill="#f5f5f5" stroke="transparent" points="142,-135.7 142,-158.7 222,-158.7 222,-135.7 142,-135.7"/>
<polygon fill="none" stroke="#000000" points="142,-135.7 142,-158.7 222,-158.7 222,-135.7 142,-135.7"/>
<text text-anchor="start" x="147" y="-144.8" font-family="Helvetica,sans-Serif" font-weight="bold" font-size="11.00" fill="#000000">venues</text>
<text text-anchor="start" x="187.0437" y="-143.8" font-family="Helvetica,sans-Serif" font-size="11.00" fill="#000000">[table]</text>
<polygon fill="none" stroke="#000000" points="142,-116.7 142,-135.7 222,-135.7 222,-116.7 142,-116.7"/>
<text text-anchor="start" x="145" y="-122.8" font-family="Helvetica,sans-Serif" font-size="11.00" fill="#000000">...</text>
<polygon fill="#ffffff" stroke="transparent" points="142,-97.7 142,-116.7 163,-116.7 163,-97.7 142,-97.7"/>
<polygon fill="none" stroke="#000000" points="142,-97.7 142,-116.7 163,-116.7 163,-97.7 142,-97.7"/>
<text text-anchor="start" x="144.7027" y="-103.8" font-family="Helvetica,sans-Serif" font-size="11.00" fill="#000000">&lt; 1</text>
<polygon fill="#ffffff" stroke="transparent" points="163,-97.7 163,-116.7 201,-116.7 201,-97.7 163,-97.7"/>
<polygon fill="none" stroke="#000000" points="163,-97.7 163,-116.7 201,-116.7 201,-97.7 163,-97.7"/>
<text text-anchor="start" x="165.8053" y="-103.8" font-family="Helvetica,sans-Serif" font-size="11.00" fill="#000000">0 rows</text>
<polygon fill="#ffffff" stroke="transparent" points="201,-97.7 201,-116.7 222,-116.7 222,-97.7 201,-97.7"/>
<polygon fill="none" stroke="#000000" points="201,-97.7 201,-116.7 222,-116.7 222,-97.7 201,-97.7"/>
<text text-anchor="start" x="203.7027" y="-103.8" font-family="Helvetica,sans-Serif" font-size="11.00" fill="#000000">2 &gt;</text>
</a>
</g>
</g>
<!-- events&#45;&gt;venues -->
<g id="edge6" class="edge">
<title>events:w&#45;&gt;venues:e</title>
<path fill="none" stroke="#000000" d="M256.6297,-107.1375C245.0865,-113.325 239.9041,-125.7 222,-125.7"/>
<polygon fill="#000000" stroke="#000000" points="263.2195,-105.5612 271.8375,-107.2012 267.1098,-104.6306 271,-103.7 271,-103.7 271,-103.7 267.1098,-104.6306 270.1625,-100.1988 263.2195,-105.5612 263.2195,-105.5612"/>
<ellipse fill="none" stroke="#000000" cx="260.1073" cy="-106.3057" rx="3.2" ry="3.2"/>
</g>
<!-- events&#45;&gt;venues -->
<g id="edge7" class="edge">
<title>events:w&#45;&gt;venues:e</title>
<path fill="none" stroke="#000000" d="M256.4909,-125.7C245.1774,-125.7 237.9931,-125.7 222,-125.7"/>
<polygon fill="#000000" stroke="#000000" points="263,-125.7001 271,-129.3 267,-125.7 271,-125.7 271,-125.7 271,-125.7 267,-125.7 271,-122.1 263,-125.7001 263,-125.7001"/>
<ellipse fill="none" stroke="#000000" cx="259.8" cy="-125.7001" rx="3.2" ry="3.2"/>
</g>
<!-- event_tags -->
<g id="node4" class="node">
<title>event_tags</title>
<g id="a_node4"><a xlink:href="../../tables/event_tags.html" xlink:title="event_tags" target="_top">
<polygon fill="#ffffff" stroke="transparent" points="476.5,-120.2 476.5,-181.2 572.5,-181.2 572.5,-120.2 476.5,-120.2"/>
<polygon fill="#f5f5f5" stroke="transparent" points="476.5,-157.7 476.5,-180.7 572.5,-180.7 572.5,-157.7 476.5,-157.7"/>
<polygon fill="none" stroke="#000000" points="476.5,-157.7 476.5,-180.7 572.5,-180.7 572.5,-157.7 476.5,-157.7"/>
<text text-anchor="start" x="481.0984" y="-166.8" font-family="Helvetica,sans-Serif" font-weight="bold" font-size="11.00" fill="#000000">event_tags</text>
<text text-anchor="start" x="538.0219" y="-165.8" font-family="Helvetica,sans-Serif" font-size="11.00" fill="#000000">[table]</text>
<polygon fill="none" stroke="#000000" points="476.5,-138.7 476.5,-157.7 572.5,-157.7 572.5,-138.7 476.5,-138.7"/>
<text text-anchor="start" x="479.5" y="-144.8" font-family="Helvetica,sans-Serif" font-size="11.00" fill="#000000">...</text>
<polygon fill="#ffffff" stroke="transparent" points="476.5,-119.7 476.5,-138.7 509.5,-138.7 509.5,-119.7 476.5,-119.7"/>
<polygon fill="none" stroke="#000000" points="476.5,-119.7 476.5,-138.7 509.5,-138.7 509.5,-119.7 476.5,-119.7"/>
<text text-anchor="start" x="479.5" y="-125.8" font-family="Helvetica,sans-Serif" font-size="11.00" fill="#000000">&lt; 2</text>
<polygon fill="#ffffff" stroke="transparent" points="509.5,-119.7 509.5,-138.7 553.5,-138.7 553.5,-119.7 509.5,-119.7"/>
<polygon fill="none" stroke="#000000" points="509.5,-119.7 509.5,-138.7 553.5,-138.7 553.5,-119.7 509.5,-119.7"/>
<text text-anchor="start" x="518.1105" y="-125.8" font-family="Helvetica,sans-Serif" font-size="11.00" fill="#000000">0 rows</text>
<polygon fill="#ffffff" stroke="transparent" points="553.5,-119.7 553.5,-138.7 572.5,-138.7 572.5,-119.7 553.5,-119.7"/>
<polygon fill="none" stroke="#000000" points="553.5,-119.7 553.5,-138.7 572.5,-138.7 572.5,-119.7 553.5,-119.7"/>
<text text-anchor="start" x="563.3862" y="-125.8" font-family="Helvetica,sans-Serif" font-size="11.00" fill="#000000"> &#160;</text>
</a>
</g>
</g>
<!-- event_tags&#45;&gt;events -->
<g id="edge3" class="edge">
<title>event_tags:w&#45;&gt;events:e</title>
<path fill="none" stroke="#000000" d="M461.9256,-147.7C428.281,-147.7 414.8247,-147.7 375,-147.7"/>
<polygon fill="#000000" stroke="#000000" points="468.5,-147.7001 476.5,-151.3 472.5,-147.7 476.5,-147.7 476.5,-147.7 476.5,-147.7 472.5,-147.7 476.5,-144.1 468.5,-147.7001 468.5,-147.7001"/>
<ellipse fill="none" stroke="#000000" cx="465.3" cy="-147.7001" rx="3.2" ry="3.2"/>
</g>
<!-- event_users -->
<g id="node5" class="node">
<title>event_users</title>
<g id="a_node5"><a xlink:href="../../tables/event_users.html" xlink:title="event_users" target="_top">
<polygon fill="#ffffff" stroke="transparent" points="473.5,-38.2 473.5,-99.2 575.5,-99.2 575.5,-38.2 473.5,-38.2"/>
<polygon fill="#f5f5f5" stroke="transparent" points="473.5,-75.7 473.5,-98.7 575.5,-98.7 575.5,-75.7 473.5,-75.7"/>
<polygon fill="none" stroke="#000000" points="473.5,-75.7 473.5,-98.7 575.5,-98.7 575.5,-75.7 473.5,-75.7"/>
<text text-anchor="start" x="478.0459" y="-84.8" font-family="Helvetica,sans-Serif" font-weight="bold" font-size="11.00" fill="#000000">event_users</text>
<text text-anchor="start" x="541.0219" y="-83.8" font-family="Helvetica,sans-Serif" font-size="11.00" fill="#000000">[table]</text>
<polygon fill="none" stroke="#000000" points="473.5,-56.7 473.5,-75.7 575.5,-75.7 575.5,-56.7 473.5,-56.7"/>
<text text-anchor="start" x="476.5" y="-62.8" font-family="Helvetica,sans-Serif" font-size="11.00" fill="#000000">...</text>
<polygon fill="#ffffff" stroke="transparent" points="473.5,-37.7 473.5,-56.7 505.5,-56.7 505.5,-37.7 473.5,-37.7"/>
<polygon fill="none" stroke="#000000" points="473.5,-37.7 473.5,-56.7 505.5,-56.7 505.5,-37.7 473.5,-37.7"/>
<text text-anchor="start" x="476.5" y="-43.8" font-family="Helvetica,sans-Serif" font-size="11.00" fill="#000000">&lt; 4</text>
<polygon fill="#ffffff" stroke="transparent" points="505.5,-37.7 505.5,-56.7 548.5,-56.7 548.5,-37.7 505.5,-37.7"/>
<polygon fill="none" stroke="#000000" points="505.5,-37.7 505.5,-56.7 548.5,-56.7 548.5,-37.7 505.5,-37.7"/>
<text text-anchor="start" x="513.1105" y="-43.8" font-family="Helvetica,sans-Serif" font-size="11.00" fill="#000000">0 rows</text>
<polygon fill="#ffffff" stroke="transparent" points="548.5,-37.7 548.5,-56.7 575.5,-56.7 575.5,-37.7 548.5,-37.7"/>
<polygon fill="none" stroke="#000000" points="548.5,-37.7 548.5,-56.7 575.5,-56.7 575.5,-37.7 548.5,-37.7"/>
<text text-anchor="start" x="556.9053" y="-43.8" font-family="Helvetica,sans-Serif" font-size="11.00" fill="#000000">2 &gt;</text>
</a>
</g>
</g>
<!-- event_users&#45;&gt;events -->
<g id="edge4" class="edge">
<title>event_users:w&#45;&gt;events:e</title>
<path fill="none" stroke="#000000" d="M459.1464,-67.7163C440.3312,-73.8001 436.2805,-92.6074 416,-109.7 397.0022,-125.7115 399.8452,-147.7 375,-147.7"/>
<polygon fill="#000000" stroke="#000000" points="465.5778,-66.8129 474.0008,-69.265 469.5389,-66.2564 473.5,-65.7 473.5,-65.7 473.5,-65.7 469.5389,-66.2564 472.9992,-62.135 465.5778,-66.8129 465.5778,-66.8129"/>
<ellipse fill="none" stroke="#000000" cx="462.4089" cy="-67.2581" rx="3.2" ry="3.2"/>
</g>
<!-- venues&#45;&gt;chapters -->
<g id="edge8" class="edge">
<title>venues:w&#45;&gt;chapters:e</title>
<path fill="none" stroke="#000000" d="M127.9001,-121.8636C116.2846,-114.6313 112.0343,-99.7 93.5,-99.7"/>
<polygon fill="#000000" stroke="#000000" points="134.2806,-123.5996 141.0548,-129.1737 138.1403,-124.6498 142,-125.7 142,-125.7 142,-125.7 138.1403,-124.6498 142.9452,-122.2263 134.2806,-123.5996 134.2806,-123.5996"/>
<ellipse fill="none" stroke="#000000" cx="131.1929" cy="-122.7595" rx="3.2" ry="3.2"/>
</g>
</g>
</svg>
