<?xml version="1.0" encoding="UTF-8" standalone="no"?>
<!DOCTYPE svg PUBLIC "-//W3C//DTD SVG 1.1//EN"
 "http://www.w3.org/Graphics/SVG/1.1/DTD/svg11.dtd">
<!-- Generated by graphviz version 2.40.1 (20161225.0304)
 -->
<!-- Title: twoDegreesRelationshipsDiagram Pages: 1 -->
<svg width="1038pt" height="621pt"
 viewBox="0.00 0.00 1038.00 621.20" xmlns="http://www.w3.org/2000/svg" xmlns:xlink="http://www.w3.org/1999/xlink">
<g id="graph0" class="graph" transform="scale(1 1) rotate(0) translate(4 617.2)">
<title>twoDegreesRelationshipsDiagram</title>
<polygon fill="#ffffff" stroke="transparent" points="-4,4 -4,-617.2 1034,-617.2 1034,4 -4,4"/>
<text text-anchor="middle" x="72.4936" y="-7.3" font-family="Helvetica,sans-Serif" font-size="11.00" fill="#000000">Generated by SchemaSpy</text>
<!-- chapter_users -->
<g id="node1" class="node">
<title>chapter_users</title>
<g id="a_node1"><a xlink:href="../../tables/chapter_users.html" xlink:title="chapter_users" target="_top">
<polygon fill="#ffffff" stroke="transparent" points="335,-405.2 335,-466.2 447,-466.2 447,-405.2 335,-405.2"/>
<polygon fill="#f5f5f5" stroke="transparent" points="335,-442.7 335,-465.7 447,-465.7 447,-442.7 335,-442.7"/>
<polygon fill="none" stroke="#000000" points="335,-442.7 335,-465.7 447,-465.7 447,-442.7 335,-442.7"/>
<text text-anchor="start" x="339.6575" y="-451.8" font-family="Helvetica,sans-Serif" font-weight="bold" font-size="11.00" fill="#000000">chapter_users</text>
<text text-anchor="start" x="412.5219" y="-450.8" font-family="Helvetica,sans-Serif" font-size="11.00" fill="#000000">[table]</text>
<polygon fill="none" stroke="#000000" points="335,-423.7 335,-442.7 447,-442.7 447,-423.7 335,-423.7"/>
<text text-anchor="start" x="338" y="-429.8" font-family="Helvetica,sans-Serif" font-size="11.00" fill="#000000">...</text>
<polygon fill="#ffffff" stroke="transparent" points="335,-404.7 335,-423.7 376,-423.7 376,-404.7 335,-404.7"/>
<polygon fill="none" stroke="#000000" points="335,-404.7 335,-423.7 376,-423.7 376,-404.7 335,-404.7"/>
<text text-anchor="start" x="338" y="-410.8" font-family="Helvetica,sans-Serif" font-size="11.00" fill="#000000">&lt; 3</text>
<polygon fill="#ffffff" stroke="transparent" points="376,-404.7 376,-423.7 424,-423.7 424,-404.7 376,-404.7"/>
<polygon fill="none" stroke="#000000" points="376,-404.7 376,-423.7 424,-423.7 424,-404.7 376,-404.7"/>
<text text-anchor="start" x="388.6105" y="-410.8" font-family="Helvetica,sans-Serif" font-size="11.00" fill="#000000">0 rows</text>
<polygon fill="#ffffff" stroke="transparent" points="424,-404.7 424,-423.7 447,-423.7 447,-404.7 424,-404.7"/>
<polygon fill="none" stroke="#000000" points="424,-404.7 424,-423.7 447,-423.7 447,-404.7 424,-404.7"/>
<text text-anchor="start" x="437.8862" y="-410.8" font-family="Helvetica,sans-Serif" font-size="11.00" fill="#000000"> &#160;</text>
</a>
</g>
</g>
<!-- chapters -->
<g id="node2" class="node">
<title>chapters</title>
<g id="a_node2"><a xlink:href="../../tables/chapters.html" xlink:title="chapters" target="_top">
<polygon fill="#ffffff" stroke="transparent" points="185.5,-434.2 185.5,-495.2 270.5,-495.2 270.5,-434.2 185.5,-434.2"/>
<polygon fill="#f5f5f5" stroke="transparent" points="186,-471.7 186,-494.7 271,-494.7 271,-471.7 186,-471.7"/>
<polygon fill="none" stroke="#000000" points="186,-471.7 186,-494.7 271,-494.7 271,-471.7 186,-471.7"/>
<text text-anchor="start" x="190.9108" y="-480.8" font-family="Helvetica,sans-Serif" font-weight="bold" font-size="11.00" fill="#000000">chapters</text>
<text text-anchor="start" x="236.5219" y="-479.8" font-family="Helvetica,sans-Serif" font-size="11.00" fill="#000000">[table]</text>
<polygon fill="none" stroke="#000000" points="186,-452.7 186,-471.7 271,-471.7 271,-452.7 186,-452.7"/>
<text text-anchor="start" x="189" y="-458.8" font-family="Helvetica,sans-Serif" font-size="11.00" fill="#000000">...</text>
<polygon fill="#ffffff" stroke="transparent" points="186,-433.7 186,-452.7 205,-452.7 205,-433.7 186,-433.7"/>
<polygon fill="none" stroke="#000000" points="186,-433.7 186,-452.7 205,-452.7 205,-433.7 186,-433.7"/>
<text text-anchor="start" x="189" y="-439.8" font-family="Helvetica,sans-Serif" font-size="11.00" fill="#000000"> &#160;</text>
<polygon fill="#ffffff" stroke="transparent" points="205,-433.7 205,-452.7 246,-452.7 246,-433.7 205,-433.7"/>
<polygon fill="none" stroke="#000000" points="205,-433.7 205,-452.7 246,-452.7 246,-433.7 205,-433.7"/>
<text text-anchor="start" x="210.6105" y="-439.8" font-family="Helvetica,sans-Serif" font-size="11.00" fill="#000000">0 rows</text>
<polygon fill="#ffffff" stroke="transparent" points="246,-433.7 246,-452.7 271,-452.7 271,-433.7 246,-433.7"/>
<polygon fill="none" stroke="#000000" points="246,-433.7 246,-452.7 271,-452.7 271,-433.7 246,-433.7"/>
<text text-anchor="start" x="252.4053" y="-439.8" font-family="Helvetica,sans-Serif" font-size="11.00" fill="#000000">4 &gt;</text>
</a>
</g>
</g>
<!-- chapter_users&#45;&gt;chapters -->
<g id="edge1" class="edge">
<title>chapter_users:w&#45;&gt;chapters:e</title>
<path fill="none" stroke="#000000" d="M320.6969,-435.1725C302.2586,-442.1855 296.617,-461.7 271,-461.7"/>
<polygon fill="#000000" stroke="#000000" points="327.1169,-434.0628 335.6132,-436.2474 331.0585,-433.3814 335,-432.7 335,-432.7 335,-432.7 331.0585,-433.3814 334.3868,-429.1526 327.1169,-434.0628 327.1169,-434.0628"/>
<ellipse fill="none" stroke="#000000" cx="323.9637" cy="-434.6079" rx="3.2" ry="3.2"/>
</g>
<!-- users -->
<g id="node3" class="node">
<title>users</title>
<g id="a_node3"><a xlink:href="../../tables/users.html" xlink:title="users" target="_top">
<polygon fill="#ffffff" stroke="transparent" points="170,-232.2 170,-359.2 286,-359.2 286,-232.2 170,-232.2"/>
<polygon fill="#f5f5f5" stroke="transparent" points="170,-335.7 170,-358.7 286,-358.7 286,-335.7 170,-335.7"/>
<polygon fill="none" stroke="#000000" points="170,-335.7 170,-358.7 286,-358.7 286,-335.7 170,-335.7"/>
<text text-anchor="start" x="175" y="-344.8" font-family="Helvetica,sans-Serif" font-weight="bold" font-size="11.00" fill="#000000">users</text>
<text text-anchor="start" x="251.0437" y="-343.8" font-family="Helvetica,sans-Serif" font-size="11.00" fill="#000000">[table]</text>
<polygon fill="none" stroke="#000000" points="170,-313.7 170,-335.7 286,-335.7 286,-313.7 170,-313.7"/>
<image xlink:href="../../images/primaryKeys.png" width="11px" height="12px" preserveAspectRatio="xMinYMin meet" x="175" y="-330.7"/>
<text text-anchor="start" x="190" y="-320.8" font-family="Helvetica,sans-Serif" font-size="11.00" fill="#000000">id</text>
<polygon fill="#ffffff" stroke="transparent" points="170,-291.7 170,-313.7 286,-313.7 286,-291.7 170,-291.7"/>
<polygon fill="none" stroke="#000000" points="170,-291.7 170,-313.7 286,-313.7 286,-291.7 170,-291.7"/>
<text text-anchor="start" x="190" y="-298.8" font-family="Helvetica,sans-Serif" font-size="11.00" fill="#000000">email</text>
<polygon fill="none" stroke="#000000" points="170,-269.7 170,-291.7 286,-291.7 286,-269.7 170,-269.7"/>
<image xlink:href="../../images/foreignKeys.png" width="11px" height="12px" preserveAspectRatio="xMinYMin meet" x="175" y="-286.7"/>
<text text-anchor="start" x="190" y="-276.8" font-family="Helvetica,sans-Serif" font-size="11.00" fill="#000000">instance_role_id</text>
<polygon fill="none" stroke="#000000" points="170,-250.7 170,-269.7 286,-269.7 286,-250.7 170,-250.7"/>
<text text-anchor="start" x="173" y="-256.8" font-family="Helvetica,sans-Serif" font-size="11.00" fill="#000000">...</text>
<polygon fill="#ffffff" stroke="transparent" points="170,-231.7 170,-250.7 209,-250.7 209,-231.7 170,-231.7"/>
<polygon fill="none" stroke="#000000" points="170,-231.7 170,-250.7 209,-250.7 209,-231.7 170,-231.7"/>
<text text-anchor="start" x="173" y="-237.8" font-family="Helvetica,sans-Serif" font-size="11.00" fill="#000000">&lt; 1</text>
<polygon fill="#ffffff" stroke="transparent" points="209,-231.7 209,-250.7 256,-250.7 256,-231.7 209,-231.7"/>
<polygon fill="none" stroke="#000000" points="209,-231.7 209,-250.7 256,-250.7 256,-231.7 209,-231.7"/>
<text text-anchor="start" x="220.6105" y="-237.8" font-family="Helvetica,sans-Serif" font-size="11.00" fill="#000000">0 rows</text>
<polygon fill="#ffffff" stroke="transparent" points="256,-231.7 256,-250.7 286,-250.7 286,-231.7 256,-231.7"/>
<polygon fill="none" stroke="#000000" points="256,-231.7 256,-250.7 286,-250.7 286,-231.7 256,-231.7"/>
<text text-anchor="start" x="267.4053" y="-237.8" font-family="Helvetica,sans-Serif" font-size="11.00" fill="#000000">4 &gt;</text>
</a>
</g>
</g>
<!-- chapter_users&#45;&gt;users -->
<g id="edge2" class="edge">
<title>chapter_users:w&#45;&gt;users:e</title>
<path fill="none" stroke="#000000" d="M320.971,-428.8562C293.6726,-409.6172 332.7383,-324.7 286,-324.7"/>
<polygon fill="#000000" stroke="#000000" points="327.2844,-430.586 334.0487,-436.172 331.1422,-431.643 335,-432.7 335,-432.7 335,-432.7 331.1422,-431.643 335.9513,-429.228 327.2844,-430.586 327.2844,-430.586"/>
<ellipse fill="none" stroke="#000000" cx="324.1981" cy="-429.7404" rx="3.2" ry="3.2"/>
</g>
<!-- instance_roles -->
<g id="node15" class="node">
<title>instance_roles</title>
<g id="a_node15"><a xlink:href="../../tables/instance_roles.html" xlink:title="instance_roles" target="_top">
<polygon fill="#ffffff" stroke="transparent" points="8,-253.2 8,-314.2 121,-314.2 121,-253.2 8,-253.2"/>
<polygon fill="#f5f5f5" stroke="transparent" points="8.5,-290.7 8.5,-313.7 121.5,-313.7 121.5,-290.7 8.5,-290.7"/>
<polygon fill="none" stroke="#000000" points="8.5,-290.7 8.5,-313.7 121.5,-313.7 121.5,-290.7 8.5,-290.7"/>
<text text-anchor="start" x="13.0476" y="-299.8" font-family="Helvetica,sans-Serif" font-weight="bold" font-size="11.00" fill="#000000">instance_roles</text>
<text text-anchor="start" x="87.0219" y="-298.8" font-family="Helvetica,sans-Serif" font-size="11.00" fill="#000000">[table]</text>
<polygon fill="none" stroke="#000000" points="8.5,-271.7 8.5,-290.7 121.5,-290.7 121.5,-271.7 8.5,-271.7"/>
<text text-anchor="start" x="11.5" y="-277.8" font-family="Helvetica,sans-Serif" font-size="11.00" fill="#000000">...</text>
<polygon fill="#ffffff" stroke="transparent" points="8.5,-252.7 8.5,-271.7 41.5,-271.7 41.5,-252.7 8.5,-252.7"/>
<polygon fill="none" stroke="#000000" points="8.5,-252.7 8.5,-271.7 41.5,-271.7 41.5,-252.7 8.5,-252.7"/>
<text text-anchor="start" x="11.5" y="-258.8" font-family="Helvetica,sans-Serif" font-size="11.00" fill="#000000"> &#160;</text>
<polygon fill="#ffffff" stroke="transparent" points="41.5,-252.7 41.5,-271.7 89.5,-271.7 89.5,-252.7 41.5,-252.7"/>
<polygon fill="none" stroke="#000000" points="41.5,-252.7 41.5,-271.7 89.5,-271.7 89.5,-252.7 41.5,-252.7"/>
<text text-anchor="start" x="54.1105" y="-258.8" font-family="Helvetica,sans-Serif" font-size="11.00" fill="#000000">0 rows</text>
<polygon fill="#ffffff" stroke="transparent" points="89.5,-252.7 89.5,-271.7 121.5,-271.7 121.5,-252.7 89.5,-252.7"/>
<polygon fill="none" stroke="#000000" points="89.5,-252.7 89.5,-271.7 121.5,-271.7 121.5,-252.7 89.5,-252.7"/>
<text text-anchor="start" x="102.9053" y="-258.8" font-family="Helvetica,sans-Serif" font-size="11.00" fill="#000000">2 &gt;</text>
</a>
</g>
</g>
<!-- users&#45;&gt;instance_roles -->
<g id="edge17" class="edge">
<title>users:w&#45;&gt;instance_roles:e</title>
<path fill="none" stroke="#000000" d="M155.2829,-280.7C144.2886,-280.7 137.1615,-280.7 121.5,-280.7"/>
<polygon fill="#000000" stroke="#000000" points="162,-280.7001 170,-284.3 166,-280.7 170,-280.7 170,-280.7 170,-280.7 166,-280.7 170,-277.1 162,-280.7001 162,-280.7001"/>
<ellipse fill="none" stroke="#000000" cx="158.8" cy="-280.7001" rx="3.2" ry="3.2"/>
</g>
<!-- event_reminders -->
<g id="node4" class="node">
<title>event_reminders</title>
<g id="a_node4"><a xlink:href="../../tables/event_reminders.html" xlink:title="event_reminders" target="_top">
<polygon fill="#ffffff" stroke="transparent" points="898,-232.2 898,-337.2 1022,-337.2 1022,-232.2 898,-232.2"/>
<polygon fill="#f5f5f5" stroke="transparent" points="898,-313.7 898,-336.7 1022,-336.7 1022,-313.7 898,-313.7"/>
<polygon fill="none" stroke="#000000" points="898,-313.7 898,-336.7 1022,-336.7 1022,-313.7 898,-313.7"/>
<text text-anchor="start" x="902.5487" y="-322.8" font-family="Helvetica,sans-Serif" font-weight="bold" font-size="11.00" fill="#000000">event_reminders</text>
<text text-anchor="start" x="987.5219" y="-321.8" font-family="Helvetica,sans-Serif" font-size="11.00" fill="#000000">[table]</text>
<polygon fill="none" stroke="#000000" points="898,-291.7 898,-313.7 1022,-313.7 1022,-291.7 898,-291.7"/>
<image xlink:href="../../images/primaryKeys.png" width="11px" height="12px" preserveAspectRatio="xMinYMin meet" x="903" y="-308.7"/>
<text text-anchor="start" x="919" y="-298.8" font-family="Helvetica,sans-Serif" font-size="11.00" fill="#000000">user_id</text>
<polygon fill="none" stroke="#000000" points="898,-269.7 898,-291.7 1022,-291.7 1022,-269.7 898,-269.7"/>
<image xlink:href="../../images/primaryKeys.png" width="11px" height="12px" preserveAspectRatio="xMinYMin meet" x="903" y="-286.7"/>
<text text-anchor="start" x="919" y="-276.8" font-family="Helvetica,sans-Serif" font-size="11.00" fill="#000000">event_id</text>
<polygon fill="none" stroke="#000000" points="898,-250.7 898,-269.7 1022,-269.7 1022,-250.7 898,-250.7"/>
<text text-anchor="start" x="901" y="-256.8" font-family="Helvetica,sans-Serif" font-size="11.00" fill="#000000">...</text>
<polygon fill="#ffffff" stroke="transparent" points="898,-231.7 898,-250.7 945,-250.7 945,-231.7 898,-231.7"/>
<polygon fill="none" stroke="#000000" points="898,-231.7 898,-250.7 945,-250.7 945,-231.7 898,-231.7"/>
<text text-anchor="start" x="901" y="-237.8" font-family="Helvetica,sans-Serif" font-size="11.00" fill="#000000">&lt; 2</text>
<polygon fill="#ffffff" stroke="transparent" points="945,-231.7 945,-250.7 996,-250.7 996,-231.7 945,-231.7"/>
<polygon fill="none" stroke="#000000" points="945,-231.7 945,-250.7 996,-250.7 996,-231.7 945,-231.7"/>
<text text-anchor="start" x="960.6105" y="-237.8" font-family="Helvetica,sans-Serif" font-size="11.00" fill="#000000">0 rows</text>
<polygon fill="#ffffff" stroke="transparent" points="996,-231.7 996,-250.7 1022,-250.7 1022,-231.7 996,-231.7"/>
<polygon fill="none" stroke="#000000" points="996,-231.7 996,-250.7 1022,-250.7 1022,-231.7 996,-231.7"/>
<text text-anchor="start" x="1012.8862" y="-237.8" font-family="Helvetica,sans-Serif" font-size="11.00" fill="#000000"> &#160;</text>
</a>
</g>
</g>
<!-- event_users -->
<g id="node5" class="node">
<title>event_users</title>
<g id="a_node5"><a xlink:href="../../tables/event_users.html" xlink:title="event_users" target="_top">
<polygon fill="#ffffff" stroke="transparent" points="649,-160.7 649,-382.7 849,-382.7 849,-160.7 649,-160.7"/>
<polygon fill="#f5f5f5" stroke="transparent" points="651,-357.7 651,-380.7 847,-380.7 847,-357.7 651,-357.7"/>
<polygon fill="none" stroke="#000000" points="651,-357.7 651,-380.7 847,-380.7 847,-357.7 651,-357.7"/>
<text text-anchor="start" x="656" y="-366.8" font-family="Helvetica,sans-Serif" font-weight="bold" font-size="11.00" fill="#000000">event_users</text>
<text text-anchor="start" x="812.0437" y="-365.8" font-family="Helvetica,sans-Serif" font-size="11.00" fill="#000000">[table]</text>
<polygon fill="none" stroke="#000000" points="651,-335.7 651,-357.7 750,-357.7 750,-335.7 651,-335.7"/>
<text text-anchor="start" x="671" y="-342.8" font-family="Helvetica,sans-Serif" font-size="11.00" fill="#000000">created_at</text>
<polygon fill="none" stroke="#000000" points="750,-335.7 750,-357.7 847,-357.7 847,-335.7 750,-335.7"/>
<text text-anchor="start" x="753" y="-343.4" font-family="Helvetica,sans-Serif" font-size="11.00" fill="#000000">timestamp[26,3]</text>
<polygon fill="none" stroke="#000000" points="651,-313.7 651,-335.7 750,-335.7 750,-313.7 651,-313.7"/>
<text text-anchor="start" x="671" y="-320.8" font-family="Helvetica,sans-Serif" font-size="11.00" fill="#000000">updated_at</text>
<polygon fill="none" stroke="#000000" points="750,-313.7 750,-335.7 847,-335.7 847,-313.7 750,-313.7"/>
<text text-anchor="start" x="753" y="-321.4" font-family="Helvetica,sans-Serif" font-size="11.00" fill="#000000">timestamp[26,3]</text>
<polygon fill="none" stroke="#000000" points="651,-291.7 651,-313.7 750,-313.7 750,-291.7 651,-291.7"/>
<image xlink:href="../../images/primaryKeys.png" width="11px" height="12px" preserveAspectRatio="xMinYMin meet" x="656" y="-308.7"/>
<text text-anchor="start" x="671" y="-298.8" font-family="Helvetica,sans-Serif" font-size="11.00" fill="#000000">user_id</text>
<polygon fill="none" stroke="#000000" points="750,-291.7 750,-313.7 847,-313.7 847,-291.7 750,-291.7"/>
<text text-anchor="start" x="753" y="-299.4" font-family="Helvetica,sans-Serif" font-size="11.00" fill="#000000">int4[10]</text>
<polygon fill="none" stroke="#000000" points="651,-269.7 651,-291.7 750,-291.7 750,-269.7 651,-269.7"/>
<image xlink:href="../../images/primaryKeys.png" width="11px" height="12px" preserveAspectRatio="xMinYMin meet" x="656" y="-286.7"/>
<text text-anchor="start" x="671" y="-276.8" font-family="Helvetica,sans-Serif" font-size="11.00" fill="#000000">event_id</text>
<polygon fill="none" stroke="#000000" points="750,-269.7 750,-291.7 847,-291.7 847,-269.7 750,-269.7"/>
<text text-anchor="start" x="753" y="-277.4" font-family="Helvetica,sans-Serif" font-size="11.00" fill="#000000">int4[10]</text>
<polygon fill="none" stroke="#000000" points="651,-247.7 651,-269.7 750,-269.7 750,-247.7 651,-247.7"/>
<image xlink:href="../../images/foreignKeys.png" width="11px" height="12px" preserveAspectRatio="xMinYMin meet" x="656" y="-264.7"/>
<text text-anchor="start" x="671" y="-254.8" font-family="Helvetica,sans-Serif" font-size="11.00" fill="#000000">event_role_id</text>
<polygon fill="none" stroke="#000000" points="750,-247.7 750,-269.7 847,-269.7 847,-247.7 750,-247.7"/>
<text text-anchor="start" x="753" y="-255.4" font-family="Helvetica,sans-Serif" font-size="11.00" fill="#000000">int4[10]</text>
<polygon fill="none" stroke="#000000" points="651,-225.7 651,-247.7 750,-247.7 750,-225.7 651,-225.7"/>
<image xlink:href="../../images/foreignKeys.png" width="11px" height="12px" preserveAspectRatio="xMinYMin meet" x="656" y="-242.7"/>
<text text-anchor="start" x="671" y="-232.8" font-family="Helvetica,sans-Serif" font-size="11.00" fill="#000000">rsvp_id</text>
<polygon fill="none" stroke="#000000" points="750,-225.7 750,-247.7 847,-247.7 847,-225.7 750,-225.7"/>
<text text-anchor="start" x="753" y="-233.4" font-family="Helvetica,sans-Serif" font-size="11.00" fill="#000000">int4[10]</text>
<polygon fill="none" stroke="#000000" points="651,-203.7 651,-225.7 750,-225.7 750,-203.7 651,-203.7"/>
<text text-anchor="start" x="671" y="-210.8" font-family="Helvetica,sans-Serif" font-size="11.00" fill="#000000">subscribed</text>
<polygon fill="none" stroke="#000000" points="750,-203.7 750,-225.7 847,-225.7 847,-203.7 750,-203.7"/>
<text text-anchor="start" x="753" y="-211.4" font-family="Helvetica,sans-Serif" font-size="11.00" fill="#000000">bool[1]</text>
<polygon fill="none" stroke="#000000" points="651,-181.7 651,-203.7 750,-203.7 750,-181.7 651,-181.7"/>
<text text-anchor="start" x="671" y="-188.8" font-family="Helvetica,sans-Serif" font-size="11.00" fill="#000000">title</text>
<polygon fill="none" stroke="#000000" points="750,-181.7 750,-203.7 847,-203.7 847,-181.7 750,-181.7"/>
<text text-anchor="start" x="752.9468" y="-189.4" font-family="Helvetica,sans-Serif" font-size="11.00" fill="#000000">_text[2147483647]</text>
<polygon fill="#ffffff" stroke="transparent" points="651,-162.7 651,-181.7 692,-181.7 692,-162.7 651,-162.7"/>
<polygon fill="none" stroke="#000000" points="651,-162.7 651,-181.7 692,-181.7 692,-162.7 651,-162.7"/>
<text text-anchor="start" x="654" y="-168.8" font-family="Helvetica,sans-Serif" font-size="11.00" fill="#000000">&lt; 4</text>
<polygon fill="#ffffff" stroke="transparent" points="692,-162.7 692,-181.7 750,-181.7 750,-162.7 692,-162.7"/>
<polygon fill="none" stroke="#000000" points="692,-162.7 692,-181.7 750,-181.7 750,-162.7 692,-162.7"/>
<text text-anchor="start" x="714.6105" y="-168.8" font-family="Helvetica,sans-Serif" font-size="11.00" fill="#000000">0 rows</text>
<polygon fill="#ffffff" stroke="transparent" points="750,-162.7 750,-181.7 847,-181.7 847,-162.7 750,-162.7"/>
<polygon fill="none" stroke="#000000" points="750,-162.7 750,-181.7 847,-181.7 847,-162.7 750,-162.7"/>
<text text-anchor="start" x="828.4053" y="-168.8" font-family="Helvetica,sans-Serif" font-size="11.00" fill="#000000">2 &gt;</text>
<polygon fill="none" stroke="#000000" stroke-width="2" points="650,-161.7 650,-381.7 848,-381.7 848,-161.7 650,-161.7"/>
</a>
</g>
</g>
<!-- event_reminders&#45;&gt;event_users -->
<g id="edge3" class="edge">
<title>event_reminders:w&#45;&gt;event_users:e</title>
<path fill="none" stroke="#000000" d="M883.276,-280.7C871.2815,-280.7 863.8229,-280.7 847,-280.7"/>
<polygon fill="#000000" stroke="#000000" points="890,-280.7001 898,-284.3 894,-280.7 898,-280.7 898,-280.7 898,-280.7 894,-280.7 898,-277.1 890,-280.7001 890,-280.7001"/>
<ellipse fill="none" stroke="#000000" cx="886.8" cy="-280.7001" rx="3.2" ry="3.2"/>
</g>
<!-- event_reminders&#45;&gt;event_users -->
<g id="edge4" class="edge">
<title>event_reminders:w&#45;&gt;event_users:e</title>
<path fill="none" stroke="#000000" d="M883.276,-302.7C871.2815,-302.7 863.8229,-302.7 847,-302.7"/>
<polygon fill="#000000" stroke="#000000" points="890,-302.7001 898,-306.3 894,-302.7 898,-302.7 898,-302.7 898,-302.7 894,-302.7 898,-299.1 890,-302.7001 890,-302.7001"/>
<ellipse fill="none" stroke="#000000" cx="886.8" cy="-302.7001" rx="3.2" ry="3.2"/>
</g>
<!-- event_users&#45;&gt;users -->
<g id="edge11" class="edge">
<title>event_users:w&#45;&gt;users:e</title>
<path fill="none" stroke="#000000" d="M636.5919,-302.6576C504.2353,-301.8772 464.4157,-290.8351 327,-312.7 308.2492,-315.6835 304.9867,-324.7 286,-324.7"/>
<polygon fill="#000000" stroke="#000000" points="643,-302.6764 650.9894,-306.3 647,-302.6882 651,-302.7 651,-302.7 651,-302.7 647,-302.6882 651.0106,-299.1 643,-302.6764 643,-302.6764"/>
<ellipse fill="none" stroke="#000000" cx="639.8" cy="-302.667" rx="3.2" ry="3.2"/>
</g>
<!-- event_roles -->
<g id="node7" class="node">
<title>event_roles</title>
<g id="a_node7"><a xlink:href="../../tables/event_roles.html" xlink:title="event_roles" target="_top">
<polygon fill="#ffffff" stroke="transparent" points="498.5,-38.2 498.5,-143.2 597.5,-143.2 597.5,-38.2 498.5,-38.2"/>
<polygon fill="#f5f5f5" stroke="transparent" points="499,-119.7 499,-142.7 598,-142.7 598,-119.7 499,-119.7"/>
<polygon fill="none" stroke="#000000" points="499,-119.7 499,-142.7 598,-142.7 598,-119.7 499,-119.7"/>
<text text-anchor="start" x="503.5755" y="-128.8" font-family="Helvetica,sans-Serif" font-weight="bold" font-size="11.00" fill="#000000">event_roles</text>
<text text-anchor="start" x="563.5219" y="-127.8" font-family="Helvetica,sans-Serif" font-size="11.00" fill="#000000">[table]</text>
<polygon fill="none" stroke="#000000" points="499,-97.7 499,-119.7 598,-119.7 598,-97.7 499,-97.7"/>
<image xlink:href="../../images/primaryKeys.png" width="11px" height="12px" preserveAspectRatio="xMinYMin meet" x="504" y="-114.7"/>
<text text-anchor="start" x="524" y="-104.8" font-family="Helvetica,sans-Serif" font-size="11.00" fill="#000000">id</text>
<polygon fill="#ffffff" stroke="transparent" points="499,-75.7 499,-97.7 598,-97.7 598,-75.7 499,-75.7"/>
<polygon fill="none" stroke="#000000" points="499,-75.7 499,-97.7 598,-97.7 598,-75.7 499,-75.7"/>
<text text-anchor="start" x="524" y="-82.8" font-family="Helvetica,sans-Serif" font-size="11.00" fill="#000000">name</text>
<polygon fill="none" stroke="#000000" points="499,-56.7 499,-75.7 598,-75.7 598,-56.7 499,-56.7"/>
<text text-anchor="start" x="502" y="-62.8" font-family="Helvetica,sans-Serif" font-size="11.00" fill="#000000">...</text>
<polygon fill="#ffffff" stroke="transparent" points="499,-37.7 499,-56.7 525,-56.7 525,-37.7 499,-37.7"/>
<polygon fill="none" stroke="#000000" points="499,-37.7 499,-56.7 525,-56.7 525,-37.7 499,-37.7"/>
<text text-anchor="start" x="502" y="-43.8" font-family="Helvetica,sans-Serif" font-size="11.00" fill="#000000"> &#160;</text>
<polygon fill="#ffffff" stroke="transparent" points="525,-37.7 525,-56.7 570,-56.7 570,-37.7 525,-37.7"/>
<polygon fill="none" stroke="#000000" points="525,-37.7 525,-56.7 570,-56.7 570,-37.7 525,-37.7"/>
<text text-anchor="start" x="534.6105" y="-43.8" font-family="Helvetica,sans-Serif" font-size="11.00" fill="#000000">0 rows</text>
<polygon fill="#ffffff" stroke="transparent" points="570,-37.7 570,-56.7 598,-56.7 598,-37.7 570,-37.7"/>
<polygon fill="none" stroke="#000000" points="570,-37.7 570,-56.7 598,-56.7 598,-37.7 570,-37.7"/>
<text text-anchor="start" x="579.4053" y="-43.8" font-family="Helvetica,sans-Serif" font-size="11.00" fill="#000000">2 &gt;</text>
</a>
</g>
</g>
<!-- event_users&#45;&gt;event_roles -->
<g id="edge9" class="edge">
<title>event_users:w&#45;&gt;event_roles:e</title>
<path fill="none" stroke="#000000" d="M636.6362,-255.8375C593.7285,-235.1 662.9057,-108.7 598,-108.7"/>
<polygon fill="#000000" stroke="#000000" points="643.1543,-257.1364 650.2964,-262.2306 647.0771,-257.9182 651,-258.7 651,-258.7 651,-258.7 647.0771,-257.9182 651.7036,-255.1694 643.1543,-257.1364 643.1543,-257.1364"/>
<ellipse fill="none" stroke="#000000" cx="640.016" cy="-256.511" rx="3.2" ry="3.2"/>
</g>
<!-- events -->
<g id="node9" class="node">
<title>events</title>
<g id="a_node9"><a xlink:href="../../tables/events.html" xlink:title="events" target="_top">
<polygon fill="#ffffff" stroke="transparent" points="496,-442.2 496,-569.2 600,-569.2 600,-442.2 496,-442.2"/>
<polygon fill="#f5f5f5" stroke="transparent" points="496,-545.7 496,-568.7 600,-568.7 600,-545.7 496,-545.7"/>
<polygon fill="none" stroke="#000000" points="496,-545.7 496,-568.7 600,-568.7 600,-545.7 496,-545.7"/>
<text text-anchor="start" x="501" y="-554.8" font-family="Helvetica,sans-Serif" font-weight="bold" font-size="11.00" fill="#000000">events</text>
<text text-anchor="start" x="565.0437" y="-553.8" font-family="Helvetica,sans-Serif" font-size="11.00" fill="#000000">[table]</text>
<polygon fill="none" stroke="#000000" points="496,-523.7 496,-545.7 600,-545.7 600,-523.7 496,-523.7"/>
<image xlink:href="../../images/primaryKeys.png" width="11px" height="12px" preserveAspectRatio="xMinYMin meet" x="501" y="-540.7"/>
<text text-anchor="start" x="516" y="-530.8" font-family="Helvetica,sans-Serif" font-size="11.00" fill="#000000">id</text>
<polygon fill="none" stroke="#000000" points="496,-501.7 496,-523.7 600,-523.7 600,-501.7 496,-501.7"/>
<image xlink:href="../../images/foreignKeys.png" width="11px" height="12px" preserveAspectRatio="xMinYMin meet" x="501" y="-518.7"/>
<text text-anchor="start" x="516" y="-508.8" font-family="Helvetica,sans-Serif" font-size="11.00" fill="#000000">venue_id</text>
<polygon fill="none" stroke="#000000" points="496,-479.7 496,-501.7 600,-501.7 600,-479.7 496,-479.7"/>
<image xlink:href="../../images/foreignKeys.png" width="11px" height="12px" preserveAspectRatio="xMinYMin meet" x="501" y="-496.7"/>
<text text-anchor="start" x="516" y="-486.8" font-family="Helvetica,sans-Serif" font-size="11.00" fill="#000000">chapter_id</text>
<polygon fill="none" stroke="#000000" points="496,-460.7 496,-479.7 600,-479.7 600,-460.7 496,-460.7"/>
<text text-anchor="start" x="499" y="-466.8" font-family="Helvetica,sans-Serif" font-size="11.00" fill="#000000">...</text>
<polygon fill="#ffffff" stroke="transparent" points="496,-441.7 496,-460.7 529,-460.7 529,-441.7 496,-441.7"/>
<polygon fill="none" stroke="#000000" points="496,-441.7 496,-460.7 529,-460.7 529,-441.7 496,-441.7"/>
<text text-anchor="start" x="499" y="-447.8" font-family="Helvetica,sans-Serif" font-size="11.00" fill="#000000">&lt; 2</text>
<polygon fill="#ffffff" stroke="transparent" points="529,-441.7 529,-460.7 573,-460.7 573,-441.7 529,-441.7"/>
<polygon fill="none" stroke="#000000" points="529,-441.7 529,-460.7 573,-460.7 573,-441.7 529,-441.7"/>
<text text-anchor="start" x="537.6105" y="-447.8" font-family="Helvetica,sans-Serif" font-size="11.00" fill="#000000">0 rows</text>
<polygon fill="#ffffff" stroke="transparent" points="573,-441.7 573,-460.7 600,-460.7 600,-441.7 573,-441.7"/>
<polygon fill="none" stroke="#000000" points="573,-441.7 573,-460.7 600,-460.7 600,-441.7 573,-441.7"/>
<text text-anchor="start" x="581.4053" y="-447.8" font-family="Helvetica,sans-Serif" font-size="11.00" fill="#000000">3 &gt;</text>
</a>
</g>
</g>
<!-- event_users&#45;&gt;events -->
<g id="edge8" class="edge">
<title>event_users:w&#45;&gt;events:e</title>
<path fill="none" stroke="#000000" d="M636.6883,-282.322C552.0189,-303.9544 709.7447,-534.7 600,-534.7"/>
<polygon fill="#000000" stroke="#000000" points="643.0509,-281.6009 651.4054,-284.2771 647.0254,-281.1505 651,-280.7 651,-280.7 651,-280.7 647.0254,-281.1505 650.5946,-277.1229 643.0509,-281.6009 643.0509,-281.6009"/>
<ellipse fill="none" stroke="#000000" cx="639.8712" cy="-281.9613" rx="3.2" ry="3.2"/>
</g>
<!-- rsvp -->
<g id="node11" class="node">
<title>rsvp</title>
<g id="a_node11"><a xlink:href="../../tables/rsvp.html" xlink:title="rsvp" target="_top">
<polygon fill="#ffffff" stroke="transparent" points="504,-166.2 504,-271.2 592,-271.2 592,-166.2 504,-166.2"/>
<polygon fill="#f5f5f5" stroke="transparent" points="504,-247.7 504,-270.7 592,-270.7 592,-247.7 504,-247.7"/>
<polygon fill="none" stroke="#000000" points="504,-247.7 504,-270.7 592,-270.7 592,-247.7 504,-247.7"/>
<text text-anchor="start" x="509" y="-256.8" font-family="Helvetica,sans-Serif" font-weight="bold" font-size="11.00" fill="#000000">rsvp</text>
<text text-anchor="start" x="557.0437" y="-255.8" font-family="Helvetica,sans-Serif" font-size="11.00" fill="#000000">[table]</text>
<polygon fill="none" stroke="#000000" points="504,-225.7 504,-247.7 592,-247.7 592,-225.7 504,-225.7"/>
<image xlink:href="../../images/primaryKeys.png" width="11px" height="12px" preserveAspectRatio="xMinYMin meet" x="509" y="-242.7"/>
<text text-anchor="start" x="524" y="-232.8" font-family="Helvetica,sans-Serif" font-size="11.00" fill="#000000">id</text>
<polygon fill="#ffffff" stroke="transparent" points="504,-203.7 504,-225.7 592,-225.7 592,-203.7 504,-203.7"/>
<polygon fill="none" stroke="#000000" points="504,-203.7 504,-225.7 592,-225.7 592,-203.7 504,-203.7"/>
<text text-anchor="start" x="524" y="-210.8" font-family="Helvetica,sans-Serif" font-size="11.00" fill="#000000">name</text>
<polygon fill="none" stroke="#000000" points="504,-184.7 504,-203.7 592,-203.7 592,-184.7 504,-184.7"/>
<text text-anchor="start" x="507" y="-190.8" font-family="Helvetica,sans-Serif" font-size="11.00" fill="#000000">...</text>
<polygon fill="#ffffff" stroke="transparent" points="504,-165.7 504,-184.7 524,-184.7 524,-165.7 504,-165.7"/>
<polygon fill="none" stroke="#000000" points="504,-165.7 504,-184.7 524,-184.7 524,-165.7 504,-165.7"/>
<text text-anchor="start" x="507" y="-171.8" font-family="Helvetica,sans-Serif" font-size="11.00" fill="#000000"> &#160;</text>
<polygon fill="#ffffff" stroke="transparent" points="524,-165.7 524,-184.7 566,-184.7 566,-165.7 524,-165.7"/>
<polygon fill="none" stroke="#000000" points="524,-165.7 524,-184.7 566,-184.7 566,-165.7 524,-165.7"/>
<text text-anchor="start" x="530.6105" y="-171.8" font-family="Helvetica,sans-Serif" font-size="11.00" fill="#000000">0 rows</text>
<polygon fill="#ffffff" stroke="transparent" points="566,-165.7 566,-184.7 592,-184.7 592,-165.7 566,-165.7"/>
<polygon fill="none" stroke="#000000" points="566,-165.7 566,-184.7 592,-184.7 592,-165.7 566,-165.7"/>
<text text-anchor="start" x="573.4053" y="-171.8" font-family="Helvetica,sans-Serif" font-size="11.00" fill="#000000">1 &gt;</text>
</a>
</g>
</g>
<!-- event_users&#45;&gt;rsvp -->
<g id="edge10" class="edge">
<title>event_users:w&#45;&gt;rsvp:e</title>
<path fill="none" stroke="#000000" d="M636.2032,-236.7C620.9686,-236.7 612.4861,-236.7 592,-236.7"/>
<polygon fill="#000000" stroke="#000000" points="643,-236.7001 651,-240.3 647,-236.7 651,-236.7 651,-236.7 651,-236.7 647,-236.7 651,-233.1 643,-236.7001 643,-236.7001"/>
<ellipse fill="none" stroke="#000000" cx="639.8" cy="-236.7001" rx="3.2" ry="3.2"/>
</g>
<!-- event_role_permissions -->
<g id="node6" class="node">
<title>event_role_permissions</title>
<g id="a_node6"><a xlink:href="../../tables/event_role_permissions.html" xlink:title="event_role_permissions" target="_top">
<polygon fill="#ffffff" stroke="transparent" points="669.5,-78.2 669.5,-139.2 828.5,-139.2 828.5,-78.2 669.5,-78.2"/>
<polygon fill="#f5f5f5" stroke="transparent" points="670,-115.7 670,-138.7 829,-138.7 829,-115.7 670,-115.7"/>
<polygon fill="none" stroke="#000000" points="670,-115.7 670,-138.7 829,-138.7 829,-115.7 670,-115.7"/>
<text text-anchor="start" x="674.9354" y="-124.8" font-family="Helvetica,sans-Serif" font-weight="bold" font-size="11.00" fill="#000000">event_role_permissions</text>
<text text-anchor="start" x="794.5219" y="-123.8" font-family="Helvetica,sans-Serif" font-size="11.00" fill="#000000">[table]</text>
<polygon fill="none" stroke="#000000" points="670,-96.7 670,-115.7 829,-115.7 829,-96.7 670,-96.7"/>
<text text-anchor="start" x="673" y="-102.8" font-family="Helvetica,sans-Serif" font-size="11.00" fill="#000000">...</text>
<polygon fill="#ffffff" stroke="transparent" points="670,-77.7 670,-96.7 735,-96.7 735,-77.7 670,-77.7"/>
<polygon fill="none" stroke="#000000" points="670,-77.7 670,-96.7 735,-96.7 735,-77.7 670,-77.7"/>
<text text-anchor="start" x="673" y="-83.8" font-family="Helvetica,sans-Serif" font-size="11.00" fill="#000000">&lt; 2</text>
<polygon fill="#ffffff" stroke="transparent" points="735,-77.7 735,-96.7 795,-96.7 795,-77.7 735,-77.7"/>
<polygon fill="none" stroke="#000000" points="735,-77.7 735,-96.7 795,-96.7 795,-77.7 735,-77.7"/>
<text text-anchor="start" x="759.6105" y="-83.8" font-family="Helvetica,sans-Serif" font-size="11.00" fill="#000000">0 rows</text>
<polygon fill="#ffffff" stroke="transparent" points="795,-77.7 795,-96.7 829,-96.7 829,-77.7 795,-77.7"/>
<polygon fill="none" stroke="#000000" points="795,-77.7 795,-96.7 829,-96.7 829,-77.7 795,-77.7"/>
<text text-anchor="start" x="819.8862" y="-83.8" font-family="Helvetica,sans-Serif" font-size="11.00" fill="#000000"> &#160;</text>
</a>
</g>
</g>
<!-- event_role_permissions&#45;&gt;event_roles -->
<g id="edge5" class="edge">
<title>event_role_permissions:w&#45;&gt;event_roles:e</title>
<path fill="none" stroke="#000000" d="M655.3755,-105.9354C634.5299,-106.6426 624.523,-108.7 598,-108.7"/>
<polygon fill="#000000" stroke="#000000" points="662.001,-105.8288 670.058,-109.2995 666.0005,-105.7644 670,-105.7 670,-105.7 670,-105.7 666.0005,-105.7644 669.942,-102.1005 662.001,-105.8288 662.001,-105.8288"/>
<ellipse fill="none" stroke="#000000" cx="658.8015" cy="-105.8803" rx="3.2" ry="3.2"/>
</g>
<!-- event_sponsors -->
<g id="node8" class="node">
<title>event_sponsors</title>
<g id="a_node8"><a xlink:href="../../tables/event_sponsors.html" xlink:title="event_sponsors" target="_top">
<polygon fill="#ffffff" stroke="transparent" points="689,-548.2 689,-609.2 809,-609.2 809,-548.2 689,-548.2"/>
<polygon fill="#f5f5f5" stroke="transparent" points="689,-585.7 689,-608.7 809,-608.7 809,-585.7 689,-585.7"/>
<polygon fill="none" stroke="#000000" points="689,-585.7 689,-608.7 809,-608.7 809,-585.7 689,-585.7"/>
<text text-anchor="start" x="693.681" y="-594.8" font-family="Helvetica,sans-Serif" font-weight="bold" font-size="11.00" fill="#000000">event_sponsors</text>
<text text-anchor="start" x="774.5219" y="-593.8" font-family="Helvetica,sans-Serif" font-size="11.00" fill="#000000">[table]</text>
<polygon fill="none" stroke="#000000" points="689,-566.7 689,-585.7 809,-585.7 809,-566.7 689,-566.7"/>
<text text-anchor="start" x="692" y="-572.8" font-family="Helvetica,sans-Serif" font-size="11.00" fill="#000000">...</text>
<polygon fill="#ffffff" stroke="transparent" points="689,-547.7 689,-566.7 734,-566.7 734,-547.7 689,-547.7"/>
<polygon fill="none" stroke="#000000" points="689,-547.7 689,-566.7 734,-566.7 734,-547.7 689,-547.7"/>
<text text-anchor="start" x="692" y="-553.8" font-family="Helvetica,sans-Serif" font-size="11.00" fill="#000000">&lt; 2</text>
<polygon fill="#ffffff" stroke="transparent" points="734,-547.7 734,-566.7 784,-566.7 784,-547.7 734,-547.7"/>
<polygon fill="none" stroke="#000000" points="734,-547.7 734,-566.7 784,-566.7 784,-547.7 734,-547.7"/>
<text text-anchor="start" x="748.6105" y="-553.8" font-family="Helvetica,sans-Serif" font-size="11.00" fill="#000000">0 rows</text>
<polygon fill="#ffffff" stroke="transparent" points="784,-547.7 784,-566.7 809,-566.7 809,-547.7 784,-547.7"/>
<polygon fill="none" stroke="#000000" points="784,-547.7 784,-566.7 809,-566.7 809,-547.7 784,-547.7"/>
<text text-anchor="start" x="799.8862" y="-553.8" font-family="Helvetica,sans-Serif" font-size="11.00" fill="#000000"> &#160;</text>
</a>
</g>
</g>
<!-- event_sponsors&#45;&gt;events -->
<g id="edge6" class="edge">
<title>event_sponsors:w&#45;&gt;events:e</title>
<path fill="none" stroke="#000000" d="M674.4581,-573.9383C644.3237,-566.0906 638.1071,-534.7 600,-534.7"/>
<polygon fill="#000000" stroke="#000000" points="681.0581,-574.7378 688.567,-579.2739 685.029,-575.2189 689,-575.7 689,-575.7 689,-575.7 685.029,-575.2189 689.433,-572.1261 681.0581,-574.7378 681.0581,-574.7378"/>
<ellipse fill="none" stroke="#000000" cx="677.8813" cy="-574.3529" rx="3.2" ry="3.2"/>
</g>
<!-- events&#45;&gt;chapters -->
<g id="edge12" class="edge">
<title>events:w&#45;&gt;chapters:e</title>
<path fill="none" stroke="#000000" d="M481.2931,-490.6813C417.7259,-490.4961 396.178,-488.7304 327,-476.7 301.6147,-472.2854 296.7663,-461.7 271,-461.7"/>
<polygon fill="#000000" stroke="#000000" points="488,-490.6898 495.9954,-494.3 492,-490.6949 496,-490.7 496,-490.7 496,-490.7 492,-490.6949 496.0046,-487.1 488,-490.6898 488,-490.6898"/>
<ellipse fill="none" stroke="#000000" cx="484.8" cy="-490.6857" rx="3.2" ry="3.2"/>
</g>
<!-- venues -->
<g id="node12" class="node">
<title>venues</title>
<g id="a_node12"><a xlink:href="../../tables/venues.html" xlink:title="venues" target="_top">
<polygon fill="#ffffff" stroke="transparent" points="351,-515.2 351,-576.2 431,-576.2 431,-515.2 351,-515.2"/>
<polygon fill="#f5f5f5" stroke="transparent" points="351,-552.7 351,-575.7 431,-575.7 431,-552.7 351,-552.7"/>
<polygon fill="none" stroke="#000000" points="351,-552.7 351,-575.7 431,-575.7 431,-552.7 351,-552.7"/>
<text text-anchor="start" x="356" y="-561.8" font-family="Helvetica,sans-Serif" font-weight="bold" font-size="11.00" fill="#000000">venues</text>
<text text-anchor="start" x="396.0437" y="-560.8" font-family="Helvetica,sans-Serif" font-size="11.00" fill="#000000">[table]</text>
<polygon fill="none" stroke="#000000" points="351,-533.7 351,-552.7 431,-552.7 431,-533.7 351,-533.7"/>
<text text-anchor="start" x="354" y="-539.8" font-family="Helvetica,sans-Serif" font-size="11.00" fill="#000000">...</text>
<polygon fill="#ffffff" stroke="transparent" points="351,-514.7 351,-533.7 372,-533.7 372,-514.7 351,-514.7"/>
<polygon fill="none" stroke="#000000" points="351,-514.7 351,-533.7 372,-533.7 372,-514.7 351,-514.7"/>
<text text-anchor="start" x="353.7027" y="-520.8" font-family="Helvetica,sans-Serif" font-size="11.00" fill="#000000">&lt; 1</text>
<polygon fill="#ffffff" stroke="transparent" points="372,-514.7 372,-533.7 410,-533.7 410,-514.7 372,-514.7"/>
<polygon fill="none" stroke="#000000" points="372,-514.7 372,-533.7 410,-533.7 410,-514.7 372,-514.7"/>
<text text-anchor="start" x="374.8053" y="-520.8" font-family="Helvetica,sans-Serif" font-size="11.00" fill="#000000">0 rows</text>
<polygon fill="#ffffff" stroke="transparent" points="410,-514.7 410,-533.7 431,-533.7 431,-514.7 410,-514.7"/>
<polygon fill="none" stroke="#000000" points="410,-514.7 410,-533.7 431,-533.7 431,-514.7 410,-514.7"/>
<text text-anchor="start" x="412.7027" y="-520.8" font-family="Helvetica,sans-Serif" font-size="11.00" fill="#000000">1 &gt;</text>
</a>
</g>
</g>
<!-- events&#45;&gt;venues -->
<g id="edge13" class="edge">
<title>events:w&#45;&gt;venues:e</title>
<path fill="none" stroke="#000000" d="M481.7133,-515.155C462.7617,-522.3199 457.2245,-542.7 431,-542.7"/>
<polygon fill="#000000" stroke="#000000" points="488.1156,-514.0549 496.6097,-516.248 492.0578,-513.3775 496,-512.7 496,-512.7 496,-512.7 492.0578,-513.3775 495.3903,-509.152 488.1156,-514.0549 488.1156,-514.0549"/>
<ellipse fill="none" stroke="#000000" cx="484.9618" cy="-514.5969" rx="3.2" ry="3.2"/>
</g>
<!-- event_tags -->
<g id="node10" class="node">
<title>event_tags</title>
<g id="a_node10"><a xlink:href="../../tables/event_tags.html" xlink:title="event_tags" target="_top">
<polygon fill="#ffffff" stroke="transparent" points="701,-466.2 701,-527.2 797,-527.2 797,-466.2 701,-466.2"/>
<polygon fill="#f5f5f5" stroke="transparent" points="701,-503.7 701,-526.7 797,-526.7 797,-503.7 701,-503.7"/>
<polygon fill="none" stroke="#000000" points="701,-503.7 701,-526.7 797,-526.7 797,-503.7 701,-503.7"/>
<text text-anchor="start" x="705.5984" y="-512.8" font-family="Helvetica,sans-Serif" font-weight="bold" font-size="11.00" fill="#000000">event_tags</text>
<text text-anchor="start" x="762.5219" y="-511.8" font-family="Helvetica,sans-Serif" font-size="11.00" fill="#000000">[table]</text>
<polygon fill="none" stroke="#000000" points="701,-484.7 701,-503.7 797,-503.7 797,-484.7 701,-484.7"/>
<text text-anchor="start" x="704" y="-490.8" font-family="Helvetica,sans-Serif" font-size="11.00" fill="#000000">...</text>
<polygon fill="#ffffff" stroke="transparent" points="701,-465.7 701,-484.7 734,-484.7 734,-465.7 701,-465.7"/>
<polygon fill="none" stroke="#000000" points="701,-465.7 701,-484.7 734,-484.7 734,-465.7 701,-465.7"/>
<text text-anchor="start" x="704" y="-471.8" font-family="Helvetica,sans-Serif" font-size="11.00" fill="#000000">&lt; 2</text>
<polygon fill="#ffffff" stroke="transparent" points="734,-465.7 734,-484.7 778,-484.7 778,-465.7 734,-465.7"/>
<polygon fill="none" stroke="#000000" points="734,-465.7 734,-484.7 778,-484.7 778,-465.7 734,-465.7"/>
<text text-anchor="start" x="742.6105" y="-471.8" font-family="Helvetica,sans-Serif" font-size="11.00" fill="#000000">0 rows</text>
<polygon fill="#ffffff" stroke="transparent" points="778,-465.7 778,-484.7 797,-484.7 797,-465.7 778,-465.7"/>
<polygon fill="none" stroke="#000000" points="778,-465.7 778,-484.7 797,-484.7 797,-465.7 778,-465.7"/>
<text text-anchor="start" x="787.8862" y="-471.8" font-family="Helvetica,sans-Serif" font-size="11.00" fill="#000000"> &#160;</text>
</a>
</g>
</g>
<!-- event_tags&#45;&gt;events -->
<g id="edge7" class="edge">
<title>event_tags:w&#45;&gt;events:e</title>
<path fill="none" stroke="#000000" d="M686.5788,-495.0641C651.1247,-502.1783 643.1476,-534.7 600,-534.7"/>
<polygon fill="#000000" stroke="#000000" points="693.0356,-494.4534 701.339,-497.284 697.0178,-494.0767 701,-493.7 701,-493.7 701,-493.7 697.0178,-494.0767 700.661,-490.116 693.0356,-494.4534 693.0356,-494.4534"/>
<ellipse fill="none" stroke="#000000" cx="689.8498" cy="-494.7548" rx="3.2" ry="3.2"/>
</g>
<!-- venues&#45;&gt;chapters -->
<g id="edge18" class="edge">
<title>venues:w&#45;&gt;chapters:e</title>
<path fill="none" stroke="#000000" d="M336.7862,-540.005C304.1795,-525.9502 316.0642,-461.7 271,-461.7"/>
<polygon fill="#000000" stroke="#000000" points="343.14,-541.2097 350.3294,-546.237 347.07,-541.9548 351,-542.7 351,-542.7 351,-542.7 347.07,-541.9548 351.6706,-539.163 343.14,-541.2097 343.14,-541.2097"/>
<ellipse fill="none" stroke="#000000" cx="339.996" cy="-540.6135" rx="3.2" ry="3.2"/>
</g>
<!-- sessions -->
<g id="node13" class="node">
<title>sessions</title>
<g id="a_node13"><a xlink:href="../../tables/sessions.html" xlink:title="sessions" target="_top">
<polygon fill="#ffffff" stroke="transparent" points="348.5,-213.2 348.5,-274.2 433.5,-274.2 433.5,-213.2 348.5,-213.2"/>
<polygon fill="#f5f5f5" stroke="transparent" points="349,-250.7 349,-273.7 434,-273.7 434,-250.7 349,-250.7"/>
<polygon fill="none" stroke="#000000" points="349,-250.7 349,-273.7 434,-273.7 434,-250.7 349,-250.7"/>
<text text-anchor="start" x="353.6072" y="-259.8" font-family="Helvetica,sans-Serif" font-weight="bold" font-size="11.00" fill="#000000">sessions</text>
<text text-anchor="start" x="399.5219" y="-258.8" font-family="Helvetica,sans-Serif" font-size="11.00" fill="#000000">[table]</text>
<polygon fill="none" stroke="#000000" points="349,-231.7 349,-250.7 434,-250.7 434,-231.7 349,-231.7"/>
<text text-anchor="start" x="352" y="-237.8" font-family="Helvetica,sans-Serif" font-size="11.00" fill="#000000">...</text>
<polygon fill="#ffffff" stroke="transparent" points="349,-212.7 349,-231.7 377,-231.7 377,-212.7 349,-212.7"/>
<polygon fill="none" stroke="#000000" points="349,-212.7 349,-231.7 377,-231.7 377,-212.7 349,-212.7"/>
<text text-anchor="start" x="352" y="-218.8" font-family="Helvetica,sans-Serif" font-size="11.00" fill="#000000">&lt; 1</text>
<polygon fill="#ffffff" stroke="transparent" points="377,-212.7 377,-231.7 418,-231.7 418,-212.7 377,-212.7"/>
<polygon fill="none" stroke="#000000" points="377,-212.7 377,-231.7 418,-231.7 418,-212.7 377,-212.7"/>
<text text-anchor="start" x="382.6105" y="-218.8" font-family="Helvetica,sans-Serif" font-size="11.00" fill="#000000">0 rows</text>
<polygon fill="#ffffff" stroke="transparent" points="418,-212.7 418,-231.7 434,-231.7 434,-212.7 418,-212.7"/>
<polygon fill="none" stroke="#000000" points="418,-212.7 418,-231.7 434,-231.7 434,-212.7 418,-212.7"/>
<text text-anchor="start" x="424.8862" y="-218.8" font-family="Helvetica,sans-Serif" font-size="11.00" fill="#000000"> &#160;</text>
</a>
</g>
</g>
<!-- sessions&#45;&gt;users -->
<g id="edge14" class="edge">
<title>sessions:w&#45;&gt;users:e</title>
<path fill="none" stroke="#000000" d="M338.577,-242.4545C306.9782,-254.5171 328.6563,-324.7 286,-324.7"/>
<polygon fill="#000000" stroke="#000000" points="347.5471,-236.8883 348.8751,-244.7773 347.2973,-245.0429 345.9693,-237.1539 347.5471,-236.8883"/>
<polyline fill="none" stroke="#000000" points="349,-240.7 345.0555,-241.364 "/>
<ellipse fill="none" stroke="#000000" cx="341.8999" cy="-241.8952" rx="3.2" ry="3.2"/>
</g>
<!-- user_bans -->
<g id="node14" class="node">
<title>user_bans</title>
<g id="a_node14"><a xlink:href="../../tables/user_bans.html" xlink:title="user_bans" target="_top">
<polygon fill="#ffffff" stroke="transparent" points="344,-323.2 344,-384.2 438,-384.2 438,-323.2 344,-323.2"/>
<polygon fill="#f5f5f5" stroke="transparent" points="344,-360.7 344,-383.7 438,-383.7 438,-360.7 344,-360.7"/>
<polygon fill="none" stroke="#000000" points="344,-360.7 344,-383.7 438,-383.7 438,-360.7 344,-360.7"/>
<text text-anchor="start" x="348.8244" y="-369.8" font-family="Helvetica,sans-Serif" font-weight="bold" font-size="11.00" fill="#000000">user_bans</text>
<text text-anchor="start" x="403.5219" y="-368.8" font-family="Helvetica,sans-Serif" font-size="11.00" fill="#000000">[table]</text>
<polygon fill="none" stroke="#000000" points="344,-341.7 344,-360.7 438,-360.7 438,-341.7 344,-341.7"/>
<text text-anchor="start" x="347" y="-347.8" font-family="Helvetica,sans-Serif" font-size="11.00" fill="#000000">...</text>
<polygon fill="#ffffff" stroke="transparent" points="344,-322.7 344,-341.7 376,-341.7 376,-322.7 344,-322.7"/>
<polygon fill="none" stroke="#000000" points="344,-322.7 344,-341.7 376,-341.7 376,-322.7 344,-322.7"/>
<text text-anchor="start" x="347" y="-328.8" font-family="Helvetica,sans-Serif" font-size="11.00" fill="#000000">&lt; 2</text>
<polygon fill="#ffffff" stroke="transparent" points="376,-322.7 376,-341.7 420,-341.7 420,-322.7 376,-322.7"/>
<polygon fill="none" stroke="#000000" points="376,-322.7 376,-341.7 420,-341.7 420,-322.7 376,-322.7"/>
<text text-anchor="start" x="384.6105" y="-328.8" font-family="Helvetica,sans-Serif" font-size="11.00" fill="#000000">0 rows</text>
<polygon fill="#ffffff" stroke="transparent" points="420,-322.7 420,-341.7 438,-341.7 438,-322.7 420,-322.7"/>
<polygon fill="none" stroke="#000000" points="420,-322.7 420,-341.7 438,-341.7 438,-322.7 420,-322.7"/>
<text text-anchor="start" x="428.8862" y="-328.8" font-family="Helvetica,sans-Serif" font-size="11.00" fill="#000000"> &#160;</text>
</a>
</g>
</g>
<!-- user_bans&#45;&gt;chapters -->
<g id="edge15" class="edge">
<title>user_bans:w&#45;&gt;chapters:e</title>
<path fill="none" stroke="#000000" d="M329.4868,-353.669C292.7679,-371.3211 324.2797,-461.7 271,-461.7"/>
<polygon fill="#000000" stroke="#000000" points="336.1623,-352.3034 344.7215,-354.227 340.0812,-351.5017 344,-350.7 344,-350.7 344,-350.7 340.0812,-351.5017 343.2785,-347.173 336.1623,-352.3034 336.1623,-352.3034"/>
<ellipse fill="none" stroke="#000000" cx="333.0272" cy="-352.9448" rx="3.2" ry="3.2"/>
</g>
<!-- user_bans&#45;&gt;users -->
<g id="edge16" class="edge">
<title>user_bans:w&#45;&gt;users:e</title>
<path fill="none" stroke="#000000" d="M329.6481,-347.9175C314.0371,-341.2103 308.5112,-324.7 286,-324.7"/>
<polygon fill="#000000" stroke="#000000" points="336.1462,-349.1773 343.3148,-354.2342 340.0731,-349.9387 344,-350.7 344,-350.7 344,-350.7 340.0731,-349.9387 344.6852,-347.1658 336.1462,-349.1773 336.1462,-349.1773"/>
<ellipse fill="none" stroke="#000000" cx="333.0047" cy="-348.5682" rx="3.2" ry="3.2"/>
</g>
</g>
</svg>
