<?xml version="1.0" encoding="UTF-8" standalone="no"?>
<!DOCTYPE svg PUBLIC "-//W3C//DTD SVG 1.1//EN"
 "http://www.w3.org/Graphics/SVG/1.1/DTD/svg11.dtd">
<!-- Generated by graphviz version 2.40.1 (20161225.0304)
 -->
<!-- Title: twoDegreesRelationshipsDiagram Pages: 1 -->
<svg width="647pt" height="387pt"
 viewBox="0.00 0.00 647.00 387.20" xmlns="http://www.w3.org/2000/svg" xmlns:xlink="http://www.w3.org/1999/xlink">
<g id="graph0" class="graph" transform="scale(1 1) rotate(0) translate(4 383.2)">
<title>twoDegreesRelationshipsDiagram</title>
<polygon fill="#ffffff" stroke="transparent" points="-4,4 -4,-383.2 643,-383.2 643,4 -4,4"/>
<text text-anchor="middle" x="72.4936" y="-7.3" font-family="Helvetica,sans-Serif" font-size="11.00" fill="#000000">Generated by SchemaSpy</text>
<!-- event_sponsors -->
<g id="node1" class="node">
<title>event_sponsors</title>
<g id="a_node1"><a xlink:href="../../tables/event_sponsors.html" xlink:title="event_sponsors" target="_top">
<polygon fill="#ffffff" stroke="transparent" points="477.5,-314.2 477.5,-375.2 608.5,-375.2 608.5,-314.2 477.5,-314.2"/>
<polygon fill="#f5f5f5" stroke="transparent" points="478,-351.7 478,-374.7 609,-374.7 609,-351.7 478,-351.7"/>
<polygon fill="none" stroke="#000000" points="478,-351.7 478,-374.7 609,-374.7 609,-351.7 478,-351.7"/>
<text text-anchor="start" x="483" y="-360.3" font-family="Helvetica,sans-Serif" font-weight="bold" font-size="11.00" fill="#000000">event_sponsors</text>
<text text-anchor="start" x="574.5219" y="-359.8" font-family="Helvetica,sans-Serif" font-size="11.00" fill="#000000">[table]</text>
<polygon fill="none" stroke="#000000" points="478,-332.7 478,-351.7 609,-351.7 609,-332.7 478,-332.7"/>
<text text-anchor="start" x="481" y="-338.8" font-family="Helvetica,sans-Serif" font-size="11.00" fill="#000000">...</text>
<polygon fill="#ffffff" stroke="transparent" points="478,-313.7 478,-332.7 529,-332.7 529,-313.7 478,-313.7"/>
<polygon fill="none" stroke="#000000" points="478,-313.7 478,-332.7 529,-332.7 529,-313.7 478,-313.7"/>
<text text-anchor="start" x="481" y="-319.8" font-family="Helvetica,sans-Serif" font-size="11.00" fill="#000000">&lt; 2</text>
<polygon fill="#ffffff" stroke="transparent" points="529,-313.7 529,-332.7 582,-332.7 582,-313.7 529,-313.7"/>
<polygon fill="none" stroke="#000000" points="529,-313.7 529,-332.7 582,-332.7 582,-313.7 529,-313.7"/>
<text text-anchor="start" x="546.6105" y="-319.8" font-family="Helvetica,sans-Serif" font-size="11.00" fill="#000000">0 rows</text>
<polygon fill="#ffffff" stroke="transparent" points="582,-313.7 582,-332.7 609,-332.7 609,-313.7 582,-313.7"/>
<polygon fill="none" stroke="#000000" points="582,-313.7 582,-332.7 609,-332.7 609,-313.7 582,-313.7"/>
<text text-anchor="start" x="599.8862" y="-319.8" font-family="Helvetica,sans-Serif" font-size="11.00" fill="#000000"> &#160;</text>
</a>
</g>
</g>
<!-- events -->
<g id="node2" class="node">
<title>events</title>
<g id="a_node2"><a xlink:href="../../tables/events.html" xlink:title="events" target="_top">
<polygon fill="#ffffff" stroke="transparent" points="278,-167.2 278,-294.2 406,-294.2 406,-167.2 278,-167.2"/>
<polygon fill="#f5f5f5" stroke="transparent" points="278,-270.7 278,-293.7 406,-293.7 406,-270.7 278,-270.7"/>
<polygon fill="none" stroke="#000000" points="278,-270.7 278,-293.7 406,-293.7 406,-270.7 278,-270.7"/>
<text text-anchor="start" x="283" y="-279.3" font-family="Helvetica,sans-Serif" font-weight="bold" font-size="11.00" fill="#000000">events</text>
<text text-anchor="start" x="371.0437" y="-278.8" font-family="Helvetica,sans-Serif" font-size="11.00" fill="#000000">[table]</text>
<polygon fill="none" stroke="#000000" points="278,-248.7 278,-270.7 406,-270.7 406,-248.7 278,-248.7"/>
<image xlink:href="../../images/primaryKeys.png" width="11px" height="12px" preserveAspectRatio="xMinYMin meet" x="283" y="-265.7"/>
<text text-anchor="start" x="298" y="-255.8" font-family="Helvetica,sans-Serif" font-size="11.00" fill="#000000">id</text>
<polygon fill="none" stroke="#000000" points="278,-226.7 278,-248.7 406,-248.7 406,-226.7 278,-226.7"/>
<image xlink:href="../../images/foreignKeys.png" width="11px" height="12px" preserveAspectRatio="xMinYMin meet" x="283" y="-243.7"/>
<text text-anchor="start" x="298" y="-233.8" font-family="Helvetica,sans-Serif" font-size="11.00" fill="#000000">venue_id</text>
<polygon fill="none" stroke="#000000" points="278,-204.7 278,-226.7 406,-226.7 406,-204.7 278,-204.7"/>
<image xlink:href="../../images/foreignKeys.png" width="11px" height="12px" preserveAspectRatio="xMinYMin meet" x="283" y="-221.7"/>
<text text-anchor="start" x="298" y="-211.8" font-family="Helvetica,sans-Serif" font-size="11.00" fill="#000000">chapter_id</text>
<polygon fill="none" stroke="#000000" points="278,-185.7 278,-204.7 406,-204.7 406,-185.7 278,-185.7"/>
<text text-anchor="start" x="281" y="-191.8" font-family="Helvetica,sans-Serif" font-size="11.00" fill="#000000">...</text>
<polygon fill="#ffffff" stroke="transparent" points="278,-166.7 278,-185.7 323,-185.7 323,-166.7 278,-166.7"/>
<polygon fill="none" stroke="#000000" points="278,-166.7 278,-185.7 323,-185.7 323,-166.7 278,-166.7"/>
<text text-anchor="start" x="281" y="-172.8" font-family="Helvetica,sans-Serif" font-size="11.00" fill="#000000">&lt; 2</text>
<polygon fill="#ffffff" stroke="transparent" points="323,-166.7 323,-185.7 373,-185.7 373,-166.7 323,-166.7"/>
<polygon fill="none" stroke="#000000" points="323,-166.7 323,-185.7 373,-185.7 373,-166.7 323,-166.7"/>
<text text-anchor="start" x="337.6105" y="-172.8" font-family="Helvetica,sans-Serif" font-size="11.00" fill="#000000">0 rows</text>
<polygon fill="#ffffff" stroke="transparent" points="373,-166.7 373,-185.7 406,-185.7 406,-166.7 373,-166.7"/>
<polygon fill="none" stroke="#000000" points="373,-166.7 373,-185.7 406,-185.7 406,-166.7 373,-166.7"/>
<text text-anchor="start" x="387.4053" y="-172.8" font-family="Helvetica,sans-Serif" font-size="11.00" fill="#000000">3 &gt;</text>
</a>
</g>
</g>
<!-- event_sponsors&#45;&gt;events -->
<g id="edge1" class="edge">
<title>event_sponsors:w&#45;&gt;events:e</title>
<path fill="none" stroke="#000000" d="M463.7409,-338.5856C434.3503,-323.6073 448.8159,-259.7 406,-259.7"/>
<polygon fill="#000000" stroke="#000000" points="470.1842,-339.9929 477.2318,-345.2171 474.0921,-340.8465 478,-341.7 478,-341.7 478,-341.7 474.0921,-340.8465 478.7682,-338.1829 470.1842,-339.9929 470.1842,-339.9929"/>
<ellipse fill="none" stroke="#000000" cx="467.0579" cy="-339.3101" rx="3.2" ry="3.2"/>
</g>
<!-- chapters -->
<g id="node6" class="node">
<title>chapters</title>
<g id="a_node6"><a xlink:href="../../tables/chapters.html" xlink:title="chapters" target="_top">
<polygon fill="#ffffff" stroke="transparent" points="8,-199.2 8,-260.2 99,-260.2 99,-199.2 8,-199.2"/>
<polygon fill="#f5f5f5" stroke="transparent" points="8.5,-236.7 8.5,-259.7 99.5,-259.7 99.5,-236.7 8.5,-236.7"/>
<polygon fill="none" stroke="#000000" points="8.5,-236.7 8.5,-259.7 99.5,-259.7 99.5,-236.7 8.5,-236.7"/>
<text text-anchor="start" x="13.5" y="-245.3" font-family="Helvetica,sans-Serif" font-weight="bold" font-size="11.00" fill="#000000">chapters</text>
<text text-anchor="start" x="65.0219" y="-244.8" font-family="Helvetica,sans-Serif" font-size="11.00" fill="#000000">[table]</text>
<polygon fill="none" stroke="#000000" points="8.5,-217.7 8.5,-236.7 99.5,-236.7 99.5,-217.7 8.5,-217.7"/>
<text text-anchor="start" x="11.5" y="-223.8" font-family="Helvetica,sans-Serif" font-size="11.00" fill="#000000">...</text>
<polygon fill="#ffffff" stroke="transparent" points="8.5,-198.7 8.5,-217.7 30.5,-217.7 30.5,-198.7 8.5,-198.7"/>
<polygon fill="none" stroke="#000000" points="8.5,-198.7 8.5,-217.7 30.5,-217.7 30.5,-198.7 8.5,-198.7"/>
<text text-anchor="start" x="11.5" y="-204.8" font-family="Helvetica,sans-Serif" font-size="11.00" fill="#000000"> &#160;</text>
<polygon fill="#ffffff" stroke="transparent" points="30.5,-198.7 30.5,-217.7 73.5,-217.7 73.5,-198.7 30.5,-198.7"/>
<polygon fill="none" stroke="#000000" points="30.5,-198.7 30.5,-217.7 73.5,-217.7 73.5,-198.7 30.5,-198.7"/>
<text text-anchor="start" x="38.1105" y="-204.8" font-family="Helvetica,sans-Serif" font-size="11.00" fill="#000000">0 rows</text>
<polygon fill="#ffffff" stroke="transparent" points="73.5,-198.7 73.5,-217.7 99.5,-217.7 99.5,-198.7 73.5,-198.7"/>
<polygon fill="none" stroke="#000000" points="73.5,-198.7 73.5,-217.7 99.5,-217.7 99.5,-198.7 73.5,-198.7"/>
<text text-anchor="start" x="80.9053" y="-204.8" font-family="Helvetica,sans-Serif" font-size="11.00" fill="#000000">4 &gt;</text>
</a>
</g>
</g>
<!-- events&#45;&gt;chapters -->
<g id="edge5" class="edge">
<title>events:w&#45;&gt;chapters:e</title>
<path fill="none" stroke="#000000" d="M263.4531,-215.5094C213.6679,-214.1846 195.602,-206.6359 140,-214.7 121.4209,-217.3946 118.2735,-226.7 99.5,-226.7"/>
<polygon fill="#000000" stroke="#000000" points="270.0007,-215.5951 277.9528,-219.2997 274.0003,-215.6476 278,-215.7 278,-215.7 278,-215.7 274.0003,-215.6476 278.0472,-212.1003 270.0007,-215.5951 270.0007,-215.5951"/>
<ellipse fill="none" stroke="#000000" cx="266.801" cy="-215.5532" rx="3.2" ry="3.2"/>
</g>
<!-- venues -->
<g id="node7" class="node">
<title>venues</title>
<g id="a_node7"><a xlink:href="../../tables/venues.html" xlink:title="venues" target="_top">
<polygon fill="#ffffff" stroke="transparent" points="148,-225.2 148,-286.2 229,-286.2 229,-225.2 148,-225.2"/>
<polygon fill="#f5f5f5" stroke="transparent" points="148.5,-262.7 148.5,-285.7 229.5,-285.7 229.5,-262.7 148.5,-262.7"/>
<polygon fill="none" stroke="#000000" points="148.5,-262.7 148.5,-285.7 229.5,-285.7 229.5,-262.7 148.5,-262.7"/>
<text text-anchor="start" x="153.5" y="-271.3" font-family="Helvetica,sans-Serif" font-weight="bold" font-size="11.00" fill="#000000">venues</text>
<text text-anchor="start" x="195.0219" y="-270.8" font-family="Helvetica,sans-Serif" font-size="11.00" fill="#000000">[table]</text>
<polygon fill="none" stroke="#000000" points="148.5,-243.7 148.5,-262.7 229.5,-262.7 229.5,-243.7 148.5,-243.7"/>
<text text-anchor="start" x="151.5" y="-249.8" font-family="Helvetica,sans-Serif" font-size="11.00" fill="#000000">...</text>
<polygon fill="#ffffff" stroke="transparent" points="148.5,-224.7 148.5,-243.7 169.5,-243.7 169.5,-224.7 148.5,-224.7"/>
<polygon fill="none" stroke="#000000" points="148.5,-224.7 148.5,-243.7 169.5,-243.7 169.5,-224.7 148.5,-224.7"/>
<text text-anchor="start" x="151.2027" y="-230.8" font-family="Helvetica,sans-Serif" font-size="11.00" fill="#000000">&lt; 1</text>
<polygon fill="#ffffff" stroke="transparent" points="169.5,-224.7 169.5,-243.7 207.5,-243.7 207.5,-224.7 169.5,-224.7"/>
<polygon fill="none" stroke="#000000" points="169.5,-224.7 169.5,-243.7 207.5,-243.7 207.5,-224.7 169.5,-224.7"/>
<text text-anchor="start" x="172.3053" y="-230.8" font-family="Helvetica,sans-Serif" font-size="11.00" fill="#000000">0 rows</text>
<polygon fill="#ffffff" stroke="transparent" points="207.5,-224.7 207.5,-243.7 229.5,-243.7 229.5,-224.7 207.5,-224.7"/>
<polygon fill="none" stroke="#000000" points="207.5,-224.7 207.5,-243.7 229.5,-243.7 229.5,-224.7 207.5,-224.7"/>
<text text-anchor="start" x="210.9053" y="-230.8" font-family="Helvetica,sans-Serif" font-size="11.00" fill="#000000">1 &gt;</text>
</a>
</g>
</g>
<!-- events&#45;&gt;venues -->
<g id="edge6" class="edge">
<title>events:w&#45;&gt;venues:e</title>
<path fill="none" stroke="#000000" d="M263.7176,-240.1769C252.4219,-244.4374 246.2459,-252.7 229.5,-252.7"/>
<polygon fill="#000000" stroke="#000000" points="270.1177,-239.0671 278.6152,-241.2471 274.0588,-238.3835 278,-237.7 278,-237.7 278,-237.7 274.0588,-238.3835 277.3848,-234.1529 270.1177,-239.0671 270.1177,-239.0671"/>
<ellipse fill="none" stroke="#000000" cx="266.9647" cy="-239.6139" rx="3.2" ry="3.2"/>
</g>
<!-- event_tags -->
<g id="node3" class="node">
<title>event_tags</title>
<g id="a_node3"><a xlink:href="../../tables/event_tags.html" xlink:title="event_tags" target="_top">
<polygon fill="#ffffff" stroke="transparent" points="455,-76.7 455,-210.7 631,-210.7 631,-76.7 455,-76.7"/>
<polygon fill="#f5f5f5" stroke="transparent" points="457,-185.7 457,-208.7 629,-208.7 629,-185.7 457,-185.7"/>
<polygon fill="none" stroke="#000000" points="457,-185.7 457,-208.7 629,-208.7 629,-185.7 457,-185.7"/>
<text text-anchor="start" x="462" y="-194.3" font-family="Helvetica,sans-Serif" font-weight="bold" font-size="11.00" fill="#000000">event_tags</text>
<text text-anchor="start" x="594.0437" y="-193.8" font-family="Helvetica,sans-Serif" font-size="11.00" fill="#000000">[table]</text>
<polygon fill="none" stroke="#000000" points="457,-163.7 457,-185.7 545,-185.7 545,-163.7 457,-163.7"/>
<text text-anchor="start" x="477" y="-170.8" font-family="Helvetica,sans-Serif" font-size="11.00" fill="#000000">created_at</text>
<polygon fill="none" stroke="#000000" points="545,-163.7 545,-185.7 629,-185.7 629,-163.7 545,-163.7"/>
<text text-anchor="start" x="547.8807" y="-171.4" font-family="Helvetica,sans-Serif" font-size="11.00" fill="#000000">timestamp[26,3]</text>
<polygon fill="none" stroke="#000000" points="457,-141.7 457,-163.7 545,-163.7 545,-141.7 457,-141.7"/>
<text text-anchor="start" x="477" y="-148.8" font-family="Helvetica,sans-Serif" font-size="11.00" fill="#000000">updated_at</text>
<polygon fill="none" stroke="#000000" points="545,-141.7 545,-163.7 629,-163.7 629,-141.7 545,-141.7"/>
<text text-anchor="start" x="547.8807" y="-149.4" font-family="Helvetica,sans-Serif" font-size="11.00" fill="#000000">timestamp[26,3]</text>
<polygon fill="none" stroke="#000000" points="457,-119.7 457,-141.7 545,-141.7 545,-119.7 457,-119.7"/>
<image xlink:href="../../images/primaryKeys.png" width="11px" height="12px" preserveAspectRatio="xMinYMin meet" x="462" y="-136.7"/>
<text text-anchor="start" x="477" y="-126.8" font-family="Helvetica,sans-Serif" font-size="11.00" fill="#000000">event_id</text>
<polygon fill="none" stroke="#000000" points="545,-119.7 545,-141.7 629,-141.7 629,-119.7 545,-119.7"/>
<text text-anchor="start" x="548" y="-127.4" font-family="Helvetica,sans-Serif" font-size="11.00" fill="#000000">int4[10]</text>
<polygon fill="none" stroke="#000000" points="457,-97.7 457,-119.7 545,-119.7 545,-97.7 457,-97.7"/>
<image xlink:href="../../images/primaryKeys.png" width="11px" height="12px" preserveAspectRatio="xMinYMin meet" x="462" y="-114.7"/>
<text text-anchor="start" x="477" y="-104.8" font-family="Helvetica,sans-Serif" font-size="11.00" fill="#000000">tag_id</text>
<polygon fill="none" stroke="#000000" points="545,-97.7 545,-119.7 629,-119.7 629,-97.7 545,-97.7"/>
<text text-anchor="start" x="548" y="-105.4" font-family="Helvetica,sans-Serif" font-size="11.00" fill="#000000">int4[10]</text>
<polygon fill="#ffffff" stroke="transparent" points="457,-78.7 457,-97.7 492,-97.7 492,-78.7 457,-78.7"/>
<polygon fill="none" stroke="#000000" points="457,-78.7 457,-97.7 492,-97.7 492,-78.7 457,-78.7"/>
<text text-anchor="start" x="460" y="-84.8" font-family="Helvetica,sans-Serif" font-size="11.00" fill="#000000">&lt; 2</text>
<polygon fill="#ffffff" stroke="transparent" points="492,-78.7 492,-97.7 545,-97.7 545,-78.7 492,-78.7"/>
<polygon fill="none" stroke="#000000" points="492,-78.7 492,-97.7 545,-97.7 545,-78.7 492,-78.7"/>
<text text-anchor="start" x="509.6105" y="-84.8" font-family="Helvetica,sans-Serif" font-size="11.00" fill="#000000">0 rows</text>
<polygon fill="#ffffff" stroke="transparent" points="545,-78.7 545,-97.7 629,-97.7 629,-78.7 545,-78.7"/>
<polygon fill="none" stroke="#000000" points="545,-78.7 545,-97.7 629,-97.7 629,-78.7 545,-78.7"/>
<text text-anchor="start" x="610.4053" y="-84.8" font-family="Helvetica,sans-Serif" font-size="11.00" fill="#000000">0 &gt;</text>
<polygon fill="none" stroke="#000000" stroke-width="2" points="456,-77.7 456,-209.7 630,-209.7 630,-77.7 456,-77.7"/>
</a>
</g>
</g>
<!-- event_tags&#45;&gt;events -->
<g id="edge2" class="edge">
<title>event_tags:w&#45;&gt;events:e</title>
<path fill="none" stroke="#000000" d="M442.521,-134.1504C408.1928,-154.6651 461.6307,-259.7 406,-259.7"/>
<polygon fill="#000000" stroke="#000000" points="449.2179,-132.5546 457.8346,-134.2019 453.109,-131.6273 457,-130.7 457,-130.7 457,-130.7 453.109,-131.6273 456.1654,-127.1981 449.2179,-132.5546 449.2179,-132.5546"/>
<ellipse fill="none" stroke="#000000" cx="446.1051" cy="-133.2964" rx="3.2" ry="3.2"/>
</g>
<!-- tags -->
<g id="node4" class="node">
<title>tags</title>
<g id="a_node4"><a xlink:href="../../tables/tags.html" xlink:title="tags" target="_top">
<polygon fill="#ffffff" stroke="transparent" points="298,-38.2 298,-143.2 386,-143.2 386,-38.2 298,-38.2"/>
<polygon fill="#f5f5f5" stroke="transparent" points="298,-119.7 298,-142.7 386,-142.7 386,-119.7 298,-119.7"/>
<polygon fill="none" stroke="#000000" points="298,-119.7 298,-142.7 386,-142.7 386,-119.7 298,-119.7"/>
<text text-anchor="start" x="303" y="-128.3" font-family="Helvetica,sans-Serif" font-weight="bold" font-size="11.00" fill="#000000">tags</text>
<text text-anchor="start" x="351.0437" y="-127.8" font-family="Helvetica,sans-Serif" font-size="11.00" fill="#000000">[table]</text>
<polygon fill="none" stroke="#000000" points="298,-97.7 298,-119.7 386,-119.7 386,-97.7 298,-97.7"/>
<image xlink:href="../../images/primaryKeys.png" width="11px" height="12px" preserveAspectRatio="xMinYMin meet" x="303" y="-114.7"/>
<text text-anchor="start" x="318" y="-104.8" font-family="Helvetica,sans-Serif" font-size="11.00" fill="#000000">id</text>
<polygon fill="#ffffff" stroke="transparent" points="298,-75.7 298,-97.7 386,-97.7 386,-75.7 298,-75.7"/>
<polygon fill="none" stroke="#000000" points="298,-75.7 298,-97.7 386,-97.7 386,-75.7 298,-75.7"/>
<text text-anchor="start" x="318" y="-82.8" font-family="Helvetica,sans-Serif" font-size="11.00" fill="#000000">name</text>
<polygon fill="none" stroke="#000000" points="298,-56.7 298,-75.7 386,-75.7 386,-56.7 298,-56.7"/>
<text text-anchor="start" x="301" y="-62.8" font-family="Helvetica,sans-Serif" font-size="11.00" fill="#000000">...</text>
<polygon fill="#ffffff" stroke="transparent" points="298,-37.7 298,-56.7 318,-56.7 318,-37.7 298,-37.7"/>
<polygon fill="none" stroke="#000000" points="298,-37.7 298,-56.7 318,-56.7 318,-37.7 298,-37.7"/>
<text text-anchor="start" x="301" y="-43.8" font-family="Helvetica,sans-Serif" font-size="11.00" fill="#000000"> &#160;</text>
<polygon fill="#ffffff" stroke="transparent" points="318,-37.7 318,-56.7 360,-56.7 360,-37.7 318,-37.7"/>
<polygon fill="none" stroke="#000000" points="318,-37.7 318,-56.7 360,-56.7 360,-37.7 318,-37.7"/>
<text text-anchor="start" x="324.6105" y="-43.8" font-family="Helvetica,sans-Serif" font-size="11.00" fill="#000000">0 rows</text>
<polygon fill="#ffffff" stroke="transparent" points="360,-37.7 360,-56.7 386,-56.7 386,-37.7 360,-37.7"/>
<polygon fill="none" stroke="#000000" points="360,-37.7 360,-56.7 386,-56.7 386,-37.7 360,-37.7"/>
<text text-anchor="start" x="367.4053" y="-43.8" font-family="Helvetica,sans-Serif" font-size="11.00" fill="#000000">1 &gt;</text>
</a>
</g>
</g>
<!-- event_tags&#45;&gt;tags -->
<g id="edge3" class="edge">
<title>event_tags:w&#45;&gt;tags:e</title>
<path fill="none" stroke="#000000" d="M442.5863,-108.7C422.0335,-108.7 412.1319,-108.7 386,-108.7"/>
<polygon fill="#000000" stroke="#000000" points="449,-108.7001 457,-112.3 453,-108.7 457,-108.7 457,-108.7 457,-108.7 453,-108.7 457,-105.1 449,-108.7001 449,-108.7001"/>
<ellipse fill="none" stroke="#000000" cx="445.8" cy="-108.7001" rx="3.2" ry="3.2"/>
</g>
<!-- event_users -->
<g id="node5" class="node">
<title>event_users</title>
<g id="a_node5"><a xlink:href="../../tables/event_users.html" xlink:title="event_users" target="_top">
<polygon fill="#ffffff" stroke="transparent" points="488,-232.2 488,-293.2 598,-293.2 598,-232.2 488,-232.2"/>
<polygon fill="#f5f5f5" stroke="transparent" points="488,-269.7 488,-292.7 598,-292.7 598,-269.7 488,-269.7"/>
<polygon fill="none" stroke="#000000" points="488,-269.7 488,-292.7 598,-292.7 598,-269.7 488,-269.7"/>
<text text-anchor="start" x="493" y="-278.3" font-family="Helvetica,sans-Serif" font-weight="bold" font-size="11.00" fill="#000000">event_users</text>
<text text-anchor="start" x="563.5219" y="-277.8" font-family="Helvetica,sans-Serif" font-size="11.00" fill="#000000">[table]</text>
<polygon fill="none" stroke="#000000" points="488,-250.7 488,-269.7 598,-269.7 598,-250.7 488,-250.7"/>
<text text-anchor="start" x="491" y="-256.8" font-family="Helvetica,sans-Serif" font-size="11.00" fill="#000000">...</text>
<polygon fill="#ffffff" stroke="transparent" points="488,-231.7 488,-250.7 524,-250.7 524,-231.7 488,-231.7"/>
<polygon fill="none" stroke="#000000" points="488,-231.7 488,-250.7 524,-250.7 524,-231.7 488,-231.7"/>
<text text-anchor="start" x="491" y="-237.8" font-family="Helvetica,sans-Serif" font-size="11.00" fill="#000000">&lt; 4</text>
<polygon fill="#ffffff" stroke="transparent" points="524,-231.7 524,-250.7 569,-250.7 569,-231.7 524,-231.7"/>
<polygon fill="none" stroke="#000000" points="524,-231.7 524,-250.7 569,-250.7 569,-231.7 524,-231.7"/>
<text text-anchor="start" x="533.6105" y="-237.8" font-family="Helvetica,sans-Serif" font-size="11.00" fill="#000000">0 rows</text>
<polygon fill="#ffffff" stroke="transparent" points="569,-231.7 569,-250.7 598,-250.7 598,-231.7 569,-231.7"/>
<polygon fill="none" stroke="#000000" points="569,-231.7 569,-250.7 598,-250.7 598,-231.7 569,-231.7"/>
<text text-anchor="start" x="579.4053" y="-237.8" font-family="Helvetica,sans-Serif" font-size="11.00" fill="#000000">2 &gt;</text>
</a>
</g>
</g>
<!-- event_users&#45;&gt;events -->
<g id="edge4" class="edge">
<title>event_users:w&#45;&gt;events:e</title>
<path fill="none" stroke="#000000" d="M473.3988,-259.7C448.2484,-259.7 437.0347,-259.7 406,-259.7"/>
<polygon fill="#000000" stroke="#000000" points="480,-259.7001 488,-263.3 484,-259.7 488,-259.7 488,-259.7 488,-259.7 484,-259.7 488,-256.1 480,-259.7001 480,-259.7001"/>
<ellipse fill="none" stroke="#000000" cx="476.8" cy="-259.7001" rx="3.2" ry="3.2"/>
</g>
<!-- venues&#45;&gt;chapters -->
<g id="edge7" class="edge">
<title>venues:w&#45;&gt;chapters:e</title>
<path fill="none" stroke="#000000" d="M134.2707,-248.8636C122.5311,-241.6313 118.1828,-226.7 99.5,-226.7"/>
<polygon fill="#000000" stroke="#000000" points="140.7758,-250.6174 147.5628,-256.1759 144.6379,-251.6587 148.5,-252.7 148.5,-252.7 148.5,-252.7 144.6379,-251.6587 149.4372,-249.2241 140.7758,-250.6174 140.7758,-250.6174"/>
<ellipse fill="none" stroke="#000000" cx="137.6861" cy="-249.7844" rx="3.2" ry="3.2"/>
</g>
</g>
</svg>
