<?xml version="1.0" encoding="UTF-8" standalone="no"?>
<!DOCTYPE svg PUBLIC "-//W3C//DTD SVG 1.1//EN"
 "http://www.w3.org/Graphics/SVG/1.1/DTD/svg11.dtd">
<!-- Generated by graphviz version 2.40.1 (20161225.0304)
 -->
<!-- Title: oneDegreeRelationshipsDiagram Pages: 1 -->
<svg width="580pt" height="577pt"
 viewBox="0.00 0.00 580.00 577.20" xmlns="http://www.w3.org/2000/svg" xmlns:xlink="http://www.w3.org/1999/xlink">
<g id="graph0" class="graph" transform="scale(1 1) rotate(0) translate(4 573.2)">
<title>oneDegreeRelationshipsDiagram</title>
<polygon fill="#ffffff" stroke="transparent" points="-4,4 -4,-573.2 576,-573.2 576,4 -4,4"/>
<text text-anchor="middle" x="72.4936" y="-7.3" font-family="Helvetica,sans-Serif" font-size="11.00" fill="#000000">Generated by SchemaSpy</text>
<!-- event_reminders -->
<g id="node1" class="node">
<title>event_reminders</title>
<g id="a_node1"><a xlink:href="../../tables/event_reminders.html" xlink:title="event_reminders" target="_top">
<polygon fill="#ffffff" stroke="transparent" points="440,-271.2 440,-376.2 564,-376.2 564,-271.2 440,-271.2"/>
<polygon fill="#f5f5f5" stroke="transparent" points="440,-352.7 440,-375.7 564,-375.7 564,-352.7 440,-352.7"/>
<polygon fill="none" stroke="#000000" points="440,-352.7 440,-375.7 564,-375.7 564,-352.7 440,-352.7"/>
<text text-anchor="start" x="444.5487" y="-361.8" font-family="Helvetica,sans-Serif" font-weight="bold" font-size="11.00" fill="#000000">event_reminders</text>
<text text-anchor="start" x="529.5219" y="-360.8" font-family="Helvetica,sans-Serif" font-size="11.00" fill="#000000">[table]</text>
<polygon fill="none" stroke="#000000" points="440,-330.7 440,-352.7 564,-352.7 564,-330.7 440,-330.7"/>
<image xlink:href="../../images/primaryKeys.png" width="11px" height="12px" preserveAspectRatio="xMinYMin meet" x="445" y="-347.7"/>
<text text-anchor="start" x="461" y="-337.8" font-family="Helvetica,sans-Serif" font-size="11.00" fill="#000000">user_id</text>
<polygon fill="none" stroke="#000000" points="440,-308.7 440,-330.7 564,-330.7 564,-308.7 440,-308.7"/>
<image xlink:href="../../images/primaryKeys.png" width="11px" height="12px" preserveAspectRatio="xMinYMin meet" x="445" y="-325.7"/>
<text text-anchor="start" x="461" y="-315.8" font-family="Helvetica,sans-Serif" font-size="11.00" fill="#000000">event_id</text>
<polygon fill="none" stroke="#000000" points="440,-289.7 440,-308.7 564,-308.7 564,-289.7 440,-289.7"/>
<text text-anchor="start" x="443" y="-295.8" font-family="Helvetica,sans-Serif" font-size="11.00" fill="#000000">...</text>
<polygon fill="#ffffff" stroke="transparent" points="440,-270.7 440,-289.7 487,-289.7 487,-270.7 440,-270.7"/>
<polygon fill="none" stroke="#000000" points="440,-270.7 440,-289.7 487,-289.7 487,-270.7 440,-270.7"/>
<text text-anchor="start" x="443" y="-276.8" font-family="Helvetica,sans-Serif" font-size="11.00" fill="#000000">&lt; 2</text>
<polygon fill="#ffffff" stroke="transparent" points="487,-270.7 487,-289.7 538,-289.7 538,-270.7 487,-270.7"/>
<polygon fill="none" stroke="#000000" points="487,-270.7 487,-289.7 538,-289.7 538,-270.7 487,-270.7"/>
<text text-anchor="start" x="502.6105" y="-276.8" font-family="Helvetica,sans-Serif" font-size="11.00" fill="#000000">0 rows</text>
<polygon fill="#ffffff" stroke="transparent" points="538,-270.7 538,-289.7 564,-289.7 564,-270.7 538,-270.7"/>
<polygon fill="none" stroke="#000000" points="538,-270.7 538,-289.7 564,-289.7 564,-270.7 538,-270.7"/>
<text text-anchor="start" x="554.8862" y="-276.8" font-family="Helvetica,sans-Serif" font-size="11.00" fill="#000000"> &#160;</text>
</a>
</g>
</g>
<!-- event_users -->
<g id="node2" class="node">
<title>event_users</title>
<g id="a_node2"><a xlink:href="../../tables/event_users.html" xlink:title="event_users" target="_top">
<polygon fill="#ffffff" stroke="transparent" points="185,-199.7 185,-421.7 391,-421.7 391,-199.7 185,-199.7"/>
<polygon fill="#f5f5f5" stroke="transparent" points="187,-396.7 187,-419.7 389,-419.7 389,-396.7 187,-396.7"/>
<polygon fill="none" stroke="#000000" points="187,-396.7 187,-419.7 389,-419.7 389,-396.7 187,-396.7"/>
<text text-anchor="start" x="192" y="-405.8" font-family="Helvetica,sans-Serif" font-weight="bold" font-size="11.00" fill="#000000">event_users</text>
<text text-anchor="start" x="354.0437" y="-404.8" font-family="Helvetica,sans-Serif" font-size="11.00" fill="#000000">[table]</text>
<polygon fill="none" stroke="#000000" points="187,-374.7 187,-396.7 292,-396.7 292,-374.7 187,-374.7"/>
<text text-anchor="start" x="207" y="-381.8" font-family="Helvetica,sans-Serif" font-size="11.00" fill="#000000">created_at</text>
<polygon fill="none" stroke="#000000" points="292,-374.7 292,-396.7 389,-396.7 389,-374.7 292,-374.7"/>
<text text-anchor="start" x="295" y="-382.4" font-family="Helvetica,sans-Serif" font-size="11.00" fill="#000000">timestamp[26,3]</text>
<polygon fill="none" stroke="#000000" points="187,-352.7 187,-374.7 292,-374.7 292,-352.7 187,-352.7"/>
<text text-anchor="start" x="207" y="-359.8" font-family="Helvetica,sans-Serif" font-size="11.00" fill="#000000">updated_at</text>
<polygon fill="none" stroke="#000000" points="292,-352.7 292,-374.7 389,-374.7 389,-352.7 292,-352.7"/>
<text text-anchor="start" x="295" y="-360.4" font-family="Helvetica,sans-Serif" font-size="11.00" fill="#000000">timestamp[26,3]</text>
<polygon fill="none" stroke="#000000" points="187,-330.7 187,-352.7 292,-352.7 292,-330.7 187,-330.7"/>
<image xlink:href="../../images/primaryKeys.png" width="11px" height="12px" preserveAspectRatio="xMinYMin meet" x="192" y="-347.7"/>
<text text-anchor="start" x="207" y="-337.8" font-family="Helvetica,sans-Serif" font-size="11.00" fill="#000000">user_id</text>
<polygon fill="none" stroke="#000000" points="292,-330.7 292,-352.7 389,-352.7 389,-330.7 292,-330.7"/>
<text text-anchor="start" x="295" y="-338.4" font-family="Helvetica,sans-Serif" font-size="11.00" fill="#000000">int4[10]</text>
<polygon fill="none" stroke="#000000" points="187,-308.7 187,-330.7 292,-330.7 292,-308.7 187,-308.7"/>
<image xlink:href="../../images/primaryKeys.png" width="11px" height="12px" preserveAspectRatio="xMinYMin meet" x="192" y="-325.7"/>
<text text-anchor="start" x="207" y="-315.8" font-family="Helvetica,sans-Serif" font-size="11.00" fill="#000000">event_id</text>
<polygon fill="none" stroke="#000000" points="292,-308.7 292,-330.7 389,-330.7 389,-308.7 292,-308.7"/>
<text text-anchor="start" x="295" y="-316.4" font-family="Helvetica,sans-Serif" font-size="11.00" fill="#000000">int4[10]</text>
<polygon fill="none" stroke="#000000" points="187,-286.7 187,-308.7 292,-308.7 292,-286.7 187,-286.7"/>
<image xlink:href="../../images/foreignKeys.png" width="11px" height="12px" preserveAspectRatio="xMinYMin meet" x="192" y="-303.7"/>
<text text-anchor="start" x="207" y="-293.8" font-family="Helvetica,sans-Serif" font-size="11.00" fill="#000000">event_role_id</text>
<polygon fill="none" stroke="#000000" points="292,-286.7 292,-308.7 389,-308.7 389,-286.7 292,-286.7"/>
<text text-anchor="start" x="295" y="-294.4" font-family="Helvetica,sans-Serif" font-size="11.00" fill="#000000">int4[10]</text>
<polygon fill="none" stroke="#000000" points="187,-264.7 187,-286.7 292,-286.7 292,-264.7 187,-264.7"/>
<image xlink:href="../../images/foreignKeys.png" width="11px" height="12px" preserveAspectRatio="xMinYMin meet" x="192" y="-281.7"/>
<text text-anchor="start" x="207" y="-271.8" font-family="Helvetica,sans-Serif" font-size="11.00" fill="#000000">attendance_id</text>
<polygon fill="none" stroke="#000000" points="292,-264.7 292,-286.7 389,-286.7 389,-264.7 292,-264.7"/>
<text text-anchor="start" x="295" y="-272.4" font-family="Helvetica,sans-Serif" font-size="11.00" fill="#000000">int4[10]</text>
<polygon fill="none" stroke="#000000" points="187,-242.7 187,-264.7 292,-264.7 292,-242.7 187,-242.7"/>
<text text-anchor="start" x="207" y="-249.8" font-family="Helvetica,sans-Serif" font-size="11.00" fill="#000000">subscribed</text>
<polygon fill="none" stroke="#000000" points="292,-242.7 292,-264.7 389,-264.7 389,-242.7 292,-242.7"/>
<text text-anchor="start" x="295" y="-250.4" font-family="Helvetica,sans-Serif" font-size="11.00" fill="#000000">bool[1]</text>
<polygon fill="none" stroke="#000000" points="187,-220.7 187,-242.7 292,-242.7 292,-220.7 187,-220.7"/>
<text text-anchor="start" x="207" y="-227.8" font-family="Helvetica,sans-Serif" font-size="11.00" fill="#000000">title</text>
<polygon fill="none" stroke="#000000" points="292,-220.7 292,-242.7 389,-242.7 389,-220.7 292,-220.7"/>
<text text-anchor="start" x="294.9468" y="-228.4" font-family="Helvetica,sans-Serif" font-size="11.00" fill="#000000">_text[2147483647]</text>
<polygon fill="#ffffff" stroke="transparent" points="187,-201.7 187,-220.7 231,-220.7 231,-201.7 187,-201.7"/>
<polygon fill="none" stroke="#000000" points="187,-201.7 187,-220.7 231,-220.7 231,-201.7 187,-201.7"/>
<text text-anchor="start" x="190" y="-207.8" font-family="Helvetica,sans-Serif" font-size="11.00" fill="#000000">&lt; 4</text>
<polygon fill="#ffffff" stroke="transparent" points="231,-201.7 231,-220.7 292,-220.7 292,-201.7 231,-201.7"/>
<polygon fill="none" stroke="#000000" points="231,-201.7 231,-220.7 292,-220.7 292,-201.7 231,-201.7"/>
<text text-anchor="start" x="256.6105" y="-207.8" font-family="Helvetica,sans-Serif" font-size="11.00" fill="#000000">0 rows</text>
<polygon fill="#ffffff" stroke="transparent" points="292,-201.7 292,-220.7 389,-220.7 389,-201.7 292,-201.7"/>
<polygon fill="none" stroke="#000000" points="292,-201.7 292,-220.7 389,-220.7 389,-201.7 292,-201.7"/>
<text text-anchor="start" x="370.4053" y="-207.8" font-family="Helvetica,sans-Serif" font-size="11.00" fill="#000000">2 &gt;</text>
<polygon fill="none" stroke="#000000" stroke-width="2" points="186,-200.7 186,-420.7 390,-420.7 390,-200.7 186,-200.7"/>
</a>
</g>
</g>
<!-- event_reminders&#45;&gt;event_users -->
<g id="edge1" class="edge">
<title>event_reminders:w&#45;&gt;event_users:e</title>
<path fill="none" stroke="#000000" d="M425.276,-319.7C413.2815,-319.7 405.8229,-319.7 389,-319.7"/>
<polygon fill="#000000" stroke="#000000" points="432,-319.7001 440,-323.3 436,-319.7 440,-319.7 440,-319.7 440,-319.7 436,-319.7 440,-316.1 432,-319.7001 432,-319.7001"/>
<ellipse fill="none" stroke="#000000" cx="428.8" cy="-319.7001" rx="3.2" ry="3.2"/>
</g>
<!-- event_reminders&#45;&gt;event_users -->
<g id="edge2" class="edge">
<title>event_reminders:w&#45;&gt;event_users:e</title>
<path fill="none" stroke="#000000" d="M425.276,-341.7C413.2815,-341.7 405.8229,-341.7 389,-341.7"/>
<polygon fill="#000000" stroke="#000000" points="432,-341.7001 440,-345.3 436,-341.7 440,-341.7 440,-341.7 440,-341.7 436,-341.7 440,-338.1 432,-341.7001 432,-341.7001"/>
<ellipse fill="none" stroke="#000000" cx="428.8" cy="-341.7001" rx="3.2" ry="3.2"/>
</g>
<!-- attendance -->
<g id="node3" class="node">
<title>attendance</title>
<g id="a_node3"><a xlink:href="../../tables/attendance.html" xlink:title="attendance" target="_top">
<polygon fill="#ffffff" stroke="transparent" points="23.5,-38.2 23.5,-143.2 120.5,-143.2 120.5,-38.2 23.5,-38.2"/>
<polygon fill="#f5f5f5" stroke="transparent" points="24,-119.7 24,-142.7 121,-142.7 121,-119.7 24,-119.7"/>
<polygon fill="none" stroke="#000000" points="24,-119.7 24,-142.7 121,-142.7 121,-119.7 24,-119.7"/>
<text text-anchor="start" x="28.791" y="-128.8" font-family="Helvetica,sans-Serif" font-weight="bold" font-size="11.00" fill="#000000">attendance</text>
<text text-anchor="start" x="86.5219" y="-127.8" font-family="Helvetica,sans-Serif" font-size="11.00" fill="#000000">[table]</text>
<polygon fill="none" stroke="#000000" points="24,-97.7 24,-119.7 121,-119.7 121,-97.7 24,-97.7"/>
<image xlink:href="../../images/primaryKeys.png" width="11px" height="12px" preserveAspectRatio="xMinYMin meet" x="29" y="-114.7"/>
<text text-anchor="start" x="48" y="-104.8" font-family="Helvetica,sans-Serif" font-size="11.00" fill="#000000">id</text>
<polygon fill="#ffffff" stroke="transparent" points="24,-75.7 24,-97.7 121,-97.7 121,-75.7 24,-75.7"/>
<polygon fill="none" stroke="#000000" points="24,-75.7 24,-97.7 121,-97.7 121,-75.7 24,-75.7"/>
<text text-anchor="start" x="48" y="-82.8" font-family="Helvetica,sans-Serif" font-size="11.00" fill="#000000">name</text>
<polygon fill="none" stroke="#000000" points="24,-56.7 24,-75.7 121,-75.7 121,-56.7 24,-56.7"/>
<text text-anchor="start" x="27" y="-62.8" font-family="Helvetica,sans-Serif" font-size="11.00" fill="#000000">...</text>
<polygon fill="#ffffff" stroke="transparent" points="24,-37.7 24,-56.7 49,-56.7 49,-37.7 24,-37.7"/>
<polygon fill="none" stroke="#000000" points="24,-37.7 24,-56.7 49,-56.7 49,-37.7 24,-37.7"/>
<text text-anchor="start" x="27" y="-43.8" font-family="Helvetica,sans-Serif" font-size="11.00" fill="#000000"> &#160;</text>
<polygon fill="#ffffff" stroke="transparent" points="49,-37.7 49,-56.7 93,-56.7 93,-37.7 49,-37.7"/>
<polygon fill="none" stroke="#000000" points="49,-37.7 49,-56.7 93,-56.7 93,-37.7 49,-37.7"/>
<text text-anchor="start" x="57.6105" y="-43.8" font-family="Helvetica,sans-Serif" font-size="11.00" fill="#000000">4 rows</text>
<polygon fill="#ffffff" stroke="transparent" points="93,-37.7 93,-56.7 121,-56.7 121,-37.7 93,-37.7"/>
<polygon fill="none" stroke="#000000" points="93,-37.7 93,-56.7 121,-56.7 121,-37.7 93,-37.7"/>
<text text-anchor="start" x="102.4053" y="-43.8" font-family="Helvetica,sans-Serif" font-size="11.00" fill="#000000">1 &gt;</text>
</a>
</g>
</g>
<!-- event_users&#45;&gt;attendance -->
<g id="edge3" class="edge">
<title>event_users:w&#45;&gt;attendance:e</title>
<path fill="none" stroke="#000000" d="M172.617,-273.3392C119.4991,-253.0412 195.1969,-108.7 121,-108.7"/>
<polygon fill="#000000" stroke="#000000" points="179.1056,-274.4042 186.4169,-279.2525 183.0528,-275.0521 187,-275.7 187,-275.7 187,-275.7 183.0528,-275.0521 187.5831,-272.1475 179.1056,-274.4042 179.1056,-274.4042"/>
<ellipse fill="none" stroke="#000000" cx="175.9479" cy="-273.8859" rx="3.2" ry="3.2"/>
</g>
<!-- events -->
<g id="node4" class="node">
<title>events</title>
<g id="a_node4"><a xlink:href="../../tables/events.html" xlink:title="events" target="_top">
<polygon fill="#ffffff" stroke="transparent" points="8,-290.2 8,-417.2 136,-417.2 136,-290.2 8,-290.2"/>
<polygon fill="#f5f5f5" stroke="transparent" points="8,-393.7 8,-416.7 136,-416.7 136,-393.7 8,-393.7"/>
<polygon fill="none" stroke="#000000" points="8,-393.7 8,-416.7 136,-416.7 136,-393.7 8,-393.7"/>
<text text-anchor="start" x="13" y="-402.8" font-family="Helvetica,sans-Serif" font-weight="bold" font-size="11.00" fill="#000000">events</text>
<text text-anchor="start" x="101.0437" y="-401.8" font-family="Helvetica,sans-Serif" font-size="11.00" fill="#000000">[table]</text>
<polygon fill="none" stroke="#000000" points="8,-371.7 8,-393.7 136,-393.7 136,-371.7 8,-371.7"/>
<image xlink:href="../../images/primaryKeys.png" width="11px" height="12px" preserveAspectRatio="xMinYMin meet" x="13" y="-388.7"/>
<text text-anchor="start" x="28" y="-378.8" font-family="Helvetica,sans-Serif" font-size="11.00" fill="#000000">id</text>
<polygon fill="none" stroke="#000000" points="8,-349.7 8,-371.7 136,-371.7 136,-349.7 8,-349.7"/>
<image xlink:href="../../images/foreignKeys.png" width="11px" height="12px" preserveAspectRatio="xMinYMin meet" x="13" y="-366.7"/>
<text text-anchor="start" x="28" y="-356.8" font-family="Helvetica,sans-Serif" font-size="11.00" fill="#000000">venue_id</text>
<polygon fill="none" stroke="#000000" points="8,-327.7 8,-349.7 136,-349.7 136,-327.7 8,-327.7"/>
<image xlink:href="../../images/foreignKeys.png" width="11px" height="12px" preserveAspectRatio="xMinYMin meet" x="13" y="-344.7"/>
<text text-anchor="start" x="28" y="-334.8" font-family="Helvetica,sans-Serif" font-size="11.00" fill="#000000">chapter_id</text>
<polygon fill="none" stroke="#000000" points="8,-308.7 8,-327.7 136,-327.7 136,-308.7 8,-308.7"/>
<text text-anchor="start" x="11" y="-314.8" font-family="Helvetica,sans-Serif" font-size="11.00" fill="#000000">...</text>
<polygon fill="#ffffff" stroke="transparent" points="8,-289.7 8,-308.7 53,-308.7 53,-289.7 8,-289.7"/>
<polygon fill="none" stroke="#000000" points="8,-289.7 8,-308.7 53,-308.7 53,-289.7 8,-289.7"/>
<text text-anchor="start" x="11" y="-295.8" font-family="Helvetica,sans-Serif" font-size="11.00" fill="#000000">&lt; 2</text>
<polygon fill="#ffffff" stroke="transparent" points="53,-289.7 53,-308.7 103,-308.7 103,-289.7 53,-289.7"/>
<polygon fill="none" stroke="#000000" points="53,-289.7 53,-308.7 103,-308.7 103,-289.7 53,-289.7"/>
<text text-anchor="start" x="67.6105" y="-295.8" font-family="Helvetica,sans-Serif" font-size="11.00" fill="#000000">0 rows</text>
<polygon fill="#ffffff" stroke="transparent" points="103,-289.7 103,-308.7 136,-308.7 136,-289.7 103,-289.7"/>
<polygon fill="none" stroke="#000000" points="103,-289.7 103,-308.7 136,-308.7 136,-289.7 103,-289.7"/>
<text text-anchor="start" x="117.4053" y="-295.8" font-family="Helvetica,sans-Serif" font-size="11.00" fill="#000000">3 &gt;</text>
</a>
</g>
</g>
<!-- event_users&#45;&gt;events -->
<g id="edge4" class="edge">
<title>event_users:w&#45;&gt;events:e</title>
<path fill="none" stroke="#000000" d="M172.9033,-324.6435C156.525,-339.4952 165.8329,-382.7 136,-382.7"/>
<polygon fill="#000000" stroke="#000000" points="179.4507,-322.3474 188.1913,-323.0972 183.2254,-321.0237 187,-319.7 187,-319.7 187,-319.7 183.2254,-321.0237 185.8087,-316.3028 179.4507,-322.3474 179.4507,-322.3474"/>
<ellipse fill="none" stroke="#000000" cx="176.431" cy="-323.4064" rx="3.2" ry="3.2"/>
</g>
<!-- event_roles -->
<g id="node5" class="node">
<title>event_roles</title>
<g id="a_node5"><a xlink:href="../../tables/event_roles.html" xlink:title="event_roles" target="_top">
<polygon fill="#ffffff" stroke="transparent" points="22.5,-164.2 22.5,-269.2 121.5,-269.2 121.5,-164.2 22.5,-164.2"/>
<polygon fill="#f5f5f5" stroke="transparent" points="23,-245.7 23,-268.7 122,-268.7 122,-245.7 23,-245.7"/>
<polygon fill="none" stroke="#000000" points="23,-245.7 23,-268.7 122,-268.7 122,-245.7 23,-245.7"/>
<text text-anchor="start" x="27.5755" y="-254.8" font-family="Helvetica,sans-Serif" font-weight="bold" font-size="11.00" fill="#000000">event_roles</text>
<text text-anchor="start" x="87.5219" y="-253.8" font-family="Helvetica,sans-Serif" font-size="11.00" fill="#000000">[table]</text>
<polygon fill="none" stroke="#000000" points="23,-223.7 23,-245.7 122,-245.7 122,-223.7 23,-223.7"/>
<image xlink:href="../../images/primaryKeys.png" width="11px" height="12px" preserveAspectRatio="xMinYMin meet" x="28" y="-240.7"/>
<text text-anchor="start" x="48" y="-230.8" font-family="Helvetica,sans-Serif" font-size="11.00" fill="#000000">id</text>
<polygon fill="#ffffff" stroke="transparent" points="23,-201.7 23,-223.7 122,-223.7 122,-201.7 23,-201.7"/>
<polygon fill="none" stroke="#000000" points="23,-201.7 23,-223.7 122,-223.7 122,-201.7 23,-201.7"/>
<text text-anchor="start" x="48" y="-208.8" font-family="Helvetica,sans-Serif" font-size="11.00" fill="#000000">name</text>
<polygon fill="none" stroke="#000000" points="23,-182.7 23,-201.7 122,-201.7 122,-182.7 23,-182.7"/>
<text text-anchor="start" x="26" y="-188.8" font-family="Helvetica,sans-Serif" font-size="11.00" fill="#000000">...</text>
<polygon fill="#ffffff" stroke="transparent" points="23,-163.7 23,-182.7 52,-182.7 52,-163.7 23,-163.7"/>
<polygon fill="none" stroke="#000000" points="23,-163.7 23,-182.7 52,-182.7 52,-163.7 23,-163.7"/>
<text text-anchor="start" x="26" y="-169.8" font-family="Helvetica,sans-Serif" font-size="11.00" fill="#000000"> &#160;</text>
<polygon fill="#ffffff" stroke="transparent" points="52,-163.7 52,-182.7 92,-182.7 92,-163.7 52,-163.7"/>
<polygon fill="none" stroke="#000000" points="52,-163.7 52,-182.7 92,-182.7 92,-163.7 52,-163.7"/>
<text text-anchor="start" x="62.1105" y="-169.8" font-family="Helvetica,sans-Serif" font-size="11.00" fill="#000000">1 row</text>
<polygon fill="#ffffff" stroke="transparent" points="92,-163.7 92,-182.7 122,-182.7 122,-163.7 92,-163.7"/>
<polygon fill="none" stroke="#000000" points="92,-163.7 92,-182.7 122,-182.7 122,-163.7 92,-163.7"/>
<text text-anchor="start" x="103.4053" y="-169.8" font-family="Helvetica,sans-Serif" font-size="11.00" fill="#000000">2 &gt;</text>
</a>
</g>
</g>
<!-- event_users&#45;&gt;event_roles -->
<g id="edge5" class="edge">
<title>event_users:w&#45;&gt;event_roles:e</title>
<path fill="none" stroke="#000000" d="M172.7098,-294.1323C150.0749,-280.8051 156.4167,-234.7 122,-234.7"/>
<polygon fill="#000000" stroke="#000000" points="179.2382,-295.7622 186.128,-301.1928 183.1191,-296.7311 187,-297.7 187,-297.7 187,-297.7 183.1191,-296.7311 187.872,-294.2072 179.2382,-295.7622 179.2382,-295.7622"/>
<ellipse fill="none" stroke="#000000" cx="176.1335" cy="-294.987" rx="3.2" ry="3.2"/>
</g>
<!-- users -->
<g id="node6" class="node">
<title>users</title>
<g id="a_node6"><a xlink:href="../../tables/users.html" xlink:title="users" target="_top">
<polygon fill="#ffffff" stroke="transparent" points="14,-438.2 14,-565.2 130,-565.2 130,-438.2 14,-438.2"/>
<polygon fill="#f5f5f5" stroke="transparent" points="14,-541.7 14,-564.7 130,-564.7 130,-541.7 14,-541.7"/>
<polygon fill="none" stroke="#000000" points="14,-541.7 14,-564.7 130,-564.7 130,-541.7 14,-541.7"/>
<text text-anchor="start" x="19" y="-550.8" font-family="Helvetica,sans-Serif" font-weight="bold" font-size="11.00" fill="#000000">users</text>
<text text-anchor="start" x="95.0437" y="-549.8" font-family="Helvetica,sans-Serif" font-size="11.00" fill="#000000">[table]</text>
<polygon fill="none" stroke="#000000" points="14,-519.7 14,-541.7 130,-541.7 130,-519.7 14,-519.7"/>
<image xlink:href="../../images/primaryKeys.png" width="11px" height="12px" preserveAspectRatio="xMinYMin meet" x="19" y="-536.7"/>
<text text-anchor="start" x="34" y="-526.8" font-family="Helvetica,sans-Serif" font-size="11.00" fill="#000000">id</text>
<polygon fill="#ffffff" stroke="transparent" points="14,-497.7 14,-519.7 130,-519.7 130,-497.7 14,-497.7"/>
<polygon fill="none" stroke="#000000" points="14,-497.7 14,-519.7 130,-519.7 130,-497.7 14,-497.7"/>
<text text-anchor="start" x="34" y="-504.8" font-family="Helvetica,sans-Serif" font-size="11.00" fill="#000000">email</text>
<polygon fill="none" stroke="#000000" points="14,-475.7 14,-497.7 130,-497.7 130,-475.7 14,-475.7"/>
<image xlink:href="../../images/foreignKeys.png" width="11px" height="12px" preserveAspectRatio="xMinYMin meet" x="19" y="-492.7"/>
<text text-anchor="start" x="34" y="-482.8" font-family="Helvetica,sans-Serif" font-size="11.00" fill="#000000">instance_role_id</text>
<polygon fill="none" stroke="#000000" points="14,-456.7 14,-475.7 130,-475.7 130,-456.7 14,-456.7"/>
<text text-anchor="start" x="17" y="-462.8" font-family="Helvetica,sans-Serif" font-size="11.00" fill="#000000">...</text>
<polygon fill="#ffffff" stroke="transparent" points="14,-437.7 14,-456.7 53,-456.7 53,-437.7 14,-437.7"/>
<polygon fill="none" stroke="#000000" points="14,-437.7 14,-456.7 53,-456.7 53,-437.7 14,-437.7"/>
<text text-anchor="start" x="17" y="-443.8" font-family="Helvetica,sans-Serif" font-size="11.00" fill="#000000">&lt; 1</text>
<polygon fill="#ffffff" stroke="transparent" points="53,-437.7 53,-456.7 100,-456.7 100,-437.7 53,-437.7"/>
<polygon fill="none" stroke="#000000" points="53,-437.7 53,-456.7 100,-456.7 100,-437.7 53,-437.7"/>
<text text-anchor="start" x="64.6105" y="-443.8" font-family="Helvetica,sans-Serif" font-size="11.00" fill="#000000">0 rows</text>
<polygon fill="#ffffff" stroke="transparent" points="100,-437.7 100,-456.7 130,-456.7 130,-437.7 100,-437.7"/>
<polygon fill="none" stroke="#000000" points="100,-437.7 100,-456.7 130,-456.7 130,-437.7 100,-437.7"/>
<text text-anchor="start" x="111.4053" y="-443.8" font-family="Helvetica,sans-Serif" font-size="11.00" fill="#000000">4 &gt;</text>
</a>
</g>
</g>
<!-- event_users&#45;&gt;users -->
<g id="edge6" class="edge">
<title>event_users:w&#45;&gt;users:e</title>
<path fill="none" stroke="#000000" d="M172.4947,-343.9542C113.6784,-365.2781 212.0821,-530.7 130,-530.7"/>
<polygon fill="#000000" stroke="#000000" points="179.0949,-342.9286 187.5529,-345.2573 183.0474,-342.3143 187,-341.7 187,-341.7 187,-341.7 183.0474,-342.3143 186.4471,-338.1427 179.0949,-342.9286 179.0949,-342.9286"/>
<ellipse fill="none" stroke="#000000" cx="175.9328" cy="-343.42" rx="3.2" ry="3.2"/>
</g>
</g>
</svg>
