<?xml version="1.0" encoding="UTF-8" standalone="no"?>
<!DOCTYPE svg PUBLIC "-//W3C//DTD SVG 1.1//EN"
 "http://www.w3.org/Graphics/SVG/1.1/DTD/svg11.dtd">
<!-- Generated by graphviz version 2.40.1 (20161225.0304)
 -->
<!-- Title: oneDegreeRelationshipsDiagram Pages: 1 -->
<svg width="667pt" height="770pt"
 viewBox="0.00 0.00 667.00 770.20" xmlns="http://www.w3.org/2000/svg" xmlns:xlink="http://www.w3.org/1999/xlink">
<g id="graph0" class="graph" transform="scale(1 1) rotate(0) translate(4 766.2)">
<title>oneDegreeRelationshipsDiagram</title>
<polygon fill="#ffffff" stroke="transparent" points="-4,4 -4,-766.2 663,-766.2 663,4 -4,4"/>
<text text-anchor="middle" x="72.4936" y="-7.3" font-family="Helvetica,sans-Serif" font-size="11.00" fill="#000000">Generated by SchemaSpy</text>
<!-- event_sponsors -->
<g id="node1" class="node">
<title>event_sponsors</title>
<g id="a_node1"><a xlink:href="../../tables/event_sponsors.html" xlink:title="event_sponsors" target="_top">
<polygon fill="#ffffff" stroke="transparent" points="527.5,-631.2 527.5,-758.2 647.5,-758.2 647.5,-631.2 527.5,-631.2"/>
<polygon fill="#f5f5f5" stroke="transparent" points="527.5,-734.7 527.5,-757.7 647.5,-757.7 647.5,-734.7 527.5,-734.7"/>
<polygon fill="none" stroke="#000000" points="527.5,-734.7 527.5,-757.7 647.5,-757.7 647.5,-734.7 527.5,-734.7"/>
<text text-anchor="start" x="532.181" y="-743.8" font-family="Helvetica,sans-Serif" font-weight="bold" font-size="11.00" fill="#000000">event_sponsors</text>
<text text-anchor="start" x="613.0219" y="-742.8" font-family="Helvetica,sans-Serif" font-size="11.00" fill="#000000">[table]</text>
<polygon fill="none" stroke="#000000" points="527.5,-712.7 527.5,-734.7 647.5,-734.7 647.5,-712.7 527.5,-712.7"/>
<image xlink:href="../../images/primaryKeys.png" width="11px" height="12px" preserveAspectRatio="xMinYMin meet" x="532.5" y="-729.7"/>
<text text-anchor="start" x="551.5" y="-719.8" font-family="Helvetica,sans-Serif" font-size="11.00" fill="#000000">id</text>
<polygon fill="none" stroke="#000000" points="527.5,-690.7 527.5,-712.7 647.5,-712.7 647.5,-690.7 527.5,-690.7"/>
<image xlink:href="../../images/foreignKeys.png" width="11px" height="12px" preserveAspectRatio="xMinYMin meet" x="532.5" y="-707.7"/>
<text text-anchor="start" x="551.5" y="-697.8" font-family="Helvetica,sans-Serif" font-size="11.00" fill="#000000">sponsor_id</text>
<polygon fill="none" stroke="#000000" points="527.5,-668.7 527.5,-690.7 647.5,-690.7 647.5,-668.7 527.5,-668.7"/>
<image xlink:href="../../images/foreignKeys.png" width="11px" height="12px" preserveAspectRatio="xMinYMin meet" x="532.5" y="-685.7"/>
<text text-anchor="start" x="551.5" y="-675.8" font-family="Helvetica,sans-Serif" font-size="11.00" fill="#000000">event_id</text>
<polygon fill="none" stroke="#000000" points="527.5,-649.7 527.5,-668.7 647.5,-668.7 647.5,-649.7 527.5,-649.7"/>
<text text-anchor="start" x="530.5" y="-655.8" font-family="Helvetica,sans-Serif" font-size="11.00" fill="#000000">...</text>
<polygon fill="#ffffff" stroke="transparent" points="527.5,-630.7 527.5,-649.7 572.5,-649.7 572.5,-630.7 527.5,-630.7"/>
<polygon fill="none" stroke="#000000" points="527.5,-630.7 527.5,-649.7 572.5,-649.7 572.5,-630.7 527.5,-630.7"/>
<text text-anchor="start" x="530.5" y="-636.8" font-family="Helvetica,sans-Serif" font-size="11.00" fill="#000000">&lt; 2</text>
<polygon fill="#ffffff" stroke="transparent" points="572.5,-630.7 572.5,-649.7 622.5,-649.7 622.5,-630.7 572.5,-630.7"/>
<polygon fill="none" stroke="#000000" points="572.5,-630.7 572.5,-649.7 622.5,-649.7 622.5,-630.7 572.5,-630.7"/>
<text text-anchor="start" x="587.1105" y="-636.8" font-family="Helvetica,sans-Serif" font-size="11.00" fill="#000000">0 rows</text>
<polygon fill="#ffffff" stroke="transparent" points="622.5,-630.7 622.5,-649.7 647.5,-649.7 647.5,-630.7 622.5,-630.7"/>
<polygon fill="none" stroke="#000000" points="622.5,-630.7 622.5,-649.7 647.5,-649.7 647.5,-630.7 622.5,-630.7"/>
<text text-anchor="start" x="638.3862" y="-636.8" font-family="Helvetica,sans-Serif" font-size="11.00" fill="#000000"> &#160;</text>
</a>
</g>
</g>
<!-- events -->
<g id="node2" class="node">
<title>events</title>
<g id="a_node2"><a xlink:href="../../tables/events.html" xlink:title="events" target="_top">
<polygon fill="#ffffff" stroke="transparent" points="165,-117.7 165,-515.7 475,-515.7 475,-117.7 165,-117.7"/>
<polygon fill="#f5f5f5" stroke="transparent" points="167,-490.7 167,-513.7 473,-513.7 473,-490.7 167,-490.7"/>
<polygon fill="none" stroke="#000000" points="167,-490.7 167,-513.7 473,-513.7 473,-490.7 167,-490.7"/>
<text text-anchor="start" x="172" y="-499.8" font-family="Helvetica,sans-Serif" font-weight="bold" font-size="11.00" fill="#000000">events</text>
<text text-anchor="start" x="438.0437" y="-498.8" font-family="Helvetica,sans-Serif" font-size="11.00" fill="#000000">[table]</text>
<polygon fill="none" stroke="#000000" points="167,-468.7 167,-490.7 271,-490.7 271,-468.7 167,-468.7"/>
<image xlink:href="../../images/primaryKeys.png" width="11px" height="12px" preserveAspectRatio="xMinYMin meet" x="172" y="-485.7"/>
<text text-anchor="start" x="187" y="-475.8" font-family="Helvetica,sans-Serif" font-size="11.00" fill="#000000">id</text>
<polygon fill="none" stroke="#000000" points="271,-468.7 271,-490.7 473,-490.7 473,-468.7 271,-468.7"/>
<text text-anchor="start" x="274" y="-476.4" font-family="Helvetica,sans-Serif" font-size="11.00" fill="#000000">serial[10]</text>
<polygon fill="none" stroke="#000000" points="167,-446.7 167,-468.7 271,-468.7 271,-446.7 167,-446.7"/>
<text text-anchor="start" x="187" y="-453.8" font-family="Helvetica,sans-Serif" font-size="11.00" fill="#000000">created_at</text>
<polygon fill="none" stroke="#000000" points="271,-446.7 271,-468.7 473,-468.7 473,-446.7 271,-446.7"/>
<text text-anchor="start" x="274" y="-454.4" font-family="Helvetica,sans-Serif" font-size="11.00" fill="#000000">timestamp[29,6]</text>
<polygon fill="none" stroke="#000000" points="167,-424.7 167,-446.7 271,-446.7 271,-424.7 167,-424.7"/>
<text text-anchor="start" x="187" y="-431.8" font-family="Helvetica,sans-Serif" font-size="11.00" fill="#000000">updated_at</text>
<polygon fill="none" stroke="#000000" points="271,-424.7 271,-446.7 473,-446.7 473,-424.7 271,-424.7"/>
<text text-anchor="start" x="274" y="-432.4" font-family="Helvetica,sans-Serif" font-size="11.00" fill="#000000">timestamp[29,6]</text>
<polygon fill="none" stroke="#000000" points="167,-402.7 167,-424.7 271,-424.7 271,-402.7 167,-402.7"/>
<text text-anchor="start" x="187" y="-409.8" font-family="Helvetica,sans-Serif" font-size="11.00" fill="#000000">name</text>
<polygon fill="none" stroke="#000000" points="271,-402.7 271,-424.7 473,-424.7 473,-402.7 271,-402.7"/>
<text text-anchor="start" x="274" y="-410.4" font-family="Helvetica,sans-Serif" font-size="11.00" fill="#000000">varchar[2147483647]</text>
<polygon fill="none" stroke="#000000" points="167,-380.7 167,-402.7 271,-402.7 271,-380.7 167,-380.7"/>
<text text-anchor="start" x="187" y="-387.8" font-family="Helvetica,sans-Serif" font-size="11.00" fill="#000000">description</text>
<polygon fill="none" stroke="#000000" points="271,-380.7 271,-402.7 473,-402.7 473,-380.7 271,-380.7"/>
<text text-anchor="start" x="274" y="-388.4" font-family="Helvetica,sans-Serif" font-size="11.00" fill="#000000">varchar[2147483647]</text>
<polygon fill="none" stroke="#000000" points="167,-358.7 167,-380.7 271,-380.7 271,-358.7 167,-358.7"/>
<text text-anchor="start" x="187" y="-365.8" font-family="Helvetica,sans-Serif" font-size="11.00" fill="#000000">url</text>
<polygon fill="none" stroke="#000000" points="271,-358.7 271,-380.7 473,-380.7 473,-358.7 271,-358.7"/>
<text text-anchor="start" x="274" y="-366.4" font-family="Helvetica,sans-Serif" font-size="11.00" fill="#000000">varchar[2147483647]</text>
<polygon fill="none" stroke="#000000" points="167,-336.7 167,-358.7 271,-358.7 271,-336.7 167,-336.7"/>
<text text-anchor="start" x="187" y="-343.8" font-family="Helvetica,sans-Serif" font-size="11.00" fill="#000000">streaming_url</text>
<polygon fill="none" stroke="#000000" points="271,-336.7 271,-358.7 473,-358.7 473,-336.7 271,-336.7"/>
<text text-anchor="start" x="274" y="-344.4" font-family="Helvetica,sans-Serif" font-size="11.00" fill="#000000">varchar[2147483647]</text>
<polygon fill="none" stroke="#000000" points="167,-314.7 167,-336.7 271,-336.7 271,-314.7 167,-314.7"/>
<text text-anchor="start" x="187" y="-321.8" font-family="Helvetica,sans-Serif" font-size="11.00" fill="#000000">venue_type</text>
<polygon fill="none" stroke="#000000" points="271,-314.7 271,-336.7 473,-336.7 473,-314.7 271,-314.7"/>
<text text-anchor="start" x="273.869" y="-322.4" font-family="Helvetica,sans-Serif" font-size="11.00" fill="#000000">events_venue_type_enum[2147483647]</text>
<polygon fill="none" stroke="#000000" points="167,-292.7 167,-314.7 271,-314.7 271,-292.7 167,-292.7"/>
<text text-anchor="start" x="187" y="-299.8" font-family="Helvetica,sans-Serif" font-size="11.00" fill="#000000">start_at</text>
<polygon fill="none" stroke="#000000" points="271,-292.7 271,-314.7 473,-314.7 473,-292.7 271,-292.7"/>
<text text-anchor="start" x="274" y="-300.4" font-family="Helvetica,sans-Serif" font-size="11.00" fill="#000000">timestamp[29,6]</text>
<polygon fill="none" stroke="#000000" points="167,-270.7 167,-292.7 271,-292.7 271,-270.7 167,-270.7"/>
<text text-anchor="start" x="187" y="-277.8" font-family="Helvetica,sans-Serif" font-size="11.00" fill="#000000">ends_at</text>
<polygon fill="none" stroke="#000000" points="271,-270.7 271,-292.7 473,-292.7 473,-270.7 271,-270.7"/>
<text text-anchor="start" x="274" y="-278.4" font-family="Helvetica,sans-Serif" font-size="11.00" fill="#000000">timestamp[29,6]</text>
<polygon fill="none" stroke="#000000" points="167,-248.7 167,-270.7 271,-270.7 271,-248.7 167,-248.7"/>
<text text-anchor="start" x="187" y="-255.8" font-family="Helvetica,sans-Serif" font-size="11.00" fill="#000000">canceled</text>
<polygon fill="none" stroke="#000000" points="271,-248.7 271,-270.7 473,-270.7 473,-248.7 271,-248.7"/>
<text text-anchor="start" x="274" y="-256.4" font-family="Helvetica,sans-Serif" font-size="11.00" fill="#000000">bool[1]</text>
<polygon fill="none" stroke="#000000" points="167,-226.7 167,-248.7 271,-248.7 271,-226.7 167,-226.7"/>
<text text-anchor="start" x="187" y="-233.8" font-family="Helvetica,sans-Serif" font-size="11.00" fill="#000000">capacity</text>
<polygon fill="none" stroke="#000000" points="271,-226.7 271,-248.7 473,-248.7 473,-226.7 271,-226.7"/>
<text text-anchor="start" x="274" y="-234.4" font-family="Helvetica,sans-Serif" font-size="11.00" fill="#000000">int4[10]</text>
<polygon fill="none" stroke="#000000" points="167,-204.7 167,-226.7 271,-226.7 271,-204.7 167,-204.7"/>
<text text-anchor="start" x="187" y="-211.8" font-family="Helvetica,sans-Serif" font-size="11.00" fill="#000000">invite_only</text>
<polygon fill="none" stroke="#000000" points="271,-204.7 271,-226.7 473,-226.7 473,-204.7 271,-204.7"/>
<text text-anchor="start" x="274" y="-212.4" font-family="Helvetica,sans-Serif" font-size="11.00" fill="#000000">bool[1]</text>
<polygon fill="none" stroke="#000000" points="167,-182.7 167,-204.7 271,-204.7 271,-182.7 167,-182.7"/>
<text text-anchor="start" x="187" y="-189.8" font-family="Helvetica,sans-Serif" font-size="11.00" fill="#000000">image_url</text>
<polygon fill="none" stroke="#000000" points="271,-182.7 271,-204.7 473,-204.7 473,-182.7 271,-182.7"/>
<text text-anchor="start" x="274" y="-190.4" font-family="Helvetica,sans-Serif" font-size="11.00" fill="#000000">varchar[2147483647]</text>
<polygon fill="none" stroke="#000000" points="167,-160.7 167,-182.7 271,-182.7 271,-160.7 167,-160.7"/>
<image xlink:href="../../images/foreignKeys.png" width="11px" height="12px" preserveAspectRatio="xMinYMin meet" x="172" y="-177.7"/>
<text text-anchor="start" x="187" y="-167.8" font-family="Helvetica,sans-Serif" font-size="11.00" fill="#000000">venue_id</text>
<polygon fill="none" stroke="#000000" points="271,-160.7 271,-182.7 473,-182.7 473,-160.7 271,-160.7"/>
<text text-anchor="start" x="274" y="-168.4" font-family="Helvetica,sans-Serif" font-size="11.00" fill="#000000">int4[10]</text>
<polygon fill="none" stroke="#000000" points="167,-138.7 167,-160.7 271,-160.7 271,-138.7 167,-138.7"/>
<image xlink:href="../../images/foreignKeys.png" width="11px" height="12px" preserveAspectRatio="xMinYMin meet" x="172" y="-155.7"/>
<text text-anchor="start" x="187" y="-145.8" font-family="Helvetica,sans-Serif" font-size="11.00" fill="#000000">chapter_id</text>
<polygon fill="none" stroke="#000000" points="271,-138.7 271,-160.7 473,-160.7 473,-138.7 271,-138.7"/>
<text text-anchor="start" x="274" y="-146.4" font-family="Helvetica,sans-Serif" font-size="11.00" fill="#000000">int4[10]</text>
<polygon fill="#ffffff" stroke="transparent" points="167,-119.7 167,-138.7 210,-138.7 210,-119.7 167,-119.7"/>
<polygon fill="none" stroke="#000000" points="167,-119.7 167,-138.7 210,-138.7 210,-119.7 167,-119.7"/>
<text text-anchor="start" x="170" y="-125.8" font-family="Helvetica,sans-Serif" font-size="11.00" fill="#000000">&lt; 2</text>
<polygon fill="#ffffff" stroke="transparent" points="210,-119.7 210,-138.7 271,-138.7 271,-119.7 210,-119.7"/>
<polygon fill="none" stroke="#000000" points="210,-119.7 210,-138.7 271,-138.7 271,-119.7 210,-119.7"/>
<text text-anchor="start" x="235.6105" y="-125.8" font-family="Helvetica,sans-Serif" font-size="11.00" fill="#000000">0 rows</text>
<polygon fill="#ffffff" stroke="transparent" points="271,-119.7 271,-138.7 473,-138.7 473,-119.7 271,-119.7"/>
<polygon fill="none" stroke="#000000" points="271,-119.7 271,-138.7 473,-138.7 473,-119.7 271,-119.7"/>
<text text-anchor="start" x="454.4053" y="-125.8" font-family="Helvetica,sans-Serif" font-size="11.00" fill="#000000">4 &gt;</text>
<polygon fill="none" stroke="#000000" stroke-width="2" points="166,-118.7 166,-514.7 474,-514.7 474,-118.7 166,-118.7"/>
</a>
</g>
</g>
<!-- event_sponsors&#45;&gt;events -->
<g id="edge1" class="edge">
<title>event_sponsors:w&#45;&gt;events:e</title>
<path fill="none" stroke="#000000" d="M513.1072,-677.5892C450.2696,-656.2144 559.5519,-479.7 473,-479.7"/>
<polygon fill="#000000" stroke="#000000" points="519.5847,-678.5391 526.9776,-683.2619 523.5423,-679.1196 527.5,-679.7 527.5,-679.7 527.5,-679.7 523.5423,-679.1196 528.0224,-676.1381 519.5847,-678.5391 519.5847,-678.5391"/>
<ellipse fill="none" stroke="#000000" cx="516.4185" cy="-678.0748" rx="3.2" ry="3.2"/>
</g>
<!-- chapters -->
<g id="node3" class="node">
<title>chapters</title>
<g id="a_node3"><a xlink:href="../../tables/chapters.html" xlink:title="chapters" target="_top">
<polygon fill="#ffffff" stroke="transparent" points="18,-38.2 18,-143.2 106,-143.2 106,-38.2 18,-38.2"/>
<polygon fill="#f5f5f5" stroke="transparent" points="18,-119.7 18,-142.7 106,-142.7 106,-119.7 18,-119.7"/>
<polygon fill="none" stroke="#000000" points="18,-119.7 18,-142.7 106,-142.7 106,-119.7 18,-119.7"/>
<text text-anchor="start" x="23" y="-128.8" font-family="Helvetica,sans-Serif" font-weight="bold" font-size="11.00" fill="#000000">chapters</text>
<text text-anchor="start" x="71.0437" y="-127.8" font-family="Helvetica,sans-Serif" font-size="11.00" fill="#000000">[table]</text>
<polygon fill="none" stroke="#000000" points="18,-97.7 18,-119.7 106,-119.7 106,-97.7 18,-97.7"/>
<image xlink:href="../../images/primaryKeys.png" width="11px" height="12px" preserveAspectRatio="xMinYMin meet" x="23" y="-114.7"/>
<text text-anchor="start" x="38" y="-104.8" font-family="Helvetica,sans-Serif" font-size="11.00" fill="#000000">id</text>
<polygon fill="none" stroke="#000000" points="18,-75.7 18,-97.7 106,-97.7 106,-75.7 18,-75.7"/>
<image xlink:href="../../images/foreignKeys.png" width="11px" height="12px" preserveAspectRatio="xMinYMin meet" x="23" y="-92.7"/>
<text text-anchor="start" x="38" y="-82.8" font-family="Helvetica,sans-Serif" font-size="11.00" fill="#000000">creator_id</text>
<polygon fill="none" stroke="#000000" points="18,-56.7 18,-75.7 106,-75.7 106,-56.7 18,-56.7"/>
<text text-anchor="start" x="21" y="-62.8" font-family="Helvetica,sans-Serif" font-size="11.00" fill="#000000">...</text>
<polygon fill="#ffffff" stroke="transparent" points="18,-37.7 18,-56.7 43,-56.7 43,-37.7 18,-37.7"/>
<polygon fill="none" stroke="#000000" points="18,-37.7 18,-56.7 43,-56.7 43,-37.7 18,-37.7"/>
<text text-anchor="start" x="21" y="-43.8" font-family="Helvetica,sans-Serif" font-size="11.00" fill="#000000">&lt; 1</text>
<polygon fill="#ffffff" stroke="transparent" points="43,-37.7 43,-56.7 83,-56.7 83,-37.7 43,-37.7"/>
<polygon fill="none" stroke="#000000" points="43,-37.7 43,-56.7 83,-56.7 83,-37.7 43,-37.7"/>
<text text-anchor="start" x="47.6105" y="-43.8" font-family="Helvetica,sans-Serif" font-size="11.00" fill="#000000">0 rows</text>
<polygon fill="#ffffff" stroke="transparent" points="83,-37.7 83,-56.7 106,-56.7 106,-37.7 83,-37.7"/>
<polygon fill="none" stroke="#000000" points="83,-37.7 83,-56.7 106,-56.7 106,-37.7 83,-37.7"/>
<text text-anchor="start" x="87.4053" y="-43.8" font-family="Helvetica,sans-Serif" font-size="11.00" fill="#000000">3 &gt;</text>
</a>
</g>
</g>
<!-- events&#45;&gt;chapters -->
<g id="edge2" class="edge">
<title>events:w&#45;&gt;chapters:e</title>
<path fill="none" stroke="#000000" d="M152.8015,-146.3448C134.7138,-136.5528 132.9239,-108.7 106,-108.7"/>
<polygon fill="#000000" stroke="#000000" points="159.2144,-147.8602 166.1721,-153.2035 163.1072,-148.7801 167,-149.7 167,-149.7 167,-149.7 163.1072,-148.7801 167.8279,-146.1965 159.2144,-147.8602 159.2144,-147.8602"/>
<ellipse fill="none" stroke="#000000" cx="156.1002" cy="-147.1242" rx="3.2" ry="3.2"/>
</g>
<!-- venues -->
<g id="node4" class="node">
<title>venues</title>
<g id="a_node4"><a xlink:href="../../tables/venues.html" xlink:title="venues" target="_top">
<polygon fill="#ffffff" stroke="transparent" points="8,-164.2 8,-247.2 116,-247.2 116,-164.2 8,-164.2"/>
<polygon fill="#f5f5f5" stroke="transparent" points="8,-223.7 8,-246.7 116,-246.7 116,-223.7 8,-223.7"/>
<polygon fill="none" stroke="#000000" points="8,-223.7 8,-246.7 116,-246.7 116,-223.7 8,-223.7"/>
<text text-anchor="start" x="13" y="-232.8" font-family="Helvetica,sans-Serif" font-weight="bold" font-size="11.00" fill="#000000">venues</text>
<text text-anchor="start" x="81.0437" y="-231.8" font-family="Helvetica,sans-Serif" font-size="11.00" fill="#000000">[table]</text>
<polygon fill="none" stroke="#000000" points="8,-201.7 8,-223.7 116,-223.7 116,-201.7 8,-201.7"/>
<image xlink:href="../../images/primaryKeys.png" width="11px" height="12px" preserveAspectRatio="xMinYMin meet" x="13" y="-218.7"/>
<text text-anchor="start" x="28" y="-208.8" font-family="Helvetica,sans-Serif" font-size="11.00" fill="#000000">id</text>
<polygon fill="none" stroke="#000000" points="8,-182.7 8,-201.7 116,-201.7 116,-182.7 8,-182.7"/>
<text text-anchor="start" x="11" y="-188.8" font-family="Helvetica,sans-Serif" font-size="11.00" fill="#000000">...</text>
<polygon fill="#ffffff" stroke="transparent" points="8,-163.7 8,-182.7 38,-182.7 38,-163.7 8,-163.7"/>
<polygon fill="none" stroke="#000000" points="8,-163.7 8,-182.7 38,-182.7 38,-163.7 8,-163.7"/>
<text text-anchor="start" x="11" y="-169.8" font-family="Helvetica,sans-Serif" font-size="11.00" fill="#000000"> &#160;</text>
<polygon fill="#ffffff" stroke="transparent" points="38,-163.7 38,-182.7 85,-182.7 85,-163.7 38,-163.7"/>
<polygon fill="none" stroke="#000000" points="38,-163.7 38,-182.7 85,-182.7 85,-163.7 38,-163.7"/>
<text text-anchor="start" x="49.6105" y="-169.8" font-family="Helvetica,sans-Serif" font-size="11.00" fill="#000000">0 rows</text>
<polygon fill="#ffffff" stroke="transparent" points="85,-163.7 85,-182.7 116,-182.7 116,-163.7 85,-163.7"/>
<polygon fill="none" stroke="#000000" points="85,-163.7 85,-182.7 116,-182.7 116,-163.7 85,-163.7"/>
<text text-anchor="start" x="97.4053" y="-169.8" font-family="Helvetica,sans-Serif" font-size="11.00" fill="#000000">1 &gt;</text>
</a>
</g>
</g>
<!-- events&#45;&gt;venues -->
<g id="edge3" class="edge">
<title>events:w&#45;&gt;venues:e</title>
<path fill="none" stroke="#000000" d="M153.1568,-176.0877C139.3325,-186.6646 139.1756,-212.7 116,-212.7"/>
<polygon fill="#000000" stroke="#000000" points="159.3739,-174.1172 168.0877,-175.1317 163.1869,-172.9086 167,-171.7 167,-171.7 167,-171.7 163.1869,-172.9086 165.9123,-168.2683 159.3739,-174.1172 159.3739,-174.1172"/>
<ellipse fill="none" stroke="#000000" cx="156.3235" cy="-175.0841" rx="3.2" ry="3.2"/>
</g>
<!-- rsvps -->
<g id="node5" class="node">
<title>rsvps</title>
<g id="a_node5"><a xlink:href="../../tables/rsvps.html" xlink:title="rsvps" target="_top">
<polygon fill="#ffffff" stroke="transparent" points="537.5,-483.2 537.5,-610.2 637.5,-610.2 637.5,-483.2 537.5,-483.2"/>
<polygon fill="#f5f5f5" stroke="transparent" points="537.5,-586.7 537.5,-609.7 637.5,-609.7 637.5,-586.7 537.5,-586.7"/>
<polygon fill="none" stroke="#000000" points="537.5,-586.7 537.5,-609.7 637.5,-609.7 637.5,-586.7 537.5,-586.7"/>
<text text-anchor="start" x="542.5" y="-595.8" font-family="Helvetica,sans-Serif" font-weight="bold" font-size="11.00" fill="#000000">rsvps</text>
<text text-anchor="start" x="602.5437" y="-594.8" font-family="Helvetica,sans-Serif" font-size="11.00" fill="#000000">[table]</text>
<polygon fill="none" stroke="#000000" points="537.5,-564.7 537.5,-586.7 637.5,-586.7 637.5,-564.7 537.5,-564.7"/>
<image xlink:href="../../images/primaryKeys.png" width="11px" height="12px" preserveAspectRatio="xMinYMin meet" x="542.5" y="-581.7"/>
<text text-anchor="start" x="557.5" y="-571.8" font-family="Helvetica,sans-Serif" font-size="11.00" fill="#000000">id</text>
<polygon fill="none" stroke="#000000" points="537.5,-542.7 537.5,-564.7 637.5,-564.7 637.5,-542.7 537.5,-542.7"/>
<image xlink:href="../../images/foreignKeys.png" width="11px" height="12px" preserveAspectRatio="xMinYMin meet" x="542.5" y="-559.7"/>
<text text-anchor="start" x="557.5" y="-549.8" font-family="Helvetica,sans-Serif" font-size="11.00" fill="#000000">event_id</text>
<polygon fill="none" stroke="#000000" points="537.5,-520.7 537.5,-542.7 637.5,-542.7 637.5,-520.7 537.5,-520.7"/>
<image xlink:href="../../images/foreignKeys.png" width="11px" height="12px" preserveAspectRatio="xMinYMin meet" x="542.5" y="-537.7"/>
<text text-anchor="start" x="557.5" y="-527.8" font-family="Helvetica,sans-Serif" font-size="11.00" fill="#000000">user_id</text>
<polygon fill="none" stroke="#000000" points="537.5,-501.7 537.5,-520.7 637.5,-520.7 637.5,-501.7 537.5,-501.7"/>
<text text-anchor="start" x="540.5" y="-507.8" font-family="Helvetica,sans-Serif" font-size="11.00" fill="#000000">...</text>
<polygon fill="#ffffff" stroke="transparent" points="537.5,-482.7 537.5,-501.7 572.5,-501.7 572.5,-482.7 537.5,-482.7"/>
<polygon fill="none" stroke="#000000" points="537.5,-482.7 537.5,-501.7 572.5,-501.7 572.5,-482.7 537.5,-482.7"/>
<text text-anchor="start" x="540.5" y="-488.8" font-family="Helvetica,sans-Serif" font-size="11.00" fill="#000000">&lt; 2</text>
<polygon fill="#ffffff" stroke="transparent" points="572.5,-482.7 572.5,-501.7 617.5,-501.7 617.5,-482.7 572.5,-482.7"/>
<polygon fill="none" stroke="#000000" points="572.5,-482.7 572.5,-501.7 617.5,-501.7 617.5,-482.7 572.5,-482.7"/>
<text text-anchor="start" x="582.1105" y="-488.8" font-family="Helvetica,sans-Serif" font-size="11.00" fill="#000000">0 rows</text>
<polygon fill="#ffffff" stroke="transparent" points="617.5,-482.7 617.5,-501.7 637.5,-501.7 637.5,-482.7 617.5,-482.7"/>
<polygon fill="none" stroke="#000000" points="617.5,-482.7 617.5,-501.7 637.5,-501.7 637.5,-482.7 617.5,-482.7"/>
<text text-anchor="start" x="628.3862" y="-488.8" font-family="Helvetica,sans-Serif" font-size="11.00" fill="#000000"> &#160;</text>
</a>
</g>
</g>
<!-- rsvps&#45;&gt;events -->
<g id="edge4" class="edge">
<title>rsvps:w&#45;&gt;events:e</title>
<path fill="none" stroke="#000000" d="M523.3186,-550.1308C498.7453,-535.349 510.8342,-479.7 473,-479.7"/>
<polygon fill="#000000" stroke="#000000" points="529.7419,-551.7474 536.6213,-557.1911 533.621,-552.7237 537.5,-553.7 537.5,-553.7 537.5,-553.7 533.621,-552.7237 538.3787,-550.2089 529.7419,-551.7474 529.7419,-551.7474"/>
<ellipse fill="none" stroke="#000000" cx="526.6387" cy="-550.9664" rx="3.2" ry="3.2"/>
</g>
<!-- tags -->
<g id="node6" class="node">
<title>tags</title>
<g id="a_node6"><a xlink:href="../../tables/tags.html" xlink:title="tags" target="_top">
<polygon fill="#ffffff" stroke="transparent" points="543.5,-357.2 543.5,-462.2 631.5,-462.2 631.5,-357.2 543.5,-357.2"/>
<polygon fill="#f5f5f5" stroke="transparent" points="543.5,-438.7 543.5,-461.7 631.5,-461.7 631.5,-438.7 543.5,-438.7"/>
<polygon fill="none" stroke="#000000" points="543.5,-438.7 543.5,-461.7 631.5,-461.7 631.5,-438.7 543.5,-438.7"/>
<text text-anchor="start" x="548.5" y="-447.8" font-family="Helvetica,sans-Serif" font-weight="bold" font-size="11.00" fill="#000000">tags</text>
<text text-anchor="start" x="596.5437" y="-446.8" font-family="Helvetica,sans-Serif" font-size="11.00" fill="#000000">[table]</text>
<polygon fill="none" stroke="#000000" points="543.5,-416.7 543.5,-438.7 631.5,-438.7 631.5,-416.7 543.5,-416.7"/>
<image xlink:href="../../images/primaryKeys.png" width="11px" height="12px" preserveAspectRatio="xMinYMin meet" x="548.5" y="-433.7"/>
<text text-anchor="start" x="563.5" y="-423.8" font-family="Helvetica,sans-Serif" font-size="11.00" fill="#000000">id</text>
<polygon fill="none" stroke="#000000" points="543.5,-394.7 543.5,-416.7 631.5,-416.7 631.5,-394.7 543.5,-394.7"/>
<image xlink:href="../../images/foreignKeys.png" width="11px" height="12px" preserveAspectRatio="xMinYMin meet" x="548.5" y="-411.7"/>
<text text-anchor="start" x="563.5" y="-401.8" font-family="Helvetica,sans-Serif" font-size="11.00" fill="#000000">event_id</text>
<polygon fill="none" stroke="#000000" points="543.5,-375.7 543.5,-394.7 631.5,-394.7 631.5,-375.7 543.5,-375.7"/>
<text text-anchor="start" x="546.5" y="-381.8" font-family="Helvetica,sans-Serif" font-size="11.00" fill="#000000">...</text>
<polygon fill="#ffffff" stroke="transparent" points="543.5,-356.7 543.5,-375.7 572.5,-375.7 572.5,-356.7 543.5,-356.7"/>
<polygon fill="none" stroke="#000000" points="543.5,-356.7 543.5,-375.7 572.5,-375.7 572.5,-356.7 543.5,-356.7"/>
<text text-anchor="start" x="546.5" y="-362.8" font-family="Helvetica,sans-Serif" font-size="11.00" fill="#000000">&lt; 1</text>
<polygon fill="#ffffff" stroke="transparent" points="572.5,-356.7 572.5,-375.7 614.5,-375.7 614.5,-356.7 572.5,-356.7"/>
<polygon fill="none" stroke="#000000" points="572.5,-356.7 572.5,-375.7 614.5,-375.7 614.5,-356.7 572.5,-356.7"/>
<text text-anchor="start" x="579.1105" y="-362.8" font-family="Helvetica,sans-Serif" font-size="11.00" fill="#000000">0 rows</text>
<polygon fill="#ffffff" stroke="transparent" points="614.5,-356.7 614.5,-375.7 631.5,-375.7 631.5,-356.7 614.5,-356.7"/>
<polygon fill="none" stroke="#000000" points="614.5,-356.7 614.5,-375.7 631.5,-375.7 631.5,-356.7 614.5,-356.7"/>
<text text-anchor="start" x="622.3862" y="-362.8" font-family="Helvetica,sans-Serif" font-size="11.00" fill="#000000"> &#160;</text>
</a>
</g>
</g>
<!-- tags&#45;&gt;events -->
<g id="edge5" class="edge">
<title>tags:w&#45;&gt;events:e</title>
<path fill="none" stroke="#000000" d="M529.2918,-408.8797C502.1346,-423.0438 512.7471,-479.7 473,-479.7"/>
<polygon fill="#000000" stroke="#000000" points="535.6931,-407.4472 544.2862,-409.2131 539.5966,-406.5736 543.5,-405.7 543.5,-405.7 543.5,-405.7 539.5966,-406.5736 542.7138,-402.1869 535.6931,-407.4472 535.6931,-407.4472"/>
<ellipse fill="none" stroke="#000000" cx="532.5704" cy="-408.146" rx="3.2" ry="3.2"/>
</g>
<!-- user_event_roles -->
<g id="node7" class="node">
<title>user_event_roles</title>
<g id="a_node7"><a xlink:href="../../tables/user_event_roles.html" xlink:title="user_event_roles" target="_top">
<polygon fill="#ffffff" stroke="transparent" points="524,-187.2 524,-336.2 651,-336.2 651,-187.2 524,-187.2"/>
<polygon fill="#f5f5f5" stroke="transparent" points="524.5,-312.7 524.5,-335.7 651.5,-335.7 651.5,-312.7 524.5,-312.7"/>
<polygon fill="none" stroke="#000000" points="524.5,-312.7 524.5,-335.7 651.5,-335.7 651.5,-312.7 524.5,-312.7"/>
<text text-anchor="start" x="529.3222" y="-321.8" font-family="Helvetica,sans-Serif" font-weight="bold" font-size="11.00" fill="#000000">user_event_roles</text>
<text text-anchor="start" x="617.0219" y="-320.8" font-family="Helvetica,sans-Serif" font-size="11.00" fill="#000000">[table]</text>
<polygon fill="none" stroke="#000000" points="524.5,-290.7 524.5,-312.7 651.5,-312.7 651.5,-290.7 524.5,-290.7"/>
<image xlink:href="../../images/primaryKeys.png" width="11px" height="12px" preserveAspectRatio="xMinYMin meet" x="529.5" y="-307.7"/>
<text text-anchor="start" x="548.5" y="-297.8" font-family="Helvetica,sans-Serif" font-size="11.00" fill="#000000">id</text>
<polygon fill="none" stroke="#000000" points="524.5,-268.7 524.5,-290.7 651.5,-290.7 651.5,-268.7 524.5,-268.7"/>
<image xlink:href="../../images/primaryKeys.png" width="11px" height="12px" preserveAspectRatio="xMinYMin meet" x="529.5" y="-285.7"/>
<text text-anchor="start" x="548.5" y="-275.8" font-family="Helvetica,sans-Serif" font-size="11.00" fill="#000000">user_id</text>
<polygon fill="none" stroke="#000000" points="524.5,-246.7 524.5,-268.7 651.5,-268.7 651.5,-246.7 524.5,-246.7"/>
<image xlink:href="../../images/primaryKeys.png" width="11px" height="12px" preserveAspectRatio="xMinYMin meet" x="529.5" y="-263.7"/>
<text text-anchor="start" x="548.5" y="-253.8" font-family="Helvetica,sans-Serif" font-size="11.00" fill="#000000">event_id</text>
<polygon fill="none" stroke="#000000" points="524.5,-224.7 524.5,-246.7 651.5,-246.7 651.5,-224.7 524.5,-224.7"/>
<image xlink:href="../../images/primaryKeys.png" width="11px" height="12px" preserveAspectRatio="xMinYMin meet" x="529.5" y="-241.7"/>
<text text-anchor="start" x="548.5" y="-231.8" font-family="Helvetica,sans-Serif" font-size="11.00" fill="#000000">role_name</text>
<polygon fill="none" stroke="#000000" points="524.5,-205.7 524.5,-224.7 651.5,-224.7 651.5,-205.7 524.5,-205.7"/>
<text text-anchor="start" x="527.5" y="-211.8" font-family="Helvetica,sans-Serif" font-size="11.00" fill="#000000">...</text>
<polygon fill="#ffffff" stroke="transparent" points="524.5,-186.7 524.5,-205.7 573.5,-205.7 573.5,-186.7 524.5,-186.7"/>
<polygon fill="none" stroke="#000000" points="524.5,-186.7 524.5,-205.7 573.5,-205.7 573.5,-186.7 524.5,-186.7"/>
<text text-anchor="start" x="527.5" y="-192.8" font-family="Helvetica,sans-Serif" font-size="11.00" fill="#000000">&lt; 2</text>
<polygon fill="#ffffff" stroke="transparent" points="573.5,-186.7 573.5,-205.7 625.5,-205.7 625.5,-186.7 573.5,-186.7"/>
<polygon fill="none" stroke="#000000" points="573.5,-186.7 573.5,-205.7 625.5,-205.7 625.5,-186.7 573.5,-186.7"/>
<text text-anchor="start" x="590.1105" y="-192.8" font-family="Helvetica,sans-Serif" font-size="11.00" fill="#000000">0 rows</text>
<polygon fill="#ffffff" stroke="transparent" points="625.5,-186.7 625.5,-205.7 651.5,-205.7 651.5,-186.7 625.5,-186.7"/>
<polygon fill="none" stroke="#000000" points="625.5,-186.7 625.5,-205.7 651.5,-205.7 651.5,-186.7 625.5,-186.7"/>
<text text-anchor="start" x="642.3862" y="-192.8" font-family="Helvetica,sans-Serif" font-size="11.00" fill="#000000"> &#160;</text>
</a>
</g>
</g>
<!-- user_event_roles&#45;&gt;events -->
<g id="edge6" class="edge">
<title>user_event_roles:w&#45;&gt;events:e</title>
<path fill="none" stroke="#000000" d="M510.0643,-259.6192C438.9821,-281.3173 568.7477,-479.7 473,-479.7"/>
<polygon fill="#000000" stroke="#000000" points="516.5698,-258.7544 524.9745,-261.2686 520.5349,-258.2272 524.5,-257.7 524.5,-257.7 524.5,-257.7 520.5349,-258.2272 524.0255,-254.1314 516.5698,-258.7544 516.5698,-258.7544"/>
<ellipse fill="none" stroke="#000000" cx="513.3977" cy="-259.1761" rx="3.2" ry="3.2"/>
</g>
</g>
</svg>
