<?xml version="1.0" encoding="UTF-8" standalone="no"?>
<!DOCTYPE svg PUBLIC "-//W3C//DTD SVG 1.1//EN"
 "http://www.w3.org/Graphics/SVG/1.1/DTD/svg11.dtd">
<!-- Generated by graphviz version 2.40.1 (20161225.0304)
 -->
<!-- Title: twoDegreesRelationshipsDiagram Pages: 1 -->
<svg width="791pt" height="781pt"
 viewBox="0.00 0.00 791.00 781.44" xmlns="http://www.w3.org/2000/svg" xmlns:xlink="http://www.w3.org/1999/xlink">
<g id="graph0" class="graph" transform="scale(1 1) rotate(0) translate(4 777.4402)">
<title>twoDegreesRelationshipsDiagram</title>
<polygon fill="#ffffff" stroke="transparent" points="-4,4 -4,-777.4402 787,-777.4402 787,4 -4,4"/>
<text text-anchor="middle" x="72.4936" y="-7.3" font-family="Helvetica,sans-Serif" font-size="11.00" fill="#000000">Generated by SchemaSpy</text>
<!-- chapters -->
<g id="node1" class="node">
<title>chapters</title>
<g id="a_node1"><a xlink:href="../../tables/chapters.html" xlink:title="chapters" target="_top">
<polygon fill="#ffffff" stroke="transparent" points="138,-206.4402 138,-311.4402 235,-311.4402 235,-206.4402 138,-206.4402"/>
<polygon fill="#f5f5f5" stroke="transparent" points="138.5,-287.9402 138.5,-310.9402 235.5,-310.9402 235.5,-287.9402 138.5,-287.9402"/>
<polygon fill="none" stroke="#000000" points="138.5,-287.9402 138.5,-310.9402 235.5,-310.9402 235.5,-287.9402 138.5,-287.9402"/>
<text text-anchor="start" x="143.5" y="-297.0402" font-family="Helvetica,sans-Serif" font-weight="bold" font-size="11.00" fill="#000000">chapters</text>
<text text-anchor="start" x="200.5437" y="-296.0402" font-family="Helvetica,sans-Serif" font-size="11.00" fill="#000000">[table]</text>
<polygon fill="none" stroke="#000000" points="138.5,-265.9402 138.5,-287.9402 235.5,-287.9402 235.5,-265.9402 138.5,-265.9402"/>
<image xlink:href="../../images/primaryKeys.png" width="11px" height="12px" preserveAspectRatio="xMinYMin meet" x="143.5" y="-282.94"/>
<text text-anchor="start" x="158.5" y="-273.0402" font-family="Helvetica,sans-Serif" font-size="11.00" fill="#000000">id</text>
<polygon fill="none" stroke="#000000" points="138.5,-243.9402 138.5,-265.9402 235.5,-265.9402 235.5,-243.9402 138.5,-243.9402"/>
<image xlink:href="../../images/foreignKeys.png" width="11px" height="12px" preserveAspectRatio="xMinYMin meet" x="143.5" y="-260.94"/>
<text text-anchor="start" x="158.5" y="-251.0402" font-family="Helvetica,sans-Serif" font-size="11.00" fill="#000000">creator_id</text>
<polygon fill="none" stroke="#000000" points="138.5,-224.9402 138.5,-243.9402 235.5,-243.9402 235.5,-224.9402 138.5,-224.9402"/>
<text text-anchor="start" x="141.5" y="-231.0402" font-family="Helvetica,sans-Serif" font-size="11.00" fill="#000000">...</text>
<polygon fill="#ffffff" stroke="transparent" points="138.5,-205.9402 138.5,-224.9402 167.5,-224.9402 167.5,-205.9402 138.5,-205.9402"/>
<polygon fill="none" stroke="#000000" points="138.5,-205.9402 138.5,-224.9402 167.5,-224.9402 167.5,-205.9402 138.5,-205.9402"/>
<text text-anchor="start" x="141.5" y="-212.0402" font-family="Helvetica,sans-Serif" font-size="11.00" fill="#000000">&lt; 1</text>
<polygon fill="#ffffff" stroke="transparent" points="167.5,-205.9402 167.5,-224.9402 209.5,-224.9402 209.5,-205.9402 167.5,-205.9402"/>
<polygon fill="none" stroke="#000000" points="167.5,-205.9402 167.5,-224.9402 209.5,-224.9402 209.5,-205.9402 167.5,-205.9402"/>
<text text-anchor="start" x="174.1105" y="-212.0402" font-family="Helvetica,sans-Serif" font-size="11.00" fill="#000000">4 rows</text>
<polygon fill="#ffffff" stroke="transparent" points="209.5,-205.9402 209.5,-224.9402 235.5,-224.9402 235.5,-205.9402 209.5,-205.9402"/>
<polygon fill="none" stroke="#000000" points="209.5,-205.9402 209.5,-224.9402 235.5,-224.9402 235.5,-205.9402 209.5,-205.9402"/>
<text text-anchor="start" x="216.9053" y="-212.0402" font-family="Helvetica,sans-Serif" font-size="11.00" fill="#000000">4 &gt;</text>
</a>
</g>
</g>
<!-- users -->
<g id="node2" class="node">
<title>users</title>
<g id="a_node2"><a xlink:href="../../tables/users.html" xlink:title="users" target="_top">
<polygon fill="#ffffff" stroke="transparent" points="8,-154.4402 8,-215.4402 77,-215.4402 77,-154.4402 8,-154.4402"/>
<polygon fill="#f5f5f5" stroke="transparent" points="8.5,-191.9402 8.5,-214.9402 77.5,-214.9402 77.5,-191.9402 8.5,-191.9402"/>
<polygon fill="none" stroke="#000000" points="8.5,-191.9402 8.5,-214.9402 77.5,-214.9402 77.5,-191.9402 8.5,-191.9402"/>
<text text-anchor="start" x="13.0542" y="-201.0402" font-family="Helvetica,sans-Serif" font-weight="bold" font-size="11.00" fill="#000000">users</text>
<text text-anchor="start" x="43.0219" y="-200.0402" font-family="Helvetica,sans-Serif" font-size="11.00" fill="#000000">[table]</text>
<polygon fill="none" stroke="#000000" points="8.5,-172.9402 8.5,-191.9402 77.5,-191.9402 77.5,-172.9402 8.5,-172.9402"/>
<text text-anchor="start" x="11.5" y="-179.0402" font-family="Helvetica,sans-Serif" font-size="11.00" fill="#000000">...</text>
<polygon fill="#ffffff" stroke="transparent" points="8.5,-153.9402 8.5,-172.9402 22.5,-172.9402 22.5,-153.9402 8.5,-153.9402"/>
<polygon fill="none" stroke="#000000" points="8.5,-153.9402 8.5,-172.9402 22.5,-172.9402 22.5,-153.9402 8.5,-153.9402"/>
<text text-anchor="start" x="11.5" y="-160.0402" font-family="Helvetica,sans-Serif" font-size="11.00" fill="#000000"> &#160;</text>
<polygon fill="#ffffff" stroke="transparent" points="22.5,-153.9402 22.5,-172.9402 55.5,-172.9402 55.5,-153.9402 22.5,-153.9402"/>
<polygon fill="none" stroke="#000000" points="22.5,-153.9402 22.5,-172.9402 55.5,-172.9402 55.5,-153.9402 22.5,-153.9402"/>
<text text-anchor="start" x="25.6105" y="-160.0402" font-family="Helvetica,sans-Serif" font-size="11.00" fill="#000000">1 row</text>
<polygon fill="#ffffff" stroke="transparent" points="55.5,-153.9402 55.5,-172.9402 77.5,-172.9402 77.5,-153.9402 55.5,-153.9402"/>
<polygon fill="none" stroke="#000000" points="55.5,-153.9402 55.5,-172.9402 77.5,-172.9402 77.5,-153.9402 55.5,-153.9402"/>
<text text-anchor="start" x="58.9053" y="-160.0402" font-family="Helvetica,sans-Serif" font-size="11.00" fill="#000000">6 &gt;</text>
</a>
</g>
</g>
<!-- chapters&#45;&gt;users -->
<g id="edge1" class="edge">
<title>chapters:w&#45;&gt;users:e</title>
<path fill="none" stroke="#000000" d="M124.514,-251.2198C101.4312,-236.3438 114.0001,-181.9402 77.5,-181.9402"/>
<polygon fill="#000000" stroke="#000000" points="130.7689,-252.8836 137.5745,-258.4192 134.6344,-253.9119 138.5,-254.9402 138.5,-254.9402 138.5,-254.9402 134.6344,-253.9119 139.4255,-251.4612 130.7689,-252.8836 130.7689,-252.8836"/>
<ellipse fill="none" stroke="#000000" cx="127.6764" cy="-252.061" rx="3.2" ry="3.2"/>
</g>
<!-- event_sponsors -->
<g id="node3" class="node">
<title>event_sponsors</title>
<g id="a_node3"><a xlink:href="../../tables/event_sponsors.html" xlink:title="event_sponsors" target="_top">
<polygon fill="#ffffff" stroke="transparent" points="649,-583.4402 649,-710.4402 775,-710.4402 775,-583.4402 649,-583.4402"/>
<polygon fill="#f5f5f5" stroke="transparent" points="649,-686.9402 649,-709.9402 775,-709.9402 775,-686.9402 649,-686.9402"/>
<polygon fill="none" stroke="#000000" points="649,-686.9402 649,-709.9402 775,-709.9402 775,-686.9402 649,-686.9402"/>
<text text-anchor="start" x="654" y="-696.0402" font-family="Helvetica,sans-Serif" font-weight="bold" font-size="11.00" fill="#000000">event_sponsors</text>
<text text-anchor="start" x="740.0437" y="-695.0402" font-family="Helvetica,sans-Serif" font-size="11.00" fill="#000000">[table]</text>
<polygon fill="none" stroke="#000000" points="649,-664.9402 649,-686.9402 775,-686.9402 775,-664.9402 649,-664.9402"/>
<image xlink:href="../../images/primaryKeys.png" width="11px" height="12px" preserveAspectRatio="xMinYMin meet" x="654" y="-681.94"/>
<text text-anchor="start" x="669" y="-672.0402" font-family="Helvetica,sans-Serif" font-size="11.00" fill="#000000">id</text>
<polygon fill="none" stroke="#000000" points="649,-642.9402 649,-664.9402 775,-664.9402 775,-642.9402 649,-642.9402"/>
<image xlink:href="../../images/foreignKeys.png" width="11px" height="12px" preserveAspectRatio="xMinYMin meet" x="654" y="-659.94"/>
<text text-anchor="start" x="669" y="-650.0402" font-family="Helvetica,sans-Serif" font-size="11.00" fill="#000000">sponsor_id</text>
<polygon fill="none" stroke="#000000" points="649,-620.9402 649,-642.9402 775,-642.9402 775,-620.9402 649,-620.9402"/>
<image xlink:href="../../images/foreignKeys.png" width="11px" height="12px" preserveAspectRatio="xMinYMin meet" x="654" y="-637.94"/>
<text text-anchor="start" x="669" y="-628.0402" font-family="Helvetica,sans-Serif" font-size="11.00" fill="#000000">event_id</text>
<polygon fill="none" stroke="#000000" points="649,-601.9402 649,-620.9402 775,-620.9402 775,-601.9402 649,-601.9402"/>
<text text-anchor="start" x="652" y="-608.0402" font-family="Helvetica,sans-Serif" font-size="11.00" fill="#000000">...</text>
<polygon fill="#ffffff" stroke="transparent" points="649,-582.9402 649,-601.9402 697,-601.9402 697,-582.9402 649,-582.9402"/>
<polygon fill="none" stroke="#000000" points="649,-582.9402 649,-601.9402 697,-601.9402 697,-582.9402 649,-582.9402"/>
<text text-anchor="start" x="652" y="-589.0402" font-family="Helvetica,sans-Serif" font-size="11.00" fill="#000000">&lt; 2</text>
<polygon fill="#ffffff" stroke="transparent" points="697,-582.9402 697,-601.9402 749,-601.9402 749,-582.9402 697,-582.9402"/>
<polygon fill="none" stroke="#000000" points="697,-582.9402 697,-601.9402 749,-601.9402 749,-582.9402 697,-582.9402"/>
<text text-anchor="start" x="713.6105" y="-589.0402" font-family="Helvetica,sans-Serif" font-size="11.00" fill="#000000">8 rows</text>
<polygon fill="#ffffff" stroke="transparent" points="749,-582.9402 749,-601.9402 775,-601.9402 775,-582.9402 749,-582.9402"/>
<polygon fill="none" stroke="#000000" points="749,-582.9402 749,-601.9402 775,-601.9402 775,-582.9402 749,-582.9402"/>
<text text-anchor="start" x="765.8862" y="-589.0402" font-family="Helvetica,sans-Serif" font-size="11.00" fill="#000000"> &#160;</text>
</a>
</g>
</g>
<!-- events -->
<g id="node4" class="node">
<title>events</title>
<g id="a_node4"><a xlink:href="../../tables/events.html" xlink:title="events" target="_top">
<polygon fill="#ffffff" stroke="transparent" points="296,-250.9402 296,-604.9402 600,-604.9402 600,-250.9402 296,-250.9402"/>
<polygon fill="#f5f5f5" stroke="transparent" points="298,-579.9402 298,-602.9402 598,-602.9402 598,-579.9402 298,-579.9402"/>
<polygon fill="none" stroke="#000000" points="298,-579.9402 298,-602.9402 598,-602.9402 598,-579.9402 298,-579.9402"/>
<text text-anchor="start" x="303" y="-589.0402" font-family="Helvetica,sans-Serif" font-weight="bold" font-size="11.00" fill="#000000">events</text>
<text text-anchor="start" x="563.0437" y="-588.0402" font-family="Helvetica,sans-Serif" font-size="11.00" fill="#000000">[table]</text>
<polygon fill="none" stroke="#000000" points="298,-557.9402 298,-579.9402 396,-579.9402 396,-557.9402 298,-557.9402"/>
<image xlink:href="../../images/primaryKeys.png" width="11px" height="12px" preserveAspectRatio="xMinYMin meet" x="303" y="-574.94"/>
<text text-anchor="start" x="318" y="-565.0402" font-family="Helvetica,sans-Serif" font-size="11.00" fill="#000000">id</text>
<polygon fill="none" stroke="#000000" points="396,-557.9402 396,-579.9402 598,-579.9402 598,-557.9402 396,-557.9402"/>
<text text-anchor="start" x="399" y="-565.6402" font-family="Helvetica,sans-Serif" font-size="11.00" fill="#000000">serial[10]</text>
<polygon fill="none" stroke="#000000" points="298,-535.9402 298,-557.9402 396,-557.9402 396,-535.9402 298,-535.9402"/>
<text text-anchor="start" x="318" y="-543.0402" font-family="Helvetica,sans-Serif" font-size="11.00" fill="#000000">name</text>
<polygon fill="none" stroke="#000000" points="396,-535.9402 396,-557.9402 598,-557.9402 598,-535.9402 396,-535.9402"/>
<text text-anchor="start" x="399" y="-543.6402" font-family="Helvetica,sans-Serif" font-size="11.00" fill="#000000">varchar[2147483647]</text>
<polygon fill="none" stroke="#000000" points="298,-513.9402 298,-535.9402 396,-535.9402 396,-513.9402 298,-513.9402"/>
<text text-anchor="start" x="318" y="-521.0402" font-family="Helvetica,sans-Serif" font-size="11.00" fill="#000000">description</text>
<polygon fill="none" stroke="#000000" points="396,-513.9402 396,-535.9402 598,-535.9402 598,-513.9402 396,-513.9402"/>
<text text-anchor="start" x="399" y="-521.6402" font-family="Helvetica,sans-Serif" font-size="11.00" fill="#000000">varchar[2147483647]</text>
<polygon fill="none" stroke="#000000" points="298,-491.9402 298,-513.9402 396,-513.9402 396,-491.9402 298,-491.9402"/>
<text text-anchor="start" x="318" y="-499.0402" font-family="Helvetica,sans-Serif" font-size="11.00" fill="#000000">start_at</text>
<polygon fill="none" stroke="#000000" points="396,-491.9402 396,-513.9402 598,-513.9402 598,-491.9402 396,-491.9402"/>
<text text-anchor="start" x="399" y="-499.6402" font-family="Helvetica,sans-Serif" font-size="11.00" fill="#000000">timestamp[29,6]</text>
<polygon fill="none" stroke="#000000" points="298,-469.9402 298,-491.9402 396,-491.9402 396,-469.9402 298,-469.9402"/>
<text text-anchor="start" x="318" y="-477.0402" font-family="Helvetica,sans-Serif" font-size="11.00" fill="#000000">ends_at</text>
<polygon fill="none" stroke="#000000" points="396,-469.9402 396,-491.9402 598,-491.9402 598,-469.9402 396,-469.9402"/>
<text text-anchor="start" x="399" y="-477.6402" font-family="Helvetica,sans-Serif" font-size="11.00" fill="#000000">timestamp[29,6]</text>
<polygon fill="none" stroke="#000000" points="298,-447.9402 298,-469.9402 396,-469.9402 396,-447.9402 298,-447.9402"/>
<text text-anchor="start" x="318" y="-455.0402" font-family="Helvetica,sans-Serif" font-size="11.00" fill="#000000">canceled</text>
<polygon fill="none" stroke="#000000" points="396,-447.9402 396,-469.9402 598,-469.9402 598,-447.9402 396,-447.9402"/>
<text text-anchor="start" x="399" y="-455.6402" font-family="Helvetica,sans-Serif" font-size="11.00" fill="#000000">bool[1]</text>
<polygon fill="none" stroke="#000000" points="298,-425.9402 298,-447.9402 396,-447.9402 396,-425.9402 298,-425.9402"/>
<text text-anchor="start" x="318" y="-433.0402" font-family="Helvetica,sans-Serif" font-size="11.00" fill="#000000">capacity</text>
<polygon fill="none" stroke="#000000" points="396,-425.9402 396,-447.9402 598,-447.9402 598,-425.9402 396,-425.9402"/>
<text text-anchor="start" x="399" y="-433.6402" font-family="Helvetica,sans-Serif" font-size="11.00" fill="#000000">int4[10]</text>
<polygon fill="none" stroke="#000000" points="298,-403.9402 298,-425.9402 396,-425.9402 396,-403.9402 298,-403.9402"/>
<image xlink:href="../../images/foreignKeys.png" width="11px" height="12px" preserveAspectRatio="xMinYMin meet" x="303" y="-420.94"/>
<text text-anchor="start" x="318" y="-411.0402" font-family="Helvetica,sans-Serif" font-size="11.00" fill="#000000">venue_id</text>
<polygon fill="none" stroke="#000000" points="396,-403.9402 396,-425.9402 598,-425.9402 598,-403.9402 396,-403.9402"/>
<text text-anchor="start" x="399" y="-411.6402" font-family="Helvetica,sans-Serif" font-size="11.00" fill="#000000">int4[10]</text>
<polygon fill="none" stroke="#000000" points="298,-381.9402 298,-403.9402 396,-403.9402 396,-381.9402 298,-381.9402"/>
<image xlink:href="../../images/foreignKeys.png" width="11px" height="12px" preserveAspectRatio="xMinYMin meet" x="303" y="-398.94"/>
<text text-anchor="start" x="318" y="-389.0402" font-family="Helvetica,sans-Serif" font-size="11.00" fill="#000000">chapter_id</text>
<polygon fill="none" stroke="#000000" points="396,-381.9402 396,-403.9402 598,-403.9402 598,-381.9402 396,-381.9402"/>
<text text-anchor="start" x="399" y="-389.6402" font-family="Helvetica,sans-Serif" font-size="11.00" fill="#000000">int4[10]</text>
<polygon fill="none" stroke="#000000" points="298,-359.9402 298,-381.9402 396,-381.9402 396,-359.9402 298,-359.9402"/>
<text text-anchor="start" x="318" y="-367.0402" font-family="Helvetica,sans-Serif" font-size="11.00" fill="#000000">created_at</text>
<polygon fill="none" stroke="#000000" points="396,-359.9402 396,-381.9402 598,-381.9402 598,-359.9402 396,-359.9402"/>
<text text-anchor="start" x="399" y="-367.6402" font-family="Helvetica,sans-Serif" font-size="11.00" fill="#000000">timestamp[29,6]</text>
<polygon fill="none" stroke="#000000" points="298,-337.9402 298,-359.9402 396,-359.9402 396,-337.9402 298,-337.9402"/>
<text text-anchor="start" x="318" y="-345.0402" font-family="Helvetica,sans-Serif" font-size="11.00" fill="#000000">updated_at</text>
<polygon fill="none" stroke="#000000" points="396,-337.9402 396,-359.9402 598,-359.9402 598,-337.9402 396,-337.9402"/>
<text text-anchor="start" x="399" y="-345.6402" font-family="Helvetica,sans-Serif" font-size="11.00" fill="#000000">timestamp[29,6]</text>
<polygon fill="none" stroke="#000000" points="298,-315.9402 298,-337.9402 396,-337.9402 396,-315.9402 298,-315.9402"/>
<text text-anchor="start" x="318" y="-323.0402" font-family="Helvetica,sans-Serif" font-size="11.00" fill="#000000">url</text>
<polygon fill="none" stroke="#000000" points="396,-315.9402 396,-337.9402 598,-337.9402 598,-315.9402 396,-315.9402"/>
<text text-anchor="start" x="399" y="-323.6402" font-family="Helvetica,sans-Serif" font-size="11.00" fill="#000000">varchar[2147483647]</text>
<polygon fill="none" stroke="#000000" points="298,-293.9402 298,-315.9402 396,-315.9402 396,-293.9402 298,-293.9402"/>
<text text-anchor="start" x="318" y="-301.0402" font-family="Helvetica,sans-Serif" font-size="11.00" fill="#000000">video_url</text>
<polygon fill="none" stroke="#000000" points="396,-293.9402 396,-315.9402 598,-315.9402 598,-293.9402 396,-293.9402"/>
<text text-anchor="start" x="399" y="-301.6402" font-family="Helvetica,sans-Serif" font-size="11.00" fill="#000000">varchar[2147483647]</text>
<polygon fill="none" stroke="#000000" points="298,-271.9402 298,-293.9402 396,-293.9402 396,-271.9402 298,-271.9402"/>
<text text-anchor="start" x="318" y="-279.0402" font-family="Helvetica,sans-Serif" font-size="11.00" fill="#000000">venue_type</text>
<polygon fill="none" stroke="#000000" points="396,-271.9402 396,-293.9402 598,-293.9402 598,-271.9402 396,-271.9402"/>
<text text-anchor="start" x="398.869" y="-279.6402" font-family="Helvetica,sans-Serif" font-size="11.00" fill="#000000">events_venue_type_enum[2147483647]</text>
<polygon fill="#ffffff" stroke="transparent" points="298,-252.9402 298,-271.9402 338,-271.9402 338,-252.9402 298,-252.9402"/>
<polygon fill="none" stroke="#000000" points="298,-252.9402 298,-271.9402 338,-271.9402 338,-252.9402 298,-252.9402"/>
<text text-anchor="start" x="301" y="-259.0402" font-family="Helvetica,sans-Serif" font-size="11.00" fill="#000000">&lt; 2</text>
<polygon fill="#ffffff" stroke="transparent" points="338,-252.9402 338,-271.9402 396,-271.9402 396,-252.9402 338,-252.9402"/>
<polygon fill="none" stroke="#000000" points="338,-252.9402 338,-271.9402 396,-271.9402 396,-252.9402 338,-252.9402"/>
<text text-anchor="start" x="360.6105" y="-259.0402" font-family="Helvetica,sans-Serif" font-size="11.00" fill="#000000">4 rows</text>
<polygon fill="#ffffff" stroke="transparent" points="396,-252.9402 396,-271.9402 598,-271.9402 598,-252.9402 396,-252.9402"/>
<polygon fill="none" stroke="#000000" points="396,-252.9402 396,-271.9402 598,-271.9402 598,-252.9402 396,-252.9402"/>
<text text-anchor="start" x="579.4053" y="-259.0402" font-family="Helvetica,sans-Serif" font-size="11.00" fill="#000000">3 &gt;</text>
<polygon fill="none" stroke="#000000" stroke-width="2" points="297,-251.9402 297,-603.9402 599,-603.9402 599,-251.9402 297,-251.9402"/>
</a>
</g>
</g>
<!-- event_sponsors&#45;&gt;events -->
<g id="edge2" class="edge">
<title>event_sponsors:w&#45;&gt;events:e</title>
<path fill="none" stroke="#000000" d="M634.9033,-626.9967C618.525,-612.145 627.8329,-568.9402 598,-568.9402"/>
<polygon fill="#000000" stroke="#000000" points="641.4507,-629.2928 647.8087,-635.3374 645.2254,-630.6165 649,-631.9402 649,-631.9402 649,-631.9402 645.2254,-630.6165 650.1913,-628.543 641.4507,-629.2928 641.4507,-629.2928"/>
<ellipse fill="none" stroke="#000000" cx="638.431" cy="-628.2338" rx="3.2" ry="3.2"/>
</g>
<!-- sponsors -->
<g id="node5" class="node">
<title>sponsors</title>
<g id="a_node5"><a xlink:href="../../tables/sponsors.html" xlink:title="sponsors" target="_top">
<polygon fill="#ffffff" stroke="transparent" points="404.5,-626.4402 404.5,-687.4402 491.5,-687.4402 491.5,-626.4402 404.5,-626.4402"/>
<polygon fill="#f5f5f5" stroke="transparent" points="405,-663.9402 405,-686.9402 492,-686.9402 492,-663.9402 405,-663.9402"/>
<polygon fill="none" stroke="#000000" points="405,-663.9402 405,-686.9402 492,-686.9402 492,-663.9402 405,-663.9402"/>
<text text-anchor="start" x="409.6893" y="-673.0402" font-family="Helvetica,sans-Serif" font-weight="bold" font-size="11.00" fill="#000000">sponsors</text>
<text text-anchor="start" x="457.5219" y="-672.0402" font-family="Helvetica,sans-Serif" font-size="11.00" fill="#000000">[table]</text>
<polygon fill="none" stroke="#000000" points="405,-644.9402 405,-663.9402 492,-663.9402 492,-644.9402 405,-644.9402"/>
<text text-anchor="start" x="408" y="-651.0402" font-family="Helvetica,sans-Serif" font-size="11.00" fill="#000000">...</text>
<polygon fill="#ffffff" stroke="transparent" points="405,-625.9402 405,-644.9402 425,-644.9402 425,-625.9402 405,-625.9402"/>
<polygon fill="none" stroke="#000000" points="405,-625.9402 405,-644.9402 425,-644.9402 425,-625.9402 405,-625.9402"/>
<text text-anchor="start" x="408" y="-632.0402" font-family="Helvetica,sans-Serif" font-size="11.00" fill="#000000"> &#160;</text>
<polygon fill="#ffffff" stroke="transparent" points="425,-625.9402 425,-644.9402 467,-644.9402 467,-625.9402 425,-625.9402"/>
<polygon fill="none" stroke="#000000" points="425,-625.9402 425,-644.9402 467,-644.9402 467,-625.9402 425,-625.9402"/>
<text text-anchor="start" x="431.6105" y="-632.0402" font-family="Helvetica,sans-Serif" font-size="11.00" fill="#000000">4 rows</text>
<polygon fill="#ffffff" stroke="transparent" points="467,-625.9402 467,-644.9402 492,-644.9402 492,-625.9402 467,-625.9402"/>
<polygon fill="none" stroke="#000000" points="467,-625.9402 467,-644.9402 492,-644.9402 492,-625.9402 467,-625.9402"/>
<text text-anchor="start" x="473.4053" y="-632.0402" font-family="Helvetica,sans-Serif" font-size="11.00" fill="#000000">1 &gt;</text>
</a>
</g>
</g>
<!-- event_sponsors&#45;&gt;sponsors -->
<g id="edge3" class="edge">
<title>event_sponsors:w&#45;&gt;sponsors:e</title>
<path fill="none" stroke="#000000" d="M634.2856,-653.9402C576.3445,-653.9402 556.599,-653.9402 492,-653.9402"/>
<polygon fill="#000000" stroke="#000000" points="641,-653.9403 649,-657.5402 645,-653.9402 649,-653.9402 649,-653.9402 649,-653.9402 645,-653.9402 649,-650.3402 641,-653.9403 641,-653.9403"/>
<ellipse fill="none" stroke="#000000" cx="637.8" cy="-653.9403" rx="3.2" ry="3.2"/>
</g>
<!-- events&#45;&gt;chapters -->
<g id="edge4" class="edge">
<title>events:w&#45;&gt;chapters:e</title>
<path fill="none" stroke="#000000" d="M283.8705,-389.8375C249.0269,-371.3902 288.3436,-276.9402 235.5,-276.9402"/>
<polygon fill="#000000" stroke="#000000" points="290.1862,-391.2243 297.2278,-396.4564 294.0931,-392.0823 298,-392.9402 298,-392.9402 298,-392.9402 294.0931,-392.0823 298.7722,-389.424 290.1862,-391.2243 290.1862,-391.2243"/>
<ellipse fill="none" stroke="#000000" cx="287.0606" cy="-390.538" rx="3.2" ry="3.2"/>
</g>
<!-- venues -->
<g id="node6" class="node">
<title>venues</title>
<g id="a_node6"><a xlink:href="../../tables/venues.html" xlink:title="venues" target="_top">
<polygon fill="#ffffff" stroke="transparent" points="126,-366.4402 126,-449.4402 247,-449.4402 247,-366.4402 126,-366.4402"/>
<polygon fill="#f5f5f5" stroke="transparent" points="126.5,-425.9402 126.5,-448.9402 247.5,-448.9402 247.5,-425.9402 126.5,-425.9402"/>
<polygon fill="none" stroke="#000000" points="126.5,-425.9402 126.5,-448.9402 247.5,-448.9402 247.5,-425.9402 126.5,-425.9402"/>
<text text-anchor="start" x="131.5" y="-435.0402" font-family="Helvetica,sans-Serif" font-weight="bold" font-size="11.00" fill="#000000">venues</text>
<text text-anchor="start" x="212.5437" y="-434.0402" font-family="Helvetica,sans-Serif" font-size="11.00" fill="#000000">[table]</text>
<polygon fill="none" stroke="#000000" points="126.5,-403.9402 126.5,-425.9402 247.5,-425.9402 247.5,-403.9402 126.5,-403.9402"/>
<image xlink:href="../../images/primaryKeys.png" width="11px" height="12px" preserveAspectRatio="xMinYMin meet" x="131.5" y="-420.94"/>
<text text-anchor="start" x="146.5" y="-411.0402" font-family="Helvetica,sans-Serif" font-size="11.00" fill="#000000">id</text>
<polygon fill="none" stroke="#000000" points="126.5,-384.9402 126.5,-403.9402 247.5,-403.9402 247.5,-384.9402 126.5,-384.9402"/>
<text text-anchor="start" x="129.5" y="-391.0402" font-family="Helvetica,sans-Serif" font-size="11.00" fill="#000000">...</text>
<polygon fill="#ffffff" stroke="transparent" points="126.5,-365.9402 126.5,-384.9402 163.5,-384.9402 163.5,-365.9402 126.5,-365.9402"/>
<polygon fill="none" stroke="#000000" points="126.5,-365.9402 126.5,-384.9402 163.5,-384.9402 163.5,-365.9402 126.5,-365.9402"/>
<text text-anchor="start" x="129.5" y="-372.0402" font-family="Helvetica,sans-Serif" font-size="11.00" fill="#000000"> &#160;</text>
<polygon fill="#ffffff" stroke="transparent" points="163.5,-365.9402 163.5,-384.9402 213.5,-384.9402 213.5,-365.9402 163.5,-365.9402"/>
<polygon fill="none" stroke="#000000" points="163.5,-365.9402 163.5,-384.9402 213.5,-384.9402 213.5,-365.9402 163.5,-365.9402"/>
<text text-anchor="start" x="178.1105" y="-372.0402" font-family="Helvetica,sans-Serif" font-size="11.00" fill="#000000">4 rows</text>
<polygon fill="#ffffff" stroke="transparent" points="213.5,-365.9402 213.5,-384.9402 247.5,-384.9402 247.5,-365.9402 213.5,-365.9402"/>
<polygon fill="none" stroke="#000000" points="213.5,-365.9402 213.5,-384.9402 247.5,-384.9402 247.5,-365.9402 213.5,-365.9402"/>
<text text-anchor="start" x="228.9053" y="-372.0402" font-family="Helvetica,sans-Serif" font-size="11.00" fill="#000000">1 &gt;</text>
</a>
</g>
</g>
<!-- events&#45;&gt;venues -->
<g id="edge5" class="edge">
<title>events:w&#45;&gt;venues:e</title>
<path fill="none" stroke="#000000" d="M283.4203,-414.9402C271.5435,-414.9402 264.158,-414.9402 247.5,-414.9402"/>
<polygon fill="#000000" stroke="#000000" points="290,-414.9403 298,-418.5402 294,-414.9402 298,-414.9402 298,-414.9402 298,-414.9402 294,-414.9402 298,-411.3402 290,-414.9403 290,-414.9403"/>
<ellipse fill="none" stroke="#000000" cx="286.8" cy="-414.9403" rx="3.2" ry="3.2"/>
</g>
<!-- rsvps -->
<g id="node7" class="node">
<title>rsvps</title>
<g id="a_node7"><a xlink:href="../../tables/rsvps.html" xlink:title="rsvps" target="_top">
<polygon fill="#ffffff" stroke="transparent" points="663.5,-161.4402 663.5,-288.4402 760.5,-288.4402 760.5,-161.4402 663.5,-161.4402"/>
<polygon fill="#f5f5f5" stroke="transparent" points="664,-264.9402 664,-287.9402 761,-287.9402 761,-264.9402 664,-264.9402"/>
<polygon fill="none" stroke="#000000" points="664,-264.9402 664,-287.9402 761,-287.9402 761,-264.9402 664,-264.9402"/>
<text text-anchor="start" x="669" y="-274.0402" font-family="Helvetica,sans-Serif" font-weight="bold" font-size="11.00" fill="#000000">rsvps</text>
<text text-anchor="start" x="726.0437" y="-273.0402" font-family="Helvetica,sans-Serif" font-size="11.00" fill="#000000">[table]</text>
<polygon fill="none" stroke="#000000" points="664,-242.9402 664,-264.9402 761,-264.9402 761,-242.9402 664,-242.9402"/>
<image xlink:href="../../images/primaryKeys.png" width="11px" height="12px" preserveAspectRatio="xMinYMin meet" x="669" y="-259.94"/>
<text text-anchor="start" x="684" y="-250.0402" font-family="Helvetica,sans-Serif" font-size="11.00" fill="#000000">id</text>
<polygon fill="none" stroke="#000000" points="664,-220.9402 664,-242.9402 761,-242.9402 761,-220.9402 664,-220.9402"/>
<image xlink:href="../../images/foreignKeys.png" width="11px" height="12px" preserveAspectRatio="xMinYMin meet" x="669" y="-237.94"/>
<text text-anchor="start" x="684" y="-228.0402" font-family="Helvetica,sans-Serif" font-size="11.00" fill="#000000">event_id</text>
<polygon fill="none" stroke="#000000" points="664,-198.9402 664,-220.9402 761,-220.9402 761,-198.9402 664,-198.9402"/>
<image xlink:href="../../images/foreignKeys.png" width="11px" height="12px" preserveAspectRatio="xMinYMin meet" x="669" y="-215.94"/>
<text text-anchor="start" x="684" y="-206.0402" font-family="Helvetica,sans-Serif" font-size="11.00" fill="#000000">user_id</text>
<polygon fill="none" stroke="#000000" points="664,-179.9402 664,-198.9402 761,-198.9402 761,-179.9402 664,-179.9402"/>
<text text-anchor="start" x="667" y="-186.0402" font-family="Helvetica,sans-Serif" font-size="11.00" fill="#000000">...</text>
<polygon fill="#ffffff" stroke="transparent" points="664,-160.9402 664,-179.9402 698,-179.9402 698,-160.9402 664,-160.9402"/>
<polygon fill="none" stroke="#000000" points="664,-160.9402 664,-179.9402 698,-179.9402 698,-160.9402 664,-160.9402"/>
<text text-anchor="start" x="667" y="-167.0402" font-family="Helvetica,sans-Serif" font-size="11.00" fill="#000000">&lt; 2</text>
<polygon fill="#ffffff" stroke="transparent" points="698,-160.9402 698,-179.9402 742,-179.9402 742,-160.9402 698,-160.9402"/>
<polygon fill="none" stroke="#000000" points="698,-160.9402 698,-179.9402 742,-179.9402 742,-160.9402 698,-160.9402"/>
<text text-anchor="start" x="706.6105" y="-167.0402" font-family="Helvetica,sans-Serif" font-size="11.00" fill="#000000">0 rows</text>
<polygon fill="#ffffff" stroke="transparent" points="742,-160.9402 742,-179.9402 761,-179.9402 761,-160.9402 742,-160.9402"/>
<polygon fill="none" stroke="#000000" points="742,-160.9402 742,-179.9402 761,-179.9402 761,-160.9402 742,-160.9402"/>
<text text-anchor="start" x="751.8862" y="-167.0402" font-family="Helvetica,sans-Serif" font-size="11.00" fill="#000000"> &#160;</text>
</a>
</g>
</g>
<!-- rsvps&#45;&gt;users -->
<g id="edge7" class="edge">
<title>rsvps:w&#45;&gt;users:e</title>
<path fill="none" stroke="#000000" d="M649.7549,-207.773C609.5032,-193.1566 657.0034,-108.5717 608,-75.9402 489.6222,2.8878 427.8577,-50.1144 288,-75.9402 208.4547,-90.6289 185.7338,-96.721 118,-140.9402 96.5524,-154.942 103.1135,-181.9402 77.5,-181.9402"/>
<polygon fill="#000000" stroke="#000000" points="656.091,-208.7369 663.4585,-213.4993 660.0455,-209.3386 664,-209.9402 664,-209.9402 664,-209.9402 660.0455,-209.3386 664.5415,-206.3812 656.091,-208.7369 656.091,-208.7369"/>
<ellipse fill="none" stroke="#000000" cx="652.9274" cy="-208.2556" rx="3.2" ry="3.2"/>
</g>
<!-- rsvps&#45;&gt;events -->
<g id="edge6" class="edge">
<title>rsvps:w&#45;&gt;events:e</title>
<path fill="none" stroke="#000000" d="M650.2063,-236.7041C599.0643,-277.6648 668.9459,-568.9402 598,-568.9402"/>
<polygon fill="#000000" stroke="#000000" points="656.4383,-234.5518 665.1752,-235.343 660.2191,-233.246 664,-231.9402 664,-231.9402 664,-231.9402 660.2191,-233.246 662.8248,-228.5374 656.4383,-234.5518 656.4383,-234.5518"/>
<ellipse fill="none" stroke="#000000" cx="653.4136" cy="-235.5965" rx="3.2" ry="3.2"/>
</g>
<!-- tags -->
<g id="node8" class="node">
<title>tags</title>
<g id="a_node8"><a xlink:href="../../tables/tags.html" xlink:title="tags" target="_top">
<polygon fill="#ffffff" stroke="transparent" points="663.5,-457.4402 663.5,-562.4402 760.5,-562.4402 760.5,-457.4402 663.5,-457.4402"/>
<polygon fill="#f5f5f5" stroke="transparent" points="664,-538.9402 664,-561.9402 761,-561.9402 761,-538.9402 664,-538.9402"/>
<polygon fill="none" stroke="#000000" points="664,-538.9402 664,-561.9402 761,-561.9402 761,-538.9402 664,-538.9402"/>
<text text-anchor="start" x="669" y="-548.0402" font-family="Helvetica,sans-Serif" font-weight="bold" font-size="11.00" fill="#000000">tags</text>
<text text-anchor="start" x="726.0437" y="-547.0402" font-family="Helvetica,sans-Serif" font-size="11.00" fill="#000000">[table]</text>
<polygon fill="none" stroke="#000000" points="664,-516.9402 664,-538.9402 761,-538.9402 761,-516.9402 664,-516.9402"/>
<image xlink:href="../../images/primaryKeys.png" width="11px" height="12px" preserveAspectRatio="xMinYMin meet" x="669" y="-533.94"/>
<text text-anchor="start" x="684" y="-524.0402" font-family="Helvetica,sans-Serif" font-size="11.00" fill="#000000">id</text>
<polygon fill="none" stroke="#000000" points="664,-494.9402 664,-516.9402 761,-516.9402 761,-494.9402 664,-494.9402"/>
<image xlink:href="../../images/foreignKeys.png" width="11px" height="12px" preserveAspectRatio="xMinYMin meet" x="669" y="-511.94"/>
<text text-anchor="start" x="684" y="-502.0402" font-family="Helvetica,sans-Serif" font-size="11.00" fill="#000000">event_id</text>
<polygon fill="none" stroke="#000000" points="664,-475.9402 664,-494.9402 761,-494.9402 761,-475.9402 664,-475.9402"/>
<text text-anchor="start" x="667" y="-482.0402" font-family="Helvetica,sans-Serif" font-size="11.00" fill="#000000">...</text>
<polygon fill="#ffffff" stroke="transparent" points="664,-456.9402 664,-475.9402 698,-475.9402 698,-456.9402 664,-456.9402"/>
<polygon fill="none" stroke="#000000" points="664,-456.9402 664,-475.9402 698,-475.9402 698,-456.9402 664,-456.9402"/>
<text text-anchor="start" x="667" y="-463.0402" font-family="Helvetica,sans-Serif" font-size="11.00" fill="#000000">&lt; 1</text>
<polygon fill="#ffffff" stroke="transparent" points="698,-456.9402 698,-475.9402 742,-475.9402 742,-456.9402 698,-456.9402"/>
<polygon fill="none" stroke="#000000" points="698,-456.9402 698,-475.9402 742,-475.9402 742,-456.9402 698,-456.9402"/>
<text text-anchor="start" x="706.6105" y="-463.0402" font-family="Helvetica,sans-Serif" font-size="11.00" fill="#000000">9 rows</text>
<polygon fill="#ffffff" stroke="transparent" points="742,-456.9402 742,-475.9402 761,-475.9402 761,-456.9402 742,-456.9402"/>
<polygon fill="none" stroke="#000000" points="742,-456.9402 742,-475.9402 761,-475.9402 761,-456.9402 742,-456.9402"/>
<text text-anchor="start" x="751.8862" y="-463.0402" font-family="Helvetica,sans-Serif" font-size="11.00" fill="#000000"> &#160;</text>
</a>
</g>
</g>
<!-- tags&#45;&gt;events -->
<g id="edge8" class="edge">
<title>tags:w&#45;&gt;events:e</title>
<path fill="none" stroke="#000000" d="M649.8845,-509.3274C626.5955,-522.4131 632.8492,-568.9402 598,-568.9402"/>
<polygon fill="#000000" stroke="#000000" points="656.2208,-507.8069 664.84,-509.4408 660.1104,-506.8736 664,-505.9402 664,-505.9402 664,-505.9402 660.1104,-506.8736 663.16,-502.4396 656.2208,-507.8069 656.2208,-507.8069"/>
<ellipse fill="none" stroke="#000000" cx="653.1092" cy="-508.5536" rx="3.2" ry="3.2"/>
</g>
<!-- user_bans -->
<g id="node9" class="node">
<title>user_bans</title>
<g id="a_node9"><a xlink:href="../../tables/user_bans.html" xlink:title="user_bans" target="_top">
<polygon fill="#ffffff" stroke="transparent" points="401,-86.4402 401,-147.4402 495,-147.4402 495,-86.4402 401,-86.4402"/>
<polygon fill="#f5f5f5" stroke="transparent" points="401,-123.9402 401,-146.9402 495,-146.9402 495,-123.9402 401,-123.9402"/>
<polygon fill="none" stroke="#000000" points="401,-123.9402 401,-146.9402 495,-146.9402 495,-123.9402 401,-123.9402"/>
<text text-anchor="start" x="405.8244" y="-133.0402" font-family="Helvetica,sans-Serif" font-weight="bold" font-size="11.00" fill="#000000">user_bans</text>
<text text-anchor="start" x="460.5219" y="-132.0402" font-family="Helvetica,sans-Serif" font-size="11.00" fill="#000000">[table]</text>
<polygon fill="none" stroke="#000000" points="401,-104.9402 401,-123.9402 495,-123.9402 495,-104.9402 401,-104.9402"/>
<text text-anchor="start" x="404" y="-111.0402" font-family="Helvetica,sans-Serif" font-size="11.00" fill="#000000">...</text>
<polygon fill="#ffffff" stroke="transparent" points="401,-85.9402 401,-104.9402 433,-104.9402 433,-85.9402 401,-85.9402"/>
<polygon fill="none" stroke="#000000" points="401,-85.9402 401,-104.9402 433,-104.9402 433,-85.9402 401,-85.9402"/>
<text text-anchor="start" x="404" y="-92.0402" font-family="Helvetica,sans-Serif" font-size="11.00" fill="#000000">&lt; 2</text>
<polygon fill="#ffffff" stroke="transparent" points="433,-85.9402 433,-104.9402 477,-104.9402 477,-85.9402 433,-85.9402"/>
<polygon fill="none" stroke="#000000" points="433,-85.9402 433,-104.9402 477,-104.9402 477,-85.9402 433,-85.9402"/>
<text text-anchor="start" x="441.6105" y="-92.0402" font-family="Helvetica,sans-Serif" font-size="11.00" fill="#000000">0 rows</text>
<polygon fill="#ffffff" stroke="transparent" points="477,-85.9402 477,-104.9402 495,-104.9402 495,-85.9402 477,-85.9402"/>
<polygon fill="none" stroke="#000000" points="477,-85.9402 477,-104.9402 495,-104.9402 495,-85.9402 477,-85.9402"/>
<text text-anchor="start" x="485.8862" y="-92.0402" font-family="Helvetica,sans-Serif" font-size="11.00" fill="#000000"> &#160;</text>
</a>
</g>
</g>
<!-- user_bans&#45;&gt;chapters -->
<g id="edge9" class="edge">
<title>user_bans:w&#45;&gt;chapters:e</title>
<path fill="none" stroke="#000000" d="M386.407,-114.1463C343.0735,-115.51 323.2151,-124.2473 288,-157.9402 246.2313,-197.9034 293.3073,-276.9402 235.5,-276.9402"/>
<polygon fill="#000000" stroke="#000000" points="393.0008,-114.0532 401.0509,-117.5398 397.0004,-113.9967 401,-113.9402 401,-113.9402 401,-113.9402 397.0004,-113.9967 400.9491,-110.3406 393.0008,-114.0532 393.0008,-114.0532"/>
<ellipse fill="none" stroke="#000000" cx="389.8011" cy="-114.0984" rx="3.2" ry="3.2"/>
</g>
<!-- user_bans&#45;&gt;users -->
<g id="edge10" class="edge">
<title>user_bans:w&#45;&gt;users:e</title>
<path fill="none" stroke="#000000" d="M386.5684,-114.6579C306.5354,-121.9253 146.5121,-181.9402 77.5,-181.9402"/>
<polygon fill="#000000" stroke="#000000" points="393.0099,-114.3376 401.1788,-117.5358 397.0049,-114.1389 401,-113.9402 401,-113.9402 401,-113.9402 397.0049,-114.1389 400.8212,-110.3447 393.0099,-114.3376 393.0099,-114.3376"/>
<ellipse fill="none" stroke="#000000" cx="389.8138" cy="-114.4966" rx="3.2" ry="3.2"/>
</g>
<!-- user_chapter_roles -->
<g id="node10" class="node">
<title>user_chapter_roles</title>
<g id="a_node10"><a xlink:href="../../tables/user_chapter_roles.html" xlink:title="user_chapter_roles" target="_top">
<polygon fill="#ffffff" stroke="transparent" points="379.5,-708.4402 379.5,-769.4402 516.5,-769.4402 516.5,-708.4402 379.5,-708.4402"/>
<polygon fill="#f5f5f5" stroke="transparent" points="380,-745.9402 380,-768.9402 517,-768.9402 517,-745.9402 380,-745.9402"/>
<polygon fill="none" stroke="#000000" points="380,-745.9402 380,-768.9402 517,-768.9402 517,-745.9402 380,-745.9402"/>
<text text-anchor="start" x="384.9338" y="-755.0402" font-family="Helvetica,sans-Serif" font-weight="bold" font-size="11.00" fill="#000000">user_chapter_roles</text>
<text text-anchor="start" x="482.5219" y="-754.0402" font-family="Helvetica,sans-Serif" font-size="11.00" fill="#000000">[table]</text>
<polygon fill="none" stroke="#000000" points="380,-726.9402 380,-745.9402 517,-745.9402 517,-726.9402 380,-726.9402"/>
<text text-anchor="start" x="383" y="-733.0402" font-family="Helvetica,sans-Serif" font-size="11.00" fill="#000000">...</text>
<polygon fill="#ffffff" stroke="transparent" points="380,-707.9402 380,-726.9402 434,-726.9402 434,-707.9402 380,-707.9402"/>
<polygon fill="none" stroke="#000000" points="380,-707.9402 380,-726.9402 434,-726.9402 434,-707.9402 380,-707.9402"/>
<text text-anchor="start" x="383" y="-714.0402" font-family="Helvetica,sans-Serif" font-size="11.00" fill="#000000">&lt; 2</text>
<polygon fill="#ffffff" stroke="transparent" points="434,-707.9402 434,-726.9402 488,-726.9402 488,-707.9402 434,-707.9402"/>
<polygon fill="none" stroke="#000000" points="434,-707.9402 434,-726.9402 488,-726.9402 488,-707.9402 434,-707.9402"/>
<text text-anchor="start" x="452.6105" y="-714.0402" font-family="Helvetica,sans-Serif" font-size="11.00" fill="#000000">0 rows</text>
<polygon fill="#ffffff" stroke="transparent" points="488,-707.9402 488,-726.9402 517,-726.9402 517,-707.9402 488,-707.9402"/>
<polygon fill="none" stroke="#000000" points="488,-707.9402 488,-726.9402 517,-726.9402 517,-707.9402 488,-707.9402"/>
<text text-anchor="start" x="507.8862" y="-714.0402" font-family="Helvetica,sans-Serif" font-size="11.00" fill="#000000"> &#160;</text>
</a>
</g>
</g>
<!-- user_chapter_roles&#45;&gt;chapters -->
<g id="edge11" class="edge">
<title>user_chapter_roles:w&#45;&gt;chapters:e</title>
<path fill="none" stroke="#000000" d="M365.3424,-735.7898C330.6717,-734.9107 311.2498,-729.3211 288,-697.9402 231.8746,-622.1861 329.7802,-276.9402 235.5,-276.9402"/>
<polygon fill="#000000" stroke="#000000" points="372.0004,-735.8581 379.963,-739.54 376.0002,-735.8991 380,-735.9402 380,-735.9402 380,-735.9402 376.0002,-735.8991 380.037,-732.3404 372.0004,-735.8581 372.0004,-735.8581"/>
<ellipse fill="none" stroke="#000000" cx="368.8006" cy="-735.8252" rx="3.2" ry="3.2"/>
</g>
<!-- user_chapter_roles&#45;&gt;users -->
<g id="edge12" class="edge">
<title>user_chapter_roles:w&#45;&gt;users:e</title>
<path fill="none" stroke="#000000" d="M365.4893,-735.6356C209.0942,-728.9301 179.272,-612.2575 118,-459.9402 94.7011,-402.0208 139.9299,-181.9402 77.5,-181.9402"/>
<polygon fill="#000000" stroke="#000000" points="372.0018,-735.7723 379.9244,-739.5394 376.0009,-735.8562 380,-735.9402 380,-735.9402 380,-735.9402 376.0009,-735.8562 380.0756,-732.341 372.0018,-735.7723 372.0018,-735.7723"/>
<ellipse fill="none" stroke="#000000" cx="368.8025" cy="-735.7051" rx="3.2" ry="3.2"/>
</g>
<!-- user_chapters -->
<g id="node11" class="node">
<title>user_chapters</title>
<g id="a_node11"><a xlink:href="../../tables/user_chapters.html" xlink:title="user_chapters" target="_top">
<polygon fill="#ffffff" stroke="transparent" points="392,-168.4402 392,-229.4402 504,-229.4402 504,-168.4402 392,-168.4402"/>
<polygon fill="#f5f5f5" stroke="transparent" points="392,-205.9402 392,-228.9402 504,-228.9402 504,-205.9402 392,-205.9402"/>
<polygon fill="none" stroke="#000000" points="392,-205.9402 392,-228.9402 504,-228.9402 504,-205.9402 392,-205.9402"/>
<text text-anchor="start" x="396.6575" y="-215.0402" font-family="Helvetica,sans-Serif" font-weight="bold" font-size="11.00" fill="#000000">user_chapters</text>
<text text-anchor="start" x="469.5219" y="-214.0402" font-family="Helvetica,sans-Serif" font-size="11.00" fill="#000000">[table]</text>
<polygon fill="none" stroke="#000000" points="392,-186.9402 392,-205.9402 504,-205.9402 504,-186.9402 392,-186.9402"/>
<text text-anchor="start" x="395" y="-193.0402" font-family="Helvetica,sans-Serif" font-size="11.00" fill="#000000">...</text>
<polygon fill="#ffffff" stroke="transparent" points="392,-167.9402 392,-186.9402 433,-186.9402 433,-167.9402 392,-167.9402"/>
<polygon fill="none" stroke="#000000" points="392,-167.9402 392,-186.9402 433,-186.9402 433,-167.9402 392,-167.9402"/>
<text text-anchor="start" x="395" y="-174.0402" font-family="Helvetica,sans-Serif" font-size="11.00" fill="#000000">&lt; 2</text>
<polygon fill="#ffffff" stroke="transparent" points="433,-167.9402 433,-186.9402 481,-186.9402 481,-167.9402 433,-167.9402"/>
<polygon fill="none" stroke="#000000" points="433,-167.9402 433,-186.9402 481,-186.9402 481,-167.9402 433,-167.9402"/>
<text text-anchor="start" x="445.6105" y="-174.0402" font-family="Helvetica,sans-Serif" font-size="11.00" fill="#000000">0 rows</text>
<polygon fill="#ffffff" stroke="transparent" points="481,-167.9402 481,-186.9402 504,-186.9402 504,-167.9402 481,-167.9402"/>
<polygon fill="none" stroke="#000000" points="481,-167.9402 481,-186.9402 504,-186.9402 504,-167.9402 481,-167.9402"/>
<text text-anchor="start" x="494.8862" y="-174.0402" font-family="Helvetica,sans-Serif" font-size="11.00" fill="#000000"> &#160;</text>
</a>
</g>
</g>
<!-- user_chapters&#45;&gt;chapters -->
<g id="edge13" class="edge">
<title>user_chapters:w&#45;&gt;chapters:e</title>
<path fill="none" stroke="#000000" d="M377.3761,-196.5777C339.3375,-200.1331 327.2461,-218.1379 288,-239.9402 263.0462,-253.8028 264.0458,-276.9402 235.5,-276.9402"/>
<polygon fill="#000000" stroke="#000000" points="384.0076,-196.2887 392.1568,-199.5368 388.0038,-196.1144 392,-195.9402 392,-195.9402 392,-195.9402 388.0038,-196.1144 391.8432,-192.3436 384.0076,-196.2887 384.0076,-196.2887"/>
<ellipse fill="none" stroke="#000000" cx="380.8106" cy="-196.4281" rx="3.2" ry="3.2"/>
</g>
<!-- user_chapters&#45;&gt;users -->
<g id="edge14" class="edge">
<title>user_chapters:w&#45;&gt;users:e</title>
<path fill="none" stroke="#000000" d="M377.2356,-195.8867C249.4411,-194.9468 212.3606,-181.9402 77.5,-181.9402"/>
<polygon fill="#000000" stroke="#000000" points="384.0001,-195.9112 391.9869,-199.5402 388,-195.9257 392,-195.9402 392,-195.9402 392,-195.9402 388,-195.9257 392.0131,-192.3402 384.0001,-195.9112 384.0001,-195.9112"/>
<ellipse fill="none" stroke="#000000" cx="380.8001" cy="-195.8995" rx="3.2" ry="3.2"/>
</g>
</g>
</svg>
