<?xml version="1.0" encoding="UTF-8" standalone="no"?>
<!DOCTYPE svg PUBLIC "-//W3C//DTD SVG 1.1//EN"
 "http://www.w3.org/Graphics/SVG/1.1/DTD/svg11.dtd">
<!-- Generated by graphviz version 2.40.1 (20161225.0304)
 -->
<!-- Title: twoDegreesRelationshipsDiagram Pages: 1 -->
<svg width="1038pt" height="636pt"
 viewBox="0.00 0.00 1038.00 636.20" xmlns="http://www.w3.org/2000/svg" xmlns:xlink="http://www.w3.org/1999/xlink">
<g id="graph0" class="graph" transform="scale(1 1) rotate(0) translate(4 632.2)">
<title>twoDegreesRelationshipsDiagram</title>
<polygon fill="#ffffff" stroke="transparent" points="-4,4 -4,-632.2 1034,-632.2 1034,4 -4,4"/>
<text text-anchor="middle" x="72.4936" y="-7.3" font-family="Helvetica,sans-Serif" font-size="11.00" fill="#000000">Generated by SchemaSpy</text>
<!-- chapter_users -->
<g id="node1" class="node">
<title>chapter_users</title>
<g id="a_node1"><a xlink:href="../../tables/chapter_users.html" xlink:title="chapter_users" target="_top">
<polygon fill="#ffffff" stroke="transparent" points="335,-323.2 335,-384.2 447,-384.2 447,-323.2 335,-323.2"/>
<polygon fill="#f5f5f5" stroke="transparent" points="335,-360.7 335,-383.7 447,-383.7 447,-360.7 335,-360.7"/>
<polygon fill="none" stroke="#000000" points="335,-360.7 335,-383.7 447,-383.7 447,-360.7 335,-360.7"/>
<text text-anchor="start" x="339.6575" y="-369.8" font-family="Helvetica,sans-Serif" font-weight="bold" font-size="11.00" fill="#000000">chapter_users</text>
<text text-anchor="start" x="412.5219" y="-368.8" font-family="Helvetica,sans-Serif" font-size="11.00" fill="#000000">[table]</text>
<polygon fill="none" stroke="#000000" points="335,-341.7 335,-360.7 447,-360.7 447,-341.7 335,-341.7"/>
<text text-anchor="start" x="338" y="-347.8" font-family="Helvetica,sans-Serif" font-size="11.00" fill="#000000">...</text>
<polygon fill="#ffffff" stroke="transparent" points="335,-322.7 335,-341.7 376,-341.7 376,-322.7 335,-322.7"/>
<polygon fill="none" stroke="#000000" points="335,-322.7 335,-341.7 376,-341.7 376,-322.7 335,-322.7"/>
<text text-anchor="start" x="338" y="-328.8" font-family="Helvetica,sans-Serif" font-size="11.00" fill="#000000">&lt; 3</text>
<polygon fill="#ffffff" stroke="transparent" points="376,-322.7 376,-341.7 424,-341.7 424,-322.7 376,-322.7"/>
<polygon fill="none" stroke="#000000" points="376,-322.7 376,-341.7 424,-341.7 424,-322.7 376,-322.7"/>
<text text-anchor="start" x="388.6105" y="-328.8" font-family="Helvetica,sans-Serif" font-size="11.00" fill="#000000">0 rows</text>
<polygon fill="#ffffff" stroke="transparent" points="424,-322.7 424,-341.7 447,-341.7 447,-322.7 424,-322.7"/>
<polygon fill="none" stroke="#000000" points="424,-322.7 424,-341.7 447,-341.7 447,-322.7 424,-322.7"/>
<text text-anchor="start" x="437.8862" y="-328.8" font-family="Helvetica,sans-Serif" font-size="11.00" fill="#000000"> &#160;</text>
</a>
</g>
</g>
<!-- chapters -->
<g id="node2" class="node">
<title>chapters</title>
<g id="a_node2"><a xlink:href="../../tables/chapters.html" xlink:title="chapters" target="_top">
<polygon fill="#ffffff" stroke="transparent" points="185.5,-434.2 185.5,-495.2 270.5,-495.2 270.5,-434.2 185.5,-434.2"/>
<polygon fill="#f5f5f5" stroke="transparent" points="186,-471.7 186,-494.7 271,-494.7 271,-471.7 186,-471.7"/>
<polygon fill="none" stroke="#000000" points="186,-471.7 186,-494.7 271,-494.7 271,-471.7 186,-471.7"/>
<text text-anchor="start" x="190.9108" y="-480.8" font-family="Helvetica,sans-Serif" font-weight="bold" font-size="11.00" fill="#000000">chapters</text>
<text text-anchor="start" x="236.5219" y="-479.8" font-family="Helvetica,sans-Serif" font-size="11.00" fill="#000000">[table]</text>
<polygon fill="none" stroke="#000000" points="186,-452.7 186,-471.7 271,-471.7 271,-452.7 186,-452.7"/>
<text text-anchor="start" x="189" y="-458.8" font-family="Helvetica,sans-Serif" font-size="11.00" fill="#000000">...</text>
<polygon fill="#ffffff" stroke="transparent" points="186,-433.7 186,-452.7 205,-452.7 205,-433.7 186,-433.7"/>
<polygon fill="none" stroke="#000000" points="186,-433.7 186,-452.7 205,-452.7 205,-433.7 186,-433.7"/>
<text text-anchor="start" x="189" y="-439.8" font-family="Helvetica,sans-Serif" font-size="11.00" fill="#000000"> &#160;</text>
<polygon fill="#ffffff" stroke="transparent" points="205,-433.7 205,-452.7 246,-452.7 246,-433.7 205,-433.7"/>
<polygon fill="none" stroke="#000000" points="205,-433.7 205,-452.7 246,-452.7 246,-433.7 205,-433.7"/>
<text text-anchor="start" x="210.6105" y="-439.8" font-family="Helvetica,sans-Serif" font-size="11.00" fill="#000000">0 rows</text>
<polygon fill="#ffffff" stroke="transparent" points="246,-433.7 246,-452.7 271,-452.7 271,-433.7 246,-433.7"/>
<polygon fill="none" stroke="#000000" points="246,-433.7 246,-452.7 271,-452.7 271,-433.7 246,-433.7"/>
<text text-anchor="start" x="252.4053" y="-439.8" font-family="Helvetica,sans-Serif" font-size="11.00" fill="#000000">4 &gt;</text>
</a>
</g>
</g>
<!-- chapter_users&#45;&gt;chapters -->
<g id="edge1" class="edge">
<title>chapter_users:w&#45;&gt;chapters:e</title>
<path fill="none" stroke="#000000" d="M320.7315,-353.9023C287.0862,-372.1019 322.1626,-461.7 271,-461.7"/>
<polygon fill="#000000" stroke="#000000" points="327.1942,-352.4519 335.7884,-354.2126 331.0971,-351.576 335,-350.7 335,-350.7 335,-350.7 331.0971,-351.576 334.2116,-347.1874 327.1942,-352.4519 327.1942,-352.4519"/>
<ellipse fill="none" stroke="#000000" cx="324.0718" cy="-353.1527" rx="3.2" ry="3.2"/>
</g>
<!-- users -->
<g id="node3" class="node">
<title>users</title>
<g id="a_node3"><a xlink:href="../../tables/users.html" xlink:title="users" target="_top">
<polygon fill="#ffffff" stroke="transparent" points="170,-258.2 170,-385.2 286,-385.2 286,-258.2 170,-258.2"/>
<polygon fill="#f5f5f5" stroke="transparent" points="170,-361.7 170,-384.7 286,-384.7 286,-361.7 170,-361.7"/>
<polygon fill="none" stroke="#000000" points="170,-361.7 170,-384.7 286,-384.7 286,-361.7 170,-361.7"/>
<text text-anchor="start" x="175" y="-370.8" font-family="Helvetica,sans-Serif" font-weight="bold" font-size="11.00" fill="#000000">users</text>
<text text-anchor="start" x="251.0437" y="-369.8" font-family="Helvetica,sans-Serif" font-size="11.00" fill="#000000">[table]</text>
<polygon fill="none" stroke="#000000" points="170,-339.7 170,-361.7 286,-361.7 286,-339.7 170,-339.7"/>
<image xlink:href="../../images/primaryKeys.png" width="11px" height="12px" preserveAspectRatio="xMinYMin meet" x="175" y="-356.7"/>
<text text-anchor="start" x="190" y="-346.8" font-family="Helvetica,sans-Serif" font-size="11.00" fill="#000000">id</text>
<polygon fill="#ffffff" stroke="transparent" points="170,-317.7 170,-339.7 286,-339.7 286,-317.7 170,-317.7"/>
<polygon fill="none" stroke="#000000" points="170,-317.7 170,-339.7 286,-339.7 286,-317.7 170,-317.7"/>
<text text-anchor="start" x="190" y="-324.8" font-family="Helvetica,sans-Serif" font-size="11.00" fill="#000000">email</text>
<polygon fill="none" stroke="#000000" points="170,-295.7 170,-317.7 286,-317.7 286,-295.7 170,-295.7"/>
<image xlink:href="../../images/foreignKeys.png" width="11px" height="12px" preserveAspectRatio="xMinYMin meet" x="175" y="-312.7"/>
<text text-anchor="start" x="190" y="-302.8" font-family="Helvetica,sans-Serif" font-size="11.00" fill="#000000">instance_role_id</text>
<polygon fill="none" stroke="#000000" points="170,-276.7 170,-295.7 286,-295.7 286,-276.7 170,-276.7"/>
<text text-anchor="start" x="173" y="-282.8" font-family="Helvetica,sans-Serif" font-size="11.00" fill="#000000">...</text>
<polygon fill="#ffffff" stroke="transparent" points="170,-257.7 170,-276.7 209,-276.7 209,-257.7 170,-257.7"/>
<polygon fill="none" stroke="#000000" points="170,-257.7 170,-276.7 209,-276.7 209,-257.7 170,-257.7"/>
<text text-anchor="start" x="173" y="-263.8" font-family="Helvetica,sans-Serif" font-size="11.00" fill="#000000">&lt; 1</text>
<polygon fill="#ffffff" stroke="transparent" points="209,-257.7 209,-276.7 256,-276.7 256,-257.7 209,-257.7"/>
<polygon fill="none" stroke="#000000" points="209,-257.7 209,-276.7 256,-276.7 256,-257.7 209,-257.7"/>
<text text-anchor="start" x="220.6105" y="-263.8" font-family="Helvetica,sans-Serif" font-size="11.00" fill="#000000">0 rows</text>
<polygon fill="#ffffff" stroke="transparent" points="256,-257.7 256,-276.7 286,-276.7 286,-257.7 256,-257.7"/>
<polygon fill="none" stroke="#000000" points="256,-257.7 256,-276.7 286,-276.7 286,-257.7 256,-257.7"/>
<text text-anchor="start" x="267.4053" y="-263.8" font-family="Helvetica,sans-Serif" font-size="11.00" fill="#000000">3 &gt;</text>
</a>
</g>
</g>
<!-- chapter_users&#45;&gt;users -->
<g id="edge2" class="edge">
<title>chapter_users:w&#45;&gt;users:e</title>
<path fill="none" stroke="#000000" d="M320.4909,-350.7C309.1774,-350.7 301.9931,-350.7 286,-350.7"/>
<polygon fill="#000000" stroke="#000000" points="327,-350.7001 335,-354.3 331,-350.7 335,-350.7 335,-350.7 335,-350.7 331,-350.7 335,-347.1 327,-350.7001 327,-350.7001"/>
<ellipse fill="none" stroke="#000000" cx="323.8" cy="-350.7001" rx="3.2" ry="3.2"/>
</g>
<!-- instance_roles -->
<g id="node14" class="node">
<title>instance_roles</title>
<g id="a_node14"><a xlink:href="../../tables/instance_roles.html" xlink:title="instance_roles" target="_top">
<polygon fill="#ffffff" stroke="transparent" points="8,-279.2 8,-340.2 121,-340.2 121,-279.2 8,-279.2"/>
<polygon fill="#f5f5f5" stroke="transparent" points="8.5,-316.7 8.5,-339.7 121.5,-339.7 121.5,-316.7 8.5,-316.7"/>
<polygon fill="none" stroke="#000000" points="8.5,-316.7 8.5,-339.7 121.5,-339.7 121.5,-316.7 8.5,-316.7"/>
<text text-anchor="start" x="13.0476" y="-325.8" font-family="Helvetica,sans-Serif" font-weight="bold" font-size="11.00" fill="#000000">instance_roles</text>
<text text-anchor="start" x="87.0219" y="-324.8" font-family="Helvetica,sans-Serif" font-size="11.00" fill="#000000">[table]</text>
<polygon fill="none" stroke="#000000" points="8.5,-297.7 8.5,-316.7 121.5,-316.7 121.5,-297.7 8.5,-297.7"/>
<text text-anchor="start" x="11.5" y="-303.8" font-family="Helvetica,sans-Serif" font-size="11.00" fill="#000000">...</text>
<polygon fill="#ffffff" stroke="transparent" points="8.5,-278.7 8.5,-297.7 41.5,-297.7 41.5,-278.7 8.5,-278.7"/>
<polygon fill="none" stroke="#000000" points="8.5,-278.7 8.5,-297.7 41.5,-297.7 41.5,-278.7 8.5,-278.7"/>
<text text-anchor="start" x="11.5" y="-284.8" font-family="Helvetica,sans-Serif" font-size="11.00" fill="#000000"> &#160;</text>
<polygon fill="#ffffff" stroke="transparent" points="41.5,-278.7 41.5,-297.7 89.5,-297.7 89.5,-278.7 41.5,-278.7"/>
<polygon fill="none" stroke="#000000" points="41.5,-278.7 41.5,-297.7 89.5,-297.7 89.5,-278.7 41.5,-278.7"/>
<text text-anchor="start" x="54.1105" y="-284.8" font-family="Helvetica,sans-Serif" font-size="11.00" fill="#000000">0 rows</text>
<polygon fill="#ffffff" stroke="transparent" points="89.5,-278.7 89.5,-297.7 121.5,-297.7 121.5,-278.7 89.5,-278.7"/>
<polygon fill="none" stroke="#000000" points="89.5,-278.7 89.5,-297.7 121.5,-297.7 121.5,-278.7 89.5,-278.7"/>
<text text-anchor="start" x="102.9053" y="-284.8" font-family="Helvetica,sans-Serif" font-size="11.00" fill="#000000">2 &gt;</text>
</a>
</g>
</g>
<!-- users&#45;&gt;instance_roles -->
<g id="edge17" class="edge">
<title>users:w&#45;&gt;instance_roles:e</title>
<path fill="none" stroke="#000000" d="M155.2829,-306.7C144.2886,-306.7 137.1615,-306.7 121.5,-306.7"/>
<polygon fill="#000000" stroke="#000000" points="162,-306.7001 170,-310.3 166,-306.7 170,-306.7 170,-306.7 170,-306.7 166,-306.7 170,-303.1 162,-306.7001 162,-306.7001"/>
<ellipse fill="none" stroke="#000000" cx="158.8" cy="-306.7001" rx="3.2" ry="3.2"/>
</g>
<!-- event_reminders -->
<g id="node4" class="node">
<title>event_reminders</title>
<g id="a_node4"><a xlink:href="../../tables/event_reminders.html" xlink:title="event_reminders" target="_top">
<polygon fill="#ffffff" stroke="transparent" points="898,-232.2 898,-337.2 1022,-337.2 1022,-232.2 898,-232.2"/>
<polygon fill="#f5f5f5" stroke="transparent" points="898,-313.7 898,-336.7 1022,-336.7 1022,-313.7 898,-313.7"/>
<polygon fill="none" stroke="#000000" points="898,-313.7 898,-336.7 1022,-336.7 1022,-313.7 898,-313.7"/>
<text text-anchor="start" x="902.5487" y="-322.8" font-family="Helvetica,sans-Serif" font-weight="bold" font-size="11.00" fill="#000000">event_reminders</text>
<text text-anchor="start" x="987.5219" y="-321.8" font-family="Helvetica,sans-Serif" font-size="11.00" fill="#000000">[table]</text>
<polygon fill="none" stroke="#000000" points="898,-291.7 898,-313.7 1022,-313.7 1022,-291.7 898,-291.7"/>
<image xlink:href="../../images/primaryKeys.png" width="11px" height="12px" preserveAspectRatio="xMinYMin meet" x="903" y="-308.7"/>
<text text-anchor="start" x="919" y="-298.8" font-family="Helvetica,sans-Serif" font-size="11.00" fill="#000000">user_id</text>
<polygon fill="none" stroke="#000000" points="898,-269.7 898,-291.7 1022,-291.7 1022,-269.7 898,-269.7"/>
<image xlink:href="../../images/primaryKeys.png" width="11px" height="12px" preserveAspectRatio="xMinYMin meet" x="903" y="-286.7"/>
<text text-anchor="start" x="919" y="-276.8" font-family="Helvetica,sans-Serif" font-size="11.00" fill="#000000">event_id</text>
<polygon fill="none" stroke="#000000" points="898,-250.7 898,-269.7 1022,-269.7 1022,-250.7 898,-250.7"/>
<text text-anchor="start" x="901" y="-256.8" font-family="Helvetica,sans-Serif" font-size="11.00" fill="#000000">...</text>
<polygon fill="#ffffff" stroke="transparent" points="898,-231.7 898,-250.7 945,-250.7 945,-231.7 898,-231.7"/>
<polygon fill="none" stroke="#000000" points="898,-231.7 898,-250.7 945,-250.7 945,-231.7 898,-231.7"/>
<text text-anchor="start" x="901" y="-237.8" font-family="Helvetica,sans-Serif" font-size="11.00" fill="#000000">&lt; 2</text>
<polygon fill="#ffffff" stroke="transparent" points="945,-231.7 945,-250.7 996,-250.7 996,-231.7 945,-231.7"/>
<polygon fill="none" stroke="#000000" points="945,-231.7 945,-250.7 996,-250.7 996,-231.7 945,-231.7"/>
<text text-anchor="start" x="960.6105" y="-237.8" font-family="Helvetica,sans-Serif" font-size="11.00" fill="#000000">0 rows</text>
<polygon fill="#ffffff" stroke="transparent" points="996,-231.7 996,-250.7 1022,-250.7 1022,-231.7 996,-231.7"/>
<polygon fill="none" stroke="#000000" points="996,-231.7 996,-250.7 1022,-250.7 1022,-231.7 996,-231.7"/>
<text text-anchor="start" x="1012.8862" y="-237.8" font-family="Helvetica,sans-Serif" font-size="11.00" fill="#000000"> &#160;</text>
</a>
</g>
</g>
<!-- event_users -->
<g id="node5" class="node">
<title>event_users</title>
<g id="a_node5"><a xlink:href="../../tables/event_users.html" xlink:title="event_users" target="_top">
<polygon fill="#ffffff" stroke="transparent" points="649,-160.7 649,-382.7 849,-382.7 849,-160.7 649,-160.7"/>
<polygon fill="#f5f5f5" stroke="transparent" points="651,-357.7 651,-380.7 847,-380.7 847,-357.7 651,-357.7"/>
<polygon fill="none" stroke="#000000" points="651,-357.7 651,-380.7 847,-380.7 847,-357.7 651,-357.7"/>
<text text-anchor="start" x="656" y="-366.8" font-family="Helvetica,sans-Serif" font-weight="bold" font-size="11.00" fill="#000000">event_users</text>
<text text-anchor="start" x="812.0437" y="-365.8" font-family="Helvetica,sans-Serif" font-size="11.00" fill="#000000">[table]</text>
<polygon fill="none" stroke="#000000" points="651,-335.7 651,-357.7 750,-357.7 750,-335.7 651,-335.7"/>
<text text-anchor="start" x="671" y="-342.8" font-family="Helvetica,sans-Serif" font-size="11.00" fill="#000000">created_at</text>
<polygon fill="none" stroke="#000000" points="750,-335.7 750,-357.7 847,-357.7 847,-335.7 750,-335.7"/>
<text text-anchor="start" x="753" y="-343.4" font-family="Helvetica,sans-Serif" font-size="11.00" fill="#000000">timestamp[26,3]</text>
<polygon fill="none" stroke="#000000" points="651,-313.7 651,-335.7 750,-335.7 750,-313.7 651,-313.7"/>
<text text-anchor="start" x="671" y="-320.8" font-family="Helvetica,sans-Serif" font-size="11.00" fill="#000000">updated_at</text>
<polygon fill="none" stroke="#000000" points="750,-313.7 750,-335.7 847,-335.7 847,-313.7 750,-313.7"/>
<text text-anchor="start" x="753" y="-321.4" font-family="Helvetica,sans-Serif" font-size="11.00" fill="#000000">timestamp[26,3]</text>
<polygon fill="none" stroke="#000000" points="651,-291.7 651,-313.7 750,-313.7 750,-291.7 651,-291.7"/>
<image xlink:href="../../images/primaryKeys.png" width="11px" height="12px" preserveAspectRatio="xMinYMin meet" x="656" y="-308.7"/>
<text text-anchor="start" x="671" y="-298.8" font-family="Helvetica,sans-Serif" font-size="11.00" fill="#000000">user_id</text>
<polygon fill="none" stroke="#000000" points="750,-291.7 750,-313.7 847,-313.7 847,-291.7 750,-291.7"/>
<text text-anchor="start" x="753" y="-299.4" font-family="Helvetica,sans-Serif" font-size="11.00" fill="#000000">int4[10]</text>
<polygon fill="none" stroke="#000000" points="651,-269.7 651,-291.7 750,-291.7 750,-269.7 651,-269.7"/>
<image xlink:href="../../images/primaryKeys.png" width="11px" height="12px" preserveAspectRatio="xMinYMin meet" x="656" y="-286.7"/>
<text text-anchor="start" x="671" y="-276.8" font-family="Helvetica,sans-Serif" font-size="11.00" fill="#000000">event_id</text>
<polygon fill="none" stroke="#000000" points="750,-269.7 750,-291.7 847,-291.7 847,-269.7 750,-269.7"/>
<text text-anchor="start" x="753" y="-277.4" font-family="Helvetica,sans-Serif" font-size="11.00" fill="#000000">int4[10]</text>
<polygon fill="none" stroke="#000000" points="651,-247.7 651,-269.7 750,-269.7 750,-247.7 651,-247.7"/>
<image xlink:href="../../images/foreignKeys.png" width="11px" height="12px" preserveAspectRatio="xMinYMin meet" x="656" y="-264.7"/>
<text text-anchor="start" x="671" y="-254.8" font-family="Helvetica,sans-Serif" font-size="11.00" fill="#000000">event_role_id</text>
<polygon fill="none" stroke="#000000" points="750,-247.7 750,-269.7 847,-269.7 847,-247.7 750,-247.7"/>
<text text-anchor="start" x="753" y="-255.4" font-family="Helvetica,sans-Serif" font-size="11.00" fill="#000000">int4[10]</text>
<polygon fill="none" stroke="#000000" points="651,-225.7 651,-247.7 750,-247.7 750,-225.7 651,-225.7"/>
<image xlink:href="../../images/foreignKeys.png" width="11px" height="12px" preserveAspectRatio="xMinYMin meet" x="656" y="-242.7"/>
<text text-anchor="start" x="671" y="-232.8" font-family="Helvetica,sans-Serif" font-size="11.00" fill="#000000">rsvp_id</text>
<polygon fill="none" stroke="#000000" points="750,-225.7 750,-247.7 847,-247.7 847,-225.7 750,-225.7"/>
<text text-anchor="start" x="753" y="-233.4" font-family="Helvetica,sans-Serif" font-size="11.00" fill="#000000">int4[10]</text>
<polygon fill="none" stroke="#000000" points="651,-203.7 651,-225.7 750,-225.7 750,-203.7 651,-203.7"/>
<text text-anchor="start" x="671" y="-210.8" font-family="Helvetica,sans-Serif" font-size="11.00" fill="#000000">subscribed</text>
<polygon fill="none" stroke="#000000" points="750,-203.7 750,-225.7 847,-225.7 847,-203.7 750,-203.7"/>
<text text-anchor="start" x="753" y="-211.4" font-family="Helvetica,sans-Serif" font-size="11.00" fill="#000000">bool[1]</text>
<polygon fill="none" stroke="#000000" points="651,-181.7 651,-203.7 750,-203.7 750,-181.7 651,-181.7"/>
<text text-anchor="start" x="671" y="-188.8" font-family="Helvetica,sans-Serif" font-size="11.00" fill="#000000">title</text>
<polygon fill="none" stroke="#000000" points="750,-181.7 750,-203.7 847,-203.7 847,-181.7 750,-181.7"/>
<text text-anchor="start" x="752.9468" y="-189.4" font-family="Helvetica,sans-Serif" font-size="11.00" fill="#000000">_text[2147483647]</text>
<polygon fill="#ffffff" stroke="transparent" points="651,-162.7 651,-181.7 692,-181.7 692,-162.7 651,-162.7"/>
<polygon fill="none" stroke="#000000" points="651,-162.7 651,-181.7 692,-181.7 692,-162.7 651,-162.7"/>
<text text-anchor="start" x="654" y="-168.8" font-family="Helvetica,sans-Serif" font-size="11.00" fill="#000000">&lt; 4</text>
<polygon fill="#ffffff" stroke="transparent" points="692,-162.7 692,-181.7 750,-181.7 750,-162.7 692,-162.7"/>
<polygon fill="none" stroke="#000000" points="692,-162.7 692,-181.7 750,-181.7 750,-162.7 692,-162.7"/>
<text text-anchor="start" x="714.6105" y="-168.8" font-family="Helvetica,sans-Serif" font-size="11.00" fill="#000000">0 rows</text>
<polygon fill="#ffffff" stroke="transparent" points="750,-162.7 750,-181.7 847,-181.7 847,-162.7 750,-162.7"/>
<polygon fill="none" stroke="#000000" points="750,-162.7 750,-181.7 847,-181.7 847,-162.7 750,-162.7"/>
<text text-anchor="start" x="828.4053" y="-168.8" font-family="Helvetica,sans-Serif" font-size="11.00" fill="#000000">2 &gt;</text>
<polygon fill="none" stroke="#000000" stroke-width="2" points="650,-161.7 650,-381.7 848,-381.7 848,-161.7 650,-161.7"/>
</a>
</g>
</g>
<!-- event_reminders&#45;&gt;event_users -->
<g id="edge3" class="edge">
<title>event_reminders:w&#45;&gt;event_users:e</title>
<path fill="none" stroke="#000000" d="M883.276,-280.7C871.2815,-280.7 863.8229,-280.7 847,-280.7"/>
<polygon fill="#000000" stroke="#000000" points="890,-280.7001 898,-284.3 894,-280.7 898,-280.7 898,-280.7 898,-280.7 894,-280.7 898,-277.1 890,-280.7001 890,-280.7001"/>
<ellipse fill="none" stroke="#000000" cx="886.8" cy="-280.7001" rx="3.2" ry="3.2"/>
</g>
<!-- event_reminders&#45;&gt;event_users -->
<g id="edge4" class="edge">
<title>event_reminders:w&#45;&gt;event_users:e</title>
<path fill="none" stroke="#000000" d="M883.276,-302.7C871.2815,-302.7 863.8229,-302.7 847,-302.7"/>
<polygon fill="#000000" stroke="#000000" points="890,-302.7001 898,-306.3 894,-302.7 898,-302.7 898,-302.7 898,-302.7 894,-302.7 898,-299.1 890,-302.7001 890,-302.7001"/>
<ellipse fill="none" stroke="#000000" cx="886.8" cy="-302.7001" rx="3.2" ry="3.2"/>
</g>
<!-- event_users&#45;&gt;users -->
<g id="edge11" class="edge">
<title>event_users:w&#45;&gt;users:e</title>
<path fill="none" stroke="#000000" d="M636.5615,-302.5492C503.6423,-299.7631 455.7409,-259.9086 327,-312.7 304.0124,-322.1263 310.8452,-350.7 286,-350.7"/>
<polygon fill="#000000" stroke="#000000" points="643.0004,-302.6164 650.9624,-306.2998 647.0002,-302.6582 651,-302.7 651,-302.7 651,-302.7 647.0002,-302.6582 651.0376,-299.1002 643.0004,-302.6164 643.0004,-302.6164"/>
<ellipse fill="none" stroke="#000000" cx="639.8006" cy="-302.583" rx="3.2" ry="3.2"/>
</g>
<!-- event_roles -->
<g id="node7" class="node">
<title>event_roles</title>
<g id="a_node7"><a xlink:href="../../tables/event_roles.html" xlink:title="event_roles" target="_top">
<polygon fill="#ffffff" stroke="transparent" points="498.5,-38.2 498.5,-143.2 597.5,-143.2 597.5,-38.2 498.5,-38.2"/>
<polygon fill="#f5f5f5" stroke="transparent" points="499,-119.7 499,-142.7 598,-142.7 598,-119.7 499,-119.7"/>
<polygon fill="none" stroke="#000000" points="499,-119.7 499,-142.7 598,-142.7 598,-119.7 499,-119.7"/>
<text text-anchor="start" x="503.5755" y="-128.8" font-family="Helvetica,sans-Serif" font-weight="bold" font-size="11.00" fill="#000000">event_roles</text>
<text text-anchor="start" x="563.5219" y="-127.8" font-family="Helvetica,sans-Serif" font-size="11.00" fill="#000000">[table]</text>
<polygon fill="none" stroke="#000000" points="499,-97.7 499,-119.7 598,-119.7 598,-97.7 499,-97.7"/>
<image xlink:href="../../images/primaryKeys.png" width="11px" height="12px" preserveAspectRatio="xMinYMin meet" x="504" y="-114.7"/>
<text text-anchor="start" x="524" y="-104.8" font-family="Helvetica,sans-Serif" font-size="11.00" fill="#000000">id</text>
<polygon fill="#ffffff" stroke="transparent" points="499,-75.7 499,-97.7 598,-97.7 598,-75.7 499,-75.7"/>
<polygon fill="none" stroke="#000000" points="499,-75.7 499,-97.7 598,-97.7 598,-75.7 499,-75.7"/>
<text text-anchor="start" x="524" y="-82.8" font-family="Helvetica,sans-Serif" font-size="11.00" fill="#000000">name</text>
<polygon fill="none" stroke="#000000" points="499,-56.7 499,-75.7 598,-75.7 598,-56.7 499,-56.7"/>
<text text-anchor="start" x="502" y="-62.8" font-family="Helvetica,sans-Serif" font-size="11.00" fill="#000000">...</text>
<polygon fill="#ffffff" stroke="transparent" points="499,-37.7 499,-56.7 525,-56.7 525,-37.7 499,-37.7"/>
<polygon fill="none" stroke="#000000" points="499,-37.7 499,-56.7 525,-56.7 525,-37.7 499,-37.7"/>
<text text-anchor="start" x="502" y="-43.8" font-family="Helvetica,sans-Serif" font-size="11.00" fill="#000000"> &#160;</text>
<polygon fill="#ffffff" stroke="transparent" points="525,-37.7 525,-56.7 570,-56.7 570,-37.7 525,-37.7"/>
<polygon fill="none" stroke="#000000" points="525,-37.7 525,-56.7 570,-56.7 570,-37.7 525,-37.7"/>
<text text-anchor="start" x="534.6105" y="-43.8" font-family="Helvetica,sans-Serif" font-size="11.00" fill="#000000">0 rows</text>
<polygon fill="#ffffff" stroke="transparent" points="570,-37.7 570,-56.7 598,-56.7 598,-37.7 570,-37.7"/>
<polygon fill="none" stroke="#000000" points="570,-37.7 570,-56.7 598,-56.7 598,-37.7 570,-37.7"/>
<text text-anchor="start" x="579.4053" y="-43.8" font-family="Helvetica,sans-Serif" font-size="11.00" fill="#000000">2 &gt;</text>
</a>
</g>
</g>
<!-- event_users&#45;&gt;event_roles -->
<g id="edge9" class="edge">
<title>event_users:w&#45;&gt;event_roles:e</title>
<path fill="none" stroke="#000000" d="M636.6362,-255.8375C593.7285,-235.1 662.9057,-108.7 598,-108.7"/>
<polygon fill="#000000" stroke="#000000" points="643.1543,-257.1364 650.2964,-262.2306 647.0771,-257.9182 651,-258.7 651,-258.7 651,-258.7 647.0771,-257.9182 651.7036,-255.1694 643.1543,-257.1364 643.1543,-257.1364"/>
<ellipse fill="none" stroke="#000000" cx="640.016" cy="-256.511" rx="3.2" ry="3.2"/>
</g>
<!-- events -->
<g id="node9" class="node">
<title>events</title>
<g id="a_node9"><a xlink:href="../../tables/events.html" xlink:title="events" target="_top">
<polygon fill="#ffffff" stroke="transparent" points="496,-457.2 496,-584.2 600,-584.2 600,-457.2 496,-457.2"/>
<polygon fill="#f5f5f5" stroke="transparent" points="496,-560.7 496,-583.7 600,-583.7 600,-560.7 496,-560.7"/>
<polygon fill="none" stroke="#000000" points="496,-560.7 496,-583.7 600,-583.7 600,-560.7 496,-560.7"/>
<text text-anchor="start" x="501" y="-569.8" font-family="Helvetica,sans-Serif" font-weight="bold" font-size="11.00" fill="#000000">events</text>
<text text-anchor="start" x="565.0437" y="-568.8" font-family="Helvetica,sans-Serif" font-size="11.00" fill="#000000">[table]</text>
<polygon fill="none" stroke="#000000" points="496,-538.7 496,-560.7 600,-560.7 600,-538.7 496,-538.7"/>
<image xlink:href="../../images/primaryKeys.png" width="11px" height="12px" preserveAspectRatio="xMinYMin meet" x="501" y="-555.7"/>
<text text-anchor="start" x="516" y="-545.8" font-family="Helvetica,sans-Serif" font-size="11.00" fill="#000000">id</text>
<polygon fill="none" stroke="#000000" points="496,-516.7 496,-538.7 600,-538.7 600,-516.7 496,-516.7"/>
<image xlink:href="../../images/foreignKeys.png" width="11px" height="12px" preserveAspectRatio="xMinYMin meet" x="501" y="-533.7"/>
<text text-anchor="start" x="516" y="-523.8" font-family="Helvetica,sans-Serif" font-size="11.00" fill="#000000">venue_id</text>
<polygon fill="none" stroke="#000000" points="496,-494.7 496,-516.7 600,-516.7 600,-494.7 496,-494.7"/>
<image xlink:href="../../images/foreignKeys.png" width="11px" height="12px" preserveAspectRatio="xMinYMin meet" x="501" y="-511.7"/>
<text text-anchor="start" x="516" y="-501.8" font-family="Helvetica,sans-Serif" font-size="11.00" fill="#000000">chapter_id</text>
<polygon fill="none" stroke="#000000" points="496,-475.7 496,-494.7 600,-494.7 600,-475.7 496,-475.7"/>
<text text-anchor="start" x="499" y="-481.8" font-family="Helvetica,sans-Serif" font-size="11.00" fill="#000000">...</text>
<polygon fill="#ffffff" stroke="transparent" points="496,-456.7 496,-475.7 529,-475.7 529,-456.7 496,-456.7"/>
<polygon fill="none" stroke="#000000" points="496,-456.7 496,-475.7 529,-475.7 529,-456.7 496,-456.7"/>
<text text-anchor="start" x="499" y="-462.8" font-family="Helvetica,sans-Serif" font-size="11.00" fill="#000000">&lt; 3</text>
<polygon fill="#ffffff" stroke="transparent" points="529,-456.7 529,-475.7 573,-475.7 573,-456.7 529,-456.7"/>
<polygon fill="none" stroke="#000000" points="529,-456.7 529,-475.7 573,-475.7 573,-456.7 529,-456.7"/>
<text text-anchor="start" x="537.6105" y="-462.8" font-family="Helvetica,sans-Serif" font-size="11.00" fill="#000000">0 rows</text>
<polygon fill="#ffffff" stroke="transparent" points="573,-456.7 573,-475.7 600,-475.7 600,-456.7 573,-456.7"/>
<polygon fill="none" stroke="#000000" points="573,-456.7 573,-475.7 600,-475.7 600,-456.7 573,-456.7"/>
<text text-anchor="start" x="581.4053" y="-462.8" font-family="Helvetica,sans-Serif" font-size="11.00" fill="#000000">3 &gt;</text>
</a>
</g>
</g>
<!-- event_users&#45;&gt;events -->
<g id="edge8" class="edge">
<title>event_users:w&#45;&gt;events:e</title>
<path fill="none" stroke="#000000" d="M637.827,-286.5686C601.5665,-325.9072 655.4951,-549.7 600,-549.7"/>
<polygon fill="#000000" stroke="#000000" points="643.6924,-283.9556 652.465,-283.9884 647.3462,-282.3278 651,-280.7 651,-280.7 651,-280.7 647.3462,-282.3278 649.535,-277.4116 643.6924,-283.9556 643.6924,-283.9556"/>
<ellipse fill="none" stroke="#000000" cx="640.7693" cy="-285.2578" rx="3.2" ry="3.2"/>
</g>
<!-- rsvp -->
<g id="node11" class="node">
<title>rsvp</title>
<g id="a_node11"><a xlink:href="../../tables/rsvp.html" xlink:title="rsvp" target="_top">
<polygon fill="#ffffff" stroke="transparent" points="504,-166.2 504,-271.2 592,-271.2 592,-166.2 504,-166.2"/>
<polygon fill="#f5f5f5" stroke="transparent" points="504,-247.7 504,-270.7 592,-270.7 592,-247.7 504,-247.7"/>
<polygon fill="none" stroke="#000000" points="504,-247.7 504,-270.7 592,-270.7 592,-247.7 504,-247.7"/>
<text text-anchor="start" x="509" y="-256.8" font-family="Helvetica,sans-Serif" font-weight="bold" font-size="11.00" fill="#000000">rsvp</text>
<text text-anchor="start" x="557.0437" y="-255.8" font-family="Helvetica,sans-Serif" font-size="11.00" fill="#000000">[table]</text>
<polygon fill="none" stroke="#000000" points="504,-225.7 504,-247.7 592,-247.7 592,-225.7 504,-225.7"/>
<image xlink:href="../../images/primaryKeys.png" width="11px" height="12px" preserveAspectRatio="xMinYMin meet" x="509" y="-242.7"/>
<text text-anchor="start" x="524" y="-232.8" font-family="Helvetica,sans-Serif" font-size="11.00" fill="#000000">id</text>
<polygon fill="#ffffff" stroke="transparent" points="504,-203.7 504,-225.7 592,-225.7 592,-203.7 504,-203.7"/>
<polygon fill="none" stroke="#000000" points="504,-203.7 504,-225.7 592,-225.7 592,-203.7 504,-203.7"/>
<text text-anchor="start" x="524" y="-210.8" font-family="Helvetica,sans-Serif" font-size="11.00" fill="#000000">name</text>
<polygon fill="none" stroke="#000000" points="504,-184.7 504,-203.7 592,-203.7 592,-184.7 504,-184.7"/>
<text text-anchor="start" x="507" y="-190.8" font-family="Helvetica,sans-Serif" font-size="11.00" fill="#000000">...</text>
<polygon fill="#ffffff" stroke="transparent" points="504,-165.7 504,-184.7 524,-184.7 524,-165.7 504,-165.7"/>
<polygon fill="none" stroke="#000000" points="504,-165.7 504,-184.7 524,-184.7 524,-165.7 504,-165.7"/>
<text text-anchor="start" x="507" y="-171.8" font-family="Helvetica,sans-Serif" font-size="11.00" fill="#000000"> &#160;</text>
<polygon fill="#ffffff" stroke="transparent" points="524,-165.7 524,-184.7 566,-184.7 566,-165.7 524,-165.7"/>
<polygon fill="none" stroke="#000000" points="524,-165.7 524,-184.7 566,-184.7 566,-165.7 524,-165.7"/>
<text text-anchor="start" x="530.6105" y="-171.8" font-family="Helvetica,sans-Serif" font-size="11.00" fill="#000000">0 rows</text>
<polygon fill="#ffffff" stroke="transparent" points="566,-165.7 566,-184.7 592,-184.7 592,-165.7 566,-165.7"/>
<polygon fill="none" stroke="#000000" points="566,-165.7 566,-184.7 592,-184.7 592,-165.7 566,-165.7"/>
<text text-anchor="start" x="573.4053" y="-171.8" font-family="Helvetica,sans-Serif" font-size="11.00" fill="#000000">1 &gt;</text>
</a>
</g>
</g>
<!-- event_users&#45;&gt;rsvp -->
<g id="edge10" class="edge">
<title>event_users:w&#45;&gt;rsvp:e</title>
<path fill="none" stroke="#000000" d="M636.2032,-236.7C620.9686,-236.7 612.4861,-236.7 592,-236.7"/>
<polygon fill="#000000" stroke="#000000" points="643,-236.7001 651,-240.3 647,-236.7 651,-236.7 651,-236.7 651,-236.7 647,-236.7 651,-233.1 643,-236.7001 643,-236.7001"/>
<ellipse fill="none" stroke="#000000" cx="639.8" cy="-236.7001" rx="3.2" ry="3.2"/>
</g>
<!-- event_role_permissions -->
<g id="node6" class="node">
<title>event_role_permissions</title>
<g id="a_node6"><a xlink:href="../../tables/event_role_permissions.html" xlink:title="event_role_permissions" target="_top">
<polygon fill="#ffffff" stroke="transparent" points="669.5,-78.2 669.5,-139.2 828.5,-139.2 828.5,-78.2 669.5,-78.2"/>
<polygon fill="#f5f5f5" stroke="transparent" points="670,-115.7 670,-138.7 829,-138.7 829,-115.7 670,-115.7"/>
<polygon fill="none" stroke="#000000" points="670,-115.7 670,-138.7 829,-138.7 829,-115.7 670,-115.7"/>
<text text-anchor="start" x="674.9354" y="-124.8" font-family="Helvetica,sans-Serif" font-weight="bold" font-size="11.00" fill="#000000">event_role_permissions</text>
<text text-anchor="start" x="794.5219" y="-123.8" font-family="Helvetica,sans-Serif" font-size="11.00" fill="#000000">[table]</text>
<polygon fill="none" stroke="#000000" points="670,-96.7 670,-115.7 829,-115.7 829,-96.7 670,-96.7"/>
<text text-anchor="start" x="673" y="-102.8" font-family="Helvetica,sans-Serif" font-size="11.00" fill="#000000">...</text>
<polygon fill="#ffffff" stroke="transparent" points="670,-77.7 670,-96.7 735,-96.7 735,-77.7 670,-77.7"/>
<polygon fill="none" stroke="#000000" points="670,-77.7 670,-96.7 735,-96.7 735,-77.7 670,-77.7"/>
<text text-anchor="start" x="673" y="-83.8" font-family="Helvetica,sans-Serif" font-size="11.00" fill="#000000">&lt; 2</text>
<polygon fill="#ffffff" stroke="transparent" points="735,-77.7 735,-96.7 795,-96.7 795,-77.7 735,-77.7"/>
<polygon fill="none" stroke="#000000" points="735,-77.7 735,-96.7 795,-96.7 795,-77.7 735,-77.7"/>
<text text-anchor="start" x="759.6105" y="-83.8" font-family="Helvetica,sans-Serif" font-size="11.00" fill="#000000">0 rows</text>
<polygon fill="#ffffff" stroke="transparent" points="795,-77.7 795,-96.7 829,-96.7 829,-77.7 795,-77.7"/>
<polygon fill="none" stroke="#000000" points="795,-77.7 795,-96.7 829,-96.7 829,-77.7 795,-77.7"/>
<text text-anchor="start" x="819.8862" y="-83.8" font-family="Helvetica,sans-Serif" font-size="11.00" fill="#000000"> &#160;</text>
</a>
</g>
</g>
<!-- event_role_permissions&#45;&gt;event_roles -->
<g id="edge5" class="edge">
<title>event_role_permissions:w&#45;&gt;event_roles:e</title>
<path fill="none" stroke="#000000" d="M655.3755,-105.9354C634.5299,-106.6426 624.523,-108.7 598,-108.7"/>
<polygon fill="#000000" stroke="#000000" points="662.001,-105.8288 670.058,-109.2995 666.0005,-105.7644 670,-105.7 670,-105.7 670,-105.7 666.0005,-105.7644 669.942,-102.1005 662.001,-105.8288 662.001,-105.8288"/>
<ellipse fill="none" stroke="#000000" cx="658.8015" cy="-105.8803" rx="3.2" ry="3.2"/>
</g>
<!-- event_sponsors -->
<g id="node8" class="node">
<title>event_sponsors</title>
<g id="a_node8"><a xlink:href="../../tables/event_sponsors.html" xlink:title="event_sponsors" target="_top">
<polygon fill="#ffffff" stroke="transparent" points="689,-563.2 689,-624.2 809,-624.2 809,-563.2 689,-563.2"/>
<polygon fill="#f5f5f5" stroke="transparent" points="689,-600.7 689,-623.7 809,-623.7 809,-600.7 689,-600.7"/>
<polygon fill="none" stroke="#000000" points="689,-600.7 689,-623.7 809,-623.7 809,-600.7 689,-600.7"/>
<text text-anchor="start" x="693.681" y="-609.8" font-family="Helvetica,sans-Serif" font-weight="bold" font-size="11.00" fill="#000000">event_sponsors</text>
<text text-anchor="start" x="774.5219" y="-608.8" font-family="Helvetica,sans-Serif" font-size="11.00" fill="#000000">[table]</text>
<polygon fill="none" stroke="#000000" points="689,-581.7 689,-600.7 809,-600.7 809,-581.7 689,-581.7"/>
<text text-anchor="start" x="692" y="-587.8" font-family="Helvetica,sans-Serif" font-size="11.00" fill="#000000">...</text>
<polygon fill="#ffffff" stroke="transparent" points="689,-562.7 689,-581.7 734,-581.7 734,-562.7 689,-562.7"/>
<polygon fill="none" stroke="#000000" points="689,-562.7 689,-581.7 734,-581.7 734,-562.7 689,-562.7"/>
<text text-anchor="start" x="692" y="-568.8" font-family="Helvetica,sans-Serif" font-size="11.00" fill="#000000">&lt; 2</text>
<polygon fill="#ffffff" stroke="transparent" points="734,-562.7 734,-581.7 784,-581.7 784,-562.7 734,-562.7"/>
<polygon fill="none" stroke="#000000" points="734,-562.7 734,-581.7 784,-581.7 784,-562.7 734,-562.7"/>
<text text-anchor="start" x="748.6105" y="-568.8" font-family="Helvetica,sans-Serif" font-size="11.00" fill="#000000">0 rows</text>
<polygon fill="#ffffff" stroke="transparent" points="784,-562.7 784,-581.7 809,-581.7 809,-562.7 784,-562.7"/>
<polygon fill="none" stroke="#000000" points="784,-562.7 784,-581.7 809,-581.7 809,-562.7 784,-562.7"/>
<text text-anchor="start" x="799.8862" y="-568.8" font-family="Helvetica,sans-Serif" font-size="11.00" fill="#000000"> &#160;</text>
</a>
</g>
</g>
<!-- event_sponsors&#45;&gt;events -->
<g id="edge6" class="edge">
<title>event_sponsors:w&#45;&gt;events:e</title>
<path fill="none" stroke="#000000" d="M674.4581,-588.9383C644.3237,-581.0906 638.1071,-549.7 600,-549.7"/>
<polygon fill="#000000" stroke="#000000" points="681.0581,-589.7378 688.567,-594.2739 685.029,-590.2189 689,-590.7 689,-590.7 689,-590.7 685.029,-590.2189 689.433,-587.1261 681.0581,-589.7378 681.0581,-589.7378"/>
<ellipse fill="none" stroke="#000000" cx="677.8813" cy="-589.3529" rx="3.2" ry="3.2"/>
</g>
<!-- events&#45;&gt;chapters -->
<g id="edge12" class="edge">
<title>events:w&#45;&gt;chapters:e</title>
<path fill="none" stroke="#000000" d="M481.5498,-505.5349C417.1066,-504 396.4975,-491.9368 327,-476.7 301.8315,-471.182 296.7663,-461.7 271,-461.7"/>
<polygon fill="#000000" stroke="#000000" points="488.0005,-505.6086 495.9588,-509.2998 492.0003,-505.6543 496,-505.7 496,-505.7 496,-505.7 492.0003,-505.6543 496.0412,-502.1002 488.0005,-505.6086 488.0005,-505.6086"/>
<ellipse fill="none" stroke="#000000" cx="484.8007" cy="-505.572" rx="3.2" ry="3.2"/>
</g>
<!-- venues -->
<g id="node12" class="node">
<title>venues</title>
<g id="a_node12"><a xlink:href="../../tables/venues.html" xlink:title="venues" target="_top">
<polygon fill="#ffffff" stroke="transparent" points="351,-515.2 351,-576.2 431,-576.2 431,-515.2 351,-515.2"/>
<polygon fill="#f5f5f5" stroke="transparent" points="351,-552.7 351,-575.7 431,-575.7 431,-552.7 351,-552.7"/>
<polygon fill="none" stroke="#000000" points="351,-552.7 351,-575.7 431,-575.7 431,-552.7 351,-552.7"/>
<text text-anchor="start" x="356" y="-561.8" font-family="Helvetica,sans-Serif" font-weight="bold" font-size="11.00" fill="#000000">venues</text>
<text text-anchor="start" x="396.0437" y="-560.8" font-family="Helvetica,sans-Serif" font-size="11.00" fill="#000000">[table]</text>
<polygon fill="none" stroke="#000000" points="351,-533.7 351,-552.7 431,-552.7 431,-533.7 351,-533.7"/>
<text text-anchor="start" x="354" y="-539.8" font-family="Helvetica,sans-Serif" font-size="11.00" fill="#000000">...</text>
<polygon fill="#ffffff" stroke="transparent" points="351,-514.7 351,-533.7 372,-533.7 372,-514.7 351,-514.7"/>
<polygon fill="none" stroke="#000000" points="351,-514.7 351,-533.7 372,-533.7 372,-514.7 351,-514.7"/>
<text text-anchor="start" x="353.7027" y="-520.8" font-family="Helvetica,sans-Serif" font-size="11.00" fill="#000000">&lt; 1</text>
<polygon fill="#ffffff" stroke="transparent" points="372,-514.7 372,-533.7 410,-533.7 410,-514.7 372,-514.7"/>
<polygon fill="none" stroke="#000000" points="372,-514.7 372,-533.7 410,-533.7 410,-514.7 372,-514.7"/>
<text text-anchor="start" x="374.8053" y="-520.8" font-family="Helvetica,sans-Serif" font-size="11.00" fill="#000000">0 rows</text>
<polygon fill="#ffffff" stroke="transparent" points="410,-514.7 410,-533.7 431,-533.7 431,-514.7 410,-514.7"/>
<polygon fill="none" stroke="#000000" points="410,-514.7 410,-533.7 431,-533.7 431,-514.7 410,-514.7"/>
<text text-anchor="start" x="412.7027" y="-520.8" font-family="Helvetica,sans-Serif" font-size="11.00" fill="#000000">2 &gt;</text>
</a>
</g>
</g>
<!-- events&#45;&gt;venues -->
<g id="edge13" class="edge">
<title>events:w&#45;&gt;venues:e</title>
<path fill="none" stroke="#000000" d="M481.8594,-508.481C462.2771,-517.0858 458.6578,-542.7 431,-542.7"/>
<polygon fill="#000000" stroke="#000000" points="488.1504,-507.2438 496.6947,-509.2323 492.0752,-506.4719 496,-505.7 496,-505.7 496,-505.7 492.0752,-506.4719 495.3053,-502.1677 488.1504,-507.2438 488.1504,-507.2438"/>
<ellipse fill="none" stroke="#000000" cx="485.0105" cy="-507.8614" rx="3.2" ry="3.2"/>
</g>
<!-- events&#45;&gt;venues -->
<g id="edge14" class="edge">
<title>events:w&#45;&gt;venues:e</title>
<path fill="none" stroke="#000000" d="M481.5326,-529.0843C463.3712,-532.7977 455.0891,-542.7 431,-542.7"/>
<polygon fill="#000000" stroke="#000000" points="488.0364,-528.462 496.3429,-531.2836 492.0182,-528.081 496,-527.7 496,-527.7 496,-527.7 492.0182,-528.081 495.6571,-524.1164 488.0364,-528.462 488.0364,-528.462"/>
<ellipse fill="none" stroke="#000000" cx="484.8509" cy="-528.7668" rx="3.2" ry="3.2"/>
</g>
<!-- event_tags -->
<g id="node10" class="node">
<title>event_tags</title>
<g id="a_node10"><a xlink:href="../../tables/event_tags.html" xlink:title="event_tags" target="_top">
<polygon fill="#ffffff" stroke="transparent" points="701,-481.2 701,-542.2 797,-542.2 797,-481.2 701,-481.2"/>
<polygon fill="#f5f5f5" stroke="transparent" points="701,-518.7 701,-541.7 797,-541.7 797,-518.7 701,-518.7"/>
<polygon fill="none" stroke="#000000" points="701,-518.7 701,-541.7 797,-541.7 797,-518.7 701,-518.7"/>
<text text-anchor="start" x="705.5984" y="-527.8" font-family="Helvetica,sans-Serif" font-weight="bold" font-size="11.00" fill="#000000">event_tags</text>
<text text-anchor="start" x="762.5219" y="-526.8" font-family="Helvetica,sans-Serif" font-size="11.00" fill="#000000">[table]</text>
<polygon fill="none" stroke="#000000" points="701,-499.7 701,-518.7 797,-518.7 797,-499.7 701,-499.7"/>
<text text-anchor="start" x="704" y="-505.8" font-family="Helvetica,sans-Serif" font-size="11.00" fill="#000000">...</text>
<polygon fill="#ffffff" stroke="transparent" points="701,-480.7 701,-499.7 734,-499.7 734,-480.7 701,-480.7"/>
<polygon fill="none" stroke="#000000" points="701,-480.7 701,-499.7 734,-499.7 734,-480.7 701,-480.7"/>
<text text-anchor="start" x="704" y="-486.8" font-family="Helvetica,sans-Serif" font-size="11.00" fill="#000000">&lt; 2</text>
<polygon fill="#ffffff" stroke="transparent" points="734,-480.7 734,-499.7 778,-499.7 778,-480.7 734,-480.7"/>
<polygon fill="none" stroke="#000000" points="734,-480.7 734,-499.7 778,-499.7 778,-480.7 734,-480.7"/>
<text text-anchor="start" x="742.6105" y="-486.8" font-family="Helvetica,sans-Serif" font-size="11.00" fill="#000000">0 rows</text>
<polygon fill="#ffffff" stroke="transparent" points="778,-480.7 778,-499.7 797,-499.7 797,-480.7 778,-480.7"/>
<polygon fill="none" stroke="#000000" points="778,-480.7 778,-499.7 797,-499.7 797,-480.7 778,-480.7"/>
<text text-anchor="start" x="787.8862" y="-486.8" font-family="Helvetica,sans-Serif" font-size="11.00" fill="#000000"> &#160;</text>
</a>
</g>
</g>
<!-- event_tags&#45;&gt;events -->
<g id="edge7" class="edge">
<title>event_tags:w&#45;&gt;events:e</title>
<path fill="none" stroke="#000000" d="M686.5788,-510.0641C651.1247,-517.1783 643.1476,-549.7 600,-549.7"/>
<polygon fill="#000000" stroke="#000000" points="693.0356,-509.4534 701.339,-512.284 697.0178,-509.0767 701,-508.7 701,-508.7 701,-508.7 697.0178,-509.0767 700.661,-505.116 693.0356,-509.4534 693.0356,-509.4534"/>
<ellipse fill="none" stroke="#000000" cx="689.8498" cy="-509.7548" rx="3.2" ry="3.2"/>
</g>
<!-- venues&#45;&gt;chapters -->
<g id="edge18" class="edge">
<title>venues:w&#45;&gt;chapters:e</title>
<path fill="none" stroke="#000000" d="M336.7862,-540.005C304.1795,-525.9502 316.0642,-461.7 271,-461.7"/>
<polygon fill="#000000" stroke="#000000" points="343.14,-541.2097 350.3294,-546.237 347.07,-541.9548 351,-542.7 351,-542.7 351,-542.7 347.07,-541.9548 351.6706,-539.163 343.14,-541.2097 343.14,-541.2097"/>
<ellipse fill="none" stroke="#000000" cx="339.996" cy="-540.6135" rx="3.2" ry="3.2"/>
</g>
<!-- user_bans -->
<g id="node13" class="node">
<title>user_bans</title>
<g id="a_node13"><a xlink:href="../../tables/user_bans.html" xlink:title="user_bans" target="_top">
<polygon fill="#ffffff" stroke="transparent" points="344,-405.2 344,-466.2 438,-466.2 438,-405.2 344,-405.2"/>
<polygon fill="#f5f5f5" stroke="transparent" points="344,-442.7 344,-465.7 438,-465.7 438,-442.7 344,-442.7"/>
<polygon fill="none" stroke="#000000" points="344,-442.7 344,-465.7 438,-465.7 438,-442.7 344,-442.7"/>
<text text-anchor="start" x="348.8244" y="-451.8" font-family="Helvetica,sans-Serif" font-weight="bold" font-size="11.00" fill="#000000">user_bans</text>
<text text-anchor="start" x="403.5219" y="-450.8" font-family="Helvetica,sans-Serif" font-size="11.00" fill="#000000">[table]</text>
<polygon fill="none" stroke="#000000" points="344,-423.7 344,-442.7 438,-442.7 438,-423.7 344,-423.7"/>
<text text-anchor="start" x="347" y="-429.8" font-family="Helvetica,sans-Serif" font-size="11.00" fill="#000000">...</text>
<polygon fill="#ffffff" stroke="transparent" points="344,-404.7 344,-423.7 376,-423.7 376,-404.7 344,-404.7"/>
<polygon fill="none" stroke="#000000" points="344,-404.7 344,-423.7 376,-423.7 376,-404.7 344,-404.7"/>
<text text-anchor="start" x="347" y="-410.8" font-family="Helvetica,sans-Serif" font-size="11.00" fill="#000000">&lt; 2</text>
<polygon fill="#ffffff" stroke="transparent" points="376,-404.7 376,-423.7 420,-423.7 420,-404.7 376,-404.7"/>
<polygon fill="none" stroke="#000000" points="376,-404.7 376,-423.7 420,-423.7 420,-404.7 376,-404.7"/>
<text text-anchor="start" x="384.6105" y="-410.8" font-family="Helvetica,sans-Serif" font-size="11.00" fill="#000000">0 rows</text>
<polygon fill="#ffffff" stroke="transparent" points="420,-404.7 420,-423.7 438,-423.7 438,-404.7 420,-404.7"/>
<polygon fill="none" stroke="#000000" points="420,-404.7 420,-423.7 438,-423.7 438,-404.7 420,-404.7"/>
<text text-anchor="start" x="428.8862" y="-410.8" font-family="Helvetica,sans-Serif" font-size="11.00" fill="#000000"> &#160;</text>
</a>
</g>
</g>
<!-- user_bans&#45;&gt;chapters -->
<g id="edge15" class="edge">
<title>user_bans:w&#45;&gt;chapters:e</title>
<path fill="none" stroke="#000000" d="M329.7176,-434.6028C307.3212,-441.0545 300.456,-461.7 271,-461.7"/>
<polygon fill="#000000" stroke="#000000" points="336.0701,-433.7565 344.4754,-436.2685 340.035,-433.2283 344,-432.7 344,-432.7 344,-432.7 340.035,-433.2283 343.5246,-429.1315 336.0701,-433.7565 336.0701,-433.7565"/>
<ellipse fill="none" stroke="#000000" cx="332.8981" cy="-434.1791" rx="3.2" ry="3.2"/>
</g>
<!-- user_bans&#45;&gt;users -->
<g id="edge16" class="edge">
<title>user_bans:w&#45;&gt;users:e</title>
<path fill="none" stroke="#000000" d="M329.8756,-428.745C306.3298,-412.3652 324.7109,-350.7 286,-350.7"/>
<polygon fill="#000000" stroke="#000000" points="336.2963,-430.5428 343.0293,-436.1667 340.1482,-431.6214 344,-432.7 344,-432.7 344,-432.7 340.1482,-431.6214 344.9707,-429.2333 336.2963,-430.5428 336.2963,-430.5428"/>
<ellipse fill="none" stroke="#000000" cx="333.2148" cy="-429.6799" rx="3.2" ry="3.2"/>
</g>
</g>
</svg>
