<?xml version="1.0" encoding="UTF-8" standalone="no"?>
<!DOCTYPE svg PUBLIC "-//W3C//DTD SVG 1.1//EN"
 "http://www.w3.org/Graphics/SVG/1.1/DTD/svg11.dtd">
<!-- Generated by graphviz version 2.40.1 (20161225.0304)
 -->
<!-- Title: oneDegreeRelationshipsDiagram Pages: 1 -->
<svg width="562pt" height="577pt"
 viewBox="0.00 0.00 562.00 577.20" xmlns="http://www.w3.org/2000/svg" xmlns:xlink="http://www.w3.org/1999/xlink">
<g id="graph0" class="graph" transform="scale(1 1) rotate(0) translate(4 573.2)">
<title>oneDegreeRelationshipsDiagram</title>
<polygon fill="#ffffff" stroke="transparent" points="-4,4 -4,-573.2 558,-573.2 558,4 -4,4"/>
<text text-anchor="middle" x="72.4936" y="-7.3" font-family="Helvetica,sans-Serif" font-size="11.00" fill="#000000">Generated by SchemaSpy</text>
<!-- event_reminders -->
<g id="node1" class="node">
<title>event_reminders</title>
<g id="a_node1"><a xlink:href="../../tables/event_reminders.html" xlink:title="event_reminders" target="_top">
<polygon fill="#ffffff" stroke="transparent" points="422,-271.2 422,-376.2 546,-376.2 546,-271.2 422,-271.2"/>
<polygon fill="#f5f5f5" stroke="transparent" points="422,-352.7 422,-375.7 546,-375.7 546,-352.7 422,-352.7"/>
<polygon fill="none" stroke="#000000" points="422,-352.7 422,-375.7 546,-375.7 546,-352.7 422,-352.7"/>
<text text-anchor="start" x="426.5487" y="-361.8" font-family="Helvetica,sans-Serif" font-weight="bold" font-size="11.00" fill="#000000">event_reminders</text>
<text text-anchor="start" x="511.5219" y="-360.8" font-family="Helvetica,sans-Serif" font-size="11.00" fill="#000000">[table]</text>
<polygon fill="none" stroke="#000000" points="422,-330.7 422,-352.7 546,-352.7 546,-330.7 422,-330.7"/>
<image xlink:href="../../images/primaryKeys.png" width="11px" height="12px" preserveAspectRatio="xMinYMin meet" x="427" y="-347.7"/>
<text text-anchor="start" x="443" y="-337.8" font-family="Helvetica,sans-Serif" font-size="11.00" fill="#000000">user_id</text>
<polygon fill="none" stroke="#000000" points="422,-308.7 422,-330.7 546,-330.7 546,-308.7 422,-308.7"/>
<image xlink:href="../../images/primaryKeys.png" width="11px" height="12px" preserveAspectRatio="xMinYMin meet" x="427" y="-325.7"/>
<text text-anchor="start" x="443" y="-315.8" font-family="Helvetica,sans-Serif" font-size="11.00" fill="#000000">event_id</text>
<polygon fill="none" stroke="#000000" points="422,-289.7 422,-308.7 546,-308.7 546,-289.7 422,-289.7"/>
<text text-anchor="start" x="425" y="-295.8" font-family="Helvetica,sans-Serif" font-size="11.00" fill="#000000">...</text>
<polygon fill="#ffffff" stroke="transparent" points="422,-270.7 422,-289.7 469,-289.7 469,-270.7 422,-270.7"/>
<polygon fill="none" stroke="#000000" points="422,-270.7 422,-289.7 469,-289.7 469,-270.7 422,-270.7"/>
<text text-anchor="start" x="425" y="-276.8" font-family="Helvetica,sans-Serif" font-size="11.00" fill="#000000">&lt; 2</text>
<polygon fill="#ffffff" stroke="transparent" points="469,-270.7 469,-289.7 520,-289.7 520,-270.7 469,-270.7"/>
<polygon fill="none" stroke="#000000" points="469,-270.7 469,-289.7 520,-289.7 520,-270.7 469,-270.7"/>
<text text-anchor="start" x="484.6105" y="-276.8" font-family="Helvetica,sans-Serif" font-size="11.00" fill="#000000">0 rows</text>
<polygon fill="#ffffff" stroke="transparent" points="520,-270.7 520,-289.7 546,-289.7 546,-270.7 520,-270.7"/>
<polygon fill="none" stroke="#000000" points="520,-270.7 520,-289.7 546,-289.7 546,-270.7 520,-270.7"/>
<text text-anchor="start" x="536.8862" y="-276.8" font-family="Helvetica,sans-Serif" font-size="11.00" fill="#000000"> &#160;</text>
</a>
</g>
</g>
<!-- event_users -->
<g id="node2" class="node">
<title>event_users</title>
<g id="a_node2"><a xlink:href="../../tables/event_users.html" xlink:title="event_users" target="_top">
<polygon fill="#ffffff" stroke="transparent" points="173,-199.7 173,-421.7 373,-421.7 373,-199.7 173,-199.7"/>
<polygon fill="#f5f5f5" stroke="transparent" points="175,-396.7 175,-419.7 371,-419.7 371,-396.7 175,-396.7"/>
<polygon fill="none" stroke="#000000" points="175,-396.7 175,-419.7 371,-419.7 371,-396.7 175,-396.7"/>
<text text-anchor="start" x="180" y="-405.8" font-family="Helvetica,sans-Serif" font-weight="bold" font-size="11.00" fill="#000000">event_users</text>
<text text-anchor="start" x="336.0437" y="-404.8" font-family="Helvetica,sans-Serif" font-size="11.00" fill="#000000">[table]</text>
<polygon fill="none" stroke="#000000" points="175,-374.7 175,-396.7 274,-396.7 274,-374.7 175,-374.7"/>
<text text-anchor="start" x="195" y="-381.8" font-family="Helvetica,sans-Serif" font-size="11.00" fill="#000000">created_at</text>
<polygon fill="none" stroke="#000000" points="274,-374.7 274,-396.7 371,-396.7 371,-374.7 274,-374.7"/>
<text text-anchor="start" x="277" y="-382.4" font-family="Helvetica,sans-Serif" font-size="11.00" fill="#000000">timestamp[26,3]</text>
<polygon fill="none" stroke="#000000" points="175,-352.7 175,-374.7 274,-374.7 274,-352.7 175,-352.7"/>
<text text-anchor="start" x="195" y="-359.8" font-family="Helvetica,sans-Serif" font-size="11.00" fill="#000000">updated_at</text>
<polygon fill="none" stroke="#000000" points="274,-352.7 274,-374.7 371,-374.7 371,-352.7 274,-352.7"/>
<text text-anchor="start" x="277" y="-360.4" font-family="Helvetica,sans-Serif" font-size="11.00" fill="#000000">timestamp[26,3]</text>
<polygon fill="none" stroke="#000000" points="175,-330.7 175,-352.7 274,-352.7 274,-330.7 175,-330.7"/>
<image xlink:href="../../images/primaryKeys.png" width="11px" height="12px" preserveAspectRatio="xMinYMin meet" x="180" y="-347.7"/>
<text text-anchor="start" x="195" y="-337.8" font-family="Helvetica,sans-Serif" font-size="11.00" fill="#000000">user_id</text>
<polygon fill="none" stroke="#000000" points="274,-330.7 274,-352.7 371,-352.7 371,-330.7 274,-330.7"/>
<text text-anchor="start" x="277" y="-338.4" font-family="Helvetica,sans-Serif" font-size="11.00" fill="#000000">int4[10]</text>
<polygon fill="none" stroke="#000000" points="175,-308.7 175,-330.7 274,-330.7 274,-308.7 175,-308.7"/>
<image xlink:href="../../images/primaryKeys.png" width="11px" height="12px" preserveAspectRatio="xMinYMin meet" x="180" y="-325.7"/>
<text text-anchor="start" x="195" y="-315.8" font-family="Helvetica,sans-Serif" font-size="11.00" fill="#000000">event_id</text>
<polygon fill="none" stroke="#000000" points="274,-308.7 274,-330.7 371,-330.7 371,-308.7 274,-308.7"/>
<text text-anchor="start" x="277" y="-316.4" font-family="Helvetica,sans-Serif" font-size="11.00" fill="#000000">int4[10]</text>
<polygon fill="none" stroke="#000000" points="175,-286.7 175,-308.7 274,-308.7 274,-286.7 175,-286.7"/>
<image xlink:href="../../images/foreignKeys.png" width="11px" height="12px" preserveAspectRatio="xMinYMin meet" x="180" y="-303.7"/>
<text text-anchor="start" x="195" y="-293.8" font-family="Helvetica,sans-Serif" font-size="11.00" fill="#000000">event_role_id</text>
<polygon fill="none" stroke="#000000" points="274,-286.7 274,-308.7 371,-308.7 371,-286.7 274,-286.7"/>
<text text-anchor="start" x="277" y="-294.4" font-family="Helvetica,sans-Serif" font-size="11.00" fill="#000000">int4[10]</text>
<polygon fill="none" stroke="#000000" points="175,-264.7 175,-286.7 274,-286.7 274,-264.7 175,-264.7"/>
<image xlink:href="../../images/foreignKeys.png" width="11px" height="12px" preserveAspectRatio="xMinYMin meet" x="180" y="-281.7"/>
<text text-anchor="start" x="195" y="-271.8" font-family="Helvetica,sans-Serif" font-size="11.00" fill="#000000">rsvp_id</text>
<polygon fill="none" stroke="#000000" points="274,-264.7 274,-286.7 371,-286.7 371,-264.7 274,-264.7"/>
<text text-anchor="start" x="277" y="-272.4" font-family="Helvetica,sans-Serif" font-size="11.00" fill="#000000">int4[10]</text>
<polygon fill="none" stroke="#000000" points="175,-242.7 175,-264.7 274,-264.7 274,-242.7 175,-242.7"/>
<text text-anchor="start" x="195" y="-249.8" font-family="Helvetica,sans-Serif" font-size="11.00" fill="#000000">subscribed</text>
<polygon fill="none" stroke="#000000" points="274,-242.7 274,-264.7 371,-264.7 371,-242.7 274,-242.7"/>
<text text-anchor="start" x="277" y="-250.4" font-family="Helvetica,sans-Serif" font-size="11.00" fill="#000000">bool[1]</text>
<polygon fill="none" stroke="#000000" points="175,-220.7 175,-242.7 274,-242.7 274,-220.7 175,-220.7"/>
<text text-anchor="start" x="195" y="-227.8" font-family="Helvetica,sans-Serif" font-size="11.00" fill="#000000">title</text>
<polygon fill="none" stroke="#000000" points="274,-220.7 274,-242.7 371,-242.7 371,-220.7 274,-220.7"/>
<text text-anchor="start" x="276.9468" y="-228.4" font-family="Helvetica,sans-Serif" font-size="11.00" fill="#000000">_text[2147483647]</text>
<polygon fill="#ffffff" stroke="transparent" points="175,-201.7 175,-220.7 216,-220.7 216,-201.7 175,-201.7"/>
<polygon fill="none" stroke="#000000" points="175,-201.7 175,-220.7 216,-220.7 216,-201.7 175,-201.7"/>
<text text-anchor="start" x="178" y="-207.8" font-family="Helvetica,sans-Serif" font-size="11.00" fill="#000000">&lt; 4</text>
<polygon fill="#ffffff" stroke="transparent" points="216,-201.7 216,-220.7 274,-220.7 274,-201.7 216,-201.7"/>
<polygon fill="none" stroke="#000000" points="216,-201.7 216,-220.7 274,-220.7 274,-201.7 216,-201.7"/>
<text text-anchor="start" x="238.6105" y="-207.8" font-family="Helvetica,sans-Serif" font-size="11.00" fill="#000000">0 rows</text>
<polygon fill="#ffffff" stroke="transparent" points="274,-201.7 274,-220.7 371,-220.7 371,-201.7 274,-201.7"/>
<polygon fill="none" stroke="#000000" points="274,-201.7 274,-220.7 371,-220.7 371,-201.7 274,-201.7"/>
<text text-anchor="start" x="352.4053" y="-207.8" font-family="Helvetica,sans-Serif" font-size="11.00" fill="#000000">2 &gt;</text>
<polygon fill="none" stroke="#000000" stroke-width="2" points="174,-200.7 174,-420.7 372,-420.7 372,-200.7 174,-200.7"/>
</a>
</g>
</g>
<!-- event_reminders&#45;&gt;event_users -->
<g id="edge1" class="edge">
<title>event_reminders:w&#45;&gt;event_users:e</title>
<path fill="none" stroke="#000000" d="M407.276,-319.7C395.2815,-319.7 387.8229,-319.7 371,-319.7"/>
<polygon fill="#000000" stroke="#000000" points="414,-319.7001 422,-323.3 418,-319.7 422,-319.7 422,-319.7 422,-319.7 418,-319.7 422,-316.1 414,-319.7001 414,-319.7001"/>
<ellipse fill="none" stroke="#000000" cx="410.8" cy="-319.7001" rx="3.2" ry="3.2"/>
</g>
<!-- event_reminders&#45;&gt;event_users -->
<g id="edge2" class="edge">
<title>event_reminders:w&#45;&gt;event_users:e</title>
<path fill="none" stroke="#000000" d="M407.276,-341.7C395.2815,-341.7 387.8229,-341.7 371,-341.7"/>
<polygon fill="#000000" stroke="#000000" points="414,-341.7001 422,-345.3 418,-341.7 422,-341.7 422,-341.7 422,-341.7 418,-341.7 422,-338.1 414,-341.7001 414,-341.7001"/>
<ellipse fill="none" stroke="#000000" cx="410.8" cy="-341.7001" rx="3.2" ry="3.2"/>
</g>
<!-- events -->
<g id="node3" class="node">
<title>events</title>
<g id="a_node3"><a xlink:href="../../tables/events.html" xlink:title="events" target="_top">
<polygon fill="#ffffff" stroke="transparent" points="14,-290.2 14,-417.2 118,-417.2 118,-290.2 14,-290.2"/>
<polygon fill="#f5f5f5" stroke="transparent" points="14,-393.7 14,-416.7 118,-416.7 118,-393.7 14,-393.7"/>
<polygon fill="none" stroke="#000000" points="14,-393.7 14,-416.7 118,-416.7 118,-393.7 14,-393.7"/>
<text text-anchor="start" x="19" y="-402.8" font-family="Helvetica,sans-Serif" font-weight="bold" font-size="11.00" fill="#000000">events</text>
<text text-anchor="start" x="83.0437" y="-401.8" font-family="Helvetica,sans-Serif" font-size="11.00" fill="#000000">[table]</text>
<polygon fill="none" stroke="#000000" points="14,-371.7 14,-393.7 118,-393.7 118,-371.7 14,-371.7"/>
<image xlink:href="../../images/primaryKeys.png" width="11px" height="12px" preserveAspectRatio="xMinYMin meet" x="19" y="-388.7"/>
<text text-anchor="start" x="34" y="-378.8" font-family="Helvetica,sans-Serif" font-size="11.00" fill="#000000">id</text>
<polygon fill="none" stroke="#000000" points="14,-349.7 14,-371.7 118,-371.7 118,-349.7 14,-349.7"/>
<image xlink:href="../../images/foreignKeys.png" width="11px" height="12px" preserveAspectRatio="xMinYMin meet" x="19" y="-366.7"/>
<text text-anchor="start" x="34" y="-356.8" font-family="Helvetica,sans-Serif" font-size="11.00" fill="#000000">venue_id</text>
<polygon fill="none" stroke="#000000" points="14,-327.7 14,-349.7 118,-349.7 118,-327.7 14,-327.7"/>
<image xlink:href="../../images/foreignKeys.png" width="11px" height="12px" preserveAspectRatio="xMinYMin meet" x="19" y="-344.7"/>
<text text-anchor="start" x="34" y="-334.8" font-family="Helvetica,sans-Serif" font-size="11.00" fill="#000000">chapter_id</text>
<polygon fill="none" stroke="#000000" points="14,-308.7 14,-327.7 118,-327.7 118,-308.7 14,-308.7"/>
<text text-anchor="start" x="17" y="-314.8" font-family="Helvetica,sans-Serif" font-size="11.00" fill="#000000">...</text>
<polygon fill="#ffffff" stroke="transparent" points="14,-289.7 14,-308.7 47,-308.7 47,-289.7 14,-289.7"/>
<polygon fill="none" stroke="#000000" points="14,-289.7 14,-308.7 47,-308.7 47,-289.7 14,-289.7"/>
<text text-anchor="start" x="17" y="-295.8" font-family="Helvetica,sans-Serif" font-size="11.00" fill="#000000">&lt; 3</text>
<polygon fill="#ffffff" stroke="transparent" points="47,-289.7 47,-308.7 91,-308.7 91,-289.7 47,-289.7"/>
<polygon fill="none" stroke="#000000" points="47,-289.7 47,-308.7 91,-308.7 91,-289.7 47,-289.7"/>
<text text-anchor="start" x="55.6105" y="-295.8" font-family="Helvetica,sans-Serif" font-size="11.00" fill="#000000">0 rows</text>
<polygon fill="#ffffff" stroke="transparent" points="91,-289.7 91,-308.7 118,-308.7 118,-289.7 91,-289.7"/>
<polygon fill="none" stroke="#000000" points="91,-289.7 91,-308.7 118,-308.7 118,-289.7 91,-289.7"/>
<text text-anchor="start" x="99.4053" y="-295.8" font-family="Helvetica,sans-Serif" font-size="11.00" fill="#000000">3 &gt;</text>
</a>
</g>
</g>
<!-- event_users&#45;&gt;events -->
<g id="edge3" class="edge">
<title>event_users:w&#45;&gt;events:e</title>
<path fill="none" stroke="#000000" d="M160.9928,-323.8336C141.6537,-337.8494 149.8596,-382.7 118,-382.7"/>
<polygon fill="#000000" stroke="#000000" points="167.3271,-321.9644 176.019,-323.1528 171.1636,-320.8322 175,-319.7 175,-319.7 175,-319.7 171.1636,-320.8322 173.981,-316.2472 167.3271,-321.9644 167.3271,-321.9644"/>
<ellipse fill="none" stroke="#000000" cx="164.258" cy="-322.8701" rx="3.2" ry="3.2"/>
</g>
<!-- event_roles -->
<g id="node4" class="node">
<title>event_roles</title>
<g id="a_node4"><a xlink:href="../../tables/event_roles.html" xlink:title="event_roles" target="_top">
<polygon fill="#ffffff" stroke="transparent" points="16.5,-164.2 16.5,-269.2 115.5,-269.2 115.5,-164.2 16.5,-164.2"/>
<polygon fill="#f5f5f5" stroke="transparent" points="17,-245.7 17,-268.7 116,-268.7 116,-245.7 17,-245.7"/>
<polygon fill="none" stroke="#000000" points="17,-245.7 17,-268.7 116,-268.7 116,-245.7 17,-245.7"/>
<text text-anchor="start" x="21.5755" y="-254.8" font-family="Helvetica,sans-Serif" font-weight="bold" font-size="11.00" fill="#000000">event_roles</text>
<text text-anchor="start" x="81.5219" y="-253.8" font-family="Helvetica,sans-Serif" font-size="11.00" fill="#000000">[table]</text>
<polygon fill="none" stroke="#000000" points="17,-223.7 17,-245.7 116,-245.7 116,-223.7 17,-223.7"/>
<image xlink:href="../../images/primaryKeys.png" width="11px" height="12px" preserveAspectRatio="xMinYMin meet" x="22" y="-240.7"/>
<text text-anchor="start" x="42" y="-230.8" font-family="Helvetica,sans-Serif" font-size="11.00" fill="#000000">id</text>
<polygon fill="#ffffff" stroke="transparent" points="17,-201.7 17,-223.7 116,-223.7 116,-201.7 17,-201.7"/>
<polygon fill="none" stroke="#000000" points="17,-201.7 17,-223.7 116,-223.7 116,-201.7 17,-201.7"/>
<text text-anchor="start" x="42" y="-208.8" font-family="Helvetica,sans-Serif" font-size="11.00" fill="#000000">name</text>
<polygon fill="none" stroke="#000000" points="17,-182.7 17,-201.7 116,-201.7 116,-182.7 17,-182.7"/>
<text text-anchor="start" x="20" y="-188.8" font-family="Helvetica,sans-Serif" font-size="11.00" fill="#000000">...</text>
<polygon fill="#ffffff" stroke="transparent" points="17,-163.7 17,-182.7 43,-182.7 43,-163.7 17,-163.7"/>
<polygon fill="none" stroke="#000000" points="17,-163.7 17,-182.7 43,-182.7 43,-163.7 17,-163.7"/>
<text text-anchor="start" x="20" y="-169.8" font-family="Helvetica,sans-Serif" font-size="11.00" fill="#000000"> &#160;</text>
<polygon fill="#ffffff" stroke="transparent" points="43,-163.7 43,-182.7 88,-182.7 88,-163.7 43,-163.7"/>
<polygon fill="none" stroke="#000000" points="43,-163.7 43,-182.7 88,-182.7 88,-163.7 43,-163.7"/>
<text text-anchor="start" x="52.6105" y="-169.8" font-family="Helvetica,sans-Serif" font-size="11.00" fill="#000000">0 rows</text>
<polygon fill="#ffffff" stroke="transparent" points="88,-163.7 88,-182.7 116,-182.7 116,-163.7 88,-163.7"/>
<polygon fill="none" stroke="#000000" points="88,-163.7 88,-182.7 116,-182.7 116,-163.7 88,-163.7"/>
<text text-anchor="start" x="97.4053" y="-169.8" font-family="Helvetica,sans-Serif" font-size="11.00" fill="#000000">2 &gt;</text>
</a>
</g>
</g>
<!-- event_users&#45;&gt;event_roles -->
<g id="edge4" class="edge">
<title>event_users:w&#45;&gt;event_roles:e</title>
<path fill="none" stroke="#000000" d="M160.9759,-293.7591C140.7368,-279.9668 148.5174,-234.7 116,-234.7"/>
<polygon fill="#000000" stroke="#000000" points="167.2983,-295.5357 174.0261,-301.1658 171.1492,-296.6178 175,-297.7 175,-297.7 175,-297.7 171.1492,-296.6178 175.9739,-294.2342 167.2983,-295.5357 167.2983,-295.5357"/>
<ellipse fill="none" stroke="#000000" cx="164.2176" cy="-294.67" rx="3.2" ry="3.2"/>
</g>
<!-- rsvp -->
<g id="node5" class="node">
<title>rsvp</title>
<g id="a_node5"><a xlink:href="../../tables/rsvp.html" xlink:title="rsvp" target="_top">
<polygon fill="#ffffff" stroke="transparent" points="22,-38.2 22,-143.2 110,-143.2 110,-38.2 22,-38.2"/>
<polygon fill="#f5f5f5" stroke="transparent" points="22,-119.7 22,-142.7 110,-142.7 110,-119.7 22,-119.7"/>
<polygon fill="none" stroke="#000000" points="22,-119.7 22,-142.7 110,-142.7 110,-119.7 22,-119.7"/>
<text text-anchor="start" x="27" y="-128.8" font-family="Helvetica,sans-Serif" font-weight="bold" font-size="11.00" fill="#000000">rsvp</text>
<text text-anchor="start" x="75.0437" y="-127.8" font-family="Helvetica,sans-Serif" font-size="11.00" fill="#000000">[table]</text>
<polygon fill="none" stroke="#000000" points="22,-97.7 22,-119.7 110,-119.7 110,-97.7 22,-97.7"/>
<image xlink:href="../../images/primaryKeys.png" width="11px" height="12px" preserveAspectRatio="xMinYMin meet" x="27" y="-114.7"/>
<text text-anchor="start" x="42" y="-104.8" font-family="Helvetica,sans-Serif" font-size="11.00" fill="#000000">id</text>
<polygon fill="#ffffff" stroke="transparent" points="22,-75.7 22,-97.7 110,-97.7 110,-75.7 22,-75.7"/>
<polygon fill="none" stroke="#000000" points="22,-75.7 22,-97.7 110,-97.7 110,-75.7 22,-75.7"/>
<text text-anchor="start" x="42" y="-82.8" font-family="Helvetica,sans-Serif" font-size="11.00" fill="#000000">name</text>
<polygon fill="none" stroke="#000000" points="22,-56.7 22,-75.7 110,-75.7 110,-56.7 22,-56.7"/>
<text text-anchor="start" x="25" y="-62.8" font-family="Helvetica,sans-Serif" font-size="11.00" fill="#000000">...</text>
<polygon fill="#ffffff" stroke="transparent" points="22,-37.7 22,-56.7 42,-56.7 42,-37.7 22,-37.7"/>
<polygon fill="none" stroke="#000000" points="22,-37.7 22,-56.7 42,-56.7 42,-37.7 22,-37.7"/>
<text text-anchor="start" x="25" y="-43.8" font-family="Helvetica,sans-Serif" font-size="11.00" fill="#000000"> &#160;</text>
<polygon fill="#ffffff" stroke="transparent" points="42,-37.7 42,-56.7 84,-56.7 84,-37.7 42,-37.7"/>
<polygon fill="none" stroke="#000000" points="42,-37.7 42,-56.7 84,-56.7 84,-37.7 42,-37.7"/>
<text text-anchor="start" x="48.6105" y="-43.8" font-family="Helvetica,sans-Serif" font-size="11.00" fill="#000000">0 rows</text>
<polygon fill="#ffffff" stroke="transparent" points="84,-37.7 84,-56.7 110,-56.7 110,-37.7 84,-37.7"/>
<polygon fill="none" stroke="#000000" points="84,-37.7 84,-56.7 110,-56.7 110,-37.7 84,-37.7"/>
<text text-anchor="start" x="91.4053" y="-43.8" font-family="Helvetica,sans-Serif" font-size="11.00" fill="#000000">1 &gt;</text>
</a>
</g>
</g>
<!-- event_users&#45;&gt;rsvp -->
<g id="edge5" class="edge">
<title>event_users:w&#45;&gt;rsvp:e</title>
<path fill="none" stroke="#000000" d="M160.6585,-273.3392C107.7538,-253.0412 184.046,-108.7 110,-108.7"/>
<polygon fill="#000000" stroke="#000000" points="167.1062,-274.4006 174.4153,-279.2522 171.0531,-275.0503 175,-275.7 175,-275.7 175,-275.7 171.0531,-275.0503 175.5847,-272.1478 167.1062,-274.4006 167.1062,-274.4006"/>
<ellipse fill="none" stroke="#000000" cx="163.9487" cy="-273.8808" rx="3.2" ry="3.2"/>
</g>
<!-- users -->
<g id="node6" class="node">
<title>users</title>
<g id="a_node6"><a xlink:href="../../tables/users.html" xlink:title="users" target="_top">
<polygon fill="#ffffff" stroke="transparent" points="8,-438.2 8,-565.2 124,-565.2 124,-438.2 8,-438.2"/>
<polygon fill="#f5f5f5" stroke="transparent" points="8,-541.7 8,-564.7 124,-564.7 124,-541.7 8,-541.7"/>
<polygon fill="none" stroke="#000000" points="8,-541.7 8,-564.7 124,-564.7 124,-541.7 8,-541.7"/>
<text text-anchor="start" x="13" y="-550.8" font-family="Helvetica,sans-Serif" font-weight="bold" font-size="11.00" fill="#000000">users</text>
<text text-anchor="start" x="89.0437" y="-549.8" font-family="Helvetica,sans-Serif" font-size="11.00" fill="#000000">[table]</text>
<polygon fill="none" stroke="#000000" points="8,-519.7 8,-541.7 124,-541.7 124,-519.7 8,-519.7"/>
<image xlink:href="../../images/primaryKeys.png" width="11px" height="12px" preserveAspectRatio="xMinYMin meet" x="13" y="-536.7"/>
<text text-anchor="start" x="28" y="-526.8" font-family="Helvetica,sans-Serif" font-size="11.00" fill="#000000">id</text>
<polygon fill="#ffffff" stroke="transparent" points="8,-497.7 8,-519.7 124,-519.7 124,-497.7 8,-497.7"/>
<polygon fill="none" stroke="#000000" points="8,-497.7 8,-519.7 124,-519.7 124,-497.7 8,-497.7"/>
<text text-anchor="start" x="28" y="-504.8" font-family="Helvetica,sans-Serif" font-size="11.00" fill="#000000">email</text>
<polygon fill="none" stroke="#000000" points="8,-475.7 8,-497.7 124,-497.7 124,-475.7 8,-475.7"/>
<image xlink:href="../../images/foreignKeys.png" width="11px" height="12px" preserveAspectRatio="xMinYMin meet" x="13" y="-492.7"/>
<text text-anchor="start" x="28" y="-482.8" font-family="Helvetica,sans-Serif" font-size="11.00" fill="#000000">instance_role_id</text>
<polygon fill="none" stroke="#000000" points="8,-456.7 8,-475.7 124,-475.7 124,-456.7 8,-456.7"/>
<text text-anchor="start" x="11" y="-462.8" font-family="Helvetica,sans-Serif" font-size="11.00" fill="#000000">...</text>
<polygon fill="#ffffff" stroke="transparent" points="8,-437.7 8,-456.7 47,-456.7 47,-437.7 8,-437.7"/>
<polygon fill="none" stroke="#000000" points="8,-437.7 8,-456.7 47,-456.7 47,-437.7 8,-437.7"/>
<text text-anchor="start" x="11" y="-443.8" font-family="Helvetica,sans-Serif" font-size="11.00" fill="#000000">&lt; 1</text>
<polygon fill="#ffffff" stroke="transparent" points="47,-437.7 47,-456.7 94,-456.7 94,-437.7 47,-437.7"/>
<polygon fill="none" stroke="#000000" points="47,-437.7 47,-456.7 94,-456.7 94,-437.7 47,-437.7"/>
<text text-anchor="start" x="58.6105" y="-443.8" font-family="Helvetica,sans-Serif" font-size="11.00" fill="#000000">0 rows</text>
<polygon fill="#ffffff" stroke="transparent" points="94,-437.7 94,-456.7 124,-456.7 124,-437.7 94,-437.7"/>
<polygon fill="none" stroke="#000000" points="94,-437.7 94,-456.7 124,-456.7 124,-437.7 94,-437.7"/>
<text text-anchor="start" x="105.4053" y="-443.8" font-family="Helvetica,sans-Serif" font-size="11.00" fill="#000000">3 &gt;</text>
</a>
</g>
</g>
<!-- event_users&#45;&gt;users -->
<g id="edge6" class="edge">
<title>event_users:w&#45;&gt;users:e</title>
<path fill="none" stroke="#000000" d="M160.6817,-343.9542C102.9797,-365.2781 205.3968,-530.7 124,-530.7"/>
<polygon fill="#000000" stroke="#000000" points="167.0973,-342.9442 175.5599,-345.2562 171.0487,-342.3221 175,-341.7 175,-341.7 175,-341.7 171.0487,-342.3221 174.4401,-338.1438 167.0973,-342.9442 167.0973,-342.9442"/>
<ellipse fill="none" stroke="#000000" cx="163.9363" cy="-343.4419" rx="3.2" ry="3.2"/>
</g>
</g>
</svg>
