<?xml version="1.0" encoding="UTF-8" standalone="no"?>
<!DOCTYPE svg PUBLIC "-//W3C//DTD SVG 1.1//EN"
 "http://www.w3.org/Graphics/SVG/1.1/DTD/svg11.dtd">
<!-- Generated by graphviz version 2.40.1 (20161225.0304)
 -->
<!-- Title: oneDegreeRelationshipsDiagram Pages: 1 -->
<svg width="681pt" height="669pt"
 viewBox="0.00 0.00 681.00 668.70" xmlns="http://www.w3.org/2000/svg" xmlns:xlink="http://www.w3.org/1999/xlink">
<g id="graph0" class="graph" transform="scale(1 1) rotate(0) translate(4 664.7)">
<title>oneDegreeRelationshipsDiagram</title>
<polygon fill="#ffffff" stroke="transparent" points="-4,4 -4,-664.7 677,-664.7 677,4 -4,4"/>
<text text-anchor="middle" x="72.4936" y="-7.3" font-family="Helvetica,sans-Serif" font-size="11.00" fill="#000000">Generated by SchemaSpy</text>
<!-- event_sponsors -->
<g id="node1" class="node">
<title>event_sponsors</title>
<g id="a_node1"><a xlink:href="../../tables/event_sponsors.html" xlink:title="event_sponsors" target="_top">
<polygon fill="#ffffff" stroke="transparent" points="535,-529.7 535,-656.7 661,-656.7 661,-529.7 535,-529.7"/>
<polygon fill="#f5f5f5" stroke="transparent" points="535,-633.2 535,-656.2 661,-656.2 661,-633.2 535,-633.2"/>
<polygon fill="none" stroke="#000000" points="535,-633.2 535,-656.2 661,-656.2 661,-633.2 535,-633.2"/>
<text text-anchor="start" x="540" y="-642.3" font-family="Helvetica,sans-Serif" font-weight="bold" font-size="11.00" fill="#000000">event_sponsors</text>
<text text-anchor="start" x="626.0437" y="-641.3" font-family="Helvetica,sans-Serif" font-size="11.00" fill="#000000">[table]</text>
<polygon fill="none" stroke="#000000" points="535,-611.2 535,-633.2 661,-633.2 661,-611.2 535,-611.2"/>
<image xlink:href="../../images/primaryKeys.png" width="11px" height="12px" preserveAspectRatio="xMinYMin meet" x="540" y="-628.2"/>
<text text-anchor="start" x="555" y="-618.3" font-family="Helvetica,sans-Serif" font-size="11.00" fill="#000000">id</text>
<polygon fill="none" stroke="#000000" points="535,-589.2 535,-611.2 661,-611.2 661,-589.2 535,-589.2"/>
<image xlink:href="../../images/foreignKeys.png" width="11px" height="12px" preserveAspectRatio="xMinYMin meet" x="540" y="-606.2"/>
<text text-anchor="start" x="555" y="-596.3" font-family="Helvetica,sans-Serif" font-size="11.00" fill="#000000">sponsor_id</text>
<polygon fill="none" stroke="#000000" points="535,-567.2 535,-589.2 661,-589.2 661,-567.2 535,-567.2"/>
<image xlink:href="../../images/foreignKeys.png" width="11px" height="12px" preserveAspectRatio="xMinYMin meet" x="540" y="-584.2"/>
<text text-anchor="start" x="555" y="-574.3" font-family="Helvetica,sans-Serif" font-size="11.00" fill="#000000">event_id</text>
<polygon fill="none" stroke="#000000" points="535,-548.2 535,-567.2 661,-567.2 661,-548.2 535,-548.2"/>
<text text-anchor="start" x="538" y="-554.3" font-family="Helvetica,sans-Serif" font-size="11.00" fill="#000000">...</text>
<polygon fill="#ffffff" stroke="transparent" points="535,-529.2 535,-548.2 583,-548.2 583,-529.2 535,-529.2"/>
<polygon fill="none" stroke="#000000" points="535,-529.2 535,-548.2 583,-548.2 583,-529.2 535,-529.2"/>
<text text-anchor="start" x="538" y="-535.3" font-family="Helvetica,sans-Serif" font-size="11.00" fill="#000000">&lt; 2</text>
<polygon fill="#ffffff" stroke="transparent" points="583,-529.2 583,-548.2 635,-548.2 635,-529.2 583,-529.2"/>
<polygon fill="none" stroke="#000000" points="583,-529.2 583,-548.2 635,-548.2 635,-529.2 583,-529.2"/>
<text text-anchor="start" x="599.6105" y="-535.3" font-family="Helvetica,sans-Serif" font-size="11.00" fill="#000000">8 rows</text>
<polygon fill="#ffffff" stroke="transparent" points="635,-529.2 635,-548.2 661,-548.2 661,-529.2 635,-529.2"/>
<polygon fill="none" stroke="#000000" points="635,-529.2 635,-548.2 661,-548.2 661,-529.2 635,-529.2"/>
<text text-anchor="start" x="651.8862" y="-535.3" font-family="Helvetica,sans-Serif" font-size="11.00" fill="#000000"> &#160;</text>
</a>
</g>
</g>
<!-- events -->
<g id="node2" class="node">
<title>events</title>
<g id="a_node2"><a xlink:href="../../tables/events.html" xlink:title="events" target="_top">
<polygon fill="#ffffff" stroke="transparent" points="178,-38.2 178,-414.2 482,-414.2 482,-38.2 178,-38.2"/>
<polygon fill="#f5f5f5" stroke="transparent" points="180,-389.2 180,-412.2 480,-412.2 480,-389.2 180,-389.2"/>
<polygon fill="none" stroke="#000000" points="180,-389.2 180,-412.2 480,-412.2 480,-389.2 180,-389.2"/>
<text text-anchor="start" x="185" y="-398.3" font-family="Helvetica,sans-Serif" font-weight="bold" font-size="11.00" fill="#000000">events</text>
<text text-anchor="start" x="445.0437" y="-397.3" font-family="Helvetica,sans-Serif" font-size="11.00" fill="#000000">[table]</text>
<polygon fill="none" stroke="#000000" points="180,-367.2 180,-389.2 278,-389.2 278,-367.2 180,-367.2"/>
<image xlink:href="../../images/primaryKeys.png" width="11px" height="12px" preserveAspectRatio="xMinYMin meet" x="185" y="-384.2"/>
<text text-anchor="start" x="200" y="-374.3" font-family="Helvetica,sans-Serif" font-size="11.00" fill="#000000">id</text>
<polygon fill="none" stroke="#000000" points="278,-367.2 278,-389.2 480,-389.2 480,-367.2 278,-367.2"/>
<text text-anchor="start" x="281" y="-374.9" font-family="Helvetica,sans-Serif" font-size="11.00" fill="#000000">serial[10]</text>
<polygon fill="none" stroke="#000000" points="180,-345.2 180,-367.2 278,-367.2 278,-345.2 180,-345.2"/>
<text text-anchor="start" x="200" y="-352.3" font-family="Helvetica,sans-Serif" font-size="11.00" fill="#000000">name</text>
<polygon fill="none" stroke="#000000" points="278,-345.2 278,-367.2 480,-367.2 480,-345.2 278,-345.2"/>
<text text-anchor="start" x="281" y="-352.9" font-family="Helvetica,sans-Serif" font-size="11.00" fill="#000000">varchar[2147483647]</text>
<polygon fill="none" stroke="#000000" points="180,-323.2 180,-345.2 278,-345.2 278,-323.2 180,-323.2"/>
<text text-anchor="start" x="200" y="-330.3" font-family="Helvetica,sans-Serif" font-size="11.00" fill="#000000">description</text>
<polygon fill="none" stroke="#000000" points="278,-323.2 278,-345.2 480,-345.2 480,-323.2 278,-323.2"/>
<text text-anchor="start" x="281" y="-330.9" font-family="Helvetica,sans-Serif" font-size="11.00" fill="#000000">varchar[2147483647]</text>
<polygon fill="none" stroke="#000000" points="180,-301.2 180,-323.2 278,-323.2 278,-301.2 180,-301.2"/>
<text text-anchor="start" x="200" y="-308.3" font-family="Helvetica,sans-Serif" font-size="11.00" fill="#000000">start_at</text>
<polygon fill="none" stroke="#000000" points="278,-301.2 278,-323.2 480,-323.2 480,-301.2 278,-301.2"/>
<text text-anchor="start" x="281" y="-308.9" font-family="Helvetica,sans-Serif" font-size="11.00" fill="#000000">timestamp[29,6]</text>
<polygon fill="none" stroke="#000000" points="180,-279.2 180,-301.2 278,-301.2 278,-279.2 180,-279.2"/>
<text text-anchor="start" x="200" y="-286.3" font-family="Helvetica,sans-Serif" font-size="11.00" fill="#000000">ends_at</text>
<polygon fill="none" stroke="#000000" points="278,-279.2 278,-301.2 480,-301.2 480,-279.2 278,-279.2"/>
<text text-anchor="start" x="281" y="-286.9" font-family="Helvetica,sans-Serif" font-size="11.00" fill="#000000">timestamp[29,6]</text>
<polygon fill="none" stroke="#000000" points="180,-257.2 180,-279.2 278,-279.2 278,-257.2 180,-257.2"/>
<text text-anchor="start" x="200" y="-264.3" font-family="Helvetica,sans-Serif" font-size="11.00" fill="#000000">canceled</text>
<polygon fill="none" stroke="#000000" points="278,-257.2 278,-279.2 480,-279.2 480,-257.2 278,-257.2"/>
<text text-anchor="start" x="281" y="-264.9" font-family="Helvetica,sans-Serif" font-size="11.00" fill="#000000">bool[1]</text>
<polygon fill="none" stroke="#000000" points="180,-235.2 180,-257.2 278,-257.2 278,-235.2 180,-235.2"/>
<text text-anchor="start" x="200" y="-242.3" font-family="Helvetica,sans-Serif" font-size="11.00" fill="#000000">capacity</text>
<polygon fill="none" stroke="#000000" points="278,-235.2 278,-257.2 480,-257.2 480,-235.2 278,-235.2"/>
<text text-anchor="start" x="281" y="-242.9" font-family="Helvetica,sans-Serif" font-size="11.00" fill="#000000">int4[10]</text>
<polygon fill="none" stroke="#000000" points="180,-213.2 180,-235.2 278,-235.2 278,-213.2 180,-213.2"/>
<image xlink:href="../../images/foreignKeys.png" width="11px" height="12px" preserveAspectRatio="xMinYMin meet" x="185" y="-230.2"/>
<text text-anchor="start" x="200" y="-220.3" font-family="Helvetica,sans-Serif" font-size="11.00" fill="#000000">venue_id</text>
<polygon fill="none" stroke="#000000" points="278,-213.2 278,-235.2 480,-235.2 480,-213.2 278,-213.2"/>
<text text-anchor="start" x="281" y="-220.9" font-family="Helvetica,sans-Serif" font-size="11.00" fill="#000000">int4[10]</text>
<polygon fill="none" stroke="#000000" points="180,-191.2 180,-213.2 278,-213.2 278,-191.2 180,-191.2"/>
<image xlink:href="../../images/foreignKeys.png" width="11px" height="12px" preserveAspectRatio="xMinYMin meet" x="185" y="-208.2"/>
<text text-anchor="start" x="200" y="-198.3" font-family="Helvetica,sans-Serif" font-size="11.00" fill="#000000">chapter_id</text>
<polygon fill="none" stroke="#000000" points="278,-191.2 278,-213.2 480,-213.2 480,-191.2 278,-191.2"/>
<text text-anchor="start" x="281" y="-198.9" font-family="Helvetica,sans-Serif" font-size="11.00" fill="#000000">int4[10]</text>
<polygon fill="none" stroke="#000000" points="180,-169.2 180,-191.2 278,-191.2 278,-169.2 180,-169.2"/>
<text text-anchor="start" x="200" y="-176.3" font-family="Helvetica,sans-Serif" font-size="11.00" fill="#000000">created_at</text>
<polygon fill="none" stroke="#000000" points="278,-169.2 278,-191.2 480,-191.2 480,-169.2 278,-169.2"/>
<text text-anchor="start" x="281" y="-176.9" font-family="Helvetica,sans-Serif" font-size="11.00" fill="#000000">timestamp[29,6]</text>
<polygon fill="none" stroke="#000000" points="180,-147.2 180,-169.2 278,-169.2 278,-147.2 180,-147.2"/>
<text text-anchor="start" x="200" y="-154.3" font-family="Helvetica,sans-Serif" font-size="11.00" fill="#000000">updated_at</text>
<polygon fill="none" stroke="#000000" points="278,-147.2 278,-169.2 480,-169.2 480,-147.2 278,-147.2"/>
<text text-anchor="start" x="281" y="-154.9" font-family="Helvetica,sans-Serif" font-size="11.00" fill="#000000">timestamp[29,6]</text>
<polygon fill="none" stroke="#000000" points="180,-125.2 180,-147.2 278,-147.2 278,-125.2 180,-125.2"/>
<text text-anchor="start" x="200" y="-132.3" font-family="Helvetica,sans-Serif" font-size="11.00" fill="#000000">url</text>
<polygon fill="none" stroke="#000000" points="278,-125.2 278,-147.2 480,-147.2 480,-125.2 278,-125.2"/>
<text text-anchor="start" x="281" y="-132.9" font-family="Helvetica,sans-Serif" font-size="11.00" fill="#000000">varchar[2147483647]</text>
<polygon fill="none" stroke="#000000" points="180,-103.2 180,-125.2 278,-125.2 278,-103.2 180,-103.2"/>
<text text-anchor="start" x="200" y="-110.3" font-family="Helvetica,sans-Serif" font-size="11.00" fill="#000000">video_url</text>
<polygon fill="none" stroke="#000000" points="278,-103.2 278,-125.2 480,-125.2 480,-103.2 278,-103.2"/>
<text text-anchor="start" x="281" y="-110.9" font-family="Helvetica,sans-Serif" font-size="11.00" fill="#000000">varchar[2147483647]</text>
<polygon fill="none" stroke="#000000" points="180,-81.2 180,-103.2 278,-103.2 278,-81.2 180,-81.2"/>
<text text-anchor="start" x="200" y="-88.3" font-family="Helvetica,sans-Serif" font-size="11.00" fill="#000000">venue_type</text>
<polygon fill="none" stroke="#000000" points="278,-81.2 278,-103.2 480,-103.2 480,-81.2 278,-81.2"/>
<text text-anchor="start" x="280.869" y="-88.9" font-family="Helvetica,sans-Serif" font-size="11.00" fill="#000000">events_venue_type_enum[2147483647]</text>
<polygon fill="none" stroke="#000000" points="180,-59.2 180,-81.2 278,-81.2 278,-59.2 180,-59.2"/>
<text text-anchor="start" x="200" y="-66.3" font-family="Helvetica,sans-Serif" font-size="11.00" fill="#000000">invite_only</text>
<polygon fill="none" stroke="#000000" points="278,-59.2 278,-81.2 480,-81.2 480,-59.2 278,-59.2"/>
<text text-anchor="start" x="281" y="-66.9" font-family="Helvetica,sans-Serif" font-size="11.00" fill="#000000">bool[1]</text>
<polygon fill="#ffffff" stroke="transparent" points="180,-40.2 180,-59.2 220,-59.2 220,-40.2 180,-40.2"/>
<polygon fill="none" stroke="#000000" points="180,-40.2 180,-59.2 220,-59.2 220,-40.2 180,-40.2"/>
<text text-anchor="start" x="183" y="-46.3" font-family="Helvetica,sans-Serif" font-size="11.00" fill="#000000">&lt; 2</text>
<polygon fill="#ffffff" stroke="transparent" points="220,-40.2 220,-59.2 278,-59.2 278,-40.2 220,-40.2"/>
<polygon fill="none" stroke="#000000" points="220,-40.2 220,-59.2 278,-59.2 278,-40.2 220,-40.2"/>
<text text-anchor="start" x="242.6105" y="-46.3" font-family="Helvetica,sans-Serif" font-size="11.00" fill="#000000">4 rows</text>
<polygon fill="#ffffff" stroke="transparent" points="278,-40.2 278,-59.2 480,-59.2 480,-40.2 278,-40.2"/>
<polygon fill="none" stroke="#000000" points="278,-40.2 278,-59.2 480,-59.2 480,-40.2 278,-40.2"/>
<text text-anchor="start" x="461.4053" y="-46.3" font-family="Helvetica,sans-Serif" font-size="11.00" fill="#000000">4 &gt;</text>
<polygon fill="none" stroke="#000000" stroke-width="2" points="179,-39.2 179,-413.2 481,-413.2 481,-39.2 179,-39.2"/>
</a>
</g>
</g>
<!-- event_sponsors&#45;&gt;events -->
<g id="edge1" class="edge">
<title>event_sponsors:w&#45;&gt;events:e</title>
<path fill="none" stroke="#000000" d="M520.5932,-576.0892C457.6658,-554.7144 566.607,-378.2 480,-378.2"/>
<polygon fill="#000000" stroke="#000000" points="527.0845,-577.0402 534.4781,-581.762 531.0423,-577.6201 535,-578.2 535,-578.2 535,-578.2 531.0423,-577.6201 535.5219,-574.638 527.0845,-577.0402 527.0845,-577.0402"/>
<ellipse fill="none" stroke="#000000" cx="523.9183" cy="-576.5763" rx="3.2" ry="3.2"/>
</g>
<!-- chapters -->
<g id="node3" class="node">
<title>chapters</title>
<g id="a_node3"><a xlink:href="../../tables/chapters.html" xlink:title="chapters" target="_top">
<polygon fill="#ffffff" stroke="transparent" points="20,-90.7 20,-195.7 117,-195.7 117,-90.7 20,-90.7"/>
<polygon fill="#f5f5f5" stroke="transparent" points="20.5,-172.2 20.5,-195.2 117.5,-195.2 117.5,-172.2 20.5,-172.2"/>
<polygon fill="none" stroke="#000000" points="20.5,-172.2 20.5,-195.2 117.5,-195.2 117.5,-172.2 20.5,-172.2"/>
<text text-anchor="start" x="25.5" y="-181.3" font-family="Helvetica,sans-Serif" font-weight="bold" font-size="11.00" fill="#000000">chapters</text>
<text text-anchor="start" x="82.5437" y="-180.3" font-family="Helvetica,sans-Serif" font-size="11.00" fill="#000000">[table]</text>
<polygon fill="none" stroke="#000000" points="20.5,-150.2 20.5,-172.2 117.5,-172.2 117.5,-150.2 20.5,-150.2"/>
<image xlink:href="../../images/primaryKeys.png" width="11px" height="12px" preserveAspectRatio="xMinYMin meet" x="25.5" y="-167.2"/>
<text text-anchor="start" x="40.5" y="-157.3" font-family="Helvetica,sans-Serif" font-size="11.00" fill="#000000">id</text>
<polygon fill="none" stroke="#000000" points="20.5,-128.2 20.5,-150.2 117.5,-150.2 117.5,-128.2 20.5,-128.2"/>
<image xlink:href="../../images/foreignKeys.png" width="11px" height="12px" preserveAspectRatio="xMinYMin meet" x="25.5" y="-145.2"/>
<text text-anchor="start" x="40.5" y="-135.3" font-family="Helvetica,sans-Serif" font-size="11.00" fill="#000000">creator_id</text>
<polygon fill="none" stroke="#000000" points="20.5,-109.2 20.5,-128.2 117.5,-128.2 117.5,-109.2 20.5,-109.2"/>
<text text-anchor="start" x="23.5" y="-115.3" font-family="Helvetica,sans-Serif" font-size="11.00" fill="#000000">...</text>
<polygon fill="#ffffff" stroke="transparent" points="20.5,-90.2 20.5,-109.2 49.5,-109.2 49.5,-90.2 20.5,-90.2"/>
<polygon fill="none" stroke="#000000" points="20.5,-90.2 20.5,-109.2 49.5,-109.2 49.5,-90.2 20.5,-90.2"/>
<text text-anchor="start" x="23.5" y="-96.3" font-family="Helvetica,sans-Serif" font-size="11.00" fill="#000000">&lt; 1</text>
<polygon fill="#ffffff" stroke="transparent" points="49.5,-90.2 49.5,-109.2 91.5,-109.2 91.5,-90.2 49.5,-90.2"/>
<polygon fill="none" stroke="#000000" points="49.5,-90.2 49.5,-109.2 91.5,-109.2 91.5,-90.2 49.5,-90.2"/>
<text text-anchor="start" x="56.1105" y="-96.3" font-family="Helvetica,sans-Serif" font-size="11.00" fill="#000000">4 rows</text>
<polygon fill="#ffffff" stroke="transparent" points="91.5,-90.2 91.5,-109.2 117.5,-109.2 117.5,-90.2 91.5,-90.2"/>
<polygon fill="none" stroke="#000000" points="91.5,-90.2 91.5,-109.2 117.5,-109.2 117.5,-90.2 91.5,-90.2"/>
<text text-anchor="start" x="98.9053" y="-96.3" font-family="Helvetica,sans-Serif" font-size="11.00" fill="#000000">3 &gt;</text>
</a>
</g>
</g>
<!-- events&#45;&gt;chapters -->
<g id="edge2" class="edge">
<title>events:w&#45;&gt;chapters:e</title>
<path fill="none" stroke="#000000" d="M165.7865,-198.9828C147.0361,-189.3174 145.0114,-161.2 117.5,-161.2"/>
<polygon fill="#000000" stroke="#000000" points="172.1974,-200.4339 179.2052,-205.7112 176.0987,-201.3169 180,-202.2 180,-202.2 180,-202.2 176.0987,-201.3169 180.7948,-198.6888 172.1974,-200.4339 172.1974,-200.4339"/>
<ellipse fill="none" stroke="#000000" cx="169.0763" cy="-199.7274" rx="3.2" ry="3.2"/>
</g>
<!-- venues -->
<g id="node4" class="node">
<title>venues</title>
<g id="a_node4"><a xlink:href="../../tables/venues.html" xlink:title="venues" target="_top">
<polygon fill="#ffffff" stroke="transparent" points="8,-216.7 8,-299.7 129,-299.7 129,-216.7 8,-216.7"/>
<polygon fill="#f5f5f5" stroke="transparent" points="8.5,-276.2 8.5,-299.2 129.5,-299.2 129.5,-276.2 8.5,-276.2"/>
<polygon fill="none" stroke="#000000" points="8.5,-276.2 8.5,-299.2 129.5,-299.2 129.5,-276.2 8.5,-276.2"/>
<text text-anchor="start" x="13.5" y="-285.3" font-family="Helvetica,sans-Serif" font-weight="bold" font-size="11.00" fill="#000000">venues</text>
<text text-anchor="start" x="94.5437" y="-284.3" font-family="Helvetica,sans-Serif" font-size="11.00" fill="#000000">[table]</text>
<polygon fill="none" stroke="#000000" points="8.5,-254.2 8.5,-276.2 129.5,-276.2 129.5,-254.2 8.5,-254.2"/>
<image xlink:href="../../images/primaryKeys.png" width="11px" height="12px" preserveAspectRatio="xMinYMin meet" x="13.5" y="-271.2"/>
<text text-anchor="start" x="28.5" y="-261.3" font-family="Helvetica,sans-Serif" font-size="11.00" fill="#000000">id</text>
<polygon fill="none" stroke="#000000" points="8.5,-235.2 8.5,-254.2 129.5,-254.2 129.5,-235.2 8.5,-235.2"/>
<text text-anchor="start" x="11.5" y="-241.3" font-family="Helvetica,sans-Serif" font-size="11.00" fill="#000000">...</text>
<polygon fill="#ffffff" stroke="transparent" points="8.5,-216.2 8.5,-235.2 45.5,-235.2 45.5,-216.2 8.5,-216.2"/>
<polygon fill="none" stroke="#000000" points="8.5,-216.2 8.5,-235.2 45.5,-235.2 45.5,-216.2 8.5,-216.2"/>
<text text-anchor="start" x="11.5" y="-222.3" font-family="Helvetica,sans-Serif" font-size="11.00" fill="#000000"> &#160;</text>
<polygon fill="#ffffff" stroke="transparent" points="45.5,-216.2 45.5,-235.2 95.5,-235.2 95.5,-216.2 45.5,-216.2"/>
<polygon fill="none" stroke="#000000" points="45.5,-216.2 45.5,-235.2 95.5,-235.2 95.5,-216.2 45.5,-216.2"/>
<text text-anchor="start" x="60.1105" y="-222.3" font-family="Helvetica,sans-Serif" font-size="11.00" fill="#000000">4 rows</text>
<polygon fill="#ffffff" stroke="transparent" points="95.5,-216.2 95.5,-235.2 129.5,-235.2 129.5,-216.2 95.5,-216.2"/>
<polygon fill="none" stroke="#000000" points="95.5,-216.2 95.5,-235.2 129.5,-235.2 129.5,-216.2 95.5,-216.2"/>
<text text-anchor="start" x="110.9053" y="-222.3" font-family="Helvetica,sans-Serif" font-size="11.00" fill="#000000">1 &gt;</text>
</a>
</g>
</g>
<!-- events&#45;&gt;venues -->
<g id="edge3" class="edge">
<title>events:w&#45;&gt;venues:e</title>
<path fill="none" stroke="#000000" d="M166.2601,-228.5877C152.5688,-239.1646 152.5379,-265.2 129.5,-265.2"/>
<polygon fill="#000000" stroke="#000000" points="172.3792,-226.6337 181.0952,-227.6294 176.1896,-225.4168 180,-224.2 180,-224.2 180,-224.2 176.1896,-225.4168 178.9048,-220.7706 172.3792,-226.6337 172.3792,-226.6337"/>
<ellipse fill="none" stroke="#000000" cx="169.3308" cy="-227.6072" rx="3.2" ry="3.2"/>
</g>
<!-- rsvps -->
<g id="node5" class="node">
<title>rsvps</title>
<g id="a_node5"><a xlink:href="../../tables/rsvps.html" xlink:title="rsvps" target="_top">
<polygon fill="#ffffff" stroke="transparent" points="543.5,-381.7 543.5,-508.7 652.5,-508.7 652.5,-381.7 543.5,-381.7"/>
<polygon fill="#f5f5f5" stroke="transparent" points="544,-485.2 544,-508.2 653,-508.2 653,-485.2 544,-485.2"/>
<polygon fill="none" stroke="#000000" points="544,-485.2 544,-508.2 653,-508.2 653,-485.2 544,-485.2"/>
<text text-anchor="start" x="549" y="-494.3" font-family="Helvetica,sans-Serif" font-weight="bold" font-size="11.00" fill="#000000">rsvps</text>
<text text-anchor="start" x="618.0437" y="-493.3" font-family="Helvetica,sans-Serif" font-size="11.00" fill="#000000">[table]</text>
<polygon fill="none" stroke="#000000" points="544,-463.2 544,-485.2 653,-485.2 653,-463.2 544,-463.2"/>
<image xlink:href="../../images/primaryKeys.png" width="11px" height="12px" preserveAspectRatio="xMinYMin meet" x="549" y="-480.2"/>
<text text-anchor="start" x="564" y="-470.3" font-family="Helvetica,sans-Serif" font-size="11.00" fill="#000000">id</text>
<polygon fill="none" stroke="#000000" points="544,-441.2 544,-463.2 653,-463.2 653,-441.2 544,-441.2"/>
<image xlink:href="../../images/foreignKeys.png" width="11px" height="12px" preserveAspectRatio="xMinYMin meet" x="549" y="-458.2"/>
<text text-anchor="start" x="564" y="-448.3" font-family="Helvetica,sans-Serif" font-size="11.00" fill="#000000">event_id</text>
<polygon fill="none" stroke="#000000" points="544,-419.2 544,-441.2 653,-441.2 653,-419.2 544,-419.2"/>
<image xlink:href="../../images/foreignKeys.png" width="11px" height="12px" preserveAspectRatio="xMinYMin meet" x="549" y="-436.2"/>
<text text-anchor="start" x="564" y="-426.3" font-family="Helvetica,sans-Serif" font-size="11.00" fill="#000000">user_id</text>
<polygon fill="none" stroke="#000000" points="544,-400.2 544,-419.2 653,-419.2 653,-400.2 544,-400.2"/>
<text text-anchor="start" x="547" y="-406.3" font-family="Helvetica,sans-Serif" font-size="11.00" fill="#000000">...</text>
<polygon fill="#ffffff" stroke="transparent" points="544,-381.2 544,-400.2 581,-400.2 581,-381.2 544,-381.2"/>
<polygon fill="none" stroke="#000000" points="544,-381.2 544,-400.2 581,-400.2 581,-381.2 544,-381.2"/>
<text text-anchor="start" x="547" y="-387.3" font-family="Helvetica,sans-Serif" font-size="11.00" fill="#000000">&lt; 2</text>
<polygon fill="#ffffff" stroke="transparent" points="581,-381.2 581,-400.2 633,-400.2 633,-381.2 581,-381.2"/>
<polygon fill="none" stroke="#000000" points="581,-381.2 581,-400.2 633,-400.2 633,-381.2 581,-381.2"/>
<text text-anchor="start" x="591.4956" y="-387.3" font-family="Helvetica,sans-Serif" font-size="11.00" fill="#000000">20 rows</text>
<polygon fill="#ffffff" stroke="transparent" points="633,-381.2 633,-400.2 653,-400.2 653,-381.2 633,-381.2"/>
<polygon fill="none" stroke="#000000" points="633,-381.2 633,-400.2 653,-400.2 653,-381.2 633,-381.2"/>
<text text-anchor="start" x="643.8862" y="-387.3" font-family="Helvetica,sans-Serif" font-size="11.00" fill="#000000"> &#160;</text>
</a>
</g>
</g>
<!-- rsvps&#45;&gt;events -->
<g id="edge4" class="edge">
<title>rsvps:w&#45;&gt;events:e</title>
<path fill="none" stroke="#000000" d="M529.8797,-448.6308C505.4453,-433.849 517.7079,-378.2 480,-378.2"/>
<polygon fill="#000000" stroke="#000000" points="536.2439,-450.2395 543.1178,-455.6902 540.122,-451.2197 544,-452.2 544,-452.2 544,-452.2 540.122,-451.2197 544.8822,-448.7098 536.2439,-450.2395 536.2439,-450.2395"/>
<ellipse fill="none" stroke="#000000" cx="533.1415" cy="-449.4552" rx="3.2" ry="3.2"/>
</g>
<!-- tags -->
<g id="node6" class="node">
<title>tags</title>
<g id="a_node6"><a xlink:href="../../tables/tags.html" xlink:title="tags" target="_top">
<polygon fill="#ffffff" stroke="transparent" points="549.5,-255.7 549.5,-360.7 646.5,-360.7 646.5,-255.7 549.5,-255.7"/>
<polygon fill="#f5f5f5" stroke="transparent" points="550,-337.2 550,-360.2 647,-360.2 647,-337.2 550,-337.2"/>
<polygon fill="none" stroke="#000000" points="550,-337.2 550,-360.2 647,-360.2 647,-337.2 550,-337.2"/>
<text text-anchor="start" x="555" y="-346.3" font-family="Helvetica,sans-Serif" font-weight="bold" font-size="11.00" fill="#000000">tags</text>
<text text-anchor="start" x="612.0437" y="-345.3" font-family="Helvetica,sans-Serif" font-size="11.00" fill="#000000">[table]</text>
<polygon fill="none" stroke="#000000" points="550,-315.2 550,-337.2 647,-337.2 647,-315.2 550,-315.2"/>
<image xlink:href="../../images/primaryKeys.png" width="11px" height="12px" preserveAspectRatio="xMinYMin meet" x="555" y="-332.2"/>
<text text-anchor="start" x="570" y="-322.3" font-family="Helvetica,sans-Serif" font-size="11.00" fill="#000000">id</text>
<polygon fill="none" stroke="#000000" points="550,-293.2 550,-315.2 647,-315.2 647,-293.2 550,-293.2"/>
<image xlink:href="../../images/foreignKeys.png" width="11px" height="12px" preserveAspectRatio="xMinYMin meet" x="555" y="-310.2"/>
<text text-anchor="start" x="570" y="-300.3" font-family="Helvetica,sans-Serif" font-size="11.00" fill="#000000">event_id</text>
<polygon fill="none" stroke="#000000" points="550,-274.2 550,-293.2 647,-293.2 647,-274.2 550,-274.2"/>
<text text-anchor="start" x="553" y="-280.3" font-family="Helvetica,sans-Serif" font-size="11.00" fill="#000000">...</text>
<polygon fill="#ffffff" stroke="transparent" points="550,-255.2 550,-274.2 584,-274.2 584,-255.2 550,-255.2"/>
<polygon fill="none" stroke="#000000" points="550,-255.2 550,-274.2 584,-274.2 584,-255.2 550,-255.2"/>
<text text-anchor="start" x="553" y="-261.3" font-family="Helvetica,sans-Serif" font-size="11.00" fill="#000000">&lt; 1</text>
<polygon fill="#ffffff" stroke="transparent" points="584,-255.2 584,-274.2 628,-274.2 628,-255.2 584,-255.2"/>
<polygon fill="none" stroke="#000000" points="584,-255.2 584,-274.2 628,-274.2 628,-255.2 584,-255.2"/>
<text text-anchor="start" x="592.6105" y="-261.3" font-family="Helvetica,sans-Serif" font-size="11.00" fill="#000000">9 rows</text>
<polygon fill="#ffffff" stroke="transparent" points="628,-255.2 628,-274.2 647,-274.2 647,-255.2 628,-255.2"/>
<polygon fill="none" stroke="#000000" points="628,-255.2 628,-274.2 647,-274.2 647,-255.2 628,-255.2"/>
<text text-anchor="start" x="637.8862" y="-261.3" font-family="Helvetica,sans-Serif" font-size="11.00" fill="#000000"> &#160;</text>
</a>
</g>
</g>
<!-- tags&#45;&gt;events -->
<g id="edge5" class="edge">
<title>tags:w&#45;&gt;events:e</title>
<path fill="none" stroke="#000000" d="M535.851,-307.3797C508.8355,-321.5438 519.6133,-378.2 480,-378.2"/>
<polygon fill="#000000" stroke="#000000" points="542.1947,-305.9541 550.7894,-307.7124 546.0973,-305.0771 550,-304.2 550,-304.2 550,-304.2 546.0973,-305.0771 549.2106,-300.6876 542.1947,-305.9541 542.1947,-305.9541"/>
<ellipse fill="none" stroke="#000000" cx="539.0725" cy="-306.6558" rx="3.2" ry="3.2"/>
</g>
<!-- user_event_roles -->
<g id="node7" class="node">
<title>user_event_roles</title>
<g id="a_node7"><a xlink:href="../../tables/user_event_roles.html" xlink:title="user_event_roles" target="_top">
<polygon fill="#ffffff" stroke="transparent" points="531,-85.7 531,-234.7 665,-234.7 665,-85.7 531,-85.7"/>
<polygon fill="#f5f5f5" stroke="transparent" points="531,-211.2 531,-234.2 665,-234.2 665,-211.2 531,-211.2"/>
<polygon fill="none" stroke="#000000" points="531,-211.2 531,-234.2 665,-234.2 665,-211.2 531,-211.2"/>
<text text-anchor="start" x="536" y="-220.3" font-family="Helvetica,sans-Serif" font-weight="bold" font-size="11.00" fill="#000000">user_event_roles</text>
<text text-anchor="start" x="630.0437" y="-219.3" font-family="Helvetica,sans-Serif" font-size="11.00" fill="#000000">[table]</text>
<polygon fill="none" stroke="#000000" points="531,-189.2 531,-211.2 665,-211.2 665,-189.2 531,-189.2"/>
<image xlink:href="../../images/primaryKeys.png" width="11px" height="12px" preserveAspectRatio="xMinYMin meet" x="536" y="-206.2"/>
<text text-anchor="start" x="551" y="-196.3" font-family="Helvetica,sans-Serif" font-size="11.00" fill="#000000">id</text>
<polygon fill="none" stroke="#000000" points="531,-167.2 531,-189.2 665,-189.2 665,-167.2 531,-167.2"/>
<image xlink:href="../../images/primaryKeys.png" width="11px" height="12px" preserveAspectRatio="xMinYMin meet" x="536" y="-184.2"/>
<text text-anchor="start" x="551" y="-174.3" font-family="Helvetica,sans-Serif" font-size="11.00" fill="#000000">user_id</text>
<polygon fill="none" stroke="#000000" points="531,-145.2 531,-167.2 665,-167.2 665,-145.2 531,-145.2"/>
<image xlink:href="../../images/primaryKeys.png" width="11px" height="12px" preserveAspectRatio="xMinYMin meet" x="536" y="-162.2"/>
<text text-anchor="start" x="551" y="-152.3" font-family="Helvetica,sans-Serif" font-size="11.00" fill="#000000">event_id</text>
<polygon fill="none" stroke="#000000" points="531,-123.2 531,-145.2 665,-145.2 665,-123.2 531,-123.2"/>
<image xlink:href="../../images/primaryKeys.png" width="11px" height="12px" preserveAspectRatio="xMinYMin meet" x="536" y="-140.2"/>
<text text-anchor="start" x="551" y="-130.3" font-family="Helvetica,sans-Serif" font-size="11.00" fill="#000000">role_name</text>
<polygon fill="none" stroke="#000000" points="531,-104.2 531,-123.2 665,-123.2 665,-104.2 531,-104.2"/>
<text text-anchor="start" x="534" y="-110.3" font-family="Helvetica,sans-Serif" font-size="11.00" fill="#000000">...</text>
<polygon fill="#ffffff" stroke="transparent" points="531,-85.2 531,-104.2 580,-104.2 580,-85.2 531,-85.2"/>
<polygon fill="none" stroke="#000000" points="531,-85.2 531,-104.2 580,-104.2 580,-85.2 531,-85.2"/>
<text text-anchor="start" x="534" y="-91.3" font-family="Helvetica,sans-Serif" font-size="11.00" fill="#000000">&lt; 2</text>
<polygon fill="#ffffff" stroke="transparent" points="580,-85.2 580,-104.2 638,-104.2 638,-85.2 580,-85.2"/>
<polygon fill="none" stroke="#000000" points="580,-85.2 580,-104.2 638,-104.2 638,-85.2 580,-85.2"/>
<text text-anchor="start" x="596.4956" y="-91.3" font-family="Helvetica,sans-Serif" font-size="11.00" fill="#000000">20 rows</text>
<polygon fill="#ffffff" stroke="transparent" points="638,-85.2 638,-104.2 665,-104.2 665,-85.2 638,-85.2"/>
<polygon fill="none" stroke="#000000" points="638,-85.2 638,-104.2 665,-104.2 665,-85.2 638,-85.2"/>
<text text-anchor="start" x="655.8862" y="-91.3" font-family="Helvetica,sans-Serif" font-size="11.00" fill="#000000"> &#160;</text>
</a>
</g>
</g>
<!-- user_event_roles&#45;&gt;events -->
<g id="edge6" class="edge">
<title>user_event_roles:w&#45;&gt;events:e</title>
<path fill="none" stroke="#000000" d="M516.5755,-158.1192C445.5748,-179.8173 575.7004,-378.2 480,-378.2"/>
<polygon fill="#000000" stroke="#000000" points="523.0699,-157.2552 531.4748,-159.7686 527.0349,-156.7276 531,-156.2 531,-156.2 531,-156.2 527.0349,-156.7276 530.5252,-152.6314 523.0699,-157.2552 523.0699,-157.2552"/>
<ellipse fill="none" stroke="#000000" cx="519.8978" cy="-157.6772" rx="3.2" ry="3.2"/>
</g>
</g>
</svg>
