<?xml version="1.0" encoding="UTF-8" standalone="no"?>
<!DOCTYPE svg PUBLIC "-//W3C//DTD SVG 1.1//EN"
 "http://www.w3.org/Graphics/SVG/1.1/DTD/svg11.dtd">
<!-- Generated by graphviz version 2.40.1 (20161225.0304)
 -->
<!-- Title: oneDegreeRelationshipsDiagram Pages: 1 -->
<svg width="393pt" height="245pt"
 viewBox="0.00 0.00 393.00 244.70" xmlns="http://www.w3.org/2000/svg" xmlns:xlink="http://www.w3.org/1999/xlink">
<g id="graph0" class="graph" transform="scale(1 1) rotate(0) translate(4 240.7)">
<title>oneDegreeRelationshipsDiagram</title>
<polygon fill="#ffffff" stroke="transparent" points="-4,4 -4,-240.7 389,-240.7 389,4 -4,4"/>
<text text-anchor="middle" x="72.4936" y="-7.3" font-family="Helvetica,sans-Serif" font-size="11.00" fill="#000000">Generated by SchemaSpy</text>
<!-- event_reminders -->
<g id="node1" class="node">
<title>event_reminders</title>
<g id="a_node1"><a xlink:href="../../tables/event_reminders.html" xlink:title="event_reminders" target="_top">
<polygon fill="#ffffff" stroke="transparent" points="167,-54.7 167,-232.7 377,-232.7 377,-54.7 167,-54.7"/>
<polygon fill="#f5f5f5" stroke="transparent" points="169,-207.7 169,-230.7 375,-230.7 375,-207.7 169,-207.7"/>
<polygon fill="none" stroke="#000000" points="169,-207.7 169,-230.7 375,-230.7 375,-207.7 169,-207.7"/>
<text text-anchor="start" x="174" y="-216.3" font-family="Helvetica,sans-Serif" font-weight="bold" font-size="11.00" fill="#000000">event_reminders</text>
<text text-anchor="start" x="340.0437" y="-215.8" font-family="Helvetica,sans-Serif" font-size="11.00" fill="#000000">[table]</text>
<polygon fill="none" stroke="#000000" points="169,-185.7 169,-207.7 291,-207.7 291,-185.7 169,-185.7"/>
<text text-anchor="start" x="189" y="-192.8" font-family="Helvetica,sans-Serif" font-size="11.00" fill="#000000">created_at</text>
<polygon fill="none" stroke="#000000" points="291,-185.7 291,-207.7 375,-207.7 375,-185.7 291,-185.7"/>
<text text-anchor="start" x="293.8807" y="-193.4" font-family="Helvetica,sans-Serif" font-size="11.00" fill="#000000">timestamp[26,3]</text>
<polygon fill="none" stroke="#000000" points="169,-163.7 169,-185.7 291,-185.7 291,-163.7 169,-163.7"/>
<text text-anchor="start" x="189" y="-170.8" font-family="Helvetica,sans-Serif" font-size="11.00" fill="#000000">updated_at</text>
<polygon fill="none" stroke="#000000" points="291,-163.7 291,-185.7 375,-185.7 375,-163.7 291,-163.7"/>
<text text-anchor="start" x="293.8807" y="-171.4" font-family="Helvetica,sans-Serif" font-size="11.00" fill="#000000">timestamp[26,3]</text>
<polygon fill="none" stroke="#000000" points="169,-141.7 169,-163.7 291,-163.7 291,-141.7 169,-141.7"/>
<image xlink:href="../../images/primaryKeys.png" width="11px" height="12px" preserveAspectRatio="xMinYMin meet" x="174" y="-158.7"/>
<text text-anchor="start" x="189" y="-148.8" font-family="Helvetica,sans-Serif" font-size="11.00" fill="#000000">user_id</text>
<polygon fill="none" stroke="#000000" points="291,-141.7 291,-163.7 375,-163.7 375,-141.7 291,-141.7"/>
<text text-anchor="start" x="294" y="-149.4" font-family="Helvetica,sans-Serif" font-size="11.00" fill="#000000">int4[10]</text>
<polygon fill="none" stroke="#000000" points="169,-119.7 169,-141.7 291,-141.7 291,-119.7 169,-119.7"/>
<image xlink:href="../../images/primaryKeys.png" width="11px" height="12px" preserveAspectRatio="xMinYMin meet" x="174" y="-136.7"/>
<text text-anchor="start" x="189" y="-126.8" font-family="Helvetica,sans-Serif" font-size="11.00" fill="#000000">event_id</text>
<polygon fill="none" stroke="#000000" points="291,-119.7 291,-141.7 375,-141.7 375,-119.7 291,-119.7"/>
<text text-anchor="start" x="294" y="-127.4" font-family="Helvetica,sans-Serif" font-size="11.00" fill="#000000">int4[10]</text>
<polygon fill="none" stroke="#000000" points="169,-97.7 169,-119.7 291,-119.7 291,-97.7 169,-97.7"/>
<text text-anchor="start" x="189" y="-104.8" font-family="Helvetica,sans-Serif" font-size="11.00" fill="#000000">remind_at</text>
<polygon fill="none" stroke="#000000" points="291,-97.7 291,-119.7 375,-119.7 375,-97.7 291,-97.7"/>
<text text-anchor="start" x="293.8807" y="-105.4" font-family="Helvetica,sans-Serif" font-size="11.00" fill="#000000">timestamp[26,3]</text>
<polygon fill="none" stroke="#000000" points="169,-75.7 169,-97.7 291,-97.7 291,-75.7 169,-75.7"/>
<text text-anchor="start" x="189" y="-82.8" font-family="Helvetica,sans-Serif" font-size="11.00" fill="#000000">notifying</text>
<polygon fill="none" stroke="#000000" points="291,-75.7 291,-97.7 375,-97.7 375,-75.7 291,-75.7"/>
<text text-anchor="start" x="294" y="-83.4" font-family="Helvetica,sans-Serif" font-size="11.00" fill="#000000">bool[1]</text>
<polygon fill="#ffffff" stroke="transparent" points="169,-56.7 169,-75.7 221,-75.7 221,-56.7 169,-56.7"/>
<polygon fill="none" stroke="#000000" points="169,-56.7 169,-75.7 221,-75.7 221,-56.7 169,-56.7"/>
<text text-anchor="start" x="172" y="-62.8" font-family="Helvetica,sans-Serif" font-size="11.00" fill="#000000">&lt; 2</text>
<polygon fill="#ffffff" stroke="transparent" points="221,-56.7 221,-75.7 291,-75.7 291,-56.7 221,-56.7"/>
<polygon fill="none" stroke="#000000" points="221,-56.7 221,-75.7 291,-75.7 291,-56.7 221,-56.7"/>
<text text-anchor="start" x="255.6105" y="-62.8" font-family="Helvetica,sans-Serif" font-size="11.00" fill="#000000">0 rows</text>
<polygon fill="#ffffff" stroke="transparent" points="291,-56.7 291,-75.7 375,-75.7 375,-56.7 291,-56.7"/>
<polygon fill="none" stroke="#000000" points="291,-56.7 291,-75.7 375,-75.7 375,-56.7 291,-56.7"/>
<text text-anchor="start" x="356.4053" y="-62.8" font-family="Helvetica,sans-Serif" font-size="11.00" fill="#000000">0 &gt;</text>
<polygon fill="none" stroke="#000000" stroke-width="2" points="168,-55.7 168,-231.7 376,-231.7 376,-55.7 168,-55.7"/>
</a>
</g>
</g>
<!-- event_users -->
<g id="node2" class="node">
<title>event_users</title>
<g id="a_node2"><a xlink:href="../../tables/event_users.html" xlink:title="event_users" target="_top">
<polygon fill="#ffffff" stroke="transparent" points="8,-38.2 8,-187.2 118,-187.2 118,-38.2 8,-38.2"/>
<polygon fill="#f5f5f5" stroke="transparent" points="8,-163.7 8,-186.7 118,-186.7 118,-163.7 8,-163.7"/>
<polygon fill="none" stroke="#000000" points="8,-163.7 8,-186.7 118,-186.7 118,-163.7 8,-163.7"/>
<text text-anchor="start" x="13" y="-172.3" font-family="Helvetica,sans-Serif" font-weight="bold" font-size="11.00" fill="#000000">event_users</text>
<text text-anchor="start" x="83.5219" y="-171.8" font-family="Helvetica,sans-Serif" font-size="11.00" fill="#000000">[table]</text>
<polygon fill="none" stroke="#000000" points="8,-141.7 8,-163.7 118,-163.7 118,-141.7 8,-141.7"/>
<image xlink:href="../../images/primaryKeys.png" width="11px" height="12px" preserveAspectRatio="xMinYMin meet" x="13" y="-158.7"/>
<text text-anchor="start" x="31" y="-148.8" font-family="Helvetica,sans-Serif" font-size="11.00" fill="#000000">user_id</text>
<polygon fill="none" stroke="#000000" points="8,-119.7 8,-141.7 118,-141.7 118,-119.7 8,-119.7"/>
<image xlink:href="../../images/primaryKeys.png" width="11px" height="12px" preserveAspectRatio="xMinYMin meet" x="13" y="-136.7"/>
<text text-anchor="start" x="31" y="-126.8" font-family="Helvetica,sans-Serif" font-size="11.00" fill="#000000">event_id</text>
<polygon fill="none" stroke="#000000" points="8,-97.7 8,-119.7 118,-119.7 118,-97.7 8,-97.7"/>
<image xlink:href="../../images/foreignKeys.png" width="11px" height="12px" preserveAspectRatio="xMinYMin meet" x="13" y="-114.7"/>
<text text-anchor="start" x="31" y="-104.8" font-family="Helvetica,sans-Serif" font-size="11.00" fill="#000000">event_role_id</text>
<polygon fill="none" stroke="#000000" points="8,-75.7 8,-97.7 118,-97.7 118,-75.7 8,-75.7"/>
<image xlink:href="../../images/foreignKeys.png" width="11px" height="12px" preserveAspectRatio="xMinYMin meet" x="13" y="-92.7"/>
<text text-anchor="start" x="31" y="-82.8" font-family="Helvetica,sans-Serif" font-size="11.00" fill="#000000">attendance_id</text>
<polygon fill="none" stroke="#000000" points="8,-56.7 8,-75.7 118,-75.7 118,-56.7 8,-56.7"/>
<text text-anchor="start" x="11" y="-62.8" font-family="Helvetica,sans-Serif" font-size="11.00" fill="#000000">...</text>
<polygon fill="#ffffff" stroke="transparent" points="8,-37.7 8,-56.7 44,-56.7 44,-37.7 8,-37.7"/>
<polygon fill="none" stroke="#000000" points="8,-37.7 8,-56.7 44,-56.7 44,-37.7 8,-37.7"/>
<text text-anchor="start" x="11" y="-43.8" font-family="Helvetica,sans-Serif" font-size="11.00" fill="#000000">&lt; 4</text>
<polygon fill="#ffffff" stroke="transparent" points="44,-37.7 44,-56.7 89,-56.7 89,-37.7 44,-37.7"/>
<polygon fill="none" stroke="#000000" points="44,-37.7 44,-56.7 89,-56.7 89,-37.7 44,-37.7"/>
<text text-anchor="start" x="53.6105" y="-43.8" font-family="Helvetica,sans-Serif" font-size="11.00" fill="#000000">0 rows</text>
<polygon fill="#ffffff" stroke="transparent" points="89,-37.7 89,-56.7 118,-56.7 118,-37.7 89,-37.7"/>
<polygon fill="none" stroke="#000000" points="89,-37.7 89,-56.7 118,-56.7 118,-37.7 89,-37.7"/>
<text text-anchor="start" x="99.4053" y="-43.8" font-family="Helvetica,sans-Serif" font-size="11.00" fill="#000000">2 &gt;</text>
</a>
</g>
</g>
<!-- event_reminders&#45;&gt;event_users -->
<g id="edge1" class="edge">
<title>event_reminders:w&#45;&gt;event_users:e</title>
<path fill="none" stroke="#000000" d="M154.276,-130.7C142.2815,-130.7 134.8229,-130.7 118,-130.7"/>
<polygon fill="#000000" stroke="#000000" points="161,-130.7001 169,-134.3 165,-130.7 169,-130.7 169,-130.7 169,-130.7 165,-130.7 169,-127.1 161,-130.7001 161,-130.7001"/>
<ellipse fill="none" stroke="#000000" cx="157.8" cy="-130.7001" rx="3.2" ry="3.2"/>
</g>
<!-- event_reminders&#45;&gt;event_users -->
<g id="edge2" class="edge">
<title>event_reminders:w&#45;&gt;event_users:e</title>
<path fill="none" stroke="#000000" d="M154.276,-152.7C142.2815,-152.7 134.8229,-152.7 118,-152.7"/>
<polygon fill="#000000" stroke="#000000" points="161,-152.7001 169,-156.3 165,-152.7 169,-152.7 169,-152.7 169,-152.7 165,-152.7 169,-149.1 161,-152.7001 161,-152.7001"/>
<ellipse fill="none" stroke="#000000" cx="157.8" cy="-152.7001" rx="3.2" ry="3.2"/>
</g>
</g>
</svg>
