<?xml version="1.0" encoding="UTF-8" standalone="no"?>
<!DOCTYPE svg PUBLIC "-//W3C//DTD SVG 1.1//EN"
 "http://www.w3.org/Graphics/SVG/1.1/DTD/svg11.dtd">
<!-- Generated by graphviz version 2.40.1 (20161225.0304)
 -->
<!-- Title: twoDegreesRelationshipsDiagram Pages: 1 -->
<svg width="519pt" height="453pt"
 viewBox="0.00 0.00 519.00 452.70" xmlns="http://www.w3.org/2000/svg" xmlns:xlink="http://www.w3.org/1999/xlink">
<g id="graph0" class="graph" transform="scale(1 1) rotate(0) translate(4 448.7)">
<title>twoDegreesRelationshipsDiagram</title>
<polygon fill="#ffffff" stroke="transparent" points="-4,4 -4,-448.7 515,-448.7 515,4 -4,4"/>
<text text-anchor="middle" x="72.4936" y="-7.3" font-family="Helvetica,sans-Serif" font-size="11.00" fill="#000000">Generated by SchemaSpy</text>
<!-- event_sponsors -->
<g id="node1" class="node">
<title>event_sponsors</title>
<g id="a_node1"><a xlink:href="../../tables/event_sponsors.html" xlink:title="event_sponsors" target="_top">
<polygon fill="#ffffff" stroke="transparent" points="289,-284.7 289,-440.7 503,-440.7 503,-284.7 289,-284.7"/>
<polygon fill="#f5f5f5" stroke="transparent" points="291,-415.7 291,-438.7 501,-438.7 501,-415.7 291,-415.7"/>
<polygon fill="none" stroke="#000000" points="291,-415.7 291,-438.7 501,-438.7 501,-415.7 291,-415.7"/>
<text text-anchor="start" x="296" y="-424.8" font-family="Helvetica,sans-Serif" font-weight="bold" font-size="11.00" fill="#000000">event_sponsors</text>
<text text-anchor="start" x="466.0437" y="-423.8" font-family="Helvetica,sans-Serif" font-size="11.00" fill="#000000">[table]</text>
<polygon fill="none" stroke="#000000" points="291,-393.7 291,-415.7 417,-415.7 417,-393.7 291,-393.7"/>
<image xlink:href="../../images/primaryKeys.png" width="11px" height="12px" preserveAspectRatio="xMinYMin meet" x="296" y="-410.7"/>
<text text-anchor="start" x="311" y="-400.8" font-family="Helvetica,sans-Serif" font-size="11.00" fill="#000000">id</text>
<polygon fill="none" stroke="#000000" points="417,-393.7 417,-415.7 501,-415.7 501,-393.7 417,-393.7"/>
<text text-anchor="start" x="420" y="-401.4" font-family="Helvetica,sans-Serif" font-size="11.00" fill="#000000">serial[10]</text>
<polygon fill="none" stroke="#000000" points="291,-371.7 291,-393.7 417,-393.7 417,-371.7 291,-371.7"/>
<image xlink:href="../../images/foreignKeys.png" width="11px" height="12px" preserveAspectRatio="xMinYMin meet" x="296" y="-388.7"/>
<text text-anchor="start" x="311" y="-378.8" font-family="Helvetica,sans-Serif" font-size="11.00" fill="#000000">sponsor_id</text>
<polygon fill="none" stroke="#000000" points="417,-371.7 417,-393.7 501,-393.7 501,-371.7 417,-371.7"/>
<text text-anchor="start" x="420" y="-379.4" font-family="Helvetica,sans-Serif" font-size="11.00" fill="#000000">int4[10]</text>
<polygon fill="none" stroke="#000000" points="291,-349.7 291,-371.7 417,-371.7 417,-349.7 291,-349.7"/>
<image xlink:href="../../images/foreignKeys.png" width="11px" height="12px" preserveAspectRatio="xMinYMin meet" x="296" y="-366.7"/>
<text text-anchor="start" x="311" y="-356.8" font-family="Helvetica,sans-Serif" font-size="11.00" fill="#000000">event_id</text>
<polygon fill="none" stroke="#000000" points="417,-349.7 417,-371.7 501,-371.7 501,-349.7 417,-349.7"/>
<text text-anchor="start" x="420" y="-357.4" font-family="Helvetica,sans-Serif" font-size="11.00" fill="#000000">int4[10]</text>
<polygon fill="none" stroke="#000000" points="291,-327.7 291,-349.7 417,-349.7 417,-327.7 291,-327.7"/>
<text text-anchor="start" x="311" y="-334.8" font-family="Helvetica,sans-Serif" font-size="11.00" fill="#000000">created_at</text>
<polygon fill="none" stroke="#000000" points="417,-327.7 417,-349.7 501,-349.7 501,-327.7 417,-327.7"/>
<text text-anchor="start" x="419.8807" y="-335.4" font-family="Helvetica,sans-Serif" font-size="11.00" fill="#000000">timestamp[29,6]</text>
<polygon fill="none" stroke="#000000" points="291,-305.7 291,-327.7 417,-327.7 417,-305.7 291,-305.7"/>
<text text-anchor="start" x="311" y="-312.8" font-family="Helvetica,sans-Serif" font-size="11.00" fill="#000000">updated_at</text>
<polygon fill="none" stroke="#000000" points="417,-305.7 417,-327.7 501,-327.7 501,-305.7 417,-305.7"/>
<text text-anchor="start" x="419.8807" y="-313.4" font-family="Helvetica,sans-Serif" font-size="11.00" fill="#000000">timestamp[29,6]</text>
<polygon fill="#ffffff" stroke="transparent" points="291,-286.7 291,-305.7 345,-305.7 345,-286.7 291,-286.7"/>
<polygon fill="none" stroke="#000000" points="291,-286.7 291,-305.7 345,-305.7 345,-286.7 291,-286.7"/>
<text text-anchor="start" x="294" y="-292.8" font-family="Helvetica,sans-Serif" font-size="11.00" fill="#000000">&lt; 2</text>
<polygon fill="#ffffff" stroke="transparent" points="345,-286.7 345,-305.7 417,-305.7 417,-286.7 345,-286.7"/>
<polygon fill="none" stroke="#000000" points="345,-286.7 345,-305.7 417,-305.7 417,-286.7 345,-286.7"/>
<text text-anchor="start" x="381.6105" y="-292.8" font-family="Helvetica,sans-Serif" font-size="11.00" fill="#000000">8 rows</text>
<polygon fill="#ffffff" stroke="transparent" points="417,-286.7 417,-305.7 501,-305.7 501,-286.7 417,-286.7"/>
<polygon fill="none" stroke="#000000" points="417,-286.7 417,-305.7 501,-305.7 501,-286.7 417,-286.7"/>
<text text-anchor="start" x="482.4053" y="-292.8" font-family="Helvetica,sans-Serif" font-size="11.00" fill="#000000">0 &gt;</text>
<polygon fill="none" stroke="#000000" stroke-width="2" points="290,-285.7 290,-439.7 502,-439.7 502,-285.7 290,-285.7"/>
</a>
</g>
</g>
<!-- events -->
<g id="node2" class="node">
<title>events</title>
<g id="a_node2"><a xlink:href="../../tables/events.html" xlink:title="events" target="_top">
<polygon fill="#ffffff" stroke="transparent" points="142,-96.2 142,-223.2 240,-223.2 240,-96.2 142,-96.2"/>
<polygon fill="#f5f5f5" stroke="transparent" points="142,-199.7 142,-222.7 240,-222.7 240,-199.7 142,-199.7"/>
<polygon fill="none" stroke="#000000" points="142,-199.7 142,-222.7 240,-222.7 240,-199.7 142,-199.7"/>
<text text-anchor="start" x="147" y="-208.8" font-family="Helvetica,sans-Serif" font-weight="bold" font-size="11.00" fill="#000000">events</text>
<text text-anchor="start" x="205.0437" y="-207.8" font-family="Helvetica,sans-Serif" font-size="11.00" fill="#000000">[table]</text>
<polygon fill="none" stroke="#000000" points="142,-177.7 142,-199.7 240,-199.7 240,-177.7 142,-177.7"/>
<image xlink:href="../../images/primaryKeys.png" width="11px" height="12px" preserveAspectRatio="xMinYMin meet" x="147" y="-194.7"/>
<text text-anchor="start" x="162" y="-184.8" font-family="Helvetica,sans-Serif" font-size="11.00" fill="#000000">id</text>
<polygon fill="none" stroke="#000000" points="142,-155.7 142,-177.7 240,-177.7 240,-155.7 142,-155.7"/>
<image xlink:href="../../images/foreignKeys.png" width="11px" height="12px" preserveAspectRatio="xMinYMin meet" x="147" y="-172.7"/>
<text text-anchor="start" x="162" y="-162.8" font-family="Helvetica,sans-Serif" font-size="11.00" fill="#000000">venue_id</text>
<polygon fill="none" stroke="#000000" points="142,-133.7 142,-155.7 240,-155.7 240,-133.7 142,-133.7"/>
<image xlink:href="../../images/foreignKeys.png" width="11px" height="12px" preserveAspectRatio="xMinYMin meet" x="147" y="-150.7"/>
<text text-anchor="start" x="162" y="-140.8" font-family="Helvetica,sans-Serif" font-size="11.00" fill="#000000">chapter_id</text>
<polygon fill="none" stroke="#000000" points="142,-114.7 142,-133.7 240,-133.7 240,-114.7 142,-114.7"/>
<text text-anchor="start" x="145" y="-120.8" font-family="Helvetica,sans-Serif" font-size="11.00" fill="#000000">...</text>
<polygon fill="#ffffff" stroke="transparent" points="142,-95.7 142,-114.7 172,-114.7 172,-95.7 142,-95.7"/>
<polygon fill="none" stroke="#000000" points="142,-95.7 142,-114.7 172,-114.7 172,-95.7 142,-95.7"/>
<text text-anchor="start" x="145" y="-101.8" font-family="Helvetica,sans-Serif" font-size="11.00" fill="#000000">&lt; 2</text>
<polygon fill="#ffffff" stroke="transparent" points="172,-95.7 172,-114.7 214,-114.7 214,-95.7 172,-95.7"/>
<polygon fill="none" stroke="#000000" points="172,-95.7 172,-114.7 214,-114.7 214,-95.7 172,-95.7"/>
<text text-anchor="start" x="178.6105" y="-101.8" font-family="Helvetica,sans-Serif" font-size="11.00" fill="#000000">4 rows</text>
<polygon fill="#ffffff" stroke="transparent" points="214,-95.7 214,-114.7 240,-114.7 240,-95.7 214,-95.7"/>
<polygon fill="none" stroke="#000000" points="214,-95.7 214,-114.7 240,-114.7 240,-95.7 214,-95.7"/>
<text text-anchor="start" x="221.4053" y="-101.8" font-family="Helvetica,sans-Serif" font-size="11.00" fill="#000000">4 &gt;</text>
</a>
</g>
</g>
<!-- event_sponsors&#45;&gt;events -->
<g id="edge1" class="edge">
<title>event_sponsors:w&#45;&gt;events:e</title>
<path fill="none" stroke="#000000" d="M276.5204,-358.1351C225.9601,-336.7389 313.9721,-188.7 240,-188.7"/>
<polygon fill="#000000" stroke="#000000" points="283.1226,-359.3046 290.3721,-364.2448 287.0613,-360.0023 291,-360.7 291,-360.7 291,-360.7 287.0613,-360.0023 291.6279,-357.1552 283.1226,-359.3046 283.1226,-359.3046"/>
<ellipse fill="none" stroke="#000000" cx="279.9717" cy="-358.7464" rx="3.2" ry="3.2"/>
</g>
<!-- sponsors -->
<g id="node3" class="node">
<title>sponsors</title>
<g id="a_node3"><a xlink:href="../../tables/sponsors.html" xlink:title="sponsors" target="_top">
<polygon fill="#ffffff" stroke="transparent" points="142.5,-334.2 142.5,-417.2 239.5,-417.2 239.5,-334.2 142.5,-334.2"/>
<polygon fill="#f5f5f5" stroke="transparent" points="143,-393.7 143,-416.7 240,-416.7 240,-393.7 143,-393.7"/>
<polygon fill="none" stroke="#000000" points="143,-393.7 143,-416.7 240,-416.7 240,-393.7 143,-393.7"/>
<text text-anchor="start" x="148" y="-402.8" font-family="Helvetica,sans-Serif" font-weight="bold" font-size="11.00" fill="#000000">sponsors</text>
<text text-anchor="start" x="205.0437" y="-401.8" font-family="Helvetica,sans-Serif" font-size="11.00" fill="#000000">[table]</text>
<polygon fill="none" stroke="#000000" points="143,-371.7 143,-393.7 240,-393.7 240,-371.7 143,-371.7"/>
<image xlink:href="../../images/primaryKeys.png" width="11px" height="12px" preserveAspectRatio="xMinYMin meet" x="148" y="-388.7"/>
<text text-anchor="start" x="163" y="-378.8" font-family="Helvetica,sans-Serif" font-size="11.00" fill="#000000">id</text>
<polygon fill="none" stroke="#000000" points="143,-352.7 143,-371.7 240,-371.7 240,-352.7 143,-352.7"/>
<text text-anchor="start" x="146" y="-358.8" font-family="Helvetica,sans-Serif" font-size="11.00" fill="#000000">...</text>
<polygon fill="#ffffff" stroke="transparent" points="143,-333.7 143,-352.7 168,-352.7 168,-333.7 143,-333.7"/>
<polygon fill="none" stroke="#000000" points="143,-333.7 143,-352.7 168,-352.7 168,-333.7 143,-333.7"/>
<text text-anchor="start" x="146" y="-339.8" font-family="Helvetica,sans-Serif" font-size="11.00" fill="#000000"> &#160;</text>
<polygon fill="#ffffff" stroke="transparent" points="168,-333.7 168,-352.7 212,-352.7 212,-333.7 168,-333.7"/>
<polygon fill="none" stroke="#000000" points="168,-333.7 168,-352.7 212,-352.7 212,-333.7 168,-333.7"/>
<text text-anchor="start" x="176.6105" y="-339.8" font-family="Helvetica,sans-Serif" font-size="11.00" fill="#000000">4 rows</text>
<polygon fill="#ffffff" stroke="transparent" points="212,-333.7 212,-352.7 240,-352.7 240,-333.7 212,-333.7"/>
<polygon fill="none" stroke="#000000" points="212,-333.7 212,-352.7 240,-352.7 240,-333.7 212,-333.7"/>
<text text-anchor="start" x="221.4053" y="-339.8" font-family="Helvetica,sans-Serif" font-size="11.00" fill="#000000">1 &gt;</text>
</a>
</g>
</g>
<!-- event_sponsors&#45;&gt;sponsors -->
<g id="edge2" class="edge">
<title>event_sponsors:w&#45;&gt;sponsors:e</title>
<path fill="none" stroke="#000000" d="M276.276,-382.7C264.2815,-382.7 256.8229,-382.7 240,-382.7"/>
<polygon fill="#000000" stroke="#000000" points="283,-382.7001 291,-386.3 287,-382.7 291,-382.7 291,-382.7 291,-382.7 287,-382.7 291,-379.1 283,-382.7001 283,-382.7001"/>
<ellipse fill="none" stroke="#000000" cx="279.8" cy="-382.7001" rx="3.2" ry="3.2"/>
</g>
<!-- chapters -->
<g id="node4" class="node">
<title>chapters</title>
<g id="a_node4"><a xlink:href="../../tables/chapters.html" xlink:title="chapters" target="_top">
<polygon fill="#ffffff" stroke="transparent" points="8,-87.2 8,-148.2 93,-148.2 93,-87.2 8,-87.2"/>
<polygon fill="#f5f5f5" stroke="transparent" points="8.5,-124.7 8.5,-147.7 93.5,-147.7 93.5,-124.7 8.5,-124.7"/>
<polygon fill="none" stroke="#000000" points="8.5,-124.7 8.5,-147.7 93.5,-147.7 93.5,-124.7 8.5,-124.7"/>
<text text-anchor="start" x="13.4108" y="-133.8" font-family="Helvetica,sans-Serif" font-weight="bold" font-size="11.00" fill="#000000">chapters</text>
<text text-anchor="start" x="59.0219" y="-132.8" font-family="Helvetica,sans-Serif" font-size="11.00" fill="#000000">[table]</text>
<polygon fill="none" stroke="#000000" points="8.5,-105.7 8.5,-124.7 93.5,-124.7 93.5,-105.7 8.5,-105.7"/>
<text text-anchor="start" x="11.5" y="-111.8" font-family="Helvetica,sans-Serif" font-size="11.00" fill="#000000">...</text>
<polygon fill="#ffffff" stroke="transparent" points="8.5,-86.7 8.5,-105.7 31.5,-105.7 31.5,-86.7 8.5,-86.7"/>
<polygon fill="none" stroke="#000000" points="8.5,-86.7 8.5,-105.7 31.5,-105.7 31.5,-86.7 8.5,-86.7"/>
<text text-anchor="start" x="11.5" y="-92.8" font-family="Helvetica,sans-Serif" font-size="11.00" fill="#000000">&lt; 1</text>
<polygon fill="#ffffff" stroke="transparent" points="31.5,-86.7 31.5,-105.7 70.5,-105.7 70.5,-86.7 31.5,-86.7"/>
<polygon fill="none" stroke="#000000" points="31.5,-86.7 31.5,-105.7 70.5,-105.7 70.5,-86.7 31.5,-86.7"/>
<text text-anchor="start" x="35.1105" y="-92.8" font-family="Helvetica,sans-Serif" font-size="11.00" fill="#000000">4 rows</text>
<polygon fill="#ffffff" stroke="transparent" points="70.5,-86.7 70.5,-105.7 93.5,-105.7 93.5,-86.7 70.5,-86.7"/>
<polygon fill="none" stroke="#000000" points="70.5,-86.7 70.5,-105.7 93.5,-105.7 93.5,-86.7 70.5,-86.7"/>
<text text-anchor="start" x="74.9053" y="-92.8" font-family="Helvetica,sans-Serif" font-size="11.00" fill="#000000">3 &gt;</text>
</a>
</g>
</g>
<!-- events&#45;&gt;chapters -->
<g id="edge3" class="edge">
<title>events:w&#45;&gt;chapters:e</title>
<path fill="none" stroke="#000000" d="M128.0076,-140.5286C116.1688,-132.2854 112.9055,-114.7 93.5,-114.7"/>
<polygon fill="#000000" stroke="#000000" points="134.3334,-142.4144 140.9715,-148.15 138.1667,-143.5572 142,-144.7 142,-144.7 142,-144.7 138.1667,-143.5572 143.0285,-141.25 134.3334,-142.4144 134.3334,-142.4144"/>
<ellipse fill="none" stroke="#000000" cx="131.2668" cy="-141.5002" rx="3.2" ry="3.2"/>
</g>
<!-- venues -->
<g id="node5" class="node">
<title>venues</title>
<g id="a_node5"><a xlink:href="../../tables/venues.html" xlink:title="venues" target="_top">
<polygon fill="#ffffff" stroke="transparent" points="11.5,-169.2 11.5,-230.2 89.5,-230.2 89.5,-169.2 11.5,-169.2"/>
<polygon fill="#f5f5f5" stroke="transparent" points="11.5,-206.7 11.5,-229.7 89.5,-229.7 89.5,-206.7 11.5,-206.7"/>
<polygon fill="none" stroke="#000000" points="11.5,-206.7 11.5,-229.7 89.5,-229.7 89.5,-206.7 11.5,-206.7"/>
<text text-anchor="start" x="16.2702" y="-215.8" font-family="Helvetica,sans-Serif" font-weight="bold" font-size="11.00" fill="#000000">venues</text>
<text text-anchor="start" x="55.0219" y="-214.8" font-family="Helvetica,sans-Serif" font-size="11.00" fill="#000000">[table]</text>
<polygon fill="none" stroke="#000000" points="11.5,-187.7 11.5,-206.7 89.5,-206.7 89.5,-187.7 11.5,-187.7"/>
<text text-anchor="start" x="14.5" y="-193.8" font-family="Helvetica,sans-Serif" font-size="11.00" fill="#000000">...</text>
<polygon fill="#ffffff" stroke="transparent" points="11.5,-168.7 11.5,-187.7 26.5,-187.7 26.5,-168.7 11.5,-168.7"/>
<polygon fill="none" stroke="#000000" points="11.5,-168.7 11.5,-187.7 26.5,-187.7 26.5,-168.7 11.5,-168.7"/>
<text text-anchor="start" x="14.5" y="-174.8" font-family="Helvetica,sans-Serif" font-size="11.00" fill="#000000"> &#160;</text>
<polygon fill="#ffffff" stroke="transparent" points="26.5,-168.7 26.5,-187.7 66.5,-187.7 66.5,-168.7 26.5,-168.7"/>
<polygon fill="none" stroke="#000000" points="26.5,-168.7 26.5,-187.7 66.5,-187.7 66.5,-168.7 26.5,-168.7"/>
<text text-anchor="start" x="31.1105" y="-174.8" font-family="Helvetica,sans-Serif" font-size="11.00" fill="#000000">4 rows</text>
<polygon fill="#ffffff" stroke="transparent" points="66.5,-168.7 66.5,-187.7 89.5,-187.7 89.5,-168.7 66.5,-168.7"/>
<polygon fill="none" stroke="#000000" points="66.5,-168.7 66.5,-187.7 89.5,-187.7 89.5,-168.7 66.5,-168.7"/>
<text text-anchor="start" x="70.9053" y="-174.8" font-family="Helvetica,sans-Serif" font-size="11.00" fill="#000000">1 &gt;</text>
</a>
</g>
</g>
<!-- events&#45;&gt;venues -->
<g id="edge4" class="edge">
<title>events:w&#45;&gt;venues:e</title>
<path fill="none" stroke="#000000" d="M127.8122,-170.3786C114.3263,-178.3895 110.4955,-196.7 89.5,-196.7"/>
<polygon fill="#000000" stroke="#000000" points="134.2561,-168.7079 142.9035,-170.1848 138.128,-167.7039 142,-166.7 142,-166.7 142,-166.7 138.128,-167.7039 141.0965,-163.2152 134.2561,-168.7079 134.2561,-168.7079"/>
<ellipse fill="none" stroke="#000000" cx="131.1585" cy="-169.511" rx="3.2" ry="3.2"/>
</g>
<!-- rsvps -->
<g id="node6" class="node">
<title>rsvps</title>
<g id="a_node6"><a xlink:href="../../tables/rsvps.html" xlink:title="rsvps" target="_top">
<polygon fill="#ffffff" stroke="transparent" points="357.5,-202.2 357.5,-263.2 434.5,-263.2 434.5,-202.2 357.5,-202.2"/>
<polygon fill="#f5f5f5" stroke="transparent" points="358,-239.7 358,-262.7 435,-262.7 435,-239.7 358,-239.7"/>
<polygon fill="none" stroke="#000000" points="358,-239.7 358,-262.7 435,-262.7 435,-239.7 358,-239.7"/>
<text text-anchor="start" x="363" y="-248.8" font-family="Helvetica,sans-Serif" font-weight="bold" font-size="11.00" fill="#000000">rsvps</text>
<text text-anchor="start" x="400.0437" y="-247.8" font-family="Helvetica,sans-Serif" font-size="11.00" fill="#000000">[table]</text>
<polygon fill="none" stroke="#000000" points="358,-220.7 358,-239.7 435,-239.7 435,-220.7 358,-220.7"/>
<text text-anchor="start" x="361" y="-226.8" font-family="Helvetica,sans-Serif" font-size="11.00" fill="#000000">...</text>
<polygon fill="#ffffff" stroke="transparent" points="358,-201.7 358,-220.7 379,-220.7 379,-201.7 358,-201.7"/>
<polygon fill="none" stroke="#000000" points="358,-201.7 358,-220.7 379,-220.7 379,-201.7 358,-201.7"/>
<text text-anchor="start" x="360.7027" y="-207.8" font-family="Helvetica,sans-Serif" font-size="11.00" fill="#000000">&lt; 2</text>
<polygon fill="#ffffff" stroke="transparent" points="379,-201.7 379,-220.7 423,-220.7 423,-201.7 379,-201.7"/>
<polygon fill="none" stroke="#000000" points="379,-201.7 379,-220.7 423,-220.7 423,-201.7 379,-201.7"/>
<text text-anchor="start" x="381.7478" y="-207.8" font-family="Helvetica,sans-Serif" font-size="11.00" fill="#000000">20 rows</text>
<polygon fill="#ffffff" stroke="transparent" points="423,-201.7 423,-220.7 435,-220.7 435,-201.7 423,-201.7"/>
<polygon fill="none" stroke="#000000" points="423,-201.7 423,-220.7 435,-220.7 435,-201.7 423,-201.7"/>
<text text-anchor="start" x="425.9431" y="-207.8" font-family="Helvetica,sans-Serif" font-size="11.00" fill="#000000"> &#160;</text>
</a>
</g>
</g>
<!-- rsvps&#45;&gt;events -->
<g id="edge5" class="edge">
<title>rsvps:w&#45;&gt;events:e</title>
<path fill="none" stroke="#000000" d="M343.5854,-228.6865C300.7482,-222.3729 290.315,-188.7 240,-188.7"/>
<polygon fill="#000000" stroke="#000000" points="350.0197,-229.1389 357.7475,-233.2911 354.0099,-229.4194 358,-229.7 358,-229.7 358,-229.7 354.0099,-229.4194 358.2525,-226.1089 350.0197,-229.1389 350.0197,-229.1389"/>
<ellipse fill="none" stroke="#000000" cx="346.8276" cy="-228.9144" rx="3.2" ry="3.2"/>
</g>
<!-- tags -->
<g id="node7" class="node">
<title>tags</title>
<g id="a_node7"><a xlink:href="../../tables/tags.html" xlink:title="tags" target="_top">
<polygon fill="#ffffff" stroke="transparent" points="360.5,-120.2 360.5,-181.2 431.5,-181.2 431.5,-120.2 360.5,-120.2"/>
<polygon fill="#f5f5f5" stroke="transparent" points="361,-157.7 361,-180.7 432,-180.7 432,-157.7 361,-157.7"/>
<polygon fill="none" stroke="#000000" points="361,-157.7 361,-180.7 432,-180.7 432,-157.7 361,-157.7"/>
<text text-anchor="start" x="366" y="-166.8" font-family="Helvetica,sans-Serif" font-weight="bold" font-size="11.00" fill="#000000">tags</text>
<text text-anchor="start" x="397.0437" y="-165.8" font-family="Helvetica,sans-Serif" font-size="11.00" fill="#000000">[table]</text>
<polygon fill="none" stroke="#000000" points="361,-138.7 361,-157.7 432,-157.7 432,-138.7 361,-138.7"/>
<text text-anchor="start" x="364" y="-144.8" font-family="Helvetica,sans-Serif" font-size="11.00" fill="#000000">...</text>
<polygon fill="#ffffff" stroke="transparent" points="361,-119.7 361,-138.7 382,-138.7 382,-119.7 361,-119.7"/>
<polygon fill="none" stroke="#000000" points="361,-119.7 361,-138.7 382,-138.7 382,-119.7 361,-119.7"/>
<text text-anchor="start" x="363.7027" y="-125.8" font-family="Helvetica,sans-Serif" font-size="11.00" fill="#000000">&lt; 1</text>
<polygon fill="#ffffff" stroke="transparent" points="382,-119.7 382,-138.7 420,-138.7 420,-119.7 382,-119.7"/>
<polygon fill="none" stroke="#000000" points="382,-119.7 382,-138.7 420,-138.7 420,-119.7 382,-119.7"/>
<text text-anchor="start" x="384.8053" y="-125.8" font-family="Helvetica,sans-Serif" font-size="11.00" fill="#000000">9 rows</text>
<polygon fill="#ffffff" stroke="transparent" points="420,-119.7 420,-138.7 432,-138.7 432,-119.7 420,-119.7"/>
<polygon fill="none" stroke="#000000" points="420,-119.7 420,-138.7 432,-138.7 432,-119.7 420,-119.7"/>
<text text-anchor="start" x="422.9431" y="-125.8" font-family="Helvetica,sans-Serif" font-size="11.00" fill="#000000"> &#160;</text>
</a>
</g>
</g>
<!-- tags&#45;&gt;events -->
<g id="edge6" class="edge">
<title>tags:w&#45;&gt;events:e</title>
<path fill="none" stroke="#000000" d="M346.5341,-148.673C302.4375,-154.8819 291.5688,-188.7 240,-188.7"/>
<polygon fill="#000000" stroke="#000000" points="353.018,-148.237 361.2416,-151.2919 357.009,-147.9685 361,-147.7 361,-147.7 361,-147.7 357.009,-147.9685 360.7584,-144.1081 353.018,-148.237 353.018,-148.237"/>
<ellipse fill="none" stroke="#000000" cx="349.8253" cy="-148.4517" rx="3.2" ry="3.2"/>
</g>
<!-- user_event_roles -->
<g id="node8" class="node">
<title>user_event_roles</title>
<g id="a_node8"><a xlink:href="../../tables/user_event_roles.html" xlink:title="user_event_roles" target="_top">
<polygon fill="#ffffff" stroke="transparent" points="332.5,-38.2 332.5,-99.2 459.5,-99.2 459.5,-38.2 332.5,-38.2"/>
<polygon fill="#f5f5f5" stroke="transparent" points="333,-75.7 333,-98.7 460,-98.7 460,-75.7 333,-75.7"/>
<polygon fill="none" stroke="#000000" points="333,-75.7 333,-98.7 460,-98.7 460,-75.7 333,-75.7"/>
<text text-anchor="start" x="337.8222" y="-84.8" font-family="Helvetica,sans-Serif" font-weight="bold" font-size="11.00" fill="#000000">user_event_roles</text>
<text text-anchor="start" x="425.5219" y="-83.8" font-family="Helvetica,sans-Serif" font-size="11.00" fill="#000000">[table]</text>
<polygon fill="none" stroke="#000000" points="333,-56.7 333,-75.7 460,-75.7 460,-56.7 333,-56.7"/>
<text text-anchor="start" x="336" y="-62.8" font-family="Helvetica,sans-Serif" font-size="11.00" fill="#000000">...</text>
<polygon fill="#ffffff" stroke="transparent" points="333,-37.7 333,-56.7 379,-56.7 379,-37.7 333,-37.7"/>
<polygon fill="none" stroke="#000000" points="333,-37.7 333,-56.7 379,-56.7 379,-37.7 333,-37.7"/>
<text text-anchor="start" x="336" y="-43.8" font-family="Helvetica,sans-Serif" font-size="11.00" fill="#000000">&lt; 2</text>
<polygon fill="#ffffff" stroke="transparent" points="379,-37.7 379,-56.7 435,-56.7 435,-37.7 379,-37.7"/>
<polygon fill="none" stroke="#000000" points="379,-37.7 379,-56.7 435,-56.7 435,-37.7 379,-37.7"/>
<text text-anchor="start" x="393.4956" y="-43.8" font-family="Helvetica,sans-Serif" font-size="11.00" fill="#000000">20 rows</text>
<polygon fill="#ffffff" stroke="transparent" points="435,-37.7 435,-56.7 460,-56.7 460,-37.7 435,-37.7"/>
<polygon fill="none" stroke="#000000" points="435,-37.7 435,-56.7 460,-56.7 460,-37.7 435,-37.7"/>
<text text-anchor="start" x="450.8862" y="-43.8" font-family="Helvetica,sans-Serif" font-size="11.00" fill="#000000"> &#160;</text>
</a>
</g>
</g>
<!-- user_event_roles&#45;&gt;events -->
<g id="edge7" class="edge">
<title>user_event_roles:w&#45;&gt;events:e</title>
<path fill="none" stroke="#000000" d="M318.5775,-67.7329C301.0966,-73.4438 296.3449,-90.4751 281,-109.7 256.3226,-140.6171 279.5581,-188.7 240,-188.7"/>
<polygon fill="#000000" stroke="#000000" points="325.0783,-66.8167 333.5025,-69.2648 329.0392,-66.2583 333,-65.7 333,-65.7 333,-65.7 329.0392,-66.2583 332.4975,-62.1352 325.0783,-66.8167 325.0783,-66.8167"/>
<ellipse fill="none" stroke="#000000" cx="321.9096" cy="-67.2633" rx="3.2" ry="3.2"/>
</g>
</g>
</svg>
