<?xml version="1.0" encoding="UTF-8" standalone="no"?>
<!DOCTYPE svg PUBLIC "-//W3C//DTD SVG 1.1//EN"
 "http://www.w3.org/Graphics/SVG/1.1/DTD/svg11.dtd">
<!-- Generated by graphviz version 2.40.1 (20161225.0304)
 -->
<!-- Title: oneDegreeRelationshipsDiagram Pages: 1 -->
<svg width="536pt" height="310pt"
 viewBox="0.00 0.00 536.00 310.20" xmlns="http://www.w3.org/2000/svg" xmlns:xlink="http://www.w3.org/1999/xlink">
<g id="graph0" class="graph" transform="scale(1 1) rotate(0) translate(4 306.2)">
<title>oneDegreeRelationshipsDiagram</title>
<polygon fill="#ffffff" stroke="transparent" points="-4,4 -4,-306.2 532,-306.2 532,4 -4,4"/>
<text text-anchor="middle" x="72.4936" y="-7.3" font-family="Helvetica,sans-Serif" font-size="11.00" fill="#000000">Generated by SchemaSpy</text>
<!-- event_reminders -->
<g id="node1" class="node">
<title>event_reminders</title>
<g id="a_node1"><a xlink:href="../../tables/event_reminders.html" xlink:title="event_reminders" target="_top">
<polygon fill="#ffffff" stroke="transparent" points="310,-113.7 310,-291.7 520,-291.7 520,-113.7 310,-113.7"/>
<polygon fill="#f5f5f5" stroke="transparent" points="312,-266.7 312,-289.7 518,-289.7 518,-266.7 312,-266.7"/>
<polygon fill="none" stroke="#000000" points="312,-266.7 312,-289.7 518,-289.7 518,-266.7 312,-266.7"/>
<text text-anchor="start" x="317" y="-275.8" font-family="Helvetica,sans-Serif" font-weight="bold" font-size="11.00" fill="#000000">event_reminders</text>
<text text-anchor="start" x="483.0437" y="-274.8" font-family="Helvetica,sans-Serif" font-size="11.00" fill="#000000">[table]</text>
<polygon fill="none" stroke="#000000" points="312,-244.7 312,-266.7 434,-266.7 434,-244.7 312,-244.7"/>
<text text-anchor="start" x="332" y="-251.8" font-family="Helvetica,sans-Serif" font-size="11.00" fill="#000000">created_at</text>
<polygon fill="none" stroke="#000000" points="434,-244.7 434,-266.7 518,-266.7 518,-244.7 434,-244.7"/>
<text text-anchor="start" x="436.8807" y="-252.4" font-family="Helvetica,sans-Serif" font-size="11.00" fill="#000000">timestamp[26,3]</text>
<polygon fill="none" stroke="#000000" points="312,-222.7 312,-244.7 434,-244.7 434,-222.7 312,-222.7"/>
<text text-anchor="start" x="332" y="-229.8" font-family="Helvetica,sans-Serif" font-size="11.00" fill="#000000">updated_at</text>
<polygon fill="none" stroke="#000000" points="434,-222.7 434,-244.7 518,-244.7 518,-222.7 434,-222.7"/>
<text text-anchor="start" x="436.8807" y="-230.4" font-family="Helvetica,sans-Serif" font-size="11.00" fill="#000000">timestamp[26,3]</text>
<polygon fill="none" stroke="#000000" points="312,-200.7 312,-222.7 434,-222.7 434,-200.7 312,-200.7"/>
<image xlink:href="../../images/primaryKeys.png" width="11px" height="12px" preserveAspectRatio="xMinYMin meet" x="317" y="-217.7"/>
<text text-anchor="start" x="332" y="-207.8" font-family="Helvetica,sans-Serif" font-size="11.00" fill="#000000">user_id</text>
<polygon fill="none" stroke="#000000" points="434,-200.7 434,-222.7 518,-222.7 518,-200.7 434,-200.7"/>
<text text-anchor="start" x="437" y="-208.4" font-family="Helvetica,sans-Serif" font-size="11.00" fill="#000000">int4[10]</text>
<polygon fill="none" stroke="#000000" points="312,-178.7 312,-200.7 434,-200.7 434,-178.7 312,-178.7"/>
<image xlink:href="../../images/primaryKeys.png" width="11px" height="12px" preserveAspectRatio="xMinYMin meet" x="317" y="-195.7"/>
<text text-anchor="start" x="332" y="-185.8" font-family="Helvetica,sans-Serif" font-size="11.00" fill="#000000">event_id</text>
<polygon fill="none" stroke="#000000" points="434,-178.7 434,-200.7 518,-200.7 518,-178.7 434,-178.7"/>
<text text-anchor="start" x="437" y="-186.4" font-family="Helvetica,sans-Serif" font-size="11.00" fill="#000000">int4[10]</text>
<polygon fill="none" stroke="#000000" points="312,-156.7 312,-178.7 434,-178.7 434,-156.7 312,-156.7"/>
<text text-anchor="start" x="332" y="-163.8" font-family="Helvetica,sans-Serif" font-size="11.00" fill="#000000">remind_at</text>
<polygon fill="none" stroke="#000000" points="434,-156.7 434,-178.7 518,-178.7 518,-156.7 434,-156.7"/>
<text text-anchor="start" x="436.8807" y="-164.4" font-family="Helvetica,sans-Serif" font-size="11.00" fill="#000000">timestamp[26,3]</text>
<polygon fill="none" stroke="#000000" points="312,-134.7 312,-156.7 434,-156.7 434,-134.7 312,-134.7"/>
<text text-anchor="start" x="332" y="-141.8" font-family="Helvetica,sans-Serif" font-size="11.00" fill="#000000">notifying</text>
<polygon fill="none" stroke="#000000" points="434,-134.7 434,-156.7 518,-156.7 518,-134.7 434,-134.7"/>
<text text-anchor="start" x="437" y="-142.4" font-family="Helvetica,sans-Serif" font-size="11.00" fill="#000000">bool[1]</text>
<polygon fill="#ffffff" stroke="transparent" points="312,-115.7 312,-134.7 364,-134.7 364,-115.7 312,-115.7"/>
<polygon fill="none" stroke="#000000" points="312,-115.7 312,-134.7 364,-134.7 364,-115.7 312,-115.7"/>
<text text-anchor="start" x="315" y="-121.8" font-family="Helvetica,sans-Serif" font-size="11.00" fill="#000000">&lt; 4</text>
<polygon fill="#ffffff" stroke="transparent" points="364,-115.7 364,-134.7 434,-134.7 434,-115.7 364,-115.7"/>
<polygon fill="none" stroke="#000000" points="364,-115.7 364,-134.7 434,-134.7 434,-115.7 364,-115.7"/>
<text text-anchor="start" x="398.6105" y="-121.8" font-family="Helvetica,sans-Serif" font-size="11.00" fill="#000000">0 rows</text>
<polygon fill="#ffffff" stroke="transparent" points="434,-115.7 434,-134.7 518,-134.7 518,-115.7 434,-115.7"/>
<polygon fill="none" stroke="#000000" points="434,-115.7 434,-134.7 518,-134.7 518,-115.7 434,-115.7"/>
<text text-anchor="start" x="499.4053" y="-121.8" font-family="Helvetica,sans-Serif" font-size="11.00" fill="#000000">0 &gt;</text>
<polygon fill="none" stroke="#000000" stroke-width="2" points="311,-114.7 311,-290.7 519,-290.7 519,-114.7 311,-114.7"/>
</a>
</g>
</g>
<!-- events -->
<g id="node2" class="node">
<title>events</title>
<g id="a_node2"><a xlink:href="../../tables/events.html" xlink:title="events" target="_top">
<polygon fill="#ffffff" stroke="transparent" points="8,-38.2 8,-165.2 112,-165.2 112,-38.2 8,-38.2"/>
<polygon fill="#f5f5f5" stroke="transparent" points="8,-141.7 8,-164.7 112,-164.7 112,-141.7 8,-141.7"/>
<polygon fill="none" stroke="#000000" points="8,-141.7 8,-164.7 112,-164.7 112,-141.7 8,-141.7"/>
<text text-anchor="start" x="13" y="-150.8" font-family="Helvetica,sans-Serif" font-weight="bold" font-size="11.00" fill="#000000">events</text>
<text text-anchor="start" x="77.0437" y="-149.8" font-family="Helvetica,sans-Serif" font-size="11.00" fill="#000000">[table]</text>
<polygon fill="none" stroke="#000000" points="8,-119.7 8,-141.7 112,-141.7 112,-119.7 8,-119.7"/>
<image xlink:href="../../images/primaryKeys.png" width="11px" height="12px" preserveAspectRatio="xMinYMin meet" x="13" y="-136.7"/>
<text text-anchor="start" x="28" y="-126.8" font-family="Helvetica,sans-Serif" font-size="11.00" fill="#000000">id</text>
<polygon fill="none" stroke="#000000" points="8,-97.7 8,-119.7 112,-119.7 112,-97.7 8,-97.7"/>
<image xlink:href="../../images/foreignKeys.png" width="11px" height="12px" preserveAspectRatio="xMinYMin meet" x="13" y="-114.7"/>
<text text-anchor="start" x="28" y="-104.8" font-family="Helvetica,sans-Serif" font-size="11.00" fill="#000000">venue_id</text>
<polygon fill="none" stroke="#000000" points="8,-75.7 8,-97.7 112,-97.7 112,-75.7 8,-75.7"/>
<image xlink:href="../../images/foreignKeys.png" width="11px" height="12px" preserveAspectRatio="xMinYMin meet" x="13" y="-92.7"/>
<text text-anchor="start" x="28" y="-82.8" font-family="Helvetica,sans-Serif" font-size="11.00" fill="#000000">chapter_id</text>
<polygon fill="none" stroke="#000000" points="8,-56.7 8,-75.7 112,-75.7 112,-56.7 8,-56.7"/>
<text text-anchor="start" x="11" y="-62.8" font-family="Helvetica,sans-Serif" font-size="11.00" fill="#000000">...</text>
<polygon fill="#ffffff" stroke="transparent" points="8,-37.7 8,-56.7 41,-56.7 41,-37.7 8,-37.7"/>
<polygon fill="none" stroke="#000000" points="8,-37.7 8,-56.7 41,-56.7 41,-37.7 8,-37.7"/>
<text text-anchor="start" x="11" y="-43.8" font-family="Helvetica,sans-Serif" font-size="11.00" fill="#000000">&lt; 2</text>
<polygon fill="#ffffff" stroke="transparent" points="41,-37.7 41,-56.7 85,-56.7 85,-37.7 41,-37.7"/>
<polygon fill="none" stroke="#000000" points="41,-37.7 41,-56.7 85,-56.7 85,-37.7 41,-37.7"/>
<text text-anchor="start" x="49.6105" y="-43.8" font-family="Helvetica,sans-Serif" font-size="11.00" fill="#000000">0 rows</text>
<polygon fill="#ffffff" stroke="transparent" points="85,-37.7 85,-56.7 112,-56.7 112,-37.7 85,-37.7"/>
<polygon fill="none" stroke="#000000" points="85,-37.7 85,-56.7 112,-56.7 112,-37.7 85,-37.7"/>
<text text-anchor="start" x="93.4053" y="-43.8" font-family="Helvetica,sans-Serif" font-size="11.00" fill="#000000">5 &gt;</text>
</a>
</g>
</g>
<!-- event_reminders&#45;&gt;events -->
<g id="edge1" class="edge">
<title>event_reminders:w&#45;&gt;events:e</title>
<path fill="none" stroke="#000000" d="M298.0724,-185.1817C284.924,-173.5274 292.2731,-142.5365 269,-130.7 206.804,-99.0677 181.7778,-130.7 112,-130.7"/>
<polygon fill="#000000" stroke="#000000" points="304.3904,-187.2313 310.8891,-193.1243 308.1952,-188.4657 312,-189.7 312,-189.7 312,-189.7 308.1952,-188.4657 313.1109,-186.2757 304.3904,-187.2313 304.3904,-187.2313"/>
<ellipse fill="none" stroke="#000000" cx="301.3466" cy="-186.2439" rx="3.2" ry="3.2"/>
</g>
<!-- rsvps -->
<g id="node3" class="node">
<title>rsvps</title>
<g id="a_node3"><a xlink:href="../../tables/rsvps.html" xlink:title="rsvps" target="_top">
<polygon fill="#ffffff" stroke="transparent" points="161,-141.2 161,-246.2 261,-246.2 261,-141.2 161,-141.2"/>
<polygon fill="#f5f5f5" stroke="transparent" points="161,-222.7 161,-245.7 261,-245.7 261,-222.7 161,-222.7"/>
<polygon fill="none" stroke="#000000" points="161,-222.7 161,-245.7 261,-245.7 261,-222.7 161,-222.7"/>
<text text-anchor="start" x="166" y="-231.8" font-family="Helvetica,sans-Serif" font-weight="bold" font-size="11.00" fill="#000000">rsvps</text>
<text text-anchor="start" x="226.0437" y="-230.8" font-family="Helvetica,sans-Serif" font-size="11.00" fill="#000000">[table]</text>
<polygon fill="none" stroke="#000000" points="161,-200.7 161,-222.7 261,-222.7 261,-200.7 161,-200.7"/>
<image xlink:href="../../images/primaryKeys.png" width="11px" height="12px" preserveAspectRatio="xMinYMin meet" x="166" y="-217.7"/>
<text text-anchor="start" x="181" y="-207.8" font-family="Helvetica,sans-Serif" font-size="11.00" fill="#000000">user_id</text>
<polygon fill="none" stroke="#000000" points="161,-178.7 161,-200.7 261,-200.7 261,-178.7 161,-178.7"/>
<image xlink:href="../../images/primaryKeys.png" width="11px" height="12px" preserveAspectRatio="xMinYMin meet" x="166" y="-195.7"/>
<text text-anchor="start" x="181" y="-185.8" font-family="Helvetica,sans-Serif" font-size="11.00" fill="#000000">event_id</text>
<polygon fill="none" stroke="#000000" points="161,-159.7 161,-178.7 261,-178.7 261,-159.7 161,-159.7"/>
<text text-anchor="start" x="164" y="-165.8" font-family="Helvetica,sans-Serif" font-size="11.00" fill="#000000">...</text>
<polygon fill="#ffffff" stroke="transparent" points="161,-140.7 161,-159.7 192,-159.7 192,-140.7 161,-140.7"/>
<polygon fill="none" stroke="#000000" points="161,-140.7 161,-159.7 192,-159.7 192,-140.7 161,-140.7"/>
<text text-anchor="start" x="164" y="-146.8" font-family="Helvetica,sans-Serif" font-size="11.00" fill="#000000">&lt; 2</text>
<polygon fill="#ffffff" stroke="transparent" points="192,-140.7 192,-159.7 235,-159.7 235,-140.7 192,-140.7"/>
<polygon fill="none" stroke="#000000" points="192,-140.7 192,-159.7 235,-159.7 235,-140.7 192,-140.7"/>
<text text-anchor="start" x="199.6105" y="-146.8" font-family="Helvetica,sans-Serif" font-size="11.00" fill="#000000">0 rows</text>
<polygon fill="#ffffff" stroke="transparent" points="235,-140.7 235,-159.7 261,-159.7 261,-140.7 235,-140.7"/>
<polygon fill="none" stroke="#000000" points="235,-140.7 235,-159.7 261,-159.7 261,-140.7 235,-140.7"/>
<text text-anchor="start" x="242.4053" y="-146.8" font-family="Helvetica,sans-Serif" font-size="11.00" fill="#000000">2 &gt;</text>
</a>
</g>
</g>
<!-- event_reminders&#45;&gt;rsvps -->
<g id="edge2" class="edge">
<title>event_reminders:w&#45;&gt;rsvps:e</title>
<path fill="none" stroke="#000000" d="M297.276,-189.7C285.2815,-189.7 277.8229,-189.7 261,-189.7"/>
<polygon fill="#000000" stroke="#000000" points="304,-189.7001 312,-193.3 308,-189.7 312,-189.7 312,-189.7 312,-189.7 308,-189.7 312,-186.1 304,-189.7001 304,-189.7001"/>
<ellipse fill="none" stroke="#000000" cx="300.8" cy="-189.7001" rx="3.2" ry="3.2"/>
</g>
<!-- event_reminders&#45;&gt;rsvps -->
<g id="edge3" class="edge">
<title>event_reminders:w&#45;&gt;rsvps:e</title>
<path fill="none" stroke="#000000" d="M297.276,-211.7C285.2815,-211.7 277.8229,-211.7 261,-211.7"/>
<polygon fill="#000000" stroke="#000000" points="304,-211.7001 312,-215.3 308,-211.7 312,-211.7 312,-211.7 312,-211.7 308,-211.7 312,-208.1 304,-211.7001 304,-211.7001"/>
<ellipse fill="none" stroke="#000000" cx="300.8" cy="-211.7001" rx="3.2" ry="3.2"/>
</g>
<!-- users -->
<g id="node4" class="node">
<title>users</title>
<g id="a_node4"><a xlink:href="../../tables/users.html" xlink:title="users" target="_top">
<polygon fill="#ffffff" stroke="transparent" points="16,-193.2 16,-298.2 104,-298.2 104,-193.2 16,-193.2"/>
<polygon fill="#f5f5f5" stroke="transparent" points="16,-274.7 16,-297.7 104,-297.7 104,-274.7 16,-274.7"/>
<polygon fill="none" stroke="#000000" points="16,-274.7 16,-297.7 104,-297.7 104,-274.7 16,-274.7"/>
<text text-anchor="start" x="21" y="-283.8" font-family="Helvetica,sans-Serif" font-weight="bold" font-size="11.00" fill="#000000">users</text>
<text text-anchor="start" x="69.0437" y="-282.8" font-family="Helvetica,sans-Serif" font-size="11.00" fill="#000000">[table]</text>
<polygon fill="none" stroke="#000000" points="16,-252.7 16,-274.7 104,-274.7 104,-252.7 16,-252.7"/>
<image xlink:href="../../images/primaryKeys.png" width="11px" height="12px" preserveAspectRatio="xMinYMin meet" x="21" y="-269.7"/>
<text text-anchor="start" x="36" y="-259.8" font-family="Helvetica,sans-Serif" font-size="11.00" fill="#000000">id</text>
<polygon fill="#ffffff" stroke="transparent" points="16,-230.7 16,-252.7 104,-252.7 104,-230.7 16,-230.7"/>
<polygon fill="none" stroke="#000000" points="16,-230.7 16,-252.7 104,-252.7 104,-230.7 16,-230.7"/>
<text text-anchor="start" x="36" y="-237.8" font-family="Helvetica,sans-Serif" font-size="11.00" fill="#000000">email</text>
<polygon fill="none" stroke="#000000" points="16,-211.7 16,-230.7 104,-230.7 104,-211.7 16,-211.7"/>
<text text-anchor="start" x="19" y="-217.8" font-family="Helvetica,sans-Serif" font-size="11.00" fill="#000000">...</text>
<polygon fill="#ffffff" stroke="transparent" points="16,-192.7 16,-211.7 36,-211.7 36,-192.7 16,-192.7"/>
<polygon fill="none" stroke="#000000" points="16,-192.7 16,-211.7 36,-211.7 36,-192.7 16,-192.7"/>
<text text-anchor="start" x="19" y="-198.8" font-family="Helvetica,sans-Serif" font-size="11.00" fill="#000000"> &#160;</text>
<polygon fill="#ffffff" stroke="transparent" points="36,-192.7 36,-211.7 78,-211.7 78,-192.7 36,-192.7"/>
<polygon fill="none" stroke="#000000" points="36,-192.7 36,-211.7 78,-211.7 78,-192.7 36,-192.7"/>
<text text-anchor="start" x="42.6105" y="-198.8" font-family="Helvetica,sans-Serif" font-size="11.00" fill="#000000">0 rows</text>
<polygon fill="#ffffff" stroke="transparent" points="78,-192.7 78,-211.7 104,-211.7 104,-192.7 78,-192.7"/>
<polygon fill="none" stroke="#000000" points="78,-192.7 78,-211.7 104,-211.7 104,-192.7 78,-192.7"/>
<text text-anchor="start" x="85.4053" y="-198.8" font-family="Helvetica,sans-Serif" font-size="11.00" fill="#000000">6 &gt;</text>
</a>
</g>
</g>
<!-- event_reminders&#45;&gt;users -->
<g id="edge4" class="edge">
<title>event_reminders:w&#45;&gt;users:e</title>
<path fill="none" stroke="#000000" d="M298.1322,-216.2237C287.0061,-225.7811 288.4898,-247.8731 269,-256.7 202.1383,-286.9815 177.3993,-263.7 104,-263.7"/>
<polygon fill="#000000" stroke="#000000" points="304.3944,-214.181 313.1164,-215.1225 308.1972,-212.9405 312,-211.7 312,-211.7 312,-211.7 308.1972,-212.9405 310.8836,-208.2775 304.3944,-214.181 304.3944,-214.181"/>
<ellipse fill="none" stroke="#000000" cx="301.3522" cy="-215.1734" rx="3.2" ry="3.2"/>
</g>
<!-- rsvps&#45;&gt;events -->
<g id="edge5" class="edge">
<title>rsvps:w&#45;&gt;events:e</title>
<path fill="none" stroke="#000000" d="M147.1662,-184.6697C132.0842,-170.4018 139.9614,-130.7 112,-130.7"/>
<polygon fill="#000000" stroke="#000000" points="153.4816,-186.9661 159.7697,-193.0833 157.2408,-188.3331 161,-189.7 161,-189.7 161,-189.7 157.2408,-188.3331 162.2303,-186.3167 153.4816,-186.9661 153.4816,-186.9661"/>
<ellipse fill="none" stroke="#000000" cx="150.4743" cy="-185.8725" rx="3.2" ry="3.2"/>
</g>
<!-- rsvps&#45;&gt;users -->
<g id="edge6" class="edge">
<title>rsvps:w&#45;&gt;users:e</title>
<path fill="none" stroke="#000000" d="M146.9182,-215.7804C129.335,-228.0389 132.3976,-263.7 104,-263.7"/>
<polygon fill="#000000" stroke="#000000" points="153.3161,-213.9265 162.0019,-215.1578 157.158,-212.8133 161,-211.7 161,-211.7 161,-211.7 157.158,-212.8133 159.9981,-208.2422 153.3161,-213.9265 153.3161,-213.9265"/>
<ellipse fill="none" stroke="#000000" cx="150.2425" cy="-214.8171" rx="3.2" ry="3.2"/>
</g>
</g>
</svg>
