<?xml version="1.0" encoding="UTF-8" standalone="no"?>
<!DOCTYPE svg PUBLIC "-//W3C//DTD SVG 1.1//EN"
 "http://www.w3.org/Graphics/SVG/1.1/DTD/svg11.dtd">
<!-- Generated by graphviz version 2.40.1 (20161225.0304)
 -->
<!-- Title: oneDegreeRelationshipsDiagram Pages: 1 -->
<svg width="472pt" height="281pt"
 viewBox="0.00 0.00 472.00 281.20" xmlns="http://www.w3.org/2000/svg" xmlns:xlink="http://www.w3.org/1999/xlink">
<g id="graph0" class="graph" transform="scale(1 1) rotate(0) translate(4 277.2)">
<title>oneDegreeRelationshipsDiagram</title>
<polygon fill="#ffffff" stroke="transparent" points="-4,4 -4,-277.2 468,-277.2 468,4 -4,4"/>
<text text-anchor="middle" x="72.4936" y="-7.3" font-family="Helvetica,sans-Serif" font-size="11.00" fill="#000000">Generated by SchemaSpy</text>
<!-- event_role_permissions -->
<g id="node1" class="node">
<title>event_role_permissions</title>
<g id="a_node1"><a xlink:href="../../tables/event_role_permissions.html" xlink:title="event_role_permissions" target="_top">
<polygon fill="#ffffff" stroke="transparent" points="207,-128.7 207,-262.7 456,-262.7 456,-128.7 207,-128.7"/>
<polygon fill="#f5f5f5" stroke="transparent" points="209.5,-237.7 209.5,-260.7 454.5,-260.7 454.5,-237.7 209.5,-237.7"/>
<polygon fill="none" stroke="#000000" points="209.5,-237.7 209.5,-260.7 454.5,-260.7 454.5,-237.7 209.5,-237.7"/>
<text text-anchor="start" x="214.5" y="-246.3" font-family="Helvetica,sans-Serif" font-weight="bold" font-size="11.00" fill="#000000">event_role_permissions</text>
<text text-anchor="start" x="419.5437" y="-245.8" font-family="Helvetica,sans-Serif" font-size="11.00" fill="#000000">[table]</text>
<polygon fill="none" stroke="#000000" points="209.5,-215.7 209.5,-237.7 370.5,-237.7 370.5,-215.7 209.5,-215.7"/>
<text text-anchor="start" x="229.5" y="-222.8" font-family="Helvetica,sans-Serif" font-size="11.00" fill="#000000">created_at</text>
<polygon fill="none" stroke="#000000" points="370.5,-215.7 370.5,-237.7 454.5,-237.7 454.5,-215.7 370.5,-215.7"/>
<text text-anchor="start" x="373.3807" y="-223.4" font-family="Helvetica,sans-Serif" font-size="11.00" fill="#000000">timestamp[26,3]</text>
<polygon fill="none" stroke="#000000" points="209.5,-193.7 209.5,-215.7 370.5,-215.7 370.5,-193.7 209.5,-193.7"/>
<text text-anchor="start" x="229.5" y="-200.8" font-family="Helvetica,sans-Serif" font-size="11.00" fill="#000000">updated_at</text>
<polygon fill="none" stroke="#000000" points="370.5,-193.7 370.5,-215.7 454.5,-215.7 454.5,-193.7 370.5,-193.7"/>
<text text-anchor="start" x="373.3807" y="-201.4" font-family="Helvetica,sans-Serif" font-size="11.00" fill="#000000">timestamp[26,3]</text>
<polygon fill="none" stroke="#000000" points="209.5,-171.7 209.5,-193.7 370.5,-193.7 370.5,-171.7 209.5,-171.7"/>
<image xlink:href="../../images/primaryKeys.png" width="11px" height="12px" preserveAspectRatio="xMinYMin meet" x="214.5" y="-188.7"/>
<text text-anchor="start" x="229.5" y="-178.8" font-family="Helvetica,sans-Serif" font-size="11.00" fill="#000000">event_role_id</text>
<polygon fill="none" stroke="#000000" points="370.5,-171.7 370.5,-193.7 454.5,-193.7 454.5,-171.7 370.5,-171.7"/>
<text text-anchor="start" x="373.5" y="-179.4" font-family="Helvetica,sans-Serif" font-size="11.00" fill="#000000">int4[10]</text>
<polygon fill="none" stroke="#000000" points="209.5,-149.7 209.5,-171.7 370.5,-171.7 370.5,-149.7 209.5,-149.7"/>
<image xlink:href="../../images/primaryKeys.png" width="11px" height="12px" preserveAspectRatio="xMinYMin meet" x="214.5" y="-166.7"/>
<text text-anchor="start" x="229.5" y="-156.8" font-family="Helvetica,sans-Serif" font-size="11.00" fill="#000000">event_permission_id</text>
<polygon fill="none" stroke="#000000" points="370.5,-149.7 370.5,-171.7 454.5,-171.7 454.5,-149.7 370.5,-149.7"/>
<text text-anchor="start" x="373.5" y="-157.4" font-family="Helvetica,sans-Serif" font-size="11.00" fill="#000000">int4[10]</text>
<polygon fill="#ffffff" stroke="transparent" points="209.5,-130.7 209.5,-149.7 281.5,-149.7 281.5,-130.7 209.5,-130.7"/>
<polygon fill="none" stroke="#000000" points="209.5,-130.7 209.5,-149.7 281.5,-149.7 281.5,-130.7 209.5,-130.7"/>
<text text-anchor="start" x="212.5" y="-136.8" font-family="Helvetica,sans-Serif" font-size="11.00" fill="#000000">&lt; 2</text>
<polygon fill="#ffffff" stroke="transparent" points="281.5,-130.7 281.5,-149.7 370.5,-149.7 370.5,-130.7 281.5,-130.7"/>
<polygon fill="none" stroke="#000000" points="281.5,-130.7 281.5,-149.7 370.5,-149.7 370.5,-130.7 281.5,-130.7"/>
<text text-anchor="start" x="335.1105" y="-136.8" font-family="Helvetica,sans-Serif" font-size="11.00" fill="#000000">0 rows</text>
<polygon fill="#ffffff" stroke="transparent" points="370.5,-130.7 370.5,-149.7 454.5,-149.7 454.5,-130.7 370.5,-130.7"/>
<polygon fill="none" stroke="#000000" points="370.5,-130.7 370.5,-149.7 454.5,-149.7 454.5,-130.7 370.5,-130.7"/>
<text text-anchor="start" x="435.9053" y="-136.8" font-family="Helvetica,sans-Serif" font-size="11.00" fill="#000000">0 &gt;</text>
<polygon fill="none" stroke="#000000" stroke-width="2" points="208,-129.7 208,-261.7 455,-261.7 455,-129.7 208,-129.7"/>
</a>
</g>
</g>
<!-- event_permissions -->
<g id="node2" class="node">
<title>event_permissions</title>
<g id="a_node2"><a xlink:href="../../tables/event_permissions.html" xlink:title="event_permissions" target="_top">
<polygon fill="#ffffff" stroke="transparent" points="8,-38.2 8,-143.2 158,-143.2 158,-38.2 8,-38.2"/>
<polygon fill="#f5f5f5" stroke="transparent" points="8,-119.7 8,-142.7 158,-142.7 158,-119.7 8,-119.7"/>
<polygon fill="none" stroke="#000000" points="8,-119.7 8,-142.7 158,-142.7 158,-119.7 8,-119.7"/>
<text text-anchor="start" x="13" y="-128.3" font-family="Helvetica,sans-Serif" font-weight="bold" font-size="11.00" fill="#000000">event_permissions</text>
<text text-anchor="start" x="123.5219" y="-127.8" font-family="Helvetica,sans-Serif" font-size="11.00" fill="#000000">[table]</text>
<polygon fill="none" stroke="#000000" points="8,-97.7 8,-119.7 158,-119.7 158,-97.7 8,-97.7"/>
<image xlink:href="../../images/primaryKeys.png" width="11px" height="12px" preserveAspectRatio="xMinYMin meet" x="13" y="-114.7"/>
<text text-anchor="start" x="37" y="-104.8" font-family="Helvetica,sans-Serif" font-size="11.00" fill="#000000">id</text>
<polygon fill="#ffffff" stroke="transparent" points="8,-75.7 8,-97.7 158,-97.7 158,-75.7 8,-75.7"/>
<polygon fill="none" stroke="#000000" points="8,-75.7 8,-97.7 158,-97.7 158,-75.7 8,-75.7"/>
<text text-anchor="start" x="37" y="-82.8" font-family="Helvetica,sans-Serif" font-size="11.00" fill="#000000">name</text>
<polygon fill="none" stroke="#000000" points="8,-56.7 8,-75.7 158,-75.7 158,-56.7 8,-56.7"/>
<text text-anchor="start" x="11" y="-62.8" font-family="Helvetica,sans-Serif" font-size="11.00" fill="#000000">...</text>
<polygon fill="#ffffff" stroke="transparent" points="8,-37.7 8,-56.7 59,-56.7 59,-37.7 8,-37.7"/>
<polygon fill="none" stroke="#000000" points="8,-37.7 8,-56.7 59,-56.7 59,-37.7 8,-37.7"/>
<text text-anchor="start" x="11" y="-43.8" font-family="Helvetica,sans-Serif" font-size="11.00" fill="#000000"> &#160;</text>
<polygon fill="#ffffff" stroke="transparent" points="59,-37.7 59,-56.7 117,-56.7 117,-37.7 59,-37.7"/>
<polygon fill="none" stroke="#000000" points="59,-37.7 59,-56.7 117,-56.7 117,-37.7 59,-37.7"/>
<text text-anchor="start" x="81.6105" y="-43.8" font-family="Helvetica,sans-Serif" font-size="11.00" fill="#000000">0 rows</text>
<polygon fill="#ffffff" stroke="transparent" points="117,-37.7 117,-56.7 158,-56.7 158,-37.7 117,-37.7"/>
<polygon fill="none" stroke="#000000" points="117,-37.7 117,-56.7 158,-56.7 158,-37.7 117,-37.7"/>
<text text-anchor="start" x="139.4053" y="-43.8" font-family="Helvetica,sans-Serif" font-size="11.00" fill="#000000">1 &gt;</text>
</a>
</g>
</g>
<!-- event_role_permissions&#45;&gt;event_permissions -->
<g id="edge1" class="edge">
<title>event_role_permissions:w&#45;&gt;event_permissions:e</title>
<path fill="none" stroke="#000000" d="M195.4561,-155.9012C180.4356,-143.0281 184.4284,-108.7 158,-108.7"/>
<polygon fill="#000000" stroke="#000000" points="201.9297,-158.1132 208.3359,-164.1066 205.7149,-159.4066 209.5,-160.7 209.5,-160.7 209.5,-160.7 205.7149,-159.4066 210.6641,-157.2934 201.9297,-158.1132 201.9297,-158.1132"/>
<ellipse fill="none" stroke="#000000" cx="198.9016" cy="-157.0785" rx="3.2" ry="3.2"/>
</g>
<!-- event_roles -->
<g id="node3" class="node">
<title>event_roles</title>
<g id="a_node3"><a xlink:href="../../tables/event_roles.html" xlink:title="event_roles" target="_top">
<polygon fill="#ffffff" stroke="transparent" points="29.5,-164.2 29.5,-269.2 136.5,-269.2 136.5,-164.2 29.5,-164.2"/>
<polygon fill="#f5f5f5" stroke="transparent" points="30,-245.7 30,-268.7 137,-268.7 137,-245.7 30,-245.7"/>
<polygon fill="none" stroke="#000000" points="30,-245.7 30,-268.7 137,-268.7 137,-245.7 30,-245.7"/>
<text text-anchor="start" x="35" y="-254.3" font-family="Helvetica,sans-Serif" font-weight="bold" font-size="11.00" fill="#000000">event_roles</text>
<text text-anchor="start" x="102.5219" y="-253.8" font-family="Helvetica,sans-Serif" font-size="11.00" fill="#000000">[table]</text>
<polygon fill="none" stroke="#000000" points="30,-223.7 30,-245.7 137,-245.7 137,-223.7 30,-223.7"/>
<image xlink:href="../../images/primaryKeys.png" width="11px" height="12px" preserveAspectRatio="xMinYMin meet" x="35" y="-240.7"/>
<text text-anchor="start" x="59" y="-230.8" font-family="Helvetica,sans-Serif" font-size="11.00" fill="#000000">id</text>
<polygon fill="#ffffff" stroke="transparent" points="30,-201.7 30,-223.7 137,-223.7 137,-201.7 30,-201.7"/>
<polygon fill="none" stroke="#000000" points="30,-201.7 30,-223.7 137,-223.7 137,-201.7 30,-201.7"/>
<text text-anchor="start" x="59" y="-208.8" font-family="Helvetica,sans-Serif" font-size="11.00" fill="#000000">name</text>
<polygon fill="none" stroke="#000000" points="30,-182.7 30,-201.7 137,-201.7 137,-182.7 30,-182.7"/>
<text text-anchor="start" x="33" y="-188.8" font-family="Helvetica,sans-Serif" font-size="11.00" fill="#000000">...</text>
<polygon fill="#ffffff" stroke="transparent" points="30,-163.7 30,-182.7 60,-182.7 60,-163.7 30,-163.7"/>
<polygon fill="none" stroke="#000000" points="30,-163.7 30,-182.7 60,-182.7 60,-163.7 30,-163.7"/>
<text text-anchor="start" x="33" y="-169.8" font-family="Helvetica,sans-Serif" font-size="11.00" fill="#000000"> &#160;</text>
<polygon fill="#ffffff" stroke="transparent" points="60,-163.7 60,-182.7 107,-182.7 107,-163.7 60,-163.7"/>
<polygon fill="none" stroke="#000000" points="60,-163.7 60,-182.7 107,-182.7 107,-163.7 60,-163.7"/>
<text text-anchor="start" x="71.6105" y="-169.8" font-family="Helvetica,sans-Serif" font-size="11.00" fill="#000000">0 rows</text>
<polygon fill="#ffffff" stroke="transparent" points="107,-163.7 107,-182.7 137,-182.7 137,-163.7 107,-163.7"/>
<polygon fill="none" stroke="#000000" points="107,-163.7 107,-182.7 137,-182.7 137,-163.7 107,-163.7"/>
<text text-anchor="start" x="118.4053" y="-169.8" font-family="Helvetica,sans-Serif" font-size="11.00" fill="#000000">2 &gt;</text>
</a>
</g>
</g>
<!-- event_role_permissions&#45;&gt;event_roles -->
<g id="edge2" class="edge">
<title>event_role_permissions:w&#45;&gt;event_roles:e</title>
<path fill="none" stroke="#000000" d="M195.2691,-185.4957C170.8422,-196.2967 171.0772,-234.7 137,-234.7"/>
<polygon fill="#000000" stroke="#000000" points="201.65,-184.2422 210.194,-186.2325 205.575,-183.4711 209.5,-182.7 209.5,-182.7 209.5,-182.7 205.575,-183.4711 208.806,-179.1675 201.65,-184.2422 201.65,-184.2422"/>
<ellipse fill="none" stroke="#000000" cx="198.5101" cy="-184.8591" rx="3.2" ry="3.2"/>
</g>
</g>
</svg>
