<?xml version="1.0" encoding="UTF-8" standalone="no"?>
<!DOCTYPE svg PUBLIC "-//W3C//DTD SVG 1.1//EN"
 "http://www.w3.org/Graphics/SVG/1.1/DTD/svg11.dtd">
<!-- Generated by graphviz version 2.40.1 (20161225.0304)
 -->
<!-- Title: oneDegreeRelationshipsDiagram Pages: 1 -->
<svg width="673pt" height="573pt"
 viewBox="0.00 0.00 673.00 572.70" xmlns="http://www.w3.org/2000/svg" xmlns:xlink="http://www.w3.org/1999/xlink">
<g id="graph0" class="graph" transform="scale(1 1) rotate(0) translate(4 568.7)">
<title>oneDegreeRelationshipsDiagram</title>
<polygon fill="#ffffff" stroke="transparent" points="-4,4 -4,-568.7 669,-568.7 669,4 -4,4"/>
<text text-anchor="middle" x="72.4936" y="-7.3" font-family="Helvetica,sans-Serif" font-size="11.00" fill="#000000">Generated by SchemaSpy</text>
<!-- event_sponsors -->
<g id="node1" class="node">
<title>event_sponsors</title>
<g id="a_node1"><a xlink:href="../../tables/event_sponsors.html" xlink:title="event_sponsors" target="_top">
<polygon fill="#ffffff" stroke="transparent" points="531,-433.7 531,-560.7 657,-560.7 657,-433.7 531,-433.7"/>
<polygon fill="#f5f5f5" stroke="transparent" points="531,-537.2 531,-560.2 657,-560.2 657,-537.2 531,-537.2"/>
<polygon fill="none" stroke="#000000" points="531,-537.2 531,-560.2 657,-560.2 657,-537.2 531,-537.2"/>
<text text-anchor="start" x="536" y="-546.3" font-family="Helvetica,sans-Serif" font-weight="bold" font-size="11.00" fill="#000000">event_sponsors</text>
<text text-anchor="start" x="622.0437" y="-545.3" font-family="Helvetica,sans-Serif" font-size="11.00" fill="#000000">[table]</text>
<polygon fill="none" stroke="#000000" points="531,-515.2 531,-537.2 657,-537.2 657,-515.2 531,-515.2"/>
<image xlink:href="../../images/primaryKeys.png" width="11px" height="12px" preserveAspectRatio="xMinYMin meet" x="536" y="-532.2"/>
<text text-anchor="start" x="551" y="-522.3" font-family="Helvetica,sans-Serif" font-size="11.00" fill="#000000">id</text>
<polygon fill="none" stroke="#000000" points="531,-493.2 531,-515.2 657,-515.2 657,-493.2 531,-493.2"/>
<image xlink:href="../../images/foreignKeys.png" width="11px" height="12px" preserveAspectRatio="xMinYMin meet" x="536" y="-510.2"/>
<text text-anchor="start" x="551" y="-500.3" font-family="Helvetica,sans-Serif" font-size="11.00" fill="#000000">sponsor_id</text>
<polygon fill="none" stroke="#000000" points="531,-471.2 531,-493.2 657,-493.2 657,-471.2 531,-471.2"/>
<image xlink:href="../../images/foreignKeys.png" width="11px" height="12px" preserveAspectRatio="xMinYMin meet" x="536" y="-488.2"/>
<text text-anchor="start" x="551" y="-478.3" font-family="Helvetica,sans-Serif" font-size="11.00" fill="#000000">event_id</text>
<polygon fill="none" stroke="#000000" points="531,-452.2 531,-471.2 657,-471.2 657,-452.2 531,-452.2"/>
<text text-anchor="start" x="534" y="-458.3" font-family="Helvetica,sans-Serif" font-size="11.00" fill="#000000">...</text>
<polygon fill="#ffffff" stroke="transparent" points="531,-433.2 531,-452.2 579,-452.2 579,-433.2 531,-433.2"/>
<polygon fill="none" stroke="#000000" points="531,-433.2 531,-452.2 579,-452.2 579,-433.2 531,-433.2"/>
<text text-anchor="start" x="534" y="-439.3" font-family="Helvetica,sans-Serif" font-size="11.00" fill="#000000">&lt; 2</text>
<polygon fill="#ffffff" stroke="transparent" points="579,-433.2 579,-452.2 631,-452.2 631,-433.2 579,-433.2"/>
<polygon fill="none" stroke="#000000" points="579,-433.2 579,-452.2 631,-452.2 631,-433.2 579,-433.2"/>
<text text-anchor="start" x="595.6105" y="-439.3" font-family="Helvetica,sans-Serif" font-size="11.00" fill="#000000">8 rows</text>
<polygon fill="#ffffff" stroke="transparent" points="631,-433.2 631,-452.2 657,-452.2 657,-433.2 631,-433.2"/>
<polygon fill="none" stroke="#000000" points="631,-433.2 631,-452.2 657,-452.2 657,-433.2 631,-433.2"/>
<text text-anchor="start" x="647.8862" y="-439.3" font-family="Helvetica,sans-Serif" font-size="11.00" fill="#000000"> &#160;</text>
</a>
</g>
</g>
<!-- events -->
<g id="node2" class="node">
<title>events</title>
<g id="a_node2"><a xlink:href="../../tables/events.html" xlink:title="events" target="_top">
<polygon fill="#ffffff" stroke="transparent" points="178,-38.2 178,-392.2 482,-392.2 482,-38.2 178,-38.2"/>
<polygon fill="#f5f5f5" stroke="transparent" points="180,-367.2 180,-390.2 480,-390.2 480,-367.2 180,-367.2"/>
<polygon fill="none" stroke="#000000" points="180,-367.2 180,-390.2 480,-390.2 480,-367.2 180,-367.2"/>
<text text-anchor="start" x="185" y="-376.3" font-family="Helvetica,sans-Serif" font-weight="bold" font-size="11.00" fill="#000000">events</text>
<text text-anchor="start" x="445.0437" y="-375.3" font-family="Helvetica,sans-Serif" font-size="11.00" fill="#000000">[table]</text>
<polygon fill="none" stroke="#000000" points="180,-345.2 180,-367.2 278,-367.2 278,-345.2 180,-345.2"/>
<image xlink:href="../../images/primaryKeys.png" width="11px" height="12px" preserveAspectRatio="xMinYMin meet" x="185" y="-362.2"/>
<text text-anchor="start" x="200" y="-352.3" font-family="Helvetica,sans-Serif" font-size="11.00" fill="#000000">id</text>
<polygon fill="none" stroke="#000000" points="278,-345.2 278,-367.2 480,-367.2 480,-345.2 278,-345.2"/>
<text text-anchor="start" x="281" y="-352.9" font-family="Helvetica,sans-Serif" font-size="11.00" fill="#000000">serial[10]</text>
<polygon fill="none" stroke="#000000" points="180,-323.2 180,-345.2 278,-345.2 278,-323.2 180,-323.2"/>
<text text-anchor="start" x="200" y="-330.3" font-family="Helvetica,sans-Serif" font-size="11.00" fill="#000000">name</text>
<polygon fill="none" stroke="#000000" points="278,-323.2 278,-345.2 480,-345.2 480,-323.2 278,-323.2"/>
<text text-anchor="start" x="281" y="-330.9" font-family="Helvetica,sans-Serif" font-size="11.00" fill="#000000">varchar[2147483647]</text>
<polygon fill="none" stroke="#000000" points="180,-301.2 180,-323.2 278,-323.2 278,-301.2 180,-301.2"/>
<text text-anchor="start" x="200" y="-308.3" font-family="Helvetica,sans-Serif" font-size="11.00" fill="#000000">description</text>
<polygon fill="none" stroke="#000000" points="278,-301.2 278,-323.2 480,-323.2 480,-301.2 278,-301.2"/>
<text text-anchor="start" x="281" y="-308.9" font-family="Helvetica,sans-Serif" font-size="11.00" fill="#000000">varchar[2147483647]</text>
<polygon fill="none" stroke="#000000" points="180,-279.2 180,-301.2 278,-301.2 278,-279.2 180,-279.2"/>
<text text-anchor="start" x="200" y="-286.3" font-family="Helvetica,sans-Serif" font-size="11.00" fill="#000000">start_at</text>
<polygon fill="none" stroke="#000000" points="278,-279.2 278,-301.2 480,-301.2 480,-279.2 278,-279.2"/>
<text text-anchor="start" x="281" y="-286.9" font-family="Helvetica,sans-Serif" font-size="11.00" fill="#000000">timestamp[29,6]</text>
<polygon fill="none" stroke="#000000" points="180,-257.2 180,-279.2 278,-279.2 278,-257.2 180,-257.2"/>
<text text-anchor="start" x="200" y="-264.3" font-family="Helvetica,sans-Serif" font-size="11.00" fill="#000000">ends_at</text>
<polygon fill="none" stroke="#000000" points="278,-257.2 278,-279.2 480,-279.2 480,-257.2 278,-257.2"/>
<text text-anchor="start" x="281" y="-264.9" font-family="Helvetica,sans-Serif" font-size="11.00" fill="#000000">timestamp[29,6]</text>
<polygon fill="none" stroke="#000000" points="180,-235.2 180,-257.2 278,-257.2 278,-235.2 180,-235.2"/>
<text text-anchor="start" x="200" y="-242.3" font-family="Helvetica,sans-Serif" font-size="11.00" fill="#000000">canceled</text>
<polygon fill="none" stroke="#000000" points="278,-235.2 278,-257.2 480,-257.2 480,-235.2 278,-235.2"/>
<text text-anchor="start" x="281" y="-242.9" font-family="Helvetica,sans-Serif" font-size="11.00" fill="#000000">bool[1]</text>
<polygon fill="none" stroke="#000000" points="180,-213.2 180,-235.2 278,-235.2 278,-213.2 180,-213.2"/>
<text text-anchor="start" x="200" y="-220.3" font-family="Helvetica,sans-Serif" font-size="11.00" fill="#000000">capacity</text>
<polygon fill="none" stroke="#000000" points="278,-213.2 278,-235.2 480,-235.2 480,-213.2 278,-213.2"/>
<text text-anchor="start" x="281" y="-220.9" font-family="Helvetica,sans-Serif" font-size="11.00" fill="#000000">int4[10]</text>
<polygon fill="none" stroke="#000000" points="180,-191.2 180,-213.2 278,-213.2 278,-191.2 180,-191.2"/>
<image xlink:href="../../images/foreignKeys.png" width="11px" height="12px" preserveAspectRatio="xMinYMin meet" x="185" y="-208.2"/>
<text text-anchor="start" x="200" y="-198.3" font-family="Helvetica,sans-Serif" font-size="11.00" fill="#000000">venue_id</text>
<polygon fill="none" stroke="#000000" points="278,-191.2 278,-213.2 480,-213.2 480,-191.2 278,-191.2"/>
<text text-anchor="start" x="281" y="-198.9" font-family="Helvetica,sans-Serif" font-size="11.00" fill="#000000">int4[10]</text>
<polygon fill="none" stroke="#000000" points="180,-169.2 180,-191.2 278,-191.2 278,-169.2 180,-169.2"/>
<image xlink:href="../../images/foreignKeys.png" width="11px" height="12px" preserveAspectRatio="xMinYMin meet" x="185" y="-186.2"/>
<text text-anchor="start" x="200" y="-176.3" font-family="Helvetica,sans-Serif" font-size="11.00" fill="#000000">chapter_id</text>
<polygon fill="none" stroke="#000000" points="278,-169.2 278,-191.2 480,-191.2 480,-169.2 278,-169.2"/>
<text text-anchor="start" x="281" y="-176.9" font-family="Helvetica,sans-Serif" font-size="11.00" fill="#000000">int4[10]</text>
<polygon fill="none" stroke="#000000" points="180,-147.2 180,-169.2 278,-169.2 278,-147.2 180,-147.2"/>
<text text-anchor="start" x="200" y="-154.3" font-family="Helvetica,sans-Serif" font-size="11.00" fill="#000000">created_at</text>
<polygon fill="none" stroke="#000000" points="278,-147.2 278,-169.2 480,-169.2 480,-147.2 278,-147.2"/>
<text text-anchor="start" x="281" y="-154.9" font-family="Helvetica,sans-Serif" font-size="11.00" fill="#000000">timestamp[29,6]</text>
<polygon fill="none" stroke="#000000" points="180,-125.2 180,-147.2 278,-147.2 278,-125.2 180,-125.2"/>
<text text-anchor="start" x="200" y="-132.3" font-family="Helvetica,sans-Serif" font-size="11.00" fill="#000000">updated_at</text>
<polygon fill="none" stroke="#000000" points="278,-125.2 278,-147.2 480,-147.2 480,-125.2 278,-125.2"/>
<text text-anchor="start" x="281" y="-132.9" font-family="Helvetica,sans-Serif" font-size="11.00" fill="#000000">timestamp[29,6]</text>
<polygon fill="none" stroke="#000000" points="180,-103.2 180,-125.2 278,-125.2 278,-103.2 180,-103.2"/>
<text text-anchor="start" x="200" y="-110.3" font-family="Helvetica,sans-Serif" font-size="11.00" fill="#000000">url</text>
<polygon fill="none" stroke="#000000" points="278,-103.2 278,-125.2 480,-125.2 480,-103.2 278,-103.2"/>
<text text-anchor="start" x="281" y="-110.9" font-family="Helvetica,sans-Serif" font-size="11.00" fill="#000000">varchar[2147483647]</text>
<polygon fill="none" stroke="#000000" points="180,-81.2 180,-103.2 278,-103.2 278,-81.2 180,-81.2"/>
<text text-anchor="start" x="200" y="-88.3" font-family="Helvetica,sans-Serif" font-size="11.00" fill="#000000">video_url</text>
<polygon fill="none" stroke="#000000" points="278,-81.2 278,-103.2 480,-103.2 480,-81.2 278,-81.2"/>
<text text-anchor="start" x="281" y="-88.9" font-family="Helvetica,sans-Serif" font-size="11.00" fill="#000000">varchar[2147483647]</text>
<polygon fill="none" stroke="#000000" points="180,-59.2 180,-81.2 278,-81.2 278,-59.2 180,-59.2"/>
<text text-anchor="start" x="200" y="-66.3" font-family="Helvetica,sans-Serif" font-size="11.00" fill="#000000">venue_type</text>
<polygon fill="none" stroke="#000000" points="278,-59.2 278,-81.2 480,-81.2 480,-59.2 278,-59.2"/>
<text text-anchor="start" x="280.869" y="-66.9" font-family="Helvetica,sans-Serif" font-size="11.00" fill="#000000">events_venue_type_enum[2147483647]</text>
<polygon fill="#ffffff" stroke="transparent" points="180,-40.2 180,-59.2 220,-59.2 220,-40.2 180,-40.2"/>
<polygon fill="none" stroke="#000000" points="180,-40.2 180,-59.2 220,-59.2 220,-40.2 180,-40.2"/>
<text text-anchor="start" x="183" y="-46.3" font-family="Helvetica,sans-Serif" font-size="11.00" fill="#000000">&lt; 2</text>
<polygon fill="#ffffff" stroke="transparent" points="220,-40.2 220,-59.2 278,-59.2 278,-40.2 220,-40.2"/>
<polygon fill="none" stroke="#000000" points="220,-40.2 220,-59.2 278,-59.2 278,-40.2 220,-40.2"/>
<text text-anchor="start" x="242.6105" y="-46.3" font-family="Helvetica,sans-Serif" font-size="11.00" fill="#000000">4 rows</text>
<polygon fill="#ffffff" stroke="transparent" points="278,-40.2 278,-59.2 480,-59.2 480,-40.2 278,-40.2"/>
<polygon fill="none" stroke="#000000" points="278,-40.2 278,-59.2 480,-59.2 480,-40.2 278,-40.2"/>
<text text-anchor="start" x="461.4053" y="-46.3" font-family="Helvetica,sans-Serif" font-size="11.00" fill="#000000">3 &gt;</text>
<polygon fill="none" stroke="#000000" stroke-width="2" points="179,-39.2 179,-391.2 481,-391.2 481,-39.2 179,-39.2"/>
</a>
</g>
</g>
<!-- event_sponsors&#45;&gt;events -->
<g id="edge1" class="edge">
<title>event_sponsors:w&#45;&gt;events:e</title>
<path fill="none" stroke="#000000" d="M516.7844,-478.8298C482.9826,-458.7923 534.5136,-356.2 480,-356.2"/>
<polygon fill="#000000" stroke="#000000" points="523.2158,-480.3545 530.1695,-485.7029 527.1079,-481.2772 531,-482.2 531,-482.2 531,-482.2 527.1079,-481.2772 531.8305,-478.6971 523.2158,-480.3545 523.2158,-480.3545"/>
<ellipse fill="none" stroke="#000000" cx="520.1021" cy="-479.6163" rx="3.2" ry="3.2"/>
</g>
<!-- chapters -->
<g id="node3" class="node">
<title>chapters</title>
<g id="a_node3"><a xlink:href="../../tables/chapters.html" xlink:title="chapters" target="_top">
<polygon fill="#ffffff" stroke="transparent" points="20,-68.7 20,-173.7 117,-173.7 117,-68.7 20,-68.7"/>
<polygon fill="#f5f5f5" stroke="transparent" points="20.5,-150.2 20.5,-173.2 117.5,-173.2 117.5,-150.2 20.5,-150.2"/>
<polygon fill="none" stroke="#000000" points="20.5,-150.2 20.5,-173.2 117.5,-173.2 117.5,-150.2 20.5,-150.2"/>
<text text-anchor="start" x="25.5" y="-159.3" font-family="Helvetica,sans-Serif" font-weight="bold" font-size="11.00" fill="#000000">chapters</text>
<text text-anchor="start" x="82.5437" y="-158.3" font-family="Helvetica,sans-Serif" font-size="11.00" fill="#000000">[table]</text>
<polygon fill="none" stroke="#000000" points="20.5,-128.2 20.5,-150.2 117.5,-150.2 117.5,-128.2 20.5,-128.2"/>
<image xlink:href="../../images/primaryKeys.png" width="11px" height="12px" preserveAspectRatio="xMinYMin meet" x="25.5" y="-145.2"/>
<text text-anchor="start" x="40.5" y="-135.3" font-family="Helvetica,sans-Serif" font-size="11.00" fill="#000000">id</text>
<polygon fill="none" stroke="#000000" points="20.5,-106.2 20.5,-128.2 117.5,-128.2 117.5,-106.2 20.5,-106.2"/>
<image xlink:href="../../images/foreignKeys.png" width="11px" height="12px" preserveAspectRatio="xMinYMin meet" x="25.5" y="-123.2"/>
<text text-anchor="start" x="40.5" y="-113.3" font-family="Helvetica,sans-Serif" font-size="11.00" fill="#000000">creator_id</text>
<polygon fill="none" stroke="#000000" points="20.5,-87.2 20.5,-106.2 117.5,-106.2 117.5,-87.2 20.5,-87.2"/>
<text text-anchor="start" x="23.5" y="-93.3" font-family="Helvetica,sans-Serif" font-size="11.00" fill="#000000">...</text>
<polygon fill="#ffffff" stroke="transparent" points="20.5,-68.2 20.5,-87.2 49.5,-87.2 49.5,-68.2 20.5,-68.2"/>
<polygon fill="none" stroke="#000000" points="20.5,-68.2 20.5,-87.2 49.5,-87.2 49.5,-68.2 20.5,-68.2"/>
<text text-anchor="start" x="23.5" y="-74.3" font-family="Helvetica,sans-Serif" font-size="11.00" fill="#000000">&lt; 1</text>
<polygon fill="#ffffff" stroke="transparent" points="49.5,-68.2 49.5,-87.2 91.5,-87.2 91.5,-68.2 49.5,-68.2"/>
<polygon fill="none" stroke="#000000" points="49.5,-68.2 49.5,-87.2 91.5,-87.2 91.5,-68.2 49.5,-68.2"/>
<text text-anchor="start" x="56.1105" y="-74.3" font-family="Helvetica,sans-Serif" font-size="11.00" fill="#000000">4 rows</text>
<polygon fill="#ffffff" stroke="transparent" points="91.5,-68.2 91.5,-87.2 117.5,-87.2 117.5,-68.2 91.5,-68.2"/>
<polygon fill="none" stroke="#000000" points="91.5,-68.2 91.5,-87.2 117.5,-87.2 117.5,-68.2 91.5,-68.2"/>
<text text-anchor="start" x="98.9053" y="-74.3" font-family="Helvetica,sans-Serif" font-size="11.00" fill="#000000">4 &gt;</text>
</a>
</g>
</g>
<!-- events&#45;&gt;chapters -->
<g id="edge2" class="edge">
<title>events:w&#45;&gt;chapters:e</title>
<path fill="none" stroke="#000000" d="M165.7865,-176.9828C147.0361,-167.3174 145.0114,-139.2 117.5,-139.2"/>
<polygon fill="#000000" stroke="#000000" points="172.1974,-178.4339 179.2052,-183.7112 176.0987,-179.3169 180,-180.2 180,-180.2 180,-180.2 176.0987,-179.3169 180.7948,-176.6888 172.1974,-178.4339 172.1974,-178.4339"/>
<ellipse fill="none" stroke="#000000" cx="169.0763" cy="-177.7274" rx="3.2" ry="3.2"/>
</g>
<!-- venues -->
<g id="node4" class="node">
<title>venues</title>
<g id="a_node4"><a xlink:href="../../tables/venues.html" xlink:title="venues" target="_top">
<polygon fill="#ffffff" stroke="transparent" points="8,-194.7 8,-277.7 129,-277.7 129,-194.7 8,-194.7"/>
<polygon fill="#f5f5f5" stroke="transparent" points="8.5,-254.2 8.5,-277.2 129.5,-277.2 129.5,-254.2 8.5,-254.2"/>
<polygon fill="none" stroke="#000000" points="8.5,-254.2 8.5,-277.2 129.5,-277.2 129.5,-254.2 8.5,-254.2"/>
<text text-anchor="start" x="13.5" y="-263.3" font-family="Helvetica,sans-Serif" font-weight="bold" font-size="11.00" fill="#000000">venues</text>
<text text-anchor="start" x="94.5437" y="-262.3" font-family="Helvetica,sans-Serif" font-size="11.00" fill="#000000">[table]</text>
<polygon fill="none" stroke="#000000" points="8.5,-232.2 8.5,-254.2 129.5,-254.2 129.5,-232.2 8.5,-232.2"/>
<image xlink:href="../../images/primaryKeys.png" width="11px" height="12px" preserveAspectRatio="xMinYMin meet" x="13.5" y="-249.2"/>
<text text-anchor="start" x="28.5" y="-239.3" font-family="Helvetica,sans-Serif" font-size="11.00" fill="#000000">id</text>
<polygon fill="none" stroke="#000000" points="8.5,-213.2 8.5,-232.2 129.5,-232.2 129.5,-213.2 8.5,-213.2"/>
<text text-anchor="start" x="11.5" y="-219.3" font-family="Helvetica,sans-Serif" font-size="11.00" fill="#000000">...</text>
<polygon fill="#ffffff" stroke="transparent" points="8.5,-194.2 8.5,-213.2 45.5,-213.2 45.5,-194.2 8.5,-194.2"/>
<polygon fill="none" stroke="#000000" points="8.5,-194.2 8.5,-213.2 45.5,-213.2 45.5,-194.2 8.5,-194.2"/>
<text text-anchor="start" x="11.5" y="-200.3" font-family="Helvetica,sans-Serif" font-size="11.00" fill="#000000"> &#160;</text>
<polygon fill="#ffffff" stroke="transparent" points="45.5,-194.2 45.5,-213.2 95.5,-213.2 95.5,-194.2 45.5,-194.2"/>
<polygon fill="none" stroke="#000000" points="45.5,-194.2 45.5,-213.2 95.5,-213.2 95.5,-194.2 45.5,-194.2"/>
<text text-anchor="start" x="60.1105" y="-200.3" font-family="Helvetica,sans-Serif" font-size="11.00" fill="#000000">4 rows</text>
<polygon fill="#ffffff" stroke="transparent" points="95.5,-194.2 95.5,-213.2 129.5,-213.2 129.5,-194.2 95.5,-194.2"/>
<polygon fill="none" stroke="#000000" points="95.5,-194.2 95.5,-213.2 129.5,-213.2 129.5,-194.2 95.5,-194.2"/>
<text text-anchor="start" x="110.9053" y="-200.3" font-family="Helvetica,sans-Serif" font-size="11.00" fill="#000000">1 &gt;</text>
</a>
</g>
</g>
<!-- events&#45;&gt;venues -->
<g id="edge3" class="edge">
<title>events:w&#45;&gt;venues:e</title>
<path fill="none" stroke="#000000" d="M166.2601,-206.5877C152.5688,-217.1646 152.5379,-243.2 129.5,-243.2"/>
<polygon fill="#000000" stroke="#000000" points="172.3792,-204.6337 181.0952,-205.6294 176.1896,-203.4168 180,-202.2 180,-202.2 180,-202.2 176.1896,-203.4168 178.9048,-198.7706 172.3792,-204.6337 172.3792,-204.6337"/>
<ellipse fill="none" stroke="#000000" cx="169.3308" cy="-205.6072" rx="3.2" ry="3.2"/>
</g>
<!-- rsvps -->
<g id="node5" class="node">
<title>rsvps</title>
<g id="a_node5"><a xlink:href="../../tables/rsvps.html" xlink:title="rsvps" target="_top">
<polygon fill="#ffffff" stroke="transparent" points="545.5,-285.7 545.5,-412.7 642.5,-412.7 642.5,-285.7 545.5,-285.7"/>
<polygon fill="#f5f5f5" stroke="transparent" points="546,-389.2 546,-412.2 643,-412.2 643,-389.2 546,-389.2"/>
<polygon fill="none" stroke="#000000" points="546,-389.2 546,-412.2 643,-412.2 643,-389.2 546,-389.2"/>
<text text-anchor="start" x="551" y="-398.3" font-family="Helvetica,sans-Serif" font-weight="bold" font-size="11.00" fill="#000000">rsvps</text>
<text text-anchor="start" x="608.0437" y="-397.3" font-family="Helvetica,sans-Serif" font-size="11.00" fill="#000000">[table]</text>
<polygon fill="none" stroke="#000000" points="546,-367.2 546,-389.2 643,-389.2 643,-367.2 546,-367.2"/>
<image xlink:href="../../images/primaryKeys.png" width="11px" height="12px" preserveAspectRatio="xMinYMin meet" x="551" y="-384.2"/>
<text text-anchor="start" x="566" y="-374.3" font-family="Helvetica,sans-Serif" font-size="11.00" fill="#000000">id</text>
<polygon fill="none" stroke="#000000" points="546,-345.2 546,-367.2 643,-367.2 643,-345.2 546,-345.2"/>
<image xlink:href="../../images/foreignKeys.png" width="11px" height="12px" preserveAspectRatio="xMinYMin meet" x="551" y="-362.2"/>
<text text-anchor="start" x="566" y="-352.3" font-family="Helvetica,sans-Serif" font-size="11.00" fill="#000000">event_id</text>
<polygon fill="none" stroke="#000000" points="546,-323.2 546,-345.2 643,-345.2 643,-323.2 546,-323.2"/>
<image xlink:href="../../images/foreignKeys.png" width="11px" height="12px" preserveAspectRatio="xMinYMin meet" x="551" y="-340.2"/>
<text text-anchor="start" x="566" y="-330.3" font-family="Helvetica,sans-Serif" font-size="11.00" fill="#000000">user_id</text>
<polygon fill="none" stroke="#000000" points="546,-304.2 546,-323.2 643,-323.2 643,-304.2 546,-304.2"/>
<text text-anchor="start" x="549" y="-310.3" font-family="Helvetica,sans-Serif" font-size="11.00" fill="#000000">...</text>
<polygon fill="#ffffff" stroke="transparent" points="546,-285.2 546,-304.2 580,-304.2 580,-285.2 546,-285.2"/>
<polygon fill="none" stroke="#000000" points="546,-285.2 546,-304.2 580,-304.2 580,-285.2 546,-285.2"/>
<text text-anchor="start" x="549" y="-291.3" font-family="Helvetica,sans-Serif" font-size="11.00" fill="#000000">&lt; 2</text>
<polygon fill="#ffffff" stroke="transparent" points="580,-285.2 580,-304.2 624,-304.2 624,-285.2 580,-285.2"/>
<polygon fill="none" stroke="#000000" points="580,-285.2 580,-304.2 624,-304.2 624,-285.2 580,-285.2"/>
<text text-anchor="start" x="588.6105" y="-291.3" font-family="Helvetica,sans-Serif" font-size="11.00" fill="#000000">0 rows</text>
<polygon fill="#ffffff" stroke="transparent" points="624,-285.2 624,-304.2 643,-304.2 643,-285.2 624,-285.2"/>
<polygon fill="none" stroke="#000000" points="624,-285.2 624,-304.2 643,-304.2 643,-285.2 624,-285.2"/>
<text text-anchor="start" x="633.8862" y="-291.3" font-family="Helvetica,sans-Serif" font-size="11.00" fill="#000000"> &#160;</text>
</a>
</g>
</g>
<!-- rsvps&#45;&gt;events -->
<g id="edge4" class="edge">
<title>rsvps:w&#45;&gt;events:e</title>
<path fill="none" stroke="#000000" d="M531.5303,-356.2C513.1432,-356.2 503.8333,-356.2 480,-356.2"/>
<polygon fill="#000000" stroke="#000000" points="538,-356.2001 546,-359.8 542,-356.2 546,-356.2 546,-356.2 546,-356.2 542,-356.2 546,-352.6 538,-356.2001 538,-356.2001"/>
<ellipse fill="none" stroke="#000000" cx="534.8" cy="-356.2001" rx="3.2" ry="3.2"/>
</g>
<!-- tags -->
<g id="node6" class="node">
<title>tags</title>
<g id="a_node6"><a xlink:href="../../tables/tags.html" xlink:title="tags" target="_top">
<polygon fill="#ffffff" stroke="transparent" points="545.5,-159.7 545.5,-264.7 642.5,-264.7 642.5,-159.7 545.5,-159.7"/>
<polygon fill="#f5f5f5" stroke="transparent" points="546,-241.2 546,-264.2 643,-264.2 643,-241.2 546,-241.2"/>
<polygon fill="none" stroke="#000000" points="546,-241.2 546,-264.2 643,-264.2 643,-241.2 546,-241.2"/>
<text text-anchor="start" x="551" y="-250.3" font-family="Helvetica,sans-Serif" font-weight="bold" font-size="11.00" fill="#000000">tags</text>
<text text-anchor="start" x="608.0437" y="-249.3" font-family="Helvetica,sans-Serif" font-size="11.00" fill="#000000">[table]</text>
<polygon fill="none" stroke="#000000" points="546,-219.2 546,-241.2 643,-241.2 643,-219.2 546,-219.2"/>
<image xlink:href="../../images/primaryKeys.png" width="11px" height="12px" preserveAspectRatio="xMinYMin meet" x="551" y="-236.2"/>
<text text-anchor="start" x="566" y="-226.3" font-family="Helvetica,sans-Serif" font-size="11.00" fill="#000000">id</text>
<polygon fill="none" stroke="#000000" points="546,-197.2 546,-219.2 643,-219.2 643,-197.2 546,-197.2"/>
<image xlink:href="../../images/foreignKeys.png" width="11px" height="12px" preserveAspectRatio="xMinYMin meet" x="551" y="-214.2"/>
<text text-anchor="start" x="566" y="-204.3" font-family="Helvetica,sans-Serif" font-size="11.00" fill="#000000">event_id</text>
<polygon fill="none" stroke="#000000" points="546,-178.2 546,-197.2 643,-197.2 643,-178.2 546,-178.2"/>
<text text-anchor="start" x="549" y="-184.3" font-family="Helvetica,sans-Serif" font-size="11.00" fill="#000000">...</text>
<polygon fill="#ffffff" stroke="transparent" points="546,-159.2 546,-178.2 580,-178.2 580,-159.2 546,-159.2"/>
<polygon fill="none" stroke="#000000" points="546,-159.2 546,-178.2 580,-178.2 580,-159.2 546,-159.2"/>
<text text-anchor="start" x="549" y="-165.3" font-family="Helvetica,sans-Serif" font-size="11.00" fill="#000000">&lt; 1</text>
<polygon fill="#ffffff" stroke="transparent" points="580,-159.2 580,-178.2 624,-178.2 624,-159.2 580,-159.2"/>
<polygon fill="none" stroke="#000000" points="580,-159.2 580,-178.2 624,-178.2 624,-159.2 580,-159.2"/>
<text text-anchor="start" x="588.6105" y="-165.3" font-family="Helvetica,sans-Serif" font-size="11.00" fill="#000000">9 rows</text>
<polygon fill="#ffffff" stroke="transparent" points="624,-159.2 624,-178.2 643,-178.2 643,-159.2 624,-159.2"/>
<polygon fill="none" stroke="#000000" points="624,-159.2 624,-178.2 643,-178.2 643,-159.2 624,-159.2"/>
<text text-anchor="start" x="633.8862" y="-165.3" font-family="Helvetica,sans-Serif" font-size="11.00" fill="#000000"> &#160;</text>
</a>
</g>
</g>
<!-- tags&#45;&gt;events -->
<g id="edge5" class="edge">
<title>tags:w&#45;&gt;events:e</title>
<path fill="none" stroke="#000000" d="M531.7245,-210.7688C485.2565,-230.4217 546.3952,-356.2 480,-356.2"/>
<polygon fill="#000000" stroke="#000000" points="538.1265,-209.6169 546.6376,-211.7431 542.0632,-208.9084 546,-208.2 546,-208.2 546,-208.2 542.0632,-208.9084 545.3624,-204.6569 538.1265,-209.6169 538.1265,-209.6169"/>
<ellipse fill="none" stroke="#000000" cx="534.977" cy="-210.1836" rx="3.2" ry="3.2"/>
</g>
</g>
</svg>
