<?xml version="1.0" encoding="UTF-8" standalone="no"?>
<!DOCTYPE svg PUBLIC "-//W3C//DTD SVG 1.1//EN"
 "http://www.w3.org/Graphics/SVG/1.1/DTD/svg11.dtd">
<!-- Generated by graphviz version 2.40.1 (20161225.0304)
 -->
<!-- Title: twoDegreesRelationshipsDiagram Pages: 1 -->
<svg width="787pt" height="818pt"
 viewBox="0.00 0.00 787.00 817.88" xmlns="http://www.w3.org/2000/svg" xmlns:xlink="http://www.w3.org/1999/xlink">
<g id="graph0" class="graph" transform="scale(1 1) rotate(0) translate(4 813.8757)">
<title>twoDegreesRelationshipsDiagram</title>
<polygon fill="#ffffff" stroke="transparent" points="-4,4 -4,-813.8757 783,-813.8757 783,4 -4,4"/>
<text text-anchor="middle" x="72.4936" y="-7.3" font-family="Helvetica,sans-Serif" font-size="11.00" fill="#000000">Generated by SchemaSpy</text>
<!-- chapters -->
<g id="node1" class="node">
<title>chapters</title>
<g id="a_node1"><a xlink:href="../../tables/chapters.html" xlink:title="chapters" target="_top">
<polygon fill="#ffffff" stroke="transparent" points="138,-127.8757 138,-232.8757 226,-232.8757 226,-127.8757 138,-127.8757"/>
<polygon fill="#f5f5f5" stroke="transparent" points="138,-209.3757 138,-232.3757 226,-232.3757 226,-209.3757 138,-209.3757"/>
<polygon fill="none" stroke="#000000" points="138,-209.3757 138,-232.3757 226,-232.3757 226,-209.3757 138,-209.3757"/>
<text text-anchor="start" x="143" y="-218.4757" font-family="Helvetica,sans-Serif" font-weight="bold" font-size="11.00" fill="#000000">chapters</text>
<text text-anchor="start" x="191.0437" y="-217.4757" font-family="Helvetica,sans-Serif" font-size="11.00" fill="#000000">[table]</text>
<polygon fill="none" stroke="#000000" points="138,-187.3757 138,-209.3757 226,-209.3757 226,-187.3757 138,-187.3757"/>
<image xlink:href="../../images/primaryKeys.png" width="11px" height="12px" preserveAspectRatio="xMinYMin meet" x="143" y="-204.376"/>
<text text-anchor="start" x="158" y="-194.4757" font-family="Helvetica,sans-Serif" font-size="11.00" fill="#000000">id</text>
<polygon fill="none" stroke="#000000" points="138,-165.3757 138,-187.3757 226,-187.3757 226,-165.3757 138,-165.3757"/>
<image xlink:href="../../images/foreignKeys.png" width="11px" height="12px" preserveAspectRatio="xMinYMin meet" x="143" y="-182.376"/>
<text text-anchor="start" x="158" y="-172.4757" font-family="Helvetica,sans-Serif" font-size="11.00" fill="#000000">creator_id</text>
<polygon fill="none" stroke="#000000" points="138,-146.3757 138,-165.3757 226,-165.3757 226,-146.3757 138,-146.3757"/>
<text text-anchor="start" x="141" y="-152.4757" font-family="Helvetica,sans-Serif" font-size="11.00" fill="#000000">...</text>
<polygon fill="#ffffff" stroke="transparent" points="138,-127.3757 138,-146.3757 163,-146.3757 163,-127.3757 138,-127.3757"/>
<polygon fill="none" stroke="#000000" points="138,-127.3757 138,-146.3757 163,-146.3757 163,-127.3757 138,-127.3757"/>
<text text-anchor="start" x="141" y="-133.4757" font-family="Helvetica,sans-Serif" font-size="11.00" fill="#000000">&lt; 1</text>
<polygon fill="#ffffff" stroke="transparent" points="163,-127.3757 163,-146.3757 203,-146.3757 203,-127.3757 163,-127.3757"/>
<polygon fill="none" stroke="#000000" points="163,-127.3757 163,-146.3757 203,-146.3757 203,-127.3757 163,-127.3757"/>
<text text-anchor="start" x="167.6105" y="-133.4757" font-family="Helvetica,sans-Serif" font-size="11.00" fill="#000000">0 rows</text>
<polygon fill="#ffffff" stroke="transparent" points="203,-127.3757 203,-146.3757 226,-146.3757 226,-127.3757 203,-127.3757"/>
<polygon fill="none" stroke="#000000" points="203,-127.3757 203,-146.3757 226,-146.3757 226,-127.3757 203,-127.3757"/>
<text text-anchor="start" x="207.4053" y="-133.4757" font-family="Helvetica,sans-Serif" font-size="11.00" fill="#000000">3 &gt;</text>
</a>
</g>
</g>
<!-- users -->
<g id="node2" class="node">
<title>users</title>
<g id="a_node2"><a xlink:href="../../tables/users.html" xlink:title="users" target="_top">
<polygon fill="#ffffff" stroke="transparent" points="8,-148.8757 8,-209.8757 79,-209.8757 79,-148.8757 8,-148.8757"/>
<polygon fill="#f5f5f5" stroke="transparent" points="8.5,-186.3757 8.5,-209.3757 79.5,-209.3757 79.5,-186.3757 8.5,-186.3757"/>
<polygon fill="none" stroke="#000000" points="8.5,-186.3757 8.5,-209.3757 79.5,-209.3757 79.5,-186.3757 8.5,-186.3757"/>
<text text-anchor="start" x="13.5" y="-195.4757" font-family="Helvetica,sans-Serif" font-weight="bold" font-size="11.00" fill="#000000">users</text>
<text text-anchor="start" x="44.5437" y="-194.4757" font-family="Helvetica,sans-Serif" font-size="11.00" fill="#000000">[table]</text>
<polygon fill="none" stroke="#000000" points="8.5,-167.3757 8.5,-186.3757 79.5,-186.3757 79.5,-167.3757 8.5,-167.3757"/>
<text text-anchor="start" x="11.5" y="-173.4757" font-family="Helvetica,sans-Serif" font-size="11.00" fill="#000000">...</text>
<polygon fill="#ffffff" stroke="transparent" points="8.5,-148.3757 8.5,-167.3757 20.5,-167.3757 20.5,-148.3757 8.5,-148.3757"/>
<polygon fill="none" stroke="#000000" points="8.5,-148.3757 8.5,-167.3757 20.5,-167.3757 20.5,-148.3757 8.5,-148.3757"/>
<text text-anchor="start" x="11.4431" y="-154.4757" font-family="Helvetica,sans-Serif" font-size="11.00" fill="#000000"> &#160;</text>
<polygon fill="#ffffff" stroke="transparent" points="20.5,-148.3757 20.5,-167.3757 58.5,-167.3757 58.5,-148.3757 20.5,-148.3757"/>
<polygon fill="none" stroke="#000000" points="20.5,-148.3757 20.5,-167.3757 58.5,-167.3757 58.5,-148.3757 20.5,-148.3757"/>
<text text-anchor="start" x="23.3053" y="-154.4757" font-family="Helvetica,sans-Serif" font-size="11.00" fill="#000000">0 rows</text>
<polygon fill="#ffffff" stroke="transparent" points="58.5,-148.3757 58.5,-167.3757 79.5,-167.3757 79.5,-148.3757 58.5,-148.3757"/>
<polygon fill="none" stroke="#000000" points="58.5,-148.3757 58.5,-167.3757 79.5,-167.3757 79.5,-148.3757 58.5,-148.3757"/>
<text text-anchor="start" x="61.2027" y="-154.4757" font-family="Helvetica,sans-Serif" font-size="11.00" fill="#000000">6 &gt;</text>
</a>
</g>
</g>
<!-- chapters&#45;&gt;users -->
<g id="edge1" class="edge">
<title>chapters:w&#45;&gt;users:e</title>
<path fill="none" stroke="#000000" d="M123.3286,-176.3757C108.2231,-176.3757 99.8125,-176.3757 79.5,-176.3757"/>
<polygon fill="#000000" stroke="#000000" points="130,-176.3758 138,-179.9757 134,-176.3758 138,-176.3757 138,-176.3757 138,-176.3757 134,-176.3758 138,-172.7757 130,-176.3758 130,-176.3758"/>
<ellipse fill="none" stroke="#000000" cx="126.8" cy="-176.3758" rx="3.2" ry="3.2"/>
</g>
<!-- event_sponsors -->
<g id="node3" class="node">
<title>event_sponsors</title>
<g id="a_node3"><a xlink:href="../../tables/event_sponsors.html" xlink:title="event_sponsors" target="_top">
<polygon fill="#ffffff" stroke="transparent" points="647.5,-508.8757 647.5,-635.8757 767.5,-635.8757 767.5,-508.8757 647.5,-508.8757"/>
<polygon fill="#f5f5f5" stroke="transparent" points="647.5,-612.3757 647.5,-635.3757 767.5,-635.3757 767.5,-612.3757 647.5,-612.3757"/>
<polygon fill="none" stroke="#000000" points="647.5,-612.3757 647.5,-635.3757 767.5,-635.3757 767.5,-612.3757 647.5,-612.3757"/>
<text text-anchor="start" x="652.181" y="-621.4757" font-family="Helvetica,sans-Serif" font-weight="bold" font-size="11.00" fill="#000000">event_sponsors</text>
<text text-anchor="start" x="733.0219" y="-620.4757" font-family="Helvetica,sans-Serif" font-size="11.00" fill="#000000">[table]</text>
<polygon fill="none" stroke="#000000" points="647.5,-590.3757 647.5,-612.3757 767.5,-612.3757 767.5,-590.3757 647.5,-590.3757"/>
<image xlink:href="../../images/primaryKeys.png" width="11px" height="12px" preserveAspectRatio="xMinYMin meet" x="652.5" y="-607.376"/>
<text text-anchor="start" x="671.5" y="-597.4757" font-family="Helvetica,sans-Serif" font-size="11.00" fill="#000000">id</text>
<polygon fill="none" stroke="#000000" points="647.5,-568.3757 647.5,-590.3757 767.5,-590.3757 767.5,-568.3757 647.5,-568.3757"/>
<image xlink:href="../../images/primaryKeys.png" width="11px" height="12px" preserveAspectRatio="xMinYMin meet" x="652.5" y="-585.376"/>
<text text-anchor="start" x="671.5" y="-575.4757" font-family="Helvetica,sans-Serif" font-size="11.00" fill="#000000">sponsor_id</text>
<polygon fill="none" stroke="#000000" points="647.5,-546.3757 647.5,-568.3757 767.5,-568.3757 767.5,-546.3757 647.5,-546.3757"/>
<image xlink:href="../../images/primaryKeys.png" width="11px" height="12px" preserveAspectRatio="xMinYMin meet" x="652.5" y="-563.376"/>
<text text-anchor="start" x="671.5" y="-553.4757" font-family="Helvetica,sans-Serif" font-size="11.00" fill="#000000">event_id</text>
<polygon fill="none" stroke="#000000" points="647.5,-527.3757 647.5,-546.3757 767.5,-546.3757 767.5,-527.3757 647.5,-527.3757"/>
<text text-anchor="start" x="650.5" y="-533.4757" font-family="Helvetica,sans-Serif" font-size="11.00" fill="#000000">...</text>
<polygon fill="#ffffff" stroke="transparent" points="647.5,-508.3757 647.5,-527.3757 692.5,-527.3757 692.5,-508.3757 647.5,-508.3757"/>
<polygon fill="none" stroke="#000000" points="647.5,-508.3757 647.5,-527.3757 692.5,-527.3757 692.5,-508.3757 647.5,-508.3757"/>
<text text-anchor="start" x="650.5" y="-514.4757" font-family="Helvetica,sans-Serif" font-size="11.00" fill="#000000">&lt; 2</text>
<polygon fill="#ffffff" stroke="transparent" points="692.5,-508.3757 692.5,-527.3757 742.5,-527.3757 742.5,-508.3757 692.5,-508.3757"/>
<polygon fill="none" stroke="#000000" points="692.5,-508.3757 692.5,-527.3757 742.5,-527.3757 742.5,-508.3757 692.5,-508.3757"/>
<text text-anchor="start" x="707.1105" y="-514.4757" font-family="Helvetica,sans-Serif" font-size="11.00" fill="#000000">0 rows</text>
<polygon fill="#ffffff" stroke="transparent" points="742.5,-508.3757 742.5,-527.3757 767.5,-527.3757 767.5,-508.3757 742.5,-508.3757"/>
<polygon fill="none" stroke="#000000" points="742.5,-508.3757 742.5,-527.3757 767.5,-527.3757 767.5,-508.3757 742.5,-508.3757"/>
<text text-anchor="start" x="758.3862" y="-514.4757" font-family="Helvetica,sans-Serif" font-size="11.00" fill="#000000"> &#160;</text>
</a>
</g>
</g>
<!-- events -->
<g id="node4" class="node">
<title>events</title>
<g id="a_node4"><a xlink:href="../../tables/events.html" xlink:title="events" target="_top">
<polygon fill="#ffffff" stroke="transparent" points="285,-162.3757 285,-560.3757 595,-560.3757 595,-162.3757 285,-162.3757"/>
<polygon fill="#f5f5f5" stroke="transparent" points="287,-535.3757 287,-558.3757 593,-558.3757 593,-535.3757 287,-535.3757"/>
<polygon fill="none" stroke="#000000" points="287,-535.3757 287,-558.3757 593,-558.3757 593,-535.3757 287,-535.3757"/>
<text text-anchor="start" x="292" y="-544.4757" font-family="Helvetica,sans-Serif" font-weight="bold" font-size="11.00" fill="#000000">events</text>
<text text-anchor="start" x="558.0437" y="-543.4757" font-family="Helvetica,sans-Serif" font-size="11.00" fill="#000000">[table]</text>
<polygon fill="none" stroke="#000000" points="287,-513.3757 287,-535.3757 391,-535.3757 391,-513.3757 287,-513.3757"/>
<image xlink:href="../../images/primaryKeys.png" width="11px" height="12px" preserveAspectRatio="xMinYMin meet" x="292" y="-530.376"/>
<text text-anchor="start" x="307" y="-520.4757" font-family="Helvetica,sans-Serif" font-size="11.00" fill="#000000">id</text>
<polygon fill="none" stroke="#000000" points="391,-513.3757 391,-535.3757 593,-535.3757 593,-513.3757 391,-513.3757"/>
<text text-anchor="start" x="394" y="-521.0757" font-family="Helvetica,sans-Serif" font-size="11.00" fill="#000000">serial[10]</text>
<polygon fill="none" stroke="#000000" points="287,-491.3757 287,-513.3757 391,-513.3757 391,-491.3757 287,-491.3757"/>
<text text-anchor="start" x="307" y="-498.4757" font-family="Helvetica,sans-Serif" font-size="11.00" fill="#000000">created_at</text>
<polygon fill="none" stroke="#000000" points="391,-491.3757 391,-513.3757 593,-513.3757 593,-491.3757 391,-491.3757"/>
<text text-anchor="start" x="394" y="-499.0757" font-family="Helvetica,sans-Serif" font-size="11.00" fill="#000000">timestamp[29,6]</text>
<polygon fill="none" stroke="#000000" points="287,-469.3757 287,-491.3757 391,-491.3757 391,-469.3757 287,-469.3757"/>
<text text-anchor="start" x="307" y="-476.4757" font-family="Helvetica,sans-Serif" font-size="11.00" fill="#000000">updated_at</text>
<polygon fill="none" stroke="#000000" points="391,-469.3757 391,-491.3757 593,-491.3757 593,-469.3757 391,-469.3757"/>
<text text-anchor="start" x="394" y="-477.0757" font-family="Helvetica,sans-Serif" font-size="11.00" fill="#000000">timestamp[29,6]</text>
<polygon fill="none" stroke="#000000" points="287,-447.3757 287,-469.3757 391,-469.3757 391,-447.3757 287,-447.3757"/>
<text text-anchor="start" x="307" y="-454.4757" font-family="Helvetica,sans-Serif" font-size="11.00" fill="#000000">name</text>
<polygon fill="none" stroke="#000000" points="391,-447.3757 391,-469.3757 593,-469.3757 593,-447.3757 391,-447.3757"/>
<text text-anchor="start" x="394" y="-455.0757" font-family="Helvetica,sans-Serif" font-size="11.00" fill="#000000">varchar[2147483647]</text>
<polygon fill="none" stroke="#000000" points="287,-425.3757 287,-447.3757 391,-447.3757 391,-425.3757 287,-425.3757"/>
<text text-anchor="start" x="307" y="-432.4757" font-family="Helvetica,sans-Serif" font-size="11.00" fill="#000000">description</text>
<polygon fill="none" stroke="#000000" points="391,-425.3757 391,-447.3757 593,-447.3757 593,-425.3757 391,-425.3757"/>
<text text-anchor="start" x="394" y="-433.0757" font-family="Helvetica,sans-Serif" font-size="11.00" fill="#000000">varchar[2147483647]</text>
<polygon fill="none" stroke="#000000" points="287,-403.3757 287,-425.3757 391,-425.3757 391,-403.3757 287,-403.3757"/>
<text text-anchor="start" x="307" y="-410.4757" font-family="Helvetica,sans-Serif" font-size="11.00" fill="#000000">url</text>
<polygon fill="none" stroke="#000000" points="391,-403.3757 391,-425.3757 593,-425.3757 593,-403.3757 391,-403.3757"/>
<text text-anchor="start" x="394" y="-411.0757" font-family="Helvetica,sans-Serif" font-size="11.00" fill="#000000">varchar[2147483647]</text>
<polygon fill="none" stroke="#000000" points="287,-381.3757 287,-403.3757 391,-403.3757 391,-381.3757 287,-381.3757"/>
<text text-anchor="start" x="307" y="-388.4757" font-family="Helvetica,sans-Serif" font-size="11.00" fill="#000000">streaming_url</text>
<polygon fill="none" stroke="#000000" points="391,-381.3757 391,-403.3757 593,-403.3757 593,-381.3757 391,-381.3757"/>
<text text-anchor="start" x="394" y="-389.0757" font-family="Helvetica,sans-Serif" font-size="11.00" fill="#000000">varchar[2147483647]</text>
<polygon fill="none" stroke="#000000" points="287,-359.3757 287,-381.3757 391,-381.3757 391,-359.3757 287,-359.3757"/>
<text text-anchor="start" x="307" y="-366.4757" font-family="Helvetica,sans-Serif" font-size="11.00" fill="#000000">venue_type</text>
<polygon fill="none" stroke="#000000" points="391,-359.3757 391,-381.3757 593,-381.3757 593,-359.3757 391,-359.3757"/>
<text text-anchor="start" x="393.869" y="-367.0757" font-family="Helvetica,sans-Serif" font-size="11.00" fill="#000000">events_venue_type_enum[2147483647]</text>
<polygon fill="none" stroke="#000000" points="287,-337.3757 287,-359.3757 391,-359.3757 391,-337.3757 287,-337.3757"/>
<text text-anchor="start" x="307" y="-344.4757" font-family="Helvetica,sans-Serif" font-size="11.00" fill="#000000">start_at</text>
<polygon fill="none" stroke="#000000" points="391,-337.3757 391,-359.3757 593,-359.3757 593,-337.3757 391,-337.3757"/>
<text text-anchor="start" x="394" y="-345.0757" font-family="Helvetica,sans-Serif" font-size="11.00" fill="#000000">timestamp[29,6]</text>
<polygon fill="none" stroke="#000000" points="287,-315.3757 287,-337.3757 391,-337.3757 391,-315.3757 287,-315.3757"/>
<text text-anchor="start" x="307" y="-322.4757" font-family="Helvetica,sans-Serif" font-size="11.00" fill="#000000">ends_at</text>
<polygon fill="none" stroke="#000000" points="391,-315.3757 391,-337.3757 593,-337.3757 593,-315.3757 391,-315.3757"/>
<text text-anchor="start" x="394" y="-323.0757" font-family="Helvetica,sans-Serif" font-size="11.00" fill="#000000">timestamp[29,6]</text>
<polygon fill="none" stroke="#000000" points="287,-293.3757 287,-315.3757 391,-315.3757 391,-293.3757 287,-293.3757"/>
<text text-anchor="start" x="307" y="-300.4757" font-family="Helvetica,sans-Serif" font-size="11.00" fill="#000000">canceled</text>
<polygon fill="none" stroke="#000000" points="391,-293.3757 391,-315.3757 593,-315.3757 593,-293.3757 391,-293.3757"/>
<text text-anchor="start" x="394" y="-301.0757" font-family="Helvetica,sans-Serif" font-size="11.00" fill="#000000">bool[1]</text>
<polygon fill="none" stroke="#000000" points="287,-271.3757 287,-293.3757 391,-293.3757 391,-271.3757 287,-271.3757"/>
<text text-anchor="start" x="307" y="-278.4757" font-family="Helvetica,sans-Serif" font-size="11.00" fill="#000000">capacity</text>
<polygon fill="none" stroke="#000000" points="391,-271.3757 391,-293.3757 593,-293.3757 593,-271.3757 391,-271.3757"/>
<text text-anchor="start" x="394" y="-279.0757" font-family="Helvetica,sans-Serif" font-size="11.00" fill="#000000">int4[10]</text>
<polygon fill="none" stroke="#000000" points="287,-249.3757 287,-271.3757 391,-271.3757 391,-249.3757 287,-249.3757"/>
<text text-anchor="start" x="307" y="-256.4757" font-family="Helvetica,sans-Serif" font-size="11.00" fill="#000000">invite_only</text>
<polygon fill="none" stroke="#000000" points="391,-249.3757 391,-271.3757 593,-271.3757 593,-249.3757 391,-249.3757"/>
<text text-anchor="start" x="394" y="-257.0757" font-family="Helvetica,sans-Serif" font-size="11.00" fill="#000000">bool[1]</text>
<polygon fill="none" stroke="#000000" points="287,-227.3757 287,-249.3757 391,-249.3757 391,-227.3757 287,-227.3757"/>
<text text-anchor="start" x="307" y="-234.4757" font-family="Helvetica,sans-Serif" font-size="11.00" fill="#000000">image_url</text>
<polygon fill="none" stroke="#000000" points="391,-227.3757 391,-249.3757 593,-249.3757 593,-227.3757 391,-227.3757"/>
<text text-anchor="start" x="394" y="-235.0757" font-family="Helvetica,sans-Serif" font-size="11.00" fill="#000000">varchar[2147483647]</text>
<polygon fill="none" stroke="#000000" points="287,-205.3757 287,-227.3757 391,-227.3757 391,-205.3757 287,-205.3757"/>
<image xlink:href="../../images/foreignKeys.png" width="11px" height="12px" preserveAspectRatio="xMinYMin meet" x="292" y="-222.376"/>
<text text-anchor="start" x="307" y="-212.4757" font-family="Helvetica,sans-Serif" font-size="11.00" fill="#000000">venue_id</text>
<polygon fill="none" stroke="#000000" points="391,-205.3757 391,-227.3757 593,-227.3757 593,-205.3757 391,-205.3757"/>
<text text-anchor="start" x="394" y="-213.0757" font-family="Helvetica,sans-Serif" font-size="11.00" fill="#000000">int4[10]</text>
<polygon fill="none" stroke="#000000" points="287,-183.3757 287,-205.3757 391,-205.3757 391,-183.3757 287,-183.3757"/>
<image xlink:href="../../images/foreignKeys.png" width="11px" height="12px" preserveAspectRatio="xMinYMin meet" x="292" y="-200.376"/>
<text text-anchor="start" x="307" y="-190.4757" font-family="Helvetica,sans-Serif" font-size="11.00" fill="#000000">chapter_id</text>
<polygon fill="none" stroke="#000000" points="391,-183.3757 391,-205.3757 593,-205.3757 593,-183.3757 391,-183.3757"/>
<text text-anchor="start" x="394" y="-191.0757" font-family="Helvetica,sans-Serif" font-size="11.00" fill="#000000">int4[10]</text>
<polygon fill="#ffffff" stroke="transparent" points="287,-164.3757 287,-183.3757 330,-183.3757 330,-164.3757 287,-164.3757"/>
<polygon fill="none" stroke="#000000" points="287,-164.3757 287,-183.3757 330,-183.3757 330,-164.3757 287,-164.3757"/>
<text text-anchor="start" x="290" y="-170.4757" font-family="Helvetica,sans-Serif" font-size="11.00" fill="#000000">&lt; 2</text>
<polygon fill="#ffffff" stroke="transparent" points="330,-164.3757 330,-183.3757 391,-183.3757 391,-164.3757 330,-164.3757"/>
<polygon fill="none" stroke="#000000" points="330,-164.3757 330,-183.3757 391,-183.3757 391,-164.3757 330,-164.3757"/>
<text text-anchor="start" x="355.6105" y="-170.4757" font-family="Helvetica,sans-Serif" font-size="11.00" fill="#000000">0 rows</text>
<polygon fill="#ffffff" stroke="transparent" points="391,-164.3757 391,-183.3757 593,-183.3757 593,-164.3757 391,-164.3757"/>
<polygon fill="none" stroke="#000000" points="391,-164.3757 391,-183.3757 593,-183.3757 593,-164.3757 391,-164.3757"/>
<text text-anchor="start" x="574.4053" y="-170.4757" font-family="Helvetica,sans-Serif" font-size="11.00" fill="#000000">4 &gt;</text>
<polygon fill="none" stroke="#000000" stroke-width="2" points="286,-163.3757 286,-559.3757 594,-559.3757 594,-163.3757 286,-163.3757"/>
</a>
</g>
</g>
<!-- event_sponsors&#45;&gt;events -->
<g id="edge2" class="edge">
<title>event_sponsors:w&#45;&gt;events:e</title>
<path fill="none" stroke="#000000" d="M633.5032,-553.8442C618.7937,-545.3311 615.5648,-524.3757 593,-524.3757"/>
<polygon fill="#000000" stroke="#000000" points="639.7431,-555.4185 646.6193,-560.8664 643.6216,-556.3971 647.5,-557.3757 647.5,-557.3757 647.5,-557.3757 643.6216,-556.3971 648.3807,-553.8851 639.7431,-555.4185 639.7431,-555.4185"/>
<ellipse fill="none" stroke="#000000" cx="636.6403" cy="-554.6356" rx="3.2" ry="3.2"/>
</g>
<!-- sponsors -->
<g id="node5" class="node">
<title>sponsors</title>
<g id="a_node5"><a xlink:href="../../tables/sponsors.html" xlink:title="sponsors" target="_top">
<polygon fill="#ffffff" stroke="transparent" points="396.5,-663.8757 396.5,-724.8757 483.5,-724.8757 483.5,-663.8757 396.5,-663.8757"/>
<polygon fill="#f5f5f5" stroke="transparent" points="397,-701.3757 397,-724.3757 484,-724.3757 484,-701.3757 397,-701.3757"/>
<polygon fill="none" stroke="#000000" points="397,-701.3757 397,-724.3757 484,-724.3757 484,-701.3757 397,-701.3757"/>
<text text-anchor="start" x="401.6893" y="-710.4757" font-family="Helvetica,sans-Serif" font-weight="bold" font-size="11.00" fill="#000000">sponsors</text>
<text text-anchor="start" x="449.5219" y="-709.4757" font-family="Helvetica,sans-Serif" font-size="11.00" fill="#000000">[table]</text>
<polygon fill="none" stroke="#000000" points="397,-682.3757 397,-701.3757 484,-701.3757 484,-682.3757 397,-682.3757"/>
<text text-anchor="start" x="400" y="-688.4757" font-family="Helvetica,sans-Serif" font-size="11.00" fill="#000000">...</text>
<polygon fill="#ffffff" stroke="transparent" points="397,-663.3757 397,-682.3757 417,-682.3757 417,-663.3757 397,-663.3757"/>
<polygon fill="none" stroke="#000000" points="397,-663.3757 397,-682.3757 417,-682.3757 417,-663.3757 397,-663.3757"/>
<text text-anchor="start" x="400" y="-669.4757" font-family="Helvetica,sans-Serif" font-size="11.00" fill="#000000"> &#160;</text>
<polygon fill="#ffffff" stroke="transparent" points="417,-663.3757 417,-682.3757 459,-682.3757 459,-663.3757 417,-663.3757"/>
<polygon fill="none" stroke="#000000" points="417,-663.3757 417,-682.3757 459,-682.3757 459,-663.3757 417,-663.3757"/>
<text text-anchor="start" x="423.6105" y="-669.4757" font-family="Helvetica,sans-Serif" font-size="11.00" fill="#000000">0 rows</text>
<polygon fill="#ffffff" stroke="transparent" points="459,-663.3757 459,-682.3757 484,-682.3757 484,-663.3757 459,-663.3757"/>
<polygon fill="none" stroke="#000000" points="459,-663.3757 459,-682.3757 484,-682.3757 484,-663.3757 459,-663.3757"/>
<text text-anchor="start" x="465.4053" y="-669.4757" font-family="Helvetica,sans-Serif" font-size="11.00" fill="#000000">1 &gt;</text>
</a>
</g>
</g>
<!-- event_sponsors&#45;&gt;sponsors -->
<g id="edge3" class="edge">
<title>event_sponsors:w&#45;&gt;sponsors:e</title>
<path fill="none" stroke="#000000" d="M633.132,-583.0905C615.5343,-595.1345 628.1612,-633.4729 603,-653.3757 559.456,-687.8197 539.52,-691.3757 484,-691.3757"/>
<polygon fill="#000000" stroke="#000000" points="639.7547,-581.3783 648.4011,-582.8611 643.6273,-580.377 647.5,-579.3757 647.5,-579.3757 647.5,-579.3757 643.6273,-580.377 646.5989,-575.8904 639.7547,-581.3783 639.7547,-581.3783"/>
<ellipse fill="none" stroke="#000000" cx="636.6565" cy="-582.1793" rx="3.2" ry="3.2"/>
</g>
<!-- events&#45;&gt;chapters -->
<g id="edge4" class="edge">
<title>events:w&#45;&gt;chapters:e</title>
<path fill="none" stroke="#000000" d="M272.1594,-194.8346C256.1079,-195.8853 247.4383,-198.3757 226,-198.3757"/>
<polygon fill="#000000" stroke="#000000" points="279.0038,-194.623 287.1113,-197.974 283.0019,-194.4994 287,-194.3757 287,-194.3757 287,-194.3757 283.0019,-194.4994 286.8887,-190.7775 279.0038,-194.623 279.0038,-194.623"/>
<ellipse fill="none" stroke="#000000" cx="275.8053" cy="-194.7219" rx="3.2" ry="3.2"/>
</g>
<!-- venues -->
<g id="node6" class="node">
<title>venues</title>
<g id="a_node6"><a xlink:href="../../tables/venues.html" xlink:title="venues" target="_top">
<polygon fill="#ffffff" stroke="transparent" points="128,-253.8757 128,-336.8757 236,-336.8757 236,-253.8757 128,-253.8757"/>
<polygon fill="#f5f5f5" stroke="transparent" points="128,-313.3757 128,-336.3757 236,-336.3757 236,-313.3757 128,-313.3757"/>
<polygon fill="none" stroke="#000000" points="128,-313.3757 128,-336.3757 236,-336.3757 236,-313.3757 128,-313.3757"/>
<text text-anchor="start" x="133" y="-322.4757" font-family="Helvetica,sans-Serif" font-weight="bold" font-size="11.00" fill="#000000">venues</text>
<text text-anchor="start" x="201.0437" y="-321.4757" font-family="Helvetica,sans-Serif" font-size="11.00" fill="#000000">[table]</text>
<polygon fill="none" stroke="#000000" points="128,-291.3757 128,-313.3757 236,-313.3757 236,-291.3757 128,-291.3757"/>
<image xlink:href="../../images/primaryKeys.png" width="11px" height="12px" preserveAspectRatio="xMinYMin meet" x="133" y="-308.376"/>
<text text-anchor="start" x="148" y="-298.4757" font-family="Helvetica,sans-Serif" font-size="11.00" fill="#000000">id</text>
<polygon fill="none" stroke="#000000" points="128,-272.3757 128,-291.3757 236,-291.3757 236,-272.3757 128,-272.3757"/>
<text text-anchor="start" x="131" y="-278.4757" font-family="Helvetica,sans-Serif" font-size="11.00" fill="#000000">...</text>
<polygon fill="#ffffff" stroke="transparent" points="128,-253.3757 128,-272.3757 158,-272.3757 158,-253.3757 128,-253.3757"/>
<polygon fill="none" stroke="#000000" points="128,-253.3757 128,-272.3757 158,-272.3757 158,-253.3757 128,-253.3757"/>
<text text-anchor="start" x="131" y="-259.4757" font-family="Helvetica,sans-Serif" font-size="11.00" fill="#000000"> &#160;</text>
<polygon fill="#ffffff" stroke="transparent" points="158,-253.3757 158,-272.3757 205,-272.3757 205,-253.3757 158,-253.3757"/>
<polygon fill="none" stroke="#000000" points="158,-253.3757 158,-272.3757 205,-272.3757 205,-253.3757 158,-253.3757"/>
<text text-anchor="start" x="169.6105" y="-259.4757" font-family="Helvetica,sans-Serif" font-size="11.00" fill="#000000">0 rows</text>
<polygon fill="#ffffff" stroke="transparent" points="205,-253.3757 205,-272.3757 236,-272.3757 236,-253.3757 205,-253.3757"/>
<polygon fill="none" stroke="#000000" points="205,-253.3757 205,-272.3757 236,-272.3757 236,-253.3757 205,-253.3757"/>
<text text-anchor="start" x="217.4053" y="-259.4757" font-family="Helvetica,sans-Serif" font-size="11.00" fill="#000000">1 &gt;</text>
</a>
</g>
</g>
<!-- events&#45;&gt;venues -->
<g id="edge5" class="edge">
<title>events:w&#45;&gt;venues:e</title>
<path fill="none" stroke="#000000" d="M272.9687,-220.7587C251.3802,-238.2839 274.3623,-302.3757 236,-302.3757"/>
<polygon fill="#000000" stroke="#000000" points="279.3639,-218.7611 288.0734,-219.812 283.1819,-217.5684 287,-216.3757 287,-216.3757 287,-216.3757 283.1819,-217.5684 285.9266,-212.9395 279.3639,-218.7611 279.3639,-218.7611"/>
<ellipse fill="none" stroke="#000000" cx="276.3094" cy="-219.7152" rx="3.2" ry="3.2"/>
</g>
<!-- rsvps -->
<g id="node7" class="node">
<title>rsvps</title>
<g id="a_node7"><a xlink:href="../../tables/rsvps.html" xlink:title="rsvps" target="_top">
<polygon fill="#ffffff" stroke="transparent" points="657.5,-120.8757 657.5,-247.8757 757.5,-247.8757 757.5,-120.8757 657.5,-120.8757"/>
<polygon fill="#f5f5f5" stroke="transparent" points="657.5,-224.3757 657.5,-247.3757 757.5,-247.3757 757.5,-224.3757 657.5,-224.3757"/>
<polygon fill="none" stroke="#000000" points="657.5,-224.3757 657.5,-247.3757 757.5,-247.3757 757.5,-224.3757 657.5,-224.3757"/>
<text text-anchor="start" x="662.5" y="-233.4757" font-family="Helvetica,sans-Serif" font-weight="bold" font-size="11.00" fill="#000000">rsvps</text>
<text text-anchor="start" x="722.5437" y="-232.4757" font-family="Helvetica,sans-Serif" font-size="11.00" fill="#000000">[table]</text>
<polygon fill="none" stroke="#000000" points="657.5,-202.3757 657.5,-224.3757 757.5,-224.3757 757.5,-202.3757 657.5,-202.3757"/>
<image xlink:href="../../images/primaryKeys.png" width="11px" height="12px" preserveAspectRatio="xMinYMin meet" x="662.5" y="-219.376"/>
<text text-anchor="start" x="677.5" y="-209.4757" font-family="Helvetica,sans-Serif" font-size="11.00" fill="#000000">id</text>
<polygon fill="none" stroke="#000000" points="657.5,-180.3757 657.5,-202.3757 757.5,-202.3757 757.5,-180.3757 657.5,-180.3757"/>
<image xlink:href="../../images/foreignKeys.png" width="11px" height="12px" preserveAspectRatio="xMinYMin meet" x="662.5" y="-197.376"/>
<text text-anchor="start" x="677.5" y="-187.4757" font-family="Helvetica,sans-Serif" font-size="11.00" fill="#000000">event_id</text>
<polygon fill="none" stroke="#000000" points="657.5,-158.3757 657.5,-180.3757 757.5,-180.3757 757.5,-158.3757 657.5,-158.3757"/>
<image xlink:href="../../images/foreignKeys.png" width="11px" height="12px" preserveAspectRatio="xMinYMin meet" x="662.5" y="-175.376"/>
<text text-anchor="start" x="677.5" y="-165.4757" font-family="Helvetica,sans-Serif" font-size="11.00" fill="#000000">user_id</text>
<polygon fill="none" stroke="#000000" points="657.5,-139.3757 657.5,-158.3757 757.5,-158.3757 757.5,-139.3757 657.5,-139.3757"/>
<text text-anchor="start" x="660.5" y="-145.4757" font-family="Helvetica,sans-Serif" font-size="11.00" fill="#000000">...</text>
<polygon fill="#ffffff" stroke="transparent" points="657.5,-120.3757 657.5,-139.3757 692.5,-139.3757 692.5,-120.3757 657.5,-120.3757"/>
<polygon fill="none" stroke="#000000" points="657.5,-120.3757 657.5,-139.3757 692.5,-139.3757 692.5,-120.3757 657.5,-120.3757"/>
<text text-anchor="start" x="660.5" y="-126.4757" font-family="Helvetica,sans-Serif" font-size="11.00" fill="#000000">&lt; 2</text>
<polygon fill="#ffffff" stroke="transparent" points="692.5,-120.3757 692.5,-139.3757 737.5,-139.3757 737.5,-120.3757 692.5,-120.3757"/>
<polygon fill="none" stroke="#000000" points="692.5,-120.3757 692.5,-139.3757 737.5,-139.3757 737.5,-120.3757 692.5,-120.3757"/>
<text text-anchor="start" x="702.1105" y="-126.4757" font-family="Helvetica,sans-Serif" font-size="11.00" fill="#000000">0 rows</text>
<polygon fill="#ffffff" stroke="transparent" points="737.5,-120.3757 737.5,-139.3757 757.5,-139.3757 757.5,-120.3757 737.5,-120.3757"/>
<polygon fill="none" stroke="#000000" points="737.5,-120.3757 737.5,-139.3757 757.5,-139.3757 757.5,-120.3757 737.5,-120.3757"/>
<text text-anchor="start" x="748.3862" y="-126.4757" font-family="Helvetica,sans-Serif" font-size="11.00" fill="#000000"> &#160;</text>
</a>
</g>
</g>
<!-- rsvps&#45;&gt;users -->
<g id="edge7" class="edge">
<title>rsvps:w&#45;&gt;users:e</title>
<path fill="none" stroke="#000000" d="M643.1444,-166.5178C615.0315,-152.6592 641.4204,-92.1925 603,-69.3757 478.4232,4.6067 421.6263,-60.6563 277,-69.3757 206.8405,-73.6056 176.7957,-46.9693 120,-88.3757 85.2097,-113.7393 122.5544,-176.3757 79.5,-176.3757"/>
<polygon fill="#000000" stroke="#000000" points="649.654,-167.8137 656.7971,-172.9065 653.577,-168.5947 657.5,-169.3757 657.5,-169.3757 657.5,-169.3757 653.577,-168.5947 658.2029,-165.845 649.654,-167.8137 649.654,-167.8137"/>
<ellipse fill="none" stroke="#000000" cx="646.5156" cy="-167.1888" rx="3.2" ry="3.2"/>
</g>
<!-- rsvps&#45;&gt;events -->
<g id="edge6" class="edge">
<title>rsvps:w&#45;&gt;events:e</title>
<path fill="none" stroke="#000000" d="M643.8853,-196.0831C593.4546,-236.5576 663.0755,-524.3757 593,-524.3757"/>
<polygon fill="#000000" stroke="#000000" points="649.9392,-193.99 658.6764,-194.7781 653.7196,-192.6829 657.5,-191.3757 657.5,-191.3757 657.5,-191.3757 653.7196,-192.6829 656.3236,-187.9734 649.9392,-193.99 649.9392,-193.99"/>
<ellipse fill="none" stroke="#000000" cx="646.9149" cy="-195.0357" rx="3.2" ry="3.2"/>
</g>
<!-- tags -->
<g id="node8" class="node">
<title>tags</title>
<g id="a_node8"><a xlink:href="../../tables/tags.html" xlink:title="tags" target="_top">
<polygon fill="#ffffff" stroke="transparent" points="663.5,-382.8757 663.5,-487.8757 751.5,-487.8757 751.5,-382.8757 663.5,-382.8757"/>
<polygon fill="#f5f5f5" stroke="transparent" points="663.5,-464.3757 663.5,-487.3757 751.5,-487.3757 751.5,-464.3757 663.5,-464.3757"/>
<polygon fill="none" stroke="#000000" points="663.5,-464.3757 663.5,-487.3757 751.5,-487.3757 751.5,-464.3757 663.5,-464.3757"/>
<text text-anchor="start" x="668.5" y="-473.4757" font-family="Helvetica,sans-Serif" font-weight="bold" font-size="11.00" fill="#000000">tags</text>
<text text-anchor="start" x="716.5437" y="-472.4757" font-family="Helvetica,sans-Serif" font-size="11.00" fill="#000000">[table]</text>
<polygon fill="none" stroke="#000000" points="663.5,-442.3757 663.5,-464.3757 751.5,-464.3757 751.5,-442.3757 663.5,-442.3757"/>
<image xlink:href="../../images/primaryKeys.png" width="11px" height="12px" preserveAspectRatio="xMinYMin meet" x="668.5" y="-459.376"/>
<text text-anchor="start" x="683.5" y="-449.4757" font-family="Helvetica,sans-Serif" font-size="11.00" fill="#000000">id</text>
<polygon fill="none" stroke="#000000" points="663.5,-420.3757 663.5,-442.3757 751.5,-442.3757 751.5,-420.3757 663.5,-420.3757"/>
<image xlink:href="../../images/foreignKeys.png" width="11px" height="12px" preserveAspectRatio="xMinYMin meet" x="668.5" y="-437.376"/>
<text text-anchor="start" x="683.5" y="-427.4757" font-family="Helvetica,sans-Serif" font-size="11.00" fill="#000000">event_id</text>
<polygon fill="none" stroke="#000000" points="663.5,-401.3757 663.5,-420.3757 751.5,-420.3757 751.5,-401.3757 663.5,-401.3757"/>
<text text-anchor="start" x="666.5" y="-407.4757" font-family="Helvetica,sans-Serif" font-size="11.00" fill="#000000">...</text>
<polygon fill="#ffffff" stroke="transparent" points="663.5,-382.3757 663.5,-401.3757 692.5,-401.3757 692.5,-382.3757 663.5,-382.3757"/>
<polygon fill="none" stroke="#000000" points="663.5,-382.3757 663.5,-401.3757 692.5,-401.3757 692.5,-382.3757 663.5,-382.3757"/>
<text text-anchor="start" x="666.5" y="-388.4757" font-family="Helvetica,sans-Serif" font-size="11.00" fill="#000000">&lt; 1</text>
<polygon fill="#ffffff" stroke="transparent" points="692.5,-382.3757 692.5,-401.3757 734.5,-401.3757 734.5,-382.3757 692.5,-382.3757"/>
<polygon fill="none" stroke="#000000" points="692.5,-382.3757 692.5,-401.3757 734.5,-401.3757 734.5,-382.3757 692.5,-382.3757"/>
<text text-anchor="start" x="699.1105" y="-388.4757" font-family="Helvetica,sans-Serif" font-size="11.00" fill="#000000">0 rows</text>
<polygon fill="#ffffff" stroke="transparent" points="734.5,-382.3757 734.5,-401.3757 751.5,-401.3757 751.5,-382.3757 734.5,-382.3757"/>
<polygon fill="none" stroke="#000000" points="734.5,-382.3757 734.5,-401.3757 751.5,-401.3757 751.5,-382.3757 734.5,-382.3757"/>
<text text-anchor="start" x="742.3862" y="-388.4757" font-family="Helvetica,sans-Serif" font-size="11.00" fill="#000000"> &#160;</text>
</a>
</g>
</g>
<!-- tags&#45;&gt;events -->
<g id="edge8" class="edge">
<title>tags:w&#45;&gt;events:e</title>
<path fill="none" stroke="#000000" d="M649.3125,-434.47C617.8847,-450.6069 639.1944,-524.3757 593,-524.3757"/>
<polygon fill="#000000" stroke="#000000" points="655.6837,-433.0805 664.2671,-434.8931 659.5919,-432.2281 663.5,-431.3757 663.5,-431.3757 663.5,-431.3757 659.5919,-432.2281 662.7329,-427.8584 655.6837,-433.0805 655.6837,-433.0805"/>
<ellipse fill="none" stroke="#000000" cx="652.5572" cy="-433.7624" rx="3.2" ry="3.2"/>
</g>
<!-- user_bans -->
<g id="node9" class="node">
<title>user_bans</title>
<g id="a_node9"><a xlink:href="../../tables/user_bans.html" xlink:title="user_bans" target="_top">
<polygon fill="#ffffff" stroke="transparent" points="393,-581.8757 393,-642.8757 487,-642.8757 487,-581.8757 393,-581.8757"/>
<polygon fill="#f5f5f5" stroke="transparent" points="393,-619.3757 393,-642.3757 487,-642.3757 487,-619.3757 393,-619.3757"/>
<polygon fill="none" stroke="#000000" points="393,-619.3757 393,-642.3757 487,-642.3757 487,-619.3757 393,-619.3757"/>
<text text-anchor="start" x="397.8244" y="-628.4757" font-family="Helvetica,sans-Serif" font-weight="bold" font-size="11.00" fill="#000000">user_bans</text>
<text text-anchor="start" x="452.5219" y="-627.4757" font-family="Helvetica,sans-Serif" font-size="11.00" fill="#000000">[table]</text>
<polygon fill="none" stroke="#000000" points="393,-600.3757 393,-619.3757 487,-619.3757 487,-600.3757 393,-600.3757"/>
<text text-anchor="start" x="396" y="-606.4757" font-family="Helvetica,sans-Serif" font-size="11.00" fill="#000000">...</text>
<polygon fill="#ffffff" stroke="transparent" points="393,-581.3757 393,-600.3757 425,-600.3757 425,-581.3757 393,-581.3757"/>
<polygon fill="none" stroke="#000000" points="393,-581.3757 393,-600.3757 425,-600.3757 425,-581.3757 393,-581.3757"/>
<text text-anchor="start" x="396" y="-587.4757" font-family="Helvetica,sans-Serif" font-size="11.00" fill="#000000">&lt; 2</text>
<polygon fill="#ffffff" stroke="transparent" points="425,-581.3757 425,-600.3757 469,-600.3757 469,-581.3757 425,-581.3757"/>
<polygon fill="none" stroke="#000000" points="425,-581.3757 425,-600.3757 469,-600.3757 469,-581.3757 425,-581.3757"/>
<text text-anchor="start" x="433.6105" y="-587.4757" font-family="Helvetica,sans-Serif" font-size="11.00" fill="#000000">0 rows</text>
<polygon fill="#ffffff" stroke="transparent" points="469,-581.3757 469,-600.3757 487,-600.3757 487,-581.3757 469,-581.3757"/>
<polygon fill="none" stroke="#000000" points="469,-581.3757 469,-600.3757 487,-600.3757 487,-581.3757 469,-581.3757"/>
<text text-anchor="start" x="477.8862" y="-587.4757" font-family="Helvetica,sans-Serif" font-size="11.00" fill="#000000"> &#160;</text>
</a>
</g>
</g>
<!-- user_bans&#45;&gt;chapters -->
<g id="edge9" class="edge">
<title>user_bans:w&#45;&gt;chapters:e</title>
<path fill="none" stroke="#000000" d="M378.4135,-609.4467C333.4903,-609.7687 307.8095,-609.6902 277,-571.3757 224.5742,-506.1795 309.6601,-198.3757 226,-198.3757"/>
<polygon fill="#000000" stroke="#000000" points="385.0001,-609.4147 393.0175,-612.9757 389,-609.3952 393,-609.3757 393,-609.3757 393,-609.3757 389,-609.3952 392.9825,-605.7758 385.0001,-609.4147 385.0001,-609.4147"/>
<ellipse fill="none" stroke="#000000" cx="381.8001" cy="-609.4303" rx="3.2" ry="3.2"/>
</g>
<!-- user_bans&#45;&gt;users -->
<g id="edge10" class="edge">
<title>user_bans:w&#45;&gt;users:e</title>
<path fill="none" stroke="#000000" d="M378.5557,-609.0978C222.6949,-602.9752 186.8532,-496.3016 120,-347.3757 88.0145,-276.1232 157.6025,-176.3757 79.5,-176.3757"/>
<polygon fill="#000000" stroke="#000000" points="385.0015,-609.2218 392.9307,-612.9751 389.0007,-609.2988 393,-609.3757 393,-609.3757 393,-609.3757 389.0007,-609.2988 393.0693,-605.7764 385.0015,-609.2218 385.0015,-609.2218"/>
<ellipse fill="none" stroke="#000000" cx="381.8021" cy="-609.1602" rx="3.2" ry="3.2"/>
</g>
<!-- user_chapter_roles -->
<g id="node10" class="node">
<title>user_chapter_roles</title>
<g id="a_node10"><a xlink:href="../../tables/user_chapter_roles.html" xlink:title="user_chapter_roles" target="_top">
<polygon fill="#ffffff" stroke="transparent" points="371.5,-79.8757 371.5,-140.8757 508.5,-140.8757 508.5,-79.8757 371.5,-79.8757"/>
<polygon fill="#f5f5f5" stroke="transparent" points="372,-117.3757 372,-140.3757 509,-140.3757 509,-117.3757 372,-117.3757"/>
<polygon fill="none" stroke="#000000" points="372,-117.3757 372,-140.3757 509,-140.3757 509,-117.3757 372,-117.3757"/>
<text text-anchor="start" x="376.9338" y="-126.4757" font-family="Helvetica,sans-Serif" font-weight="bold" font-size="11.00" fill="#000000">user_chapter_roles</text>
<text text-anchor="start" x="474.5219" y="-125.4757" font-family="Helvetica,sans-Serif" font-size="11.00" fill="#000000">[table]</text>
<polygon fill="none" stroke="#000000" points="372,-98.3757 372,-117.3757 509,-117.3757 509,-98.3757 372,-98.3757"/>
<text text-anchor="start" x="375" y="-104.4757" font-family="Helvetica,sans-Serif" font-size="11.00" fill="#000000">...</text>
<polygon fill="#ffffff" stroke="transparent" points="372,-79.3757 372,-98.3757 426,-98.3757 426,-79.3757 372,-79.3757"/>
<polygon fill="none" stroke="#000000" points="372,-79.3757 372,-98.3757 426,-98.3757 426,-79.3757 372,-79.3757"/>
<text text-anchor="start" x="375" y="-85.4757" font-family="Helvetica,sans-Serif" font-size="11.00" fill="#000000">&lt; 2</text>
<polygon fill="#ffffff" stroke="transparent" points="426,-79.3757 426,-98.3757 480,-98.3757 480,-79.3757 426,-79.3757"/>
<polygon fill="none" stroke="#000000" points="426,-79.3757 426,-98.3757 480,-98.3757 480,-79.3757 426,-79.3757"/>
<text text-anchor="start" x="444.6105" y="-85.4757" font-family="Helvetica,sans-Serif" font-size="11.00" fill="#000000">0 rows</text>
<polygon fill="#ffffff" stroke="transparent" points="480,-79.3757 480,-98.3757 509,-98.3757 509,-79.3757 480,-79.3757"/>
<polygon fill="none" stroke="#000000" points="480,-79.3757 480,-98.3757 509,-98.3757 509,-79.3757 480,-79.3757"/>
<text text-anchor="start" x="499.8862" y="-85.4757" font-family="Helvetica,sans-Serif" font-size="11.00" fill="#000000"> &#160;</text>
</a>
</g>
</g>
<!-- user_chapter_roles&#45;&gt;chapters -->
<g id="edge11" class="edge">
<title>user_chapter_roles:w&#45;&gt;chapters:e</title>
<path fill="none" stroke="#000000" d="M357.4619,-108.0925C322.7703,-111.7862 311.4664,-129.3915 277,-152.3757 251.6042,-169.3111 256.5246,-198.3757 226,-198.3757"/>
<polygon fill="#000000" stroke="#000000" points="364.0097,-107.7697 372.1773,-110.9714 368.0049,-107.5727 372,-107.3757 372,-107.3757 372,-107.3757 368.0049,-107.5727 371.8227,-103.7801 364.0097,-107.7697 364.0097,-107.7697"/>
<ellipse fill="none" stroke="#000000" cx="360.8136" cy="-107.9273" rx="3.2" ry="3.2"/>
</g>
<!-- user_chapter_roles&#45;&gt;users -->
<g id="edge12" class="edge">
<title>user_chapter_roles:w&#45;&gt;users:e</title>
<path fill="none" stroke="#000000" d="M357.3085,-107.1212C256.044,-103.6054 213.7187,-65.6347 120,-117.3757 92.1559,-132.7482 111.3057,-176.3757 79.5,-176.3757"/>
<polygon fill="#000000" stroke="#000000" points="364.0012,-107.2371 371.9376,-110.9752 368.0006,-107.3064 372,-107.3757 372,-107.3757 372,-107.3757 368.0006,-107.3064 372.0624,-103.7763 364.0012,-107.2371 364.0012,-107.2371"/>
<ellipse fill="none" stroke="#000000" cx="360.8017" cy="-107.1817" rx="3.2" ry="3.2"/>
</g>
<!-- user_event_roles -->
<g id="node11" class="node">
<title>user_event_roles</title>
<g id="a_node11"><a xlink:href="../../tables/user_event_roles.html" xlink:title="user_event_roles" target="_top">
<polygon fill="#ffffff" stroke="transparent" points="644,-656.8757 644,-805.8757 771,-805.8757 771,-656.8757 644,-656.8757"/>
<polygon fill="#f5f5f5" stroke="transparent" points="644.5,-782.3757 644.5,-805.3757 771.5,-805.3757 771.5,-782.3757 644.5,-782.3757"/>
<polygon fill="none" stroke="#000000" points="644.5,-782.3757 644.5,-805.3757 771.5,-805.3757 771.5,-782.3757 644.5,-782.3757"/>
<text text-anchor="start" x="649.3222" y="-791.4757" font-family="Helvetica,sans-Serif" font-weight="bold" font-size="11.00" fill="#000000">user_event_roles</text>
<text text-anchor="start" x="737.0219" y="-790.4757" font-family="Helvetica,sans-Serif" font-size="11.00" fill="#000000">[table]</text>
<polygon fill="none" stroke="#000000" points="644.5,-760.3757 644.5,-782.3757 771.5,-782.3757 771.5,-760.3757 644.5,-760.3757"/>
<image xlink:href="../../images/primaryKeys.png" width="11px" height="12px" preserveAspectRatio="xMinYMin meet" x="649.5" y="-777.376"/>
<text text-anchor="start" x="668.5" y="-767.4757" font-family="Helvetica,sans-Serif" font-size="11.00" fill="#000000">id</text>
<polygon fill="none" stroke="#000000" points="644.5,-738.3757 644.5,-760.3757 771.5,-760.3757 771.5,-738.3757 644.5,-738.3757"/>
<image xlink:href="../../images/primaryKeys.png" width="11px" height="12px" preserveAspectRatio="xMinYMin meet" x="649.5" y="-755.376"/>
<text text-anchor="start" x="668.5" y="-745.4757" font-family="Helvetica,sans-Serif" font-size="11.00" fill="#000000">user_id</text>
<polygon fill="none" stroke="#000000" points="644.5,-716.3757 644.5,-738.3757 771.5,-738.3757 771.5,-716.3757 644.5,-716.3757"/>
<image xlink:href="../../images/primaryKeys.png" width="11px" height="12px" preserveAspectRatio="xMinYMin meet" x="649.5" y="-733.376"/>
<text text-anchor="start" x="668.5" y="-723.4757" font-family="Helvetica,sans-Serif" font-size="11.00" fill="#000000">event_id</text>
<polygon fill="none" stroke="#000000" points="644.5,-694.3757 644.5,-716.3757 771.5,-716.3757 771.5,-694.3757 644.5,-694.3757"/>
<image xlink:href="../../images/primaryKeys.png" width="11px" height="12px" preserveAspectRatio="xMinYMin meet" x="649.5" y="-711.376"/>
<text text-anchor="start" x="668.5" y="-701.4757" font-family="Helvetica,sans-Serif" font-size="11.00" fill="#000000">role_name</text>
<polygon fill="none" stroke="#000000" points="644.5,-675.3757 644.5,-694.3757 771.5,-694.3757 771.5,-675.3757 644.5,-675.3757"/>
<text text-anchor="start" x="647.5" y="-681.4757" font-family="Helvetica,sans-Serif" font-size="11.00" fill="#000000">...</text>
<polygon fill="#ffffff" stroke="transparent" points="644.5,-656.3757 644.5,-675.3757 693.5,-675.3757 693.5,-656.3757 644.5,-656.3757"/>
<polygon fill="none" stroke="#000000" points="644.5,-656.3757 644.5,-675.3757 693.5,-675.3757 693.5,-656.3757 644.5,-656.3757"/>
<text text-anchor="start" x="647.5" y="-662.4757" font-family="Helvetica,sans-Serif" font-size="11.00" fill="#000000">&lt; 2</text>
<polygon fill="#ffffff" stroke="transparent" points="693.5,-656.3757 693.5,-675.3757 745.5,-675.3757 745.5,-656.3757 693.5,-656.3757"/>
<polygon fill="none" stroke="#000000" points="693.5,-656.3757 693.5,-675.3757 745.5,-675.3757 745.5,-656.3757 693.5,-656.3757"/>
<text text-anchor="start" x="710.1105" y="-662.4757" font-family="Helvetica,sans-Serif" font-size="11.00" fill="#000000">0 rows</text>
<polygon fill="#ffffff" stroke="transparent" points="745.5,-656.3757 745.5,-675.3757 771.5,-675.3757 771.5,-656.3757 745.5,-656.3757"/>
<polygon fill="none" stroke="#000000" points="745.5,-656.3757 745.5,-675.3757 771.5,-675.3757 771.5,-656.3757 745.5,-656.3757"/>
<text text-anchor="start" x="762.3862" y="-662.4757" font-family="Helvetica,sans-Serif" font-size="11.00" fill="#000000"> &#160;</text>
</a>
</g>
</g>
<!-- user_event_roles&#45;&gt;users -->
<g id="edge14" class="edge">
<title>user_event_roles:w&#45;&gt;users:e</title>
<path fill="none" stroke="#000000" d="M629.9233,-749.5637C477.0909,-753.5102 412.6003,-817.4485 277,-735.3757 156.9282,-662.7017 165.5787,-594.1212 120,-461.3757 99.2262,-400.8732 143.4696,-176.3757 79.5,-176.3757"/>
<polygon fill="#000000" stroke="#000000" points="636.5007,-749.4789 644.5464,-752.9754 640.5003,-749.4273 644.5,-749.3757 644.5,-749.3757 644.5,-749.3757 640.5003,-749.4273 644.4536,-745.776 636.5007,-749.4789 636.5007,-749.4789"/>
<ellipse fill="none" stroke="#000000" cx="633.3009" cy="-749.5202" rx="3.2" ry="3.2"/>
</g>
<!-- user_event_roles&#45;&gt;events -->
<g id="edge13" class="edge">
<title>user_event_roles:w&#45;&gt;events:e</title>
<path fill="none" stroke="#000000" d="M629.9964,-725.2333C566.8913,-703.5379 680.4446,-524.3757 593,-524.3757"/>
<polygon fill="#000000" stroke="#000000" points="636.5859,-726.2066 643.9739,-730.9371 640.5429,-726.7912 644.5,-727.3757 644.5,-727.3757 644.5,-727.3757 640.5429,-726.7912 645.0261,-723.8144 636.5859,-726.2066 636.5859,-726.2066"/>
<ellipse fill="none" stroke="#000000" cx="633.4202" cy="-725.739" rx="3.2" ry="3.2"/>
</g>
</g>
</svg>
