<?xml version="1.0" encoding="UTF-8" standalone="no"?>
<!DOCTYPE svg PUBLIC "-//W3C//DTD SVG 1.1//EN"
 "http://www.w3.org/Graphics/SVG/1.1/DTD/svg11.dtd">
<!-- Generated by graphviz version 2.40.1 (20161225.0304)
 -->
<!-- Title: oneDegreeRelationshipsDiagram Pages: 1 -->
<svg width="385pt" height="245pt"
 viewBox="0.00 0.00 385.00 244.70" xmlns="http://www.w3.org/2000/svg" xmlns:xlink="http://www.w3.org/1999/xlink">
<g id="graph0" class="graph" transform="scale(1 1) rotate(0) translate(4 240.7)">
<title>oneDegreeRelationshipsDiagram</title>
<polygon fill="#ffffff" stroke="transparent" points="-4,4 -4,-240.7 381,-240.7 381,4 -4,4"/>
<text text-anchor="middle" x="72.4936" y="-7.3" font-family="Helvetica,sans-Serif" font-size="11.00" fill="#000000">Generated by SchemaSpy</text>
<!-- event_reminders -->
<g id="node1" class="node">
<title>event_reminders</title>
<g id="a_node1"><a xlink:href="../../tables/event_reminders.html" xlink:title="event_reminders" target="_top">
<polygon fill="#ffffff" stroke="transparent" points="159,-54.7 159,-232.7 369,-232.7 369,-54.7 159,-54.7"/>
<polygon fill="#f5f5f5" stroke="transparent" points="161,-207.7 161,-230.7 367,-230.7 367,-207.7 161,-207.7"/>
<polygon fill="none" stroke="#000000" points="161,-207.7 161,-230.7 367,-230.7 367,-207.7 161,-207.7"/>
<text text-anchor="start" x="166" y="-216.8" font-family="Helvetica,sans-Serif" font-weight="bold" font-size="11.00" fill="#000000">event_reminders</text>
<text text-anchor="start" x="332.0437" y="-215.8" font-family="Helvetica,sans-Serif" font-size="11.00" fill="#000000">[table]</text>
<polygon fill="none" stroke="#000000" points="161,-185.7 161,-207.7 283,-207.7 283,-185.7 161,-185.7"/>
<text text-anchor="start" x="181" y="-192.8" font-family="Helvetica,sans-Serif" font-size="11.00" fill="#000000">created_at</text>
<polygon fill="none" stroke="#000000" points="283,-185.7 283,-207.7 367,-207.7 367,-185.7 283,-185.7"/>
<text text-anchor="start" x="285.8807" y="-193.4" font-family="Helvetica,sans-Serif" font-size="11.00" fill="#000000">timestamp[26,3]</text>
<polygon fill="none" stroke="#000000" points="161,-163.7 161,-185.7 283,-185.7 283,-163.7 161,-163.7"/>
<text text-anchor="start" x="181" y="-170.8" font-family="Helvetica,sans-Serif" font-size="11.00" fill="#000000">updated_at</text>
<polygon fill="none" stroke="#000000" points="283,-163.7 283,-185.7 367,-185.7 367,-163.7 283,-163.7"/>
<text text-anchor="start" x="285.8807" y="-171.4" font-family="Helvetica,sans-Serif" font-size="11.00" fill="#000000">timestamp[26,3]</text>
<polygon fill="none" stroke="#000000" points="161,-141.7 161,-163.7 283,-163.7 283,-141.7 161,-141.7"/>
<image xlink:href="../../images/primaryKeys.png" width="11px" height="12px" preserveAspectRatio="xMinYMin meet" x="166" y="-158.7"/>
<text text-anchor="start" x="181" y="-148.8" font-family="Helvetica,sans-Serif" font-size="11.00" fill="#000000">user_id</text>
<polygon fill="none" stroke="#000000" points="283,-141.7 283,-163.7 367,-163.7 367,-141.7 283,-141.7"/>
<text text-anchor="start" x="286" y="-149.4" font-family="Helvetica,sans-Serif" font-size="11.00" fill="#000000">int4[10]</text>
<polygon fill="none" stroke="#000000" points="161,-119.7 161,-141.7 283,-141.7 283,-119.7 161,-119.7"/>
<image xlink:href="../../images/primaryKeys.png" width="11px" height="12px" preserveAspectRatio="xMinYMin meet" x="166" y="-136.7"/>
<text text-anchor="start" x="181" y="-126.8" font-family="Helvetica,sans-Serif" font-size="11.00" fill="#000000">event_id</text>
<polygon fill="none" stroke="#000000" points="283,-119.7 283,-141.7 367,-141.7 367,-119.7 283,-119.7"/>
<text text-anchor="start" x="286" y="-127.4" font-family="Helvetica,sans-Serif" font-size="11.00" fill="#000000">int4[10]</text>
<polygon fill="none" stroke="#000000" points="161,-97.7 161,-119.7 283,-119.7 283,-97.7 161,-97.7"/>
<text text-anchor="start" x="181" y="-104.8" font-family="Helvetica,sans-Serif" font-size="11.00" fill="#000000">remind_at</text>
<polygon fill="none" stroke="#000000" points="283,-97.7 283,-119.7 367,-119.7 367,-97.7 283,-97.7"/>
<text text-anchor="start" x="285.8807" y="-105.4" font-family="Helvetica,sans-Serif" font-size="11.00" fill="#000000">timestamp[26,3]</text>
<polygon fill="none" stroke="#000000" points="161,-75.7 161,-97.7 283,-97.7 283,-75.7 161,-75.7"/>
<text text-anchor="start" x="181" y="-82.8" font-family="Helvetica,sans-Serif" font-size="11.00" fill="#000000">notifying</text>
<polygon fill="none" stroke="#000000" points="283,-75.7 283,-97.7 367,-97.7 367,-75.7 283,-75.7"/>
<text text-anchor="start" x="286" y="-83.4" font-family="Helvetica,sans-Serif" font-size="11.00" fill="#000000">bool[1]</text>
<polygon fill="#ffffff" stroke="transparent" points="161,-56.7 161,-75.7 213,-75.7 213,-56.7 161,-56.7"/>
<polygon fill="none" stroke="#000000" points="161,-56.7 161,-75.7 213,-75.7 213,-56.7 161,-56.7"/>
<text text-anchor="start" x="164" y="-62.8" font-family="Helvetica,sans-Serif" font-size="11.00" fill="#000000">&lt; 2</text>
<polygon fill="#ffffff" stroke="transparent" points="213,-56.7 213,-75.7 283,-75.7 283,-56.7 213,-56.7"/>
<polygon fill="none" stroke="#000000" points="213,-56.7 213,-75.7 283,-75.7 283,-56.7 213,-56.7"/>
<text text-anchor="start" x="247.6105" y="-62.8" font-family="Helvetica,sans-Serif" font-size="11.00" fill="#000000">0 rows</text>
<polygon fill="#ffffff" stroke="transparent" points="283,-56.7 283,-75.7 367,-75.7 367,-56.7 283,-56.7"/>
<polygon fill="none" stroke="#000000" points="283,-56.7 283,-75.7 367,-75.7 367,-56.7 283,-56.7"/>
<text text-anchor="start" x="348.4053" y="-62.8" font-family="Helvetica,sans-Serif" font-size="11.00" fill="#000000">0 &gt;</text>
<polygon fill="none" stroke="#000000" stroke-width="2" points="160,-55.7 160,-231.7 368,-231.7 368,-55.7 160,-55.7"/>
</a>
</g>
</g>
<!-- event_users -->
<g id="node2" class="node">
<title>event_users</title>
<g id="a_node2"><a xlink:href="../../tables/event_users.html" xlink:title="event_users" target="_top">
<polygon fill="#ffffff" stroke="transparent" points="8,-38.2 8,-187.2 110,-187.2 110,-38.2 8,-38.2"/>
<polygon fill="#f5f5f5" stroke="transparent" points="8,-163.7 8,-186.7 110,-186.7 110,-163.7 8,-163.7"/>
<polygon fill="none" stroke="#000000" points="8,-163.7 8,-186.7 110,-186.7 110,-163.7 8,-163.7"/>
<text text-anchor="start" x="12.5459" y="-172.8" font-family="Helvetica,sans-Serif" font-weight="bold" font-size="11.00" fill="#000000">event_users</text>
<text text-anchor="start" x="75.5219" y="-171.8" font-family="Helvetica,sans-Serif" font-size="11.00" fill="#000000">[table]</text>
<polygon fill="none" stroke="#000000" points="8,-141.7 8,-163.7 110,-163.7 110,-141.7 8,-141.7"/>
<image xlink:href="../../images/primaryKeys.png" width="11px" height="12px" preserveAspectRatio="xMinYMin meet" x="13" y="-158.7"/>
<text text-anchor="start" x="30" y="-148.8" font-family="Helvetica,sans-Serif" font-size="11.00" fill="#000000">user_id</text>
<polygon fill="none" stroke="#000000" points="8,-119.7 8,-141.7 110,-141.7 110,-119.7 8,-119.7"/>
<image xlink:href="../../images/primaryKeys.png" width="11px" height="12px" preserveAspectRatio="xMinYMin meet" x="13" y="-136.7"/>
<text text-anchor="start" x="30" y="-126.8" font-family="Helvetica,sans-Serif" font-size="11.00" fill="#000000">event_id</text>
<polygon fill="none" stroke="#000000" points="8,-97.7 8,-119.7 110,-119.7 110,-97.7 8,-97.7"/>
<image xlink:href="../../images/foreignKeys.png" width="11px" height="12px" preserveAspectRatio="xMinYMin meet" x="13" y="-114.7"/>
<text text-anchor="start" x="30" y="-104.8" font-family="Helvetica,sans-Serif" font-size="11.00" fill="#000000">event_role_id</text>
<polygon fill="none" stroke="#000000" points="8,-75.7 8,-97.7 110,-97.7 110,-75.7 8,-75.7"/>
<image xlink:href="../../images/foreignKeys.png" width="11px" height="12px" preserveAspectRatio="xMinYMin meet" x="13" y="-92.7"/>
<text text-anchor="start" x="30" y="-82.8" font-family="Helvetica,sans-Serif" font-size="11.00" fill="#000000">rsvp_id</text>
<polygon fill="none" stroke="#000000" points="8,-56.7 8,-75.7 110,-75.7 110,-56.7 8,-56.7"/>
<text text-anchor="start" x="11" y="-62.8" font-family="Helvetica,sans-Serif" font-size="11.00" fill="#000000">...</text>
<polygon fill="#ffffff" stroke="transparent" points="8,-37.7 8,-56.7 40,-56.7 40,-37.7 8,-37.7"/>
<polygon fill="none" stroke="#000000" points="8,-37.7 8,-56.7 40,-56.7 40,-37.7 8,-37.7"/>
<text text-anchor="start" x="11" y="-43.8" font-family="Helvetica,sans-Serif" font-size="11.00" fill="#000000">&lt; 4</text>
<polygon fill="#ffffff" stroke="transparent" points="40,-37.7 40,-56.7 83,-56.7 83,-37.7 40,-37.7"/>
<polygon fill="none" stroke="#000000" points="40,-37.7 40,-56.7 83,-56.7 83,-37.7 40,-37.7"/>
<text text-anchor="start" x="47.6105" y="-43.8" font-family="Helvetica,sans-Serif" font-size="11.00" fill="#000000">0 rows</text>
<polygon fill="#ffffff" stroke="transparent" points="83,-37.7 83,-56.7 110,-56.7 110,-37.7 83,-37.7"/>
<polygon fill="none" stroke="#000000" points="83,-37.7 83,-56.7 110,-56.7 110,-37.7 83,-37.7"/>
<text text-anchor="start" x="91.4053" y="-43.8" font-family="Helvetica,sans-Serif" font-size="11.00" fill="#000000">2 &gt;</text>
</a>
</g>
</g>
<!-- event_reminders&#45;&gt;event_users -->
<g id="edge1" class="edge">
<title>event_reminders:w&#45;&gt;event_users:e</title>
<path fill="none" stroke="#000000" d="M146.276,-130.7C134.2815,-130.7 126.8229,-130.7 110,-130.7"/>
<polygon fill="#000000" stroke="#000000" points="153,-130.7001 161,-134.3 157,-130.7 161,-130.7 161,-130.7 161,-130.7 157,-130.7 161,-127.1 153,-130.7001 153,-130.7001"/>
<ellipse fill="none" stroke="#000000" cx="149.8" cy="-130.7001" rx="3.2" ry="3.2"/>
</g>
<!-- event_reminders&#45;&gt;event_users -->
<g id="edge2" class="edge">
<title>event_reminders:w&#45;&gt;event_users:e</title>
<path fill="none" stroke="#000000" d="M146.276,-152.7C134.2815,-152.7 126.8229,-152.7 110,-152.7"/>
<polygon fill="#000000" stroke="#000000" points="153,-152.7001 161,-156.3 157,-152.7 161,-152.7 161,-152.7 161,-152.7 157,-152.7 161,-149.1 153,-152.7001 153,-152.7001"/>
<ellipse fill="none" stroke="#000000" cx="149.8" cy="-152.7001" rx="3.2" ry="3.2"/>
</g>
</g>
</svg>
