<?xml version="1.0" encoding="UTF-8" standalone="no"?>
<!DOCTYPE svg PUBLIC "-//W3C//DTD SVG 1.1//EN"
 "http://www.w3.org/Graphics/SVG/1.1/DTD/svg11.dtd">
<!-- Generated by graphviz version 2.40.1 (20161225.0304)
 -->
<!-- Title: oneDegreeRelationshipsDiagram Pages: 1 -->
<svg width="378pt" height="286pt"
 viewBox="0.00 0.00 378.00 285.70" xmlns="http://www.w3.org/2000/svg" xmlns:xlink="http://www.w3.org/1999/xlink">
<g id="graph0" class="graph" transform="scale(1 1) rotate(0) translate(4 281.7)">
<title>oneDegreeRelationshipsDiagram</title>
<polygon fill="#ffffff" stroke="transparent" points="-4,4 -4,-281.7 374,-281.7 374,4 -4,4"/>
<text text-anchor="middle" x="72.4936" y="-7.3" font-family="Helvetica,sans-Serif" font-size="11.00" fill="#000000">Generated by SchemaSpy</text>
<!-- event_sponsors -->
<g id="node1" class="node">
<title>event_sponsors</title>
<g id="a_node1"><a xlink:href="../../tables/event_sponsors.html" xlink:title="event_sponsors" target="_top">
<polygon fill="#ffffff" stroke="transparent" points="161,-139.7 161,-273.7 362,-273.7 362,-139.7 161,-139.7"/>
<polygon fill="#f5f5f5" stroke="transparent" points="163.5,-248.7 163.5,-271.7 360.5,-271.7 360.5,-248.7 163.5,-248.7"/>
<polygon fill="none" stroke="#000000" points="163.5,-248.7 163.5,-271.7 360.5,-271.7 360.5,-248.7 163.5,-248.7"/>
<text text-anchor="start" x="168.5" y="-257.8" font-family="Helvetica,sans-Serif" font-weight="bold" font-size="11.00" fill="#000000">event_sponsors</text>
<text text-anchor="start" x="325.5437" y="-256.8" font-family="Helvetica,sans-Serif" font-size="11.00" fill="#000000">[table]</text>
<polygon fill="none" stroke="#000000" points="163.5,-226.7 163.5,-248.7 276.5,-248.7 276.5,-226.7 163.5,-226.7"/>
<text text-anchor="start" x="183.5" y="-233.8" font-family="Helvetica,sans-Serif" font-size="11.00" fill="#000000">created_at</text>
<polygon fill="none" stroke="#000000" points="276.5,-226.7 276.5,-248.7 360.5,-248.7 360.5,-226.7 276.5,-226.7"/>
<text text-anchor="start" x="279.3807" y="-234.4" font-family="Helvetica,sans-Serif" font-size="11.00" fill="#000000">timestamp[26,3]</text>
<polygon fill="none" stroke="#000000" points="163.5,-204.7 163.5,-226.7 276.5,-226.7 276.5,-204.7 163.5,-204.7"/>
<text text-anchor="start" x="183.5" y="-211.8" font-family="Helvetica,sans-Serif" font-size="11.00" fill="#000000">updated_at</text>
<polygon fill="none" stroke="#000000" points="276.5,-204.7 276.5,-226.7 360.5,-226.7 360.5,-204.7 276.5,-204.7"/>
<text text-anchor="start" x="279.3807" y="-212.4" font-family="Helvetica,sans-Serif" font-size="11.00" fill="#000000">timestamp[26,3]</text>
<polygon fill="none" stroke="#000000" points="163.5,-182.7 163.5,-204.7 276.5,-204.7 276.5,-182.7 163.5,-182.7"/>
<image xlink:href="../../images/primaryKeys.png" width="11px" height="12px" preserveAspectRatio="xMinYMin meet" x="168.5" y="-199.7"/>
<text text-anchor="start" x="183.5" y="-189.8" font-family="Helvetica,sans-Serif" font-size="11.00" fill="#000000">sponsor_id</text>
<polygon fill="none" stroke="#000000" points="276.5,-182.7 276.5,-204.7 360.5,-204.7 360.5,-182.7 276.5,-182.7"/>
<text text-anchor="start" x="279.5" y="-190.4" font-family="Helvetica,sans-Serif" font-size="11.00" fill="#000000">int4[10]</text>
<polygon fill="none" stroke="#000000" points="163.5,-160.7 163.5,-182.7 276.5,-182.7 276.5,-160.7 163.5,-160.7"/>
<image xlink:href="../../images/primaryKeys.png" width="11px" height="12px" preserveAspectRatio="xMinYMin meet" x="168.5" y="-177.7"/>
<text text-anchor="start" x="183.5" y="-167.8" font-family="Helvetica,sans-Serif" font-size="11.00" fill="#000000">event_id</text>
<polygon fill="none" stroke="#000000" points="276.5,-160.7 276.5,-182.7 360.5,-182.7 360.5,-160.7 276.5,-160.7"/>
<text text-anchor="start" x="279.5" y="-168.4" font-family="Helvetica,sans-Serif" font-size="11.00" fill="#000000">int4[10]</text>
<polygon fill="#ffffff" stroke="transparent" points="163.5,-141.7 163.5,-160.7 211.5,-160.7 211.5,-141.7 163.5,-141.7"/>
<polygon fill="none" stroke="#000000" points="163.5,-141.7 163.5,-160.7 211.5,-160.7 211.5,-141.7 163.5,-141.7"/>
<text text-anchor="start" x="166.5" y="-147.8" font-family="Helvetica,sans-Serif" font-size="11.00" fill="#000000">&lt; 2</text>
<polygon fill="#ffffff" stroke="transparent" points="211.5,-141.7 211.5,-160.7 276.5,-160.7 276.5,-141.7 211.5,-141.7"/>
<polygon fill="none" stroke="#000000" points="211.5,-141.7 211.5,-160.7 276.5,-160.7 276.5,-141.7 211.5,-141.7"/>
<text text-anchor="start" x="241.1105" y="-147.8" font-family="Helvetica,sans-Serif" font-size="11.00" fill="#000000">0 rows</text>
<polygon fill="#ffffff" stroke="transparent" points="276.5,-141.7 276.5,-160.7 360.5,-160.7 360.5,-141.7 276.5,-141.7"/>
<polygon fill="none" stroke="#000000" points="276.5,-141.7 276.5,-160.7 360.5,-160.7 360.5,-141.7 276.5,-141.7"/>
<text text-anchor="start" x="341.9053" y="-147.8" font-family="Helvetica,sans-Serif" font-size="11.00" fill="#000000">0 &gt;</text>
<polygon fill="none" stroke="#000000" stroke-width="2" points="162,-140.7 162,-272.7 361,-272.7 361,-140.7 162,-140.7"/>
</a>
</g>
</g>
<!-- events -->
<g id="node2" class="node">
<title>events</title>
<g id="a_node2"><a xlink:href="../../tables/events.html" xlink:title="events" target="_top">
<polygon fill="#ffffff" stroke="transparent" points="8,-38.2 8,-165.2 112,-165.2 112,-38.2 8,-38.2"/>
<polygon fill="#f5f5f5" stroke="transparent" points="8,-141.7 8,-164.7 112,-164.7 112,-141.7 8,-141.7"/>
<polygon fill="none" stroke="#000000" points="8,-141.7 8,-164.7 112,-164.7 112,-141.7 8,-141.7"/>
<text text-anchor="start" x="13" y="-150.8" font-family="Helvetica,sans-Serif" font-weight="bold" font-size="11.00" fill="#000000">events</text>
<text text-anchor="start" x="77.0437" y="-149.8" font-family="Helvetica,sans-Serif" font-size="11.00" fill="#000000">[table]</text>
<polygon fill="none" stroke="#000000" points="8,-119.7 8,-141.7 112,-141.7 112,-119.7 8,-119.7"/>
<image xlink:href="../../images/primaryKeys.png" width="11px" height="12px" preserveAspectRatio="xMinYMin meet" x="13" y="-136.7"/>
<text text-anchor="start" x="28" y="-126.8" font-family="Helvetica,sans-Serif" font-size="11.00" fill="#000000">id</text>
<polygon fill="none" stroke="#000000" points="8,-97.7 8,-119.7 112,-119.7 112,-97.7 8,-97.7"/>
<image xlink:href="../../images/foreignKeys.png" width="11px" height="12px" preserveAspectRatio="xMinYMin meet" x="13" y="-114.7"/>
<text text-anchor="start" x="28" y="-104.8" font-family="Helvetica,sans-Serif" font-size="11.00" fill="#000000">venue_id</text>
<polygon fill="none" stroke="#000000" points="8,-75.7 8,-97.7 112,-97.7 112,-75.7 8,-75.7"/>
<image xlink:href="../../images/foreignKeys.png" width="11px" height="12px" preserveAspectRatio="xMinYMin meet" x="13" y="-92.7"/>
<text text-anchor="start" x="28" y="-82.8" font-family="Helvetica,sans-Serif" font-size="11.00" fill="#000000">chapter_id</text>
<polygon fill="none" stroke="#000000" points="8,-56.7 8,-75.7 112,-75.7 112,-56.7 8,-56.7"/>
<text text-anchor="start" x="11" y="-62.8" font-family="Helvetica,sans-Serif" font-size="11.00" fill="#000000">...</text>
<polygon fill="#ffffff" stroke="transparent" points="8,-37.7 8,-56.7 41,-56.7 41,-37.7 8,-37.7"/>
<polygon fill="none" stroke="#000000" points="8,-37.7 8,-56.7 41,-56.7 41,-37.7 8,-37.7"/>
<text text-anchor="start" x="11" y="-43.8" font-family="Helvetica,sans-Serif" font-size="11.00" fill="#000000">&lt; 3</text>
<polygon fill="#ffffff" stroke="transparent" points="41,-37.7 41,-56.7 85,-56.7 85,-37.7 41,-37.7"/>
<polygon fill="none" stroke="#000000" points="41,-37.7 41,-56.7 85,-56.7 85,-37.7 41,-37.7"/>
<text text-anchor="start" x="49.6105" y="-43.8" font-family="Helvetica,sans-Serif" font-size="11.00" fill="#000000">0 rows</text>
<polygon fill="#ffffff" stroke="transparent" points="85,-37.7 85,-56.7 112,-56.7 112,-37.7 85,-37.7"/>
<polygon fill="none" stroke="#000000" points="85,-37.7 85,-56.7 112,-56.7 112,-37.7 85,-37.7"/>
<text text-anchor="start" x="93.4053" y="-43.8" font-family="Helvetica,sans-Serif" font-size="11.00" fill="#000000">3 &gt;</text>
</a>
</g>
</g>
<!-- event_sponsors&#45;&gt;events -->
<g id="edge1" class="edge">
<title>event_sponsors:w&#45;&gt;events:e</title>
<path fill="none" stroke="#000000" d="M149.5533,-167.3123C135.596,-156.7354 135.3139,-130.7 112,-130.7"/>
<polygon fill="#000000" stroke="#000000" points="155.8687,-169.2991 162.4196,-175.1341 159.6844,-170.4996 163.5,-171.7 163.5,-171.7 163.5,-171.7 159.6844,-170.4996 164.5804,-168.2659 155.8687,-169.2991 155.8687,-169.2991"/>
<ellipse fill="none" stroke="#000000" cx="152.8162" cy="-168.3388" rx="3.2" ry="3.2"/>
</g>
<!-- sponsors -->
<g id="node3" class="node">
<title>sponsors</title>
<g id="a_node3"><a xlink:href="../../tables/sponsors.html" xlink:title="sponsors" target="_top">
<polygon fill="#ffffff" stroke="transparent" points="16,-186.2 16,-269.2 104,-269.2 104,-186.2 16,-186.2"/>
<polygon fill="#f5f5f5" stroke="transparent" points="16,-245.7 16,-268.7 104,-268.7 104,-245.7 16,-245.7"/>
<polygon fill="none" stroke="#000000" points="16,-245.7 16,-268.7 104,-268.7 104,-245.7 16,-245.7"/>
<text text-anchor="start" x="21" y="-254.8" font-family="Helvetica,sans-Serif" font-weight="bold" font-size="11.00" fill="#000000">sponsors</text>
<text text-anchor="start" x="69.5219" y="-253.8" font-family="Helvetica,sans-Serif" font-size="11.00" fill="#000000">[table]</text>
<polygon fill="none" stroke="#000000" points="16,-223.7 16,-245.7 104,-245.7 104,-223.7 16,-223.7"/>
<image xlink:href="../../images/primaryKeys.png" width="11px" height="12px" preserveAspectRatio="xMinYMin meet" x="21" y="-240.7"/>
<text text-anchor="start" x="36" y="-230.8" font-family="Helvetica,sans-Serif" font-size="11.00" fill="#000000">id</text>
<polygon fill="none" stroke="#000000" points="16,-204.7 16,-223.7 104,-223.7 104,-204.7 16,-204.7"/>
<text text-anchor="start" x="19" y="-210.8" font-family="Helvetica,sans-Serif" font-size="11.00" fill="#000000">...</text>
<polygon fill="#ffffff" stroke="transparent" points="16,-185.7 16,-204.7 36,-204.7 36,-185.7 16,-185.7"/>
<polygon fill="none" stroke="#000000" points="16,-185.7 16,-204.7 36,-204.7 36,-185.7 16,-185.7"/>
<text text-anchor="start" x="19" y="-191.8" font-family="Helvetica,sans-Serif" font-size="11.00" fill="#000000"> &#160;</text>
<polygon fill="#ffffff" stroke="transparent" points="36,-185.7 36,-204.7 78,-204.7 78,-185.7 36,-185.7"/>
<polygon fill="none" stroke="#000000" points="36,-185.7 36,-204.7 78,-204.7 78,-185.7 36,-185.7"/>
<text text-anchor="start" x="42.6105" y="-191.8" font-family="Helvetica,sans-Serif" font-size="11.00" fill="#000000">0 rows</text>
<polygon fill="#ffffff" stroke="transparent" points="78,-185.7 78,-204.7 104,-204.7 104,-185.7 78,-185.7"/>
<polygon fill="none" stroke="#000000" points="78,-185.7 78,-204.7 104,-204.7 104,-185.7 78,-185.7"/>
<text text-anchor="start" x="85.4053" y="-191.8" font-family="Helvetica,sans-Serif" font-size="11.00" fill="#000000">1 &gt;</text>
</a>
</g>
</g>
<!-- event_sponsors&#45;&gt;sponsors -->
<g id="edge2" class="edge">
<title>event_sponsors:w&#45;&gt;sponsors:e</title>
<path fill="none" stroke="#000000" d="M149.3295,-197.1956C131.8953,-207.1106 130.3441,-234.7 104,-234.7"/>
<polygon fill="#000000" stroke="#000000" points="155.7328,-195.6161 164.3622,-197.1952 159.6164,-194.658 163.5,-193.7 163.5,-193.7 163.5,-193.7 159.6164,-194.658 162.6378,-190.2048 155.7328,-195.6161 155.7328,-195.6161"/>
<ellipse fill="none" stroke="#000000" cx="152.626" cy="-196.3825" rx="3.2" ry="3.2"/>
</g>
</g>
</svg>
