<?xml version="1.0" encoding="UTF-8" standalone="no"?>
<!DOCTYPE svg PUBLIC "-//W3C//DTD SVG 1.1//EN"
 "http://www.w3.org/Graphics/SVG/1.1/DTD/svg11.dtd">
<!-- Generated by graphviz version 2.40.1 (20161225.0304)
 -->
<!-- Title: oneDegreeRelationshipsDiagram Pages: 1 -->
<svg width="224pt" height="228pt"
 viewBox="0.00 0.00 224.00 228.20" xmlns="http://www.w3.org/2000/svg" xmlns:xlink="http://www.w3.org/1999/xlink">
<g id="graph0" class="graph" transform="scale(1 1) rotate(0) translate(4 224.2)">
<title>oneDegreeRelationshipsDiagram</title>
<polygon fill="#ffffff" stroke="transparent" points="-4,4 -4,-224.2 220,-224.2 220,4 -4,4"/>
<text text-anchor="middle" x="72.4936" y="-7.3" font-family="Helvetica,sans-Serif" font-size="11.00" fill="#000000">Generated by SchemaSpy</text>
<!-- google_tokens -->
<g id="node1" class="node">
<title>google_tokens</title>
<g id="a_node1"><a xlink:href="../../tables/google_tokens.html" xlink:title="google_tokens" target="_top">
<polygon fill="#ffffff" stroke="transparent" points="8,-38.2 8,-216.2 208,-216.2 208,-38.2 8,-38.2"/>
<polygon fill="#f5f5f5" stroke="transparent" points="10,-191.2 10,-214.2 206,-214.2 206,-191.2 10,-191.2"/>
<polygon fill="none" stroke="#000000" points="10,-191.2 10,-214.2 206,-214.2 206,-191.2 10,-191.2"/>
<text text-anchor="start" x="15" y="-199.8" font-family="Helvetica,sans-Serif" font-weight="bold" font-size="11.00" fill="#000000">google_tokens</text>
<text text-anchor="start" x="171.0437" y="-199.3" font-family="Helvetica,sans-Serif" font-size="11.00" fill="#000000">[table]</text>
<polygon fill="none" stroke="#000000" points="10,-169.2 10,-191.2 116,-191.2 116,-169.2 10,-169.2"/>
<image xlink:href="../../images/primaryKeys.png" width="11px" height="12px" preserveAspectRatio="xMinYMin meet" x="15" y="-186.2"/>
<text text-anchor="start" x="30" y="-176.3" font-family="Helvetica,sans-Serif" font-size="11.00" fill="#000000">id</text>
<polygon fill="none" stroke="#000000" points="116,-169.2 116,-191.2 206,-191.2 206,-169.2 116,-169.2"/>
<text text-anchor="start" x="119" y="-176.9" font-family="Helvetica,sans-Serif" font-size="11.00" fill="#000000">serial[10]</text>
<polygon fill="#ffffff" stroke="transparent" points="10,-147.2 10,-169.2 116,-169.2 116,-147.2 10,-147.2"/>
<polygon fill="none" stroke="#000000" points="10,-147.2 10,-169.2 116,-169.2 116,-147.2 10,-147.2"/>
<text text-anchor="start" x="30" y="-154.3" font-family="Helvetica,sans-Serif" font-size="11.00" fill="#000000">email</text>
<polygon fill="none" stroke="#000000" points="116,-147.2 116,-169.2 206,-169.2 206,-147.2 116,-147.2"/>
<text text-anchor="start" x="118.5042" y="-154.9" font-family="Helvetica,sans-Serif" font-size="11.00" fill="#000000">text[2147483647]</text>
<polygon fill="none" stroke="#000000" points="10,-125.2 10,-147.2 116,-147.2 116,-125.2 10,-125.2"/>
<text text-anchor="start" x="30" y="-132.3" font-family="Helvetica,sans-Serif" font-size="11.00" fill="#000000">access_token</text>
<polygon fill="none" stroke="#000000" points="116,-125.2 116,-147.2 206,-147.2 206,-125.2 116,-125.2"/>
<text text-anchor="start" x="118.5042" y="-132.9" font-family="Helvetica,sans-Serif" font-size="11.00" fill="#000000">text[2147483647]</text>
<polygon fill="none" stroke="#000000" points="10,-103.2 10,-125.2 116,-125.2 116,-103.2 10,-103.2"/>
<text text-anchor="start" x="30" y="-110.3" font-family="Helvetica,sans-Serif" font-size="11.00" fill="#000000">refresh_token</text>
<polygon fill="none" stroke="#000000" points="116,-103.2 116,-125.2 206,-125.2 206,-103.2 116,-103.2"/>
<text text-anchor="start" x="118.5042" y="-110.9" font-family="Helvetica,sans-Serif" font-size="11.00" fill="#000000">text[2147483647]</text>
<polygon fill="none" stroke="#000000" points="10,-81.2 10,-103.2 116,-103.2 116,-81.2 10,-81.2"/>
<text text-anchor="start" x="30" y="-88.3" font-family="Helvetica,sans-Serif" font-size="11.00" fill="#000000">expiry_date</text>
<polygon fill="none" stroke="#000000" points="116,-81.2 116,-103.2 206,-103.2 206,-81.2 116,-81.2"/>
<text text-anchor="start" x="119" y="-88.9" font-family="Helvetica,sans-Serif" font-size="11.00" fill="#000000">int8[19]</text>
<polygon fill="none" stroke="#000000" points="10,-59.2 10,-81.2 116,-81.2 116,-59.2 10,-59.2"/>
<text text-anchor="start" x="30" y="-66.3" font-family="Helvetica,sans-Serif" font-size="11.00" fill="#000000">is_valid</text>
<polygon fill="none" stroke="#000000" points="116,-59.2 116,-81.2 206,-81.2 206,-59.2 116,-59.2"/>
<text text-anchor="start" x="119" y="-66.9" font-family="Helvetica,sans-Serif" font-size="11.00" fill="#000000">bool[1]</text>
<polygon fill="#ffffff" stroke="transparent" points="10,-40.2 10,-59.2 54,-59.2 54,-40.2 10,-40.2"/>
<polygon fill="none" stroke="#000000" points="10,-40.2 10,-59.2 54,-59.2 54,-40.2 10,-40.2"/>
<text text-anchor="start" x="13" y="-46.3" font-family="Helvetica,sans-Serif" font-size="11.00" fill="#000000">&lt; 0</text>
<polygon fill="#ffffff" stroke="transparent" points="54,-40.2 54,-59.2 116,-59.2 116,-40.2 54,-40.2"/>
<polygon fill="none" stroke="#000000" points="54,-40.2 54,-59.2 116,-59.2 116,-40.2 54,-40.2"/>
<text text-anchor="start" x="80.6105" y="-46.3" font-family="Helvetica,sans-Serif" font-size="11.00" fill="#000000">0 rows</text>
<polygon fill="#ffffff" stroke="transparent" points="116,-40.2 116,-59.2 206,-59.2 206,-40.2 116,-40.2"/>
<polygon fill="none" stroke="#000000" points="116,-40.2 116,-59.2 206,-59.2 206,-40.2 116,-40.2"/>
<text text-anchor="start" x="187.4053" y="-46.3" font-family="Helvetica,sans-Serif" font-size="11.00" fill="#000000">0 &gt;</text>
<polygon fill="none" stroke="#000000" stroke-width="2" points="9,-39.2 9,-215.2 207,-215.2 207,-39.2 9,-39.2"/>
</a>
</g>
</g>
</g>
</svg>
