<?xml version="1.0" encoding="UTF-8" standalone="no"?>
<!DOCTYPE svg PUBLIC "-//W3C//DTD SVG 1.1//EN"
 "http://www.w3.org/Graphics/SVG/1.1/DTD/svg11.dtd">
<!-- Generated by graphviz version 2.40.1 (20161225.0304)
 -->
<!-- Title: twoDegreesRelationshipsDiagram Pages: 1 -->
<svg width="800pt" height="412pt"
 viewBox="0.00 0.00 800.00 412.20" xmlns="http://www.w3.org/2000/svg" xmlns:xlink="http://www.w3.org/1999/xlink">
<g id="graph0" class="graph" transform="scale(1 1) rotate(0) translate(4 408.2)">
<title>twoDegreesRelationshipsDiagram</title>
<polygon fill="#ffffff" stroke="transparent" points="-4,4 -4,-408.2 796,-408.2 796,4 -4,4"/>
<text text-anchor="middle" x="72.4936" y="-7.3" font-family="Helvetica,sans-Serif" font-size="11.00" fill="#000000">Generated by SchemaSpy</text>
<!-- chapter_users -->
<g id="node1" class="node">
<title>chapter_users</title>
<g id="a_node1"><a xlink:href="../../tables/chapter_users.html" xlink:title="chapter_users" target="_top">
<polygon fill="#ffffff" stroke="transparent" points="491.5,-339.2 491.5,-400.2 603.5,-400.2 603.5,-339.2 491.5,-339.2"/>
<polygon fill="#f5f5f5" stroke="transparent" points="491.5,-376.7 491.5,-399.7 603.5,-399.7 603.5,-376.7 491.5,-376.7"/>
<polygon fill="none" stroke="#000000" points="491.5,-376.7 491.5,-399.7 603.5,-399.7 603.5,-376.7 491.5,-376.7"/>
<text text-anchor="start" x="496.1575" y="-385.8" font-family="Helvetica,sans-Serif" font-weight="bold" font-size="11.00" fill="#000000">chapter_users</text>
<text text-anchor="start" x="569.0219" y="-384.8" font-family="Helvetica,sans-Serif" font-size="11.00" fill="#000000">[table]</text>
<polygon fill="none" stroke="#000000" points="491.5,-357.7 491.5,-376.7 603.5,-376.7 603.5,-357.7 491.5,-357.7"/>
<text text-anchor="start" x="494.5" y="-363.8" font-family="Helvetica,sans-Serif" font-size="11.00" fill="#000000">...</text>
<polygon fill="#ffffff" stroke="transparent" points="491.5,-338.7 491.5,-357.7 532.5,-357.7 532.5,-338.7 491.5,-338.7"/>
<polygon fill="none" stroke="#000000" points="491.5,-338.7 491.5,-357.7 532.5,-357.7 532.5,-338.7 491.5,-338.7"/>
<text text-anchor="start" x="494.5" y="-344.8" font-family="Helvetica,sans-Serif" font-size="11.00" fill="#000000">&lt; 3</text>
<polygon fill="#ffffff" stroke="transparent" points="532.5,-338.7 532.5,-357.7 580.5,-357.7 580.5,-338.7 532.5,-338.7"/>
<polygon fill="none" stroke="#000000" points="532.5,-338.7 532.5,-357.7 580.5,-357.7 580.5,-338.7 532.5,-338.7"/>
<text text-anchor="start" x="545.1105" y="-344.8" font-family="Helvetica,sans-Serif" font-size="11.00" fill="#000000">0 rows</text>
<polygon fill="#ffffff" stroke="transparent" points="580.5,-338.7 580.5,-357.7 603.5,-357.7 603.5,-338.7 580.5,-338.7"/>
<polygon fill="none" stroke="#000000" points="580.5,-338.7 580.5,-357.7 603.5,-357.7 603.5,-338.7 580.5,-338.7"/>
<text text-anchor="start" x="594.3862" y="-344.8" font-family="Helvetica,sans-Serif" font-size="11.00" fill="#000000"> &#160;</text>
</a>
</g>
</g>
<!-- users -->
<g id="node2" class="node">
<title>users</title>
<g id="a_node2"><a xlink:href="../../tables/users.html" xlink:title="users" target="_top">
<polygon fill="#ffffff" stroke="transparent" points="288,-164.2 288,-291.2 404,-291.2 404,-164.2 288,-164.2"/>
<polygon fill="#f5f5f5" stroke="transparent" points="288,-267.7 288,-290.7 404,-290.7 404,-267.7 288,-267.7"/>
<polygon fill="none" stroke="#000000" points="288,-267.7 288,-290.7 404,-290.7 404,-267.7 288,-267.7"/>
<text text-anchor="start" x="293" y="-276.8" font-family="Helvetica,sans-Serif" font-weight="bold" font-size="11.00" fill="#000000">users</text>
<text text-anchor="start" x="369.0437" y="-275.8" font-family="Helvetica,sans-Serif" font-size="11.00" fill="#000000">[table]</text>
<polygon fill="none" stroke="#000000" points="288,-245.7 288,-267.7 404,-267.7 404,-245.7 288,-245.7"/>
<image xlink:href="../../images/primaryKeys.png" width="11px" height="12px" preserveAspectRatio="xMinYMin meet" x="293" y="-262.7"/>
<text text-anchor="start" x="308" y="-252.8" font-family="Helvetica,sans-Serif" font-size="11.00" fill="#000000">id</text>
<polygon fill="#ffffff" stroke="transparent" points="288,-223.7 288,-245.7 404,-245.7 404,-223.7 288,-223.7"/>
<polygon fill="none" stroke="#000000" points="288,-223.7 288,-245.7 404,-245.7 404,-223.7 288,-223.7"/>
<text text-anchor="start" x="308" y="-230.8" font-family="Helvetica,sans-Serif" font-size="11.00" fill="#000000">email</text>
<polygon fill="none" stroke="#000000" points="288,-201.7 288,-223.7 404,-223.7 404,-201.7 288,-201.7"/>
<image xlink:href="../../images/foreignKeys.png" width="11px" height="12px" preserveAspectRatio="xMinYMin meet" x="293" y="-218.7"/>
<text text-anchor="start" x="308" y="-208.8" font-family="Helvetica,sans-Serif" font-size="11.00" fill="#000000">instance_role_id</text>
<polygon fill="none" stroke="#000000" points="288,-182.7 288,-201.7 404,-201.7 404,-182.7 288,-182.7"/>
<text text-anchor="start" x="291" y="-188.8" font-family="Helvetica,sans-Serif" font-size="11.00" fill="#000000">...</text>
<polygon fill="#ffffff" stroke="transparent" points="288,-163.7 288,-182.7 327,-182.7 327,-163.7 288,-163.7"/>
<polygon fill="none" stroke="#000000" points="288,-163.7 288,-182.7 327,-182.7 327,-163.7 288,-163.7"/>
<text text-anchor="start" x="291" y="-169.8" font-family="Helvetica,sans-Serif" font-size="11.00" fill="#000000">&lt; 1</text>
<polygon fill="#ffffff" stroke="transparent" points="327,-163.7 327,-182.7 374,-182.7 374,-163.7 327,-163.7"/>
<polygon fill="none" stroke="#000000" points="327,-163.7 327,-182.7 374,-182.7 374,-163.7 327,-163.7"/>
<text text-anchor="start" x="338.6105" y="-169.8" font-family="Helvetica,sans-Serif" font-size="11.00" fill="#000000">0 rows</text>
<polygon fill="#ffffff" stroke="transparent" points="374,-163.7 374,-182.7 404,-182.7 404,-163.7 374,-163.7"/>
<polygon fill="none" stroke="#000000" points="374,-163.7 374,-182.7 404,-182.7 404,-163.7 374,-163.7"/>
<text text-anchor="start" x="385.4053" y="-169.8" font-family="Helvetica,sans-Serif" font-size="11.00" fill="#000000">5 &gt;</text>
</a>
</g>
</g>
<!-- chapter_users&#45;&gt;users -->
<g id="edge1" class="edge">
<title>chapter_users:w&#45;&gt;users:e</title>
<path fill="none" stroke="#000000" d="M477.2081,-364.3002C434.8396,-348.2138 460.9792,-256.7 404,-256.7"/>
<polygon fill="#000000" stroke="#000000" points="483.6104,-365.3752 490.9038,-370.2503 487.5552,-366.0376 491.5,-366.7 491.5,-366.7 491.5,-366.7 487.5552,-366.0376 492.0962,-363.1497 483.6104,-365.3752 483.6104,-365.3752"/>
<ellipse fill="none" stroke="#000000" cx="480.4546" cy="-364.8453" rx="3.2" ry="3.2"/>
</g>
<!-- instance_roles -->
<g id="node7" class="node">
<title>instance_roles</title>
<g id="a_node7"><a xlink:href="../../tables/instance_roles.html" xlink:title="instance_roles" target="_top">
<polygon fill="#ffffff" stroke="transparent" points="8,-149.7 8,-283.7 208,-283.7 208,-149.7 8,-149.7"/>
<polygon fill="#f5f5f5" stroke="transparent" points="10,-258.7 10,-281.7 206,-281.7 206,-258.7 10,-258.7"/>
<polygon fill="none" stroke="#000000" points="10,-258.7 10,-281.7 206,-281.7 206,-258.7 10,-258.7"/>
<text text-anchor="start" x="15" y="-267.8" font-family="Helvetica,sans-Serif" font-weight="bold" font-size="11.00" fill="#000000">instance_roles</text>
<text text-anchor="start" x="171.0437" y="-266.8" font-family="Helvetica,sans-Serif" font-size="11.00" fill="#000000">[table]</text>
<polygon fill="none" stroke="#000000" points="10,-236.7 10,-258.7 116,-258.7 116,-236.7 10,-236.7"/>
<text text-anchor="start" x="30" y="-243.8" font-family="Helvetica,sans-Serif" font-size="11.00" fill="#000000">created_at</text>
<polygon fill="none" stroke="#000000" points="116,-236.7 116,-258.7 206,-258.7 206,-236.7 116,-236.7"/>
<text text-anchor="start" x="119" y="-244.4" font-family="Helvetica,sans-Serif" font-size="11.00" fill="#000000">timestamp[26,3]</text>
<polygon fill="none" stroke="#000000" points="10,-214.7 10,-236.7 116,-236.7 116,-214.7 10,-214.7"/>
<text text-anchor="start" x="30" y="-221.8" font-family="Helvetica,sans-Serif" font-size="11.00" fill="#000000">updated_at</text>
<polygon fill="none" stroke="#000000" points="116,-214.7 116,-236.7 206,-236.7 206,-214.7 116,-214.7"/>
<text text-anchor="start" x="119" y="-222.4" font-family="Helvetica,sans-Serif" font-size="11.00" fill="#000000">timestamp[26,3]</text>
<polygon fill="none" stroke="#000000" points="10,-192.7 10,-214.7 116,-214.7 116,-192.7 10,-192.7"/>
<image xlink:href="../../images/primaryKeys.png" width="11px" height="12px" preserveAspectRatio="xMinYMin meet" x="15" y="-209.7"/>
<text text-anchor="start" x="30" y="-199.8" font-family="Helvetica,sans-Serif" font-size="11.00" fill="#000000">id</text>
<polygon fill="none" stroke="#000000" points="116,-192.7 116,-214.7 206,-214.7 206,-192.7 116,-192.7"/>
<text text-anchor="start" x="119" y="-200.4" font-family="Helvetica,sans-Serif" font-size="11.00" fill="#000000">serial[10]</text>
<polygon fill="#ffffff" stroke="transparent" points="10,-170.7 10,-192.7 116,-192.7 116,-170.7 10,-170.7"/>
<polygon fill="none" stroke="#000000" points="10,-170.7 10,-192.7 116,-192.7 116,-170.7 10,-170.7"/>
<text text-anchor="start" x="30" y="-177.8" font-family="Helvetica,sans-Serif" font-size="11.00" fill="#000000">name</text>
<polygon fill="none" stroke="#000000" points="116,-170.7 116,-192.7 206,-192.7 206,-170.7 116,-170.7"/>
<text text-anchor="start" x="118.5042" y="-178.4" font-family="Helvetica,sans-Serif" font-size="11.00" fill="#000000">text[2147483647]</text>
<polygon fill="#ffffff" stroke="transparent" points="10,-151.7 10,-170.7 54,-170.7 54,-151.7 10,-151.7"/>
<polygon fill="none" stroke="#000000" points="10,-151.7 10,-170.7 54,-170.7 54,-151.7 10,-151.7"/>
<text text-anchor="start" x="13" y="-157.8" font-family="Helvetica,sans-Serif" font-size="11.00" fill="#000000">&lt; 0</text>
<polygon fill="#ffffff" stroke="transparent" points="54,-151.7 54,-170.7 116,-170.7 116,-151.7 54,-151.7"/>
<polygon fill="none" stroke="#000000" points="54,-151.7 54,-170.7 116,-170.7 116,-151.7 54,-151.7"/>
<text text-anchor="start" x="80.6105" y="-157.8" font-family="Helvetica,sans-Serif" font-size="11.00" fill="#000000">0 rows</text>
<polygon fill="#ffffff" stroke="transparent" points="116,-151.7 116,-170.7 206,-170.7 206,-151.7 116,-151.7"/>
<polygon fill="none" stroke="#000000" points="116,-151.7 116,-170.7 206,-170.7 206,-151.7 116,-151.7"/>
<text text-anchor="start" x="187.4053" y="-157.8" font-family="Helvetica,sans-Serif" font-size="11.00" fill="#000000">2 &gt;</text>
<polygon fill="none" stroke="#000000" stroke-width="2" points="9,-150.7 9,-282.7 207,-282.7 207,-150.7 9,-150.7"/>
</a>
</g>
</g>
<!-- users&#45;&gt;instance_roles -->
<g id="edge10" class="edge">
<title>users:w&#45;&gt;instance_roles:e</title>
<path fill="none" stroke="#000000" d="M273.3404,-212.164C248.1451,-210.2264 237.2211,-203.7 206,-203.7"/>
<polygon fill="#000000" stroke="#000000" points="280.0053,-212.4076 287.8684,-216.2976 284.0027,-212.5538 288,-212.7 288,-212.7 288,-212.7 284.0027,-212.5538 288.1316,-209.1024 280.0053,-212.4076 280.0053,-212.4076"/>
<ellipse fill="none" stroke="#000000" cx="276.8075" cy="-212.2907" rx="3.2" ry="3.2"/>
</g>
<!-- event_reminders -->
<g id="node3" class="node">
<title>event_reminders</title>
<g id="a_node3"><a xlink:href="../../tables/event_reminders.html" xlink:title="event_reminders" target="_top">
<polygon fill="#ffffff" stroke="transparent" points="660,-229.2 660,-290.2 784,-290.2 784,-229.2 660,-229.2"/>
<polygon fill="#f5f5f5" stroke="transparent" points="660,-266.7 660,-289.7 784,-289.7 784,-266.7 660,-266.7"/>
<polygon fill="none" stroke="#000000" points="660,-266.7 660,-289.7 784,-289.7 784,-266.7 660,-266.7"/>
<text text-anchor="start" x="664.5486" y="-275.8" font-family="Helvetica,sans-Serif" font-weight="bold" font-size="11.00" fill="#000000">event_reminders</text>
<text text-anchor="start" x="749.5219" y="-274.8" font-family="Helvetica,sans-Serif" font-size="11.00" fill="#000000">[table]</text>
<polygon fill="none" stroke="#000000" points="660,-247.7 660,-266.7 784,-266.7 784,-247.7 660,-247.7"/>
<text text-anchor="start" x="663" y="-253.8" font-family="Helvetica,sans-Serif" font-size="11.00" fill="#000000">...</text>
<polygon fill="#ffffff" stroke="transparent" points="660,-228.7 660,-247.7 707,-247.7 707,-228.7 660,-228.7"/>
<polygon fill="none" stroke="#000000" points="660,-228.7 660,-247.7 707,-247.7 707,-228.7 660,-228.7"/>
<text text-anchor="start" x="663" y="-234.8" font-family="Helvetica,sans-Serif" font-size="11.00" fill="#000000">&lt; 4</text>
<polygon fill="#ffffff" stroke="transparent" points="707,-228.7 707,-247.7 758,-247.7 758,-228.7 707,-228.7"/>
<polygon fill="none" stroke="#000000" points="707,-228.7 707,-247.7 758,-247.7 758,-228.7 707,-228.7"/>
<text text-anchor="start" x="722.6105" y="-234.8" font-family="Helvetica,sans-Serif" font-size="11.00" fill="#000000">0 rows</text>
<polygon fill="#ffffff" stroke="transparent" points="758,-228.7 758,-247.7 784,-247.7 784,-228.7 758,-228.7"/>
<polygon fill="none" stroke="#000000" points="758,-228.7 758,-247.7 784,-247.7 784,-228.7 758,-228.7"/>
<text text-anchor="start" x="774.8862" y="-234.8" font-family="Helvetica,sans-Serif" font-size="11.00" fill="#000000"> &#160;</text>
</a>
</g>
</g>
<!-- event_reminders&#45;&gt;users -->
<g id="edge4" class="edge">
<title>event_reminders:w&#45;&gt;users:e</title>
<path fill="none" stroke="#000000" d="M646.3748,-261.4727C636.1616,-271.0812 637.7659,-292.5362 619,-300.7 560.7205,-326.0536 537.18,-317.9139 476,-300.7 439.8995,-290.5426 441.5023,-256.7 404,-256.7"/>
<polygon fill="#000000" stroke="#000000" points="652.4498,-259.3447 661.1901,-260.0976 656.2249,-258.0224 660,-256.7 660,-256.7 660,-256.7 656.2249,-258.0224 658.8099,-253.3024 652.4498,-259.3447 652.4498,-259.3447"/>
<ellipse fill="none" stroke="#000000" cx="649.4297" cy="-260.4026" rx="3.2" ry="3.2"/>
</g>
<!-- rsvps -->
<g id="node4" class="node">
<title>rsvps</title>
<g id="a_node4"><a xlink:href="../../tables/rsvps.html" xlink:title="rsvps" target="_top">
<polygon fill="#ffffff" stroke="transparent" points="507.5,-229.2 507.5,-290.2 587.5,-290.2 587.5,-229.2 507.5,-229.2"/>
<polygon fill="#f5f5f5" stroke="transparent" points="507.5,-266.7 507.5,-289.7 587.5,-289.7 587.5,-266.7 507.5,-266.7"/>
<polygon fill="none" stroke="#000000" points="507.5,-266.7 507.5,-289.7 587.5,-289.7 587.5,-266.7 507.5,-266.7"/>
<text text-anchor="start" x="512.5" y="-275.8" font-family="Helvetica,sans-Serif" font-weight="bold" font-size="11.00" fill="#000000">rsvps</text>
<text text-anchor="start" x="552.5437" y="-274.8" font-family="Helvetica,sans-Serif" font-size="11.00" fill="#000000">[table]</text>
<polygon fill="none" stroke="#000000" points="507.5,-247.7 507.5,-266.7 587.5,-266.7 587.5,-247.7 507.5,-247.7"/>
<text text-anchor="start" x="510.5" y="-253.8" font-family="Helvetica,sans-Serif" font-size="11.00" fill="#000000">...</text>
<polygon fill="#ffffff" stroke="transparent" points="507.5,-228.7 507.5,-247.7 528.5,-247.7 528.5,-228.7 507.5,-228.7"/>
<polygon fill="none" stroke="#000000" points="507.5,-228.7 507.5,-247.7 528.5,-247.7 528.5,-228.7 507.5,-228.7"/>
<text text-anchor="start" x="510.2027" y="-234.8" font-family="Helvetica,sans-Serif" font-size="11.00" fill="#000000">&lt; 2</text>
<polygon fill="#ffffff" stroke="transparent" points="528.5,-228.7 528.5,-247.7 566.5,-247.7 566.5,-228.7 528.5,-228.7"/>
<polygon fill="none" stroke="#000000" points="528.5,-228.7 528.5,-247.7 566.5,-247.7 566.5,-228.7 528.5,-228.7"/>
<text text-anchor="start" x="531.3053" y="-234.8" font-family="Helvetica,sans-Serif" font-size="11.00" fill="#000000">0 rows</text>
<polygon fill="#ffffff" stroke="transparent" points="566.5,-228.7 566.5,-247.7 587.5,-247.7 587.5,-228.7 566.5,-228.7"/>
<polygon fill="none" stroke="#000000" points="566.5,-228.7 566.5,-247.7 587.5,-247.7 587.5,-228.7 566.5,-228.7"/>
<text text-anchor="start" x="569.2026" y="-234.8" font-family="Helvetica,sans-Serif" font-size="11.00" fill="#000000">2 &gt;</text>
</a>
</g>
</g>
<!-- event_reminders&#45;&gt;rsvps -->
<g id="edge2" class="edge">
<title>event_reminders:w&#45;&gt;rsvps:e</title>
<path fill="none" stroke="#000000" d="M645.5794,-254.1844C624.3898,-250.8693 614.3099,-251.7078 587.5,-256.7"/>
<polygon fill="#000000" stroke="#000000" points="652.119,-255.3252 659.3813,-260.2464 656.0595,-256.0126 660,-256.7 660,-256.7 660,-256.7 656.0595,-256.0126 660.6187,-253.1536 652.119,-255.3252 652.119,-255.3252"/>
<ellipse fill="none" stroke="#000000" cx="648.9666" cy="-254.7752" rx="3.2" ry="3.2"/>
</g>
<!-- event_reminders&#45;&gt;rsvps -->
<g id="edge3" class="edge">
<title>event_reminders:w&#45;&gt;rsvps:e</title>
<path fill="none" stroke="#000000" d="M645.8786,-259.5801C624.4841,-263.5116 614.4358,-262.5516 587.5,-256.7"/>
<polygon fill="#000000" stroke="#000000" points="652.1614,-258.2987 660.7194,-260.2274 656.0807,-257.4994 660,-256.7 660,-256.7 660,-256.7 656.0807,-257.4994 659.2806,-253.1726 652.1614,-258.2987 652.1614,-258.2987"/>
<ellipse fill="none" stroke="#000000" cx="649.0259" cy="-258.9382" rx="3.2" ry="3.2"/>
</g>
<!-- rsvps&#45;&gt;users -->
<g id="edge7" class="edge">
<title>rsvps:w&#45;&gt;users:e</title>
<path fill="none" stroke="#000000" d="M493.0951,-256.7C458.4518,-256.7 444.7891,-256.7 404,-256.7"/>
<polygon fill="#000000" stroke="#000000" points="499.5,-256.7001 507.5,-260.3 503.5,-256.7 507.5,-256.7 507.5,-256.7 507.5,-256.7 503.5,-256.7 507.5,-253.1 499.5,-256.7001 499.5,-256.7001"/>
<ellipse fill="none" stroke="#000000" cx="496.3" cy="-256.7001" rx="3.2" ry="3.2"/>
</g>
<!-- instance_role_permissions -->
<g id="node5" class="node">
<title>instance_role_permissions</title>
<g id="a_node5"><a xlink:href="../../tables/instance_role_permissions.html" xlink:title="instance_role_permissions" target="_top">
<polygon fill="#ffffff" stroke="transparent" points="257,-38.2 257,-143.2 435,-143.2 435,-38.2 257,-38.2"/>
<polygon fill="#f5f5f5" stroke="transparent" points="257,-119.7 257,-142.7 435,-142.7 435,-119.7 257,-119.7"/>
<polygon fill="none" stroke="#000000" points="257,-119.7 257,-142.7 435,-142.7 435,-119.7 257,-119.7"/>
<text text-anchor="start" x="262" y="-128.8" font-family="Helvetica,sans-Serif" font-weight="bold" font-size="11.00" fill="#000000">instance_role_permissions</text>
<text text-anchor="start" x="400.0437" y="-127.8" font-family="Helvetica,sans-Serif" font-size="11.00" fill="#000000">[table]</text>
<polygon fill="none" stroke="#000000" points="257,-97.7 257,-119.7 435,-119.7 435,-97.7 257,-97.7"/>
<image xlink:href="../../images/primaryKeys.png" width="11px" height="12px" preserveAspectRatio="xMinYMin meet" x="262" y="-114.7"/>
<text text-anchor="start" x="277" y="-104.8" font-family="Helvetica,sans-Serif" font-size="11.00" fill="#000000">instance_role_id</text>
<polygon fill="none" stroke="#000000" points="257,-75.7 257,-97.7 435,-97.7 435,-75.7 257,-75.7"/>
<image xlink:href="../../images/primaryKeys.png" width="11px" height="12px" preserveAspectRatio="xMinYMin meet" x="262" y="-92.7"/>
<text text-anchor="start" x="277" y="-82.8" font-family="Helvetica,sans-Serif" font-size="11.00" fill="#000000">instance_permission_id</text>
<polygon fill="none" stroke="#000000" points="257,-56.7 257,-75.7 435,-75.7 435,-56.7 257,-56.7"/>
<text text-anchor="start" x="260" y="-62.8" font-family="Helvetica,sans-Serif" font-size="11.00" fill="#000000">...</text>
<polygon fill="#ffffff" stroke="transparent" points="257,-37.7 257,-56.7 331,-56.7 331,-37.7 257,-37.7"/>
<polygon fill="none" stroke="#000000" points="257,-37.7 257,-56.7 331,-56.7 331,-37.7 257,-37.7"/>
<text text-anchor="start" x="260" y="-43.8" font-family="Helvetica,sans-Serif" font-size="11.00" fill="#000000">&lt; 2</text>
<polygon fill="#ffffff" stroke="transparent" points="331,-37.7 331,-56.7 396,-56.7 396,-37.7 331,-37.7"/>
<polygon fill="none" stroke="#000000" points="331,-37.7 331,-56.7 396,-56.7 396,-37.7 331,-37.7"/>
<text text-anchor="start" x="360.6105" y="-43.8" font-family="Helvetica,sans-Serif" font-size="11.00" fill="#000000">0 rows</text>
<polygon fill="#ffffff" stroke="transparent" points="396,-37.7 396,-56.7 435,-56.7 435,-37.7 396,-37.7"/>
<polygon fill="none" stroke="#000000" points="396,-37.7 396,-56.7 435,-56.7 435,-37.7 396,-37.7"/>
<text text-anchor="start" x="425.8862" y="-43.8" font-family="Helvetica,sans-Serif" font-size="11.00" fill="#000000"> &#160;</text>
</a>
</g>
</g>
<!-- instance_permissions -->
<g id="node6" class="node">
<title>instance_permissions</title>
<g id="a_node6"><a xlink:href="../../tables/instance_permissions.html" xlink:title="instance_permissions" target="_top">
<polygon fill="#ffffff" stroke="transparent" points="34,-59.2 34,-120.2 182,-120.2 182,-59.2 34,-59.2"/>
<polygon fill="#f5f5f5" stroke="transparent" points="34,-96.7 34,-119.7 182,-119.7 182,-96.7 34,-96.7"/>
<polygon fill="none" stroke="#000000" points="34,-96.7 34,-119.7 182,-119.7 182,-96.7 34,-96.7"/>
<text text-anchor="start" x="38.6313" y="-105.8" font-family="Helvetica,sans-Serif" font-weight="bold" font-size="11.00" fill="#000000">instance_permissions</text>
<text text-anchor="start" x="147.5219" y="-104.8" font-family="Helvetica,sans-Serif" font-size="11.00" fill="#000000">[table]</text>
<polygon fill="none" stroke="#000000" points="34,-77.7 34,-96.7 182,-96.7 182,-77.7 34,-77.7"/>
<text text-anchor="start" x="37" y="-83.8" font-family="Helvetica,sans-Serif" font-size="11.00" fill="#000000">...</text>
<polygon fill="#ffffff" stroke="transparent" points="34,-58.7 34,-77.7 84,-77.7 84,-58.7 34,-58.7"/>
<polygon fill="none" stroke="#000000" points="34,-58.7 34,-77.7 84,-77.7 84,-58.7 34,-58.7"/>
<text text-anchor="start" x="37" y="-64.8" font-family="Helvetica,sans-Serif" font-size="11.00" fill="#000000"> &#160;</text>
<polygon fill="#ffffff" stroke="transparent" points="84,-58.7 84,-77.7 141,-77.7 141,-58.7 84,-58.7"/>
<polygon fill="none" stroke="#000000" points="84,-58.7 84,-77.7 141,-77.7 141,-58.7 84,-58.7"/>
<text text-anchor="start" x="105.6105" y="-64.8" font-family="Helvetica,sans-Serif" font-size="11.00" fill="#000000">0 rows</text>
<polygon fill="#ffffff" stroke="transparent" points="141,-58.7 141,-77.7 182,-77.7 182,-58.7 141,-58.7"/>
<polygon fill="none" stroke="#000000" points="141,-58.7 141,-77.7 182,-77.7 182,-58.7 141,-58.7"/>
<text text-anchor="start" x="163.4053" y="-64.8" font-family="Helvetica,sans-Serif" font-size="11.00" fill="#000000">1 &gt;</text>
</a>
</g>
</g>
<!-- instance_role_permissions&#45;&gt;instance_permissions -->
<g id="edge5" class="edge">
<title>instance_role_permissions:w&#45;&gt;instance_permissions:e</title>
<path fill="none" stroke="#000000" d="M242.3917,-86.7C220.2594,-86.7 209.8646,-86.7 182,-86.7"/>
<polygon fill="#000000" stroke="#000000" points="249,-86.7001 257,-90.3 253,-86.7 257,-86.7 257,-86.7 257,-86.7 253,-86.7 257,-83.1 249,-86.7001 249,-86.7001"/>
<ellipse fill="none" stroke="#000000" cx="245.8" cy="-86.7001" rx="3.2" ry="3.2"/>
</g>
<!-- instance_role_permissions&#45;&gt;instance_roles -->
<g id="edge6" class="edge">
<title>instance_role_permissions:w&#45;&gt;instance_roles:e</title>
<path fill="none" stroke="#000000" d="M243.0154,-112.782C218.8397,-130.9656 247.9315,-203.7 206,-203.7"/>
<polygon fill="#000000" stroke="#000000" points="249.3205,-110.9416 258.0087,-112.1558 253.1602,-109.8208 257,-108.7 257,-108.7 257,-108.7 253.1602,-109.8208 255.9913,-105.2442 249.3205,-110.9416 249.3205,-110.9416"/>
<ellipse fill="none" stroke="#000000" cx="246.2487" cy="-111.8383" rx="3.2" ry="3.2"/>
</g>
<!-- user_bans -->
<g id="node8" class="node">
<title>user_bans</title>
<g id="a_node8"><a xlink:href="../../tables/user_bans.html" xlink:title="user_bans" target="_top">
<polygon fill="#ffffff" stroke="transparent" points="500.5,-147.2 500.5,-208.2 594.5,-208.2 594.5,-147.2 500.5,-147.2"/>
<polygon fill="#f5f5f5" stroke="transparent" points="500.5,-184.7 500.5,-207.7 594.5,-207.7 594.5,-184.7 500.5,-184.7"/>
<polygon fill="none" stroke="#000000" points="500.5,-184.7 500.5,-207.7 594.5,-207.7 594.5,-184.7 500.5,-184.7"/>
<text text-anchor="start" x="505.3244" y="-193.8" font-family="Helvetica,sans-Serif" font-weight="bold" font-size="11.00" fill="#000000">user_bans</text>
<text text-anchor="start" x="560.0219" y="-192.8" font-family="Helvetica,sans-Serif" font-size="11.00" fill="#000000">[table]</text>
<polygon fill="none" stroke="#000000" points="500.5,-165.7 500.5,-184.7 594.5,-184.7 594.5,-165.7 500.5,-165.7"/>
<text text-anchor="start" x="503.5" y="-171.8" font-family="Helvetica,sans-Serif" font-size="11.00" fill="#000000">...</text>
<polygon fill="#ffffff" stroke="transparent" points="500.5,-146.7 500.5,-165.7 532.5,-165.7 532.5,-146.7 500.5,-146.7"/>
<polygon fill="none" stroke="#000000" points="500.5,-146.7 500.5,-165.7 532.5,-165.7 532.5,-146.7 500.5,-146.7"/>
<text text-anchor="start" x="503.5" y="-152.8" font-family="Helvetica,sans-Serif" font-size="11.00" fill="#000000">&lt; 2</text>
<polygon fill="#ffffff" stroke="transparent" points="532.5,-146.7 532.5,-165.7 576.5,-165.7 576.5,-146.7 532.5,-146.7"/>
<polygon fill="none" stroke="#000000" points="532.5,-146.7 532.5,-165.7 576.5,-165.7 576.5,-146.7 532.5,-146.7"/>
<text text-anchor="start" x="541.1105" y="-152.8" font-family="Helvetica,sans-Serif" font-size="11.00" fill="#000000">0 rows</text>
<polygon fill="#ffffff" stroke="transparent" points="576.5,-146.7 576.5,-165.7 594.5,-165.7 594.5,-146.7 576.5,-146.7"/>
<polygon fill="none" stroke="#000000" points="576.5,-146.7 576.5,-165.7 594.5,-165.7 594.5,-146.7 576.5,-146.7"/>
<text text-anchor="start" x="585.3862" y="-152.8" font-family="Helvetica,sans-Serif" font-size="11.00" fill="#000000"> &#160;</text>
</a>
</g>
</g>
<!-- user_bans&#45;&gt;users -->
<g id="edge8" class="edge">
<title>user_bans:w&#45;&gt;users:e</title>
<path fill="none" stroke="#000000" d="M486.202,-176.8094C446.6302,-189.6443 454.8956,-256.7 404,-256.7"/>
<polygon fill="#000000" stroke="#000000" points="492.5857,-175.8676 501.0254,-178.2615 496.5428,-175.2838 500.5,-174.7 500.5,-174.7 500.5,-174.7 496.5428,-175.2838 499.9746,-171.1385 492.5857,-175.8676 492.5857,-175.8676"/>
<ellipse fill="none" stroke="#000000" cx="489.4199" cy="-176.3347" rx="3.2" ry="3.2"/>
</g>
<!-- user_event_roles -->
<g id="node9" class="node">
<title>user_event_roles</title>
<g id="a_node9"><a xlink:href="../../tables/user_event_roles.html" xlink:title="user_event_roles" target="_top">
<polygon fill="#ffffff" stroke="transparent" points="484,-65.2 484,-126.2 611,-126.2 611,-65.2 484,-65.2"/>
<polygon fill="#f5f5f5" stroke="transparent" points="484.5,-102.7 484.5,-125.7 611.5,-125.7 611.5,-102.7 484.5,-102.7"/>
<polygon fill="none" stroke="#000000" points="484.5,-102.7 484.5,-125.7 611.5,-125.7 611.5,-102.7 484.5,-102.7"/>
<text text-anchor="start" x="489.3222" y="-111.8" font-family="Helvetica,sans-Serif" font-weight="bold" font-size="11.00" fill="#000000">user_event_roles</text>
<text text-anchor="start" x="577.0219" y="-110.8" font-family="Helvetica,sans-Serif" font-size="11.00" fill="#000000">[table]</text>
<polygon fill="none" stroke="#000000" points="484.5,-83.7 484.5,-102.7 611.5,-102.7 611.5,-83.7 484.5,-83.7"/>
<text text-anchor="start" x="487.5" y="-89.8" font-family="Helvetica,sans-Serif" font-size="11.00" fill="#000000">...</text>
<polygon fill="#ffffff" stroke="transparent" points="484.5,-64.7 484.5,-83.7 533.5,-83.7 533.5,-64.7 484.5,-64.7"/>
<polygon fill="none" stroke="#000000" points="484.5,-64.7 484.5,-83.7 533.5,-83.7 533.5,-64.7 484.5,-64.7"/>
<text text-anchor="start" x="487.5" y="-70.8" font-family="Helvetica,sans-Serif" font-size="11.00" fill="#000000">&lt; 2</text>
<polygon fill="#ffffff" stroke="transparent" points="533.5,-64.7 533.5,-83.7 585.5,-83.7 585.5,-64.7 533.5,-64.7"/>
<polygon fill="none" stroke="#000000" points="533.5,-64.7 533.5,-83.7 585.5,-83.7 585.5,-64.7 533.5,-64.7"/>
<text text-anchor="start" x="550.1105" y="-70.8" font-family="Helvetica,sans-Serif" font-size="11.00" fill="#000000">0 rows</text>
<polygon fill="#ffffff" stroke="transparent" points="585.5,-64.7 585.5,-83.7 611.5,-83.7 611.5,-64.7 585.5,-64.7"/>
<polygon fill="none" stroke="#000000" points="585.5,-64.7 585.5,-83.7 611.5,-83.7 611.5,-64.7 585.5,-64.7"/>
<text text-anchor="start" x="602.3862" y="-70.8" font-family="Helvetica,sans-Serif" font-size="11.00" fill="#000000"> &#160;</text>
</a>
</g>
</g>
<!-- user_event_roles&#45;&gt;users -->
<g id="edge9" class="edge">
<title>user_event_roles:w&#45;&gt;users:e</title>
<path fill="none" stroke="#000000" d="M470.0306,-94.8943C413.7378,-114.3555 479.6458,-256.7 404,-256.7"/>
<polygon fill="#000000" stroke="#000000" points="476.5904,-93.8996 485.0398,-96.2593 480.5452,-93.2998 484.5,-92.7 484.5,-92.7 484.5,-92.7 480.5452,-93.2998 483.9602,-89.1407 476.5904,-93.8996 476.5904,-93.8996"/>
<ellipse fill="none" stroke="#000000" cx="473.4266" cy="-94.3794" rx="3.2" ry="3.2"/>
</g>
</g>
</svg>
