<?xml version="1.0" encoding="UTF-8" standalone="no"?>
<!DOCTYPE svg PUBLIC "-//W3C//DTD SVG 1.1//EN"
 "http://www.w3.org/Graphics/SVG/1.1/DTD/svg11.dtd">
<!-- Generated by graphviz version 2.40.1 (20161225.0304)
 -->
<!-- Title: oneDegreeRelationshipsDiagram Pages: 1 -->
<svg width="506pt" height="281pt"
 viewBox="0.00 0.00 506.00 281.20" xmlns="http://www.w3.org/2000/svg" xmlns:xlink="http://www.w3.org/1999/xlink">
<g id="graph0" class="graph" transform="scale(1 1) rotate(0) translate(4 277.2)">
<title>oneDegreeRelationshipsDiagram</title>
<polygon fill="#ffffff" stroke="transparent" points="-4,4 -4,-277.2 502,-277.2 502,4 -4,4"/>
<text text-anchor="middle" x="72.4936" y="-7.3" font-family="Helvetica,sans-Serif" font-size="11.00" fill="#000000">Generated by SchemaSpy</text>
<!-- instance_role_permissions -->
<g id="node1" class="node">
<title>instance_role_permissions</title>
<g id="a_node1"><a xlink:href="../../tables/instance_role_permissions.html" xlink:title="instance_role_permissions" target="_top">
<polygon fill="#ffffff" stroke="transparent" points="224,-128.7 224,-262.7 490,-262.7 490,-128.7 224,-128.7"/>
<polygon fill="#f5f5f5" stroke="transparent" points="226,-237.7 226,-260.7 488,-260.7 488,-237.7 226,-237.7"/>
<polygon fill="none" stroke="#000000" points="226,-237.7 226,-260.7 488,-260.7 488,-237.7 226,-237.7"/>
<text text-anchor="start" x="231" y="-246.3" font-family="Helvetica,sans-Serif" font-weight="bold" font-size="11.00" fill="#000000">instance_role_permissions</text>
<text text-anchor="start" x="453.0437" y="-245.8" font-family="Helvetica,sans-Serif" font-size="11.00" fill="#000000">[table]</text>
<polygon fill="none" stroke="#000000" points="226,-215.7 226,-237.7 404,-237.7 404,-215.7 226,-215.7"/>
<text text-anchor="start" x="246" y="-222.8" font-family="Helvetica,sans-Serif" font-size="11.00" fill="#000000">created_at</text>
<polygon fill="none" stroke="#000000" points="404,-215.7 404,-237.7 488,-237.7 488,-215.7 404,-215.7"/>
<text text-anchor="start" x="406.8807" y="-223.4" font-family="Helvetica,sans-Serif" font-size="11.00" fill="#000000">timestamp[26,3]</text>
<polygon fill="none" stroke="#000000" points="226,-193.7 226,-215.7 404,-215.7 404,-193.7 226,-193.7"/>
<text text-anchor="start" x="246" y="-200.8" font-family="Helvetica,sans-Serif" font-size="11.00" fill="#000000">updated_at</text>
<polygon fill="none" stroke="#000000" points="404,-193.7 404,-215.7 488,-215.7 488,-193.7 404,-193.7"/>
<text text-anchor="start" x="406.8807" y="-201.4" font-family="Helvetica,sans-Serif" font-size="11.00" fill="#000000">timestamp[26,3]</text>
<polygon fill="none" stroke="#000000" points="226,-171.7 226,-193.7 404,-193.7 404,-171.7 226,-171.7"/>
<image xlink:href="../../images/primaryKeys.png" width="11px" height="12px" preserveAspectRatio="xMinYMin meet" x="231" y="-188.7"/>
<text text-anchor="start" x="246" y="-178.8" font-family="Helvetica,sans-Serif" font-size="11.00" fill="#000000">instance_role_id</text>
<polygon fill="none" stroke="#000000" points="404,-171.7 404,-193.7 488,-193.7 488,-171.7 404,-171.7"/>
<text text-anchor="start" x="407" y="-179.4" font-family="Helvetica,sans-Serif" font-size="11.00" fill="#000000">int4[10]</text>
<polygon fill="none" stroke="#000000" points="226,-149.7 226,-171.7 404,-171.7 404,-149.7 226,-149.7"/>
<image xlink:href="../../images/primaryKeys.png" width="11px" height="12px" preserveAspectRatio="xMinYMin meet" x="231" y="-166.7"/>
<text text-anchor="start" x="246" y="-156.8" font-family="Helvetica,sans-Serif" font-size="11.00" fill="#000000">instance_permission_id</text>
<polygon fill="none" stroke="#000000" points="404,-149.7 404,-171.7 488,-171.7 488,-149.7 404,-149.7"/>
<text text-anchor="start" x="407" y="-157.4" font-family="Helvetica,sans-Serif" font-size="11.00" fill="#000000">int4[10]</text>
<polygon fill="#ffffff" stroke="transparent" points="226,-130.7 226,-149.7 306,-149.7 306,-130.7 226,-130.7"/>
<polygon fill="none" stroke="#000000" points="226,-130.7 226,-149.7 306,-149.7 306,-130.7 226,-130.7"/>
<text text-anchor="start" x="229" y="-136.8" font-family="Helvetica,sans-Serif" font-size="11.00" fill="#000000">&lt; 2</text>
<polygon fill="#ffffff" stroke="transparent" points="306,-130.7 306,-149.7 404,-149.7 404,-130.7 306,-130.7"/>
<polygon fill="none" stroke="#000000" points="306,-130.7 306,-149.7 404,-149.7 404,-130.7 306,-130.7"/>
<text text-anchor="start" x="368.6105" y="-136.8" font-family="Helvetica,sans-Serif" font-size="11.00" fill="#000000">0 rows</text>
<polygon fill="#ffffff" stroke="transparent" points="404,-130.7 404,-149.7 488,-149.7 488,-130.7 404,-130.7"/>
<polygon fill="none" stroke="#000000" points="404,-130.7 404,-149.7 488,-149.7 488,-130.7 404,-130.7"/>
<text text-anchor="start" x="469.4053" y="-136.8" font-family="Helvetica,sans-Serif" font-size="11.00" fill="#000000">0 &gt;</text>
<polygon fill="none" stroke="#000000" stroke-width="2" points="225,-129.7 225,-261.7 489,-261.7 489,-129.7 225,-129.7"/>
</a>
</g>
</g>
<!-- instance_permissions -->
<g id="node2" class="node">
<title>instance_permissions</title>
<g id="a_node2"><a xlink:href="../../tables/instance_permissions.html" xlink:title="instance_permissions" target="_top">
<polygon fill="#ffffff" stroke="transparent" points="8,-38.2 8,-143.2 175,-143.2 175,-38.2 8,-38.2"/>
<polygon fill="#f5f5f5" stroke="transparent" points="8.5,-119.7 8.5,-142.7 175.5,-142.7 175.5,-119.7 8.5,-119.7"/>
<polygon fill="none" stroke="#000000" points="8.5,-119.7 8.5,-142.7 175.5,-142.7 175.5,-119.7 8.5,-119.7"/>
<text text-anchor="start" x="13.5" y="-128.3" font-family="Helvetica,sans-Serif" font-weight="bold" font-size="11.00" fill="#000000">instance_permissions</text>
<text text-anchor="start" x="141.0219" y="-127.8" font-family="Helvetica,sans-Serif" font-size="11.00" fill="#000000">[table]</text>
<polygon fill="none" stroke="#000000" points="8.5,-97.7 8.5,-119.7 175.5,-119.7 175.5,-97.7 8.5,-97.7"/>
<image xlink:href="../../images/primaryKeys.png" width="11px" height="12px" preserveAspectRatio="xMinYMin meet" x="13.5" y="-114.7"/>
<text text-anchor="start" x="37.5" y="-104.8" font-family="Helvetica,sans-Serif" font-size="11.00" fill="#000000">id</text>
<polygon fill="#ffffff" stroke="transparent" points="8.5,-75.7 8.5,-97.7 175.5,-97.7 175.5,-75.7 8.5,-75.7"/>
<polygon fill="none" stroke="#000000" points="8.5,-75.7 8.5,-97.7 175.5,-97.7 175.5,-75.7 8.5,-75.7"/>
<text text-anchor="start" x="37.5" y="-82.8" font-family="Helvetica,sans-Serif" font-size="11.00" fill="#000000">name</text>
<polygon fill="none" stroke="#000000" points="8.5,-56.7 8.5,-75.7 175.5,-75.7 175.5,-56.7 8.5,-56.7"/>
<text text-anchor="start" x="11.5" y="-62.8" font-family="Helvetica,sans-Serif" font-size="11.00" fill="#000000">...</text>
<polygon fill="#ffffff" stroke="transparent" points="8.5,-37.7 8.5,-56.7 68.5,-56.7 68.5,-37.7 8.5,-37.7"/>
<polygon fill="none" stroke="#000000" points="8.5,-37.7 8.5,-56.7 68.5,-56.7 68.5,-37.7 8.5,-37.7"/>
<text text-anchor="start" x="11.5" y="-43.8" font-family="Helvetica,sans-Serif" font-size="11.00" fill="#000000"> &#160;</text>
<polygon fill="#ffffff" stroke="transparent" points="68.5,-37.7 68.5,-56.7 130.5,-56.7 130.5,-37.7 68.5,-37.7"/>
<polygon fill="none" stroke="#000000" points="68.5,-37.7 68.5,-56.7 130.5,-56.7 130.5,-37.7 68.5,-37.7"/>
<text text-anchor="start" x="95.1105" y="-43.8" font-family="Helvetica,sans-Serif" font-size="11.00" fill="#000000">0 rows</text>
<polygon fill="#ffffff" stroke="transparent" points="130.5,-37.7 130.5,-56.7 175.5,-56.7 175.5,-37.7 130.5,-37.7"/>
<polygon fill="none" stroke="#000000" points="130.5,-37.7 130.5,-56.7 175.5,-56.7 175.5,-37.7 130.5,-37.7"/>
<text text-anchor="start" x="156.9053" y="-43.8" font-family="Helvetica,sans-Serif" font-size="11.00" fill="#000000">1 &gt;</text>
</a>
</g>
</g>
<!-- instance_role_permissions&#45;&gt;instance_permissions -->
<g id="edge1" class="edge">
<title>instance_role_permissions:w&#45;&gt;instance_permissions:e</title>
<path fill="none" stroke="#000000" d="M212.1372,-155.9012C197.3861,-143.0281 201.6756,-108.7 175.5,-108.7"/>
<polygon fill="#000000" stroke="#000000" points="218.4401,-158.083 224.8223,-164.1019 222.2201,-159.3915 226,-160.7 226,-160.7 226,-160.7 222.2201,-159.3915 227.1777,-157.2981 218.4401,-158.083 218.4401,-158.083"/>
<ellipse fill="none" stroke="#000000" cx="215.4162" cy="-157.0362" rx="3.2" ry="3.2"/>
</g>
<!-- instance_roles -->
<g id="node3" class="node">
<title>instance_roles</title>
<g id="a_node3"><a xlink:href="../../tables/instance_roles.html" xlink:title="instance_roles" target="_top">
<polygon fill="#ffffff" stroke="transparent" points="29.5,-164.2 29.5,-269.2 153.5,-269.2 153.5,-164.2 29.5,-164.2"/>
<polygon fill="#f5f5f5" stroke="transparent" points="29.5,-245.7 29.5,-268.7 153.5,-268.7 153.5,-245.7 29.5,-245.7"/>
<polygon fill="none" stroke="#000000" points="29.5,-245.7 29.5,-268.7 153.5,-268.7 153.5,-245.7 29.5,-245.7"/>
<text text-anchor="start" x="34.5" y="-254.3" font-family="Helvetica,sans-Serif" font-weight="bold" font-size="11.00" fill="#000000">instance_roles</text>
<text text-anchor="start" x="119.0219" y="-253.8" font-family="Helvetica,sans-Serif" font-size="11.00" fill="#000000">[table]</text>
<polygon fill="none" stroke="#000000" points="29.5,-223.7 29.5,-245.7 153.5,-245.7 153.5,-223.7 29.5,-223.7"/>
<image xlink:href="../../images/primaryKeys.png" width="11px" height="12px" preserveAspectRatio="xMinYMin meet" x="34.5" y="-240.7"/>
<text text-anchor="start" x="58.5" y="-230.8" font-family="Helvetica,sans-Serif" font-size="11.00" fill="#000000">id</text>
<polygon fill="#ffffff" stroke="transparent" points="29.5,-201.7 29.5,-223.7 153.5,-223.7 153.5,-201.7 29.5,-201.7"/>
<polygon fill="none" stroke="#000000" points="29.5,-201.7 29.5,-223.7 153.5,-223.7 153.5,-201.7 29.5,-201.7"/>
<text text-anchor="start" x="58.5" y="-208.8" font-family="Helvetica,sans-Serif" font-size="11.00" fill="#000000">name</text>
<polygon fill="none" stroke="#000000" points="29.5,-182.7 29.5,-201.7 153.5,-201.7 153.5,-182.7 29.5,-182.7"/>
<text text-anchor="start" x="32.5" y="-188.8" font-family="Helvetica,sans-Serif" font-size="11.00" fill="#000000">...</text>
<polygon fill="#ffffff" stroke="transparent" points="29.5,-163.7 29.5,-182.7 67.5,-182.7 67.5,-163.7 29.5,-163.7"/>
<polygon fill="none" stroke="#000000" points="29.5,-163.7 29.5,-182.7 67.5,-182.7 67.5,-163.7 29.5,-163.7"/>
<text text-anchor="start" x="32.5" y="-169.8" font-family="Helvetica,sans-Serif" font-size="11.00" fill="#000000"> &#160;</text>
<polygon fill="#ffffff" stroke="transparent" points="67.5,-163.7 67.5,-182.7 118.5,-182.7 118.5,-163.7 67.5,-163.7"/>
<polygon fill="none" stroke="#000000" points="67.5,-163.7 67.5,-182.7 118.5,-182.7 118.5,-163.7 67.5,-163.7"/>
<text text-anchor="start" x="83.1105" y="-169.8" font-family="Helvetica,sans-Serif" font-size="11.00" fill="#000000">0 rows</text>
<polygon fill="#ffffff" stroke="transparent" points="118.5,-163.7 118.5,-182.7 153.5,-182.7 153.5,-163.7 118.5,-163.7"/>
<polygon fill="none" stroke="#000000" points="118.5,-163.7 118.5,-182.7 153.5,-182.7 153.5,-163.7 118.5,-163.7"/>
<text text-anchor="start" x="134.9053" y="-169.8" font-family="Helvetica,sans-Serif" font-size="11.00" fill="#000000">2 &gt;</text>
</a>
</g>
</g>
<!-- instance_role_permissions&#45;&gt;instance_roles -->
<g id="edge2" class="edge">
<title>instance_role_permissions:w&#45;&gt;instance_roles:e</title>
<path fill="none" stroke="#000000" d="M211.7691,-185.4957C187.3422,-196.2967 187.5772,-234.7 153.5,-234.7"/>
<polygon fill="#000000" stroke="#000000" points="218.15,-184.2422 226.694,-186.2325 222.075,-183.4711 226,-182.7 226,-182.7 226,-182.7 222.075,-183.4711 225.306,-179.1675 218.15,-184.2422 218.15,-184.2422"/>
<ellipse fill="none" stroke="#000000" cx="215.0101" cy="-184.8591" rx="3.2" ry="3.2"/>
</g>
</g>
</svg>
