<?xml version="1.0" encoding="UTF-8" standalone="no"?>
<!DOCTYPE svg PUBLIC "-//W3C//DTD SVG 1.1//EN"
 "http://www.w3.org/Graphics/SVG/1.1/DTD/svg11.dtd">
<!-- Generated by graphviz version 2.40.1 (20161225.0304)
 -->
<!-- Title: oneDegreeRelationshipsDiagram Pages: 1 -->
<svg width="451pt" height="303pt"
 viewBox="0.00 0.00 451.00 303.20" xmlns="http://www.w3.org/2000/svg" xmlns:xlink="http://www.w3.org/1999/xlink">
<g id="graph0" class="graph" transform="scale(1 1) rotate(0) translate(4 299.2)">
<title>oneDegreeRelationshipsDiagram</title>
<polygon fill="#ffffff" stroke="transparent" points="-4,4 -4,-299.2 447,-299.2 447,4 -4,4"/>
<text text-anchor="middle" x="72.4936" y="-7.3" font-family="Helvetica,sans-Serif" font-size="11.00" fill="#000000">Generated by SchemaSpy</text>
<!-- instance_role_permissions -->
<g id="node1" class="node">
<title>instance_role_permissions</title>
<g id="a_node1"><a xlink:href="../../tables/instance_role_permissions.html" xlink:title="instance_role_permissions" target="_top">
<polygon fill="#ffffff" stroke="transparent" points="257,-186.2 257,-291.2 435,-291.2 435,-186.2 257,-186.2"/>
<polygon fill="#f5f5f5" stroke="transparent" points="257,-267.7 257,-290.7 435,-290.7 435,-267.7 257,-267.7"/>
<polygon fill="none" stroke="#000000" points="257,-267.7 257,-290.7 435,-290.7 435,-267.7 257,-267.7"/>
<text text-anchor="start" x="262" y="-276.8" font-family="Helvetica,sans-Serif" font-weight="bold" font-size="11.00" fill="#000000">instance_role_permissions</text>
<text text-anchor="start" x="400.0437" y="-275.8" font-family="Helvetica,sans-Serif" font-size="11.00" fill="#000000">[table]</text>
<polygon fill="none" stroke="#000000" points="257,-245.7 257,-267.7 435,-267.7 435,-245.7 257,-245.7"/>
<image xlink:href="../../images/primaryKeys.png" width="11px" height="12px" preserveAspectRatio="xMinYMin meet" x="262" y="-262.7"/>
<text text-anchor="start" x="277" y="-252.8" font-family="Helvetica,sans-Serif" font-size="11.00" fill="#000000">instance_role_id</text>
<polygon fill="none" stroke="#000000" points="257,-223.7 257,-245.7 435,-245.7 435,-223.7 257,-223.7"/>
<image xlink:href="../../images/primaryKeys.png" width="11px" height="12px" preserveAspectRatio="xMinYMin meet" x="262" y="-240.7"/>
<text text-anchor="start" x="277" y="-230.8" font-family="Helvetica,sans-Serif" font-size="11.00" fill="#000000">instance_permission_id</text>
<polygon fill="none" stroke="#000000" points="257,-204.7 257,-223.7 435,-223.7 435,-204.7 257,-204.7"/>
<text text-anchor="start" x="260" y="-210.8" font-family="Helvetica,sans-Serif" font-size="11.00" fill="#000000">...</text>
<polygon fill="#ffffff" stroke="transparent" points="257,-185.7 257,-204.7 328,-204.7 328,-185.7 257,-185.7"/>
<polygon fill="none" stroke="#000000" points="257,-185.7 257,-204.7 328,-204.7 328,-185.7 257,-185.7"/>
<text text-anchor="start" x="260" y="-191.8" font-family="Helvetica,sans-Serif" font-size="11.00" fill="#000000">&lt; 2</text>
<polygon fill="#ffffff" stroke="transparent" points="328,-185.7 328,-204.7 397,-204.7 397,-185.7 328,-185.7"/>
<polygon fill="none" stroke="#000000" points="328,-185.7 328,-204.7 397,-204.7 397,-185.7 328,-185.7"/>
<text text-anchor="start" x="355.4956" y="-191.8" font-family="Helvetica,sans-Serif" font-size="11.00" fill="#000000">28 rows</text>
<polygon fill="#ffffff" stroke="transparent" points="397,-185.7 397,-204.7 435,-204.7 435,-185.7 397,-185.7"/>
<polygon fill="none" stroke="#000000" points="397,-185.7 397,-204.7 435,-204.7 435,-185.7 397,-185.7"/>
<text text-anchor="start" x="425.8862" y="-191.8" font-family="Helvetica,sans-Serif" font-size="11.00" fill="#000000"> &#160;</text>
</a>
</g>
</g>
<!-- instance_roles -->
<g id="node2" class="node">
<title>instance_roles</title>
<g id="a_node2"><a xlink:href="../../tables/instance_roles.html" xlink:title="instance_roles" target="_top">
<polygon fill="#ffffff" stroke="transparent" points="8,-117.7 8,-251.7 208,-251.7 208,-117.7 8,-117.7"/>
<polygon fill="#f5f5f5" stroke="transparent" points="10,-226.7 10,-249.7 206,-249.7 206,-226.7 10,-226.7"/>
<polygon fill="none" stroke="#000000" points="10,-226.7 10,-249.7 206,-249.7 206,-226.7 10,-226.7"/>
<text text-anchor="start" x="15" y="-235.8" font-family="Helvetica,sans-Serif" font-weight="bold" font-size="11.00" fill="#000000">instance_roles</text>
<text text-anchor="start" x="171.0437" y="-234.8" font-family="Helvetica,sans-Serif" font-size="11.00" fill="#000000">[table]</text>
<polygon fill="none" stroke="#000000" points="10,-204.7 10,-226.7 116,-226.7 116,-204.7 10,-204.7"/>
<text text-anchor="start" x="30" y="-211.8" font-family="Helvetica,sans-Serif" font-size="11.00" fill="#000000">created_at</text>
<polygon fill="none" stroke="#000000" points="116,-204.7 116,-226.7 206,-226.7 206,-204.7 116,-204.7"/>
<text text-anchor="start" x="119" y="-212.4" font-family="Helvetica,sans-Serif" font-size="11.00" fill="#000000">timestamp[26,3]</text>
<polygon fill="none" stroke="#000000" points="10,-182.7 10,-204.7 116,-204.7 116,-182.7 10,-182.7"/>
<text text-anchor="start" x="30" y="-189.8" font-family="Helvetica,sans-Serif" font-size="11.00" fill="#000000">updated_at</text>
<polygon fill="none" stroke="#000000" points="116,-182.7 116,-204.7 206,-204.7 206,-182.7 116,-182.7"/>
<text text-anchor="start" x="119" y="-190.4" font-family="Helvetica,sans-Serif" font-size="11.00" fill="#000000">timestamp[26,3]</text>
<polygon fill="none" stroke="#000000" points="10,-160.7 10,-182.7 116,-182.7 116,-160.7 10,-160.7"/>
<image xlink:href="../../images/primaryKeys.png" width="11px" height="12px" preserveAspectRatio="xMinYMin meet" x="15" y="-177.7"/>
<text text-anchor="start" x="30" y="-167.8" font-family="Helvetica,sans-Serif" font-size="11.00" fill="#000000">id</text>
<polygon fill="none" stroke="#000000" points="116,-160.7 116,-182.7 206,-182.7 206,-160.7 116,-160.7"/>
<text text-anchor="start" x="119" y="-168.4" font-family="Helvetica,sans-Serif" font-size="11.00" fill="#000000">serial[10]</text>
<polygon fill="#ffffff" stroke="transparent" points="10,-138.7 10,-160.7 116,-160.7 116,-138.7 10,-138.7"/>
<polygon fill="none" stroke="#000000" points="10,-138.7 10,-160.7 116,-160.7 116,-138.7 10,-138.7"/>
<text text-anchor="start" x="30" y="-145.8" font-family="Helvetica,sans-Serif" font-size="11.00" fill="#000000">name</text>
<polygon fill="none" stroke="#000000" points="116,-138.7 116,-160.7 206,-160.7 206,-138.7 116,-138.7"/>
<text text-anchor="start" x="118.5042" y="-146.4" font-family="Helvetica,sans-Serif" font-size="11.00" fill="#000000">text[2147483647]</text>
<polygon fill="#ffffff" stroke="transparent" points="10,-119.7 10,-138.7 54,-138.7 54,-119.7 10,-119.7"/>
<polygon fill="none" stroke="#000000" points="10,-119.7 10,-138.7 54,-138.7 54,-119.7 10,-119.7"/>
<text text-anchor="start" x="13" y="-125.8" font-family="Helvetica,sans-Serif" font-size="11.00" fill="#000000">&lt; 0</text>
<polygon fill="#ffffff" stroke="transparent" points="54,-119.7 54,-138.7 116,-138.7 116,-119.7 54,-119.7"/>
<polygon fill="none" stroke="#000000" points="54,-119.7 54,-138.7 116,-138.7 116,-119.7 54,-119.7"/>
<text text-anchor="start" x="80.6105" y="-125.8" font-family="Helvetica,sans-Serif" font-size="11.00" fill="#000000">3 rows</text>
<polygon fill="#ffffff" stroke="transparent" points="116,-119.7 116,-138.7 206,-138.7 206,-119.7 116,-119.7"/>
<polygon fill="none" stroke="#000000" points="116,-119.7 116,-138.7 206,-138.7 206,-119.7 116,-119.7"/>
<text text-anchor="start" x="187.4053" y="-125.8" font-family="Helvetica,sans-Serif" font-size="11.00" fill="#000000">2 &gt;</text>
<polygon fill="none" stroke="#000000" stroke-width="2" points="9,-118.7 9,-250.7 207,-250.7 207,-118.7 9,-118.7"/>
</a>
</g>
</g>
<!-- instance_role_permissions&#45;&gt;instance_roles -->
<g id="edge1" class="edge">
<title>instance_role_permissions:w&#45;&gt;instance_roles:e</title>
<path fill="none" stroke="#000000" d="M243.0669,-252.368C221.5746,-235.0466 244.0328,-171.7 206,-171.7"/>
<polygon fill="#000000" stroke="#000000" points="249.3607,-254.3248 255.9312,-260.1377 253.1804,-255.5124 257,-256.7 257,-256.7 257,-256.7 253.1804,-255.5124 258.0688,-253.2623 249.3607,-254.3248 249.3607,-254.3248"/>
<ellipse fill="none" stroke="#000000" cx="246.305" cy="-253.3747" rx="3.2" ry="3.2"/>
</g>
<!-- users -->
<g id="node3" class="node">
<title>users</title>
<g id="a_node3"><a xlink:href="../../tables/users.html" xlink:title="users" target="_top">
<polygon fill="#ffffff" stroke="transparent" points="288,-38.2 288,-165.2 404,-165.2 404,-38.2 288,-38.2"/>
<polygon fill="#f5f5f5" stroke="transparent" points="288,-141.7 288,-164.7 404,-164.7 404,-141.7 288,-141.7"/>
<polygon fill="none" stroke="#000000" points="288,-141.7 288,-164.7 404,-164.7 404,-141.7 288,-141.7"/>
<text text-anchor="start" x="293" y="-150.8" font-family="Helvetica,sans-Serif" font-weight="bold" font-size="11.00" fill="#000000">users</text>
<text text-anchor="start" x="369.0437" y="-149.8" font-family="Helvetica,sans-Serif" font-size="11.00" fill="#000000">[table]</text>
<polygon fill="none" stroke="#000000" points="288,-119.7 288,-141.7 404,-141.7 404,-119.7 288,-119.7"/>
<image xlink:href="../../images/primaryKeys.png" width="11px" height="12px" preserveAspectRatio="xMinYMin meet" x="293" y="-136.7"/>
<text text-anchor="start" x="308" y="-126.8" font-family="Helvetica,sans-Serif" font-size="11.00" fill="#000000">id</text>
<polygon fill="#ffffff" stroke="transparent" points="288,-97.7 288,-119.7 404,-119.7 404,-97.7 288,-97.7"/>
<polygon fill="none" stroke="#000000" points="288,-97.7 288,-119.7 404,-119.7 404,-97.7 288,-97.7"/>
<text text-anchor="start" x="308" y="-104.8" font-family="Helvetica,sans-Serif" font-size="11.00" fill="#000000">email</text>
<polygon fill="none" stroke="#000000" points="288,-75.7 288,-97.7 404,-97.7 404,-75.7 288,-75.7"/>
<image xlink:href="../../images/foreignKeys.png" width="11px" height="12px" preserveAspectRatio="xMinYMin meet" x="293" y="-92.7"/>
<text text-anchor="start" x="308" y="-82.8" font-family="Helvetica,sans-Serif" font-size="11.00" fill="#000000">instance_role_id</text>
<polygon fill="none" stroke="#000000" points="288,-56.7 288,-75.7 404,-75.7 404,-56.7 288,-56.7"/>
<text text-anchor="start" x="291" y="-62.8" font-family="Helvetica,sans-Serif" font-size="11.00" fill="#000000">...</text>
<polygon fill="#ffffff" stroke="transparent" points="288,-37.7 288,-56.7 327,-56.7 327,-37.7 288,-37.7"/>
<polygon fill="none" stroke="#000000" points="288,-37.7 288,-56.7 327,-56.7 327,-37.7 288,-37.7"/>
<text text-anchor="start" x="291" y="-43.8" font-family="Helvetica,sans-Serif" font-size="11.00" fill="#000000">&lt; 1</text>
<polygon fill="#ffffff" stroke="transparent" points="327,-37.7 327,-56.7 374,-56.7 374,-37.7 327,-37.7"/>
<polygon fill="none" stroke="#000000" points="327,-37.7 327,-56.7 374,-56.7 374,-37.7 327,-37.7"/>
<text text-anchor="start" x="338.6105" y="-43.8" font-family="Helvetica,sans-Serif" font-size="11.00" fill="#000000">0 rows</text>
<polygon fill="#ffffff" stroke="transparent" points="374,-37.7 374,-56.7 404,-56.7 404,-37.7 374,-37.7"/>
<polygon fill="none" stroke="#000000" points="374,-37.7 374,-56.7 404,-56.7 404,-37.7 374,-37.7"/>
<text text-anchor="start" x="385.4053" y="-43.8" font-family="Helvetica,sans-Serif" font-size="11.00" fill="#000000">4 &gt;</text>
</a>
</g>
</g>
<!-- users&#45;&gt;instance_roles -->
<g id="edge2" class="edge">
<title>users:w&#45;&gt;instance_roles:e</title>
<path fill="none" stroke="#000000" d="M273.7329,-89.3371C239.5169,-103.6842 252.9553,-171.7 206,-171.7"/>
<polygon fill="#000000" stroke="#000000" points="280.1333,-88.1541 288.6544,-90.24 284.0666,-87.4271 288,-86.7 288,-86.7 288,-86.7 284.0666,-87.4271 287.3456,-83.16 280.1333,-88.1541 280.1333,-88.1541"/>
<ellipse fill="none" stroke="#000000" cx="276.9866" cy="-88.7358" rx="3.2" ry="3.2"/>
</g>
</g>
</svg>
