<?xml version="1.0" encoding="UTF-8" standalone="no"?>
<!DOCTYPE svg PUBLIC "-//W3C//DTD SVG 1.1//EN"
 "http://www.w3.org/Graphics/SVG/1.1/DTD/svg11.dtd">
<!-- Generated by graphviz version 2.40.1 (20161225.0304)
 -->
<!-- Title: twoDegreesRelationshipsDiagram Pages: 1 -->
<svg width="506pt" height="305pt"
 viewBox="0.00 0.00 506.00 305.20" xmlns="http://www.w3.org/2000/svg" xmlns:xlink="http://www.w3.org/1999/xlink">
<g id="graph0" class="graph" transform="scale(1 1) rotate(0) translate(4 301.2)">
<title>twoDegreesRelationshipsDiagram</title>
<polygon fill="#ffffff" stroke="transparent" points="-4,4 -4,-301.2 502,-301.2 502,4 -4,4"/>
<text text-anchor="middle" x="72.4936" y="-7.3" font-family="Helvetica,sans-Serif" font-size="11.00" fill="#000000">Generated by SchemaSpy</text>
<!-- instance_role_permissions -->
<g id="node1" class="node">
<title>instance_role_permissions</title>
<g id="a_node1"><a xlink:href="../../tables/instance_role_permissions.html" xlink:title="instance_role_permissions" target="_top">
<polygon fill="#ffffff" stroke="transparent" points="224,-76.7 224,-210.7 490,-210.7 490,-76.7 224,-76.7"/>
<polygon fill="#f5f5f5" stroke="transparent" points="226,-185.7 226,-208.7 488,-208.7 488,-185.7 226,-185.7"/>
<polygon fill="none" stroke="#000000" points="226,-185.7 226,-208.7 488,-208.7 488,-185.7 226,-185.7"/>
<text text-anchor="start" x="231" y="-194.3" font-family="Helvetica,sans-Serif" font-weight="bold" font-size="11.00" fill="#000000">instance_role_permissions</text>
<text text-anchor="start" x="453.0437" y="-193.8" font-family="Helvetica,sans-Serif" font-size="11.00" fill="#000000">[table]</text>
<polygon fill="none" stroke="#000000" points="226,-163.7 226,-185.7 404,-185.7 404,-163.7 226,-163.7"/>
<text text-anchor="start" x="246" y="-170.8" font-family="Helvetica,sans-Serif" font-size="11.00" fill="#000000">created_at</text>
<polygon fill="none" stroke="#000000" points="404,-163.7 404,-185.7 488,-185.7 488,-163.7 404,-163.7"/>
<text text-anchor="start" x="406.8807" y="-171.4" font-family="Helvetica,sans-Serif" font-size="11.00" fill="#000000">timestamp[26,3]</text>
<polygon fill="none" stroke="#000000" points="226,-141.7 226,-163.7 404,-163.7 404,-141.7 226,-141.7"/>
<text text-anchor="start" x="246" y="-148.8" font-family="Helvetica,sans-Serif" font-size="11.00" fill="#000000">updated_at</text>
<polygon fill="none" stroke="#000000" points="404,-141.7 404,-163.7 488,-163.7 488,-141.7 404,-141.7"/>
<text text-anchor="start" x="406.8807" y="-149.4" font-family="Helvetica,sans-Serif" font-size="11.00" fill="#000000">timestamp[26,3]</text>
<polygon fill="none" stroke="#000000" points="226,-119.7 226,-141.7 404,-141.7 404,-119.7 226,-119.7"/>
<image xlink:href="../../images/primaryKeys.png" width="11px" height="12px" preserveAspectRatio="xMinYMin meet" x="231" y="-136.7"/>
<text text-anchor="start" x="246" y="-126.8" font-family="Helvetica,sans-Serif" font-size="11.00" fill="#000000">instance_role_id</text>
<polygon fill="none" stroke="#000000" points="404,-119.7 404,-141.7 488,-141.7 488,-119.7 404,-119.7"/>
<text text-anchor="start" x="407" y="-127.4" font-family="Helvetica,sans-Serif" font-size="11.00" fill="#000000">int4[10]</text>
<polygon fill="none" stroke="#000000" points="226,-97.7 226,-119.7 404,-119.7 404,-97.7 226,-97.7"/>
<image xlink:href="../../images/primaryKeys.png" width="11px" height="12px" preserveAspectRatio="xMinYMin meet" x="231" y="-114.7"/>
<text text-anchor="start" x="246" y="-104.8" font-family="Helvetica,sans-Serif" font-size="11.00" fill="#000000">instance_permission_id</text>
<polygon fill="none" stroke="#000000" points="404,-97.7 404,-119.7 488,-119.7 488,-97.7 404,-97.7"/>
<text text-anchor="start" x="407" y="-105.4" font-family="Helvetica,sans-Serif" font-size="11.00" fill="#000000">int4[10]</text>
<polygon fill="#ffffff" stroke="transparent" points="226,-78.7 226,-97.7 306,-97.7 306,-78.7 226,-78.7"/>
<polygon fill="none" stroke="#000000" points="226,-78.7 226,-97.7 306,-97.7 306,-78.7 226,-78.7"/>
<text text-anchor="start" x="229" y="-84.8" font-family="Helvetica,sans-Serif" font-size="11.00" fill="#000000">&lt; 2</text>
<polygon fill="#ffffff" stroke="transparent" points="306,-78.7 306,-97.7 404,-97.7 404,-78.7 306,-78.7"/>
<polygon fill="none" stroke="#000000" points="306,-78.7 306,-97.7 404,-97.7 404,-78.7 306,-78.7"/>
<text text-anchor="start" x="368.6105" y="-84.8" font-family="Helvetica,sans-Serif" font-size="11.00" fill="#000000">0 rows</text>
<polygon fill="#ffffff" stroke="transparent" points="404,-78.7 404,-97.7 488,-97.7 488,-78.7 404,-78.7"/>
<polygon fill="none" stroke="#000000" points="404,-78.7 404,-97.7 488,-97.7 488,-78.7 404,-78.7"/>
<text text-anchor="start" x="469.4053" y="-84.8" font-family="Helvetica,sans-Serif" font-size="11.00" fill="#000000">0 &gt;</text>
<polygon fill="none" stroke="#000000" stroke-width="2" points="225,-77.7 225,-209.7 489,-209.7 489,-77.7 225,-77.7"/>
</a>
</g>
</g>
<!-- instance_permissions -->
<g id="node2" class="node">
<title>instance_permissions</title>
<g id="a_node2"><a xlink:href="../../tables/instance_permissions.html" xlink:title="instance_permissions" target="_top">
<polygon fill="#ffffff" stroke="transparent" points="8,-38.2 8,-143.2 175,-143.2 175,-38.2 8,-38.2"/>
<polygon fill="#f5f5f5" stroke="transparent" points="8.5,-119.7 8.5,-142.7 175.5,-142.7 175.5,-119.7 8.5,-119.7"/>
<polygon fill="none" stroke="#000000" points="8.5,-119.7 8.5,-142.7 175.5,-142.7 175.5,-119.7 8.5,-119.7"/>
<text text-anchor="start" x="13.5" y="-128.3" font-family="Helvetica,sans-Serif" font-weight="bold" font-size="11.00" fill="#000000">instance_permissions</text>
<text text-anchor="start" x="141.0219" y="-127.8" font-family="Helvetica,sans-Serif" font-size="11.00" fill="#000000">[table]</text>
<polygon fill="none" stroke="#000000" points="8.5,-97.7 8.5,-119.7 175.5,-119.7 175.5,-97.7 8.5,-97.7"/>
<image xlink:href="../../images/primaryKeys.png" width="11px" height="12px" preserveAspectRatio="xMinYMin meet" x="13.5" y="-114.7"/>
<text text-anchor="start" x="37.5" y="-104.8" font-family="Helvetica,sans-Serif" font-size="11.00" fill="#000000">id</text>
<polygon fill="#ffffff" stroke="transparent" points="8.5,-75.7 8.5,-97.7 175.5,-97.7 175.5,-75.7 8.5,-75.7"/>
<polygon fill="none" stroke="#000000" points="8.5,-75.7 8.5,-97.7 175.5,-97.7 175.5,-75.7 8.5,-75.7"/>
<text text-anchor="start" x="37.5" y="-82.8" font-family="Helvetica,sans-Serif" font-size="11.00" fill="#000000">name</text>
<polygon fill="none" stroke="#000000" points="8.5,-56.7 8.5,-75.7 175.5,-75.7 175.5,-56.7 8.5,-56.7"/>
<text text-anchor="start" x="11.5" y="-62.8" font-family="Helvetica,sans-Serif" font-size="11.00" fill="#000000">...</text>
<polygon fill="#ffffff" stroke="transparent" points="8.5,-37.7 8.5,-56.7 68.5,-56.7 68.5,-37.7 8.5,-37.7"/>
<polygon fill="none" stroke="#000000" points="8.5,-37.7 8.5,-56.7 68.5,-56.7 68.5,-37.7 8.5,-37.7"/>
<text text-anchor="start" x="11.5" y="-43.8" font-family="Helvetica,sans-Serif" font-size="11.00" fill="#000000"> &#160;</text>
<polygon fill="#ffffff" stroke="transparent" points="68.5,-37.7 68.5,-56.7 130.5,-56.7 130.5,-37.7 68.5,-37.7"/>
<polygon fill="none" stroke="#000000" points="68.5,-37.7 68.5,-56.7 130.5,-56.7 130.5,-37.7 68.5,-37.7"/>
<text text-anchor="start" x="95.1105" y="-43.8" font-family="Helvetica,sans-Serif" font-size="11.00" fill="#000000">0 rows</text>
<polygon fill="#ffffff" stroke="transparent" points="130.5,-37.7 130.5,-56.7 175.5,-56.7 175.5,-37.7 130.5,-37.7"/>
<polygon fill="none" stroke="#000000" points="130.5,-37.7 130.5,-56.7 175.5,-56.7 175.5,-37.7 130.5,-37.7"/>
<text text-anchor="start" x="156.9053" y="-43.8" font-family="Helvetica,sans-Serif" font-size="11.00" fill="#000000">1 &gt;</text>
</a>
</g>
</g>
<!-- instance_role_permissions&#45;&gt;instance_permissions -->
<g id="edge1" class="edge">
<title>instance_role_permissions:w&#45;&gt;instance_permissions:e</title>
<path fill="none" stroke="#000000" d="M211.4203,-108.7C199.5435,-108.7 192.158,-108.7 175.5,-108.7"/>
<polygon fill="#000000" stroke="#000000" points="218,-108.7001 226,-112.3 222,-108.7 226,-108.7 226,-108.7 226,-108.7 222,-108.7 226,-105.1 218,-108.7001 218,-108.7001"/>
<ellipse fill="none" stroke="#000000" cx="214.8" cy="-108.7001" rx="3.2" ry="3.2"/>
</g>
<!-- instance_roles -->
<g id="node3" class="node">
<title>instance_roles</title>
<g id="a_node3"><a xlink:href="../../tables/instance_roles.html" xlink:title="instance_roles" target="_top">
<polygon fill="#ffffff" stroke="transparent" points="29.5,-176.2 29.5,-281.2 153.5,-281.2 153.5,-176.2 29.5,-176.2"/>
<polygon fill="#f5f5f5" stroke="transparent" points="29.5,-257.7 29.5,-280.7 153.5,-280.7 153.5,-257.7 29.5,-257.7"/>
<polygon fill="none" stroke="#000000" points="29.5,-257.7 29.5,-280.7 153.5,-280.7 153.5,-257.7 29.5,-257.7"/>
<text text-anchor="start" x="34.5" y="-266.3" font-family="Helvetica,sans-Serif" font-weight="bold" font-size="11.00" fill="#000000">instance_roles</text>
<text text-anchor="start" x="119.0219" y="-265.8" font-family="Helvetica,sans-Serif" font-size="11.00" fill="#000000">[table]</text>
<polygon fill="none" stroke="#000000" points="29.5,-235.7 29.5,-257.7 153.5,-257.7 153.5,-235.7 29.5,-235.7"/>
<image xlink:href="../../images/primaryKeys.png" width="11px" height="12px" preserveAspectRatio="xMinYMin meet" x="34.5" y="-252.7"/>
<text text-anchor="start" x="58.5" y="-242.8" font-family="Helvetica,sans-Serif" font-size="11.00" fill="#000000">id</text>
<polygon fill="#ffffff" stroke="transparent" points="29.5,-213.7 29.5,-235.7 153.5,-235.7 153.5,-213.7 29.5,-213.7"/>
<polygon fill="none" stroke="#000000" points="29.5,-213.7 29.5,-235.7 153.5,-235.7 153.5,-213.7 29.5,-213.7"/>
<text text-anchor="start" x="58.5" y="-220.8" font-family="Helvetica,sans-Serif" font-size="11.00" fill="#000000">name</text>
<polygon fill="none" stroke="#000000" points="29.5,-194.7 29.5,-213.7 153.5,-213.7 153.5,-194.7 29.5,-194.7"/>
<text text-anchor="start" x="32.5" y="-200.8" font-family="Helvetica,sans-Serif" font-size="11.00" fill="#000000">...</text>
<polygon fill="#ffffff" stroke="transparent" points="29.5,-175.7 29.5,-194.7 67.5,-194.7 67.5,-175.7 29.5,-175.7"/>
<polygon fill="none" stroke="#000000" points="29.5,-175.7 29.5,-194.7 67.5,-194.7 67.5,-175.7 29.5,-175.7"/>
<text text-anchor="start" x="32.5" y="-181.8" font-family="Helvetica,sans-Serif" font-size="11.00" fill="#000000"> &#160;</text>
<polygon fill="#ffffff" stroke="transparent" points="67.5,-175.7 67.5,-194.7 118.5,-194.7 118.5,-175.7 67.5,-175.7"/>
<polygon fill="none" stroke="#000000" points="67.5,-175.7 67.5,-194.7 118.5,-194.7 118.5,-175.7 67.5,-175.7"/>
<text text-anchor="start" x="83.1105" y="-181.8" font-family="Helvetica,sans-Serif" font-size="11.00" fill="#000000">0 rows</text>
<polygon fill="#ffffff" stroke="transparent" points="118.5,-175.7 118.5,-194.7 153.5,-194.7 153.5,-175.7 118.5,-175.7"/>
<polygon fill="none" stroke="#000000" points="118.5,-175.7 118.5,-194.7 153.5,-194.7 153.5,-175.7 118.5,-175.7"/>
<text text-anchor="start" x="134.9053" y="-181.8" font-family="Helvetica,sans-Serif" font-size="11.00" fill="#000000">2 &gt;</text>
</a>
</g>
</g>
<!-- instance_role_permissions&#45;&gt;instance_roles -->
<g id="edge2" class="edge">
<title>instance_role_permissions:w&#45;&gt;instance_roles:e</title>
<path fill="none" stroke="#000000" d="M211.8652,-133.453C173.2905,-151.0194 208.7158,-246.7 153.5,-246.7"/>
<polygon fill="#000000" stroke="#000000" points="218.1476,-132.2295 226.6883,-134.2336 222.0738,-131.4647 226,-130.7 226,-130.7 226,-130.7 222.0738,-131.4647 225.3117,-127.1664 218.1476,-132.2295 218.1476,-132.2295"/>
<ellipse fill="none" stroke="#000000" cx="215.0066" cy="-132.8412" rx="3.2" ry="3.2"/>
</g>
<!-- users -->
<g id="node4" class="node">
<title>users</title>
<g id="a_node4"><a xlink:href="../../tables/users.html" xlink:title="users" target="_top">
<polygon fill="#ffffff" stroke="transparent" points="317,-232.2 317,-293.2 397,-293.2 397,-232.2 317,-232.2"/>
<polygon fill="#f5f5f5" stroke="transparent" points="317,-269.7 317,-292.7 397,-292.7 397,-269.7 317,-269.7"/>
<polygon fill="none" stroke="#000000" points="317,-269.7 317,-292.7 397,-292.7 397,-269.7 317,-269.7"/>
<text text-anchor="start" x="322" y="-278.3" font-family="Helvetica,sans-Serif" font-weight="bold" font-size="11.00" fill="#000000">users</text>
<text text-anchor="start" x="362.0437" y="-277.8" font-family="Helvetica,sans-Serif" font-size="11.00" fill="#000000">[table]</text>
<polygon fill="none" stroke="#000000" points="317,-250.7 317,-269.7 397,-269.7 397,-250.7 317,-250.7"/>
<text text-anchor="start" x="320" y="-256.8" font-family="Helvetica,sans-Serif" font-size="11.00" fill="#000000">...</text>
<polygon fill="#ffffff" stroke="transparent" points="317,-231.7 317,-250.7 338,-250.7 338,-231.7 317,-231.7"/>
<polygon fill="none" stroke="#000000" points="317,-231.7 317,-250.7 338,-250.7 338,-231.7 317,-231.7"/>
<text text-anchor="start" x="319.7027" y="-237.8" font-family="Helvetica,sans-Serif" font-size="11.00" fill="#000000">&lt; 1</text>
<polygon fill="#ffffff" stroke="transparent" points="338,-231.7 338,-250.7 376,-250.7 376,-231.7 338,-231.7"/>
<polygon fill="none" stroke="#000000" points="338,-231.7 338,-250.7 376,-250.7 376,-231.7 338,-231.7"/>
<text text-anchor="start" x="340.8053" y="-237.8" font-family="Helvetica,sans-Serif" font-size="11.00" fill="#000000">0 rows</text>
<polygon fill="#ffffff" stroke="transparent" points="376,-231.7 376,-250.7 397,-250.7 397,-231.7 376,-231.7"/>
<polygon fill="none" stroke="#000000" points="376,-231.7 376,-250.7 397,-250.7 397,-231.7 376,-231.7"/>
<text text-anchor="start" x="378.7027" y="-237.8" font-family="Helvetica,sans-Serif" font-size="11.00" fill="#000000">4 &gt;</text>
</a>
</g>
</g>
<!-- users&#45;&gt;instance_roles -->
<g id="edge3" class="edge">
<title>users:w&#45;&gt;instance_roles:e</title>
<path fill="none" stroke="#000000" d="M302.4037,-259.5162C241.341,-257.9361 221.2705,-246.7 153.5,-246.7"/>
<polygon fill="#000000" stroke="#000000" points="309.0006,-259.5992 316.9547,-263.2997 313.0003,-259.6496 317,-259.7 317,-259.7 317,-259.7 313.0003,-259.6496 317.0453,-256.1003 309.0006,-259.5992 309.0006,-259.5992"/>
<ellipse fill="none" stroke="#000000" cx="305.8009" cy="-259.5589" rx="3.2" ry="3.2"/>
</g>
</g>
</svg>
