<?xml version="1.0" encoding="UTF-8" standalone="no"?>
<!DOCTYPE svg PUBLIC "-//W3C//DTD SVG 1.1//EN"
 "http://www.w3.org/Graphics/SVG/1.1/DTD/svg11.dtd">
<!-- Generated by graphviz version 2.40.1 (20161225.0304)
 -->
<!-- Title: twoDegreesRelationshipsDiagram Pages: 1 -->
<svg width="488pt" height="305pt"
 viewBox="0.00 0.00 488.00 305.20" xmlns="http://www.w3.org/2000/svg" xmlns:xlink="http://www.w3.org/1999/xlink">
<g id="graph0" class="graph" transform="scale(1 1) rotate(0) translate(4 301.2)">
<title>twoDegreesRelationshipsDiagram</title>
<polygon fill="#ffffff" stroke="transparent" points="-4,4 -4,-301.2 484,-301.2 484,4 -4,4"/>
<text text-anchor="middle" x="72.4936" y="-7.3" font-family="Helvetica,sans-Serif" font-size="11.00" fill="#000000">Generated by SchemaSpy</text>
<!-- instance_role_permissions -->
<g id="node1" class="node">
<title>instance_role_permissions</title>
<g id="a_node1"><a xlink:href="../../tables/instance_role_permissions.html" xlink:title="instance_role_permissions" target="_top">
<polygon fill="#ffffff" stroke="transparent" points="206,-76.7 206,-210.7 472,-210.7 472,-76.7 206,-76.7"/>
<polygon fill="#f5f5f5" stroke="transparent" points="208,-185.7 208,-208.7 470,-208.7 470,-185.7 208,-185.7"/>
<polygon fill="none" stroke="#000000" points="208,-185.7 208,-208.7 470,-208.7 470,-185.7 208,-185.7"/>
<text text-anchor="start" x="213" y="-194.8" font-family="Helvetica,sans-Serif" font-weight="bold" font-size="11.00" fill="#000000">instance_role_permissions</text>
<text text-anchor="start" x="435.0437" y="-193.8" font-family="Helvetica,sans-Serif" font-size="11.00" fill="#000000">[table]</text>
<polygon fill="none" stroke="#000000" points="208,-163.7 208,-185.7 386,-185.7 386,-163.7 208,-163.7"/>
<text text-anchor="start" x="228" y="-170.8" font-family="Helvetica,sans-Serif" font-size="11.00" fill="#000000">created_at</text>
<polygon fill="none" stroke="#000000" points="386,-163.7 386,-185.7 470,-185.7 470,-163.7 386,-163.7"/>
<text text-anchor="start" x="388.8807" y="-171.4" font-family="Helvetica,sans-Serif" font-size="11.00" fill="#000000">timestamp[26,3]</text>
<polygon fill="none" stroke="#000000" points="208,-141.7 208,-163.7 386,-163.7 386,-141.7 208,-141.7"/>
<text text-anchor="start" x="228" y="-148.8" font-family="Helvetica,sans-Serif" font-size="11.00" fill="#000000">updated_at</text>
<polygon fill="none" stroke="#000000" points="386,-141.7 386,-163.7 470,-163.7 470,-141.7 386,-141.7"/>
<text text-anchor="start" x="388.8807" y="-149.4" font-family="Helvetica,sans-Serif" font-size="11.00" fill="#000000">timestamp[26,3]</text>
<polygon fill="none" stroke="#000000" points="208,-119.7 208,-141.7 386,-141.7 386,-119.7 208,-119.7"/>
<image xlink:href="../../images/primaryKeys.png" width="11px" height="12px" preserveAspectRatio="xMinYMin meet" x="213" y="-136.7"/>
<text text-anchor="start" x="228" y="-126.8" font-family="Helvetica,sans-Serif" font-size="11.00" fill="#000000">instance_role_id</text>
<polygon fill="none" stroke="#000000" points="386,-119.7 386,-141.7 470,-141.7 470,-119.7 386,-119.7"/>
<text text-anchor="start" x="389" y="-127.4" font-family="Helvetica,sans-Serif" font-size="11.00" fill="#000000">int4[10]</text>
<polygon fill="none" stroke="#000000" points="208,-97.7 208,-119.7 386,-119.7 386,-97.7 208,-97.7"/>
<image xlink:href="../../images/primaryKeys.png" width="11px" height="12px" preserveAspectRatio="xMinYMin meet" x="213" y="-114.7"/>
<text text-anchor="start" x="228" y="-104.8" font-family="Helvetica,sans-Serif" font-size="11.00" fill="#000000">instance_permission_id</text>
<polygon fill="none" stroke="#000000" points="386,-97.7 386,-119.7 470,-119.7 470,-97.7 386,-97.7"/>
<text text-anchor="start" x="389" y="-105.4" font-family="Helvetica,sans-Serif" font-size="11.00" fill="#000000">int4[10]</text>
<polygon fill="#ffffff" stroke="transparent" points="208,-78.7 208,-97.7 285,-97.7 285,-78.7 208,-78.7"/>
<polygon fill="none" stroke="#000000" points="208,-78.7 208,-97.7 285,-97.7 285,-78.7 208,-78.7"/>
<text text-anchor="start" x="211" y="-84.8" font-family="Helvetica,sans-Serif" font-size="11.00" fill="#000000">&lt; 2</text>
<polygon fill="#ffffff" stroke="transparent" points="285,-78.7 285,-97.7 386,-97.7 386,-78.7 285,-78.7"/>
<polygon fill="none" stroke="#000000" points="285,-78.7 285,-97.7 386,-97.7 386,-78.7 285,-78.7"/>
<text text-anchor="start" x="344.4956" y="-84.8" font-family="Helvetica,sans-Serif" font-size="11.00" fill="#000000">34 rows</text>
<polygon fill="#ffffff" stroke="transparent" points="386,-78.7 386,-97.7 470,-97.7 470,-78.7 386,-78.7"/>
<polygon fill="none" stroke="#000000" points="386,-78.7 386,-97.7 470,-97.7 470,-78.7 386,-78.7"/>
<text text-anchor="start" x="451.4053" y="-84.8" font-family="Helvetica,sans-Serif" font-size="11.00" fill="#000000">0 &gt;</text>
<polygon fill="none" stroke="#000000" stroke-width="2" points="207,-77.7 207,-209.7 471,-209.7 471,-77.7 207,-77.7"/>
</a>
</g>
</g>
<!-- instance_permissions -->
<g id="node2" class="node">
<title>instance_permissions</title>
<g id="a_node2"><a xlink:href="../../tables/instance_permissions.html" xlink:title="instance_permissions" target="_top">
<polygon fill="#ffffff" stroke="transparent" points="8,-38.2 8,-143.2 157,-143.2 157,-38.2 8,-38.2"/>
<polygon fill="#f5f5f5" stroke="transparent" points="8.5,-119.7 8.5,-142.7 157.5,-142.7 157.5,-119.7 8.5,-119.7"/>
<polygon fill="none" stroke="#000000" points="8.5,-119.7 8.5,-142.7 157.5,-142.7 157.5,-119.7 8.5,-119.7"/>
<text text-anchor="start" x="13.5" y="-128.8" font-family="Helvetica,sans-Serif" font-weight="bold" font-size="11.00" fill="#000000">instance_permissions</text>
<text text-anchor="start" x="123.0219" y="-127.8" font-family="Helvetica,sans-Serif" font-size="11.00" fill="#000000">[table]</text>
<polygon fill="none" stroke="#000000" points="8.5,-97.7 8.5,-119.7 157.5,-119.7 157.5,-97.7 8.5,-97.7"/>
<image xlink:href="../../images/primaryKeys.png" width="11px" height="12px" preserveAspectRatio="xMinYMin meet" x="13.5" y="-114.7"/>
<text text-anchor="start" x="28.5" y="-104.8" font-family="Helvetica,sans-Serif" font-size="11.00" fill="#000000">id</text>
<polygon fill="#ffffff" stroke="transparent" points="8.5,-75.7 8.5,-97.7 157.5,-97.7 157.5,-75.7 8.5,-75.7"/>
<polygon fill="none" stroke="#000000" points="8.5,-75.7 8.5,-97.7 157.5,-97.7 157.5,-75.7 8.5,-75.7"/>
<text text-anchor="start" x="28.5" y="-82.8" font-family="Helvetica,sans-Serif" font-size="11.00" fill="#000000">name</text>
<polygon fill="none" stroke="#000000" points="8.5,-56.7 8.5,-75.7 157.5,-75.7 157.5,-56.7 8.5,-56.7"/>
<text text-anchor="start" x="11.5" y="-62.8" font-family="Helvetica,sans-Serif" font-size="11.00" fill="#000000">...</text>
<polygon fill="#ffffff" stroke="transparent" points="8.5,-37.7 8.5,-56.7 56.5,-56.7 56.5,-37.7 8.5,-37.7"/>
<polygon fill="none" stroke="#000000" points="8.5,-37.7 8.5,-56.7 56.5,-56.7 56.5,-37.7 8.5,-37.7"/>
<text text-anchor="start" x="11.5" y="-43.8" font-family="Helvetica,sans-Serif" font-size="11.00" fill="#000000"> &#160;</text>
<polygon fill="#ffffff" stroke="transparent" points="56.5,-37.7 56.5,-56.7 118.5,-56.7 118.5,-37.7 56.5,-37.7"/>
<polygon fill="none" stroke="#000000" points="56.5,-37.7 56.5,-56.7 118.5,-56.7 118.5,-37.7 56.5,-37.7"/>
<text text-anchor="start" x="76.9956" y="-43.8" font-family="Helvetica,sans-Serif" font-size="11.00" fill="#000000">26 rows</text>
<polygon fill="#ffffff" stroke="transparent" points="118.5,-37.7 118.5,-56.7 157.5,-56.7 157.5,-37.7 118.5,-37.7"/>
<polygon fill="none" stroke="#000000" points="118.5,-37.7 118.5,-56.7 157.5,-56.7 157.5,-37.7 118.5,-37.7"/>
<text text-anchor="start" x="138.9053" y="-43.8" font-family="Helvetica,sans-Serif" font-size="11.00" fill="#000000">1 &gt;</text>
</a>
</g>
</g>
<!-- instance_role_permissions&#45;&gt;instance_permissions -->
<g id="edge1" class="edge">
<title>instance_role_permissions:w&#45;&gt;instance_permissions:e</title>
<path fill="none" stroke="#000000" d="M193.4203,-108.7C181.5435,-108.7 174.158,-108.7 157.5,-108.7"/>
<polygon fill="#000000" stroke="#000000" points="200,-108.7001 208,-112.3 204,-108.7 208,-108.7 208,-108.7 208,-108.7 204,-108.7 208,-105.1 200,-108.7001 200,-108.7001"/>
<ellipse fill="none" stroke="#000000" cx="196.8" cy="-108.7001" rx="3.2" ry="3.2"/>
</g>
<!-- instance_roles -->
<g id="node3" class="node">
<title>instance_roles</title>
<g id="a_node3"><a xlink:href="../../tables/instance_roles.html" xlink:title="instance_roles" target="_top">
<polygon fill="#ffffff" stroke="transparent" points="26,-176.2 26,-281.2 139,-281.2 139,-176.2 26,-176.2"/>
<polygon fill="#f5f5f5" stroke="transparent" points="26.5,-257.7 26.5,-280.7 139.5,-280.7 139.5,-257.7 26.5,-257.7"/>
<polygon fill="none" stroke="#000000" points="26.5,-257.7 26.5,-280.7 139.5,-280.7 139.5,-257.7 26.5,-257.7"/>
<text text-anchor="start" x="31.0476" y="-266.8" font-family="Helvetica,sans-Serif" font-weight="bold" font-size="11.00" fill="#000000">instance_roles</text>
<text text-anchor="start" x="105.0219" y="-265.8" font-family="Helvetica,sans-Serif" font-size="11.00" fill="#000000">[table]</text>
<polygon fill="none" stroke="#000000" points="26.5,-235.7 26.5,-257.7 139.5,-257.7 139.5,-235.7 26.5,-235.7"/>
<image xlink:href="../../images/primaryKeys.png" width="11px" height="12px" preserveAspectRatio="xMinYMin meet" x="31.5" y="-252.7"/>
<text text-anchor="start" x="50.5" y="-242.8" font-family="Helvetica,sans-Serif" font-size="11.00" fill="#000000">id</text>
<polygon fill="#ffffff" stroke="transparent" points="26.5,-213.7 26.5,-235.7 139.5,-235.7 139.5,-213.7 26.5,-213.7"/>
<polygon fill="none" stroke="#000000" points="26.5,-213.7 26.5,-235.7 139.5,-235.7 139.5,-213.7 26.5,-213.7"/>
<text text-anchor="start" x="50.5" y="-220.8" font-family="Helvetica,sans-Serif" font-size="11.00" fill="#000000">name</text>
<polygon fill="none" stroke="#000000" points="26.5,-194.7 26.5,-213.7 139.5,-213.7 139.5,-194.7 26.5,-194.7"/>
<text text-anchor="start" x="29.5" y="-200.8" font-family="Helvetica,sans-Serif" font-size="11.00" fill="#000000">...</text>
<polygon fill="#ffffff" stroke="transparent" points="26.5,-175.7 26.5,-194.7 59.5,-194.7 59.5,-175.7 26.5,-175.7"/>
<polygon fill="none" stroke="#000000" points="26.5,-175.7 26.5,-194.7 59.5,-194.7 59.5,-175.7 26.5,-175.7"/>
<text text-anchor="start" x="29.5" y="-181.8" font-family="Helvetica,sans-Serif" font-size="11.00" fill="#000000"> &#160;</text>
<polygon fill="#ffffff" stroke="transparent" points="59.5,-175.7 59.5,-194.7 107.5,-194.7 107.5,-175.7 59.5,-175.7"/>
<polygon fill="none" stroke="#000000" points="59.5,-175.7 59.5,-194.7 107.5,-194.7 107.5,-175.7 59.5,-175.7"/>
<text text-anchor="start" x="72.1105" y="-181.8" font-family="Helvetica,sans-Serif" font-size="11.00" fill="#000000">3 rows</text>
<polygon fill="#ffffff" stroke="transparent" points="107.5,-175.7 107.5,-194.7 139.5,-194.7 139.5,-175.7 107.5,-175.7"/>
<polygon fill="none" stroke="#000000" points="107.5,-175.7 107.5,-194.7 139.5,-194.7 139.5,-175.7 107.5,-175.7"/>
<text text-anchor="start" x="120.9053" y="-181.8" font-family="Helvetica,sans-Serif" font-size="11.00" fill="#000000">2 &gt;</text>
</a>
</g>
</g>
<!-- instance_role_permissions&#45;&gt;instance_roles -->
<g id="edge2" class="edge">
<title>instance_role_permissions:w&#45;&gt;instance_roles:e</title>
<path fill="none" stroke="#000000" d="M193.4311,-133.8027C157.0759,-152.25 193.5265,-246.7 139.5,-246.7"/>
<polygon fill="#000000" stroke="#000000" points="200.1755,-132.3664 208.7499,-134.221 204.0877,-131.5332 208,-130.7 208,-130.7 208,-130.7 204.0877,-131.5332 207.2501,-127.179 200.1755,-132.3664 200.1755,-132.3664"/>
<ellipse fill="none" stroke="#000000" cx="197.0457" cy="-133.033" rx="3.2" ry="3.2"/>
</g>
<!-- users -->
<g id="node4" class="node">
<title>users</title>
<g id="a_node4"><a xlink:href="../../tables/users.html" xlink:title="users" target="_top">
<polygon fill="#ffffff" stroke="transparent" points="299,-232.2 299,-293.2 379,-293.2 379,-232.2 299,-232.2"/>
<polygon fill="#f5f5f5" stroke="transparent" points="299,-269.7 299,-292.7 379,-292.7 379,-269.7 299,-269.7"/>
<polygon fill="none" stroke="#000000" points="299,-269.7 299,-292.7 379,-292.7 379,-269.7 299,-269.7"/>
<text text-anchor="start" x="304" y="-278.8" font-family="Helvetica,sans-Serif" font-weight="bold" font-size="11.00" fill="#000000">users</text>
<text text-anchor="start" x="344.0437" y="-277.8" font-family="Helvetica,sans-Serif" font-size="11.00" fill="#000000">[table]</text>
<polygon fill="none" stroke="#000000" points="299,-250.7 299,-269.7 379,-269.7 379,-250.7 299,-250.7"/>
<text text-anchor="start" x="302" y="-256.8" font-family="Helvetica,sans-Serif" font-size="11.00" fill="#000000">...</text>
<polygon fill="#ffffff" stroke="transparent" points="299,-231.7 299,-250.7 320,-250.7 320,-231.7 299,-231.7"/>
<polygon fill="none" stroke="#000000" points="299,-231.7 299,-250.7 320,-250.7 320,-231.7 299,-231.7"/>
<text text-anchor="start" x="301.7027" y="-237.8" font-family="Helvetica,sans-Serif" font-size="11.00" fill="#000000">&lt; 1</text>
<polygon fill="#ffffff" stroke="transparent" points="320,-231.7 320,-250.7 358,-250.7 358,-231.7 320,-231.7"/>
<polygon fill="none" stroke="#000000" points="320,-231.7 320,-250.7 358,-250.7 358,-231.7 320,-231.7"/>
<text text-anchor="start" x="322.8053" y="-237.8" font-family="Helvetica,sans-Serif" font-size="11.00" fill="#000000">0 rows</text>
<polygon fill="#ffffff" stroke="transparent" points="358,-231.7 358,-250.7 379,-250.7 379,-231.7 358,-231.7"/>
<polygon fill="none" stroke="#000000" points="358,-231.7 358,-250.7 379,-250.7 379,-231.7 358,-231.7"/>
<text text-anchor="start" x="360.7027" y="-237.8" font-family="Helvetica,sans-Serif" font-size="11.00" fill="#000000">4 &gt;</text>
</a>
</g>
</g>
<!-- users&#45;&gt;instance_roles -->
<g id="edge3" class="edge">
<title>users:w&#45;&gt;instance_roles:e</title>
<path fill="none" stroke="#000000" d="M284.3839,-259.5061C225.1012,-257.889 205.4841,-246.7 139.5,-246.7"/>
<polygon fill="#000000" stroke="#000000" points="291.0007,-259.5938 298.9522,-263.2997 295.0004,-259.6469 299,-259.7 299,-259.7 299,-259.7 295.0004,-259.6469 299.0478,-256.1003 291.0007,-259.5938 291.0007,-259.5938"/>
<ellipse fill="none" stroke="#000000" cx="287.801" cy="-259.5514" rx="3.2" ry="3.2"/>
</g>
</g>
</svg>
