<?xml version="1.0" encoding="UTF-8" standalone="no"?>
<!DOCTYPE svg PUBLIC "-//W3C//DTD SVG 1.1//EN"
 "http://www.w3.org/Graphics/SVG/1.1/DTD/svg11.dtd">
<!-- Generated by graphviz version 2.40.1 (20161225.0304)
 -->
<!-- Title: twoDegreesRelationshipsDiagram Pages: 1 -->
<svg width="612pt" height="425pt"
 viewBox="0.00 0.00 612.00 425.20" xmlns="http://www.w3.org/2000/svg" xmlns:xlink="http://www.w3.org/1999/xlink">
<g id="graph0" class="graph" transform="scale(1 1) rotate(0) translate(4 421.2)">
<title>twoDegreesRelationshipsDiagram</title>
<polygon fill="#ffffff" stroke="transparent" points="-4,4 -4,-421.2 608,-421.2 608,4 -4,4"/>
<text text-anchor="middle" x="72.4936" y="-7.3" font-family="Helvetica,sans-Serif" font-size="11.00" fill="#000000">Generated by SchemaSpy</text>
<!-- chapter_users -->
<g id="node1" class="node">
<title>chapter_users</title>
<g id="a_node1"><a xlink:href="../../tables/chapter_users.html" xlink:title="chapter_users" target="_top">
<polygon fill="#ffffff" stroke="transparent" points="484,-352.2 484,-413.2 596,-413.2 596,-352.2 484,-352.2"/>
<polygon fill="#f5f5f5" stroke="transparent" points="484,-389.7 484,-412.7 596,-412.7 596,-389.7 484,-389.7"/>
<polygon fill="none" stroke="#000000" points="484,-389.7 484,-412.7 596,-412.7 596,-389.7 484,-389.7"/>
<text text-anchor="start" x="488.6575" y="-398.8" font-family="Helvetica,sans-Serif" font-weight="bold" font-size="11.00" fill="#000000">chapter_users</text>
<text text-anchor="start" x="561.5219" y="-397.8" font-family="Helvetica,sans-Serif" font-size="11.00" fill="#000000">[table]</text>
<polygon fill="none" stroke="#000000" points="484,-370.7 484,-389.7 596,-389.7 596,-370.7 484,-370.7"/>
<text text-anchor="start" x="487" y="-376.8" font-family="Helvetica,sans-Serif" font-size="11.00" fill="#000000">...</text>
<polygon fill="#ffffff" stroke="transparent" points="484,-351.7 484,-370.7 525,-370.7 525,-351.7 484,-351.7"/>
<polygon fill="none" stroke="#000000" points="484,-351.7 484,-370.7 525,-370.7 525,-351.7 484,-351.7"/>
<text text-anchor="start" x="487" y="-357.8" font-family="Helvetica,sans-Serif" font-size="11.00" fill="#000000">&lt; 3</text>
<polygon fill="#ffffff" stroke="transparent" points="525,-351.7 525,-370.7 573,-370.7 573,-351.7 525,-351.7"/>
<polygon fill="none" stroke="#000000" points="525,-351.7 525,-370.7 573,-370.7 573,-351.7 525,-351.7"/>
<text text-anchor="start" x="537.6105" y="-357.8" font-family="Helvetica,sans-Serif" font-size="11.00" fill="#000000">0 rows</text>
<polygon fill="#ffffff" stroke="transparent" points="573,-351.7 573,-370.7 596,-370.7 596,-351.7 573,-351.7"/>
<polygon fill="none" stroke="#000000" points="573,-351.7 573,-370.7 596,-370.7 596,-351.7 573,-351.7"/>
<text text-anchor="start" x="586.8862" y="-357.8" font-family="Helvetica,sans-Serif" font-size="11.00" fill="#000000"> &#160;</text>
</a>
</g>
</g>
<!-- users -->
<g id="node2" class="node">
<title>users</title>
<g id="a_node2"><a xlink:href="../../tables/users.html" xlink:title="users" target="_top">
<polygon fill="#ffffff" stroke="transparent" points="288,-164.2 288,-291.2 404,-291.2 404,-164.2 288,-164.2"/>
<polygon fill="#f5f5f5" stroke="transparent" points="288,-267.7 288,-290.7 404,-290.7 404,-267.7 288,-267.7"/>
<polygon fill="none" stroke="#000000" points="288,-267.7 288,-290.7 404,-290.7 404,-267.7 288,-267.7"/>
<text text-anchor="start" x="293" y="-276.8" font-family="Helvetica,sans-Serif" font-weight="bold" font-size="11.00" fill="#000000">users</text>
<text text-anchor="start" x="369.0437" y="-275.8" font-family="Helvetica,sans-Serif" font-size="11.00" fill="#000000">[table]</text>
<polygon fill="none" stroke="#000000" points="288,-245.7 288,-267.7 404,-267.7 404,-245.7 288,-245.7"/>
<image xlink:href="../../images/primaryKeys.png" width="11px" height="12px" preserveAspectRatio="xMinYMin meet" x="293" y="-262.7"/>
<text text-anchor="start" x="308" y="-252.8" font-family="Helvetica,sans-Serif" font-size="11.00" fill="#000000">id</text>
<polygon fill="#ffffff" stroke="transparent" points="288,-223.7 288,-245.7 404,-245.7 404,-223.7 288,-223.7"/>
<polygon fill="none" stroke="#000000" points="288,-223.7 288,-245.7 404,-245.7 404,-223.7 288,-223.7"/>
<text text-anchor="start" x="308" y="-230.8" font-family="Helvetica,sans-Serif" font-size="11.00" fill="#000000">email</text>
<polygon fill="none" stroke="#000000" points="288,-201.7 288,-223.7 404,-223.7 404,-201.7 288,-201.7"/>
<image xlink:href="../../images/foreignKeys.png" width="11px" height="12px" preserveAspectRatio="xMinYMin meet" x="293" y="-218.7"/>
<text text-anchor="start" x="308" y="-208.8" font-family="Helvetica,sans-Serif" font-size="11.00" fill="#000000">instance_role_id</text>
<polygon fill="none" stroke="#000000" points="288,-182.7 288,-201.7 404,-201.7 404,-182.7 288,-182.7"/>
<text text-anchor="start" x="291" y="-188.8" font-family="Helvetica,sans-Serif" font-size="11.00" fill="#000000">...</text>
<polygon fill="#ffffff" stroke="transparent" points="288,-163.7 288,-182.7 327,-182.7 327,-163.7 288,-163.7"/>
<polygon fill="none" stroke="#000000" points="288,-163.7 288,-182.7 327,-182.7 327,-163.7 288,-163.7"/>
<text text-anchor="start" x="291" y="-169.8" font-family="Helvetica,sans-Serif" font-size="11.00" fill="#000000">&lt; 1</text>
<polygon fill="#ffffff" stroke="transparent" points="327,-163.7 327,-182.7 374,-182.7 374,-163.7 327,-163.7"/>
<polygon fill="none" stroke="#000000" points="327,-163.7 327,-182.7 374,-182.7 374,-163.7 327,-163.7"/>
<text text-anchor="start" x="338.6105" y="-169.8" font-family="Helvetica,sans-Serif" font-size="11.00" fill="#000000">0 rows</text>
<polygon fill="#ffffff" stroke="transparent" points="374,-163.7 374,-182.7 404,-182.7 404,-163.7 374,-163.7"/>
<polygon fill="none" stroke="#000000" points="374,-163.7 374,-182.7 404,-182.7 404,-163.7 374,-163.7"/>
<text text-anchor="start" x="385.4053" y="-169.8" font-family="Helvetica,sans-Serif" font-size="11.00" fill="#000000">4 &gt;</text>
</a>
</g>
</g>
<!-- chapter_users&#45;&gt;users -->
<g id="edge1" class="edge">
<title>chapter_users:w&#45;&gt;users:e</title>
<path fill="none" stroke="#000000" d="M469.6027,-377.131C426.6004,-359.4678 463.6081,-256.7 404,-256.7"/>
<polygon fill="#000000" stroke="#000000" points="476.1244,-378.2946 483.3676,-383.244 480.0622,-378.9973 484,-379.7 484,-379.7 484,-379.7 480.0622,-378.9973 484.6324,-376.156 476.1244,-378.2946 476.1244,-378.2946"/>
<ellipse fill="none" stroke="#000000" cx="472.9742" cy="-377.7325" rx="3.2" ry="3.2"/>
</g>
<!-- instance_roles -->
<g id="node6" class="node">
<title>instance_roles</title>
<g id="a_node6"><a xlink:href="../../tables/instance_roles.html" xlink:title="instance_roles" target="_top">
<polygon fill="#ffffff" stroke="transparent" points="8,-149.7 8,-283.7 208,-283.7 208,-149.7 8,-149.7"/>
<polygon fill="#f5f5f5" stroke="transparent" points="10,-258.7 10,-281.7 206,-281.7 206,-258.7 10,-258.7"/>
<polygon fill="none" stroke="#000000" points="10,-258.7 10,-281.7 206,-281.7 206,-258.7 10,-258.7"/>
<text text-anchor="start" x="15" y="-267.8" font-family="Helvetica,sans-Serif" font-weight="bold" font-size="11.00" fill="#000000">instance_roles</text>
<text text-anchor="start" x="171.0437" y="-266.8" font-family="Helvetica,sans-Serif" font-size="11.00" fill="#000000">[table]</text>
<polygon fill="none" stroke="#000000" points="10,-236.7 10,-258.7 116,-258.7 116,-236.7 10,-236.7"/>
<text text-anchor="start" x="30" y="-243.8" font-family="Helvetica,sans-Serif" font-size="11.00" fill="#000000">created_at</text>
<polygon fill="none" stroke="#000000" points="116,-236.7 116,-258.7 206,-258.7 206,-236.7 116,-236.7"/>
<text text-anchor="start" x="119" y="-244.4" font-family="Helvetica,sans-Serif" font-size="11.00" fill="#000000">timestamp[26,3]</text>
<polygon fill="none" stroke="#000000" points="10,-214.7 10,-236.7 116,-236.7 116,-214.7 10,-214.7"/>
<text text-anchor="start" x="30" y="-221.8" font-family="Helvetica,sans-Serif" font-size="11.00" fill="#000000">updated_at</text>
<polygon fill="none" stroke="#000000" points="116,-214.7 116,-236.7 206,-236.7 206,-214.7 116,-214.7"/>
<text text-anchor="start" x="119" y="-222.4" font-family="Helvetica,sans-Serif" font-size="11.00" fill="#000000">timestamp[26,3]</text>
<polygon fill="none" stroke="#000000" points="10,-192.7 10,-214.7 116,-214.7 116,-192.7 10,-192.7"/>
<image xlink:href="../../images/primaryKeys.png" width="11px" height="12px" preserveAspectRatio="xMinYMin meet" x="15" y="-209.7"/>
<text text-anchor="start" x="30" y="-199.8" font-family="Helvetica,sans-Serif" font-size="11.00" fill="#000000">id</text>
<polygon fill="none" stroke="#000000" points="116,-192.7 116,-214.7 206,-214.7 206,-192.7 116,-192.7"/>
<text text-anchor="start" x="119" y="-200.4" font-family="Helvetica,sans-Serif" font-size="11.00" fill="#000000">serial[10]</text>
<polygon fill="#ffffff" stroke="transparent" points="10,-170.7 10,-192.7 116,-192.7 116,-170.7 10,-170.7"/>
<polygon fill="none" stroke="#000000" points="10,-170.7 10,-192.7 116,-192.7 116,-170.7 10,-170.7"/>
<text text-anchor="start" x="30" y="-177.8" font-family="Helvetica,sans-Serif" font-size="11.00" fill="#000000">name</text>
<polygon fill="none" stroke="#000000" points="116,-170.7 116,-192.7 206,-192.7 206,-170.7 116,-170.7"/>
<text text-anchor="start" x="118.5042" y="-178.4" font-family="Helvetica,sans-Serif" font-size="11.00" fill="#000000">text[2147483647]</text>
<polygon fill="#ffffff" stroke="transparent" points="10,-151.7 10,-170.7 54,-170.7 54,-151.7 10,-151.7"/>
<polygon fill="none" stroke="#000000" points="10,-151.7 10,-170.7 54,-170.7 54,-151.7 10,-151.7"/>
<text text-anchor="start" x="13" y="-157.8" font-family="Helvetica,sans-Serif" font-size="11.00" fill="#000000">&lt; 0</text>
<polygon fill="#ffffff" stroke="transparent" points="54,-151.7 54,-170.7 116,-170.7 116,-151.7 54,-151.7"/>
<polygon fill="none" stroke="#000000" points="54,-151.7 54,-170.7 116,-170.7 116,-151.7 54,-151.7"/>
<text text-anchor="start" x="80.6105" y="-157.8" font-family="Helvetica,sans-Serif" font-size="11.00" fill="#000000">3 rows</text>
<polygon fill="#ffffff" stroke="transparent" points="116,-151.7 116,-170.7 206,-170.7 206,-151.7 116,-151.7"/>
<polygon fill="none" stroke="#000000" points="116,-151.7 116,-170.7 206,-170.7 206,-151.7 116,-151.7"/>
<text text-anchor="start" x="187.4053" y="-157.8" font-family="Helvetica,sans-Serif" font-size="11.00" fill="#000000">2 &gt;</text>
<polygon fill="none" stroke="#000000" stroke-width="2" points="9,-150.7 9,-282.7 207,-282.7 207,-150.7 9,-150.7"/>
</a>
</g>
</g>
<!-- users&#45;&gt;instance_roles -->
<g id="edge7" class="edge">
<title>users:w&#45;&gt;instance_roles:e</title>
<path fill="none" stroke="#000000" d="M273.3404,-212.164C248.1451,-210.2264 237.2211,-203.7 206,-203.7"/>
<polygon fill="#000000" stroke="#000000" points="280.0053,-212.4076 287.8684,-216.2976 284.0027,-212.5538 288,-212.7 288,-212.7 288,-212.7 284.0027,-212.5538 288.1316,-209.1024 280.0053,-212.4076 280.0053,-212.4076"/>
<ellipse fill="none" stroke="#000000" cx="276.8075" cy="-212.2907" rx="3.2" ry="3.2"/>
</g>
<!-- event_users -->
<g id="node3" class="node">
<title>event_users</title>
<g id="a_node3"><a xlink:href="../../tables/event_users.html" xlink:title="event_users" target="_top">
<polygon fill="#ffffff" stroke="transparent" points="489,-270.2 489,-331.2 591,-331.2 591,-270.2 489,-270.2"/>
<polygon fill="#f5f5f5" stroke="transparent" points="489,-307.7 489,-330.7 591,-330.7 591,-307.7 489,-307.7"/>
<polygon fill="none" stroke="#000000" points="489,-307.7 489,-330.7 591,-330.7 591,-307.7 489,-307.7"/>
<text text-anchor="start" x="493.5459" y="-316.8" font-family="Helvetica,sans-Serif" font-weight="bold" font-size="11.00" fill="#000000">event_users</text>
<text text-anchor="start" x="556.5219" y="-315.8" font-family="Helvetica,sans-Serif" font-size="11.00" fill="#000000">[table]</text>
<polygon fill="none" stroke="#000000" points="489,-288.7 489,-307.7 591,-307.7 591,-288.7 489,-288.7"/>
<text text-anchor="start" x="492" y="-294.8" font-family="Helvetica,sans-Serif" font-size="11.00" fill="#000000">...</text>
<polygon fill="#ffffff" stroke="transparent" points="489,-269.7 489,-288.7 521,-288.7 521,-269.7 489,-269.7"/>
<polygon fill="none" stroke="#000000" points="489,-269.7 489,-288.7 521,-288.7 521,-269.7 489,-269.7"/>
<text text-anchor="start" x="492" y="-275.8" font-family="Helvetica,sans-Serif" font-size="11.00" fill="#000000">&lt; 4</text>
<polygon fill="#ffffff" stroke="transparent" points="521,-269.7 521,-288.7 564,-288.7 564,-269.7 521,-269.7"/>
<polygon fill="none" stroke="#000000" points="521,-269.7 521,-288.7 564,-288.7 564,-269.7 521,-269.7"/>
<text text-anchor="start" x="528.6105" y="-275.8" font-family="Helvetica,sans-Serif" font-size="11.00" fill="#000000">0 rows</text>
<polygon fill="#ffffff" stroke="transparent" points="564,-269.7 564,-288.7 591,-288.7 591,-269.7 564,-269.7"/>
<polygon fill="none" stroke="#000000" points="564,-269.7 564,-288.7 591,-288.7 591,-269.7 564,-269.7"/>
<text text-anchor="start" x="572.4053" y="-275.8" font-family="Helvetica,sans-Serif" font-size="11.00" fill="#000000">2 &gt;</text>
</a>
</g>
</g>
<!-- event_users&#45;&gt;users -->
<g id="edge2" class="edge">
<title>event_users:w&#45;&gt;users:e</title>
<path fill="none" stroke="#000000" d="M474.6403,-295.8318C446.0914,-287.811 440.5362,-256.7 404,-256.7"/>
<polygon fill="#000000" stroke="#000000" points="481.0669,-296.6678 488.5355,-301.2699 485.0334,-297.1839 489,-297.7 489,-297.7 489,-297.7 485.0334,-297.1839 489.4645,-294.1301 481.0669,-296.6678 481.0669,-296.6678"/>
<ellipse fill="none" stroke="#000000" cx="477.8936" cy="-296.255" rx="3.2" ry="3.2"/>
</g>
<!-- instance_role_permissions -->
<g id="node4" class="node">
<title>instance_role_permissions</title>
<g id="a_node4"><a xlink:href="../../tables/instance_role_permissions.html" xlink:title="instance_role_permissions" target="_top">
<polygon fill="#ffffff" stroke="transparent" points="257,-38.2 257,-143.2 435,-143.2 435,-38.2 257,-38.2"/>
<polygon fill="#f5f5f5" stroke="transparent" points="257,-119.7 257,-142.7 435,-142.7 435,-119.7 257,-119.7"/>
<polygon fill="none" stroke="#000000" points="257,-119.7 257,-142.7 435,-142.7 435,-119.7 257,-119.7"/>
<text text-anchor="start" x="262" y="-128.8" font-family="Helvetica,sans-Serif" font-weight="bold" font-size="11.00" fill="#000000">instance_role_permissions</text>
<text text-anchor="start" x="400.0437" y="-127.8" font-family="Helvetica,sans-Serif" font-size="11.00" fill="#000000">[table]</text>
<polygon fill="none" stroke="#000000" points="257,-97.7 257,-119.7 435,-119.7 435,-97.7 257,-97.7"/>
<image xlink:href="../../images/primaryKeys.png" width="11px" height="12px" preserveAspectRatio="xMinYMin meet" x="262" y="-114.7"/>
<text text-anchor="start" x="277" y="-104.8" font-family="Helvetica,sans-Serif" font-size="11.00" fill="#000000">instance_role_id</text>
<polygon fill="none" stroke="#000000" points="257,-75.7 257,-97.7 435,-97.7 435,-75.7 257,-75.7"/>
<image xlink:href="../../images/primaryKeys.png" width="11px" height="12px" preserveAspectRatio="xMinYMin meet" x="262" y="-92.7"/>
<text text-anchor="start" x="277" y="-82.8" font-family="Helvetica,sans-Serif" font-size="11.00" fill="#000000">instance_permission_id</text>
<polygon fill="none" stroke="#000000" points="257,-56.7 257,-75.7 435,-75.7 435,-56.7 257,-56.7"/>
<text text-anchor="start" x="260" y="-62.8" font-family="Helvetica,sans-Serif" font-size="11.00" fill="#000000">...</text>
<polygon fill="#ffffff" stroke="transparent" points="257,-37.7 257,-56.7 328,-56.7 328,-37.7 257,-37.7"/>
<polygon fill="none" stroke="#000000" points="257,-37.7 257,-56.7 328,-56.7 328,-37.7 257,-37.7"/>
<text text-anchor="start" x="260" y="-43.8" font-family="Helvetica,sans-Serif" font-size="11.00" fill="#000000">&lt; 2</text>
<polygon fill="#ffffff" stroke="transparent" points="328,-37.7 328,-56.7 397,-56.7 397,-37.7 328,-37.7"/>
<polygon fill="none" stroke="#000000" points="328,-37.7 328,-56.7 397,-56.7 397,-37.7 328,-37.7"/>
<text text-anchor="start" x="355.4956" y="-43.8" font-family="Helvetica,sans-Serif" font-size="11.00" fill="#000000">34 rows</text>
<polygon fill="#ffffff" stroke="transparent" points="397,-37.7 397,-56.7 435,-56.7 435,-37.7 397,-37.7"/>
<polygon fill="none" stroke="#000000" points="397,-37.7 397,-56.7 435,-56.7 435,-37.7 397,-37.7"/>
<text text-anchor="start" x="425.8862" y="-43.8" font-family="Helvetica,sans-Serif" font-size="11.00" fill="#000000"> &#160;</text>
</a>
</g>
</g>
<!-- instance_permissions -->
<g id="node5" class="node">
<title>instance_permissions</title>
<g id="a_node5"><a xlink:href="../../tables/instance_permissions.html" xlink:title="instance_permissions" target="_top">
<polygon fill="#ffffff" stroke="transparent" points="34,-59.2 34,-120.2 182,-120.2 182,-59.2 34,-59.2"/>
<polygon fill="#f5f5f5" stroke="transparent" points="34,-96.7 34,-119.7 182,-119.7 182,-96.7 34,-96.7"/>
<polygon fill="none" stroke="#000000" points="34,-96.7 34,-119.7 182,-119.7 182,-96.7 34,-96.7"/>
<text text-anchor="start" x="38.6313" y="-105.8" font-family="Helvetica,sans-Serif" font-weight="bold" font-size="11.00" fill="#000000">instance_permissions</text>
<text text-anchor="start" x="147.5219" y="-104.8" font-family="Helvetica,sans-Serif" font-size="11.00" fill="#000000">[table]</text>
<polygon fill="none" stroke="#000000" points="34,-77.7 34,-96.7 182,-96.7 182,-77.7 34,-77.7"/>
<text text-anchor="start" x="37" y="-83.8" font-family="Helvetica,sans-Serif" font-size="11.00" fill="#000000">...</text>
<polygon fill="#ffffff" stroke="transparent" points="34,-58.7 34,-77.7 81,-77.7 81,-58.7 34,-58.7"/>
<polygon fill="none" stroke="#000000" points="34,-58.7 34,-77.7 81,-77.7 81,-58.7 34,-58.7"/>
<text text-anchor="start" x="37" y="-64.8" font-family="Helvetica,sans-Serif" font-size="11.00" fill="#000000"> &#160;</text>
<polygon fill="#ffffff" stroke="transparent" points="81,-58.7 81,-77.7 143,-77.7 143,-58.7 81,-58.7"/>
<polygon fill="none" stroke="#000000" points="81,-58.7 81,-77.7 143,-77.7 143,-58.7 81,-58.7"/>
<text text-anchor="start" x="101.4956" y="-64.8" font-family="Helvetica,sans-Serif" font-size="11.00" fill="#000000">26 rows</text>
<polygon fill="#ffffff" stroke="transparent" points="143,-58.7 143,-77.7 182,-77.7 182,-58.7 143,-58.7"/>
<polygon fill="none" stroke="#000000" points="143,-58.7 143,-77.7 182,-77.7 182,-58.7 143,-58.7"/>
<text text-anchor="start" x="163.4053" y="-64.8" font-family="Helvetica,sans-Serif" font-size="11.00" fill="#000000">1 &gt;</text>
</a>
</g>
</g>
<!-- instance_role_permissions&#45;&gt;instance_permissions -->
<g id="edge3" class="edge">
<title>instance_role_permissions:w&#45;&gt;instance_permissions:e</title>
<path fill="none" stroke="#000000" d="M242.3917,-86.7C220.2594,-86.7 209.8646,-86.7 182,-86.7"/>
<polygon fill="#000000" stroke="#000000" points="249,-86.7001 257,-90.3 253,-86.7 257,-86.7 257,-86.7 257,-86.7 253,-86.7 257,-83.1 249,-86.7001 249,-86.7001"/>
<ellipse fill="none" stroke="#000000" cx="245.8" cy="-86.7001" rx="3.2" ry="3.2"/>
</g>
<!-- instance_role_permissions&#45;&gt;instance_roles -->
<g id="edge4" class="edge">
<title>instance_role_permissions:w&#45;&gt;instance_roles:e</title>
<path fill="none" stroke="#000000" d="M243.0154,-112.782C218.8397,-130.9656 247.9315,-203.7 206,-203.7"/>
<polygon fill="#000000" stroke="#000000" points="249.3205,-110.9416 258.0087,-112.1558 253.1602,-109.8208 257,-108.7 257,-108.7 257,-108.7 253.1602,-109.8208 255.9913,-105.2442 249.3205,-110.9416 249.3205,-110.9416"/>
<ellipse fill="none" stroke="#000000" cx="246.2487" cy="-111.8383" rx="3.2" ry="3.2"/>
</g>
<!-- sessions -->
<g id="node7" class="node">
<title>sessions</title>
<g id="a_node7"><a xlink:href="../../tables/sessions.html" xlink:title="sessions" target="_top">
<polygon fill="#ffffff" stroke="transparent" points="497.5,-188.2 497.5,-249.2 582.5,-249.2 582.5,-188.2 497.5,-188.2"/>
<polygon fill="#f5f5f5" stroke="transparent" points="498,-225.7 498,-248.7 583,-248.7 583,-225.7 498,-225.7"/>
<polygon fill="none" stroke="#000000" points="498,-225.7 498,-248.7 583,-248.7 583,-225.7 498,-225.7"/>
<text text-anchor="start" x="502.6072" y="-234.8" font-family="Helvetica,sans-Serif" font-weight="bold" font-size="11.00" fill="#000000">sessions</text>
<text text-anchor="start" x="548.5219" y="-233.8" font-family="Helvetica,sans-Serif" font-size="11.00" fill="#000000">[table]</text>
<polygon fill="none" stroke="#000000" points="498,-206.7 498,-225.7 583,-225.7 583,-206.7 498,-206.7"/>
<text text-anchor="start" x="501" y="-212.8" font-family="Helvetica,sans-Serif" font-size="11.00" fill="#000000">...</text>
<polygon fill="#ffffff" stroke="transparent" points="498,-187.7 498,-206.7 526,-206.7 526,-187.7 498,-187.7"/>
<polygon fill="none" stroke="#000000" points="498,-187.7 498,-206.7 526,-206.7 526,-187.7 498,-187.7"/>
<text text-anchor="start" x="501" y="-193.8" font-family="Helvetica,sans-Serif" font-size="11.00" fill="#000000">&lt; 1</text>
<polygon fill="#ffffff" stroke="transparent" points="526,-187.7 526,-206.7 567,-206.7 567,-187.7 526,-187.7"/>
<polygon fill="none" stroke="#000000" points="526,-187.7 526,-206.7 567,-206.7 567,-187.7 526,-187.7"/>
<text text-anchor="start" x="531.6105" y="-193.8" font-family="Helvetica,sans-Serif" font-size="11.00" fill="#000000">0 rows</text>
<polygon fill="#ffffff" stroke="transparent" points="567,-187.7 567,-206.7 583,-206.7 583,-187.7 567,-187.7"/>
<polygon fill="none" stroke="#000000" points="567,-187.7 567,-206.7 583,-206.7 583,-187.7 567,-187.7"/>
<text text-anchor="start" x="573.8862" y="-193.8" font-family="Helvetica,sans-Serif" font-size="11.00" fill="#000000"> &#160;</text>
</a>
</g>
</g>
<!-- sessions&#45;&gt;users -->
<g id="edge5" class="edge">
<title>sessions:w&#45;&gt;users:e</title>
<path fill="none" stroke="#000000" d="M487.5989,-216.4824C451.6673,-222.1507 445.84,-256.7 404,-256.7"/>
<polygon fill="#000000" stroke="#000000" points="496.9022,-211.7713 497.5023,-219.7487 495.9068,-219.8688 495.3067,-211.8913 496.9022,-211.7713"/>
<polyline fill="none" stroke="#000000" points="498,-215.7 494.0113,-216.0001 "/>
<ellipse fill="none" stroke="#000000" cx="490.8203" cy="-216.2402" rx="3.2" ry="3.2"/>
</g>
<!-- user_bans -->
<g id="node8" class="node">
<title>user_bans</title>
<g id="a_node8"><a xlink:href="../../tables/user_bans.html" xlink:title="user_bans" target="_top">
<polygon fill="#ffffff" stroke="transparent" points="493,-106.2 493,-167.2 587,-167.2 587,-106.2 493,-106.2"/>
<polygon fill="#f5f5f5" stroke="transparent" points="493,-143.7 493,-166.7 587,-166.7 587,-143.7 493,-143.7"/>
<polygon fill="none" stroke="#000000" points="493,-143.7 493,-166.7 587,-166.7 587,-143.7 493,-143.7"/>
<text text-anchor="start" x="497.8244" y="-152.8" font-family="Helvetica,sans-Serif" font-weight="bold" font-size="11.00" fill="#000000">user_bans</text>
<text text-anchor="start" x="552.5219" y="-151.8" font-family="Helvetica,sans-Serif" font-size="11.00" fill="#000000">[table]</text>
<polygon fill="none" stroke="#000000" points="493,-124.7 493,-143.7 587,-143.7 587,-124.7 493,-124.7"/>
<text text-anchor="start" x="496" y="-130.8" font-family="Helvetica,sans-Serif" font-size="11.00" fill="#000000">...</text>
<polygon fill="#ffffff" stroke="transparent" points="493,-105.7 493,-124.7 525,-124.7 525,-105.7 493,-105.7"/>
<polygon fill="none" stroke="#000000" points="493,-105.7 493,-124.7 525,-124.7 525,-105.7 493,-105.7"/>
<text text-anchor="start" x="496" y="-111.8" font-family="Helvetica,sans-Serif" font-size="11.00" fill="#000000">&lt; 2</text>
<polygon fill="#ffffff" stroke="transparent" points="525,-105.7 525,-124.7 569,-124.7 569,-105.7 525,-105.7"/>
<polygon fill="none" stroke="#000000" points="525,-105.7 525,-124.7 569,-124.7 569,-105.7 525,-105.7"/>
<text text-anchor="start" x="533.6105" y="-111.8" font-family="Helvetica,sans-Serif" font-size="11.00" fill="#000000">0 rows</text>
<polygon fill="#ffffff" stroke="transparent" points="569,-105.7 569,-124.7 587,-124.7 587,-105.7 569,-105.7"/>
<polygon fill="none" stroke="#000000" points="569,-105.7 569,-124.7 587,-124.7 587,-105.7 569,-105.7"/>
<text text-anchor="start" x="577.8862" y="-111.8" font-family="Helvetica,sans-Serif" font-size="11.00" fill="#000000"> &#160;</text>
</a>
</g>
</g>
<!-- user_bans&#45;&gt;users -->
<g id="edge6" class="edge">
<title>user_bans:w&#45;&gt;users:e</title>
<path fill="none" stroke="#000000" d="M478.5591,-136.0473C432.2993,-153.052 465.9414,-256.7 404,-256.7"/>
<polygon fill="#000000" stroke="#000000" points="485.1036,-134.9835 493.5776,-137.2534 489.0518,-134.3418 493,-133.7 493,-133.7 493,-133.7 489.0518,-134.3418 492.4224,-130.1466 485.1036,-134.9835 485.1036,-134.9835"/>
<ellipse fill="none" stroke="#000000" cx="481.9451" cy="-135.497" rx="3.2" ry="3.2"/>
</g>
</g>
</svg>
