<?xml version="1.0" encoding="UTF-8" standalone="no"?>
<!DOCTYPE svg PUBLIC "-//W3C//DTD SVG 1.1//EN"
 "http://www.w3.org/Graphics/SVG/1.1/DTD/svg11.dtd">
<!-- Generated by graphviz version 2.40.1 (20161225.0304)
 -->
<!-- Title: twoDegreesRelationshipsDiagram Pages: 1 -->
<svg width="731pt" height="619pt"
 viewBox="0.00 0.00 731.00 618.70" xmlns="http://www.w3.org/2000/svg" xmlns:xlink="http://www.w3.org/1999/xlink">
<g id="graph0" class="graph" transform="scale(1 1) rotate(0) translate(4 614.7)">
<title>twoDegreesRelationshipsDiagram</title>
<polygon fill="#ffffff" stroke="transparent" points="-4,4 -4,-614.7 727,-614.7 727,4 -4,4"/>
<text text-anchor="middle" x="72.4936" y="-7.3" font-family="Helvetica,sans-Serif" font-size="11.00" fill="#000000">Generated by SchemaSpy</text>
<!-- chapters -->
<g id="node1" class="node">
<title>chapters</title>
<g id="a_node1"><a xlink:href="../../tables/chapters.html" xlink:title="chapters" target="_top">
<polygon fill="#ffffff" stroke="transparent" points="182,-405.7 182,-466.7 267,-466.7 267,-405.7 182,-405.7"/>
<polygon fill="#f5f5f5" stroke="transparent" points="182.5,-443.2 182.5,-466.2 267.5,-466.2 267.5,-443.2 182.5,-443.2"/>
<polygon fill="none" stroke="#000000" points="182.5,-443.2 182.5,-466.2 267.5,-466.2 267.5,-443.2 182.5,-443.2"/>
<text text-anchor="start" x="187.4108" y="-452.3" font-family="Helvetica,sans-Serif" font-weight="bold" font-size="11.00" fill="#000000">chapters</text>
<text text-anchor="start" x="233.0219" y="-451.3" font-family="Helvetica,sans-Serif" font-size="11.00" fill="#000000">[table]</text>
<polygon fill="none" stroke="#000000" points="182.5,-424.2 182.5,-443.2 267.5,-443.2 267.5,-424.2 182.5,-424.2"/>
<text text-anchor="start" x="185.5" y="-430.3" font-family="Helvetica,sans-Serif" font-size="11.00" fill="#000000">...</text>
<polygon fill="#ffffff" stroke="transparent" points="182.5,-405.2 182.5,-424.2 205.5,-424.2 205.5,-405.2 182.5,-405.2"/>
<polygon fill="none" stroke="#000000" points="182.5,-405.2 182.5,-424.2 205.5,-424.2 205.5,-405.2 182.5,-405.2"/>
<text text-anchor="start" x="185.5" y="-411.3" font-family="Helvetica,sans-Serif" font-size="11.00" fill="#000000">&lt; 1</text>
<polygon fill="#ffffff" stroke="transparent" points="205.5,-405.2 205.5,-424.2 244.5,-424.2 244.5,-405.2 205.5,-405.2"/>
<polygon fill="none" stroke="#000000" points="205.5,-405.2 205.5,-424.2 244.5,-424.2 244.5,-405.2 205.5,-405.2"/>
<text text-anchor="start" x="209.1105" y="-411.3" font-family="Helvetica,sans-Serif" font-size="11.00" fill="#000000">4 rows</text>
<polygon fill="#ffffff" stroke="transparent" points="244.5,-405.2 244.5,-424.2 267.5,-424.2 267.5,-405.2 244.5,-405.2"/>
<polygon fill="none" stroke="#000000" points="244.5,-405.2 244.5,-424.2 267.5,-424.2 267.5,-405.2 244.5,-405.2"/>
<text text-anchor="start" x="248.9053" y="-411.3" font-family="Helvetica,sans-Serif" font-size="11.00" fill="#000000">4 &gt;</text>
</a>
</g>
</g>
<!-- users -->
<g id="node2" class="node">
<title>users</title>
<g id="a_node2"><a xlink:href="../../tables/users.html" xlink:title="users" target="_top">
<polygon fill="#ffffff" stroke="transparent" points="8,-358.7 8,-441.7 105,-441.7 105,-358.7 8,-358.7"/>
<polygon fill="#f5f5f5" stroke="transparent" points="8.5,-418.2 8.5,-441.2 105.5,-441.2 105.5,-418.2 8.5,-418.2"/>
<polygon fill="none" stroke="#000000" points="8.5,-418.2 8.5,-441.2 105.5,-441.2 105.5,-418.2 8.5,-418.2"/>
<text text-anchor="start" x="13.5" y="-427.3" font-family="Helvetica,sans-Serif" font-weight="bold" font-size="11.00" fill="#000000">users</text>
<text text-anchor="start" x="70.5437" y="-426.3" font-family="Helvetica,sans-Serif" font-size="11.00" fill="#000000">[table]</text>
<polygon fill="none" stroke="#000000" points="8.5,-396.2 8.5,-418.2 105.5,-418.2 105.5,-396.2 8.5,-396.2"/>
<image xlink:href="../../images/primaryKeys.png" width="11px" height="12px" preserveAspectRatio="xMinYMin meet" x="13.5" y="-413.2"/>
<text text-anchor="start" x="28.5" y="-403.3" font-family="Helvetica,sans-Serif" font-size="11.00" fill="#000000">id</text>
<polygon fill="none" stroke="#000000" points="8.5,-377.2 8.5,-396.2 105.5,-396.2 105.5,-377.2 8.5,-377.2"/>
<text text-anchor="start" x="11.5" y="-383.3" font-family="Helvetica,sans-Serif" font-size="11.00" fill="#000000">...</text>
<polygon fill="#ffffff" stroke="transparent" points="8.5,-358.2 8.5,-377.2 36.5,-377.2 36.5,-358.2 8.5,-358.2"/>
<polygon fill="none" stroke="#000000" points="8.5,-358.2 8.5,-377.2 36.5,-377.2 36.5,-358.2 8.5,-358.2"/>
<text text-anchor="start" x="11.5" y="-364.3" font-family="Helvetica,sans-Serif" font-size="11.00" fill="#000000"> &#160;</text>
<polygon fill="#ffffff" stroke="transparent" points="36.5,-358.2 36.5,-377.2 76.5,-377.2 76.5,-358.2 36.5,-358.2"/>
<polygon fill="none" stroke="#000000" points="36.5,-358.2 36.5,-377.2 76.5,-377.2 76.5,-358.2 36.5,-358.2"/>
<text text-anchor="start" x="46.6105" y="-364.3" font-family="Helvetica,sans-Serif" font-size="11.00" fill="#000000">1 row</text>
<polygon fill="#ffffff" stroke="transparent" points="76.5,-358.2 76.5,-377.2 105.5,-377.2 105.5,-358.2 76.5,-358.2"/>
<polygon fill="none" stroke="#000000" points="76.5,-358.2 76.5,-377.2 105.5,-377.2 105.5,-358.2 76.5,-358.2"/>
<text text-anchor="start" x="86.9053" y="-364.3" font-family="Helvetica,sans-Serif" font-size="11.00" fill="#000000">6 &gt;</text>
</a>
</g>
</g>
<!-- chapters&#45;&gt;users -->
<g id="edge1" class="edge">
<title>chapters:w&#45;&gt;users:e</title>
<path fill="none" stroke="#000000" d="M167.9536,-431.5736C144.2016,-425.8815 136.1178,-407.2 105.5,-407.2"/>
<polygon fill="#000000" stroke="#000000" points="174.5495,-432.311 182.1,-436.7777 178.5248,-432.7555 182.5,-433.2 182.5,-433.2 182.5,-433.2 178.5248,-432.7555 182.9,-429.6223 174.5495,-432.311 174.5495,-432.311"/>
<ellipse fill="none" stroke="#000000" cx="171.3694" cy="-431.9554" rx="3.2" ry="3.2"/>
</g>
<!-- event_sponsors -->
<g id="node3" class="node">
<title>event_sponsors</title>
<g id="a_node3"><a xlink:href="../../tables/event_sponsors.html" xlink:title="event_sponsors" target="_top">
<polygon fill="#ffffff" stroke="transparent" points="562.5,-385.7 562.5,-446.7 682.5,-446.7 682.5,-385.7 562.5,-385.7"/>
<polygon fill="#f5f5f5" stroke="transparent" points="562.5,-423.2 562.5,-446.2 682.5,-446.2 682.5,-423.2 562.5,-423.2"/>
<polygon fill="none" stroke="#000000" points="562.5,-423.2 562.5,-446.2 682.5,-446.2 682.5,-423.2 562.5,-423.2"/>
<text text-anchor="start" x="567.181" y="-432.3" font-family="Helvetica,sans-Serif" font-weight="bold" font-size="11.00" fill="#000000">event_sponsors</text>
<text text-anchor="start" x="648.0219" y="-431.3" font-family="Helvetica,sans-Serif" font-size="11.00" fill="#000000">[table]</text>
<polygon fill="none" stroke="#000000" points="562.5,-404.2 562.5,-423.2 682.5,-423.2 682.5,-404.2 562.5,-404.2"/>
<text text-anchor="start" x="565.5" y="-410.3" font-family="Helvetica,sans-Serif" font-size="11.00" fill="#000000">...</text>
<polygon fill="#ffffff" stroke="transparent" points="562.5,-385.2 562.5,-404.2 607.5,-404.2 607.5,-385.2 562.5,-385.2"/>
<polygon fill="none" stroke="#000000" points="562.5,-385.2 562.5,-404.2 607.5,-404.2 607.5,-385.2 562.5,-385.2"/>
<text text-anchor="start" x="565.5" y="-391.3" font-family="Helvetica,sans-Serif" font-size="11.00" fill="#000000">&lt; 2</text>
<polygon fill="#ffffff" stroke="transparent" points="607.5,-385.2 607.5,-404.2 657.5,-404.2 657.5,-385.2 607.5,-385.2"/>
<polygon fill="none" stroke="#000000" points="607.5,-385.2 607.5,-404.2 657.5,-404.2 657.5,-385.2 607.5,-385.2"/>
<text text-anchor="start" x="622.1105" y="-391.3" font-family="Helvetica,sans-Serif" font-size="11.00" fill="#000000">8 rows</text>
<polygon fill="#ffffff" stroke="transparent" points="657.5,-385.2 657.5,-404.2 682.5,-404.2 682.5,-385.2 657.5,-385.2"/>
<polygon fill="none" stroke="#000000" points="657.5,-385.2 657.5,-404.2 682.5,-404.2 682.5,-385.2 657.5,-385.2"/>
<text text-anchor="start" x="673.3862" y="-391.3" font-family="Helvetica,sans-Serif" font-size="11.00" fill="#000000"> &#160;</text>
</a>
</g>
</g>
<!-- events -->
<g id="node4" class="node">
<title>events</title>
<g id="a_node4"><a xlink:href="../../tables/events.html" xlink:title="events" target="_top">
<polygon fill="#ffffff" stroke="transparent" points="363.5,-233.7 363.5,-360.7 461.5,-360.7 461.5,-233.7 363.5,-233.7"/>
<polygon fill="#f5f5f5" stroke="transparent" points="363.5,-337.2 363.5,-360.2 461.5,-360.2 461.5,-337.2 363.5,-337.2"/>
<polygon fill="none" stroke="#000000" points="363.5,-337.2 363.5,-360.2 461.5,-360.2 461.5,-337.2 363.5,-337.2"/>
<text text-anchor="start" x="368.5" y="-346.3" font-family="Helvetica,sans-Serif" font-weight="bold" font-size="11.00" fill="#000000">events</text>
<text text-anchor="start" x="426.5437" y="-345.3" font-family="Helvetica,sans-Serif" font-size="11.00" fill="#000000">[table]</text>
<polygon fill="none" stroke="#000000" points="363.5,-315.2 363.5,-337.2 461.5,-337.2 461.5,-315.2 363.5,-315.2"/>
<image xlink:href="../../images/primaryKeys.png" width="11px" height="12px" preserveAspectRatio="xMinYMin meet" x="368.5" y="-332.2"/>
<text text-anchor="start" x="383.5" y="-322.3" font-family="Helvetica,sans-Serif" font-size="11.00" fill="#000000">id</text>
<polygon fill="none" stroke="#000000" points="363.5,-293.2 363.5,-315.2 461.5,-315.2 461.5,-293.2 363.5,-293.2"/>
<image xlink:href="../../images/foreignKeys.png" width="11px" height="12px" preserveAspectRatio="xMinYMin meet" x="368.5" y="-310.2"/>
<text text-anchor="start" x="383.5" y="-300.3" font-family="Helvetica,sans-Serif" font-size="11.00" fill="#000000">venue_id</text>
<polygon fill="none" stroke="#000000" points="363.5,-271.2 363.5,-293.2 461.5,-293.2 461.5,-271.2 363.5,-271.2"/>
<image xlink:href="../../images/foreignKeys.png" width="11px" height="12px" preserveAspectRatio="xMinYMin meet" x="368.5" y="-288.2"/>
<text text-anchor="start" x="383.5" y="-278.3" font-family="Helvetica,sans-Serif" font-size="11.00" fill="#000000">chapter_id</text>
<polygon fill="none" stroke="#000000" points="363.5,-252.2 363.5,-271.2 461.5,-271.2 461.5,-252.2 363.5,-252.2"/>
<text text-anchor="start" x="366.5" y="-258.3" font-family="Helvetica,sans-Serif" font-size="11.00" fill="#000000">...</text>
<polygon fill="#ffffff" stroke="transparent" points="363.5,-233.2 363.5,-252.2 393.5,-252.2 393.5,-233.2 363.5,-233.2"/>
<polygon fill="none" stroke="#000000" points="363.5,-233.2 363.5,-252.2 393.5,-252.2 393.5,-233.2 363.5,-233.2"/>
<text text-anchor="start" x="366.5" y="-239.3" font-family="Helvetica,sans-Serif" font-size="11.00" fill="#000000">&lt; 2</text>
<polygon fill="#ffffff" stroke="transparent" points="393.5,-233.2 393.5,-252.2 435.5,-252.2 435.5,-233.2 393.5,-233.2"/>
<polygon fill="none" stroke="#000000" points="393.5,-233.2 393.5,-252.2 435.5,-252.2 435.5,-233.2 393.5,-233.2"/>
<text text-anchor="start" x="400.1105" y="-239.3" font-family="Helvetica,sans-Serif" font-size="11.00" fill="#000000">4 rows</text>
<polygon fill="#ffffff" stroke="transparent" points="435.5,-233.2 435.5,-252.2 461.5,-252.2 461.5,-233.2 435.5,-233.2"/>
<polygon fill="none" stroke="#000000" points="435.5,-233.2 435.5,-252.2 461.5,-252.2 461.5,-233.2 435.5,-233.2"/>
<text text-anchor="start" x="442.9053" y="-239.3" font-family="Helvetica,sans-Serif" font-size="11.00" fill="#000000">3 &gt;</text>
</a>
</g>
</g>
<!-- event_sponsors&#45;&gt;events -->
<g id="edge2" class="edge">
<title>event_sponsors:w&#45;&gt;events:e</title>
<path fill="none" stroke="#000000" d="M548.0054,-411.1352C505.8186,-397.9605 515.3077,-326.2 461.5,-326.2"/>
<polygon fill="#000000" stroke="#000000" points="554.58,-412.0717 561.9923,-416.764 558.54,-412.6359 562.5,-413.2 562.5,-413.2 562.5,-413.2 558.54,-412.6359 563.0077,-409.636 554.58,-412.0717 554.58,-412.0717"/>
<ellipse fill="none" stroke="#000000" cx="551.4119" cy="-411.6204" rx="3.2" ry="3.2"/>
</g>
<!-- events&#45;&gt;chapters -->
<g id="edge3" class="edge">
<title>events:w&#45;&gt;chapters:e</title>
<path fill="none" stroke="#000000" d="M349.0987,-284.2204C291.9283,-302.1389 341.5894,-433.2 267.5,-433.2"/>
<polygon fill="#000000" stroke="#000000" points="355.5776,-283.3115 364.0002,-285.7651 359.5388,-282.7558 363.5,-282.2 363.5,-282.2 363.5,-282.2 359.5388,-282.7558 362.9998,-278.6349 355.5776,-283.3115 355.5776,-283.3115"/>
<ellipse fill="none" stroke="#000000" cx="352.4086" cy="-283.7561" rx="3.2" ry="3.2"/>
</g>
<!-- venues -->
<g id="node5" class="node">
<title>venues</title>
<g id="a_node5"><a xlink:href="../../tables/venues.html" xlink:title="venues" target="_top">
<polygon fill="#ffffff" stroke="transparent" points="185.5,-286.7 185.5,-347.7 263.5,-347.7 263.5,-286.7 185.5,-286.7"/>
<polygon fill="#f5f5f5" stroke="transparent" points="185.5,-324.2 185.5,-347.2 263.5,-347.2 263.5,-324.2 185.5,-324.2"/>
<polygon fill="none" stroke="#000000" points="185.5,-324.2 185.5,-347.2 263.5,-347.2 263.5,-324.2 185.5,-324.2"/>
<text text-anchor="start" x="190.2702" y="-333.3" font-family="Helvetica,sans-Serif" font-weight="bold" font-size="11.00" fill="#000000">venues</text>
<text text-anchor="start" x="229.0219" y="-332.3" font-family="Helvetica,sans-Serif" font-size="11.00" fill="#000000">[table]</text>
<polygon fill="none" stroke="#000000" points="185.5,-305.2 185.5,-324.2 263.5,-324.2 263.5,-305.2 185.5,-305.2"/>
<text text-anchor="start" x="188.5" y="-311.3" font-family="Helvetica,sans-Serif" font-size="11.00" fill="#000000">...</text>
<polygon fill="#ffffff" stroke="transparent" points="185.5,-286.2 185.5,-305.2 200.5,-305.2 200.5,-286.2 185.5,-286.2"/>
<polygon fill="none" stroke="#000000" points="185.5,-286.2 185.5,-305.2 200.5,-305.2 200.5,-286.2 185.5,-286.2"/>
<text text-anchor="start" x="188.5" y="-292.3" font-family="Helvetica,sans-Serif" font-size="11.00" fill="#000000"> &#160;</text>
<polygon fill="#ffffff" stroke="transparent" points="200.5,-286.2 200.5,-305.2 240.5,-305.2 240.5,-286.2 200.5,-286.2"/>
<polygon fill="none" stroke="#000000" points="200.5,-286.2 200.5,-305.2 240.5,-305.2 240.5,-286.2 200.5,-286.2"/>
<text text-anchor="start" x="205.1105" y="-292.3" font-family="Helvetica,sans-Serif" font-size="11.00" fill="#000000">4 rows</text>
<polygon fill="#ffffff" stroke="transparent" points="240.5,-286.2 240.5,-305.2 263.5,-305.2 263.5,-286.2 240.5,-286.2"/>
<polygon fill="none" stroke="#000000" points="240.5,-286.2 240.5,-305.2 263.5,-305.2 263.5,-286.2 240.5,-286.2"/>
<text text-anchor="start" x="244.9053" y="-292.3" font-family="Helvetica,sans-Serif" font-size="11.00" fill="#000000">1 &gt;</text>
</a>
</g>
</g>
<!-- events&#45;&gt;venues -->
<g id="edge4" class="edge">
<title>events:w&#45;&gt;venues:e</title>
<path fill="none" stroke="#000000" d="M349.0883,-304.5798C315.8667,-306.4064 302.9318,-314.2 263.5,-314.2"/>
<polygon fill="#000000" stroke="#000000" points="355.5028,-304.4108 363.5949,-307.7988 359.5014,-304.3054 363.5,-304.2 363.5,-304.2 363.5,-304.2 359.5014,-304.3054 363.4051,-300.6012 355.5028,-304.4108 355.5028,-304.4108"/>
<ellipse fill="none" stroke="#000000" cx="352.3039" cy="-304.4951" rx="3.2" ry="3.2"/>
</g>
<!-- rsvps -->
<g id="node6" class="node">
<title>rsvps</title>
<g id="a_node6"><a xlink:href="../../tables/rsvps.html" xlink:title="rsvps" target="_top">
<polygon fill="#ffffff" stroke="transparent" points="530,-38.2 530,-282.2 715,-282.2 715,-38.2 530,-38.2"/>
<polygon fill="#f5f5f5" stroke="transparent" points="532.5,-257.2 532.5,-280.2 713.5,-280.2 713.5,-257.2 532.5,-257.2"/>
<polygon fill="none" stroke="#000000" points="532.5,-257.2 532.5,-280.2 713.5,-280.2 713.5,-257.2 532.5,-257.2"/>
<text text-anchor="start" x="537.5" y="-266.3" font-family="Helvetica,sans-Serif" font-weight="bold" font-size="11.00" fill="#000000">rsvps</text>
<text text-anchor="start" x="678.5437" y="-265.3" font-family="Helvetica,sans-Serif" font-size="11.00" fill="#000000">[table]</text>
<polygon fill="none" stroke="#000000" points="532.5,-235.2 532.5,-257.2 629.5,-257.2 629.5,-235.2 532.5,-235.2"/>
<image xlink:href="../../images/primaryKeys.png" width="11px" height="12px" preserveAspectRatio="xMinYMin meet" x="537.5" y="-252.2"/>
<text text-anchor="start" x="552.5" y="-242.3" font-family="Helvetica,sans-Serif" font-size="11.00" fill="#000000">id</text>
<polygon fill="none" stroke="#000000" points="629.5,-235.2 629.5,-257.2 713.5,-257.2 713.5,-235.2 629.5,-235.2"/>
<text text-anchor="start" x="632.5" y="-242.9" font-family="Helvetica,sans-Serif" font-size="11.00" fill="#000000">serial[10]</text>
<polygon fill="none" stroke="#000000" points="532.5,-213.2 532.5,-235.2 629.5,-235.2 629.5,-213.2 532.5,-213.2"/>
<text text-anchor="start" x="552.5" y="-220.3" font-family="Helvetica,sans-Serif" font-size="11.00" fill="#000000">date</text>
<polygon fill="none" stroke="#000000" points="629.5,-213.2 629.5,-235.2 713.5,-235.2 713.5,-213.2 629.5,-213.2"/>
<text text-anchor="start" x="632.3807" y="-220.9" font-family="Helvetica,sans-Serif" font-size="11.00" fill="#000000">timestamp[29,6]</text>
<polygon fill="none" stroke="#000000" points="532.5,-191.2 532.5,-213.2 629.5,-213.2 629.5,-191.2 532.5,-191.2"/>
<text text-anchor="start" x="552.5" y="-198.3" font-family="Helvetica,sans-Serif" font-size="11.00" fill="#000000">on_waitlist</text>
<polygon fill="none" stroke="#000000" points="629.5,-191.2 629.5,-213.2 713.5,-213.2 713.5,-191.2 629.5,-191.2"/>
<text text-anchor="start" x="632.5" y="-198.9" font-family="Helvetica,sans-Serif" font-size="11.00" fill="#000000">bool[1]</text>
<polygon fill="none" stroke="#000000" points="532.5,-169.2 532.5,-191.2 629.5,-191.2 629.5,-169.2 532.5,-169.2"/>
<image xlink:href="../../images/foreignKeys.png" width="11px" height="12px" preserveAspectRatio="xMinYMin meet" x="537.5" y="-186.2"/>
<text text-anchor="start" x="552.5" y="-176.3" font-family="Helvetica,sans-Serif" font-size="11.00" fill="#000000">event_id</text>
<polygon fill="none" stroke="#000000" points="629.5,-169.2 629.5,-191.2 713.5,-191.2 713.5,-169.2 629.5,-169.2"/>
<text text-anchor="start" x="632.5" y="-176.9" font-family="Helvetica,sans-Serif" font-size="11.00" fill="#000000">int4[10]</text>
<polygon fill="none" stroke="#000000" points="532.5,-147.2 532.5,-169.2 629.5,-169.2 629.5,-147.2 532.5,-147.2"/>
<image xlink:href="../../images/foreignKeys.png" width="11px" height="12px" preserveAspectRatio="xMinYMin meet" x="537.5" y="-164.2"/>
<text text-anchor="start" x="552.5" y="-154.3" font-family="Helvetica,sans-Serif" font-size="11.00" fill="#000000">user_id</text>
<polygon fill="none" stroke="#000000" points="629.5,-147.2 629.5,-169.2 713.5,-169.2 713.5,-147.2 629.5,-147.2"/>
<text text-anchor="start" x="632.5" y="-154.9" font-family="Helvetica,sans-Serif" font-size="11.00" fill="#000000">int4[10]</text>
<polygon fill="none" stroke="#000000" points="532.5,-125.2 532.5,-147.2 629.5,-147.2 629.5,-125.2 532.5,-125.2"/>
<text text-anchor="start" x="552.5" y="-132.3" font-family="Helvetica,sans-Serif" font-size="11.00" fill="#000000">created_at</text>
<polygon fill="none" stroke="#000000" points="629.5,-125.2 629.5,-147.2 713.5,-147.2 713.5,-125.2 629.5,-125.2"/>
<text text-anchor="start" x="632.3807" y="-132.9" font-family="Helvetica,sans-Serif" font-size="11.00" fill="#000000">timestamp[29,6]</text>
<polygon fill="none" stroke="#000000" points="532.5,-103.2 532.5,-125.2 629.5,-125.2 629.5,-103.2 532.5,-103.2"/>
<text text-anchor="start" x="552.5" y="-110.3" font-family="Helvetica,sans-Serif" font-size="11.00" fill="#000000">updated_at</text>
<polygon fill="none" stroke="#000000" points="629.5,-103.2 629.5,-125.2 713.5,-125.2 713.5,-103.2 629.5,-103.2"/>
<text text-anchor="start" x="632.3807" y="-110.9" font-family="Helvetica,sans-Serif" font-size="11.00" fill="#000000">timestamp[29,6]</text>
<polygon fill="none" stroke="#000000" points="532.5,-81.2 532.5,-103.2 629.5,-103.2 629.5,-81.2 532.5,-81.2"/>
<text text-anchor="start" x="552.5" y="-88.3" font-family="Helvetica,sans-Serif" font-size="11.00" fill="#000000">interested</text>
<polygon fill="none" stroke="#000000" points="629.5,-81.2 629.5,-103.2 713.5,-103.2 713.5,-81.2 629.5,-81.2"/>
<text text-anchor="start" x="632.5" y="-88.9" font-family="Helvetica,sans-Serif" font-size="11.00" fill="#000000">bool[1]</text>
<polygon fill="none" stroke="#000000" points="532.5,-59.2 532.5,-81.2 629.5,-81.2 629.5,-59.2 532.5,-59.2"/>
<text text-anchor="start" x="552.5" y="-66.3" font-family="Helvetica,sans-Serif" font-size="11.00" fill="#000000">canceled</text>
<polygon fill="none" stroke="#000000" points="629.5,-59.2 629.5,-81.2 713.5,-81.2 713.5,-59.2 629.5,-59.2"/>
<text text-anchor="start" x="632.5" y="-66.9" font-family="Helvetica,sans-Serif" font-size="11.00" fill="#000000">bool[1]</text>
<polygon fill="#ffffff" stroke="transparent" points="532.5,-40.2 532.5,-59.2 572.5,-59.2 572.5,-40.2 532.5,-40.2"/>
<polygon fill="none" stroke="#000000" points="532.5,-40.2 532.5,-59.2 572.5,-59.2 572.5,-40.2 532.5,-40.2"/>
<text text-anchor="start" x="535.5" y="-46.3" font-family="Helvetica,sans-Serif" font-size="11.00" fill="#000000">&lt; 2</text>
<polygon fill="#ffffff" stroke="transparent" points="572.5,-40.2 572.5,-59.2 629.5,-59.2 629.5,-40.2 572.5,-40.2"/>
<polygon fill="none" stroke="#000000" points="572.5,-40.2 572.5,-59.2 629.5,-59.2 629.5,-40.2 572.5,-40.2"/>
<text text-anchor="start" x="594.1105" y="-46.3" font-family="Helvetica,sans-Serif" font-size="11.00" fill="#000000">0 rows</text>
<polygon fill="#ffffff" stroke="transparent" points="629.5,-40.2 629.5,-59.2 713.5,-59.2 713.5,-40.2 629.5,-40.2"/>
<polygon fill="none" stroke="#000000" points="629.5,-40.2 629.5,-59.2 713.5,-59.2 713.5,-40.2 629.5,-40.2"/>
<text text-anchor="start" x="694.9053" y="-46.3" font-family="Helvetica,sans-Serif" font-size="11.00" fill="#000000">0 &gt;</text>
<polygon fill="none" stroke="#000000" stroke-width="2" points="531,-39.2 531,-281.2 714,-281.2 714,-39.2 531,-39.2"/>
</a>
</g>
</g>
<!-- rsvps&#45;&gt;users -->
<g id="edge6" class="edge">
<title>rsvps:w&#45;&gt;users:e</title>
<path fill="none" stroke="#000000" d="M518.0469,-158.0136C355.0557,-153.8227 270.0321,-81.4273 146,-194.2 74.702,-259.0257 201.8627,-407.2 105.5,-407.2"/>
<polygon fill="#000000" stroke="#000000" points="524.5007,-158.0968 532.4536,-161.7997 528.5003,-158.1484 532.5,-158.2 532.5,-158.2 532.5,-158.2 528.5003,-158.1484 532.5464,-154.6003 524.5007,-158.0968 524.5007,-158.0968"/>
<ellipse fill="none" stroke="#000000" cx="521.3009" cy="-158.0555" rx="3.2" ry="3.2"/>
</g>
<!-- rsvps&#45;&gt;events -->
<g id="edge5" class="edge">
<title>rsvps:w&#45;&gt;events:e</title>
<path fill="none" stroke="#000000" d="M518.1135,-182.7341C470.912,-202.1214 528.0177,-326.2 461.5,-326.2"/>
<polygon fill="#000000" stroke="#000000" points="524.6213,-181.5878 533.1245,-183.7454 528.5606,-180.8939 532.5,-180.2 532.5,-180.2 532.5,-180.2 528.5606,-180.8939 531.8755,-176.6546 524.6213,-181.5878 524.6213,-181.5878"/>
<ellipse fill="none" stroke="#000000" cx="521.4698" cy="-182.143" rx="3.2" ry="3.2"/>
</g>
<!-- tags -->
<g id="node7" class="node">
<title>tags</title>
<g id="a_node7"><a xlink:href="../../tables/tags.html" xlink:title="tags" target="_top">
<polygon fill="#ffffff" stroke="transparent" points="587,-303.7 587,-364.7 658,-364.7 658,-303.7 587,-303.7"/>
<polygon fill="#f5f5f5" stroke="transparent" points="587.5,-341.2 587.5,-364.2 658.5,-364.2 658.5,-341.2 587.5,-341.2"/>
<polygon fill="none" stroke="#000000" points="587.5,-341.2 587.5,-364.2 658.5,-364.2 658.5,-341.2 587.5,-341.2"/>
<text text-anchor="start" x="592.5" y="-350.3" font-family="Helvetica,sans-Serif" font-weight="bold" font-size="11.00" fill="#000000">tags</text>
<text text-anchor="start" x="623.5437" y="-349.3" font-family="Helvetica,sans-Serif" font-size="11.00" fill="#000000">[table]</text>
<polygon fill="none" stroke="#000000" points="587.5,-322.2 587.5,-341.2 658.5,-341.2 658.5,-322.2 587.5,-322.2"/>
<text text-anchor="start" x="590.5" y="-328.3" font-family="Helvetica,sans-Serif" font-size="11.00" fill="#000000">...</text>
<polygon fill="#ffffff" stroke="transparent" points="587.5,-303.2 587.5,-322.2 608.5,-322.2 608.5,-303.2 587.5,-303.2"/>
<polygon fill="none" stroke="#000000" points="587.5,-303.2 587.5,-322.2 608.5,-322.2 608.5,-303.2 587.5,-303.2"/>
<text text-anchor="start" x="590.2026" y="-309.3" font-family="Helvetica,sans-Serif" font-size="11.00" fill="#000000">&lt; 1</text>
<polygon fill="#ffffff" stroke="transparent" points="608.5,-303.2 608.5,-322.2 646.5,-322.2 646.5,-303.2 608.5,-303.2"/>
<polygon fill="none" stroke="#000000" points="608.5,-303.2 608.5,-322.2 646.5,-322.2 646.5,-303.2 608.5,-303.2"/>
<text text-anchor="start" x="611.3053" y="-309.3" font-family="Helvetica,sans-Serif" font-size="11.00" fill="#000000">9 rows</text>
<polygon fill="#ffffff" stroke="transparent" points="646.5,-303.2 646.5,-322.2 658.5,-322.2 658.5,-303.2 646.5,-303.2"/>
<polygon fill="none" stroke="#000000" points="646.5,-303.2 646.5,-322.2 658.5,-322.2 658.5,-303.2 646.5,-303.2"/>
<text text-anchor="start" x="649.4431" y="-309.3" font-family="Helvetica,sans-Serif" font-size="11.00" fill="#000000"> &#160;</text>
</a>
</g>
</g>
<!-- tags&#45;&gt;events -->
<g id="edge7" class="edge">
<title>tags:w&#45;&gt;events:e</title>
<path fill="none" stroke="#000000" d="M573.0659,-331.0813C528.5468,-330.3242 512.3994,-326.2 461.5,-326.2"/>
<polygon fill="#000000" stroke="#000000" points="579.5003,-331.1342 587.4704,-334.7999 583.5001,-331.1671 587.5,-331.2 587.5,-331.2 587.5,-331.2 583.5001,-331.1671 587.5296,-327.6001 579.5003,-331.1342 579.5003,-331.1342"/>
<ellipse fill="none" stroke="#000000" cx="576.3004" cy="-331.1078" rx="3.2" ry="3.2"/>
</g>
<!-- user_bans -->
<g id="node8" class="node">
<title>user_bans</title>
<g id="a_node8"><a xlink:href="../../tables/user_bans.html" xlink:title="user_bans" target="_top">
<polygon fill="#ffffff" stroke="transparent" points="365.5,-545.7 365.5,-606.7 459.5,-606.7 459.5,-545.7 365.5,-545.7"/>
<polygon fill="#f5f5f5" stroke="transparent" points="365.5,-583.2 365.5,-606.2 459.5,-606.2 459.5,-583.2 365.5,-583.2"/>
<polygon fill="none" stroke="#000000" points="365.5,-583.2 365.5,-606.2 459.5,-606.2 459.5,-583.2 365.5,-583.2"/>
<text text-anchor="start" x="370.3244" y="-592.3" font-family="Helvetica,sans-Serif" font-weight="bold" font-size="11.00" fill="#000000">user_bans</text>
<text text-anchor="start" x="425.0219" y="-591.3" font-family="Helvetica,sans-Serif" font-size="11.00" fill="#000000">[table]</text>
<polygon fill="none" stroke="#000000" points="365.5,-564.2 365.5,-583.2 459.5,-583.2 459.5,-564.2 365.5,-564.2"/>
<text text-anchor="start" x="368.5" y="-570.3" font-family="Helvetica,sans-Serif" font-size="11.00" fill="#000000">...</text>
<polygon fill="#ffffff" stroke="transparent" points="365.5,-545.2 365.5,-564.2 397.5,-564.2 397.5,-545.2 365.5,-545.2"/>
<polygon fill="none" stroke="#000000" points="365.5,-545.2 365.5,-564.2 397.5,-564.2 397.5,-545.2 365.5,-545.2"/>
<text text-anchor="start" x="368.5" y="-551.3" font-family="Helvetica,sans-Serif" font-size="11.00" fill="#000000">&lt; 2</text>
<polygon fill="#ffffff" stroke="transparent" points="397.5,-545.2 397.5,-564.2 441.5,-564.2 441.5,-545.2 397.5,-545.2"/>
<polygon fill="none" stroke="#000000" points="397.5,-545.2 397.5,-564.2 441.5,-564.2 441.5,-545.2 397.5,-545.2"/>
<text text-anchor="start" x="406.1105" y="-551.3" font-family="Helvetica,sans-Serif" font-size="11.00" fill="#000000">0 rows</text>
<polygon fill="#ffffff" stroke="transparent" points="441.5,-545.2 441.5,-564.2 459.5,-564.2 459.5,-545.2 441.5,-545.2"/>
<polygon fill="none" stroke="#000000" points="441.5,-545.2 441.5,-564.2 459.5,-564.2 459.5,-545.2 441.5,-545.2"/>
<text text-anchor="start" x="450.3862" y="-551.3" font-family="Helvetica,sans-Serif" font-size="11.00" fill="#000000"> &#160;</text>
</a>
</g>
</g>
<!-- user_bans&#45;&gt;chapters -->
<g id="edge8" class="edge">
<title>user_bans:w&#45;&gt;chapters:e</title>
<path fill="none" stroke="#000000" d="M350.9703,-571.1123C296.6607,-553.6967 337.9632,-433.2 267.5,-433.2"/>
<polygon fill="#000000" stroke="#000000" points="357.5813,-572.0622 364.988,-576.7634 361.5407,-572.6311 365.5,-573.2 365.5,-573.2 365.5,-573.2 361.5407,-572.6311 366.012,-569.6366 357.5813,-572.0622 357.5813,-572.0622"/>
<ellipse fill="none" stroke="#000000" cx="354.4139" cy="-571.607" rx="3.2" ry="3.2"/>
</g>
<!-- user_bans&#45;&gt;users -->
<g id="edge9" class="edge">
<title>user_bans:w&#45;&gt;users:e</title>
<path fill="none" stroke="#000000" d="M350.8542,-573.1605C258.5035,-572.6025 218.2714,-565.2745 146,-499.2 113.0277,-469.0549 150.1755,-407.2 105.5,-407.2"/>
<polygon fill="#000000" stroke="#000000" points="357.5,-573.1784 365.4903,-576.8 361.5,-573.1892 365.5,-573.2 365.5,-573.2 365.5,-573.2 361.5,-573.1892 365.5097,-569.6 357.5,-573.1784 357.5,-573.1784"/>
<ellipse fill="none" stroke="#000000" cx="354.3" cy="-573.1697" rx="3.2" ry="3.2"/>
</g>
<!-- user_chapter_roles -->
<g id="node9" class="node">
<title>user_chapter_roles</title>
<g id="a_node9"><a xlink:href="../../tables/user_chapter_roles.html" xlink:title="user_chapter_roles" target="_top">
<polygon fill="#ffffff" stroke="transparent" points="344,-463.7 344,-524.7 481,-524.7 481,-463.7 344,-463.7"/>
<polygon fill="#f5f5f5" stroke="transparent" points="344.5,-501.2 344.5,-524.2 481.5,-524.2 481.5,-501.2 344.5,-501.2"/>
<polygon fill="none" stroke="#000000" points="344.5,-501.2 344.5,-524.2 481.5,-524.2 481.5,-501.2 344.5,-501.2"/>
<text text-anchor="start" x="349.4338" y="-510.3" font-family="Helvetica,sans-Serif" font-weight="bold" font-size="11.00" fill="#000000">user_chapter_roles</text>
<text text-anchor="start" x="447.0219" y="-509.3" font-family="Helvetica,sans-Serif" font-size="11.00" fill="#000000">[table]</text>
<polygon fill="none" stroke="#000000" points="344.5,-482.2 344.5,-501.2 481.5,-501.2 481.5,-482.2 344.5,-482.2"/>
<text text-anchor="start" x="347.5" y="-488.3" font-family="Helvetica,sans-Serif" font-size="11.00" fill="#000000">...</text>
<polygon fill="#ffffff" stroke="transparent" points="344.5,-463.2 344.5,-482.2 398.5,-482.2 398.5,-463.2 344.5,-463.2"/>
<polygon fill="none" stroke="#000000" points="344.5,-463.2 344.5,-482.2 398.5,-482.2 398.5,-463.2 344.5,-463.2"/>
<text text-anchor="start" x="347.5" y="-469.3" font-family="Helvetica,sans-Serif" font-size="11.00" fill="#000000">&lt; 2</text>
<polygon fill="#ffffff" stroke="transparent" points="398.5,-463.2 398.5,-482.2 452.5,-482.2 452.5,-463.2 398.5,-463.2"/>
<polygon fill="none" stroke="#000000" points="398.5,-463.2 398.5,-482.2 452.5,-482.2 452.5,-463.2 398.5,-463.2"/>
<text text-anchor="start" x="417.1105" y="-469.3" font-family="Helvetica,sans-Serif" font-size="11.00" fill="#000000">0 rows</text>
<polygon fill="#ffffff" stroke="transparent" points="452.5,-463.2 452.5,-482.2 481.5,-482.2 481.5,-463.2 452.5,-463.2"/>
<polygon fill="none" stroke="#000000" points="452.5,-463.2 452.5,-482.2 481.5,-482.2 481.5,-463.2 452.5,-463.2"/>
<text text-anchor="start" x="472.3862" y="-469.3" font-family="Helvetica,sans-Serif" font-size="11.00" fill="#000000"> &#160;</text>
</a>
</g>
</g>
<!-- user_chapter_roles&#45;&gt;chapters -->
<g id="edge10" class="edge">
<title>user_chapter_roles:w&#45;&gt;chapters:e</title>
<path fill="none" stroke="#000000" d="M330.2794,-488.5571C303.0393,-477.2107 304.8216,-433.2 267.5,-433.2"/>
<polygon fill="#000000" stroke="#000000" points="336.6347,-489.7382 343.8422,-494.7394 340.5673,-490.4691 344.5,-491.2 344.5,-491.2 344.5,-491.2 340.5673,-490.4691 345.1578,-487.6606 336.6347,-489.7382 336.6347,-489.7382"/>
<ellipse fill="none" stroke="#000000" cx="333.4885" cy="-489.1535" rx="3.2" ry="3.2"/>
</g>
<!-- user_chapter_roles&#45;&gt;users -->
<g id="edge11" class="edge">
<title>user_chapter_roles:w&#45;&gt;users:e</title>
<path fill="none" stroke="#000000" d="M329.9688,-491.4958C251.9601,-494.6661 216.7613,-521.401 146,-477.2 115.5156,-458.1579 141.443,-407.2 105.5,-407.2"/>
<polygon fill="#000000" stroke="#000000" points="336.5017,-491.3628 344.5733,-494.7993 340.5008,-491.2814 344.5,-491.2 344.5,-491.2 344.5,-491.2 340.5008,-491.2814 344.4267,-487.6007 336.5017,-491.3628 336.5017,-491.3628"/>
<ellipse fill="none" stroke="#000000" cx="333.3023" cy="-491.428" rx="3.2" ry="3.2"/>
</g>
<!-- user_chapters -->
<g id="node10" class="node">
<title>user_chapters</title>
<g id="a_node10"><a xlink:href="../../tables/user_chapters.html" xlink:title="user_chapters" target="_top">
<polygon fill="#ffffff" stroke="transparent" points="356.5,-381.7 356.5,-442.7 468.5,-442.7 468.5,-381.7 356.5,-381.7"/>
<polygon fill="#f5f5f5" stroke="transparent" points="356.5,-419.2 356.5,-442.2 468.5,-442.2 468.5,-419.2 356.5,-419.2"/>
<polygon fill="none" stroke="#000000" points="356.5,-419.2 356.5,-442.2 468.5,-442.2 468.5,-419.2 356.5,-419.2"/>
<text text-anchor="start" x="361.1575" y="-428.3" font-family="Helvetica,sans-Serif" font-weight="bold" font-size="11.00" fill="#000000">user_chapters</text>
<text text-anchor="start" x="434.0219" y="-427.3" font-family="Helvetica,sans-Serif" font-size="11.00" fill="#000000">[table]</text>
<polygon fill="none" stroke="#000000" points="356.5,-400.2 356.5,-419.2 468.5,-419.2 468.5,-400.2 356.5,-400.2"/>
<text text-anchor="start" x="359.5" y="-406.3" font-family="Helvetica,sans-Serif" font-size="11.00" fill="#000000">...</text>
<polygon fill="#ffffff" stroke="transparent" points="356.5,-381.2 356.5,-400.2 397.5,-400.2 397.5,-381.2 356.5,-381.2"/>
<polygon fill="none" stroke="#000000" points="356.5,-381.2 356.5,-400.2 397.5,-400.2 397.5,-381.2 356.5,-381.2"/>
<text text-anchor="start" x="359.5" y="-387.3" font-family="Helvetica,sans-Serif" font-size="11.00" fill="#000000">&lt; 2</text>
<polygon fill="#ffffff" stroke="transparent" points="397.5,-381.2 397.5,-400.2 445.5,-400.2 445.5,-381.2 397.5,-381.2"/>
<polygon fill="none" stroke="#000000" points="397.5,-381.2 397.5,-400.2 445.5,-400.2 445.5,-381.2 397.5,-381.2"/>
<text text-anchor="start" x="410.1105" y="-387.3" font-family="Helvetica,sans-Serif" font-size="11.00" fill="#000000">0 rows</text>
<polygon fill="#ffffff" stroke="transparent" points="445.5,-381.2 445.5,-400.2 468.5,-400.2 468.5,-381.2 445.5,-381.2"/>
<polygon fill="none" stroke="#000000" points="445.5,-381.2 445.5,-400.2 468.5,-400.2 468.5,-381.2 445.5,-381.2"/>
<text text-anchor="start" x="459.3862" y="-387.3" font-family="Helvetica,sans-Serif" font-size="11.00" fill="#000000"> &#160;</text>
</a>
</g>
</g>
<!-- user_chapters&#45;&gt;chapters -->
<g id="edge12" class="edge">
<title>user_chapters:w&#45;&gt;chapters:e</title>
<path fill="none" stroke="#000000" d="M341.8119,-410.3576C313.0573,-415.1517 303.0274,-433.2 267.5,-433.2"/>
<polygon fill="#000000" stroke="#000000" points="348.5247,-409.8286 356.7829,-412.7889 352.5124,-409.5143 356.5,-409.2 356.5,-409.2 356.5,-409.2 352.5124,-409.5143 356.2171,-405.6111 348.5247,-409.8286 348.5247,-409.8286"/>
<ellipse fill="none" stroke="#000000" cx="345.3346" cy="-410.08" rx="3.2" ry="3.2"/>
</g>
<!-- user_chapters&#45;&gt;users -->
<g id="edge13" class="edge">
<title>user_chapters:w&#45;&gt;users:e</title>
<path fill="none" stroke="#000000" d="M342.0066,-407.6491C328.702,-404.5323 321.664,-397.6016 303,-395.2 233.7928,-386.2948 215.0553,-385.1848 146,-395.2 127.4209,-397.8946 124.2735,-407.2 105.5,-407.2"/>
<polygon fill="#000000" stroke="#000000" points="348.5454,-408.3488 356.1169,-412.7796 352.5227,-408.7744 356.5,-409.2 356.5,-409.2 356.5,-409.2 352.5227,-408.7744 356.8831,-405.6204 348.5454,-408.3488 348.5454,-408.3488"/>
<ellipse fill="none" stroke="#000000" cx="345.3636" cy="-408.0083" rx="3.2" ry="3.2"/>
</g>
<!-- user_instance_roles -->
<g id="node11" class="node">
<title>user_instance_roles</title>
<g id="a_node11"><a xlink:href="../../tables/user_instance_roles.html" xlink:title="user_instance_roles" target="_top">
<polygon fill="#ffffff" stroke="transparent" points="154,-204.7 154,-265.7 295,-265.7 295,-204.7 154,-204.7"/>
<polygon fill="#f5f5f5" stroke="transparent" points="154.5,-242.2 154.5,-265.2 295.5,-265.2 295.5,-242.2 154.5,-242.2"/>
<polygon fill="none" stroke="#000000" points="154.5,-242.2 154.5,-265.2 295.5,-265.2 295.5,-242.2 154.5,-242.2"/>
<text text-anchor="start" x="159.2943" y="-251.3" font-family="Helvetica,sans-Serif" font-weight="bold" font-size="11.00" fill="#000000">user_instance_roles</text>
<text text-anchor="start" x="261.0219" y="-250.3" font-family="Helvetica,sans-Serif" font-size="11.00" fill="#000000">[table]</text>
<polygon fill="none" stroke="#000000" points="154.5,-223.2 154.5,-242.2 295.5,-242.2 295.5,-223.2 154.5,-223.2"/>
<text text-anchor="start" x="157.5" y="-229.3" font-family="Helvetica,sans-Serif" font-size="11.00" fill="#000000">...</text>
<polygon fill="#ffffff" stroke="transparent" points="154.5,-204.2 154.5,-223.2 210.5,-223.2 210.5,-204.2 154.5,-204.2"/>
<polygon fill="none" stroke="#000000" points="154.5,-204.2 154.5,-223.2 210.5,-223.2 210.5,-204.2 154.5,-204.2"/>
<text text-anchor="start" x="157.5" y="-210.3" font-family="Helvetica,sans-Serif" font-size="11.00" fill="#000000">&lt; 1</text>
<polygon fill="#ffffff" stroke="transparent" points="210.5,-204.2 210.5,-223.2 265.5,-223.2 265.5,-204.2 210.5,-204.2"/>
<polygon fill="none" stroke="#000000" points="210.5,-204.2 210.5,-223.2 265.5,-223.2 265.5,-204.2 210.5,-204.2"/>
<text text-anchor="start" x="230.1105" y="-210.3" font-family="Helvetica,sans-Serif" font-size="11.00" fill="#000000">0 rows</text>
<polygon fill="#ffffff" stroke="transparent" points="265.5,-204.2 265.5,-223.2 295.5,-223.2 295.5,-204.2 265.5,-204.2"/>
<polygon fill="none" stroke="#000000" points="265.5,-204.2 265.5,-223.2 295.5,-223.2 295.5,-204.2 265.5,-204.2"/>
<text text-anchor="start" x="286.3862" y="-210.3" font-family="Helvetica,sans-Serif" font-size="11.00" fill="#000000"> &#160;</text>
</a>
</g>
</g>
<!-- user_instance_roles&#45;&gt;users -->
<g id="edge14" class="edge">
<title>user_instance_roles:w&#45;&gt;users:e</title>
<path fill="none" stroke="#000000" d="M140.1954,-234.6739C88.6009,-255.9442 180.5901,-407.2 105.5,-407.2"/>
<polygon fill="#000000" stroke="#000000" points="146.617,-233.5633 155.1135,-235.7473 150.5585,-232.8817 154.5,-232.2 154.5,-232.2 154.5,-232.2 150.5585,-232.8817 153.8865,-228.6527 146.617,-233.5633 146.617,-233.5633"/>
<ellipse fill="none" stroke="#000000" cx="143.4638" cy="-234.1087" rx="3.2" ry="3.2"/>
</g>
</g>
</svg>
