<?xml version="1.0" encoding="UTF-8" standalone="no"?>
<!DOCTYPE svg PUBLIC "-//W3C//DTD SVG 1.1//EN"
 "http://www.w3.org/Graphics/SVG/1.1/DTD/svg11.dtd">
<!-- Generated by graphviz version 2.40.1 (20161225.0304)
 -->
<!-- Title: twoDegreesRelationshipsDiagram Pages: 1 -->
<svg width="530pt" height="431pt"
 viewBox="0.00 0.00 530.00 430.70" xmlns="http://www.w3.org/2000/svg" xmlns:xlink="http://www.w3.org/1999/xlink">
<g id="graph0" class="graph" transform="scale(1 1) rotate(0) translate(4 426.7)">
<title>twoDegreesRelationshipsDiagram</title>
<polygon fill="#ffffff" stroke="transparent" points="-4,4 -4,-426.7 526,-426.7 526,4 -4,4"/>
<text text-anchor="middle" x="72.4936" y="-7.3" font-family="Helvetica,sans-Serif" font-size="11.00" fill="#000000">Generated by SchemaSpy</text>
<!-- event_reminders -->
<g id="node1" class="node">
<title>event_reminders</title>
<g id="a_node1"><a xlink:href="../../tables/event_reminders.html" xlink:title="event_reminders" target="_top">
<polygon fill="#ffffff" stroke="transparent" points="390,-256.7 390,-317.7 514,-317.7 514,-256.7 390,-256.7"/>
<polygon fill="#f5f5f5" stroke="transparent" points="390,-294.2 390,-317.2 514,-317.2 514,-294.2 390,-294.2"/>
<polygon fill="none" stroke="#000000" points="390,-294.2 390,-317.2 514,-317.2 514,-294.2 390,-294.2"/>
<text text-anchor="start" x="394.5487" y="-303.3" font-family="Helvetica,sans-Serif" font-weight="bold" font-size="11.00" fill="#000000">event_reminders</text>
<text text-anchor="start" x="479.5219" y="-302.3" font-family="Helvetica,sans-Serif" font-size="11.00" fill="#000000">[table]</text>
<polygon fill="none" stroke="#000000" points="390,-275.2 390,-294.2 514,-294.2 514,-275.2 390,-275.2"/>
<text text-anchor="start" x="393" y="-281.3" font-family="Helvetica,sans-Serif" font-size="11.00" fill="#000000">...</text>
<polygon fill="#ffffff" stroke="transparent" points="390,-256.2 390,-275.2 437,-275.2 437,-256.2 390,-256.2"/>
<polygon fill="none" stroke="#000000" points="390,-256.2 390,-275.2 437,-275.2 437,-256.2 390,-256.2"/>
<text text-anchor="start" x="393" y="-262.3" font-family="Helvetica,sans-Serif" font-size="11.00" fill="#000000">&lt; 2</text>
<polygon fill="#ffffff" stroke="transparent" points="437,-256.2 437,-275.2 488,-275.2 488,-256.2 437,-256.2"/>
<polygon fill="none" stroke="#000000" points="437,-256.2 437,-275.2 488,-275.2 488,-256.2 437,-256.2"/>
<text text-anchor="start" x="452.6105" y="-262.3" font-family="Helvetica,sans-Serif" font-size="11.00" fill="#000000">0 rows</text>
<polygon fill="#ffffff" stroke="transparent" points="488,-256.2 488,-275.2 514,-275.2 514,-256.2 488,-256.2"/>
<polygon fill="none" stroke="#000000" points="488,-256.2 488,-275.2 514,-275.2 514,-256.2 488,-256.2"/>
<text text-anchor="start" x="504.8862" y="-262.3" font-family="Helvetica,sans-Serif" font-size="11.00" fill="#000000"> &#160;</text>
</a>
</g>
</g>
<!-- event_users -->
<g id="node2" class="node">
<title>event_users</title>
<g id="a_node2"><a xlink:href="../../tables/event_users.html" xlink:title="event_users" target="_top">
<polygon fill="#ffffff" stroke="transparent" points="239,-180.7 239,-329.7 341,-329.7 341,-180.7 239,-180.7"/>
<polygon fill="#f5f5f5" stroke="transparent" points="239,-306.2 239,-329.2 341,-329.2 341,-306.2 239,-306.2"/>
<polygon fill="none" stroke="#000000" points="239,-306.2 239,-329.2 341,-329.2 341,-306.2 239,-306.2"/>
<text text-anchor="start" x="243.5459" y="-315.3" font-family="Helvetica,sans-Serif" font-weight="bold" font-size="11.00" fill="#000000">event_users</text>
<text text-anchor="start" x="306.5219" y="-314.3" font-family="Helvetica,sans-Serif" font-size="11.00" fill="#000000">[table]</text>
<polygon fill="none" stroke="#000000" points="239,-284.2 239,-306.2 341,-306.2 341,-284.2 239,-284.2"/>
<image xlink:href="../../images/primaryKeys.png" width="11px" height="12px" preserveAspectRatio="xMinYMin meet" x="244" y="-301.2"/>
<text text-anchor="start" x="261" y="-291.3" font-family="Helvetica,sans-Serif" font-size="11.00" fill="#000000">user_id</text>
<polygon fill="none" stroke="#000000" points="239,-262.2 239,-284.2 341,-284.2 341,-262.2 239,-262.2"/>
<image xlink:href="../../images/primaryKeys.png" width="11px" height="12px" preserveAspectRatio="xMinYMin meet" x="244" y="-279.2"/>
<text text-anchor="start" x="261" y="-269.3" font-family="Helvetica,sans-Serif" font-size="11.00" fill="#000000">event_id</text>
<polygon fill="none" stroke="#000000" points="239,-240.2 239,-262.2 341,-262.2 341,-240.2 239,-240.2"/>
<image xlink:href="../../images/foreignKeys.png" width="11px" height="12px" preserveAspectRatio="xMinYMin meet" x="244" y="-257.2"/>
<text text-anchor="start" x="261" y="-247.3" font-family="Helvetica,sans-Serif" font-size="11.00" fill="#000000">event_role_id</text>
<polygon fill="none" stroke="#000000" points="239,-218.2 239,-240.2 341,-240.2 341,-218.2 239,-218.2"/>
<image xlink:href="../../images/foreignKeys.png" width="11px" height="12px" preserveAspectRatio="xMinYMin meet" x="244" y="-235.2"/>
<text text-anchor="start" x="261" y="-225.3" font-family="Helvetica,sans-Serif" font-size="11.00" fill="#000000">rsvp_id</text>
<polygon fill="none" stroke="#000000" points="239,-199.2 239,-218.2 341,-218.2 341,-199.2 239,-199.2"/>
<text text-anchor="start" x="242" y="-205.3" font-family="Helvetica,sans-Serif" font-size="11.00" fill="#000000">...</text>
<polygon fill="#ffffff" stroke="transparent" points="239,-180.2 239,-199.2 271,-199.2 271,-180.2 239,-180.2"/>
<polygon fill="none" stroke="#000000" points="239,-180.2 239,-199.2 271,-199.2 271,-180.2 239,-180.2"/>
<text text-anchor="start" x="242" y="-186.3" font-family="Helvetica,sans-Serif" font-size="11.00" fill="#000000">&lt; 4</text>
<polygon fill="#ffffff" stroke="transparent" points="271,-180.2 271,-199.2 314,-199.2 314,-180.2 271,-180.2"/>
<polygon fill="none" stroke="#000000" points="271,-180.2 271,-199.2 314,-199.2 314,-180.2 271,-180.2"/>
<text text-anchor="start" x="278.6105" y="-186.3" font-family="Helvetica,sans-Serif" font-size="11.00" fill="#000000">0 rows</text>
<polygon fill="#ffffff" stroke="transparent" points="314,-180.2 314,-199.2 341,-199.2 341,-180.2 314,-180.2"/>
<polygon fill="none" stroke="#000000" points="314,-180.2 314,-199.2 341,-199.2 341,-180.2 314,-180.2"/>
<text text-anchor="start" x="322.4053" y="-186.3" font-family="Helvetica,sans-Serif" font-size="11.00" fill="#000000">2 &gt;</text>
</a>
</g>
</g>
<!-- event_reminders&#45;&gt;event_users -->
<g id="edge1" class="edge">
<title>event_reminders:w&#45;&gt;event_users:e</title>
<path fill="none" stroke="#000000" d="M375.7027,-282.3836C364.2382,-279.2593 357.5655,-273.2 341,-273.2"/>
<polygon fill="#000000" stroke="#000000" points="382.0638,-283.1917 389.5463,-287.7713 386.0319,-283.6958 390,-284.2 390,-284.2 390,-284.2 386.0319,-283.6958 390.4537,-280.6287 382.0638,-283.1917 382.0638,-283.1917"/>
<ellipse fill="none" stroke="#000000" cx="378.8893" cy="-282.7884" rx="3.2" ry="3.2"/>
</g>
<!-- event_reminders&#45;&gt;event_users -->
<g id="edge2" class="edge">
<title>event_reminders:w&#45;&gt;event_users:e</title>
<path fill="none" stroke="#000000" d="M375.7027,-286.0164C364.2382,-289.1407 357.5655,-295.2 341,-295.2"/>
<polygon fill="#000000" stroke="#000000" points="382.0638,-285.2083 390.4537,-287.7713 386.0319,-284.7042 390,-284.2 390,-284.2 390,-284.2 386.0319,-284.7042 389.5463,-280.6287 382.0638,-285.2083 382.0638,-285.2083"/>
<ellipse fill="none" stroke="#000000" cx="378.8893" cy="-285.6116" rx="3.2" ry="3.2"/>
</g>
<!-- events -->
<g id="node3" class="node">
<title>events</title>
<g id="a_node3"><a xlink:href="../../tables/events.html" xlink:title="events" target="_top">
<polygon fill="#ffffff" stroke="transparent" points="59,-275.7 59,-336.7 139,-336.7 139,-275.7 59,-275.7"/>
<polygon fill="#f5f5f5" stroke="transparent" points="59,-313.2 59,-336.2 139,-336.2 139,-313.2 59,-313.2"/>
<polygon fill="none" stroke="#000000" points="59,-313.2 59,-336.2 139,-336.2 139,-313.2 59,-313.2"/>
<text text-anchor="start" x="64" y="-322.3" font-family="Helvetica,sans-Serif" font-weight="bold" font-size="11.00" fill="#000000">events</text>
<text text-anchor="start" x="104.0437" y="-321.3" font-family="Helvetica,sans-Serif" font-size="11.00" fill="#000000">[table]</text>
<polygon fill="none" stroke="#000000" points="59,-294.2 59,-313.2 139,-313.2 139,-294.2 59,-294.2"/>
<text text-anchor="start" x="62" y="-300.3" font-family="Helvetica,sans-Serif" font-size="11.00" fill="#000000">...</text>
<polygon fill="#ffffff" stroke="transparent" points="59,-275.2 59,-294.2 80,-294.2 80,-275.2 59,-275.2"/>
<polygon fill="none" stroke="#000000" points="59,-275.2 59,-294.2 80,-294.2 80,-275.2 59,-275.2"/>
<text text-anchor="start" x="61.7027" y="-281.3" font-family="Helvetica,sans-Serif" font-size="11.00" fill="#000000">&lt; 3</text>
<polygon fill="#ffffff" stroke="transparent" points="80,-275.2 80,-294.2 118,-294.2 118,-275.2 80,-275.2"/>
<polygon fill="none" stroke="#000000" points="80,-275.2 80,-294.2 118,-294.2 118,-275.2 80,-275.2"/>
<text text-anchor="start" x="82.8053" y="-281.3" font-family="Helvetica,sans-Serif" font-size="11.00" fill="#000000">0 rows</text>
<polygon fill="#ffffff" stroke="transparent" points="118,-275.2 118,-294.2 139,-294.2 139,-275.2 118,-275.2"/>
<polygon fill="none" stroke="#000000" points="118,-275.2 118,-294.2 139,-294.2 139,-275.2 118,-275.2"/>
<text text-anchor="start" x="120.7027" y="-281.3" font-family="Helvetica,sans-Serif" font-size="11.00" fill="#000000">3 &gt;</text>
</a>
</g>
</g>
<!-- event_users&#45;&gt;events -->
<g id="edge3" class="edge">
<title>event_users:w&#45;&gt;events:e</title>
<path fill="none" stroke="#000000" d="M224.6261,-274.2677C190.4649,-279.6119 180.145,-303.2 139,-303.2"/>
<polygon fill="#000000" stroke="#000000" points="231.022,-273.7927 239.2667,-276.7901 235.011,-273.4963 239,-273.2 239,-273.2 239,-273.2 235.011,-273.4963 238.7333,-269.6099 231.022,-273.7927 231.022,-273.7927"/>
<ellipse fill="none" stroke="#000000" cx="227.8308" cy="-274.0297" rx="3.2" ry="3.2"/>
</g>
<!-- event_roles -->
<g id="node4" class="node">
<title>event_roles</title>
<g id="a_node4"><a xlink:href="../../tables/event_roles.html" xlink:title="event_roles" target="_top">
<polygon fill="#ffffff" stroke="transparent" points="49.5,-193.7 49.5,-254.7 148.5,-254.7 148.5,-193.7 49.5,-193.7"/>
<polygon fill="#f5f5f5" stroke="transparent" points="50,-231.2 50,-254.2 149,-254.2 149,-231.2 50,-231.2"/>
<polygon fill="none" stroke="#000000" points="50,-231.2 50,-254.2 149,-254.2 149,-231.2 50,-231.2"/>
<text text-anchor="start" x="54.5755" y="-240.3" font-family="Helvetica,sans-Serif" font-weight="bold" font-size="11.00" fill="#000000">event_roles</text>
<text text-anchor="start" x="114.5219" y="-239.3" font-family="Helvetica,sans-Serif" font-size="11.00" fill="#000000">[table]</text>
<polygon fill="none" stroke="#000000" points="50,-212.2 50,-231.2 149,-231.2 149,-212.2 50,-212.2"/>
<text text-anchor="start" x="53" y="-218.3" font-family="Helvetica,sans-Serif" font-size="11.00" fill="#000000">...</text>
<polygon fill="#ffffff" stroke="transparent" points="50,-193.2 50,-212.2 76,-212.2 76,-193.2 50,-193.2"/>
<polygon fill="none" stroke="#000000" points="50,-193.2 50,-212.2 76,-212.2 76,-193.2 50,-193.2"/>
<text text-anchor="start" x="53" y="-199.3" font-family="Helvetica,sans-Serif" font-size="11.00" fill="#000000"> &#160;</text>
<polygon fill="#ffffff" stroke="transparent" points="76,-193.2 76,-212.2 121,-212.2 121,-193.2 76,-193.2"/>
<polygon fill="none" stroke="#000000" points="76,-193.2 76,-212.2 121,-212.2 121,-193.2 76,-193.2"/>
<text text-anchor="start" x="85.6105" y="-199.3" font-family="Helvetica,sans-Serif" font-size="11.00" fill="#000000">0 rows</text>
<polygon fill="#ffffff" stroke="transparent" points="121,-193.2 121,-212.2 149,-212.2 149,-193.2 121,-193.2"/>
<polygon fill="none" stroke="#000000" points="121,-193.2 121,-212.2 149,-212.2 149,-193.2 121,-193.2"/>
<text text-anchor="start" x="130.4053" y="-199.3" font-family="Helvetica,sans-Serif" font-size="11.00" fill="#000000">2 &gt;</text>
</a>
</g>
</g>
<!-- event_users&#45;&gt;event_roles -->
<g id="edge4" class="edge">
<title>event_users:w&#45;&gt;event_roles:e</title>
<path fill="none" stroke="#000000" d="M224.3573,-249.833C194.7675,-243.9641 185.7285,-221.2 149,-221.2"/>
<polygon fill="#000000" stroke="#000000" points="231.0346,-250.4563 238.6653,-254.7844 235.0173,-250.8282 239,-251.2 239,-251.2 239,-251.2 235.0173,-250.8282 239.3347,-247.6156 231.0346,-250.4563 231.0346,-250.4563"/>
<ellipse fill="none" stroke="#000000" cx="227.8485" cy="-250.1589" rx="3.2" ry="3.2"/>
</g>
<!-- rsvp -->
<g id="node5" class="node">
<title>rsvp</title>
<g id="a_node5"><a xlink:href="../../tables/rsvp.html" xlink:title="rsvp" target="_top">
<polygon fill="#ffffff" stroke="transparent" points="8,-38.2 8,-172.2 190,-172.2 190,-38.2 8,-38.2"/>
<polygon fill="#f5f5f5" stroke="transparent" points="10,-147.2 10,-170.2 188,-170.2 188,-147.2 10,-147.2"/>
<polygon fill="none" stroke="#000000" points="10,-147.2 10,-170.2 188,-170.2 188,-147.2 10,-147.2"/>
<text text-anchor="start" x="15" y="-156.3" font-family="Helvetica,sans-Serif" font-weight="bold" font-size="11.00" fill="#000000">rsvp</text>
<text text-anchor="start" x="153.0437" y="-155.3" font-family="Helvetica,sans-Serif" font-size="11.00" fill="#000000">[table]</text>
<polygon fill="none" stroke="#000000" points="10,-125.2 10,-147.2 98,-147.2 98,-125.2 10,-125.2"/>
<text text-anchor="start" x="30" y="-132.3" font-family="Helvetica,sans-Serif" font-size="11.00" fill="#000000">created_at</text>
<polygon fill="none" stroke="#000000" points="98,-125.2 98,-147.2 188,-147.2 188,-125.2 98,-125.2"/>
<text text-anchor="start" x="101" y="-132.9" font-family="Helvetica,sans-Serif" font-size="11.00" fill="#000000">timestamp[26,3]</text>
<polygon fill="none" stroke="#000000" points="10,-103.2 10,-125.2 98,-125.2 98,-103.2 10,-103.2"/>
<text text-anchor="start" x="30" y="-110.3" font-family="Helvetica,sans-Serif" font-size="11.00" fill="#000000">updated_at</text>
<polygon fill="none" stroke="#000000" points="98,-103.2 98,-125.2 188,-125.2 188,-103.2 98,-103.2"/>
<text text-anchor="start" x="101" y="-110.9" font-family="Helvetica,sans-Serif" font-size="11.00" fill="#000000">timestamp[26,3]</text>
<polygon fill="none" stroke="#000000" points="10,-81.2 10,-103.2 98,-103.2 98,-81.2 10,-81.2"/>
<image xlink:href="../../images/primaryKeys.png" width="11px" height="12px" preserveAspectRatio="xMinYMin meet" x="15" y="-98.2"/>
<text text-anchor="start" x="30" y="-88.3" font-family="Helvetica,sans-Serif" font-size="11.00" fill="#000000">id</text>
<polygon fill="none" stroke="#000000" points="98,-81.2 98,-103.2 188,-103.2 188,-81.2 98,-81.2"/>
<text text-anchor="start" x="101" y="-88.9" font-family="Helvetica,sans-Serif" font-size="11.00" fill="#000000">serial[10]</text>
<polygon fill="#ffffff" stroke="transparent" points="10,-59.2 10,-81.2 98,-81.2 98,-59.2 10,-59.2"/>
<polygon fill="none" stroke="#000000" points="10,-59.2 10,-81.2 98,-81.2 98,-59.2 10,-59.2"/>
<text text-anchor="start" x="30" y="-66.3" font-family="Helvetica,sans-Serif" font-size="11.00" fill="#000000">name</text>
<polygon fill="none" stroke="#000000" points="98,-59.2 98,-81.2 188,-81.2 188,-59.2 98,-59.2"/>
<text text-anchor="start" x="100.5042" y="-66.9" font-family="Helvetica,sans-Serif" font-size="11.00" fill="#000000">text[2147483647]</text>
<polygon fill="#ffffff" stroke="transparent" points="10,-40.2 10,-59.2 45,-59.2 45,-40.2 10,-40.2"/>
<polygon fill="none" stroke="#000000" points="10,-40.2 10,-59.2 45,-59.2 45,-40.2 10,-40.2"/>
<text text-anchor="start" x="13" y="-46.3" font-family="Helvetica,sans-Serif" font-size="11.00" fill="#000000">&lt; 0</text>
<polygon fill="#ffffff" stroke="transparent" points="45,-40.2 45,-59.2 98,-59.2 98,-40.2 45,-40.2"/>
<polygon fill="none" stroke="#000000" points="45,-40.2 45,-59.2 98,-59.2 98,-40.2 45,-40.2"/>
<text text-anchor="start" x="62.6105" y="-46.3" font-family="Helvetica,sans-Serif" font-size="11.00" fill="#000000">0 rows</text>
<polygon fill="#ffffff" stroke="transparent" points="98,-40.2 98,-59.2 188,-59.2 188,-40.2 98,-40.2"/>
<polygon fill="none" stroke="#000000" points="98,-40.2 98,-59.2 188,-59.2 188,-40.2 98,-40.2"/>
<text text-anchor="start" x="169.4053" y="-46.3" font-family="Helvetica,sans-Serif" font-size="11.00" fill="#000000">1 &gt;</text>
<polygon fill="none" stroke="#000000" stroke-width="2" points="9,-39.2 9,-171.2 189,-171.2 189,-39.2 9,-39.2"/>
</a>
</g>
</g>
<!-- event_users&#45;&gt;rsvp -->
<g id="edge5" class="edge">
<title>event_users:w&#45;&gt;rsvp:e</title>
<path fill="none" stroke="#000000" d="M224.7645,-226.0812C187.0522,-205.6887 247.1338,-92.2 188,-92.2"/>
<polygon fill="#000000" stroke="#000000" points="231.1854,-227.4879 238.2295,-232.7166 235.0927,-228.3439 239,-229.2 239,-229.2 239,-229.2 235.0927,-228.3439 239.7705,-225.6834 231.1854,-227.4879 231.1854,-227.4879"/>
<ellipse fill="none" stroke="#000000" cx="228.0595" cy="-226.803" rx="3.2" ry="3.2"/>
</g>
<!-- users -->
<g id="node6" class="node">
<title>users</title>
<g id="a_node6"><a xlink:href="../../tables/users.html" xlink:title="users" target="_top">
<polygon fill="#ffffff" stroke="transparent" points="59,-357.7 59,-418.7 139,-418.7 139,-357.7 59,-357.7"/>
<polygon fill="#f5f5f5" stroke="transparent" points="59,-395.2 59,-418.2 139,-418.2 139,-395.2 59,-395.2"/>
<polygon fill="none" stroke="#000000" points="59,-395.2 59,-418.2 139,-418.2 139,-395.2 59,-395.2"/>
<text text-anchor="start" x="64" y="-404.3" font-family="Helvetica,sans-Serif" font-weight="bold" font-size="11.00" fill="#000000">users</text>
<text text-anchor="start" x="104.0437" y="-403.3" font-family="Helvetica,sans-Serif" font-size="11.00" fill="#000000">[table]</text>
<polygon fill="none" stroke="#000000" points="59,-376.2 59,-395.2 139,-395.2 139,-376.2 59,-376.2"/>
<text text-anchor="start" x="62" y="-382.3" font-family="Helvetica,sans-Serif" font-size="11.00" fill="#000000">...</text>
<polygon fill="#ffffff" stroke="transparent" points="59,-357.2 59,-376.2 80,-376.2 80,-357.2 59,-357.2"/>
<polygon fill="none" stroke="#000000" points="59,-357.2 59,-376.2 80,-376.2 80,-357.2 59,-357.2"/>
<text text-anchor="start" x="61.7027" y="-363.3" font-family="Helvetica,sans-Serif" font-size="11.00" fill="#000000">&lt; 1</text>
<polygon fill="#ffffff" stroke="transparent" points="80,-357.2 80,-376.2 118,-376.2 118,-357.2 80,-357.2"/>
<polygon fill="none" stroke="#000000" points="80,-357.2 80,-376.2 118,-376.2 118,-357.2 80,-357.2"/>
<text text-anchor="start" x="82.8053" y="-363.3" font-family="Helvetica,sans-Serif" font-size="11.00" fill="#000000">0 rows</text>
<polygon fill="#ffffff" stroke="transparent" points="118,-357.2 118,-376.2 139,-376.2 139,-357.2 118,-357.2"/>
<polygon fill="none" stroke="#000000" points="118,-357.2 118,-376.2 139,-376.2 139,-357.2 118,-357.2"/>
<text text-anchor="start" x="120.7027" y="-363.3" font-family="Helvetica,sans-Serif" font-size="11.00" fill="#000000">3 &gt;</text>
</a>
</g>
</g>
<!-- event_users&#45;&gt;users -->
<g id="edge6" class="edge">
<title>event_users:w&#45;&gt;users:e</title>
<path fill="none" stroke="#000000" d="M224.995,-299.0802C212.4535,-308.2346 215.1858,-331.5813 198,-347.2 174.9178,-368.1774 170.1904,-385.2 139,-385.2"/>
<polygon fill="#000000" stroke="#000000" points="231.2904,-297.3361 239.9612,-298.6693 235.1452,-296.268 239,-295.2 239,-295.2 239,-295.2 235.1452,-296.268 238.0388,-291.7307 231.2904,-297.3361 231.2904,-297.3361"/>
<ellipse fill="none" stroke="#000000" cx="228.2066" cy="-298.1905" rx="3.2" ry="3.2"/>
</g>
</g>
</svg>
