<?xml version="1.0" encoding="UTF-8" standalone="no"?>
<!DOCTYPE svg PUBLIC "-//W3C//DTD SVG 1.1//EN"
 "http://www.w3.org/Graphics/SVG/1.1/DTD/svg11.dtd">
<!-- Generated by graphviz version 2.40.1 (20161225.0304)
 -->
<!-- Title: oneDegreeRelationshipsDiagram Pages: 1 -->
<svg width="365pt" height="396pt"
 viewBox="0.00 0.00 365.00 395.70" xmlns="http://www.w3.org/2000/svg" xmlns:xlink="http://www.w3.org/1999/xlink">
<g id="graph0" class="graph" transform="scale(1 1) rotate(0) translate(4 391.7)">
<title>oneDegreeRelationshipsDiagram</title>
<polygon fill="#ffffff" stroke="transparent" points="-4,4 -4,-391.7 361,-391.7 361,4 -4,4"/>
<text text-anchor="middle" x="72.4936" y="-7.3" font-family="Helvetica,sans-Serif" font-size="11.00" fill="#000000">Generated by SchemaSpy</text>
<!-- rsvps -->
<g id="node1" class="node">
<title>rsvps</title>
<g id="a_node1"><a xlink:href="../../tables/rsvps.html" xlink:title="rsvps" target="_top">
<polygon fill="#ffffff" stroke="transparent" points="161,-139.7 161,-383.7 349,-383.7 349,-139.7 161,-139.7"/>
<polygon fill="#f5f5f5" stroke="transparent" points="163,-358.7 163,-381.7 347,-381.7 347,-358.7 163,-358.7"/>
<polygon fill="none" stroke="#000000" points="163,-358.7 163,-381.7 347,-381.7 347,-358.7 163,-358.7"/>
<text text-anchor="start" x="168" y="-367.8" font-family="Helvetica,sans-Serif" font-weight="bold" font-size="11.00" fill="#000000">rsvps</text>
<text text-anchor="start" x="312.0437" y="-366.8" font-family="Helvetica,sans-Serif" font-size="11.00" fill="#000000">[table]</text>
<polygon fill="none" stroke="#000000" points="163,-336.7 163,-358.7 263,-358.7 263,-336.7 163,-336.7"/>
<image xlink:href="../../images/primaryKeys.png" width="11px" height="12px" preserveAspectRatio="xMinYMin meet" x="168" y="-353.7"/>
<text text-anchor="start" x="183" y="-343.8" font-family="Helvetica,sans-Serif" font-size="11.00" fill="#000000">id</text>
<polygon fill="none" stroke="#000000" points="263,-336.7 263,-358.7 347,-358.7 347,-336.7 263,-336.7"/>
<text text-anchor="start" x="266" y="-344.4" font-family="Helvetica,sans-Serif" font-size="11.00" fill="#000000">serial[10]</text>
<polygon fill="none" stroke="#000000" points="163,-314.7 163,-336.7 263,-336.7 263,-314.7 163,-314.7"/>
<text text-anchor="start" x="183" y="-321.8" font-family="Helvetica,sans-Serif" font-size="11.00" fill="#000000">created_at</text>
<polygon fill="none" stroke="#000000" points="263,-314.7 263,-336.7 347,-336.7 347,-314.7 263,-314.7"/>
<text text-anchor="start" x="265.8807" y="-322.4" font-family="Helvetica,sans-Serif" font-size="11.00" fill="#000000">timestamp[29,6]</text>
<polygon fill="none" stroke="#000000" points="163,-292.7 163,-314.7 263,-314.7 263,-292.7 163,-292.7"/>
<text text-anchor="start" x="183" y="-299.8" font-family="Helvetica,sans-Serif" font-size="11.00" fill="#000000">updated_at</text>
<polygon fill="none" stroke="#000000" points="263,-292.7 263,-314.7 347,-314.7 347,-292.7 263,-292.7"/>
<text text-anchor="start" x="265.8807" y="-300.4" font-family="Helvetica,sans-Serif" font-size="11.00" fill="#000000">timestamp[29,6]</text>
<polygon fill="none" stroke="#000000" points="163,-270.7 163,-292.7 263,-292.7 263,-270.7 163,-270.7"/>
<text text-anchor="start" x="183" y="-277.8" font-family="Helvetica,sans-Serif" font-size="11.00" fill="#000000">date</text>
<polygon fill="none" stroke="#000000" points="263,-270.7 263,-292.7 347,-292.7 347,-270.7 263,-270.7"/>
<text text-anchor="start" x="265.8807" y="-278.4" font-family="Helvetica,sans-Serif" font-size="11.00" fill="#000000">timestamp[29,6]</text>
<polygon fill="none" stroke="#000000" points="163,-248.7 163,-270.7 263,-270.7 263,-248.7 163,-248.7"/>
<text text-anchor="start" x="183" y="-255.8" font-family="Helvetica,sans-Serif" font-size="11.00" fill="#000000">on_waitlist</text>
<polygon fill="none" stroke="#000000" points="263,-248.7 263,-270.7 347,-270.7 347,-248.7 263,-248.7"/>
<text text-anchor="start" x="266" y="-256.4" font-family="Helvetica,sans-Serif" font-size="11.00" fill="#000000">bool[1]</text>
<polygon fill="none" stroke="#000000" points="163,-226.7 163,-248.7 263,-248.7 263,-226.7 163,-226.7"/>
<text text-anchor="start" x="183" y="-233.8" font-family="Helvetica,sans-Serif" font-size="11.00" fill="#000000">confirmed_at</text>
<polygon fill="none" stroke="#000000" points="263,-226.7 263,-248.7 347,-248.7 347,-226.7 263,-226.7"/>
<text text-anchor="start" x="265.8807" y="-234.4" font-family="Helvetica,sans-Serif" font-size="11.00" fill="#000000">timestamp[29,6]</text>
<polygon fill="none" stroke="#000000" points="163,-204.7 163,-226.7 263,-226.7 263,-204.7 163,-204.7"/>
<text text-anchor="start" x="183" y="-211.8" font-family="Helvetica,sans-Serif" font-size="11.00" fill="#000000">canceled</text>
<polygon fill="none" stroke="#000000" points="263,-204.7 263,-226.7 347,-226.7 347,-204.7 263,-204.7"/>
<text text-anchor="start" x="266" y="-212.4" font-family="Helvetica,sans-Serif" font-size="11.00" fill="#000000">bool[1]</text>
<polygon fill="none" stroke="#000000" points="163,-182.7 163,-204.7 263,-204.7 263,-182.7 163,-182.7"/>
<image xlink:href="../../images/foreignKeys.png" width="11px" height="12px" preserveAspectRatio="xMinYMin meet" x="168" y="-199.7"/>
<text text-anchor="start" x="183" y="-189.8" font-family="Helvetica,sans-Serif" font-size="11.00" fill="#000000">event_id</text>
<polygon fill="none" stroke="#000000" points="263,-182.7 263,-204.7 347,-204.7 347,-182.7 263,-182.7"/>
<text text-anchor="start" x="266" y="-190.4" font-family="Helvetica,sans-Serif" font-size="11.00" fill="#000000">int4[10]</text>
<polygon fill="none" stroke="#000000" points="163,-160.7 163,-182.7 263,-182.7 263,-160.7 163,-160.7"/>
<image xlink:href="../../images/foreignKeys.png" width="11px" height="12px" preserveAspectRatio="xMinYMin meet" x="168" y="-177.7"/>
<text text-anchor="start" x="183" y="-167.8" font-family="Helvetica,sans-Serif" font-size="11.00" fill="#000000">user_id</text>
<polygon fill="none" stroke="#000000" points="263,-160.7 263,-182.7 347,-182.7 347,-160.7 263,-160.7"/>
<text text-anchor="start" x="266" y="-168.4" font-family="Helvetica,sans-Serif" font-size="11.00" fill="#000000">int4[10]</text>
<polygon fill="#ffffff" stroke="transparent" points="163,-141.7 163,-160.7 204,-160.7 204,-141.7 163,-141.7"/>
<polygon fill="none" stroke="#000000" points="163,-141.7 163,-160.7 204,-160.7 204,-141.7 163,-141.7"/>
<text text-anchor="start" x="166" y="-147.8" font-family="Helvetica,sans-Serif" font-size="11.00" fill="#000000">&lt; 2</text>
<polygon fill="#ffffff" stroke="transparent" points="204,-141.7 204,-160.7 263,-160.7 263,-141.7 204,-141.7"/>
<polygon fill="none" stroke="#000000" points="204,-141.7 204,-160.7 263,-160.7 263,-141.7 204,-141.7"/>
<text text-anchor="start" x="227.6105" y="-147.8" font-family="Helvetica,sans-Serif" font-size="11.00" fill="#000000">0 rows</text>
<polygon fill="#ffffff" stroke="transparent" points="263,-141.7 263,-160.7 347,-160.7 347,-141.7 263,-141.7"/>
<polygon fill="none" stroke="#000000" points="263,-141.7 263,-160.7 347,-160.7 347,-141.7 263,-141.7"/>
<text text-anchor="start" x="328.4053" y="-147.8" font-family="Helvetica,sans-Serif" font-size="11.00" fill="#000000">0 &gt;</text>
<polygon fill="none" stroke="#000000" stroke-width="2" points="162,-140.7 162,-382.7 348,-382.7 348,-140.7 162,-140.7"/>
</a>
</g>
</g>
<!-- events -->
<g id="node2" class="node">
<title>events</title>
<g id="a_node2"><a xlink:href="../../tables/events.html" xlink:title="events" target="_top">
<polygon fill="#ffffff" stroke="transparent" points="8,-164.2 8,-291.2 112,-291.2 112,-164.2 8,-164.2"/>
<polygon fill="#f5f5f5" stroke="transparent" points="8,-267.7 8,-290.7 112,-290.7 112,-267.7 8,-267.7"/>
<polygon fill="none" stroke="#000000" points="8,-267.7 8,-290.7 112,-290.7 112,-267.7 8,-267.7"/>
<text text-anchor="start" x="13" y="-276.8" font-family="Helvetica,sans-Serif" font-weight="bold" font-size="11.00" fill="#000000">events</text>
<text text-anchor="start" x="77.0437" y="-275.8" font-family="Helvetica,sans-Serif" font-size="11.00" fill="#000000">[table]</text>
<polygon fill="none" stroke="#000000" points="8,-245.7 8,-267.7 112,-267.7 112,-245.7 8,-245.7"/>
<image xlink:href="../../images/primaryKeys.png" width="11px" height="12px" preserveAspectRatio="xMinYMin meet" x="13" y="-262.7"/>
<text text-anchor="start" x="28" y="-252.8" font-family="Helvetica,sans-Serif" font-size="11.00" fill="#000000">id</text>
<polygon fill="none" stroke="#000000" points="8,-223.7 8,-245.7 112,-245.7 112,-223.7 8,-223.7"/>
<image xlink:href="../../images/foreignKeys.png" width="11px" height="12px" preserveAspectRatio="xMinYMin meet" x="13" y="-240.7"/>
<text text-anchor="start" x="28" y="-230.8" font-family="Helvetica,sans-Serif" font-size="11.00" fill="#000000">venue_id</text>
<polygon fill="none" stroke="#000000" points="8,-201.7 8,-223.7 112,-223.7 112,-201.7 8,-201.7"/>
<image xlink:href="../../images/foreignKeys.png" width="11px" height="12px" preserveAspectRatio="xMinYMin meet" x="13" y="-218.7"/>
<text text-anchor="start" x="28" y="-208.8" font-family="Helvetica,sans-Serif" font-size="11.00" fill="#000000">chapter_id</text>
<polygon fill="none" stroke="#000000" points="8,-182.7 8,-201.7 112,-201.7 112,-182.7 8,-182.7"/>
<text text-anchor="start" x="11" y="-188.8" font-family="Helvetica,sans-Serif" font-size="11.00" fill="#000000">...</text>
<polygon fill="#ffffff" stroke="transparent" points="8,-163.7 8,-182.7 41,-182.7 41,-163.7 8,-163.7"/>
<polygon fill="none" stroke="#000000" points="8,-163.7 8,-182.7 41,-182.7 41,-163.7 8,-163.7"/>
<text text-anchor="start" x="11" y="-169.8" font-family="Helvetica,sans-Serif" font-size="11.00" fill="#000000">&lt; 2</text>
<polygon fill="#ffffff" stroke="transparent" points="41,-163.7 41,-182.7 85,-182.7 85,-163.7 41,-163.7"/>
<polygon fill="none" stroke="#000000" points="41,-163.7 41,-182.7 85,-182.7 85,-163.7 41,-163.7"/>
<text text-anchor="start" x="49.6105" y="-169.8" font-family="Helvetica,sans-Serif" font-size="11.00" fill="#000000">0 rows</text>
<polygon fill="#ffffff" stroke="transparent" points="85,-163.7 85,-182.7 112,-182.7 112,-163.7 85,-163.7"/>
<polygon fill="none" stroke="#000000" points="85,-163.7 85,-182.7 112,-182.7 112,-163.7 85,-163.7"/>
<text text-anchor="start" x="93.4053" y="-169.8" font-family="Helvetica,sans-Serif" font-size="11.00" fill="#000000">4 &gt;</text>
</a>
</g>
</g>
<!-- rsvps&#45;&gt;events -->
<g id="edge1" class="edge">
<title>rsvps:w&#45;&gt;events:e</title>
<path fill="none" stroke="#000000" d="M148.9033,-198.6435C132.525,-213.4952 141.8329,-256.7 112,-256.7"/>
<polygon fill="#000000" stroke="#000000" points="155.4507,-196.3474 164.1913,-197.0972 159.2254,-195.0237 163,-193.7 163,-193.7 163,-193.7 159.2254,-195.0237 161.8087,-190.3028 155.4507,-196.3474 155.4507,-196.3474"/>
<ellipse fill="none" stroke="#000000" cx="152.431" cy="-197.4064" rx="3.2" ry="3.2"/>
</g>
<!-- users -->
<g id="node3" class="node">
<title>users</title>
<g id="a_node3"><a xlink:href="../../tables/users.html" xlink:title="users" target="_top">
<polygon fill="#ffffff" stroke="transparent" points="16,-38.2 16,-143.2 104,-143.2 104,-38.2 16,-38.2"/>
<polygon fill="#f5f5f5" stroke="transparent" points="16,-119.7 16,-142.7 104,-142.7 104,-119.7 16,-119.7"/>
<polygon fill="none" stroke="#000000" points="16,-119.7 16,-142.7 104,-142.7 104,-119.7 16,-119.7"/>
<text text-anchor="start" x="21" y="-128.8" font-family="Helvetica,sans-Serif" font-weight="bold" font-size="11.00" fill="#000000">users</text>
<text text-anchor="start" x="69.0437" y="-127.8" font-family="Helvetica,sans-Serif" font-size="11.00" fill="#000000">[table]</text>
<polygon fill="none" stroke="#000000" points="16,-97.7 16,-119.7 104,-119.7 104,-97.7 16,-97.7"/>
<image xlink:href="../../images/primaryKeys.png" width="11px" height="12px" preserveAspectRatio="xMinYMin meet" x="21" y="-114.7"/>
<text text-anchor="start" x="36" y="-104.8" font-family="Helvetica,sans-Serif" font-size="11.00" fill="#000000">id</text>
<polygon fill="#ffffff" stroke="transparent" points="16,-75.7 16,-97.7 104,-97.7 104,-75.7 16,-75.7"/>
<polygon fill="none" stroke="#000000" points="16,-75.7 16,-97.7 104,-97.7 104,-75.7 16,-75.7"/>
<text text-anchor="start" x="36" y="-82.8" font-family="Helvetica,sans-Serif" font-size="11.00" fill="#000000">email</text>
<polygon fill="none" stroke="#000000" points="16,-56.7 16,-75.7 104,-75.7 104,-56.7 16,-56.7"/>
<text text-anchor="start" x="19" y="-62.8" font-family="Helvetica,sans-Serif" font-size="11.00" fill="#000000">...</text>
<polygon fill="#ffffff" stroke="transparent" points="16,-37.7 16,-56.7 36,-56.7 36,-37.7 16,-37.7"/>
<polygon fill="none" stroke="#000000" points="16,-37.7 16,-56.7 36,-56.7 36,-37.7 16,-37.7"/>
<text text-anchor="start" x="19" y="-43.8" font-family="Helvetica,sans-Serif" font-size="11.00" fill="#000000"> &#160;</text>
<polygon fill="#ffffff" stroke="transparent" points="36,-37.7 36,-56.7 78,-56.7 78,-37.7 36,-37.7"/>
<polygon fill="none" stroke="#000000" points="36,-37.7 36,-56.7 78,-56.7 78,-37.7 36,-37.7"/>
<text text-anchor="start" x="42.6105" y="-43.8" font-family="Helvetica,sans-Serif" font-size="11.00" fill="#000000">0 rows</text>
<polygon fill="#ffffff" stroke="transparent" points="78,-37.7 78,-56.7 104,-56.7 104,-37.7 78,-37.7"/>
<polygon fill="none" stroke="#000000" points="78,-37.7 78,-56.7 104,-56.7 104,-37.7 78,-37.7"/>
<text text-anchor="start" x="85.4053" y="-43.8" font-family="Helvetica,sans-Serif" font-size="11.00" fill="#000000">6 &gt;</text>
</a>
</g>
</g>
<!-- rsvps&#45;&gt;users -->
<g id="edge2" class="edge">
<title>rsvps:w&#45;&gt;users:e</title>
<path fill="none" stroke="#000000" d="M148.9759,-167.7591C128.7368,-153.9668 136.5174,-108.7 104,-108.7"/>
<polygon fill="#000000" stroke="#000000" points="155.2983,-169.5357 162.0261,-175.1658 159.1492,-170.6178 163,-171.7 163,-171.7 163,-171.7 159.1492,-170.6178 163.9739,-168.2342 155.2983,-169.5357 155.2983,-169.5357"/>
<ellipse fill="none" stroke="#000000" cx="152.2176" cy="-168.67" rx="3.2" ry="3.2"/>
</g>
</g>
</svg>
