<?xml version="1.0" encoding="UTF-8" standalone="no"?>
<!DOCTYPE svg PUBLIC "-//W3C//DTD SVG 1.1//EN"
 "http://www.w3.org/Graphics/SVG/1.1/DTD/svg11.dtd">
<!-- Generated by graphviz version 2.40.1 (20161225.0304)
 -->
<!-- Title: twoDegreesRelationshipsDiagram Pages: 1 -->
<svg width="725pt" height="581pt"
 viewBox="0.00 0.00 725.00 580.70" xmlns="http://www.w3.org/2000/svg" xmlns:xlink="http://www.w3.org/1999/xlink">
<g id="graph0" class="graph" transform="scale(1 1) rotate(0) translate(4 576.7)">
<title>twoDegreesRelationshipsDiagram</title>
<polygon fill="#ffffff" stroke="transparent" points="-4,4 -4,-576.7 721,-576.7 721,4 -4,4"/>
<text text-anchor="middle" x="72.4936" y="-7.3" font-family="Helvetica,sans-Serif" font-size="11.00" fill="#000000">Generated by SchemaSpy</text>
<!-- chapters -->
<g id="node1" class="node">
<title>chapters</title>
<g id="a_node1"><a xlink:href="../../tables/chapters.html" xlink:title="chapters" target="_top">
<polygon fill="#ffffff" stroke="transparent" points="173,-257.7 173,-318.7 258,-318.7 258,-257.7 173,-257.7"/>
<polygon fill="#f5f5f5" stroke="transparent" points="173.5,-295.2 173.5,-318.2 258.5,-318.2 258.5,-295.2 173.5,-295.2"/>
<polygon fill="none" stroke="#000000" points="173.5,-295.2 173.5,-318.2 258.5,-318.2 258.5,-295.2 173.5,-295.2"/>
<text text-anchor="start" x="178.4108" y="-304.3" font-family="Helvetica,sans-Serif" font-weight="bold" font-size="11.00" fill="#000000">chapters</text>
<text text-anchor="start" x="224.0219" y="-303.3" font-family="Helvetica,sans-Serif" font-size="11.00" fill="#000000">[table]</text>
<polygon fill="none" stroke="#000000" points="173.5,-276.2 173.5,-295.2 258.5,-295.2 258.5,-276.2 173.5,-276.2"/>
<text text-anchor="start" x="176.5" y="-282.3" font-family="Helvetica,sans-Serif" font-size="11.00" fill="#000000">...</text>
<polygon fill="#ffffff" stroke="transparent" points="173.5,-257.2 173.5,-276.2 196.5,-276.2 196.5,-257.2 173.5,-257.2"/>
<polygon fill="none" stroke="#000000" points="173.5,-257.2 173.5,-276.2 196.5,-276.2 196.5,-257.2 173.5,-257.2"/>
<text text-anchor="start" x="176.5" y="-263.3" font-family="Helvetica,sans-Serif" font-size="11.00" fill="#000000">&lt; 1</text>
<polygon fill="#ffffff" stroke="transparent" points="196.5,-257.2 196.5,-276.2 235.5,-276.2 235.5,-257.2 196.5,-257.2"/>
<polygon fill="none" stroke="#000000" points="196.5,-257.2 196.5,-276.2 235.5,-276.2 235.5,-257.2 196.5,-257.2"/>
<text text-anchor="start" x="200.1105" y="-263.3" font-family="Helvetica,sans-Serif" font-size="11.00" fill="#000000">0 rows</text>
<polygon fill="#ffffff" stroke="transparent" points="235.5,-257.2 235.5,-276.2 258.5,-276.2 258.5,-257.2 235.5,-257.2"/>
<polygon fill="none" stroke="#000000" points="235.5,-257.2 235.5,-276.2 258.5,-276.2 258.5,-257.2 235.5,-257.2"/>
<text text-anchor="start" x="239.9053" y="-263.3" font-family="Helvetica,sans-Serif" font-size="11.00" fill="#000000">3 &gt;</text>
</a>
</g>
</g>
<!-- users -->
<g id="node2" class="node">
<title>users</title>
<g id="a_node2"><a xlink:href="../../tables/users.html" xlink:title="users" target="_top">
<polygon fill="#ffffff" stroke="transparent" points="8,-284.7 8,-389.7 96,-389.7 96,-284.7 8,-284.7"/>
<polygon fill="#f5f5f5" stroke="transparent" points="8,-366.2 8,-389.2 96,-389.2 96,-366.2 8,-366.2"/>
<polygon fill="none" stroke="#000000" points="8,-366.2 8,-389.2 96,-389.2 96,-366.2 8,-366.2"/>
<text text-anchor="start" x="13" y="-375.3" font-family="Helvetica,sans-Serif" font-weight="bold" font-size="11.00" fill="#000000">users</text>
<text text-anchor="start" x="61.0437" y="-374.3" font-family="Helvetica,sans-Serif" font-size="11.00" fill="#000000">[table]</text>
<polygon fill="none" stroke="#000000" points="8,-344.2 8,-366.2 96,-366.2 96,-344.2 8,-344.2"/>
<image xlink:href="../../images/primaryKeys.png" width="11px" height="12px" preserveAspectRatio="xMinYMin meet" x="13" y="-361.2"/>
<text text-anchor="start" x="28" y="-351.3" font-family="Helvetica,sans-Serif" font-size="11.00" fill="#000000">id</text>
<polygon fill="#ffffff" stroke="transparent" points="8,-322.2 8,-344.2 96,-344.2 96,-322.2 8,-322.2"/>
<polygon fill="none" stroke="#000000" points="8,-322.2 8,-344.2 96,-344.2 96,-322.2 8,-322.2"/>
<text text-anchor="start" x="28" y="-329.3" font-family="Helvetica,sans-Serif" font-size="11.00" fill="#000000">email</text>
<polygon fill="none" stroke="#000000" points="8,-303.2 8,-322.2 96,-322.2 96,-303.2 8,-303.2"/>
<text text-anchor="start" x="11" y="-309.3" font-family="Helvetica,sans-Serif" font-size="11.00" fill="#000000">...</text>
<polygon fill="#ffffff" stroke="transparent" points="8,-284.2 8,-303.2 28,-303.2 28,-284.2 8,-284.2"/>
<polygon fill="none" stroke="#000000" points="8,-284.2 8,-303.2 28,-303.2 28,-284.2 8,-284.2"/>
<text text-anchor="start" x="11" y="-290.3" font-family="Helvetica,sans-Serif" font-size="11.00" fill="#000000"> &#160;</text>
<polygon fill="#ffffff" stroke="transparent" points="28,-284.2 28,-303.2 70,-303.2 70,-284.2 28,-284.2"/>
<polygon fill="none" stroke="#000000" points="28,-284.2 28,-303.2 70,-303.2 70,-284.2 28,-284.2"/>
<text text-anchor="start" x="34.6105" y="-290.3" font-family="Helvetica,sans-Serif" font-size="11.00" fill="#000000">0 rows</text>
<polygon fill="#ffffff" stroke="transparent" points="70,-284.2 70,-303.2 96,-303.2 96,-284.2 70,-284.2"/>
<polygon fill="none" stroke="#000000" points="70,-284.2 70,-303.2 96,-303.2 96,-284.2 70,-284.2"/>
<text text-anchor="start" x="77.4053" y="-290.3" font-family="Helvetica,sans-Serif" font-size="11.00" fill="#000000">6 &gt;</text>
</a>
</g>
</g>
<!-- chapters&#45;&gt;users -->
<g id="edge1" class="edge">
<title>chapters:w&#45;&gt;users:e</title>
<path fill="none" stroke="#000000" d="M159.1353,-288.0308C129.8925,-301.1267 136.7941,-355.2 96,-355.2"/>
<polygon fill="#000000" stroke="#000000" points="165.651,-286.7468 174.1961,-288.7321 169.5755,-285.9734 173.5,-285.2 173.5,-285.2 173.5,-285.2 169.5755,-285.9734 172.8039,-281.6679 165.651,-286.7468 165.651,-286.7468"/>
<ellipse fill="none" stroke="#000000" cx="162.5113" cy="-287.3655" rx="3.2" ry="3.2"/>
</g>
<!-- event_sponsors -->
<g id="node3" class="node">
<title>event_sponsors</title>
<g id="a_node3"><a xlink:href="../../tables/event_sponsors.html" xlink:title="event_sponsors" target="_top">
<polygon fill="#ffffff" stroke="transparent" points="555,-303.7 555,-364.7 675,-364.7 675,-303.7 555,-303.7"/>
<polygon fill="#f5f5f5" stroke="transparent" points="555,-341.2 555,-364.2 675,-364.2 675,-341.2 555,-341.2"/>
<polygon fill="none" stroke="#000000" points="555,-341.2 555,-364.2 675,-364.2 675,-341.2 555,-341.2"/>
<text text-anchor="start" x="559.681" y="-350.3" font-family="Helvetica,sans-Serif" font-weight="bold" font-size="11.00" fill="#000000">event_sponsors</text>
<text text-anchor="start" x="640.5219" y="-349.3" font-family="Helvetica,sans-Serif" font-size="11.00" fill="#000000">[table]</text>
<polygon fill="none" stroke="#000000" points="555,-322.2 555,-341.2 675,-341.2 675,-322.2 555,-322.2"/>
<text text-anchor="start" x="558" y="-328.3" font-family="Helvetica,sans-Serif" font-size="11.00" fill="#000000">...</text>
<polygon fill="#ffffff" stroke="transparent" points="555,-303.2 555,-322.2 600,-322.2 600,-303.2 555,-303.2"/>
<polygon fill="none" stroke="#000000" points="555,-303.2 555,-322.2 600,-322.2 600,-303.2 555,-303.2"/>
<text text-anchor="start" x="558" y="-309.3" font-family="Helvetica,sans-Serif" font-size="11.00" fill="#000000">&lt; 2</text>
<polygon fill="#ffffff" stroke="transparent" points="600,-303.2 600,-322.2 650,-322.2 650,-303.2 600,-303.2"/>
<polygon fill="none" stroke="#000000" points="600,-303.2 600,-322.2 650,-322.2 650,-303.2 600,-303.2"/>
<text text-anchor="start" x="614.6105" y="-309.3" font-family="Helvetica,sans-Serif" font-size="11.00" fill="#000000">0 rows</text>
<polygon fill="#ffffff" stroke="transparent" points="650,-303.2 650,-322.2 675,-322.2 675,-303.2 650,-303.2"/>
<polygon fill="none" stroke="#000000" points="650,-303.2 650,-322.2 675,-322.2 675,-303.2 650,-303.2"/>
<text text-anchor="start" x="665.8862" y="-309.3" font-family="Helvetica,sans-Serif" font-size="11.00" fill="#000000"> &#160;</text>
</a>
</g>
</g>
<!-- events -->
<g id="node4" class="node">
<title>events</title>
<g id="a_node4"><a xlink:href="../../tables/events.html" xlink:title="events" target="_top">
<polygon fill="#ffffff" stroke="transparent" points="359,-249.7 359,-376.7 448,-376.7 448,-249.7 359,-249.7"/>
<polygon fill="#f5f5f5" stroke="transparent" points="359.5,-353.2 359.5,-376.2 448.5,-376.2 448.5,-353.2 359.5,-353.2"/>
<polygon fill="none" stroke="#000000" points="359.5,-353.2 359.5,-376.2 448.5,-376.2 448.5,-353.2 359.5,-353.2"/>
<text text-anchor="start" x="364.5" y="-362.3" font-family="Helvetica,sans-Serif" font-weight="bold" font-size="11.00" fill="#000000">events</text>
<text text-anchor="start" x="413.5437" y="-361.3" font-family="Helvetica,sans-Serif" font-size="11.00" fill="#000000">[table]</text>
<polygon fill="none" stroke="#000000" points="359.5,-331.2 359.5,-353.2 448.5,-353.2 448.5,-331.2 359.5,-331.2"/>
<image xlink:href="../../images/primaryKeys.png" width="11px" height="12px" preserveAspectRatio="xMinYMin meet" x="364.5" y="-348.2"/>
<text text-anchor="start" x="379.5" y="-338.3" font-family="Helvetica,sans-Serif" font-size="11.00" fill="#000000">id</text>
<polygon fill="none" stroke="#000000" points="359.5,-309.2 359.5,-331.2 448.5,-331.2 448.5,-309.2 359.5,-309.2"/>
<image xlink:href="../../images/foreignKeys.png" width="11px" height="12px" preserveAspectRatio="xMinYMin meet" x="364.5" y="-326.2"/>
<text text-anchor="start" x="379.5" y="-316.3" font-family="Helvetica,sans-Serif" font-size="11.00" fill="#000000">venue_id</text>
<polygon fill="none" stroke="#000000" points="359.5,-287.2 359.5,-309.2 448.5,-309.2 448.5,-287.2 359.5,-287.2"/>
<image xlink:href="../../images/foreignKeys.png" width="11px" height="12px" preserveAspectRatio="xMinYMin meet" x="364.5" y="-304.2"/>
<text text-anchor="start" x="379.5" y="-294.3" font-family="Helvetica,sans-Serif" font-size="11.00" fill="#000000">chapter_id</text>
<polygon fill="none" stroke="#000000" points="359.5,-268.2 359.5,-287.2 448.5,-287.2 448.5,-268.2 359.5,-268.2"/>
<text text-anchor="start" x="362.5" y="-274.3" font-family="Helvetica,sans-Serif" font-size="11.00" fill="#000000">...</text>
<polygon fill="#ffffff" stroke="transparent" points="359.5,-249.2 359.5,-268.2 384.5,-268.2 384.5,-249.2 359.5,-249.2"/>
<polygon fill="none" stroke="#000000" points="359.5,-249.2 359.5,-268.2 384.5,-268.2 384.5,-249.2 359.5,-249.2"/>
<text text-anchor="start" x="362.5" y="-255.3" font-family="Helvetica,sans-Serif" font-size="11.00" fill="#000000">&lt; 2</text>
<polygon fill="#ffffff" stroke="transparent" points="384.5,-249.2 384.5,-268.2 424.5,-268.2 424.5,-249.2 384.5,-249.2"/>
<polygon fill="none" stroke="#000000" points="384.5,-249.2 384.5,-268.2 424.5,-268.2 424.5,-249.2 384.5,-249.2"/>
<text text-anchor="start" x="389.1105" y="-255.3" font-family="Helvetica,sans-Serif" font-size="11.00" fill="#000000">0 rows</text>
<polygon fill="#ffffff" stroke="transparent" points="424.5,-249.2 424.5,-268.2 448.5,-268.2 448.5,-249.2 424.5,-249.2"/>
<polygon fill="none" stroke="#000000" points="424.5,-249.2 424.5,-268.2 448.5,-268.2 448.5,-249.2 424.5,-249.2"/>
<text text-anchor="start" x="429.9053" y="-255.3" font-family="Helvetica,sans-Serif" font-size="11.00" fill="#000000">4 &gt;</text>
</a>
</g>
</g>
<!-- event_sponsors&#45;&gt;events -->
<g id="edge2" class="edge">
<title>event_sponsors:w&#45;&gt;events:e</title>
<path fill="none" stroke="#000000" d="M540.5924,-331.566C504.5028,-333.4747 490.8805,-342.2 448.5,-342.2"/>
<polygon fill="#000000" stroke="#000000" points="547.0026,-331.4032 555.0914,-334.7988 551.0013,-331.3016 555,-331.2 555,-331.2 555,-331.2 551.0013,-331.3016 554.9086,-327.6012 547.0026,-331.4032 547.0026,-331.4032"/>
<ellipse fill="none" stroke="#000000" cx="543.8036" cy="-331.4845" rx="3.2" ry="3.2"/>
</g>
<!-- events&#45;&gt;chapters -->
<g id="edge3" class="edge">
<title>events:w&#45;&gt;chapters:e</title>
<path fill="none" stroke="#000000" d="M344.9094,-297.7063C311.3066,-295.3317 298.4554,-285.2 258.5,-285.2"/>
<polygon fill="#000000" stroke="#000000" points="351.5046,-297.9294 359.3782,-301.7979 355.5023,-298.0647 359.5,-298.2 359.5,-298.2 359.5,-298.2 355.5023,-298.0647 359.6218,-294.6021 351.5046,-297.9294 351.5046,-297.9294"/>
<ellipse fill="none" stroke="#000000" cx="348.3064" cy="-297.8211" rx="3.2" ry="3.2"/>
</g>
<!-- venues -->
<g id="node5" class="node">
<title>venues</title>
<g id="a_node5"><a xlink:href="../../tables/venues.html" xlink:title="venues" target="_top">
<polygon fill="#ffffff" stroke="transparent" points="176.5,-339.7 176.5,-400.7 254.5,-400.7 254.5,-339.7 176.5,-339.7"/>
<polygon fill="#f5f5f5" stroke="transparent" points="176.5,-377.2 176.5,-400.2 254.5,-400.2 254.5,-377.2 176.5,-377.2"/>
<polygon fill="none" stroke="#000000" points="176.5,-377.2 176.5,-400.2 254.5,-400.2 254.5,-377.2 176.5,-377.2"/>
<text text-anchor="start" x="181.2702" y="-386.3" font-family="Helvetica,sans-Serif" font-weight="bold" font-size="11.00" fill="#000000">venues</text>
<text text-anchor="start" x="220.0219" y="-385.3" font-family="Helvetica,sans-Serif" font-size="11.00" fill="#000000">[table]</text>
<polygon fill="none" stroke="#000000" points="176.5,-358.2 176.5,-377.2 254.5,-377.2 254.5,-358.2 176.5,-358.2"/>
<text text-anchor="start" x="179.5" y="-364.3" font-family="Helvetica,sans-Serif" font-size="11.00" fill="#000000">...</text>
<polygon fill="#ffffff" stroke="transparent" points="176.5,-339.2 176.5,-358.2 191.5,-358.2 191.5,-339.2 176.5,-339.2"/>
<polygon fill="none" stroke="#000000" points="176.5,-339.2 176.5,-358.2 191.5,-358.2 191.5,-339.2 176.5,-339.2"/>
<text text-anchor="start" x="179.5" y="-345.3" font-family="Helvetica,sans-Serif" font-size="11.00" fill="#000000"> &#160;</text>
<polygon fill="#ffffff" stroke="transparent" points="191.5,-339.2 191.5,-358.2 231.5,-358.2 231.5,-339.2 191.5,-339.2"/>
<polygon fill="none" stroke="#000000" points="191.5,-339.2 191.5,-358.2 231.5,-358.2 231.5,-339.2 191.5,-339.2"/>
<text text-anchor="start" x="196.1105" y="-345.3" font-family="Helvetica,sans-Serif" font-size="11.00" fill="#000000">0 rows</text>
<polygon fill="#ffffff" stroke="transparent" points="231.5,-339.2 231.5,-358.2 254.5,-358.2 254.5,-339.2 231.5,-339.2"/>
<polygon fill="none" stroke="#000000" points="231.5,-339.2 231.5,-358.2 254.5,-358.2 254.5,-339.2 231.5,-339.2"/>
<text text-anchor="start" x="235.9053" y="-345.3" font-family="Helvetica,sans-Serif" font-size="11.00" fill="#000000">1 &gt;</text>
</a>
</g>
</g>
<!-- events&#45;&gt;venues -->
<g id="edge4" class="edge">
<title>events:w&#45;&gt;venues:e</title>
<path fill="none" stroke="#000000" d="M344.8238,-321.6582C307.2547,-329.5913 300.236,-367.2 254.5,-367.2"/>
<polygon fill="#000000" stroke="#000000" points="351.5392,-320.991 359.8559,-323.7824 355.5196,-320.5955 359.5,-320.2 359.5,-320.2 359.5,-320.2 355.5196,-320.5955 359.1441,-316.6176 351.5392,-320.991 351.5392,-320.991"/>
<ellipse fill="none" stroke="#000000" cx="348.3549" cy="-321.3074" rx="3.2" ry="3.2"/>
</g>
<!-- rsvps -->
<g id="node6" class="node">
<title>rsvps</title>
<g id="a_node6"><a xlink:href="../../tables/rsvps.html" xlink:title="rsvps" target="_top">
<polygon fill="#ffffff" stroke="transparent" points="521,-38.2 521,-282.2 709,-282.2 709,-38.2 521,-38.2"/>
<polygon fill="#f5f5f5" stroke="transparent" points="523,-257.2 523,-280.2 707,-280.2 707,-257.2 523,-257.2"/>
<polygon fill="none" stroke="#000000" points="523,-257.2 523,-280.2 707,-280.2 707,-257.2 523,-257.2"/>
<text text-anchor="start" x="528" y="-266.3" font-family="Helvetica,sans-Serif" font-weight="bold" font-size="11.00" fill="#000000">rsvps</text>
<text text-anchor="start" x="672.0437" y="-265.3" font-family="Helvetica,sans-Serif" font-size="11.00" fill="#000000">[table]</text>
<polygon fill="none" stroke="#000000" points="523,-235.2 523,-257.2 623,-257.2 623,-235.2 523,-235.2"/>
<image xlink:href="../../images/primaryKeys.png" width="11px" height="12px" preserveAspectRatio="xMinYMin meet" x="528" y="-252.2"/>
<text text-anchor="start" x="543" y="-242.3" font-family="Helvetica,sans-Serif" font-size="11.00" fill="#000000">id</text>
<polygon fill="none" stroke="#000000" points="623,-235.2 623,-257.2 707,-257.2 707,-235.2 623,-235.2"/>
<text text-anchor="start" x="626" y="-242.9" font-family="Helvetica,sans-Serif" font-size="11.00" fill="#000000">serial[10]</text>
<polygon fill="none" stroke="#000000" points="523,-213.2 523,-235.2 623,-235.2 623,-213.2 523,-213.2"/>
<text text-anchor="start" x="543" y="-220.3" font-family="Helvetica,sans-Serif" font-size="11.00" fill="#000000">created_at</text>
<polygon fill="none" stroke="#000000" points="623,-213.2 623,-235.2 707,-235.2 707,-213.2 623,-213.2"/>
<text text-anchor="start" x="625.8807" y="-220.9" font-family="Helvetica,sans-Serif" font-size="11.00" fill="#000000">timestamp[29,6]</text>
<polygon fill="none" stroke="#000000" points="523,-191.2 523,-213.2 623,-213.2 623,-191.2 523,-191.2"/>
<text text-anchor="start" x="543" y="-198.3" font-family="Helvetica,sans-Serif" font-size="11.00" fill="#000000">updated_at</text>
<polygon fill="none" stroke="#000000" points="623,-191.2 623,-213.2 707,-213.2 707,-191.2 623,-191.2"/>
<text text-anchor="start" x="625.8807" y="-198.9" font-family="Helvetica,sans-Serif" font-size="11.00" fill="#000000">timestamp[29,6]</text>
<polygon fill="none" stroke="#000000" points="523,-169.2 523,-191.2 623,-191.2 623,-169.2 523,-169.2"/>
<text text-anchor="start" x="543" y="-176.3" font-family="Helvetica,sans-Serif" font-size="11.00" fill="#000000">date</text>
<polygon fill="none" stroke="#000000" points="623,-169.2 623,-191.2 707,-191.2 707,-169.2 623,-169.2"/>
<text text-anchor="start" x="625.8807" y="-176.9" font-family="Helvetica,sans-Serif" font-size="11.00" fill="#000000">timestamp[29,6]</text>
<polygon fill="none" stroke="#000000" points="523,-147.2 523,-169.2 623,-169.2 623,-147.2 523,-147.2"/>
<text text-anchor="start" x="543" y="-154.3" font-family="Helvetica,sans-Serif" font-size="11.00" fill="#000000">on_waitlist</text>
<polygon fill="none" stroke="#000000" points="623,-147.2 623,-169.2 707,-169.2 707,-147.2 623,-147.2"/>
<text text-anchor="start" x="626" y="-154.9" font-family="Helvetica,sans-Serif" font-size="11.00" fill="#000000">bool[1]</text>
<polygon fill="none" stroke="#000000" points="523,-125.2 523,-147.2 623,-147.2 623,-125.2 523,-125.2"/>
<text text-anchor="start" x="543" y="-132.3" font-family="Helvetica,sans-Serif" font-size="11.00" fill="#000000">confirmed_at</text>
<polygon fill="none" stroke="#000000" points="623,-125.2 623,-147.2 707,-147.2 707,-125.2 623,-125.2"/>
<text text-anchor="start" x="625.8807" y="-132.9" font-family="Helvetica,sans-Serif" font-size="11.00" fill="#000000">timestamp[29,6]</text>
<polygon fill="none" stroke="#000000" points="523,-103.2 523,-125.2 623,-125.2 623,-103.2 523,-103.2"/>
<text text-anchor="start" x="543" y="-110.3" font-family="Helvetica,sans-Serif" font-size="11.00" fill="#000000">canceled</text>
<polygon fill="none" stroke="#000000" points="623,-103.2 623,-125.2 707,-125.2 707,-103.2 623,-103.2"/>
<text text-anchor="start" x="626" y="-110.9" font-family="Helvetica,sans-Serif" font-size="11.00" fill="#000000">bool[1]</text>
<polygon fill="none" stroke="#000000" points="523,-81.2 523,-103.2 623,-103.2 623,-81.2 523,-81.2"/>
<image xlink:href="../../images/foreignKeys.png" width="11px" height="12px" preserveAspectRatio="xMinYMin meet" x="528" y="-98.2"/>
<text text-anchor="start" x="543" y="-88.3" font-family="Helvetica,sans-Serif" font-size="11.00" fill="#000000">event_id</text>
<polygon fill="none" stroke="#000000" points="623,-81.2 623,-103.2 707,-103.2 707,-81.2 623,-81.2"/>
<text text-anchor="start" x="626" y="-88.9" font-family="Helvetica,sans-Serif" font-size="11.00" fill="#000000">int4[10]</text>
<polygon fill="none" stroke="#000000" points="523,-59.2 523,-81.2 623,-81.2 623,-59.2 523,-59.2"/>
<image xlink:href="../../images/foreignKeys.png" width="11px" height="12px" preserveAspectRatio="xMinYMin meet" x="528" y="-76.2"/>
<text text-anchor="start" x="543" y="-66.3" font-family="Helvetica,sans-Serif" font-size="11.00" fill="#000000">user_id</text>
<polygon fill="none" stroke="#000000" points="623,-59.2 623,-81.2 707,-81.2 707,-59.2 623,-59.2"/>
<text text-anchor="start" x="626" y="-66.9" font-family="Helvetica,sans-Serif" font-size="11.00" fill="#000000">int4[10]</text>
<polygon fill="#ffffff" stroke="transparent" points="523,-40.2 523,-59.2 564,-59.2 564,-40.2 523,-40.2"/>
<polygon fill="none" stroke="#000000" points="523,-40.2 523,-59.2 564,-59.2 564,-40.2 523,-40.2"/>
<text text-anchor="start" x="526" y="-46.3" font-family="Helvetica,sans-Serif" font-size="11.00" fill="#000000">&lt; 2</text>
<polygon fill="#ffffff" stroke="transparent" points="564,-40.2 564,-59.2 623,-59.2 623,-40.2 564,-40.2"/>
<polygon fill="none" stroke="#000000" points="564,-40.2 564,-59.2 623,-59.2 623,-40.2 564,-40.2"/>
<text text-anchor="start" x="587.6105" y="-46.3" font-family="Helvetica,sans-Serif" font-size="11.00" fill="#000000">0 rows</text>
<polygon fill="#ffffff" stroke="transparent" points="623,-40.2 623,-59.2 707,-59.2 707,-40.2 623,-40.2"/>
<polygon fill="none" stroke="#000000" points="623,-40.2 623,-59.2 707,-59.2 707,-40.2 623,-40.2"/>
<text text-anchor="start" x="688.4053" y="-46.3" font-family="Helvetica,sans-Serif" font-size="11.00" fill="#000000">0 &gt;</text>
<polygon fill="none" stroke="#000000" stroke-width="2" points="522,-39.2 522,-281.2 708,-281.2 708,-39.2 522,-39.2"/>
</a>
</g>
</g>
<!-- rsvps&#45;&gt;users -->
<g id="edge6" class="edge">
<title>rsvps:w&#45;&gt;users:e</title>
<path fill="none" stroke="#000000" d="M508.4561,-70.1829C338.5259,-69.8144 256.9955,-64.8174 137,-192.2 85.7785,-246.5747 170.7011,-355.2 96,-355.2"/>
<polygon fill="#000000" stroke="#000000" points="515,-70.1906 522.9958,-73.8 519,-70.1953 523,-70.2 523,-70.2 523,-70.2 519,-70.1953 523.0042,-66.6 515,-70.1906 515,-70.1906"/>
<ellipse fill="none" stroke="#000000" cx="511.8" cy="-70.1868" rx="3.2" ry="3.2"/>
</g>
<!-- rsvps&#45;&gt;events -->
<g id="edge5" class="edge">
<title>rsvps:w&#45;&gt;events:e</title>
<path fill="none" stroke="#000000" d="M509.6384,-97.8913C471.6739,-135.1039 501.2616,-342.2 448.5,-342.2"/>
<polygon fill="#000000" stroke="#000000" points="515.6399,-95.3351 524.4108,-95.5121 519.3199,-93.7675 523,-92.2 523,-92.2 523,-92.2 519.3199,-93.7675 521.5892,-88.8879 515.6399,-95.3351 515.6399,-95.3351"/>
<ellipse fill="none" stroke="#000000" cx="512.6958" cy="-96.5891" rx="3.2" ry="3.2"/>
</g>
<!-- tags -->
<g id="node7" class="node">
<title>tags</title>
<g id="a_node7"><a xlink:href="../../tables/tags.html" xlink:title="tags" target="_top">
<polygon fill="#ffffff" stroke="transparent" points="579.5,-385.7 579.5,-446.7 650.5,-446.7 650.5,-385.7 579.5,-385.7"/>
<polygon fill="#f5f5f5" stroke="transparent" points="580,-423.2 580,-446.2 651,-446.2 651,-423.2 580,-423.2"/>
<polygon fill="none" stroke="#000000" points="580,-423.2 580,-446.2 651,-446.2 651,-423.2 580,-423.2"/>
<text text-anchor="start" x="585" y="-432.3" font-family="Helvetica,sans-Serif" font-weight="bold" font-size="11.00" fill="#000000">tags</text>
<text text-anchor="start" x="616.0437" y="-431.3" font-family="Helvetica,sans-Serif" font-size="11.00" fill="#000000">[table]</text>
<polygon fill="none" stroke="#000000" points="580,-404.2 580,-423.2 651,-423.2 651,-404.2 580,-404.2"/>
<text text-anchor="start" x="583" y="-410.3" font-family="Helvetica,sans-Serif" font-size="11.00" fill="#000000">...</text>
<polygon fill="#ffffff" stroke="transparent" points="580,-385.2 580,-404.2 601,-404.2 601,-385.2 580,-385.2"/>
<polygon fill="none" stroke="#000000" points="580,-385.2 580,-404.2 601,-404.2 601,-385.2 580,-385.2"/>
<text text-anchor="start" x="582.7026" y="-391.3" font-family="Helvetica,sans-Serif" font-size="11.00" fill="#000000">&lt; 1</text>
<polygon fill="#ffffff" stroke="transparent" points="601,-385.2 601,-404.2 639,-404.2 639,-385.2 601,-385.2"/>
<polygon fill="none" stroke="#000000" points="601,-385.2 601,-404.2 639,-404.2 639,-385.2 601,-385.2"/>
<text text-anchor="start" x="603.8053" y="-391.3" font-family="Helvetica,sans-Serif" font-size="11.00" fill="#000000">0 rows</text>
<polygon fill="#ffffff" stroke="transparent" points="639,-385.2 639,-404.2 651,-404.2 651,-385.2 639,-385.2"/>
<polygon fill="none" stroke="#000000" points="639,-385.2 639,-404.2 651,-404.2 651,-385.2 639,-385.2"/>
<text text-anchor="start" x="641.9431" y="-391.3" font-family="Helvetica,sans-Serif" font-size="11.00" fill="#000000"> &#160;</text>
</a>
</g>
</g>
<!-- tags&#45;&gt;events -->
<g id="edge7" class="edge">
<title>tags:w&#45;&gt;events:e</title>
<path fill="none" stroke="#000000" d="M565.6091,-411.9677C513.3764,-402.5396 509.7302,-342.2 448.5,-342.2"/>
<polygon fill="#000000" stroke="#000000" points="572.0292,-412.5174 579.6928,-416.7869 576.0146,-412.8587 580,-413.2 580,-413.2 580,-413.2 576.0146,-412.8587 580.3072,-409.6131 572.0292,-412.5174 572.0292,-412.5174"/>
<ellipse fill="none" stroke="#000000" cx="568.8408" cy="-412.2443" rx="3.2" ry="3.2"/>
</g>
<!-- user_bans -->
<g id="node8" class="node">
<title>user_bans</title>
<g id="a_node8"><a xlink:href="../../tables/user_bans.html" xlink:title="user_bans" target="_top">
<polygon fill="#ffffff" stroke="transparent" points="356.5,-397.7 356.5,-458.7 450.5,-458.7 450.5,-397.7 356.5,-397.7"/>
<polygon fill="#f5f5f5" stroke="transparent" points="356.5,-435.2 356.5,-458.2 450.5,-458.2 450.5,-435.2 356.5,-435.2"/>
<polygon fill="none" stroke="#000000" points="356.5,-435.2 356.5,-458.2 450.5,-458.2 450.5,-435.2 356.5,-435.2"/>
<text text-anchor="start" x="361.3244" y="-444.3" font-family="Helvetica,sans-Serif" font-weight="bold" font-size="11.00" fill="#000000">user_bans</text>
<text text-anchor="start" x="416.0219" y="-443.3" font-family="Helvetica,sans-Serif" font-size="11.00" fill="#000000">[table]</text>
<polygon fill="none" stroke="#000000" points="356.5,-416.2 356.5,-435.2 450.5,-435.2 450.5,-416.2 356.5,-416.2"/>
<text text-anchor="start" x="359.5" y="-422.3" font-family="Helvetica,sans-Serif" font-size="11.00" fill="#000000">...</text>
<polygon fill="#ffffff" stroke="transparent" points="356.5,-397.2 356.5,-416.2 388.5,-416.2 388.5,-397.2 356.5,-397.2"/>
<polygon fill="none" stroke="#000000" points="356.5,-397.2 356.5,-416.2 388.5,-416.2 388.5,-397.2 356.5,-397.2"/>
<text text-anchor="start" x="359.5" y="-403.3" font-family="Helvetica,sans-Serif" font-size="11.00" fill="#000000">&lt; 2</text>
<polygon fill="#ffffff" stroke="transparent" points="388.5,-397.2 388.5,-416.2 432.5,-416.2 432.5,-397.2 388.5,-397.2"/>
<polygon fill="none" stroke="#000000" points="388.5,-397.2 388.5,-416.2 432.5,-416.2 432.5,-397.2 388.5,-397.2"/>
<text text-anchor="start" x="397.1105" y="-403.3" font-family="Helvetica,sans-Serif" font-size="11.00" fill="#000000">0 rows</text>
<polygon fill="#ffffff" stroke="transparent" points="432.5,-397.2 432.5,-416.2 450.5,-416.2 450.5,-397.2 432.5,-397.2"/>
<polygon fill="none" stroke="#000000" points="432.5,-397.2 432.5,-416.2 450.5,-416.2 450.5,-397.2 432.5,-397.2"/>
<text text-anchor="start" x="441.3862" y="-403.3" font-family="Helvetica,sans-Serif" font-size="11.00" fill="#000000"> &#160;</text>
</a>
</g>
</g>
<!-- user_bans&#45;&gt;chapters -->
<g id="edge8" class="edge">
<title>user_bans:w&#45;&gt;chapters:e</title>
<path fill="none" stroke="#000000" d="M341.9703,-423.1123C287.6607,-405.6967 328.9632,-285.2 258.5,-285.2"/>
<polygon fill="#000000" stroke="#000000" points="348.5813,-424.0622 355.988,-428.7634 352.5407,-424.6311 356.5,-425.2 356.5,-425.2 356.5,-425.2 352.5407,-424.6311 357.012,-421.6366 348.5813,-424.0622 348.5813,-424.0622"/>
<ellipse fill="none" stroke="#000000" cx="345.4139" cy="-423.607" rx="3.2" ry="3.2"/>
</g>
<!-- user_bans&#45;&gt;users -->
<g id="edge9" class="edge">
<title>user_bans:w&#45;&gt;users:e</title>
<path fill="none" stroke="#000000" d="M342.0708,-425.4403C254.9599,-428.3427 218.3746,-455.7882 137,-411.2 109.9483,-396.3773 126.8465,-355.2 96,-355.2"/>
<polygon fill="#000000" stroke="#000000" points="348.5011,-425.3333 356.56,-428.7995 352.5006,-425.2666 356.5,-425.2 356.5,-425.2 356.5,-425.2 352.5006,-425.2666 356.44,-421.6005 348.5011,-425.3333 348.5011,-425.3333"/>
<ellipse fill="none" stroke="#000000" cx="345.3016" cy="-425.3866" rx="3.2" ry="3.2"/>
</g>
<!-- user_chapter_roles -->
<g id="node9" class="node">
<title>user_chapter_roles</title>
<g id="a_node9"><a xlink:href="../../tables/user_chapter_roles.html" xlink:title="user_chapter_roles" target="_top">
<polygon fill="#ffffff" stroke="transparent" points="335,-167.7 335,-228.7 472,-228.7 472,-167.7 335,-167.7"/>
<polygon fill="#f5f5f5" stroke="transparent" points="335.5,-205.2 335.5,-228.2 472.5,-228.2 472.5,-205.2 335.5,-205.2"/>
<polygon fill="none" stroke="#000000" points="335.5,-205.2 335.5,-228.2 472.5,-228.2 472.5,-205.2 335.5,-205.2"/>
<text text-anchor="start" x="340.4338" y="-214.3" font-family="Helvetica,sans-Serif" font-weight="bold" font-size="11.00" fill="#000000">user_chapter_roles</text>
<text text-anchor="start" x="438.0219" y="-213.3" font-family="Helvetica,sans-Serif" font-size="11.00" fill="#000000">[table]</text>
<polygon fill="none" stroke="#000000" points="335.5,-186.2 335.5,-205.2 472.5,-205.2 472.5,-186.2 335.5,-186.2"/>
<text text-anchor="start" x="338.5" y="-192.3" font-family="Helvetica,sans-Serif" font-size="11.00" fill="#000000">...</text>
<polygon fill="#ffffff" stroke="transparent" points="335.5,-167.2 335.5,-186.2 389.5,-186.2 389.5,-167.2 335.5,-167.2"/>
<polygon fill="none" stroke="#000000" points="335.5,-167.2 335.5,-186.2 389.5,-186.2 389.5,-167.2 335.5,-167.2"/>
<text text-anchor="start" x="338.5" y="-173.3" font-family="Helvetica,sans-Serif" font-size="11.00" fill="#000000">&lt; 2</text>
<polygon fill="#ffffff" stroke="transparent" points="389.5,-167.2 389.5,-186.2 443.5,-186.2 443.5,-167.2 389.5,-167.2"/>
<polygon fill="none" stroke="#000000" points="389.5,-167.2 389.5,-186.2 443.5,-186.2 443.5,-167.2 389.5,-167.2"/>
<text text-anchor="start" x="408.1105" y="-173.3" font-family="Helvetica,sans-Serif" font-size="11.00" fill="#000000">0 rows</text>
<polygon fill="#ffffff" stroke="transparent" points="443.5,-167.2 443.5,-186.2 472.5,-186.2 472.5,-167.2 443.5,-167.2"/>
<polygon fill="none" stroke="#000000" points="443.5,-167.2 443.5,-186.2 472.5,-186.2 472.5,-167.2 443.5,-167.2"/>
<text text-anchor="start" x="463.3862" y="-173.3" font-family="Helvetica,sans-Serif" font-size="11.00" fill="#000000"> &#160;</text>
</a>
</g>
</g>
<!-- user_chapter_roles&#45;&gt;chapters -->
<g id="edge10" class="edge">
<title>user_chapter_roles:w&#45;&gt;chapters:e</title>
<path fill="none" stroke="#000000" d="M321.3545,-197.9922C287.9241,-213.1832 305.5897,-285.2 258.5,-285.2"/>
<polygon fill="#000000" stroke="#000000" points="327.6514,-196.7493 336.1972,-198.7319 331.5757,-195.9746 335.5,-195.2 335.5,-195.2 335.5,-195.2 331.5757,-195.9746 334.8028,-191.6681 327.6514,-196.7493 327.6514,-196.7493"/>
<ellipse fill="none" stroke="#000000" cx="324.512" cy="-197.369" rx="3.2" ry="3.2"/>
</g>
<!-- user_chapter_roles&#45;&gt;users -->
<g id="edge11" class="edge">
<title>user_chapter_roles:w&#45;&gt;users:e</title>
<path fill="none" stroke="#000000" d="M320.9887,-195.1325C239.8991,-194.4291 201.1224,-189.5739 137,-247.2 98.8126,-281.5186 147.3425,-355.2 96,-355.2"/>
<polygon fill="#000000" stroke="#000000" points="327.5001,-195.1627 335.4832,-198.8 331.5,-195.1814 335.5,-195.2 335.5,-195.2 335.5,-195.2 331.5,-195.1814 335.5168,-191.6 327.5001,-195.1627 327.5001,-195.1627"/>
<ellipse fill="none" stroke="#000000" cx="324.3001" cy="-195.1478" rx="3.2" ry="3.2"/>
</g>
<!-- user_event_roles -->
<g id="node10" class="node">
<title>user_event_roles</title>
<g id="a_node10"><a xlink:href="../../tables/user_event_roles.html" xlink:title="user_event_roles" target="_top">
<polygon fill="#ffffff" stroke="transparent" points="551.5,-467.7 551.5,-528.7 678.5,-528.7 678.5,-467.7 551.5,-467.7"/>
<polygon fill="#f5f5f5" stroke="transparent" points="552,-505.2 552,-528.2 679,-528.2 679,-505.2 552,-505.2"/>
<polygon fill="none" stroke="#000000" points="552,-505.2 552,-528.2 679,-528.2 679,-505.2 552,-505.2"/>
<text text-anchor="start" x="556.8222" y="-514.3" font-family="Helvetica,sans-Serif" font-weight="bold" font-size="11.00" fill="#000000">user_event_roles</text>
<text text-anchor="start" x="644.5219" y="-513.3" font-family="Helvetica,sans-Serif" font-size="11.00" fill="#000000">[table]</text>
<polygon fill="none" stroke="#000000" points="552,-486.2 552,-505.2 679,-505.2 679,-486.2 552,-486.2"/>
<text text-anchor="start" x="555" y="-492.3" font-family="Helvetica,sans-Serif" font-size="11.00" fill="#000000">...</text>
<polygon fill="#ffffff" stroke="transparent" points="552,-467.2 552,-486.2 601,-486.2 601,-467.2 552,-467.2"/>
<polygon fill="none" stroke="#000000" points="552,-467.2 552,-486.2 601,-486.2 601,-467.2 552,-467.2"/>
<text text-anchor="start" x="555" y="-473.3" font-family="Helvetica,sans-Serif" font-size="11.00" fill="#000000">&lt; 2</text>
<polygon fill="#ffffff" stroke="transparent" points="601,-467.2 601,-486.2 653,-486.2 653,-467.2 601,-467.2"/>
<polygon fill="none" stroke="#000000" points="601,-467.2 601,-486.2 653,-486.2 653,-467.2 601,-467.2"/>
<text text-anchor="start" x="617.6105" y="-473.3" font-family="Helvetica,sans-Serif" font-size="11.00" fill="#000000">0 rows</text>
<polygon fill="#ffffff" stroke="transparent" points="653,-467.2 653,-486.2 679,-486.2 679,-467.2 653,-467.2"/>
<polygon fill="none" stroke="#000000" points="653,-467.2 653,-486.2 679,-486.2 679,-467.2 653,-467.2"/>
<text text-anchor="start" x="669.8862" y="-473.3" font-family="Helvetica,sans-Serif" font-size="11.00" fill="#000000"> &#160;</text>
</a>
</g>
</g>
<!-- user_event_roles&#45;&gt;users -->
<g id="edge13" class="edge">
<title>user_event_roles:w&#45;&gt;users:e</title>
<path fill="none" stroke="#000000" d="M537.595,-495.1505C435.5284,-494.4625 208.3692,-486.011 137,-433.2 105.5178,-409.9041 135.1641,-355.2 96,-355.2"/>
<polygon fill="#000000" stroke="#000000" points="544,-495.1724 551.9876,-498.8 548,-495.1862 552,-495.2 552,-495.2 552,-495.2 548,-495.1862 552.0124,-491.6 544,-495.1724 544,-495.1724"/>
<ellipse fill="none" stroke="#000000" cx="540.8001" cy="-495.1614" rx="3.2" ry="3.2"/>
</g>
<!-- user_event_roles&#45;&gt;events -->
<g id="edge12" class="edge">
<title>user_event_roles:w&#45;&gt;events:e</title>
<path fill="none" stroke="#000000" d="M537.4501,-493.2655C477.3339,-475.5544 525.1457,-342.2 448.5,-342.2"/>
<polygon fill="#000000" stroke="#000000" points="544.0698,-494.1456 551.5255,-498.7686 548.0349,-494.6728 552,-495.2 552,-495.2 552,-495.2 548.0349,-494.6728 552.4745,-491.6314 544.0698,-494.1456 544.0698,-494.1456"/>
<ellipse fill="none" stroke="#000000" cx="540.8977" cy="-493.7238" rx="3.2" ry="3.2"/>
</g>
<!-- user_instance_roles -->
<g id="node11" class="node">
<title>user_instance_roles</title>
<g id="a_node11"><a xlink:href="../../tables/user_instance_roles.html" xlink:title="user_instance_roles" target="_top">
<polygon fill="#ffffff" stroke="transparent" points="145,-507.7 145,-568.7 286,-568.7 286,-507.7 145,-507.7"/>
<polygon fill="#f5f5f5" stroke="transparent" points="145.5,-545.2 145.5,-568.2 286.5,-568.2 286.5,-545.2 145.5,-545.2"/>
<polygon fill="none" stroke="#000000" points="145.5,-545.2 145.5,-568.2 286.5,-568.2 286.5,-545.2 145.5,-545.2"/>
<text text-anchor="start" x="150.2943" y="-554.3" font-family="Helvetica,sans-Serif" font-weight="bold" font-size="11.00" fill="#000000">user_instance_roles</text>
<text text-anchor="start" x="252.0219" y="-553.3" font-family="Helvetica,sans-Serif" font-size="11.00" fill="#000000">[table]</text>
<polygon fill="none" stroke="#000000" points="145.5,-526.2 145.5,-545.2 286.5,-545.2 286.5,-526.2 145.5,-526.2"/>
<text text-anchor="start" x="148.5" y="-532.3" font-family="Helvetica,sans-Serif" font-size="11.00" fill="#000000">...</text>
<polygon fill="#ffffff" stroke="transparent" points="145.5,-507.2 145.5,-526.2 201.5,-526.2 201.5,-507.2 145.5,-507.2"/>
<polygon fill="none" stroke="#000000" points="145.5,-507.2 145.5,-526.2 201.5,-526.2 201.5,-507.2 145.5,-507.2"/>
<text text-anchor="start" x="148.5" y="-513.3" font-family="Helvetica,sans-Serif" font-size="11.00" fill="#000000">&lt; 1</text>
<polygon fill="#ffffff" stroke="transparent" points="201.5,-507.2 201.5,-526.2 256.5,-526.2 256.5,-507.2 201.5,-507.2"/>
<polygon fill="none" stroke="#000000" points="201.5,-507.2 201.5,-526.2 256.5,-526.2 256.5,-507.2 201.5,-507.2"/>
<text text-anchor="start" x="221.1105" y="-513.3" font-family="Helvetica,sans-Serif" font-size="11.00" fill="#000000">0 rows</text>
<polygon fill="#ffffff" stroke="transparent" points="256.5,-507.2 256.5,-526.2 286.5,-526.2 286.5,-507.2 256.5,-507.2"/>
<polygon fill="none" stroke="#000000" points="256.5,-507.2 256.5,-526.2 286.5,-526.2 286.5,-507.2 256.5,-507.2"/>
<text text-anchor="start" x="277.3862" y="-513.3" font-family="Helvetica,sans-Serif" font-size="11.00" fill="#000000"> &#160;</text>
</a>
</g>
</g>
<!-- user_instance_roles&#45;&gt;users -->
<g id="edge14" class="edge">
<title>user_instance_roles:w&#45;&gt;users:e</title>
<path fill="none" stroke="#000000" d="M131.1528,-532.7916C77.5178,-511.4318 173.2981,-355.2 96,-355.2"/>
<polygon fill="#000000" stroke="#000000" points="137.6104,-533.8755 144.904,-538.7503 141.5552,-534.5378 145.5,-535.2 145.5,-535.2 145.5,-535.2 141.5552,-534.5378 146.096,-531.6497 137.6104,-533.8755 137.6104,-533.8755"/>
<ellipse fill="none" stroke="#000000" cx="134.4545" cy="-533.3458" rx="3.2" ry="3.2"/>
</g>
</g>
</svg>
