<?xml version="1.0" encoding="UTF-8" standalone="no"?>
<!DOCTYPE svg PUBLIC "-//W3C//DTD SVG 1.1//EN"
 "http://www.w3.org/Graphics/SVG/1.1/DTD/svg11.dtd">
<!-- Generated by graphviz version 2.40.1 (20161225.0304)
 -->
<!-- Title: oneDegreeRelationshipsDiagram Pages: 1 -->
<svg width="368pt" height="316pt"
 viewBox="0.00 0.00 368.00 316.20" xmlns="http://www.w3.org/2000/svg" xmlns:xlink="http://www.w3.org/1999/xlink">
<g id="graph0" class="graph" transform="scale(1 1) rotate(0) translate(4 312.2)">
<title>oneDegreeRelationshipsDiagram</title>
<polygon fill="#ffffff" stroke="transparent" points="-4,4 -4,-312.2 364,-312.2 364,4 -4,4"/>
<text text-anchor="middle" x="72.4936" y="-7.3" font-family="Helvetica,sans-Serif" font-size="11.00" fill="#000000">Generated by SchemaSpy</text>
<!-- rsvps -->
<g id="node1" class="node">
<title>rsvps</title>
<g id="a_node1"><a xlink:href="../../tables/rsvps.html" xlink:title="rsvps" target="_top">
<polygon fill="#ffffff" stroke="transparent" points="155,-38.2 155,-304.2 352,-304.2 352,-38.2 155,-38.2"/>
<polygon fill="#f5f5f5" stroke="transparent" points="157.5,-279.2 157.5,-302.2 350.5,-302.2 350.5,-279.2 157.5,-279.2"/>
<polygon fill="none" stroke="#000000" points="157.5,-279.2 157.5,-302.2 350.5,-302.2 350.5,-279.2 157.5,-279.2"/>
<text text-anchor="start" x="162.5" y="-288.3" font-family="Helvetica,sans-Serif" font-weight="bold" font-size="11.00" fill="#000000">rsvps</text>
<text text-anchor="start" x="315.5437" y="-287.3" font-family="Helvetica,sans-Serif" font-size="11.00" fill="#000000">[table]</text>
<polygon fill="none" stroke="#000000" points="157.5,-257.2 157.5,-279.2 266.5,-279.2 266.5,-257.2 157.5,-257.2"/>
<image xlink:href="../../images/primaryKeys.png" width="11px" height="12px" preserveAspectRatio="xMinYMin meet" x="162.5" y="-274.2"/>
<text text-anchor="start" x="177.5" y="-264.3" font-family="Helvetica,sans-Serif" font-size="11.00" fill="#000000">id</text>
<polygon fill="none" stroke="#000000" points="266.5,-257.2 266.5,-279.2 350.5,-279.2 350.5,-257.2 266.5,-257.2"/>
<text text-anchor="start" x="269.5" y="-264.9" font-family="Helvetica,sans-Serif" font-size="11.00" fill="#000000">serial[10]</text>
<polygon fill="none" stroke="#000000" points="157.5,-235.2 157.5,-257.2 266.5,-257.2 266.5,-235.2 157.5,-235.2"/>
<text text-anchor="start" x="177.5" y="-242.3" font-family="Helvetica,sans-Serif" font-size="11.00" fill="#000000">date</text>
<polygon fill="none" stroke="#000000" points="266.5,-235.2 266.5,-257.2 350.5,-257.2 350.5,-235.2 266.5,-235.2"/>
<text text-anchor="start" x="269.3807" y="-242.9" font-family="Helvetica,sans-Serif" font-size="11.00" fill="#000000">timestamp[29,6]</text>
<polygon fill="none" stroke="#000000" points="157.5,-213.2 157.5,-235.2 266.5,-235.2 266.5,-213.2 157.5,-213.2"/>
<text text-anchor="start" x="177.5" y="-220.3" font-family="Helvetica,sans-Serif" font-size="11.00" fill="#000000">on_waitlist</text>
<polygon fill="none" stroke="#000000" points="266.5,-213.2 266.5,-235.2 350.5,-235.2 350.5,-213.2 266.5,-213.2"/>
<text text-anchor="start" x="269.5" y="-220.9" font-family="Helvetica,sans-Serif" font-size="11.00" fill="#000000">bool[1]</text>
<polygon fill="none" stroke="#000000" points="157.5,-191.2 157.5,-213.2 266.5,-213.2 266.5,-191.2 157.5,-191.2"/>
<image xlink:href="../../images/foreignKeys.png" width="11px" height="12px" preserveAspectRatio="xMinYMin meet" x="162.5" y="-208.2"/>
<text text-anchor="start" x="177.5" y="-198.3" font-family="Helvetica,sans-Serif" font-size="11.00" fill="#000000">event_id</text>
<polygon fill="none" stroke="#000000" points="266.5,-191.2 266.5,-213.2 350.5,-213.2 350.5,-191.2 266.5,-191.2"/>
<text text-anchor="start" x="269.5" y="-198.9" font-family="Helvetica,sans-Serif" font-size="11.00" fill="#000000">int4[10]</text>
<polygon fill="none" stroke="#000000" points="157.5,-169.2 157.5,-191.2 266.5,-191.2 266.5,-169.2 157.5,-169.2"/>
<image xlink:href="../../images/foreignKeys.png" width="11px" height="12px" preserveAspectRatio="xMinYMin meet" x="162.5" y="-186.2"/>
<text text-anchor="start" x="177.5" y="-176.3" font-family="Helvetica,sans-Serif" font-size="11.00" fill="#000000">user_id</text>
<polygon fill="none" stroke="#000000" points="266.5,-169.2 266.5,-191.2 350.5,-191.2 350.5,-169.2 266.5,-169.2"/>
<text text-anchor="start" x="269.5" y="-176.9" font-family="Helvetica,sans-Serif" font-size="11.00" fill="#000000">int4[10]</text>
<polygon fill="none" stroke="#000000" points="157.5,-147.2 157.5,-169.2 266.5,-169.2 266.5,-147.2 157.5,-147.2"/>
<text text-anchor="start" x="177.5" y="-154.3" font-family="Helvetica,sans-Serif" font-size="11.00" fill="#000000">created_at</text>
<polygon fill="none" stroke="#000000" points="266.5,-147.2 266.5,-169.2 350.5,-169.2 350.5,-147.2 266.5,-147.2"/>
<text text-anchor="start" x="269.3807" y="-154.9" font-family="Helvetica,sans-Serif" font-size="11.00" fill="#000000">timestamp[29,6]</text>
<polygon fill="none" stroke="#000000" points="157.5,-125.2 157.5,-147.2 266.5,-147.2 266.5,-125.2 157.5,-125.2"/>
<text text-anchor="start" x="177.5" y="-132.3" font-family="Helvetica,sans-Serif" font-size="11.00" fill="#000000">updated_at</text>
<polygon fill="none" stroke="#000000" points="266.5,-125.2 266.5,-147.2 350.5,-147.2 350.5,-125.2 266.5,-125.2"/>
<text text-anchor="start" x="269.3807" y="-132.9" font-family="Helvetica,sans-Serif" font-size="11.00" fill="#000000">timestamp[29,6]</text>
<polygon fill="none" stroke="#000000" points="157.5,-103.2 157.5,-125.2 266.5,-125.2 266.5,-103.2 157.5,-103.2"/>
<text text-anchor="start" x="177.5" y="-110.3" font-family="Helvetica,sans-Serif" font-size="11.00" fill="#000000">interested</text>
<polygon fill="none" stroke="#000000" points="266.5,-103.2 266.5,-125.2 350.5,-125.2 350.5,-103.2 266.5,-103.2"/>
<text text-anchor="start" x="269.5" y="-110.9" font-family="Helvetica,sans-Serif" font-size="11.00" fill="#000000">bool[1]</text>
<polygon fill="none" stroke="#000000" points="157.5,-81.2 157.5,-103.2 266.5,-103.2 266.5,-81.2 157.5,-81.2"/>
<text text-anchor="start" x="177.5" y="-88.3" font-family="Helvetica,sans-Serif" font-size="11.00" fill="#000000">canceled</text>
<polygon fill="none" stroke="#000000" points="266.5,-81.2 266.5,-103.2 350.5,-103.2 350.5,-81.2 266.5,-81.2"/>
<text text-anchor="start" x="269.5" y="-88.9" font-family="Helvetica,sans-Serif" font-size="11.00" fill="#000000">bool[1]</text>
<polygon fill="none" stroke="#000000" points="157.5,-59.2 157.5,-81.2 266.5,-81.2 266.5,-59.2 157.5,-59.2"/>
<text text-anchor="start" x="177.5" y="-66.3" font-family="Helvetica,sans-Serif" font-size="11.00" fill="#000000">confirmed_at</text>
<polygon fill="none" stroke="#000000" points="266.5,-59.2 266.5,-81.2 350.5,-81.2 350.5,-59.2 266.5,-59.2"/>
<text text-anchor="start" x="269.3807" y="-66.9" font-family="Helvetica,sans-Serif" font-size="11.00" fill="#000000">timestamp[29,6]</text>
<polygon fill="#ffffff" stroke="transparent" points="157.5,-40.2 157.5,-59.2 200.5,-59.2 200.5,-40.2 157.5,-40.2"/>
<polygon fill="none" stroke="#000000" points="157.5,-40.2 157.5,-59.2 200.5,-59.2 200.5,-40.2 157.5,-40.2"/>
<text text-anchor="start" x="160.5" y="-46.3" font-family="Helvetica,sans-Serif" font-size="11.00" fill="#000000">&lt; 2</text>
<polygon fill="#ffffff" stroke="transparent" points="200.5,-40.2 200.5,-59.2 266.5,-59.2 266.5,-40.2 200.5,-40.2"/>
<polygon fill="none" stroke="#000000" points="200.5,-40.2 200.5,-59.2 266.5,-59.2 266.5,-40.2 200.5,-40.2"/>
<text text-anchor="start" x="224.9956" y="-46.3" font-family="Helvetica,sans-Serif" font-size="11.00" fill="#000000">20 rows</text>
<polygon fill="#ffffff" stroke="transparent" points="266.5,-40.2 266.5,-59.2 350.5,-59.2 350.5,-40.2 266.5,-40.2"/>
<polygon fill="none" stroke="#000000" points="266.5,-40.2 266.5,-59.2 350.5,-59.2 350.5,-40.2 266.5,-40.2"/>
<text text-anchor="start" x="331.9053" y="-46.3" font-family="Helvetica,sans-Serif" font-size="11.00" fill="#000000">0 &gt;</text>
<polygon fill="none" stroke="#000000" stroke-width="2" points="156,-39.2 156,-303.2 351,-303.2 351,-39.2 156,-39.2"/>
</a>
</g>
</g>
<!-- events -->
<g id="node2" class="node">
<title>events</title>
<g id="a_node2"><a xlink:href="../../tables/events.html" xlink:title="events" target="_top">
<polygon fill="#ffffff" stroke="transparent" points="8,-172.7 8,-299.7 106,-299.7 106,-172.7 8,-172.7"/>
<polygon fill="#f5f5f5" stroke="transparent" points="8,-276.2 8,-299.2 106,-299.2 106,-276.2 8,-276.2"/>
<polygon fill="none" stroke="#000000" points="8,-276.2 8,-299.2 106,-299.2 106,-276.2 8,-276.2"/>
<text text-anchor="start" x="13" y="-285.3" font-family="Helvetica,sans-Serif" font-weight="bold" font-size="11.00" fill="#000000">events</text>
<text text-anchor="start" x="71.0437" y="-284.3" font-family="Helvetica,sans-Serif" font-size="11.00" fill="#000000">[table]</text>
<polygon fill="none" stroke="#000000" points="8,-254.2 8,-276.2 106,-276.2 106,-254.2 8,-254.2"/>
<image xlink:href="../../images/primaryKeys.png" width="11px" height="12px" preserveAspectRatio="xMinYMin meet" x="13" y="-271.2"/>
<text text-anchor="start" x="28" y="-261.3" font-family="Helvetica,sans-Serif" font-size="11.00" fill="#000000">id</text>
<polygon fill="none" stroke="#000000" points="8,-232.2 8,-254.2 106,-254.2 106,-232.2 8,-232.2"/>
<image xlink:href="../../images/foreignKeys.png" width="11px" height="12px" preserveAspectRatio="xMinYMin meet" x="13" y="-249.2"/>
<text text-anchor="start" x="28" y="-239.3" font-family="Helvetica,sans-Serif" font-size="11.00" fill="#000000">venue_id</text>
<polygon fill="none" stroke="#000000" points="8,-210.2 8,-232.2 106,-232.2 106,-210.2 8,-210.2"/>
<image xlink:href="../../images/foreignKeys.png" width="11px" height="12px" preserveAspectRatio="xMinYMin meet" x="13" y="-227.2"/>
<text text-anchor="start" x="28" y="-217.3" font-family="Helvetica,sans-Serif" font-size="11.00" fill="#000000">chapter_id</text>
<polygon fill="none" stroke="#000000" points="8,-191.2 8,-210.2 106,-210.2 106,-191.2 8,-191.2"/>
<text text-anchor="start" x="11" y="-197.3" font-family="Helvetica,sans-Serif" font-size="11.00" fill="#000000">...</text>
<polygon fill="#ffffff" stroke="transparent" points="8,-172.2 8,-191.2 38,-191.2 38,-172.2 8,-172.2"/>
<polygon fill="none" stroke="#000000" points="8,-172.2 8,-191.2 38,-191.2 38,-172.2 8,-172.2"/>
<text text-anchor="start" x="11" y="-178.3" font-family="Helvetica,sans-Serif" font-size="11.00" fill="#000000">&lt; 2</text>
<polygon fill="#ffffff" stroke="transparent" points="38,-172.2 38,-191.2 80,-191.2 80,-172.2 38,-172.2"/>
<polygon fill="none" stroke="#000000" points="38,-172.2 38,-191.2 80,-191.2 80,-172.2 38,-172.2"/>
<text text-anchor="start" x="44.6105" y="-178.3" font-family="Helvetica,sans-Serif" font-size="11.00" fill="#000000">4 rows</text>
<polygon fill="#ffffff" stroke="transparent" points="80,-172.2 80,-191.2 106,-191.2 106,-172.2 80,-172.2"/>
<polygon fill="none" stroke="#000000" points="80,-172.2 80,-191.2 106,-191.2 106,-172.2 80,-172.2"/>
<text text-anchor="start" x="87.4053" y="-178.3" font-family="Helvetica,sans-Serif" font-size="11.00" fill="#000000">4 &gt;</text>
</a>
</g>
</g>
<!-- rsvps&#45;&gt;events -->
<g id="edge1" class="edge">
<title>rsvps:w&#45;&gt;events:e</title>
<path fill="none" stroke="#000000" d="M143.799,-206.7308C126.6358,-221.1761 136.2316,-265.2 106,-265.2"/>
<polygon fill="#000000" stroke="#000000" points="149.9045,-204.7118 158.6303,-205.618 153.7023,-203.4559 157.5,-202.2 157.5,-202.2 157.5,-202.2 153.7023,-203.4559 156.3697,-198.782 149.9045,-204.7118 149.9045,-204.7118"/>
<ellipse fill="none" stroke="#000000" cx="146.8663" cy="-205.7165" rx="3.2" ry="3.2"/>
</g>
<!-- users -->
<g id="node3" class="node">
<title>users</title>
<g id="a_node3"><a xlink:href="../../tables/users.html" xlink:title="users" target="_top">
<polygon fill="#ffffff" stroke="transparent" points="8.5,-46.7 8.5,-151.7 105.5,-151.7 105.5,-46.7 8.5,-46.7"/>
<polygon fill="#f5f5f5" stroke="transparent" points="9,-128.2 9,-151.2 106,-151.2 106,-128.2 9,-128.2"/>
<polygon fill="none" stroke="#000000" points="9,-128.2 9,-151.2 106,-151.2 106,-128.2 9,-128.2"/>
<text text-anchor="start" x="14" y="-137.3" font-family="Helvetica,sans-Serif" font-weight="bold" font-size="11.00" fill="#000000">users</text>
<text text-anchor="start" x="71.0437" y="-136.3" font-family="Helvetica,sans-Serif" font-size="11.00" fill="#000000">[table]</text>
<polygon fill="none" stroke="#000000" points="9,-106.2 9,-128.2 106,-128.2 106,-106.2 9,-106.2"/>
<image xlink:href="../../images/primaryKeys.png" width="11px" height="12px" preserveAspectRatio="xMinYMin meet" x="14" y="-123.2"/>
<text text-anchor="start" x="29" y="-113.3" font-family="Helvetica,sans-Serif" font-size="11.00" fill="#000000">id</text>
<polygon fill="#ffffff" stroke="transparent" points="9,-84.2 9,-106.2 106,-106.2 106,-84.2 9,-84.2"/>
<polygon fill="none" stroke="#000000" points="9,-84.2 9,-106.2 106,-106.2 106,-84.2 9,-84.2"/>
<text text-anchor="start" x="29" y="-91.3" font-family="Helvetica,sans-Serif" font-size="11.00" fill="#000000">email</text>
<polygon fill="none" stroke="#000000" points="9,-65.2 9,-84.2 106,-84.2 106,-65.2 9,-65.2"/>
<text text-anchor="start" x="12" y="-71.3" font-family="Helvetica,sans-Serif" font-size="11.00" fill="#000000">...</text>
<polygon fill="#ffffff" stroke="transparent" points="9,-46.2 9,-65.2 31,-65.2 31,-46.2 9,-46.2"/>
<polygon fill="none" stroke="#000000" points="9,-46.2 9,-65.2 31,-65.2 31,-46.2 9,-46.2"/>
<text text-anchor="start" x="12" y="-52.3" font-family="Helvetica,sans-Serif" font-size="11.00" fill="#000000"> &#160;</text>
<polygon fill="#ffffff" stroke="transparent" points="31,-46.2 31,-65.2 80,-65.2 80,-46.2 31,-46.2"/>
<polygon fill="none" stroke="#000000" points="31,-46.2 31,-65.2 80,-65.2 80,-46.2 31,-46.2"/>
<text text-anchor="start" x="38.4956" y="-52.3" font-family="Helvetica,sans-Serif" font-size="11.00" fill="#000000">11 rows</text>
<polygon fill="#ffffff" stroke="transparent" points="80,-46.2 80,-65.2 106,-65.2 106,-46.2 80,-46.2"/>
<polygon fill="none" stroke="#000000" points="80,-46.2 80,-65.2 106,-65.2 106,-46.2 80,-46.2"/>
<text text-anchor="start" x="87.4053" y="-52.3" font-family="Helvetica,sans-Serif" font-size="11.00" fill="#000000">6 &gt;</text>
</a>
</g>
</g>
<!-- rsvps&#45;&gt;users -->
<g id="edge2" class="edge">
<title>rsvps:w&#45;&gt;users:e</title>
<path fill="none" stroke="#000000" d="M143.799,-175.6692C126.6358,-161.2239 136.2316,-117.2 106,-117.2"/>
<polygon fill="#000000" stroke="#000000" points="149.9045,-177.6882 156.3697,-183.618 153.7023,-178.9441 157.5,-180.2 157.5,-180.2 157.5,-180.2 153.7023,-178.9441 158.6303,-176.782 149.9045,-177.6882 149.9045,-177.6882"/>
<ellipse fill="none" stroke="#000000" cx="146.8663" cy="-176.6835" rx="3.2" ry="3.2"/>
</g>
</g>
</svg>
