<?xml version="1.0" encoding="UTF-8" standalone="no"?>
<!DOCTYPE svg PUBLIC "-//W3C//DTD SVG 1.1//EN"
 "http://www.w3.org/Graphics/SVG/1.1/DTD/svg11.dtd">
<!-- Generated by graphviz version 2.40.1 (20161225.0304)
 -->
<!-- Title: twoDegreesRelationshipsDiagram Pages: 1 -->
<svg width="672pt" height="820pt"
 viewBox="0.00 0.00 672.00 820.20" xmlns="http://www.w3.org/2000/svg" xmlns:xlink="http://www.w3.org/1999/xlink">
<g id="graph0" class="graph" transform="scale(1 1) rotate(0) translate(4 816.2)">
<title>twoDegreesRelationshipsDiagram</title>
<polygon fill="#ffffff" stroke="transparent" points="-4,4 -4,-816.2 668,-816.2 668,4 -4,4"/>
<text text-anchor="middle" x="72.4936" y="-7.3" font-family="Helvetica,sans-Serif" font-size="11.00" fill="#000000">Generated by SchemaSpy</text>
<!-- event_reminders -->
<g id="node1" class="node">
<title>event_reminders</title>
<g id="a_node1"><a xlink:href="../../tables/event_reminders.html" xlink:title="event_reminders" target="_top">
<polygon fill="#ffffff" stroke="transparent" points="532,-383.2 532,-488.2 656,-488.2 656,-383.2 532,-383.2"/>
<polygon fill="#f5f5f5" stroke="transparent" points="532,-464.7 532,-487.7 656,-487.7 656,-464.7 532,-464.7"/>
<polygon fill="none" stroke="#000000" points="532,-464.7 532,-487.7 656,-487.7 656,-464.7 532,-464.7"/>
<text text-anchor="start" x="536.5486" y="-473.8" font-family="Helvetica,sans-Serif" font-weight="bold" font-size="11.00" fill="#000000">event_reminders</text>
<text text-anchor="start" x="621.5219" y="-472.8" font-family="Helvetica,sans-Serif" font-size="11.00" fill="#000000">[table]</text>
<polygon fill="none" stroke="#000000" points="532,-442.7 532,-464.7 656,-464.7 656,-442.7 532,-442.7"/>
<image xlink:href="../../images/primaryKeys.png" width="11px" height="12px" preserveAspectRatio="xMinYMin meet" x="537" y="-459.7"/>
<text text-anchor="start" x="553" y="-449.8" font-family="Helvetica,sans-Serif" font-size="11.00" fill="#000000">user_id</text>
<polygon fill="none" stroke="#000000" points="532,-420.7 532,-442.7 656,-442.7 656,-420.7 532,-420.7"/>
<image xlink:href="../../images/primaryKeys.png" width="11px" height="12px" preserveAspectRatio="xMinYMin meet" x="537" y="-437.7"/>
<text text-anchor="start" x="553" y="-427.8" font-family="Helvetica,sans-Serif" font-size="11.00" fill="#000000">event_id</text>
<polygon fill="none" stroke="#000000" points="532,-401.7 532,-420.7 656,-420.7 656,-401.7 532,-401.7"/>
<text text-anchor="start" x="535" y="-407.8" font-family="Helvetica,sans-Serif" font-size="11.00" fill="#000000">...</text>
<polygon fill="#ffffff" stroke="transparent" points="532,-382.7 532,-401.7 579,-401.7 579,-382.7 532,-382.7"/>
<polygon fill="none" stroke="#000000" points="532,-382.7 532,-401.7 579,-401.7 579,-382.7 532,-382.7"/>
<text text-anchor="start" x="535" y="-388.8" font-family="Helvetica,sans-Serif" font-size="11.00" fill="#000000">&lt; 4</text>
<polygon fill="#ffffff" stroke="transparent" points="579,-382.7 579,-401.7 630,-401.7 630,-382.7 579,-382.7"/>
<polygon fill="none" stroke="#000000" points="579,-382.7 579,-401.7 630,-401.7 630,-382.7 579,-382.7"/>
<text text-anchor="start" x="594.6105" y="-388.8" font-family="Helvetica,sans-Serif" font-size="11.00" fill="#000000">0 rows</text>
<polygon fill="#ffffff" stroke="transparent" points="630,-382.7 630,-401.7 656,-401.7 656,-382.7 630,-382.7"/>
<polygon fill="none" stroke="#000000" points="630,-382.7 630,-401.7 656,-401.7 656,-382.7 630,-382.7"/>
<text text-anchor="start" x="646.8862" y="-388.8" font-family="Helvetica,sans-Serif" font-size="11.00" fill="#000000"> &#160;</text>
</a>
</g>
</g>
<!-- events -->
<g id="node2" class="node">
<title>events</title>
<g id="a_node2"><a xlink:href="../../tables/events.html" xlink:title="events" target="_top">
<polygon fill="#ffffff" stroke="transparent" points="142,-519.2 142,-646.2 246,-646.2 246,-519.2 142,-519.2"/>
<polygon fill="#f5f5f5" stroke="transparent" points="142,-622.7 142,-645.7 246,-645.7 246,-622.7 142,-622.7"/>
<polygon fill="none" stroke="#000000" points="142,-622.7 142,-645.7 246,-645.7 246,-622.7 142,-622.7"/>
<text text-anchor="start" x="147" y="-631.8" font-family="Helvetica,sans-Serif" font-weight="bold" font-size="11.00" fill="#000000">events</text>
<text text-anchor="start" x="211.0437" y="-630.8" font-family="Helvetica,sans-Serif" font-size="11.00" fill="#000000">[table]</text>
<polygon fill="none" stroke="#000000" points="142,-600.7 142,-622.7 246,-622.7 246,-600.7 142,-600.7"/>
<image xlink:href="../../images/primaryKeys.png" width="11px" height="12px" preserveAspectRatio="xMinYMin meet" x="147" y="-617.7"/>
<text text-anchor="start" x="162" y="-607.8" font-family="Helvetica,sans-Serif" font-size="11.00" fill="#000000">id</text>
<polygon fill="none" stroke="#000000" points="142,-578.7 142,-600.7 246,-600.7 246,-578.7 142,-578.7"/>
<image xlink:href="../../images/foreignKeys.png" width="11px" height="12px" preserveAspectRatio="xMinYMin meet" x="147" y="-595.7"/>
<text text-anchor="start" x="162" y="-585.8" font-family="Helvetica,sans-Serif" font-size="11.00" fill="#000000">venue_id</text>
<polygon fill="none" stroke="#000000" points="142,-556.7 142,-578.7 246,-578.7 246,-556.7 142,-556.7"/>
<image xlink:href="../../images/foreignKeys.png" width="11px" height="12px" preserveAspectRatio="xMinYMin meet" x="147" y="-573.7"/>
<text text-anchor="start" x="162" y="-563.8" font-family="Helvetica,sans-Serif" font-size="11.00" fill="#000000">chapter_id</text>
<polygon fill="none" stroke="#000000" points="142,-537.7 142,-556.7 246,-556.7 246,-537.7 142,-537.7"/>
<text text-anchor="start" x="145" y="-543.8" font-family="Helvetica,sans-Serif" font-size="11.00" fill="#000000">...</text>
<polygon fill="#ffffff" stroke="transparent" points="142,-518.7 142,-537.7 175,-537.7 175,-518.7 142,-518.7"/>
<polygon fill="none" stroke="#000000" points="142,-518.7 142,-537.7 175,-537.7 175,-518.7 142,-518.7"/>
<text text-anchor="start" x="145" y="-524.8" font-family="Helvetica,sans-Serif" font-size="11.00" fill="#000000">&lt; 2</text>
<polygon fill="#ffffff" stroke="transparent" points="175,-518.7 175,-537.7 219,-537.7 219,-518.7 175,-518.7"/>
<polygon fill="none" stroke="#000000" points="175,-518.7 175,-537.7 219,-537.7 219,-518.7 175,-518.7"/>
<text text-anchor="start" x="183.6105" y="-524.8" font-family="Helvetica,sans-Serif" font-size="11.00" fill="#000000">0 rows</text>
<polygon fill="#ffffff" stroke="transparent" points="219,-518.7 219,-537.7 246,-537.7 246,-518.7 219,-518.7"/>
<polygon fill="none" stroke="#000000" points="219,-518.7 219,-537.7 246,-537.7 246,-518.7 219,-518.7"/>
<text text-anchor="start" x="227.4053" y="-524.8" font-family="Helvetica,sans-Serif" font-size="11.00" fill="#000000">5 &gt;</text>
</a>
</g>
</g>
<!-- event_reminders&#45;&gt;events -->
<g id="edge1" class="edge">
<title>event_reminders:w&#45;&gt;events:e</title>
<path fill="none" stroke="#000000" d="M517.3248,-433.3751C457.6646,-449.2962 555.3319,-574.4877 491,-626.7 455.8008,-655.268 331.6381,-634.6091 287,-626.7 267.8941,-623.3147 265.4034,-611.7 246,-611.7"/>
<polygon fill="#000000" stroke="#000000" points="524.0516,-432.6073 532.4083,-435.2768 528.0258,-432.1537 532,-431.7 532,-431.7 532,-431.7 528.0258,-432.1537 531.5917,-428.1232 524.0516,-432.6073 524.0516,-432.6073"/>
<ellipse fill="none" stroke="#000000" cx="520.8723" cy="-432.9702" rx="3.2" ry="3.2"/>
</g>
<!-- rsvps -->
<g id="node3" class="node">
<title>rsvps</title>
<g id="a_node3"><a xlink:href="../../tables/rsvps.html" xlink:title="rsvps" target="_top">
<polygon fill="#ffffff" stroke="transparent" points="295,-311.7 295,-533.7 483,-533.7 483,-311.7 295,-311.7"/>
<polygon fill="#f5f5f5" stroke="transparent" points="297,-508.7 297,-531.7 481,-531.7 481,-508.7 297,-508.7"/>
<polygon fill="none" stroke="#000000" points="297,-508.7 297,-531.7 481,-531.7 481,-508.7 297,-508.7"/>
<text text-anchor="start" x="302" y="-517.8" font-family="Helvetica,sans-Serif" font-weight="bold" font-size="11.00" fill="#000000">rsvps</text>
<text text-anchor="start" x="446.0437" y="-516.8" font-family="Helvetica,sans-Serif" font-size="11.00" fill="#000000">[table]</text>
<polygon fill="none" stroke="#000000" points="297,-486.7 297,-508.7 397,-508.7 397,-486.7 297,-486.7"/>
<text text-anchor="start" x="317" y="-493.8" font-family="Helvetica,sans-Serif" font-size="11.00" fill="#000000">created_at</text>
<polygon fill="none" stroke="#000000" points="397,-486.7 397,-508.7 481,-508.7 481,-486.7 397,-486.7"/>
<text text-anchor="start" x="399.8807" y="-494.4" font-family="Helvetica,sans-Serif" font-size="11.00" fill="#000000">timestamp[26,3]</text>
<polygon fill="none" stroke="#000000" points="297,-464.7 297,-486.7 397,-486.7 397,-464.7 297,-464.7"/>
<text text-anchor="start" x="317" y="-471.8" font-family="Helvetica,sans-Serif" font-size="11.00" fill="#000000">updated_at</text>
<polygon fill="none" stroke="#000000" points="397,-464.7 397,-486.7 481,-486.7 481,-464.7 397,-464.7"/>
<text text-anchor="start" x="399.8807" y="-472.4" font-family="Helvetica,sans-Serif" font-size="11.00" fill="#000000">timestamp[26,3]</text>
<polygon fill="none" stroke="#000000" points="297,-442.7 297,-464.7 397,-464.7 397,-442.7 297,-442.7"/>
<image xlink:href="../../images/primaryKeys.png" width="11px" height="12px" preserveAspectRatio="xMinYMin meet" x="302" y="-459.7"/>
<text text-anchor="start" x="317" y="-449.8" font-family="Helvetica,sans-Serif" font-size="11.00" fill="#000000">user_id</text>
<polygon fill="none" stroke="#000000" points="397,-442.7 397,-464.7 481,-464.7 481,-442.7 397,-442.7"/>
<text text-anchor="start" x="400" y="-450.4" font-family="Helvetica,sans-Serif" font-size="11.00" fill="#000000">int4[10]</text>
<polygon fill="none" stroke="#000000" points="297,-420.7 297,-442.7 397,-442.7 397,-420.7 297,-420.7"/>
<image xlink:href="../../images/primaryKeys.png" width="11px" height="12px" preserveAspectRatio="xMinYMin meet" x="302" y="-437.7"/>
<text text-anchor="start" x="317" y="-427.8" font-family="Helvetica,sans-Serif" font-size="11.00" fill="#000000">event_id</text>
<polygon fill="none" stroke="#000000" points="397,-420.7 397,-442.7 481,-442.7 481,-420.7 397,-420.7"/>
<text text-anchor="start" x="400" y="-428.4" font-family="Helvetica,sans-Serif" font-size="11.00" fill="#000000">int4[10]</text>
<polygon fill="none" stroke="#000000" points="297,-398.7 297,-420.7 397,-420.7 397,-398.7 297,-398.7"/>
<text text-anchor="start" x="317" y="-405.8" font-family="Helvetica,sans-Serif" font-size="11.00" fill="#000000">date</text>
<polygon fill="none" stroke="#000000" points="397,-398.7 397,-420.7 481,-420.7 481,-398.7 397,-398.7"/>
<text text-anchor="start" x="399.8807" y="-406.4" font-family="Helvetica,sans-Serif" font-size="11.00" fill="#000000">timestamp[26,3]</text>
<polygon fill="none" stroke="#000000" points="297,-376.7 297,-398.7 397,-398.7 397,-376.7 297,-376.7"/>
<text text-anchor="start" x="317" y="-383.8" font-family="Helvetica,sans-Serif" font-size="11.00" fill="#000000">on_waitlist</text>
<polygon fill="none" stroke="#000000" points="397,-376.7 397,-398.7 481,-398.7 481,-376.7 397,-376.7"/>
<text text-anchor="start" x="400" y="-384.4" font-family="Helvetica,sans-Serif" font-size="11.00" fill="#000000">bool[1]</text>
<polygon fill="none" stroke="#000000" points="297,-354.7 297,-376.7 397,-376.7 397,-354.7 297,-354.7"/>
<text text-anchor="start" x="317" y="-361.8" font-family="Helvetica,sans-Serif" font-size="11.00" fill="#000000">confirmed_at</text>
<polygon fill="none" stroke="#000000" points="397,-354.7 397,-376.7 481,-376.7 481,-354.7 397,-354.7"/>
<text text-anchor="start" x="399.8807" y="-362.4" font-family="Helvetica,sans-Serif" font-size="11.00" fill="#000000">timestamp[26,3]</text>
<polygon fill="none" stroke="#000000" points="297,-332.7 297,-354.7 397,-354.7 397,-332.7 297,-332.7"/>
<text text-anchor="start" x="317" y="-339.8" font-family="Helvetica,sans-Serif" font-size="11.00" fill="#000000">canceled</text>
<polygon fill="none" stroke="#000000" points="397,-332.7 397,-354.7 481,-354.7 481,-332.7 397,-332.7"/>
<text text-anchor="start" x="400" y="-340.4" font-family="Helvetica,sans-Serif" font-size="11.00" fill="#000000">bool[1]</text>
<polygon fill="#ffffff" stroke="transparent" points="297,-313.7 297,-332.7 338,-332.7 338,-313.7 297,-313.7"/>
<polygon fill="none" stroke="#000000" points="297,-313.7 297,-332.7 338,-332.7 338,-313.7 297,-313.7"/>
<text text-anchor="start" x="300" y="-319.8" font-family="Helvetica,sans-Serif" font-size="11.00" fill="#000000">&lt; 2</text>
<polygon fill="#ffffff" stroke="transparent" points="338,-313.7 338,-332.7 397,-332.7 397,-313.7 338,-313.7"/>
<polygon fill="none" stroke="#000000" points="338,-313.7 338,-332.7 397,-332.7 397,-313.7 338,-313.7"/>
<text text-anchor="start" x="361.6105" y="-319.8" font-family="Helvetica,sans-Serif" font-size="11.00" fill="#000000">0 rows</text>
<polygon fill="#ffffff" stroke="transparent" points="397,-313.7 397,-332.7 481,-332.7 481,-313.7 397,-313.7"/>
<polygon fill="none" stroke="#000000" points="397,-313.7 397,-332.7 481,-332.7 481,-313.7 397,-313.7"/>
<text text-anchor="start" x="462.4053" y="-319.8" font-family="Helvetica,sans-Serif" font-size="11.00" fill="#000000">2 &gt;</text>
<polygon fill="none" stroke="#000000" stroke-width="2" points="296,-312.7 296,-532.7 482,-532.7 482,-312.7 296,-312.7"/>
</a>
</g>
</g>
<!-- event_reminders&#45;&gt;rsvps -->
<g id="edge2" class="edge">
<title>event_reminders:w&#45;&gt;rsvps:e</title>
<path fill="none" stroke="#000000" d="M517.276,-431.7C505.2815,-431.7 497.8229,-431.7 481,-431.7"/>
<polygon fill="#000000" stroke="#000000" points="524,-431.7001 532,-435.3 528,-431.7 532,-431.7 532,-431.7 532,-431.7 528,-431.7 532,-428.1 524,-431.7001 524,-431.7001"/>
<ellipse fill="none" stroke="#000000" cx="520.8" cy="-431.7001" rx="3.2" ry="3.2"/>
</g>
<!-- event_reminders&#45;&gt;rsvps -->
<g id="edge3" class="edge">
<title>event_reminders:w&#45;&gt;rsvps:e</title>
<path fill="none" stroke="#000000" d="M517.276,-453.7C505.2815,-453.7 497.8229,-453.7 481,-453.7"/>
<polygon fill="#000000" stroke="#000000" points="524,-453.7001 532,-457.3 528,-453.7 532,-453.7 532,-453.7 532,-453.7 528,-453.7 532,-450.1 524,-453.7001 524,-453.7001"/>
<ellipse fill="none" stroke="#000000" cx="520.8" cy="-453.7001" rx="3.2" ry="3.2"/>
</g>
<!-- users -->
<g id="node4" class="node">
<title>users</title>
<g id="a_node4"><a xlink:href="../../tables/users.html" xlink:title="users" target="_top">
<polygon fill="#ffffff" stroke="transparent" points="150,-195.2 150,-300.2 238,-300.2 238,-195.2 150,-195.2"/>
<polygon fill="#f5f5f5" stroke="transparent" points="150,-276.7 150,-299.7 238,-299.7 238,-276.7 150,-276.7"/>
<polygon fill="none" stroke="#000000" points="150,-276.7 150,-299.7 238,-299.7 238,-276.7 150,-276.7"/>
<text text-anchor="start" x="155" y="-285.8" font-family="Helvetica,sans-Serif" font-weight="bold" font-size="11.00" fill="#000000">users</text>
<text text-anchor="start" x="203.0437" y="-284.8" font-family="Helvetica,sans-Serif" font-size="11.00" fill="#000000">[table]</text>
<polygon fill="none" stroke="#000000" points="150,-254.7 150,-276.7 238,-276.7 238,-254.7 150,-254.7"/>
<image xlink:href="../../images/primaryKeys.png" width="11px" height="12px" preserveAspectRatio="xMinYMin meet" x="155" y="-271.7"/>
<text text-anchor="start" x="170" y="-261.8" font-family="Helvetica,sans-Serif" font-size="11.00" fill="#000000">id</text>
<polygon fill="#ffffff" stroke="transparent" points="150,-232.7 150,-254.7 238,-254.7 238,-232.7 150,-232.7"/>
<polygon fill="none" stroke="#000000" points="150,-232.7 150,-254.7 238,-254.7 238,-232.7 150,-232.7"/>
<text text-anchor="start" x="170" y="-239.8" font-family="Helvetica,sans-Serif" font-size="11.00" fill="#000000">email</text>
<polygon fill="none" stroke="#000000" points="150,-213.7 150,-232.7 238,-232.7 238,-213.7 150,-213.7"/>
<text text-anchor="start" x="153" y="-219.8" font-family="Helvetica,sans-Serif" font-size="11.00" fill="#000000">...</text>
<polygon fill="#ffffff" stroke="transparent" points="150,-194.7 150,-213.7 170,-213.7 170,-194.7 150,-194.7"/>
<polygon fill="none" stroke="#000000" points="150,-194.7 150,-213.7 170,-213.7 170,-194.7 150,-194.7"/>
<text text-anchor="start" x="153" y="-200.8" font-family="Helvetica,sans-Serif" font-size="11.00" fill="#000000"> &#160;</text>
<polygon fill="#ffffff" stroke="transparent" points="170,-194.7 170,-213.7 212,-213.7 212,-194.7 170,-194.7"/>
<polygon fill="none" stroke="#000000" points="170,-194.7 170,-213.7 212,-213.7 212,-194.7 170,-194.7"/>
<text text-anchor="start" x="176.6105" y="-200.8" font-family="Helvetica,sans-Serif" font-size="11.00" fill="#000000">0 rows</text>
<polygon fill="#ffffff" stroke="transparent" points="212,-194.7 212,-213.7 238,-213.7 238,-194.7 212,-194.7"/>
<polygon fill="none" stroke="#000000" points="212,-194.7 212,-213.7 238,-213.7 238,-194.7 212,-194.7"/>
<text text-anchor="start" x="219.4053" y="-200.8" font-family="Helvetica,sans-Serif" font-size="11.00" fill="#000000">6 &gt;</text>
</a>
</g>
</g>
<!-- event_reminders&#45;&gt;users -->
<g id="edge4" class="edge">
<title>event_reminders:w&#45;&gt;users:e</title>
<path fill="none" stroke="#000000" d="M517.5991,-451.6407C474.1953,-436.6213 539.5729,-343.3259 491,-300.7 456.6294,-270.5376 332.2374,-280.3849 287,-273.7 265.1709,-270.4742 260.0661,-265.7 238,-265.7"/>
<polygon fill="#000000" stroke="#000000" points="524.0806,-452.5675 531.4904,-457.2637 528.0403,-453.1338 532,-453.7 532,-453.7 532,-453.7 528.0403,-453.1338 532.5096,-450.1363 524.0806,-452.5675 524.0806,-452.5675"/>
<ellipse fill="none" stroke="#000000" cx="520.9128" cy="-452.1145" rx="3.2" ry="3.2"/>
</g>
<!-- chapters -->
<g id="node7" class="node">
<title>chapters</title>
<g id="a_node7"><a xlink:href="../../tables/chapters.html" xlink:title="chapters" target="_top">
<polygon fill="#ffffff" stroke="transparent" points="8,-120.2 8,-181.2 93,-181.2 93,-120.2 8,-120.2"/>
<polygon fill="#f5f5f5" stroke="transparent" points="8.5,-157.7 8.5,-180.7 93.5,-180.7 93.5,-157.7 8.5,-157.7"/>
<polygon fill="none" stroke="#000000" points="8.5,-157.7 8.5,-180.7 93.5,-180.7 93.5,-157.7 8.5,-157.7"/>
<text text-anchor="start" x="13.4108" y="-166.8" font-family="Helvetica,sans-Serif" font-weight="bold" font-size="11.00" fill="#000000">chapters</text>
<text text-anchor="start" x="59.0219" y="-165.8" font-family="Helvetica,sans-Serif" font-size="11.00" fill="#000000">[table]</text>
<polygon fill="none" stroke="#000000" points="8.5,-138.7 8.5,-157.7 93.5,-157.7 93.5,-138.7 8.5,-138.7"/>
<text text-anchor="start" x="11.5" y="-144.8" font-family="Helvetica,sans-Serif" font-size="11.00" fill="#000000">...</text>
<polygon fill="#ffffff" stroke="transparent" points="8.5,-119.7 8.5,-138.7 27.5,-138.7 27.5,-119.7 8.5,-119.7"/>
<polygon fill="none" stroke="#000000" points="8.5,-119.7 8.5,-138.7 27.5,-138.7 27.5,-119.7 8.5,-119.7"/>
<text text-anchor="start" x="11.5" y="-125.8" font-family="Helvetica,sans-Serif" font-size="11.00" fill="#000000"> &#160;</text>
<polygon fill="#ffffff" stroke="transparent" points="27.5,-119.7 27.5,-138.7 68.5,-138.7 68.5,-119.7 27.5,-119.7"/>
<polygon fill="none" stroke="#000000" points="27.5,-119.7 27.5,-138.7 68.5,-138.7 68.5,-119.7 27.5,-119.7"/>
<text text-anchor="start" x="33.1105" y="-125.8" font-family="Helvetica,sans-Serif" font-size="11.00" fill="#000000">0 rows</text>
<polygon fill="#ffffff" stroke="transparent" points="68.5,-119.7 68.5,-138.7 93.5,-138.7 93.5,-119.7 68.5,-119.7"/>
<polygon fill="none" stroke="#000000" points="68.5,-119.7 68.5,-138.7 93.5,-138.7 93.5,-119.7 68.5,-119.7"/>
<text text-anchor="start" x="74.9053" y="-125.8" font-family="Helvetica,sans-Serif" font-size="11.00" fill="#000000">3 &gt;</text>
</a>
</g>
</g>
<!-- events&#45;&gt;chapters -->
<g id="edge7" class="edge">
<title>events:w&#45;&gt;chapters:e</title>
<path fill="none" stroke="#000000" d="M127.7944,-563.5431C63.582,-519.9232 181.9485,-147.7 93.5,-147.7"/>
<polygon fill="#000000" stroke="#000000" points="134.322,-565.4532 140.9889,-571.1551 138.161,-566.5766 142,-567.7 142,-567.7 142,-567.7 138.161,-566.5766 143.0111,-564.2449 134.322,-565.4532 134.322,-565.4532"/>
<ellipse fill="none" stroke="#000000" cx="131.2508" cy="-564.5545" rx="3.2" ry="3.2"/>
</g>
<!-- venues -->
<g id="node8" class="node">
<title>venues</title>
<g id="a_node8"><a xlink:href="../../tables/venues.html" xlink:title="venues" target="_top">
<polygon fill="#ffffff" stroke="transparent" points="11.5,-562.2 11.5,-623.2 89.5,-623.2 89.5,-562.2 11.5,-562.2"/>
<polygon fill="#f5f5f5" stroke="transparent" points="11.5,-599.7 11.5,-622.7 89.5,-622.7 89.5,-599.7 11.5,-599.7"/>
<polygon fill="none" stroke="#000000" points="11.5,-599.7 11.5,-622.7 89.5,-622.7 89.5,-599.7 11.5,-599.7"/>
<text text-anchor="start" x="16.2702" y="-608.8" font-family="Helvetica,sans-Serif" font-weight="bold" font-size="11.00" fill="#000000">venues</text>
<text text-anchor="start" x="55.0219" y="-607.8" font-family="Helvetica,sans-Serif" font-size="11.00" fill="#000000">[table]</text>
<polygon fill="none" stroke="#000000" points="11.5,-580.7 11.5,-599.7 89.5,-599.7 89.5,-580.7 11.5,-580.7"/>
<text text-anchor="start" x="14.5" y="-586.8" font-family="Helvetica,sans-Serif" font-size="11.00" fill="#000000">...</text>
<polygon fill="#ffffff" stroke="transparent" points="11.5,-561.7 11.5,-580.7 26.5,-580.7 26.5,-561.7 11.5,-561.7"/>
<polygon fill="none" stroke="#000000" points="11.5,-561.7 11.5,-580.7 26.5,-580.7 26.5,-561.7 11.5,-561.7"/>
<text text-anchor="start" x="14.5" y="-567.8" font-family="Helvetica,sans-Serif" font-size="11.00" fill="#000000"> &#160;</text>
<polygon fill="#ffffff" stroke="transparent" points="26.5,-561.7 26.5,-580.7 66.5,-580.7 66.5,-561.7 26.5,-561.7"/>
<polygon fill="none" stroke="#000000" points="26.5,-561.7 26.5,-580.7 66.5,-580.7 66.5,-561.7 26.5,-561.7"/>
<text text-anchor="start" x="31.1105" y="-567.8" font-family="Helvetica,sans-Serif" font-size="11.00" fill="#000000">0 rows</text>
<polygon fill="#ffffff" stroke="transparent" points="66.5,-561.7 66.5,-580.7 89.5,-580.7 89.5,-561.7 66.5,-561.7"/>
<polygon fill="none" stroke="#000000" points="66.5,-561.7 66.5,-580.7 89.5,-580.7 89.5,-561.7 66.5,-561.7"/>
<text text-anchor="start" x="70.9053" y="-567.8" font-family="Helvetica,sans-Serif" font-size="11.00" fill="#000000">1 &gt;</text>
</a>
</g>
</g>
<!-- events&#45;&gt;venues -->
<g id="edge8" class="edge">
<title>events:w&#45;&gt;venues:e</title>
<path fill="none" stroke="#000000" d="M127.2344,-589.7C114.6563,-589.7 107,-589.7 89.5,-589.7"/>
<polygon fill="#000000" stroke="#000000" points="134,-589.7001 142,-593.3 138,-589.7 142,-589.7 142,-589.7 142,-589.7 138,-589.7 142,-586.1 134,-589.7001 134,-589.7001"/>
<ellipse fill="none" stroke="#000000" cx="130.8" cy="-589.7001" rx="3.2" ry="3.2"/>
</g>
<!-- rsvps&#45;&gt;events -->
<g id="edge9" class="edge">
<title>rsvps:w&#45;&gt;events:e</title>
<path fill="none" stroke="#000000" d="M282.6032,-434.1084C228.687,-455.4682 323.4651,-611.7 246,-611.7"/>
<polygon fill="#000000" stroke="#000000" points="289.1096,-433.02 297.594,-435.2507 293.0548,-432.36 297,-431.7 297,-431.7 297,-431.7 293.0548,-432.36 296.406,-428.1493 289.1096,-433.02 289.1096,-433.02"/>
<ellipse fill="none" stroke="#000000" cx="285.9535" cy="-433.548" rx="3.2" ry="3.2"/>
</g>
<!-- rsvps&#45;&gt;users -->
<g id="edge10" class="edge">
<title>rsvps:w&#45;&gt;users:e</title>
<path fill="none" stroke="#000000" d="M282.4966,-451.4577C223.5522,-430.2466 319.9292,-265.7 238,-265.7"/>
<polygon fill="#000000" stroke="#000000" points="289.0939,-452.4776 296.4499,-457.2577 293.047,-453.0888 297,-453.7 297,-453.7 297,-453.7 293.047,-453.0888 297.5501,-450.1423 289.0939,-452.4776 289.0939,-452.4776"/>
<ellipse fill="none" stroke="#000000" cx="285.9315" cy="-451.9887" rx="3.2" ry="3.2"/>
</g>
<!-- event_sponsors -->
<g id="node5" class="node">
<title>event_sponsors</title>
<g id="a_node5"><a xlink:href="../../tables/event_sponsors.html" xlink:title="event_sponsors" target="_top">
<polygon fill="#ffffff" stroke="transparent" points="329,-747.2 329,-808.2 449,-808.2 449,-747.2 329,-747.2"/>
<polygon fill="#f5f5f5" stroke="transparent" points="329,-784.7 329,-807.7 449,-807.7 449,-784.7 329,-784.7"/>
<polygon fill="none" stroke="#000000" points="329,-784.7 329,-807.7 449,-807.7 449,-784.7 329,-784.7"/>
<text text-anchor="start" x="333.681" y="-793.8" font-family="Helvetica,sans-Serif" font-weight="bold" font-size="11.00" fill="#000000">event_sponsors</text>
<text text-anchor="start" x="414.5219" y="-792.8" font-family="Helvetica,sans-Serif" font-size="11.00" fill="#000000">[table]</text>
<polygon fill="none" stroke="#000000" points="329,-765.7 329,-784.7 449,-784.7 449,-765.7 329,-765.7"/>
<text text-anchor="start" x="332" y="-771.8" font-family="Helvetica,sans-Serif" font-size="11.00" fill="#000000">...</text>
<polygon fill="#ffffff" stroke="transparent" points="329,-746.7 329,-765.7 374,-765.7 374,-746.7 329,-746.7"/>
<polygon fill="none" stroke="#000000" points="329,-746.7 329,-765.7 374,-765.7 374,-746.7 329,-746.7"/>
<text text-anchor="start" x="332" y="-752.8" font-family="Helvetica,sans-Serif" font-size="11.00" fill="#000000">&lt; 2</text>
<polygon fill="#ffffff" stroke="transparent" points="374,-746.7 374,-765.7 424,-765.7 424,-746.7 374,-746.7"/>
<polygon fill="none" stroke="#000000" points="374,-746.7 374,-765.7 424,-765.7 424,-746.7 374,-746.7"/>
<text text-anchor="start" x="388.6105" y="-752.8" font-family="Helvetica,sans-Serif" font-size="11.00" fill="#000000">0 rows</text>
<polygon fill="#ffffff" stroke="transparent" points="424,-746.7 424,-765.7 449,-765.7 449,-746.7 424,-746.7"/>
<polygon fill="none" stroke="#000000" points="424,-746.7 424,-765.7 449,-765.7 449,-746.7 424,-746.7"/>
<text text-anchor="start" x="439.8862" y="-752.8" font-family="Helvetica,sans-Serif" font-size="11.00" fill="#000000"> &#160;</text>
</a>
</g>
</g>
<!-- event_sponsors&#45;&gt;events -->
<g id="edge5" class="edge">
<title>event_sponsors:w&#45;&gt;events:e</title>
<path fill="none" stroke="#000000" d="M314.5151,-772.0796C301.7855,-766.5507 297.5,-752.8617 287,-736.7 255.1469,-687.671 304.4677,-611.7 246,-611.7"/>
<polygon fill="#000000" stroke="#000000" points="321.1278,-773.2758 328.3591,-778.2425 325.0639,-773.9879 329,-774.7 329,-774.7 329,-774.7 325.0639,-773.9879 329.6409,-771.1575 321.1278,-773.2758 321.1278,-773.2758"/>
<ellipse fill="none" stroke="#000000" cx="317.9789" cy="-772.7062" rx="3.2" ry="3.2"/>
</g>
<!-- event_tags -->
<g id="node6" class="node">
<title>event_tags</title>
<g id="a_node6"><a xlink:href="../../tables/event_tags.html" xlink:title="event_tags" target="_top">
<polygon fill="#ffffff" stroke="transparent" points="341,-665.2 341,-726.2 437,-726.2 437,-665.2 341,-665.2"/>
<polygon fill="#f5f5f5" stroke="transparent" points="341,-702.7 341,-725.7 437,-725.7 437,-702.7 341,-702.7"/>
<polygon fill="none" stroke="#000000" points="341,-702.7 341,-725.7 437,-725.7 437,-702.7 341,-702.7"/>
<text text-anchor="start" x="345.5984" y="-711.8" font-family="Helvetica,sans-Serif" font-weight="bold" font-size="11.00" fill="#000000">event_tags</text>
<text text-anchor="start" x="402.5219" y="-710.8" font-family="Helvetica,sans-Serif" font-size="11.00" fill="#000000">[table]</text>
<polygon fill="none" stroke="#000000" points="341,-683.7 341,-702.7 437,-702.7 437,-683.7 341,-683.7"/>
<text text-anchor="start" x="344" y="-689.8" font-family="Helvetica,sans-Serif" font-size="11.00" fill="#000000">...</text>
<polygon fill="#ffffff" stroke="transparent" points="341,-664.7 341,-683.7 374,-683.7 374,-664.7 341,-664.7"/>
<polygon fill="none" stroke="#000000" points="341,-664.7 341,-683.7 374,-683.7 374,-664.7 341,-664.7"/>
<text text-anchor="start" x="344" y="-670.8" font-family="Helvetica,sans-Serif" font-size="11.00" fill="#000000">&lt; 2</text>
<polygon fill="#ffffff" stroke="transparent" points="374,-664.7 374,-683.7 418,-683.7 418,-664.7 374,-664.7"/>
<polygon fill="none" stroke="#000000" points="374,-664.7 374,-683.7 418,-683.7 418,-664.7 374,-664.7"/>
<text text-anchor="start" x="382.6105" y="-670.8" font-family="Helvetica,sans-Serif" font-size="11.00" fill="#000000">0 rows</text>
<polygon fill="#ffffff" stroke="transparent" points="418,-664.7 418,-683.7 437,-683.7 437,-664.7 418,-664.7"/>
<polygon fill="none" stroke="#000000" points="418,-664.7 418,-683.7 437,-683.7 437,-664.7 418,-664.7"/>
<text text-anchor="start" x="427.8862" y="-670.8" font-family="Helvetica,sans-Serif" font-size="11.00" fill="#000000"> &#160;</text>
</a>
</g>
</g>
<!-- event_tags&#45;&gt;events -->
<g id="edge6" class="edge">
<title>event_tags:w&#45;&gt;events:e</title>
<path fill="none" stroke="#000000" d="M326.7009,-690.5238C309.5976,-684.4702 305.7228,-666.8163 287,-650.7 267.9395,-634.293 271.1494,-611.7 246,-611.7"/>
<polygon fill="#000000" stroke="#000000" points="333.0911,-691.4963 340.4583,-696.259 337.0455,-692.0981 341,-692.7 341,-692.7 341,-692.7 337.0455,-692.0981 341.5417,-689.141 333.0911,-691.4963 333.0911,-691.4963"/>
<ellipse fill="none" stroke="#000000" cx="329.9275" cy="-691.0148" rx="3.2" ry="3.2"/>
</g>
<!-- user_bans -->
<g id="node9" class="node">
<title>user_bans</title>
<g id="a_node9"><a xlink:href="../../tables/user_bans.html" xlink:title="user_bans" target="_top">
<polygon fill="#ffffff" stroke="transparent" points="342,-120.2 342,-181.2 436,-181.2 436,-120.2 342,-120.2"/>
<polygon fill="#f5f5f5" stroke="transparent" points="342,-157.7 342,-180.7 436,-180.7 436,-157.7 342,-157.7"/>
<polygon fill="none" stroke="#000000" points="342,-157.7 342,-180.7 436,-180.7 436,-157.7 342,-157.7"/>
<text text-anchor="start" x="346.8244" y="-166.8" font-family="Helvetica,sans-Serif" font-weight="bold" font-size="11.00" fill="#000000">user_bans</text>
<text text-anchor="start" x="401.5219" y="-165.8" font-family="Helvetica,sans-Serif" font-size="11.00" fill="#000000">[table]</text>
<polygon fill="none" stroke="#000000" points="342,-138.7 342,-157.7 436,-157.7 436,-138.7 342,-138.7"/>
<text text-anchor="start" x="345" y="-144.8" font-family="Helvetica,sans-Serif" font-size="11.00" fill="#000000">...</text>
<polygon fill="#ffffff" stroke="transparent" points="342,-119.7 342,-138.7 374,-138.7 374,-119.7 342,-119.7"/>
<polygon fill="none" stroke="#000000" points="342,-119.7 342,-138.7 374,-138.7 374,-119.7 342,-119.7"/>
<text text-anchor="start" x="345" y="-125.8" font-family="Helvetica,sans-Serif" font-size="11.00" fill="#000000">&lt; 2</text>
<polygon fill="#ffffff" stroke="transparent" points="374,-119.7 374,-138.7 418,-138.7 418,-119.7 374,-119.7"/>
<polygon fill="none" stroke="#000000" points="374,-119.7 374,-138.7 418,-138.7 418,-119.7 374,-119.7"/>
<text text-anchor="start" x="382.6105" y="-125.8" font-family="Helvetica,sans-Serif" font-size="11.00" fill="#000000">0 rows</text>
<polygon fill="#ffffff" stroke="transparent" points="418,-119.7 418,-138.7 436,-138.7 436,-119.7 418,-119.7"/>
<polygon fill="none" stroke="#000000" points="418,-119.7 418,-138.7 436,-138.7 436,-119.7 418,-119.7"/>
<text text-anchor="start" x="426.8862" y="-125.8" font-family="Helvetica,sans-Serif" font-size="11.00" fill="#000000"> &#160;</text>
</a>
</g>
</g>
<!-- user_bans&#45;&gt;users -->
<g id="edge12" class="edge">
<title>user_bans:w&#45;&gt;users:e</title>
<path fill="none" stroke="#000000" d="M327.6335,-149.6154C309.171,-155.2798 304.324,-172.7448 287,-191.7 260.3888,-220.8169 277.4455,-265.7 238,-265.7"/>
<polygon fill="#000000" stroke="#000000" points="334.0702,-148.7573 342.4758,-151.2684 338.0351,-148.2286 342,-147.7 342,-147.7 342,-147.7 338.0351,-148.2286 341.5242,-144.1316 334.0702,-148.7573 334.0702,-148.7573"/>
<ellipse fill="none" stroke="#000000" cx="330.8982" cy="-149.1802" rx="3.2" ry="3.2"/>
</g>
<!-- user_bans&#45;&gt;chapters -->
<g id="edge11" class="edge">
<title>user_bans:w&#45;&gt;chapters:e</title>
<path fill="none" stroke="#000000" d="M327.2998,-147.7C228.8464,-147.7 198.8752,-147.7 93.5,-147.7"/>
<polygon fill="#000000" stroke="#000000" points="334,-147.7001 342,-151.3 338,-147.7 342,-147.7 342,-147.7 342,-147.7 338,-147.7 342,-144.1 334,-147.7001 334,-147.7001"/>
<ellipse fill="none" stroke="#000000" cx="330.8" cy="-147.7001" rx="3.2" ry="3.2"/>
</g>
<!-- user_chapter_roles -->
<g id="node10" class="node">
<title>user_chapter_roles</title>
<g id="a_node10"><a xlink:href="../../tables/user_chapter_roles.html" xlink:title="user_chapter_roles" target="_top">
<polygon fill="#ffffff" stroke="transparent" points="320.5,-38.2 320.5,-99.2 457.5,-99.2 457.5,-38.2 320.5,-38.2"/>
<polygon fill="#f5f5f5" stroke="transparent" points="321,-75.7 321,-98.7 458,-98.7 458,-75.7 321,-75.7"/>
<polygon fill="none" stroke="#000000" points="321,-75.7 321,-98.7 458,-98.7 458,-75.7 321,-75.7"/>
<text text-anchor="start" x="325.9338" y="-84.8" font-family="Helvetica,sans-Serif" font-weight="bold" font-size="11.00" fill="#000000">user_chapter_roles</text>
<text text-anchor="start" x="423.5219" y="-83.8" font-family="Helvetica,sans-Serif" font-size="11.00" fill="#000000">[table]</text>
<polygon fill="none" stroke="#000000" points="321,-56.7 321,-75.7 458,-75.7 458,-56.7 321,-56.7"/>
<text text-anchor="start" x="324" y="-62.8" font-family="Helvetica,sans-Serif" font-size="11.00" fill="#000000">...</text>
<polygon fill="#ffffff" stroke="transparent" points="321,-37.7 321,-56.7 375,-56.7 375,-37.7 321,-37.7"/>
<polygon fill="none" stroke="#000000" points="321,-37.7 321,-56.7 375,-56.7 375,-37.7 321,-37.7"/>
<text text-anchor="start" x="324" y="-43.8" font-family="Helvetica,sans-Serif" font-size="11.00" fill="#000000">&lt; 2</text>
<polygon fill="#ffffff" stroke="transparent" points="375,-37.7 375,-56.7 429,-56.7 429,-37.7 375,-37.7"/>
<polygon fill="none" stroke="#000000" points="375,-37.7 375,-56.7 429,-56.7 429,-37.7 375,-37.7"/>
<text text-anchor="start" x="393.6105" y="-43.8" font-family="Helvetica,sans-Serif" font-size="11.00" fill="#000000">0 rows</text>
<polygon fill="#ffffff" stroke="transparent" points="429,-37.7 429,-56.7 458,-56.7 458,-37.7 429,-37.7"/>
<polygon fill="none" stroke="#000000" points="429,-37.7 429,-56.7 458,-56.7 458,-37.7 429,-37.7"/>
<text text-anchor="start" x="448.8862" y="-43.8" font-family="Helvetica,sans-Serif" font-size="11.00" fill="#000000"> &#160;</text>
</a>
</g>
</g>
<!-- user_chapter_roles&#45;&gt;users -->
<g id="edge14" class="edge">
<title>user_chapter_roles:w&#45;&gt;users:e</title>
<path fill="none" stroke="#000000" d="M306.552,-67.5522C236.5025,-87.7146 328.7884,-265.7 238,-265.7"/>
<polygon fill="#000000" stroke="#000000" points="313.0649,-66.7173 321.4578,-69.2708 317.0325,-66.2087 321,-65.7 321,-65.7 321,-65.7 317.0325,-66.2087 320.5422,-62.1292 313.0649,-66.7173 313.0649,-66.7173"/>
<ellipse fill="none" stroke="#000000" cx="309.8909" cy="-67.1242" rx="3.2" ry="3.2"/>
</g>
<!-- user_chapter_roles&#45;&gt;chapters -->
<g id="edge13" class="edge">
<title>user_chapter_roles:w&#45;&gt;chapters:e</title>
<path fill="none" stroke="#000000" d="M306.4921,-66.2236C212.1369,-73.2073 195.9406,-147.7 93.5,-147.7"/>
<polygon fill="#000000" stroke="#000000" points="313.0052,-65.9886 321.1299,-69.2977 317.0026,-65.8443 321,-65.7 321,-65.7 321,-65.7 317.0026,-65.8443 320.8701,-62.1023 313.0052,-65.9886 313.0052,-65.9886"/>
<ellipse fill="none" stroke="#000000" cx="309.8073" cy="-66.1041" rx="3.2" ry="3.2"/>
</g>
<!-- user_event_roles -->
<g id="node11" class="node">
<title>user_event_roles</title>
<g id="a_node11"><a xlink:href="../../tables/user_event_roles.html" xlink:title="user_event_roles" target="_top">
<polygon fill="#ffffff" stroke="transparent" points="325.5,-555.2 325.5,-616.2 452.5,-616.2 452.5,-555.2 325.5,-555.2"/>
<polygon fill="#f5f5f5" stroke="transparent" points="326,-592.7 326,-615.7 453,-615.7 453,-592.7 326,-592.7"/>
<polygon fill="none" stroke="#000000" points="326,-592.7 326,-615.7 453,-615.7 453,-592.7 326,-592.7"/>
<text text-anchor="start" x="330.8222" y="-601.8" font-family="Helvetica,sans-Serif" font-weight="bold" font-size="11.00" fill="#000000">user_event_roles</text>
<text text-anchor="start" x="418.5219" y="-600.8" font-family="Helvetica,sans-Serif" font-size="11.00" fill="#000000">[table]</text>
<polygon fill="none" stroke="#000000" points="326,-573.7 326,-592.7 453,-592.7 453,-573.7 326,-573.7"/>
<text text-anchor="start" x="329" y="-579.8" font-family="Helvetica,sans-Serif" font-size="11.00" fill="#000000">...</text>
<polygon fill="#ffffff" stroke="transparent" points="326,-554.7 326,-573.7 375,-573.7 375,-554.7 326,-554.7"/>
<polygon fill="none" stroke="#000000" points="326,-554.7 326,-573.7 375,-573.7 375,-554.7 326,-554.7"/>
<text text-anchor="start" x="329" y="-560.8" font-family="Helvetica,sans-Serif" font-size="11.00" fill="#000000">&lt; 2</text>
<polygon fill="#ffffff" stroke="transparent" points="375,-554.7 375,-573.7 427,-573.7 427,-554.7 375,-554.7"/>
<polygon fill="none" stroke="#000000" points="375,-554.7 375,-573.7 427,-573.7 427,-554.7 375,-554.7"/>
<text text-anchor="start" x="391.6105" y="-560.8" font-family="Helvetica,sans-Serif" font-size="11.00" fill="#000000">0 rows</text>
<polygon fill="#ffffff" stroke="transparent" points="427,-554.7 427,-573.7 453,-573.7 453,-554.7 427,-554.7"/>
<polygon fill="none" stroke="#000000" points="427,-554.7 427,-573.7 453,-573.7 453,-554.7 427,-554.7"/>
<text text-anchor="start" x="443.8862" y="-560.8" font-family="Helvetica,sans-Serif" font-size="11.00" fill="#000000"> &#160;</text>
</a>
</g>
</g>
<!-- user_event_roles&#45;&gt;events -->
<g id="edge15" class="edge">
<title>user_event_roles:w&#45;&gt;events:e</title>
<path fill="none" stroke="#000000" d="M311.4964,-584.3423C286.2209,-590.477 278.3535,-611.7 246,-611.7"/>
<polygon fill="#000000" stroke="#000000" points="318.0508,-583.6001 326.4051,-586.2771 322.0254,-583.1501 326,-582.7 326,-582.7 326,-582.7 322.0254,-583.1501 325.5949,-579.1229 318.0508,-583.6001 318.0508,-583.6001"/>
<ellipse fill="none" stroke="#000000" cx="314.8711" cy="-583.9602" rx="3.2" ry="3.2"/>
</g>
<!-- user_event_roles&#45;&gt;users -->
<g id="edge16" class="edge">
<title>user_event_roles:w&#45;&gt;users:e</title>
<path fill="none" stroke="#000000" d="M311.5266,-579.8449C299.4741,-574.0783 295.577,-560.1776 287,-543.7 258.0363,-488.0568 300.7301,-265.7 238,-265.7"/>
<polygon fill="#000000" stroke="#000000" points="318.1513,-581.1517 325.3033,-586.2319 322.0756,-581.9258 326,-582.7 326,-582.7 326,-582.7 322.0756,-581.9258 326.6967,-579.1681 318.1513,-581.1517 318.1513,-581.1517"/>
<ellipse fill="none" stroke="#000000" cx="315.0118" cy="-580.5323" rx="3.2" ry="3.2"/>
</g>
<!-- user_instance_roles -->
<g id="node12" class="node">
<title>user_instance_roles</title>
<g id="a_node12"><a xlink:href="../../tables/user_instance_roles.html" xlink:title="user_instance_roles" target="_top">
<polygon fill="#ffffff" stroke="transparent" points="318.5,-202.2 318.5,-263.2 459.5,-263.2 459.5,-202.2 318.5,-202.2"/>
<polygon fill="#f5f5f5" stroke="transparent" points="319,-239.7 319,-262.7 460,-262.7 460,-239.7 319,-239.7"/>
<polygon fill="none" stroke="#000000" points="319,-239.7 319,-262.7 460,-262.7 460,-239.7 319,-239.7"/>
<text text-anchor="start" x="323.7943" y="-248.8" font-family="Helvetica,sans-Serif" font-weight="bold" font-size="11.00" fill="#000000">user_instance_roles</text>
<text text-anchor="start" x="425.5219" y="-247.8" font-family="Helvetica,sans-Serif" font-size="11.00" fill="#000000">[table]</text>
<polygon fill="none" stroke="#000000" points="319,-220.7 319,-239.7 460,-239.7 460,-220.7 319,-220.7"/>
<text text-anchor="start" x="322" y="-226.8" font-family="Helvetica,sans-Serif" font-size="11.00" fill="#000000">...</text>
<polygon fill="#ffffff" stroke="transparent" points="319,-201.7 319,-220.7 375,-220.7 375,-201.7 319,-201.7"/>
<polygon fill="none" stroke="#000000" points="319,-201.7 319,-220.7 375,-220.7 375,-201.7 319,-201.7"/>
<text text-anchor="start" x="322" y="-207.8" font-family="Helvetica,sans-Serif" font-size="11.00" fill="#000000">&lt; 1</text>
<polygon fill="#ffffff" stroke="transparent" points="375,-201.7 375,-220.7 430,-220.7 430,-201.7 375,-201.7"/>
<polygon fill="none" stroke="#000000" points="375,-201.7 375,-220.7 430,-220.7 430,-201.7 375,-201.7"/>
<text text-anchor="start" x="394.6105" y="-207.8" font-family="Helvetica,sans-Serif" font-size="11.00" fill="#000000">0 rows</text>
<polygon fill="#ffffff" stroke="transparent" points="430,-201.7 430,-220.7 460,-220.7 460,-201.7 430,-201.7"/>
<polygon fill="none" stroke="#000000" points="430,-201.7 430,-220.7 460,-220.7 460,-201.7 430,-201.7"/>
<text text-anchor="start" x="450.8862" y="-207.8" font-family="Helvetica,sans-Serif" font-size="11.00" fill="#000000"> &#160;</text>
</a>
</g>
</g>
<!-- user_instance_roles&#45;&gt;users -->
<g id="edge17" class="edge">
<title>user_instance_roles:w&#45;&gt;users:e</title>
<path fill="none" stroke="#000000" d="M304.3793,-231.6355C278.2479,-239.1131 271.8554,-265.7 238,-265.7"/>
<polygon fill="#000000" stroke="#000000" points="311.0692,-230.7499 319.4725,-233.2689 315.0346,-230.225 319,-229.7 319,-229.7 319,-229.7 315.0346,-230.225 318.5275,-226.1311 311.0692,-230.7499 311.0692,-230.7499"/>
<ellipse fill="none" stroke="#000000" cx="307.8969" cy="-231.1699" rx="3.2" ry="3.2"/>
</g>
</g>
</svg>
