<?xml version="1.0" encoding="UTF-8" standalone="no"?>
<!DOCTYPE svg PUBLIC "-//W3C//DTD SVG 1.1//EN"
 "http://www.w3.org/Graphics/SVG/1.1/DTD/svg11.dtd">
<!-- Generated by graphviz version 2.40.1 (20161225.0304)
 -->
<!-- Title: oneDegreeRelationshipsDiagram Pages: 1 -->
<svg width="550pt" height="366pt"
 viewBox="0.00 0.00 550.00 366.26" xmlns="http://www.w3.org/2000/svg" xmlns:xlink="http://www.w3.org/1999/xlink">
<g id="graph0" class="graph" transform="scale(1 1) rotate(0) translate(4 362.2586)">
<title>oneDegreeRelationshipsDiagram</title>
<polygon fill="#ffffff" stroke="transparent" points="-4,4 -4,-362.2586 546,-362.2586 546,4 -4,4"/>
<text text-anchor="middle" x="72.4936" y="-7.3" font-family="Helvetica,sans-Serif" font-size="11.00" fill="#000000">Generated by SchemaSpy</text>
<!-- event_reminders -->
<g id="node1" class="node">
<title>event_reminders</title>
<g id="a_node1"><a xlink:href="../../tables/event_reminders.html" xlink:title="event_reminders" target="_top">
<polygon fill="#ffffff" stroke="transparent" points="410,-165.2 410,-270.2 534,-270.2 534,-165.2 410,-165.2"/>
<polygon fill="#f5f5f5" stroke="transparent" points="410,-246.7 410,-269.7 534,-269.7 534,-246.7 410,-246.7"/>
<polygon fill="none" stroke="#000000" points="410,-246.7 410,-269.7 534,-269.7 534,-246.7 410,-246.7"/>
<text text-anchor="start" x="414.5487" y="-255.8" font-family="Helvetica,sans-Serif" font-weight="bold" font-size="11.00" fill="#000000">event_reminders</text>
<text text-anchor="start" x="499.5219" y="-254.8" font-family="Helvetica,sans-Serif" font-size="11.00" fill="#000000">[table]</text>
<polygon fill="none" stroke="#000000" points="410,-224.7 410,-246.7 534,-246.7 534,-224.7 410,-224.7"/>
<image xlink:href="../../images/primaryKeys.png" width="11px" height="12px" preserveAspectRatio="xMinYMin meet" x="415" y="-241.7"/>
<text text-anchor="start" x="431" y="-231.8" font-family="Helvetica,sans-Serif" font-size="11.00" fill="#000000">user_id</text>
<polygon fill="none" stroke="#000000" points="410,-202.7 410,-224.7 534,-224.7 534,-202.7 410,-202.7"/>
<image xlink:href="../../images/primaryKeys.png" width="11px" height="12px" preserveAspectRatio="xMinYMin meet" x="415" y="-219.7"/>
<text text-anchor="start" x="431" y="-209.8" font-family="Helvetica,sans-Serif" font-size="11.00" fill="#000000">event_id</text>
<polygon fill="none" stroke="#000000" points="410,-183.7 410,-202.7 534,-202.7 534,-183.7 410,-183.7"/>
<text text-anchor="start" x="413" y="-189.8" font-family="Helvetica,sans-Serif" font-size="11.00" fill="#000000">...</text>
<polygon fill="#ffffff" stroke="transparent" points="410,-164.7 410,-183.7 457,-183.7 457,-164.7 410,-164.7"/>
<polygon fill="none" stroke="#000000" points="410,-164.7 410,-183.7 457,-183.7 457,-164.7 410,-164.7"/>
<text text-anchor="start" x="413" y="-170.8" font-family="Helvetica,sans-Serif" font-size="11.00" fill="#000000">&lt; 4</text>
<polygon fill="#ffffff" stroke="transparent" points="457,-164.7 457,-183.7 508,-183.7 508,-164.7 457,-164.7"/>
<polygon fill="none" stroke="#000000" points="457,-164.7 457,-183.7 508,-183.7 508,-164.7 457,-164.7"/>
<text text-anchor="start" x="472.6105" y="-170.8" font-family="Helvetica,sans-Serif" font-size="11.00" fill="#000000">0 rows</text>
<polygon fill="#ffffff" stroke="transparent" points="508,-164.7 508,-183.7 534,-183.7 534,-164.7 508,-164.7"/>
<polygon fill="none" stroke="#000000" points="508,-164.7 508,-183.7 534,-183.7 534,-164.7 508,-164.7"/>
<text text-anchor="start" x="524.8862" y="-170.8" font-family="Helvetica,sans-Serif" font-size="11.00" fill="#000000"> &#160;</text>
</a>
</g>
</g>
<!-- events -->
<g id="node2" class="node">
<title>events</title>
<g id="a_node2"><a xlink:href="../../tables/events.html" xlink:title="events" target="_top">
<polygon fill="#ffffff" stroke="transparent" points="14,-38.2 14,-165.2 118,-165.2 118,-38.2 14,-38.2"/>
<polygon fill="#f5f5f5" stroke="transparent" points="14,-141.7 14,-164.7 118,-164.7 118,-141.7 14,-141.7"/>
<polygon fill="none" stroke="#000000" points="14,-141.7 14,-164.7 118,-164.7 118,-141.7 14,-141.7"/>
<text text-anchor="start" x="19" y="-150.8" font-family="Helvetica,sans-Serif" font-weight="bold" font-size="11.00" fill="#000000">events</text>
<text text-anchor="start" x="83.0437" y="-149.8" font-family="Helvetica,sans-Serif" font-size="11.00" fill="#000000">[table]</text>
<polygon fill="none" stroke="#000000" points="14,-119.7 14,-141.7 118,-141.7 118,-119.7 14,-119.7"/>
<image xlink:href="../../images/primaryKeys.png" width="11px" height="12px" preserveAspectRatio="xMinYMin meet" x="19" y="-136.7"/>
<text text-anchor="start" x="34" y="-126.8" font-family="Helvetica,sans-Serif" font-size="11.00" fill="#000000">id</text>
<polygon fill="none" stroke="#000000" points="14,-97.7 14,-119.7 118,-119.7 118,-97.7 14,-97.7"/>
<image xlink:href="../../images/foreignKeys.png" width="11px" height="12px" preserveAspectRatio="xMinYMin meet" x="19" y="-114.7"/>
<text text-anchor="start" x="34" y="-104.8" font-family="Helvetica,sans-Serif" font-size="11.00" fill="#000000">venue_id</text>
<polygon fill="none" stroke="#000000" points="14,-75.7 14,-97.7 118,-97.7 118,-75.7 14,-75.7"/>
<image xlink:href="../../images/foreignKeys.png" width="11px" height="12px" preserveAspectRatio="xMinYMin meet" x="19" y="-92.7"/>
<text text-anchor="start" x="34" y="-82.8" font-family="Helvetica,sans-Serif" font-size="11.00" fill="#000000">chapter_id</text>
<polygon fill="none" stroke="#000000" points="14,-56.7 14,-75.7 118,-75.7 118,-56.7 14,-56.7"/>
<text text-anchor="start" x="17" y="-62.8" font-family="Helvetica,sans-Serif" font-size="11.00" fill="#000000">...</text>
<polygon fill="#ffffff" stroke="transparent" points="14,-37.7 14,-56.7 47,-56.7 47,-37.7 14,-37.7"/>
<polygon fill="none" stroke="#000000" points="14,-37.7 14,-56.7 47,-56.7 47,-37.7 14,-37.7"/>
<text text-anchor="start" x="17" y="-43.8" font-family="Helvetica,sans-Serif" font-size="11.00" fill="#000000">&lt; 2</text>
<polygon fill="#ffffff" stroke="transparent" points="47,-37.7 47,-56.7 91,-56.7 91,-37.7 47,-37.7"/>
<polygon fill="none" stroke="#000000" points="47,-37.7 47,-56.7 91,-56.7 91,-37.7 47,-37.7"/>
<text text-anchor="start" x="55.6105" y="-43.8" font-family="Helvetica,sans-Serif" font-size="11.00" fill="#000000">0 rows</text>
<polygon fill="#ffffff" stroke="transparent" points="91,-37.7 91,-56.7 118,-56.7 118,-37.7 91,-37.7"/>
<polygon fill="none" stroke="#000000" points="91,-37.7 91,-56.7 118,-56.7 118,-37.7 91,-37.7"/>
<text text-anchor="start" x="99.4053" y="-43.8" font-family="Helvetica,sans-Serif" font-size="11.00" fill="#000000">5 &gt;</text>
</a>
</g>
</g>
<!-- event_reminders&#45;&gt;events -->
<g id="edge1" class="edge">
<title>event_reminders:w&#45;&gt;events:e</title>
<path fill="none" stroke="#000000" d="M395.6197,-211.1287C361.3737,-195.7302 413.3599,-115.2982 369,-82.7 295.939,-29.0107 248.5813,-47.563 165,-82.7 137.476,-94.2709 147.8573,-130.7 118,-130.7"/>
<polygon fill="#000000" stroke="#000000" points="402.1249,-212.2918 409.3663,-217.2438 406.0624,-212.9959 410,-213.7 410,-213.7 410,-213.7 406.0624,-212.9959 410.6337,-210.1562 402.1249,-212.2918 402.1249,-212.2918"/>
<ellipse fill="none" stroke="#000000" cx="398.9749" cy="-211.7286" rx="3.2" ry="3.2"/>
</g>
<!-- rsvps -->
<g id="node3" class="node">
<title>rsvps</title>
<g id="a_node3"><a xlink:href="../../tables/rsvps.html" xlink:title="rsvps" target="_top">
<polygon fill="#ffffff" stroke="transparent" points="173,-93.7 173,-315.7 361,-315.7 361,-93.7 173,-93.7"/>
<polygon fill="#f5f5f5" stroke="transparent" points="175,-290.7 175,-313.7 359,-313.7 359,-290.7 175,-290.7"/>
<polygon fill="none" stroke="#000000" points="175,-290.7 175,-313.7 359,-313.7 359,-290.7 175,-290.7"/>
<text text-anchor="start" x="180" y="-299.8" font-family="Helvetica,sans-Serif" font-weight="bold" font-size="11.00" fill="#000000">rsvps</text>
<text text-anchor="start" x="324.0437" y="-298.8" font-family="Helvetica,sans-Serif" font-size="11.00" fill="#000000">[table]</text>
<polygon fill="none" stroke="#000000" points="175,-268.7 175,-290.7 275,-290.7 275,-268.7 175,-268.7"/>
<text text-anchor="start" x="195" y="-275.8" font-family="Helvetica,sans-Serif" font-size="11.00" fill="#000000">created_at</text>
<polygon fill="none" stroke="#000000" points="275,-268.7 275,-290.7 359,-290.7 359,-268.7 275,-268.7"/>
<text text-anchor="start" x="277.8807" y="-276.4" font-family="Helvetica,sans-Serif" font-size="11.00" fill="#000000">timestamp[26,3]</text>
<polygon fill="none" stroke="#000000" points="175,-246.7 175,-268.7 275,-268.7 275,-246.7 175,-246.7"/>
<text text-anchor="start" x="195" y="-253.8" font-family="Helvetica,sans-Serif" font-size="11.00" fill="#000000">updated_at</text>
<polygon fill="none" stroke="#000000" points="275,-246.7 275,-268.7 359,-268.7 359,-246.7 275,-246.7"/>
<text text-anchor="start" x="277.8807" y="-254.4" font-family="Helvetica,sans-Serif" font-size="11.00" fill="#000000">timestamp[26,3]</text>
<polygon fill="none" stroke="#000000" points="175,-224.7 175,-246.7 275,-246.7 275,-224.7 175,-224.7"/>
<image xlink:href="../../images/primaryKeys.png" width="11px" height="12px" preserveAspectRatio="xMinYMin meet" x="180" y="-241.7"/>
<text text-anchor="start" x="195" y="-231.8" font-family="Helvetica,sans-Serif" font-size="11.00" fill="#000000">user_id</text>
<polygon fill="none" stroke="#000000" points="275,-224.7 275,-246.7 359,-246.7 359,-224.7 275,-224.7"/>
<text text-anchor="start" x="278" y="-232.4" font-family="Helvetica,sans-Serif" font-size="11.00" fill="#000000">int4[10]</text>
<polygon fill="none" stroke="#000000" points="175,-202.7 175,-224.7 275,-224.7 275,-202.7 175,-202.7"/>
<image xlink:href="../../images/primaryKeys.png" width="11px" height="12px" preserveAspectRatio="xMinYMin meet" x="180" y="-219.7"/>
<text text-anchor="start" x="195" y="-209.8" font-family="Helvetica,sans-Serif" font-size="11.00" fill="#000000">event_id</text>
<polygon fill="none" stroke="#000000" points="275,-202.7 275,-224.7 359,-224.7 359,-202.7 275,-202.7"/>
<text text-anchor="start" x="278" y="-210.4" font-family="Helvetica,sans-Serif" font-size="11.00" fill="#000000">int4[10]</text>
<polygon fill="none" stroke="#000000" points="175,-180.7 175,-202.7 275,-202.7 275,-180.7 175,-180.7"/>
<text text-anchor="start" x="195" y="-187.8" font-family="Helvetica,sans-Serif" font-size="11.00" fill="#000000">date</text>
<polygon fill="none" stroke="#000000" points="275,-180.7 275,-202.7 359,-202.7 359,-180.7 275,-180.7"/>
<text text-anchor="start" x="277.8807" y="-188.4" font-family="Helvetica,sans-Serif" font-size="11.00" fill="#000000">timestamp[26,3]</text>
<polygon fill="none" stroke="#000000" points="175,-158.7 175,-180.7 275,-180.7 275,-158.7 175,-158.7"/>
<text text-anchor="start" x="195" y="-165.8" font-family="Helvetica,sans-Serif" font-size="11.00" fill="#000000">on_waitlist</text>
<polygon fill="none" stroke="#000000" points="275,-158.7 275,-180.7 359,-180.7 359,-158.7 275,-158.7"/>
<text text-anchor="start" x="278" y="-166.4" font-family="Helvetica,sans-Serif" font-size="11.00" fill="#000000">bool[1]</text>
<polygon fill="none" stroke="#000000" points="175,-136.7 175,-158.7 275,-158.7 275,-136.7 175,-136.7"/>
<text text-anchor="start" x="195" y="-143.8" font-family="Helvetica,sans-Serif" font-size="11.00" fill="#000000">confirmed_at</text>
<polygon fill="none" stroke="#000000" points="275,-136.7 275,-158.7 359,-158.7 359,-136.7 275,-136.7"/>
<text text-anchor="start" x="277.8807" y="-144.4" font-family="Helvetica,sans-Serif" font-size="11.00" fill="#000000">timestamp[26,3]</text>
<polygon fill="none" stroke="#000000" points="175,-114.7 175,-136.7 275,-136.7 275,-114.7 175,-114.7"/>
<text text-anchor="start" x="195" y="-121.8" font-family="Helvetica,sans-Serif" font-size="11.00" fill="#000000">canceled</text>
<polygon fill="none" stroke="#000000" points="275,-114.7 275,-136.7 359,-136.7 359,-114.7 275,-114.7"/>
<text text-anchor="start" x="278" y="-122.4" font-family="Helvetica,sans-Serif" font-size="11.00" fill="#000000">bool[1]</text>
<polygon fill="#ffffff" stroke="transparent" points="175,-95.7 175,-114.7 216,-114.7 216,-95.7 175,-95.7"/>
<polygon fill="none" stroke="#000000" points="175,-95.7 175,-114.7 216,-114.7 216,-95.7 175,-95.7"/>
<text text-anchor="start" x="178" y="-101.8" font-family="Helvetica,sans-Serif" font-size="11.00" fill="#000000">&lt; 2</text>
<polygon fill="#ffffff" stroke="transparent" points="216,-95.7 216,-114.7 275,-114.7 275,-95.7 216,-95.7"/>
<polygon fill="none" stroke="#000000" points="216,-95.7 216,-114.7 275,-114.7 275,-95.7 216,-95.7"/>
<text text-anchor="start" x="239.6105" y="-101.8" font-family="Helvetica,sans-Serif" font-size="11.00" fill="#000000">0 rows</text>
<polygon fill="#ffffff" stroke="transparent" points="275,-95.7 275,-114.7 359,-114.7 359,-95.7 275,-95.7"/>
<polygon fill="none" stroke="#000000" points="275,-95.7 275,-114.7 359,-114.7 359,-95.7 275,-95.7"/>
<text text-anchor="start" x="340.4053" y="-101.8" font-family="Helvetica,sans-Serif" font-size="11.00" fill="#000000">2 &gt;</text>
<polygon fill="none" stroke="#000000" stroke-width="2" points="174,-94.7 174,-314.7 360,-314.7 360,-94.7 174,-94.7"/>
</a>
</g>
</g>
<!-- event_reminders&#45;&gt;rsvps -->
<g id="edge2" class="edge">
<title>event_reminders:w&#45;&gt;rsvps:e</title>
<path fill="none" stroke="#000000" d="M395.276,-213.7C383.2815,-213.7 375.8229,-213.7 359,-213.7"/>
<polygon fill="#000000" stroke="#000000" points="402,-213.7001 410,-217.3 406,-213.7 410,-213.7 410,-213.7 410,-213.7 406,-213.7 410,-210.1 402,-213.7001 402,-213.7001"/>
<ellipse fill="none" stroke="#000000" cx="398.8" cy="-213.7001" rx="3.2" ry="3.2"/>
</g>
<!-- event_reminders&#45;&gt;rsvps -->
<g id="edge3" class="edge">
<title>event_reminders:w&#45;&gt;rsvps:e</title>
<path fill="none" stroke="#000000" d="M395.276,-235.7C383.2815,-235.7 375.8229,-235.7 359,-235.7"/>
<polygon fill="#000000" stroke="#000000" points="402,-235.7001 410,-239.3 406,-235.7 410,-235.7 410,-235.7 410,-235.7 406,-235.7 410,-232.1 402,-235.7001 402,-235.7001"/>
<ellipse fill="none" stroke="#000000" cx="398.8" cy="-235.7001" rx="3.2" ry="3.2"/>
</g>
<!-- users -->
<g id="node4" class="node">
<title>users</title>
<g id="a_node4"><a xlink:href="../../tables/users.html" xlink:title="users" target="_top">
<polygon fill="#ffffff" stroke="transparent" points="8,-195.2 8,-322.2 124,-322.2 124,-195.2 8,-195.2"/>
<polygon fill="#f5f5f5" stroke="transparent" points="8,-298.7 8,-321.7 124,-321.7 124,-298.7 8,-298.7"/>
<polygon fill="none" stroke="#000000" points="8,-298.7 8,-321.7 124,-321.7 124,-298.7 8,-298.7"/>
<text text-anchor="start" x="13" y="-307.8" font-family="Helvetica,sans-Serif" font-weight="bold" font-size="11.00" fill="#000000">users</text>
<text text-anchor="start" x="89.0437" y="-306.8" font-family="Helvetica,sans-Serif" font-size="11.00" fill="#000000">[table]</text>
<polygon fill="none" stroke="#000000" points="8,-276.7 8,-298.7 124,-298.7 124,-276.7 8,-276.7"/>
<image xlink:href="../../images/primaryKeys.png" width="11px" height="12px" preserveAspectRatio="xMinYMin meet" x="13" y="-293.7"/>
<text text-anchor="start" x="28" y="-283.8" font-family="Helvetica,sans-Serif" font-size="11.00" fill="#000000">id</text>
<polygon fill="#ffffff" stroke="transparent" points="8,-254.7 8,-276.7 124,-276.7 124,-254.7 8,-254.7"/>
<polygon fill="none" stroke="#000000" points="8,-254.7 8,-276.7 124,-276.7 124,-254.7 8,-254.7"/>
<text text-anchor="start" x="28" y="-261.8" font-family="Helvetica,sans-Serif" font-size="11.00" fill="#000000">email</text>
<polygon fill="none" stroke="#000000" points="8,-232.7 8,-254.7 124,-254.7 124,-232.7 8,-232.7"/>
<image xlink:href="../../images/foreignKeys.png" width="11px" height="12px" preserveAspectRatio="xMinYMin meet" x="13" y="-249.7"/>
<text text-anchor="start" x="28" y="-239.8" font-family="Helvetica,sans-Serif" font-size="11.00" fill="#000000">instance_role_id</text>
<polygon fill="none" stroke="#000000" points="8,-213.7 8,-232.7 124,-232.7 124,-213.7 8,-213.7"/>
<text text-anchor="start" x="11" y="-219.8" font-family="Helvetica,sans-Serif" font-size="11.00" fill="#000000">...</text>
<polygon fill="#ffffff" stroke="transparent" points="8,-194.7 8,-213.7 47,-213.7 47,-194.7 8,-194.7"/>
<polygon fill="none" stroke="#000000" points="8,-194.7 8,-213.7 47,-213.7 47,-194.7 8,-194.7"/>
<text text-anchor="start" x="11" y="-200.8" font-family="Helvetica,sans-Serif" font-size="11.00" fill="#000000">&lt; 1</text>
<polygon fill="#ffffff" stroke="transparent" points="47,-194.7 47,-213.7 94,-213.7 94,-194.7 47,-194.7"/>
<polygon fill="none" stroke="#000000" points="47,-194.7 47,-213.7 94,-213.7 94,-194.7 47,-194.7"/>
<text text-anchor="start" x="58.6105" y="-200.8" font-family="Helvetica,sans-Serif" font-size="11.00" fill="#000000">0 rows</text>
<polygon fill="#ffffff" stroke="transparent" points="94,-194.7 94,-213.7 124,-213.7 124,-194.7 94,-194.7"/>
<polygon fill="none" stroke="#000000" points="94,-194.7 94,-213.7 124,-213.7 124,-194.7 94,-194.7"/>
<text text-anchor="start" x="105.4053" y="-200.8" font-family="Helvetica,sans-Serif" font-size="11.00" fill="#000000">5 &gt;</text>
</a>
</g>
</g>
<!-- event_reminders&#45;&gt;users -->
<g id="edge4" class="edge">
<title>event_reminders:w&#45;&gt;users:e</title>
<path fill="none" stroke="#000000" d="M395.8741,-239.365C375.5236,-253.6746 401.0176,-306.0083 369,-326.7 292.8513,-375.912 249.1921,-360.3471 165,-326.7 141.6465,-317.3669 149.1494,-287.7 124,-287.7"/>
<polygon fill="#000000" stroke="#000000" points="402.2564,-237.7091 410.9041,-239.1846 406.1282,-236.7046 410,-235.7 410,-235.7 410,-235.7 406.1282,-236.7046 409.0959,-232.2154 402.2564,-237.7091 402.2564,-237.7091"/>
<ellipse fill="none" stroke="#000000" cx="399.1589" cy="-238.5128" rx="3.2" ry="3.2"/>
</g>
<!-- rsvps&#45;&gt;events -->
<g id="edge5" class="edge">
<title>rsvps:w&#45;&gt;events:e</title>
<path fill="none" stroke="#000000" d="M160.8958,-209.6967C137.5202,-193.1172 156.8067,-130.7 118,-130.7"/>
<polygon fill="#000000" stroke="#000000" points="167.304,-211.5156 174.017,-217.1632 171.152,-212.6078 175,-213.7 175,-213.7 175,-213.7 171.152,-212.6078 175.983,-210.2368 167.304,-211.5156 167.304,-211.5156"/>
<ellipse fill="none" stroke="#000000" cx="164.2256" cy="-210.6418" rx="3.2" ry="3.2"/>
</g>
<!-- rsvps&#45;&gt;users -->
<g id="edge6" class="edge">
<title>rsvps:w&#45;&gt;users:e</title>
<path fill="none" stroke="#000000" d="M161.0468,-240.4988C146.161,-253.3719 150.3017,-287.7 124,-287.7"/>
<polygon fill="#000000" stroke="#000000" points="167.4349,-238.3018 176.1708,-239.1043 171.2175,-237.0009 175,-235.7 175,-235.7 175,-235.7 171.2175,-237.0009 173.8292,-232.2957 167.4349,-238.3018 167.4349,-238.3018"/>
<ellipse fill="none" stroke="#000000" cx="164.4089" cy="-239.3426" rx="3.2" ry="3.2"/>
</g>
</g>
</svg>
