<?xml version="1.0" encoding="UTF-8" standalone="no"?>
<!DOCTYPE svg PUBLIC "-//W3C//DTD SVG 1.1//EN"
 "http://www.w3.org/Graphics/SVG/1.1/DTD/svg11.dtd">
<!-- Generated by graphviz version 2.40.1 (20161225.0304)
 -->
<!-- Title: twoDegreesRelationshipsDiagram Pages: 1 -->
<svg width="743pt" height="617pt"
 viewBox="0.00 0.00 743.00 616.70" xmlns="http://www.w3.org/2000/svg" xmlns:xlink="http://www.w3.org/1999/xlink">
<g id="graph0" class="graph" transform="scale(1 1) rotate(0) translate(4 612.7)">
<title>twoDegreesRelationshipsDiagram</title>
<polygon fill="#ffffff" stroke="transparent" points="-4,4 -4,-612.7 739,-612.7 739,4 -4,4"/>
<text text-anchor="middle" x="72.4936" y="-7.3" font-family="Helvetica,sans-Serif" font-size="11.00" fill="#000000">Generated by SchemaSpy</text>
<!-- chapters -->
<g id="node1" class="node">
<title>chapters</title>
<g id="a_node1"><a xlink:href="../../tables/chapters.html" xlink:title="chapters" target="_top">
<polygon fill="#ffffff" stroke="transparent" points="182,-293.7 182,-354.7 267,-354.7 267,-293.7 182,-293.7"/>
<polygon fill="#f5f5f5" stroke="transparent" points="182.5,-331.2 182.5,-354.2 267.5,-354.2 267.5,-331.2 182.5,-331.2"/>
<polygon fill="none" stroke="#000000" points="182.5,-331.2 182.5,-354.2 267.5,-354.2 267.5,-331.2 182.5,-331.2"/>
<text text-anchor="start" x="187.4108" y="-340.3" font-family="Helvetica,sans-Serif" font-weight="bold" font-size="11.00" fill="#000000">chapters</text>
<text text-anchor="start" x="233.0219" y="-339.3" font-family="Helvetica,sans-Serif" font-size="11.00" fill="#000000">[table]</text>
<polygon fill="none" stroke="#000000" points="182.5,-312.2 182.5,-331.2 267.5,-331.2 267.5,-312.2 182.5,-312.2"/>
<text text-anchor="start" x="185.5" y="-318.3" font-family="Helvetica,sans-Serif" font-size="11.00" fill="#000000">...</text>
<polygon fill="#ffffff" stroke="transparent" points="182.5,-293.2 182.5,-312.2 205.5,-312.2 205.5,-293.2 182.5,-293.2"/>
<polygon fill="none" stroke="#000000" points="182.5,-293.2 182.5,-312.2 205.5,-312.2 205.5,-293.2 182.5,-293.2"/>
<text text-anchor="start" x="185.5" y="-299.3" font-family="Helvetica,sans-Serif" font-size="11.00" fill="#000000">&lt; 1</text>
<polygon fill="#ffffff" stroke="transparent" points="205.5,-293.2 205.5,-312.2 244.5,-312.2 244.5,-293.2 205.5,-293.2"/>
<polygon fill="none" stroke="#000000" points="205.5,-293.2 205.5,-312.2 244.5,-312.2 244.5,-293.2 205.5,-293.2"/>
<text text-anchor="start" x="209.1105" y="-299.3" font-family="Helvetica,sans-Serif" font-size="11.00" fill="#000000">4 rows</text>
<polygon fill="#ffffff" stroke="transparent" points="244.5,-293.2 244.5,-312.2 267.5,-312.2 267.5,-293.2 244.5,-293.2"/>
<polygon fill="none" stroke="#000000" points="244.5,-293.2 244.5,-312.2 267.5,-312.2 267.5,-293.2 244.5,-293.2"/>
<text text-anchor="start" x="248.9053" y="-299.3" font-family="Helvetica,sans-Serif" font-size="11.00" fill="#000000">3 &gt;</text>
</a>
</g>
</g>
<!-- users -->
<g id="node2" class="node">
<title>users</title>
<g id="a_node2"><a xlink:href="../../tables/users.html" xlink:title="users" target="_top">
<polygon fill="#ffffff" stroke="transparent" points="8,-320.7 8,-425.7 105,-425.7 105,-320.7 8,-320.7"/>
<polygon fill="#f5f5f5" stroke="transparent" points="8.5,-402.2 8.5,-425.2 105.5,-425.2 105.5,-402.2 8.5,-402.2"/>
<polygon fill="none" stroke="#000000" points="8.5,-402.2 8.5,-425.2 105.5,-425.2 105.5,-402.2 8.5,-402.2"/>
<text text-anchor="start" x="13.5" y="-411.3" font-family="Helvetica,sans-Serif" font-weight="bold" font-size="11.00" fill="#000000">users</text>
<text text-anchor="start" x="70.5437" y="-410.3" font-family="Helvetica,sans-Serif" font-size="11.00" fill="#000000">[table]</text>
<polygon fill="none" stroke="#000000" points="8.5,-380.2 8.5,-402.2 105.5,-402.2 105.5,-380.2 8.5,-380.2"/>
<image xlink:href="../../images/primaryKeys.png" width="11px" height="12px" preserveAspectRatio="xMinYMin meet" x="13.5" y="-397.2"/>
<text text-anchor="start" x="28.5" y="-387.3" font-family="Helvetica,sans-Serif" font-size="11.00" fill="#000000">id</text>
<polygon fill="#ffffff" stroke="transparent" points="8.5,-358.2 8.5,-380.2 105.5,-380.2 105.5,-358.2 8.5,-358.2"/>
<polygon fill="none" stroke="#000000" points="8.5,-358.2 8.5,-380.2 105.5,-380.2 105.5,-358.2 8.5,-358.2"/>
<text text-anchor="start" x="28.5" y="-365.3" font-family="Helvetica,sans-Serif" font-size="11.00" fill="#000000">email</text>
<polygon fill="none" stroke="#000000" points="8.5,-339.2 8.5,-358.2 105.5,-358.2 105.5,-339.2 8.5,-339.2"/>
<text text-anchor="start" x="11.5" y="-345.3" font-family="Helvetica,sans-Serif" font-size="11.00" fill="#000000">...</text>
<polygon fill="#ffffff" stroke="transparent" points="8.5,-320.2 8.5,-339.2 30.5,-339.2 30.5,-320.2 8.5,-320.2"/>
<polygon fill="none" stroke="#000000" points="8.5,-320.2 8.5,-339.2 30.5,-339.2 30.5,-320.2 8.5,-320.2"/>
<text text-anchor="start" x="11.5" y="-326.3" font-family="Helvetica,sans-Serif" font-size="11.00" fill="#000000"> &#160;</text>
<polygon fill="#ffffff" stroke="transparent" points="30.5,-320.2 30.5,-339.2 79.5,-339.2 79.5,-320.2 30.5,-320.2"/>
<polygon fill="none" stroke="#000000" points="30.5,-320.2 30.5,-339.2 79.5,-339.2 79.5,-320.2 30.5,-320.2"/>
<text text-anchor="start" x="37.9956" y="-326.3" font-family="Helvetica,sans-Serif" font-size="11.00" fill="#000000">11 rows</text>
<polygon fill="#ffffff" stroke="transparent" points="79.5,-320.2 79.5,-339.2 105.5,-339.2 105.5,-320.2 79.5,-320.2"/>
<polygon fill="none" stroke="#000000" points="79.5,-320.2 79.5,-339.2 105.5,-339.2 105.5,-320.2 79.5,-320.2"/>
<text text-anchor="start" x="86.9053" y="-326.3" font-family="Helvetica,sans-Serif" font-size="11.00" fill="#000000">6 &gt;</text>
</a>
</g>
</g>
<!-- chapters&#45;&gt;users -->
<g id="edge1" class="edge">
<title>chapters:w&#45;&gt;users:e</title>
<path fill="none" stroke="#000000" d="M168.1954,-324.0308C139.0984,-337.1267 146.1494,-391.2 105.5,-391.2"/>
<polygon fill="#000000" stroke="#000000" points="174.6522,-322.7531 183.1989,-324.7315 178.5761,-321.9765 182.5,-321.2 182.5,-321.2 182.5,-321.2 178.5761,-321.9765 181.8011,-317.6685 174.6522,-322.7531 174.6522,-322.7531"/>
<ellipse fill="none" stroke="#000000" cx="171.5131" cy="-323.3743" rx="3.2" ry="3.2"/>
</g>
<!-- event_sponsors -->
<g id="node3" class="node">
<title>event_sponsors</title>
<g id="a_node3"><a xlink:href="../../tables/event_sponsors.html" xlink:title="event_sponsors" target="_top">
<polygon fill="#ffffff" stroke="transparent" points="568.5,-326.7 568.5,-387.7 688.5,-387.7 688.5,-326.7 568.5,-326.7"/>
<polygon fill="#f5f5f5" stroke="transparent" points="568.5,-364.2 568.5,-387.2 688.5,-387.2 688.5,-364.2 568.5,-364.2"/>
<polygon fill="none" stroke="#000000" points="568.5,-364.2 568.5,-387.2 688.5,-387.2 688.5,-364.2 568.5,-364.2"/>
<text text-anchor="start" x="573.181" y="-373.3" font-family="Helvetica,sans-Serif" font-weight="bold" font-size="11.00" fill="#000000">event_sponsors</text>
<text text-anchor="start" x="654.0219" y="-372.3" font-family="Helvetica,sans-Serif" font-size="11.00" fill="#000000">[table]</text>
<polygon fill="none" stroke="#000000" points="568.5,-345.2 568.5,-364.2 688.5,-364.2 688.5,-345.2 568.5,-345.2"/>
<text text-anchor="start" x="571.5" y="-351.3" font-family="Helvetica,sans-Serif" font-size="11.00" fill="#000000">...</text>
<polygon fill="#ffffff" stroke="transparent" points="568.5,-326.2 568.5,-345.2 613.5,-345.2 613.5,-326.2 568.5,-326.2"/>
<polygon fill="none" stroke="#000000" points="568.5,-326.2 568.5,-345.2 613.5,-345.2 613.5,-326.2 568.5,-326.2"/>
<text text-anchor="start" x="571.5" y="-332.3" font-family="Helvetica,sans-Serif" font-size="11.00" fill="#000000">&lt; 2</text>
<polygon fill="#ffffff" stroke="transparent" points="613.5,-326.2 613.5,-345.2 663.5,-345.2 663.5,-326.2 613.5,-326.2"/>
<polygon fill="none" stroke="#000000" points="613.5,-326.2 613.5,-345.2 663.5,-345.2 663.5,-326.2 613.5,-326.2"/>
<text text-anchor="start" x="628.1105" y="-332.3" font-family="Helvetica,sans-Serif" font-size="11.00" fill="#000000">8 rows</text>
<polygon fill="#ffffff" stroke="transparent" points="663.5,-326.2 663.5,-345.2 688.5,-345.2 688.5,-326.2 663.5,-326.2"/>
<polygon fill="none" stroke="#000000" points="663.5,-326.2 663.5,-345.2 688.5,-345.2 688.5,-326.2 663.5,-326.2"/>
<text text-anchor="start" x="679.3862" y="-332.3" font-family="Helvetica,sans-Serif" font-size="11.00" fill="#000000"> &#160;</text>
</a>
</g>
</g>
<!-- events -->
<g id="node4" class="node">
<title>events</title>
<g id="a_node4"><a xlink:href="../../tables/events.html" xlink:title="events" target="_top">
<polygon fill="#ffffff" stroke="transparent" points="363.5,-285.7 363.5,-412.7 461.5,-412.7 461.5,-285.7 363.5,-285.7"/>
<polygon fill="#f5f5f5" stroke="transparent" points="363.5,-389.2 363.5,-412.2 461.5,-412.2 461.5,-389.2 363.5,-389.2"/>
<polygon fill="none" stroke="#000000" points="363.5,-389.2 363.5,-412.2 461.5,-412.2 461.5,-389.2 363.5,-389.2"/>
<text text-anchor="start" x="368.5" y="-398.3" font-family="Helvetica,sans-Serif" font-weight="bold" font-size="11.00" fill="#000000">events</text>
<text text-anchor="start" x="426.5437" y="-397.3" font-family="Helvetica,sans-Serif" font-size="11.00" fill="#000000">[table]</text>
<polygon fill="none" stroke="#000000" points="363.5,-367.2 363.5,-389.2 461.5,-389.2 461.5,-367.2 363.5,-367.2"/>
<image xlink:href="../../images/primaryKeys.png" width="11px" height="12px" preserveAspectRatio="xMinYMin meet" x="368.5" y="-384.2"/>
<text text-anchor="start" x="383.5" y="-374.3" font-family="Helvetica,sans-Serif" font-size="11.00" fill="#000000">id</text>
<polygon fill="none" stroke="#000000" points="363.5,-345.2 363.5,-367.2 461.5,-367.2 461.5,-345.2 363.5,-345.2"/>
<image xlink:href="../../images/foreignKeys.png" width="11px" height="12px" preserveAspectRatio="xMinYMin meet" x="368.5" y="-362.2"/>
<text text-anchor="start" x="383.5" y="-352.3" font-family="Helvetica,sans-Serif" font-size="11.00" fill="#000000">venue_id</text>
<polygon fill="none" stroke="#000000" points="363.5,-323.2 363.5,-345.2 461.5,-345.2 461.5,-323.2 363.5,-323.2"/>
<image xlink:href="../../images/foreignKeys.png" width="11px" height="12px" preserveAspectRatio="xMinYMin meet" x="368.5" y="-340.2"/>
<text text-anchor="start" x="383.5" y="-330.3" font-family="Helvetica,sans-Serif" font-size="11.00" fill="#000000">chapter_id</text>
<polygon fill="none" stroke="#000000" points="363.5,-304.2 363.5,-323.2 461.5,-323.2 461.5,-304.2 363.5,-304.2"/>
<text text-anchor="start" x="366.5" y="-310.3" font-family="Helvetica,sans-Serif" font-size="11.00" fill="#000000">...</text>
<polygon fill="#ffffff" stroke="transparent" points="363.5,-285.2 363.5,-304.2 393.5,-304.2 393.5,-285.2 363.5,-285.2"/>
<polygon fill="none" stroke="#000000" points="363.5,-285.2 363.5,-304.2 393.5,-304.2 393.5,-285.2 363.5,-285.2"/>
<text text-anchor="start" x="366.5" y="-291.3" font-family="Helvetica,sans-Serif" font-size="11.00" fill="#000000">&lt; 2</text>
<polygon fill="#ffffff" stroke="transparent" points="393.5,-285.2 393.5,-304.2 435.5,-304.2 435.5,-285.2 393.5,-285.2"/>
<polygon fill="none" stroke="#000000" points="393.5,-285.2 393.5,-304.2 435.5,-304.2 435.5,-285.2 393.5,-285.2"/>
<text text-anchor="start" x="400.1105" y="-291.3" font-family="Helvetica,sans-Serif" font-size="11.00" fill="#000000">4 rows</text>
<polygon fill="#ffffff" stroke="transparent" points="435.5,-285.2 435.5,-304.2 461.5,-304.2 461.5,-285.2 435.5,-285.2"/>
<polygon fill="none" stroke="#000000" points="435.5,-285.2 435.5,-304.2 461.5,-304.2 461.5,-285.2 435.5,-285.2"/>
<text text-anchor="start" x="442.9053" y="-291.3" font-family="Helvetica,sans-Serif" font-size="11.00" fill="#000000">4 &gt;</text>
</a>
</g>
</g>
<!-- event_sponsors&#45;&gt;events -->
<g id="edge2" class="edge">
<title>event_sponsors:w&#45;&gt;events:e</title>
<path fill="none" stroke="#000000" d="M553.8128,-354.9985C517.21,-359.1629 504.9065,-378.2 461.5,-378.2"/>
<polygon fill="#000000" stroke="#000000" points="560.5118,-354.6344 568.6955,-357.7947 564.5059,-354.4172 568.5,-354.2 568.5,-354.2 568.5,-354.2 564.5059,-354.4172 568.3045,-350.6053 560.5118,-354.6344 560.5118,-354.6344"/>
<ellipse fill="none" stroke="#000000" cx="557.3165" cy="-354.8081" rx="3.2" ry="3.2"/>
</g>
<!-- events&#45;&gt;chapters -->
<g id="edge3" class="edge">
<title>events:w&#45;&gt;chapters:e</title>
<path fill="none" stroke="#000000" d="M348.7792,-333.6414C317.4537,-331.1531 305.1741,-321.2 267.5,-321.2"/>
<polygon fill="#000000" stroke="#000000" points="355.5058,-333.8966 363.3635,-337.7974 359.5029,-334.0483 363.5,-334.2 363.5,-334.2 363.5,-334.2 359.5029,-334.0483 363.6365,-330.6026 355.5058,-333.8966 355.5058,-333.8966"/>
<ellipse fill="none" stroke="#000000" cx="352.3081" cy="-333.7752" rx="3.2" ry="3.2"/>
</g>
<!-- venues -->
<g id="node5" class="node">
<title>venues</title>
<g id="a_node5"><a xlink:href="../../tables/venues.html" xlink:title="venues" target="_top">
<polygon fill="#ffffff" stroke="transparent" points="185.5,-375.7 185.5,-436.7 263.5,-436.7 263.5,-375.7 185.5,-375.7"/>
<polygon fill="#f5f5f5" stroke="transparent" points="185.5,-413.2 185.5,-436.2 263.5,-436.2 263.5,-413.2 185.5,-413.2"/>
<polygon fill="none" stroke="#000000" points="185.5,-413.2 185.5,-436.2 263.5,-436.2 263.5,-413.2 185.5,-413.2"/>
<text text-anchor="start" x="190.2702" y="-422.3" font-family="Helvetica,sans-Serif" font-weight="bold" font-size="11.00" fill="#000000">venues</text>
<text text-anchor="start" x="229.0219" y="-421.3" font-family="Helvetica,sans-Serif" font-size="11.00" fill="#000000">[table]</text>
<polygon fill="none" stroke="#000000" points="185.5,-394.2 185.5,-413.2 263.5,-413.2 263.5,-394.2 185.5,-394.2"/>
<text text-anchor="start" x="188.5" y="-400.3" font-family="Helvetica,sans-Serif" font-size="11.00" fill="#000000">...</text>
<polygon fill="#ffffff" stroke="transparent" points="185.5,-375.2 185.5,-394.2 200.5,-394.2 200.5,-375.2 185.5,-375.2"/>
<polygon fill="none" stroke="#000000" points="185.5,-375.2 185.5,-394.2 200.5,-394.2 200.5,-375.2 185.5,-375.2"/>
<text text-anchor="start" x="188.5" y="-381.3" font-family="Helvetica,sans-Serif" font-size="11.00" fill="#000000"> &#160;</text>
<polygon fill="#ffffff" stroke="transparent" points="200.5,-375.2 200.5,-394.2 240.5,-394.2 240.5,-375.2 200.5,-375.2"/>
<polygon fill="none" stroke="#000000" points="200.5,-375.2 200.5,-394.2 240.5,-394.2 240.5,-375.2 200.5,-375.2"/>
<text text-anchor="start" x="205.1105" y="-381.3" font-family="Helvetica,sans-Serif" font-size="11.00" fill="#000000">4 rows</text>
<polygon fill="#ffffff" stroke="transparent" points="240.5,-375.2 240.5,-394.2 263.5,-394.2 263.5,-375.2 240.5,-375.2"/>
<polygon fill="none" stroke="#000000" points="240.5,-375.2 240.5,-394.2 263.5,-394.2 263.5,-375.2 240.5,-375.2"/>
<text text-anchor="start" x="244.9053" y="-381.3" font-family="Helvetica,sans-Serif" font-size="11.00" fill="#000000">1 &gt;</text>
</a>
</g>
</g>
<!-- events&#45;&gt;venues -->
<g id="edge4" class="edge">
<title>events:w&#45;&gt;venues:e</title>
<path fill="none" stroke="#000000" d="M348.9609,-357.7638C313.4353,-365.919 307.2373,-403.2 263.5,-403.2"/>
<polygon fill="#000000" stroke="#000000" points="355.5459,-357.0556 363.885,-359.7794 359.5229,-356.6278 363.5,-356.2 363.5,-356.2 363.5,-356.2 359.5229,-356.6278 363.115,-352.6206 355.5459,-357.0556 355.5459,-357.0556"/>
<ellipse fill="none" stroke="#000000" cx="352.3642" cy="-357.3978" rx="3.2" ry="3.2"/>
</g>
<!-- rsvps -->
<g id="node6" class="node">
<title>rsvps</title>
<g id="a_node6"><a xlink:href="../../tables/rsvps.html" xlink:title="rsvps" target="_top">
<polygon fill="#ffffff" stroke="transparent" points="530,-38.2 530,-304.2 727,-304.2 727,-38.2 530,-38.2"/>
<polygon fill="#f5f5f5" stroke="transparent" points="532.5,-279.2 532.5,-302.2 725.5,-302.2 725.5,-279.2 532.5,-279.2"/>
<polygon fill="none" stroke="#000000" points="532.5,-279.2 532.5,-302.2 725.5,-302.2 725.5,-279.2 532.5,-279.2"/>
<text text-anchor="start" x="537.5" y="-288.3" font-family="Helvetica,sans-Serif" font-weight="bold" font-size="11.00" fill="#000000">rsvps</text>
<text text-anchor="start" x="690.5437" y="-287.3" font-family="Helvetica,sans-Serif" font-size="11.00" fill="#000000">[table]</text>
<polygon fill="none" stroke="#000000" points="532.5,-257.2 532.5,-279.2 641.5,-279.2 641.5,-257.2 532.5,-257.2"/>
<image xlink:href="../../images/primaryKeys.png" width="11px" height="12px" preserveAspectRatio="xMinYMin meet" x="537.5" y="-274.2"/>
<text text-anchor="start" x="552.5" y="-264.3" font-family="Helvetica,sans-Serif" font-size="11.00" fill="#000000">id</text>
<polygon fill="none" stroke="#000000" points="641.5,-257.2 641.5,-279.2 725.5,-279.2 725.5,-257.2 641.5,-257.2"/>
<text text-anchor="start" x="644.5" y="-264.9" font-family="Helvetica,sans-Serif" font-size="11.00" fill="#000000">serial[10]</text>
<polygon fill="none" stroke="#000000" points="532.5,-235.2 532.5,-257.2 641.5,-257.2 641.5,-235.2 532.5,-235.2"/>
<text text-anchor="start" x="552.5" y="-242.3" font-family="Helvetica,sans-Serif" font-size="11.00" fill="#000000">date</text>
<polygon fill="none" stroke="#000000" points="641.5,-235.2 641.5,-257.2 725.5,-257.2 725.5,-235.2 641.5,-235.2"/>
<text text-anchor="start" x="644.3807" y="-242.9" font-family="Helvetica,sans-Serif" font-size="11.00" fill="#000000">timestamp[29,6]</text>
<polygon fill="none" stroke="#000000" points="532.5,-213.2 532.5,-235.2 641.5,-235.2 641.5,-213.2 532.5,-213.2"/>
<text text-anchor="start" x="552.5" y="-220.3" font-family="Helvetica,sans-Serif" font-size="11.00" fill="#000000">on_waitlist</text>
<polygon fill="none" stroke="#000000" points="641.5,-213.2 641.5,-235.2 725.5,-235.2 725.5,-213.2 641.5,-213.2"/>
<text text-anchor="start" x="644.5" y="-220.9" font-family="Helvetica,sans-Serif" font-size="11.00" fill="#000000">bool[1]</text>
<polygon fill="none" stroke="#000000" points="532.5,-191.2 532.5,-213.2 641.5,-213.2 641.5,-191.2 532.5,-191.2"/>
<image xlink:href="../../images/foreignKeys.png" width="11px" height="12px" preserveAspectRatio="xMinYMin meet" x="537.5" y="-208.2"/>
<text text-anchor="start" x="552.5" y="-198.3" font-family="Helvetica,sans-Serif" font-size="11.00" fill="#000000">event_id</text>
<polygon fill="none" stroke="#000000" points="641.5,-191.2 641.5,-213.2 725.5,-213.2 725.5,-191.2 641.5,-191.2"/>
<text text-anchor="start" x="644.5" y="-198.9" font-family="Helvetica,sans-Serif" font-size="11.00" fill="#000000">int4[10]</text>
<polygon fill="none" stroke="#000000" points="532.5,-169.2 532.5,-191.2 641.5,-191.2 641.5,-169.2 532.5,-169.2"/>
<image xlink:href="../../images/foreignKeys.png" width="11px" height="12px" preserveAspectRatio="xMinYMin meet" x="537.5" y="-186.2"/>
<text text-anchor="start" x="552.5" y="-176.3" font-family="Helvetica,sans-Serif" font-size="11.00" fill="#000000">user_id</text>
<polygon fill="none" stroke="#000000" points="641.5,-169.2 641.5,-191.2 725.5,-191.2 725.5,-169.2 641.5,-169.2"/>
<text text-anchor="start" x="644.5" y="-176.9" font-family="Helvetica,sans-Serif" font-size="11.00" fill="#000000">int4[10]</text>
<polygon fill="none" stroke="#000000" points="532.5,-147.2 532.5,-169.2 641.5,-169.2 641.5,-147.2 532.5,-147.2"/>
<text text-anchor="start" x="552.5" y="-154.3" font-family="Helvetica,sans-Serif" font-size="11.00" fill="#000000">created_at</text>
<polygon fill="none" stroke="#000000" points="641.5,-147.2 641.5,-169.2 725.5,-169.2 725.5,-147.2 641.5,-147.2"/>
<text text-anchor="start" x="644.3807" y="-154.9" font-family="Helvetica,sans-Serif" font-size="11.00" fill="#000000">timestamp[29,6]</text>
<polygon fill="none" stroke="#000000" points="532.5,-125.2 532.5,-147.2 641.5,-147.2 641.5,-125.2 532.5,-125.2"/>
<text text-anchor="start" x="552.5" y="-132.3" font-family="Helvetica,sans-Serif" font-size="11.00" fill="#000000">updated_at</text>
<polygon fill="none" stroke="#000000" points="641.5,-125.2 641.5,-147.2 725.5,-147.2 725.5,-125.2 641.5,-125.2"/>
<text text-anchor="start" x="644.3807" y="-132.9" font-family="Helvetica,sans-Serif" font-size="11.00" fill="#000000">timestamp[29,6]</text>
<polygon fill="none" stroke="#000000" points="532.5,-103.2 532.5,-125.2 641.5,-125.2 641.5,-103.2 532.5,-103.2"/>
<text text-anchor="start" x="552.5" y="-110.3" font-family="Helvetica,sans-Serif" font-size="11.00" fill="#000000">interested</text>
<polygon fill="none" stroke="#000000" points="641.5,-103.2 641.5,-125.2 725.5,-125.2 725.5,-103.2 641.5,-103.2"/>
<text text-anchor="start" x="644.5" y="-110.9" font-family="Helvetica,sans-Serif" font-size="11.00" fill="#000000">bool[1]</text>
<polygon fill="none" stroke="#000000" points="532.5,-81.2 532.5,-103.2 641.5,-103.2 641.5,-81.2 532.5,-81.2"/>
<text text-anchor="start" x="552.5" y="-88.3" font-family="Helvetica,sans-Serif" font-size="11.00" fill="#000000">canceled</text>
<polygon fill="none" stroke="#000000" points="641.5,-81.2 641.5,-103.2 725.5,-103.2 725.5,-81.2 641.5,-81.2"/>
<text text-anchor="start" x="644.5" y="-88.9" font-family="Helvetica,sans-Serif" font-size="11.00" fill="#000000">bool[1]</text>
<polygon fill="none" stroke="#000000" points="532.5,-59.2 532.5,-81.2 641.5,-81.2 641.5,-59.2 532.5,-59.2"/>
<text text-anchor="start" x="552.5" y="-66.3" font-family="Helvetica,sans-Serif" font-size="11.00" fill="#000000">confirmed_at</text>
<polygon fill="none" stroke="#000000" points="641.5,-59.2 641.5,-81.2 725.5,-81.2 725.5,-59.2 641.5,-59.2"/>
<text text-anchor="start" x="644.3807" y="-66.9" font-family="Helvetica,sans-Serif" font-size="11.00" fill="#000000">timestamp[29,6]</text>
<polygon fill="#ffffff" stroke="transparent" points="532.5,-40.2 532.5,-59.2 575.5,-59.2 575.5,-40.2 532.5,-40.2"/>
<polygon fill="none" stroke="#000000" points="532.5,-40.2 532.5,-59.2 575.5,-59.2 575.5,-40.2 532.5,-40.2"/>
<text text-anchor="start" x="535.5" y="-46.3" font-family="Helvetica,sans-Serif" font-size="11.00" fill="#000000">&lt; 2</text>
<polygon fill="#ffffff" stroke="transparent" points="575.5,-40.2 575.5,-59.2 641.5,-59.2 641.5,-40.2 575.5,-40.2"/>
<polygon fill="none" stroke="#000000" points="575.5,-40.2 575.5,-59.2 641.5,-59.2 641.5,-40.2 575.5,-40.2"/>
<text text-anchor="start" x="599.9956" y="-46.3" font-family="Helvetica,sans-Serif" font-size="11.00" fill="#000000">20 rows</text>
<polygon fill="#ffffff" stroke="transparent" points="641.5,-40.2 641.5,-59.2 725.5,-59.2 725.5,-40.2 641.5,-40.2"/>
<polygon fill="none" stroke="#000000" points="641.5,-40.2 641.5,-59.2 725.5,-59.2 725.5,-40.2 641.5,-40.2"/>
<text text-anchor="start" x="706.9053" y="-46.3" font-family="Helvetica,sans-Serif" font-size="11.00" fill="#000000">0 &gt;</text>
<polygon fill="none" stroke="#000000" stroke-width="2" points="531,-39.2 531,-303.2 726,-303.2 726,-39.2 531,-39.2"/>
</a>
</g>
</g>
<!-- rsvps&#45;&gt;users -->
<g id="edge6" class="edge">
<title>rsvps:w&#45;&gt;users:e</title>
<path fill="none" stroke="#000000" d="M517.9971,-180.0361C354.4264,-176.3537 268.5247,-112.9726 146,-228.2 91.622,-279.3394 180.1472,-391.2 105.5,-391.2"/>
<polygon fill="#000000" stroke="#000000" points="524.5005,-180.1095 532.4593,-183.7998 528.5003,-180.1548 532.5,-180.2 532.5,-180.2 532.5,-180.2 528.5003,-180.1548 532.5407,-176.6002 524.5005,-180.1095 524.5005,-180.1095"/>
<ellipse fill="none" stroke="#000000" cx="521.3007" cy="-180.0733" rx="3.2" ry="3.2"/>
</g>
<!-- rsvps&#45;&gt;events -->
<g id="edge5" class="edge">
<title>rsvps:w&#45;&gt;events:e</title>
<path fill="none" stroke="#000000" d="M517.9981,-204.4253C460.325,-224.7989 540.2461,-378.2 461.5,-378.2"/>
<polygon fill="#000000" stroke="#000000" points="524.5926,-203.4134 533.046,-205.7584 528.5463,-202.8067 532.5,-202.2 532.5,-202.2 532.5,-202.2 528.5463,-202.8067 531.954,-198.6416 524.5926,-203.4134 524.5926,-203.4134"/>
<ellipse fill="none" stroke="#000000" cx="521.4296" cy="-203.8988" rx="3.2" ry="3.2"/>
</g>
<!-- tags -->
<g id="node7" class="node">
<title>tags</title>
<g id="a_node7"><a xlink:href="../../tables/tags.html" xlink:title="tags" target="_top">
<polygon fill="#ffffff" stroke="transparent" points="593,-408.7 593,-469.7 664,-469.7 664,-408.7 593,-408.7"/>
<polygon fill="#f5f5f5" stroke="transparent" points="593.5,-446.2 593.5,-469.2 664.5,-469.2 664.5,-446.2 593.5,-446.2"/>
<polygon fill="none" stroke="#000000" points="593.5,-446.2 593.5,-469.2 664.5,-469.2 664.5,-446.2 593.5,-446.2"/>
<text text-anchor="start" x="598.5" y="-455.3" font-family="Helvetica,sans-Serif" font-weight="bold" font-size="11.00" fill="#000000">tags</text>
<text text-anchor="start" x="629.5437" y="-454.3" font-family="Helvetica,sans-Serif" font-size="11.00" fill="#000000">[table]</text>
<polygon fill="none" stroke="#000000" points="593.5,-427.2 593.5,-446.2 664.5,-446.2 664.5,-427.2 593.5,-427.2"/>
<text text-anchor="start" x="596.5" y="-433.3" font-family="Helvetica,sans-Serif" font-size="11.00" fill="#000000">...</text>
<polygon fill="#ffffff" stroke="transparent" points="593.5,-408.2 593.5,-427.2 614.5,-427.2 614.5,-408.2 593.5,-408.2"/>
<polygon fill="none" stroke="#000000" points="593.5,-408.2 593.5,-427.2 614.5,-427.2 614.5,-408.2 593.5,-408.2"/>
<text text-anchor="start" x="596.2026" y="-414.3" font-family="Helvetica,sans-Serif" font-size="11.00" fill="#000000">&lt; 1</text>
<polygon fill="#ffffff" stroke="transparent" points="614.5,-408.2 614.5,-427.2 652.5,-427.2 652.5,-408.2 614.5,-408.2"/>
<polygon fill="none" stroke="#000000" points="614.5,-408.2 614.5,-427.2 652.5,-427.2 652.5,-408.2 614.5,-408.2"/>
<text text-anchor="start" x="617.3053" y="-414.3" font-family="Helvetica,sans-Serif" font-size="11.00" fill="#000000">9 rows</text>
<polygon fill="#ffffff" stroke="transparent" points="652.5,-408.2 652.5,-427.2 664.5,-427.2 664.5,-408.2 652.5,-408.2"/>
<polygon fill="none" stroke="#000000" points="652.5,-408.2 652.5,-427.2 664.5,-427.2 664.5,-408.2 652.5,-408.2"/>
<text text-anchor="start" x="655.4431" y="-414.3" font-family="Helvetica,sans-Serif" font-size="11.00" fill="#000000"> &#160;</text>
</a>
</g>
</g>
<!-- tags&#45;&gt;events -->
<g id="edge7" class="edge">
<title>tags:w&#45;&gt;events:e</title>
<path fill="none" stroke="#000000" d="M578.8799,-435.0932C528.3845,-427.0747 520.3236,-378.2 461.5,-378.2"/>
<polygon fill="#000000" stroke="#000000" points="585.5228,-435.596 593.2282,-439.7897 589.5114,-435.898 593.5,-436.2 593.5,-436.2 593.5,-436.2 589.5114,-435.898 593.7718,-432.6103 585.5228,-435.596 585.5228,-435.596"/>
<ellipse fill="none" stroke="#000000" cx="582.332" cy="-435.3544" rx="3.2" ry="3.2"/>
</g>
<!-- user_bans -->
<g id="node8" class="node">
<title>user_bans</title>
<g id="a_node8"><a xlink:href="../../tables/user_bans.html" xlink:title="user_bans" target="_top">
<polygon fill="#ffffff" stroke="transparent" points="365.5,-433.7 365.5,-494.7 459.5,-494.7 459.5,-433.7 365.5,-433.7"/>
<polygon fill="#f5f5f5" stroke="transparent" points="365.5,-471.2 365.5,-494.2 459.5,-494.2 459.5,-471.2 365.5,-471.2"/>
<polygon fill="none" stroke="#000000" points="365.5,-471.2 365.5,-494.2 459.5,-494.2 459.5,-471.2 365.5,-471.2"/>
<text text-anchor="start" x="370.3244" y="-480.3" font-family="Helvetica,sans-Serif" font-weight="bold" font-size="11.00" fill="#000000">user_bans</text>
<text text-anchor="start" x="425.0219" y="-479.3" font-family="Helvetica,sans-Serif" font-size="11.00" fill="#000000">[table]</text>
<polygon fill="none" stroke="#000000" points="365.5,-452.2 365.5,-471.2 459.5,-471.2 459.5,-452.2 365.5,-452.2"/>
<text text-anchor="start" x="368.5" y="-458.3" font-family="Helvetica,sans-Serif" font-size="11.00" fill="#000000">...</text>
<polygon fill="#ffffff" stroke="transparent" points="365.5,-433.2 365.5,-452.2 397.5,-452.2 397.5,-433.2 365.5,-433.2"/>
<polygon fill="none" stroke="#000000" points="365.5,-433.2 365.5,-452.2 397.5,-452.2 397.5,-433.2 365.5,-433.2"/>
<text text-anchor="start" x="368.5" y="-439.3" font-family="Helvetica,sans-Serif" font-size="11.00" fill="#000000">&lt; 2</text>
<polygon fill="#ffffff" stroke="transparent" points="397.5,-433.2 397.5,-452.2 441.5,-452.2 441.5,-433.2 397.5,-433.2"/>
<polygon fill="none" stroke="#000000" points="397.5,-433.2 397.5,-452.2 441.5,-452.2 441.5,-433.2 397.5,-433.2"/>
<text text-anchor="start" x="406.1105" y="-439.3" font-family="Helvetica,sans-Serif" font-size="11.00" fill="#000000">4 rows</text>
<polygon fill="#ffffff" stroke="transparent" points="441.5,-433.2 441.5,-452.2 459.5,-452.2 459.5,-433.2 441.5,-433.2"/>
<polygon fill="none" stroke="#000000" points="441.5,-433.2 441.5,-452.2 459.5,-452.2 459.5,-433.2 441.5,-433.2"/>
<text text-anchor="start" x="450.3862" y="-439.3" font-family="Helvetica,sans-Serif" font-size="11.00" fill="#000000"> &#160;</text>
</a>
</g>
</g>
<!-- user_bans&#45;&gt;chapters -->
<g id="edge8" class="edge">
<title>user_bans:w&#45;&gt;chapters:e</title>
<path fill="none" stroke="#000000" d="M350.9703,-459.1123C296.6607,-441.6967 337.9632,-321.2 267.5,-321.2"/>
<polygon fill="#000000" stroke="#000000" points="357.5813,-460.0622 364.988,-464.7634 361.5407,-460.6311 365.5,-461.2 365.5,-461.2 365.5,-461.2 361.5407,-460.6311 366.012,-457.6366 357.5813,-460.0622 357.5813,-460.0622"/>
<ellipse fill="none" stroke="#000000" cx="354.4139" cy="-459.607" rx="3.2" ry="3.2"/>
</g>
<!-- user_bans&#45;&gt;users -->
<g id="edge9" class="edge">
<title>user_bans:w&#45;&gt;users:e</title>
<path fill="none" stroke="#000000" d="M351.0698,-461.4421C263.9467,-464.3668 227.2441,-492.0255 146,-447.2 119.1062,-432.3616 136.2157,-391.2 105.5,-391.2"/>
<polygon fill="#000000" stroke="#000000" points="357.5011,-461.3343 365.5604,-464.7995 361.5006,-461.2671 365.5,-461.2 365.5,-461.2 365.5,-461.2 361.5006,-461.2671 365.4396,-457.6005 357.5011,-461.3343 357.5011,-461.3343"/>
<ellipse fill="none" stroke="#000000" cx="354.3016" cy="-461.388" rx="3.2" ry="3.2"/>
</g>
<!-- user_chapter_roles -->
<g id="node9" class="node">
<title>user_chapter_roles</title>
<g id="a_node9"><a xlink:href="../../tables/user_chapter_roles.html" xlink:title="user_chapter_roles" target="_top">
<polygon fill="#ffffff" stroke="transparent" points="344,-203.7 344,-264.7 481,-264.7 481,-203.7 344,-203.7"/>
<polygon fill="#f5f5f5" stroke="transparent" points="344.5,-241.2 344.5,-264.2 481.5,-264.2 481.5,-241.2 344.5,-241.2"/>
<polygon fill="none" stroke="#000000" points="344.5,-241.2 344.5,-264.2 481.5,-264.2 481.5,-241.2 344.5,-241.2"/>
<text text-anchor="start" x="349.4338" y="-250.3" font-family="Helvetica,sans-Serif" font-weight="bold" font-size="11.00" fill="#000000">user_chapter_roles</text>
<text text-anchor="start" x="447.0219" y="-249.3" font-family="Helvetica,sans-Serif" font-size="11.00" fill="#000000">[table]</text>
<polygon fill="none" stroke="#000000" points="344.5,-222.2 344.5,-241.2 481.5,-241.2 481.5,-222.2 344.5,-222.2"/>
<text text-anchor="start" x="347.5" y="-228.3" font-family="Helvetica,sans-Serif" font-size="11.00" fill="#000000">...</text>
<polygon fill="#ffffff" stroke="transparent" points="344.5,-203.2 344.5,-222.2 395.5,-222.2 395.5,-203.2 344.5,-203.2"/>
<polygon fill="none" stroke="#000000" points="344.5,-203.2 344.5,-222.2 395.5,-222.2 395.5,-203.2 344.5,-203.2"/>
<text text-anchor="start" x="347.5" y="-209.3" font-family="Helvetica,sans-Serif" font-size="11.00" fill="#000000">&lt; 2</text>
<polygon fill="#ffffff" stroke="transparent" points="395.5,-203.2 395.5,-222.2 454.5,-222.2 454.5,-203.2 395.5,-203.2"/>
<polygon fill="none" stroke="#000000" points="395.5,-203.2 395.5,-222.2 454.5,-222.2 454.5,-203.2 395.5,-203.2"/>
<text text-anchor="start" x="412.9956" y="-209.3" font-family="Helvetica,sans-Serif" font-size="11.00" fill="#000000">40 rows</text>
<polygon fill="#ffffff" stroke="transparent" points="454.5,-203.2 454.5,-222.2 481.5,-222.2 481.5,-203.2 454.5,-203.2"/>
<polygon fill="none" stroke="#000000" points="454.5,-203.2 454.5,-222.2 481.5,-222.2 481.5,-203.2 454.5,-203.2"/>
<text text-anchor="start" x="472.3862" y="-209.3" font-family="Helvetica,sans-Serif" font-size="11.00" fill="#000000"> &#160;</text>
</a>
</g>
</g>
<!-- user_chapter_roles&#45;&gt;chapters -->
<g id="edge10" class="edge">
<title>user_chapter_roles:w&#45;&gt;chapters:e</title>
<path fill="none" stroke="#000000" d="M330.3545,-233.9922C296.9241,-249.1832 314.5897,-321.2 267.5,-321.2"/>
<polygon fill="#000000" stroke="#000000" points="336.6514,-232.7493 345.1972,-234.7319 340.5757,-231.9746 344.5,-231.2 344.5,-231.2 344.5,-231.2 340.5757,-231.9746 343.8028,-227.6681 336.6514,-232.7493 336.6514,-232.7493"/>
<ellipse fill="none" stroke="#000000" cx="333.512" cy="-233.369" rx="3.2" ry="3.2"/>
</g>
<!-- user_chapter_roles&#45;&gt;users -->
<g id="edge11" class="edge">
<title>user_chapter_roles:w&#45;&gt;users:e</title>
<path fill="none" stroke="#000000" d="M329.9876,-231.1313C248.8863,-230.4149 210.0055,-225.4441 146,-283.2 107.9404,-317.5434 156.764,-391.2 105.5,-391.2"/>
<polygon fill="#000000" stroke="#000000" points="336.5001,-231.1621 344.4829,-234.8 340.5,-231.1811 344.5,-231.2 344.5,-231.2 344.5,-231.2 340.5,-231.1811 344.5171,-227.6 336.5001,-231.1621 336.5001,-231.1621"/>
<ellipse fill="none" stroke="#000000" cx="333.3001" cy="-231.1469" rx="3.2" ry="3.2"/>
</g>
<!-- user_event_roles -->
<g id="node10" class="node">
<title>user_event_roles</title>
<g id="a_node10"><a xlink:href="../../tables/user_event_roles.html" xlink:title="user_event_roles" target="_top">
<polygon fill="#ffffff" stroke="transparent" points="565,-490.7 565,-551.7 692,-551.7 692,-490.7 565,-490.7"/>
<polygon fill="#f5f5f5" stroke="transparent" points="565.5,-528.2 565.5,-551.2 692.5,-551.2 692.5,-528.2 565.5,-528.2"/>
<polygon fill="none" stroke="#000000" points="565.5,-528.2 565.5,-551.2 692.5,-551.2 692.5,-528.2 565.5,-528.2"/>
<text text-anchor="start" x="570.3222" y="-537.3" font-family="Helvetica,sans-Serif" font-weight="bold" font-size="11.00" fill="#000000">user_event_roles</text>
<text text-anchor="start" x="658.0219" y="-536.3" font-family="Helvetica,sans-Serif" font-size="11.00" fill="#000000">[table]</text>
<polygon fill="none" stroke="#000000" points="565.5,-509.2 565.5,-528.2 692.5,-528.2 692.5,-509.2 565.5,-509.2"/>
<text text-anchor="start" x="568.5" y="-515.3" font-family="Helvetica,sans-Serif" font-size="11.00" fill="#000000">...</text>
<polygon fill="#ffffff" stroke="transparent" points="565.5,-490.2 565.5,-509.2 611.5,-509.2 611.5,-490.2 565.5,-490.2"/>
<polygon fill="none" stroke="#000000" points="565.5,-490.2 565.5,-509.2 611.5,-509.2 611.5,-490.2 565.5,-490.2"/>
<text text-anchor="start" x="568.5" y="-496.3" font-family="Helvetica,sans-Serif" font-size="11.00" fill="#000000">&lt; 2</text>
<polygon fill="#ffffff" stroke="transparent" points="611.5,-490.2 611.5,-509.2 667.5,-509.2 667.5,-490.2 611.5,-490.2"/>
<polygon fill="none" stroke="#000000" points="611.5,-490.2 611.5,-509.2 667.5,-509.2 667.5,-490.2 611.5,-490.2"/>
<text text-anchor="start" x="625.9956" y="-496.3" font-family="Helvetica,sans-Serif" font-size="11.00" fill="#000000">20 rows</text>
<polygon fill="#ffffff" stroke="transparent" points="667.5,-490.2 667.5,-509.2 692.5,-509.2 692.5,-490.2 667.5,-490.2"/>
<polygon fill="none" stroke="#000000" points="667.5,-490.2 667.5,-509.2 692.5,-509.2 692.5,-490.2 667.5,-490.2"/>
<text text-anchor="start" x="683.3862" y="-496.3" font-family="Helvetica,sans-Serif" font-size="11.00" fill="#000000"> &#160;</text>
</a>
</g>
</g>
<!-- user_event_roles&#45;&gt;users -->
<g id="edge13" class="edge">
<title>user_event_roles:w&#45;&gt;users:e</title>
<path fill="none" stroke="#000000" d="M550.9879,-518.2405C448.0866,-518.7273 217.7022,-522.5373 146,-469.2 114.6591,-445.8864 144.5612,-391.2 105.5,-391.2"/>
<polygon fill="#000000" stroke="#000000" points="557.5,-518.2224 565.5101,-521.8 561.5,-518.2112 565.5,-518.2 565.5,-518.2 565.5,-518.2 561.5,-518.2112 565.4899,-514.6 557.5,-518.2224 557.5,-518.2224"/>
<ellipse fill="none" stroke="#000000" cx="554.3" cy="-518.2314" rx="3.2" ry="3.2"/>
</g>
<!-- user_event_roles&#45;&gt;events -->
<g id="edge12" class="edge">
<title>user_event_roles:w&#45;&gt;events:e</title>
<path fill="none" stroke="#000000" d="M550.9669,-516.2209C494.5278,-499.2046 533.5619,-378.2 461.5,-378.2"/>
<polygon fill="#000000" stroke="#000000" points="557.5732,-517.1205 565.0142,-521.7671 561.5366,-517.6602 565.5,-518.2 565.5,-518.2 565.5,-518.2 561.5366,-517.6602 565.9858,-514.6329 557.5732,-517.1205 557.5732,-517.1205"/>
<ellipse fill="none" stroke="#000000" cx="554.4024" cy="-516.6887" rx="3.2" ry="3.2"/>
</g>
<!-- user_instance_roles -->
<g id="node11" class="node">
<title>user_instance_roles</title>
<g id="a_node11"><a xlink:href="../../tables/user_instance_roles.html" xlink:title="user_instance_roles" target="_top">
<polygon fill="#ffffff" stroke="transparent" points="154,-543.7 154,-604.7 295,-604.7 295,-543.7 154,-543.7"/>
<polygon fill="#f5f5f5" stroke="transparent" points="154.5,-581.2 154.5,-604.2 295.5,-604.2 295.5,-581.2 154.5,-581.2"/>
<polygon fill="none" stroke="#000000" points="154.5,-581.2 154.5,-604.2 295.5,-604.2 295.5,-581.2 154.5,-581.2"/>
<text text-anchor="start" x="159.2943" y="-590.3" font-family="Helvetica,sans-Serif" font-weight="bold" font-size="11.00" fill="#000000">user_instance_roles</text>
<text text-anchor="start" x="261.0219" y="-589.3" font-family="Helvetica,sans-Serif" font-size="11.00" fill="#000000">[table]</text>
<polygon fill="none" stroke="#000000" points="154.5,-562.2 154.5,-581.2 295.5,-581.2 295.5,-562.2 154.5,-562.2"/>
<text text-anchor="start" x="157.5" y="-568.3" font-family="Helvetica,sans-Serif" font-size="11.00" fill="#000000">...</text>
<polygon fill="#ffffff" stroke="transparent" points="154.5,-543.2 154.5,-562.2 210.5,-562.2 210.5,-543.2 154.5,-543.2"/>
<polygon fill="none" stroke="#000000" points="154.5,-543.2 154.5,-562.2 210.5,-562.2 210.5,-543.2 154.5,-543.2"/>
<text text-anchor="start" x="157.5" y="-549.3" font-family="Helvetica,sans-Serif" font-size="11.00" fill="#000000">&lt; 1</text>
<polygon fill="#ffffff" stroke="transparent" points="210.5,-543.2 210.5,-562.2 265.5,-562.2 265.5,-543.2 210.5,-543.2"/>
<polygon fill="none" stroke="#000000" points="210.5,-543.2 210.5,-562.2 265.5,-562.2 265.5,-543.2 210.5,-543.2"/>
<text text-anchor="start" x="230.1105" y="-549.3" font-family="Helvetica,sans-Serif" font-size="11.00" fill="#000000">0 rows</text>
<polygon fill="#ffffff" stroke="transparent" points="265.5,-543.2 265.5,-562.2 295.5,-562.2 295.5,-543.2 265.5,-543.2"/>
<polygon fill="none" stroke="#000000" points="265.5,-543.2 265.5,-562.2 295.5,-562.2 295.5,-543.2 265.5,-543.2"/>
<text text-anchor="start" x="286.3862" y="-549.3" font-family="Helvetica,sans-Serif" font-size="11.00" fill="#000000"> &#160;</text>
</a>
</g>
</g>
<!-- user_instance_roles&#45;&gt;users -->
<g id="edge14" class="edge">
<title>user_instance_roles:w&#45;&gt;users:e</title>
<path fill="none" stroke="#000000" d="M140.1692,-568.7916C86.6272,-547.4318 182.7435,-391.2 105.5,-391.2"/>
<polygon fill="#000000" stroke="#000000" points="146.6106,-569.8741 153.9033,-574.7502 150.5553,-570.537 154.5,-571.2 154.5,-571.2 154.5,-571.2 150.5553,-570.537 155.0967,-567.6498 146.6106,-569.8741 146.6106,-569.8741"/>
<ellipse fill="none" stroke="#000000" cx="143.4549" cy="-569.3437" rx="3.2" ry="3.2"/>
</g>
</g>
</svg>
