<?xml version="1.0" encoding="UTF-8" standalone="no"?>
<!DOCTYPE svg PUBLIC "-//W3C//DTD SVG 1.1//EN"
 "http://www.w3.org/Graphics/SVG/1.1/DTD/svg11.dtd">
<!-- Generated by graphviz version 2.40.1 (20161225.0304)
 -->
<!-- Title: twoDegreesRelationshipsDiagram Pages: 1 -->
<svg width="475pt" height="387pt"
 viewBox="0.00 0.00 475.00 387.20" xmlns="http://www.w3.org/2000/svg" xmlns:xlink="http://www.w3.org/1999/xlink">
<g id="graph0" class="graph" transform="scale(1 1) rotate(0) translate(4 383.2)">
<title>twoDegreesRelationshipsDiagram</title>
<polygon fill="#ffffff" stroke="transparent" points="-4,4 -4,-383.2 471,-383.2 471,4 -4,4"/>
<text text-anchor="middle" x="72.4936" y="-7.3" font-family="Helvetica,sans-Serif" font-size="11.00" fill="#000000">Generated by SchemaSpy</text>
<!-- chapter_users -->
<g id="node1" class="node">
<title>chapter_users</title>
<g id="a_node1"><a xlink:href="../../tables/chapter_users.html" xlink:title="chapter_users" target="_top">
<polygon fill="#ffffff" stroke="transparent" points="341,-314.2 341,-375.2 453,-375.2 453,-314.2 341,-314.2"/>
<polygon fill="#f5f5f5" stroke="transparent" points="341,-351.7 341,-374.7 453,-374.7 453,-351.7 341,-351.7"/>
<polygon fill="none" stroke="#000000" points="341,-351.7 341,-374.7 453,-374.7 453,-351.7 341,-351.7"/>
<text text-anchor="start" x="345.6575" y="-360.8" font-family="Helvetica,sans-Serif" font-weight="bold" font-size="11.00" fill="#000000">chapter_users</text>
<text text-anchor="start" x="418.5219" y="-359.8" font-family="Helvetica,sans-Serif" font-size="11.00" fill="#000000">[table]</text>
<polygon fill="none" stroke="#000000" points="341,-332.7 341,-351.7 453,-351.7 453,-332.7 341,-332.7"/>
<text text-anchor="start" x="344" y="-338.8" font-family="Helvetica,sans-Serif" font-size="11.00" fill="#000000">...</text>
<polygon fill="#ffffff" stroke="transparent" points="341,-313.7 341,-332.7 382,-332.7 382,-313.7 341,-313.7"/>
<polygon fill="none" stroke="#000000" points="341,-313.7 341,-332.7 382,-332.7 382,-313.7 341,-313.7"/>
<text text-anchor="start" x="344" y="-319.8" font-family="Helvetica,sans-Serif" font-size="11.00" fill="#000000">&lt; 3</text>
<polygon fill="#ffffff" stroke="transparent" points="382,-313.7 382,-332.7 430,-332.7 430,-313.7 382,-313.7"/>
<polygon fill="none" stroke="#000000" points="382,-313.7 382,-332.7 430,-332.7 430,-313.7 382,-313.7"/>
<text text-anchor="start" x="394.6105" y="-319.8" font-family="Helvetica,sans-Serif" font-size="11.00" fill="#000000">0 rows</text>
<polygon fill="#ffffff" stroke="transparent" points="430,-313.7 430,-332.7 453,-332.7 453,-313.7 430,-313.7"/>
<polygon fill="none" stroke="#000000" points="430,-313.7 430,-332.7 453,-332.7 453,-313.7 430,-313.7"/>
<text text-anchor="start" x="443.8862" y="-319.8" font-family="Helvetica,sans-Serif" font-size="11.00" fill="#000000"> &#160;</text>
</a>
</g>
</g>
<!-- users -->
<g id="node2" class="node">
<title>users</title>
<g id="a_node2"><a xlink:href="../../tables/users.html" xlink:title="users" target="_top">
<polygon fill="#ffffff" stroke="transparent" points="170,-113.2 170,-240.2 286,-240.2 286,-113.2 170,-113.2"/>
<polygon fill="#f5f5f5" stroke="transparent" points="170,-216.7 170,-239.7 286,-239.7 286,-216.7 170,-216.7"/>
<polygon fill="none" stroke="#000000" points="170,-216.7 170,-239.7 286,-239.7 286,-216.7 170,-216.7"/>
<text text-anchor="start" x="175" y="-225.8" font-family="Helvetica,sans-Serif" font-weight="bold" font-size="11.00" fill="#000000">users</text>
<text text-anchor="start" x="251.0437" y="-224.8" font-family="Helvetica,sans-Serif" font-size="11.00" fill="#000000">[table]</text>
<polygon fill="none" stroke="#000000" points="170,-194.7 170,-216.7 286,-216.7 286,-194.7 170,-194.7"/>
<image xlink:href="../../images/primaryKeys.png" width="11px" height="12px" preserveAspectRatio="xMinYMin meet" x="175" y="-211.7"/>
<text text-anchor="start" x="190" y="-201.8" font-family="Helvetica,sans-Serif" font-size="11.00" fill="#000000">id</text>
<polygon fill="#ffffff" stroke="transparent" points="170,-172.7 170,-194.7 286,-194.7 286,-172.7 170,-172.7"/>
<polygon fill="none" stroke="#000000" points="170,-172.7 170,-194.7 286,-194.7 286,-172.7 170,-172.7"/>
<text text-anchor="start" x="190" y="-179.8" font-family="Helvetica,sans-Serif" font-size="11.00" fill="#000000">email</text>
<polygon fill="none" stroke="#000000" points="170,-150.7 170,-172.7 286,-172.7 286,-150.7 170,-150.7"/>
<image xlink:href="../../images/foreignKeys.png" width="11px" height="12px" preserveAspectRatio="xMinYMin meet" x="175" y="-167.7"/>
<text text-anchor="start" x="190" y="-157.8" font-family="Helvetica,sans-Serif" font-size="11.00" fill="#000000">instance_role_id</text>
<polygon fill="none" stroke="#000000" points="170,-131.7 170,-150.7 286,-150.7 286,-131.7 170,-131.7"/>
<text text-anchor="start" x="173" y="-137.8" font-family="Helvetica,sans-Serif" font-size="11.00" fill="#000000">...</text>
<polygon fill="#ffffff" stroke="transparent" points="170,-112.7 170,-131.7 209,-131.7 209,-112.7 170,-112.7"/>
<polygon fill="none" stroke="#000000" points="170,-112.7 170,-131.7 209,-131.7 209,-112.7 170,-112.7"/>
<text text-anchor="start" x="173" y="-118.8" font-family="Helvetica,sans-Serif" font-size="11.00" fill="#000000">&lt; 1</text>
<polygon fill="#ffffff" stroke="transparent" points="209,-112.7 209,-131.7 256,-131.7 256,-112.7 209,-112.7"/>
<polygon fill="none" stroke="#000000" points="209,-112.7 209,-131.7 256,-131.7 256,-112.7 209,-112.7"/>
<text text-anchor="start" x="220.6105" y="-118.8" font-family="Helvetica,sans-Serif" font-size="11.00" fill="#000000">0 rows</text>
<polygon fill="#ffffff" stroke="transparent" points="256,-112.7 256,-131.7 286,-131.7 286,-112.7 256,-112.7"/>
<polygon fill="none" stroke="#000000" points="256,-112.7 256,-131.7 286,-131.7 286,-112.7 256,-112.7"/>
<text text-anchor="start" x="267.4053" y="-118.8" font-family="Helvetica,sans-Serif" font-size="11.00" fill="#000000">4 &gt;</text>
</a>
</g>
</g>
<!-- chapter_users&#45;&gt;users -->
<g id="edge1" class="edge">
<title>chapter_users:w&#45;&gt;users:e</title>
<path fill="none" stroke="#000000" d="M326.6273,-338.6039C288.2134,-318.3603 345.3423,-205.7 286,-205.7"/>
<polygon fill="#000000" stroke="#000000" points="333.1794,-340.0153 340.2419,-345.2193 337.0897,-340.8576 341,-341.7 341,-341.7 341,-341.7 337.0897,-340.8576 341.7581,-338.1807 333.1794,-340.0153 333.1794,-340.0153"/>
<ellipse fill="none" stroke="#000000" cx="330.0511" cy="-339.3414" rx="3.2" ry="3.2"/>
</g>
<!-- instance_roles -->
<g id="node6" class="node">
<title>instance_roles</title>
<g id="a_node6"><a xlink:href="../../tables/instance_roles.html" xlink:title="instance_roles" target="_top">
<polygon fill="#ffffff" stroke="transparent" points="8,-134.2 8,-195.2 121,-195.2 121,-134.2 8,-134.2"/>
<polygon fill="#f5f5f5" stroke="transparent" points="8.5,-171.7 8.5,-194.7 121.5,-194.7 121.5,-171.7 8.5,-171.7"/>
<polygon fill="none" stroke="#000000" points="8.5,-171.7 8.5,-194.7 121.5,-194.7 121.5,-171.7 8.5,-171.7"/>
<text text-anchor="start" x="13.0476" y="-180.8" font-family="Helvetica,sans-Serif" font-weight="bold" font-size="11.00" fill="#000000">instance_roles</text>
<text text-anchor="start" x="87.0219" y="-179.8" font-family="Helvetica,sans-Serif" font-size="11.00" fill="#000000">[table]</text>
<polygon fill="none" stroke="#000000" points="8.5,-152.7 8.5,-171.7 121.5,-171.7 121.5,-152.7 8.5,-152.7"/>
<text text-anchor="start" x="11.5" y="-158.8" font-family="Helvetica,sans-Serif" font-size="11.00" fill="#000000">...</text>
<polygon fill="#ffffff" stroke="transparent" points="8.5,-133.7 8.5,-152.7 41.5,-152.7 41.5,-133.7 8.5,-133.7"/>
<polygon fill="none" stroke="#000000" points="8.5,-133.7 8.5,-152.7 41.5,-152.7 41.5,-133.7 8.5,-133.7"/>
<text text-anchor="start" x="11.5" y="-139.8" font-family="Helvetica,sans-Serif" font-size="11.00" fill="#000000"> &#160;</text>
<polygon fill="#ffffff" stroke="transparent" points="41.5,-133.7 41.5,-152.7 89.5,-152.7 89.5,-133.7 41.5,-133.7"/>
<polygon fill="none" stroke="#000000" points="41.5,-133.7 41.5,-152.7 89.5,-152.7 89.5,-133.7 41.5,-133.7"/>
<text text-anchor="start" x="54.1105" y="-139.8" font-family="Helvetica,sans-Serif" font-size="11.00" fill="#000000">0 rows</text>
<polygon fill="#ffffff" stroke="transparent" points="89.5,-133.7 89.5,-152.7 121.5,-152.7 121.5,-133.7 89.5,-133.7"/>
<polygon fill="none" stroke="#000000" points="89.5,-133.7 89.5,-152.7 121.5,-152.7 121.5,-133.7 89.5,-133.7"/>
<text text-anchor="start" x="102.9053" y="-139.8" font-family="Helvetica,sans-Serif" font-size="11.00" fill="#000000">2 &gt;</text>
</a>
</g>
</g>
<!-- users&#45;&gt;instance_roles -->
<g id="edge5" class="edge">
<title>users:w&#45;&gt;instance_roles:e</title>
<path fill="none" stroke="#000000" d="M155.2829,-161.7C144.2886,-161.7 137.1615,-161.7 121.5,-161.7"/>
<polygon fill="#000000" stroke="#000000" points="162,-161.7001 170,-165.3 166,-161.7 170,-161.7 170,-161.7 170,-161.7 166,-161.7 170,-158.1 162,-161.7001 162,-161.7001"/>
<ellipse fill="none" stroke="#000000" cx="158.8" cy="-161.7001" rx="3.2" ry="3.2"/>
</g>
<!-- event_users -->
<g id="node3" class="node">
<title>event_users</title>
<g id="a_node3"><a xlink:href="../../tables/event_users.html" xlink:title="event_users" target="_top">
<polygon fill="#ffffff" stroke="transparent" points="346,-232.2 346,-293.2 448,-293.2 448,-232.2 346,-232.2"/>
<polygon fill="#f5f5f5" stroke="transparent" points="346,-269.7 346,-292.7 448,-292.7 448,-269.7 346,-269.7"/>
<polygon fill="none" stroke="#000000" points="346,-269.7 346,-292.7 448,-292.7 448,-269.7 346,-269.7"/>
<text text-anchor="start" x="350.5459" y="-278.8" font-family="Helvetica,sans-Serif" font-weight="bold" font-size="11.00" fill="#000000">event_users</text>
<text text-anchor="start" x="413.5219" y="-277.8" font-family="Helvetica,sans-Serif" font-size="11.00" fill="#000000">[table]</text>
<polygon fill="none" stroke="#000000" points="346,-250.7 346,-269.7 448,-269.7 448,-250.7 346,-250.7"/>
<text text-anchor="start" x="349" y="-256.8" font-family="Helvetica,sans-Serif" font-size="11.00" fill="#000000">...</text>
<polygon fill="#ffffff" stroke="transparent" points="346,-231.7 346,-250.7 378,-250.7 378,-231.7 346,-231.7"/>
<polygon fill="none" stroke="#000000" points="346,-231.7 346,-250.7 378,-250.7 378,-231.7 346,-231.7"/>
<text text-anchor="start" x="349" y="-237.8" font-family="Helvetica,sans-Serif" font-size="11.00" fill="#000000">&lt; 4</text>
<polygon fill="#ffffff" stroke="transparent" points="378,-231.7 378,-250.7 421,-250.7 421,-231.7 378,-231.7"/>
<polygon fill="none" stroke="#000000" points="378,-231.7 378,-250.7 421,-250.7 421,-231.7 378,-231.7"/>
<text text-anchor="start" x="385.6105" y="-237.8" font-family="Helvetica,sans-Serif" font-size="11.00" fill="#000000">0 rows</text>
<polygon fill="#ffffff" stroke="transparent" points="421,-231.7 421,-250.7 448,-250.7 448,-231.7 421,-231.7"/>
<polygon fill="none" stroke="#000000" points="421,-231.7 421,-250.7 448,-250.7 448,-231.7 421,-231.7"/>
<text text-anchor="start" x="429.4053" y="-237.8" font-family="Helvetica,sans-Serif" font-size="11.00" fill="#000000">2 &gt;</text>
</a>
</g>
</g>
<!-- event_users&#45;&gt;users -->
<g id="edge2" class="edge">
<title>event_users:w&#45;&gt;users:e</title>
<path fill="none" stroke="#000000" d="M332.0363,-255.9884C312.6665,-243.7882 316.1305,-205.7 286,-205.7"/>
<polygon fill="#000000" stroke="#000000" points="338.2685,-257.6449 345.0752,-263.1792 342.1342,-258.6724 346,-259.7 346,-259.7 346,-259.7 342.1342,-258.6724 346.9248,-256.2208 338.2685,-257.6449 338.2685,-257.6449"/>
<ellipse fill="none" stroke="#000000" cx="335.1758" cy="-256.8228" rx="3.2" ry="3.2"/>
</g>
<!-- sessions -->
<g id="node4" class="node">
<title>sessions</title>
<g id="a_node4"><a xlink:href="../../tables/sessions.html" xlink:title="sessions" target="_top">
<polygon fill="#ffffff" stroke="transparent" points="335,-120.7 335,-210.7 459,-210.7 459,-120.7 335,-120.7"/>
<polygon fill="#f5f5f5" stroke="transparent" points="337,-185.7 337,-208.7 457,-208.7 457,-185.7 337,-185.7"/>
<polygon fill="none" stroke="#000000" points="337,-185.7 337,-208.7 457,-208.7 457,-185.7 337,-185.7"/>
<text text-anchor="start" x="342" y="-194.8" font-family="Helvetica,sans-Serif" font-weight="bold" font-size="11.00" fill="#000000">sessions</text>
<text text-anchor="start" x="422.0437" y="-193.8" font-family="Helvetica,sans-Serif" font-size="11.00" fill="#000000">[table]</text>
<polygon fill="none" stroke="#000000" points="337,-163.7 337,-185.7 407,-185.7 407,-163.7 337,-163.7"/>
<image xlink:href="../../images/primaryKeys.png" width="11px" height="12px" preserveAspectRatio="xMinYMin meet" x="342" y="-180.7"/>
<text text-anchor="start" x="357" y="-170.8" font-family="Helvetica,sans-Serif" font-size="11.00" fill="#000000">id</text>
<polygon fill="none" stroke="#000000" points="407,-163.7 407,-185.7 457,-185.7 457,-163.7 407,-163.7"/>
<text text-anchor="start" x="409.6915" y="-171.4" font-family="Helvetica,sans-Serif" font-size="11.00" fill="#000000">serial[10]</text>
<polygon fill="#ffffff" stroke="transparent" points="337,-141.7 337,-163.7 407,-163.7 407,-141.7 337,-141.7"/>
<polygon fill="none" stroke="#000000" points="337,-141.7 337,-163.7 407,-163.7 407,-141.7 337,-141.7"/>
<image xlink:href="../../images/foreignKeys.png" width="11px" height="12px" preserveAspectRatio="xMinYMin meet" x="342" y="-158.7"/>
<text text-anchor="start" x="357" y="-148.8" font-family="Helvetica,sans-Serif" font-size="11.00" fill="#000000">user_id</text>
<polygon fill="none" stroke="#000000" points="407,-141.7 407,-163.7 457,-163.7 457,-141.7 407,-141.7"/>
<text text-anchor="start" x="410" y="-149.4" font-family="Helvetica,sans-Serif" font-size="11.00" fill="#000000">int4[10]</text>
<polygon fill="#ffffff" stroke="transparent" points="337,-122.7 337,-141.7 363,-141.7 363,-122.7 337,-122.7"/>
<polygon fill="none" stroke="#000000" points="337,-122.7 337,-141.7 363,-141.7 363,-122.7 337,-122.7"/>
<text text-anchor="start" x="340" y="-128.8" font-family="Helvetica,sans-Serif" font-size="11.00" fill="#000000">&lt; 1</text>
<polygon fill="#ffffff" stroke="transparent" points="363,-122.7 363,-141.7 407,-141.7 407,-122.7 363,-122.7"/>
<polygon fill="none" stroke="#000000" points="363,-122.7 363,-141.7 407,-141.7 407,-122.7 363,-122.7"/>
<text text-anchor="start" x="371.6105" y="-128.8" font-family="Helvetica,sans-Serif" font-size="11.00" fill="#000000">0 rows</text>
<polygon fill="#ffffff" stroke="transparent" points="407,-122.7 407,-141.7 457,-141.7 457,-122.7 407,-122.7"/>
<polygon fill="none" stroke="#000000" points="407,-122.7 407,-141.7 457,-141.7 457,-122.7 407,-122.7"/>
<text text-anchor="start" x="438.4053" y="-128.8" font-family="Helvetica,sans-Serif" font-size="11.00" fill="#000000">0 &gt;</text>
<polygon fill="none" stroke="#000000" stroke-width="2" points="336,-121.7 336,-209.7 458,-209.7 458,-121.7 336,-121.7"/>
</a>
</g>
</g>
<!-- sessions&#45;&gt;users -->
<g id="edge3" class="edge">
<title>sessions:w&#45;&gt;users:e</title>
<path fill="none" stroke="#000000" d="M326.7638,-154.9773C307.1695,-165.1219 314.6038,-205.7 286,-205.7"/>
<polygon fill="#000000" stroke="#000000" points="335.3504,-148.9692 337.0878,-156.7783 335.526,-157.1258 333.7886,-149.3167 335.3504,-148.9692"/>
<polyline fill="none" stroke="#000000" points="337,-152.7 333.0955,-153.5687 "/>
<ellipse fill="none" stroke="#000000" cx="329.9718" cy="-154.2637" rx="3.2" ry="3.2"/>
</g>
<!-- user_bans -->
<g id="node5" class="node">
<title>user_bans</title>
<g id="a_node5"><a xlink:href="../../tables/user_bans.html" xlink:title="user_bans" target="_top">
<polygon fill="#ffffff" stroke="transparent" points="350,-38.2 350,-99.2 444,-99.2 444,-38.2 350,-38.2"/>
<polygon fill="#f5f5f5" stroke="transparent" points="350,-75.7 350,-98.7 444,-98.7 444,-75.7 350,-75.7"/>
<polygon fill="none" stroke="#000000" points="350,-75.7 350,-98.7 444,-98.7 444,-75.7 350,-75.7"/>
<text text-anchor="start" x="354.8244" y="-84.8" font-family="Helvetica,sans-Serif" font-weight="bold" font-size="11.00" fill="#000000">user_bans</text>
<text text-anchor="start" x="409.5219" y="-83.8" font-family="Helvetica,sans-Serif" font-size="11.00" fill="#000000">[table]</text>
<polygon fill="none" stroke="#000000" points="350,-56.7 350,-75.7 444,-75.7 444,-56.7 350,-56.7"/>
<text text-anchor="start" x="353" y="-62.8" font-family="Helvetica,sans-Serif" font-size="11.00" fill="#000000">...</text>
<polygon fill="#ffffff" stroke="transparent" points="350,-37.7 350,-56.7 382,-56.7 382,-37.7 350,-37.7"/>
<polygon fill="none" stroke="#000000" points="350,-37.7 350,-56.7 382,-56.7 382,-37.7 350,-37.7"/>
<text text-anchor="start" x="353" y="-43.8" font-family="Helvetica,sans-Serif" font-size="11.00" fill="#000000">&lt; 2</text>
<polygon fill="#ffffff" stroke="transparent" points="382,-37.7 382,-56.7 426,-56.7 426,-37.7 382,-37.7"/>
<polygon fill="none" stroke="#000000" points="382,-37.7 382,-56.7 426,-56.7 426,-37.7 382,-37.7"/>
<text text-anchor="start" x="390.6105" y="-43.8" font-family="Helvetica,sans-Serif" font-size="11.00" fill="#000000">0 rows</text>
<polygon fill="#ffffff" stroke="transparent" points="426,-37.7 426,-56.7 444,-56.7 444,-37.7 426,-37.7"/>
<polygon fill="none" stroke="#000000" points="426,-37.7 426,-56.7 444,-56.7 444,-37.7 426,-37.7"/>
<text text-anchor="start" x="434.8862" y="-43.8" font-family="Helvetica,sans-Serif" font-size="11.00" fill="#000000"> &#160;</text>
</a>
</g>
</g>
<!-- user_bans&#45;&gt;users -->
<g id="edge4" class="edge">
<title>user_bans:w&#45;&gt;users:e</title>
<path fill="none" stroke="#000000" d="M335.5839,-68.4966C292.8215,-88.2282 348.6697,-205.7 286,-205.7"/>
<polygon fill="#000000" stroke="#000000" points="342.1464,-67.2236 350.6856,-69.2341 346.0732,-66.4618 350,-65.7 350,-65.7 350,-65.7 346.0732,-66.4618 349.3144,-62.1659 342.1464,-67.2236 342.1464,-67.2236"/>
<ellipse fill="none" stroke="#000000" cx="339.005" cy="-67.833" rx="3.2" ry="3.2"/>
</g>
</g>
</svg>
