<?xml version="1.0" encoding="UTF-8" standalone="no"?>
<!DOCTYPE svg PUBLIC "-//W3C//DTD SVG 1.1//EN"
 "http://www.w3.org/Graphics/SVG/1.1/DTD/svg11.dtd">
<!-- Generated by graphviz version 2.40.1 (20161225.0304)
 -->
<!-- Title: twoDegreesRelationshipsDiagram Pages: 1 -->
<svg width="486pt" height="387pt"
 viewBox="0.00 0.00 486.00 387.20" xmlns="http://www.w3.org/2000/svg" xmlns:xlink="http://www.w3.org/1999/xlink">
<g id="graph0" class="graph" transform="scale(1 1) rotate(0) translate(4 383.2)">
<title>twoDegreesRelationshipsDiagram</title>
<polygon fill="#ffffff" stroke="transparent" points="-4,4 -4,-383.2 482,-383.2 482,4 -4,4"/>
<text text-anchor="middle" x="72.4936" y="-7.3" font-family="Helvetica,sans-Serif" font-size="11.00" fill="#000000">Generated by SchemaSpy</text>
<!-- chapter_users -->
<g id="node1" class="node">
<title>chapter_users</title>
<g id="a_node1"><a xlink:href="../../tables/chapter_users.html" xlink:title="chapter_users" target="_top">
<polygon fill="#ffffff" stroke="transparent" points="347,-314.2 347,-375.2 469,-375.2 469,-314.2 347,-314.2"/>
<polygon fill="#f5f5f5" stroke="transparent" points="347,-351.7 347,-374.7 469,-374.7 469,-351.7 347,-351.7"/>
<polygon fill="none" stroke="#000000" points="347,-351.7 347,-374.7 469,-374.7 469,-351.7 347,-351.7"/>
<text text-anchor="start" x="352" y="-360.3" font-family="Helvetica,sans-Serif" font-weight="bold" font-size="11.00" fill="#000000">chapter_users</text>
<text text-anchor="start" x="434.5219" y="-359.8" font-family="Helvetica,sans-Serif" font-size="11.00" fill="#000000">[table]</text>
<polygon fill="none" stroke="#000000" points="347,-332.7 347,-351.7 469,-351.7 469,-332.7 347,-332.7"/>
<text text-anchor="start" x="350" y="-338.8" font-family="Helvetica,sans-Serif" font-size="11.00" fill="#000000">...</text>
<polygon fill="#ffffff" stroke="transparent" points="347,-313.7 347,-332.7 393,-332.7 393,-313.7 347,-313.7"/>
<polygon fill="none" stroke="#000000" points="347,-313.7 347,-332.7 393,-332.7 393,-313.7 347,-313.7"/>
<text text-anchor="start" x="350" y="-319.8" font-family="Helvetica,sans-Serif" font-size="11.00" fill="#000000">&lt; 3</text>
<polygon fill="#ffffff" stroke="transparent" points="393,-313.7 393,-332.7 444,-332.7 444,-313.7 393,-313.7"/>
<polygon fill="none" stroke="#000000" points="393,-313.7 393,-332.7 444,-332.7 444,-313.7 393,-313.7"/>
<text text-anchor="start" x="408.6105" y="-319.8" font-family="Helvetica,sans-Serif" font-size="11.00" fill="#000000">0 rows</text>
<polygon fill="#ffffff" stroke="transparent" points="444,-313.7 444,-332.7 469,-332.7 469,-313.7 444,-313.7"/>
<polygon fill="none" stroke="#000000" points="444,-313.7 444,-332.7 469,-332.7 469,-313.7 444,-313.7"/>
<text text-anchor="start" x="459.8862" y="-319.8" font-family="Helvetica,sans-Serif" font-size="11.00" fill="#000000"> &#160;</text>
</a>
</g>
</g>
<!-- users -->
<g id="node2" class="node">
<title>users</title>
<g id="a_node2"><a xlink:href="../../tables/users.html" xlink:title="users" target="_top">
<polygon fill="#ffffff" stroke="transparent" points="181,-113.2 181,-240.2 297,-240.2 297,-113.2 181,-113.2"/>
<polygon fill="#f5f5f5" stroke="transparent" points="181,-216.7 181,-239.7 297,-239.7 297,-216.7 181,-216.7"/>
<polygon fill="none" stroke="#000000" points="181,-216.7 181,-239.7 297,-239.7 297,-216.7 181,-216.7"/>
<text text-anchor="start" x="186" y="-225.3" font-family="Helvetica,sans-Serif" font-weight="bold" font-size="11.00" fill="#000000">users</text>
<text text-anchor="start" x="262.0437" y="-224.8" font-family="Helvetica,sans-Serif" font-size="11.00" fill="#000000">[table]</text>
<polygon fill="none" stroke="#000000" points="181,-194.7 181,-216.7 297,-216.7 297,-194.7 181,-194.7"/>
<image xlink:href="../../images/primaryKeys.png" width="11px" height="12px" preserveAspectRatio="xMinYMin meet" x="186" y="-211.7"/>
<text text-anchor="start" x="201" y="-201.8" font-family="Helvetica,sans-Serif" font-size="11.00" fill="#000000">id</text>
<polygon fill="#ffffff" stroke="transparent" points="181,-172.7 181,-194.7 297,-194.7 297,-172.7 181,-172.7"/>
<polygon fill="none" stroke="#000000" points="181,-172.7 181,-194.7 297,-194.7 297,-172.7 181,-172.7"/>
<text text-anchor="start" x="201" y="-179.8" font-family="Helvetica,sans-Serif" font-size="11.00" fill="#000000">email</text>
<polygon fill="none" stroke="#000000" points="181,-150.7 181,-172.7 297,-172.7 297,-150.7 181,-150.7"/>
<image xlink:href="../../images/foreignKeys.png" width="11px" height="12px" preserveAspectRatio="xMinYMin meet" x="186" y="-167.7"/>
<text text-anchor="start" x="201" y="-157.8" font-family="Helvetica,sans-Serif" font-size="11.00" fill="#000000">instance_role_id</text>
<polygon fill="none" stroke="#000000" points="181,-131.7 181,-150.7 297,-150.7 297,-131.7 181,-131.7"/>
<text text-anchor="start" x="184" y="-137.8" font-family="Helvetica,sans-Serif" font-size="11.00" fill="#000000">...</text>
<polygon fill="#ffffff" stroke="transparent" points="181,-112.7 181,-131.7 220,-131.7 220,-112.7 181,-112.7"/>
<polygon fill="none" stroke="#000000" points="181,-112.7 181,-131.7 220,-131.7 220,-112.7 181,-112.7"/>
<text text-anchor="start" x="184" y="-118.8" font-family="Helvetica,sans-Serif" font-size="11.00" fill="#000000">&lt; 1</text>
<polygon fill="#ffffff" stroke="transparent" points="220,-112.7 220,-131.7 267,-131.7 267,-112.7 220,-112.7"/>
<polygon fill="none" stroke="#000000" points="220,-112.7 220,-131.7 267,-131.7 267,-112.7 220,-112.7"/>
<text text-anchor="start" x="231.6105" y="-118.8" font-family="Helvetica,sans-Serif" font-size="11.00" fill="#000000">0 rows</text>
<polygon fill="#ffffff" stroke="transparent" points="267,-112.7 267,-131.7 297,-131.7 297,-112.7 267,-112.7"/>
<polygon fill="none" stroke="#000000" points="267,-112.7 267,-131.7 297,-131.7 297,-112.7 267,-112.7"/>
<text text-anchor="start" x="278.4053" y="-118.8" font-family="Helvetica,sans-Serif" font-size="11.00" fill="#000000">4 &gt;</text>
</a>
</g>
</g>
<!-- chapter_users&#45;&gt;users -->
<g id="edge1" class="edge">
<title>chapter_users:w&#45;&gt;users:e</title>
<path fill="none" stroke="#000000" d="M332.9022,-338.6039C295.6035,-318.3603 355.614,-205.7 297,-205.7"/>
<polygon fill="#000000" stroke="#000000" points="339.1862,-339.9839 346.2278,-345.2162 343.0931,-340.842 347,-341.7 347,-341.7 347,-341.7 343.0931,-340.842 347.7722,-338.1838 339.1862,-339.9839 339.1862,-339.9839"/>
<ellipse fill="none" stroke="#000000" cx="336.0607" cy="-339.2975" rx="3.2" ry="3.2"/>
</g>
<!-- instance_roles -->
<g id="node6" class="node">
<title>instance_roles</title>
<g id="a_node6"><a xlink:href="../../tables/instance_roles.html" xlink:title="instance_roles" target="_top">
<polygon fill="#ffffff" stroke="transparent" points="8,-134.2 8,-195.2 132,-195.2 132,-134.2 8,-134.2"/>
<polygon fill="#f5f5f5" stroke="transparent" points="8,-171.7 8,-194.7 132,-194.7 132,-171.7 8,-171.7"/>
<polygon fill="none" stroke="#000000" points="8,-171.7 8,-194.7 132,-194.7 132,-171.7 8,-171.7"/>
<text text-anchor="start" x="13" y="-180.3" font-family="Helvetica,sans-Serif" font-weight="bold" font-size="11.00" fill="#000000">instance_roles</text>
<text text-anchor="start" x="97.5219" y="-179.8" font-family="Helvetica,sans-Serif" font-size="11.00" fill="#000000">[table]</text>
<polygon fill="none" stroke="#000000" points="8,-152.7 8,-171.7 132,-171.7 132,-152.7 8,-152.7"/>
<text text-anchor="start" x="11" y="-158.8" font-family="Helvetica,sans-Serif" font-size="11.00" fill="#000000">...</text>
<polygon fill="#ffffff" stroke="transparent" points="8,-133.7 8,-152.7 46,-152.7 46,-133.7 8,-133.7"/>
<polygon fill="none" stroke="#000000" points="8,-133.7 8,-152.7 46,-152.7 46,-133.7 8,-133.7"/>
<text text-anchor="start" x="11" y="-139.8" font-family="Helvetica,sans-Serif" font-size="11.00" fill="#000000"> &#160;</text>
<polygon fill="#ffffff" stroke="transparent" points="46,-133.7 46,-152.7 97,-152.7 97,-133.7 46,-133.7"/>
<polygon fill="none" stroke="#000000" points="46,-133.7 46,-152.7 97,-152.7 97,-133.7 46,-133.7"/>
<text text-anchor="start" x="61.6105" y="-139.8" font-family="Helvetica,sans-Serif" font-size="11.00" fill="#000000">0 rows</text>
<polygon fill="#ffffff" stroke="transparent" points="97,-133.7 97,-152.7 132,-152.7 132,-133.7 97,-133.7"/>
<polygon fill="none" stroke="#000000" points="97,-133.7 97,-152.7 132,-152.7 132,-133.7 97,-133.7"/>
<text text-anchor="start" x="113.4053" y="-139.8" font-family="Helvetica,sans-Serif" font-size="11.00" fill="#000000">2 &gt;</text>
</a>
</g>
</g>
<!-- users&#45;&gt;instance_roles -->
<g id="edge5" class="edge">
<title>users:w&#45;&gt;instance_roles:e</title>
<path fill="none" stroke="#000000" d="M166.4909,-161.7C155.1774,-161.7 147.9931,-161.7 132,-161.7"/>
<polygon fill="#000000" stroke="#000000" points="173,-161.7001 181,-165.3 177,-161.7 181,-161.7 181,-161.7 181,-161.7 177,-161.7 181,-158.1 173,-161.7001 173,-161.7001"/>
<ellipse fill="none" stroke="#000000" cx="169.8" cy="-161.7001" rx="3.2" ry="3.2"/>
</g>
<!-- event_users -->
<g id="node3" class="node">
<title>event_users</title>
<g id="a_node3"><a xlink:href="../../tables/event_users.html" xlink:title="event_users" target="_top">
<polygon fill="#ffffff" stroke="transparent" points="353,-232.2 353,-293.2 463,-293.2 463,-232.2 353,-232.2"/>
<polygon fill="#f5f5f5" stroke="transparent" points="353,-269.7 353,-292.7 463,-292.7 463,-269.7 353,-269.7"/>
<polygon fill="none" stroke="#000000" points="353,-269.7 353,-292.7 463,-292.7 463,-269.7 353,-269.7"/>
<text text-anchor="start" x="358" y="-278.3" font-family="Helvetica,sans-Serif" font-weight="bold" font-size="11.00" fill="#000000">event_users</text>
<text text-anchor="start" x="428.5219" y="-277.8" font-family="Helvetica,sans-Serif" font-size="11.00" fill="#000000">[table]</text>
<polygon fill="none" stroke="#000000" points="353,-250.7 353,-269.7 463,-269.7 463,-250.7 353,-250.7"/>
<text text-anchor="start" x="356" y="-256.8" font-family="Helvetica,sans-Serif" font-size="11.00" fill="#000000">...</text>
<polygon fill="#ffffff" stroke="transparent" points="353,-231.7 353,-250.7 389,-250.7 389,-231.7 353,-231.7"/>
<polygon fill="none" stroke="#000000" points="353,-231.7 353,-250.7 389,-250.7 389,-231.7 353,-231.7"/>
<text text-anchor="start" x="356" y="-237.8" font-family="Helvetica,sans-Serif" font-size="11.00" fill="#000000">&lt; 4</text>
<polygon fill="#ffffff" stroke="transparent" points="389,-231.7 389,-250.7 434,-250.7 434,-231.7 389,-231.7"/>
<polygon fill="none" stroke="#000000" points="389,-231.7 389,-250.7 434,-250.7 434,-231.7 389,-231.7"/>
<text text-anchor="start" x="398.6105" y="-237.8" font-family="Helvetica,sans-Serif" font-size="11.00" fill="#000000">0 rows</text>
<polygon fill="#ffffff" stroke="transparent" points="434,-231.7 434,-250.7 463,-250.7 463,-231.7 434,-231.7"/>
<polygon fill="none" stroke="#000000" points="434,-231.7 434,-250.7 463,-250.7 463,-231.7 434,-231.7"/>
<text text-anchor="start" x="444.4053" y="-237.8" font-family="Helvetica,sans-Serif" font-size="11.00" fill="#000000">2 &gt;</text>
</a>
</g>
</g>
<!-- event_users&#45;&gt;users -->
<g id="edge2" class="edge">
<title>event_users:w&#45;&gt;users:e</title>
<path fill="none" stroke="#000000" d="M338.9171,-255.4627C321.5353,-242.7327 325.6327,-205.7 297,-205.7"/>
<polygon fill="#000000" stroke="#000000" points="345.3392,-257.395 351.9627,-263.1473 349.1696,-258.5475 353,-259.7 353,-259.7 353,-259.7 349.1696,-258.5475 354.0373,-256.2527 345.3392,-257.395 345.3392,-257.395"/>
<ellipse fill="none" stroke="#000000" cx="342.2749" cy="-256.473" rx="3.2" ry="3.2"/>
</g>
<!-- sessions -->
<g id="node4" class="node">
<title>sessions</title>
<g id="a_node4"><a xlink:href="../../tables/sessions.html" xlink:title="sessions" target="_top">
<polygon fill="#ffffff" stroke="transparent" points="346,-120.7 346,-210.7 470,-210.7 470,-120.7 346,-120.7"/>
<polygon fill="#f5f5f5" stroke="transparent" points="348,-185.7 348,-208.7 468,-208.7 468,-185.7 348,-185.7"/>
<polygon fill="none" stroke="#000000" points="348,-185.7 348,-208.7 468,-208.7 468,-185.7 348,-185.7"/>
<text text-anchor="start" x="353" y="-194.3" font-family="Helvetica,sans-Serif" font-weight="bold" font-size="11.00" fill="#000000">sessions</text>
<text text-anchor="start" x="433.0437" y="-193.8" font-family="Helvetica,sans-Serif" font-size="11.00" fill="#000000">[table]</text>
<polygon fill="none" stroke="#000000" points="348,-163.7 348,-185.7 418,-185.7 418,-163.7 348,-163.7"/>
<image xlink:href="../../images/primaryKeys.png" width="11px" height="12px" preserveAspectRatio="xMinYMin meet" x="353" y="-180.7"/>
<text text-anchor="start" x="368" y="-170.8" font-family="Helvetica,sans-Serif" font-size="11.00" fill="#000000">id</text>
<polygon fill="none" stroke="#000000" points="418,-163.7 418,-185.7 468,-185.7 468,-163.7 418,-163.7"/>
<text text-anchor="start" x="420.6915" y="-171.4" font-family="Helvetica,sans-Serif" font-size="11.00" fill="#000000">serial[10]</text>
<polygon fill="#ffffff" stroke="transparent" points="348,-141.7 348,-163.7 418,-163.7 418,-141.7 348,-141.7"/>
<polygon fill="none" stroke="#000000" points="348,-141.7 348,-163.7 418,-163.7 418,-141.7 348,-141.7"/>
<image xlink:href="../../images/foreignKeys.png" width="11px" height="12px" preserveAspectRatio="xMinYMin meet" x="353" y="-158.7"/>
<text text-anchor="start" x="368" y="-148.8" font-family="Helvetica,sans-Serif" font-size="11.00" fill="#000000">user_id</text>
<polygon fill="none" stroke="#000000" points="418,-141.7 418,-163.7 468,-163.7 468,-141.7 418,-141.7"/>
<text text-anchor="start" x="421" y="-149.4" font-family="Helvetica,sans-Serif" font-size="11.00" fill="#000000">int4[10]</text>
<polygon fill="#ffffff" stroke="transparent" points="348,-122.7 348,-141.7 374,-141.7 374,-122.7 348,-122.7"/>
<polygon fill="none" stroke="#000000" points="348,-122.7 348,-141.7 374,-141.7 374,-122.7 348,-122.7"/>
<text text-anchor="start" x="351" y="-128.8" font-family="Helvetica,sans-Serif" font-size="11.00" fill="#000000">&lt; 1</text>
<polygon fill="#ffffff" stroke="transparent" points="374,-122.7 374,-141.7 418,-141.7 418,-122.7 374,-122.7"/>
<polygon fill="none" stroke="#000000" points="374,-122.7 374,-141.7 418,-141.7 418,-122.7 374,-122.7"/>
<text text-anchor="start" x="382.6105" y="-128.8" font-family="Helvetica,sans-Serif" font-size="11.00" fill="#000000">0 rows</text>
<polygon fill="#ffffff" stroke="transparent" points="418,-122.7 418,-141.7 468,-141.7 468,-122.7 418,-122.7"/>
<polygon fill="none" stroke="#000000" points="418,-122.7 418,-141.7 468,-141.7 468,-122.7 418,-122.7"/>
<text text-anchor="start" x="449.4053" y="-128.8" font-family="Helvetica,sans-Serif" font-size="11.00" fill="#000000">0 &gt;</text>
<polygon fill="none" stroke="#000000" stroke-width="2" points="347,-121.7 347,-209.7 469,-209.7 469,-121.7 347,-121.7"/>
</a>
</g>
</g>
<!-- sessions&#45;&gt;users -->
<g id="edge3" class="edge">
<title>sessions:w&#45;&gt;users:e</title>
<path fill="none" stroke="#000000" d="M337.7638,-154.9773C318.1695,-165.1219 325.6038,-205.7 297,-205.7"/>
<polygon fill="#000000" stroke="#000000" points="346.3504,-148.9692 348.0878,-156.7783 346.526,-157.1258 344.7886,-149.3167 346.3504,-148.9692"/>
<polyline fill="none" stroke="#000000" points="348,-152.7 344.0955,-153.5687 "/>
<ellipse fill="none" stroke="#000000" cx="340.9718" cy="-154.2637" rx="3.2" ry="3.2"/>
</g>
<!-- user_bans -->
<g id="node5" class="node">
<title>user_bans</title>
<g id="a_node5"><a xlink:href="../../tables/user_bans.html" xlink:title="user_bans" target="_top">
<polygon fill="#ffffff" stroke="transparent" points="358.5,-38.2 358.5,-99.2 457.5,-99.2 457.5,-38.2 358.5,-38.2"/>
<polygon fill="#f5f5f5" stroke="transparent" points="359,-75.7 359,-98.7 458,-98.7 458,-75.7 359,-75.7"/>
<polygon fill="none" stroke="#000000" points="359,-75.7 359,-98.7 458,-98.7 458,-75.7 359,-75.7"/>
<text text-anchor="start" x="364" y="-84.3" font-family="Helvetica,sans-Serif" font-weight="bold" font-size="11.00" fill="#000000">user_bans</text>
<text text-anchor="start" x="423.5219" y="-83.8" font-family="Helvetica,sans-Serif" font-size="11.00" fill="#000000">[table]</text>
<polygon fill="none" stroke="#000000" points="359,-56.7 359,-75.7 458,-75.7 458,-56.7 359,-56.7"/>
<text text-anchor="start" x="362" y="-62.8" font-family="Helvetica,sans-Serif" font-size="11.00" fill="#000000">...</text>
<polygon fill="#ffffff" stroke="transparent" points="359,-37.7 359,-56.7 394,-56.7 394,-37.7 359,-37.7"/>
<polygon fill="none" stroke="#000000" points="359,-37.7 359,-56.7 394,-56.7 394,-37.7 359,-37.7"/>
<text text-anchor="start" x="362" y="-43.8" font-family="Helvetica,sans-Serif" font-size="11.00" fill="#000000">&lt; 2</text>
<polygon fill="#ffffff" stroke="transparent" points="394,-37.7 394,-56.7 439,-56.7 439,-37.7 394,-37.7"/>
<polygon fill="none" stroke="#000000" points="394,-37.7 394,-56.7 439,-56.7 439,-37.7 394,-37.7"/>
<text text-anchor="start" x="403.6105" y="-43.8" font-family="Helvetica,sans-Serif" font-size="11.00" fill="#000000">0 rows</text>
<polygon fill="#ffffff" stroke="transparent" points="439,-37.7 439,-56.7 458,-56.7 458,-37.7 439,-37.7"/>
<polygon fill="none" stroke="#000000" points="439,-37.7 439,-56.7 458,-56.7 458,-37.7 439,-37.7"/>
<text text-anchor="start" x="448.8862" y="-43.8" font-family="Helvetica,sans-Serif" font-size="11.00" fill="#000000"> &#160;</text>
</a>
</g>
</g>
<!-- user_bans&#45;&gt;users -->
<g id="edge4" class="edge">
<title>user_bans:w&#45;&gt;users:e</title>
<path fill="none" stroke="#000000" d="M344.6939,-68.4966C302.3933,-88.2282 359.3356,-205.7 297,-205.7"/>
<polygon fill="#000000" stroke="#000000" points="351.1486,-67.2348 359.6907,-69.2331 355.0743,-66.4674 359,-65.7 359,-65.7 359,-65.7 355.0743,-66.4674 358.3093,-62.1669 351.1486,-67.2348 351.1486,-67.2348"/>
<ellipse fill="none" stroke="#000000" cx="348.008" cy="-67.8488" rx="3.2" ry="3.2"/>
</g>
</g>
</svg>
