<?xml version="1.0" encoding="UTF-8" standalone="no"?>
<!DOCTYPE svg PUBLIC "-//W3C//DTD SVG 1.1//EN"
 "http://www.w3.org/Graphics/SVG/1.1/DTD/svg11.dtd">
<!-- Generated by graphviz version 2.40.1 (20161225.0304)
 -->
<!-- Title: twoDegreesRelationshipsDiagram Pages: 1 -->
<svg width="409pt" height="333pt"
 viewBox="0.00 0.00 409.00 332.70" xmlns="http://www.w3.org/2000/svg" xmlns:xlink="http://www.w3.org/1999/xlink">
<g id="graph0" class="graph" transform="scale(1 1) rotate(0) translate(4 328.7)">
<title>twoDegreesRelationshipsDiagram</title>
<polygon fill="#ffffff" stroke="transparent" points="-4,4 -4,-328.7 405,-328.7 405,4 -4,4"/>
<text text-anchor="middle" x="72.4936" y="-7.3" font-family="Helvetica,sans-Serif" font-size="11.00" fill="#000000">Generated by SchemaSpy</text>
<!-- event_sponsors -->
<g id="node1" class="node">
<title>event_sponsors</title>
<g id="a_node1"><a xlink:href="../../tables/event_sponsors.html" xlink:title="event_sponsors" target="_top">
<polygon fill="#ffffff" stroke="transparent" points="267,-115.2 267,-242.2 393,-242.2 393,-115.2 267,-115.2"/>
<polygon fill="#f5f5f5" stroke="transparent" points="267,-218.7 267,-241.7 393,-241.7 393,-218.7 267,-218.7"/>
<polygon fill="none" stroke="#000000" points="267,-218.7 267,-241.7 393,-241.7 393,-218.7 267,-218.7"/>
<text text-anchor="start" x="272" y="-227.8" font-family="Helvetica,sans-Serif" font-weight="bold" font-size="11.00" fill="#000000">event_sponsors</text>
<text text-anchor="start" x="358.0437" y="-226.8" font-family="Helvetica,sans-Serif" font-size="11.00" fill="#000000">[table]</text>
<polygon fill="none" stroke="#000000" points="267,-196.7 267,-218.7 393,-218.7 393,-196.7 267,-196.7"/>
<image xlink:href="../../images/primaryKeys.png" width="11px" height="12px" preserveAspectRatio="xMinYMin meet" x="272" y="-213.7"/>
<text text-anchor="start" x="287" y="-203.8" font-family="Helvetica,sans-Serif" font-size="11.00" fill="#000000">id</text>
<polygon fill="none" stroke="#000000" points="267,-174.7 267,-196.7 393,-196.7 393,-174.7 267,-174.7"/>
<image xlink:href="../../images/foreignKeys.png" width="11px" height="12px" preserveAspectRatio="xMinYMin meet" x="272" y="-191.7"/>
<text text-anchor="start" x="287" y="-181.8" font-family="Helvetica,sans-Serif" font-size="11.00" fill="#000000">sponsor_id</text>
<polygon fill="none" stroke="#000000" points="267,-152.7 267,-174.7 393,-174.7 393,-152.7 267,-152.7"/>
<image xlink:href="../../images/foreignKeys.png" width="11px" height="12px" preserveAspectRatio="xMinYMin meet" x="272" y="-169.7"/>
<text text-anchor="start" x="287" y="-159.8" font-family="Helvetica,sans-Serif" font-size="11.00" fill="#000000">event_id</text>
<polygon fill="none" stroke="#000000" points="267,-133.7 267,-152.7 393,-152.7 393,-133.7 267,-133.7"/>
<text text-anchor="start" x="270" y="-139.8" font-family="Helvetica,sans-Serif" font-size="11.00" fill="#000000">...</text>
<polygon fill="#ffffff" stroke="transparent" points="267,-114.7 267,-133.7 315,-133.7 315,-114.7 267,-114.7"/>
<polygon fill="none" stroke="#000000" points="267,-114.7 267,-133.7 315,-133.7 315,-114.7 267,-114.7"/>
<text text-anchor="start" x="270" y="-120.8" font-family="Helvetica,sans-Serif" font-size="11.00" fill="#000000">&lt; 2</text>
<polygon fill="#ffffff" stroke="transparent" points="315,-114.7 315,-133.7 367,-133.7 367,-114.7 315,-114.7"/>
<polygon fill="none" stroke="#000000" points="315,-114.7 315,-133.7 367,-133.7 367,-114.7 315,-114.7"/>
<text text-anchor="start" x="331.6105" y="-120.8" font-family="Helvetica,sans-Serif" font-size="11.00" fill="#000000">8 rows</text>
<polygon fill="#ffffff" stroke="transparent" points="367,-114.7 367,-133.7 393,-133.7 393,-114.7 367,-114.7"/>
<polygon fill="none" stroke="#000000" points="367,-114.7 367,-133.7 393,-133.7 393,-114.7 367,-114.7"/>
<text text-anchor="start" x="383.8862" y="-120.8" font-family="Helvetica,sans-Serif" font-size="11.00" fill="#000000"> &#160;</text>
</a>
</g>
</g>
<!-- events -->
<g id="node2" class="node">
<title>events</title>
<g id="a_node2"><a xlink:href="../../tables/events.html" xlink:title="events" target="_top">
<polygon fill="#ffffff" stroke="transparent" points="73,-38.2 73,-99.2 153,-99.2 153,-38.2 73,-38.2"/>
<polygon fill="#f5f5f5" stroke="transparent" points="73,-75.7 73,-98.7 153,-98.7 153,-75.7 73,-75.7"/>
<polygon fill="none" stroke="#000000" points="73,-75.7 73,-98.7 153,-98.7 153,-75.7 73,-75.7"/>
<text text-anchor="start" x="78" y="-84.8" font-family="Helvetica,sans-Serif" font-weight="bold" font-size="11.00" fill="#000000">events</text>
<text text-anchor="start" x="118.0437" y="-83.8" font-family="Helvetica,sans-Serif" font-size="11.00" fill="#000000">[table]</text>
<polygon fill="none" stroke="#000000" points="73,-56.7 73,-75.7 153,-75.7 153,-56.7 73,-56.7"/>
<text text-anchor="start" x="76" y="-62.8" font-family="Helvetica,sans-Serif" font-size="11.00" fill="#000000">...</text>
<polygon fill="#ffffff" stroke="transparent" points="73,-37.7 73,-56.7 94,-56.7 94,-37.7 73,-37.7"/>
<polygon fill="none" stroke="#000000" points="73,-37.7 73,-56.7 94,-56.7 94,-37.7 73,-37.7"/>
<text text-anchor="start" x="75.7027" y="-43.8" font-family="Helvetica,sans-Serif" font-size="11.00" fill="#000000">&lt; 2</text>
<polygon fill="#ffffff" stroke="transparent" points="94,-37.7 94,-56.7 132,-56.7 132,-37.7 94,-37.7"/>
<polygon fill="none" stroke="#000000" points="94,-37.7 94,-56.7 132,-56.7 132,-37.7 94,-37.7"/>
<text text-anchor="start" x="96.8053" y="-43.8" font-family="Helvetica,sans-Serif" font-size="11.00" fill="#000000">4 rows</text>
<polygon fill="#ffffff" stroke="transparent" points="132,-37.7 132,-56.7 153,-56.7 153,-37.7 132,-37.7"/>
<polygon fill="none" stroke="#000000" points="132,-37.7 132,-56.7 153,-56.7 153,-37.7 132,-37.7"/>
<text text-anchor="start" x="134.7027" y="-43.8" font-family="Helvetica,sans-Serif" font-size="11.00" fill="#000000">4 &gt;</text>
</a>
</g>
</g>
<!-- event_sponsors&#45;&gt;events -->
<g id="edge1" class="edge">
<title>event_sponsors:w&#45;&gt;events:e</title>
<path fill="none" stroke="#000000" d="M252.7851,-159.6266C240.2276,-150.0252 243.688,-125.5904 226,-109.7 197.8195,-84.3835 190.8822,-65.7 153,-65.7"/>
<polygon fill="#000000" stroke="#000000" points="259.3095,-161.4962 266.0083,-167.1607 263.1548,-162.5981 267,-163.7 267,-163.7 267,-163.7 263.1548,-162.5981 267.9917,-160.2393 259.3095,-161.4962 259.3095,-161.4962"/>
<ellipse fill="none" stroke="#000000" cx="256.2333" cy="-160.6147" rx="3.2" ry="3.2"/>
</g>
<!-- sponsors -->
<g id="node3" class="node">
<title>sponsors</title>
<g id="a_node3"><a xlink:href="../../tables/sponsors.html" xlink:title="sponsors" target="_top">
<polygon fill="#ffffff" stroke="transparent" points="8,-120.7 8,-320.7 218,-320.7 218,-120.7 8,-120.7"/>
<polygon fill="#f5f5f5" stroke="transparent" points="10,-295.7 10,-318.7 216,-318.7 216,-295.7 10,-295.7"/>
<polygon fill="none" stroke="#000000" points="10,-295.7 10,-318.7 216,-318.7 216,-295.7 10,-295.7"/>
<text text-anchor="start" x="15" y="-304.8" font-family="Helvetica,sans-Serif" font-weight="bold" font-size="11.00" fill="#000000">sponsors</text>
<text text-anchor="start" x="181.0437" y="-303.8" font-family="Helvetica,sans-Serif" font-size="11.00" fill="#000000">[table]</text>
<polygon fill="none" stroke="#000000" points="10,-273.7 10,-295.7 107,-295.7 107,-273.7 10,-273.7"/>
<image xlink:href="../../images/primaryKeys.png" width="11px" height="12px" preserveAspectRatio="xMinYMin meet" x="15" y="-290.7"/>
<text text-anchor="start" x="30" y="-280.8" font-family="Helvetica,sans-Serif" font-size="11.00" fill="#000000">id</text>
<polygon fill="none" stroke="#000000" points="107,-273.7 107,-295.7 216,-295.7 216,-273.7 107,-273.7"/>
<text text-anchor="start" x="110" y="-281.4" font-family="Helvetica,sans-Serif" font-size="11.00" fill="#000000">serial[10]</text>
<polygon fill="none" stroke="#000000" points="10,-251.7 10,-273.7 107,-273.7 107,-251.7 10,-251.7"/>
<text text-anchor="start" x="30" y="-258.8" font-family="Helvetica,sans-Serif" font-size="11.00" fill="#000000">name</text>
<polygon fill="none" stroke="#000000" points="107,-251.7 107,-273.7 216,-273.7 216,-251.7 107,-251.7"/>
<text text-anchor="start" x="109.5344" y="-259.4" font-family="Helvetica,sans-Serif" font-size="11.00" fill="#000000">varchar[2147483647]</text>
<polygon fill="none" stroke="#000000" points="10,-229.7 10,-251.7 107,-251.7 107,-229.7 10,-229.7"/>
<text text-anchor="start" x="30" y="-236.8" font-family="Helvetica,sans-Serif" font-size="11.00" fill="#000000">website</text>
<polygon fill="none" stroke="#000000" points="107,-229.7 107,-251.7 216,-251.7 216,-229.7 107,-229.7"/>
<text text-anchor="start" x="109.5344" y="-237.4" font-family="Helvetica,sans-Serif" font-size="11.00" fill="#000000">varchar[2147483647]</text>
<polygon fill="none" stroke="#000000" points="10,-207.7 10,-229.7 107,-229.7 107,-207.7 10,-207.7"/>
<text text-anchor="start" x="30" y="-214.8" font-family="Helvetica,sans-Serif" font-size="11.00" fill="#000000">logo_path</text>
<polygon fill="none" stroke="#000000" points="107,-207.7 107,-229.7 216,-229.7 216,-207.7 107,-207.7"/>
<text text-anchor="start" x="109.5344" y="-215.4" font-family="Helvetica,sans-Serif" font-size="11.00" fill="#000000">varchar[2147483647]</text>
<polygon fill="none" stroke="#000000" points="10,-185.7 10,-207.7 107,-207.7 107,-185.7 10,-185.7"/>
<text text-anchor="start" x="30" y="-192.8" font-family="Helvetica,sans-Serif" font-size="11.00" fill="#000000">type</text>
<polygon fill="none" stroke="#000000" points="107,-185.7 107,-207.7 216,-207.7 216,-185.7 107,-185.7"/>
<text text-anchor="start" x="109.5344" y="-193.4" font-family="Helvetica,sans-Serif" font-size="11.00" fill="#000000">varchar[2147483647]</text>
<polygon fill="none" stroke="#000000" points="10,-163.7 10,-185.7 107,-185.7 107,-163.7 10,-163.7"/>
<text text-anchor="start" x="30" y="-170.8" font-family="Helvetica,sans-Serif" font-size="11.00" fill="#000000">created_at</text>
<polygon fill="none" stroke="#000000" points="107,-163.7 107,-185.7 216,-185.7 216,-163.7 107,-163.7"/>
<text text-anchor="start" x="110" y="-171.4" font-family="Helvetica,sans-Serif" font-size="11.00" fill="#000000">timestamp[29,6]</text>
<polygon fill="none" stroke="#000000" points="10,-141.7 10,-163.7 107,-163.7 107,-141.7 10,-141.7"/>
<text text-anchor="start" x="30" y="-148.8" font-family="Helvetica,sans-Serif" font-size="11.00" fill="#000000">updated_at</text>
<polygon fill="none" stroke="#000000" points="107,-141.7 107,-163.7 216,-163.7 216,-141.7 107,-141.7"/>
<text text-anchor="start" x="110" y="-149.4" font-family="Helvetica,sans-Serif" font-size="11.00" fill="#000000">timestamp[29,6]</text>
<polygon fill="#ffffff" stroke="transparent" points="10,-122.7 10,-141.7 50,-141.7 50,-122.7 10,-122.7"/>
<polygon fill="none" stroke="#000000" points="10,-122.7 10,-141.7 50,-141.7 50,-122.7 10,-122.7"/>
<text text-anchor="start" x="13" y="-128.8" font-family="Helvetica,sans-Serif" font-size="11.00" fill="#000000">&lt; 0</text>
<polygon fill="#ffffff" stroke="transparent" points="50,-122.7 50,-141.7 107,-141.7 107,-122.7 50,-122.7"/>
<polygon fill="none" stroke="#000000" points="50,-122.7 50,-141.7 107,-141.7 107,-122.7 50,-122.7"/>
<text text-anchor="start" x="71.6105" y="-128.8" font-family="Helvetica,sans-Serif" font-size="11.00" fill="#000000">4 rows</text>
<polygon fill="#ffffff" stroke="transparent" points="107,-122.7 107,-141.7 216,-141.7 216,-122.7 107,-122.7"/>
<polygon fill="none" stroke="#000000" points="107,-122.7 107,-141.7 216,-141.7 216,-122.7 107,-122.7"/>
<text text-anchor="start" x="197.4053" y="-128.8" font-family="Helvetica,sans-Serif" font-size="11.00" fill="#000000">1 &gt;</text>
<polygon fill="none" stroke="#000000" stroke-width="2" points="9,-121.7 9,-319.7 217,-319.7 217,-121.7 9,-121.7"/>
</a>
</g>
</g>
<!-- event_sponsors&#45;&gt;sponsors -->
<g id="edge2" class="edge">
<title>event_sponsors:w&#45;&gt;sponsors:e</title>
<path fill="none" stroke="#000000" d="M252.9616,-189.7035C227.698,-208.2249 259.5017,-284.7 216,-284.7"/>
<polygon fill="#000000" stroke="#000000" points="259.3067,-187.894 267.9873,-189.162 263.1534,-186.797 267,-185.7 267,-185.7 267,-185.7 263.1534,-186.797 266.0127,-182.238 259.3067,-187.894 259.3067,-187.894"/>
<ellipse fill="none" stroke="#000000" cx="256.2294" cy="-188.7717" rx="3.2" ry="3.2"/>
</g>
</g>
</svg>
