<?xml version="1.0" encoding="UTF-8" standalone="no"?>
<!DOCTYPE svg PUBLIC "-//W3C//DTD SVG 1.1//EN"
 "http://www.w3.org/Graphics/SVG/1.1/DTD/svg11.dtd">
<!-- Generated by graphviz version 2.40.1 (20161225.0304)
 -->
<!-- Title: twoDegreesRelationshipsDiagram Pages: 1 -->
<svg width="375pt" height="333pt"
 viewBox="0.00 0.00 375.00 332.70" xmlns="http://www.w3.org/2000/svg" xmlns:xlink="http://www.w3.org/1999/xlink">
<g id="graph0" class="graph" transform="scale(1 1) rotate(0) translate(4 328.7)">
<title>twoDegreesRelationshipsDiagram</title>
<polygon fill="#ffffff" stroke="transparent" points="-4,4 -4,-328.7 371,-328.7 371,4 -4,4"/>
<text text-anchor="middle" x="72.4936" y="-7.3" font-family="Helvetica,sans-Serif" font-size="11.00" fill="#000000">Generated by SchemaSpy</text>
<!-- event_sponsors -->
<g id="node1" class="node">
<title>event_sponsors</title>
<g id="a_node1"><a xlink:href="../../tables/event_sponsors.html" xlink:title="event_sponsors" target="_top">
<polygon fill="#ffffff" stroke="transparent" points="239,-93.2 239,-198.2 359,-198.2 359,-93.2 239,-93.2"/>
<polygon fill="#f5f5f5" stroke="transparent" points="239,-174.7 239,-197.7 359,-197.7 359,-174.7 239,-174.7"/>
<polygon fill="none" stroke="#000000" points="239,-174.7 239,-197.7 359,-197.7 359,-174.7 239,-174.7"/>
<text text-anchor="start" x="243.681" y="-183.8" font-family="Helvetica,sans-Serif" font-weight="bold" font-size="11.00" fill="#000000">event_sponsors</text>
<text text-anchor="start" x="324.5219" y="-182.8" font-family="Helvetica,sans-Serif" font-size="11.00" fill="#000000">[table]</text>
<polygon fill="none" stroke="#000000" points="239,-152.7 239,-174.7 359,-174.7 359,-152.7 239,-152.7"/>
<image xlink:href="../../images/primaryKeys.png" width="11px" height="12px" preserveAspectRatio="xMinYMin meet" x="244" y="-169.7"/>
<text text-anchor="start" x="263" y="-159.8" font-family="Helvetica,sans-Serif" font-size="11.00" fill="#000000">sponsor_id</text>
<polygon fill="none" stroke="#000000" points="239,-130.7 239,-152.7 359,-152.7 359,-130.7 239,-130.7"/>
<image xlink:href="../../images/primaryKeys.png" width="11px" height="12px" preserveAspectRatio="xMinYMin meet" x="244" y="-147.7"/>
<text text-anchor="start" x="263" y="-137.8" font-family="Helvetica,sans-Serif" font-size="11.00" fill="#000000">event_id</text>
<polygon fill="none" stroke="#000000" points="239,-111.7 239,-130.7 359,-130.7 359,-111.7 239,-111.7"/>
<text text-anchor="start" x="242" y="-117.8" font-family="Helvetica,sans-Serif" font-size="11.00" fill="#000000">...</text>
<polygon fill="#ffffff" stroke="transparent" points="239,-92.7 239,-111.7 284,-111.7 284,-92.7 239,-92.7"/>
<polygon fill="none" stroke="#000000" points="239,-92.7 239,-111.7 284,-111.7 284,-92.7 239,-92.7"/>
<text text-anchor="start" x="242" y="-98.8" font-family="Helvetica,sans-Serif" font-size="11.00" fill="#000000">&lt; 2</text>
<polygon fill="#ffffff" stroke="transparent" points="284,-92.7 284,-111.7 334,-111.7 334,-92.7 284,-92.7"/>
<polygon fill="none" stroke="#000000" points="284,-92.7 284,-111.7 334,-111.7 334,-92.7 284,-92.7"/>
<text text-anchor="start" x="298.6105" y="-98.8" font-family="Helvetica,sans-Serif" font-size="11.00" fill="#000000">0 rows</text>
<polygon fill="#ffffff" stroke="transparent" points="334,-92.7 334,-111.7 359,-111.7 359,-92.7 334,-92.7"/>
<polygon fill="none" stroke="#000000" points="334,-92.7 334,-111.7 359,-111.7 359,-92.7 334,-92.7"/>
<text text-anchor="start" x="349.8862" y="-98.8" font-family="Helvetica,sans-Serif" font-size="11.00" fill="#000000"> &#160;</text>
</a>
</g>
</g>
<!-- events -->
<g id="node2" class="node">
<title>events</title>
<g id="a_node2"><a xlink:href="../../tables/events.html" xlink:title="events" target="_top">
<polygon fill="#ffffff" stroke="transparent" points="59,-38.2 59,-99.2 139,-99.2 139,-38.2 59,-38.2"/>
<polygon fill="#f5f5f5" stroke="transparent" points="59,-75.7 59,-98.7 139,-98.7 139,-75.7 59,-75.7"/>
<polygon fill="none" stroke="#000000" points="59,-75.7 59,-98.7 139,-98.7 139,-75.7 59,-75.7"/>
<text text-anchor="start" x="64" y="-84.8" font-family="Helvetica,sans-Serif" font-weight="bold" font-size="11.00" fill="#000000">events</text>
<text text-anchor="start" x="104.0437" y="-83.8" font-family="Helvetica,sans-Serif" font-size="11.00" fill="#000000">[table]</text>
<polygon fill="none" stroke="#000000" points="59,-56.7 59,-75.7 139,-75.7 139,-56.7 59,-56.7"/>
<text text-anchor="start" x="62" y="-62.8" font-family="Helvetica,sans-Serif" font-size="11.00" fill="#000000">...</text>
<polygon fill="#ffffff" stroke="transparent" points="59,-37.7 59,-56.7 80,-56.7 80,-37.7 59,-37.7"/>
<polygon fill="none" stroke="#000000" points="59,-37.7 59,-56.7 80,-56.7 80,-37.7 59,-37.7"/>
<text text-anchor="start" x="61.7027" y="-43.8" font-family="Helvetica,sans-Serif" font-size="11.00" fill="#000000">&lt; 2</text>
<polygon fill="#ffffff" stroke="transparent" points="80,-37.7 80,-56.7 118,-56.7 118,-37.7 80,-37.7"/>
<polygon fill="none" stroke="#000000" points="80,-37.7 80,-56.7 118,-56.7 118,-37.7 80,-37.7"/>
<text text-anchor="start" x="82.8053" y="-43.8" font-family="Helvetica,sans-Serif" font-size="11.00" fill="#000000">0 rows</text>
<polygon fill="#ffffff" stroke="transparent" points="118,-37.7 118,-56.7 139,-56.7 139,-37.7 118,-37.7"/>
<polygon fill="none" stroke="#000000" points="118,-37.7 118,-56.7 139,-56.7 139,-37.7 118,-37.7"/>
<text text-anchor="start" x="120.7027" y="-43.8" font-family="Helvetica,sans-Serif" font-size="11.00" fill="#000000">3 &gt;</text>
</a>
</g>
</g>
<!-- event_sponsors&#45;&gt;events -->
<g id="edge1" class="edge">
<title>event_sponsors:w&#45;&gt;events:e</title>
<path fill="none" stroke="#000000" d="M224.7809,-138.3056C214.8149,-132.4281 211.4957,-119.997 198,-109.7 171.9939,-89.8579 171.7112,-65.7 139,-65.7"/>
<polygon fill="#000000" stroke="#000000" points="231.2186,-139.8424 238.1641,-145.2016 235.1093,-140.7712 239,-141.7 239,-141.7 239,-141.7 235.1093,-140.7712 239.8359,-138.1984 231.2186,-139.8424 231.2186,-139.8424"/>
<ellipse fill="none" stroke="#000000" cx="228.1061" cy="-139.0993" rx="3.2" ry="3.2"/>
</g>
<!-- sponsors -->
<g id="node3" class="node">
<title>sponsors</title>
<g id="a_node3"><a xlink:href="../../tables/sponsors.html" xlink:title="sponsors" target="_top">
<polygon fill="#ffffff" stroke="transparent" points="8,-120.7 8,-320.7 190,-320.7 190,-120.7 8,-120.7"/>
<polygon fill="#f5f5f5" stroke="transparent" points="10,-295.7 10,-318.7 188,-318.7 188,-295.7 10,-295.7"/>
<polygon fill="none" stroke="#000000" points="10,-295.7 10,-318.7 188,-318.7 188,-295.7 10,-295.7"/>
<text text-anchor="start" x="15" y="-304.8" font-family="Helvetica,sans-Serif" font-weight="bold" font-size="11.00" fill="#000000">sponsors</text>
<text text-anchor="start" x="153.0437" y="-303.8" font-family="Helvetica,sans-Serif" font-size="11.00" fill="#000000">[table]</text>
<polygon fill="none" stroke="#000000" points="10,-273.7 10,-295.7 98,-295.7 98,-273.7 10,-273.7"/>
<text text-anchor="start" x="30" y="-280.8" font-family="Helvetica,sans-Serif" font-size="11.00" fill="#000000">created_at</text>
<polygon fill="none" stroke="#000000" points="98,-273.7 98,-295.7 188,-295.7 188,-273.7 98,-273.7"/>
<text text-anchor="start" x="101" y="-281.4" font-family="Helvetica,sans-Serif" font-size="11.00" fill="#000000">timestamp[26,3]</text>
<polygon fill="none" stroke="#000000" points="10,-251.7 10,-273.7 98,-273.7 98,-251.7 10,-251.7"/>
<text text-anchor="start" x="30" y="-258.8" font-family="Helvetica,sans-Serif" font-size="11.00" fill="#000000">updated_at</text>
<polygon fill="none" stroke="#000000" points="98,-251.7 98,-273.7 188,-273.7 188,-251.7 98,-251.7"/>
<text text-anchor="start" x="101" y="-259.4" font-family="Helvetica,sans-Serif" font-size="11.00" fill="#000000">timestamp[26,3]</text>
<polygon fill="none" stroke="#000000" points="10,-229.7 10,-251.7 98,-251.7 98,-229.7 10,-229.7"/>
<image xlink:href="../../images/primaryKeys.png" width="11px" height="12px" preserveAspectRatio="xMinYMin meet" x="15" y="-246.7"/>
<text text-anchor="start" x="30" y="-236.8" font-family="Helvetica,sans-Serif" font-size="11.00" fill="#000000">id</text>
<polygon fill="none" stroke="#000000" points="98,-229.7 98,-251.7 188,-251.7 188,-229.7 98,-229.7"/>
<text text-anchor="start" x="101" y="-237.4" font-family="Helvetica,sans-Serif" font-size="11.00" fill="#000000">serial[10]</text>
<polygon fill="none" stroke="#000000" points="10,-207.7 10,-229.7 98,-229.7 98,-207.7 10,-207.7"/>
<text text-anchor="start" x="30" y="-214.8" font-family="Helvetica,sans-Serif" font-size="11.00" fill="#000000">name</text>
<polygon fill="none" stroke="#000000" points="98,-207.7 98,-229.7 188,-229.7 188,-207.7 98,-207.7"/>
<text text-anchor="start" x="100.5042" y="-215.4" font-family="Helvetica,sans-Serif" font-size="11.00" fill="#000000">text[2147483647]</text>
<polygon fill="none" stroke="#000000" points="10,-185.7 10,-207.7 98,-207.7 98,-185.7 10,-185.7"/>
<text text-anchor="start" x="30" y="-192.8" font-family="Helvetica,sans-Serif" font-size="11.00" fill="#000000">website</text>
<polygon fill="none" stroke="#000000" points="98,-185.7 98,-207.7 188,-207.7 188,-185.7 98,-185.7"/>
<text text-anchor="start" x="100.5042" y="-193.4" font-family="Helvetica,sans-Serif" font-size="11.00" fill="#000000">text[2147483647]</text>
<polygon fill="none" stroke="#000000" points="10,-163.7 10,-185.7 98,-185.7 98,-163.7 10,-163.7"/>
<text text-anchor="start" x="30" y="-170.8" font-family="Helvetica,sans-Serif" font-size="11.00" fill="#000000">logo_path</text>
<polygon fill="none" stroke="#000000" points="98,-163.7 98,-185.7 188,-185.7 188,-163.7 98,-163.7"/>
<text text-anchor="start" x="100.5042" y="-171.4" font-family="Helvetica,sans-Serif" font-size="11.00" fill="#000000">text[2147483647]</text>
<polygon fill="none" stroke="#000000" points="10,-141.7 10,-163.7 98,-163.7 98,-141.7 10,-141.7"/>
<text text-anchor="start" x="30" y="-148.8" font-family="Helvetica,sans-Serif" font-size="11.00" fill="#000000">type</text>
<polygon fill="none" stroke="#000000" points="98,-141.7 98,-163.7 188,-163.7 188,-141.7 98,-141.7"/>
<text text-anchor="start" x="100.5042" y="-149.4" font-family="Helvetica,sans-Serif" font-size="11.00" fill="#000000">text[2147483647]</text>
<polygon fill="#ffffff" stroke="transparent" points="10,-122.7 10,-141.7 45,-141.7 45,-122.7 10,-122.7"/>
<polygon fill="none" stroke="#000000" points="10,-122.7 10,-141.7 45,-141.7 45,-122.7 10,-122.7"/>
<text text-anchor="start" x="13" y="-128.8" font-family="Helvetica,sans-Serif" font-size="11.00" fill="#000000">&lt; 0</text>
<polygon fill="#ffffff" stroke="transparent" points="45,-122.7 45,-141.7 98,-141.7 98,-122.7 45,-122.7"/>
<polygon fill="none" stroke="#000000" points="45,-122.7 45,-141.7 98,-141.7 98,-122.7 45,-122.7"/>
<text text-anchor="start" x="62.6105" y="-128.8" font-family="Helvetica,sans-Serif" font-size="11.00" fill="#000000">0 rows</text>
<polygon fill="#ffffff" stroke="transparent" points="98,-122.7 98,-141.7 188,-141.7 188,-122.7 98,-122.7"/>
<polygon fill="none" stroke="#000000" points="98,-122.7 98,-141.7 188,-141.7 188,-122.7 98,-122.7"/>
<text text-anchor="start" x="169.4053" y="-128.8" font-family="Helvetica,sans-Serif" font-size="11.00" fill="#000000">1 &gt;</text>
<polygon fill="none" stroke="#000000" stroke-width="2" points="9,-121.7 9,-319.7 189,-319.7 189,-121.7 9,-121.7"/>
</a>
</g>
</g>
<!-- event_sponsors&#45;&gt;sponsors -->
<g id="edge2" class="edge">
<title>event_sponsors:w&#45;&gt;sponsors:e</title>
<path fill="none" stroke="#000000" d="M225.0177,-168.2861C205.594,-184.8628 222.9549,-240.7 188,-240.7"/>
<polygon fill="#000000" stroke="#000000" points="231.3984,-166.1933 240.122,-167.1207 235.1992,-164.9466 239,-163.7 239,-163.7 239,-163.7 235.1992,-164.9466 237.878,-160.2793 231.3984,-166.1933 231.3984,-166.1933"/>
<ellipse fill="none" stroke="#000000" cx="228.3578" cy="-167.1906" rx="3.2" ry="3.2"/>
</g>
</g>
</svg>
