<?xml version="1.0" encoding="UTF-8" standalone="no"?>
<!DOCTYPE svg PUBLIC "-//W3C//DTD SVG 1.1//EN"
 "http://www.w3.org/Graphics/SVG/1.1/DTD/svg11.dtd">
<!-- Generated by graphviz version 2.40.1 (20161225.0304)
 -->
<!-- Title: twoDegreesRelationshipsDiagram Pages: 1 -->
<svg width="394pt" height="333pt"
 viewBox="0.00 0.00 394.00 332.70" xmlns="http://www.w3.org/2000/svg" xmlns:xlink="http://www.w3.org/1999/xlink">
<g id="graph0" class="graph" transform="scale(1 1) rotate(0) translate(4 328.7)">
<title>twoDegreesRelationshipsDiagram</title>
<polygon fill="#ffffff" stroke="transparent" points="-4,4 -4,-328.7 390,-328.7 390,4 -4,4"/>
<text text-anchor="middle" x="72.4936" y="-7.3" font-family="Helvetica,sans-Serif" font-size="11.00" fill="#000000">Generated by SchemaSpy</text>
<!-- event_sponsors -->
<g id="node1" class="node">
<title>event_sponsors</title>
<g id="a_node1"><a xlink:href="../../tables/event_sponsors.html" xlink:title="event_sponsors" target="_top">
<polygon fill="#ffffff" stroke="transparent" points="258,-115.2 258,-242.2 378,-242.2 378,-115.2 258,-115.2"/>
<polygon fill="#f5f5f5" stroke="transparent" points="258,-218.7 258,-241.7 378,-241.7 378,-218.7 258,-218.7"/>
<polygon fill="none" stroke="#000000" points="258,-218.7 258,-241.7 378,-241.7 378,-218.7 258,-218.7"/>
<text text-anchor="start" x="262.681" y="-227.8" font-family="Helvetica,sans-Serif" font-weight="bold" font-size="11.00" fill="#000000">event_sponsors</text>
<text text-anchor="start" x="343.5219" y="-226.8" font-family="Helvetica,sans-Serif" font-size="11.00" fill="#000000">[table]</text>
<polygon fill="none" stroke="#000000" points="258,-196.7 258,-218.7 378,-218.7 378,-196.7 258,-196.7"/>
<image xlink:href="../../images/primaryKeys.png" width="11px" height="12px" preserveAspectRatio="xMinYMin meet" x="263" y="-213.7"/>
<text text-anchor="start" x="282" y="-203.8" font-family="Helvetica,sans-Serif" font-size="11.00" fill="#000000">id</text>
<polygon fill="none" stroke="#000000" points="258,-174.7 258,-196.7 378,-196.7 378,-174.7 258,-174.7"/>
<image xlink:href="../../images/foreignKeys.png" width="11px" height="12px" preserveAspectRatio="xMinYMin meet" x="263" y="-191.7"/>
<text text-anchor="start" x="282" y="-181.8" font-family="Helvetica,sans-Serif" font-size="11.00" fill="#000000">sponsor_id</text>
<polygon fill="none" stroke="#000000" points="258,-152.7 258,-174.7 378,-174.7 378,-152.7 258,-152.7"/>
<image xlink:href="../../images/foreignKeys.png" width="11px" height="12px" preserveAspectRatio="xMinYMin meet" x="263" y="-169.7"/>
<text text-anchor="start" x="282" y="-159.8" font-family="Helvetica,sans-Serif" font-size="11.00" fill="#000000">event_id</text>
<polygon fill="none" stroke="#000000" points="258,-133.7 258,-152.7 378,-152.7 378,-133.7 258,-133.7"/>
<text text-anchor="start" x="261" y="-139.8" font-family="Helvetica,sans-Serif" font-size="11.00" fill="#000000">...</text>
<polygon fill="#ffffff" stroke="transparent" points="258,-114.7 258,-133.7 303,-133.7 303,-114.7 258,-114.7"/>
<polygon fill="none" stroke="#000000" points="258,-114.7 258,-133.7 303,-133.7 303,-114.7 258,-114.7"/>
<text text-anchor="start" x="261" y="-120.8" font-family="Helvetica,sans-Serif" font-size="11.00" fill="#000000">&lt; 2</text>
<polygon fill="#ffffff" stroke="transparent" points="303,-114.7 303,-133.7 353,-133.7 353,-114.7 303,-114.7"/>
<polygon fill="none" stroke="#000000" points="303,-114.7 303,-133.7 353,-133.7 353,-114.7 303,-114.7"/>
<text text-anchor="start" x="317.6105" y="-120.8" font-family="Helvetica,sans-Serif" font-size="11.00" fill="#000000">0 rows</text>
<polygon fill="#ffffff" stroke="transparent" points="353,-114.7 353,-133.7 378,-133.7 378,-114.7 353,-114.7"/>
<polygon fill="none" stroke="#000000" points="353,-114.7 353,-133.7 378,-133.7 378,-114.7 353,-114.7"/>
<text text-anchor="start" x="368.8862" y="-120.8" font-family="Helvetica,sans-Serif" font-size="11.00" fill="#000000"> &#160;</text>
</a>
</g>
</g>
<!-- events -->
<g id="node2" class="node">
<title>events</title>
<g id="a_node2"><a xlink:href="../../tables/events.html" xlink:title="events" target="_top">
<polygon fill="#ffffff" stroke="transparent" points="68.5,-38.2 68.5,-99.2 148.5,-99.2 148.5,-38.2 68.5,-38.2"/>
<polygon fill="#f5f5f5" stroke="transparent" points="68.5,-75.7 68.5,-98.7 148.5,-98.7 148.5,-75.7 68.5,-75.7"/>
<polygon fill="none" stroke="#000000" points="68.5,-75.7 68.5,-98.7 148.5,-98.7 148.5,-75.7 68.5,-75.7"/>
<text text-anchor="start" x="73.5" y="-84.8" font-family="Helvetica,sans-Serif" font-weight="bold" font-size="11.00" fill="#000000">events</text>
<text text-anchor="start" x="113.5437" y="-83.8" font-family="Helvetica,sans-Serif" font-size="11.00" fill="#000000">[table]</text>
<polygon fill="none" stroke="#000000" points="68.5,-56.7 68.5,-75.7 148.5,-75.7 148.5,-56.7 68.5,-56.7"/>
<text text-anchor="start" x="71.5" y="-62.8" font-family="Helvetica,sans-Serif" font-size="11.00" fill="#000000">...</text>
<polygon fill="#ffffff" stroke="transparent" points="68.5,-37.7 68.5,-56.7 89.5,-56.7 89.5,-37.7 68.5,-37.7"/>
<polygon fill="none" stroke="#000000" points="68.5,-37.7 68.5,-56.7 89.5,-56.7 89.5,-37.7 68.5,-37.7"/>
<text text-anchor="start" x="71.2027" y="-43.8" font-family="Helvetica,sans-Serif" font-size="11.00" fill="#000000">&lt; 2</text>
<polygon fill="#ffffff" stroke="transparent" points="89.5,-37.7 89.5,-56.7 127.5,-56.7 127.5,-37.7 89.5,-37.7"/>
<polygon fill="none" stroke="#000000" points="89.5,-37.7 89.5,-56.7 127.5,-56.7 127.5,-37.7 89.5,-37.7"/>
<text text-anchor="start" x="92.3053" y="-43.8" font-family="Helvetica,sans-Serif" font-size="11.00" fill="#000000">0 rows</text>
<polygon fill="#ffffff" stroke="transparent" points="127.5,-37.7 127.5,-56.7 148.5,-56.7 148.5,-37.7 127.5,-37.7"/>
<polygon fill="none" stroke="#000000" points="127.5,-37.7 127.5,-56.7 148.5,-56.7 148.5,-37.7 127.5,-37.7"/>
<text text-anchor="start" x="130.2027" y="-43.8" font-family="Helvetica,sans-Serif" font-size="11.00" fill="#000000">4 &gt;</text>
</a>
</g>
</g>
<!-- event_sponsors&#45;&gt;events -->
<g id="edge1" class="edge">
<title>event_sponsors:w&#45;&gt;events:e</title>
<path fill="none" stroke="#000000" d="M243.7546,-159.6601C231.1312,-150.131 234.4595,-125.8411 217,-109.7 190.4306,-85.1368 184.684,-65.7 148.5,-65.7"/>
<polygon fill="#000000" stroke="#000000" points="250.3035,-161.5173 257.0178,-167.1634 254.1518,-162.6086 258,-163.7 258,-163.7 258,-163.7 254.1518,-162.6086 258.9822,-160.2366 250.3035,-161.5173 250.3035,-161.5173"/>
<ellipse fill="none" stroke="#000000" cx="247.2249" cy="-160.6442" rx="3.2" ry="3.2"/>
</g>
<!-- sponsors -->
<g id="node3" class="node">
<title>sponsors</title>
<g id="a_node3"><a xlink:href="../../tables/sponsors.html" xlink:title="sponsors" target="_top">
<polygon fill="#ffffff" stroke="transparent" points="8,-120.7 8,-320.7 209,-320.7 209,-120.7 8,-120.7"/>
<polygon fill="#f5f5f5" stroke="transparent" points="10.5,-295.7 10.5,-318.7 207.5,-318.7 207.5,-295.7 10.5,-295.7"/>
<polygon fill="none" stroke="#000000" points="10.5,-295.7 10.5,-318.7 207.5,-318.7 207.5,-295.7 10.5,-295.7"/>
<text text-anchor="start" x="15.5" y="-304.8" font-family="Helvetica,sans-Serif" font-weight="bold" font-size="11.00" fill="#000000">sponsors</text>
<text text-anchor="start" x="172.5437" y="-303.8" font-family="Helvetica,sans-Serif" font-size="11.00" fill="#000000">[table]</text>
<polygon fill="none" stroke="#000000" points="10.5,-273.7 10.5,-295.7 98.5,-295.7 98.5,-273.7 10.5,-273.7"/>
<image xlink:href="../../images/primaryKeys.png" width="11px" height="12px" preserveAspectRatio="xMinYMin meet" x="15.5" y="-290.7"/>
<text text-anchor="start" x="30.5" y="-280.8" font-family="Helvetica,sans-Serif" font-size="11.00" fill="#000000">id</text>
<polygon fill="none" stroke="#000000" points="98.5,-273.7 98.5,-295.7 207.5,-295.7 207.5,-273.7 98.5,-273.7"/>
<text text-anchor="start" x="101.5" y="-281.4" font-family="Helvetica,sans-Serif" font-size="11.00" fill="#000000">serial[10]</text>
<polygon fill="none" stroke="#000000" points="10.5,-251.7 10.5,-273.7 98.5,-273.7 98.5,-251.7 10.5,-251.7"/>
<text text-anchor="start" x="30.5" y="-258.8" font-family="Helvetica,sans-Serif" font-size="11.00" fill="#000000">created_at</text>
<polygon fill="none" stroke="#000000" points="98.5,-251.7 98.5,-273.7 207.5,-273.7 207.5,-251.7 98.5,-251.7"/>
<text text-anchor="start" x="101.5" y="-259.4" font-family="Helvetica,sans-Serif" font-size="11.00" fill="#000000">timestamp[29,6]</text>
<polygon fill="none" stroke="#000000" points="10.5,-229.7 10.5,-251.7 98.5,-251.7 98.5,-229.7 10.5,-229.7"/>
<text text-anchor="start" x="30.5" y="-236.8" font-family="Helvetica,sans-Serif" font-size="11.00" fill="#000000">updated_at</text>
<polygon fill="none" stroke="#000000" points="98.5,-229.7 98.5,-251.7 207.5,-251.7 207.5,-229.7 98.5,-229.7"/>
<text text-anchor="start" x="101.5" y="-237.4" font-family="Helvetica,sans-Serif" font-size="11.00" fill="#000000">timestamp[29,6]</text>
<polygon fill="none" stroke="#000000" points="10.5,-207.7 10.5,-229.7 98.5,-229.7 98.5,-207.7 10.5,-207.7"/>
<text text-anchor="start" x="30.5" y="-214.8" font-family="Helvetica,sans-Serif" font-size="11.00" fill="#000000">name</text>
<polygon fill="none" stroke="#000000" points="98.5,-207.7 98.5,-229.7 207.5,-229.7 207.5,-207.7 98.5,-207.7"/>
<text text-anchor="start" x="101.0344" y="-215.4" font-family="Helvetica,sans-Serif" font-size="11.00" fill="#000000">varchar[2147483647]</text>
<polygon fill="none" stroke="#000000" points="10.5,-185.7 10.5,-207.7 98.5,-207.7 98.5,-185.7 10.5,-185.7"/>
<text text-anchor="start" x="30.5" y="-192.8" font-family="Helvetica,sans-Serif" font-size="11.00" fill="#000000">website</text>
<polygon fill="none" stroke="#000000" points="98.5,-185.7 98.5,-207.7 207.5,-207.7 207.5,-185.7 98.5,-185.7"/>
<text text-anchor="start" x="101.0344" y="-193.4" font-family="Helvetica,sans-Serif" font-size="11.00" fill="#000000">varchar[2147483647]</text>
<polygon fill="none" stroke="#000000" points="10.5,-163.7 10.5,-185.7 98.5,-185.7 98.5,-163.7 10.5,-163.7"/>
<text text-anchor="start" x="30.5" y="-170.8" font-family="Helvetica,sans-Serif" font-size="11.00" fill="#000000">logo_path</text>
<polygon fill="none" stroke="#000000" points="98.5,-163.7 98.5,-185.7 207.5,-185.7 207.5,-163.7 98.5,-163.7"/>
<text text-anchor="start" x="101.0344" y="-171.4" font-family="Helvetica,sans-Serif" font-size="11.00" fill="#000000">varchar[2147483647]</text>
<polygon fill="none" stroke="#000000" points="10.5,-141.7 10.5,-163.7 98.5,-163.7 98.5,-141.7 10.5,-141.7"/>
<text text-anchor="start" x="30.5" y="-148.8" font-family="Helvetica,sans-Serif" font-size="11.00" fill="#000000">type</text>
<polygon fill="none" stroke="#000000" points="98.5,-141.7 98.5,-163.7 207.5,-163.7 207.5,-141.7 98.5,-141.7"/>
<text text-anchor="start" x="101.0344" y="-149.4" font-family="Helvetica,sans-Serif" font-size="11.00" fill="#000000">varchar[2147483647]</text>
<polygon fill="#ffffff" stroke="transparent" points="10.5,-122.7 10.5,-141.7 45.5,-141.7 45.5,-122.7 10.5,-122.7"/>
<polygon fill="none" stroke="#000000" points="10.5,-122.7 10.5,-141.7 45.5,-141.7 45.5,-122.7 10.5,-122.7"/>
<text text-anchor="start" x="13.5" y="-128.8" font-family="Helvetica,sans-Serif" font-size="11.00" fill="#000000">&lt; 0</text>
<polygon fill="#ffffff" stroke="transparent" points="45.5,-122.7 45.5,-141.7 98.5,-141.7 98.5,-122.7 45.5,-122.7"/>
<polygon fill="none" stroke="#000000" points="45.5,-122.7 45.5,-141.7 98.5,-141.7 98.5,-122.7 45.5,-122.7"/>
<text text-anchor="start" x="63.1105" y="-128.8" font-family="Helvetica,sans-Serif" font-size="11.00" fill="#000000">0 rows</text>
<polygon fill="#ffffff" stroke="transparent" points="98.5,-122.7 98.5,-141.7 207.5,-141.7 207.5,-122.7 98.5,-122.7"/>
<polygon fill="none" stroke="#000000" points="98.5,-122.7 98.5,-141.7 207.5,-141.7 207.5,-122.7 98.5,-122.7"/>
<text text-anchor="start" x="188.9053" y="-128.8" font-family="Helvetica,sans-Serif" font-size="11.00" fill="#000000">1 &gt;</text>
<polygon fill="none" stroke="#000000" stroke-width="2" points="9,-121.7 9,-319.7 208,-319.7 208,-121.7 9,-121.7"/>
</a>
</g>
</g>
<!-- event_sponsors&#45;&gt;sponsors -->
<g id="edge2" class="edge">
<title>event_sponsors:w&#45;&gt;sponsors:e</title>
<path fill="none" stroke="#000000" d="M244.0064,-189.7035C218.8685,-208.2249 250.9126,-284.7 207.5,-284.7"/>
<polygon fill="#000000" stroke="#000000" points="250.3086,-187.9005 258.9902,-189.1611 254.1543,-186.8003 258,-185.7 258,-185.7 258,-185.7 254.1543,-186.8003 257.0098,-182.2389 250.3086,-187.9005 250.3086,-187.9005"/>
<ellipse fill="none" stroke="#000000" cx="247.232" cy="-188.7807" rx="3.2" ry="3.2"/>
</g>
</g>
</svg>
