<?xml version="1.0" encoding="UTF-8" standalone="no"?>
<!DOCTYPE svg PUBLIC "-//W3C//DTD SVG 1.1//EN"
 "http://www.w3.org/Graphics/SVG/1.1/DTD/svg11.dtd">
<!-- Generated by graphviz version 2.40.1 (20161225.0304)
 -->
<!-- Title: twoDegreesRelationshipsDiagram Pages: 1 -->
<svg width="515pt" height="371pt"
 viewBox="0.00 0.00 515.00 370.70" xmlns="http://www.w3.org/2000/svg" xmlns:xlink="http://www.w3.org/1999/xlink">
<g id="graph0" class="graph" transform="scale(1 1) rotate(0) translate(4 366.7)">
<title>twoDegreesRelationshipsDiagram</title>
<polygon fill="#ffffff" stroke="transparent" points="-4,4 -4,-366.7 511,-366.7 511,4 -4,4"/>
<text text-anchor="middle" x="72.4936" y="-7.3" font-family="Helvetica,sans-Serif" font-size="11.00" fill="#000000">Generated by SchemaSpy</text>
<!-- event_sponsors -->
<g id="node1" class="node">
<title>event_sponsors</title>
<g id="a_node1"><a xlink:href="../../tables/event_sponsors.html" xlink:title="event_sponsors" target="_top">
<polygon fill="#ffffff" stroke="transparent" points="334,-297.7 334,-358.7 454,-358.7 454,-297.7 334,-297.7"/>
<polygon fill="#f5f5f5" stroke="transparent" points="334,-335.2 334,-358.2 454,-358.2 454,-335.2 334,-335.2"/>
<polygon fill="none" stroke="#000000" points="334,-335.2 334,-358.2 454,-358.2 454,-335.2 334,-335.2"/>
<text text-anchor="start" x="338.681" y="-344.3" font-family="Helvetica,sans-Serif" font-weight="bold" font-size="11.00" fill="#000000">event_sponsors</text>
<text text-anchor="start" x="419.5219" y="-343.3" font-family="Helvetica,sans-Serif" font-size="11.00" fill="#000000">[table]</text>
<polygon fill="none" stroke="#000000" points="334,-316.2 334,-335.2 454,-335.2 454,-316.2 334,-316.2"/>
<text text-anchor="start" x="337" y="-322.3" font-family="Helvetica,sans-Serif" font-size="11.00" fill="#000000">...</text>
<polygon fill="#ffffff" stroke="transparent" points="334,-297.2 334,-316.2 379,-316.2 379,-297.2 334,-297.2"/>
<polygon fill="none" stroke="#000000" points="334,-297.2 334,-316.2 379,-316.2 379,-297.2 334,-297.2"/>
<text text-anchor="start" x="337" y="-303.3" font-family="Helvetica,sans-Serif" font-size="11.00" fill="#000000">&lt; 2</text>
<polygon fill="#ffffff" stroke="transparent" points="379,-297.2 379,-316.2 429,-316.2 429,-297.2 379,-297.2"/>
<polygon fill="none" stroke="#000000" points="379,-297.2 379,-316.2 429,-316.2 429,-297.2 379,-297.2"/>
<text text-anchor="start" x="393.6105" y="-303.3" font-family="Helvetica,sans-Serif" font-size="11.00" fill="#000000">8 rows</text>
<polygon fill="#ffffff" stroke="transparent" points="429,-297.2 429,-316.2 454,-316.2 454,-297.2 429,-297.2"/>
<polygon fill="none" stroke="#000000" points="429,-297.2 429,-316.2 454,-316.2 454,-297.2 429,-297.2"/>
<text text-anchor="start" x="444.8862" y="-303.3" font-family="Helvetica,sans-Serif" font-size="11.00" fill="#000000"> &#160;</text>
</a>
</g>
</g>
<!-- events -->
<g id="node2" class="node">
<title>events</title>
<g id="a_node2"><a xlink:href="../../tables/events.html" xlink:title="events" target="_top">
<polygon fill="#ffffff" stroke="transparent" points="142,-150.7 142,-277.7 240,-277.7 240,-150.7 142,-150.7"/>
<polygon fill="#f5f5f5" stroke="transparent" points="142,-254.2 142,-277.2 240,-277.2 240,-254.2 142,-254.2"/>
<polygon fill="none" stroke="#000000" points="142,-254.2 142,-277.2 240,-277.2 240,-254.2 142,-254.2"/>
<text text-anchor="start" x="147" y="-263.3" font-family="Helvetica,sans-Serif" font-weight="bold" font-size="11.00" fill="#000000">events</text>
<text text-anchor="start" x="205.0437" y="-262.3" font-family="Helvetica,sans-Serif" font-size="11.00" fill="#000000">[table]</text>
<polygon fill="none" stroke="#000000" points="142,-232.2 142,-254.2 240,-254.2 240,-232.2 142,-232.2"/>
<image xlink:href="../../images/primaryKeys.png" width="11px" height="12px" preserveAspectRatio="xMinYMin meet" x="147" y="-249.2"/>
<text text-anchor="start" x="162" y="-239.3" font-family="Helvetica,sans-Serif" font-size="11.00" fill="#000000">id</text>
<polygon fill="none" stroke="#000000" points="142,-210.2 142,-232.2 240,-232.2 240,-210.2 142,-210.2"/>
<image xlink:href="../../images/foreignKeys.png" width="11px" height="12px" preserveAspectRatio="xMinYMin meet" x="147" y="-227.2"/>
<text text-anchor="start" x="162" y="-217.3" font-family="Helvetica,sans-Serif" font-size="11.00" fill="#000000">venue_id</text>
<polygon fill="none" stroke="#000000" points="142,-188.2 142,-210.2 240,-210.2 240,-188.2 142,-188.2"/>
<image xlink:href="../../images/foreignKeys.png" width="11px" height="12px" preserveAspectRatio="xMinYMin meet" x="147" y="-205.2"/>
<text text-anchor="start" x="162" y="-195.3" font-family="Helvetica,sans-Serif" font-size="11.00" fill="#000000">chapter_id</text>
<polygon fill="none" stroke="#000000" points="142,-169.2 142,-188.2 240,-188.2 240,-169.2 142,-169.2"/>
<text text-anchor="start" x="145" y="-175.3" font-family="Helvetica,sans-Serif" font-size="11.00" fill="#000000">...</text>
<polygon fill="#ffffff" stroke="transparent" points="142,-150.2 142,-169.2 172,-169.2 172,-150.2 142,-150.2"/>
<polygon fill="none" stroke="#000000" points="142,-150.2 142,-169.2 172,-169.2 172,-150.2 142,-150.2"/>
<text text-anchor="start" x="145" y="-156.3" font-family="Helvetica,sans-Serif" font-size="11.00" fill="#000000">&lt; 2</text>
<polygon fill="#ffffff" stroke="transparent" points="172,-150.2 172,-169.2 214,-169.2 214,-150.2 172,-150.2"/>
<polygon fill="none" stroke="#000000" points="172,-150.2 172,-169.2 214,-169.2 214,-150.2 172,-150.2"/>
<text text-anchor="start" x="178.6105" y="-156.3" font-family="Helvetica,sans-Serif" font-size="11.00" fill="#000000">4 rows</text>
<polygon fill="#ffffff" stroke="transparent" points="214,-150.2 214,-169.2 240,-169.2 240,-150.2 214,-150.2"/>
<polygon fill="none" stroke="#000000" points="214,-150.2 214,-169.2 240,-169.2 240,-150.2 214,-150.2"/>
<text text-anchor="start" x="221.4053" y="-156.3" font-family="Helvetica,sans-Serif" font-size="11.00" fill="#000000">3 &gt;</text>
</a>
</g>
</g>
<!-- event_sponsors&#45;&gt;events -->
<g id="edge1" class="edge">
<title>event_sponsors:w&#45;&gt;events:e</title>
<path fill="none" stroke="#000000" d="M319.7318,-323.1802C303.3919,-317.8226 298.5138,-302.6029 281,-287.2 260.9285,-269.5477 266.7296,-243.2 240,-243.2"/>
<polygon fill="#000000" stroke="#000000" points="326.079,-324.0787 333.4954,-328.7645 330.0395,-324.6393 334,-325.2 334,-325.2 334,-325.2 330.0395,-324.6393 334.5046,-321.6355 326.079,-324.0787 326.079,-324.0787"/>
<ellipse fill="none" stroke="#000000" cx="322.9106" cy="-323.6301" rx="3.2" ry="3.2"/>
</g>
<!-- chapters -->
<g id="node3" class="node">
<title>chapters</title>
<g id="a_node3"><a xlink:href="../../tables/chapters.html" xlink:title="chapters" target="_top">
<polygon fill="#ffffff" stroke="transparent" points="8,-141.7 8,-202.7 93,-202.7 93,-141.7 8,-141.7"/>
<polygon fill="#f5f5f5" stroke="transparent" points="8.5,-179.2 8.5,-202.2 93.5,-202.2 93.5,-179.2 8.5,-179.2"/>
<polygon fill="none" stroke="#000000" points="8.5,-179.2 8.5,-202.2 93.5,-202.2 93.5,-179.2 8.5,-179.2"/>
<text text-anchor="start" x="13.4108" y="-188.3" font-family="Helvetica,sans-Serif" font-weight="bold" font-size="11.00" fill="#000000">chapters</text>
<text text-anchor="start" x="59.0219" y="-187.3" font-family="Helvetica,sans-Serif" font-size="11.00" fill="#000000">[table]</text>
<polygon fill="none" stroke="#000000" points="8.5,-160.2 8.5,-179.2 93.5,-179.2 93.5,-160.2 8.5,-160.2"/>
<text text-anchor="start" x="11.5" y="-166.3" font-family="Helvetica,sans-Serif" font-size="11.00" fill="#000000">...</text>
<polygon fill="#ffffff" stroke="transparent" points="8.5,-141.2 8.5,-160.2 31.5,-160.2 31.5,-141.2 8.5,-141.2"/>
<polygon fill="none" stroke="#000000" points="8.5,-141.2 8.5,-160.2 31.5,-160.2 31.5,-141.2 8.5,-141.2"/>
<text text-anchor="start" x="11.5" y="-147.3" font-family="Helvetica,sans-Serif" font-size="11.00" fill="#000000">&lt; 1</text>
<polygon fill="#ffffff" stroke="transparent" points="31.5,-141.2 31.5,-160.2 70.5,-160.2 70.5,-141.2 31.5,-141.2"/>
<polygon fill="none" stroke="#000000" points="31.5,-141.2 31.5,-160.2 70.5,-160.2 70.5,-141.2 31.5,-141.2"/>
<text text-anchor="start" x="35.1105" y="-147.3" font-family="Helvetica,sans-Serif" font-size="11.00" fill="#000000">4 rows</text>
<polygon fill="#ffffff" stroke="transparent" points="70.5,-141.2 70.5,-160.2 93.5,-160.2 93.5,-141.2 70.5,-141.2"/>
<polygon fill="none" stroke="#000000" points="70.5,-141.2 70.5,-160.2 93.5,-160.2 93.5,-141.2 70.5,-141.2"/>
<text text-anchor="start" x="74.9053" y="-147.3" font-family="Helvetica,sans-Serif" font-size="11.00" fill="#000000">4 &gt;</text>
</a>
</g>
</g>
<!-- events&#45;&gt;chapters -->
<g id="edge2" class="edge">
<title>events:w&#45;&gt;chapters:e</title>
<path fill="none" stroke="#000000" d="M128.0076,-195.0286C116.1688,-186.7854 112.9055,-169.2 93.5,-169.2"/>
<polygon fill="#000000" stroke="#000000" points="134.3334,-196.9144 140.9715,-202.65 138.1667,-198.0572 142,-199.2 142,-199.2 142,-199.2 138.1667,-198.0572 143.0285,-195.75 134.3334,-196.9144 134.3334,-196.9144"/>
<ellipse fill="none" stroke="#000000" cx="131.2668" cy="-196.0002" rx="3.2" ry="3.2"/>
</g>
<!-- venues -->
<g id="node4" class="node">
<title>venues</title>
<g id="a_node4"><a xlink:href="../../tables/venues.html" xlink:title="venues" target="_top">
<polygon fill="#ffffff" stroke="transparent" points="11.5,-223.7 11.5,-284.7 89.5,-284.7 89.5,-223.7 11.5,-223.7"/>
<polygon fill="#f5f5f5" stroke="transparent" points="11.5,-261.2 11.5,-284.2 89.5,-284.2 89.5,-261.2 11.5,-261.2"/>
<polygon fill="none" stroke="#000000" points="11.5,-261.2 11.5,-284.2 89.5,-284.2 89.5,-261.2 11.5,-261.2"/>
<text text-anchor="start" x="16.2702" y="-270.3" font-family="Helvetica,sans-Serif" font-weight="bold" font-size="11.00" fill="#000000">venues</text>
<text text-anchor="start" x="55.0219" y="-269.3" font-family="Helvetica,sans-Serif" font-size="11.00" fill="#000000">[table]</text>
<polygon fill="none" stroke="#000000" points="11.5,-242.2 11.5,-261.2 89.5,-261.2 89.5,-242.2 11.5,-242.2"/>
<text text-anchor="start" x="14.5" y="-248.3" font-family="Helvetica,sans-Serif" font-size="11.00" fill="#000000">...</text>
<polygon fill="#ffffff" stroke="transparent" points="11.5,-223.2 11.5,-242.2 26.5,-242.2 26.5,-223.2 11.5,-223.2"/>
<polygon fill="none" stroke="#000000" points="11.5,-223.2 11.5,-242.2 26.5,-242.2 26.5,-223.2 11.5,-223.2"/>
<text text-anchor="start" x="14.5" y="-229.3" font-family="Helvetica,sans-Serif" font-size="11.00" fill="#000000"> &#160;</text>
<polygon fill="#ffffff" stroke="transparent" points="26.5,-223.2 26.5,-242.2 66.5,-242.2 66.5,-223.2 26.5,-223.2"/>
<polygon fill="none" stroke="#000000" points="26.5,-223.2 26.5,-242.2 66.5,-242.2 66.5,-223.2 26.5,-223.2"/>
<text text-anchor="start" x="31.1105" y="-229.3" font-family="Helvetica,sans-Serif" font-size="11.00" fill="#000000">4 rows</text>
<polygon fill="#ffffff" stroke="transparent" points="66.5,-223.2 66.5,-242.2 89.5,-242.2 89.5,-223.2 66.5,-223.2"/>
<polygon fill="none" stroke="#000000" points="66.5,-223.2 66.5,-242.2 89.5,-242.2 89.5,-223.2 66.5,-223.2"/>
<text text-anchor="start" x="70.9053" y="-229.3" font-family="Helvetica,sans-Serif" font-size="11.00" fill="#000000">1 &gt;</text>
</a>
</g>
</g>
<!-- events&#45;&gt;venues -->
<g id="edge3" class="edge">
<title>events:w&#45;&gt;venues:e</title>
<path fill="none" stroke="#000000" d="M127.8122,-224.8786C114.3263,-232.8895 110.4955,-251.2 89.5,-251.2"/>
<polygon fill="#000000" stroke="#000000" points="134.2561,-223.2079 142.9035,-224.6848 138.128,-222.2039 142,-221.2 142,-221.2 142,-221.2 138.128,-222.2039 141.0965,-217.7152 134.2561,-223.2079 134.2561,-223.2079"/>
<ellipse fill="none" stroke="#000000" cx="131.1585" cy="-224.011" rx="3.2" ry="3.2"/>
</g>
<!-- rsvps -->
<g id="node5" class="node">
<title>rsvps</title>
<g id="a_node5"><a xlink:href="../../tables/rsvps.html" xlink:title="rsvps" target="_top">
<polygon fill="#ffffff" stroke="transparent" points="358.5,-215.7 358.5,-276.7 429.5,-276.7 429.5,-215.7 358.5,-215.7"/>
<polygon fill="#f5f5f5" stroke="transparent" points="359,-253.2 359,-276.2 430,-276.2 430,-253.2 359,-253.2"/>
<polygon fill="none" stroke="#000000" points="359,-253.2 359,-276.2 430,-276.2 430,-253.2 359,-253.2"/>
<text text-anchor="start" x="364" y="-262.3" font-family="Helvetica,sans-Serif" font-weight="bold" font-size="11.00" fill="#000000">rsvps</text>
<text text-anchor="start" x="395.0437" y="-261.3" font-family="Helvetica,sans-Serif" font-size="11.00" fill="#000000">[table]</text>
<polygon fill="none" stroke="#000000" points="359,-234.2 359,-253.2 430,-253.2 430,-234.2 359,-234.2"/>
<text text-anchor="start" x="362" y="-240.3" font-family="Helvetica,sans-Serif" font-size="11.00" fill="#000000">...</text>
<polygon fill="#ffffff" stroke="transparent" points="359,-215.2 359,-234.2 380,-234.2 380,-215.2 359,-215.2"/>
<polygon fill="none" stroke="#000000" points="359,-215.2 359,-234.2 380,-234.2 380,-215.2 359,-215.2"/>
<text text-anchor="start" x="361.7027" y="-221.3" font-family="Helvetica,sans-Serif" font-size="11.00" fill="#000000">&lt; 2</text>
<polygon fill="#ffffff" stroke="transparent" points="380,-215.2 380,-234.2 418,-234.2 418,-215.2 380,-215.2"/>
<polygon fill="none" stroke="#000000" points="380,-215.2 380,-234.2 418,-234.2 418,-215.2 380,-215.2"/>
<text text-anchor="start" x="382.8053" y="-221.3" font-family="Helvetica,sans-Serif" font-size="11.00" fill="#000000">0 rows</text>
<polygon fill="#ffffff" stroke="transparent" points="418,-215.2 418,-234.2 430,-234.2 430,-215.2 418,-215.2"/>
<polygon fill="none" stroke="#000000" points="418,-215.2 418,-234.2 430,-234.2 430,-215.2 418,-215.2"/>
<text text-anchor="start" x="420.9431" y="-221.3" font-family="Helvetica,sans-Serif" font-size="11.00" fill="#000000"> &#160;</text>
</a>
</g>
</g>
<!-- rsvps&#45;&gt;events -->
<g id="edge4" class="edge">
<title>rsvps:w&#45;&gt;events:e</title>
<path fill="none" stroke="#000000" d="M344.5662,-243.2C303.1504,-243.2 287.724,-243.2 240,-243.2"/>
<polygon fill="#000000" stroke="#000000" points="351,-243.2001 359,-246.8 355,-243.2 359,-243.2 359,-243.2 359,-243.2 355,-243.2 359,-239.6 351,-243.2001 351,-243.2001"/>
<ellipse fill="none" stroke="#000000" cx="347.8" cy="-243.2001" rx="3.2" ry="3.2"/>
</g>
<!-- tags -->
<g id="node6" class="node">
<title>tags</title>
<g id="a_node6"><a xlink:href="../../tables/tags.html" xlink:title="tags" target="_top">
<polygon fill="#ffffff" stroke="transparent" points="289,-38.2 289,-194.2 499,-194.2 499,-38.2 289,-38.2"/>
<polygon fill="#f5f5f5" stroke="transparent" points="291,-169.2 291,-192.2 497,-192.2 497,-169.2 291,-169.2"/>
<polygon fill="none" stroke="#000000" points="291,-169.2 291,-192.2 497,-192.2 497,-169.2 291,-169.2"/>
<text text-anchor="start" x="296" y="-178.3" font-family="Helvetica,sans-Serif" font-weight="bold" font-size="11.00" fill="#000000">tags</text>
<text text-anchor="start" x="462.0437" y="-177.3" font-family="Helvetica,sans-Serif" font-size="11.00" fill="#000000">[table]</text>
<polygon fill="none" stroke="#000000" points="291,-147.2 291,-169.2 388,-169.2 388,-147.2 291,-147.2"/>
<image xlink:href="../../images/primaryKeys.png" width="11px" height="12px" preserveAspectRatio="xMinYMin meet" x="296" y="-164.2"/>
<text text-anchor="start" x="311" y="-154.3" font-family="Helvetica,sans-Serif" font-size="11.00" fill="#000000">id</text>
<polygon fill="none" stroke="#000000" points="388,-147.2 388,-169.2 497,-169.2 497,-147.2 388,-147.2"/>
<text text-anchor="start" x="391" y="-154.9" font-family="Helvetica,sans-Serif" font-size="11.00" fill="#000000">serial[10]</text>
<polygon fill="none" stroke="#000000" points="291,-125.2 291,-147.2 388,-147.2 388,-125.2 291,-125.2"/>
<text text-anchor="start" x="311" y="-132.3" font-family="Helvetica,sans-Serif" font-size="11.00" fill="#000000">name</text>
<polygon fill="none" stroke="#000000" points="388,-125.2 388,-147.2 497,-147.2 497,-125.2 388,-125.2"/>
<text text-anchor="start" x="390.5344" y="-132.9" font-family="Helvetica,sans-Serif" font-size="11.00" fill="#000000">varchar[2147483647]</text>
<polygon fill="none" stroke="#000000" points="291,-103.2 291,-125.2 388,-125.2 388,-103.2 291,-103.2"/>
<image xlink:href="../../images/foreignKeys.png" width="11px" height="12px" preserveAspectRatio="xMinYMin meet" x="296" y="-120.2"/>
<text text-anchor="start" x="311" y="-110.3" font-family="Helvetica,sans-Serif" font-size="11.00" fill="#000000">event_id</text>
<polygon fill="none" stroke="#000000" points="388,-103.2 388,-125.2 497,-125.2 497,-103.2 388,-103.2"/>
<text text-anchor="start" x="391" y="-110.9" font-family="Helvetica,sans-Serif" font-size="11.00" fill="#000000">int4[10]</text>
<polygon fill="none" stroke="#000000" points="291,-81.2 291,-103.2 388,-103.2 388,-81.2 291,-81.2"/>
<text text-anchor="start" x="311" y="-88.3" font-family="Helvetica,sans-Serif" font-size="11.00" fill="#000000">created_at</text>
<polygon fill="none" stroke="#000000" points="388,-81.2 388,-103.2 497,-103.2 497,-81.2 388,-81.2"/>
<text text-anchor="start" x="391" y="-88.9" font-family="Helvetica,sans-Serif" font-size="11.00" fill="#000000">timestamp[29,6]</text>
<polygon fill="none" stroke="#000000" points="291,-59.2 291,-81.2 388,-81.2 388,-59.2 291,-59.2"/>
<text text-anchor="start" x="311" y="-66.3" font-family="Helvetica,sans-Serif" font-size="11.00" fill="#000000">updated_at</text>
<polygon fill="none" stroke="#000000" points="388,-59.2 388,-81.2 497,-81.2 497,-59.2 388,-59.2"/>
<text text-anchor="start" x="391" y="-66.9" font-family="Helvetica,sans-Serif" font-size="11.00" fill="#000000">timestamp[29,6]</text>
<polygon fill="#ffffff" stroke="transparent" points="291,-40.2 291,-59.2 331,-59.2 331,-40.2 291,-40.2"/>
<polygon fill="none" stroke="#000000" points="291,-40.2 291,-59.2 331,-59.2 331,-40.2 291,-40.2"/>
<text text-anchor="start" x="294" y="-46.3" font-family="Helvetica,sans-Serif" font-size="11.00" fill="#000000">&lt; 1</text>
<polygon fill="#ffffff" stroke="transparent" points="331,-40.2 331,-59.2 388,-59.2 388,-40.2 331,-40.2"/>
<polygon fill="none" stroke="#000000" points="331,-40.2 331,-59.2 388,-59.2 388,-40.2 331,-40.2"/>
<text text-anchor="start" x="352.6105" y="-46.3" font-family="Helvetica,sans-Serif" font-size="11.00" fill="#000000">9 rows</text>
<polygon fill="#ffffff" stroke="transparent" points="388,-40.2 388,-59.2 497,-59.2 497,-40.2 388,-40.2"/>
<polygon fill="none" stroke="#000000" points="388,-40.2 388,-59.2 497,-59.2 497,-40.2 388,-40.2"/>
<text text-anchor="start" x="478.4053" y="-46.3" font-family="Helvetica,sans-Serif" font-size="11.00" fill="#000000">0 &gt;</text>
<polygon fill="none" stroke="#000000" stroke-width="2" points="290,-39.2 290,-193.2 498,-193.2 498,-39.2 290,-39.2"/>
</a>
</g>
</g>
<!-- tags&#45;&gt;events -->
<g id="edge5" class="edge">
<title>tags:w&#45;&gt;events:e</title>
<path fill="none" stroke="#000000" d="M276.521,-117.6504C242.1928,-138.1651 295.6307,-243.2 240,-243.2"/>
<polygon fill="#000000" stroke="#000000" points="283.2179,-116.0546 291.8346,-117.7019 287.109,-115.1273 291,-114.2 291,-114.2 291,-114.2 287.109,-115.1273 290.1654,-110.6981 283.2179,-116.0546 283.2179,-116.0546"/>
<ellipse fill="none" stroke="#000000" cx="280.1051" cy="-116.7964" rx="3.2" ry="3.2"/>
</g>
</g>
</svg>
