<?xml version="1.0" encoding="UTF-8" standalone="no"?>
<!DOCTYPE svg PUBLIC "-//W3C//DTD SVG 1.1//EN"
 "http://www.w3.org/Graphics/SVG/1.1/DTD/svg11.dtd">
<!-- Generated by graphviz version 2.40.1 (20161225.0304)
 -->
<!-- Title: twoDegreesRelationshipsDiagram Pages: 1 -->
<svg width="493pt" height="453pt"
 viewBox="0.00 0.00 493.00 453.20" xmlns="http://www.w3.org/2000/svg" xmlns:xlink="http://www.w3.org/1999/xlink">
<g id="graph0" class="graph" transform="scale(1 1) rotate(0) translate(4 449.2)">
<title>twoDegreesRelationshipsDiagram</title>
<polygon fill="#ffffff" stroke="transparent" points="-4,4 -4,-449.2 489,-449.2 489,4 -4,4"/>
<text text-anchor="middle" x="72.4936" y="-7.3" font-family="Helvetica,sans-Serif" font-size="11.00" fill="#000000">Generated by SchemaSpy</text>
<!-- event_sponsors -->
<g id="node1" class="node">
<title>event_sponsors</title>
<g id="a_node1"><a xlink:href="../../tables/event_sponsors.html" xlink:title="event_sponsors" target="_top">
<polygon fill="#ffffff" stroke="transparent" points="326,-380.2 326,-441.2 446,-441.2 446,-380.2 326,-380.2"/>
<polygon fill="#f5f5f5" stroke="transparent" points="326,-417.7 326,-440.7 446,-440.7 446,-417.7 326,-417.7"/>
<polygon fill="none" stroke="#000000" points="326,-417.7 326,-440.7 446,-440.7 446,-417.7 326,-417.7"/>
<text text-anchor="start" x="330.681" y="-426.8" font-family="Helvetica,sans-Serif" font-weight="bold" font-size="11.00" fill="#000000">event_sponsors</text>
<text text-anchor="start" x="411.5219" y="-425.8" font-family="Helvetica,sans-Serif" font-size="11.00" fill="#000000">[table]</text>
<polygon fill="none" stroke="#000000" points="326,-398.7 326,-417.7 446,-417.7 446,-398.7 326,-398.7"/>
<text text-anchor="start" x="329" y="-404.8" font-family="Helvetica,sans-Serif" font-size="11.00" fill="#000000">...</text>
<polygon fill="#ffffff" stroke="transparent" points="326,-379.7 326,-398.7 371,-398.7 371,-379.7 326,-379.7"/>
<polygon fill="none" stroke="#000000" points="326,-379.7 326,-398.7 371,-398.7 371,-379.7 326,-379.7"/>
<text text-anchor="start" x="329" y="-385.8" font-family="Helvetica,sans-Serif" font-size="11.00" fill="#000000">&lt; 2</text>
<polygon fill="#ffffff" stroke="transparent" points="371,-379.7 371,-398.7 421,-398.7 421,-379.7 371,-379.7"/>
<polygon fill="none" stroke="#000000" points="371,-379.7 371,-398.7 421,-398.7 421,-379.7 371,-379.7"/>
<text text-anchor="start" x="385.6105" y="-385.8" font-family="Helvetica,sans-Serif" font-size="11.00" fill="#000000">0 rows</text>
<polygon fill="#ffffff" stroke="transparent" points="421,-379.7 421,-398.7 446,-398.7 446,-379.7 421,-379.7"/>
<polygon fill="none" stroke="#000000" points="421,-379.7 421,-398.7 446,-398.7 446,-379.7 421,-379.7"/>
<text text-anchor="start" x="436.8862" y="-385.8" font-family="Helvetica,sans-Serif" font-size="11.00" fill="#000000"> &#160;</text>
</a>
</g>
</g>
<!-- events -->
<g id="node2" class="node">
<title>events</title>
<g id="a_node2"><a xlink:href="../../tables/events.html" xlink:title="events" target="_top">
<polygon fill="#ffffff" stroke="transparent" points="142,-146.2 142,-273.2 246,-273.2 246,-146.2 142,-146.2"/>
<polygon fill="#f5f5f5" stroke="transparent" points="142,-249.7 142,-272.7 246,-272.7 246,-249.7 142,-249.7"/>
<polygon fill="none" stroke="#000000" points="142,-249.7 142,-272.7 246,-272.7 246,-249.7 142,-249.7"/>
<text text-anchor="start" x="147" y="-258.8" font-family="Helvetica,sans-Serif" font-weight="bold" font-size="11.00" fill="#000000">events</text>
<text text-anchor="start" x="211.0437" y="-257.8" font-family="Helvetica,sans-Serif" font-size="11.00" fill="#000000">[table]</text>
<polygon fill="none" stroke="#000000" points="142,-227.7 142,-249.7 246,-249.7 246,-227.7 142,-227.7"/>
<image xlink:href="../../images/primaryKeys.png" width="11px" height="12px" preserveAspectRatio="xMinYMin meet" x="147" y="-244.7"/>
<text text-anchor="start" x="162" y="-234.8" font-family="Helvetica,sans-Serif" font-size="11.00" fill="#000000">id</text>
<polygon fill="none" stroke="#000000" points="142,-205.7 142,-227.7 246,-227.7 246,-205.7 142,-205.7"/>
<image xlink:href="../../images/foreignKeys.png" width="11px" height="12px" preserveAspectRatio="xMinYMin meet" x="147" y="-222.7"/>
<text text-anchor="start" x="162" y="-212.8" font-family="Helvetica,sans-Serif" font-size="11.00" fill="#000000">venue_id</text>
<polygon fill="none" stroke="#000000" points="142,-183.7 142,-205.7 246,-205.7 246,-183.7 142,-183.7"/>
<image xlink:href="../../images/foreignKeys.png" width="11px" height="12px" preserveAspectRatio="xMinYMin meet" x="147" y="-200.7"/>
<text text-anchor="start" x="162" y="-190.8" font-family="Helvetica,sans-Serif" font-size="11.00" fill="#000000">chapter_id</text>
<polygon fill="none" stroke="#000000" points="142,-164.7 142,-183.7 246,-183.7 246,-164.7 142,-164.7"/>
<text text-anchor="start" x="145" y="-170.8" font-family="Helvetica,sans-Serif" font-size="11.00" fill="#000000">...</text>
<polygon fill="#ffffff" stroke="transparent" points="142,-145.7 142,-164.7 175,-164.7 175,-145.7 142,-145.7"/>
<polygon fill="none" stroke="#000000" points="142,-145.7 142,-164.7 175,-164.7 175,-145.7 142,-145.7"/>
<text text-anchor="start" x="145" y="-151.8" font-family="Helvetica,sans-Serif" font-size="11.00" fill="#000000">&lt; 2</text>
<polygon fill="#ffffff" stroke="transparent" points="175,-145.7 175,-164.7 219,-164.7 219,-145.7 175,-145.7"/>
<polygon fill="none" stroke="#000000" points="175,-145.7 175,-164.7 219,-164.7 219,-145.7 175,-145.7"/>
<text text-anchor="start" x="183.6105" y="-151.8" font-family="Helvetica,sans-Serif" font-size="11.00" fill="#000000">0 rows</text>
<polygon fill="#ffffff" stroke="transparent" points="219,-145.7 219,-164.7 246,-164.7 246,-145.7 219,-145.7"/>
<polygon fill="none" stroke="#000000" points="219,-145.7 219,-164.7 246,-164.7 246,-145.7 219,-145.7"/>
<text text-anchor="start" x="227.4053" y="-151.8" font-family="Helvetica,sans-Serif" font-size="11.00" fill="#000000">4 &gt;</text>
</a>
</g>
</g>
<!-- event_sponsors&#45;&gt;events -->
<g id="edge1" class="edge">
<title>event_sponsors:w&#45;&gt;events:e</title>
<path fill="none" stroke="#000000" d="M311.8367,-404.8427C300.1485,-399.0919 296.5992,-385.3268 287,-369.7 255.068,-317.7171 307.0072,-238.7 246,-238.7"/>
<polygon fill="#000000" stroke="#000000" points="318.158,-406.1179 325.2881,-411.2289 322.079,-406.909 326,-407.7 326,-407.7 326,-407.7 322.079,-406.909 326.7119,-404.1711 318.158,-406.1179 318.158,-406.1179"/>
<ellipse fill="none" stroke="#000000" cx="315.0212" cy="-405.4851" rx="3.2" ry="3.2"/>
</g>
<!-- chapters -->
<g id="node3" class="node">
<title>chapters</title>
<g id="a_node3"><a xlink:href="../../tables/chapters.html" xlink:title="chapters" target="_top">
<polygon fill="#ffffff" stroke="transparent" points="8,-137.2 8,-198.2 93,-198.2 93,-137.2 8,-137.2"/>
<polygon fill="#f5f5f5" stroke="transparent" points="8.5,-174.7 8.5,-197.7 93.5,-197.7 93.5,-174.7 8.5,-174.7"/>
<polygon fill="none" stroke="#000000" points="8.5,-174.7 8.5,-197.7 93.5,-197.7 93.5,-174.7 8.5,-174.7"/>
<text text-anchor="start" x="13.4108" y="-183.8" font-family="Helvetica,sans-Serif" font-weight="bold" font-size="11.00" fill="#000000">chapters</text>
<text text-anchor="start" x="59.0219" y="-182.8" font-family="Helvetica,sans-Serif" font-size="11.00" fill="#000000">[table]</text>
<polygon fill="none" stroke="#000000" points="8.5,-155.7 8.5,-174.7 93.5,-174.7 93.5,-155.7 8.5,-155.7"/>
<text text-anchor="start" x="11.5" y="-161.8" font-family="Helvetica,sans-Serif" font-size="11.00" fill="#000000">...</text>
<polygon fill="#ffffff" stroke="transparent" points="8.5,-136.7 8.5,-155.7 27.5,-155.7 27.5,-136.7 8.5,-136.7"/>
<polygon fill="none" stroke="#000000" points="8.5,-136.7 8.5,-155.7 27.5,-155.7 27.5,-136.7 8.5,-136.7"/>
<text text-anchor="start" x="11.5" y="-142.8" font-family="Helvetica,sans-Serif" font-size="11.00" fill="#000000"> &#160;</text>
<polygon fill="#ffffff" stroke="transparent" points="27.5,-136.7 27.5,-155.7 68.5,-155.7 68.5,-136.7 27.5,-136.7"/>
<polygon fill="none" stroke="#000000" points="27.5,-136.7 27.5,-155.7 68.5,-155.7 68.5,-136.7 27.5,-136.7"/>
<text text-anchor="start" x="33.1105" y="-142.8" font-family="Helvetica,sans-Serif" font-size="11.00" fill="#000000">0 rows</text>
<polygon fill="#ffffff" stroke="transparent" points="68.5,-136.7 68.5,-155.7 93.5,-155.7 93.5,-136.7 68.5,-136.7"/>
<polygon fill="none" stroke="#000000" points="68.5,-136.7 68.5,-155.7 93.5,-155.7 93.5,-136.7 68.5,-136.7"/>
<text text-anchor="start" x="74.9053" y="-142.8" font-family="Helvetica,sans-Serif" font-size="11.00" fill="#000000">3 &gt;</text>
</a>
</g>
</g>
<!-- events&#45;&gt;chapters -->
<g id="edge2" class="edge">
<title>events:w&#45;&gt;chapters:e</title>
<path fill="none" stroke="#000000" d="M128.0076,-190.5286C116.1688,-182.2854 112.9055,-164.7 93.5,-164.7"/>
<polygon fill="#000000" stroke="#000000" points="134.3334,-192.4144 140.9715,-198.15 138.1667,-193.5572 142,-194.7 142,-194.7 142,-194.7 138.1667,-193.5572 143.0285,-191.25 134.3334,-192.4144 134.3334,-192.4144"/>
<ellipse fill="none" stroke="#000000" cx="131.2668" cy="-191.5002" rx="3.2" ry="3.2"/>
</g>
<!-- venues -->
<g id="node4" class="node">
<title>venues</title>
<g id="a_node4"><a xlink:href="../../tables/venues.html" xlink:title="venues" target="_top">
<polygon fill="#ffffff" stroke="transparent" points="11.5,-219.2 11.5,-280.2 89.5,-280.2 89.5,-219.2 11.5,-219.2"/>
<polygon fill="#f5f5f5" stroke="transparent" points="11.5,-256.7 11.5,-279.7 89.5,-279.7 89.5,-256.7 11.5,-256.7"/>
<polygon fill="none" stroke="#000000" points="11.5,-256.7 11.5,-279.7 89.5,-279.7 89.5,-256.7 11.5,-256.7"/>
<text text-anchor="start" x="16.2702" y="-265.8" font-family="Helvetica,sans-Serif" font-weight="bold" font-size="11.00" fill="#000000">venues</text>
<text text-anchor="start" x="55.0219" y="-264.8" font-family="Helvetica,sans-Serif" font-size="11.00" fill="#000000">[table]</text>
<polygon fill="none" stroke="#000000" points="11.5,-237.7 11.5,-256.7 89.5,-256.7 89.5,-237.7 11.5,-237.7"/>
<text text-anchor="start" x="14.5" y="-243.8" font-family="Helvetica,sans-Serif" font-size="11.00" fill="#000000">...</text>
<polygon fill="#ffffff" stroke="transparent" points="11.5,-218.7 11.5,-237.7 26.5,-237.7 26.5,-218.7 11.5,-218.7"/>
<polygon fill="none" stroke="#000000" points="11.5,-218.7 11.5,-237.7 26.5,-237.7 26.5,-218.7 11.5,-218.7"/>
<text text-anchor="start" x="14.5" y="-224.8" font-family="Helvetica,sans-Serif" font-size="11.00" fill="#000000"> &#160;</text>
<polygon fill="#ffffff" stroke="transparent" points="26.5,-218.7 26.5,-237.7 66.5,-237.7 66.5,-218.7 26.5,-218.7"/>
<polygon fill="none" stroke="#000000" points="26.5,-218.7 26.5,-237.7 66.5,-237.7 66.5,-218.7 26.5,-218.7"/>
<text text-anchor="start" x="31.1105" y="-224.8" font-family="Helvetica,sans-Serif" font-size="11.00" fill="#000000">0 rows</text>
<polygon fill="#ffffff" stroke="transparent" points="66.5,-218.7 66.5,-237.7 89.5,-237.7 89.5,-218.7 66.5,-218.7"/>
<polygon fill="none" stroke="#000000" points="66.5,-218.7 66.5,-237.7 89.5,-237.7 89.5,-218.7 66.5,-218.7"/>
<text text-anchor="start" x="70.9053" y="-224.8" font-family="Helvetica,sans-Serif" font-size="11.00" fill="#000000">1 &gt;</text>
</a>
</g>
</g>
<!-- events&#45;&gt;venues -->
<g id="edge3" class="edge">
<title>events:w&#45;&gt;venues:e</title>
<path fill="none" stroke="#000000" d="M127.8122,-220.3786C114.3263,-228.3895 110.4955,-246.7 89.5,-246.7"/>
<polygon fill="#000000" stroke="#000000" points="134.2561,-218.7079 142.9035,-220.1848 138.128,-217.7039 142,-216.7 142,-216.7 142,-216.7 138.128,-217.7039 141.0965,-213.2152 134.2561,-218.7079 134.2561,-218.7079"/>
<ellipse fill="none" stroke="#000000" cx="131.1585" cy="-219.511" rx="3.2" ry="3.2"/>
</g>
<!-- rsvps -->
<g id="node5" class="node">
<title>rsvps</title>
<g id="a_node5"><a xlink:href="../../tables/rsvps.html" xlink:title="rsvps" target="_top">
<polygon fill="#ffffff" stroke="transparent" points="350.5,-298.2 350.5,-359.2 421.5,-359.2 421.5,-298.2 350.5,-298.2"/>
<polygon fill="#f5f5f5" stroke="transparent" points="351,-335.7 351,-358.7 422,-358.7 422,-335.7 351,-335.7"/>
<polygon fill="none" stroke="#000000" points="351,-335.7 351,-358.7 422,-358.7 422,-335.7 351,-335.7"/>
<text text-anchor="start" x="356" y="-344.8" font-family="Helvetica,sans-Serif" font-weight="bold" font-size="11.00" fill="#000000">rsvps</text>
<text text-anchor="start" x="387.0437" y="-343.8" font-family="Helvetica,sans-Serif" font-size="11.00" fill="#000000">[table]</text>
<polygon fill="none" stroke="#000000" points="351,-316.7 351,-335.7 422,-335.7 422,-316.7 351,-316.7"/>
<text text-anchor="start" x="354" y="-322.8" font-family="Helvetica,sans-Serif" font-size="11.00" fill="#000000">...</text>
<polygon fill="#ffffff" stroke="transparent" points="351,-297.7 351,-316.7 372,-316.7 372,-297.7 351,-297.7"/>
<polygon fill="none" stroke="#000000" points="351,-297.7 351,-316.7 372,-316.7 372,-297.7 351,-297.7"/>
<text text-anchor="start" x="353.7027" y="-303.8" font-family="Helvetica,sans-Serif" font-size="11.00" fill="#000000">&lt; 2</text>
<polygon fill="#ffffff" stroke="transparent" points="372,-297.7 372,-316.7 410,-316.7 410,-297.7 372,-297.7"/>
<polygon fill="none" stroke="#000000" points="372,-297.7 372,-316.7 410,-316.7 410,-297.7 372,-297.7"/>
<text text-anchor="start" x="374.8053" y="-303.8" font-family="Helvetica,sans-Serif" font-size="11.00" fill="#000000">0 rows</text>
<polygon fill="#ffffff" stroke="transparent" points="410,-297.7 410,-316.7 422,-316.7 422,-297.7 410,-297.7"/>
<polygon fill="none" stroke="#000000" points="410,-297.7 410,-316.7 422,-316.7 422,-297.7 410,-297.7"/>
<text text-anchor="start" x="412.9431" y="-303.8" font-family="Helvetica,sans-Serif" font-size="11.00" fill="#000000"> &#160;</text>
</a>
</g>
</g>
<!-- rsvps&#45;&gt;events -->
<g id="edge4" class="edge">
<title>rsvps:w&#45;&gt;events:e</title>
<path fill="none" stroke="#000000" d="M336.4241,-324.3534C315.4473,-319.998 307.9638,-305.5351 287,-287.7 265.3722,-269.3 274.3958,-238.7 246,-238.7"/>
<polygon fill="#000000" stroke="#000000" points="343.0339,-324.964 350.6688,-329.2847 347.017,-325.332 351,-325.7 351,-325.7 351,-325.7 347.017,-325.332 351.3312,-322.1153 343.0339,-324.964 343.0339,-324.964"/>
<ellipse fill="none" stroke="#000000" cx="339.8475" cy="-324.6696" rx="3.2" ry="3.2"/>
</g>
<!-- tags -->
<g id="node6" class="node">
<title>tags</title>
<g id="a_node6"><a xlink:href="../../tables/tags.html" xlink:title="tags" target="_top">
<polygon fill="#ffffff" stroke="transparent" points="295,-120.7 295,-276.7 477,-276.7 477,-120.7 295,-120.7"/>
<polygon fill="#f5f5f5" stroke="transparent" points="297,-251.7 297,-274.7 475,-274.7 475,-251.7 297,-251.7"/>
<polygon fill="none" stroke="#000000" points="297,-251.7 297,-274.7 475,-274.7 475,-251.7 297,-251.7"/>
<text text-anchor="start" x="302" y="-260.8" font-family="Helvetica,sans-Serif" font-weight="bold" font-size="11.00" fill="#000000">tags</text>
<text text-anchor="start" x="440.0437" y="-259.8" font-family="Helvetica,sans-Serif" font-size="11.00" fill="#000000">[table]</text>
<polygon fill="none" stroke="#000000" points="297,-229.7 297,-251.7 385,-251.7 385,-229.7 297,-229.7"/>
<text text-anchor="start" x="317" y="-236.8" font-family="Helvetica,sans-Serif" font-size="11.00" fill="#000000">created_at</text>
<polygon fill="none" stroke="#000000" points="385,-229.7 385,-251.7 475,-251.7 475,-229.7 385,-229.7"/>
<text text-anchor="start" x="388" y="-237.4" font-family="Helvetica,sans-Serif" font-size="11.00" fill="#000000">timestamp[26,3]</text>
<polygon fill="none" stroke="#000000" points="297,-207.7 297,-229.7 385,-229.7 385,-207.7 297,-207.7"/>
<text text-anchor="start" x="317" y="-214.8" font-family="Helvetica,sans-Serif" font-size="11.00" fill="#000000">updated_at</text>
<polygon fill="none" stroke="#000000" points="385,-207.7 385,-229.7 475,-229.7 475,-207.7 385,-207.7"/>
<text text-anchor="start" x="388" y="-215.4" font-family="Helvetica,sans-Serif" font-size="11.00" fill="#000000">timestamp[26,3]</text>
<polygon fill="none" stroke="#000000" points="297,-185.7 297,-207.7 385,-207.7 385,-185.7 297,-185.7"/>
<image xlink:href="../../images/primaryKeys.png" width="11px" height="12px" preserveAspectRatio="xMinYMin meet" x="302" y="-202.7"/>
<text text-anchor="start" x="317" y="-192.8" font-family="Helvetica,sans-Serif" font-size="11.00" fill="#000000">id</text>
<polygon fill="none" stroke="#000000" points="385,-185.7 385,-207.7 475,-207.7 475,-185.7 385,-185.7"/>
<text text-anchor="start" x="388" y="-193.4" font-family="Helvetica,sans-Serif" font-size="11.00" fill="#000000">serial[10]</text>
<polygon fill="none" stroke="#000000" points="297,-163.7 297,-185.7 385,-185.7 385,-163.7 297,-163.7"/>
<text text-anchor="start" x="317" y="-170.8" font-family="Helvetica,sans-Serif" font-size="11.00" fill="#000000">name</text>
<polygon fill="none" stroke="#000000" points="385,-163.7 385,-185.7 475,-185.7 475,-163.7 385,-163.7"/>
<text text-anchor="start" x="387.5043" y="-171.4" font-family="Helvetica,sans-Serif" font-size="11.00" fill="#000000">text[2147483647]</text>
<polygon fill="none" stroke="#000000" points="297,-141.7 297,-163.7 385,-163.7 385,-141.7 297,-141.7"/>
<image xlink:href="../../images/foreignKeys.png" width="11px" height="12px" preserveAspectRatio="xMinYMin meet" x="302" y="-158.7"/>
<text text-anchor="start" x="317" y="-148.8" font-family="Helvetica,sans-Serif" font-size="11.00" fill="#000000">event_id</text>
<polygon fill="none" stroke="#000000" points="385,-141.7 385,-163.7 475,-163.7 475,-141.7 385,-141.7"/>
<text text-anchor="start" x="388" y="-149.4" font-family="Helvetica,sans-Serif" font-size="11.00" fill="#000000">int4[10]</text>
<polygon fill="#ffffff" stroke="transparent" points="297,-122.7 297,-141.7 332,-141.7 332,-122.7 297,-122.7"/>
<polygon fill="none" stroke="#000000" points="297,-122.7 297,-141.7 332,-141.7 332,-122.7 297,-122.7"/>
<text text-anchor="start" x="300" y="-128.8" font-family="Helvetica,sans-Serif" font-size="11.00" fill="#000000">&lt; 1</text>
<polygon fill="#ffffff" stroke="transparent" points="332,-122.7 332,-141.7 385,-141.7 385,-122.7 332,-122.7"/>
<polygon fill="none" stroke="#000000" points="332,-122.7 332,-141.7 385,-141.7 385,-122.7 332,-122.7"/>
<text text-anchor="start" x="349.6105" y="-128.8" font-family="Helvetica,sans-Serif" font-size="11.00" fill="#000000">0 rows</text>
<polygon fill="#ffffff" stroke="transparent" points="385,-122.7 385,-141.7 475,-141.7 475,-122.7 385,-122.7"/>
<polygon fill="none" stroke="#000000" points="385,-122.7 385,-141.7 475,-141.7 475,-122.7 385,-122.7"/>
<text text-anchor="start" x="456.4053" y="-128.8" font-family="Helvetica,sans-Serif" font-size="11.00" fill="#000000">0 &gt;</text>
<polygon fill="none" stroke="#000000" stroke-width="2" points="296,-121.7 296,-275.7 476,-275.7 476,-121.7 296,-121.7"/>
</a>
</g>
</g>
<!-- tags&#45;&gt;events -->
<g id="edge5" class="edge">
<title>tags:w&#45;&gt;events:e</title>
<path fill="none" stroke="#000000" d="M282.9687,-157.083C261.3802,-174.6081 284.3623,-238.7 246,-238.7"/>
<polygon fill="#000000" stroke="#000000" points="289.3639,-155.0853 298.0734,-156.1363 293.1819,-153.8927 297,-152.7 297,-152.7 297,-152.7 293.1819,-153.8927 295.9266,-149.2637 289.3639,-155.0853 289.3639,-155.0853"/>
<ellipse fill="none" stroke="#000000" cx="286.3094" cy="-156.0395" rx="3.2" ry="3.2"/>
</g>
<!-- user_event_roles -->
<g id="node7" class="node">
<title>user_event_roles</title>
<g id="a_node7"><a xlink:href="../../tables/user_event_roles.html" xlink:title="user_event_roles" target="_top">
<polygon fill="#ffffff" stroke="transparent" points="322.5,-38.2 322.5,-99.2 449.5,-99.2 449.5,-38.2 322.5,-38.2"/>
<polygon fill="#f5f5f5" stroke="transparent" points="323,-75.7 323,-98.7 450,-98.7 450,-75.7 323,-75.7"/>
<polygon fill="none" stroke="#000000" points="323,-75.7 323,-98.7 450,-98.7 450,-75.7 323,-75.7"/>
<text text-anchor="start" x="327.8222" y="-84.8" font-family="Helvetica,sans-Serif" font-weight="bold" font-size="11.00" fill="#000000">user_event_roles</text>
<text text-anchor="start" x="415.5219" y="-83.8" font-family="Helvetica,sans-Serif" font-size="11.00" fill="#000000">[table]</text>
<polygon fill="none" stroke="#000000" points="323,-56.7 323,-75.7 450,-75.7 450,-56.7 323,-56.7"/>
<text text-anchor="start" x="326" y="-62.8" font-family="Helvetica,sans-Serif" font-size="11.00" fill="#000000">...</text>
<polygon fill="#ffffff" stroke="transparent" points="323,-37.7 323,-56.7 372,-56.7 372,-37.7 323,-37.7"/>
<polygon fill="none" stroke="#000000" points="323,-37.7 323,-56.7 372,-56.7 372,-37.7 323,-37.7"/>
<text text-anchor="start" x="326" y="-43.8" font-family="Helvetica,sans-Serif" font-size="11.00" fill="#000000">&lt; 2</text>
<polygon fill="#ffffff" stroke="transparent" points="372,-37.7 372,-56.7 424,-56.7 424,-37.7 372,-37.7"/>
<polygon fill="none" stroke="#000000" points="372,-37.7 372,-56.7 424,-56.7 424,-37.7 372,-37.7"/>
<text text-anchor="start" x="388.6105" y="-43.8" font-family="Helvetica,sans-Serif" font-size="11.00" fill="#000000">0 rows</text>
<polygon fill="#ffffff" stroke="transparent" points="424,-37.7 424,-56.7 450,-56.7 450,-37.7 424,-37.7"/>
<polygon fill="none" stroke="#000000" points="424,-37.7 424,-56.7 450,-56.7 450,-37.7 424,-37.7"/>
<text text-anchor="start" x="440.8862" y="-43.8" font-family="Helvetica,sans-Serif" font-size="11.00" fill="#000000"> &#160;</text>
</a>
</g>
</g>
<!-- user_event_roles&#45;&gt;events -->
<g id="edge6" class="edge">
<title>user_event_roles:w&#45;&gt;events:e</title>
<path fill="none" stroke="#000000" d="M308.4523,-67.8874C250.1939,-87.9137 324.5721,-238.7 246,-238.7"/>
<polygon fill="#000000" stroke="#000000" points="315.0889,-66.8895 323.5353,-69.26 319.0445,-66.2948 323,-65.7 323,-65.7 323,-65.7 319.0445,-66.2948 322.4647,-62.14 315.0889,-66.8895 315.0889,-66.8895"/>
<ellipse fill="none" stroke="#000000" cx="311.9245" cy="-67.3654" rx="3.2" ry="3.2"/>
</g>
</g>
</svg>
