<?xml version="1.0" encoding="UTF-8" standalone="no"?>
<!DOCTYPE svg PUBLIC "-//W3C//DTD SVG 1.1//EN"
 "http://www.w3.org/Graphics/SVG/1.1/DTD/svg11.dtd">
<!-- Generated by graphviz version 2.40.1 (20161225.0304)
 -->
<!-- Title: twoDegreesRelationshipsDiagram Pages: 1 -->
<svg width="662pt" height="393pt"
 viewBox="0.00 0.00 662.00 392.66" xmlns="http://www.w3.org/2000/svg" xmlns:xlink="http://www.w3.org/1999/xlink">
<g id="graph0" class="graph" transform="scale(1 1) rotate(0) translate(4 388.6596)">
<title>twoDegreesRelationshipsDiagram</title>
<polygon fill="#ffffff" stroke="transparent" points="-4,4 -4,-388.6596 658,-388.6596 658,4 -4,4"/>
<text text-anchor="middle" x="72.4936" y="-7.3" font-family="Helvetica,sans-Serif" font-size="11.00" fill="#000000">Generated by SchemaSpy</text>
<!-- chapter_tags -->
<g id="node1" class="node">
<title>chapter_tags</title>
<g id="a_node1"><a xlink:href="../../tables/chapter_tags.html" xlink:title="chapter_tags" target="_top">
<polygon fill="#ffffff" stroke="transparent" points="379,-67.6596 379,-172.6596 494,-172.6596 494,-67.6596 379,-67.6596"/>
<polygon fill="#f5f5f5" stroke="transparent" points="379.5,-149.1596 379.5,-172.1596 494.5,-172.1596 494.5,-149.1596 379.5,-149.1596"/>
<polygon fill="none" stroke="#000000" points="379.5,-149.1596 379.5,-172.1596 494.5,-172.1596 494.5,-149.1596 379.5,-149.1596"/>
<text text-anchor="start" x="384.5" y="-157.7596" font-family="Helvetica,sans-Serif" font-weight="bold" font-size="11.00" fill="#000000">chapter_tags</text>
<text text-anchor="start" x="460.0219" y="-157.2596" font-family="Helvetica,sans-Serif" font-size="11.00" fill="#000000">[table]</text>
<polygon fill="none" stroke="#000000" points="379.5,-127.1596 379.5,-149.1596 494.5,-149.1596 494.5,-127.1596 379.5,-127.1596"/>
<image xlink:href="../../images/primaryKeys.png" width="11px" height="12px" preserveAspectRatio="xMinYMin meet" x="384.5" y="-144.16"/>
<text text-anchor="start" x="408.5" y="-134.2596" font-family="Helvetica,sans-Serif" font-size="11.00" fill="#000000">chapter_id</text>
<polygon fill="none" stroke="#000000" points="379.5,-105.1596 379.5,-127.1596 494.5,-127.1596 494.5,-105.1596 379.5,-105.1596"/>
<image xlink:href="../../images/primaryKeys.png" width="11px" height="12px" preserveAspectRatio="xMinYMin meet" x="384.5" y="-122.16"/>
<text text-anchor="start" x="408.5" y="-112.2596" font-family="Helvetica,sans-Serif" font-size="11.00" fill="#000000">tag_id</text>
<polygon fill="none" stroke="#000000" points="379.5,-86.1596 379.5,-105.1596 494.5,-105.1596 494.5,-86.1596 379.5,-86.1596"/>
<text text-anchor="start" x="382.5" y="-92.2596" font-family="Helvetica,sans-Serif" font-size="11.00" fill="#000000">...</text>
<polygon fill="#ffffff" stroke="transparent" points="379.5,-67.1596 379.5,-86.1596 422.5,-86.1596 422.5,-67.1596 379.5,-67.1596"/>
<polygon fill="none" stroke="#000000" points="379.5,-67.1596 379.5,-86.1596 422.5,-86.1596 422.5,-67.1596 379.5,-67.1596"/>
<text text-anchor="start" x="382.5" y="-73.2596" font-family="Helvetica,sans-Serif" font-size="11.00" fill="#000000">&lt; 2</text>
<polygon fill="#ffffff" stroke="transparent" points="422.5,-67.1596 422.5,-86.1596 471.5,-86.1596 471.5,-67.1596 422.5,-67.1596"/>
<polygon fill="none" stroke="#000000" points="422.5,-67.1596 422.5,-86.1596 471.5,-86.1596 471.5,-67.1596 422.5,-67.1596"/>
<text text-anchor="start" x="436.1105" y="-73.2596" font-family="Helvetica,sans-Serif" font-size="11.00" fill="#000000">0 rows</text>
<polygon fill="#ffffff" stroke="transparent" points="471.5,-67.1596 471.5,-86.1596 494.5,-86.1596 494.5,-67.1596 471.5,-67.1596"/>
<polygon fill="none" stroke="#000000" points="471.5,-67.1596 471.5,-86.1596 494.5,-86.1596 494.5,-67.1596 471.5,-67.1596"/>
<text text-anchor="start" x="485.3862" y="-73.2596" font-family="Helvetica,sans-Serif" font-size="11.00" fill="#000000"> &#160;</text>
</a>
</g>
</g>
<!-- chapters -->
<g id="node2" class="node">
<title>chapters</title>
<g id="a_node2"><a xlink:href="../../tables/chapters.html" xlink:title="chapters" target="_top">
<polygon fill="#ffffff" stroke="transparent" points="8,-256.6596 8,-317.6596 99,-317.6596 99,-256.6596 8,-256.6596"/>
<polygon fill="#f5f5f5" stroke="transparent" points="8.5,-294.1596 8.5,-317.1596 99.5,-317.1596 99.5,-294.1596 8.5,-294.1596"/>
<polygon fill="none" stroke="#000000" points="8.5,-294.1596 8.5,-317.1596 99.5,-317.1596 99.5,-294.1596 8.5,-294.1596"/>
<text text-anchor="start" x="13.5" y="-302.7596" font-family="Helvetica,sans-Serif" font-weight="bold" font-size="11.00" fill="#000000">chapters</text>
<text text-anchor="start" x="65.0219" y="-302.2596" font-family="Helvetica,sans-Serif" font-size="11.00" fill="#000000">[table]</text>
<polygon fill="none" stroke="#000000" points="8.5,-275.1596 8.5,-294.1596 99.5,-294.1596 99.5,-275.1596 8.5,-275.1596"/>
<text text-anchor="start" x="11.5" y="-281.2596" font-family="Helvetica,sans-Serif" font-size="11.00" fill="#000000">...</text>
<polygon fill="#ffffff" stroke="transparent" points="8.5,-256.1596 8.5,-275.1596 30.5,-275.1596 30.5,-256.1596 8.5,-256.1596"/>
<polygon fill="none" stroke="#000000" points="8.5,-256.1596 8.5,-275.1596 30.5,-275.1596 30.5,-256.1596 8.5,-256.1596"/>
<text text-anchor="start" x="11.5" y="-262.2596" font-family="Helvetica,sans-Serif" font-size="11.00" fill="#000000"> &#160;</text>
<polygon fill="#ffffff" stroke="transparent" points="30.5,-256.1596 30.5,-275.1596 73.5,-275.1596 73.5,-256.1596 30.5,-256.1596"/>
<polygon fill="none" stroke="#000000" points="30.5,-256.1596 30.5,-275.1596 73.5,-275.1596 73.5,-256.1596 30.5,-256.1596"/>
<text text-anchor="start" x="38.1105" y="-262.2596" font-family="Helvetica,sans-Serif" font-size="11.00" fill="#000000">0 rows</text>
<polygon fill="#ffffff" stroke="transparent" points="73.5,-256.1596 73.5,-275.1596 99.5,-275.1596 99.5,-256.1596 73.5,-256.1596"/>
<polygon fill="none" stroke="#000000" points="73.5,-256.1596 73.5,-275.1596 99.5,-275.1596 99.5,-256.1596 73.5,-256.1596"/>
<text text-anchor="start" x="80.9053" y="-262.2596" font-family="Helvetica,sans-Serif" font-size="11.00" fill="#000000">5 &gt;</text>
</a>
</g>
</g>
<!-- chapter_tags&#45;&gt;chapters -->
<g id="edge1" class="edge">
<title>chapter_tags:w&#45;&gt;chapters:e</title>
<path fill="none" stroke="#000000" d="M365.3082,-142.4092C350.4806,-154.6687 362.0295,-190.2971 338,-207.1596 264.5826,-258.6799 219.8015,-205.2187 140,-246.1596 118.0388,-257.4264 124.1827,-284.1596 99.5,-284.1596"/>
<polygon fill="#000000" stroke="#000000" points="371.8362,-140.4545 380.5327,-141.6083 375.6681,-139.307 379.5,-138.1596 379.5,-138.1596 379.5,-138.1596 375.6681,-139.307 378.4673,-134.7109 371.8362,-140.4545 371.8362,-140.4545"/>
<ellipse fill="none" stroke="#000000" cx="368.7707" cy="-141.3724" rx="3.2" ry="3.2"/>
</g>
<!-- tags -->
<g id="node3" class="node">
<title>tags</title>
<g id="a_node3"><a xlink:href="../../tables/tags.html" xlink:title="tags" target="_top">
<polygon fill="#ffffff" stroke="transparent" points="148,-62.1596 148,-196.1596 330,-196.1596 330,-62.1596 148,-62.1596"/>
<polygon fill="#f5f5f5" stroke="transparent" points="150,-171.1596 150,-194.1596 328,-194.1596 328,-171.1596 150,-171.1596"/>
<polygon fill="none" stroke="#000000" points="150,-171.1596 150,-194.1596 328,-194.1596 328,-171.1596 150,-171.1596"/>
<text text-anchor="start" x="155" y="-179.7596" font-family="Helvetica,sans-Serif" font-weight="bold" font-size="11.00" fill="#000000">tags</text>
<text text-anchor="start" x="293.0437" y="-179.2596" font-family="Helvetica,sans-Serif" font-size="11.00" fill="#000000">[table]</text>
<polygon fill="none" stroke="#000000" points="150,-149.1596 150,-171.1596 238,-171.1596 238,-149.1596 150,-149.1596"/>
<text text-anchor="start" x="170" y="-156.2596" font-family="Helvetica,sans-Serif" font-size="11.00" fill="#000000">created_at</text>
<polygon fill="none" stroke="#000000" points="238,-149.1596 238,-171.1596 328,-171.1596 328,-149.1596 238,-149.1596"/>
<text text-anchor="start" x="241" y="-156.8596" font-family="Helvetica,sans-Serif" font-size="11.00" fill="#000000">timestamp[26,3]</text>
<polygon fill="none" stroke="#000000" points="150,-127.1596 150,-149.1596 238,-149.1596 238,-127.1596 150,-127.1596"/>
<text text-anchor="start" x="170" y="-134.2596" font-family="Helvetica,sans-Serif" font-size="11.00" fill="#000000">updated_at</text>
<polygon fill="none" stroke="#000000" points="238,-127.1596 238,-149.1596 328,-149.1596 328,-127.1596 238,-127.1596"/>
<text text-anchor="start" x="241" y="-134.8596" font-family="Helvetica,sans-Serif" font-size="11.00" fill="#000000">timestamp[26,3]</text>
<polygon fill="none" stroke="#000000" points="150,-105.1596 150,-127.1596 238,-127.1596 238,-105.1596 150,-105.1596"/>
<image xlink:href="../../images/primaryKeys.png" width="11px" height="12px" preserveAspectRatio="xMinYMin meet" x="155" y="-122.16"/>
<text text-anchor="start" x="170" y="-112.2596" font-family="Helvetica,sans-Serif" font-size="11.00" fill="#000000">id</text>
<polygon fill="none" stroke="#000000" points="238,-105.1596 238,-127.1596 328,-127.1596 328,-105.1596 238,-105.1596"/>
<text text-anchor="start" x="241" y="-112.8596" font-family="Helvetica,sans-Serif" font-size="11.00" fill="#000000">serial[10]</text>
<polygon fill="#ffffff" stroke="transparent" points="150,-83.1596 150,-105.1596 238,-105.1596 238,-83.1596 150,-83.1596"/>
<polygon fill="none" stroke="#000000" points="150,-83.1596 150,-105.1596 238,-105.1596 238,-83.1596 150,-83.1596"/>
<text text-anchor="start" x="170" y="-90.2596" font-family="Helvetica,sans-Serif" font-size="11.00" fill="#000000">name</text>
<polygon fill="none" stroke="#000000" points="238,-83.1596 238,-105.1596 328,-105.1596 328,-83.1596 238,-83.1596"/>
<text text-anchor="start" x="240.5043" y="-90.8596" font-family="Helvetica,sans-Serif" font-size="11.00" fill="#000000">text[2147483647]</text>
<polygon fill="#ffffff" stroke="transparent" points="150,-64.1596 150,-83.1596 185,-83.1596 185,-64.1596 150,-64.1596"/>
<polygon fill="none" stroke="#000000" points="150,-64.1596 150,-83.1596 185,-83.1596 185,-64.1596 150,-64.1596"/>
<text text-anchor="start" x="153" y="-70.2596" font-family="Helvetica,sans-Serif" font-size="11.00" fill="#000000">&lt; 0</text>
<polygon fill="#ffffff" stroke="transparent" points="185,-64.1596 185,-83.1596 238,-83.1596 238,-64.1596 185,-64.1596"/>
<polygon fill="none" stroke="#000000" points="185,-64.1596 185,-83.1596 238,-83.1596 238,-64.1596 185,-64.1596"/>
<text text-anchor="start" x="202.6105" y="-70.2596" font-family="Helvetica,sans-Serif" font-size="11.00" fill="#000000">0 rows</text>
<polygon fill="#ffffff" stroke="transparent" points="238,-64.1596 238,-83.1596 328,-83.1596 328,-64.1596 238,-64.1596"/>
<polygon fill="none" stroke="#000000" points="238,-64.1596 238,-83.1596 328,-83.1596 328,-64.1596 238,-64.1596"/>
<text text-anchor="start" x="309.4053" y="-70.2596" font-family="Helvetica,sans-Serif" font-size="11.00" fill="#000000">3 &gt;</text>
<polygon fill="none" stroke="#000000" stroke-width="2" points="149,-63.1596 149,-195.1596 329,-195.1596 329,-63.1596 149,-63.1596"/>
</a>
</g>
</g>
<!-- chapter_tags&#45;&gt;tags -->
<g id="edge2" class="edge">
<title>chapter_tags:w&#45;&gt;tags:e</title>
<path fill="none" stroke="#000000" d="M365.0156,-116.1596C352.6771,-116.1596 345.1667,-116.1596 328,-116.1596"/>
<polygon fill="#000000" stroke="#000000" points="371.5,-116.1597 379.5,-119.7596 375.5,-116.1596 379.5,-116.1596 379.5,-116.1596 379.5,-116.1596 375.5,-116.1596 379.5,-112.5596 371.5,-116.1597 371.5,-116.1597"/>
<ellipse fill="none" stroke="#000000" cx="368.3" cy="-116.1597" rx="3.2" ry="3.2"/>
</g>
<!-- event_tags -->
<g id="node4" class="node">
<title>event_tags</title>
<g id="a_node4"><a xlink:href="../../tables/event_tags.html" xlink:title="event_tags" target="_top">
<polygon fill="#ffffff" stroke="transparent" points="543,-135.6596 543,-240.6596 646,-240.6596 646,-135.6596 543,-135.6596"/>
<polygon fill="#f5f5f5" stroke="transparent" points="543.5,-217.1596 543.5,-240.1596 646.5,-240.1596 646.5,-217.1596 543.5,-217.1596"/>
<polygon fill="none" stroke="#000000" points="543.5,-217.1596 543.5,-240.1596 646.5,-240.1596 646.5,-217.1596 543.5,-217.1596"/>
<text text-anchor="start" x="548.5" y="-225.7596" font-family="Helvetica,sans-Serif" font-weight="bold" font-size="11.00" fill="#000000">event_tags</text>
<text text-anchor="start" x="612.0219" y="-225.2596" font-family="Helvetica,sans-Serif" font-size="11.00" fill="#000000">[table]</text>
<polygon fill="none" stroke="#000000" points="543.5,-195.1596 543.5,-217.1596 646.5,-217.1596 646.5,-195.1596 543.5,-195.1596"/>
<image xlink:href="../../images/primaryKeys.png" width="11px" height="12px" preserveAspectRatio="xMinYMin meet" x="548.5" y="-212.16"/>
<text text-anchor="start" x="571.5" y="-202.2596" font-family="Helvetica,sans-Serif" font-size="11.00" fill="#000000">event_id</text>
<polygon fill="none" stroke="#000000" points="543.5,-173.1596 543.5,-195.1596 646.5,-195.1596 646.5,-173.1596 543.5,-173.1596"/>
<image xlink:href="../../images/primaryKeys.png" width="11px" height="12px" preserveAspectRatio="xMinYMin meet" x="548.5" y="-190.16"/>
<text text-anchor="start" x="571.5" y="-180.2596" font-family="Helvetica,sans-Serif" font-size="11.00" fill="#000000">tag_id</text>
<polygon fill="none" stroke="#000000" points="543.5,-154.1596 543.5,-173.1596 646.5,-173.1596 646.5,-154.1596 543.5,-154.1596"/>
<text text-anchor="start" x="546.5" y="-160.2596" font-family="Helvetica,sans-Serif" font-size="11.00" fill="#000000">...</text>
<polygon fill="#ffffff" stroke="transparent" points="543.5,-135.1596 543.5,-154.1596 580.5,-154.1596 580.5,-135.1596 543.5,-135.1596"/>
<polygon fill="none" stroke="#000000" points="543.5,-135.1596 543.5,-154.1596 580.5,-154.1596 580.5,-135.1596 543.5,-135.1596"/>
<text text-anchor="start" x="546.5" y="-141.2596" font-family="Helvetica,sans-Serif" font-size="11.00" fill="#000000">&lt; 2</text>
<polygon fill="#ffffff" stroke="transparent" points="580.5,-135.1596 580.5,-154.1596 626.5,-154.1596 626.5,-135.1596 580.5,-135.1596"/>
<polygon fill="none" stroke="#000000" points="580.5,-135.1596 580.5,-154.1596 626.5,-154.1596 626.5,-135.1596 580.5,-135.1596"/>
<text text-anchor="start" x="591.1105" y="-141.2596" font-family="Helvetica,sans-Serif" font-size="11.00" fill="#000000">0 rows</text>
<polygon fill="#ffffff" stroke="transparent" points="626.5,-135.1596 626.5,-154.1596 646.5,-154.1596 646.5,-135.1596 626.5,-135.1596"/>
<polygon fill="none" stroke="#000000" points="626.5,-135.1596 626.5,-154.1596 646.5,-154.1596 646.5,-135.1596 626.5,-135.1596"/>
<text text-anchor="start" x="637.3862" y="-141.2596" font-family="Helvetica,sans-Serif" font-size="11.00" fill="#000000"> &#160;</text>
</a>
</g>
</g>
<!-- event_tags&#45;&gt;tags -->
<g id="edge4" class="edge">
<title>event_tags:w&#45;&gt;tags:e</title>
<path fill="none" stroke="#000000" d="M529.0348,-181.465C496.3387,-166.0351 545.1878,-88.4822 502,-57.1596 454.8686,-22.9769 422.896,-30.7658 371,-57.1596 342.0781,-71.869 360.4475,-116.1596 328,-116.1596"/>
<polygon fill="#000000" stroke="#000000" points="535.6353,-182.6945 542.8407,-187.6987 539.5676,-183.427 543.5,-184.1596 543.5,-184.1596 543.5,-184.1596 539.5676,-183.427 544.1593,-180.6205 535.6353,-182.6945 535.6353,-182.6945"/>
<ellipse fill="none" stroke="#000000" cx="532.4894" cy="-182.1084" rx="3.2" ry="3.2"/>
</g>
<!-- events -->
<g id="node5" class="node">
<title>events</title>
<g id="a_node5"><a xlink:href="../../tables/events.html" xlink:title="events" target="_top">
<polygon fill="#ffffff" stroke="transparent" points="396.5,-319.6596 396.5,-380.6596 476.5,-380.6596 476.5,-319.6596 396.5,-319.6596"/>
<polygon fill="#f5f5f5" stroke="transparent" points="396.5,-357.1596 396.5,-380.1596 476.5,-380.1596 476.5,-357.1596 396.5,-357.1596"/>
<polygon fill="none" stroke="#000000" points="396.5,-357.1596 396.5,-380.1596 476.5,-380.1596 476.5,-357.1596 396.5,-357.1596"/>
<text text-anchor="start" x="401.5" y="-365.7596" font-family="Helvetica,sans-Serif" font-weight="bold" font-size="11.00" fill="#000000">events</text>
<text text-anchor="start" x="442.0219" y="-365.2596" font-family="Helvetica,sans-Serif" font-size="11.00" fill="#000000">[table]</text>
<polygon fill="none" stroke="#000000" points="396.5,-338.1596 396.5,-357.1596 476.5,-357.1596 476.5,-338.1596 396.5,-338.1596"/>
<text text-anchor="start" x="399.5" y="-344.2596" font-family="Helvetica,sans-Serif" font-size="11.00" fill="#000000">...</text>
<polygon fill="#ffffff" stroke="transparent" points="396.5,-319.1596 396.5,-338.1596 417.5,-338.1596 417.5,-319.1596 396.5,-319.1596"/>
<polygon fill="none" stroke="#000000" points="396.5,-319.1596 396.5,-338.1596 417.5,-338.1596 417.5,-319.1596 396.5,-319.1596"/>
<text text-anchor="start" x="399.2027" y="-325.2596" font-family="Helvetica,sans-Serif" font-size="11.00" fill="#000000">&lt; 2</text>
<polygon fill="#ffffff" stroke="transparent" points="417.5,-319.1596 417.5,-338.1596 455.5,-338.1596 455.5,-319.1596 417.5,-319.1596"/>
<polygon fill="none" stroke="#000000" points="417.5,-319.1596 417.5,-338.1596 455.5,-338.1596 455.5,-319.1596 417.5,-319.1596"/>
<text text-anchor="start" x="420.3053" y="-325.2596" font-family="Helvetica,sans-Serif" font-size="11.00" fill="#000000">0 rows</text>
<polygon fill="#ffffff" stroke="transparent" points="455.5,-319.1596 455.5,-338.1596 476.5,-338.1596 476.5,-319.1596 455.5,-319.1596"/>
<polygon fill="none" stroke="#000000" points="455.5,-319.1596 455.5,-338.1596 476.5,-338.1596 476.5,-319.1596 455.5,-319.1596"/>
<text text-anchor="start" x="458.2027" y="-325.2596" font-family="Helvetica,sans-Serif" font-size="11.00" fill="#000000">3 &gt;</text>
</a>
</g>
</g>
<!-- event_tags&#45;&gt;events -->
<g id="edge3" class="edge">
<title>event_tags:w&#45;&gt;events:e</title>
<path fill="none" stroke="#000000" d="M529.1191,-208.8504C484.9422,-228.3436 540.1903,-347.1596 476.5,-347.1596"/>
<polygon fill="#000000" stroke="#000000" points="535.6365,-207.631 544.1621,-209.6982 539.5682,-206.8953 543.5,-206.1596 543.5,-206.1596 543.5,-206.1596 539.5682,-206.8953 542.8379,-202.621 535.6365,-207.631 535.6365,-207.631"/>
<ellipse fill="none" stroke="#000000" cx="532.491" cy="-208.2195" rx="3.2" ry="3.2"/>
</g>
<!-- events&#45;&gt;chapters -->
<g id="edge5" class="edge">
<title>events:w&#45;&gt;chapters:e</title>
<path fill="none" stroke="#000000" d="M381.8525,-347.3284C278.613,-349.7076 238.3914,-375.7326 140,-328.1596 116.0717,-316.5901 126.0786,-284.1596 99.5,-284.1596"/>
<polygon fill="#000000" stroke="#000000" points="388.5005,-347.2518 396.5415,-350.7594 392.5003,-347.2057 396.5,-347.1596 396.5,-347.1596 396.5,-347.1596 392.5003,-347.2057 396.4585,-343.5598 388.5005,-347.2518 388.5005,-347.2518"/>
<ellipse fill="none" stroke="#000000" cx="385.3007" cy="-347.2887" rx="3.2" ry="3.2"/>
</g>
<!-- venues -->
<g id="node6" class="node">
<title>venues</title>
<g id="a_node6"><a xlink:href="../../tables/venues.html" xlink:title="venues" target="_top">
<polygon fill="#ffffff" stroke="transparent" points="198.5,-256.6596 198.5,-317.6596 279.5,-317.6596 279.5,-256.6596 198.5,-256.6596"/>
<polygon fill="#f5f5f5" stroke="transparent" points="199,-294.1596 199,-317.1596 280,-317.1596 280,-294.1596 199,-294.1596"/>
<polygon fill="none" stroke="#000000" points="199,-294.1596 199,-317.1596 280,-317.1596 280,-294.1596 199,-294.1596"/>
<text text-anchor="start" x="204" y="-302.7596" font-family="Helvetica,sans-Serif" font-weight="bold" font-size="11.00" fill="#000000">venues</text>
<text text-anchor="start" x="245.5219" y="-302.2596" font-family="Helvetica,sans-Serif" font-size="11.00" fill="#000000">[table]</text>
<polygon fill="none" stroke="#000000" points="199,-275.1596 199,-294.1596 280,-294.1596 280,-275.1596 199,-275.1596"/>
<text text-anchor="start" x="202" y="-281.2596" font-family="Helvetica,sans-Serif" font-size="11.00" fill="#000000">...</text>
<polygon fill="#ffffff" stroke="transparent" points="199,-256.1596 199,-275.1596 220,-275.1596 220,-256.1596 199,-256.1596"/>
<polygon fill="none" stroke="#000000" points="199,-256.1596 199,-275.1596 220,-275.1596 220,-256.1596 199,-256.1596"/>
<text text-anchor="start" x="201.7027" y="-262.2596" font-family="Helvetica,sans-Serif" font-size="11.00" fill="#000000">&lt; 1</text>
<polygon fill="#ffffff" stroke="transparent" points="220,-256.1596 220,-275.1596 258,-275.1596 258,-256.1596 220,-256.1596"/>
<polygon fill="none" stroke="#000000" points="220,-256.1596 220,-275.1596 258,-275.1596 258,-256.1596 220,-256.1596"/>
<text text-anchor="start" x="222.8053" y="-262.2596" font-family="Helvetica,sans-Serif" font-size="11.00" fill="#000000">0 rows</text>
<polygon fill="#ffffff" stroke="transparent" points="258,-256.1596 258,-275.1596 280,-275.1596 280,-256.1596 258,-256.1596"/>
<polygon fill="none" stroke="#000000" points="258,-256.1596 258,-275.1596 280,-275.1596 280,-256.1596 258,-256.1596"/>
<text text-anchor="start" x="261.4053" y="-262.2596" font-family="Helvetica,sans-Serif" font-size="11.00" fill="#000000">2 &gt;</text>
</a>
</g>
</g>
<!-- events&#45;&gt;venues -->
<g id="edge6" class="edge">
<title>events:w&#45;&gt;venues:e</title>
<path fill="none" stroke="#000000" d="M382.0024,-345.7254C337.3718,-336.3478 333.5752,-284.1596 280,-284.1596"/>
<polygon fill="#000000" stroke="#000000" points="388.5389,-346.372 396.1456,-350.7421 392.5194,-346.7658 396.5,-347.1596 396.5,-347.1596 396.5,-347.1596 392.5194,-346.7658 396.8544,-343.5771 388.5389,-346.372 388.5389,-346.372"/>
<ellipse fill="none" stroke="#000000" cx="385.3544" cy="-346.0569" rx="3.2" ry="3.2"/>
</g>
<!-- venues&#45;&gt;chapters -->
<g id="edge9" class="edge">
<title>venues:w&#45;&gt;chapters:e</title>
<path fill="none" stroke="#000000" d="M184.2761,-284.1596C151.6139,-284.1596 138.3672,-284.1596 99.5,-284.1596"/>
<polygon fill="#000000" stroke="#000000" points="191,-284.1597 199,-287.7596 195,-284.1596 199,-284.1596 199,-284.1596 199,-284.1596 195,-284.1596 199,-280.5596 191,-284.1597 191,-284.1597"/>
<ellipse fill="none" stroke="#000000" cx="187.8" cy="-284.1597" rx="3.2" ry="3.2"/>
</g>
<!-- venue_tags -->
<g id="node7" class="node">
<title>venue_tags</title>
<g id="a_node7"><a xlink:href="../../tables/venue_tags.html" xlink:title="venue_tags" target="_top">
<polygon fill="#ffffff" stroke="transparent" points="384,-193.6596 384,-298.6596 489,-298.6596 489,-193.6596 384,-193.6596"/>
<polygon fill="#f5f5f5" stroke="transparent" points="384.5,-275.1596 384.5,-298.1596 489.5,-298.1596 489.5,-275.1596 384.5,-275.1596"/>
<polygon fill="none" stroke="#000000" points="384.5,-275.1596 384.5,-298.1596 489.5,-298.1596 489.5,-275.1596 384.5,-275.1596"/>
<text text-anchor="start" x="389.5" y="-283.7596" font-family="Helvetica,sans-Serif" font-weight="bold" font-size="11.00" fill="#000000">venue_tags</text>
<text text-anchor="start" x="455.0219" y="-283.2596" font-family="Helvetica,sans-Serif" font-size="11.00" fill="#000000">[table]</text>
<polygon fill="none" stroke="#000000" points="384.5,-253.1596 384.5,-275.1596 489.5,-275.1596 489.5,-253.1596 384.5,-253.1596"/>
<image xlink:href="../../images/primaryKeys.png" width="11px" height="12px" preserveAspectRatio="xMinYMin meet" x="389.5" y="-270.16"/>
<text text-anchor="start" x="413.5" y="-260.2596" font-family="Helvetica,sans-Serif" font-size="11.00" fill="#000000">venue_id</text>
<polygon fill="none" stroke="#000000" points="384.5,-231.1596 384.5,-253.1596 489.5,-253.1596 489.5,-231.1596 384.5,-231.1596"/>
<image xlink:href="../../images/primaryKeys.png" width="11px" height="12px" preserveAspectRatio="xMinYMin meet" x="389.5" y="-248.16"/>
<text text-anchor="start" x="413.5" y="-238.2596" font-family="Helvetica,sans-Serif" font-size="11.00" fill="#000000">tag_id</text>
<polygon fill="none" stroke="#000000" points="384.5,-212.1596 384.5,-231.1596 489.5,-231.1596 489.5,-212.1596 384.5,-212.1596"/>
<text text-anchor="start" x="387.5" y="-218.2596" font-family="Helvetica,sans-Serif" font-size="11.00" fill="#000000">...</text>
<polygon fill="#ffffff" stroke="transparent" points="384.5,-193.1596 384.5,-212.1596 422.5,-212.1596 422.5,-193.1596 384.5,-193.1596"/>
<polygon fill="none" stroke="#000000" points="384.5,-193.1596 384.5,-212.1596 422.5,-212.1596 422.5,-193.1596 384.5,-193.1596"/>
<text text-anchor="start" x="387.5" y="-199.2596" font-family="Helvetica,sans-Serif" font-size="11.00" fill="#000000">&lt; 2</text>
<polygon fill="#ffffff" stroke="transparent" points="422.5,-193.1596 422.5,-212.1596 468.5,-212.1596 468.5,-193.1596 422.5,-193.1596"/>
<polygon fill="none" stroke="#000000" points="422.5,-193.1596 422.5,-212.1596 468.5,-212.1596 468.5,-193.1596 422.5,-193.1596"/>
<text text-anchor="start" x="433.1105" y="-199.2596" font-family="Helvetica,sans-Serif" font-size="11.00" fill="#000000">0 rows</text>
<polygon fill="#ffffff" stroke="transparent" points="468.5,-193.1596 468.5,-212.1596 489.5,-212.1596 489.5,-193.1596 468.5,-193.1596"/>
<polygon fill="none" stroke="#000000" points="468.5,-193.1596 468.5,-212.1596 489.5,-212.1596 489.5,-193.1596 468.5,-193.1596"/>
<text text-anchor="start" x="480.3862" y="-199.2596" font-family="Helvetica,sans-Serif" font-size="11.00" fill="#000000"> &#160;</text>
</a>
</g>
</g>
<!-- venue_tags&#45;&gt;tags -->
<g id="edge7" class="edge">
<title>venue_tags:w&#45;&gt;tags:e</title>
<path fill="none" stroke="#000000" d="M370.3936,-239.045C334.4269,-219.642 383.6187,-116.1596 328,-116.1596"/>
<polygon fill="#000000" stroke="#000000" points="376.6881,-240.4347 383.7238,-245.6749 380.5941,-241.2972 384.5,-242.1596 384.5,-242.1596 384.5,-242.1596 380.5941,-241.2972 385.2762,-238.6443 376.6881,-240.4347 376.6881,-240.4347"/>
<ellipse fill="none" stroke="#000000" cx="373.5634" cy="-239.7448" rx="3.2" ry="3.2"/>
</g>
<!-- venue_tags&#45;&gt;venues -->
<g id="edge8" class="edge">
<title>venue_tags:w&#45;&gt;venues:e</title>
<path fill="none" stroke="#000000" d="M369.7594,-264.8714C334.4845,-268.4342 321.9306,-284.1596 280,-284.1596"/>
<polygon fill="#000000" stroke="#000000" points="376.5093,-264.5455 384.6737,-267.7554 380.5047,-264.3526 384.5,-264.1596 384.5,-264.1596 384.5,-264.1596 380.5047,-264.3526 384.3263,-260.5638 376.5093,-264.5455 376.5093,-264.5455"/>
<ellipse fill="none" stroke="#000000" cx="373.313" cy="-264.6999" rx="3.2" ry="3.2"/>
</g>
</g>
</svg>
