<?xml version="1.0" encoding="UTF-8" standalone="no"?>
<!DOCTYPE svg PUBLIC "-//W3C//DTD SVG 1.1//EN"
 "http://www.w3.org/Graphics/SVG/1.1/DTD/svg11.dtd">
<!-- Generated by graphviz version 2.40.1 (20161225.0304)
 -->
<!-- Title: twoDegreesRelationshipsDiagram Pages: 1 -->
<svg width="515pt" height="453pt"
 viewBox="0.00 0.00 515.00 453.20" xmlns="http://www.w3.org/2000/svg" xmlns:xlink="http://www.w3.org/1999/xlink">
<g id="graph0" class="graph" transform="scale(1 1) rotate(0) translate(4 449.2)">
<title>twoDegreesRelationshipsDiagram</title>
<polygon fill="#ffffff" stroke="transparent" points="-4,4 -4,-449.2 511,-449.2 511,4 -4,4"/>
<text text-anchor="middle" x="72.4936" y="-7.3" font-family="Helvetica,sans-Serif" font-size="11.00" fill="#000000">Generated by SchemaSpy</text>
<!-- event_sponsors -->
<g id="node1" class="node">
<title>event_sponsors</title>
<g id="a_node1"><a xlink:href="../../tables/event_sponsors.html" xlink:title="event_sponsors" target="_top">
<polygon fill="#ffffff" stroke="transparent" points="334,-380.2 334,-441.2 454,-441.2 454,-380.2 334,-380.2"/>
<polygon fill="#f5f5f5" stroke="transparent" points="334,-417.7 334,-440.7 454,-440.7 454,-417.7 334,-417.7"/>
<polygon fill="none" stroke="#000000" points="334,-417.7 334,-440.7 454,-440.7 454,-417.7 334,-417.7"/>
<text text-anchor="start" x="338.681" y="-426.8" font-family="Helvetica,sans-Serif" font-weight="bold" font-size="11.00" fill="#000000">event_sponsors</text>
<text text-anchor="start" x="419.5219" y="-425.8" font-family="Helvetica,sans-Serif" font-size="11.00" fill="#000000">[table]</text>
<polygon fill="none" stroke="#000000" points="334,-398.7 334,-417.7 454,-417.7 454,-398.7 334,-398.7"/>
<text text-anchor="start" x="337" y="-404.8" font-family="Helvetica,sans-Serif" font-size="11.00" fill="#000000">...</text>
<polygon fill="#ffffff" stroke="transparent" points="334,-379.7 334,-398.7 379,-398.7 379,-379.7 334,-379.7"/>
<polygon fill="none" stroke="#000000" points="334,-379.7 334,-398.7 379,-398.7 379,-379.7 334,-379.7"/>
<text text-anchor="start" x="337" y="-385.8" font-family="Helvetica,sans-Serif" font-size="11.00" fill="#000000">&lt; 2</text>
<polygon fill="#ffffff" stroke="transparent" points="379,-379.7 379,-398.7 429,-398.7 429,-379.7 379,-379.7"/>
<polygon fill="none" stroke="#000000" points="379,-379.7 379,-398.7 429,-398.7 429,-379.7 379,-379.7"/>
<text text-anchor="start" x="393.6105" y="-385.8" font-family="Helvetica,sans-Serif" font-size="11.00" fill="#000000">8 rows</text>
<polygon fill="#ffffff" stroke="transparent" points="429,-379.7 429,-398.7 454,-398.7 454,-379.7 429,-379.7"/>
<polygon fill="none" stroke="#000000" points="429,-379.7 429,-398.7 454,-398.7 454,-379.7 429,-379.7"/>
<text text-anchor="start" x="444.8862" y="-385.8" font-family="Helvetica,sans-Serif" font-size="11.00" fill="#000000"> &#160;</text>
</a>
</g>
</g>
<!-- events -->
<g id="node2" class="node">
<title>events</title>
<g id="a_node2"><a xlink:href="../../tables/events.html" xlink:title="events" target="_top">
<polygon fill="#ffffff" stroke="transparent" points="142,-168.2 142,-295.2 240,-295.2 240,-168.2 142,-168.2"/>
<polygon fill="#f5f5f5" stroke="transparent" points="142,-271.7 142,-294.7 240,-294.7 240,-271.7 142,-271.7"/>
<polygon fill="none" stroke="#000000" points="142,-271.7 142,-294.7 240,-294.7 240,-271.7 142,-271.7"/>
<text text-anchor="start" x="147" y="-280.8" font-family="Helvetica,sans-Serif" font-weight="bold" font-size="11.00" fill="#000000">events</text>
<text text-anchor="start" x="205.0437" y="-279.8" font-family="Helvetica,sans-Serif" font-size="11.00" fill="#000000">[table]</text>
<polygon fill="none" stroke="#000000" points="142,-249.7 142,-271.7 240,-271.7 240,-249.7 142,-249.7"/>
<image xlink:href="../../images/primaryKeys.png" width="11px" height="12px" preserveAspectRatio="xMinYMin meet" x="147" y="-266.7"/>
<text text-anchor="start" x="162" y="-256.8" font-family="Helvetica,sans-Serif" font-size="11.00" fill="#000000">id</text>
<polygon fill="none" stroke="#000000" points="142,-227.7 142,-249.7 240,-249.7 240,-227.7 142,-227.7"/>
<image xlink:href="../../images/foreignKeys.png" width="11px" height="12px" preserveAspectRatio="xMinYMin meet" x="147" y="-244.7"/>
<text text-anchor="start" x="162" y="-234.8" font-family="Helvetica,sans-Serif" font-size="11.00" fill="#000000">venue_id</text>
<polygon fill="none" stroke="#000000" points="142,-205.7 142,-227.7 240,-227.7 240,-205.7 142,-205.7"/>
<image xlink:href="../../images/foreignKeys.png" width="11px" height="12px" preserveAspectRatio="xMinYMin meet" x="147" y="-222.7"/>
<text text-anchor="start" x="162" y="-212.8" font-family="Helvetica,sans-Serif" font-size="11.00" fill="#000000">chapter_id</text>
<polygon fill="none" stroke="#000000" points="142,-186.7 142,-205.7 240,-205.7 240,-186.7 142,-186.7"/>
<text text-anchor="start" x="145" y="-192.8" font-family="Helvetica,sans-Serif" font-size="11.00" fill="#000000">...</text>
<polygon fill="#ffffff" stroke="transparent" points="142,-167.7 142,-186.7 172,-186.7 172,-167.7 142,-167.7"/>
<polygon fill="none" stroke="#000000" points="142,-167.7 142,-186.7 172,-186.7 172,-167.7 142,-167.7"/>
<text text-anchor="start" x="145" y="-173.8" font-family="Helvetica,sans-Serif" font-size="11.00" fill="#000000">&lt; 2</text>
<polygon fill="#ffffff" stroke="transparent" points="172,-167.7 172,-186.7 214,-186.7 214,-167.7 172,-167.7"/>
<polygon fill="none" stroke="#000000" points="172,-167.7 172,-186.7 214,-186.7 214,-167.7 172,-167.7"/>
<text text-anchor="start" x="178.6105" y="-173.8" font-family="Helvetica,sans-Serif" font-size="11.00" fill="#000000">4 rows</text>
<polygon fill="#ffffff" stroke="transparent" points="214,-167.7 214,-186.7 240,-186.7 240,-167.7 214,-167.7"/>
<polygon fill="none" stroke="#000000" points="214,-167.7 214,-186.7 240,-186.7 240,-167.7 214,-167.7"/>
<text text-anchor="start" x="221.4053" y="-173.8" font-family="Helvetica,sans-Serif" font-size="11.00" fill="#000000">4 &gt;</text>
</a>
</g>
</g>
<!-- event_sponsors&#45;&gt;events -->
<g id="edge1" class="edge">
<title>event_sponsors:w&#45;&gt;events:e</title>
<path fill="none" stroke="#000000" d="M319.3519,-406.0354C302.0952,-401.5351 295.1942,-388.207 281,-369.7 249.501,-328.6302 291.7582,-260.7 240,-260.7"/>
<polygon fill="#000000" stroke="#000000" points="326.0512,-406.7967 333.5935,-411.277 330.0256,-407.2483 334,-407.7 334,-407.7 334,-407.7 330.0256,-407.2483 334.4065,-404.123 326.0512,-406.7967 326.0512,-406.7967"/>
<ellipse fill="none" stroke="#000000" cx="322.8716" cy="-406.4353" rx="3.2" ry="3.2"/>
</g>
<!-- chapters -->
<g id="node3" class="node">
<title>chapters</title>
<g id="a_node3"><a xlink:href="../../tables/chapters.html" xlink:title="chapters" target="_top">
<polygon fill="#ffffff" stroke="transparent" points="8,-159.2 8,-220.2 93,-220.2 93,-159.2 8,-159.2"/>
<polygon fill="#f5f5f5" stroke="transparent" points="8.5,-196.7 8.5,-219.7 93.5,-219.7 93.5,-196.7 8.5,-196.7"/>
<polygon fill="none" stroke="#000000" points="8.5,-196.7 8.5,-219.7 93.5,-219.7 93.5,-196.7 8.5,-196.7"/>
<text text-anchor="start" x="13.4108" y="-205.8" font-family="Helvetica,sans-Serif" font-weight="bold" font-size="11.00" fill="#000000">chapters</text>
<text text-anchor="start" x="59.0219" y="-204.8" font-family="Helvetica,sans-Serif" font-size="11.00" fill="#000000">[table]</text>
<polygon fill="none" stroke="#000000" points="8.5,-177.7 8.5,-196.7 93.5,-196.7 93.5,-177.7 8.5,-177.7"/>
<text text-anchor="start" x="11.5" y="-183.8" font-family="Helvetica,sans-Serif" font-size="11.00" fill="#000000">...</text>
<polygon fill="#ffffff" stroke="transparent" points="8.5,-158.7 8.5,-177.7 31.5,-177.7 31.5,-158.7 8.5,-158.7"/>
<polygon fill="none" stroke="#000000" points="8.5,-158.7 8.5,-177.7 31.5,-177.7 31.5,-158.7 8.5,-158.7"/>
<text text-anchor="start" x="11.5" y="-164.8" font-family="Helvetica,sans-Serif" font-size="11.00" fill="#000000">&lt; 1</text>
<polygon fill="#ffffff" stroke="transparent" points="31.5,-158.7 31.5,-177.7 70.5,-177.7 70.5,-158.7 31.5,-158.7"/>
<polygon fill="none" stroke="#000000" points="31.5,-158.7 31.5,-177.7 70.5,-177.7 70.5,-158.7 31.5,-158.7"/>
<text text-anchor="start" x="35.1105" y="-164.8" font-family="Helvetica,sans-Serif" font-size="11.00" fill="#000000">4 rows</text>
<polygon fill="#ffffff" stroke="transparent" points="70.5,-158.7 70.5,-177.7 93.5,-177.7 93.5,-158.7 70.5,-158.7"/>
<polygon fill="none" stroke="#000000" points="70.5,-158.7 70.5,-177.7 93.5,-177.7 93.5,-158.7 70.5,-158.7"/>
<text text-anchor="start" x="74.9053" y="-164.8" font-family="Helvetica,sans-Serif" font-size="11.00" fill="#000000">3 &gt;</text>
</a>
</g>
</g>
<!-- events&#45;&gt;chapters -->
<g id="edge2" class="edge">
<title>events:w&#45;&gt;chapters:e</title>
<path fill="none" stroke="#000000" d="M128.0076,-212.5286C116.1688,-204.2854 112.9055,-186.7 93.5,-186.7"/>
<polygon fill="#000000" stroke="#000000" points="134.3334,-214.4144 140.9715,-220.15 138.1667,-215.5572 142,-216.7 142,-216.7 142,-216.7 138.1667,-215.5572 143.0285,-213.25 134.3334,-214.4144 134.3334,-214.4144"/>
<ellipse fill="none" stroke="#000000" cx="131.2668" cy="-213.5002" rx="3.2" ry="3.2"/>
</g>
<!-- venues -->
<g id="node4" class="node">
<title>venues</title>
<g id="a_node4"><a xlink:href="../../tables/venues.html" xlink:title="venues" target="_top">
<polygon fill="#ffffff" stroke="transparent" points="11.5,-241.2 11.5,-302.2 89.5,-302.2 89.5,-241.2 11.5,-241.2"/>
<polygon fill="#f5f5f5" stroke="transparent" points="11.5,-278.7 11.5,-301.7 89.5,-301.7 89.5,-278.7 11.5,-278.7"/>
<polygon fill="none" stroke="#000000" points="11.5,-278.7 11.5,-301.7 89.5,-301.7 89.5,-278.7 11.5,-278.7"/>
<text text-anchor="start" x="16.2702" y="-287.8" font-family="Helvetica,sans-Serif" font-weight="bold" font-size="11.00" fill="#000000">venues</text>
<text text-anchor="start" x="55.0219" y="-286.8" font-family="Helvetica,sans-Serif" font-size="11.00" fill="#000000">[table]</text>
<polygon fill="none" stroke="#000000" points="11.5,-259.7 11.5,-278.7 89.5,-278.7 89.5,-259.7 11.5,-259.7"/>
<text text-anchor="start" x="14.5" y="-265.8" font-family="Helvetica,sans-Serif" font-size="11.00" fill="#000000">...</text>
<polygon fill="#ffffff" stroke="transparent" points="11.5,-240.7 11.5,-259.7 26.5,-259.7 26.5,-240.7 11.5,-240.7"/>
<polygon fill="none" stroke="#000000" points="11.5,-240.7 11.5,-259.7 26.5,-259.7 26.5,-240.7 11.5,-240.7"/>
<text text-anchor="start" x="14.5" y="-246.8" font-family="Helvetica,sans-Serif" font-size="11.00" fill="#000000"> &#160;</text>
<polygon fill="#ffffff" stroke="transparent" points="26.5,-240.7 26.5,-259.7 66.5,-259.7 66.5,-240.7 26.5,-240.7"/>
<polygon fill="none" stroke="#000000" points="26.5,-240.7 26.5,-259.7 66.5,-259.7 66.5,-240.7 26.5,-240.7"/>
<text text-anchor="start" x="31.1105" y="-246.8" font-family="Helvetica,sans-Serif" font-size="11.00" fill="#000000">4 rows</text>
<polygon fill="#ffffff" stroke="transparent" points="66.5,-240.7 66.5,-259.7 89.5,-259.7 89.5,-240.7 66.5,-240.7"/>
<polygon fill="none" stroke="#000000" points="66.5,-240.7 66.5,-259.7 89.5,-259.7 89.5,-240.7 66.5,-240.7"/>
<text text-anchor="start" x="70.9053" y="-246.8" font-family="Helvetica,sans-Serif" font-size="11.00" fill="#000000">1 &gt;</text>
</a>
</g>
</g>
<!-- events&#45;&gt;venues -->
<g id="edge3" class="edge">
<title>events:w&#45;&gt;venues:e</title>
<path fill="none" stroke="#000000" d="M127.8122,-242.3786C114.3263,-250.3895 110.4955,-268.7 89.5,-268.7"/>
<polygon fill="#000000" stroke="#000000" points="134.2561,-240.7079 142.9035,-242.1848 138.128,-239.7039 142,-238.7 142,-238.7 142,-238.7 138.128,-239.7039 141.0965,-235.2152 134.2561,-240.7079 134.2561,-240.7079"/>
<ellipse fill="none" stroke="#000000" cx="131.1585" cy="-241.511" rx="3.2" ry="3.2"/>
</g>
<!-- rsvps -->
<g id="node5" class="node">
<title>rsvps</title>
<g id="a_node5"><a xlink:href="../../tables/rsvps.html" xlink:title="rsvps" target="_top">
<polygon fill="#ffffff" stroke="transparent" points="355.5,-298.2 355.5,-359.2 432.5,-359.2 432.5,-298.2 355.5,-298.2"/>
<polygon fill="#f5f5f5" stroke="transparent" points="356,-335.7 356,-358.7 433,-358.7 433,-335.7 356,-335.7"/>
<polygon fill="none" stroke="#000000" points="356,-335.7 356,-358.7 433,-358.7 433,-335.7 356,-335.7"/>
<text text-anchor="start" x="361" y="-344.8" font-family="Helvetica,sans-Serif" font-weight="bold" font-size="11.00" fill="#000000">rsvps</text>
<text text-anchor="start" x="398.0437" y="-343.8" font-family="Helvetica,sans-Serif" font-size="11.00" fill="#000000">[table]</text>
<polygon fill="none" stroke="#000000" points="356,-316.7 356,-335.7 433,-335.7 433,-316.7 356,-316.7"/>
<text text-anchor="start" x="359" y="-322.8" font-family="Helvetica,sans-Serif" font-size="11.00" fill="#000000">...</text>
<polygon fill="#ffffff" stroke="transparent" points="356,-297.7 356,-316.7 377,-316.7 377,-297.7 356,-297.7"/>
<polygon fill="none" stroke="#000000" points="356,-297.7 356,-316.7 377,-316.7 377,-297.7 356,-297.7"/>
<text text-anchor="start" x="358.7027" y="-303.8" font-family="Helvetica,sans-Serif" font-size="11.00" fill="#000000">&lt; 2</text>
<polygon fill="#ffffff" stroke="transparent" points="377,-297.7 377,-316.7 421,-316.7 421,-297.7 377,-297.7"/>
<polygon fill="none" stroke="#000000" points="377,-297.7 377,-316.7 421,-316.7 421,-297.7 377,-297.7"/>
<text text-anchor="start" x="379.7478" y="-303.8" font-family="Helvetica,sans-Serif" font-size="11.00" fill="#000000">20 rows</text>
<polygon fill="#ffffff" stroke="transparent" points="421,-297.7 421,-316.7 433,-316.7 433,-297.7 421,-297.7"/>
<polygon fill="none" stroke="#000000" points="421,-297.7 421,-316.7 433,-316.7 433,-297.7 421,-297.7"/>
<text text-anchor="start" x="423.9431" y="-303.8" font-family="Helvetica,sans-Serif" font-size="11.00" fill="#000000"> &#160;</text>
</a>
</g>
</g>
<!-- rsvps&#45;&gt;events -->
<g id="edge4" class="edge">
<title>rsvps:w&#45;&gt;events:e</title>
<path fill="none" stroke="#000000" d="M341.6283,-324.5533C316.5332,-320.1461 308.6512,-303.7405 281,-287.7 262.1271,-276.7518 261.8186,-260.7 240,-260.7"/>
<polygon fill="#000000" stroke="#000000" points="348.0253,-325.0637 355.7136,-329.2886 352.0127,-325.3818 356,-325.7 356,-325.7 356,-325.7 352.0127,-325.3818 356.2864,-322.1114 348.0253,-325.0637 348.0253,-325.0637"/>
<ellipse fill="none" stroke="#000000" cx="344.8355" cy="-324.8091" rx="3.2" ry="3.2"/>
</g>
<!-- tags -->
<g id="node6" class="node">
<title>tags</title>
<g id="a_node6"><a xlink:href="../../tables/tags.html" xlink:title="tags" target="_top">
<polygon fill="#ffffff" stroke="transparent" points="289,-120.7 289,-276.7 499,-276.7 499,-120.7 289,-120.7"/>
<polygon fill="#f5f5f5" stroke="transparent" points="291,-251.7 291,-274.7 497,-274.7 497,-251.7 291,-251.7"/>
<polygon fill="none" stroke="#000000" points="291,-251.7 291,-274.7 497,-274.7 497,-251.7 291,-251.7"/>
<text text-anchor="start" x="296" y="-260.8" font-family="Helvetica,sans-Serif" font-weight="bold" font-size="11.00" fill="#000000">tags</text>
<text text-anchor="start" x="462.0437" y="-259.8" font-family="Helvetica,sans-Serif" font-size="11.00" fill="#000000">[table]</text>
<polygon fill="none" stroke="#000000" points="291,-229.7 291,-251.7 388,-251.7 388,-229.7 291,-229.7"/>
<image xlink:href="../../images/primaryKeys.png" width="11px" height="12px" preserveAspectRatio="xMinYMin meet" x="296" y="-246.7"/>
<text text-anchor="start" x="311" y="-236.8" font-family="Helvetica,sans-Serif" font-size="11.00" fill="#000000">id</text>
<polygon fill="none" stroke="#000000" points="388,-229.7 388,-251.7 497,-251.7 497,-229.7 388,-229.7"/>
<text text-anchor="start" x="391" y="-237.4" font-family="Helvetica,sans-Serif" font-size="11.00" fill="#000000">serial[10]</text>
<polygon fill="none" stroke="#000000" points="291,-207.7 291,-229.7 388,-229.7 388,-207.7 291,-207.7"/>
<text text-anchor="start" x="311" y="-214.8" font-family="Helvetica,sans-Serif" font-size="11.00" fill="#000000">name</text>
<polygon fill="none" stroke="#000000" points="388,-207.7 388,-229.7 497,-229.7 497,-207.7 388,-207.7"/>
<text text-anchor="start" x="390.5344" y="-215.4" font-family="Helvetica,sans-Serif" font-size="11.00" fill="#000000">varchar[2147483647]</text>
<polygon fill="none" stroke="#000000" points="291,-185.7 291,-207.7 388,-207.7 388,-185.7 291,-185.7"/>
<image xlink:href="../../images/foreignKeys.png" width="11px" height="12px" preserveAspectRatio="xMinYMin meet" x="296" y="-202.7"/>
<text text-anchor="start" x="311" y="-192.8" font-family="Helvetica,sans-Serif" font-size="11.00" fill="#000000">event_id</text>
<polygon fill="none" stroke="#000000" points="388,-185.7 388,-207.7 497,-207.7 497,-185.7 388,-185.7"/>
<text text-anchor="start" x="391" y="-193.4" font-family="Helvetica,sans-Serif" font-size="11.00" fill="#000000">int4[10]</text>
<polygon fill="none" stroke="#000000" points="291,-163.7 291,-185.7 388,-185.7 388,-163.7 291,-163.7"/>
<text text-anchor="start" x="311" y="-170.8" font-family="Helvetica,sans-Serif" font-size="11.00" fill="#000000">created_at</text>
<polygon fill="none" stroke="#000000" points="388,-163.7 388,-185.7 497,-185.7 497,-163.7 388,-163.7"/>
<text text-anchor="start" x="391" y="-171.4" font-family="Helvetica,sans-Serif" font-size="11.00" fill="#000000">timestamp[29,6]</text>
<polygon fill="none" stroke="#000000" points="291,-141.7 291,-163.7 388,-163.7 388,-141.7 291,-141.7"/>
<text text-anchor="start" x="311" y="-148.8" font-family="Helvetica,sans-Serif" font-size="11.00" fill="#000000">updated_at</text>
<polygon fill="none" stroke="#000000" points="388,-141.7 388,-163.7 497,-163.7 497,-141.7 388,-141.7"/>
<text text-anchor="start" x="391" y="-149.4" font-family="Helvetica,sans-Serif" font-size="11.00" fill="#000000">timestamp[29,6]</text>
<polygon fill="#ffffff" stroke="transparent" points="291,-122.7 291,-141.7 331,-141.7 331,-122.7 291,-122.7"/>
<polygon fill="none" stroke="#000000" points="291,-122.7 291,-141.7 331,-141.7 331,-122.7 291,-122.7"/>
<text text-anchor="start" x="294" y="-128.8" font-family="Helvetica,sans-Serif" font-size="11.00" fill="#000000">&lt; 1</text>
<polygon fill="#ffffff" stroke="transparent" points="331,-122.7 331,-141.7 388,-141.7 388,-122.7 331,-122.7"/>
<polygon fill="none" stroke="#000000" points="331,-122.7 331,-141.7 388,-141.7 388,-122.7 331,-122.7"/>
<text text-anchor="start" x="352.6105" y="-128.8" font-family="Helvetica,sans-Serif" font-size="11.00" fill="#000000">9 rows</text>
<polygon fill="#ffffff" stroke="transparent" points="388,-122.7 388,-141.7 497,-141.7 497,-122.7 388,-122.7"/>
<polygon fill="none" stroke="#000000" points="388,-122.7 388,-141.7 497,-141.7 497,-122.7 388,-122.7"/>
<text text-anchor="start" x="478.4053" y="-128.8" font-family="Helvetica,sans-Serif" font-size="11.00" fill="#000000">0 &gt;</text>
<polygon fill="none" stroke="#000000" stroke-width="2" points="290,-121.7 290,-275.7 498,-275.7 498,-121.7 290,-121.7"/>
</a>
</g>
</g>
<!-- tags&#45;&gt;events -->
<g id="edge5" class="edge">
<title>tags:w&#45;&gt;events:e</title>
<path fill="none" stroke="#000000" d="M277.2779,-201.3027C260.1988,-215.9773 270.4041,-260.7 240,-260.7"/>
<polygon fill="#000000" stroke="#000000" points="283.4153,-199.2441 292.1449,-200.1131 287.2077,-197.9721 291,-196.7 291,-196.7 291,-196.7 287.2077,-197.9721 289.8551,-193.2869 283.4153,-199.2441 283.4153,-199.2441"/>
<ellipse fill="none" stroke="#000000" cx="280.3814" cy="-200.2618" rx="3.2" ry="3.2"/>
</g>
<!-- user_event_roles -->
<g id="node7" class="node">
<title>user_event_roles</title>
<g id="a_node7"><a xlink:href="../../tables/user_event_roles.html" xlink:title="user_event_roles" target="_top">
<polygon fill="#ffffff" stroke="transparent" points="330.5,-38.2 330.5,-99.2 457.5,-99.2 457.5,-38.2 330.5,-38.2"/>
<polygon fill="#f5f5f5" stroke="transparent" points="331,-75.7 331,-98.7 458,-98.7 458,-75.7 331,-75.7"/>
<polygon fill="none" stroke="#000000" points="331,-75.7 331,-98.7 458,-98.7 458,-75.7 331,-75.7"/>
<text text-anchor="start" x="335.8222" y="-84.8" font-family="Helvetica,sans-Serif" font-weight="bold" font-size="11.00" fill="#000000">user_event_roles</text>
<text text-anchor="start" x="423.5219" y="-83.8" font-family="Helvetica,sans-Serif" font-size="11.00" fill="#000000">[table]</text>
<polygon fill="none" stroke="#000000" points="331,-56.7 331,-75.7 458,-75.7 458,-56.7 331,-56.7"/>
<text text-anchor="start" x="334" y="-62.8" font-family="Helvetica,sans-Serif" font-size="11.00" fill="#000000">...</text>
<polygon fill="#ffffff" stroke="transparent" points="331,-37.7 331,-56.7 377,-56.7 377,-37.7 331,-37.7"/>
<polygon fill="none" stroke="#000000" points="331,-37.7 331,-56.7 377,-56.7 377,-37.7 331,-37.7"/>
<text text-anchor="start" x="334" y="-43.8" font-family="Helvetica,sans-Serif" font-size="11.00" fill="#000000">&lt; 2</text>
<polygon fill="#ffffff" stroke="transparent" points="377,-37.7 377,-56.7 433,-56.7 433,-37.7 377,-37.7"/>
<polygon fill="none" stroke="#000000" points="377,-37.7 377,-56.7 433,-56.7 433,-37.7 377,-37.7"/>
<text text-anchor="start" x="391.4956" y="-43.8" font-family="Helvetica,sans-Serif" font-size="11.00" fill="#000000">20 rows</text>
<polygon fill="#ffffff" stroke="transparent" points="433,-37.7 433,-56.7 458,-56.7 458,-37.7 433,-37.7"/>
<polygon fill="none" stroke="#000000" points="433,-37.7 433,-56.7 458,-56.7 458,-37.7 433,-37.7"/>
<text text-anchor="start" x="448.8862" y="-43.8" font-family="Helvetica,sans-Serif" font-size="11.00" fill="#000000"> &#160;</text>
</a>
</g>
</g>
<!-- user_event_roles&#45;&gt;events -->
<g id="edge6" class="edge">
<title>user_event_roles:w&#45;&gt;events:e</title>
<path fill="none" stroke="#000000" d="M316.6282,-67.6719C299.051,-73.2386 293.7464,-90.0216 281,-110.7 244.7347,-169.533 309.1122,-260.7 240,-260.7"/>
<polygon fill="#000000" stroke="#000000" points="323.0743,-66.7875 331.4894,-69.2666 327.0371,-66.2438 331,-65.7 331,-65.7 331,-65.7 327.0371,-66.2438 330.5106,-62.1334 323.0743,-66.7875 323.0743,-66.7875"/>
<ellipse fill="none" stroke="#000000" cx="319.904" cy="-67.2225" rx="3.2" ry="3.2"/>
</g>
</g>
</svg>
