<?xml version="1.0" encoding="UTF-8" standalone="no"?>
<!DOCTYPE svg PUBLIC "-//W3C//DTD SVG 1.1//EN"
 "http://www.w3.org/Graphics/SVG/1.1/DTD/svg11.dtd">
<!-- Generated by graphviz version 2.40.1 (20161225.0304)
 -->
<!-- Title: oneDegreeRelationshipsDiagram Pages: 1 -->
<svg width="359pt" height="267pt"
 viewBox="0.00 0.00 359.00 266.70" xmlns="http://www.w3.org/2000/svg" xmlns:xlink="http://www.w3.org/1999/xlink">
<g id="graph0" class="graph" transform="scale(1 1) rotate(0) translate(4 262.7)">
<title>oneDegreeRelationshipsDiagram</title>
<polygon fill="#ffffff" stroke="transparent" points="-4,4 -4,-262.7 355,-262.7 355,4 -4,4"/>
<text text-anchor="middle" x="72.4936" y="-7.3" font-family="Helvetica,sans-Serif" font-size="11.00" fill="#000000">Generated by SchemaSpy</text>
<!-- tags -->
<g id="node1" class="node">
<title>tags</title>
<g id="a_node1"><a xlink:href="../../tables/tags.html" xlink:title="tags" target="_top">
<polygon fill="#ffffff" stroke="transparent" points="161,-98.7 161,-254.7 343,-254.7 343,-98.7 161,-98.7"/>
<polygon fill="#f5f5f5" stroke="transparent" points="163,-229.7 163,-252.7 341,-252.7 341,-229.7 163,-229.7"/>
<polygon fill="none" stroke="#000000" points="163,-229.7 163,-252.7 341,-252.7 341,-229.7 163,-229.7"/>
<text text-anchor="start" x="168" y="-238.8" font-family="Helvetica,sans-Serif" font-weight="bold" font-size="11.00" fill="#000000">tags</text>
<text text-anchor="start" x="306.0437" y="-237.8" font-family="Helvetica,sans-Serif" font-size="11.00" fill="#000000">[table]</text>
<polygon fill="none" stroke="#000000" points="163,-207.7 163,-229.7 251,-229.7 251,-207.7 163,-207.7"/>
<text text-anchor="start" x="183" y="-214.8" font-family="Helvetica,sans-Serif" font-size="11.00" fill="#000000">created_at</text>
<polygon fill="none" stroke="#000000" points="251,-207.7 251,-229.7 341,-229.7 341,-207.7 251,-207.7"/>
<text text-anchor="start" x="254" y="-215.4" font-family="Helvetica,sans-Serif" font-size="11.00" fill="#000000">timestamp[26,3]</text>
<polygon fill="none" stroke="#000000" points="163,-185.7 163,-207.7 251,-207.7 251,-185.7 163,-185.7"/>
<text text-anchor="start" x="183" y="-192.8" font-family="Helvetica,sans-Serif" font-size="11.00" fill="#000000">updated_at</text>
<polygon fill="none" stroke="#000000" points="251,-185.7 251,-207.7 341,-207.7 341,-185.7 251,-185.7"/>
<text text-anchor="start" x="254" y="-193.4" font-family="Helvetica,sans-Serif" font-size="11.00" fill="#000000">timestamp[26,3]</text>
<polygon fill="none" stroke="#000000" points="163,-163.7 163,-185.7 251,-185.7 251,-163.7 163,-163.7"/>
<image xlink:href="../../images/primaryKeys.png" width="11px" height="12px" preserveAspectRatio="xMinYMin meet" x="168" y="-180.7"/>
<text text-anchor="start" x="183" y="-170.8" font-family="Helvetica,sans-Serif" font-size="11.00" fill="#000000">id</text>
<polygon fill="none" stroke="#000000" points="251,-163.7 251,-185.7 341,-185.7 341,-163.7 251,-163.7"/>
<text text-anchor="start" x="254" y="-171.4" font-family="Helvetica,sans-Serif" font-size="11.00" fill="#000000">serial[10]</text>
<polygon fill="none" stroke="#000000" points="163,-141.7 163,-163.7 251,-163.7 251,-141.7 163,-141.7"/>
<text text-anchor="start" x="183" y="-148.8" font-family="Helvetica,sans-Serif" font-size="11.00" fill="#000000">name</text>
<polygon fill="none" stroke="#000000" points="251,-141.7 251,-163.7 341,-163.7 341,-141.7 251,-141.7"/>
<text text-anchor="start" x="253.5043" y="-149.4" font-family="Helvetica,sans-Serif" font-size="11.00" fill="#000000">text[2147483647]</text>
<polygon fill="none" stroke="#000000" points="163,-119.7 163,-141.7 251,-141.7 251,-119.7 163,-119.7"/>
<image xlink:href="../../images/foreignKeys.png" width="11px" height="12px" preserveAspectRatio="xMinYMin meet" x="168" y="-136.7"/>
<text text-anchor="start" x="183" y="-126.8" font-family="Helvetica,sans-Serif" font-size="11.00" fill="#000000">event_id</text>
<polygon fill="none" stroke="#000000" points="251,-119.7 251,-141.7 341,-141.7 341,-119.7 251,-119.7"/>
<text text-anchor="start" x="254" y="-127.4" font-family="Helvetica,sans-Serif" font-size="11.00" fill="#000000">int4[10]</text>
<polygon fill="#ffffff" stroke="transparent" points="163,-100.7 163,-119.7 198,-119.7 198,-100.7 163,-100.7"/>
<polygon fill="none" stroke="#000000" points="163,-100.7 163,-119.7 198,-119.7 198,-100.7 163,-100.7"/>
<text text-anchor="start" x="166" y="-106.8" font-family="Helvetica,sans-Serif" font-size="11.00" fill="#000000">&lt; 1</text>
<polygon fill="#ffffff" stroke="transparent" points="198,-100.7 198,-119.7 251,-119.7 251,-100.7 198,-100.7"/>
<polygon fill="none" stroke="#000000" points="198,-100.7 198,-119.7 251,-119.7 251,-100.7 198,-100.7"/>
<text text-anchor="start" x="215.6105" y="-106.8" font-family="Helvetica,sans-Serif" font-size="11.00" fill="#000000">0 rows</text>
<polygon fill="#ffffff" stroke="transparent" points="251,-100.7 251,-119.7 341,-119.7 341,-100.7 251,-100.7"/>
<polygon fill="none" stroke="#000000" points="251,-100.7 251,-119.7 341,-119.7 341,-100.7 251,-100.7"/>
<text text-anchor="start" x="322.4053" y="-106.8" font-family="Helvetica,sans-Serif" font-size="11.00" fill="#000000">0 &gt;</text>
<polygon fill="none" stroke="#000000" stroke-width="2" points="162,-99.7 162,-253.7 342,-253.7 342,-99.7 162,-99.7"/>
</a>
</g>
</g>
<!-- events -->
<g id="node2" class="node">
<title>events</title>
<g id="a_node2"><a xlink:href="../../tables/events.html" xlink:title="events" target="_top">
<polygon fill="#ffffff" stroke="transparent" points="8,-38.2 8,-165.2 112,-165.2 112,-38.2 8,-38.2"/>
<polygon fill="#f5f5f5" stroke="transparent" points="8,-141.7 8,-164.7 112,-164.7 112,-141.7 8,-141.7"/>
<polygon fill="none" stroke="#000000" points="8,-141.7 8,-164.7 112,-164.7 112,-141.7 8,-141.7"/>
<text text-anchor="start" x="13" y="-150.8" font-family="Helvetica,sans-Serif" font-weight="bold" font-size="11.00" fill="#000000">events</text>
<text text-anchor="start" x="77.0437" y="-149.8" font-family="Helvetica,sans-Serif" font-size="11.00" fill="#000000">[table]</text>
<polygon fill="none" stroke="#000000" points="8,-119.7 8,-141.7 112,-141.7 112,-119.7 8,-119.7"/>
<image xlink:href="../../images/primaryKeys.png" width="11px" height="12px" preserveAspectRatio="xMinYMin meet" x="13" y="-136.7"/>
<text text-anchor="start" x="28" y="-126.8" font-family="Helvetica,sans-Serif" font-size="11.00" fill="#000000">id</text>
<polygon fill="none" stroke="#000000" points="8,-97.7 8,-119.7 112,-119.7 112,-97.7 8,-97.7"/>
<image xlink:href="../../images/foreignKeys.png" width="11px" height="12px" preserveAspectRatio="xMinYMin meet" x="13" y="-114.7"/>
<text text-anchor="start" x="28" y="-104.8" font-family="Helvetica,sans-Serif" font-size="11.00" fill="#000000">venue_id</text>
<polygon fill="none" stroke="#000000" points="8,-75.7 8,-97.7 112,-97.7 112,-75.7 8,-75.7"/>
<image xlink:href="../../images/foreignKeys.png" width="11px" height="12px" preserveAspectRatio="xMinYMin meet" x="13" y="-92.7"/>
<text text-anchor="start" x="28" y="-82.8" font-family="Helvetica,sans-Serif" font-size="11.00" fill="#000000">chapter_id</text>
<polygon fill="none" stroke="#000000" points="8,-56.7 8,-75.7 112,-75.7 112,-56.7 8,-56.7"/>
<text text-anchor="start" x="11" y="-62.8" font-family="Helvetica,sans-Serif" font-size="11.00" fill="#000000">...</text>
<polygon fill="#ffffff" stroke="transparent" points="8,-37.7 8,-56.7 41,-56.7 41,-37.7 8,-37.7"/>
<polygon fill="none" stroke="#000000" points="8,-37.7 8,-56.7 41,-56.7 41,-37.7 8,-37.7"/>
<text text-anchor="start" x="11" y="-43.8" font-family="Helvetica,sans-Serif" font-size="11.00" fill="#000000">&lt; 2</text>
<polygon fill="#ffffff" stroke="transparent" points="41,-37.7 41,-56.7 85,-56.7 85,-37.7 41,-37.7"/>
<polygon fill="none" stroke="#000000" points="41,-37.7 41,-56.7 85,-56.7 85,-37.7 41,-37.7"/>
<text text-anchor="start" x="49.6105" y="-43.8" font-family="Helvetica,sans-Serif" font-size="11.00" fill="#000000">0 rows</text>
<polygon fill="#ffffff" stroke="transparent" points="85,-37.7 85,-56.7 112,-56.7 112,-37.7 85,-37.7"/>
<polygon fill="none" stroke="#000000" points="85,-37.7 85,-56.7 112,-56.7 112,-37.7 85,-37.7"/>
<text text-anchor="start" x="93.4053" y="-43.8" font-family="Helvetica,sans-Serif" font-size="11.00" fill="#000000">4 &gt;</text>
</a>
</g>
</g>
<!-- tags&#45;&gt;events -->
<g id="edge1" class="edge">
<title>tags:w&#45;&gt;events:e</title>
<path fill="none" stroke="#000000" d="M148.276,-130.7C136.2815,-130.7 128.8229,-130.7 112,-130.7"/>
<polygon fill="#000000" stroke="#000000" points="155,-130.7001 163,-134.3 159,-130.7 163,-130.7 163,-130.7 163,-130.7 159,-130.7 163,-127.1 155,-130.7001 155,-130.7001"/>
<ellipse fill="none" stroke="#000000" cx="151.8" cy="-130.7001" rx="3.2" ry="3.2"/>
</g>
</g>
</svg>
