<?xml version="1.0" encoding="UTF-8" standalone="no"?>
<!DOCTYPE svg PUBLIC "-//W3C//DTD SVG 1.1//EN"
 "http://www.w3.org/Graphics/SVG/1.1/DTD/svg11.dtd">
<!-- Generated by graphviz version 2.40.1 (20161225.0304)
 -->
<!-- Title: oneDegreeRelationshipsDiagram Pages: 1 -->
<svg width="557pt" height="473pt"
 viewBox="0.00 0.00 557.00 473.20" xmlns="http://www.w3.org/2000/svg" xmlns:xlink="http://www.w3.org/1999/xlink">
<g id="graph0" class="graph" transform="scale(1 1) rotate(0) translate(4 469.2)">
<title>oneDegreeRelationshipsDiagram</title>
<polygon fill="#ffffff" stroke="transparent" points="-4,4 -4,-469.2 553,-469.2 553,4 -4,4"/>
<text text-anchor="middle" x="72.4936" y="-7.3" font-family="Helvetica,sans-Serif" font-size="11.00" fill="#000000">Generated by SchemaSpy</text>
<!-- chapter_users -->
<g id="node1" class="node">
<title>chapter_users</title>
<g id="a_node1"><a xlink:href="../../tables/chapter_users.html" xlink:title="chapter_users" target="_top">
<polygon fill="#ffffff" stroke="transparent" points="429,-334.2 429,-461.2 541,-461.2 541,-334.2 429,-334.2"/>
<polygon fill="#f5f5f5" stroke="transparent" points="429,-437.7 429,-460.7 541,-460.7 541,-437.7 429,-437.7"/>
<polygon fill="none" stroke="#000000" points="429,-437.7 429,-460.7 541,-460.7 541,-437.7 429,-437.7"/>
<text text-anchor="start" x="433.6575" y="-446.8" font-family="Helvetica,sans-Serif" font-weight="bold" font-size="11.00" fill="#000000">chapter_users</text>
<text text-anchor="start" x="506.5219" y="-445.8" font-family="Helvetica,sans-Serif" font-size="11.00" fill="#000000">[table]</text>
<polygon fill="none" stroke="#000000" points="429,-415.7 429,-437.7 541,-437.7 541,-415.7 429,-415.7"/>
<image xlink:href="../../images/primaryKeys.png" width="11px" height="12px" preserveAspectRatio="xMinYMin meet" x="434" y="-432.7"/>
<text text-anchor="start" x="449" y="-422.8" font-family="Helvetica,sans-Serif" font-size="11.00" fill="#000000">user_id</text>
<polygon fill="none" stroke="#000000" points="429,-393.7 429,-415.7 541,-415.7 541,-393.7 429,-393.7"/>
<image xlink:href="../../images/primaryKeys.png" width="11px" height="12px" preserveAspectRatio="xMinYMin meet" x="434" y="-410.7"/>
<text text-anchor="start" x="449" y="-400.8" font-family="Helvetica,sans-Serif" font-size="11.00" fill="#000000">chapter_id</text>
<polygon fill="none" stroke="#000000" points="429,-371.7 429,-393.7 541,-393.7 541,-371.7 429,-371.7"/>
<image xlink:href="../../images/foreignKeys.png" width="11px" height="12px" preserveAspectRatio="xMinYMin meet" x="434" y="-388.7"/>
<text text-anchor="start" x="449" y="-378.8" font-family="Helvetica,sans-Serif" font-size="11.00" fill="#000000">chapter_role_id</text>
<polygon fill="none" stroke="#000000" points="429,-352.7 429,-371.7 541,-371.7 541,-352.7 429,-352.7"/>
<text text-anchor="start" x="432" y="-358.8" font-family="Helvetica,sans-Serif" font-size="11.00" fill="#000000">...</text>
<polygon fill="#ffffff" stroke="transparent" points="429,-333.7 429,-352.7 470,-352.7 470,-333.7 429,-333.7"/>
<polygon fill="none" stroke="#000000" points="429,-333.7 429,-352.7 470,-352.7 470,-333.7 429,-333.7"/>
<text text-anchor="start" x="432" y="-339.8" font-family="Helvetica,sans-Serif" font-size="11.00" fill="#000000">&lt; 3</text>
<polygon fill="#ffffff" stroke="transparent" points="470,-333.7 470,-352.7 518,-352.7 518,-333.7 470,-333.7"/>
<polygon fill="none" stroke="#000000" points="470,-333.7 470,-352.7 518,-352.7 518,-333.7 470,-333.7"/>
<text text-anchor="start" x="482.6105" y="-339.8" font-family="Helvetica,sans-Serif" font-size="11.00" fill="#000000">0 rows</text>
<polygon fill="#ffffff" stroke="transparent" points="518,-333.7 518,-352.7 541,-352.7 541,-333.7 518,-333.7"/>
<polygon fill="none" stroke="#000000" points="518,-333.7 518,-352.7 541,-352.7 541,-333.7 518,-333.7"/>
<text text-anchor="start" x="531.8862" y="-339.8" font-family="Helvetica,sans-Serif" font-size="11.00" fill="#000000"> &#160;</text>
</a>
</g>
</g>
<!-- users -->
<g id="node2" class="node">
<title>users</title>
<g id="a_node2"><a xlink:href="../../tables/users.html" xlink:title="users" target="_top">
<polygon fill="#ffffff" stroke="transparent" points="170,-158.7 170,-358.7 380,-358.7 380,-158.7 170,-158.7"/>
<polygon fill="#f5f5f5" stroke="transparent" points="172,-333.7 172,-356.7 378,-356.7 378,-333.7 172,-333.7"/>
<polygon fill="none" stroke="#000000" points="172,-333.7 172,-356.7 378,-356.7 378,-333.7 172,-333.7"/>
<text text-anchor="start" x="177" y="-342.8" font-family="Helvetica,sans-Serif" font-weight="bold" font-size="11.00" fill="#000000">users</text>
<text text-anchor="start" x="343.0437" y="-341.8" font-family="Helvetica,sans-Serif" font-size="11.00" fill="#000000">[table]</text>
<polygon fill="none" stroke="#000000" points="172,-311.7 172,-333.7 288,-333.7 288,-311.7 172,-311.7"/>
<text text-anchor="start" x="192" y="-318.8" font-family="Helvetica,sans-Serif" font-size="11.00" fill="#000000">created_at</text>
<polygon fill="none" stroke="#000000" points="288,-311.7 288,-333.7 378,-333.7 378,-311.7 288,-311.7"/>
<text text-anchor="start" x="291" y="-319.4" font-family="Helvetica,sans-Serif" font-size="11.00" fill="#000000">timestamp[26,3]</text>
<polygon fill="none" stroke="#000000" points="172,-289.7 172,-311.7 288,-311.7 288,-289.7 172,-289.7"/>
<text text-anchor="start" x="192" y="-296.8" font-family="Helvetica,sans-Serif" font-size="11.00" fill="#000000">updated_at</text>
<polygon fill="none" stroke="#000000" points="288,-289.7 288,-311.7 378,-311.7 378,-289.7 288,-289.7"/>
<text text-anchor="start" x="291" y="-297.4" font-family="Helvetica,sans-Serif" font-size="11.00" fill="#000000">timestamp[26,3]</text>
<polygon fill="none" stroke="#000000" points="172,-267.7 172,-289.7 288,-289.7 288,-267.7 172,-267.7"/>
<image xlink:href="../../images/primaryKeys.png" width="11px" height="12px" preserveAspectRatio="xMinYMin meet" x="177" y="-284.7"/>
<text text-anchor="start" x="192" y="-274.8" font-family="Helvetica,sans-Serif" font-size="11.00" fill="#000000">id</text>
<polygon fill="none" stroke="#000000" points="288,-267.7 288,-289.7 378,-289.7 378,-267.7 288,-267.7"/>
<text text-anchor="start" x="291" y="-275.4" font-family="Helvetica,sans-Serif" font-size="11.00" fill="#000000">serial[10]</text>
<polygon fill="none" stroke="#000000" points="172,-245.7 172,-267.7 288,-267.7 288,-245.7 172,-245.7"/>
<text text-anchor="start" x="192" y="-252.8" font-family="Helvetica,sans-Serif" font-size="11.00" fill="#000000">first_name</text>
<polygon fill="none" stroke="#000000" points="288,-245.7 288,-267.7 378,-267.7 378,-245.7 288,-245.7"/>
<text text-anchor="start" x="290.5043" y="-253.4" font-family="Helvetica,sans-Serif" font-size="11.00" fill="#000000">text[2147483647]</text>
<polygon fill="none" stroke="#000000" points="172,-223.7 172,-245.7 288,-245.7 288,-223.7 172,-223.7"/>
<text text-anchor="start" x="192" y="-230.8" font-family="Helvetica,sans-Serif" font-size="11.00" fill="#000000">last_name</text>
<polygon fill="none" stroke="#000000" points="288,-223.7 288,-245.7 378,-245.7 378,-223.7 288,-223.7"/>
<text text-anchor="start" x="290.5043" y="-231.4" font-family="Helvetica,sans-Serif" font-size="11.00" fill="#000000">text[2147483647]</text>
<polygon fill="#ffffff" stroke="transparent" points="172,-201.7 172,-223.7 288,-223.7 288,-201.7 172,-201.7"/>
<polygon fill="none" stroke="#000000" points="172,-201.7 172,-223.7 288,-223.7 288,-201.7 172,-201.7"/>
<text text-anchor="start" x="192" y="-208.8" font-family="Helvetica,sans-Serif" font-size="11.00" fill="#000000">email</text>
<polygon fill="none" stroke="#000000" points="288,-201.7 288,-223.7 378,-223.7 378,-201.7 288,-201.7"/>
<text text-anchor="start" x="290.5043" y="-209.4" font-family="Helvetica,sans-Serif" font-size="11.00" fill="#000000">text[2147483647]</text>
<polygon fill="none" stroke="#000000" points="172,-179.7 172,-201.7 288,-201.7 288,-179.7 172,-179.7"/>
<image xlink:href="../../images/foreignKeys.png" width="11px" height="12px" preserveAspectRatio="xMinYMin meet" x="177" y="-196.7"/>
<text text-anchor="start" x="192" y="-186.8" font-family="Helvetica,sans-Serif" font-size="11.00" fill="#000000">instance_role_id</text>
<polygon fill="none" stroke="#000000" points="288,-179.7 288,-201.7 378,-201.7 378,-179.7 288,-179.7"/>
<text text-anchor="start" x="291" y="-187.4" font-family="Helvetica,sans-Serif" font-size="11.00" fill="#000000">int4[10]</text>
<polygon fill="#ffffff" stroke="transparent" points="172,-160.7 172,-179.7 221,-179.7 221,-160.7 172,-160.7"/>
<polygon fill="none" stroke="#000000" points="172,-160.7 172,-179.7 221,-179.7 221,-160.7 172,-160.7"/>
<text text-anchor="start" x="175" y="-166.8" font-family="Helvetica,sans-Serif" font-size="11.00" fill="#000000">&lt; 1</text>
<polygon fill="#ffffff" stroke="transparent" points="221,-160.7 221,-179.7 288,-179.7 288,-160.7 221,-160.7"/>
<polygon fill="none" stroke="#000000" points="221,-160.7 221,-179.7 288,-179.7 288,-160.7 221,-160.7"/>
<text text-anchor="start" x="252.6105" y="-166.8" font-family="Helvetica,sans-Serif" font-size="11.00" fill="#000000">0 rows</text>
<polygon fill="#ffffff" stroke="transparent" points="288,-160.7 288,-179.7 378,-179.7 378,-160.7 288,-160.7"/>
<polygon fill="none" stroke="#000000" points="288,-160.7 288,-179.7 378,-179.7 378,-160.7 288,-160.7"/>
<text text-anchor="start" x="359.4053" y="-166.8" font-family="Helvetica,sans-Serif" font-size="11.00" fill="#000000">3 &gt;</text>
<polygon fill="none" stroke="#000000" stroke-width="2" points="171,-159.7 171,-357.7 379,-357.7 379,-159.7 171,-159.7"/>
</a>
</g>
</g>
<!-- chapter_users&#45;&gt;users -->
<g id="edge1" class="edge">
<title>chapter_users:w&#45;&gt;users:e</title>
<path fill="none" stroke="#000000" d="M414.6212,-423.7436C373.1199,-402.8845 441.7306,-278.7 378,-278.7"/>
<polygon fill="#000000" stroke="#000000" points="421.1639,-425.0888 428.275,-430.2262 425.082,-425.8944 429,-426.7 429,-426.7 429,-426.7 425.082,-425.8944 429.725,-423.1738 421.1639,-425.0888 421.1639,-425.0888"/>
<ellipse fill="none" stroke="#000000" cx="418.0295" cy="-424.4443" rx="3.2" ry="3.2"/>
</g>
<!-- instance_roles -->
<g id="node5" class="node">
<title>instance_roles</title>
<g id="a_node5"><a xlink:href="../../tables/instance_roles.html" xlink:title="instance_roles" target="_top">
<polygon fill="#ffffff" stroke="transparent" points="8,-120.2 8,-225.2 121,-225.2 121,-120.2 8,-120.2"/>
<polygon fill="#f5f5f5" stroke="transparent" points="8.5,-201.7 8.5,-224.7 121.5,-224.7 121.5,-201.7 8.5,-201.7"/>
<polygon fill="none" stroke="#000000" points="8.5,-201.7 8.5,-224.7 121.5,-224.7 121.5,-201.7 8.5,-201.7"/>
<text text-anchor="start" x="13.0476" y="-210.8" font-family="Helvetica,sans-Serif" font-weight="bold" font-size="11.00" fill="#000000">instance_roles</text>
<text text-anchor="start" x="87.0219" y="-209.8" font-family="Helvetica,sans-Serif" font-size="11.00" fill="#000000">[table]</text>
<polygon fill="none" stroke="#000000" points="8.5,-179.7 8.5,-201.7 121.5,-201.7 121.5,-179.7 8.5,-179.7"/>
<image xlink:href="../../images/primaryKeys.png" width="11px" height="12px" preserveAspectRatio="xMinYMin meet" x="13.5" y="-196.7"/>
<text text-anchor="start" x="32.5" y="-186.8" font-family="Helvetica,sans-Serif" font-size="11.00" fill="#000000">id</text>
<polygon fill="#ffffff" stroke="transparent" points="8.5,-157.7 8.5,-179.7 121.5,-179.7 121.5,-157.7 8.5,-157.7"/>
<polygon fill="none" stroke="#000000" points="8.5,-157.7 8.5,-179.7 121.5,-179.7 121.5,-157.7 8.5,-157.7"/>
<text text-anchor="start" x="32.5" y="-164.8" font-family="Helvetica,sans-Serif" font-size="11.00" fill="#000000">name</text>
<polygon fill="none" stroke="#000000" points="8.5,-138.7 8.5,-157.7 121.5,-157.7 121.5,-138.7 8.5,-138.7"/>
<text text-anchor="start" x="11.5" y="-144.8" font-family="Helvetica,sans-Serif" font-size="11.00" fill="#000000">...</text>
<polygon fill="#ffffff" stroke="transparent" points="8.5,-119.7 8.5,-138.7 41.5,-138.7 41.5,-119.7 8.5,-119.7"/>
<polygon fill="none" stroke="#000000" points="8.5,-119.7 8.5,-138.7 41.5,-138.7 41.5,-119.7 8.5,-119.7"/>
<text text-anchor="start" x="11.5" y="-125.8" font-family="Helvetica,sans-Serif" font-size="11.00" fill="#000000"> &#160;</text>
<polygon fill="#ffffff" stroke="transparent" points="41.5,-119.7 41.5,-138.7 89.5,-138.7 89.5,-119.7 41.5,-119.7"/>
<polygon fill="none" stroke="#000000" points="41.5,-119.7 41.5,-138.7 89.5,-138.7 89.5,-119.7 41.5,-119.7"/>
<text text-anchor="start" x="54.1105" y="-125.8" font-family="Helvetica,sans-Serif" font-size="11.00" fill="#000000">0 rows</text>
<polygon fill="#ffffff" stroke="transparent" points="89.5,-119.7 89.5,-138.7 121.5,-138.7 121.5,-119.7 89.5,-119.7"/>
<polygon fill="none" stroke="#000000" points="89.5,-119.7 89.5,-138.7 121.5,-138.7 121.5,-119.7 89.5,-119.7"/>
<text text-anchor="start" x="102.9053" y="-125.8" font-family="Helvetica,sans-Serif" font-size="11.00" fill="#000000">2 &gt;</text>
</a>
</g>
</g>
<!-- users&#45;&gt;instance_roles -->
<g id="edge4" class="edge">
<title>users:w&#45;&gt;instance_roles:e</title>
<path fill="none" stroke="#000000" d="M157.4203,-190.7C145.5435,-190.7 138.158,-190.7 121.5,-190.7"/>
<polygon fill="#000000" stroke="#000000" points="164,-190.7001 172,-194.3 168,-190.7 172,-190.7 172,-190.7 172,-190.7 168,-190.7 172,-187.1 164,-190.7001 164,-190.7001"/>
<ellipse fill="none" stroke="#000000" cx="160.8" cy="-190.7001" rx="3.2" ry="3.2"/>
</g>
<!-- event_users -->
<g id="node3" class="node">
<title>event_users</title>
<g id="a_node3"><a xlink:href="../../tables/event_users.html" xlink:title="event_users" target="_top">
<polygon fill="#ffffff" stroke="transparent" points="434,-164.2 434,-313.2 536,-313.2 536,-164.2 434,-164.2"/>
<polygon fill="#f5f5f5" stroke="transparent" points="434,-289.7 434,-312.7 536,-312.7 536,-289.7 434,-289.7"/>
<polygon fill="none" stroke="#000000" points="434,-289.7 434,-312.7 536,-312.7 536,-289.7 434,-289.7"/>
<text text-anchor="start" x="438.5459" y="-298.8" font-family="Helvetica,sans-Serif" font-weight="bold" font-size="11.00" fill="#000000">event_users</text>
<text text-anchor="start" x="501.5219" y="-297.8" font-family="Helvetica,sans-Serif" font-size="11.00" fill="#000000">[table]</text>
<polygon fill="none" stroke="#000000" points="434,-267.7 434,-289.7 536,-289.7 536,-267.7 434,-267.7"/>
<image xlink:href="../../images/primaryKeys.png" width="11px" height="12px" preserveAspectRatio="xMinYMin meet" x="439" y="-284.7"/>
<text text-anchor="start" x="456" y="-274.8" font-family="Helvetica,sans-Serif" font-size="11.00" fill="#000000">user_id</text>
<polygon fill="none" stroke="#000000" points="434,-245.7 434,-267.7 536,-267.7 536,-245.7 434,-245.7"/>
<image xlink:href="../../images/primaryKeys.png" width="11px" height="12px" preserveAspectRatio="xMinYMin meet" x="439" y="-262.7"/>
<text text-anchor="start" x="456" y="-252.8" font-family="Helvetica,sans-Serif" font-size="11.00" fill="#000000">event_id</text>
<polygon fill="none" stroke="#000000" points="434,-223.7 434,-245.7 536,-245.7 536,-223.7 434,-223.7"/>
<image xlink:href="../../images/foreignKeys.png" width="11px" height="12px" preserveAspectRatio="xMinYMin meet" x="439" y="-240.7"/>
<text text-anchor="start" x="456" y="-230.8" font-family="Helvetica,sans-Serif" font-size="11.00" fill="#000000">event_role_id</text>
<polygon fill="none" stroke="#000000" points="434,-201.7 434,-223.7 536,-223.7 536,-201.7 434,-201.7"/>
<image xlink:href="../../images/foreignKeys.png" width="11px" height="12px" preserveAspectRatio="xMinYMin meet" x="439" y="-218.7"/>
<text text-anchor="start" x="456" y="-208.8" font-family="Helvetica,sans-Serif" font-size="11.00" fill="#000000">rsvp_id</text>
<polygon fill="none" stroke="#000000" points="434,-182.7 434,-201.7 536,-201.7 536,-182.7 434,-182.7"/>
<text text-anchor="start" x="437" y="-188.8" font-family="Helvetica,sans-Serif" font-size="11.00" fill="#000000">...</text>
<polygon fill="#ffffff" stroke="transparent" points="434,-163.7 434,-182.7 466,-182.7 466,-163.7 434,-163.7"/>
<polygon fill="none" stroke="#000000" points="434,-163.7 434,-182.7 466,-182.7 466,-163.7 434,-163.7"/>
<text text-anchor="start" x="437" y="-169.8" font-family="Helvetica,sans-Serif" font-size="11.00" fill="#000000">&lt; 4</text>
<polygon fill="#ffffff" stroke="transparent" points="466,-163.7 466,-182.7 509,-182.7 509,-163.7 466,-163.7"/>
<polygon fill="none" stroke="#000000" points="466,-163.7 466,-182.7 509,-182.7 509,-163.7 466,-163.7"/>
<text text-anchor="start" x="473.6105" y="-169.8" font-family="Helvetica,sans-Serif" font-size="11.00" fill="#000000">0 rows</text>
<polygon fill="#ffffff" stroke="transparent" points="509,-163.7 509,-182.7 536,-182.7 536,-163.7 509,-163.7"/>
<polygon fill="none" stroke="#000000" points="509,-163.7 509,-182.7 536,-182.7 536,-163.7 509,-163.7"/>
<text text-anchor="start" x="517.4053" y="-169.8" font-family="Helvetica,sans-Serif" font-size="11.00" fill="#000000">2 &gt;</text>
</a>
</g>
</g>
<!-- event_users&#45;&gt;users -->
<g id="edge2" class="edge">
<title>event_users:w&#45;&gt;users:e</title>
<path fill="none" stroke="#000000" d="M419.5237,-278.7C405.3335,-278.7 397.25,-278.7 378,-278.7"/>
<polygon fill="#000000" stroke="#000000" points="426,-278.7001 434,-282.3 430,-278.7 434,-278.7 434,-278.7 434,-278.7 430,-278.7 434,-275.1 426,-278.7001 426,-278.7001"/>
<ellipse fill="none" stroke="#000000" cx="422.8" cy="-278.7001" rx="3.2" ry="3.2"/>
</g>
<!-- user_bans -->
<g id="node4" class="node">
<title>user_bans</title>
<g id="a_node4"><a xlink:href="../../tables/user_bans.html" xlink:title="user_bans" target="_top">
<polygon fill="#ffffff" stroke="transparent" points="438,-38.2 438,-143.2 532,-143.2 532,-38.2 438,-38.2"/>
<polygon fill="#f5f5f5" stroke="transparent" points="438,-119.7 438,-142.7 532,-142.7 532,-119.7 438,-119.7"/>
<polygon fill="none" stroke="#000000" points="438,-119.7 438,-142.7 532,-142.7 532,-119.7 438,-119.7"/>
<text text-anchor="start" x="442.8244" y="-128.8" font-family="Helvetica,sans-Serif" font-weight="bold" font-size="11.00" fill="#000000">user_bans</text>
<text text-anchor="start" x="497.5219" y="-127.8" font-family="Helvetica,sans-Serif" font-size="11.00" fill="#000000">[table]</text>
<polygon fill="none" stroke="#000000" points="438,-97.7 438,-119.7 532,-119.7 532,-97.7 438,-97.7"/>
<image xlink:href="../../images/primaryKeys.png" width="11px" height="12px" preserveAspectRatio="xMinYMin meet" x="443" y="-114.7"/>
<text text-anchor="start" x="461" y="-104.8" font-family="Helvetica,sans-Serif" font-size="11.00" fill="#000000">user_id</text>
<polygon fill="none" stroke="#000000" points="438,-75.7 438,-97.7 532,-97.7 532,-75.7 438,-75.7"/>
<image xlink:href="../../images/primaryKeys.png" width="11px" height="12px" preserveAspectRatio="xMinYMin meet" x="443" y="-92.7"/>
<text text-anchor="start" x="461" y="-82.8" font-family="Helvetica,sans-Serif" font-size="11.00" fill="#000000">chapter_id</text>
<polygon fill="none" stroke="#000000" points="438,-56.7 438,-75.7 532,-75.7 532,-56.7 438,-56.7"/>
<text text-anchor="start" x="441" y="-62.8" font-family="Helvetica,sans-Serif" font-size="11.00" fill="#000000">...</text>
<polygon fill="#ffffff" stroke="transparent" points="438,-37.7 438,-56.7 470,-56.7 470,-37.7 438,-37.7"/>
<polygon fill="none" stroke="#000000" points="438,-37.7 438,-56.7 470,-56.7 470,-37.7 438,-37.7"/>
<text text-anchor="start" x="441" y="-43.8" font-family="Helvetica,sans-Serif" font-size="11.00" fill="#000000">&lt; 2</text>
<polygon fill="#ffffff" stroke="transparent" points="470,-37.7 470,-56.7 514,-56.7 514,-37.7 470,-37.7"/>
<polygon fill="none" stroke="#000000" points="470,-37.7 470,-56.7 514,-56.7 514,-37.7 470,-37.7"/>
<text text-anchor="start" x="478.6105" y="-43.8" font-family="Helvetica,sans-Serif" font-size="11.00" fill="#000000">0 rows</text>
<polygon fill="#ffffff" stroke="transparent" points="514,-37.7 514,-56.7 532,-56.7 532,-37.7 514,-37.7"/>
<polygon fill="none" stroke="#000000" points="514,-37.7 514,-56.7 532,-56.7 532,-37.7 514,-37.7"/>
<text text-anchor="start" x="522.8862" y="-43.8" font-family="Helvetica,sans-Serif" font-size="11.00" fill="#000000"> &#160;</text>
</a>
</g>
</g>
<!-- user_bans&#45;&gt;users -->
<g id="edge3" class="edge">
<title>user_bans:w&#45;&gt;users:e</title>
<path fill="none" stroke="#000000" d="M423.6487,-111.1032C371.0821,-131.7658 452.4897,-278.7 378,-278.7"/>
<polygon fill="#000000" stroke="#000000" points="430.1099,-110.0213 438.5946,-112.2506 434.0549,-109.3606 438,-108.7 438,-108.7 438,-108.7 434.0549,-109.3606 437.4054,-105.1494 430.1099,-110.0213 430.1099,-110.0213"/>
<ellipse fill="none" stroke="#000000" cx="426.9538" cy="-110.5498" rx="3.2" ry="3.2"/>
</g>
</g>
</svg>
