<?xml version="1.0" encoding="UTF-8" standalone="no"?>
<!DOCTYPE svg PUBLIC "-//W3C//DTD SVG 1.1//EN"
 "http://www.w3.org/Graphics/SVG/1.1/DTD/svg11.dtd">
<!-- Generated by graphviz version 2.40.1 (20161225.0304)
 -->
<!-- Title: twoDegreesRelationshipsDiagram Pages: 1 -->
<svg width="700pt" height="494pt"
 viewBox="0.00 0.00 700.00 494.08" xmlns="http://www.w3.org/2000/svg" xmlns:xlink="http://www.w3.org/1999/xlink">
<g id="graph0" class="graph" transform="scale(1 1) rotate(0) translate(4 490.0808)">
<title>twoDegreesRelationshipsDiagram</title>
<polygon fill="#ffffff" stroke="transparent" points="-4,4 -4,-490.0808 696,-490.0808 696,4 -4,4"/>
<text text-anchor="middle" x="72.4936" y="-7.3" font-family="Helvetica,sans-Serif" font-size="11.00" fill="#000000">Generated by SchemaSpy</text>
<!-- chapter_users -->
<g id="node1" class="node">
<title>chapter_users</title>
<g id="a_node1"><a xlink:href="../../tables/chapter_users.html" xlink:title="chapter_users" target="_top">
<polygon fill="#ffffff" stroke="transparent" points="367,-421.0808 367,-482.0808 479,-482.0808 479,-421.0808 367,-421.0808"/>
<polygon fill="#f5f5f5" stroke="transparent" points="367,-458.5808 367,-481.5808 479,-481.5808 479,-458.5808 367,-458.5808"/>
<polygon fill="none" stroke="#000000" points="367,-458.5808 367,-481.5808 479,-481.5808 479,-458.5808 367,-458.5808"/>
<text text-anchor="start" x="371.6575" y="-467.6808" font-family="Helvetica,sans-Serif" font-weight="bold" font-size="11.00" fill="#000000">chapter_users</text>
<text text-anchor="start" x="444.5219" y="-466.6808" font-family="Helvetica,sans-Serif" font-size="11.00" fill="#000000">[table]</text>
<polygon fill="none" stroke="#000000" points="367,-439.5808 367,-458.5808 479,-458.5808 479,-439.5808 367,-439.5808"/>
<text text-anchor="start" x="370" y="-445.6808" font-family="Helvetica,sans-Serif" font-size="11.00" fill="#000000">...</text>
<polygon fill="#ffffff" stroke="transparent" points="367,-420.5808 367,-439.5808 408,-439.5808 408,-420.5808 367,-420.5808"/>
<polygon fill="none" stroke="#000000" points="367,-420.5808 367,-439.5808 408,-439.5808 408,-420.5808 367,-420.5808"/>
<text text-anchor="start" x="370" y="-426.6808" font-family="Helvetica,sans-Serif" font-size="11.00" fill="#000000">&lt; 3</text>
<polygon fill="#ffffff" stroke="transparent" points="408,-420.5808 408,-439.5808 456,-439.5808 456,-420.5808 408,-420.5808"/>
<polygon fill="none" stroke="#000000" points="408,-420.5808 408,-439.5808 456,-439.5808 456,-420.5808 408,-420.5808"/>
<text text-anchor="start" x="420.6105" y="-426.6808" font-family="Helvetica,sans-Serif" font-size="11.00" fill="#000000">0 rows</text>
<polygon fill="#ffffff" stroke="transparent" points="456,-420.5808 456,-439.5808 479,-439.5808 479,-420.5808 456,-420.5808"/>
<polygon fill="none" stroke="#000000" points="456,-420.5808 456,-439.5808 479,-439.5808 479,-420.5808 456,-420.5808"/>
<text text-anchor="start" x="469.8862" y="-426.6808" font-family="Helvetica,sans-Serif" font-size="11.00" fill="#000000"> &#160;</text>
</a>
</g>
</g>
<!-- chapters -->
<g id="node2" class="node">
<title>chapters</title>
<g id="a_node2"><a xlink:href="../../tables/chapters.html" xlink:title="chapters" target="_top">
<polygon fill="#ffffff" stroke="transparent" points="20.5,-143.0808 20.5,-226.0808 108.5,-226.0808 108.5,-143.0808 20.5,-143.0808"/>
<polygon fill="#f5f5f5" stroke="transparent" points="20.5,-202.5808 20.5,-225.5808 108.5,-225.5808 108.5,-202.5808 20.5,-202.5808"/>
<polygon fill="none" stroke="#000000" points="20.5,-202.5808 20.5,-225.5808 108.5,-225.5808 108.5,-202.5808 20.5,-202.5808"/>
<text text-anchor="start" x="25.5" y="-211.6808" font-family="Helvetica,sans-Serif" font-weight="bold" font-size="11.00" fill="#000000">chapters</text>
<text text-anchor="start" x="73.5437" y="-210.6808" font-family="Helvetica,sans-Serif" font-size="11.00" fill="#000000">[table]</text>
<polygon fill="none" stroke="#000000" points="20.5,-180.5808 20.5,-202.5808 108.5,-202.5808 108.5,-180.5808 20.5,-180.5808"/>
<image xlink:href="../../images/primaryKeys.png" width="11px" height="12px" preserveAspectRatio="xMinYMin meet" x="25.5" y="-197.581"/>
<text text-anchor="start" x="40.5" y="-187.6808" font-family="Helvetica,sans-Serif" font-size="11.00" fill="#000000">id</text>
<polygon fill="none" stroke="#000000" points="20.5,-161.5808 20.5,-180.5808 108.5,-180.5808 108.5,-161.5808 20.5,-161.5808"/>
<text text-anchor="start" x="23.5" y="-167.6808" font-family="Helvetica,sans-Serif" font-size="11.00" fill="#000000">...</text>
<polygon fill="#ffffff" stroke="transparent" points="20.5,-142.5808 20.5,-161.5808 40.5,-161.5808 40.5,-142.5808 20.5,-142.5808"/>
<polygon fill="none" stroke="#000000" points="20.5,-142.5808 20.5,-161.5808 40.5,-161.5808 40.5,-142.5808 20.5,-142.5808"/>
<text text-anchor="start" x="23.5" y="-148.6808" font-family="Helvetica,sans-Serif" font-size="11.00" fill="#000000"> &#160;</text>
<polygon fill="#ffffff" stroke="transparent" points="40.5,-142.5808 40.5,-161.5808 82.5,-161.5808 82.5,-142.5808 40.5,-142.5808"/>
<polygon fill="none" stroke="#000000" points="40.5,-142.5808 40.5,-161.5808 82.5,-161.5808 82.5,-142.5808 40.5,-142.5808"/>
<text text-anchor="start" x="47.1105" y="-148.6808" font-family="Helvetica,sans-Serif" font-size="11.00" fill="#000000">0 rows</text>
<polygon fill="#ffffff" stroke="transparent" points="82.5,-142.5808 82.5,-161.5808 108.5,-161.5808 108.5,-142.5808 82.5,-142.5808"/>
<polygon fill="none" stroke="#000000" points="82.5,-142.5808 82.5,-161.5808 108.5,-161.5808 108.5,-142.5808 82.5,-142.5808"/>
<text text-anchor="start" x="89.9053" y="-148.6808" font-family="Helvetica,sans-Serif" font-size="11.00" fill="#000000">3 &gt;</text>
</a>
</g>
</g>
<!-- chapter_users&#45;&gt;chapters -->
<g id="edge1" class="edge">
<title>chapter_users:w&#45;&gt;chapters:e</title>
<path fill="none" stroke="#000000" d="M352.3577,-448.4799C263.7759,-447.1818 223.5087,-432.5973 162,-361.5808 110.1426,-301.7073 187.7087,-191.5808 108.5,-191.5808"/>
<polygon fill="#000000" stroke="#000000" points="359.0002,-448.5256 366.9752,-452.1807 363.0001,-448.5532 367,-448.5808 367,-448.5808 367,-448.5808 363.0001,-448.5532 367.0248,-444.9808 359.0002,-448.5256 359.0002,-448.5256"/>
<ellipse fill="none" stroke="#000000" cx="355.8003" cy="-448.5035" rx="3.2" ry="3.2"/>
</g>
<!-- users -->
<g id="node3" class="node">
<title>users</title>
<g id="a_node3"><a xlink:href="../../tables/users.html" xlink:title="users" target="_top">
<polygon fill="#ffffff" stroke="transparent" points="170,-224.0808 170,-351.0808 286,-351.0808 286,-224.0808 170,-224.0808"/>
<polygon fill="#f5f5f5" stroke="transparent" points="170,-327.5808 170,-350.5808 286,-350.5808 286,-327.5808 170,-327.5808"/>
<polygon fill="none" stroke="#000000" points="170,-327.5808 170,-350.5808 286,-350.5808 286,-327.5808 170,-327.5808"/>
<text text-anchor="start" x="175" y="-336.6808" font-family="Helvetica,sans-Serif" font-weight="bold" font-size="11.00" fill="#000000">users</text>
<text text-anchor="start" x="251.0437" y="-335.6808" font-family="Helvetica,sans-Serif" font-size="11.00" fill="#000000">[table]</text>
<polygon fill="none" stroke="#000000" points="170,-305.5808 170,-327.5808 286,-327.5808 286,-305.5808 170,-305.5808"/>
<image xlink:href="../../images/primaryKeys.png" width="11px" height="12px" preserveAspectRatio="xMinYMin meet" x="175" y="-322.581"/>
<text text-anchor="start" x="190" y="-312.6808" font-family="Helvetica,sans-Serif" font-size="11.00" fill="#000000">id</text>
<polygon fill="#ffffff" stroke="transparent" points="170,-283.5808 170,-305.5808 286,-305.5808 286,-283.5808 170,-283.5808"/>
<polygon fill="none" stroke="#000000" points="170,-283.5808 170,-305.5808 286,-305.5808 286,-283.5808 170,-283.5808"/>
<text text-anchor="start" x="190" y="-290.6808" font-family="Helvetica,sans-Serif" font-size="11.00" fill="#000000">email</text>
<polygon fill="none" stroke="#000000" points="170,-261.5808 170,-283.5808 286,-283.5808 286,-261.5808 170,-261.5808"/>
<image xlink:href="../../images/foreignKeys.png" width="11px" height="12px" preserveAspectRatio="xMinYMin meet" x="175" y="-278.581"/>
<text text-anchor="start" x="190" y="-268.6808" font-family="Helvetica,sans-Serif" font-size="11.00" fill="#000000">instance_role_id</text>
<polygon fill="none" stroke="#000000" points="170,-242.5808 170,-261.5808 286,-261.5808 286,-242.5808 170,-242.5808"/>
<text text-anchor="start" x="173" y="-248.6808" font-family="Helvetica,sans-Serif" font-size="11.00" fill="#000000">...</text>
<polygon fill="#ffffff" stroke="transparent" points="170,-223.5808 170,-242.5808 209,-242.5808 209,-223.5808 170,-223.5808"/>
<polygon fill="none" stroke="#000000" points="170,-223.5808 170,-242.5808 209,-242.5808 209,-223.5808 170,-223.5808"/>
<text text-anchor="start" x="173" y="-229.6808" font-family="Helvetica,sans-Serif" font-size="11.00" fill="#000000">&lt; 1</text>
<polygon fill="#ffffff" stroke="transparent" points="209,-223.5808 209,-242.5808 256,-242.5808 256,-223.5808 209,-223.5808"/>
<polygon fill="none" stroke="#000000" points="209,-223.5808 209,-242.5808 256,-242.5808 256,-223.5808 209,-223.5808"/>
<text text-anchor="start" x="220.6105" y="-229.6808" font-family="Helvetica,sans-Serif" font-size="11.00" fill="#000000">0 rows</text>
<polygon fill="#ffffff" stroke="transparent" points="256,-223.5808 256,-242.5808 286,-242.5808 286,-223.5808 256,-223.5808"/>
<polygon fill="none" stroke="#000000" points="256,-223.5808 256,-242.5808 286,-242.5808 286,-223.5808 256,-223.5808"/>
<text text-anchor="start" x="267.4053" y="-229.6808" font-family="Helvetica,sans-Serif" font-size="11.00" fill="#000000">5 &gt;</text>
</a>
</g>
</g>
<!-- chapter_users&#45;&gt;users -->
<g id="edge2" class="edge">
<title>chapter_users:w&#45;&gt;users:e</title>
<path fill="none" stroke="#000000" d="M352.6346,-445.4357C340.5164,-438.8658 338.0498,-422.9336 327,-406.5808 302.3905,-370.1607 329.9551,-316.5808 286,-316.5808"/>
<polygon fill="#000000" stroke="#000000" points="359.1851,-446.8698 366.2301,-452.0975 363.0925,-447.7253 367,-448.5808 367,-448.5808 367,-448.5808 363.0925,-447.7253 367.7699,-445.0641 359.1851,-446.8698 359.1851,-446.8698"/>
<ellipse fill="none" stroke="#000000" cx="356.0591" cy="-446.1854" rx="3.2" ry="3.2"/>
</g>
<!-- instance_roles -->
<g id="node9" class="node">
<title>instance_roles</title>
<g id="a_node9"><a xlink:href="../../tables/instance_roles.html" xlink:title="instance_roles" target="_top">
<polygon fill="#ffffff" stroke="transparent" points="8,-247.0808 8,-308.0808 121,-308.0808 121,-247.0808 8,-247.0808"/>
<polygon fill="#f5f5f5" stroke="transparent" points="8.5,-284.5808 8.5,-307.5808 121.5,-307.5808 121.5,-284.5808 8.5,-284.5808"/>
<polygon fill="none" stroke="#000000" points="8.5,-284.5808 8.5,-307.5808 121.5,-307.5808 121.5,-284.5808 8.5,-284.5808"/>
<text text-anchor="start" x="13.0476" y="-293.6808" font-family="Helvetica,sans-Serif" font-weight="bold" font-size="11.00" fill="#000000">instance_roles</text>
<text text-anchor="start" x="87.0219" y="-292.6808" font-family="Helvetica,sans-Serif" font-size="11.00" fill="#000000">[table]</text>
<polygon fill="none" stroke="#000000" points="8.5,-265.5808 8.5,-284.5808 121.5,-284.5808 121.5,-265.5808 8.5,-265.5808"/>
<text text-anchor="start" x="11.5" y="-271.6808" font-family="Helvetica,sans-Serif" font-size="11.00" fill="#000000">...</text>
<polygon fill="#ffffff" stroke="transparent" points="8.5,-246.5808 8.5,-265.5808 41.5,-265.5808 41.5,-246.5808 8.5,-246.5808"/>
<polygon fill="none" stroke="#000000" points="8.5,-246.5808 8.5,-265.5808 41.5,-265.5808 41.5,-246.5808 8.5,-246.5808"/>
<text text-anchor="start" x="11.5" y="-252.6808" font-family="Helvetica,sans-Serif" font-size="11.00" fill="#000000"> &#160;</text>
<polygon fill="#ffffff" stroke="transparent" points="41.5,-246.5808 41.5,-265.5808 89.5,-265.5808 89.5,-246.5808 41.5,-246.5808"/>
<polygon fill="none" stroke="#000000" points="41.5,-246.5808 41.5,-265.5808 89.5,-265.5808 89.5,-246.5808 41.5,-246.5808"/>
<text text-anchor="start" x="54.1105" y="-252.6808" font-family="Helvetica,sans-Serif" font-size="11.00" fill="#000000">0 rows</text>
<polygon fill="#ffffff" stroke="transparent" points="89.5,-246.5808 89.5,-265.5808 121.5,-265.5808 121.5,-246.5808 89.5,-246.5808"/>
<polygon fill="none" stroke="#000000" points="89.5,-246.5808 89.5,-265.5808 121.5,-265.5808 121.5,-246.5808 89.5,-246.5808"/>
<text text-anchor="start" x="102.9053" y="-252.6808" font-family="Helvetica,sans-Serif" font-size="11.00" fill="#000000">2 &gt;</text>
</a>
</g>
</g>
<!-- users&#45;&gt;instance_roles -->
<g id="edge14" class="edge">
<title>users:w&#45;&gt;instance_roles:e</title>
<path fill="none" stroke="#000000" d="M155.278,-272.9476C144.2863,-273.525 137.1748,-274.5808 121.5,-274.5808"/>
<polygon fill="#000000" stroke="#000000" points="162.0025,-272.7801 170.0897,-276.1796 166.0012,-272.6804 170,-272.5808 170,-272.5808 170,-272.5808 166.0012,-272.6804 169.9103,-268.9819 162.0025,-272.7801 162.0025,-272.7801"/>
<ellipse fill="none" stroke="#000000" cx="158.8035" cy="-272.8598" rx="3.2" ry="3.2"/>
</g>
<!-- event_reminders -->
<g id="node4" class="node">
<title>event_reminders</title>
<g id="a_node4"><a xlink:href="../../tables/event_reminders.html" xlink:title="event_reminders" target="_top">
<polygon fill="#ffffff" stroke="transparent" points="560,-156.0808 560,-217.0808 684,-217.0808 684,-156.0808 560,-156.0808"/>
<polygon fill="#f5f5f5" stroke="transparent" points="560,-193.5808 560,-216.5808 684,-216.5808 684,-193.5808 560,-193.5808"/>
<polygon fill="none" stroke="#000000" points="560,-193.5808 560,-216.5808 684,-216.5808 684,-193.5808 560,-193.5808"/>
<text text-anchor="start" x="564.5486" y="-202.6808" font-family="Helvetica,sans-Serif" font-weight="bold" font-size="11.00" fill="#000000">event_reminders</text>
<text text-anchor="start" x="649.5219" y="-201.6808" font-family="Helvetica,sans-Serif" font-size="11.00" fill="#000000">[table]</text>
<polygon fill="none" stroke="#000000" points="560,-174.5808 560,-193.5808 684,-193.5808 684,-174.5808 560,-174.5808"/>
<text text-anchor="start" x="563" y="-180.6808" font-family="Helvetica,sans-Serif" font-size="11.00" fill="#000000">...</text>
<polygon fill="#ffffff" stroke="transparent" points="560,-155.5808 560,-174.5808 607,-174.5808 607,-155.5808 560,-155.5808"/>
<polygon fill="none" stroke="#000000" points="560,-155.5808 560,-174.5808 607,-174.5808 607,-155.5808 560,-155.5808"/>
<text text-anchor="start" x="563" y="-161.6808" font-family="Helvetica,sans-Serif" font-size="11.00" fill="#000000">&lt; 4</text>
<polygon fill="#ffffff" stroke="transparent" points="607,-155.5808 607,-174.5808 658,-174.5808 658,-155.5808 607,-155.5808"/>
<polygon fill="none" stroke="#000000" points="607,-155.5808 607,-174.5808 658,-174.5808 658,-155.5808 607,-155.5808"/>
<text text-anchor="start" x="622.6105" y="-161.6808" font-family="Helvetica,sans-Serif" font-size="11.00" fill="#000000">0 rows</text>
<polygon fill="#ffffff" stroke="transparent" points="658,-155.5808 658,-174.5808 684,-174.5808 684,-155.5808 658,-155.5808"/>
<polygon fill="none" stroke="#000000" points="658,-155.5808 658,-174.5808 684,-174.5808 684,-155.5808 658,-155.5808"/>
<text text-anchor="start" x="674.8862" y="-161.6808" font-family="Helvetica,sans-Serif" font-size="11.00" fill="#000000"> &#160;</text>
</a>
</g>
</g>
<!-- event_reminders&#45;&gt;users -->
<g id="edge6" class="edge">
<title>event_reminders:w&#45;&gt;users:e</title>
<path fill="none" stroke="#000000" d="M545.3589,-185.1967C483.5248,-201.0779 584.9147,-329.8078 519,-383.5808 485.9392,-410.5516 364.22,-404.4402 327,-383.5808 296.5458,-366.5131 320.9108,-316.5808 286,-316.5808"/>
<polygon fill="#000000" stroke="#000000" points="552.0483,-184.4584 560.395,-187.159 556.0241,-184.0196 560,-183.5808 560,-183.5808 560,-183.5808 556.0241,-184.0196 559.605,-180.0025 552.0483,-184.4584 552.0483,-184.4584"/>
<ellipse fill="none" stroke="#000000" cx="548.8676" cy="-184.8095" rx="3.2" ry="3.2"/>
</g>
<!-- events -->
<g id="node5" class="node">
<title>events</title>
<g id="a_node5"><a xlink:href="../../tables/events.html" xlink:title="events" target="_top">
<polygon fill="#ffffff" stroke="transparent" points="188,-79.0808 188,-140.0808 268,-140.0808 268,-79.0808 188,-79.0808"/>
<polygon fill="#f5f5f5" stroke="transparent" points="188,-116.5808 188,-139.5808 268,-139.5808 268,-116.5808 188,-116.5808"/>
<polygon fill="none" stroke="#000000" points="188,-116.5808 188,-139.5808 268,-139.5808 268,-116.5808 188,-116.5808"/>
<text text-anchor="start" x="193" y="-125.6808" font-family="Helvetica,sans-Serif" font-weight="bold" font-size="11.00" fill="#000000">events</text>
<text text-anchor="start" x="233.0437" y="-124.6808" font-family="Helvetica,sans-Serif" font-size="11.00" fill="#000000">[table]</text>
<polygon fill="none" stroke="#000000" points="188,-97.5808 188,-116.5808 268,-116.5808 268,-97.5808 188,-97.5808"/>
<text text-anchor="start" x="191" y="-103.6808" font-family="Helvetica,sans-Serif" font-size="11.00" fill="#000000">...</text>
<polygon fill="#ffffff" stroke="transparent" points="188,-78.5808 188,-97.5808 209,-97.5808 209,-78.5808 188,-78.5808"/>
<polygon fill="none" stroke="#000000" points="188,-78.5808 188,-97.5808 209,-97.5808 209,-78.5808 188,-78.5808"/>
<text text-anchor="start" x="190.7027" y="-84.6808" font-family="Helvetica,sans-Serif" font-size="11.00" fill="#000000">&lt; 2</text>
<polygon fill="#ffffff" stroke="transparent" points="209,-78.5808 209,-97.5808 247,-97.5808 247,-78.5808 209,-78.5808"/>
<polygon fill="none" stroke="#000000" points="209,-78.5808 209,-97.5808 247,-97.5808 247,-78.5808 209,-78.5808"/>
<text text-anchor="start" x="211.8053" y="-84.6808" font-family="Helvetica,sans-Serif" font-size="11.00" fill="#000000">0 rows</text>
<polygon fill="#ffffff" stroke="transparent" points="247,-78.5808 247,-97.5808 268,-97.5808 268,-78.5808 247,-78.5808"/>
<polygon fill="none" stroke="#000000" points="247,-78.5808 247,-97.5808 268,-97.5808 268,-78.5808 247,-78.5808"/>
<text text-anchor="start" x="249.7027" y="-84.6808" font-family="Helvetica,sans-Serif" font-size="11.00" fill="#000000">5 &gt;</text>
</a>
</g>
</g>
<!-- event_reminders&#45;&gt;events -->
<g id="edge3" class="edge">
<title>event_reminders:w&#45;&gt;events:e</title>
<path fill="none" stroke="#000000" d="M545.827,-180.8364C515.3593,-165.789 560.0097,-92.9064 519,-63.5808 449.5878,-13.9448 408.1372,-37.1511 327,-63.5808 296.1481,-73.6305 300.4475,-106.5808 268,-106.5808"/>
<polygon fill="#000000" stroke="#000000" points="552.1459,-182.0599 559.3156,-187.1151 556.0729,-182.8203 560,-183.5808 560,-183.5808 560,-183.5808 556.0729,-182.8203 560.6844,-180.0464 552.1459,-182.0599 552.1459,-182.0599"/>
<ellipse fill="none" stroke="#000000" cx="549.0042" cy="-181.4516" rx="3.2" ry="3.2"/>
</g>
<!-- rsvps -->
<g id="node6" class="node">
<title>rsvps</title>
<g id="a_node6"><a xlink:href="../../tables/rsvps.html" xlink:title="rsvps" target="_top">
<polygon fill="#ffffff" stroke="transparent" points="383,-156.0808 383,-217.0808 463,-217.0808 463,-156.0808 383,-156.0808"/>
<polygon fill="#f5f5f5" stroke="transparent" points="383,-193.5808 383,-216.5808 463,-216.5808 463,-193.5808 383,-193.5808"/>
<polygon fill="none" stroke="#000000" points="383,-193.5808 383,-216.5808 463,-216.5808 463,-193.5808 383,-193.5808"/>
<text text-anchor="start" x="388" y="-202.6808" font-family="Helvetica,sans-Serif" font-weight="bold" font-size="11.00" fill="#000000">rsvps</text>
<text text-anchor="start" x="428.0437" y="-201.6808" font-family="Helvetica,sans-Serif" font-size="11.00" fill="#000000">[table]</text>
<polygon fill="none" stroke="#000000" points="383,-174.5808 383,-193.5808 463,-193.5808 463,-174.5808 383,-174.5808"/>
<text text-anchor="start" x="386" y="-180.6808" font-family="Helvetica,sans-Serif" font-size="11.00" fill="#000000">...</text>
<polygon fill="#ffffff" stroke="transparent" points="383,-155.5808 383,-174.5808 404,-174.5808 404,-155.5808 383,-155.5808"/>
<polygon fill="none" stroke="#000000" points="383,-155.5808 383,-174.5808 404,-174.5808 404,-155.5808 383,-155.5808"/>
<text text-anchor="start" x="385.7027" y="-161.6808" font-family="Helvetica,sans-Serif" font-size="11.00" fill="#000000">&lt; 2</text>
<polygon fill="#ffffff" stroke="transparent" points="404,-155.5808 404,-174.5808 442,-174.5808 442,-155.5808 404,-155.5808"/>
<polygon fill="none" stroke="#000000" points="404,-155.5808 404,-174.5808 442,-174.5808 442,-155.5808 404,-155.5808"/>
<text text-anchor="start" x="406.8053" y="-161.6808" font-family="Helvetica,sans-Serif" font-size="11.00" fill="#000000">0 rows</text>
<polygon fill="#ffffff" stroke="transparent" points="442,-155.5808 442,-174.5808 463,-174.5808 463,-155.5808 442,-155.5808"/>
<polygon fill="none" stroke="#000000" points="442,-155.5808 442,-174.5808 463,-174.5808 463,-155.5808 442,-155.5808"/>
<text text-anchor="start" x="444.7027" y="-161.6808" font-family="Helvetica,sans-Serif" font-size="11.00" fill="#000000">2 &gt;</text>
</a>
</g>
</g>
<!-- event_reminders&#45;&gt;rsvps -->
<g id="edge4" class="edge">
<title>event_reminders:w&#45;&gt;rsvps:e</title>
<path fill="none" stroke="#000000" d="M545.6461,-181.665C513.8045,-177.6687 500.8906,-178.3073 463,-183.5808"/>
<polygon fill="#000000" stroke="#000000" points="552.0703,-182.5224 559.5237,-187.1491 556.0352,-183.0516 560,-183.5808 560,-183.5808 560,-183.5808 556.0352,-183.0516 560.4763,-180.0124 552.0703,-182.5224 552.0703,-182.5224"/>
<ellipse fill="none" stroke="#000000" cx="548.8984" cy="-182.099" rx="3.2" ry="3.2"/>
</g>
<!-- event_reminders&#45;&gt;rsvps -->
<g id="edge5" class="edge">
<title>event_reminders:w&#45;&gt;rsvps:e</title>
<path fill="none" stroke="#000000" d="M545.6461,-185.8158C513.8045,-190.4781 500.8906,-189.7331 463,-183.5808"/>
<polygon fill="#000000" stroke="#000000" points="552.0953,-184.8116 560.5539,-187.1379 556.0476,-184.1962 560,-183.5808 560,-183.5808 560,-183.5808 556.0476,-184.1962 559.4461,-180.0236 552.0953,-184.8116 552.0953,-184.8116"/>
<ellipse fill="none" stroke="#000000" cx="548.9334" cy="-185.304" rx="3.2" ry="3.2"/>
</g>
<!-- events&#45;&gt;chapters -->
<g id="edge7" class="edge">
<title>events:w&#45;&gt;chapters:e</title>
<path fill="none" stroke="#000000" d="M173.5453,-109.4089C140.608,-124.1577 154.5687,-191.5808 108.5,-191.5808"/>
<polygon fill="#000000" stroke="#000000" points="180.1489,-108.1169 188.6913,-110.1138 184.0744,-107.3488 188,-106.5808 188,-106.5808 188,-106.5808 184.0744,-107.3488 187.3087,-103.0477 180.1489,-108.1169 180.1489,-108.1169"/>
<ellipse fill="none" stroke="#000000" cx="177.0084" cy="-108.7314" rx="3.2" ry="3.2"/>
</g>
<!-- rsvps&#45;&gt;users -->
<g id="edge9" class="edge">
<title>rsvps:w&#45;&gt;users:e</title>
<path fill="none" stroke="#000000" d="M368.4841,-185.3436C349.0609,-190.7298 343.2376,-207.871 327,-228.5808 300.3772,-262.536 329.1478,-316.5808 286,-316.5808"/>
<polygon fill="#000000" stroke="#000000" points="375.0583,-184.5452 383.434,-187.1545 379.0292,-184.063 383,-183.5808 383,-183.5808 383,-183.5808 379.0292,-184.063 382.566,-180.007 375.0583,-184.5452 375.0583,-184.5452"/>
<ellipse fill="none" stroke="#000000" cx="371.8817" cy="-184.931" rx="3.2" ry="3.2"/>
</g>
<!-- rsvps&#45;&gt;events -->
<g id="edge8" class="edge">
<title>rsvps:w&#45;&gt;events:e</title>
<path fill="none" stroke="#000000" d="M368.5941,-181.9725C322.3548,-170.915 324.2242,-106.5808 268,-106.5808"/>
<polygon fill="#000000" stroke="#000000" points="375.0494,-182.6931 382.6006,-187.1585 379.0247,-183.1369 383,-183.5808 383,-183.5808 383,-183.5808 379.0247,-183.1369 383.3994,-180.003 375.0494,-182.6931 375.0494,-182.6931"/>
<ellipse fill="none" stroke="#000000" cx="371.8691" cy="-182.3381" rx="3.2" ry="3.2"/>
</g>
<!-- user_bans -->
<g id="node7" class="node">
<title>user_bans</title>
<g id="a_node7"><a xlink:href="../../tables/user_bans.html" xlink:title="user_bans" target="_top">
<polygon fill="#ffffff" stroke="transparent" points="335,-238.5808 335,-372.5808 511,-372.5808 511,-238.5808 335,-238.5808"/>
<polygon fill="#f5f5f5" stroke="transparent" points="337,-347.5808 337,-370.5808 509,-370.5808 509,-347.5808 337,-347.5808"/>
<polygon fill="none" stroke="#000000" points="337,-347.5808 337,-370.5808 509,-370.5808 509,-347.5808 337,-347.5808"/>
<text text-anchor="start" x="342" y="-356.6808" font-family="Helvetica,sans-Serif" font-weight="bold" font-size="11.00" fill="#000000">user_bans</text>
<text text-anchor="start" x="474.0437" y="-355.6808" font-family="Helvetica,sans-Serif" font-size="11.00" fill="#000000">[table]</text>
<polygon fill="none" stroke="#000000" points="337,-325.5808 337,-347.5808 425,-347.5808 425,-325.5808 337,-325.5808"/>
<text text-anchor="start" x="357" y="-332.6808" font-family="Helvetica,sans-Serif" font-size="11.00" fill="#000000">created_at</text>
<polygon fill="none" stroke="#000000" points="425,-325.5808 425,-347.5808 509,-347.5808 509,-325.5808 425,-325.5808"/>
<text text-anchor="start" x="427.8807" y="-333.2808" font-family="Helvetica,sans-Serif" font-size="11.00" fill="#000000">timestamp[26,3]</text>
<polygon fill="none" stroke="#000000" points="337,-303.5808 337,-325.5808 425,-325.5808 425,-303.5808 337,-303.5808"/>
<text text-anchor="start" x="357" y="-310.6808" font-family="Helvetica,sans-Serif" font-size="11.00" fill="#000000">updated_at</text>
<polygon fill="none" stroke="#000000" points="425,-303.5808 425,-325.5808 509,-325.5808 509,-303.5808 425,-303.5808"/>
<text text-anchor="start" x="427.8807" y="-311.2808" font-family="Helvetica,sans-Serif" font-size="11.00" fill="#000000">timestamp[26,3]</text>
<polygon fill="none" stroke="#000000" points="337,-281.5808 337,-303.5808 425,-303.5808 425,-281.5808 337,-281.5808"/>
<image xlink:href="../../images/primaryKeys.png" width="11px" height="12px" preserveAspectRatio="xMinYMin meet" x="342" y="-298.581"/>
<text text-anchor="start" x="357" y="-288.6808" font-family="Helvetica,sans-Serif" font-size="11.00" fill="#000000">user_id</text>
<polygon fill="none" stroke="#000000" points="425,-281.5808 425,-303.5808 509,-303.5808 509,-281.5808 425,-281.5808"/>
<text text-anchor="start" x="428" y="-289.2808" font-family="Helvetica,sans-Serif" font-size="11.00" fill="#000000">int4[10]</text>
<polygon fill="none" stroke="#000000" points="337,-259.5808 337,-281.5808 425,-281.5808 425,-259.5808 337,-259.5808"/>
<image xlink:href="../../images/primaryKeys.png" width="11px" height="12px" preserveAspectRatio="xMinYMin meet" x="342" y="-276.581"/>
<text text-anchor="start" x="357" y="-266.6808" font-family="Helvetica,sans-Serif" font-size="11.00" fill="#000000">chapter_id</text>
<polygon fill="none" stroke="#000000" points="425,-259.5808 425,-281.5808 509,-281.5808 509,-259.5808 425,-259.5808"/>
<text text-anchor="start" x="428" y="-267.2808" font-family="Helvetica,sans-Serif" font-size="11.00" fill="#000000">int4[10]</text>
<polygon fill="#ffffff" stroke="transparent" points="337,-240.5808 337,-259.5808 372,-259.5808 372,-240.5808 337,-240.5808"/>
<polygon fill="none" stroke="#000000" points="337,-240.5808 337,-259.5808 372,-259.5808 372,-240.5808 337,-240.5808"/>
<text text-anchor="start" x="340" y="-246.6808" font-family="Helvetica,sans-Serif" font-size="11.00" fill="#000000">&lt; 2</text>
<polygon fill="#ffffff" stroke="transparent" points="372,-240.5808 372,-259.5808 425,-259.5808 425,-240.5808 372,-240.5808"/>
<polygon fill="none" stroke="#000000" points="372,-240.5808 372,-259.5808 425,-259.5808 425,-240.5808 372,-240.5808"/>
<text text-anchor="start" x="389.6105" y="-246.6808" font-family="Helvetica,sans-Serif" font-size="11.00" fill="#000000">0 rows</text>
<polygon fill="#ffffff" stroke="transparent" points="425,-240.5808 425,-259.5808 509,-259.5808 509,-240.5808 425,-240.5808"/>
<polygon fill="none" stroke="#000000" points="425,-240.5808 425,-259.5808 509,-259.5808 509,-240.5808 425,-240.5808"/>
<text text-anchor="start" x="490.4053" y="-246.6808" font-family="Helvetica,sans-Serif" font-size="11.00" fill="#000000">0 &gt;</text>
<polygon fill="none" stroke="#000000" stroke-width="2" points="336,-239.5808 336,-371.5808 510,-371.5808 510,-239.5808 336,-239.5808"/>
</a>
</g>
</g>
<!-- user_bans&#45;&gt;chapters -->
<g id="edge10" class="edge">
<title>user_bans:w&#45;&gt;chapters:e</title>
<path fill="none" stroke="#000000" d="M323.2141,-266.3623C309.9454,-255.4568 316.1441,-226.297 294,-213.5808 222.0042,-172.2372 191.5222,-191.5808 108.5,-191.5808"/>
<polygon fill="#000000" stroke="#000000" points="329.3501,-268.2399 335.9466,-274.0232 333.1751,-269.4103 337,-270.5808 337,-270.5808 337,-270.5808 333.1751,-269.4103 338.0534,-267.1383 329.3501,-268.2399 329.3501,-268.2399"/>
<ellipse fill="none" stroke="#000000" cx="326.2902" cy="-267.3035" rx="3.2" ry="3.2"/>
</g>
<!-- user_bans&#45;&gt;users -->
<g id="edge11" class="edge">
<title>user_bans:w&#45;&gt;users:e</title>
<path fill="none" stroke="#000000" d="M322.7444,-295.9179C310.2013,-302.5124 305.1797,-316.5808 286,-316.5808"/>
<polygon fill="#000000" stroke="#000000" points="329.2106,-294.4042 337.8206,-296.086 333.1053,-293.4925 337,-292.5808 337,-292.5808 337,-292.5808 333.1053,-293.4925 336.1794,-289.0755 329.2106,-294.4042 329.2106,-294.4042"/>
<ellipse fill="none" stroke="#000000" cx="326.0948" cy="-295.1336" rx="3.2" ry="3.2"/>
</g>
<!-- user_event_roles -->
<g id="node8" class="node">
<title>user_event_roles</title>
<g id="a_node8"><a xlink:href="../../tables/user_event_roles.html" xlink:title="user_event_roles" target="_top">
<polygon fill="#ffffff" stroke="transparent" points="359.5,-74.0808 359.5,-135.0808 486.5,-135.0808 486.5,-74.0808 359.5,-74.0808"/>
<polygon fill="#f5f5f5" stroke="transparent" points="360,-111.5808 360,-134.5808 487,-134.5808 487,-111.5808 360,-111.5808"/>
<polygon fill="none" stroke="#000000" points="360,-111.5808 360,-134.5808 487,-134.5808 487,-111.5808 360,-111.5808"/>
<text text-anchor="start" x="364.8222" y="-120.6808" font-family="Helvetica,sans-Serif" font-weight="bold" font-size="11.00" fill="#000000">user_event_roles</text>
<text text-anchor="start" x="452.5219" y="-119.6808" font-family="Helvetica,sans-Serif" font-size="11.00" fill="#000000">[table]</text>
<polygon fill="none" stroke="#000000" points="360,-92.5808 360,-111.5808 487,-111.5808 487,-92.5808 360,-92.5808"/>
<text text-anchor="start" x="363" y="-98.6808" font-family="Helvetica,sans-Serif" font-size="11.00" fill="#000000">...</text>
<polygon fill="#ffffff" stroke="transparent" points="360,-73.5808 360,-92.5808 409,-92.5808 409,-73.5808 360,-73.5808"/>
<polygon fill="none" stroke="#000000" points="360,-73.5808 360,-92.5808 409,-92.5808 409,-73.5808 360,-73.5808"/>
<text text-anchor="start" x="363" y="-79.6808" font-family="Helvetica,sans-Serif" font-size="11.00" fill="#000000">&lt; 2</text>
<polygon fill="#ffffff" stroke="transparent" points="409,-73.5808 409,-92.5808 461,-92.5808 461,-73.5808 409,-73.5808"/>
<polygon fill="none" stroke="#000000" points="409,-73.5808 409,-92.5808 461,-92.5808 461,-73.5808 409,-73.5808"/>
<text text-anchor="start" x="425.6105" y="-79.6808" font-family="Helvetica,sans-Serif" font-size="11.00" fill="#000000">0 rows</text>
<polygon fill="#ffffff" stroke="transparent" points="461,-73.5808 461,-92.5808 487,-92.5808 487,-73.5808 461,-73.5808"/>
<polygon fill="none" stroke="#000000" points="461,-73.5808 461,-92.5808 487,-92.5808 487,-73.5808 461,-73.5808"/>
<text text-anchor="start" x="477.8862" y="-79.6808" font-family="Helvetica,sans-Serif" font-size="11.00" fill="#000000"> &#160;</text>
</a>
</g>
</g>
<!-- user_event_roles&#45;&gt;users -->
<g id="edge13" class="edge">
<title>user_event_roles:w&#45;&gt;users:e</title>
<path fill="none" stroke="#000000" d="M345.9936,-105.3448C335.7121,-112.5349 334.7991,-128.9891 327,-145.5808 293.7527,-216.3103 364.154,-316.5808 286,-316.5808"/>
<polygon fill="#000000" stroke="#000000" points="352.2741,-103.657 360.9343,-105.0574 356.1371,-102.6189 360,-101.5808 360,-101.5808 360,-101.5808 356.1371,-102.6189 359.0657,-98.1041 352.2741,-103.657 352.2741,-103.657"/>
<ellipse fill="none" stroke="#000000" cx="349.1838" cy="-104.4876" rx="3.2" ry="3.2"/>
</g>
<!-- user_event_roles&#45;&gt;events -->
<g id="edge12" class="edge">
<title>user_event_roles:w&#45;&gt;events:e</title>
<path fill="none" stroke="#000000" d="M345.5698,-101.8086C315.9339,-102.7867 303.6706,-106.5808 268,-106.5808"/>
<polygon fill="#000000" stroke="#000000" points="352.001,-101.7071 360.0569,-105.1803 356.0005,-101.6439 360,-101.5808 360,-101.5808 360,-101.5808 356.0005,-101.6439 359.9431,-97.9812 352.001,-101.7071 352.001,-101.7071"/>
<ellipse fill="none" stroke="#000000" cx="348.8014" cy="-101.7576" rx="3.2" ry="3.2"/>
</g>
</g>
</svg>
