<?xml version="1.0" encoding="UTF-8" standalone="no"?>
<!DOCTYPE svg PUBLIC "-//W3C//DTD SVG 1.1//EN"
 "http://www.w3.org/Graphics/SVG/1.1/DTD/svg11.dtd">
<!-- Generated by graphviz version 2.40.1 (20161225.0304)
 -->
<!-- Title: oneDegreeRelationshipsDiagram Pages: 1 -->
<svg width="633pt" height="643pt"
 viewBox="0.00 0.00 633.00 642.68" xmlns="http://www.w3.org/2000/svg" xmlns:xlink="http://www.w3.org/1999/xlink">
<g id="graph0" class="graph" transform="scale(1 1) rotate(0) translate(4 638.6832)">
<title>oneDegreeRelationshipsDiagram</title>
<polygon fill="#ffffff" stroke="transparent" points="-4,4 -4,-638.6832 629,-638.6832 629,4 -4,4"/>
<text text-anchor="middle" x="72.4936" y="-7.3" font-family="Helvetica,sans-Serif" font-size="11.00" fill="#000000">Generated by SchemaSpy</text>
<!-- chapters -->
<g id="node1" class="node">
<title>chapters</title>
<g id="a_node1"><a xlink:href="../../tables/chapters.html" xlink:title="chapters" target="_top">
<polygon fill="#ffffff" stroke="transparent" points="295,-343.7 295,-448.7 392,-448.7 392,-343.7 295,-343.7"/>
<polygon fill="#f5f5f5" stroke="transparent" points="295.5,-425.2 295.5,-448.2 392.5,-448.2 392.5,-425.2 295.5,-425.2"/>
<polygon fill="none" stroke="#000000" points="295.5,-425.2 295.5,-448.2 392.5,-448.2 392.5,-425.2 295.5,-425.2"/>
<text text-anchor="start" x="300.5" y="-434.3" font-family="Helvetica,sans-Serif" font-weight="bold" font-size="11.00" fill="#000000">chapters</text>
<text text-anchor="start" x="357.5437" y="-433.3" font-family="Helvetica,sans-Serif" font-size="11.00" fill="#000000">[table]</text>
<polygon fill="none" stroke="#000000" points="295.5,-403.2 295.5,-425.2 392.5,-425.2 392.5,-403.2 295.5,-403.2"/>
<image xlink:href="../../images/primaryKeys.png" width="11px" height="12px" preserveAspectRatio="xMinYMin meet" x="300.5" y="-420.2"/>
<text text-anchor="start" x="315.5" y="-410.3" font-family="Helvetica,sans-Serif" font-size="11.00" fill="#000000">id</text>
<polygon fill="none" stroke="#000000" points="295.5,-381.2 295.5,-403.2 392.5,-403.2 392.5,-381.2 295.5,-381.2"/>
<image xlink:href="../../images/foreignKeys.png" width="11px" height="12px" preserveAspectRatio="xMinYMin meet" x="300.5" y="-398.2"/>
<text text-anchor="start" x="315.5" y="-388.3" font-family="Helvetica,sans-Serif" font-size="11.00" fill="#000000">creator_id</text>
<polygon fill="none" stroke="#000000" points="295.5,-362.2 295.5,-381.2 392.5,-381.2 392.5,-362.2 295.5,-362.2"/>
<text text-anchor="start" x="298.5" y="-368.3" font-family="Helvetica,sans-Serif" font-size="11.00" fill="#000000">...</text>
<polygon fill="#ffffff" stroke="transparent" points="295.5,-343.2 295.5,-362.2 324.5,-362.2 324.5,-343.2 295.5,-343.2"/>
<polygon fill="none" stroke="#000000" points="295.5,-343.2 295.5,-362.2 324.5,-362.2 324.5,-343.2 295.5,-343.2"/>
<text text-anchor="start" x="298.5" y="-349.3" font-family="Helvetica,sans-Serif" font-size="11.00" fill="#000000">&lt; 1</text>
<polygon fill="#ffffff" stroke="transparent" points="324.5,-343.2 324.5,-362.2 366.5,-362.2 366.5,-343.2 324.5,-343.2"/>
<polygon fill="none" stroke="#000000" points="324.5,-343.2 324.5,-362.2 366.5,-362.2 366.5,-343.2 324.5,-343.2"/>
<text text-anchor="start" x="331.1105" y="-349.3" font-family="Helvetica,sans-Serif" font-size="11.00" fill="#000000">4 rows</text>
<polygon fill="#ffffff" stroke="transparent" points="366.5,-343.2 366.5,-362.2 392.5,-362.2 392.5,-343.2 366.5,-343.2"/>
<polygon fill="none" stroke="#000000" points="366.5,-343.2 366.5,-362.2 392.5,-362.2 392.5,-343.2 366.5,-343.2"/>
<text text-anchor="start" x="373.9053" y="-349.3" font-family="Helvetica,sans-Serif" font-size="11.00" fill="#000000">3 &gt;</text>
</a>
</g>
</g>
<!-- users -->
<g id="node2" class="node">
<title>users</title>
<g id="a_node2"><a xlink:href="../../tables/users.html" xlink:title="users" target="_top">
<polygon fill="#ffffff" stroke="transparent" points="8,-213.2 8,-391.2 218,-391.2 218,-213.2 8,-213.2"/>
<polygon fill="#f5f5f5" stroke="transparent" points="10,-366.2 10,-389.2 216,-389.2 216,-366.2 10,-366.2"/>
<polygon fill="none" stroke="#000000" points="10,-366.2 10,-389.2 216,-389.2 216,-366.2 10,-366.2"/>
<text text-anchor="start" x="15" y="-375.3" font-family="Helvetica,sans-Serif" font-weight="bold" font-size="11.00" fill="#000000">users</text>
<text text-anchor="start" x="181.0437" y="-374.3" font-family="Helvetica,sans-Serif" font-size="11.00" fill="#000000">[table]</text>
<polygon fill="none" stroke="#000000" points="10,-344.2 10,-366.2 107,-366.2 107,-344.2 10,-344.2"/>
<image xlink:href="../../images/primaryKeys.png" width="11px" height="12px" preserveAspectRatio="xMinYMin meet" x="15" y="-361.2"/>
<text text-anchor="start" x="30" y="-351.3" font-family="Helvetica,sans-Serif" font-size="11.00" fill="#000000">id</text>
<polygon fill="none" stroke="#000000" points="107,-344.2 107,-366.2 216,-366.2 216,-344.2 107,-344.2"/>
<text text-anchor="start" x="110" y="-351.9" font-family="Helvetica,sans-Serif" font-size="11.00" fill="#000000">serial[10]</text>
<polygon fill="none" stroke="#000000" points="10,-322.2 10,-344.2 107,-344.2 107,-322.2 10,-322.2"/>
<text text-anchor="start" x="30" y="-329.3" font-family="Helvetica,sans-Serif" font-size="11.00" fill="#000000">first_name</text>
<polygon fill="none" stroke="#000000" points="107,-322.2 107,-344.2 216,-344.2 216,-322.2 107,-322.2"/>
<text text-anchor="start" x="109.5344" y="-329.9" font-family="Helvetica,sans-Serif" font-size="11.00" fill="#000000">varchar[2147483647]</text>
<polygon fill="none" stroke="#000000" points="10,-300.2 10,-322.2 107,-322.2 107,-300.2 10,-300.2"/>
<text text-anchor="start" x="30" y="-307.3" font-family="Helvetica,sans-Serif" font-size="11.00" fill="#000000">last_name</text>
<polygon fill="none" stroke="#000000" points="107,-300.2 107,-322.2 216,-322.2 216,-300.2 107,-300.2"/>
<text text-anchor="start" x="109.5344" y="-307.9" font-family="Helvetica,sans-Serif" font-size="11.00" fill="#000000">varchar[2147483647]</text>
<polygon fill="#ffffff" stroke="transparent" points="10,-278.2 10,-300.2 107,-300.2 107,-278.2 10,-278.2"/>
<polygon fill="none" stroke="#000000" points="10,-278.2 10,-300.2 107,-300.2 107,-278.2 10,-278.2"/>
<text text-anchor="start" x="30" y="-285.3" font-family="Helvetica,sans-Serif" font-size="11.00" fill="#000000">email</text>
<polygon fill="none" stroke="#000000" points="107,-278.2 107,-300.2 216,-300.2 216,-278.2 107,-278.2"/>
<text text-anchor="start" x="109.5344" y="-285.9" font-family="Helvetica,sans-Serif" font-size="11.00" fill="#000000">varchar[2147483647]</text>
<polygon fill="none" stroke="#000000" points="10,-256.2 10,-278.2 107,-278.2 107,-256.2 10,-256.2"/>
<text text-anchor="start" x="30" y="-263.3" font-family="Helvetica,sans-Serif" font-size="11.00" fill="#000000">created_at</text>
<polygon fill="none" stroke="#000000" points="107,-256.2 107,-278.2 216,-278.2 216,-256.2 107,-256.2"/>
<text text-anchor="start" x="110" y="-263.9" font-family="Helvetica,sans-Serif" font-size="11.00" fill="#000000">timestamp[29,6]</text>
<polygon fill="none" stroke="#000000" points="10,-234.2 10,-256.2 107,-256.2 107,-234.2 10,-234.2"/>
<text text-anchor="start" x="30" y="-241.3" font-family="Helvetica,sans-Serif" font-size="11.00" fill="#000000">updated_at</text>
<polygon fill="none" stroke="#000000" points="107,-234.2 107,-256.2 216,-256.2 216,-234.2 107,-234.2"/>
<text text-anchor="start" x="110" y="-241.9" font-family="Helvetica,sans-Serif" font-size="11.00" fill="#000000">timestamp[29,6]</text>
<polygon fill="#ffffff" stroke="transparent" points="10,-215.2 10,-234.2 47,-234.2 47,-215.2 10,-215.2"/>
<polygon fill="none" stroke="#000000" points="10,-215.2 10,-234.2 47,-234.2 47,-215.2 10,-215.2"/>
<text text-anchor="start" x="13" y="-221.3" font-family="Helvetica,sans-Serif" font-size="11.00" fill="#000000">&lt; 0</text>
<polygon fill="#ffffff" stroke="transparent" points="47,-215.2 47,-234.2 107,-234.2 107,-215.2 47,-215.2"/>
<polygon fill="none" stroke="#000000" points="47,-215.2 47,-234.2 107,-234.2 107,-215.2 47,-215.2"/>
<text text-anchor="start" x="65.4956" y="-221.3" font-family="Helvetica,sans-Serif" font-size="11.00" fill="#000000">11 rows</text>
<polygon fill="#ffffff" stroke="transparent" points="107,-215.2 107,-234.2 216,-234.2 216,-215.2 107,-215.2"/>
<polygon fill="none" stroke="#000000" points="107,-215.2 107,-234.2 216,-234.2 216,-215.2 107,-215.2"/>
<text text-anchor="start" x="197.4053" y="-221.3" font-family="Helvetica,sans-Serif" font-size="11.00" fill="#000000">6 &gt;</text>
<polygon fill="none" stroke="#000000" stroke-width="2" points="9,-214.2 9,-390.2 217,-390.2 217,-214.2 9,-214.2"/>
</a>
</g>
</g>
<!-- chapters&#45;&gt;users -->
<g id="edge1" class="edge">
<title>chapters:w&#45;&gt;users:e</title>
<path fill="none" stroke="#000000" d="M281.0702,-390.2107C255.3502,-382.5254 249.4921,-355.2 216,-355.2"/>
<polygon fill="#000000" stroke="#000000" points="287.575,-391.1074 295.0083,-395.7663 291.5375,-391.6537 295.5,-392.2 295.5,-392.2 295.5,-392.2 291.5375,-391.6537 295.9917,-388.6337 287.575,-391.1074 287.575,-391.1074"/>
<ellipse fill="none" stroke="#000000" cx="284.4049" cy="-390.6704" rx="3.2" ry="3.2"/>
</g>
<!-- rsvps -->
<g id="node3" class="node">
<title>rsvps</title>
<g id="a_node3"><a xlink:href="../../tables/rsvps.html" xlink:title="rsvps" target="_top">
<polygon fill="#ffffff" stroke="transparent" points="289,-469.7 289,-596.7 398,-596.7 398,-469.7 289,-469.7"/>
<polygon fill="#f5f5f5" stroke="transparent" points="289.5,-573.2 289.5,-596.2 398.5,-596.2 398.5,-573.2 289.5,-573.2"/>
<polygon fill="none" stroke="#000000" points="289.5,-573.2 289.5,-596.2 398.5,-596.2 398.5,-573.2 289.5,-573.2"/>
<text text-anchor="start" x="294.5" y="-582.3" font-family="Helvetica,sans-Serif" font-weight="bold" font-size="11.00" fill="#000000">rsvps</text>
<text text-anchor="start" x="363.5437" y="-581.3" font-family="Helvetica,sans-Serif" font-size="11.00" fill="#000000">[table]</text>
<polygon fill="none" stroke="#000000" points="289.5,-551.2 289.5,-573.2 398.5,-573.2 398.5,-551.2 289.5,-551.2"/>
<image xlink:href="../../images/primaryKeys.png" width="11px" height="12px" preserveAspectRatio="xMinYMin meet" x="294.5" y="-568.2"/>
<text text-anchor="start" x="309.5" y="-558.3" font-family="Helvetica,sans-Serif" font-size="11.00" fill="#000000">id</text>
<polygon fill="none" stroke="#000000" points="289.5,-529.2 289.5,-551.2 398.5,-551.2 398.5,-529.2 289.5,-529.2"/>
<image xlink:href="../../images/foreignKeys.png" width="11px" height="12px" preserveAspectRatio="xMinYMin meet" x="294.5" y="-546.2"/>
<text text-anchor="start" x="309.5" y="-536.3" font-family="Helvetica,sans-Serif" font-size="11.00" fill="#000000">event_id</text>
<polygon fill="none" stroke="#000000" points="289.5,-507.2 289.5,-529.2 398.5,-529.2 398.5,-507.2 289.5,-507.2"/>
<image xlink:href="../../images/foreignKeys.png" width="11px" height="12px" preserveAspectRatio="xMinYMin meet" x="294.5" y="-524.2"/>
<text text-anchor="start" x="309.5" y="-514.3" font-family="Helvetica,sans-Serif" font-size="11.00" fill="#000000">user_id</text>
<polygon fill="none" stroke="#000000" points="289.5,-488.2 289.5,-507.2 398.5,-507.2 398.5,-488.2 289.5,-488.2"/>
<text text-anchor="start" x="292.5" y="-494.3" font-family="Helvetica,sans-Serif" font-size="11.00" fill="#000000">...</text>
<polygon fill="#ffffff" stroke="transparent" points="289.5,-469.2 289.5,-488.2 326.5,-488.2 326.5,-469.2 289.5,-469.2"/>
<polygon fill="none" stroke="#000000" points="289.5,-469.2 289.5,-488.2 326.5,-488.2 326.5,-469.2 289.5,-469.2"/>
<text text-anchor="start" x="292.5" y="-475.3" font-family="Helvetica,sans-Serif" font-size="11.00" fill="#000000">&lt; 2</text>
<polygon fill="#ffffff" stroke="transparent" points="326.5,-469.2 326.5,-488.2 378.5,-488.2 378.5,-469.2 326.5,-469.2"/>
<polygon fill="none" stroke="#000000" points="326.5,-469.2 326.5,-488.2 378.5,-488.2 378.5,-469.2 326.5,-469.2"/>
<text text-anchor="start" x="336.9956" y="-475.3" font-family="Helvetica,sans-Serif" font-size="11.00" fill="#000000">20 rows</text>
<polygon fill="#ffffff" stroke="transparent" points="378.5,-469.2 378.5,-488.2 398.5,-488.2 398.5,-469.2 378.5,-469.2"/>
<polygon fill="none" stroke="#000000" points="378.5,-469.2 378.5,-488.2 398.5,-488.2 398.5,-469.2 378.5,-469.2"/>
<text text-anchor="start" x="389.3862" y="-475.3" font-family="Helvetica,sans-Serif" font-size="11.00" fill="#000000"> &#160;</text>
</a>
</g>
</g>
<!-- rsvps&#45;&gt;users -->
<g id="edge2" class="edge">
<title>rsvps:w&#45;&gt;users:e</title>
<path fill="none" stroke="#000000" d="M275.0682,-515.8958C221.2305,-496.084 289.8813,-355.2 216,-355.2"/>
<polygon fill="#000000" stroke="#000000" points="281.6001,-516.9386 288.9324,-521.755 285.55,-517.5693 289.5,-518.2 289.5,-518.2 289.5,-518.2 285.55,-517.5693 290.0676,-514.645 281.6001,-516.9386 281.6001,-516.9386"/>
<ellipse fill="none" stroke="#000000" cx="278.4401" cy="-516.4341" rx="3.2" ry="3.2"/>
</g>
<!-- user_bans -->
<g id="node4" class="node">
<title>user_bans</title>
<g id="a_node4"><a xlink:href="../../tables/user_bans.html" xlink:title="user_bans" target="_top">
<polygon fill="#ffffff" stroke="transparent" points="494.5,-491.7 494.5,-618.7 591.5,-618.7 591.5,-491.7 494.5,-491.7"/>
<polygon fill="#f5f5f5" stroke="transparent" points="495,-595.2 495,-618.2 592,-618.2 592,-595.2 495,-595.2"/>
<polygon fill="none" stroke="#000000" points="495,-595.2 495,-618.2 592,-618.2 592,-595.2 495,-595.2"/>
<text text-anchor="start" x="500" y="-604.3" font-family="Helvetica,sans-Serif" font-weight="bold" font-size="11.00" fill="#000000">user_bans</text>
<text text-anchor="start" x="557.0437" y="-603.3" font-family="Helvetica,sans-Serif" font-size="11.00" fill="#000000">[table]</text>
<polygon fill="none" stroke="#000000" points="495,-573.2 495,-595.2 592,-595.2 592,-573.2 495,-573.2"/>
<image xlink:href="../../images/primaryKeys.png" width="11px" height="12px" preserveAspectRatio="xMinYMin meet" x="500" y="-590.2"/>
<text text-anchor="start" x="515" y="-580.3" font-family="Helvetica,sans-Serif" font-size="11.00" fill="#000000">id</text>
<polygon fill="none" stroke="#000000" points="495,-551.2 495,-573.2 592,-573.2 592,-551.2 495,-551.2"/>
<image xlink:href="../../images/foreignKeys.png" width="11px" height="12px" preserveAspectRatio="xMinYMin meet" x="500" y="-568.2"/>
<text text-anchor="start" x="515" y="-558.3" font-family="Helvetica,sans-Serif" font-size="11.00" fill="#000000">user_id</text>
<polygon fill="none" stroke="#000000" points="495,-529.2 495,-551.2 592,-551.2 592,-529.2 495,-529.2"/>
<image xlink:href="../../images/foreignKeys.png" width="11px" height="12px" preserveAspectRatio="xMinYMin meet" x="500" y="-546.2"/>
<text text-anchor="start" x="515" y="-536.3" font-family="Helvetica,sans-Serif" font-size="11.00" fill="#000000">chapter_id</text>
<polygon fill="none" stroke="#000000" points="495,-510.2 495,-529.2 592,-529.2 592,-510.2 495,-510.2"/>
<text text-anchor="start" x="498" y="-516.3" font-family="Helvetica,sans-Serif" font-size="11.00" fill="#000000">...</text>
<polygon fill="#ffffff" stroke="transparent" points="495,-491.2 495,-510.2 529,-510.2 529,-491.2 495,-491.2"/>
<polygon fill="none" stroke="#000000" points="495,-491.2 495,-510.2 529,-510.2 529,-491.2 495,-491.2"/>
<text text-anchor="start" x="498" y="-497.3" font-family="Helvetica,sans-Serif" font-size="11.00" fill="#000000">&lt; 2</text>
<polygon fill="#ffffff" stroke="transparent" points="529,-491.2 529,-510.2 573,-510.2 573,-491.2 529,-491.2"/>
<polygon fill="none" stroke="#000000" points="529,-491.2 529,-510.2 573,-510.2 573,-491.2 529,-491.2"/>
<text text-anchor="start" x="537.6105" y="-497.3" font-family="Helvetica,sans-Serif" font-size="11.00" fill="#000000">4 rows</text>
<polygon fill="#ffffff" stroke="transparent" points="573,-491.2 573,-510.2 592,-510.2 592,-491.2 573,-491.2"/>
<polygon fill="none" stroke="#000000" points="573,-491.2 573,-510.2 592,-510.2 592,-491.2 573,-491.2"/>
<text text-anchor="start" x="582.8862" y="-497.3" font-family="Helvetica,sans-Serif" font-size="11.00" fill="#000000"> &#160;</text>
</a>
</g>
</g>
<!-- user_bans&#45;&gt;chapters -->
<g id="edge3" class="edge">
<title>user_bans:w&#45;&gt;chapters:e</title>
<path fill="none" stroke="#000000" d="M480.7183,-538.2208C428.3987,-522.1909 459.3316,-414.2 392.5,-414.2"/>
<polygon fill="#000000" stroke="#000000" points="487.0757,-539.1018 494.5058,-543.7659 491.0379,-539.6509 495,-540.2 495,-540.2 495,-540.2 491.0379,-539.6509 495.4942,-536.6341 487.0757,-539.1018 487.0757,-539.1018"/>
<ellipse fill="none" stroke="#000000" cx="483.906" cy="-538.6625" rx="3.2" ry="3.2"/>
</g>
<!-- user_bans&#45;&gt;users -->
<g id="edge4" class="edge">
<title>user_bans:w&#45;&gt;users:e</title>
<path fill="none" stroke="#000000" d="M480.754,-564.5066C459.2089,-572.4075 456.9522,-598.3796 428,-607.2 356.1493,-629.0895 316.4048,-655.6393 259,-607.2 215.5825,-570.5635 272.8094,-355.2 216,-355.2"/>
<polygon fill="#000000" stroke="#000000" points="487.1028,-563.4787 495.5754,-565.7537 491.0514,-562.8393 495,-562.2 495,-562.2 495,-562.2 491.0514,-562.8393 494.4246,-558.6463 487.1028,-563.4787 487.1028,-563.4787"/>
<ellipse fill="none" stroke="#000000" cx="483.944" cy="-563.9901" rx="3.2" ry="3.2"/>
</g>
<!-- user_chapter_roles -->
<g id="node5" class="node">
<title>user_chapter_roles</title>
<g id="a_node5"><a xlink:href="../../tables/user_chapter_roles.html" xlink:title="user_chapter_roles" target="_top">
<polygon fill="#ffffff" stroke="transparent" points="469,-262.7 469,-411.7 617,-411.7 617,-262.7 469,-262.7"/>
<polygon fill="#f5f5f5" stroke="transparent" points="469,-388.2 469,-411.2 617,-411.2 617,-388.2 469,-388.2"/>
<polygon fill="none" stroke="#000000" points="469,-388.2 469,-411.2 617,-411.2 617,-388.2 469,-388.2"/>
<text text-anchor="start" x="474" y="-397.3" font-family="Helvetica,sans-Serif" font-weight="bold" font-size="11.00" fill="#000000">user_chapter_roles</text>
<text text-anchor="start" x="582.0437" y="-396.3" font-family="Helvetica,sans-Serif" font-size="11.00" fill="#000000">[table]</text>
<polygon fill="none" stroke="#000000" points="469,-366.2 469,-388.2 617,-388.2 617,-366.2 469,-366.2"/>
<image xlink:href="../../images/primaryKeys.png" width="11px" height="12px" preserveAspectRatio="xMinYMin meet" x="474" y="-383.2"/>
<text text-anchor="start" x="489" y="-373.3" font-family="Helvetica,sans-Serif" font-size="11.00" fill="#000000">user_id</text>
<polygon fill="none" stroke="#000000" points="469,-344.2 469,-366.2 617,-366.2 617,-344.2 469,-344.2"/>
<image xlink:href="../../images/primaryKeys.png" width="11px" height="12px" preserveAspectRatio="xMinYMin meet" x="474" y="-361.2"/>
<text text-anchor="start" x="489" y="-351.3" font-family="Helvetica,sans-Serif" font-size="11.00" fill="#000000">chapter_id</text>
<polygon fill="none" stroke="#000000" points="469,-322.2 469,-344.2 617,-344.2 617,-322.2 469,-322.2"/>
<image xlink:href="../../images/primaryKeys.png" width="11px" height="12px" preserveAspectRatio="xMinYMin meet" x="474" y="-339.2"/>
<text text-anchor="start" x="489" y="-329.3" font-family="Helvetica,sans-Serif" font-size="11.00" fill="#000000">id</text>
<polygon fill="none" stroke="#000000" points="469,-300.2 469,-322.2 617,-322.2 617,-300.2 469,-300.2"/>
<image xlink:href="../../images/primaryKeys.png" width="11px" height="12px" preserveAspectRatio="xMinYMin meet" x="474" y="-317.2"/>
<text text-anchor="start" x="489" y="-307.3" font-family="Helvetica,sans-Serif" font-size="11.00" fill="#000000">role_name</text>
<polygon fill="none" stroke="#000000" points="469,-281.2 469,-300.2 617,-300.2 617,-281.2 469,-281.2"/>
<text text-anchor="start" x="472" y="-287.3" font-family="Helvetica,sans-Serif" font-size="11.00" fill="#000000">...</text>
<polygon fill="#ffffff" stroke="transparent" points="469,-262.2 469,-281.2 525,-281.2 525,-262.2 469,-262.2"/>
<polygon fill="none" stroke="#000000" points="469,-262.2 469,-281.2 525,-281.2 525,-262.2 469,-262.2"/>
<text text-anchor="start" x="472" y="-268.3" font-family="Helvetica,sans-Serif" font-size="11.00" fill="#000000">&lt; 2</text>
<polygon fill="#ffffff" stroke="transparent" points="525,-262.2 525,-281.2 587,-281.2 587,-262.2 525,-262.2"/>
<polygon fill="none" stroke="#000000" points="525,-262.2 525,-281.2 587,-281.2 587,-262.2 525,-262.2"/>
<text text-anchor="start" x="545.4956" y="-268.3" font-family="Helvetica,sans-Serif" font-size="11.00" fill="#000000">40 rows</text>
<polygon fill="#ffffff" stroke="transparent" points="587,-262.2 587,-281.2 617,-281.2 617,-262.2 587,-262.2"/>
<polygon fill="none" stroke="#000000" points="587,-262.2 587,-281.2 617,-281.2 617,-262.2 587,-262.2"/>
<text text-anchor="start" x="607.8862" y="-268.3" font-family="Helvetica,sans-Serif" font-size="11.00" fill="#000000"> &#160;</text>
</a>
</g>
</g>
<!-- user_chapter_roles&#45;&gt;chapters -->
<g id="edge5" class="edge">
<title>user_chapter_roles:w&#45;&gt;chapters:e</title>
<path fill="none" stroke="#000000" d="M454.779,-357.8884C427.6104,-369.4305 429.9023,-414.2 392.5,-414.2"/>
<polygon fill="#000000" stroke="#000000" points="461.1392,-356.6861 469.6687,-358.7373 465.0696,-355.943 469,-355.2 469,-355.2 469,-355.2 465.0696,-355.943 468.3313,-351.6627 461.1392,-356.6861 461.1392,-356.6861"/>
<ellipse fill="none" stroke="#000000" cx="457.9949" cy="-357.2805" rx="3.2" ry="3.2"/>
</g>
<!-- user_chapter_roles&#45;&gt;users -->
<g id="edge6" class="edge">
<title>user_chapter_roles:w&#45;&gt;users:e</title>
<path fill="none" stroke="#000000" d="M455.3748,-372.4273C445.1616,-362.8188 446.7659,-341.3638 428,-333.2 359.1242,-303.2367 332.0211,-315.6048 259,-333.2 238.1302,-338.2288 237.4672,-355.2 216,-355.2"/>
<polygon fill="#000000" stroke="#000000" points="461.4498,-374.5553 467.8099,-380.5976 465.2249,-375.8776 469,-377.2 469,-377.2 469,-377.2 465.2249,-375.8776 470.1901,-373.8024 461.4498,-374.5553 461.4498,-374.5553"/>
<ellipse fill="none" stroke="#000000" cx="458.4297" cy="-373.4974" rx="3.2" ry="3.2"/>
</g>
<!-- user_event_roles -->
<g id="node6" class="node">
<title>user_event_roles</title>
<g id="a_node6"><a xlink:href="../../tables/user_event_roles.html" xlink:title="user_event_roles" target="_top">
<polygon fill="#ffffff" stroke="transparent" points="276.5,-145.7 276.5,-294.7 410.5,-294.7 410.5,-145.7 276.5,-145.7"/>
<polygon fill="#f5f5f5" stroke="transparent" points="276.5,-271.2 276.5,-294.2 410.5,-294.2 410.5,-271.2 276.5,-271.2"/>
<polygon fill="none" stroke="#000000" points="276.5,-271.2 276.5,-294.2 410.5,-294.2 410.5,-271.2 276.5,-271.2"/>
<text text-anchor="start" x="281.5" y="-280.3" font-family="Helvetica,sans-Serif" font-weight="bold" font-size="11.00" fill="#000000">user_event_roles</text>
<text text-anchor="start" x="375.5437" y="-279.3" font-family="Helvetica,sans-Serif" font-size="11.00" fill="#000000">[table]</text>
<polygon fill="none" stroke="#000000" points="276.5,-249.2 276.5,-271.2 410.5,-271.2 410.5,-249.2 276.5,-249.2"/>
<image xlink:href="../../images/primaryKeys.png" width="11px" height="12px" preserveAspectRatio="xMinYMin meet" x="281.5" y="-266.2"/>
<text text-anchor="start" x="296.5" y="-256.3" font-family="Helvetica,sans-Serif" font-size="11.00" fill="#000000">id</text>
<polygon fill="none" stroke="#000000" points="276.5,-227.2 276.5,-249.2 410.5,-249.2 410.5,-227.2 276.5,-227.2"/>
<image xlink:href="../../images/primaryKeys.png" width="11px" height="12px" preserveAspectRatio="xMinYMin meet" x="281.5" y="-244.2"/>
<text text-anchor="start" x="296.5" y="-234.3" font-family="Helvetica,sans-Serif" font-size="11.00" fill="#000000">user_id</text>
<polygon fill="none" stroke="#000000" points="276.5,-205.2 276.5,-227.2 410.5,-227.2 410.5,-205.2 276.5,-205.2"/>
<image xlink:href="../../images/primaryKeys.png" width="11px" height="12px" preserveAspectRatio="xMinYMin meet" x="281.5" y="-222.2"/>
<text text-anchor="start" x="296.5" y="-212.3" font-family="Helvetica,sans-Serif" font-size="11.00" fill="#000000">event_id</text>
<polygon fill="none" stroke="#000000" points="276.5,-183.2 276.5,-205.2 410.5,-205.2 410.5,-183.2 276.5,-183.2"/>
<image xlink:href="../../images/primaryKeys.png" width="11px" height="12px" preserveAspectRatio="xMinYMin meet" x="281.5" y="-200.2"/>
<text text-anchor="start" x="296.5" y="-190.3" font-family="Helvetica,sans-Serif" font-size="11.00" fill="#000000">role_name</text>
<polygon fill="none" stroke="#000000" points="276.5,-164.2 276.5,-183.2 410.5,-183.2 410.5,-164.2 276.5,-164.2"/>
<text text-anchor="start" x="279.5" y="-170.3" font-family="Helvetica,sans-Serif" font-size="11.00" fill="#000000">...</text>
<polygon fill="#ffffff" stroke="transparent" points="276.5,-145.2 276.5,-164.2 325.5,-164.2 325.5,-145.2 276.5,-145.2"/>
<polygon fill="none" stroke="#000000" points="276.5,-145.2 276.5,-164.2 325.5,-164.2 325.5,-145.2 276.5,-145.2"/>
<text text-anchor="start" x="279.5" y="-151.3" font-family="Helvetica,sans-Serif" font-size="11.00" fill="#000000">&lt; 2</text>
<polygon fill="#ffffff" stroke="transparent" points="325.5,-145.2 325.5,-164.2 383.5,-164.2 383.5,-145.2 325.5,-145.2"/>
<polygon fill="none" stroke="#000000" points="325.5,-145.2 325.5,-164.2 383.5,-164.2 383.5,-145.2 325.5,-145.2"/>
<text text-anchor="start" x="341.9956" y="-151.3" font-family="Helvetica,sans-Serif" font-size="11.00" fill="#000000">20 rows</text>
<polygon fill="#ffffff" stroke="transparent" points="383.5,-145.2 383.5,-164.2 410.5,-164.2 410.5,-145.2 383.5,-145.2"/>
<polygon fill="none" stroke="#000000" points="383.5,-145.2 383.5,-164.2 410.5,-164.2 410.5,-145.2 383.5,-145.2"/>
<text text-anchor="start" x="401.3862" y="-151.3" font-family="Helvetica,sans-Serif" font-size="11.00" fill="#000000"> &#160;</text>
</a>
</g>
</g>
<!-- user_event_roles&#45;&gt;users -->
<g id="edge7" class="edge">
<title>user_event_roles:w&#45;&gt;users:e</title>
<path fill="none" stroke="#000000" d="M262.4286,-241.3295C227.9125,-259.9358 268.8238,-355.2 216,-355.2"/>
<polygon fill="#000000" stroke="#000000" points="268.6908,-239.9368 277.2816,-241.7141 272.5954,-239.0684 276.5,-238.2 276.5,-238.2 276.5,-238.2 272.5954,-239.0684 275.7184,-234.6859 268.6908,-239.9368 268.6908,-239.9368"/>
<ellipse fill="none" stroke="#000000" cx="265.5671" cy="-240.6315" rx="3.2" ry="3.2"/>
</g>
<!-- user_instance_roles -->
<g id="node7" class="node">
<title>user_instance_roles</title>
<g id="a_node7"><a xlink:href="../../tables/user_instance_roles.html" xlink:title="user_instance_roles" target="_top">
<polygon fill="#ffffff" stroke="transparent" points="267,-38.2 267,-124.2 420,-124.2 420,-38.2 267,-38.2"/>
<polygon fill="#f5f5f5" stroke="transparent" points="267.5,-101.2 267.5,-124.2 420.5,-124.2 420.5,-101.2 267.5,-101.2"/>
<polygon fill="none" stroke="#000000" points="267.5,-101.2 267.5,-124.2 420.5,-124.2 420.5,-101.2 267.5,-101.2"/>
<text text-anchor="start" x="272.5" y="-110.3" font-family="Helvetica,sans-Serif" font-weight="bold" font-size="11.00" fill="#000000">user_instance_roles</text>
<text text-anchor="start" x="385.5437" y="-109.3" font-family="Helvetica,sans-Serif" font-size="11.00" fill="#000000">[table]</text>
<polygon fill="none" stroke="#000000" points="267.5,-79.2 267.5,-101.2 420.5,-101.2 420.5,-79.2 267.5,-79.2"/>
<image xlink:href="../../images/primaryKeys.png" width="11px" height="12px" preserveAspectRatio="xMinYMin meet" x="272.5" y="-96.2"/>
<text text-anchor="start" x="287.5" y="-86.3" font-family="Helvetica,sans-Serif" font-size="11.00" fill="#000000">user_id</text>
<polygon fill="none" stroke="#000000" points="267.5,-57.2 267.5,-79.2 420.5,-79.2 420.5,-57.2 267.5,-57.2"/>
<image xlink:href="../../images/primaryKeys.png" width="11px" height="12px" preserveAspectRatio="xMinYMin meet" x="272.5" y="-74.2"/>
<text text-anchor="start" x="287.5" y="-64.3" font-family="Helvetica,sans-Serif" font-size="11.00" fill="#000000">role_name</text>
<polygon fill="#ffffff" stroke="transparent" points="267.5,-38.2 267.5,-57.2 329.5,-57.2 329.5,-38.2 267.5,-38.2"/>
<polygon fill="none" stroke="#000000" points="267.5,-38.2 267.5,-57.2 329.5,-57.2 329.5,-38.2 267.5,-38.2"/>
<text text-anchor="start" x="270.5" y="-44.3" font-family="Helvetica,sans-Serif" font-size="11.00" fill="#000000">&lt; 1</text>
<polygon fill="#ffffff" stroke="transparent" points="329.5,-38.2 329.5,-57.2 387.5,-57.2 387.5,-38.2 329.5,-38.2"/>
<polygon fill="none" stroke="#000000" points="329.5,-38.2 329.5,-57.2 387.5,-57.2 387.5,-38.2 329.5,-38.2"/>
<text text-anchor="start" x="352.1105" y="-44.3" font-family="Helvetica,sans-Serif" font-size="11.00" fill="#000000">0 rows</text>
<polygon fill="#ffffff" stroke="transparent" points="387.5,-38.2 387.5,-57.2 420.5,-57.2 420.5,-38.2 387.5,-38.2"/>
<polygon fill="none" stroke="#000000" points="387.5,-38.2 387.5,-57.2 420.5,-57.2 420.5,-38.2 387.5,-38.2"/>
<text text-anchor="start" x="411.3862" y="-44.3" font-family="Helvetica,sans-Serif" font-size="11.00" fill="#000000"> &#160;</text>
</a>
</g>
</g>
<!-- user_instance_roles&#45;&gt;users -->
<g id="edge8" class="edge">
<title>user_instance_roles:w&#45;&gt;users:e</title>
<path fill="none" stroke="#000000" d="M253.142,-91.7562C163.8285,-113.4738 330.5915,-355.2 216,-355.2"/>
<polygon fill="#000000" stroke="#000000" points="259.5466,-91.0621 267.888,-93.779 263.5233,-90.6311 267.5,-90.2 267.5,-90.2 267.5,-90.2 263.5233,-90.6311 267.112,-86.621 259.5466,-91.0621 259.5466,-91.0621"/>
<ellipse fill="none" stroke="#000000" cx="256.3652" cy="-91.407" rx="3.2" ry="3.2"/>
</g>
</g>
</svg>
