<?xml version="1.0" encoding="UTF-8" standalone="no"?>
<!DOCTYPE svg PUBLIC "-//W3C//DTD SVG 1.1//EN"
 "http://www.w3.org/Graphics/SVG/1.1/DTD/svg11.dtd">
<!-- Generated by graphviz version 2.40.1 (20161225.0304)
 -->
<!-- Title: oneDegreeRelationshipsDiagram Pages: 1 -->
<svg width="365pt" height="281pt"
 viewBox="0.00 0.00 365.00 281.20" xmlns="http://www.w3.org/2000/svg" xmlns:xlink="http://www.w3.org/1999/xlink">
<g id="graph0" class="graph" transform="scale(1 1) rotate(0) translate(4 277.2)">
<title>oneDegreeRelationshipsDiagram</title>
<polygon fill="#ffffff" stroke="transparent" points="-4,4 -4,-277.2 361,-277.2 361,4 -4,4"/>
<text text-anchor="middle" x="72.4936" y="-7.3" font-family="Helvetica,sans-Serif" font-size="11.00" fill="#000000">Generated by SchemaSpy</text>
<!-- user_bans -->
<g id="node1" class="node">
<title>user_bans</title>
<g id="a_node1"><a xlink:href="../../tables/user_bans.html" xlink:title="user_bans" target="_top">
<polygon fill="#ffffff" stroke="transparent" points="173,-117.7 173,-251.7 349,-251.7 349,-117.7 173,-117.7"/>
<polygon fill="#f5f5f5" stroke="transparent" points="175,-226.7 175,-249.7 347,-249.7 347,-226.7 175,-226.7"/>
<polygon fill="none" stroke="#000000" points="175,-226.7 175,-249.7 347,-249.7 347,-226.7 175,-226.7"/>
<text text-anchor="start" x="180" y="-235.8" font-family="Helvetica,sans-Serif" font-weight="bold" font-size="11.00" fill="#000000">user_bans</text>
<text text-anchor="start" x="312.0437" y="-234.8" font-family="Helvetica,sans-Serif" font-size="11.00" fill="#000000">[table]</text>
<polygon fill="none" stroke="#000000" points="175,-204.7 175,-226.7 263,-226.7 263,-204.7 175,-204.7"/>
<text text-anchor="start" x="195" y="-211.8" font-family="Helvetica,sans-Serif" font-size="11.00" fill="#000000">created_at</text>
<polygon fill="none" stroke="#000000" points="263,-204.7 263,-226.7 347,-226.7 347,-204.7 263,-204.7"/>
<text text-anchor="start" x="265.8807" y="-212.4" font-family="Helvetica,sans-Serif" font-size="11.00" fill="#000000">timestamp[26,3]</text>
<polygon fill="none" stroke="#000000" points="175,-182.7 175,-204.7 263,-204.7 263,-182.7 175,-182.7"/>
<text text-anchor="start" x="195" y="-189.8" font-family="Helvetica,sans-Serif" font-size="11.00" fill="#000000">updated_at</text>
<polygon fill="none" stroke="#000000" points="263,-182.7 263,-204.7 347,-204.7 347,-182.7 263,-182.7"/>
<text text-anchor="start" x="265.8807" y="-190.4" font-family="Helvetica,sans-Serif" font-size="11.00" fill="#000000">timestamp[26,3]</text>
<polygon fill="none" stroke="#000000" points="175,-160.7 175,-182.7 263,-182.7 263,-160.7 175,-160.7"/>
<image xlink:href="../../images/primaryKeys.png" width="11px" height="12px" preserveAspectRatio="xMinYMin meet" x="180" y="-177.7"/>
<text text-anchor="start" x="195" y="-167.8" font-family="Helvetica,sans-Serif" font-size="11.00" fill="#000000">user_id</text>
<polygon fill="none" stroke="#000000" points="263,-160.7 263,-182.7 347,-182.7 347,-160.7 263,-160.7"/>
<text text-anchor="start" x="266" y="-168.4" font-family="Helvetica,sans-Serif" font-size="11.00" fill="#000000">int4[10]</text>
<polygon fill="none" stroke="#000000" points="175,-138.7 175,-160.7 263,-160.7 263,-138.7 175,-138.7"/>
<image xlink:href="../../images/primaryKeys.png" width="11px" height="12px" preserveAspectRatio="xMinYMin meet" x="180" y="-155.7"/>
<text text-anchor="start" x="195" y="-145.8" font-family="Helvetica,sans-Serif" font-size="11.00" fill="#000000">chapter_id</text>
<polygon fill="none" stroke="#000000" points="263,-138.7 263,-160.7 347,-160.7 347,-138.7 263,-138.7"/>
<text text-anchor="start" x="266" y="-146.4" font-family="Helvetica,sans-Serif" font-size="11.00" fill="#000000">int4[10]</text>
<polygon fill="#ffffff" stroke="transparent" points="175,-119.7 175,-138.7 210,-138.7 210,-119.7 175,-119.7"/>
<polygon fill="none" stroke="#000000" points="175,-119.7 175,-138.7 210,-138.7 210,-119.7 175,-119.7"/>
<text text-anchor="start" x="178" y="-125.8" font-family="Helvetica,sans-Serif" font-size="11.00" fill="#000000">&lt; 2</text>
<polygon fill="#ffffff" stroke="transparent" points="210,-119.7 210,-138.7 263,-138.7 263,-119.7 210,-119.7"/>
<polygon fill="none" stroke="#000000" points="210,-119.7 210,-138.7 263,-138.7 263,-119.7 210,-119.7"/>
<text text-anchor="start" x="227.6105" y="-125.8" font-family="Helvetica,sans-Serif" font-size="11.00" fill="#000000">0 rows</text>
<polygon fill="#ffffff" stroke="transparent" points="263,-119.7 263,-138.7 347,-138.7 347,-119.7 263,-119.7"/>
<polygon fill="none" stroke="#000000" points="263,-119.7 263,-138.7 347,-138.7 347,-119.7 263,-119.7"/>
<text text-anchor="start" x="328.4053" y="-125.8" font-family="Helvetica,sans-Serif" font-size="11.00" fill="#000000">0 &gt;</text>
<polygon fill="none" stroke="#000000" stroke-width="2" points="174,-118.7 174,-250.7 348,-250.7 348,-118.7 174,-118.7"/>
</a>
</g>
</g>
<!-- chapters -->
<g id="node2" class="node">
<title>chapters</title>
<g id="a_node2"><a xlink:href="../../tables/chapters.html" xlink:title="chapters" target="_top">
<polygon fill="#ffffff" stroke="transparent" points="22,-38.2 22,-121.2 110,-121.2 110,-38.2 22,-38.2"/>
<polygon fill="#f5f5f5" stroke="transparent" points="22,-97.7 22,-120.7 110,-120.7 110,-97.7 22,-97.7"/>
<polygon fill="none" stroke="#000000" points="22,-97.7 22,-120.7 110,-120.7 110,-97.7 22,-97.7"/>
<text text-anchor="start" x="27" y="-106.8" font-family="Helvetica,sans-Serif" font-weight="bold" font-size="11.00" fill="#000000">chapters</text>
<text text-anchor="start" x="75.0437" y="-105.8" font-family="Helvetica,sans-Serif" font-size="11.00" fill="#000000">[table]</text>
<polygon fill="none" stroke="#000000" points="22,-75.7 22,-97.7 110,-97.7 110,-75.7 22,-75.7"/>
<image xlink:href="../../images/primaryKeys.png" width="11px" height="12px" preserveAspectRatio="xMinYMin meet" x="27" y="-92.7"/>
<text text-anchor="start" x="42" y="-82.8" font-family="Helvetica,sans-Serif" font-size="11.00" fill="#000000">id</text>
<polygon fill="none" stroke="#000000" points="22,-56.7 22,-75.7 110,-75.7 110,-56.7 22,-56.7"/>
<text text-anchor="start" x="25" y="-62.8" font-family="Helvetica,sans-Serif" font-size="11.00" fill="#000000">...</text>
<polygon fill="#ffffff" stroke="transparent" points="22,-37.7 22,-56.7 42,-56.7 42,-37.7 22,-37.7"/>
<polygon fill="none" stroke="#000000" points="22,-37.7 22,-56.7 42,-56.7 42,-37.7 22,-37.7"/>
<text text-anchor="start" x="25" y="-43.8" font-family="Helvetica,sans-Serif" font-size="11.00" fill="#000000"> &#160;</text>
<polygon fill="#ffffff" stroke="transparent" points="42,-37.7 42,-56.7 84,-56.7 84,-37.7 42,-37.7"/>
<polygon fill="none" stroke="#000000" points="42,-37.7 42,-56.7 84,-56.7 84,-37.7 42,-37.7"/>
<text text-anchor="start" x="48.6105" y="-43.8" font-family="Helvetica,sans-Serif" font-size="11.00" fill="#000000">0 rows</text>
<polygon fill="#ffffff" stroke="transparent" points="84,-37.7 84,-56.7 110,-56.7 110,-37.7 84,-37.7"/>
<polygon fill="none" stroke="#000000" points="84,-37.7 84,-56.7 110,-56.7 110,-37.7 84,-37.7"/>
<text text-anchor="start" x="91.4053" y="-43.8" font-family="Helvetica,sans-Serif" font-size="11.00" fill="#000000">4 &gt;</text>
</a>
</g>
</g>
<!-- user_bans&#45;&gt;chapters -->
<g id="edge1" class="edge">
<title>user_bans:w&#45;&gt;chapters:e</title>
<path fill="none" stroke="#000000" d="M160.7098,-146.1323C138.0749,-132.8051 144.4167,-86.7 110,-86.7"/>
<polygon fill="#000000" stroke="#000000" points="167.2382,-147.7622 174.128,-153.1928 171.1191,-148.7311 175,-149.7 175,-149.7 175,-149.7 171.1191,-148.7311 175.872,-146.2072 167.2382,-147.7622 167.2382,-147.7622"/>
<ellipse fill="none" stroke="#000000" cx="164.1335" cy="-146.987" rx="3.2" ry="3.2"/>
</g>
<!-- users -->
<g id="node3" class="node">
<title>users</title>
<g id="a_node3"><a xlink:href="../../tables/users.html" xlink:title="users" target="_top">
<polygon fill="#ffffff" stroke="transparent" points="8,-142.2 8,-269.2 124,-269.2 124,-142.2 8,-142.2"/>
<polygon fill="#f5f5f5" stroke="transparent" points="8,-245.7 8,-268.7 124,-268.7 124,-245.7 8,-245.7"/>
<polygon fill="none" stroke="#000000" points="8,-245.7 8,-268.7 124,-268.7 124,-245.7 8,-245.7"/>
<text text-anchor="start" x="13" y="-254.8" font-family="Helvetica,sans-Serif" font-weight="bold" font-size="11.00" fill="#000000">users</text>
<text text-anchor="start" x="89.0437" y="-253.8" font-family="Helvetica,sans-Serif" font-size="11.00" fill="#000000">[table]</text>
<polygon fill="none" stroke="#000000" points="8,-223.7 8,-245.7 124,-245.7 124,-223.7 8,-223.7"/>
<image xlink:href="../../images/primaryKeys.png" width="11px" height="12px" preserveAspectRatio="xMinYMin meet" x="13" y="-240.7"/>
<text text-anchor="start" x="28" y="-230.8" font-family="Helvetica,sans-Serif" font-size="11.00" fill="#000000">id</text>
<polygon fill="#ffffff" stroke="transparent" points="8,-201.7 8,-223.7 124,-223.7 124,-201.7 8,-201.7"/>
<polygon fill="none" stroke="#000000" points="8,-201.7 8,-223.7 124,-223.7 124,-201.7 8,-201.7"/>
<text text-anchor="start" x="28" y="-208.8" font-family="Helvetica,sans-Serif" font-size="11.00" fill="#000000">email</text>
<polygon fill="none" stroke="#000000" points="8,-179.7 8,-201.7 124,-201.7 124,-179.7 8,-179.7"/>
<image xlink:href="../../images/foreignKeys.png" width="11px" height="12px" preserveAspectRatio="xMinYMin meet" x="13" y="-196.7"/>
<text text-anchor="start" x="28" y="-186.8" font-family="Helvetica,sans-Serif" font-size="11.00" fill="#000000">instance_role_id</text>
<polygon fill="none" stroke="#000000" points="8,-160.7 8,-179.7 124,-179.7 124,-160.7 8,-160.7"/>
<text text-anchor="start" x="11" y="-166.8" font-family="Helvetica,sans-Serif" font-size="11.00" fill="#000000">...</text>
<polygon fill="#ffffff" stroke="transparent" points="8,-141.7 8,-160.7 47,-160.7 47,-141.7 8,-141.7"/>
<polygon fill="none" stroke="#000000" points="8,-141.7 8,-160.7 47,-160.7 47,-141.7 8,-141.7"/>
<text text-anchor="start" x="11" y="-147.8" font-family="Helvetica,sans-Serif" font-size="11.00" fill="#000000">&lt; 1</text>
<polygon fill="#ffffff" stroke="transparent" points="47,-141.7 47,-160.7 94,-160.7 94,-141.7 47,-141.7"/>
<polygon fill="none" stroke="#000000" points="47,-141.7 47,-160.7 94,-160.7 94,-141.7 47,-141.7"/>
<text text-anchor="start" x="58.6105" y="-147.8" font-family="Helvetica,sans-Serif" font-size="11.00" fill="#000000">0 rows</text>
<polygon fill="#ffffff" stroke="transparent" points="94,-141.7 94,-160.7 124,-160.7 124,-141.7 94,-141.7"/>
<polygon fill="none" stroke="#000000" points="94,-141.7 94,-160.7 124,-160.7 124,-141.7 94,-141.7"/>
<text text-anchor="start" x="105.4053" y="-147.8" font-family="Helvetica,sans-Serif" font-size="11.00" fill="#000000">4 &gt;</text>
</a>
</g>
</g>
<!-- user_bans&#45;&gt;users -->
<g id="edge2" class="edge">
<title>user_bans:w&#45;&gt;users:e</title>
<path fill="none" stroke="#000000" d="M160.9033,-176.6435C144.525,-191.4952 153.8329,-234.7 124,-234.7"/>
<polygon fill="#000000" stroke="#000000" points="167.4507,-174.3474 176.1913,-175.0972 171.2254,-173.0237 175,-171.7 175,-171.7 175,-171.7 171.2254,-173.0237 173.8087,-168.3028 167.4507,-174.3474 167.4507,-174.3474"/>
<ellipse fill="none" stroke="#000000" cx="164.431" cy="-175.4064" rx="3.2" ry="3.2"/>
</g>
</g>
</svg>
