<?xml version="1.0" encoding="UTF-8" standalone="no"?>
<!DOCTYPE svg PUBLIC "-//W3C//DTD SVG 1.1//EN"
 "http://www.w3.org/Graphics/SVG/1.1/DTD/svg11.dtd">
<!-- Generated by graphviz version 2.40.1 (20161225.0304)
 -->
<!-- Title: twoDegreesRelationshipsDiagram Pages: 1 -->
<svg width="807pt" height="411pt"
 viewBox="0.00 0.00 807.00 411.47" xmlns="http://www.w3.org/2000/svg" xmlns:xlink="http://www.w3.org/1999/xlink">
<g id="graph0" class="graph" transform="scale(1 1) rotate(0) translate(4 407.4673)">
<title>twoDegreesRelationshipsDiagram</title>
<polygon fill="#ffffff" stroke="transparent" points="-4,4 -4,-407.4673 803,-407.4673 803,4 -4,4"/>
<text text-anchor="middle" x="72.4936" y="-7.3" font-family="Helvetica,sans-Serif" font-size="11.00" fill="#000000">Generated by SchemaSpy</text>
<!-- chapter_users -->
<g id="node1" class="node">
<title>chapter_users</title>
<g id="a_node1"><a xlink:href="../../tables/chapter_users.html" xlink:title="chapter_users" target="_top">
<polygon fill="#ffffff" stroke="transparent" points="367,-148.2 367,-209.2 479,-209.2 479,-148.2 367,-148.2"/>
<polygon fill="#f5f5f5" stroke="transparent" points="367,-185.7 367,-208.7 479,-208.7 479,-185.7 367,-185.7"/>
<polygon fill="none" stroke="#000000" points="367,-185.7 367,-208.7 479,-208.7 479,-185.7 367,-185.7"/>
<text text-anchor="start" x="371.6575" y="-194.8" font-family="Helvetica,sans-Serif" font-weight="bold" font-size="11.00" fill="#000000">chapter_users</text>
<text text-anchor="start" x="444.5219" y="-193.8" font-family="Helvetica,sans-Serif" font-size="11.00" fill="#000000">[table]</text>
<polygon fill="none" stroke="#000000" points="367,-166.7 367,-185.7 479,-185.7 479,-166.7 367,-166.7"/>
<text text-anchor="start" x="370" y="-172.8" font-family="Helvetica,sans-Serif" font-size="11.00" fill="#000000">...</text>
<polygon fill="#ffffff" stroke="transparent" points="367,-147.7 367,-166.7 408,-166.7 408,-147.7 367,-147.7"/>
<polygon fill="none" stroke="#000000" points="367,-147.7 367,-166.7 408,-166.7 408,-147.7 367,-147.7"/>
<text text-anchor="start" x="370" y="-153.8" font-family="Helvetica,sans-Serif" font-size="11.00" fill="#000000">&lt; 3</text>
<polygon fill="#ffffff" stroke="transparent" points="408,-147.7 408,-166.7 456,-166.7 456,-147.7 408,-147.7"/>
<polygon fill="none" stroke="#000000" points="408,-147.7 408,-166.7 456,-166.7 456,-147.7 408,-147.7"/>
<text text-anchor="start" x="420.6105" y="-153.8" font-family="Helvetica,sans-Serif" font-size="11.00" fill="#000000">0 rows</text>
<polygon fill="#ffffff" stroke="transparent" points="456,-147.7 456,-166.7 479,-166.7 479,-147.7 456,-147.7"/>
<polygon fill="none" stroke="#000000" points="456,-147.7 456,-166.7 479,-166.7 479,-147.7 456,-147.7"/>
<text text-anchor="start" x="469.8862" y="-153.8" font-family="Helvetica,sans-Serif" font-size="11.00" fill="#000000"> &#160;</text>
</a>
</g>
</g>
<!-- chapters -->
<g id="node2" class="node">
<title>chapters</title>
<g id="a_node2"><a xlink:href="../../tables/chapters.html" xlink:title="chapters" target="_top">
<polygon fill="#ffffff" stroke="transparent" points="184,-82.2 184,-165.2 272,-165.2 272,-82.2 184,-82.2"/>
<polygon fill="#f5f5f5" stroke="transparent" points="184,-141.7 184,-164.7 272,-164.7 272,-141.7 184,-141.7"/>
<polygon fill="none" stroke="#000000" points="184,-141.7 184,-164.7 272,-164.7 272,-141.7 184,-141.7"/>
<text text-anchor="start" x="189" y="-150.8" font-family="Helvetica,sans-Serif" font-weight="bold" font-size="11.00" fill="#000000">chapters</text>
<text text-anchor="start" x="237.0437" y="-149.8" font-family="Helvetica,sans-Serif" font-size="11.00" fill="#000000">[table]</text>
<polygon fill="none" stroke="#000000" points="184,-119.7 184,-141.7 272,-141.7 272,-119.7 184,-119.7"/>
<image xlink:href="../../images/primaryKeys.png" width="11px" height="12px" preserveAspectRatio="xMinYMin meet" x="189" y="-136.7"/>
<text text-anchor="start" x="204" y="-126.8" font-family="Helvetica,sans-Serif" font-size="11.00" fill="#000000">id</text>
<polygon fill="none" stroke="#000000" points="184,-100.7 184,-119.7 272,-119.7 272,-100.7 184,-100.7"/>
<text text-anchor="start" x="187" y="-106.8" font-family="Helvetica,sans-Serif" font-size="11.00" fill="#000000">...</text>
<polygon fill="#ffffff" stroke="transparent" points="184,-81.7 184,-100.7 204,-100.7 204,-81.7 184,-81.7"/>
<polygon fill="none" stroke="#000000" points="184,-81.7 184,-100.7 204,-100.7 204,-81.7 184,-81.7"/>
<text text-anchor="start" x="187" y="-87.8" font-family="Helvetica,sans-Serif" font-size="11.00" fill="#000000"> &#160;</text>
<polygon fill="#ffffff" stroke="transparent" points="204,-81.7 204,-100.7 246,-100.7 246,-81.7 204,-81.7"/>
<polygon fill="none" stroke="#000000" points="204,-81.7 204,-100.7 246,-100.7 246,-81.7 204,-81.7"/>
<text text-anchor="start" x="210.6105" y="-87.8" font-family="Helvetica,sans-Serif" font-size="11.00" fill="#000000">0 rows</text>
<polygon fill="#ffffff" stroke="transparent" points="246,-81.7 246,-100.7 272,-100.7 272,-81.7 246,-81.7"/>
<polygon fill="none" stroke="#000000" points="246,-81.7 246,-100.7 272,-100.7 272,-81.7 246,-81.7"/>
<text text-anchor="start" x="253.4053" y="-87.8" font-family="Helvetica,sans-Serif" font-size="11.00" fill="#000000">4 &gt;</text>
</a>
</g>
</g>
<!-- chapter_users&#45;&gt;chapters -->
<g id="edge1" class="edge">
<title>chapter_users:w&#45;&gt;chapters:e</title>
<path fill="none" stroke="#000000" d="M352.2903,-173.9909C319.2945,-165.7711 313.2446,-130.7 272,-130.7"/>
<polygon fill="#000000" stroke="#000000" points="359.0535,-174.7767 366.5845,-179.2759 363.0267,-175.2383 367,-175.7 367,-175.7 367,-175.7 363.0267,-175.2383 367.4155,-172.1241 359.0535,-174.7767 359.0535,-174.7767"/>
<ellipse fill="none" stroke="#000000" cx="355.8748" cy="-174.4073" rx="3.2" ry="3.2"/>
</g>
<!-- users -->
<g id="node3" class="node">
<title>users</title>
<g id="a_node3"><a xlink:href="../../tables/users.html" xlink:title="users" target="_top">
<polygon fill="#ffffff" stroke="transparent" points="170,-192.2 170,-319.2 286,-319.2 286,-192.2 170,-192.2"/>
<polygon fill="#f5f5f5" stroke="transparent" points="170,-295.7 170,-318.7 286,-318.7 286,-295.7 170,-295.7"/>
<polygon fill="none" stroke="#000000" points="170,-295.7 170,-318.7 286,-318.7 286,-295.7 170,-295.7"/>
<text text-anchor="start" x="175" y="-304.8" font-family="Helvetica,sans-Serif" font-weight="bold" font-size="11.00" fill="#000000">users</text>
<text text-anchor="start" x="251.0437" y="-303.8" font-family="Helvetica,sans-Serif" font-size="11.00" fill="#000000">[table]</text>
<polygon fill="none" stroke="#000000" points="170,-273.7 170,-295.7 286,-295.7 286,-273.7 170,-273.7"/>
<image xlink:href="../../images/primaryKeys.png" width="11px" height="12px" preserveAspectRatio="xMinYMin meet" x="175" y="-290.7"/>
<text text-anchor="start" x="190" y="-280.8" font-family="Helvetica,sans-Serif" font-size="11.00" fill="#000000">id</text>
<polygon fill="#ffffff" stroke="transparent" points="170,-251.7 170,-273.7 286,-273.7 286,-251.7 170,-251.7"/>
<polygon fill="none" stroke="#000000" points="170,-251.7 170,-273.7 286,-273.7 286,-251.7 170,-251.7"/>
<text text-anchor="start" x="190" y="-258.8" font-family="Helvetica,sans-Serif" font-size="11.00" fill="#000000">email</text>
<polygon fill="none" stroke="#000000" points="170,-229.7 170,-251.7 286,-251.7 286,-229.7 170,-229.7"/>
<image xlink:href="../../images/foreignKeys.png" width="11px" height="12px" preserveAspectRatio="xMinYMin meet" x="175" y="-246.7"/>
<text text-anchor="start" x="190" y="-236.8" font-family="Helvetica,sans-Serif" font-size="11.00" fill="#000000">instance_role_id</text>
<polygon fill="none" stroke="#000000" points="170,-210.7 170,-229.7 286,-229.7 286,-210.7 170,-210.7"/>
<text text-anchor="start" x="173" y="-216.8" font-family="Helvetica,sans-Serif" font-size="11.00" fill="#000000">...</text>
<polygon fill="#ffffff" stroke="transparent" points="170,-191.7 170,-210.7 209,-210.7 209,-191.7 170,-191.7"/>
<polygon fill="none" stroke="#000000" points="170,-191.7 170,-210.7 209,-210.7 209,-191.7 170,-191.7"/>
<text text-anchor="start" x="173" y="-197.8" font-family="Helvetica,sans-Serif" font-size="11.00" fill="#000000">&lt; 1</text>
<polygon fill="#ffffff" stroke="transparent" points="209,-191.7 209,-210.7 256,-210.7 256,-191.7 209,-191.7"/>
<polygon fill="none" stroke="#000000" points="209,-191.7 209,-210.7 256,-210.7 256,-191.7 209,-191.7"/>
<text text-anchor="start" x="220.6105" y="-197.8" font-family="Helvetica,sans-Serif" font-size="11.00" fill="#000000">0 rows</text>
<polygon fill="#ffffff" stroke="transparent" points="256,-191.7 256,-210.7 286,-210.7 286,-191.7 256,-191.7"/>
<polygon fill="none" stroke="#000000" points="256,-191.7 256,-210.7 286,-210.7 286,-191.7 256,-191.7"/>
<text text-anchor="start" x="267.4053" y="-197.8" font-family="Helvetica,sans-Serif" font-size="11.00" fill="#000000">3 &gt;</text>
</a>
</g>
</g>
<!-- chapter_users&#45;&gt;users -->
<g id="edge2" class="edge">
<title>chapter_users:w&#45;&gt;users:e</title>
<path fill="none" stroke="#000000" d="M352.8149,-179.0423C340.5828,-186.3048 339.4955,-204.2013 327,-220.7 306.6048,-247.629 319.7807,-284.7 286,-284.7"/>
<polygon fill="#000000" stroke="#000000" points="359.2132,-177.5348 367.8256,-179.204 363.1066,-176.6174 367,-175.7 367,-175.7 367,-175.7 363.1066,-176.6174 366.1744,-172.196 359.2132,-177.5348 359.2132,-177.5348"/>
<ellipse fill="none" stroke="#000000" cx="356.0985" cy="-178.2687" rx="3.2" ry="3.2"/>
</g>
<!-- instance_roles -->
<g id="node8" class="node">
<title>instance_roles</title>
<g id="a_node8"><a xlink:href="../../tables/instance_roles.html" xlink:title="instance_roles" target="_top">
<polygon fill="#ffffff" stroke="transparent" points="8,-213.2 8,-274.2 121,-274.2 121,-213.2 8,-213.2"/>
<polygon fill="#f5f5f5" stroke="transparent" points="8.5,-250.7 8.5,-273.7 121.5,-273.7 121.5,-250.7 8.5,-250.7"/>
<polygon fill="none" stroke="#000000" points="8.5,-250.7 8.5,-273.7 121.5,-273.7 121.5,-250.7 8.5,-250.7"/>
<text text-anchor="start" x="13.0476" y="-259.8" font-family="Helvetica,sans-Serif" font-weight="bold" font-size="11.00" fill="#000000">instance_roles</text>
<text text-anchor="start" x="87.0219" y="-258.8" font-family="Helvetica,sans-Serif" font-size="11.00" fill="#000000">[table]</text>
<polygon fill="none" stroke="#000000" points="8.5,-231.7 8.5,-250.7 121.5,-250.7 121.5,-231.7 8.5,-231.7"/>
<text text-anchor="start" x="11.5" y="-237.8" font-family="Helvetica,sans-Serif" font-size="11.00" fill="#000000">...</text>
<polygon fill="#ffffff" stroke="transparent" points="8.5,-212.7 8.5,-231.7 41.5,-231.7 41.5,-212.7 8.5,-212.7"/>
<polygon fill="none" stroke="#000000" points="8.5,-212.7 8.5,-231.7 41.5,-231.7 41.5,-212.7 8.5,-212.7"/>
<text text-anchor="start" x="11.5" y="-218.8" font-family="Helvetica,sans-Serif" font-size="11.00" fill="#000000"> &#160;</text>
<polygon fill="#ffffff" stroke="transparent" points="41.5,-212.7 41.5,-231.7 89.5,-231.7 89.5,-212.7 41.5,-212.7"/>
<polygon fill="none" stroke="#000000" points="41.5,-212.7 41.5,-231.7 89.5,-231.7 89.5,-212.7 41.5,-212.7"/>
<text text-anchor="start" x="54.1105" y="-218.8" font-family="Helvetica,sans-Serif" font-size="11.00" fill="#000000">0 rows</text>
<polygon fill="#ffffff" stroke="transparent" points="89.5,-212.7 89.5,-231.7 121.5,-231.7 121.5,-212.7 89.5,-212.7"/>
<polygon fill="none" stroke="#000000" points="89.5,-212.7 89.5,-231.7 121.5,-231.7 121.5,-212.7 89.5,-212.7"/>
<text text-anchor="start" x="102.9053" y="-218.8" font-family="Helvetica,sans-Serif" font-size="11.00" fill="#000000">2 &gt;</text>
</a>
</g>
</g>
<!-- users&#45;&gt;instance_roles -->
<g id="edge9" class="edge">
<title>users:w&#45;&gt;instance_roles:e</title>
<path fill="none" stroke="#000000" d="M155.2829,-240.7C144.2886,-240.7 137.1615,-240.7 121.5,-240.7"/>
<polygon fill="#000000" stroke="#000000" points="162,-240.7001 170,-244.3 166,-240.7 170,-240.7 170,-240.7 170,-240.7 166,-240.7 170,-237.1 162,-240.7001 162,-240.7001"/>
<ellipse fill="none" stroke="#000000" cx="158.8" cy="-240.7001" rx="3.2" ry="3.2"/>
</g>
<!-- event_users -->
<g id="node4" class="node">
<title>event_users</title>
<g id="a_node4"><a xlink:href="../../tables/event_users.html" xlink:title="event_users" target="_top">
<polygon fill="#ffffff" stroke="transparent" points="689,-228.2 689,-289.2 791,-289.2 791,-228.2 689,-228.2"/>
<polygon fill="#f5f5f5" stroke="transparent" points="689,-265.7 689,-288.7 791,-288.7 791,-265.7 689,-265.7"/>
<polygon fill="none" stroke="#000000" points="689,-265.7 689,-288.7 791,-288.7 791,-265.7 689,-265.7"/>
<text text-anchor="start" x="693.5459" y="-274.8" font-family="Helvetica,sans-Serif" font-weight="bold" font-size="11.00" fill="#000000">event_users</text>
<text text-anchor="start" x="756.5219" y="-273.8" font-family="Helvetica,sans-Serif" font-size="11.00" fill="#000000">[table]</text>
<polygon fill="none" stroke="#000000" points="689,-246.7 689,-265.7 791,-265.7 791,-246.7 689,-246.7"/>
<text text-anchor="start" x="692" y="-252.8" font-family="Helvetica,sans-Serif" font-size="11.00" fill="#000000">...</text>
<polygon fill="#ffffff" stroke="transparent" points="689,-227.7 689,-246.7 721,-246.7 721,-227.7 689,-227.7"/>
<polygon fill="none" stroke="#000000" points="689,-227.7 689,-246.7 721,-246.7 721,-227.7 689,-227.7"/>
<text text-anchor="start" x="692" y="-233.8" font-family="Helvetica,sans-Serif" font-size="11.00" fill="#000000">&lt; 4</text>
<polygon fill="#ffffff" stroke="transparent" points="721,-227.7 721,-246.7 764,-246.7 764,-227.7 721,-227.7"/>
<polygon fill="none" stroke="#000000" points="721,-227.7 721,-246.7 764,-246.7 764,-227.7 721,-227.7"/>
<text text-anchor="start" x="728.6105" y="-233.8" font-family="Helvetica,sans-Serif" font-size="11.00" fill="#000000">0 rows</text>
<polygon fill="#ffffff" stroke="transparent" points="764,-227.7 764,-246.7 791,-246.7 791,-227.7 764,-227.7"/>
<polygon fill="none" stroke="#000000" points="764,-227.7 764,-246.7 791,-246.7 791,-227.7 764,-227.7"/>
<text text-anchor="start" x="772.4053" y="-233.8" font-family="Helvetica,sans-Serif" font-size="11.00" fill="#000000">2 &gt;</text>
</a>
</g>
</g>
<!-- event_users&#45;&gt;users -->
<g id="edge4" class="edge">
<title>event_users:w&#45;&gt;users:e</title>
<path fill="none" stroke="#000000" d="M674.2409,-256.5573C597.4046,-265.9189 602.1567,-349.3071 519,-375.7 437.665,-401.5147 398.6694,-422.0172 327,-375.7 289.7432,-351.6224 330.3599,-284.7 286,-284.7"/>
<polygon fill="#000000" stroke="#000000" points="681.0135,-256.164 689.2088,-259.2939 685.0067,-255.932 689,-255.7 689,-255.7 689,-255.7 685.0067,-255.932 688.7912,-252.1061 681.0135,-256.164 681.0135,-256.164"/>
<ellipse fill="none" stroke="#000000" cx="677.8188" cy="-256.3495" rx="3.2" ry="3.2"/>
</g>
<!-- events -->
<g id="node5" class="node">
<title>events</title>
<g id="a_node5"><a xlink:href="../../tables/events.html" xlink:title="events" target="_top">
<polygon fill="#ffffff" stroke="transparent" points="560,-96.2 560,-157.2 640,-157.2 640,-96.2 560,-96.2"/>
<polygon fill="#f5f5f5" stroke="transparent" points="560,-133.7 560,-156.7 640,-156.7 640,-133.7 560,-133.7"/>
<polygon fill="none" stroke="#000000" points="560,-133.7 560,-156.7 640,-156.7 640,-133.7 560,-133.7"/>
<text text-anchor="start" x="565" y="-142.8" font-family="Helvetica,sans-Serif" font-weight="bold" font-size="11.00" fill="#000000">events</text>
<text text-anchor="start" x="605.0437" y="-141.8" font-family="Helvetica,sans-Serif" font-size="11.00" fill="#000000">[table]</text>
<polygon fill="none" stroke="#000000" points="560,-114.7 560,-133.7 640,-133.7 640,-114.7 560,-114.7"/>
<text text-anchor="start" x="563" y="-120.8" font-family="Helvetica,sans-Serif" font-size="11.00" fill="#000000">...</text>
<polygon fill="#ffffff" stroke="transparent" points="560,-95.7 560,-114.7 581,-114.7 581,-95.7 560,-95.7"/>
<polygon fill="none" stroke="#000000" points="560,-95.7 560,-114.7 581,-114.7 581,-95.7 560,-95.7"/>
<text text-anchor="start" x="562.7026" y="-101.8" font-family="Helvetica,sans-Serif" font-size="11.00" fill="#000000">&lt; 2</text>
<polygon fill="#ffffff" stroke="transparent" points="581,-95.7 581,-114.7 619,-114.7 619,-95.7 581,-95.7"/>
<polygon fill="none" stroke="#000000" points="581,-95.7 581,-114.7 619,-114.7 619,-95.7 581,-95.7"/>
<text text-anchor="start" x="583.8053" y="-101.8" font-family="Helvetica,sans-Serif" font-size="11.00" fill="#000000">0 rows</text>
<polygon fill="#ffffff" stroke="transparent" points="619,-95.7 619,-114.7 640,-114.7 640,-95.7 619,-95.7"/>
<polygon fill="none" stroke="#000000" points="619,-95.7 619,-114.7 640,-114.7 640,-95.7 619,-95.7"/>
<text text-anchor="start" x="621.7026" y="-101.8" font-family="Helvetica,sans-Serif" font-size="11.00" fill="#000000">3 &gt;</text>
</a>
</g>
</g>
<!-- event_users&#45;&gt;events -->
<g id="edge3" class="edge">
<title>event_users:w&#45;&gt;events:e</title>
<path fill="none" stroke="#000000" d="M674.8293,-252.4371C639.4817,-232.1102 696.7116,-123.7 640,-123.7"/>
<polygon fill="#000000" stroke="#000000" points="681.204,-253.9049 688.1922,-259.2082 685.102,-254.8024 689,-255.7 689,-255.7 689,-255.7 685.102,-254.8024 689.8078,-252.1918 681.204,-253.9049 681.204,-253.9049"/>
<ellipse fill="none" stroke="#000000" cx="678.0856" cy="-253.1868" rx="3.2" ry="3.2"/>
</g>
<!-- events&#45;&gt;chapters -->
<g id="edge5" class="edge">
<title>events:w&#45;&gt;chapters:e</title>
<path fill="none" stroke="#000000" d="M545.4241,-123.7312C429.3214,-124.2362 395.0363,-130.7 272,-130.7"/>
<polygon fill="#000000" stroke="#000000" points="552,-123.7172 560.0077,-127.3 556,-123.7086 560,-123.7 560,-123.7 560,-123.7 556,-123.7086 559.9923,-120.1 552,-123.7172 552,-123.7172"/>
<ellipse fill="none" stroke="#000000" cx="548.8" cy="-123.7241" rx="3.2" ry="3.2"/>
</g>
<!-- venues -->
<g id="node6" class="node">
<title>venues</title>
<g id="a_node6"><a xlink:href="../../tables/venues.html" xlink:title="venues" target="_top">
<polygon fill="#ffffff" stroke="transparent" points="383,-38.2 383,-99.2 463,-99.2 463,-38.2 383,-38.2"/>
<polygon fill="#f5f5f5" stroke="transparent" points="383,-75.7 383,-98.7 463,-98.7 463,-75.7 383,-75.7"/>
<polygon fill="none" stroke="#000000" points="383,-75.7 383,-98.7 463,-98.7 463,-75.7 383,-75.7"/>
<text text-anchor="start" x="388" y="-84.8" font-family="Helvetica,sans-Serif" font-weight="bold" font-size="11.00" fill="#000000">venues</text>
<text text-anchor="start" x="428.0437" y="-83.8" font-family="Helvetica,sans-Serif" font-size="11.00" fill="#000000">[table]</text>
<polygon fill="none" stroke="#000000" points="383,-56.7 383,-75.7 463,-75.7 463,-56.7 383,-56.7"/>
<text text-anchor="start" x="386" y="-62.8" font-family="Helvetica,sans-Serif" font-size="11.00" fill="#000000">...</text>
<polygon fill="#ffffff" stroke="transparent" points="383,-37.7 383,-56.7 404,-56.7 404,-37.7 383,-37.7"/>
<polygon fill="none" stroke="#000000" points="383,-37.7 383,-56.7 404,-56.7 404,-37.7 383,-37.7"/>
<text text-anchor="start" x="385.7027" y="-43.8" font-family="Helvetica,sans-Serif" font-size="11.00" fill="#000000">&lt; 1</text>
<polygon fill="#ffffff" stroke="transparent" points="404,-37.7 404,-56.7 442,-56.7 442,-37.7 404,-37.7"/>
<polygon fill="none" stroke="#000000" points="404,-37.7 404,-56.7 442,-56.7 442,-37.7 404,-37.7"/>
<text text-anchor="start" x="406.8053" y="-43.8" font-family="Helvetica,sans-Serif" font-size="11.00" fill="#000000">0 rows</text>
<polygon fill="#ffffff" stroke="transparent" points="442,-37.7 442,-56.7 463,-56.7 463,-37.7 442,-37.7"/>
<polygon fill="none" stroke="#000000" points="442,-37.7 442,-56.7 463,-56.7 463,-37.7 442,-37.7"/>
<text text-anchor="start" x="444.7027" y="-43.8" font-family="Helvetica,sans-Serif" font-size="11.00" fill="#000000">1 &gt;</text>
</a>
</g>
</g>
<!-- events&#45;&gt;venues -->
<g id="edge6" class="edge">
<title>events:w&#45;&gt;venues:e</title>
<path fill="none" stroke="#000000" d="M545.3046,-121.7702C509.8845,-111.7063 507.7362,-65.7 463,-65.7"/>
<polygon fill="#000000" stroke="#000000" points="552.0681,-122.6584 559.5313,-127.2694 556.034,-123.1792 560,-123.7 560,-123.7 560,-123.7 556.034,-123.1792 560.4687,-120.1306 552.0681,-122.6584 552.0681,-122.6584"/>
<ellipse fill="none" stroke="#000000" cx="548.8953" cy="-122.2417" rx="3.2" ry="3.2"/>
</g>
<!-- venues&#45;&gt;chapters -->
<g id="edge10" class="edge">
<title>venues:w&#45;&gt;chapters:e</title>
<path fill="none" stroke="#000000" d="M368.4168,-67.3068C325.9248,-77.3162 323.8098,-130.7 272,-130.7"/>
<polygon fill="#000000" stroke="#000000" points="375.0481,-66.5762 383.3943,-69.2783 379.0241,-66.1381 383,-65.7 383,-65.7 383,-65.7 379.0241,-66.1381 382.6057,-62.1217 375.0481,-66.5762 375.0481,-66.5762"/>
<ellipse fill="none" stroke="#000000" cx="371.8674" cy="-66.9266" rx="3.2" ry="3.2"/>
</g>
<!-- user_bans -->
<g id="node7" class="node">
<title>user_bans</title>
<g id="a_node7"><a xlink:href="../../tables/user_bans.html" xlink:title="user_bans" target="_top">
<polygon fill="#ffffff" stroke="transparent" points="335,-230.7 335,-364.7 511,-364.7 511,-230.7 335,-230.7"/>
<polygon fill="#f5f5f5" stroke="transparent" points="337,-339.7 337,-362.7 509,-362.7 509,-339.7 337,-339.7"/>
<polygon fill="none" stroke="#000000" points="337,-339.7 337,-362.7 509,-362.7 509,-339.7 337,-339.7"/>
<text text-anchor="start" x="342" y="-348.8" font-family="Helvetica,sans-Serif" font-weight="bold" font-size="11.00" fill="#000000">user_bans</text>
<text text-anchor="start" x="474.0437" y="-347.8" font-family="Helvetica,sans-Serif" font-size="11.00" fill="#000000">[table]</text>
<polygon fill="none" stroke="#000000" points="337,-317.7 337,-339.7 425,-339.7 425,-317.7 337,-317.7"/>
<text text-anchor="start" x="357" y="-324.8" font-family="Helvetica,sans-Serif" font-size="11.00" fill="#000000">created_at</text>
<polygon fill="none" stroke="#000000" points="425,-317.7 425,-339.7 509,-339.7 509,-317.7 425,-317.7"/>
<text text-anchor="start" x="427.8807" y="-325.4" font-family="Helvetica,sans-Serif" font-size="11.00" fill="#000000">timestamp[26,3]</text>
<polygon fill="none" stroke="#000000" points="337,-295.7 337,-317.7 425,-317.7 425,-295.7 337,-295.7"/>
<text text-anchor="start" x="357" y="-302.8" font-family="Helvetica,sans-Serif" font-size="11.00" fill="#000000">updated_at</text>
<polygon fill="none" stroke="#000000" points="425,-295.7 425,-317.7 509,-317.7 509,-295.7 425,-295.7"/>
<text text-anchor="start" x="427.8807" y="-303.4" font-family="Helvetica,sans-Serif" font-size="11.00" fill="#000000">timestamp[26,3]</text>
<polygon fill="none" stroke="#000000" points="337,-273.7 337,-295.7 425,-295.7 425,-273.7 337,-273.7"/>
<image xlink:href="../../images/primaryKeys.png" width="11px" height="12px" preserveAspectRatio="xMinYMin meet" x="342" y="-290.7"/>
<text text-anchor="start" x="357" y="-280.8" font-family="Helvetica,sans-Serif" font-size="11.00" fill="#000000">user_id</text>
<polygon fill="none" stroke="#000000" points="425,-273.7 425,-295.7 509,-295.7 509,-273.7 425,-273.7"/>
<text text-anchor="start" x="428" y="-281.4" font-family="Helvetica,sans-Serif" font-size="11.00" fill="#000000">int4[10]</text>
<polygon fill="none" stroke="#000000" points="337,-251.7 337,-273.7 425,-273.7 425,-251.7 337,-251.7"/>
<image xlink:href="../../images/primaryKeys.png" width="11px" height="12px" preserveAspectRatio="xMinYMin meet" x="342" y="-268.7"/>
<text text-anchor="start" x="357" y="-258.8" font-family="Helvetica,sans-Serif" font-size="11.00" fill="#000000">chapter_id</text>
<polygon fill="none" stroke="#000000" points="425,-251.7 425,-273.7 509,-273.7 509,-251.7 425,-251.7"/>
<text text-anchor="start" x="428" y="-259.4" font-family="Helvetica,sans-Serif" font-size="11.00" fill="#000000">int4[10]</text>
<polygon fill="#ffffff" stroke="transparent" points="337,-232.7 337,-251.7 372,-251.7 372,-232.7 337,-232.7"/>
<polygon fill="none" stroke="#000000" points="337,-232.7 337,-251.7 372,-251.7 372,-232.7 337,-232.7"/>
<text text-anchor="start" x="340" y="-238.8" font-family="Helvetica,sans-Serif" font-size="11.00" fill="#000000">&lt; 2</text>
<polygon fill="#ffffff" stroke="transparent" points="372,-232.7 372,-251.7 425,-251.7 425,-232.7 372,-232.7"/>
<polygon fill="none" stroke="#000000" points="372,-232.7 372,-251.7 425,-251.7 425,-232.7 372,-232.7"/>
<text text-anchor="start" x="389.6105" y="-238.8" font-family="Helvetica,sans-Serif" font-size="11.00" fill="#000000">0 rows</text>
<polygon fill="#ffffff" stroke="transparent" points="425,-232.7 425,-251.7 509,-251.7 509,-232.7 425,-232.7"/>
<polygon fill="none" stroke="#000000" points="425,-232.7 425,-251.7 509,-251.7 509,-232.7 425,-232.7"/>
<text text-anchor="start" x="490.4053" y="-238.8" font-family="Helvetica,sans-Serif" font-size="11.00" fill="#000000">0 &gt;</text>
<polygon fill="none" stroke="#000000" stroke-width="2" points="336,-231.7 336,-363.7 510,-363.7 510,-231.7 336,-231.7"/>
</a>
</g>
</g>
<!-- user_bans&#45;&gt;chapters -->
<g id="edge7" class="edge">
<title>user_bans:w&#45;&gt;chapters:e</title>
<path fill="none" stroke="#000000" d="M322.6194,-259.8202C282.1571,-240.5165 331.6463,-130.7 272,-130.7"/>
<polygon fill="#000000" stroke="#000000" points="329.1557,-261.1291 336.2931,-266.2299 333.0779,-261.9146 337,-262.7 337,-262.7 337,-262.7 333.0779,-261.9146 337.7069,-259.1701 329.1557,-261.1291 329.1557,-261.1291"/>
<ellipse fill="none" stroke="#000000" cx="326.018" cy="-260.5008" rx="3.2" ry="3.2"/>
</g>
<!-- user_bans&#45;&gt;users -->
<g id="edge8" class="edge">
<title>user_bans:w&#45;&gt;users:e</title>
<path fill="none" stroke="#000000" d="M322.276,-284.7C310.2815,-284.7 302.8229,-284.7 286,-284.7"/>
<polygon fill="#000000" stroke="#000000" points="329,-284.7001 337,-288.3 333,-284.7 337,-284.7 337,-284.7 337,-284.7 333,-284.7 337,-281.1 329,-284.7001 329,-284.7001"/>
<ellipse fill="none" stroke="#000000" cx="325.8" cy="-284.7001" rx="3.2" ry="3.2"/>
</g>
</g>
</svg>
