<?xml version="1.0" encoding="UTF-8" standalone="no"?>
<!DOCTYPE svg PUBLIC "-//W3C//DTD SVG 1.1//EN"
 "http://www.w3.org/Graphics/SVG/1.1/DTD/svg11.dtd">
<!-- Generated by graphviz version 2.40.1 (20161225.0304)
 -->
<!-- Title: twoDegreesRelationshipsDiagram Pages: 1 -->
<svg width="751pt" height="508pt"
 viewBox="0.00 0.00 751.00 508.01" xmlns="http://www.w3.org/2000/svg" xmlns:xlink="http://www.w3.org/1999/xlink">
<g id="graph0" class="graph" transform="scale(1 1) rotate(0) translate(4 504.0146)">
<title>twoDegreesRelationshipsDiagram</title>
<polygon fill="#ffffff" stroke="transparent" points="-4,4 -4,-504.0146 747,-504.0146 747,4 -4,4"/>
<text text-anchor="middle" x="72.4936" y="-7.3" font-family="Helvetica,sans-Serif" font-size="11.00" fill="#000000">Generated by SchemaSpy</text>
<!-- chapters -->
<g id="node1" class="node">
<title>chapters</title>
<g id="a_node1"><a xlink:href="../../tables/chapters.html" xlink:title="chapters" target="_top">
<polygon fill="#ffffff" stroke="transparent" points="173,-171.5146 173,-232.5146 258,-232.5146 258,-171.5146 173,-171.5146"/>
<polygon fill="#f5f5f5" stroke="transparent" points="173.5,-209.0146 173.5,-232.0146 258.5,-232.0146 258.5,-209.0146 173.5,-209.0146"/>
<polygon fill="none" stroke="#000000" points="173.5,-209.0146 173.5,-232.0146 258.5,-232.0146 258.5,-209.0146 173.5,-209.0146"/>
<text text-anchor="start" x="178.4108" y="-218.1146" font-family="Helvetica,sans-Serif" font-weight="bold" font-size="11.00" fill="#000000">chapters</text>
<text text-anchor="start" x="224.0219" y="-217.1146" font-family="Helvetica,sans-Serif" font-size="11.00" fill="#000000">[table]</text>
<polygon fill="none" stroke="#000000" points="173.5,-190.0146 173.5,-209.0146 258.5,-209.0146 258.5,-190.0146 173.5,-190.0146"/>
<text text-anchor="start" x="176.5" y="-196.1146" font-family="Helvetica,sans-Serif" font-size="11.00" fill="#000000">...</text>
<polygon fill="#ffffff" stroke="transparent" points="173.5,-171.0146 173.5,-190.0146 196.5,-190.0146 196.5,-171.0146 173.5,-171.0146"/>
<polygon fill="none" stroke="#000000" points="173.5,-171.0146 173.5,-190.0146 196.5,-190.0146 196.5,-171.0146 173.5,-171.0146"/>
<text text-anchor="start" x="176.5" y="-177.1146" font-family="Helvetica,sans-Serif" font-size="11.00" fill="#000000">&lt; 1</text>
<polygon fill="#ffffff" stroke="transparent" points="196.5,-171.0146 196.5,-190.0146 235.5,-190.0146 235.5,-171.0146 196.5,-171.0146"/>
<polygon fill="none" stroke="#000000" points="196.5,-171.0146 196.5,-190.0146 235.5,-190.0146 235.5,-171.0146 196.5,-171.0146"/>
<text text-anchor="start" x="200.1105" y="-177.1146" font-family="Helvetica,sans-Serif" font-size="11.00" fill="#000000">0 rows</text>
<polygon fill="#ffffff" stroke="transparent" points="235.5,-171.0146 235.5,-190.0146 258.5,-190.0146 258.5,-171.0146 235.5,-171.0146"/>
<polygon fill="none" stroke="#000000" points="235.5,-171.0146 235.5,-190.0146 258.5,-190.0146 258.5,-171.0146 235.5,-171.0146"/>
<text text-anchor="start" x="239.9053" y="-177.1146" font-family="Helvetica,sans-Serif" font-size="11.00" fill="#000000">3 &gt;</text>
</a>
</g>
</g>
<!-- users -->
<g id="node2" class="node">
<title>users</title>
<g id="a_node2"><a xlink:href="../../tables/users.html" xlink:title="users" target="_top">
<polygon fill="#ffffff" stroke="transparent" points="8,-198.5146 8,-303.5146 96,-303.5146 96,-198.5146 8,-198.5146"/>
<polygon fill="#f5f5f5" stroke="transparent" points="8,-280.0146 8,-303.0146 96,-303.0146 96,-280.0146 8,-280.0146"/>
<polygon fill="none" stroke="#000000" points="8,-280.0146 8,-303.0146 96,-303.0146 96,-280.0146 8,-280.0146"/>
<text text-anchor="start" x="13" y="-289.1146" font-family="Helvetica,sans-Serif" font-weight="bold" font-size="11.00" fill="#000000">users</text>
<text text-anchor="start" x="61.0437" y="-288.1146" font-family="Helvetica,sans-Serif" font-size="11.00" fill="#000000">[table]</text>
<polygon fill="none" stroke="#000000" points="8,-258.0146 8,-280.0146 96,-280.0146 96,-258.0146 8,-258.0146"/>
<image xlink:href="../../images/primaryKeys.png" width="11px" height="12px" preserveAspectRatio="xMinYMin meet" x="13" y="-275.015"/>
<text text-anchor="start" x="28" y="-265.1146" font-family="Helvetica,sans-Serif" font-size="11.00" fill="#000000">id</text>
<polygon fill="#ffffff" stroke="transparent" points="8,-236.0146 8,-258.0146 96,-258.0146 96,-236.0146 8,-236.0146"/>
<polygon fill="none" stroke="#000000" points="8,-236.0146 8,-258.0146 96,-258.0146 96,-236.0146 8,-236.0146"/>
<text text-anchor="start" x="28" y="-243.1146" font-family="Helvetica,sans-Serif" font-size="11.00" fill="#000000">email</text>
<polygon fill="none" stroke="#000000" points="8,-217.0146 8,-236.0146 96,-236.0146 96,-217.0146 8,-217.0146"/>
<text text-anchor="start" x="11" y="-223.1146" font-family="Helvetica,sans-Serif" font-size="11.00" fill="#000000">...</text>
<polygon fill="#ffffff" stroke="transparent" points="8,-198.0146 8,-217.0146 28,-217.0146 28,-198.0146 8,-198.0146"/>
<polygon fill="none" stroke="#000000" points="8,-198.0146 8,-217.0146 28,-217.0146 28,-198.0146 8,-198.0146"/>
<text text-anchor="start" x="11" y="-204.1146" font-family="Helvetica,sans-Serif" font-size="11.00" fill="#000000"> &#160;</text>
<polygon fill="#ffffff" stroke="transparent" points="28,-198.0146 28,-217.0146 70,-217.0146 70,-198.0146 28,-198.0146"/>
<polygon fill="none" stroke="#000000" points="28,-198.0146 28,-217.0146 70,-217.0146 70,-198.0146 28,-198.0146"/>
<text text-anchor="start" x="34.6105" y="-204.1146" font-family="Helvetica,sans-Serif" font-size="11.00" fill="#000000">0 rows</text>
<polygon fill="#ffffff" stroke="transparent" points="70,-198.0146 70,-217.0146 96,-217.0146 96,-198.0146 70,-198.0146"/>
<polygon fill="none" stroke="#000000" points="70,-198.0146 70,-217.0146 96,-217.0146 96,-198.0146 70,-198.0146"/>
<text text-anchor="start" x="77.4053" y="-204.1146" font-family="Helvetica,sans-Serif" font-size="11.00" fill="#000000">6 &gt;</text>
</a>
</g>
</g>
<!-- chapters&#45;&gt;users -->
<g id="edge1" class="edge">
<title>chapters:w&#45;&gt;users:e</title>
<path fill="none" stroke="#000000" d="M159.1353,-201.8454C129.8925,-214.9413 136.7941,-269.0146 96,-269.0146"/>
<polygon fill="#000000" stroke="#000000" points="165.651,-200.5614 174.1961,-202.5467 169.5755,-199.788 173.5,-199.0146 173.5,-199.0146 173.5,-199.0146 169.5755,-199.788 172.8039,-195.4825 165.651,-200.5614 165.651,-200.5614"/>
<ellipse fill="none" stroke="#000000" cx="162.5113" cy="-201.1801" rx="3.2" ry="3.2"/>
</g>
<!-- event_sponsors -->
<g id="node3" class="node">
<title>event_sponsors</title>
<g id="a_node3"><a xlink:href="../../tables/event_sponsors.html" xlink:title="event_sponsors" target="_top">
<polygon fill="#ffffff" stroke="transparent" points="568,-148.5146 568,-209.5146 688,-209.5146 688,-148.5146 568,-148.5146"/>
<polygon fill="#f5f5f5" stroke="transparent" points="568,-186.0146 568,-209.0146 688,-209.0146 688,-186.0146 568,-186.0146"/>
<polygon fill="none" stroke="#000000" points="568,-186.0146 568,-209.0146 688,-209.0146 688,-186.0146 568,-186.0146"/>
<text text-anchor="start" x="572.681" y="-195.1146" font-family="Helvetica,sans-Serif" font-weight="bold" font-size="11.00" fill="#000000">event_sponsors</text>
<text text-anchor="start" x="653.5219" y="-194.1146" font-family="Helvetica,sans-Serif" font-size="11.00" fill="#000000">[table]</text>
<polygon fill="none" stroke="#000000" points="568,-167.0146 568,-186.0146 688,-186.0146 688,-167.0146 568,-167.0146"/>
<text text-anchor="start" x="571" y="-173.1146" font-family="Helvetica,sans-Serif" font-size="11.00" fill="#000000">...</text>
<polygon fill="#ffffff" stroke="transparent" points="568,-148.0146 568,-167.0146 613,-167.0146 613,-148.0146 568,-148.0146"/>
<polygon fill="none" stroke="#000000" points="568,-148.0146 568,-167.0146 613,-167.0146 613,-148.0146 568,-148.0146"/>
<text text-anchor="start" x="571" y="-154.1146" font-family="Helvetica,sans-Serif" font-size="11.00" fill="#000000">&lt; 2</text>
<polygon fill="#ffffff" stroke="transparent" points="613,-148.0146 613,-167.0146 663,-167.0146 663,-148.0146 613,-148.0146"/>
<polygon fill="none" stroke="#000000" points="613,-148.0146 613,-167.0146 663,-167.0146 663,-148.0146 613,-148.0146"/>
<text text-anchor="start" x="627.6105" y="-154.1146" font-family="Helvetica,sans-Serif" font-size="11.00" fill="#000000">0 rows</text>
<polygon fill="#ffffff" stroke="transparent" points="663,-148.0146 663,-167.0146 688,-167.0146 688,-148.0146 663,-148.0146"/>
<polygon fill="none" stroke="#000000" points="663,-148.0146 663,-167.0146 688,-167.0146 688,-148.0146 663,-148.0146"/>
<text text-anchor="start" x="678.8862" y="-154.1146" font-family="Helvetica,sans-Serif" font-size="11.00" fill="#000000"> &#160;</text>
</a>
</g>
</g>
<!-- events -->
<g id="node4" class="node">
<title>events</title>
<g id="a_node4"><a xlink:href="../../tables/events.html" xlink:title="events" target="_top">
<polygon fill="#ffffff" stroke="transparent" points="359,-163.5146 359,-290.5146 448,-290.5146 448,-163.5146 359,-163.5146"/>
<polygon fill="#f5f5f5" stroke="transparent" points="359.5,-267.0146 359.5,-290.0146 448.5,-290.0146 448.5,-267.0146 359.5,-267.0146"/>
<polygon fill="none" stroke="#000000" points="359.5,-267.0146 359.5,-290.0146 448.5,-290.0146 448.5,-267.0146 359.5,-267.0146"/>
<text text-anchor="start" x="364.5" y="-276.1146" font-family="Helvetica,sans-Serif" font-weight="bold" font-size="11.00" fill="#000000">events</text>
<text text-anchor="start" x="413.5437" y="-275.1146" font-family="Helvetica,sans-Serif" font-size="11.00" fill="#000000">[table]</text>
<polygon fill="none" stroke="#000000" points="359.5,-245.0146 359.5,-267.0146 448.5,-267.0146 448.5,-245.0146 359.5,-245.0146"/>
<image xlink:href="../../images/primaryKeys.png" width="11px" height="12px" preserveAspectRatio="xMinYMin meet" x="364.5" y="-262.015"/>
<text text-anchor="start" x="379.5" y="-252.1146" font-family="Helvetica,sans-Serif" font-size="11.00" fill="#000000">id</text>
<polygon fill="none" stroke="#000000" points="359.5,-223.0146 359.5,-245.0146 448.5,-245.0146 448.5,-223.0146 359.5,-223.0146"/>
<image xlink:href="../../images/foreignKeys.png" width="11px" height="12px" preserveAspectRatio="xMinYMin meet" x="364.5" y="-240.015"/>
<text text-anchor="start" x="379.5" y="-230.1146" font-family="Helvetica,sans-Serif" font-size="11.00" fill="#000000">venue_id</text>
<polygon fill="none" stroke="#000000" points="359.5,-201.0146 359.5,-223.0146 448.5,-223.0146 448.5,-201.0146 359.5,-201.0146"/>
<image xlink:href="../../images/foreignKeys.png" width="11px" height="12px" preserveAspectRatio="xMinYMin meet" x="364.5" y="-218.015"/>
<text text-anchor="start" x="379.5" y="-208.1146" font-family="Helvetica,sans-Serif" font-size="11.00" fill="#000000">chapter_id</text>
<polygon fill="none" stroke="#000000" points="359.5,-182.0146 359.5,-201.0146 448.5,-201.0146 448.5,-182.0146 359.5,-182.0146"/>
<text text-anchor="start" x="362.5" y="-188.1146" font-family="Helvetica,sans-Serif" font-size="11.00" fill="#000000">...</text>
<polygon fill="#ffffff" stroke="transparent" points="359.5,-163.0146 359.5,-182.0146 384.5,-182.0146 384.5,-163.0146 359.5,-163.0146"/>
<polygon fill="none" stroke="#000000" points="359.5,-163.0146 359.5,-182.0146 384.5,-182.0146 384.5,-163.0146 359.5,-163.0146"/>
<text text-anchor="start" x="362.5" y="-169.1146" font-family="Helvetica,sans-Serif" font-size="11.00" fill="#000000">&lt; 2</text>
<polygon fill="#ffffff" stroke="transparent" points="384.5,-163.0146 384.5,-182.0146 424.5,-182.0146 424.5,-163.0146 384.5,-163.0146"/>
<polygon fill="none" stroke="#000000" points="384.5,-163.0146 384.5,-182.0146 424.5,-182.0146 424.5,-163.0146 384.5,-163.0146"/>
<text text-anchor="start" x="389.1105" y="-169.1146" font-family="Helvetica,sans-Serif" font-size="11.00" fill="#000000">0 rows</text>
<polygon fill="#ffffff" stroke="transparent" points="424.5,-163.0146 424.5,-182.0146 448.5,-182.0146 448.5,-163.0146 424.5,-163.0146"/>
<polygon fill="none" stroke="#000000" points="424.5,-163.0146 424.5,-182.0146 448.5,-182.0146 448.5,-163.0146 424.5,-163.0146"/>
<text text-anchor="start" x="429.9053" y="-169.1146" font-family="Helvetica,sans-Serif" font-size="11.00" fill="#000000">4 &gt;</text>
</a>
</g>
</g>
<!-- event_sponsors&#45;&gt;events -->
<g id="edge2" class="edge">
<title>event_sponsors:w&#45;&gt;events:e</title>
<path fill="none" stroke="#000000" d="M553.6498,-177.5413C504.9663,-188.6013 507.171,-256.0146 448.5,-256.0146"/>
<polygon fill="#000000" stroke="#000000" points="560.0449,-176.861 568.3809,-179.5944 564.0224,-176.4378 568,-176.0146 568,-176.0146 568,-176.0146 564.0224,-176.4378 567.6191,-172.4348 560.0449,-176.861 560.0449,-176.861"/>
<ellipse fill="none" stroke="#000000" cx="556.8628" cy="-177.1995" rx="3.2" ry="3.2"/>
</g>
<!-- events&#45;&gt;chapters -->
<g id="edge3" class="edge">
<title>events:w&#45;&gt;chapters:e</title>
<path fill="none" stroke="#000000" d="M344.9094,-211.5208C311.3066,-209.1462 298.4554,-199.0146 258.5,-199.0146"/>
<polygon fill="#000000" stroke="#000000" points="351.5046,-211.744 359.3782,-215.6125 355.5023,-211.8793 359.5,-212.0146 359.5,-212.0146 359.5,-212.0146 355.5023,-211.8793 359.6218,-208.4166 351.5046,-211.744 351.5046,-211.744"/>
<ellipse fill="none" stroke="#000000" cx="348.3064" cy="-211.6357" rx="3.2" ry="3.2"/>
</g>
<!-- venues -->
<g id="node5" class="node">
<title>venues</title>
<g id="a_node5"><a xlink:href="../../tables/venues.html" xlink:title="venues" target="_top">
<polygon fill="#ffffff" stroke="transparent" points="176.5,-253.5146 176.5,-314.5146 254.5,-314.5146 254.5,-253.5146 176.5,-253.5146"/>
<polygon fill="#f5f5f5" stroke="transparent" points="176.5,-291.0146 176.5,-314.0146 254.5,-314.0146 254.5,-291.0146 176.5,-291.0146"/>
<polygon fill="none" stroke="#000000" points="176.5,-291.0146 176.5,-314.0146 254.5,-314.0146 254.5,-291.0146 176.5,-291.0146"/>
<text text-anchor="start" x="181.2702" y="-300.1146" font-family="Helvetica,sans-Serif" font-weight="bold" font-size="11.00" fill="#000000">venues</text>
<text text-anchor="start" x="220.0219" y="-299.1146" font-family="Helvetica,sans-Serif" font-size="11.00" fill="#000000">[table]</text>
<polygon fill="none" stroke="#000000" points="176.5,-272.0146 176.5,-291.0146 254.5,-291.0146 254.5,-272.0146 176.5,-272.0146"/>
<text text-anchor="start" x="179.5" y="-278.1146" font-family="Helvetica,sans-Serif" font-size="11.00" fill="#000000">...</text>
<polygon fill="#ffffff" stroke="transparent" points="176.5,-253.0146 176.5,-272.0146 191.5,-272.0146 191.5,-253.0146 176.5,-253.0146"/>
<polygon fill="none" stroke="#000000" points="176.5,-253.0146 176.5,-272.0146 191.5,-272.0146 191.5,-253.0146 176.5,-253.0146"/>
<text text-anchor="start" x="179.5" y="-259.1146" font-family="Helvetica,sans-Serif" font-size="11.00" fill="#000000"> &#160;</text>
<polygon fill="#ffffff" stroke="transparent" points="191.5,-253.0146 191.5,-272.0146 231.5,-272.0146 231.5,-253.0146 191.5,-253.0146"/>
<polygon fill="none" stroke="#000000" points="191.5,-253.0146 191.5,-272.0146 231.5,-272.0146 231.5,-253.0146 191.5,-253.0146"/>
<text text-anchor="start" x="196.1105" y="-259.1146" font-family="Helvetica,sans-Serif" font-size="11.00" fill="#000000">0 rows</text>
<polygon fill="#ffffff" stroke="transparent" points="231.5,-253.0146 231.5,-272.0146 254.5,-272.0146 254.5,-253.0146 231.5,-253.0146"/>
<polygon fill="none" stroke="#000000" points="231.5,-253.0146 231.5,-272.0146 254.5,-272.0146 254.5,-253.0146 231.5,-253.0146"/>
<text text-anchor="start" x="235.9053" y="-259.1146" font-family="Helvetica,sans-Serif" font-size="11.00" fill="#000000">1 &gt;</text>
</a>
</g>
</g>
<!-- events&#45;&gt;venues -->
<g id="edge4" class="edge">
<title>events:w&#45;&gt;venues:e</title>
<path fill="none" stroke="#000000" d="M344.8238,-235.4727C307.2547,-243.4058 300.236,-281.0146 254.5,-281.0146"/>
<polygon fill="#000000" stroke="#000000" points="351.5392,-234.8056 359.8559,-237.597 355.5196,-234.4101 359.5,-234.0146 359.5,-234.0146 359.5,-234.0146 355.5196,-234.4101 359.1441,-230.4322 351.5392,-234.8056 351.5392,-234.8056"/>
<ellipse fill="none" stroke="#000000" cx="348.3549" cy="-235.122" rx="3.2" ry="3.2"/>
</g>
<!-- rsvps -->
<g id="node6" class="node">
<title>rsvps</title>
<g id="a_node6"><a xlink:href="../../tables/rsvps.html" xlink:title="rsvps" target="_top">
<polygon fill="#ffffff" stroke="transparent" points="592.5,-46.5146 592.5,-107.5146 663.5,-107.5146 663.5,-46.5146 592.5,-46.5146"/>
<polygon fill="#f5f5f5" stroke="transparent" points="593,-84.0146 593,-107.0146 664,-107.0146 664,-84.0146 593,-84.0146"/>
<polygon fill="none" stroke="#000000" points="593,-84.0146 593,-107.0146 664,-107.0146 664,-84.0146 593,-84.0146"/>
<text text-anchor="start" x="598" y="-93.1146" font-family="Helvetica,sans-Serif" font-weight="bold" font-size="11.00" fill="#000000">rsvps</text>
<text text-anchor="start" x="629.0437" y="-92.1146" font-family="Helvetica,sans-Serif" font-size="11.00" fill="#000000">[table]</text>
<polygon fill="none" stroke="#000000" points="593,-65.0146 593,-84.0146 664,-84.0146 664,-65.0146 593,-65.0146"/>
<text text-anchor="start" x="596" y="-71.1146" font-family="Helvetica,sans-Serif" font-size="11.00" fill="#000000">...</text>
<polygon fill="#ffffff" stroke="transparent" points="593,-46.0146 593,-65.0146 614,-65.0146 614,-46.0146 593,-46.0146"/>
<polygon fill="none" stroke="#000000" points="593,-46.0146 593,-65.0146 614,-65.0146 614,-46.0146 593,-46.0146"/>
<text text-anchor="start" x="595.7026" y="-52.1146" font-family="Helvetica,sans-Serif" font-size="11.00" fill="#000000">&lt; 2</text>
<polygon fill="#ffffff" stroke="transparent" points="614,-46.0146 614,-65.0146 652,-65.0146 652,-46.0146 614,-46.0146"/>
<polygon fill="none" stroke="#000000" points="614,-46.0146 614,-65.0146 652,-65.0146 652,-46.0146 614,-46.0146"/>
<text text-anchor="start" x="616.8053" y="-52.1146" font-family="Helvetica,sans-Serif" font-size="11.00" fill="#000000">0 rows</text>
<polygon fill="#ffffff" stroke="transparent" points="652,-46.0146 652,-65.0146 664,-65.0146 664,-46.0146 652,-46.0146"/>
<polygon fill="none" stroke="#000000" points="652,-46.0146 652,-65.0146 664,-65.0146 664,-46.0146 652,-46.0146"/>
<text text-anchor="start" x="654.9431" y="-52.1146" font-family="Helvetica,sans-Serif" font-size="11.00" fill="#000000"> &#160;</text>
</a>
</g>
</g>
<!-- rsvps&#45;&gt;users -->
<g id="edge6" class="edge">
<title>rsvps:w&#45;&gt;users:e</title>
<path fill="none" stroke="#000000" d="M578.5846,-73.8357C384.803,-69.0367 281.654,29.6312 137,-106.0146 82.5089,-157.1123 170.7011,-269.0146 96,-269.0146"/>
<polygon fill="#000000" stroke="#000000" points="585.0006,-73.9153 592.9553,-77.6143 589.0003,-73.9649 593,-74.0146 593,-74.0146 593,-74.0146 589.0003,-73.9649 593.0447,-70.4149 585.0006,-73.9153 585.0006,-73.9153"/>
<ellipse fill="none" stroke="#000000" cx="581.8009" cy="-73.8755" rx="3.2" ry="3.2"/>
</g>
<!-- rsvps&#45;&gt;events -->
<g id="edge5" class="edge">
<title>rsvps:w&#45;&gt;events:e</title>
<path fill="none" stroke="#000000" d="M578.5503,-75.1767C545.9178,-80.9187 538.8388,-107.222 513,-138.0146 474.5813,-183.7989 508.2679,-256.0146 448.5,-256.0146"/>
<polygon fill="#000000" stroke="#000000" points="585.0257,-74.656 593.2886,-77.603 589.0129,-74.3353 593,-74.0146 593,-74.0146 593,-74.0146 589.0129,-74.3353 592.7114,-70.4262 585.0257,-74.656 585.0257,-74.656"/>
<ellipse fill="none" stroke="#000000" cx="581.836" cy="-74.9125" rx="3.2" ry="3.2"/>
</g>
<!-- tags -->
<g id="node7" class="node">
<title>tags</title>
<g id="a_node7"><a xlink:href="../../tables/tags.html" xlink:title="tags" target="_top">
<polygon fill="#ffffff" stroke="transparent" points="592.5,-230.5146 592.5,-291.5146 663.5,-291.5146 663.5,-230.5146 592.5,-230.5146"/>
<polygon fill="#f5f5f5" stroke="transparent" points="593,-268.0146 593,-291.0146 664,-291.0146 664,-268.0146 593,-268.0146"/>
<polygon fill="none" stroke="#000000" points="593,-268.0146 593,-291.0146 664,-291.0146 664,-268.0146 593,-268.0146"/>
<text text-anchor="start" x="598" y="-277.1146" font-family="Helvetica,sans-Serif" font-weight="bold" font-size="11.00" fill="#000000">tags</text>
<text text-anchor="start" x="629.0437" y="-276.1146" font-family="Helvetica,sans-Serif" font-size="11.00" fill="#000000">[table]</text>
<polygon fill="none" stroke="#000000" points="593,-249.0146 593,-268.0146 664,-268.0146 664,-249.0146 593,-249.0146"/>
<text text-anchor="start" x="596" y="-255.1146" font-family="Helvetica,sans-Serif" font-size="11.00" fill="#000000">...</text>
<polygon fill="#ffffff" stroke="transparent" points="593,-230.0146 593,-249.0146 614,-249.0146 614,-230.0146 593,-230.0146"/>
<polygon fill="none" stroke="#000000" points="593,-230.0146 593,-249.0146 614,-249.0146 614,-230.0146 593,-230.0146"/>
<text text-anchor="start" x="595.7026" y="-236.1146" font-family="Helvetica,sans-Serif" font-size="11.00" fill="#000000">&lt; 1</text>
<polygon fill="#ffffff" stroke="transparent" points="614,-230.0146 614,-249.0146 652,-249.0146 652,-230.0146 614,-230.0146"/>
<polygon fill="none" stroke="#000000" points="614,-230.0146 614,-249.0146 652,-249.0146 652,-230.0146 614,-230.0146"/>
<text text-anchor="start" x="616.8053" y="-236.1146" font-family="Helvetica,sans-Serif" font-size="11.00" fill="#000000">0 rows</text>
<polygon fill="#ffffff" stroke="transparent" points="652,-230.0146 652,-249.0146 664,-249.0146 664,-230.0146 652,-230.0146"/>
<polygon fill="none" stroke="#000000" points="652,-230.0146 652,-249.0146 664,-249.0146 664,-230.0146 652,-230.0146"/>
<text text-anchor="start" x="654.9431" y="-236.1146" font-family="Helvetica,sans-Serif" font-size="11.00" fill="#000000"> &#160;</text>
</a>
</g>
</g>
<!-- tags&#45;&gt;events -->
<g id="edge7" class="edge">
<title>tags:w&#45;&gt;events:e</title>
<path fill="none" stroke="#000000" d="M578.4476,-257.9782C525.8932,-257.7071 507.5851,-256.0146 448.5,-256.0146"/>
<polygon fill="#000000" stroke="#000000" points="585,-257.9945 592.991,-261.6146 589,-258.0045 593,-258.0146 593,-258.0146 593,-258.0146 589,-258.0045 593.009,-254.4146 585,-257.9945 585,-257.9945"/>
<ellipse fill="none" stroke="#000000" cx="581.8" cy="-257.9865" rx="3.2" ry="3.2"/>
</g>
<!-- user_bans -->
<g id="node8" class="node">
<title>user_bans</title>
<g id="a_node8"><a xlink:href="../../tables/user_bans.html" xlink:title="user_bans" target="_top">
<polygon fill="#ffffff" stroke="transparent" points="356.5,-311.5146 356.5,-372.5146 450.5,-372.5146 450.5,-311.5146 356.5,-311.5146"/>
<polygon fill="#f5f5f5" stroke="transparent" points="356.5,-349.0146 356.5,-372.0146 450.5,-372.0146 450.5,-349.0146 356.5,-349.0146"/>
<polygon fill="none" stroke="#000000" points="356.5,-349.0146 356.5,-372.0146 450.5,-372.0146 450.5,-349.0146 356.5,-349.0146"/>
<text text-anchor="start" x="361.3244" y="-358.1146" font-family="Helvetica,sans-Serif" font-weight="bold" font-size="11.00" fill="#000000">user_bans</text>
<text text-anchor="start" x="416.0219" y="-357.1146" font-family="Helvetica,sans-Serif" font-size="11.00" fill="#000000">[table]</text>
<polygon fill="none" stroke="#000000" points="356.5,-330.0146 356.5,-349.0146 450.5,-349.0146 450.5,-330.0146 356.5,-330.0146"/>
<text text-anchor="start" x="359.5" y="-336.1146" font-family="Helvetica,sans-Serif" font-size="11.00" fill="#000000">...</text>
<polygon fill="#ffffff" stroke="transparent" points="356.5,-311.0146 356.5,-330.0146 388.5,-330.0146 388.5,-311.0146 356.5,-311.0146"/>
<polygon fill="none" stroke="#000000" points="356.5,-311.0146 356.5,-330.0146 388.5,-330.0146 388.5,-311.0146 356.5,-311.0146"/>
<text text-anchor="start" x="359.5" y="-317.1146" font-family="Helvetica,sans-Serif" font-size="11.00" fill="#000000">&lt; 2</text>
<polygon fill="#ffffff" stroke="transparent" points="388.5,-311.0146 388.5,-330.0146 432.5,-330.0146 432.5,-311.0146 388.5,-311.0146"/>
<polygon fill="none" stroke="#000000" points="388.5,-311.0146 388.5,-330.0146 432.5,-330.0146 432.5,-311.0146 388.5,-311.0146"/>
<text text-anchor="start" x="397.1105" y="-317.1146" font-family="Helvetica,sans-Serif" font-size="11.00" fill="#000000">0 rows</text>
<polygon fill="#ffffff" stroke="transparent" points="432.5,-311.0146 432.5,-330.0146 450.5,-330.0146 450.5,-311.0146 432.5,-311.0146"/>
<polygon fill="none" stroke="#000000" points="432.5,-311.0146 432.5,-330.0146 450.5,-330.0146 450.5,-311.0146 432.5,-311.0146"/>
<text text-anchor="start" x="441.3862" y="-317.1146" font-family="Helvetica,sans-Serif" font-size="11.00" fill="#000000"> &#160;</text>
</a>
</g>
</g>
<!-- user_bans&#45;&gt;chapters -->
<g id="edge8" class="edge">
<title>user_bans:w&#45;&gt;chapters:e</title>
<path fill="none" stroke="#000000" d="M341.9703,-336.9269C287.6607,-319.5113 328.9632,-199.0146 258.5,-199.0146"/>
<polygon fill="#000000" stroke="#000000" points="348.5813,-337.8767 355.988,-342.578 352.5407,-338.4457 356.5,-339.0146 356.5,-339.0146 356.5,-339.0146 352.5407,-338.4457 357.012,-335.4512 348.5813,-337.8767 348.5813,-337.8767"/>
<ellipse fill="none" stroke="#000000" cx="345.4139" cy="-337.4216" rx="3.2" ry="3.2"/>
</g>
<!-- user_bans&#45;&gt;users -->
<g id="edge9" class="edge">
<title>user_bans:w&#45;&gt;users:e</title>
<path fill="none" stroke="#000000" d="M342.0708,-339.2549C254.9599,-342.1573 218.3746,-369.6028 137,-325.0146 109.9483,-310.1919 126.8465,-269.0146 96,-269.0146"/>
<polygon fill="#000000" stroke="#000000" points="348.5011,-339.1479 356.56,-342.6141 352.5006,-339.0812 356.5,-339.0146 356.5,-339.0146 356.5,-339.0146 352.5006,-339.0812 356.44,-335.4151 348.5011,-339.1479 348.5011,-339.1479"/>
<ellipse fill="none" stroke="#000000" cx="345.3016" cy="-339.2012" rx="3.2" ry="3.2"/>
</g>
<!-- user_chapter_roles -->
<g id="node9" class="node">
<title>user_chapter_roles</title>
<g id="a_node9"><a xlink:href="../../tables/user_chapter_roles.html" xlink:title="user_chapter_roles" target="_top">
<polygon fill="#ffffff" stroke="transparent" points="335,-81.5146 335,-142.5146 472,-142.5146 472,-81.5146 335,-81.5146"/>
<polygon fill="#f5f5f5" stroke="transparent" points="335.5,-119.0146 335.5,-142.0146 472.5,-142.0146 472.5,-119.0146 335.5,-119.0146"/>
<polygon fill="none" stroke="#000000" points="335.5,-119.0146 335.5,-142.0146 472.5,-142.0146 472.5,-119.0146 335.5,-119.0146"/>
<text text-anchor="start" x="340.4338" y="-128.1146" font-family="Helvetica,sans-Serif" font-weight="bold" font-size="11.00" fill="#000000">user_chapter_roles</text>
<text text-anchor="start" x="438.0219" y="-127.1146" font-family="Helvetica,sans-Serif" font-size="11.00" fill="#000000">[table]</text>
<polygon fill="none" stroke="#000000" points="335.5,-100.0146 335.5,-119.0146 472.5,-119.0146 472.5,-100.0146 335.5,-100.0146"/>
<text text-anchor="start" x="338.5" y="-106.1146" font-family="Helvetica,sans-Serif" font-size="11.00" fill="#000000">...</text>
<polygon fill="#ffffff" stroke="transparent" points="335.5,-81.0146 335.5,-100.0146 389.5,-100.0146 389.5,-81.0146 335.5,-81.0146"/>
<polygon fill="none" stroke="#000000" points="335.5,-81.0146 335.5,-100.0146 389.5,-100.0146 389.5,-81.0146 335.5,-81.0146"/>
<text text-anchor="start" x="338.5" y="-87.1146" font-family="Helvetica,sans-Serif" font-size="11.00" fill="#000000">&lt; 2</text>
<polygon fill="#ffffff" stroke="transparent" points="389.5,-81.0146 389.5,-100.0146 443.5,-100.0146 443.5,-81.0146 389.5,-81.0146"/>
<polygon fill="none" stroke="#000000" points="389.5,-81.0146 389.5,-100.0146 443.5,-100.0146 443.5,-81.0146 389.5,-81.0146"/>
<text text-anchor="start" x="408.1105" y="-87.1146" font-family="Helvetica,sans-Serif" font-size="11.00" fill="#000000">0 rows</text>
<polygon fill="#ffffff" stroke="transparent" points="443.5,-81.0146 443.5,-100.0146 472.5,-100.0146 472.5,-81.0146 443.5,-81.0146"/>
<polygon fill="none" stroke="#000000" points="443.5,-81.0146 443.5,-100.0146 472.5,-100.0146 472.5,-81.0146 443.5,-81.0146"/>
<text text-anchor="start" x="463.3862" y="-87.1146" font-family="Helvetica,sans-Serif" font-size="11.00" fill="#000000"> &#160;</text>
</a>
</g>
</g>
<!-- user_chapter_roles&#45;&gt;chapters -->
<g id="edge10" class="edge">
<title>user_chapter_roles:w&#45;&gt;chapters:e</title>
<path fill="none" stroke="#000000" d="M321.3545,-111.8068C287.9241,-126.9978 305.5897,-199.0146 258.5,-199.0146"/>
<polygon fill="#000000" stroke="#000000" points="327.6514,-110.5639 336.1972,-112.5464 331.5757,-109.7892 335.5,-109.0146 335.5,-109.0146 335.5,-109.0146 331.5757,-109.7892 334.8028,-105.4827 327.6514,-110.5639 327.6514,-110.5639"/>
<ellipse fill="none" stroke="#000000" cx="324.512" cy="-111.1836" rx="3.2" ry="3.2"/>
</g>
<!-- user_chapter_roles&#45;&gt;users -->
<g id="edge11" class="edge">
<title>user_chapter_roles:w&#45;&gt;users:e</title>
<path fill="none" stroke="#000000" d="M320.9887,-108.9471C239.8991,-108.2437 201.1224,-103.3885 137,-161.0146 98.8126,-195.3332 147.3425,-269.0146 96,-269.0146"/>
<polygon fill="#000000" stroke="#000000" points="327.5001,-108.9773 335.4832,-112.6145 331.5,-108.996 335.5,-109.0146 335.5,-109.0146 335.5,-109.0146 331.5,-108.996 335.5168,-105.4146 327.5001,-108.9773 327.5001,-108.9773"/>
<ellipse fill="none" stroke="#000000" cx="324.3001" cy="-108.9624" rx="3.2" ry="3.2"/>
</g>
<!-- user_event_roles -->
<g id="node10" class="node">
<title>user_event_roles</title>
<g id="a_node10"><a xlink:href="../../tables/user_event_roles.html" xlink:title="user_event_roles" target="_top">
<polygon fill="#ffffff" stroke="transparent" points="521,-318.0146 521,-496.0146 735,-496.0146 735,-318.0146 521,-318.0146"/>
<polygon fill="#f5f5f5" stroke="transparent" points="523,-471.0146 523,-494.0146 733,-494.0146 733,-471.0146 523,-471.0146"/>
<polygon fill="none" stroke="#000000" points="523,-471.0146 523,-494.0146 733,-494.0146 733,-471.0146 523,-471.0146"/>
<text text-anchor="start" x="528" y="-480.1146" font-family="Helvetica,sans-Serif" font-weight="bold" font-size="11.00" fill="#000000">user_event_roles</text>
<text text-anchor="start" x="698.0437" y="-479.1146" font-family="Helvetica,sans-Serif" font-size="11.00" fill="#000000">[table]</text>
<polygon fill="none" stroke="#000000" points="523,-449.0146 523,-471.0146 643,-471.0146 643,-449.0146 523,-449.0146"/>
<image xlink:href="../../images/primaryKeys.png" width="11px" height="12px" preserveAspectRatio="xMinYMin meet" x="528" y="-466.015"/>
<text text-anchor="start" x="543" y="-456.1146" font-family="Helvetica,sans-Serif" font-size="11.00" fill="#000000">id</text>
<polygon fill="none" stroke="#000000" points="643,-449.0146 643,-471.0146 733,-471.0146 733,-449.0146 643,-449.0146"/>
<text text-anchor="start" x="646" y="-456.7146" font-family="Helvetica,sans-Serif" font-size="11.00" fill="#000000">serial[10]</text>
<polygon fill="none" stroke="#000000" points="523,-427.0146 523,-449.0146 643,-449.0146 643,-427.0146 523,-427.0146"/>
<text text-anchor="start" x="543" y="-434.1146" font-family="Helvetica,sans-Serif" font-size="11.00" fill="#000000">created_at</text>
<polygon fill="none" stroke="#000000" points="643,-427.0146 643,-449.0146 733,-449.0146 733,-427.0146 643,-427.0146"/>
<text text-anchor="start" x="646" y="-434.7146" font-family="Helvetica,sans-Serif" font-size="11.00" fill="#000000">timestamp[29,6]</text>
<polygon fill="none" stroke="#000000" points="523,-405.0146 523,-427.0146 643,-427.0146 643,-405.0146 523,-405.0146"/>
<text text-anchor="start" x="543" y="-412.1146" font-family="Helvetica,sans-Serif" font-size="11.00" fill="#000000">updated_at</text>
<polygon fill="none" stroke="#000000" points="643,-405.0146 643,-427.0146 733,-427.0146 733,-405.0146 643,-405.0146"/>
<text text-anchor="start" x="646" y="-412.7146" font-family="Helvetica,sans-Serif" font-size="11.00" fill="#000000">timestamp[29,6]</text>
<polygon fill="none" stroke="#000000" points="523,-383.0146 523,-405.0146 643,-405.0146 643,-383.0146 523,-383.0146"/>
<image xlink:href="../../images/primaryKeys.png" width="11px" height="12px" preserveAspectRatio="xMinYMin meet" x="528" y="-400.015"/>
<text text-anchor="start" x="543" y="-390.1146" font-family="Helvetica,sans-Serif" font-size="11.00" fill="#000000">user_id</text>
<polygon fill="none" stroke="#000000" points="643,-383.0146 643,-405.0146 733,-405.0146 733,-383.0146 643,-383.0146"/>
<text text-anchor="start" x="646" y="-390.7146" font-family="Helvetica,sans-Serif" font-size="11.00" fill="#000000">int4[10]</text>
<polygon fill="none" stroke="#000000" points="523,-361.0146 523,-383.0146 643,-383.0146 643,-361.0146 523,-361.0146"/>
<image xlink:href="../../images/primaryKeys.png" width="11px" height="12px" preserveAspectRatio="xMinYMin meet" x="528" y="-378.015"/>
<text text-anchor="start" x="543" y="-368.1146" font-family="Helvetica,sans-Serif" font-size="11.00" fill="#000000">event_id</text>
<polygon fill="none" stroke="#000000" points="643,-361.0146 643,-383.0146 733,-383.0146 733,-361.0146 643,-361.0146"/>
<text text-anchor="start" x="646" y="-368.7146" font-family="Helvetica,sans-Serif" font-size="11.00" fill="#000000">int4[10]</text>
<polygon fill="none" stroke="#000000" points="523,-339.0146 523,-361.0146 643,-361.0146 643,-339.0146 523,-339.0146"/>
<image xlink:href="../../images/primaryKeys.png" width="11px" height="12px" preserveAspectRatio="xMinYMin meet" x="528" y="-356.015"/>
<text text-anchor="start" x="543" y="-346.1146" font-family="Helvetica,sans-Serif" font-size="11.00" fill="#000000">role_name</text>
<polygon fill="none" stroke="#000000" points="643,-339.0146 643,-361.0146 733,-361.0146 733,-339.0146 643,-339.0146"/>
<text text-anchor="start" x="645.5043" y="-346.7146" font-family="Helvetica,sans-Serif" font-size="11.00" fill="#000000">text[2147483647]</text>
<polygon fill="#ffffff" stroke="transparent" points="523,-320.0146 523,-339.0146 574,-339.0146 574,-320.0146 523,-320.0146"/>
<polygon fill="none" stroke="#000000" points="523,-320.0146 523,-339.0146 574,-339.0146 574,-320.0146 523,-320.0146"/>
<text text-anchor="start" x="526" y="-326.1146" font-family="Helvetica,sans-Serif" font-size="11.00" fill="#000000">&lt; 2</text>
<polygon fill="#ffffff" stroke="transparent" points="574,-320.0146 574,-339.0146 643,-339.0146 643,-320.0146 574,-320.0146"/>
<polygon fill="none" stroke="#000000" points="574,-320.0146 574,-339.0146 643,-339.0146 643,-320.0146 574,-320.0146"/>
<text text-anchor="start" x="607.6105" y="-326.1146" font-family="Helvetica,sans-Serif" font-size="11.00" fill="#000000">0 rows</text>
<polygon fill="#ffffff" stroke="transparent" points="643,-320.0146 643,-339.0146 733,-339.0146 733,-320.0146 643,-320.0146"/>
<polygon fill="none" stroke="#000000" points="643,-320.0146 643,-339.0146 733,-339.0146 733,-320.0146 643,-320.0146"/>
<text text-anchor="start" x="714.4053" y="-326.1146" font-family="Helvetica,sans-Serif" font-size="11.00" fill="#000000">0 &gt;</text>
<polygon fill="none" stroke="#000000" stroke-width="2" points="522,-319.0146 522,-495.0146 734,-495.0146 734,-319.0146 522,-319.0146"/>
</a>
</g>
</g>
<!-- user_event_roles&#45;&gt;users -->
<g id="edge13" class="edge">
<title>user_event_roles:w&#45;&gt;users:e</title>
<path fill="none" stroke="#000000" d="M508.5503,-394.144C345.9198,-397.0479 271.9897,-446.9028 137,-347.0146 105.5178,-323.7187 135.1641,-269.0146 96,-269.0146"/>
<polygon fill="#000000" stroke="#000000" points="515.0003,-394.0863 523.0323,-397.6144 519.0002,-394.0504 523,-394.0146 523,-394.0146 523,-394.0146 519.0002,-394.0504 522.9677,-390.4147 515.0003,-394.0863 515.0003,-394.0863"/>
<ellipse fill="none" stroke="#000000" cx="511.8004" cy="-394.115" rx="3.2" ry="3.2"/>
</g>
<!-- user_event_roles&#45;&gt;events -->
<g id="edge12" class="edge">
<title>user_event_roles:w&#45;&gt;events:e</title>
<path fill="none" stroke="#000000" d="M508.7205,-369.2616C469.6271,-351.6952 504.1479,-256.0146 448.5,-256.0146"/>
<polygon fill="#000000" stroke="#000000" points="515.1447,-370.5001 522.3185,-375.5495 519.0723,-371.2573 523,-372.0146 523,-372.0146 523,-372.0146 519.0723,-371.2573 523.6815,-368.4797 515.1447,-370.5001 515.1447,-370.5001"/>
<ellipse fill="none" stroke="#000000" cx="512.0025" cy="-369.8943" rx="3.2" ry="3.2"/>
</g>
<!-- user_instance_roles -->
<g id="node11" class="node">
<title>user_instance_roles</title>
<g id="a_node11"><a xlink:href="../../tables/user_instance_roles.html" xlink:title="user_instance_roles" target="_top">
<polygon fill="#ffffff" stroke="transparent" points="145,-421.5146 145,-482.5146 286,-482.5146 286,-421.5146 145,-421.5146"/>
<polygon fill="#f5f5f5" stroke="transparent" points="145.5,-459.0146 145.5,-482.0146 286.5,-482.0146 286.5,-459.0146 145.5,-459.0146"/>
<polygon fill="none" stroke="#000000" points="145.5,-459.0146 145.5,-482.0146 286.5,-482.0146 286.5,-459.0146 145.5,-459.0146"/>
<text text-anchor="start" x="150.2943" y="-468.1146" font-family="Helvetica,sans-Serif" font-weight="bold" font-size="11.00" fill="#000000">user_instance_roles</text>
<text text-anchor="start" x="252.0219" y="-467.1146" font-family="Helvetica,sans-Serif" font-size="11.00" fill="#000000">[table]</text>
<polygon fill="none" stroke="#000000" points="145.5,-440.0146 145.5,-459.0146 286.5,-459.0146 286.5,-440.0146 145.5,-440.0146"/>
<text text-anchor="start" x="148.5" y="-446.1146" font-family="Helvetica,sans-Serif" font-size="11.00" fill="#000000">...</text>
<polygon fill="#ffffff" stroke="transparent" points="145.5,-421.0146 145.5,-440.0146 201.5,-440.0146 201.5,-421.0146 145.5,-421.0146"/>
<polygon fill="none" stroke="#000000" points="145.5,-421.0146 145.5,-440.0146 201.5,-440.0146 201.5,-421.0146 145.5,-421.0146"/>
<text text-anchor="start" x="148.5" y="-427.1146" font-family="Helvetica,sans-Serif" font-size="11.00" fill="#000000">&lt; 1</text>
<polygon fill="#ffffff" stroke="transparent" points="201.5,-421.0146 201.5,-440.0146 256.5,-440.0146 256.5,-421.0146 201.5,-421.0146"/>
<polygon fill="none" stroke="#000000" points="201.5,-421.0146 201.5,-440.0146 256.5,-440.0146 256.5,-421.0146 201.5,-421.0146"/>
<text text-anchor="start" x="221.1105" y="-427.1146" font-family="Helvetica,sans-Serif" font-size="11.00" fill="#000000">0 rows</text>
<polygon fill="#ffffff" stroke="transparent" points="256.5,-421.0146 256.5,-440.0146 286.5,-440.0146 286.5,-421.0146 256.5,-421.0146"/>
<polygon fill="none" stroke="#000000" points="256.5,-421.0146 256.5,-440.0146 286.5,-440.0146 286.5,-421.0146 256.5,-421.0146"/>
<text text-anchor="start" x="277.3862" y="-427.1146" font-family="Helvetica,sans-Serif" font-size="11.00" fill="#000000"> &#160;</text>
</a>
</g>
</g>
<!-- user_instance_roles&#45;&gt;users -->
<g id="edge14" class="edge">
<title>user_instance_roles:w&#45;&gt;users:e</title>
<path fill="none" stroke="#000000" d="M131.1528,-446.6062C77.5178,-425.2464 173.2981,-269.0146 96,-269.0146"/>
<polygon fill="#000000" stroke="#000000" points="137.6104,-447.6901 144.904,-452.5649 141.5552,-448.3524 145.5,-449.0146 145.5,-449.0146 145.5,-449.0146 141.5552,-448.3524 146.096,-445.4643 137.6104,-447.6901 137.6104,-447.6901"/>
<ellipse fill="none" stroke="#000000" cx="134.4545" cy="-447.1604" rx="3.2" ry="3.2"/>
</g>
</g>
</svg>
