<?xml version="1.0" encoding="UTF-8" standalone="no"?>
<!DOCTYPE svg PUBLIC "-//W3C//DTD SVG 1.1//EN"
 "http://www.w3.org/Graphics/SVG/1.1/DTD/svg11.dtd">
<!-- Generated by graphviz version 2.40.1 (20161225.0304)
 -->
<!-- Title: twoDegreesRelationshipsDiagram Pages: 1 -->
<svg width="807pt" height="493pt"
 viewBox="0.00 0.00 807.00 492.97" xmlns="http://www.w3.org/2000/svg" xmlns:xlink="http://www.w3.org/1999/xlink">
<g id="graph0" class="graph" transform="scale(1 1) rotate(0) translate(4 488.9683)">
<title>twoDegreesRelationshipsDiagram</title>
<polygon fill="#ffffff" stroke="transparent" points="-4,4 -4,-488.9683 803,-488.9683 803,4 -4,4"/>
<text text-anchor="middle" x="72.4936" y="-7.3" font-family="Helvetica,sans-Serif" font-size="11.00" fill="#000000">Generated by SchemaSpy</text>
<!-- chapter_users -->
<g id="node1" class="node">
<title>chapter_users</title>
<g id="a_node1"><a xlink:href="../../tables/chapter_users.html" xlink:title="chapter_users" target="_top">
<polygon fill="#ffffff" stroke="transparent" points="367,-303.2 367,-364.2 479,-364.2 479,-303.2 367,-303.2"/>
<polygon fill="#f5f5f5" stroke="transparent" points="367,-340.7 367,-363.7 479,-363.7 479,-340.7 367,-340.7"/>
<polygon fill="none" stroke="#000000" points="367,-340.7 367,-363.7 479,-363.7 479,-340.7 367,-340.7"/>
<text text-anchor="start" x="371.6575" y="-349.8" font-family="Helvetica,sans-Serif" font-weight="bold" font-size="11.00" fill="#000000">chapter_users</text>
<text text-anchor="start" x="444.5219" y="-348.8" font-family="Helvetica,sans-Serif" font-size="11.00" fill="#000000">[table]</text>
<polygon fill="none" stroke="#000000" points="367,-321.7 367,-340.7 479,-340.7 479,-321.7 367,-321.7"/>
<text text-anchor="start" x="370" y="-327.8" font-family="Helvetica,sans-Serif" font-size="11.00" fill="#000000">...</text>
<polygon fill="#ffffff" stroke="transparent" points="367,-302.7 367,-321.7 408,-321.7 408,-302.7 367,-302.7"/>
<polygon fill="none" stroke="#000000" points="367,-302.7 367,-321.7 408,-321.7 408,-302.7 367,-302.7"/>
<text text-anchor="start" x="370" y="-308.8" font-family="Helvetica,sans-Serif" font-size="11.00" fill="#000000">&lt; 3</text>
<polygon fill="#ffffff" stroke="transparent" points="408,-302.7 408,-321.7 456,-321.7 456,-302.7 408,-302.7"/>
<polygon fill="none" stroke="#000000" points="408,-302.7 408,-321.7 456,-321.7 456,-302.7 408,-302.7"/>
<text text-anchor="start" x="420.6105" y="-308.8" font-family="Helvetica,sans-Serif" font-size="11.00" fill="#000000">0 rows</text>
<polygon fill="#ffffff" stroke="transparent" points="456,-302.7 456,-321.7 479,-321.7 479,-302.7 456,-302.7"/>
<polygon fill="none" stroke="#000000" points="456,-302.7 456,-321.7 479,-321.7 479,-302.7 456,-302.7"/>
<text text-anchor="start" x="469.8862" y="-308.8" font-family="Helvetica,sans-Serif" font-size="11.00" fill="#000000"> &#160;</text>
</a>
</g>
</g>
<!-- chapters -->
<g id="node2" class="node">
<title>chapters</title>
<g id="a_node2"><a xlink:href="../../tables/chapters.html" xlink:title="chapters" target="_top">
<polygon fill="#ffffff" stroke="transparent" points="184,-323.2 184,-406.2 272,-406.2 272,-323.2 184,-323.2"/>
<polygon fill="#f5f5f5" stroke="transparent" points="184,-382.7 184,-405.7 272,-405.7 272,-382.7 184,-382.7"/>
<polygon fill="none" stroke="#000000" points="184,-382.7 184,-405.7 272,-405.7 272,-382.7 184,-382.7"/>
<text text-anchor="start" x="189" y="-391.8" font-family="Helvetica,sans-Serif" font-weight="bold" font-size="11.00" fill="#000000">chapters</text>
<text text-anchor="start" x="237.0437" y="-390.8" font-family="Helvetica,sans-Serif" font-size="11.00" fill="#000000">[table]</text>
<polygon fill="none" stroke="#000000" points="184,-360.7 184,-382.7 272,-382.7 272,-360.7 184,-360.7"/>
<image xlink:href="../../images/primaryKeys.png" width="11px" height="12px" preserveAspectRatio="xMinYMin meet" x="189" y="-377.7"/>
<text text-anchor="start" x="204" y="-367.8" font-family="Helvetica,sans-Serif" font-size="11.00" fill="#000000">id</text>
<polygon fill="none" stroke="#000000" points="184,-341.7 184,-360.7 272,-360.7 272,-341.7 184,-341.7"/>
<text text-anchor="start" x="187" y="-347.8" font-family="Helvetica,sans-Serif" font-size="11.00" fill="#000000">...</text>
<polygon fill="#ffffff" stroke="transparent" points="184,-322.7 184,-341.7 204,-341.7 204,-322.7 184,-322.7"/>
<polygon fill="none" stroke="#000000" points="184,-322.7 184,-341.7 204,-341.7 204,-322.7 184,-322.7"/>
<text text-anchor="start" x="187" y="-328.8" font-family="Helvetica,sans-Serif" font-size="11.00" fill="#000000"> &#160;</text>
<polygon fill="#ffffff" stroke="transparent" points="204,-322.7 204,-341.7 246,-341.7 246,-322.7 204,-322.7"/>
<polygon fill="none" stroke="#000000" points="204,-322.7 204,-341.7 246,-341.7 246,-322.7 204,-322.7"/>
<text text-anchor="start" x="210.6105" y="-328.8" font-family="Helvetica,sans-Serif" font-size="11.00" fill="#000000">0 rows</text>
<polygon fill="#ffffff" stroke="transparent" points="246,-322.7 246,-341.7 272,-341.7 272,-322.7 246,-322.7"/>
<polygon fill="none" stroke="#000000" points="246,-322.7 246,-341.7 272,-341.7 272,-322.7 246,-322.7"/>
<text text-anchor="start" x="253.4053" y="-328.8" font-family="Helvetica,sans-Serif" font-size="11.00" fill="#000000">4 &gt;</text>
</a>
</g>
</g>
<!-- chapter_users&#45;&gt;chapters -->
<g id="edge1" class="edge">
<title>chapter_users:w&#45;&gt;chapters:e</title>
<path fill="none" stroke="#000000" d="M352.4645,-332.2572C319.714,-339.7463 312.5975,-371.7 272,-371.7"/>
<polygon fill="#000000" stroke="#000000" points="359.0455,-331.5522 367.3835,-334.2795 363.0228,-331.1261 367,-330.7 367,-330.7 367,-330.7 363.0228,-331.1261 366.6165,-327.1205 359.0455,-331.5522 359.0455,-331.5522"/>
<ellipse fill="none" stroke="#000000" cx="355.8637" cy="-331.8931" rx="3.2" ry="3.2"/>
</g>
<!-- users -->
<g id="node3" class="node">
<title>users</title>
<g id="a_node3"><a xlink:href="../../tables/users.html" xlink:title="users" target="_top">
<polygon fill="#ffffff" stroke="transparent" points="170,-70.2 170,-197.2 286,-197.2 286,-70.2 170,-70.2"/>
<polygon fill="#f5f5f5" stroke="transparent" points="170,-173.7 170,-196.7 286,-196.7 286,-173.7 170,-173.7"/>
<polygon fill="none" stroke="#000000" points="170,-173.7 170,-196.7 286,-196.7 286,-173.7 170,-173.7"/>
<text text-anchor="start" x="175" y="-182.8" font-family="Helvetica,sans-Serif" font-weight="bold" font-size="11.00" fill="#000000">users</text>
<text text-anchor="start" x="251.0437" y="-181.8" font-family="Helvetica,sans-Serif" font-size="11.00" fill="#000000">[table]</text>
<polygon fill="none" stroke="#000000" points="170,-151.7 170,-173.7 286,-173.7 286,-151.7 170,-151.7"/>
<image xlink:href="../../images/primaryKeys.png" width="11px" height="12px" preserveAspectRatio="xMinYMin meet" x="175" y="-168.7"/>
<text text-anchor="start" x="190" y="-158.8" font-family="Helvetica,sans-Serif" font-size="11.00" fill="#000000">id</text>
<polygon fill="#ffffff" stroke="transparent" points="170,-129.7 170,-151.7 286,-151.7 286,-129.7 170,-129.7"/>
<polygon fill="none" stroke="#000000" points="170,-129.7 170,-151.7 286,-151.7 286,-129.7 170,-129.7"/>
<text text-anchor="start" x="190" y="-136.8" font-family="Helvetica,sans-Serif" font-size="11.00" fill="#000000">email</text>
<polygon fill="none" stroke="#000000" points="170,-107.7 170,-129.7 286,-129.7 286,-107.7 170,-107.7"/>
<image xlink:href="../../images/foreignKeys.png" width="11px" height="12px" preserveAspectRatio="xMinYMin meet" x="175" y="-124.7"/>
<text text-anchor="start" x="190" y="-114.8" font-family="Helvetica,sans-Serif" font-size="11.00" fill="#000000">instance_role_id</text>
<polygon fill="none" stroke="#000000" points="170,-88.7 170,-107.7 286,-107.7 286,-88.7 170,-88.7"/>
<text text-anchor="start" x="173" y="-94.8" font-family="Helvetica,sans-Serif" font-size="11.00" fill="#000000">...</text>
<polygon fill="#ffffff" stroke="transparent" points="170,-69.7 170,-88.7 209,-88.7 209,-69.7 170,-69.7"/>
<polygon fill="none" stroke="#000000" points="170,-69.7 170,-88.7 209,-88.7 209,-69.7 170,-69.7"/>
<text text-anchor="start" x="173" y="-75.8" font-family="Helvetica,sans-Serif" font-size="11.00" fill="#000000">&lt; 1</text>
<polygon fill="#ffffff" stroke="transparent" points="209,-69.7 209,-88.7 256,-88.7 256,-69.7 209,-69.7"/>
<polygon fill="none" stroke="#000000" points="209,-69.7 209,-88.7 256,-88.7 256,-69.7 209,-69.7"/>
<text text-anchor="start" x="220.6105" y="-75.8" font-family="Helvetica,sans-Serif" font-size="11.00" fill="#000000">0 rows</text>
<polygon fill="#ffffff" stroke="transparent" points="256,-69.7 256,-88.7 286,-88.7 286,-69.7 256,-69.7"/>
<polygon fill="none" stroke="#000000" points="256,-69.7 256,-88.7 286,-88.7 286,-69.7 256,-69.7"/>
<text text-anchor="start" x="267.4053" y="-75.8" font-family="Helvetica,sans-Serif" font-size="11.00" fill="#000000">4 &gt;</text>
</a>
</g>
</g>
<!-- chapter_users&#45;&gt;users -->
<g id="edge2" class="edge">
<title>chapter_users:w&#45;&gt;users:e</title>
<path fill="none" stroke="#000000" d="M352.5985,-327.8664C340.6572,-322.1569 336.8435,-308.4611 327,-292.7 294.9078,-241.3151 346.5832,-162.7 286,-162.7"/>
<polygon fill="#000000" stroke="#000000" points="359.1505,-329.1555 366.305,-334.2323 363.0753,-329.9277 367,-330.7 367,-330.7 367,-330.7 363.0753,-329.9277 367.695,-327.1677 359.1505,-329.1555 359.1505,-329.1555"/>
<ellipse fill="none" stroke="#000000" cx="356.0107" cy="-328.5377" rx="3.2" ry="3.2"/>
</g>
<!-- instance_roles -->
<g id="node9" class="node">
<title>instance_roles</title>
<g id="a_node9"><a xlink:href="../../tables/instance_roles.html" xlink:title="instance_roles" target="_top">
<polygon fill="#ffffff" stroke="transparent" points="8,-91.2 8,-152.2 121,-152.2 121,-91.2 8,-91.2"/>
<polygon fill="#f5f5f5" stroke="transparent" points="8.5,-128.7 8.5,-151.7 121.5,-151.7 121.5,-128.7 8.5,-128.7"/>
<polygon fill="none" stroke="#000000" points="8.5,-128.7 8.5,-151.7 121.5,-151.7 121.5,-128.7 8.5,-128.7"/>
<text text-anchor="start" x="13.0476" y="-137.8" font-family="Helvetica,sans-Serif" font-weight="bold" font-size="11.00" fill="#000000">instance_roles</text>
<text text-anchor="start" x="87.0219" y="-136.8" font-family="Helvetica,sans-Serif" font-size="11.00" fill="#000000">[table]</text>
<polygon fill="none" stroke="#000000" points="8.5,-109.7 8.5,-128.7 121.5,-128.7 121.5,-109.7 8.5,-109.7"/>
<text text-anchor="start" x="11.5" y="-115.8" font-family="Helvetica,sans-Serif" font-size="11.00" fill="#000000">...</text>
<polygon fill="#ffffff" stroke="transparent" points="8.5,-90.7 8.5,-109.7 41.5,-109.7 41.5,-90.7 8.5,-90.7"/>
<polygon fill="none" stroke="#000000" points="8.5,-90.7 8.5,-109.7 41.5,-109.7 41.5,-90.7 8.5,-90.7"/>
<text text-anchor="start" x="11.5" y="-96.8" font-family="Helvetica,sans-Serif" font-size="11.00" fill="#000000"> &#160;</text>
<polygon fill="#ffffff" stroke="transparent" points="41.5,-90.7 41.5,-109.7 89.5,-109.7 89.5,-90.7 41.5,-90.7"/>
<polygon fill="none" stroke="#000000" points="41.5,-90.7 41.5,-109.7 89.5,-109.7 89.5,-90.7 41.5,-90.7"/>
<text text-anchor="start" x="54.1105" y="-96.8" font-family="Helvetica,sans-Serif" font-size="11.00" fill="#000000">0 rows</text>
<polygon fill="#ffffff" stroke="transparent" points="89.5,-90.7 89.5,-109.7 121.5,-109.7 121.5,-90.7 89.5,-90.7"/>
<polygon fill="none" stroke="#000000" points="89.5,-90.7 89.5,-109.7 121.5,-109.7 121.5,-90.7 89.5,-90.7"/>
<text text-anchor="start" x="102.9053" y="-96.8" font-family="Helvetica,sans-Serif" font-size="11.00" fill="#000000">2 &gt;</text>
</a>
</g>
</g>
<!-- users&#45;&gt;instance_roles -->
<g id="edge11" class="edge">
<title>users:w&#45;&gt;instance_roles:e</title>
<path fill="none" stroke="#000000" d="M155.2829,-118.7C144.2886,-118.7 137.1615,-118.7 121.5,-118.7"/>
<polygon fill="#000000" stroke="#000000" points="162,-118.7001 170,-122.3 166,-118.7 170,-118.7 170,-118.7 170,-118.7 166,-118.7 170,-115.1 162,-118.7001 162,-118.7001"/>
<ellipse fill="none" stroke="#000000" cx="158.8" cy="-118.7001" rx="3.2" ry="3.2"/>
</g>
<!-- event_users -->
<g id="node4" class="node">
<title>event_users</title>
<g id="a_node4"><a xlink:href="../../tables/event_users.html" xlink:title="event_users" target="_top">
<polygon fill="#ffffff" stroke="transparent" points="689,-240.2 689,-301.2 791,-301.2 791,-240.2 689,-240.2"/>
<polygon fill="#f5f5f5" stroke="transparent" points="689,-277.7 689,-300.7 791,-300.7 791,-277.7 689,-277.7"/>
<polygon fill="none" stroke="#000000" points="689,-277.7 689,-300.7 791,-300.7 791,-277.7 689,-277.7"/>
<text text-anchor="start" x="693.5459" y="-286.8" font-family="Helvetica,sans-Serif" font-weight="bold" font-size="11.00" fill="#000000">event_users</text>
<text text-anchor="start" x="756.5219" y="-285.8" font-family="Helvetica,sans-Serif" font-size="11.00" fill="#000000">[table]</text>
<polygon fill="none" stroke="#000000" points="689,-258.7 689,-277.7 791,-277.7 791,-258.7 689,-258.7"/>
<text text-anchor="start" x="692" y="-264.8" font-family="Helvetica,sans-Serif" font-size="11.00" fill="#000000">...</text>
<polygon fill="#ffffff" stroke="transparent" points="689,-239.7 689,-258.7 721,-258.7 721,-239.7 689,-239.7"/>
<polygon fill="none" stroke="#000000" points="689,-239.7 689,-258.7 721,-258.7 721,-239.7 689,-239.7"/>
<text text-anchor="start" x="692" y="-245.8" font-family="Helvetica,sans-Serif" font-size="11.00" fill="#000000">&lt; 4</text>
<polygon fill="#ffffff" stroke="transparent" points="721,-239.7 721,-258.7 764,-258.7 764,-239.7 721,-239.7"/>
<polygon fill="none" stroke="#000000" points="721,-239.7 721,-258.7 764,-258.7 764,-239.7 721,-239.7"/>
<text text-anchor="start" x="728.6105" y="-245.8" font-family="Helvetica,sans-Serif" font-size="11.00" fill="#000000">0 rows</text>
<polygon fill="#ffffff" stroke="transparent" points="764,-239.7 764,-258.7 791,-258.7 791,-239.7 764,-239.7"/>
<polygon fill="none" stroke="#000000" points="764,-239.7 764,-258.7 791,-258.7 791,-239.7 764,-239.7"/>
<text text-anchor="start" x="772.4053" y="-245.8" font-family="Helvetica,sans-Serif" font-size="11.00" fill="#000000">2 &gt;</text>
</a>
</g>
</g>
<!-- event_users&#45;&gt;users -->
<g id="edge4" class="edge">
<title>event_users:w&#45;&gt;users:e</title>
<path fill="none" stroke="#000000" d="M674.3117,-266.8283C595.012,-256.9434 604.3545,-165.7715 519,-136.7 438.2234,-109.1877 408.9491,-112.9066 327,-136.7 306.2784,-142.7164 307.5773,-162.7 286,-162.7"/>
<polygon fill="#000000" stroke="#000000" points="681.014,-267.226 688.7867,-271.2937 685.007,-267.463 689,-267.7 689,-267.7 689,-267.7 685.007,-267.463 689.2133,-264.1063 681.014,-267.226 681.014,-267.226"/>
<ellipse fill="none" stroke="#000000" cx="677.8197" cy="-267.0364" rx="3.2" ry="3.2"/>
</g>
<!-- events -->
<g id="node5" class="node">
<title>events</title>
<g id="a_node5"><a xlink:href="../../tables/events.html" xlink:title="events" target="_top">
<polygon fill="#ffffff" stroke="transparent" points="560,-385.2 560,-446.2 640,-446.2 640,-385.2 560,-385.2"/>
<polygon fill="#f5f5f5" stroke="transparent" points="560,-422.7 560,-445.7 640,-445.7 640,-422.7 560,-422.7"/>
<polygon fill="none" stroke="#000000" points="560,-422.7 560,-445.7 640,-445.7 640,-422.7 560,-422.7"/>
<text text-anchor="start" x="565" y="-431.8" font-family="Helvetica,sans-Serif" font-weight="bold" font-size="11.00" fill="#000000">events</text>
<text text-anchor="start" x="605.0437" y="-430.8" font-family="Helvetica,sans-Serif" font-size="11.00" fill="#000000">[table]</text>
<polygon fill="none" stroke="#000000" points="560,-403.7 560,-422.7 640,-422.7 640,-403.7 560,-403.7"/>
<text text-anchor="start" x="563" y="-409.8" font-family="Helvetica,sans-Serif" font-size="11.00" fill="#000000">...</text>
<polygon fill="#ffffff" stroke="transparent" points="560,-384.7 560,-403.7 581,-403.7 581,-384.7 560,-384.7"/>
<polygon fill="none" stroke="#000000" points="560,-384.7 560,-403.7 581,-403.7 581,-384.7 560,-384.7"/>
<text text-anchor="start" x="562.7026" y="-390.8" font-family="Helvetica,sans-Serif" font-size="11.00" fill="#000000">&lt; 3</text>
<polygon fill="#ffffff" stroke="transparent" points="581,-384.7 581,-403.7 619,-403.7 619,-384.7 581,-384.7"/>
<polygon fill="none" stroke="#000000" points="581,-384.7 581,-403.7 619,-403.7 619,-384.7 581,-384.7"/>
<text text-anchor="start" x="583.8053" y="-390.8" font-family="Helvetica,sans-Serif" font-size="11.00" fill="#000000">0 rows</text>
<polygon fill="#ffffff" stroke="transparent" points="619,-384.7 619,-403.7 640,-403.7 640,-384.7 619,-384.7"/>
<polygon fill="none" stroke="#000000" points="619,-384.7 619,-403.7 640,-403.7 640,-384.7 619,-384.7"/>
<text text-anchor="start" x="621.7026" y="-390.8" font-family="Helvetica,sans-Serif" font-size="11.00" fill="#000000">3 &gt;</text>
</a>
</g>
</g>
<!-- event_users&#45;&gt;events -->
<g id="edge3" class="edge">
<title>event_users:w&#45;&gt;events:e</title>
<path fill="none" stroke="#000000" d="M674.7013,-270.7285C634.7917,-291.551 702.1788,-412.7 640,-412.7"/>
<polygon fill="#000000" stroke="#000000" points="681.1736,-269.3577 689.746,-271.2219 685.0868,-268.5289 689,-267.7 689,-267.7 689,-267.7 685.0868,-268.5289 688.254,-264.1781 681.1736,-269.3577 681.1736,-269.3577"/>
<ellipse fill="none" stroke="#000000" cx="678.0431" cy="-270.0208" rx="3.2" ry="3.2"/>
</g>
<!-- events&#45;&gt;chapters -->
<g id="edge5" class="edge">
<title>events:w&#45;&gt;chapters:e</title>
<path fill="none" stroke="#000000" d="M546.3748,-417.4727C536.1616,-427.0812 537.7659,-448.5362 519,-456.7 440.7506,-490.7412 401.9587,-497.4795 327,-456.7 287.474,-435.1968 316.9966,-371.7 272,-371.7"/>
<polygon fill="#000000" stroke="#000000" points="552.4498,-415.3447 561.1901,-416.0976 556.2249,-414.0224 560,-412.7 560,-412.7 560,-412.7 556.2249,-414.0224 558.8099,-409.3024 552.4498,-415.3447 552.4498,-415.3447"/>
<ellipse fill="none" stroke="#000000" cx="549.4297" cy="-416.4026" rx="3.2" ry="3.2"/>
</g>
<!-- venues -->
<g id="node6" class="node">
<title>venues</title>
<g id="a_node6"><a xlink:href="../../tables/venues.html" xlink:title="venues" target="_top">
<polygon fill="#ffffff" stroke="transparent" points="383,-385.2 383,-446.2 463,-446.2 463,-385.2 383,-385.2"/>
<polygon fill="#f5f5f5" stroke="transparent" points="383,-422.7 383,-445.7 463,-445.7 463,-422.7 383,-422.7"/>
<polygon fill="none" stroke="#000000" points="383,-422.7 383,-445.7 463,-445.7 463,-422.7 383,-422.7"/>
<text text-anchor="start" x="388" y="-431.8" font-family="Helvetica,sans-Serif" font-weight="bold" font-size="11.00" fill="#000000">venues</text>
<text text-anchor="start" x="428.0437" y="-430.8" font-family="Helvetica,sans-Serif" font-size="11.00" fill="#000000">[table]</text>
<polygon fill="none" stroke="#000000" points="383,-403.7 383,-422.7 463,-422.7 463,-403.7 383,-403.7"/>
<text text-anchor="start" x="386" y="-409.8" font-family="Helvetica,sans-Serif" font-size="11.00" fill="#000000">...</text>
<polygon fill="#ffffff" stroke="transparent" points="383,-384.7 383,-403.7 404,-403.7 404,-384.7 383,-384.7"/>
<polygon fill="none" stroke="#000000" points="383,-384.7 383,-403.7 404,-403.7 404,-384.7 383,-384.7"/>
<text text-anchor="start" x="385.7027" y="-390.8" font-family="Helvetica,sans-Serif" font-size="11.00" fill="#000000">&lt; 1</text>
<polygon fill="#ffffff" stroke="transparent" points="404,-384.7 404,-403.7 442,-403.7 442,-384.7 404,-384.7"/>
<polygon fill="none" stroke="#000000" points="404,-384.7 404,-403.7 442,-403.7 442,-384.7 404,-384.7"/>
<text text-anchor="start" x="406.8053" y="-390.8" font-family="Helvetica,sans-Serif" font-size="11.00" fill="#000000">0 rows</text>
<polygon fill="#ffffff" stroke="transparent" points="442,-384.7 442,-403.7 463,-403.7 463,-384.7 442,-384.7"/>
<polygon fill="none" stroke="#000000" points="442,-384.7 442,-403.7 463,-403.7 463,-384.7 442,-384.7"/>
<text text-anchor="start" x="444.7027" y="-390.8" font-family="Helvetica,sans-Serif" font-size="11.00" fill="#000000">2 &gt;</text>
</a>
</g>
</g>
<!-- events&#45;&gt;venues -->
<g id="edge6" class="edge">
<title>events:w&#45;&gt;venues:e</title>
<path fill="none" stroke="#000000" d="M545.6461,-410.7843C513.8045,-406.788 500.8906,-407.4266 463,-412.7"/>
<polygon fill="#000000" stroke="#000000" points="552.0703,-411.6416 559.5237,-416.2684 556.0352,-412.1708 560,-412.7 560,-412.7 560,-412.7 556.0352,-412.1708 560.4763,-409.1316 552.0703,-411.6416 552.0703,-411.6416"/>
<ellipse fill="none" stroke="#000000" cx="548.8984" cy="-411.2183" rx="3.2" ry="3.2"/>
</g>
<!-- events&#45;&gt;venues -->
<g id="edge7" class="edge">
<title>events:w&#45;&gt;venues:e</title>
<path fill="none" stroke="#000000" d="M545.6461,-414.935C513.8045,-419.5974 500.8906,-418.8523 463,-412.7"/>
<polygon fill="#000000" stroke="#000000" points="552.0953,-413.9309 560.5539,-416.2571 556.0476,-413.3154 560,-412.7 560,-412.7 560,-412.7 556.0476,-413.3154 559.4461,-409.1429 552.0953,-413.9309 552.0953,-413.9309"/>
<ellipse fill="none" stroke="#000000" cx="548.9334" cy="-414.4232" rx="3.2" ry="3.2"/>
</g>
<!-- venues&#45;&gt;chapters -->
<g id="edge12" class="edge">
<title>venues:w&#45;&gt;chapters:e</title>
<path fill="none" stroke="#000000" d="M368.5841,-411.5606C328.7858,-404.9388 319.3526,-371.7 272,-371.7"/>
<polygon fill="#000000" stroke="#000000" points="375.0249,-412.0696 382.7163,-416.2888 379.0124,-412.3848 383,-412.7 383,-412.7 383,-412.7 379.0124,-412.3848 383.2837,-409.1112 375.0249,-412.0696 375.0249,-412.0696"/>
<ellipse fill="none" stroke="#000000" cx="371.8348" cy="-411.8175" rx="3.2" ry="3.2"/>
</g>
<!-- sessions -->
<g id="node7" class="node">
<title>sessions</title>
<g id="a_node7"><a xlink:href="../../tables/sessions.html" xlink:title="sessions" target="_top">
<polygon fill="#ffffff" stroke="transparent" points="380.5,-38.2 380.5,-99.2 465.5,-99.2 465.5,-38.2 380.5,-38.2"/>
<polygon fill="#f5f5f5" stroke="transparent" points="381,-75.7 381,-98.7 466,-98.7 466,-75.7 381,-75.7"/>
<polygon fill="none" stroke="#000000" points="381,-75.7 381,-98.7 466,-98.7 466,-75.7 381,-75.7"/>
<text text-anchor="start" x="385.6072" y="-84.8" font-family="Helvetica,sans-Serif" font-weight="bold" font-size="11.00" fill="#000000">sessions</text>
<text text-anchor="start" x="431.5219" y="-83.8" font-family="Helvetica,sans-Serif" font-size="11.00" fill="#000000">[table]</text>
<polygon fill="none" stroke="#000000" points="381,-56.7 381,-75.7 466,-75.7 466,-56.7 381,-56.7"/>
<text text-anchor="start" x="384" y="-62.8" font-family="Helvetica,sans-Serif" font-size="11.00" fill="#000000">...</text>
<polygon fill="#ffffff" stroke="transparent" points="381,-37.7 381,-56.7 409,-56.7 409,-37.7 381,-37.7"/>
<polygon fill="none" stroke="#000000" points="381,-37.7 381,-56.7 409,-56.7 409,-37.7 381,-37.7"/>
<text text-anchor="start" x="384" y="-43.8" font-family="Helvetica,sans-Serif" font-size="11.00" fill="#000000">&lt; 1</text>
<polygon fill="#ffffff" stroke="transparent" points="409,-37.7 409,-56.7 450,-56.7 450,-37.7 409,-37.7"/>
<polygon fill="none" stroke="#000000" points="409,-37.7 409,-56.7 450,-56.7 450,-37.7 409,-37.7"/>
<text text-anchor="start" x="414.6105" y="-43.8" font-family="Helvetica,sans-Serif" font-size="11.00" fill="#000000">0 rows</text>
<polygon fill="#ffffff" stroke="transparent" points="450,-37.7 450,-56.7 466,-56.7 466,-37.7 450,-37.7"/>
<polygon fill="none" stroke="#000000" points="450,-37.7 450,-56.7 466,-56.7 466,-37.7 450,-37.7"/>
<text text-anchor="start" x="456.8862" y="-43.8" font-family="Helvetica,sans-Serif" font-size="11.00" fill="#000000"> &#160;</text>
</a>
</g>
</g>
<!-- sessions&#45;&gt;users -->
<g id="edge8" class="edge">
<title>sessions:w&#45;&gt;users:e</title>
<path fill="none" stroke="#000000" d="M370.3776,-66.8174C348.6509,-71.9094 346.5684,-93.5376 327,-113.7 307.2236,-134.0768 314.3958,-162.7 286,-162.7"/>
<polygon fill="#000000" stroke="#000000" points="379.7859,-61.8056 380.6229,-69.7617 379.0317,-69.9291 378.1947,-61.973 379.7859,-61.8056"/>
<polyline fill="none" stroke="#000000" points="381,-65.7 377.0219,-66.1185 "/>
<ellipse fill="none" stroke="#000000" cx="373.8395" cy="-66.4533" rx="3.2" ry="3.2"/>
</g>
<!-- user_bans -->
<g id="node8" class="node">
<title>user_bans</title>
<g id="a_node8"><a xlink:href="../../tables/user_bans.html" xlink:title="user_bans" target="_top">
<polygon fill="#ffffff" stroke="transparent" points="335,-147.7 335,-281.7 511,-281.7 511,-147.7 335,-147.7"/>
<polygon fill="#f5f5f5" stroke="transparent" points="337,-256.7 337,-279.7 509,-279.7 509,-256.7 337,-256.7"/>
<polygon fill="none" stroke="#000000" points="337,-256.7 337,-279.7 509,-279.7 509,-256.7 337,-256.7"/>
<text text-anchor="start" x="342" y="-265.8" font-family="Helvetica,sans-Serif" font-weight="bold" font-size="11.00" fill="#000000">user_bans</text>
<text text-anchor="start" x="474.0437" y="-264.8" font-family="Helvetica,sans-Serif" font-size="11.00" fill="#000000">[table]</text>
<polygon fill="none" stroke="#000000" points="337,-234.7 337,-256.7 425,-256.7 425,-234.7 337,-234.7"/>
<text text-anchor="start" x="357" y="-241.8" font-family="Helvetica,sans-Serif" font-size="11.00" fill="#000000">created_at</text>
<polygon fill="none" stroke="#000000" points="425,-234.7 425,-256.7 509,-256.7 509,-234.7 425,-234.7"/>
<text text-anchor="start" x="427.8807" y="-242.4" font-family="Helvetica,sans-Serif" font-size="11.00" fill="#000000">timestamp[26,3]</text>
<polygon fill="none" stroke="#000000" points="337,-212.7 337,-234.7 425,-234.7 425,-212.7 337,-212.7"/>
<text text-anchor="start" x="357" y="-219.8" font-family="Helvetica,sans-Serif" font-size="11.00" fill="#000000">updated_at</text>
<polygon fill="none" stroke="#000000" points="425,-212.7 425,-234.7 509,-234.7 509,-212.7 425,-212.7"/>
<text text-anchor="start" x="427.8807" y="-220.4" font-family="Helvetica,sans-Serif" font-size="11.00" fill="#000000">timestamp[26,3]</text>
<polygon fill="none" stroke="#000000" points="337,-190.7 337,-212.7 425,-212.7 425,-190.7 337,-190.7"/>
<image xlink:href="../../images/primaryKeys.png" width="11px" height="12px" preserveAspectRatio="xMinYMin meet" x="342" y="-207.7"/>
<text text-anchor="start" x="357" y="-197.8" font-family="Helvetica,sans-Serif" font-size="11.00" fill="#000000">user_id</text>
<polygon fill="none" stroke="#000000" points="425,-190.7 425,-212.7 509,-212.7 509,-190.7 425,-190.7"/>
<text text-anchor="start" x="428" y="-198.4" font-family="Helvetica,sans-Serif" font-size="11.00" fill="#000000">int4[10]</text>
<polygon fill="none" stroke="#000000" points="337,-168.7 337,-190.7 425,-190.7 425,-168.7 337,-168.7"/>
<image xlink:href="../../images/primaryKeys.png" width="11px" height="12px" preserveAspectRatio="xMinYMin meet" x="342" y="-185.7"/>
<text text-anchor="start" x="357" y="-175.8" font-family="Helvetica,sans-Serif" font-size="11.00" fill="#000000">chapter_id</text>
<polygon fill="none" stroke="#000000" points="425,-168.7 425,-190.7 509,-190.7 509,-168.7 425,-168.7"/>
<text text-anchor="start" x="428" y="-176.4" font-family="Helvetica,sans-Serif" font-size="11.00" fill="#000000">int4[10]</text>
<polygon fill="#ffffff" stroke="transparent" points="337,-149.7 337,-168.7 372,-168.7 372,-149.7 337,-149.7"/>
<polygon fill="none" stroke="#000000" points="337,-149.7 337,-168.7 372,-168.7 372,-149.7 337,-149.7"/>
<text text-anchor="start" x="340" y="-155.8" font-family="Helvetica,sans-Serif" font-size="11.00" fill="#000000">&lt; 2</text>
<polygon fill="#ffffff" stroke="transparent" points="372,-149.7 372,-168.7 425,-168.7 425,-149.7 372,-149.7"/>
<polygon fill="none" stroke="#000000" points="372,-149.7 372,-168.7 425,-168.7 425,-149.7 372,-149.7"/>
<text text-anchor="start" x="389.6105" y="-155.8" font-family="Helvetica,sans-Serif" font-size="11.00" fill="#000000">0 rows</text>
<polygon fill="#ffffff" stroke="transparent" points="425,-149.7 425,-168.7 509,-168.7 509,-149.7 425,-149.7"/>
<polygon fill="none" stroke="#000000" points="425,-149.7 425,-168.7 509,-168.7 509,-149.7 425,-149.7"/>
<text text-anchor="start" x="490.4053" y="-155.8" font-family="Helvetica,sans-Serif" font-size="11.00" fill="#000000">0 &gt;</text>
<polygon fill="none" stroke="#000000" stroke-width="2" points="336,-148.7 336,-280.7 510,-280.7 510,-148.7 336,-148.7"/>
</a>
</g>
</g>
<!-- user_bans&#45;&gt;chapters -->
<g id="edge9" class="edge">
<title>user_bans:w&#45;&gt;chapters:e</title>
<path fill="none" stroke="#000000" d="M322.4133,-181.8563C260.5051,-202.95 356.4601,-371.7 272,-371.7"/>
<polygon fill="#000000" stroke="#000000" points="329.086,-180.8699 337.5265,-183.2613 333.043,-180.285 337,-179.7 337,-179.7 337,-179.7 333.043,-180.285 336.4735,-176.1387 329.086,-180.8699 329.086,-180.8699"/>
<ellipse fill="none" stroke="#000000" cx="325.9204" cy="-181.3379" rx="3.2" ry="3.2"/>
</g>
<!-- user_bans&#45;&gt;users -->
<g id="edge10" class="edge">
<title>user_bans:w&#45;&gt;users:e</title>
<path fill="none" stroke="#000000" d="M322.9125,-197.2262C309.4862,-186.9822 308.5156,-162.7 286,-162.7"/>
<polygon fill="#000000" stroke="#000000" points="329.3752,-199.2786 335.9104,-205.1311 333.1876,-200.4893 337,-201.7 337,-201.7 337,-201.7 333.1876,-200.4893 338.0896,-198.2689 329.3752,-199.2786 329.3752,-199.2786"/>
<ellipse fill="none" stroke="#000000" cx="326.3253" cy="-198.31" rx="3.2" ry="3.2"/>
</g>
</g>
</svg>
