<?xml version="1.0" encoding="UTF-8" standalone="no"?>
<!DOCTYPE svg PUBLIC "-//W3C//DTD SVG 1.1//EN"
 "http://www.w3.org/Graphics/SVG/1.1/DTD/svg11.dtd">
<!-- Generated by graphviz version 2.40.1 (20161225.0304)
 -->
<!-- Title: twoDegreesRelationshipsDiagram Pages: 1 -->
<svg width="565pt" height="541pt"
 viewBox="0.00 0.00 565.00 540.70" xmlns="http://www.w3.org/2000/svg" xmlns:xlink="http://www.w3.org/1999/xlink">
<g id="graph0" class="graph" transform="scale(1 1) rotate(0) translate(4 536.7)">
<title>twoDegreesRelationshipsDiagram</title>
<polygon fill="#ffffff" stroke="transparent" points="-4,4 -4,-536.7 561,-536.7 561,4 -4,4"/>
<text text-anchor="middle" x="72.4936" y="-7.3" font-family="Helvetica,sans-Serif" font-size="11.00" fill="#000000">Generated by SchemaSpy</text>
<!-- event_reminders -->
<g id="node1" class="node">
<title>event_reminders</title>
<g id="a_node1"><a xlink:href="../../tables/event_reminders.html" xlink:title="event_reminders" target="_top">
<polygon fill="#ffffff" stroke="transparent" points="425,-467.7 425,-528.7 549,-528.7 549,-467.7 425,-467.7"/>
<polygon fill="#f5f5f5" stroke="transparent" points="425,-505.2 425,-528.2 549,-528.2 549,-505.2 425,-505.2"/>
<polygon fill="none" stroke="#000000" points="425,-505.2 425,-528.2 549,-528.2 549,-505.2 425,-505.2"/>
<text text-anchor="start" x="429.5487" y="-514.3" font-family="Helvetica,sans-Serif" font-weight="bold" font-size="11.00" fill="#000000">event_reminders</text>
<text text-anchor="start" x="514.5219" y="-513.3" font-family="Helvetica,sans-Serif" font-size="11.00" fill="#000000">[table]</text>
<polygon fill="none" stroke="#000000" points="425,-486.2 425,-505.2 549,-505.2 549,-486.2 425,-486.2"/>
<text text-anchor="start" x="428" y="-492.3" font-family="Helvetica,sans-Serif" font-size="11.00" fill="#000000">...</text>
<polygon fill="#ffffff" stroke="transparent" points="425,-467.2 425,-486.2 472,-486.2 472,-467.2 425,-467.2"/>
<polygon fill="none" stroke="#000000" points="425,-467.2 425,-486.2 472,-486.2 472,-467.2 425,-467.2"/>
<text text-anchor="start" x="428" y="-473.3" font-family="Helvetica,sans-Serif" font-size="11.00" fill="#000000">&lt; 4</text>
<polygon fill="#ffffff" stroke="transparent" points="472,-467.2 472,-486.2 523,-486.2 523,-467.2 472,-467.2"/>
<polygon fill="none" stroke="#000000" points="472,-467.2 472,-486.2 523,-486.2 523,-467.2 472,-467.2"/>
<text text-anchor="start" x="487.6105" y="-473.3" font-family="Helvetica,sans-Serif" font-size="11.00" fill="#000000">0 rows</text>
<polygon fill="#ffffff" stroke="transparent" points="523,-467.2 523,-486.2 549,-486.2 549,-467.2 523,-467.2"/>
<polygon fill="none" stroke="#000000" points="523,-467.2 523,-486.2 549,-486.2 549,-467.2 523,-467.2"/>
<text text-anchor="start" x="539.8862" y="-473.3" font-family="Helvetica,sans-Serif" font-size="11.00" fill="#000000"> &#160;</text>
</a>
</g>
</g>
<!-- rsvps -->
<g id="node2" class="node">
<title>rsvps</title>
<g id="a_node2"><a xlink:href="../../tables/rsvps.html" xlink:title="rsvps" target="_top">
<polygon fill="#ffffff" stroke="transparent" points="220.5,-467.7 220.5,-528.7 300.5,-528.7 300.5,-467.7 220.5,-467.7"/>
<polygon fill="#f5f5f5" stroke="transparent" points="220.5,-505.2 220.5,-528.2 300.5,-528.2 300.5,-505.2 220.5,-505.2"/>
<polygon fill="none" stroke="#000000" points="220.5,-505.2 220.5,-528.2 300.5,-528.2 300.5,-505.2 220.5,-505.2"/>
<text text-anchor="start" x="225.5" y="-514.3" font-family="Helvetica,sans-Serif" font-weight="bold" font-size="11.00" fill="#000000">rsvps</text>
<text text-anchor="start" x="265.5437" y="-513.3" font-family="Helvetica,sans-Serif" font-size="11.00" fill="#000000">[table]</text>
<polygon fill="none" stroke="#000000" points="220.5,-486.2 220.5,-505.2 300.5,-505.2 300.5,-486.2 220.5,-486.2"/>
<text text-anchor="start" x="223.5" y="-492.3" font-family="Helvetica,sans-Serif" font-size="11.00" fill="#000000">...</text>
<polygon fill="#ffffff" stroke="transparent" points="220.5,-467.2 220.5,-486.2 241.5,-486.2 241.5,-467.2 220.5,-467.2"/>
<polygon fill="none" stroke="#000000" points="220.5,-467.2 220.5,-486.2 241.5,-486.2 241.5,-467.2 220.5,-467.2"/>
<text text-anchor="start" x="223.2027" y="-473.3" font-family="Helvetica,sans-Serif" font-size="11.00" fill="#000000">&lt; 2</text>
<polygon fill="#ffffff" stroke="transparent" points="241.5,-467.2 241.5,-486.2 279.5,-486.2 279.5,-467.2 241.5,-467.2"/>
<polygon fill="none" stroke="#000000" points="241.5,-467.2 241.5,-486.2 279.5,-486.2 279.5,-467.2 241.5,-467.2"/>
<text text-anchor="start" x="244.3053" y="-473.3" font-family="Helvetica,sans-Serif" font-size="11.00" fill="#000000">0 rows</text>
<polygon fill="#ffffff" stroke="transparent" points="279.5,-467.2 279.5,-486.2 300.5,-486.2 300.5,-467.2 279.5,-467.2"/>
<polygon fill="none" stroke="#000000" points="279.5,-467.2 279.5,-486.2 300.5,-486.2 300.5,-467.2 279.5,-467.2"/>
<text text-anchor="start" x="282.2027" y="-473.3" font-family="Helvetica,sans-Serif" font-size="11.00" fill="#000000">2 &gt;</text>
</a>
</g>
</g>
<!-- event_reminders&#45;&gt;rsvps -->
<g id="edge1" class="edge">
<title>event_reminders:w&#45;&gt;rsvps:e</title>
<path fill="none" stroke="#000000" d="M410.4633,-493.6707C366.7082,-489.2527 350.6458,-489.7625 300.5,-495.2"/>
<polygon fill="#000000" stroke="#000000" points="417.0439,-494.3629 424.6233,-498.7802 421.022,-494.7815 425,-495.2 425,-495.2 425,-495.2 421.022,-494.7815 425.3767,-491.6198 417.0439,-494.3629 417.0439,-494.3629"/>
<ellipse fill="none" stroke="#000000" cx="413.8615" cy="-494.0281" rx="3.2" ry="3.2"/>
</g>
<!-- event_reminders&#45;&gt;rsvps -->
<g id="edge2" class="edge">
<title>event_reminders:w&#45;&gt;rsvps:e</title>
<path fill="none" stroke="#000000" d="M410.4633,-496.9842C366.7082,-502.1385 350.6458,-501.5438 300.5,-495.2"/>
<polygon fill="#000000" stroke="#000000" points="417.0596,-496.1746 425.4386,-498.7732 421.0298,-495.6873 425,-495.2 425,-495.2 425,-495.2 421.0298,-495.6873 424.5614,-491.6268 417.0596,-496.1746 417.0596,-496.1746"/>
<ellipse fill="none" stroke="#000000" cx="413.8834" cy="-496.5645" rx="3.2" ry="3.2"/>
</g>
<!-- users -->
<g id="node3" class="node">
<title>users</title>
<g id="a_node3"><a xlink:href="../../tables/users.html" xlink:title="users" target="_top">
<polygon fill="#ffffff" stroke="transparent" points="8,-273.7 8,-378.7 96,-378.7 96,-273.7 8,-273.7"/>
<polygon fill="#f5f5f5" stroke="transparent" points="8,-355.2 8,-378.2 96,-378.2 96,-355.2 8,-355.2"/>
<polygon fill="none" stroke="#000000" points="8,-355.2 8,-378.2 96,-378.2 96,-355.2 8,-355.2"/>
<text text-anchor="start" x="13" y="-364.3" font-family="Helvetica,sans-Serif" font-weight="bold" font-size="11.00" fill="#000000">users</text>
<text text-anchor="start" x="61.0437" y="-363.3" font-family="Helvetica,sans-Serif" font-size="11.00" fill="#000000">[table]</text>
<polygon fill="none" stroke="#000000" points="8,-333.2 8,-355.2 96,-355.2 96,-333.2 8,-333.2"/>
<image xlink:href="../../images/primaryKeys.png" width="11px" height="12px" preserveAspectRatio="xMinYMin meet" x="13" y="-350.2"/>
<text text-anchor="start" x="28" y="-340.3" font-family="Helvetica,sans-Serif" font-size="11.00" fill="#000000">id</text>
<polygon fill="#ffffff" stroke="transparent" points="8,-311.2 8,-333.2 96,-333.2 96,-311.2 8,-311.2"/>
<polygon fill="none" stroke="#000000" points="8,-311.2 8,-333.2 96,-333.2 96,-311.2 8,-311.2"/>
<text text-anchor="start" x="28" y="-318.3" font-family="Helvetica,sans-Serif" font-size="11.00" fill="#000000">email</text>
<polygon fill="none" stroke="#000000" points="8,-292.2 8,-311.2 96,-311.2 96,-292.2 8,-292.2"/>
<text text-anchor="start" x="11" y="-298.3" font-family="Helvetica,sans-Serif" font-size="11.00" fill="#000000">...</text>
<polygon fill="#ffffff" stroke="transparent" points="8,-273.2 8,-292.2 28,-292.2 28,-273.2 8,-273.2"/>
<polygon fill="none" stroke="#000000" points="8,-273.2 8,-292.2 28,-292.2 28,-273.2 8,-273.2"/>
<text text-anchor="start" x="11" y="-279.3" font-family="Helvetica,sans-Serif" font-size="11.00" fill="#000000"> &#160;</text>
<polygon fill="#ffffff" stroke="transparent" points="28,-273.2 28,-292.2 70,-292.2 70,-273.2 28,-273.2"/>
<polygon fill="none" stroke="#000000" points="28,-273.2 28,-292.2 70,-292.2 70,-273.2 28,-273.2"/>
<text text-anchor="start" x="34.6105" y="-279.3" font-family="Helvetica,sans-Serif" font-size="11.00" fill="#000000">0 rows</text>
<polygon fill="#ffffff" stroke="transparent" points="70,-273.2 70,-292.2 96,-292.2 96,-273.2 70,-273.2"/>
<polygon fill="none" stroke="#000000" points="70,-273.2 70,-292.2 96,-292.2 96,-273.2 70,-273.2"/>
<text text-anchor="start" x="77.4053" y="-279.3" font-family="Helvetica,sans-Serif" font-size="11.00" fill="#000000">6 &gt;</text>
</a>
</g>
</g>
<!-- event_reminders&#45;&gt;users -->
<g id="edge3" class="edge">
<title>event_reminders:w&#45;&gt;users:e</title>
<path fill="none" stroke="#000000" d="M411.2877,-490.7195C401.5552,-482.4603 400.9363,-464.9706 384,-457.2 283.584,-411.1277 227.1024,-493.1342 137,-429.2 102.7936,-404.928 137.9429,-344.2 96,-344.2"/>
<polygon fill="#000000" stroke="#000000" points="417.3957,-492.7152 423.8819,-498.622 421.1978,-493.9576 425,-495.2 425,-495.2 425,-495.2 421.1978,-493.9576 426.1181,-491.778 417.3957,-492.7152 417.3957,-492.7152"/>
<ellipse fill="none" stroke="#000000" cx="414.3539" cy="-491.7213" rx="3.2" ry="3.2"/>
</g>
<!-- rsvps&#45;&gt;users -->
<g id="edge4" class="edge">
<title>rsvps:w&#45;&gt;users:e</title>
<path fill="none" stroke="#000000" d="M205.7112,-494.6277C175.0756,-492.0076 161.1926,-480.1104 137,-453.2 102.3967,-414.7094 147.7582,-344.2 96,-344.2"/>
<polygon fill="#000000" stroke="#000000" points="212.506,-494.8906 220.3608,-498.7973 216.503,-495.0453 220.5,-495.2 220.5,-495.2 220.5,-495.2 216.503,-495.0453 220.6392,-491.6027 212.506,-494.8906 212.506,-494.8906"/>
<ellipse fill="none" stroke="#000000" cx="209.3084" cy="-494.7668" rx="3.2" ry="3.2"/>
</g>
<!-- user_bans -->
<g id="node4" class="node">
<title>user_bans</title>
<g id="a_node4"><a xlink:href="../../tables/user_bans.html" xlink:title="user_bans" target="_top">
<polygon fill="#ffffff" stroke="transparent" points="213.5,-357.7 213.5,-418.7 307.5,-418.7 307.5,-357.7 213.5,-357.7"/>
<polygon fill="#f5f5f5" stroke="transparent" points="213.5,-395.2 213.5,-418.2 307.5,-418.2 307.5,-395.2 213.5,-395.2"/>
<polygon fill="none" stroke="#000000" points="213.5,-395.2 213.5,-418.2 307.5,-418.2 307.5,-395.2 213.5,-395.2"/>
<text text-anchor="start" x="218.3244" y="-404.3" font-family="Helvetica,sans-Serif" font-weight="bold" font-size="11.00" fill="#000000">user_bans</text>
<text text-anchor="start" x="273.0219" y="-403.3" font-family="Helvetica,sans-Serif" font-size="11.00" fill="#000000">[table]</text>
<polygon fill="none" stroke="#000000" points="213.5,-376.2 213.5,-395.2 307.5,-395.2 307.5,-376.2 213.5,-376.2"/>
<text text-anchor="start" x="216.5" y="-382.3" font-family="Helvetica,sans-Serif" font-size="11.00" fill="#000000">...</text>
<polygon fill="#ffffff" stroke="transparent" points="213.5,-357.2 213.5,-376.2 245.5,-376.2 245.5,-357.2 213.5,-357.2"/>
<polygon fill="none" stroke="#000000" points="213.5,-357.2 213.5,-376.2 245.5,-376.2 245.5,-357.2 213.5,-357.2"/>
<text text-anchor="start" x="216.5" y="-363.3" font-family="Helvetica,sans-Serif" font-size="11.00" fill="#000000">&lt; 2</text>
<polygon fill="#ffffff" stroke="transparent" points="245.5,-357.2 245.5,-376.2 289.5,-376.2 289.5,-357.2 245.5,-357.2"/>
<polygon fill="none" stroke="#000000" points="245.5,-357.2 245.5,-376.2 289.5,-376.2 289.5,-357.2 245.5,-357.2"/>
<text text-anchor="start" x="254.1105" y="-363.3" font-family="Helvetica,sans-Serif" font-size="11.00" fill="#000000">0 rows</text>
<polygon fill="#ffffff" stroke="transparent" points="289.5,-357.2 289.5,-376.2 307.5,-376.2 307.5,-357.2 289.5,-357.2"/>
<polygon fill="none" stroke="#000000" points="289.5,-357.2 289.5,-376.2 307.5,-376.2 307.5,-357.2 289.5,-357.2"/>
<text text-anchor="start" x="298.3862" y="-363.3" font-family="Helvetica,sans-Serif" font-size="11.00" fill="#000000"> &#160;</text>
</a>
</g>
</g>
<!-- user_bans&#45;&gt;users -->
<g id="edge5" class="edge">
<title>user_bans:w&#45;&gt;users:e</title>
<path fill="none" stroke="#000000" d="M198.8658,-384.1453C156.4295,-377.7279 146.0168,-344.2 96,-344.2"/>
<polygon fill="#000000" stroke="#000000" points="205.5207,-384.6249 213.2412,-388.7907 209.5103,-384.9124 213.5,-385.2 213.5,-385.2 213.5,-385.2 209.5103,-384.9124 213.7588,-381.6093 205.5207,-384.6249 205.5207,-384.6249"/>
<ellipse fill="none" stroke="#000000" cx="202.329" cy="-384.3948" rx="3.2" ry="3.2"/>
</g>
<!-- user_chapter_roles -->
<g id="node5" class="node">
<title>user_chapter_roles</title>
<g id="a_node5"><a xlink:href="../../tables/user_chapter_roles.html" xlink:title="user_chapter_roles" target="_top">
<polygon fill="#ffffff" stroke="transparent" points="192,-275.7 192,-336.7 329,-336.7 329,-275.7 192,-275.7"/>
<polygon fill="#f5f5f5" stroke="transparent" points="192.5,-313.2 192.5,-336.2 329.5,-336.2 329.5,-313.2 192.5,-313.2"/>
<polygon fill="none" stroke="#000000" points="192.5,-313.2 192.5,-336.2 329.5,-336.2 329.5,-313.2 192.5,-313.2"/>
<text text-anchor="start" x="197.4338" y="-322.3" font-family="Helvetica,sans-Serif" font-weight="bold" font-size="11.00" fill="#000000">user_chapter_roles</text>
<text text-anchor="start" x="295.0219" y="-321.3" font-family="Helvetica,sans-Serif" font-size="11.00" fill="#000000">[table]</text>
<polygon fill="none" stroke="#000000" points="192.5,-294.2 192.5,-313.2 329.5,-313.2 329.5,-294.2 192.5,-294.2"/>
<text text-anchor="start" x="195.5" y="-300.3" font-family="Helvetica,sans-Serif" font-size="11.00" fill="#000000">...</text>
<polygon fill="#ffffff" stroke="transparent" points="192.5,-275.2 192.5,-294.2 246.5,-294.2 246.5,-275.2 192.5,-275.2"/>
<polygon fill="none" stroke="#000000" points="192.5,-275.2 192.5,-294.2 246.5,-294.2 246.5,-275.2 192.5,-275.2"/>
<text text-anchor="start" x="195.5" y="-281.3" font-family="Helvetica,sans-Serif" font-size="11.00" fill="#000000">&lt; 2</text>
<polygon fill="#ffffff" stroke="transparent" points="246.5,-275.2 246.5,-294.2 300.5,-294.2 300.5,-275.2 246.5,-275.2"/>
<polygon fill="none" stroke="#000000" points="246.5,-275.2 246.5,-294.2 300.5,-294.2 300.5,-275.2 246.5,-275.2"/>
<text text-anchor="start" x="265.1105" y="-281.3" font-family="Helvetica,sans-Serif" font-size="11.00" fill="#000000">0 rows</text>
<polygon fill="#ffffff" stroke="transparent" points="300.5,-275.2 300.5,-294.2 329.5,-294.2 329.5,-275.2 300.5,-275.2"/>
<polygon fill="none" stroke="#000000" points="300.5,-275.2 300.5,-294.2 329.5,-294.2 329.5,-275.2 300.5,-275.2"/>
<text text-anchor="start" x="320.3862" y="-281.3" font-family="Helvetica,sans-Serif" font-size="11.00" fill="#000000"> &#160;</text>
</a>
</g>
</g>
<!-- user_chapter_roles&#45;&gt;users -->
<g id="edge6" class="edge">
<title>user_chapter_roles:w&#45;&gt;users:e</title>
<path fill="none" stroke="#000000" d="M177.7619,-304.7572C144.5323,-312.2463 137.1386,-344.2 96,-344.2"/>
<polygon fill="#000000" stroke="#000000" points="184.5443,-304.0406 192.8783,-306.7801 188.5221,-303.6203 192.5,-303.2 192.5,-303.2 192.5,-303.2 188.5221,-303.6203 192.1217,-299.6199 184.5443,-304.0406 184.5443,-304.0406"/>
<ellipse fill="none" stroke="#000000" cx="181.362" cy="-304.3769" rx="3.2" ry="3.2"/>
</g>
<!-- user_event_roles -->
<g id="node6" class="node">
<title>user_event_roles</title>
<g id="a_node6"><a xlink:href="../../tables/user_event_roles.html" xlink:title="user_event_roles" target="_top">
<polygon fill="#ffffff" stroke="transparent" points="197,-193.7 197,-254.7 324,-254.7 324,-193.7 197,-193.7"/>
<polygon fill="#f5f5f5" stroke="transparent" points="197.5,-231.2 197.5,-254.2 324.5,-254.2 324.5,-231.2 197.5,-231.2"/>
<polygon fill="none" stroke="#000000" points="197.5,-231.2 197.5,-254.2 324.5,-254.2 324.5,-231.2 197.5,-231.2"/>
<text text-anchor="start" x="202.3222" y="-240.3" font-family="Helvetica,sans-Serif" font-weight="bold" font-size="11.00" fill="#000000">user_event_roles</text>
<text text-anchor="start" x="290.0219" y="-239.3" font-family="Helvetica,sans-Serif" font-size="11.00" fill="#000000">[table]</text>
<polygon fill="none" stroke="#000000" points="197.5,-212.2 197.5,-231.2 324.5,-231.2 324.5,-212.2 197.5,-212.2"/>
<text text-anchor="start" x="200.5" y="-218.3" font-family="Helvetica,sans-Serif" font-size="11.00" fill="#000000">...</text>
<polygon fill="#ffffff" stroke="transparent" points="197.5,-193.2 197.5,-212.2 246.5,-212.2 246.5,-193.2 197.5,-193.2"/>
<polygon fill="none" stroke="#000000" points="197.5,-193.2 197.5,-212.2 246.5,-212.2 246.5,-193.2 197.5,-193.2"/>
<text text-anchor="start" x="200.5" y="-199.3" font-family="Helvetica,sans-Serif" font-size="11.00" fill="#000000">&lt; 2</text>
<polygon fill="#ffffff" stroke="transparent" points="246.5,-193.2 246.5,-212.2 298.5,-212.2 298.5,-193.2 246.5,-193.2"/>
<polygon fill="none" stroke="#000000" points="246.5,-193.2 246.5,-212.2 298.5,-212.2 298.5,-193.2 246.5,-193.2"/>
<text text-anchor="start" x="263.1105" y="-199.3" font-family="Helvetica,sans-Serif" font-size="11.00" fill="#000000">0 rows</text>
<polygon fill="#ffffff" stroke="transparent" points="298.5,-193.2 298.5,-212.2 324.5,-212.2 324.5,-193.2 298.5,-193.2"/>
<polygon fill="none" stroke="#000000" points="298.5,-193.2 298.5,-212.2 324.5,-212.2 324.5,-193.2 298.5,-193.2"/>
<text text-anchor="start" x="315.3862" y="-199.3" font-family="Helvetica,sans-Serif" font-size="11.00" fill="#000000"> &#160;</text>
</a>
</g>
</g>
<!-- user_event_roles&#45;&gt;users -->
<g id="edge7" class="edge">
<title>user_event_roles:w&#45;&gt;users:e</title>
<path fill="none" stroke="#000000" d="M182.8812,-222.732C161.926,-227.6945 155.0395,-244.2276 137,-265.2 111.2039,-295.19 135.5581,-344.2 96,-344.2"/>
<polygon fill="#000000" stroke="#000000" points="189.5436,-222.0339 197.8752,-224.7804 193.5218,-221.6169 197.5,-221.2 197.5,-221.2 197.5,-221.2 193.5218,-221.6169 197.1248,-217.6196 189.5436,-222.0339 189.5436,-222.0339"/>
<ellipse fill="none" stroke="#000000" cx="186.361" cy="-222.3674" rx="3.2" ry="3.2"/>
</g>
<!-- user_instance_roles -->
<g id="node7" class="node">
<title>user_instance_roles</title>
<g id="a_node7"><a xlink:href="../../tables/user_instance_roles.html" xlink:title="user_instance_roles" target="_top">
<polygon fill="#ffffff" stroke="transparent" points="145,-38.2 145,-172.2 376,-172.2 376,-38.2 145,-38.2"/>
<polygon fill="#f5f5f5" stroke="transparent" points="147.5,-147.2 147.5,-170.2 374.5,-170.2 374.5,-147.2 147.5,-147.2"/>
<polygon fill="none" stroke="#000000" points="147.5,-147.2 147.5,-170.2 374.5,-170.2 374.5,-147.2 147.5,-147.2"/>
<text text-anchor="start" x="152.5" y="-156.3" font-family="Helvetica,sans-Serif" font-weight="bold" font-size="11.00" fill="#000000">user_instance_roles</text>
<text text-anchor="start" x="339.5437" y="-155.3" font-family="Helvetica,sans-Serif" font-size="11.00" fill="#000000">[table]</text>
<polygon fill="none" stroke="#000000" points="147.5,-125.2 147.5,-147.2 284.5,-147.2 284.5,-125.2 147.5,-125.2"/>
<text text-anchor="start" x="167.5" y="-132.3" font-family="Helvetica,sans-Serif" font-size="11.00" fill="#000000">created_at</text>
<polygon fill="none" stroke="#000000" points="284.5,-125.2 284.5,-147.2 374.5,-147.2 374.5,-125.2 284.5,-125.2"/>
<text text-anchor="start" x="287.5" y="-132.9" font-family="Helvetica,sans-Serif" font-size="11.00" fill="#000000">timestamp[26,3]</text>
<polygon fill="none" stroke="#000000" points="147.5,-103.2 147.5,-125.2 284.5,-125.2 284.5,-103.2 147.5,-103.2"/>
<text text-anchor="start" x="167.5" y="-110.3" font-family="Helvetica,sans-Serif" font-size="11.00" fill="#000000">updated_at</text>
<polygon fill="none" stroke="#000000" points="284.5,-103.2 284.5,-125.2 374.5,-125.2 374.5,-103.2 284.5,-103.2"/>
<text text-anchor="start" x="287.5" y="-110.9" font-family="Helvetica,sans-Serif" font-size="11.00" fill="#000000">timestamp[26,3]</text>
<polygon fill="none" stroke="#000000" points="147.5,-81.2 147.5,-103.2 284.5,-103.2 284.5,-81.2 147.5,-81.2"/>
<image xlink:href="../../images/primaryKeys.png" width="11px" height="12px" preserveAspectRatio="xMinYMin meet" x="152.5" y="-98.2"/>
<text text-anchor="start" x="167.5" y="-88.3" font-family="Helvetica,sans-Serif" font-size="11.00" fill="#000000">user_id</text>
<polygon fill="none" stroke="#000000" points="284.5,-81.2 284.5,-103.2 374.5,-103.2 374.5,-81.2 284.5,-81.2"/>
<text text-anchor="start" x="287.5" y="-88.9" font-family="Helvetica,sans-Serif" font-size="11.00" fill="#000000">int4[10]</text>
<polygon fill="none" stroke="#000000" points="147.5,-59.2 147.5,-81.2 284.5,-81.2 284.5,-59.2 147.5,-59.2"/>
<image xlink:href="../../images/primaryKeys.png" width="11px" height="12px" preserveAspectRatio="xMinYMin meet" x="152.5" y="-76.2"/>
<text text-anchor="start" x="167.5" y="-66.3" font-family="Helvetica,sans-Serif" font-size="11.00" fill="#000000">role_name</text>
<polygon fill="none" stroke="#000000" points="284.5,-59.2 284.5,-81.2 374.5,-81.2 374.5,-59.2 284.5,-59.2"/>
<text text-anchor="start" x="287.0043" y="-66.9" font-family="Helvetica,sans-Serif" font-size="11.00" fill="#000000">text[2147483647]</text>
<polygon fill="#ffffff" stroke="transparent" points="147.5,-40.2 147.5,-59.2 207.5,-59.2 207.5,-40.2 147.5,-40.2"/>
<polygon fill="none" stroke="#000000" points="147.5,-40.2 147.5,-59.2 207.5,-59.2 207.5,-40.2 147.5,-40.2"/>
<text text-anchor="start" x="150.5" y="-46.3" font-family="Helvetica,sans-Serif" font-size="11.00" fill="#000000">&lt; 1</text>
<polygon fill="#ffffff" stroke="transparent" points="207.5,-40.2 207.5,-59.2 284.5,-59.2 284.5,-40.2 207.5,-40.2"/>
<polygon fill="none" stroke="#000000" points="207.5,-40.2 207.5,-59.2 284.5,-59.2 284.5,-40.2 207.5,-40.2"/>
<text text-anchor="start" x="249.1105" y="-46.3" font-family="Helvetica,sans-Serif" font-size="11.00" fill="#000000">0 rows</text>
<polygon fill="#ffffff" stroke="transparent" points="284.5,-40.2 284.5,-59.2 374.5,-59.2 374.5,-40.2 284.5,-40.2"/>
<polygon fill="none" stroke="#000000" points="284.5,-40.2 284.5,-59.2 374.5,-59.2 374.5,-40.2 284.5,-40.2"/>
<text text-anchor="start" x="355.9053" y="-46.3" font-family="Helvetica,sans-Serif" font-size="11.00" fill="#000000">0 &gt;</text>
<polygon fill="none" stroke="#000000" stroke-width="2" points="146,-39.2 146,-171.2 375,-171.2 375,-39.2 146,-39.2"/>
</a>
</g>
</g>
<!-- user_instance_roles&#45;&gt;users -->
<g id="edge8" class="edge">
<title>user_instance_roles:w&#45;&gt;users:e</title>
<path fill="none" stroke="#000000" d="M133.0277,-93.8758C49.4696,-115.7402 204.8448,-344.2 96,-344.2"/>
<polygon fill="#000000" stroke="#000000" points="139.5531,-93.1203 147.9141,-95.7761 143.5266,-92.6601 147.5,-92.2 147.5,-92.2 147.5,-92.2 143.5266,-92.6601 147.0859,-88.6239 139.5531,-93.1203 139.5531,-93.1203"/>
<ellipse fill="none" stroke="#000000" cx="136.3743" cy="-93.4884" rx="3.2" ry="3.2"/>
</g>
</g>
</svg>
