<?xml version="1.0" encoding="UTF-8" standalone="no"?>
<!DOCTYPE svg PUBLIC "-//W3C//DTD SVG 1.1//EN"
 "http://www.w3.org/Graphics/SVG/1.1/DTD/svg11.dtd">
<!-- Generated by graphviz version 2.40.1 (20161225.0304)
 -->
<!-- Title: oneDegreeRelationshipsDiagram Pages: 1 -->
<svg width="417pt" height="140pt"
 viewBox="0.00 0.00 417.00 140.20" xmlns="http://www.w3.org/2000/svg" xmlns:xlink="http://www.w3.org/1999/xlink">
<g id="graph0" class="graph" transform="scale(1 1) rotate(0) translate(4 136.2)">
<title>oneDegreeRelationshipsDiagram</title>
<polygon fill="#ffffff" stroke="transparent" points="-4,4 -4,-136.2 413,-136.2 413,4 -4,4"/>
<text text-anchor="middle" x="72.4936" y="-7.3" font-family="Helvetica,sans-Serif" font-size="11.00" fill="#000000">Generated by SchemaSpy</text>
<!-- user_instance_roles -->
<g id="node1" class="node">
<title>user_instance_roles</title>
<g id="a_node1"><a xlink:href="../../tables/user_instance_roles.html" xlink:title="user_instance_roles" target="_top">
<polygon fill="#ffffff" stroke="transparent" points="154,-38.2 154,-128.2 401,-128.2 401,-38.2 154,-38.2"/>
<polygon fill="#f5f5f5" stroke="transparent" points="156.5,-103.2 156.5,-126.2 399.5,-126.2 399.5,-103.2 156.5,-103.2"/>
<polygon fill="none" stroke="#000000" points="156.5,-103.2 156.5,-126.2 399.5,-126.2 399.5,-103.2 156.5,-103.2"/>
<text text-anchor="start" x="161.5" y="-112.3" font-family="Helvetica,sans-Serif" font-weight="bold" font-size="11.00" fill="#000000">user_instance_roles</text>
<text text-anchor="start" x="364.5437" y="-111.3" font-family="Helvetica,sans-Serif" font-size="11.00" fill="#000000">[table]</text>
<polygon fill="none" stroke="#000000" points="156.5,-81.2 156.5,-103.2 309.5,-103.2 309.5,-81.2 156.5,-81.2"/>
<image xlink:href="../../images/primaryKeys.png" width="11px" height="12px" preserveAspectRatio="xMinYMin meet" x="161.5" y="-98.2"/>
<text text-anchor="start" x="176.5" y="-88.3" font-family="Helvetica,sans-Serif" font-size="11.00" fill="#000000">user_id</text>
<polygon fill="none" stroke="#000000" points="309.5,-81.2 309.5,-103.2 399.5,-103.2 399.5,-81.2 309.5,-81.2"/>
<text text-anchor="start" x="312.5" y="-88.9" font-family="Helvetica,sans-Serif" font-size="11.00" fill="#000000">int4[10]</text>
<polygon fill="none" stroke="#000000" points="156.5,-59.2 156.5,-81.2 309.5,-81.2 309.5,-59.2 156.5,-59.2"/>
<image xlink:href="../../images/primaryKeys.png" width="11px" height="12px" preserveAspectRatio="xMinYMin meet" x="161.5" y="-76.2"/>
<text text-anchor="start" x="176.5" y="-66.3" font-family="Helvetica,sans-Serif" font-size="11.00" fill="#000000">role_name</text>
<polygon fill="none" stroke="#000000" points="309.5,-59.2 309.5,-81.2 399.5,-81.2 399.5,-59.2 309.5,-59.2"/>
<text text-anchor="start" x="312.0043" y="-66.9" font-family="Helvetica,sans-Serif" font-size="11.00" fill="#000000">text[2147483647]</text>
<polygon fill="#ffffff" stroke="transparent" points="156.5,-40.2 156.5,-59.2 224.5,-59.2 224.5,-40.2 156.5,-40.2"/>
<polygon fill="none" stroke="#000000" points="156.5,-40.2 156.5,-59.2 224.5,-59.2 224.5,-40.2 156.5,-40.2"/>
<text text-anchor="start" x="159.5" y="-46.3" font-family="Helvetica,sans-Serif" font-size="11.00" fill="#000000">&lt; 1</text>
<polygon fill="#ffffff" stroke="transparent" points="224.5,-40.2 224.5,-59.2 309.5,-59.2 309.5,-40.2 224.5,-40.2"/>
<polygon fill="none" stroke="#000000" points="224.5,-40.2 224.5,-59.2 309.5,-59.2 309.5,-40.2 224.5,-40.2"/>
<text text-anchor="start" x="274.1105" y="-46.3" font-family="Helvetica,sans-Serif" font-size="11.00" fill="#000000">0 rows</text>
<polygon fill="#ffffff" stroke="transparent" points="309.5,-40.2 309.5,-59.2 399.5,-59.2 399.5,-40.2 309.5,-40.2"/>
<polygon fill="none" stroke="#000000" points="309.5,-40.2 309.5,-59.2 399.5,-59.2 399.5,-40.2 309.5,-40.2"/>
<text text-anchor="start" x="380.9053" y="-46.3" font-family="Helvetica,sans-Serif" font-size="11.00" fill="#000000">0 &gt;</text>
<polygon fill="none" stroke="#000000" stroke-width="2" points="155,-39.2 155,-127.2 400,-127.2 400,-39.2 155,-39.2"/>
</a>
</g>
</g>
<!-- users -->
<g id="node2" class="node">
<title>users</title>
<g id="a_node2"><a xlink:href="../../tables/users.html" xlink:title="users" target="_top">
<polygon fill="#ffffff" stroke="transparent" points="8,-43.7 8,-126.7 105,-126.7 105,-43.7 8,-43.7"/>
<polygon fill="#f5f5f5" stroke="transparent" points="8.5,-103.2 8.5,-126.2 105.5,-126.2 105.5,-103.2 8.5,-103.2"/>
<polygon fill="none" stroke="#000000" points="8.5,-103.2 8.5,-126.2 105.5,-126.2 105.5,-103.2 8.5,-103.2"/>
<text text-anchor="start" x="13.5" y="-112.3" font-family="Helvetica,sans-Serif" font-weight="bold" font-size="11.00" fill="#000000">users</text>
<text text-anchor="start" x="70.5437" y="-111.3" font-family="Helvetica,sans-Serif" font-size="11.00" fill="#000000">[table]</text>
<polygon fill="none" stroke="#000000" points="8.5,-81.2 8.5,-103.2 105.5,-103.2 105.5,-81.2 8.5,-81.2"/>
<image xlink:href="../../images/primaryKeys.png" width="11px" height="12px" preserveAspectRatio="xMinYMin meet" x="13.5" y="-98.2"/>
<text text-anchor="start" x="28.5" y="-88.3" font-family="Helvetica,sans-Serif" font-size="11.00" fill="#000000">id</text>
<polygon fill="none" stroke="#000000" points="8.5,-62.2 8.5,-81.2 105.5,-81.2 105.5,-62.2 8.5,-62.2"/>
<text text-anchor="start" x="11.5" y="-68.3" font-family="Helvetica,sans-Serif" font-size="11.00" fill="#000000">...</text>
<polygon fill="#ffffff" stroke="transparent" points="8.5,-43.2 8.5,-62.2 36.5,-62.2 36.5,-43.2 8.5,-43.2"/>
<polygon fill="none" stroke="#000000" points="8.5,-43.2 8.5,-62.2 36.5,-62.2 36.5,-43.2 8.5,-43.2"/>
<text text-anchor="start" x="11.5" y="-49.3" font-family="Helvetica,sans-Serif" font-size="11.00" fill="#000000"> &#160;</text>
<polygon fill="#ffffff" stroke="transparent" points="36.5,-43.2 36.5,-62.2 76.5,-62.2 76.5,-43.2 36.5,-43.2"/>
<polygon fill="none" stroke="#000000" points="36.5,-43.2 36.5,-62.2 76.5,-62.2 76.5,-43.2 36.5,-43.2"/>
<text text-anchor="start" x="46.6105" y="-49.3" font-family="Helvetica,sans-Serif" font-size="11.00" fill="#000000">1 row</text>
<polygon fill="#ffffff" stroke="transparent" points="76.5,-43.2 76.5,-62.2 105.5,-62.2 105.5,-43.2 76.5,-43.2"/>
<polygon fill="none" stroke="#000000" points="76.5,-43.2 76.5,-62.2 105.5,-62.2 105.5,-43.2 76.5,-43.2"/>
<text text-anchor="start" x="86.9053" y="-49.3" font-family="Helvetica,sans-Serif" font-size="11.00" fill="#000000">6 &gt;</text>
</a>
</g>
</g>
<!-- user_instance_roles&#45;&gt;users -->
<g id="edge1" class="edge">
<title>user_instance_roles:w&#45;&gt;users:e</title>
<path fill="none" stroke="#000000" d="M141.776,-92.2C129.7815,-92.2 122.3229,-92.2 105.5,-92.2"/>
<polygon fill="#000000" stroke="#000000" points="148.5,-92.2001 156.5,-95.8 152.5,-92.2 156.5,-92.2 156.5,-92.2 156.5,-92.2 152.5,-92.2 156.5,-88.6 148.5,-92.2001 148.5,-92.2001"/>
<ellipse fill="none" stroke="#000000" cx="145.3" cy="-92.2001" rx="3.2" ry="3.2"/>
</g>
</g>
</svg>
