<?xml version="1.0" encoding="UTF-8" standalone="no"?>
<!DOCTYPE svg PUBLIC "-//W3C//DTD SVG 1.1//EN"
 "http://www.w3.org/Graphics/SVG/1.1/DTD/svg11.dtd">
<!-- Generated by graphviz version 2.40.1 (20161225.0304)
 -->
<!-- Title: oneDegreeRelationshipsDiagram Pages: 1 -->
<svg width="578pt" height="581pt"
 viewBox="0.00 0.00 578.00 581.20" xmlns="http://www.w3.org/2000/svg" xmlns:xlink="http://www.w3.org/1999/xlink">
<g id="graph0" class="graph" transform="scale(1 1) rotate(0) translate(4 577.2)">
<title>oneDegreeRelationshipsDiagram</title>
<polygon fill="#ffffff" stroke="transparent" points="-4,4 -4,-577.2 574,-577.2 574,4 -4,4"/>
<text text-anchor="middle" x="72.4936" y="-7.3" font-family="Helvetica,sans-Serif" font-size="11.00" fill="#000000">Generated by SchemaSpy</text>
<!-- chapter_users -->
<g id="node1" class="node">
<title>chapter_users</title>
<g id="a_node1"><a xlink:href="../../tables/chapter_users.html" xlink:title="chapter_users" target="_top">
<polygon fill="#ffffff" stroke="transparent" points="440,-442.2 440,-569.2 562,-569.2 562,-442.2 440,-442.2"/>
<polygon fill="#f5f5f5" stroke="transparent" points="440,-545.7 440,-568.7 562,-568.7 562,-545.7 440,-545.7"/>
<polygon fill="none" stroke="#000000" points="440,-545.7 440,-568.7 562,-568.7 562,-545.7 440,-545.7"/>
<text text-anchor="start" x="445" y="-554.3" font-family="Helvetica,sans-Serif" font-weight="bold" font-size="11.00" fill="#000000">chapter_users</text>
<text text-anchor="start" x="527.5219" y="-553.8" font-family="Helvetica,sans-Serif" font-size="11.00" fill="#000000">[table]</text>
<polygon fill="none" stroke="#000000" points="440,-523.7 440,-545.7 562,-545.7 562,-523.7 440,-523.7"/>
<image xlink:href="../../images/primaryKeys.png" width="11px" height="12px" preserveAspectRatio="xMinYMin meet" x="445" y="-540.7"/>
<text text-anchor="start" x="465" y="-530.8" font-family="Helvetica,sans-Serif" font-size="11.00" fill="#000000">user_id</text>
<polygon fill="none" stroke="#000000" points="440,-501.7 440,-523.7 562,-523.7 562,-501.7 440,-501.7"/>
<image xlink:href="../../images/primaryKeys.png" width="11px" height="12px" preserveAspectRatio="xMinYMin meet" x="445" y="-518.7"/>
<text text-anchor="start" x="465" y="-508.8" font-family="Helvetica,sans-Serif" font-size="11.00" fill="#000000">chapter_id</text>
<polygon fill="none" stroke="#000000" points="440,-479.7 440,-501.7 562,-501.7 562,-479.7 440,-479.7"/>
<image xlink:href="../../images/foreignKeys.png" width="11px" height="12px" preserveAspectRatio="xMinYMin meet" x="445" y="-496.7"/>
<text text-anchor="start" x="465" y="-486.8" font-family="Helvetica,sans-Serif" font-size="11.00" fill="#000000">chapter_role_id</text>
<polygon fill="none" stroke="#000000" points="440,-460.7 440,-479.7 562,-479.7 562,-460.7 440,-460.7"/>
<text text-anchor="start" x="443" y="-466.8" font-family="Helvetica,sans-Serif" font-size="11.00" fill="#000000">...</text>
<polygon fill="#ffffff" stroke="transparent" points="440,-441.7 440,-460.7 486,-460.7 486,-441.7 440,-441.7"/>
<polygon fill="none" stroke="#000000" points="440,-441.7 440,-460.7 486,-460.7 486,-441.7 440,-441.7"/>
<text text-anchor="start" x="443" y="-447.8" font-family="Helvetica,sans-Serif" font-size="11.00" fill="#000000">&lt; 3</text>
<polygon fill="#ffffff" stroke="transparent" points="486,-441.7 486,-460.7 537,-460.7 537,-441.7 486,-441.7"/>
<polygon fill="none" stroke="#000000" points="486,-441.7 486,-460.7 537,-460.7 537,-441.7 486,-441.7"/>
<text text-anchor="start" x="501.6105" y="-447.8" font-family="Helvetica,sans-Serif" font-size="11.00" fill="#000000">0 rows</text>
<polygon fill="#ffffff" stroke="transparent" points="537,-441.7 537,-460.7 562,-460.7 562,-441.7 537,-441.7"/>
<polygon fill="none" stroke="#000000" points="537,-441.7 537,-460.7 562,-460.7 562,-441.7 537,-441.7"/>
<text text-anchor="start" x="552.8862" y="-447.8" font-family="Helvetica,sans-Serif" font-size="11.00" fill="#000000"> &#160;</text>
</a>
</g>
</g>
<!-- users -->
<g id="node2" class="node">
<title>users</title>
<g id="a_node2"><a xlink:href="../../tables/users.html" xlink:title="users" target="_top">
<polygon fill="#ffffff" stroke="transparent" points="181,-148.7 181,-370.7 391,-370.7 391,-148.7 181,-148.7"/>
<polygon fill="#f5f5f5" stroke="transparent" points="183,-345.7 183,-368.7 389,-368.7 389,-345.7 183,-345.7"/>
<polygon fill="none" stroke="#000000" points="183,-345.7 183,-368.7 389,-368.7 389,-345.7 183,-345.7"/>
<text text-anchor="start" x="188" y="-354.3" font-family="Helvetica,sans-Serif" font-weight="bold" font-size="11.00" fill="#000000">users</text>
<text text-anchor="start" x="354.0437" y="-353.8" font-family="Helvetica,sans-Serif" font-size="11.00" fill="#000000">[table]</text>
<polygon fill="none" stroke="#000000" points="183,-323.7 183,-345.7 299,-345.7 299,-323.7 183,-323.7"/>
<text text-anchor="start" x="203" y="-330.8" font-family="Helvetica,sans-Serif" font-size="11.00" fill="#000000">created_at</text>
<polygon fill="none" stroke="#000000" points="299,-323.7 299,-345.7 389,-345.7 389,-323.7 299,-323.7"/>
<text text-anchor="start" x="302" y="-331.4" font-family="Helvetica,sans-Serif" font-size="11.00" fill="#000000">timestamp[26,3]</text>
<polygon fill="none" stroke="#000000" points="183,-301.7 183,-323.7 299,-323.7 299,-301.7 183,-301.7"/>
<text text-anchor="start" x="203" y="-308.8" font-family="Helvetica,sans-Serif" font-size="11.00" fill="#000000">updated_at</text>
<polygon fill="none" stroke="#000000" points="299,-301.7 299,-323.7 389,-323.7 389,-301.7 299,-301.7"/>
<text text-anchor="start" x="302" y="-309.4" font-family="Helvetica,sans-Serif" font-size="11.00" fill="#000000">timestamp[26,3]</text>
<polygon fill="none" stroke="#000000" points="183,-279.7 183,-301.7 299,-301.7 299,-279.7 183,-279.7"/>
<image xlink:href="../../images/primaryKeys.png" width="11px" height="12px" preserveAspectRatio="xMinYMin meet" x="188" y="-296.7"/>
<text text-anchor="start" x="203" y="-286.8" font-family="Helvetica,sans-Serif" font-size="11.00" fill="#000000">id</text>
<polygon fill="none" stroke="#000000" points="299,-279.7 299,-301.7 389,-301.7 389,-279.7 299,-279.7"/>
<text text-anchor="start" x="302" y="-287.4" font-family="Helvetica,sans-Serif" font-size="11.00" fill="#000000">serial[10]</text>
<polygon fill="none" stroke="#000000" points="183,-257.7 183,-279.7 299,-279.7 299,-257.7 183,-257.7"/>
<text text-anchor="start" x="203" y="-264.8" font-family="Helvetica,sans-Serif" font-size="11.00" fill="#000000">name</text>
<polygon fill="none" stroke="#000000" points="299,-257.7 299,-279.7 389,-279.7 389,-257.7 299,-257.7"/>
<text text-anchor="start" x="301.5043" y="-265.4" font-family="Helvetica,sans-Serif" font-size="11.00" fill="#000000">text[2147483647]</text>
<polygon fill="#ffffff" stroke="transparent" points="183,-235.7 183,-257.7 299,-257.7 299,-235.7 183,-235.7"/>
<polygon fill="none" stroke="#000000" points="183,-235.7 183,-257.7 299,-257.7 299,-235.7 183,-235.7"/>
<text text-anchor="start" x="203" y="-242.8" font-family="Helvetica,sans-Serif" font-size="11.00" fill="#000000">email</text>
<polygon fill="none" stroke="#000000" points="299,-235.7 299,-257.7 389,-257.7 389,-235.7 299,-235.7"/>
<text text-anchor="start" x="301.5043" y="-243.4" font-family="Helvetica,sans-Serif" font-size="11.00" fill="#000000">text[2147483647]</text>
<polygon fill="none" stroke="#000000" points="183,-213.7 183,-235.7 299,-235.7 299,-213.7 183,-213.7"/>
<image xlink:href="../../images/foreignKeys.png" width="11px" height="12px" preserveAspectRatio="xMinYMin meet" x="188" y="-230.7"/>
<text text-anchor="start" x="203" y="-220.8" font-family="Helvetica,sans-Serif" font-size="11.00" fill="#000000">instance_role_id</text>
<polygon fill="none" stroke="#000000" points="299,-213.7 299,-235.7 389,-235.7 389,-213.7 299,-213.7"/>
<text text-anchor="start" x="302" y="-221.4" font-family="Helvetica,sans-Serif" font-size="11.00" fill="#000000">int4[10]</text>
<polygon fill="none" stroke="#000000" points="183,-191.7 183,-213.7 299,-213.7 299,-191.7 183,-191.7"/>
<text text-anchor="start" x="203" y="-198.8" font-family="Helvetica,sans-Serif" font-size="11.00" fill="#000000">image_url</text>
<polygon fill="none" stroke="#000000" points="299,-191.7 299,-213.7 389,-213.7 389,-191.7 299,-191.7"/>
<text text-anchor="start" x="301.5043" y="-199.4" font-family="Helvetica,sans-Serif" font-size="11.00" fill="#000000">text[2147483647]</text>
<polygon fill="none" stroke="#000000" points="183,-169.7 183,-191.7 299,-191.7 299,-169.7 183,-169.7"/>
<text text-anchor="start" x="203" y="-176.8" font-family="Helvetica,sans-Serif" font-size="11.00" fill="#000000">auto_subscribe</text>
<polygon fill="none" stroke="#000000" points="299,-169.7 299,-191.7 389,-191.7 389,-169.7 299,-169.7"/>
<text text-anchor="start" x="302" y="-177.4" font-family="Helvetica,sans-Serif" font-size="11.00" fill="#000000">bool[1]</text>
<polygon fill="#ffffff" stroke="transparent" points="183,-150.7 183,-169.7 232,-169.7 232,-150.7 183,-150.7"/>
<polygon fill="none" stroke="#000000" points="183,-150.7 183,-169.7 232,-169.7 232,-150.7 183,-150.7"/>
<text text-anchor="start" x="186" y="-156.8" font-family="Helvetica,sans-Serif" font-size="11.00" fill="#000000">&lt; 1</text>
<polygon fill="#ffffff" stroke="transparent" points="232,-150.7 232,-169.7 299,-169.7 299,-150.7 232,-150.7"/>
<polygon fill="none" stroke="#000000" points="232,-150.7 232,-169.7 299,-169.7 299,-150.7 232,-150.7"/>
<text text-anchor="start" x="263.6105" y="-156.8" font-family="Helvetica,sans-Serif" font-size="11.00" fill="#000000">0 rows</text>
<polygon fill="#ffffff" stroke="transparent" points="299,-150.7 299,-169.7 389,-169.7 389,-150.7 299,-150.7"/>
<polygon fill="none" stroke="#000000" points="299,-150.7 299,-169.7 389,-169.7 389,-150.7 299,-150.7"/>
<text text-anchor="start" x="370.4053" y="-156.8" font-family="Helvetica,sans-Serif" font-size="11.00" fill="#000000">4 &gt;</text>
<polygon fill="none" stroke="#000000" stroke-width="2" points="182,-149.7 182,-369.7 390,-369.7 390,-149.7 182,-149.7"/>
</a>
</g>
</g>
<!-- chapter_users&#45;&gt;users -->
<g id="edge1" class="edge">
<title>chapter_users:w&#45;&gt;users:e</title>
<path fill="none" stroke="#000000" d="M425.2251,-532.8763C345.8106,-510.548 494.162,-290.7 389,-290.7"/>
<polygon fill="#000000" stroke="#000000" points="432.0603,-533.7199 439.559,-538.2729 436.0301,-534.21 440,-534.7 440,-534.7 440,-534.7 436.0301,-534.21 440.441,-531.1271 432.0603,-533.7199 432.0603,-533.7199"/>
<ellipse fill="none" stroke="#000000" cx="428.8844" cy="-533.3279" rx="3.2" ry="3.2"/>
</g>
<!-- instance_roles -->
<g id="node6" class="node">
<title>instance_roles</title>
<g id="a_node6"><a xlink:href="../../tables/instance_roles.html" xlink:title="instance_roles" target="_top">
<polygon fill="#ffffff" stroke="transparent" points="8,-154.2 8,-259.2 132,-259.2 132,-154.2 8,-154.2"/>
<polygon fill="#f5f5f5" stroke="transparent" points="8,-235.7 8,-258.7 132,-258.7 132,-235.7 8,-235.7"/>
<polygon fill="none" stroke="#000000" points="8,-235.7 8,-258.7 132,-258.7 132,-235.7 8,-235.7"/>
<text text-anchor="start" x="13" y="-244.3" font-family="Helvetica,sans-Serif" font-weight="bold" font-size="11.00" fill="#000000">instance_roles</text>
<text text-anchor="start" x="97.5219" y="-243.8" font-family="Helvetica,sans-Serif" font-size="11.00" fill="#000000">[table]</text>
<polygon fill="none" stroke="#000000" points="8,-213.7 8,-235.7 132,-235.7 132,-213.7 8,-213.7"/>
<image xlink:href="../../images/primaryKeys.png" width="11px" height="12px" preserveAspectRatio="xMinYMin meet" x="13" y="-230.7"/>
<text text-anchor="start" x="37" y="-220.8" font-family="Helvetica,sans-Serif" font-size="11.00" fill="#000000">id</text>
<polygon fill="#ffffff" stroke="transparent" points="8,-191.7 8,-213.7 132,-213.7 132,-191.7 8,-191.7"/>
<polygon fill="none" stroke="#000000" points="8,-191.7 8,-213.7 132,-213.7 132,-191.7 8,-191.7"/>
<text text-anchor="start" x="37" y="-198.8" font-family="Helvetica,sans-Serif" font-size="11.00" fill="#000000">name</text>
<polygon fill="none" stroke="#000000" points="8,-172.7 8,-191.7 132,-191.7 132,-172.7 8,-172.7"/>
<text text-anchor="start" x="11" y="-178.8" font-family="Helvetica,sans-Serif" font-size="11.00" fill="#000000">...</text>
<polygon fill="#ffffff" stroke="transparent" points="8,-153.7 8,-172.7 46,-172.7 46,-153.7 8,-153.7"/>
<polygon fill="none" stroke="#000000" points="8,-153.7 8,-172.7 46,-172.7 46,-153.7 8,-153.7"/>
<text text-anchor="start" x="11" y="-159.8" font-family="Helvetica,sans-Serif" font-size="11.00" fill="#000000"> &#160;</text>
<polygon fill="#ffffff" stroke="transparent" points="46,-153.7 46,-172.7 97,-172.7 97,-153.7 46,-153.7"/>
<polygon fill="none" stroke="#000000" points="46,-153.7 46,-172.7 97,-172.7 97,-153.7 46,-153.7"/>
<text text-anchor="start" x="61.6105" y="-159.8" font-family="Helvetica,sans-Serif" font-size="11.00" fill="#000000">0 rows</text>
<polygon fill="#ffffff" stroke="transparent" points="97,-153.7 97,-172.7 132,-172.7 132,-153.7 97,-153.7"/>
<polygon fill="none" stroke="#000000" points="97,-153.7 97,-172.7 132,-172.7 132,-153.7 97,-153.7"/>
<text text-anchor="start" x="113.4053" y="-159.8" font-family="Helvetica,sans-Serif" font-size="11.00" fill="#000000">2 &gt;</text>
</a>
</g>
</g>
<!-- users&#45;&gt;instance_roles -->
<g id="edge5" class="edge">
<title>users:w&#45;&gt;instance_roles:e</title>
<path fill="none" stroke="#000000" d="M168.276,-224.7C156.2815,-224.7 148.8229,-224.7 132,-224.7"/>
<polygon fill="#000000" stroke="#000000" points="175,-224.7001 183,-228.3 179,-224.7 183,-224.7 183,-224.7 183,-224.7 179,-224.7 183,-221.1 175,-224.7001 175,-224.7001"/>
<ellipse fill="none" stroke="#000000" cx="171.8" cy="-224.7001" rx="3.2" ry="3.2"/>
</g>
<!-- event_users -->
<g id="node3" class="node">
<title>event_users</title>
<g id="a_node3"><a xlink:href="../../tables/event_users.html" xlink:title="event_users" target="_top">
<polygon fill="#ffffff" stroke="transparent" points="446,-272.2 446,-421.2 556,-421.2 556,-272.2 446,-272.2"/>
<polygon fill="#f5f5f5" stroke="transparent" points="446,-397.7 446,-420.7 556,-420.7 556,-397.7 446,-397.7"/>
<polygon fill="none" stroke="#000000" points="446,-397.7 446,-420.7 556,-420.7 556,-397.7 446,-397.7"/>
<text text-anchor="start" x="451" y="-406.3" font-family="Helvetica,sans-Serif" font-weight="bold" font-size="11.00" fill="#000000">event_users</text>
<text text-anchor="start" x="521.5219" y="-405.8" font-family="Helvetica,sans-Serif" font-size="11.00" fill="#000000">[table]</text>
<polygon fill="none" stroke="#000000" points="446,-375.7 446,-397.7 556,-397.7 556,-375.7 446,-375.7"/>
<image xlink:href="../../images/primaryKeys.png" width="11px" height="12px" preserveAspectRatio="xMinYMin meet" x="451" y="-392.7"/>
<text text-anchor="start" x="469" y="-382.8" font-family="Helvetica,sans-Serif" font-size="11.00" fill="#000000">user_id</text>
<polygon fill="none" stroke="#000000" points="446,-353.7 446,-375.7 556,-375.7 556,-353.7 446,-353.7"/>
<image xlink:href="../../images/primaryKeys.png" width="11px" height="12px" preserveAspectRatio="xMinYMin meet" x="451" y="-370.7"/>
<text text-anchor="start" x="469" y="-360.8" font-family="Helvetica,sans-Serif" font-size="11.00" fill="#000000">event_id</text>
<polygon fill="none" stroke="#000000" points="446,-331.7 446,-353.7 556,-353.7 556,-331.7 446,-331.7"/>
<image xlink:href="../../images/foreignKeys.png" width="11px" height="12px" preserveAspectRatio="xMinYMin meet" x="451" y="-348.7"/>
<text text-anchor="start" x="469" y="-338.8" font-family="Helvetica,sans-Serif" font-size="11.00" fill="#000000">event_role_id</text>
<polygon fill="none" stroke="#000000" points="446,-309.7 446,-331.7 556,-331.7 556,-309.7 446,-309.7"/>
<image xlink:href="../../images/foreignKeys.png" width="11px" height="12px" preserveAspectRatio="xMinYMin meet" x="451" y="-326.7"/>
<text text-anchor="start" x="469" y="-316.8" font-family="Helvetica,sans-Serif" font-size="11.00" fill="#000000">attendance_id</text>
<polygon fill="none" stroke="#000000" points="446,-290.7 446,-309.7 556,-309.7 556,-290.7 446,-290.7"/>
<text text-anchor="start" x="449" y="-296.8" font-family="Helvetica,sans-Serif" font-size="11.00" fill="#000000">...</text>
<polygon fill="#ffffff" stroke="transparent" points="446,-271.7 446,-290.7 482,-290.7 482,-271.7 446,-271.7"/>
<polygon fill="none" stroke="#000000" points="446,-271.7 446,-290.7 482,-290.7 482,-271.7 446,-271.7"/>
<text text-anchor="start" x="449" y="-277.8" font-family="Helvetica,sans-Serif" font-size="11.00" fill="#000000">&lt; 4</text>
<polygon fill="#ffffff" stroke="transparent" points="482,-271.7 482,-290.7 527,-290.7 527,-271.7 482,-271.7"/>
<polygon fill="none" stroke="#000000" points="482,-271.7 482,-290.7 527,-290.7 527,-271.7 482,-271.7"/>
<text text-anchor="start" x="491.6105" y="-277.8" font-family="Helvetica,sans-Serif" font-size="11.00" fill="#000000">0 rows</text>
<polygon fill="#ffffff" stroke="transparent" points="527,-271.7 527,-290.7 556,-290.7 556,-271.7 527,-271.7"/>
<polygon fill="none" stroke="#000000" points="527,-271.7 527,-290.7 556,-290.7 556,-271.7 527,-271.7"/>
<text text-anchor="start" x="537.4053" y="-277.8" font-family="Helvetica,sans-Serif" font-size="11.00" fill="#000000">2 &gt;</text>
</a>
</g>
</g>
<!-- event_users&#45;&gt;users -->
<g id="edge2" class="edge">
<title>event_users:w&#45;&gt;users:e</title>
<path fill="none" stroke="#000000" d="M432.0441,-383.0539C405.018,-365.5184 432.8058,-290.7 389,-290.7"/>
<polygon fill="#000000" stroke="#000000" points="438.2598,-384.6778 445.09,-390.1831 442.1299,-385.6889 446,-386.7 446,-386.7 446,-386.7 442.1299,-385.6889 446.91,-383.2169 438.2598,-384.6778 438.2598,-384.6778"/>
<ellipse fill="none" stroke="#000000" cx="435.1637" cy="-383.8689" rx="3.2" ry="3.2"/>
</g>
<!-- sessions -->
<g id="node4" class="node">
<title>sessions</title>
<g id="a_node4"><a xlink:href="../../tables/sessions.html" xlink:title="sessions" target="_top">
<polygon fill="#ffffff" stroke="transparent" points="457,-164.7 457,-250.7 545,-250.7 545,-164.7 457,-164.7"/>
<polygon fill="#f5f5f5" stroke="transparent" points="457,-227.7 457,-250.7 545,-250.7 545,-227.7 457,-227.7"/>
<polygon fill="none" stroke="#000000" points="457,-227.7 457,-250.7 545,-250.7 545,-227.7 457,-227.7"/>
<text text-anchor="start" x="462" y="-236.3" font-family="Helvetica,sans-Serif" font-weight="bold" font-size="11.00" fill="#000000">sessions</text>
<text text-anchor="start" x="510.5219" y="-235.8" font-family="Helvetica,sans-Serif" font-size="11.00" fill="#000000">[table]</text>
<polygon fill="none" stroke="#000000" points="457,-205.7 457,-227.7 545,-227.7 545,-205.7 457,-205.7"/>
<image xlink:href="../../images/primaryKeys.png" width="11px" height="12px" preserveAspectRatio="xMinYMin meet" x="462" y="-222.7"/>
<text text-anchor="start" x="486" y="-212.8" font-family="Helvetica,sans-Serif" font-size="11.00" fill="#000000">id</text>
<polygon fill="#ffffff" stroke="transparent" points="457,-183.7 457,-205.7 545,-205.7 545,-183.7 457,-183.7"/>
<polygon fill="none" stroke="#000000" points="457,-183.7 457,-205.7 545,-205.7 545,-183.7 457,-183.7"/>
<image xlink:href="../../images/foreignKeys.png" width="11px" height="12px" preserveAspectRatio="xMinYMin meet" x="462" y="-200.7"/>
<text text-anchor="start" x="486" y="-190.8" font-family="Helvetica,sans-Serif" font-size="11.00" fill="#000000">user_id</text>
<polygon fill="#ffffff" stroke="transparent" points="457,-164.7 457,-183.7 486,-183.7 486,-164.7 457,-164.7"/>
<polygon fill="none" stroke="#000000" points="457,-164.7 457,-183.7 486,-183.7 486,-164.7 457,-164.7"/>
<text text-anchor="start" x="460" y="-170.8" font-family="Helvetica,sans-Serif" font-size="11.00" fill="#000000">&lt; 1</text>
<polygon fill="#ffffff" stroke="transparent" points="486,-164.7 486,-183.7 528,-183.7 528,-164.7 486,-164.7"/>
<polygon fill="none" stroke="#000000" points="486,-164.7 486,-183.7 528,-183.7 528,-164.7 486,-164.7"/>
<text text-anchor="start" x="492.6105" y="-170.8" font-family="Helvetica,sans-Serif" font-size="11.00" fill="#000000">0 rows</text>
<polygon fill="#ffffff" stroke="transparent" points="528,-164.7 528,-183.7 545,-183.7 545,-164.7 528,-164.7"/>
<polygon fill="none" stroke="#000000" points="528,-164.7 528,-183.7 545,-183.7 545,-164.7 528,-164.7"/>
<text text-anchor="start" x="535.8862" y="-170.8" font-family="Helvetica,sans-Serif" font-size="11.00" fill="#000000"> &#160;</text>
</a>
</g>
</g>
<!-- sessions&#45;&gt;users -->
<g id="edge3" class="edge">
<title>sessions:w&#45;&gt;users:e</title>
<path fill="none" stroke="#000000" d="M446.2878,-196.3663C409.886,-209.1141 437.2012,-290.7 389,-290.7"/>
<polygon fill="#000000" stroke="#000000" points="455.5947,-190.8705 456.8243,-198.7754 455.2433,-199.0214 454.0137,-191.1164 455.5947,-190.8705"/>
<polyline fill="none" stroke="#000000" points="457,-194.7 453.0475,-195.3148 "/>
<ellipse fill="none" stroke="#000000" cx="449.8856" cy="-195.8067" rx="3.2" ry="3.2"/>
</g>
<!-- user_bans -->
<g id="node5" class="node">
<title>user_bans</title>
<g id="a_node5"><a xlink:href="../../tables/user_bans.html" xlink:title="user_bans" target="_top">
<polygon fill="#ffffff" stroke="transparent" points="451.5,-38.2 451.5,-143.2 550.5,-143.2 550.5,-38.2 451.5,-38.2"/>
<polygon fill="#f5f5f5" stroke="transparent" points="452,-119.7 452,-142.7 551,-142.7 551,-119.7 452,-119.7"/>
<polygon fill="none" stroke="#000000" points="452,-119.7 452,-142.7 551,-142.7 551,-119.7 452,-119.7"/>
<text text-anchor="start" x="457" y="-128.3" font-family="Helvetica,sans-Serif" font-weight="bold" font-size="11.00" fill="#000000">user_bans</text>
<text text-anchor="start" x="516.5219" y="-127.8" font-family="Helvetica,sans-Serif" font-size="11.00" fill="#000000">[table]</text>
<polygon fill="none" stroke="#000000" points="452,-97.7 452,-119.7 551,-119.7 551,-97.7 452,-97.7"/>
<image xlink:href="../../images/primaryKeys.png" width="11px" height="12px" preserveAspectRatio="xMinYMin meet" x="457" y="-114.7"/>
<text text-anchor="start" x="478" y="-104.8" font-family="Helvetica,sans-Serif" font-size="11.00" fill="#000000">user_id</text>
<polygon fill="none" stroke="#000000" points="452,-75.7 452,-97.7 551,-97.7 551,-75.7 452,-75.7"/>
<image xlink:href="../../images/primaryKeys.png" width="11px" height="12px" preserveAspectRatio="xMinYMin meet" x="457" y="-92.7"/>
<text text-anchor="start" x="478" y="-82.8" font-family="Helvetica,sans-Serif" font-size="11.00" fill="#000000">chapter_id</text>
<polygon fill="none" stroke="#000000" points="452,-56.7 452,-75.7 551,-75.7 551,-56.7 452,-56.7"/>
<text text-anchor="start" x="455" y="-62.8" font-family="Helvetica,sans-Serif" font-size="11.00" fill="#000000">...</text>
<polygon fill="#ffffff" stroke="transparent" points="452,-37.7 452,-56.7 487,-56.7 487,-37.7 452,-37.7"/>
<polygon fill="none" stroke="#000000" points="452,-37.7 452,-56.7 487,-56.7 487,-37.7 452,-37.7"/>
<text text-anchor="start" x="455" y="-43.8" font-family="Helvetica,sans-Serif" font-size="11.00" fill="#000000">&lt; 2</text>
<polygon fill="#ffffff" stroke="transparent" points="487,-37.7 487,-56.7 532,-56.7 532,-37.7 487,-37.7"/>
<polygon fill="none" stroke="#000000" points="487,-37.7 487,-56.7 532,-56.7 532,-37.7 487,-37.7"/>
<text text-anchor="start" x="496.6105" y="-43.8" font-family="Helvetica,sans-Serif" font-size="11.00" fill="#000000">0 rows</text>
<polygon fill="#ffffff" stroke="transparent" points="532,-37.7 532,-56.7 551,-56.7 551,-37.7 532,-37.7"/>
<polygon fill="none" stroke="#000000" points="532,-37.7 532,-56.7 551,-56.7 551,-37.7 532,-37.7"/>
<text text-anchor="start" x="541.8862" y="-43.8" font-family="Helvetica,sans-Serif" font-size="11.00" fill="#000000"> &#160;</text>
</a>
</g>
</g>
<!-- user_bans&#45;&gt;users -->
<g id="edge4" class="edge">
<title>user_bans:w&#45;&gt;users:e</title>
<path fill="none" stroke="#000000" d="M437.7602,-110.8707C379.5441,-131.4049 469.0809,-290.7 389,-290.7"/>
<polygon fill="#000000" stroke="#000000" points="444.0914,-109.9057 452.5425,-112.2589 448.0457,-109.3028 452,-108.7 452,-108.7 452,-108.7 448.0457,-109.3028 451.4575,-105.1411 444.0914,-109.9057 444.0914,-109.9057"/>
<ellipse fill="none" stroke="#000000" cx="440.9279" cy="-110.3879" rx="3.2" ry="3.2"/>
</g>
</g>
</svg>
