<?xml version="1.0" encoding="UTF-8" standalone="no"?>
<!DOCTYPE svg PUBLIC "-//W3C//DTD SVG 1.1//EN"
 "http://www.w3.org/Graphics/SVG/1.1/DTD/svg11.dtd">
<!-- Generated by graphviz version 2.40.1 (20161225.0304)
 -->
<!-- Title: twoDegreesRelationshipsDiagram Pages: 1 -->
<svg width="525pt" height="721pt"
 viewBox="0.00 0.00 525.00 721.20" xmlns="http://www.w3.org/2000/svg" xmlns:xlink="http://www.w3.org/1999/xlink">
<g id="graph0" class="graph" transform="scale(1 1) rotate(0) translate(4 717.2)">
<title>twoDegreesRelationshipsDiagram</title>
<polygon fill="#ffffff" stroke="transparent" points="-4,4 -4,-717.2 521,-717.2 521,4 -4,4"/>
<text text-anchor="middle" x="72.4936" y="-7.3" font-family="Helvetica,sans-Serif" font-size="11.00" fill="#000000">Generated by SchemaSpy</text>
<!-- event_sponsors -->
<g id="node1" class="node">
<title>event_sponsors</title>
<g id="a_node1"><a xlink:href="../../tables/event_sponsors.html" xlink:title="event_sponsors" target="_top">
<polygon fill="#ffffff" stroke="transparent" points="342,-566.2 342,-627.2 462,-627.2 462,-566.2 342,-566.2"/>
<polygon fill="#f5f5f5" stroke="transparent" points="342,-603.7 342,-626.7 462,-626.7 462,-603.7 342,-603.7"/>
<polygon fill="none" stroke="#000000" points="342,-603.7 342,-626.7 462,-626.7 462,-603.7 342,-603.7"/>
<text text-anchor="start" x="346.681" y="-612.8" font-family="Helvetica,sans-Serif" font-weight="bold" font-size="11.00" fill="#000000">event_sponsors</text>
<text text-anchor="start" x="427.5219" y="-611.8" font-family="Helvetica,sans-Serif" font-size="11.00" fill="#000000">[table]</text>
<polygon fill="none" stroke="#000000" points="342,-584.7 342,-603.7 462,-603.7 462,-584.7 342,-584.7"/>
<text text-anchor="start" x="345" y="-590.8" font-family="Helvetica,sans-Serif" font-size="11.00" fill="#000000">...</text>
<polygon fill="#ffffff" stroke="transparent" points="342,-565.7 342,-584.7 387,-584.7 387,-565.7 342,-565.7"/>
<polygon fill="none" stroke="#000000" points="342,-565.7 342,-584.7 387,-584.7 387,-565.7 342,-565.7"/>
<text text-anchor="start" x="345" y="-571.8" font-family="Helvetica,sans-Serif" font-size="11.00" fill="#000000">&lt; 2</text>
<polygon fill="#ffffff" stroke="transparent" points="387,-565.7 387,-584.7 437,-584.7 437,-565.7 387,-565.7"/>
<polygon fill="none" stroke="#000000" points="387,-565.7 387,-584.7 437,-584.7 437,-565.7 387,-565.7"/>
<text text-anchor="start" x="401.6105" y="-571.8" font-family="Helvetica,sans-Serif" font-size="11.00" fill="#000000">0 rows</text>
<polygon fill="#ffffff" stroke="transparent" points="437,-565.7 437,-584.7 462,-584.7 462,-565.7 437,-565.7"/>
<polygon fill="none" stroke="#000000" points="437,-565.7 437,-584.7 462,-584.7 462,-565.7 437,-565.7"/>
<text text-anchor="start" x="452.8862" y="-571.8" font-family="Helvetica,sans-Serif" font-size="11.00" fill="#000000"> &#160;</text>
</a>
</g>
</g>
<!-- events -->
<g id="node2" class="node">
<title>events</title>
<g id="a_node2"><a xlink:href="../../tables/events.html" xlink:title="events" target="_top">
<polygon fill="#ffffff" stroke="transparent" points="142,-350.2 142,-477.2 246,-477.2 246,-350.2 142,-350.2"/>
<polygon fill="#f5f5f5" stroke="transparent" points="142,-453.7 142,-476.7 246,-476.7 246,-453.7 142,-453.7"/>
<polygon fill="none" stroke="#000000" points="142,-453.7 142,-476.7 246,-476.7 246,-453.7 142,-453.7"/>
<text text-anchor="start" x="147" y="-462.8" font-family="Helvetica,sans-Serif" font-weight="bold" font-size="11.00" fill="#000000">events</text>
<text text-anchor="start" x="211.0437" y="-461.8" font-family="Helvetica,sans-Serif" font-size="11.00" fill="#000000">[table]</text>
<polygon fill="none" stroke="#000000" points="142,-431.7 142,-453.7 246,-453.7 246,-431.7 142,-431.7"/>
<image xlink:href="../../images/primaryKeys.png" width="11px" height="12px" preserveAspectRatio="xMinYMin meet" x="147" y="-448.7"/>
<text text-anchor="start" x="162" y="-438.8" font-family="Helvetica,sans-Serif" font-size="11.00" fill="#000000">id</text>
<polygon fill="none" stroke="#000000" points="142,-409.7 142,-431.7 246,-431.7 246,-409.7 142,-409.7"/>
<image xlink:href="../../images/foreignKeys.png" width="11px" height="12px" preserveAspectRatio="xMinYMin meet" x="147" y="-426.7"/>
<text text-anchor="start" x="162" y="-416.8" font-family="Helvetica,sans-Serif" font-size="11.00" fill="#000000">venue_id</text>
<polygon fill="none" stroke="#000000" points="142,-387.7 142,-409.7 246,-409.7 246,-387.7 142,-387.7"/>
<image xlink:href="../../images/foreignKeys.png" width="11px" height="12px" preserveAspectRatio="xMinYMin meet" x="147" y="-404.7"/>
<text text-anchor="start" x="162" y="-394.8" font-family="Helvetica,sans-Serif" font-size="11.00" fill="#000000">chapter_id</text>
<polygon fill="none" stroke="#000000" points="142,-368.7 142,-387.7 246,-387.7 246,-368.7 142,-368.7"/>
<text text-anchor="start" x="145" y="-374.8" font-family="Helvetica,sans-Serif" font-size="11.00" fill="#000000">...</text>
<polygon fill="#ffffff" stroke="transparent" points="142,-349.7 142,-368.7 175,-368.7 175,-349.7 142,-349.7"/>
<polygon fill="none" stroke="#000000" points="142,-349.7 142,-368.7 175,-368.7 175,-349.7 142,-349.7"/>
<text text-anchor="start" x="145" y="-355.8" font-family="Helvetica,sans-Serif" font-size="11.00" fill="#000000">&lt; 2</text>
<polygon fill="#ffffff" stroke="transparent" points="175,-349.7 175,-368.7 219,-368.7 219,-349.7 175,-349.7"/>
<polygon fill="none" stroke="#000000" points="175,-349.7 175,-368.7 219,-368.7 219,-349.7 175,-349.7"/>
<text text-anchor="start" x="183.6105" y="-355.8" font-family="Helvetica,sans-Serif" font-size="11.00" fill="#000000">0 rows</text>
<polygon fill="#ffffff" stroke="transparent" points="219,-349.7 219,-368.7 246,-368.7 246,-349.7 219,-349.7"/>
<polygon fill="none" stroke="#000000" points="219,-349.7 219,-368.7 246,-368.7 246,-349.7 219,-349.7"/>
<text text-anchor="start" x="227.4053" y="-355.8" font-family="Helvetica,sans-Serif" font-size="11.00" fill="#000000">4 &gt;</text>
</a>
</g>
</g>
<!-- event_sponsors&#45;&gt;events -->
<g id="edge1" class="edge">
<title>event_sponsors:w&#45;&gt;events:e</title>
<path fill="none" stroke="#000000" d="M327.4466,-592.209C309.2242,-587.9534 301.7461,-574.8132 287,-555.7 254.365,-513.4001 299.4258,-442.7 246,-442.7"/>
<polygon fill="#000000" stroke="#000000" points="334.0417,-592.8846 341.6331,-597.2813 338.0208,-593.2923 342,-593.7 342,-593.7 342,-593.7 338.0208,-593.2923 342.3669,-590.1187 334.0417,-592.8846 334.0417,-592.8846"/>
<ellipse fill="none" stroke="#000000" cx="330.8583" cy="-592.5585" rx="3.2" ry="3.2"/>
</g>
<!-- chapters -->
<g id="node3" class="node">
<title>chapters</title>
<g id="a_node3"><a xlink:href="../../tables/chapters.html" xlink:title="chapters" target="_top">
<polygon fill="#ffffff" stroke="transparent" points="8,-113.2 8,-174.2 93,-174.2 93,-113.2 8,-113.2"/>
<polygon fill="#f5f5f5" stroke="transparent" points="8.5,-150.7 8.5,-173.7 93.5,-173.7 93.5,-150.7 8.5,-150.7"/>
<polygon fill="none" stroke="#000000" points="8.5,-150.7 8.5,-173.7 93.5,-173.7 93.5,-150.7 8.5,-150.7"/>
<text text-anchor="start" x="13.4108" y="-159.8" font-family="Helvetica,sans-Serif" font-weight="bold" font-size="11.00" fill="#000000">chapters</text>
<text text-anchor="start" x="59.0219" y="-158.8" font-family="Helvetica,sans-Serif" font-size="11.00" fill="#000000">[table]</text>
<polygon fill="none" stroke="#000000" points="8.5,-131.7 8.5,-150.7 93.5,-150.7 93.5,-131.7 8.5,-131.7"/>
<text text-anchor="start" x="11.5" y="-137.8" font-family="Helvetica,sans-Serif" font-size="11.00" fill="#000000">...</text>
<polygon fill="#ffffff" stroke="transparent" points="8.5,-112.7 8.5,-131.7 27.5,-131.7 27.5,-112.7 8.5,-112.7"/>
<polygon fill="none" stroke="#000000" points="8.5,-112.7 8.5,-131.7 27.5,-131.7 27.5,-112.7 8.5,-112.7"/>
<text text-anchor="start" x="11.5" y="-118.8" font-family="Helvetica,sans-Serif" font-size="11.00" fill="#000000"> &#160;</text>
<polygon fill="#ffffff" stroke="transparent" points="27.5,-112.7 27.5,-131.7 68.5,-131.7 68.5,-112.7 27.5,-112.7"/>
<polygon fill="none" stroke="#000000" points="27.5,-112.7 27.5,-131.7 68.5,-131.7 68.5,-112.7 27.5,-112.7"/>
<text text-anchor="start" x="33.1105" y="-118.8" font-family="Helvetica,sans-Serif" font-size="11.00" fill="#000000">0 rows</text>
<polygon fill="#ffffff" stroke="transparent" points="68.5,-112.7 68.5,-131.7 93.5,-131.7 93.5,-112.7 68.5,-112.7"/>
<polygon fill="none" stroke="#000000" points="68.5,-112.7 68.5,-131.7 93.5,-131.7 93.5,-112.7 68.5,-112.7"/>
<text text-anchor="start" x="74.9053" y="-118.8" font-family="Helvetica,sans-Serif" font-size="11.00" fill="#000000">3 &gt;</text>
</a>
</g>
</g>
<!-- events&#45;&gt;chapters -->
<g id="edge2" class="edge">
<title>events:w&#45;&gt;chapters:e</title>
<path fill="none" stroke="#000000" d="M127.518,-397.0525C41.992,-375.0794 204.706,-140.7 93.5,-140.7"/>
<polygon fill="#000000" stroke="#000000" points="134.0513,-397.7957 141.593,-402.2769 138.0256,-398.2478 142,-398.7 142,-398.7 142,-398.7 138.0256,-398.2478 142.407,-395.1231 134.0513,-397.7957 134.0513,-397.7957"/>
<ellipse fill="none" stroke="#000000" cx="130.8718" cy="-397.4339" rx="3.2" ry="3.2"/>
</g>
<!-- venues -->
<g id="node4" class="node">
<title>venues</title>
<g id="a_node4"><a xlink:href="../../tables/venues.html" xlink:title="venues" target="_top">
<polygon fill="#ffffff" stroke="transparent" points="11.5,-393.2 11.5,-454.2 89.5,-454.2 89.5,-393.2 11.5,-393.2"/>
<polygon fill="#f5f5f5" stroke="transparent" points="11.5,-430.7 11.5,-453.7 89.5,-453.7 89.5,-430.7 11.5,-430.7"/>
<polygon fill="none" stroke="#000000" points="11.5,-430.7 11.5,-453.7 89.5,-453.7 89.5,-430.7 11.5,-430.7"/>
<text text-anchor="start" x="16.2702" y="-439.8" font-family="Helvetica,sans-Serif" font-weight="bold" font-size="11.00" fill="#000000">venues</text>
<text text-anchor="start" x="55.0219" y="-438.8" font-family="Helvetica,sans-Serif" font-size="11.00" fill="#000000">[table]</text>
<polygon fill="none" stroke="#000000" points="11.5,-411.7 11.5,-430.7 89.5,-430.7 89.5,-411.7 11.5,-411.7"/>
<text text-anchor="start" x="14.5" y="-417.8" font-family="Helvetica,sans-Serif" font-size="11.00" fill="#000000">...</text>
<polygon fill="#ffffff" stroke="transparent" points="11.5,-392.7 11.5,-411.7 26.5,-411.7 26.5,-392.7 11.5,-392.7"/>
<polygon fill="none" stroke="#000000" points="11.5,-392.7 11.5,-411.7 26.5,-411.7 26.5,-392.7 11.5,-392.7"/>
<text text-anchor="start" x="14.5" y="-398.8" font-family="Helvetica,sans-Serif" font-size="11.00" fill="#000000"> &#160;</text>
<polygon fill="#ffffff" stroke="transparent" points="26.5,-392.7 26.5,-411.7 66.5,-411.7 66.5,-392.7 26.5,-392.7"/>
<polygon fill="none" stroke="#000000" points="26.5,-392.7 26.5,-411.7 66.5,-411.7 66.5,-392.7 26.5,-392.7"/>
<text text-anchor="start" x="31.1105" y="-398.8" font-family="Helvetica,sans-Serif" font-size="11.00" fill="#000000">0 rows</text>
<polygon fill="#ffffff" stroke="transparent" points="66.5,-392.7 66.5,-411.7 89.5,-411.7 89.5,-392.7 66.5,-392.7"/>
<polygon fill="none" stroke="#000000" points="66.5,-392.7 66.5,-411.7 89.5,-411.7 89.5,-392.7 66.5,-392.7"/>
<text text-anchor="start" x="70.9053" y="-398.8" font-family="Helvetica,sans-Serif" font-size="11.00" fill="#000000">1 &gt;</text>
</a>
</g>
</g>
<!-- events&#45;&gt;venues -->
<g id="edge3" class="edge">
<title>events:w&#45;&gt;venues:e</title>
<path fill="none" stroke="#000000" d="M127.2344,-420.7C114.6563,-420.7 107,-420.7 89.5,-420.7"/>
<polygon fill="#000000" stroke="#000000" points="134,-420.7001 142,-424.3 138,-420.7 142,-420.7 142,-420.7 142,-420.7 138,-420.7 142,-417.1 134,-420.7001 134,-420.7001"/>
<ellipse fill="none" stroke="#000000" cx="130.8" cy="-420.7001" rx="3.2" ry="3.2"/>
</g>
<!-- rsvps -->
<g id="node5" class="node">
<title>rsvps</title>
<g id="a_node5"><a xlink:href="../../tables/rsvps.html" xlink:title="rsvps" target="_top">
<polygon fill="#ffffff" stroke="transparent" points="366.5,-284.2 366.5,-345.2 437.5,-345.2 437.5,-284.2 366.5,-284.2"/>
<polygon fill="#f5f5f5" stroke="transparent" points="367,-321.7 367,-344.7 438,-344.7 438,-321.7 367,-321.7"/>
<polygon fill="none" stroke="#000000" points="367,-321.7 367,-344.7 438,-344.7 438,-321.7 367,-321.7"/>
<text text-anchor="start" x="372" y="-330.8" font-family="Helvetica,sans-Serif" font-weight="bold" font-size="11.00" fill="#000000">rsvps</text>
<text text-anchor="start" x="403.0437" y="-329.8" font-family="Helvetica,sans-Serif" font-size="11.00" fill="#000000">[table]</text>
<polygon fill="none" stroke="#000000" points="367,-302.7 367,-321.7 438,-321.7 438,-302.7 367,-302.7"/>
<text text-anchor="start" x="370" y="-308.8" font-family="Helvetica,sans-Serif" font-size="11.00" fill="#000000">...</text>
<polygon fill="#ffffff" stroke="transparent" points="367,-283.7 367,-302.7 388,-302.7 388,-283.7 367,-283.7"/>
<polygon fill="none" stroke="#000000" points="367,-283.7 367,-302.7 388,-302.7 388,-283.7 367,-283.7"/>
<text text-anchor="start" x="369.7027" y="-289.8" font-family="Helvetica,sans-Serif" font-size="11.00" fill="#000000">&lt; 2</text>
<polygon fill="#ffffff" stroke="transparent" points="388,-283.7 388,-302.7 426,-302.7 426,-283.7 388,-283.7"/>
<polygon fill="none" stroke="#000000" points="388,-283.7 388,-302.7 426,-302.7 426,-283.7 388,-283.7"/>
<text text-anchor="start" x="390.8053" y="-289.8" font-family="Helvetica,sans-Serif" font-size="11.00" fill="#000000">0 rows</text>
<polygon fill="#ffffff" stroke="transparent" points="426,-283.7 426,-302.7 438,-302.7 438,-283.7 426,-283.7"/>
<polygon fill="none" stroke="#000000" points="426,-283.7 426,-302.7 438,-302.7 438,-283.7 426,-283.7"/>
<text text-anchor="start" x="428.9431" y="-289.8" font-family="Helvetica,sans-Serif" font-size="11.00" fill="#000000"> &#160;</text>
</a>
</g>
</g>
<!-- rsvps&#45;&gt;events -->
<g id="edge4" class="edge">
<title>rsvps:w&#45;&gt;events:e</title>
<path fill="none" stroke="#000000" d="M352.5934,-312.4563C323.0051,-315.8606 311.2652,-330.7385 287,-356.7 258.0862,-387.6351 288.3437,-442.7 246,-442.7"/>
<polygon fill="#000000" stroke="#000000" points="359.011,-312.1194 367.1888,-315.295 363.0055,-311.9097 367,-311.7 367,-311.7 367,-311.7 363.0055,-311.9097 366.8112,-308.105 359.011,-312.1194 359.011,-312.1194"/>
<ellipse fill="none" stroke="#000000" cx="355.8154" cy="-312.2872" rx="3.2" ry="3.2"/>
</g>
<!-- users -->
<g id="node6" class="node">
<title>users</title>
<g id="a_node6"><a xlink:href="../../tables/users.html" xlink:title="users" target="_top">
<polygon fill="#ffffff" stroke="transparent" points="150,-165.2 150,-270.2 238,-270.2 238,-165.2 150,-165.2"/>
<polygon fill="#f5f5f5" stroke="transparent" points="150,-246.7 150,-269.7 238,-269.7 238,-246.7 150,-246.7"/>
<polygon fill="none" stroke="#000000" points="150,-246.7 150,-269.7 238,-269.7 238,-246.7 150,-246.7"/>
<text text-anchor="start" x="155" y="-255.8" font-family="Helvetica,sans-Serif" font-weight="bold" font-size="11.00" fill="#000000">users</text>
<text text-anchor="start" x="203.0437" y="-254.8" font-family="Helvetica,sans-Serif" font-size="11.00" fill="#000000">[table]</text>
<polygon fill="none" stroke="#000000" points="150,-224.7 150,-246.7 238,-246.7 238,-224.7 150,-224.7"/>
<image xlink:href="../../images/primaryKeys.png" width="11px" height="12px" preserveAspectRatio="xMinYMin meet" x="155" y="-241.7"/>
<text text-anchor="start" x="170" y="-231.8" font-family="Helvetica,sans-Serif" font-size="11.00" fill="#000000">id</text>
<polygon fill="#ffffff" stroke="transparent" points="150,-202.7 150,-224.7 238,-224.7 238,-202.7 150,-202.7"/>
<polygon fill="none" stroke="#000000" points="150,-202.7 150,-224.7 238,-224.7 238,-202.7 150,-202.7"/>
<text text-anchor="start" x="170" y="-209.8" font-family="Helvetica,sans-Serif" font-size="11.00" fill="#000000">email</text>
<polygon fill="none" stroke="#000000" points="150,-183.7 150,-202.7 238,-202.7 238,-183.7 150,-183.7"/>
<text text-anchor="start" x="153" y="-189.8" font-family="Helvetica,sans-Serif" font-size="11.00" fill="#000000">...</text>
<polygon fill="#ffffff" stroke="transparent" points="150,-164.7 150,-183.7 170,-183.7 170,-164.7 150,-164.7"/>
<polygon fill="none" stroke="#000000" points="150,-164.7 150,-183.7 170,-183.7 170,-164.7 150,-164.7"/>
<text text-anchor="start" x="153" y="-170.8" font-family="Helvetica,sans-Serif" font-size="11.00" fill="#000000"> &#160;</text>
<polygon fill="#ffffff" stroke="transparent" points="170,-164.7 170,-183.7 212,-183.7 212,-164.7 170,-164.7"/>
<polygon fill="none" stroke="#000000" points="170,-164.7 170,-183.7 212,-183.7 212,-164.7 170,-164.7"/>
<text text-anchor="start" x="176.6105" y="-170.8" font-family="Helvetica,sans-Serif" font-size="11.00" fill="#000000">0 rows</text>
<polygon fill="#ffffff" stroke="transparent" points="212,-164.7 212,-183.7 238,-183.7 238,-164.7 212,-164.7"/>
<polygon fill="none" stroke="#000000" points="212,-164.7 212,-183.7 238,-183.7 238,-164.7 212,-164.7"/>
<text text-anchor="start" x="219.4053" y="-170.8" font-family="Helvetica,sans-Serif" font-size="11.00" fill="#000000">5 &gt;</text>
</a>
</g>
</g>
<!-- rsvps&#45;&gt;users -->
<g id="edge5" class="edge">
<title>rsvps:w&#45;&gt;users:e</title>
<path fill="none" stroke="#000000" d="M352.5137,-310.7618C325.199,-306.8885 315.9424,-291.5061 287,-273.7 263.5273,-259.2591 265.5591,-235.7 238,-235.7"/>
<polygon fill="#000000" stroke="#000000" points="359.0167,-311.1829 366.7673,-315.2925 363.0084,-311.4415 367,-311.7 367,-311.7 367,-311.7 363.0084,-311.4415 367.2327,-308.1075 359.0167,-311.1829 359.0167,-311.1829"/>
<ellipse fill="none" stroke="#000000" cx="355.8234" cy="-310.9761" rx="3.2" ry="3.2"/>
</g>
<!-- tags -->
<g id="node7" class="node">
<title>tags</title>
<g id="a_node7"><a xlink:href="../../tables/tags.html" xlink:title="tags" target="_top">
<polygon fill="#ffffff" stroke="transparent" points="366.5,-648.2 366.5,-709.2 437.5,-709.2 437.5,-648.2 366.5,-648.2"/>
<polygon fill="#f5f5f5" stroke="transparent" points="367,-685.7 367,-708.7 438,-708.7 438,-685.7 367,-685.7"/>
<polygon fill="none" stroke="#000000" points="367,-685.7 367,-708.7 438,-708.7 438,-685.7 367,-685.7"/>
<text text-anchor="start" x="372" y="-694.8" font-family="Helvetica,sans-Serif" font-weight="bold" font-size="11.00" fill="#000000">tags</text>
<text text-anchor="start" x="403.0437" y="-693.8" font-family="Helvetica,sans-Serif" font-size="11.00" fill="#000000">[table]</text>
<polygon fill="none" stroke="#000000" points="367,-666.7 367,-685.7 438,-685.7 438,-666.7 367,-666.7"/>
<text text-anchor="start" x="370" y="-672.8" font-family="Helvetica,sans-Serif" font-size="11.00" fill="#000000">...</text>
<polygon fill="#ffffff" stroke="transparent" points="367,-647.7 367,-666.7 388,-666.7 388,-647.7 367,-647.7"/>
<polygon fill="none" stroke="#000000" points="367,-647.7 367,-666.7 388,-666.7 388,-647.7 367,-647.7"/>
<text text-anchor="start" x="369.7027" y="-653.8" font-family="Helvetica,sans-Serif" font-size="11.00" fill="#000000">&lt; 1</text>
<polygon fill="#ffffff" stroke="transparent" points="388,-647.7 388,-666.7 426,-666.7 426,-647.7 388,-647.7"/>
<polygon fill="none" stroke="#000000" points="388,-647.7 388,-666.7 426,-666.7 426,-647.7 388,-647.7"/>
<text text-anchor="start" x="390.8053" y="-653.8" font-family="Helvetica,sans-Serif" font-size="11.00" fill="#000000">0 rows</text>
<polygon fill="#ffffff" stroke="transparent" points="426,-647.7 426,-666.7 438,-666.7 438,-647.7 426,-647.7"/>
<polygon fill="none" stroke="#000000" points="426,-647.7 426,-666.7 438,-666.7 438,-647.7 426,-647.7"/>
<text text-anchor="start" x="428.9431" y="-653.8" font-family="Helvetica,sans-Serif" font-size="11.00" fill="#000000"> &#160;</text>
</a>
</g>
</g>
<!-- tags&#45;&gt;events -->
<g id="edge6" class="edge">
<title>tags:w&#45;&gt;events:e</title>
<path fill="none" stroke="#000000" d="M352.465,-675.2861C323.171,-673.3987 308.1248,-664.513 287,-637.7 232.1926,-568.1349 334.5616,-442.7 246,-442.7"/>
<polygon fill="#000000" stroke="#000000" points="359.0032,-675.4722 366.8975,-679.2985 363.0016,-675.5861 367,-675.7 367,-675.7 367,-675.7 363.0016,-675.5861 367.1025,-672.1015 359.0032,-675.4722 359.0032,-675.4722"/>
<ellipse fill="none" stroke="#000000" cx="355.8045" cy="-675.3811" rx="3.2" ry="3.2"/>
</g>
<!-- user_bans -->
<g id="node8" class="node">
<title>user_bans</title>
<g id="a_node8"><a xlink:href="../../tables/user_bans.html" xlink:title="user_bans" target="_top">
<polygon fill="#ffffff" stroke="transparent" points="355,-120.2 355,-181.2 449,-181.2 449,-120.2 355,-120.2"/>
<polygon fill="#f5f5f5" stroke="transparent" points="355,-157.7 355,-180.7 449,-180.7 449,-157.7 355,-157.7"/>
<polygon fill="none" stroke="#000000" points="355,-157.7 355,-180.7 449,-180.7 449,-157.7 355,-157.7"/>
<text text-anchor="start" x="359.8244" y="-166.8" font-family="Helvetica,sans-Serif" font-weight="bold" font-size="11.00" fill="#000000">user_bans</text>
<text text-anchor="start" x="414.5219" y="-165.8" font-family="Helvetica,sans-Serif" font-size="11.00" fill="#000000">[table]</text>
<polygon fill="none" stroke="#000000" points="355,-138.7 355,-157.7 449,-157.7 449,-138.7 355,-138.7"/>
<text text-anchor="start" x="358" y="-144.8" font-family="Helvetica,sans-Serif" font-size="11.00" fill="#000000">...</text>
<polygon fill="#ffffff" stroke="transparent" points="355,-119.7 355,-138.7 387,-138.7 387,-119.7 355,-119.7"/>
<polygon fill="none" stroke="#000000" points="355,-119.7 355,-138.7 387,-138.7 387,-119.7 355,-119.7"/>
<text text-anchor="start" x="358" y="-125.8" font-family="Helvetica,sans-Serif" font-size="11.00" fill="#000000">&lt; 2</text>
<polygon fill="#ffffff" stroke="transparent" points="387,-119.7 387,-138.7 431,-138.7 431,-119.7 387,-119.7"/>
<polygon fill="none" stroke="#000000" points="387,-119.7 387,-138.7 431,-138.7 431,-119.7 387,-119.7"/>
<text text-anchor="start" x="395.6105" y="-125.8" font-family="Helvetica,sans-Serif" font-size="11.00" fill="#000000">0 rows</text>
<polygon fill="#ffffff" stroke="transparent" points="431,-119.7 431,-138.7 449,-138.7 449,-119.7 431,-119.7"/>
<polygon fill="none" stroke="#000000" points="431,-119.7 431,-138.7 449,-138.7 449,-119.7 431,-119.7"/>
<text text-anchor="start" x="439.8862" y="-125.8" font-family="Helvetica,sans-Serif" font-size="11.00" fill="#000000"> &#160;</text>
</a>
</g>
</g>
<!-- user_bans&#45;&gt;chapters -->
<g id="edge7" class="edge">
<title>user_bans:w&#45;&gt;chapters:e</title>
<path fill="none" stroke="#000000" d="M340.4825,-147.6623C236.0852,-147.1114 204.7681,-140.7 93.5,-140.7"/>
<polygon fill="#000000" stroke="#000000" points="347,-147.6792 354.9906,-151.3 351,-147.6896 355,-147.7 355,-147.7 355,-147.7 351,-147.6896 355.0094,-144.1 347,-147.6792 347,-147.6792"/>
<ellipse fill="none" stroke="#000000" cx="343.8" cy="-147.6709" rx="3.2" ry="3.2"/>
</g>
<!-- user_bans&#45;&gt;users -->
<g id="edge8" class="edge">
<title>user_bans:w&#45;&gt;users:e</title>
<path fill="none" stroke="#000000" d="M340.6127,-149.1616C317.379,-154.4365 311.2357,-173.1611 287,-191.7 263.7524,-209.4831 267.2693,-235.7 238,-235.7"/>
<polygon fill="#000000" stroke="#000000" points="347.041,-148.5086 355.3639,-151.2816 351.0205,-148.1043 355,-147.7 355,-147.7 355,-147.7 351.0205,-148.1043 354.6361,-144.1184 347.041,-148.5086 347.041,-148.5086"/>
<ellipse fill="none" stroke="#000000" cx="343.8574" cy="-148.8321" rx="3.2" ry="3.2"/>
</g>
<!-- user_chapter_roles -->
<g id="node9" class="node">
<title>user_chapter_roles</title>
<g id="a_node9"><a xlink:href="../../tables/user_chapter_roles.html" xlink:title="user_chapter_roles" target="_top">
<polygon fill="#ffffff" stroke="transparent" points="333.5,-38.2 333.5,-99.2 470.5,-99.2 470.5,-38.2 333.5,-38.2"/>
<polygon fill="#f5f5f5" stroke="transparent" points="334,-75.7 334,-98.7 471,-98.7 471,-75.7 334,-75.7"/>
<polygon fill="none" stroke="#000000" points="334,-75.7 334,-98.7 471,-98.7 471,-75.7 334,-75.7"/>
<text text-anchor="start" x="338.9338" y="-84.8" font-family="Helvetica,sans-Serif" font-weight="bold" font-size="11.00" fill="#000000">user_chapter_roles</text>
<text text-anchor="start" x="436.5219" y="-83.8" font-family="Helvetica,sans-Serif" font-size="11.00" fill="#000000">[table]</text>
<polygon fill="none" stroke="#000000" points="334,-56.7 334,-75.7 471,-75.7 471,-56.7 334,-56.7"/>
<text text-anchor="start" x="337" y="-62.8" font-family="Helvetica,sans-Serif" font-size="11.00" fill="#000000">...</text>
<polygon fill="#ffffff" stroke="transparent" points="334,-37.7 334,-56.7 388,-56.7 388,-37.7 334,-37.7"/>
<polygon fill="none" stroke="#000000" points="334,-37.7 334,-56.7 388,-56.7 388,-37.7 334,-37.7"/>
<text text-anchor="start" x="337" y="-43.8" font-family="Helvetica,sans-Serif" font-size="11.00" fill="#000000">&lt; 2</text>
<polygon fill="#ffffff" stroke="transparent" points="388,-37.7 388,-56.7 442,-56.7 442,-37.7 388,-37.7"/>
<polygon fill="none" stroke="#000000" points="388,-37.7 388,-56.7 442,-56.7 442,-37.7 388,-37.7"/>
<text text-anchor="start" x="406.6105" y="-43.8" font-family="Helvetica,sans-Serif" font-size="11.00" fill="#000000">0 rows</text>
<polygon fill="#ffffff" stroke="transparent" points="442,-37.7 442,-56.7 471,-56.7 471,-37.7 442,-37.7"/>
<polygon fill="none" stroke="#000000" points="442,-37.7 442,-56.7 471,-56.7 471,-37.7 442,-37.7"/>
<text text-anchor="start" x="461.8862" y="-43.8" font-family="Helvetica,sans-Serif" font-size="11.00" fill="#000000"> &#160;</text>
</a>
</g>
</g>
<!-- user_chapter_roles&#45;&gt;chapters -->
<g id="edge9" class="edge">
<title>user_chapter_roles:w&#45;&gt;chapters:e</title>
<path fill="none" stroke="#000000" d="M319.4711,-66.1404C220.3531,-72.2869 200.4361,-140.7 93.5,-140.7"/>
<polygon fill="#000000" stroke="#000000" points="326.0037,-65.9425 334.1091,-69.2983 330.0018,-65.8212 334,-65.7 334,-65.7 334,-65.7 330.0018,-65.8212 333.8909,-62.1017 326.0037,-65.9425 326.0037,-65.9425"/>
<ellipse fill="none" stroke="#000000" cx="322.8051" cy="-66.0394" rx="3.2" ry="3.2"/>
</g>
<!-- user_chapter_roles&#45;&gt;users -->
<g id="edge10" class="edge">
<title>user_chapter_roles:w&#45;&gt;users:e</title>
<path fill="none" stroke="#000000" d="M319.4788,-68.0708C303.8645,-74.0863 299.7735,-90.8119 287,-109.7 253.3403,-159.4725 298.0855,-235.7 238,-235.7"/>
<polygon fill="#000000" stroke="#000000" points="326.1045,-66.9891 334.5801,-69.253 330.0523,-66.3446 334,-65.7 334,-65.7 334,-65.7 330.0523,-66.3446 333.4199,-62.147 326.1045,-66.9891 326.1045,-66.9891"/>
<ellipse fill="none" stroke="#000000" cx="322.9464" cy="-67.5047" rx="3.2" ry="3.2"/>
</g>
<!-- user_event_roles -->
<g id="node10" class="node">
<title>user_event_roles</title>
<g id="a_node10"><a xlink:href="../../tables/user_event_roles.html" xlink:title="user_event_roles" target="_top">
<polygon fill="#ffffff" stroke="transparent" points="295,-366.7 295,-544.7 509,-544.7 509,-366.7 295,-366.7"/>
<polygon fill="#f5f5f5" stroke="transparent" points="297,-519.7 297,-542.7 507,-542.7 507,-519.7 297,-519.7"/>
<polygon fill="none" stroke="#000000" points="297,-519.7 297,-542.7 507,-542.7 507,-519.7 297,-519.7"/>
<text text-anchor="start" x="302" y="-528.8" font-family="Helvetica,sans-Serif" font-weight="bold" font-size="11.00" fill="#000000">user_event_roles</text>
<text text-anchor="start" x="472.0437" y="-527.8" font-family="Helvetica,sans-Serif" font-size="11.00" fill="#000000">[table]</text>
<polygon fill="none" stroke="#000000" points="297,-497.7 297,-519.7 417,-519.7 417,-497.7 297,-497.7"/>
<text text-anchor="start" x="317" y="-504.8" font-family="Helvetica,sans-Serif" font-size="11.00" fill="#000000">created_at</text>
<polygon fill="none" stroke="#000000" points="417,-497.7 417,-519.7 507,-519.7 507,-497.7 417,-497.7"/>
<text text-anchor="start" x="420" y="-505.4" font-family="Helvetica,sans-Serif" font-size="11.00" fill="#000000">timestamp[26,3]</text>
<polygon fill="none" stroke="#000000" points="297,-475.7 297,-497.7 417,-497.7 417,-475.7 297,-475.7"/>
<text text-anchor="start" x="317" y="-482.8" font-family="Helvetica,sans-Serif" font-size="11.00" fill="#000000">updated_at</text>
<polygon fill="none" stroke="#000000" points="417,-475.7 417,-497.7 507,-497.7 507,-475.7 417,-475.7"/>
<text text-anchor="start" x="420" y="-483.4" font-family="Helvetica,sans-Serif" font-size="11.00" fill="#000000">timestamp[26,3]</text>
<polygon fill="none" stroke="#000000" points="297,-453.7 297,-475.7 417,-475.7 417,-453.7 297,-453.7"/>
<image xlink:href="../../images/primaryKeys.png" width="11px" height="12px" preserveAspectRatio="xMinYMin meet" x="302" y="-470.7"/>
<text text-anchor="start" x="317" y="-460.8" font-family="Helvetica,sans-Serif" font-size="11.00" fill="#000000">user_id</text>
<polygon fill="none" stroke="#000000" points="417,-453.7 417,-475.7 507,-475.7 507,-453.7 417,-453.7"/>
<text text-anchor="start" x="420" y="-461.4" font-family="Helvetica,sans-Serif" font-size="11.00" fill="#000000">int4[10]</text>
<polygon fill="none" stroke="#000000" points="297,-431.7 297,-453.7 417,-453.7 417,-431.7 297,-431.7"/>
<image xlink:href="../../images/primaryKeys.png" width="11px" height="12px" preserveAspectRatio="xMinYMin meet" x="302" y="-448.7"/>
<text text-anchor="start" x="317" y="-438.8" font-family="Helvetica,sans-Serif" font-size="11.00" fill="#000000">event_id</text>
<polygon fill="none" stroke="#000000" points="417,-431.7 417,-453.7 507,-453.7 507,-431.7 417,-431.7"/>
<text text-anchor="start" x="420" y="-439.4" font-family="Helvetica,sans-Serif" font-size="11.00" fill="#000000">int4[10]</text>
<polygon fill="none" stroke="#000000" points="297,-409.7 297,-431.7 417,-431.7 417,-409.7 297,-409.7"/>
<image xlink:href="../../images/primaryKeys.png" width="11px" height="12px" preserveAspectRatio="xMinYMin meet" x="302" y="-426.7"/>
<text text-anchor="start" x="317" y="-416.8" font-family="Helvetica,sans-Serif" font-size="11.00" fill="#000000">role_name</text>
<polygon fill="none" stroke="#000000" points="417,-409.7 417,-431.7 507,-431.7 507,-409.7 417,-409.7"/>
<text text-anchor="start" x="419.5043" y="-417.4" font-family="Helvetica,sans-Serif" font-size="11.00" fill="#000000">text[2147483647]</text>
<polygon fill="none" stroke="#000000" points="297,-387.7 297,-409.7 417,-409.7 417,-387.7 297,-387.7"/>
<text text-anchor="start" x="317" y="-394.8" font-family="Helvetica,sans-Serif" font-size="11.00" fill="#000000">subscribed</text>
<polygon fill="none" stroke="#000000" points="417,-387.7 417,-409.7 507,-409.7 507,-387.7 417,-387.7"/>
<text text-anchor="start" x="420" y="-395.4" font-family="Helvetica,sans-Serif" font-size="11.00" fill="#000000">bool[1]</text>
<polygon fill="#ffffff" stroke="transparent" points="297,-368.7 297,-387.7 348,-387.7 348,-368.7 297,-368.7"/>
<polygon fill="none" stroke="#000000" points="297,-368.7 297,-387.7 348,-387.7 348,-368.7 297,-368.7"/>
<text text-anchor="start" x="300" y="-374.8" font-family="Helvetica,sans-Serif" font-size="11.00" fill="#000000">&lt; 2</text>
<polygon fill="#ffffff" stroke="transparent" points="348,-368.7 348,-387.7 417,-387.7 417,-368.7 348,-368.7"/>
<polygon fill="none" stroke="#000000" points="348,-368.7 348,-387.7 417,-387.7 417,-368.7 348,-368.7"/>
<text text-anchor="start" x="381.6105" y="-374.8" font-family="Helvetica,sans-Serif" font-size="11.00" fill="#000000">0 rows</text>
<polygon fill="#ffffff" stroke="transparent" points="417,-368.7 417,-387.7 507,-387.7 507,-368.7 417,-368.7"/>
<polygon fill="none" stroke="#000000" points="417,-368.7 417,-387.7 507,-387.7 507,-368.7 417,-368.7"/>
<text text-anchor="start" x="488.4053" y="-374.8" font-family="Helvetica,sans-Serif" font-size="11.00" fill="#000000">0 &gt;</text>
<polygon fill="none" stroke="#000000" stroke-width="2" points="296,-367.7 296,-543.7 508,-543.7 508,-367.7 296,-367.7"/>
</a>
</g>
</g>
<!-- user_event_roles&#45;&gt;events -->
<g id="edge11" class="edge">
<title>user_event_roles:w&#45;&gt;events:e</title>
<path fill="none" stroke="#000000" d="M282.276,-442.7C270.2815,-442.7 262.8229,-442.7 246,-442.7"/>
<polygon fill="#000000" stroke="#000000" points="289,-442.7001 297,-446.3 293,-442.7 297,-442.7 297,-442.7 297,-442.7 293,-442.7 297,-439.1 289,-442.7001 289,-442.7001"/>
<ellipse fill="none" stroke="#000000" cx="285.8" cy="-442.7001" rx="3.2" ry="3.2"/>
</g>
<!-- user_event_roles&#45;&gt;users -->
<g id="edge12" class="edge">
<title>user_event_roles:w&#45;&gt;users:e</title>
<path fill="none" stroke="#000000" d="M282.4357,-462.8567C207.1329,-441.1845 337.559,-235.7 238,-235.7"/>
<polygon fill="#000000" stroke="#000000" points="289.0633,-463.6954 296.548,-468.2715 293.0317,-464.1977 297,-464.7 297,-464.7 297,-464.7 293.0317,-464.1977 297.452,-461.1285 289.0633,-463.6954 289.0633,-463.6954"/>
<ellipse fill="none" stroke="#000000" cx="285.8886" cy="-463.2936" rx="3.2" ry="3.2"/>
</g>
<!-- user_instance_roles -->
<g id="node11" class="node">
<title>user_instance_roles</title>
<g id="a_node11"><a xlink:href="../../tables/user_instance_roles.html" xlink:title="user_instance_roles" target="_top">
<polygon fill="#ffffff" stroke="transparent" points="331.5,-202.2 331.5,-263.2 472.5,-263.2 472.5,-202.2 331.5,-202.2"/>
<polygon fill="#f5f5f5" stroke="transparent" points="332,-239.7 332,-262.7 473,-262.7 473,-239.7 332,-239.7"/>
<polygon fill="none" stroke="#000000" points="332,-239.7 332,-262.7 473,-262.7 473,-239.7 332,-239.7"/>
<text text-anchor="start" x="336.7943" y="-248.8" font-family="Helvetica,sans-Serif" font-weight="bold" font-size="11.00" fill="#000000">user_instance_roles</text>
<text text-anchor="start" x="438.5219" y="-247.8" font-family="Helvetica,sans-Serif" font-size="11.00" fill="#000000">[table]</text>
<polygon fill="none" stroke="#000000" points="332,-220.7 332,-239.7 473,-239.7 473,-220.7 332,-220.7"/>
<text text-anchor="start" x="335" y="-226.8" font-family="Helvetica,sans-Serif" font-size="11.00" fill="#000000">...</text>
<polygon fill="#ffffff" stroke="transparent" points="332,-201.7 332,-220.7 388,-220.7 388,-201.7 332,-201.7"/>
<polygon fill="none" stroke="#000000" points="332,-201.7 332,-220.7 388,-220.7 388,-201.7 332,-201.7"/>
<text text-anchor="start" x="335" y="-207.8" font-family="Helvetica,sans-Serif" font-size="11.00" fill="#000000">&lt; 1</text>
<polygon fill="#ffffff" stroke="transparent" points="388,-201.7 388,-220.7 443,-220.7 443,-201.7 388,-201.7"/>
<polygon fill="none" stroke="#000000" points="388,-201.7 388,-220.7 443,-220.7 443,-201.7 388,-201.7"/>
<text text-anchor="start" x="407.6105" y="-207.8" font-family="Helvetica,sans-Serif" font-size="11.00" fill="#000000">0 rows</text>
<polygon fill="#ffffff" stroke="transparent" points="443,-201.7 443,-220.7 473,-220.7 473,-201.7 443,-201.7"/>
<polygon fill="none" stroke="#000000" points="443,-201.7 443,-220.7 473,-220.7 473,-201.7 443,-201.7"/>
<text text-anchor="start" x="463.8862" y="-207.8" font-family="Helvetica,sans-Serif" font-size="11.00" fill="#000000"> &#160;</text>
</a>
</g>
</g>
<!-- user_instance_roles&#45;&gt;users -->
<g id="edge13" class="edge">
<title>user_instance_roles:w&#45;&gt;users:e</title>
<path fill="none" stroke="#000000" d="M317.2502,-229.9734C286.9634,-231.1472 274.4664,-235.7 238,-235.7"/>
<polygon fill="#000000" stroke="#000000" points="324.0014,-229.8483 332.0667,-233.2994 328.0007,-229.7742 332,-229.7 332,-229.7 332,-229.7 328.0007,-229.7742 331.9333,-226.1006 324.0014,-229.8483 324.0014,-229.8483"/>
<ellipse fill="none" stroke="#000000" cx="320.8019" cy="-229.9076" rx="3.2" ry="3.2"/>
</g>
</g>
</svg>
