<?xml version="1.0" encoding="UTF-8" standalone="no"?>
<!DOCTYPE svg PUBLIC "-//W3C//DTD SVG 1.1//EN"
 "http://www.w3.org/Graphics/SVG/1.1/DTD/svg11.dtd">
<!-- Generated by graphviz version 2.40.1 (20161225.0304)
 -->
<!-- Title: twoDegreesRelationshipsDiagram Pages: 1 -->
<svg width="881pt" height="684pt"
 viewBox="0.00 0.00 881.00 683.70" xmlns="http://www.w3.org/2000/svg" xmlns:xlink="http://www.w3.org/1999/xlink">
<g id="graph0" class="graph" transform="scale(1 1) rotate(0) translate(4 679.7)">
<title>twoDegreesRelationshipsDiagram</title>
<polygon fill="#ffffff" stroke="transparent" points="-4,4 -4,-679.7 877,-679.7 877,4 -4,4"/>
<text text-anchor="middle" x="72.4936" y="-7.3" font-family="Helvetica,sans-Serif" font-size="11.00" fill="#000000">Generated by SchemaSpy</text>
<!-- chapter_users -->
<g id="node1" class="node">
<title>chapter_users</title>
<g id="a_node1"><a xlink:href="../../tables/chapter_users.html" xlink:title="chapter_users" target="_top">
<polygon fill="#ffffff" stroke="transparent" points="429,-202.2 429,-329.2 541,-329.2 541,-202.2 429,-202.2"/>
<polygon fill="#f5f5f5" stroke="transparent" points="429,-305.7 429,-328.7 541,-328.7 541,-305.7 429,-305.7"/>
<polygon fill="none" stroke="#000000" points="429,-305.7 429,-328.7 541,-328.7 541,-305.7 429,-305.7"/>
<text text-anchor="start" x="433.6575" y="-314.8" font-family="Helvetica,sans-Serif" font-weight="bold" font-size="11.00" fill="#000000">chapter_users</text>
<text text-anchor="start" x="506.5219" y="-313.8" font-family="Helvetica,sans-Serif" font-size="11.00" fill="#000000">[table]</text>
<polygon fill="none" stroke="#000000" points="429,-283.7 429,-305.7 541,-305.7 541,-283.7 429,-283.7"/>
<image xlink:href="../../images/primaryKeys.png" width="11px" height="12px" preserveAspectRatio="xMinYMin meet" x="434" y="-300.7"/>
<text text-anchor="start" x="449" y="-290.8" font-family="Helvetica,sans-Serif" font-size="11.00" fill="#000000">user_id</text>
<polygon fill="none" stroke="#000000" points="429,-261.7 429,-283.7 541,-283.7 541,-261.7 429,-261.7"/>
<image xlink:href="../../images/primaryKeys.png" width="11px" height="12px" preserveAspectRatio="xMinYMin meet" x="434" y="-278.7"/>
<text text-anchor="start" x="449" y="-268.8" font-family="Helvetica,sans-Serif" font-size="11.00" fill="#000000">chapter_id</text>
<polygon fill="none" stroke="#000000" points="429,-239.7 429,-261.7 541,-261.7 541,-239.7 429,-239.7"/>
<image xlink:href="../../images/foreignKeys.png" width="11px" height="12px" preserveAspectRatio="xMinYMin meet" x="434" y="-256.7"/>
<text text-anchor="start" x="449" y="-246.8" font-family="Helvetica,sans-Serif" font-size="11.00" fill="#000000">chapter_role_id</text>
<polygon fill="none" stroke="#000000" points="429,-220.7 429,-239.7 541,-239.7 541,-220.7 429,-220.7"/>
<text text-anchor="start" x="432" y="-226.8" font-family="Helvetica,sans-Serif" font-size="11.00" fill="#000000">...</text>
<polygon fill="#ffffff" stroke="transparent" points="429,-201.7 429,-220.7 470,-220.7 470,-201.7 429,-201.7"/>
<polygon fill="none" stroke="#000000" points="429,-201.7 429,-220.7 470,-220.7 470,-201.7 429,-201.7"/>
<text text-anchor="start" x="432" y="-207.8" font-family="Helvetica,sans-Serif" font-size="11.00" fill="#000000">&lt; 3</text>
<polygon fill="#ffffff" stroke="transparent" points="470,-201.7 470,-220.7 518,-220.7 518,-201.7 470,-201.7"/>
<polygon fill="none" stroke="#000000" points="470,-201.7 470,-220.7 518,-220.7 518,-201.7 470,-201.7"/>
<text text-anchor="start" x="482.6105" y="-207.8" font-family="Helvetica,sans-Serif" font-size="11.00" fill="#000000">0 rows</text>
<polygon fill="#ffffff" stroke="transparent" points="518,-201.7 518,-220.7 541,-220.7 541,-201.7 518,-201.7"/>
<polygon fill="none" stroke="#000000" points="518,-201.7 518,-220.7 541,-220.7 541,-201.7 518,-201.7"/>
<text text-anchor="start" x="531.8862" y="-207.8" font-family="Helvetica,sans-Serif" font-size="11.00" fill="#000000"> &#160;</text>
</a>
</g>
</g>
<!-- chapters -->
<g id="node2" class="node">
<title>chapters</title>
<g id="a_node2"><a xlink:href="../../tables/chapters.html" xlink:title="chapters" target="_top">
<polygon fill="#ffffff" stroke="transparent" points="232.5,-365.2 232.5,-426.2 317.5,-426.2 317.5,-365.2 232.5,-365.2"/>
<polygon fill="#f5f5f5" stroke="transparent" points="233,-402.7 233,-425.7 318,-425.7 318,-402.7 233,-402.7"/>
<polygon fill="none" stroke="#000000" points="233,-402.7 233,-425.7 318,-425.7 318,-402.7 233,-402.7"/>
<text text-anchor="start" x="237.9108" y="-411.8" font-family="Helvetica,sans-Serif" font-weight="bold" font-size="11.00" fill="#000000">chapters</text>
<text text-anchor="start" x="283.5219" y="-410.8" font-family="Helvetica,sans-Serif" font-size="11.00" fill="#000000">[table]</text>
<polygon fill="none" stroke="#000000" points="233,-383.7 233,-402.7 318,-402.7 318,-383.7 233,-383.7"/>
<text text-anchor="start" x="236" y="-389.8" font-family="Helvetica,sans-Serif" font-size="11.00" fill="#000000">...</text>
<polygon fill="#ffffff" stroke="transparent" points="233,-364.7 233,-383.7 252,-383.7 252,-364.7 233,-364.7"/>
<polygon fill="none" stroke="#000000" points="233,-364.7 233,-383.7 252,-383.7 252,-364.7 233,-364.7"/>
<text text-anchor="start" x="236" y="-370.8" font-family="Helvetica,sans-Serif" font-size="11.00" fill="#000000"> &#160;</text>
<polygon fill="#ffffff" stroke="transparent" points="252,-364.7 252,-383.7 293,-383.7 293,-364.7 252,-364.7"/>
<polygon fill="none" stroke="#000000" points="252,-364.7 252,-383.7 293,-383.7 293,-364.7 252,-364.7"/>
<text text-anchor="start" x="257.6105" y="-370.8" font-family="Helvetica,sans-Serif" font-size="11.00" fill="#000000">0 rows</text>
<polygon fill="#ffffff" stroke="transparent" points="293,-364.7 293,-383.7 318,-383.7 318,-364.7 293,-364.7"/>
<polygon fill="none" stroke="#000000" points="293,-364.7 293,-383.7 318,-383.7 318,-364.7 293,-364.7"/>
<text text-anchor="start" x="299.4053" y="-370.8" font-family="Helvetica,sans-Serif" font-size="11.00" fill="#000000">4 &gt;</text>
</a>
</g>
</g>
<!-- chapter_users&#45;&gt;chapters -->
<g id="edge1" class="edge">
<title>chapter_users:w&#45;&gt;chapters:e</title>
<path fill="none" stroke="#000000" d="M414.7263,-276.1006C395.4972,-288.2157 412.0076,-329.8695 388,-354.7 363.3939,-380.1495 353.3997,-392.7 318,-392.7"/>
<polygon fill="#000000" stroke="#000000" points="421.2178,-274.5541 429.8343,-276.202 425.1089,-273.6271 429,-272.7 429,-272.7 429,-272.7 425.1089,-273.6271 428.1657,-269.198 421.2178,-274.5541 421.2178,-274.5541"/>
<ellipse fill="none" stroke="#000000" cx="418.1049" cy="-275.2957" rx="3.2" ry="3.2"/>
</g>
<!-- chapter_roles -->
<g id="node3" class="node">
<title>chapter_roles</title>
<g id="a_node3"><a xlink:href="../../tables/chapter_roles.html" xlink:title="chapter_roles" target="_top">
<polygon fill="#ffffff" stroke="transparent" points="220.5,-201.2 220.5,-262.2 329.5,-262.2 329.5,-201.2 220.5,-201.2"/>
<polygon fill="#f5f5f5" stroke="transparent" points="221,-238.7 221,-261.7 330,-261.7 330,-238.7 221,-238.7"/>
<polygon fill="none" stroke="#000000" points="221,-238.7 221,-261.7 330,-261.7 330,-238.7 221,-238.7"/>
<text text-anchor="start" x="225.6871" y="-247.8" font-family="Helvetica,sans-Serif" font-weight="bold" font-size="11.00" fill="#000000">chapter_roles</text>
<text text-anchor="start" x="295.5219" y="-246.8" font-family="Helvetica,sans-Serif" font-size="11.00" fill="#000000">[table]</text>
<polygon fill="none" stroke="#000000" points="221,-219.7 221,-238.7 330,-238.7 330,-219.7 221,-219.7"/>
<text text-anchor="start" x="224" y="-225.8" font-family="Helvetica,sans-Serif" font-size="11.00" fill="#000000">...</text>
<polygon fill="#ffffff" stroke="transparent" points="221,-200.7 221,-219.7 252,-219.7 252,-200.7 221,-200.7"/>
<polygon fill="none" stroke="#000000" points="221,-200.7 221,-219.7 252,-219.7 252,-200.7 221,-200.7"/>
<text text-anchor="start" x="224" y="-206.8" font-family="Helvetica,sans-Serif" font-size="11.00" fill="#000000"> &#160;</text>
<polygon fill="#ffffff" stroke="transparent" points="252,-200.7 252,-219.7 299,-219.7 299,-200.7 252,-200.7"/>
<polygon fill="none" stroke="#000000" points="252,-200.7 252,-219.7 299,-219.7 299,-200.7 252,-200.7"/>
<text text-anchor="start" x="263.6105" y="-206.8" font-family="Helvetica,sans-Serif" font-size="11.00" fill="#000000">0 rows</text>
<polygon fill="#ffffff" stroke="transparent" points="299,-200.7 299,-219.7 330,-219.7 330,-200.7 299,-200.7"/>
<polygon fill="none" stroke="#000000" points="299,-200.7 299,-219.7 330,-219.7 330,-200.7 299,-200.7"/>
<text text-anchor="start" x="311.4053" y="-206.8" font-family="Helvetica,sans-Serif" font-size="11.00" fill="#000000">2 &gt;</text>
</a>
</g>
</g>
<!-- chapter_users&#45;&gt;chapter_roles -->
<g id="edge2" class="edge">
<title>chapter_users:w&#45;&gt;chapter_roles:e</title>
<path fill="none" stroke="#000000" d="M414.5295,-249.8644C381.3543,-245.8459 369.7913,-228.7 330,-228.7"/>
<polygon fill="#000000" stroke="#000000" points="421.0133,-250.2388 428.7924,-254.294 425.0067,-250.4694 429,-250.7 429,-250.7 429,-250.7 425.0067,-250.4694 429.2076,-247.106 421.0133,-250.2388 421.0133,-250.2388"/>
<ellipse fill="none" stroke="#000000" cx="417.8186" cy="-250.0543" rx="3.2" ry="3.2"/>
</g>
<!-- users -->
<g id="node4" class="node">
<title>users</title>
<g id="a_node4"><a xlink:href="../../tables/users.html" xlink:title="users" target="_top">
<polygon fill="#ffffff" stroke="transparent" points="170,-447.7 170,-625.7 380,-625.7 380,-447.7 170,-447.7"/>
<polygon fill="#f5f5f5" stroke="transparent" points="172,-600.7 172,-623.7 378,-623.7 378,-600.7 172,-600.7"/>
<polygon fill="none" stroke="#000000" points="172,-600.7 172,-623.7 378,-623.7 378,-600.7 172,-600.7"/>
<text text-anchor="start" x="177" y="-609.8" font-family="Helvetica,sans-Serif" font-weight="bold" font-size="11.00" fill="#000000">users</text>
<text text-anchor="start" x="343.0437" y="-608.8" font-family="Helvetica,sans-Serif" font-size="11.00" fill="#000000">[table]</text>
<polygon fill="none" stroke="#000000" points="172,-578.7 172,-600.7 288,-600.7 288,-578.7 172,-578.7"/>
<text text-anchor="start" x="192" y="-585.8" font-family="Helvetica,sans-Serif" font-size="11.00" fill="#000000">created_at</text>
<polygon fill="none" stroke="#000000" points="288,-578.7 288,-600.7 378,-600.7 378,-578.7 288,-578.7"/>
<text text-anchor="start" x="291" y="-586.4" font-family="Helvetica,sans-Serif" font-size="11.00" fill="#000000">timestamp[26,3]</text>
<polygon fill="none" stroke="#000000" points="172,-556.7 172,-578.7 288,-578.7 288,-556.7 172,-556.7"/>
<text text-anchor="start" x="192" y="-563.8" font-family="Helvetica,sans-Serif" font-size="11.00" fill="#000000">updated_at</text>
<polygon fill="none" stroke="#000000" points="288,-556.7 288,-578.7 378,-578.7 378,-556.7 288,-556.7"/>
<text text-anchor="start" x="291" y="-564.4" font-family="Helvetica,sans-Serif" font-size="11.00" fill="#000000">timestamp[26,3]</text>
<polygon fill="none" stroke="#000000" points="172,-534.7 172,-556.7 288,-556.7 288,-534.7 172,-534.7"/>
<image xlink:href="../../images/primaryKeys.png" width="11px" height="12px" preserveAspectRatio="xMinYMin meet" x="177" y="-551.7"/>
<text text-anchor="start" x="192" y="-541.8" font-family="Helvetica,sans-Serif" font-size="11.00" fill="#000000">id</text>
<polygon fill="none" stroke="#000000" points="288,-534.7 288,-556.7 378,-556.7 378,-534.7 288,-534.7"/>
<text text-anchor="start" x="291" y="-542.4" font-family="Helvetica,sans-Serif" font-size="11.00" fill="#000000">serial[10]</text>
<polygon fill="none" stroke="#000000" points="172,-512.7 172,-534.7 288,-534.7 288,-512.7 172,-512.7"/>
<text text-anchor="start" x="192" y="-519.8" font-family="Helvetica,sans-Serif" font-size="11.00" fill="#000000">name</text>
<polygon fill="none" stroke="#000000" points="288,-512.7 288,-534.7 378,-534.7 378,-512.7 288,-512.7"/>
<text text-anchor="start" x="290.5043" y="-520.4" font-family="Helvetica,sans-Serif" font-size="11.00" fill="#000000">text[2147483647]</text>
<polygon fill="#ffffff" stroke="transparent" points="172,-490.7 172,-512.7 288,-512.7 288,-490.7 172,-490.7"/>
<polygon fill="none" stroke="#000000" points="172,-490.7 172,-512.7 288,-512.7 288,-490.7 172,-490.7"/>
<text text-anchor="start" x="192" y="-497.8" font-family="Helvetica,sans-Serif" font-size="11.00" fill="#000000">email</text>
<polygon fill="none" stroke="#000000" points="288,-490.7 288,-512.7 378,-512.7 378,-490.7 288,-490.7"/>
<text text-anchor="start" x="290.5043" y="-498.4" font-family="Helvetica,sans-Serif" font-size="11.00" fill="#000000">text[2147483647]</text>
<polygon fill="none" stroke="#000000" points="172,-468.7 172,-490.7 288,-490.7 288,-468.7 172,-468.7"/>
<image xlink:href="../../images/foreignKeys.png" width="11px" height="12px" preserveAspectRatio="xMinYMin meet" x="177" y="-485.7"/>
<text text-anchor="start" x="192" y="-475.8" font-family="Helvetica,sans-Serif" font-size="11.00" fill="#000000">instance_role_id</text>
<polygon fill="none" stroke="#000000" points="288,-468.7 288,-490.7 378,-490.7 378,-468.7 288,-468.7"/>
<text text-anchor="start" x="291" y="-476.4" font-family="Helvetica,sans-Serif" font-size="11.00" fill="#000000">int4[10]</text>
<polygon fill="#ffffff" stroke="transparent" points="172,-449.7 172,-468.7 221,-468.7 221,-449.7 172,-449.7"/>
<polygon fill="none" stroke="#000000" points="172,-449.7 172,-468.7 221,-468.7 221,-449.7 172,-449.7"/>
<text text-anchor="start" x="175" y="-455.8" font-family="Helvetica,sans-Serif" font-size="11.00" fill="#000000">&lt; 1</text>
<polygon fill="#ffffff" stroke="transparent" points="221,-449.7 221,-468.7 288,-468.7 288,-449.7 221,-449.7"/>
<polygon fill="none" stroke="#000000" points="221,-449.7 221,-468.7 288,-468.7 288,-449.7 221,-449.7"/>
<text text-anchor="start" x="252.6105" y="-455.8" font-family="Helvetica,sans-Serif" font-size="11.00" fill="#000000">0 rows</text>
<polygon fill="#ffffff" stroke="transparent" points="288,-449.7 288,-468.7 378,-468.7 378,-449.7 288,-449.7"/>
<polygon fill="none" stroke="#000000" points="288,-449.7 288,-468.7 378,-468.7 378,-449.7 288,-449.7"/>
<text text-anchor="start" x="359.4053" y="-455.8" font-family="Helvetica,sans-Serif" font-size="11.00" fill="#000000">4 &gt;</text>
<polygon fill="none" stroke="#000000" stroke-width="2" points="171,-448.7 171,-624.7 379,-624.7 379,-448.7 171,-448.7"/>
</a>
</g>
</g>
<!-- chapter_users&#45;&gt;users -->
<g id="edge3" class="edge">
<title>chapter_users:w&#45;&gt;users:e</title>
<path fill="none" stroke="#000000" d="M414.5904,-296.3692C331.4076,-318.1468 486.3879,-545.7 378,-545.7"/>
<polygon fill="#000000" stroke="#000000" points="421.0531,-295.6206 429.4143,-298.2761 425.0266,-295.1603 429,-294.7 429,-294.7 429,-294.7 425.0266,-295.1603 428.5857,-291.1239 421.0531,-295.6206 421.0531,-295.6206"/>
<ellipse fill="none" stroke="#000000" cx="417.8744" cy="-295.9888" rx="3.2" ry="3.2"/>
</g>
<!-- instance_roles -->
<g id="node11" class="node">
<title>instance_roles</title>
<g id="a_node11"><a xlink:href="../../tables/instance_roles.html" xlink:title="instance_roles" target="_top">
<polygon fill="#ffffff" stroke="transparent" points="8,-324.2 8,-429.2 121,-429.2 121,-324.2 8,-324.2"/>
<polygon fill="#f5f5f5" stroke="transparent" points="8.5,-405.7 8.5,-428.7 121.5,-428.7 121.5,-405.7 8.5,-405.7"/>
<polygon fill="none" stroke="#000000" points="8.5,-405.7 8.5,-428.7 121.5,-428.7 121.5,-405.7 8.5,-405.7"/>
<text text-anchor="start" x="13.0476" y="-414.8" font-family="Helvetica,sans-Serif" font-weight="bold" font-size="11.00" fill="#000000">instance_roles</text>
<text text-anchor="start" x="87.0219" y="-413.8" font-family="Helvetica,sans-Serif" font-size="11.00" fill="#000000">[table]</text>
<polygon fill="none" stroke="#000000" points="8.5,-383.7 8.5,-405.7 121.5,-405.7 121.5,-383.7 8.5,-383.7"/>
<image xlink:href="../../images/primaryKeys.png" width="11px" height="12px" preserveAspectRatio="xMinYMin meet" x="13.5" y="-400.7"/>
<text text-anchor="start" x="32.5" y="-390.8" font-family="Helvetica,sans-Serif" font-size="11.00" fill="#000000">id</text>
<polygon fill="#ffffff" stroke="transparent" points="8.5,-361.7 8.5,-383.7 121.5,-383.7 121.5,-361.7 8.5,-361.7"/>
<polygon fill="none" stroke="#000000" points="8.5,-361.7 8.5,-383.7 121.5,-383.7 121.5,-361.7 8.5,-361.7"/>
<text text-anchor="start" x="32.5" y="-368.8" font-family="Helvetica,sans-Serif" font-size="11.00" fill="#000000">name</text>
<polygon fill="none" stroke="#000000" points="8.5,-342.7 8.5,-361.7 121.5,-361.7 121.5,-342.7 8.5,-342.7"/>
<text text-anchor="start" x="11.5" y="-348.8" font-family="Helvetica,sans-Serif" font-size="11.00" fill="#000000">...</text>
<polygon fill="#ffffff" stroke="transparent" points="8.5,-323.7 8.5,-342.7 41.5,-342.7 41.5,-323.7 8.5,-323.7"/>
<polygon fill="none" stroke="#000000" points="8.5,-323.7 8.5,-342.7 41.5,-342.7 41.5,-323.7 8.5,-323.7"/>
<text text-anchor="start" x="11.5" y="-329.8" font-family="Helvetica,sans-Serif" font-size="11.00" fill="#000000"> &#160;</text>
<polygon fill="#ffffff" stroke="transparent" points="41.5,-323.7 41.5,-342.7 89.5,-342.7 89.5,-323.7 41.5,-323.7"/>
<polygon fill="none" stroke="#000000" points="41.5,-323.7 41.5,-342.7 89.5,-342.7 89.5,-323.7 41.5,-323.7"/>
<text text-anchor="start" x="54.1105" y="-329.8" font-family="Helvetica,sans-Serif" font-size="11.00" fill="#000000">0 rows</text>
<polygon fill="#ffffff" stroke="transparent" points="89.5,-323.7 89.5,-342.7 121.5,-342.7 121.5,-323.7 89.5,-323.7"/>
<polygon fill="none" stroke="#000000" points="89.5,-323.7 89.5,-342.7 121.5,-342.7 121.5,-323.7 89.5,-323.7"/>
<text text-anchor="start" x="102.9053" y="-329.8" font-family="Helvetica,sans-Serif" font-size="11.00" fill="#000000">2 &gt;</text>
</a>
</g>
</g>
<!-- users&#45;&gt;instance_roles -->
<g id="edge15" class="edge">
<title>users:w&#45;&gt;instance_roles:e</title>
<path fill="none" stroke="#000000" d="M158.1216,-475.368C136.76,-458.0466 159.4344,-394.7 121.5,-394.7"/>
<polygon fill="#000000" stroke="#000000" points="164.3634,-477.3163 170.9273,-483.1365 168.1817,-478.5081 172,-479.7 172,-479.7 172,-479.7 168.1817,-478.5081 173.0727,-476.2635 164.3634,-477.3163 164.3634,-477.3163"/>
<ellipse fill="none" stroke="#000000" cx="161.3087" cy="-476.3628" rx="3.2" ry="3.2"/>
</g>
<!-- event_reminders -->
<g id="node5" class="node">
<title>event_reminders</title>
<g id="a_node5"><a xlink:href="../../tables/event_reminders.html" xlink:title="event_reminders" target="_top">
<polygon fill="#ffffff" stroke="transparent" points="741,-257.2 741,-318.2 865,-318.2 865,-257.2 741,-257.2"/>
<polygon fill="#f5f5f5" stroke="transparent" points="741,-294.7 741,-317.7 865,-317.7 865,-294.7 741,-294.7"/>
<polygon fill="none" stroke="#000000" points="741,-294.7 741,-317.7 865,-317.7 865,-294.7 741,-294.7"/>
<text text-anchor="start" x="745.5486" y="-303.8" font-family="Helvetica,sans-Serif" font-weight="bold" font-size="11.00" fill="#000000">event_reminders</text>
<text text-anchor="start" x="830.5219" y="-302.8" font-family="Helvetica,sans-Serif" font-size="11.00" fill="#000000">[table]</text>
<polygon fill="none" stroke="#000000" points="741,-275.7 741,-294.7 865,-294.7 865,-275.7 741,-275.7"/>
<text text-anchor="start" x="744" y="-281.8" font-family="Helvetica,sans-Serif" font-size="11.00" fill="#000000">...</text>
<polygon fill="#ffffff" stroke="transparent" points="741,-256.7 741,-275.7 788,-275.7 788,-256.7 741,-256.7"/>
<polygon fill="none" stroke="#000000" points="741,-256.7 741,-275.7 788,-275.7 788,-256.7 741,-256.7"/>
<text text-anchor="start" x="744" y="-262.8" font-family="Helvetica,sans-Serif" font-size="11.00" fill="#000000">&lt; 2</text>
<polygon fill="#ffffff" stroke="transparent" points="788,-256.7 788,-275.7 839,-275.7 839,-256.7 788,-256.7"/>
<polygon fill="none" stroke="#000000" points="788,-256.7 788,-275.7 839,-275.7 839,-256.7 788,-256.7"/>
<text text-anchor="start" x="803.6105" y="-262.8" font-family="Helvetica,sans-Serif" font-size="11.00" fill="#000000">0 rows</text>
<polygon fill="#ffffff" stroke="transparent" points="839,-256.7 839,-275.7 865,-275.7 865,-256.7 839,-256.7"/>
<polygon fill="none" stroke="#000000" points="839,-256.7 839,-275.7 865,-275.7 865,-256.7 839,-256.7"/>
<text text-anchor="start" x="855.8862" y="-262.8" font-family="Helvetica,sans-Serif" font-size="11.00" fill="#000000"> &#160;</text>
</a>
</g>
</g>
<!-- event_users -->
<g id="node6" class="node">
<title>event_users</title>
<g id="a_node6"><a xlink:href="../../tables/event_users.html" xlink:title="event_users" target="_top">
<polygon fill="#ffffff" stroke="transparent" points="590,-181.2 590,-330.2 692,-330.2 692,-181.2 590,-181.2"/>
<polygon fill="#f5f5f5" stroke="transparent" points="590,-306.7 590,-329.7 692,-329.7 692,-306.7 590,-306.7"/>
<polygon fill="none" stroke="#000000" points="590,-306.7 590,-329.7 692,-329.7 692,-306.7 590,-306.7"/>
<text text-anchor="start" x="594.5459" y="-315.8" font-family="Helvetica,sans-Serif" font-weight="bold" font-size="11.00" fill="#000000">event_users</text>
<text text-anchor="start" x="657.5219" y="-314.8" font-family="Helvetica,sans-Serif" font-size="11.00" fill="#000000">[table]</text>
<polygon fill="none" stroke="#000000" points="590,-284.7 590,-306.7 692,-306.7 692,-284.7 590,-284.7"/>
<image xlink:href="../../images/primaryKeys.png" width="11px" height="12px" preserveAspectRatio="xMinYMin meet" x="595" y="-301.7"/>
<text text-anchor="start" x="612" y="-291.8" font-family="Helvetica,sans-Serif" font-size="11.00" fill="#000000">user_id</text>
<polygon fill="none" stroke="#000000" points="590,-262.7 590,-284.7 692,-284.7 692,-262.7 590,-262.7"/>
<image xlink:href="../../images/primaryKeys.png" width="11px" height="12px" preserveAspectRatio="xMinYMin meet" x="595" y="-279.7"/>
<text text-anchor="start" x="612" y="-269.8" font-family="Helvetica,sans-Serif" font-size="11.00" fill="#000000">event_id</text>
<polygon fill="none" stroke="#000000" points="590,-240.7 590,-262.7 692,-262.7 692,-240.7 590,-240.7"/>
<image xlink:href="../../images/foreignKeys.png" width="11px" height="12px" preserveAspectRatio="xMinYMin meet" x="595" y="-257.7"/>
<text text-anchor="start" x="612" y="-247.8" font-family="Helvetica,sans-Serif" font-size="11.00" fill="#000000">event_role_id</text>
<polygon fill="none" stroke="#000000" points="590,-218.7 590,-240.7 692,-240.7 692,-218.7 590,-218.7"/>
<image xlink:href="../../images/foreignKeys.png" width="11px" height="12px" preserveAspectRatio="xMinYMin meet" x="595" y="-235.7"/>
<text text-anchor="start" x="612" y="-225.8" font-family="Helvetica,sans-Serif" font-size="11.00" fill="#000000">rsvp_id</text>
<polygon fill="none" stroke="#000000" points="590,-199.7 590,-218.7 692,-218.7 692,-199.7 590,-199.7"/>
<text text-anchor="start" x="593" y="-205.8" font-family="Helvetica,sans-Serif" font-size="11.00" fill="#000000">...</text>
<polygon fill="#ffffff" stroke="transparent" points="590,-180.7 590,-199.7 622,-199.7 622,-180.7 590,-180.7"/>
<polygon fill="none" stroke="#000000" points="590,-180.7 590,-199.7 622,-199.7 622,-180.7 590,-180.7"/>
<text text-anchor="start" x="593" y="-186.8" font-family="Helvetica,sans-Serif" font-size="11.00" fill="#000000">&lt; 4</text>
<polygon fill="#ffffff" stroke="transparent" points="622,-180.7 622,-199.7 665,-199.7 665,-180.7 622,-180.7"/>
<polygon fill="none" stroke="#000000" points="622,-180.7 622,-199.7 665,-199.7 665,-180.7 622,-180.7"/>
<text text-anchor="start" x="629.6105" y="-186.8" font-family="Helvetica,sans-Serif" font-size="11.00" fill="#000000">0 rows</text>
<polygon fill="#ffffff" stroke="transparent" points="665,-180.7 665,-199.7 692,-199.7 692,-180.7 665,-180.7"/>
<polygon fill="none" stroke="#000000" points="665,-180.7 665,-199.7 692,-199.7 692,-180.7 665,-180.7"/>
<text text-anchor="start" x="673.4053" y="-186.8" font-family="Helvetica,sans-Serif" font-size="11.00" fill="#000000">2 &gt;</text>
</a>
</g>
</g>
<!-- event_reminders&#45;&gt;event_users -->
<g id="edge4" class="edge">
<title>event_reminders:w&#45;&gt;event_users:e</title>
<path fill="none" stroke="#000000" d="M726.7027,-282.8836C715.2382,-279.7593 708.5655,-273.7 692,-273.7"/>
<polygon fill="#000000" stroke="#000000" points="733.0638,-283.6917 740.5463,-288.2713 737.0319,-284.1958 741,-284.7 741,-284.7 741,-284.7 737.0319,-284.1958 741.4537,-281.1287 733.0638,-283.6917 733.0638,-283.6917"/>
<ellipse fill="none" stroke="#000000" cx="729.8893" cy="-283.2884" rx="3.2" ry="3.2"/>
</g>
<!-- event_reminders&#45;&gt;event_users -->
<g id="edge5" class="edge">
<title>event_reminders:w&#45;&gt;event_users:e</title>
<path fill="none" stroke="#000000" d="M726.7027,-286.5164C715.2382,-289.6407 708.5655,-295.7 692,-295.7"/>
<polygon fill="#000000" stroke="#000000" points="733.0638,-285.7083 741.4537,-288.2713 737.0319,-285.2042 741,-284.7 741,-284.7 741,-284.7 737.0319,-285.2042 740.5463,-281.1287 733.0638,-285.7083 733.0638,-285.7083"/>
<ellipse fill="none" stroke="#000000" cx="729.8893" cy="-286.1116" rx="3.2" ry="3.2"/>
</g>
<!-- event_users&#45;&gt;users -->
<g id="edge9" class="edge">
<title>event_users:w&#45;&gt;users:e</title>
<path fill="none" stroke="#000000" d="M576.4851,-301.4915C543.8041,-336.0376 587.9993,-514.533 549,-547.7 491.1015,-596.9398 454.0052,-545.7 378,-545.7"/>
<polygon fill="#000000" stroke="#000000" points="582.6467,-298.8511 591.418,-299.009 586.3234,-297.2756 590,-295.7 590,-295.7 590,-295.7 586.3234,-297.2756 588.582,-292.391 582.6467,-298.8511 582.6467,-298.8511"/>
<ellipse fill="none" stroke="#000000" cx="579.7054" cy="-300.1115" rx="3.2" ry="3.2"/>
</g>
<!-- events -->
<g id="node7" class="node">
<title>events</title>
<g id="a_node7"><a xlink:href="../../tables/events.html" xlink:title="events" target="_top">
<polygon fill="#ffffff" stroke="transparent" points="445,-350.2 445,-411.2 525,-411.2 525,-350.2 445,-350.2"/>
<polygon fill="#f5f5f5" stroke="transparent" points="445,-387.7 445,-410.7 525,-410.7 525,-387.7 445,-387.7"/>
<polygon fill="none" stroke="#000000" points="445,-387.7 445,-410.7 525,-410.7 525,-387.7 445,-387.7"/>
<text text-anchor="start" x="450" y="-396.8" font-family="Helvetica,sans-Serif" font-weight="bold" font-size="11.00" fill="#000000">events</text>
<text text-anchor="start" x="490.0437" y="-395.8" font-family="Helvetica,sans-Serif" font-size="11.00" fill="#000000">[table]</text>
<polygon fill="none" stroke="#000000" points="445,-368.7 445,-387.7 525,-387.7 525,-368.7 445,-368.7"/>
<text text-anchor="start" x="448" y="-374.8" font-family="Helvetica,sans-Serif" font-size="11.00" fill="#000000">...</text>
<polygon fill="#ffffff" stroke="transparent" points="445,-349.7 445,-368.7 466,-368.7 466,-349.7 445,-349.7"/>
<polygon fill="none" stroke="#000000" points="445,-349.7 445,-368.7 466,-368.7 466,-349.7 445,-349.7"/>
<text text-anchor="start" x="447.7027" y="-355.8" font-family="Helvetica,sans-Serif" font-size="11.00" fill="#000000">&lt; 3</text>
<polygon fill="#ffffff" stroke="transparent" points="466,-349.7 466,-368.7 504,-368.7 504,-349.7 466,-349.7"/>
<polygon fill="none" stroke="#000000" points="466,-349.7 466,-368.7 504,-368.7 504,-349.7 466,-349.7"/>
<text text-anchor="start" x="468.8053" y="-355.8" font-family="Helvetica,sans-Serif" font-size="11.00" fill="#000000">0 rows</text>
<polygon fill="#ffffff" stroke="transparent" points="504,-349.7 504,-368.7 525,-368.7 525,-349.7 504,-349.7"/>
<polygon fill="none" stroke="#000000" points="504,-349.7 504,-368.7 525,-368.7 525,-349.7 504,-349.7"/>
<text text-anchor="start" x="506.7027" y="-355.8" font-family="Helvetica,sans-Serif" font-size="11.00" fill="#000000">3 &gt;</text>
</a>
</g>
</g>
<!-- event_users&#45;&gt;events -->
<g id="edge6" class="edge">
<title>event_users:w&#45;&gt;events:e</title>
<path fill="none" stroke="#000000" d="M575.8101,-276.9266C543.681,-294.4806 573.7586,-377.7 525,-377.7"/>
<polygon fill="#000000" stroke="#000000" points="582.1991,-275.4738 590.7982,-277.2104 586.0996,-274.5869 590,-273.7 590,-273.7 590,-273.7 586.0996,-274.5869 589.2018,-270.1896 582.1991,-275.4738 582.1991,-275.4738"/>
<ellipse fill="none" stroke="#000000" cx="579.0788" cy="-276.1834" rx="3.2" ry="3.2"/>
</g>
<!-- event_roles -->
<g id="node8" class="node">
<title>event_roles</title>
<g id="a_node8"><a xlink:href="../../tables/event_roles.html" xlink:title="event_roles" target="_top">
<polygon fill="#ffffff" stroke="transparent" points="435.5,-120.2 435.5,-181.2 534.5,-181.2 534.5,-120.2 435.5,-120.2"/>
<polygon fill="#f5f5f5" stroke="transparent" points="436,-157.7 436,-180.7 535,-180.7 535,-157.7 436,-157.7"/>
<polygon fill="none" stroke="#000000" points="436,-157.7 436,-180.7 535,-180.7 535,-157.7 436,-157.7"/>
<text text-anchor="start" x="440.5755" y="-166.8" font-family="Helvetica,sans-Serif" font-weight="bold" font-size="11.00" fill="#000000">event_roles</text>
<text text-anchor="start" x="500.5219" y="-165.8" font-family="Helvetica,sans-Serif" font-size="11.00" fill="#000000">[table]</text>
<polygon fill="none" stroke="#000000" points="436,-138.7 436,-157.7 535,-157.7 535,-138.7 436,-138.7"/>
<text text-anchor="start" x="439" y="-144.8" font-family="Helvetica,sans-Serif" font-size="11.00" fill="#000000">...</text>
<polygon fill="#ffffff" stroke="transparent" points="436,-119.7 436,-138.7 462,-138.7 462,-119.7 436,-119.7"/>
<polygon fill="none" stroke="#000000" points="436,-119.7 436,-138.7 462,-138.7 462,-119.7 436,-119.7"/>
<text text-anchor="start" x="439" y="-125.8" font-family="Helvetica,sans-Serif" font-size="11.00" fill="#000000"> &#160;</text>
<polygon fill="#ffffff" stroke="transparent" points="462,-119.7 462,-138.7 507,-138.7 507,-119.7 462,-119.7"/>
<polygon fill="none" stroke="#000000" points="462,-119.7 462,-138.7 507,-138.7 507,-119.7 462,-119.7"/>
<text text-anchor="start" x="471.6105" y="-125.8" font-family="Helvetica,sans-Serif" font-size="11.00" fill="#000000">0 rows</text>
<polygon fill="#ffffff" stroke="transparent" points="507,-119.7 507,-138.7 535,-138.7 535,-119.7 507,-119.7"/>
<polygon fill="none" stroke="#000000" points="507,-119.7 507,-138.7 535,-138.7 535,-119.7 507,-119.7"/>
<text text-anchor="start" x="516.4053" y="-125.8" font-family="Helvetica,sans-Serif" font-size="11.00" fill="#000000">2 &gt;</text>
</a>
</g>
</g>
<!-- event_users&#45;&gt;event_roles -->
<g id="edge7" class="edge">
<title>event_users:w&#45;&gt;event_roles:e</title>
<path fill="none" stroke="#000000" d="M575.8557,-247.9986C547.6369,-229.4721 581.3647,-147.7 535,-147.7"/>
<polygon fill="#000000" stroke="#000000" points="582.2606,-249.6746 589.0886,-255.1827 586.1303,-250.6873 590,-251.7 590,-251.7 590,-251.7 586.1303,-250.6873 590.9114,-248.2173 582.2606,-249.6746 582.2606,-249.6746"/>
<ellipse fill="none" stroke="#000000" cx="579.1649" cy="-248.8645" rx="3.2" ry="3.2"/>
</g>
<!-- rsvp -->
<g id="node9" class="node">
<title>rsvp</title>
<g id="a_node9"><a xlink:href="../../tables/rsvp.html" xlink:title="rsvp" target="_top">
<polygon fill="#ffffff" stroke="transparent" points="449.5,-38.2 449.5,-99.2 520.5,-99.2 520.5,-38.2 449.5,-38.2"/>
<polygon fill="#f5f5f5" stroke="transparent" points="450,-75.7 450,-98.7 521,-98.7 521,-75.7 450,-75.7"/>
<polygon fill="none" stroke="#000000" points="450,-75.7 450,-98.7 521,-98.7 521,-75.7 450,-75.7"/>
<text text-anchor="start" x="455" y="-84.8" font-family="Helvetica,sans-Serif" font-weight="bold" font-size="11.00" fill="#000000">rsvp</text>
<text text-anchor="start" x="486.0437" y="-83.8" font-family="Helvetica,sans-Serif" font-size="11.00" fill="#000000">[table]</text>
<polygon fill="none" stroke="#000000" points="450,-56.7 450,-75.7 521,-75.7 521,-56.7 450,-56.7"/>
<text text-anchor="start" x="453" y="-62.8" font-family="Helvetica,sans-Serif" font-size="11.00" fill="#000000">...</text>
<polygon fill="#ffffff" stroke="transparent" points="450,-37.7 450,-56.7 462,-56.7 462,-37.7 450,-37.7"/>
<polygon fill="none" stroke="#000000" points="450,-37.7 450,-56.7 462,-56.7 462,-37.7 450,-37.7"/>
<text text-anchor="start" x="452.9431" y="-43.8" font-family="Helvetica,sans-Serif" font-size="11.00" fill="#000000"> &#160;</text>
<polygon fill="#ffffff" stroke="transparent" points="462,-37.7 462,-56.7 500,-56.7 500,-37.7 462,-37.7"/>
<polygon fill="none" stroke="#000000" points="462,-37.7 462,-56.7 500,-56.7 500,-37.7 462,-37.7"/>
<text text-anchor="start" x="464.8053" y="-43.8" font-family="Helvetica,sans-Serif" font-size="11.00" fill="#000000">0 rows</text>
<polygon fill="#ffffff" stroke="transparent" points="500,-37.7 500,-56.7 521,-56.7 521,-37.7 500,-37.7"/>
<polygon fill="none" stroke="#000000" points="500,-37.7 500,-56.7 521,-56.7 521,-37.7 500,-37.7"/>
<text text-anchor="start" x="502.7027" y="-43.8" font-family="Helvetica,sans-Serif" font-size="11.00" fill="#000000">1 &gt;</text>
</a>
</g>
</g>
<!-- event_users&#45;&gt;rsvp -->
<g id="edge8" class="edge">
<title>event_users:w&#45;&gt;rsvp:e</title>
<path fill="none" stroke="#000000" d="M575.6978,-227.3816C522.6283,-207.4483 594.5173,-65.7 521,-65.7"/>
<polygon fill="#000000" stroke="#000000" points="582.1031,-228.4199 589.4239,-233.2536 586.0515,-229.0599 590,-229.7 590,-229.7 590,-229.7 586.0515,-229.0599 590.5761,-226.1464 582.1031,-228.4199 582.1031,-228.4199"/>
<ellipse fill="none" stroke="#000000" cx="578.9443" cy="-227.9078" rx="3.2" ry="3.2"/>
</g>
<!-- events&#45;&gt;chapters -->
<g id="edge10" class="edge">
<title>events:w&#45;&gt;chapters:e</title>
<path fill="none" stroke="#000000" d="M430.3803,-378.056C385.3499,-380.3275 369.6193,-392.7 318,-392.7"/>
<polygon fill="#000000" stroke="#000000" points="437.0024,-377.8948 445.0877,-381.2989 441.0012,-377.7974 445,-377.7 445,-377.7 445,-377.7 441.0012,-377.7974 444.9123,-374.1011 437.0024,-377.8948 437.0024,-377.8948"/>
<ellipse fill="none" stroke="#000000" cx="433.8033" cy="-377.9727" rx="3.2" ry="3.2"/>
</g>
<!-- instance_role_permissions -->
<g id="node10" class="node">
<title>instance_role_permissions</title>
<g id="a_node10"><a xlink:href="../../tables/instance_role_permissions.html" xlink:title="instance_role_permissions" target="_top">
<polygon fill="#ffffff" stroke="transparent" points="188.5,-283.2 188.5,-344.2 361.5,-344.2 361.5,-283.2 188.5,-283.2"/>
<polygon fill="#f5f5f5" stroke="transparent" points="189,-320.7 189,-343.7 362,-343.7 362,-320.7 189,-320.7"/>
<polygon fill="none" stroke="#000000" points="189,-320.7 189,-343.7 362,-343.7 362,-320.7 189,-320.7"/>
<text text-anchor="start" x="193.9075" y="-329.8" font-family="Helvetica,sans-Serif" font-weight="bold" font-size="11.00" fill="#000000">instance_role_permissions</text>
<text text-anchor="start" x="327.5219" y="-328.8" font-family="Helvetica,sans-Serif" font-size="11.00" fill="#000000">[table]</text>
<polygon fill="none" stroke="#000000" points="189,-301.7 189,-320.7 362,-320.7 362,-301.7 189,-301.7"/>
<text text-anchor="start" x="192" y="-307.8" font-family="Helvetica,sans-Serif" font-size="11.00" fill="#000000">...</text>
<polygon fill="#ffffff" stroke="transparent" points="189,-282.7 189,-301.7 261,-301.7 261,-282.7 189,-282.7"/>
<polygon fill="none" stroke="#000000" points="189,-282.7 189,-301.7 261,-301.7 261,-282.7 189,-282.7"/>
<text text-anchor="start" x="192" y="-288.8" font-family="Helvetica,sans-Serif" font-size="11.00" fill="#000000">&lt; 2</text>
<polygon fill="#ffffff" stroke="transparent" points="261,-282.7 261,-301.7 324,-301.7 324,-282.7 261,-282.7"/>
<polygon fill="none" stroke="#000000" points="261,-282.7 261,-301.7 324,-301.7 324,-282.7 261,-282.7"/>
<text text-anchor="start" x="288.6105" y="-288.8" font-family="Helvetica,sans-Serif" font-size="11.00" fill="#000000">0 rows</text>
<polygon fill="#ffffff" stroke="transparent" points="324,-282.7 324,-301.7 362,-301.7 362,-282.7 324,-282.7"/>
<polygon fill="none" stroke="#000000" points="324,-282.7 324,-301.7 362,-301.7 362,-282.7 324,-282.7"/>
<text text-anchor="start" x="352.8862" y="-288.8" font-family="Helvetica,sans-Serif" font-size="11.00" fill="#000000"> &#160;</text>
</a>
</g>
</g>
<!-- instance_role_permissions&#45;&gt;instance_roles -->
<g id="edge11" class="edge">
<title>instance_role_permissions:w&#45;&gt;instance_roles:e</title>
<path fill="none" stroke="#000000" d="M174.6819,-314.0969C146.8402,-329.812 163.5938,-394.7 121.5,-394.7"/>
<polygon fill="#000000" stroke="#000000" points="181.2161,-312.5468 189.831,-314.2028 185.108,-311.6234 189,-310.7 189,-310.7 189,-310.7 185.108,-311.6234 188.169,-307.1972 181.2161,-312.5468 181.2161,-312.5468"/>
<ellipse fill="none" stroke="#000000" cx="178.1025" cy="-313.2855" rx="3.2" ry="3.2"/>
</g>
<!-- sessions -->
<g id="node12" class="node">
<title>sessions</title>
<g id="a_node12"><a xlink:href="../../tables/sessions.html" xlink:title="sessions" target="_top">
<polygon fill="#ffffff" stroke="transparent" points="442.5,-585.7 442.5,-671.7 527.5,-671.7 527.5,-585.7 442.5,-585.7"/>
<polygon fill="#f5f5f5" stroke="transparent" points="443,-648.7 443,-671.7 528,-671.7 528,-648.7 443,-648.7"/>
<polygon fill="none" stroke="#000000" points="443,-648.7 443,-671.7 528,-671.7 528,-648.7 443,-648.7"/>
<text text-anchor="start" x="447.6072" y="-657.8" font-family="Helvetica,sans-Serif" font-weight="bold" font-size="11.00" fill="#000000">sessions</text>
<text text-anchor="start" x="493.5219" y="-656.8" font-family="Helvetica,sans-Serif" font-size="11.00" fill="#000000">[table]</text>
<polygon fill="none" stroke="#000000" points="443,-626.7 443,-648.7 528,-648.7 528,-626.7 443,-626.7"/>
<image xlink:href="../../images/primaryKeys.png" width="11px" height="12px" preserveAspectRatio="xMinYMin meet" x="448" y="-643.7"/>
<text text-anchor="start" x="471" y="-633.8" font-family="Helvetica,sans-Serif" font-size="11.00" fill="#000000">id</text>
<polygon fill="#ffffff" stroke="transparent" points="443,-604.7 443,-626.7 528,-626.7 528,-604.7 443,-604.7"/>
<polygon fill="none" stroke="#000000" points="443,-604.7 443,-626.7 528,-626.7 528,-604.7 443,-604.7"/>
<image xlink:href="../../images/foreignKeys.png" width="11px" height="12px" preserveAspectRatio="xMinYMin meet" x="448" y="-621.7"/>
<text text-anchor="start" x="471" y="-611.8" font-family="Helvetica,sans-Serif" font-size="11.00" fill="#000000">user_id</text>
<polygon fill="#ffffff" stroke="transparent" points="443,-585.7 443,-604.7 471,-604.7 471,-585.7 443,-585.7"/>
<polygon fill="none" stroke="#000000" points="443,-585.7 443,-604.7 471,-604.7 471,-585.7 443,-585.7"/>
<text text-anchor="start" x="446" y="-591.8" font-family="Helvetica,sans-Serif" font-size="11.00" fill="#000000">&lt; 1</text>
<polygon fill="#ffffff" stroke="transparent" points="471,-585.7 471,-604.7 512,-604.7 512,-585.7 471,-585.7"/>
<polygon fill="none" stroke="#000000" points="471,-585.7 471,-604.7 512,-604.7 512,-585.7 471,-585.7"/>
<text text-anchor="start" x="476.6105" y="-591.8" font-family="Helvetica,sans-Serif" font-size="11.00" fill="#000000">0 rows</text>
<polygon fill="#ffffff" stroke="transparent" points="512,-585.7 512,-604.7 528,-604.7 528,-585.7 512,-585.7"/>
<polygon fill="none" stroke="#000000" points="512,-585.7 512,-604.7 528,-604.7 528,-585.7 512,-585.7"/>
<text text-anchor="start" x="518.8862" y="-591.8" font-family="Helvetica,sans-Serif" font-size="11.00" fill="#000000"> &#160;</text>
</a>
</g>
</g>
<!-- sessions&#45;&gt;users -->
<g id="edge12" class="edge">
<title>sessions:w&#45;&gt;users:e</title>
<path fill="none" stroke="#000000" d="M432.601,-613.9697C403.7297,-603.1902 416.4753,-545.7 378,-545.7"/>
<polygon fill="#000000" stroke="#000000" points="442.8674,-611.6229 441.5543,-619.5144 439.976,-619.2518 441.2891,-611.3603 442.8674,-611.6229"/>
<polyline fill="none" stroke="#000000" points="443,-615.7 439.0543,-615.0434 "/>
<ellipse fill="none" stroke="#000000" cx="435.8977" cy="-614.5181" rx="3.2" ry="3.2"/>
</g>
<!-- user_bans -->
<g id="node13" class="node">
<title>user_bans</title>
<g id="a_node13"><a xlink:href="../../tables/user_bans.html" xlink:title="user_bans" target="_top">
<polygon fill="#ffffff" stroke="transparent" points="438,-432.2 438,-537.2 532,-537.2 532,-432.2 438,-432.2"/>
<polygon fill="#f5f5f5" stroke="transparent" points="438,-513.7 438,-536.7 532,-536.7 532,-513.7 438,-513.7"/>
<polygon fill="none" stroke="#000000" points="438,-513.7 438,-536.7 532,-536.7 532,-513.7 438,-513.7"/>
<text text-anchor="start" x="442.8244" y="-522.8" font-family="Helvetica,sans-Serif" font-weight="bold" font-size="11.00" fill="#000000">user_bans</text>
<text text-anchor="start" x="497.5219" y="-521.8" font-family="Helvetica,sans-Serif" font-size="11.00" fill="#000000">[table]</text>
<polygon fill="none" stroke="#000000" points="438,-491.7 438,-513.7 532,-513.7 532,-491.7 438,-491.7"/>
<image xlink:href="../../images/primaryKeys.png" width="11px" height="12px" preserveAspectRatio="xMinYMin meet" x="443" y="-508.7"/>
<text text-anchor="start" x="461" y="-498.8" font-family="Helvetica,sans-Serif" font-size="11.00" fill="#000000">user_id</text>
<polygon fill="none" stroke="#000000" points="438,-469.7 438,-491.7 532,-491.7 532,-469.7 438,-469.7"/>
<image xlink:href="../../images/primaryKeys.png" width="11px" height="12px" preserveAspectRatio="xMinYMin meet" x="443" y="-486.7"/>
<text text-anchor="start" x="461" y="-476.8" font-family="Helvetica,sans-Serif" font-size="11.00" fill="#000000">chapter_id</text>
<polygon fill="none" stroke="#000000" points="438,-450.7 438,-469.7 532,-469.7 532,-450.7 438,-450.7"/>
<text text-anchor="start" x="441" y="-456.8" font-family="Helvetica,sans-Serif" font-size="11.00" fill="#000000">...</text>
<polygon fill="#ffffff" stroke="transparent" points="438,-431.7 438,-450.7 470,-450.7 470,-431.7 438,-431.7"/>
<polygon fill="none" stroke="#000000" points="438,-431.7 438,-450.7 470,-450.7 470,-431.7 438,-431.7"/>
<text text-anchor="start" x="441" y="-437.8" font-family="Helvetica,sans-Serif" font-size="11.00" fill="#000000">&lt; 2</text>
<polygon fill="#ffffff" stroke="transparent" points="470,-431.7 470,-450.7 514,-450.7 514,-431.7 470,-431.7"/>
<polygon fill="none" stroke="#000000" points="470,-431.7 470,-450.7 514,-450.7 514,-431.7 470,-431.7"/>
<text text-anchor="start" x="478.6105" y="-437.8" font-family="Helvetica,sans-Serif" font-size="11.00" fill="#000000">0 rows</text>
<polygon fill="#ffffff" stroke="transparent" points="514,-431.7 514,-450.7 532,-450.7 532,-431.7 514,-431.7"/>
<polygon fill="none" stroke="#000000" points="514,-431.7 514,-450.7 532,-450.7 532,-431.7 514,-431.7"/>
<text text-anchor="start" x="522.8862" y="-437.8" font-family="Helvetica,sans-Serif" font-size="11.00" fill="#000000"> &#160;</text>
</a>
</g>
</g>
<!-- user_bans&#45;&gt;chapters -->
<g id="edge13" class="edge">
<title>user_bans:w&#45;&gt;chapters:e</title>
<path fill="none" stroke="#000000" d="M423.6249,-477.8266C408.7446,-470.678 406.7227,-451.6633 388,-437.7 358.3521,-415.5888 354.9851,-392.7 318,-392.7"/>
<polygon fill="#000000" stroke="#000000" points="430.1552,-479.1319 437.2943,-484.2302 434.0776,-479.9159 438,-480.7 438,-480.7 438,-480.7 434.0776,-479.9159 438.7057,-477.1698 430.1552,-479.1319 430.1552,-479.1319"/>
<ellipse fill="none" stroke="#000000" cx="427.0173" cy="-478.5046" rx="3.2" ry="3.2"/>
</g>
<!-- user_bans&#45;&gt;users -->
<g id="edge14" class="edge">
<title>user_bans:w&#45;&gt;users:e</title>
<path fill="none" stroke="#000000" d="M423.8434,-506.2189C405.9792,-516.4885 405.0407,-545.7 378,-545.7"/>
<polygon fill="#000000" stroke="#000000" points="430.2362,-504.6299 438.8684,-506.1937 434.1181,-503.6649 438,-502.7 438,-502.7 438,-502.7 434.1181,-503.6649 437.1316,-499.2063 430.2362,-504.6299 430.2362,-504.6299"/>
<ellipse fill="none" stroke="#000000" cx="427.1307" cy="-505.4018" rx="3.2" ry="3.2"/>
</g>
</g>
</svg>
