<?xml version="1.0" encoding="UTF-8" standalone="no"?>
<!DOCTYPE svg PUBLIC "-//W3C//DTD SVG 1.1//EN"
 "http://www.w3.org/Graphics/SVG/1.1/DTD/svg11.dtd">
<!-- Generated by graphviz version 2.40.1 (20161225.0304)
 -->
<!-- Title: twoDegreesRelationshipsDiagram Pages: 1 -->
<svg width="530pt" height="685pt"
 viewBox="0.00 0.00 530.00 685.20" xmlns="http://www.w3.org/2000/svg" xmlns:xlink="http://www.w3.org/1999/xlink">
<g id="graph0" class="graph" transform="scale(1 1) rotate(0) translate(4 681.2)">
<title>twoDegreesRelationshipsDiagram</title>
<polygon fill="#ffffff" stroke="transparent" points="-4,4 -4,-681.2 526,-681.2 526,4 -4,4"/>
<text text-anchor="middle" x="72.4936" y="-7.3" font-family="Helvetica,sans-Serif" font-size="11.00" fill="#000000">Generated by SchemaSpy</text>
<!-- events -->
<g id="node1" class="node">
<title>events</title>
<g id="a_node1"><a xlink:href="../../tables/events.html" xlink:title="events" target="_top">
<polygon fill="#ffffff" stroke="transparent" points="193,-464.2 193,-525.2 273,-525.2 273,-464.2 193,-464.2"/>
<polygon fill="#f5f5f5" stroke="transparent" points="193,-501.7 193,-524.7 273,-524.7 273,-501.7 193,-501.7"/>
<polygon fill="none" stroke="#000000" points="193,-501.7 193,-524.7 273,-524.7 273,-501.7 193,-501.7"/>
<text text-anchor="start" x="198" y="-510.8" font-family="Helvetica,sans-Serif" font-weight="bold" font-size="11.00" fill="#000000">events</text>
<text text-anchor="start" x="238.0437" y="-509.8" font-family="Helvetica,sans-Serif" font-size="11.00" fill="#000000">[table]</text>
<polygon fill="none" stroke="#000000" points="193,-482.7 193,-501.7 273,-501.7 273,-482.7 193,-482.7"/>
<text text-anchor="start" x="196" y="-488.8" font-family="Helvetica,sans-Serif" font-size="11.00" fill="#000000">...</text>
<polygon fill="#ffffff" stroke="transparent" points="193,-463.7 193,-482.7 214,-482.7 214,-463.7 193,-463.7"/>
<polygon fill="none" stroke="#000000" points="193,-463.7 193,-482.7 214,-482.7 214,-463.7 193,-463.7"/>
<text text-anchor="start" x="195.7027" y="-469.8" font-family="Helvetica,sans-Serif" font-size="11.00" fill="#000000">&lt; 2</text>
<polygon fill="#ffffff" stroke="transparent" points="214,-463.7 214,-482.7 252,-482.7 252,-463.7 214,-463.7"/>
<polygon fill="none" stroke="#000000" points="214,-463.7 214,-482.7 252,-482.7 252,-463.7 214,-463.7"/>
<text text-anchor="start" x="216.8053" y="-469.8" font-family="Helvetica,sans-Serif" font-size="11.00" fill="#000000">0 rows</text>
<polygon fill="#ffffff" stroke="transparent" points="252,-463.7 252,-482.7 273,-482.7 273,-463.7 252,-463.7"/>
<polygon fill="none" stroke="#000000" points="252,-463.7 252,-482.7 273,-482.7 273,-463.7 252,-463.7"/>
<text text-anchor="start" x="254.7027" y="-469.8" font-family="Helvetica,sans-Serif" font-size="11.00" fill="#000000">4 &gt;</text>
</a>
</g>
</g>
<!-- chapters -->
<g id="node2" class="node">
<title>chapters</title>
<g id="a_node2"><a xlink:href="../../tables/chapters.html" xlink:title="chapters" target="_top">
<polygon fill="#ffffff" stroke="transparent" points="8,-207.2 8,-268.2 93,-268.2 93,-207.2 8,-207.2"/>
<polygon fill="#f5f5f5" stroke="transparent" points="8.5,-244.7 8.5,-267.7 93.5,-267.7 93.5,-244.7 8.5,-244.7"/>
<polygon fill="none" stroke="#000000" points="8.5,-244.7 8.5,-267.7 93.5,-267.7 93.5,-244.7 8.5,-244.7"/>
<text text-anchor="start" x="13.4108" y="-253.8" font-family="Helvetica,sans-Serif" font-weight="bold" font-size="11.00" fill="#000000">chapters</text>
<text text-anchor="start" x="59.0219" y="-252.8" font-family="Helvetica,sans-Serif" font-size="11.00" fill="#000000">[table]</text>
<polygon fill="none" stroke="#000000" points="8.5,-225.7 8.5,-244.7 93.5,-244.7 93.5,-225.7 8.5,-225.7"/>
<text text-anchor="start" x="11.5" y="-231.8" font-family="Helvetica,sans-Serif" font-size="11.00" fill="#000000">...</text>
<polygon fill="#ffffff" stroke="transparent" points="8.5,-206.7 8.5,-225.7 27.5,-225.7 27.5,-206.7 8.5,-206.7"/>
<polygon fill="none" stroke="#000000" points="8.5,-206.7 8.5,-225.7 27.5,-225.7 27.5,-206.7 8.5,-206.7"/>
<text text-anchor="start" x="11.5" y="-212.8" font-family="Helvetica,sans-Serif" font-size="11.00" fill="#000000"> &#160;</text>
<polygon fill="#ffffff" stroke="transparent" points="27.5,-206.7 27.5,-225.7 68.5,-225.7 68.5,-206.7 27.5,-206.7"/>
<polygon fill="none" stroke="#000000" points="27.5,-206.7 27.5,-225.7 68.5,-225.7 68.5,-206.7 27.5,-206.7"/>
<text text-anchor="start" x="33.1105" y="-212.8" font-family="Helvetica,sans-Serif" font-size="11.00" fill="#000000">0 rows</text>
<polygon fill="#ffffff" stroke="transparent" points="68.5,-206.7 68.5,-225.7 93.5,-225.7 93.5,-206.7 68.5,-206.7"/>
<polygon fill="none" stroke="#000000" points="68.5,-206.7 68.5,-225.7 93.5,-225.7 93.5,-206.7 68.5,-206.7"/>
<text text-anchor="start" x="74.9053" y="-212.8" font-family="Helvetica,sans-Serif" font-size="11.00" fill="#000000">3 &gt;</text>
</a>
</g>
</g>
<!-- events&#45;&gt;chapters -->
<g id="edge1" class="edge">
<title>events:w&#45;&gt;chapters:e</title>
<path fill="none" stroke="#000000" d="M178.6161,-490.6194C158.0169,-487.1343 148.3863,-475.1523 134,-453.7 106.4345,-412.5954 142.9919,-234.7 93.5,-234.7"/>
<polygon fill="#000000" stroke="#000000" points="185.0225,-491.1006 192.7303,-495.2899 189.0112,-491.4003 193,-491.7 193,-491.7 193,-491.7 189.0112,-491.4003 193.2697,-488.1101 185.0225,-491.1006 185.0225,-491.1006"/>
<ellipse fill="none" stroke="#000000" cx="181.8315" cy="-490.8609" rx="3.2" ry="3.2"/>
</g>
<!-- rsvps -->
<g id="node3" class="node">
<title>rsvps</title>
<g id="a_node3"><a xlink:href="../../tables/rsvps.html" xlink:title="rsvps" target="_top">
<polygon fill="#ffffff" stroke="transparent" points="393.5,-568.2 393.5,-673.2 493.5,-673.2 493.5,-568.2 393.5,-568.2"/>
<polygon fill="#f5f5f5" stroke="transparent" points="393.5,-649.7 393.5,-672.7 493.5,-672.7 493.5,-649.7 393.5,-649.7"/>
<polygon fill="none" stroke="#000000" points="393.5,-649.7 393.5,-672.7 493.5,-672.7 493.5,-649.7 393.5,-649.7"/>
<text text-anchor="start" x="398.5" y="-658.8" font-family="Helvetica,sans-Serif" font-weight="bold" font-size="11.00" fill="#000000">rsvps</text>
<text text-anchor="start" x="458.5437" y="-657.8" font-family="Helvetica,sans-Serif" font-size="11.00" fill="#000000">[table]</text>
<polygon fill="none" stroke="#000000" points="393.5,-627.7 393.5,-649.7 493.5,-649.7 493.5,-627.7 393.5,-627.7"/>
<image xlink:href="../../images/primaryKeys.png" width="11px" height="12px" preserveAspectRatio="xMinYMin meet" x="398.5" y="-644.7"/>
<text text-anchor="start" x="413.5" y="-634.8" font-family="Helvetica,sans-Serif" font-size="11.00" fill="#000000">user_id</text>
<polygon fill="none" stroke="#000000" points="393.5,-605.7 393.5,-627.7 493.5,-627.7 493.5,-605.7 393.5,-605.7"/>
<image xlink:href="../../images/primaryKeys.png" width="11px" height="12px" preserveAspectRatio="xMinYMin meet" x="398.5" y="-622.7"/>
<text text-anchor="start" x="413.5" y="-612.8" font-family="Helvetica,sans-Serif" font-size="11.00" fill="#000000">event_id</text>
<polygon fill="none" stroke="#000000" points="393.5,-586.7 393.5,-605.7 493.5,-605.7 493.5,-586.7 393.5,-586.7"/>
<text text-anchor="start" x="396.5" y="-592.8" font-family="Helvetica,sans-Serif" font-size="11.00" fill="#000000">...</text>
<polygon fill="#ffffff" stroke="transparent" points="393.5,-567.7 393.5,-586.7 428.5,-586.7 428.5,-567.7 393.5,-567.7"/>
<polygon fill="none" stroke="#000000" points="393.5,-567.7 393.5,-586.7 428.5,-586.7 428.5,-567.7 393.5,-567.7"/>
<text text-anchor="start" x="396.5" y="-573.8" font-family="Helvetica,sans-Serif" font-size="11.00" fill="#000000">&lt; 2</text>
<polygon fill="#ffffff" stroke="transparent" points="428.5,-567.7 428.5,-586.7 473.5,-586.7 473.5,-567.7 428.5,-567.7"/>
<polygon fill="none" stroke="#000000" points="428.5,-567.7 428.5,-586.7 473.5,-586.7 473.5,-567.7 428.5,-567.7"/>
<text text-anchor="start" x="438.1105" y="-573.8" font-family="Helvetica,sans-Serif" font-size="11.00" fill="#000000">0 rows</text>
<polygon fill="#ffffff" stroke="transparent" points="473.5,-567.7 473.5,-586.7 493.5,-586.7 493.5,-567.7 473.5,-567.7"/>
<polygon fill="none" stroke="#000000" points="473.5,-567.7 473.5,-586.7 493.5,-586.7 493.5,-567.7 473.5,-567.7"/>
<text text-anchor="start" x="484.3862" y="-573.8" font-family="Helvetica,sans-Serif" font-size="11.00" fill="#000000"> &#160;</text>
</a>
</g>
</g>
<!-- rsvps&#45;&gt;events -->
<g id="edge2" class="edge">
<title>rsvps:w&#45;&gt;events:e</title>
<path fill="none" stroke="#000000" d="M379.1601,-615.0275C320.4407,-600.1943 344.8911,-491.7 273,-491.7"/>
<polygon fill="#000000" stroke="#000000" points="385.5539,-615.7732 393.0829,-620.2758 389.5269,-616.2366 393.5,-616.7 393.5,-616.7 393.5,-616.7 389.5269,-616.2366 393.9171,-613.1242 385.5539,-615.7732 385.5539,-615.7732"/>
<ellipse fill="none" stroke="#000000" cx="382.3754" cy="-615.4024" rx="3.2" ry="3.2"/>
</g>
<!-- users -->
<g id="node4" class="node">
<title>users</title>
<g id="a_node4"><a xlink:href="../../tables/users.html" xlink:title="users" target="_top">
<polygon fill="#ffffff" stroke="transparent" points="142,-264.7 142,-442.7 324,-442.7 324,-264.7 142,-264.7"/>
<polygon fill="#f5f5f5" stroke="transparent" points="144,-417.7 144,-440.7 322,-440.7 322,-417.7 144,-417.7"/>
<polygon fill="none" stroke="#000000" points="144,-417.7 144,-440.7 322,-440.7 322,-417.7 144,-417.7"/>
<text text-anchor="start" x="149" y="-426.8" font-family="Helvetica,sans-Serif" font-weight="bold" font-size="11.00" fill="#000000">users</text>
<text text-anchor="start" x="287.0437" y="-425.8" font-family="Helvetica,sans-Serif" font-size="11.00" fill="#000000">[table]</text>
<polygon fill="none" stroke="#000000" points="144,-395.7 144,-417.7 232,-417.7 232,-395.7 144,-395.7"/>
<text text-anchor="start" x="164" y="-402.8" font-family="Helvetica,sans-Serif" font-size="11.00" fill="#000000">created_at</text>
<polygon fill="none" stroke="#000000" points="232,-395.7 232,-417.7 322,-417.7 322,-395.7 232,-395.7"/>
<text text-anchor="start" x="235" y="-403.4" font-family="Helvetica,sans-Serif" font-size="11.00" fill="#000000">timestamp[26,3]</text>
<polygon fill="none" stroke="#000000" points="144,-373.7 144,-395.7 232,-395.7 232,-373.7 144,-373.7"/>
<text text-anchor="start" x="164" y="-380.8" font-family="Helvetica,sans-Serif" font-size="11.00" fill="#000000">updated_at</text>
<polygon fill="none" stroke="#000000" points="232,-373.7 232,-395.7 322,-395.7 322,-373.7 232,-373.7"/>
<text text-anchor="start" x="235" y="-381.4" font-family="Helvetica,sans-Serif" font-size="11.00" fill="#000000">timestamp[26,3]</text>
<polygon fill="none" stroke="#000000" points="144,-351.7 144,-373.7 232,-373.7 232,-351.7 144,-351.7"/>
<image xlink:href="../../images/primaryKeys.png" width="11px" height="12px" preserveAspectRatio="xMinYMin meet" x="149" y="-368.7"/>
<text text-anchor="start" x="164" y="-358.8" font-family="Helvetica,sans-Serif" font-size="11.00" fill="#000000">id</text>
<polygon fill="none" stroke="#000000" points="232,-351.7 232,-373.7 322,-373.7 322,-351.7 232,-351.7"/>
<text text-anchor="start" x="235" y="-359.4" font-family="Helvetica,sans-Serif" font-size="11.00" fill="#000000">serial[10]</text>
<polygon fill="none" stroke="#000000" points="144,-329.7 144,-351.7 232,-351.7 232,-329.7 144,-329.7"/>
<text text-anchor="start" x="164" y="-336.8" font-family="Helvetica,sans-Serif" font-size="11.00" fill="#000000">first_name</text>
<polygon fill="none" stroke="#000000" points="232,-329.7 232,-351.7 322,-351.7 322,-329.7 232,-329.7"/>
<text text-anchor="start" x="234.5043" y="-337.4" font-family="Helvetica,sans-Serif" font-size="11.00" fill="#000000">text[2147483647]</text>
<polygon fill="none" stroke="#000000" points="144,-307.7 144,-329.7 232,-329.7 232,-307.7 144,-307.7"/>
<text text-anchor="start" x="164" y="-314.8" font-family="Helvetica,sans-Serif" font-size="11.00" fill="#000000">last_name</text>
<polygon fill="none" stroke="#000000" points="232,-307.7 232,-329.7 322,-329.7 322,-307.7 232,-307.7"/>
<text text-anchor="start" x="234.5043" y="-315.4" font-family="Helvetica,sans-Serif" font-size="11.00" fill="#000000">text[2147483647]</text>
<polygon fill="#ffffff" stroke="transparent" points="144,-285.7 144,-307.7 232,-307.7 232,-285.7 144,-285.7"/>
<polygon fill="none" stroke="#000000" points="144,-285.7 144,-307.7 232,-307.7 232,-285.7 144,-285.7"/>
<text text-anchor="start" x="164" y="-292.8" font-family="Helvetica,sans-Serif" font-size="11.00" fill="#000000">email</text>
<polygon fill="none" stroke="#000000" points="232,-285.7 232,-307.7 322,-307.7 322,-285.7 232,-285.7"/>
<text text-anchor="start" x="234.5043" y="-293.4" font-family="Helvetica,sans-Serif" font-size="11.00" fill="#000000">text[2147483647]</text>
<polygon fill="#ffffff" stroke="transparent" points="144,-266.7 144,-285.7 179,-285.7 179,-266.7 144,-266.7"/>
<polygon fill="none" stroke="#000000" points="144,-266.7 144,-285.7 179,-285.7 179,-266.7 144,-266.7"/>
<text text-anchor="start" x="147" y="-272.8" font-family="Helvetica,sans-Serif" font-size="11.00" fill="#000000">&lt; 0</text>
<polygon fill="#ffffff" stroke="transparent" points="179,-266.7 179,-285.7 232,-285.7 232,-266.7 179,-266.7"/>
<polygon fill="none" stroke="#000000" points="179,-266.7 179,-285.7 232,-285.7 232,-266.7 179,-266.7"/>
<text text-anchor="start" x="196.6105" y="-272.8" font-family="Helvetica,sans-Serif" font-size="11.00" fill="#000000">0 rows</text>
<polygon fill="#ffffff" stroke="transparent" points="232,-266.7 232,-285.7 322,-285.7 322,-266.7 232,-266.7"/>
<polygon fill="none" stroke="#000000" points="232,-266.7 232,-285.7 322,-285.7 322,-266.7 232,-266.7"/>
<text text-anchor="start" x="303.4053" y="-272.8" font-family="Helvetica,sans-Serif" font-size="11.00" fill="#000000">5 &gt;</text>
<polygon fill="none" stroke="#000000" stroke-width="2" points="143,-265.7 143,-441.7 323,-441.7 323,-265.7 143,-265.7"/>
</a>
</g>
</g>
<!-- rsvps&#45;&gt;users -->
<g id="edge3" class="edge">
<title>rsvps:w&#45;&gt;users:e</title>
<path fill="none" stroke="#000000" d="M379.9053,-633.1868C338.5802,-594.2874 380.0369,-362.7 322,-362.7"/>
<polygon fill="#000000" stroke="#000000" points="386.0864,-635.6935 392.1471,-642.0361 389.7932,-637.1967 393.5,-638.7 393.5,-638.7 393.5,-638.7 389.7932,-637.1967 394.8529,-635.3639 386.0864,-635.6935 386.0864,-635.6935"/>
<ellipse fill="none" stroke="#000000" cx="383.121" cy="-634.4908" rx="3.2" ry="3.2"/>
</g>
<!-- user_bans -->
<g id="node5" class="node">
<title>user_bans</title>
<g id="a_node5"><a xlink:href="../../tables/user_bans.html" xlink:title="user_bans" target="_top">
<polygon fill="#ffffff" stroke="transparent" points="396.5,-186.2 396.5,-291.2 490.5,-291.2 490.5,-186.2 396.5,-186.2"/>
<polygon fill="#f5f5f5" stroke="transparent" points="396.5,-267.7 396.5,-290.7 490.5,-290.7 490.5,-267.7 396.5,-267.7"/>
<polygon fill="none" stroke="#000000" points="396.5,-267.7 396.5,-290.7 490.5,-290.7 490.5,-267.7 396.5,-267.7"/>
<text text-anchor="start" x="401.3244" y="-276.8" font-family="Helvetica,sans-Serif" font-weight="bold" font-size="11.00" fill="#000000">user_bans</text>
<text text-anchor="start" x="456.0219" y="-275.8" font-family="Helvetica,sans-Serif" font-size="11.00" fill="#000000">[table]</text>
<polygon fill="none" stroke="#000000" points="396.5,-245.7 396.5,-267.7 490.5,-267.7 490.5,-245.7 396.5,-245.7"/>
<image xlink:href="../../images/primaryKeys.png" width="11px" height="12px" preserveAspectRatio="xMinYMin meet" x="401.5" y="-262.7"/>
<text text-anchor="start" x="419.5" y="-252.8" font-family="Helvetica,sans-Serif" font-size="11.00" fill="#000000">user_id</text>
<polygon fill="none" stroke="#000000" points="396.5,-223.7 396.5,-245.7 490.5,-245.7 490.5,-223.7 396.5,-223.7"/>
<image xlink:href="../../images/primaryKeys.png" width="11px" height="12px" preserveAspectRatio="xMinYMin meet" x="401.5" y="-240.7"/>
<text text-anchor="start" x="419.5" y="-230.8" font-family="Helvetica,sans-Serif" font-size="11.00" fill="#000000">chapter_id</text>
<polygon fill="none" stroke="#000000" points="396.5,-204.7 396.5,-223.7 490.5,-223.7 490.5,-204.7 396.5,-204.7"/>
<text text-anchor="start" x="399.5" y="-210.8" font-family="Helvetica,sans-Serif" font-size="11.00" fill="#000000">...</text>
<polygon fill="#ffffff" stroke="transparent" points="396.5,-185.7 396.5,-204.7 428.5,-204.7 428.5,-185.7 396.5,-185.7"/>
<polygon fill="none" stroke="#000000" points="396.5,-185.7 396.5,-204.7 428.5,-204.7 428.5,-185.7 396.5,-185.7"/>
<text text-anchor="start" x="399.5" y="-191.8" font-family="Helvetica,sans-Serif" font-size="11.00" fill="#000000">&lt; 2</text>
<polygon fill="#ffffff" stroke="transparent" points="428.5,-185.7 428.5,-204.7 472.5,-204.7 472.5,-185.7 428.5,-185.7"/>
<polygon fill="none" stroke="#000000" points="428.5,-185.7 428.5,-204.7 472.5,-204.7 472.5,-185.7 428.5,-185.7"/>
<text text-anchor="start" x="437.1105" y="-191.8" font-family="Helvetica,sans-Serif" font-size="11.00" fill="#000000">0 rows</text>
<polygon fill="#ffffff" stroke="transparent" points="472.5,-185.7 472.5,-204.7 490.5,-204.7 490.5,-185.7 472.5,-185.7"/>
<polygon fill="none" stroke="#000000" points="472.5,-185.7 472.5,-204.7 490.5,-204.7 490.5,-185.7 472.5,-185.7"/>
<text text-anchor="start" x="481.3862" y="-191.8" font-family="Helvetica,sans-Serif" font-size="11.00" fill="#000000"> &#160;</text>
</a>
</g>
</g>
<!-- user_bans&#45;&gt;chapters -->
<g id="edge4" class="edge">
<title>user_bans:w&#45;&gt;chapters:e</title>
<path fill="none" stroke="#000000" d="M381.9148,-234.7C259.1955,-234.7 223.1693,-234.7 93.5,-234.7"/>
<polygon fill="#000000" stroke="#000000" points="388.5,-234.7001 396.5,-238.3 392.5,-234.7 396.5,-234.7 396.5,-234.7 396.5,-234.7 392.5,-234.7 396.5,-231.1 388.5,-234.7001 388.5,-234.7001"/>
<ellipse fill="none" stroke="#000000" cx="385.3" cy="-234.7001" rx="3.2" ry="3.2"/>
</g>
<!-- user_bans&#45;&gt;users -->
<g id="edge5" class="edge">
<title>user_bans:w&#45;&gt;users:e</title>
<path fill="none" stroke="#000000" d="M382.2579,-259.5352C345.9226,-276.3922 373.9597,-362.7 322,-362.7"/>
<polygon fill="#000000" stroke="#000000" points="388.654,-258.262 397.2029,-260.2307 392.577,-257.481 396.5,-256.7 396.5,-256.7 396.5,-256.7 392.577,-257.481 395.7971,-253.1693 388.654,-258.262 388.654,-258.262"/>
<ellipse fill="none" stroke="#000000" cx="385.5155" cy="-258.8868" rx="3.2" ry="3.2"/>
</g>
<!-- user_chapter_roles -->
<g id="node6" class="node">
<title>user_chapter_roles</title>
<g id="a_node6"><a xlink:href="../../tables/user_chapter_roles.html" xlink:title="user_chapter_roles" target="_top">
<polygon fill="#ffffff" stroke="transparent" points="375,-38.2 375,-165.2 512,-165.2 512,-38.2 375,-38.2"/>
<polygon fill="#f5f5f5" stroke="transparent" points="375.5,-141.7 375.5,-164.7 512.5,-164.7 512.5,-141.7 375.5,-141.7"/>
<polygon fill="none" stroke="#000000" points="375.5,-141.7 375.5,-164.7 512.5,-164.7 512.5,-141.7 375.5,-141.7"/>
<text text-anchor="start" x="380.4338" y="-150.8" font-family="Helvetica,sans-Serif" font-weight="bold" font-size="11.00" fill="#000000">user_chapter_roles</text>
<text text-anchor="start" x="478.0219" y="-149.8" font-family="Helvetica,sans-Serif" font-size="11.00" fill="#000000">[table]</text>
<polygon fill="none" stroke="#000000" points="375.5,-119.7 375.5,-141.7 512.5,-141.7 512.5,-119.7 375.5,-119.7"/>
<image xlink:href="../../images/primaryKeys.png" width="11px" height="12px" preserveAspectRatio="xMinYMin meet" x="380.5" y="-136.7"/>
<text text-anchor="start" x="397.5" y="-126.8" font-family="Helvetica,sans-Serif" font-size="11.00" fill="#000000">user_id</text>
<polygon fill="none" stroke="#000000" points="375.5,-97.7 375.5,-119.7 512.5,-119.7 512.5,-97.7 375.5,-97.7"/>
<image xlink:href="../../images/primaryKeys.png" width="11px" height="12px" preserveAspectRatio="xMinYMin meet" x="380.5" y="-114.7"/>
<text text-anchor="start" x="397.5" y="-104.8" font-family="Helvetica,sans-Serif" font-size="11.00" fill="#000000">chapter_id</text>
<polygon fill="none" stroke="#000000" points="375.5,-75.7 375.5,-97.7 512.5,-97.7 512.5,-75.7 375.5,-75.7"/>
<image xlink:href="../../images/primaryKeys.png" width="11px" height="12px" preserveAspectRatio="xMinYMin meet" x="380.5" y="-92.7"/>
<text text-anchor="start" x="397.5" y="-82.8" font-family="Helvetica,sans-Serif" font-size="11.00" fill="#000000">role_name</text>
<polygon fill="none" stroke="#000000" points="375.5,-56.7 375.5,-75.7 512.5,-75.7 512.5,-56.7 375.5,-56.7"/>
<text text-anchor="start" x="378.5" y="-62.8" font-family="Helvetica,sans-Serif" font-size="11.00" fill="#000000">...</text>
<polygon fill="#ffffff" stroke="transparent" points="375.5,-37.7 375.5,-56.7 429.5,-56.7 429.5,-37.7 375.5,-37.7"/>
<polygon fill="none" stroke="#000000" points="375.5,-37.7 375.5,-56.7 429.5,-56.7 429.5,-37.7 375.5,-37.7"/>
<text text-anchor="start" x="378.5" y="-43.8" font-family="Helvetica,sans-Serif" font-size="11.00" fill="#000000">&lt; 2</text>
<polygon fill="#ffffff" stroke="transparent" points="429.5,-37.7 429.5,-56.7 483.5,-56.7 483.5,-37.7 429.5,-37.7"/>
<polygon fill="none" stroke="#000000" points="429.5,-37.7 429.5,-56.7 483.5,-56.7 483.5,-37.7 429.5,-37.7"/>
<text text-anchor="start" x="448.1105" y="-43.8" font-family="Helvetica,sans-Serif" font-size="11.00" fill="#000000">0 rows</text>
<polygon fill="#ffffff" stroke="transparent" points="483.5,-37.7 483.5,-56.7 512.5,-56.7 512.5,-37.7 483.5,-37.7"/>
<polygon fill="none" stroke="#000000" points="483.5,-37.7 483.5,-56.7 512.5,-56.7 512.5,-37.7 483.5,-37.7"/>
<text text-anchor="start" x="503.3862" y="-43.8" font-family="Helvetica,sans-Serif" font-size="11.00" fill="#000000"> &#160;</text>
</a>
</g>
</g>
<!-- user_chapter_roles&#45;&gt;chapters -->
<g id="edge6" class="edge">
<title>user_chapter_roles:w&#45;&gt;chapters:e</title>
<path fill="none" stroke="#000000" d="M360.7405,-109.2077C237.4932,-117.878 225.6809,-234.7 93.5,-234.7"/>
<polygon fill="#000000" stroke="#000000" points="367.5047,-108.9751 375.6238,-112.2979 371.5024,-108.8375 375.5,-108.7 375.5,-108.7 375.5,-108.7 371.5024,-108.8375 375.3762,-105.1021 367.5047,-108.9751 367.5047,-108.9751"/>
<ellipse fill="none" stroke="#000000" cx="364.3066" cy="-109.0851" rx="3.2" ry="3.2"/>
</g>
<!-- user_chapter_roles&#45;&gt;users -->
<g id="edge7" class="edge">
<title>user_chapter_roles:w&#45;&gt;users:e</title>
<path fill="none" stroke="#000000" d="M360.884,-132.5675C285.627,-154.5236 422.237,-362.7 322,-362.7"/>
<polygon fill="#000000" stroke="#000000" points="367.5645,-131.714 375.9563,-134.271 371.5323,-131.207 375.5,-130.7 375.5,-130.7 375.5,-130.7 371.5323,-131.207 375.0437,-127.129 367.5645,-131.714 367.5645,-131.714"/>
<ellipse fill="none" stroke="#000000" cx="364.3903" cy="-132.1195" rx="3.2" ry="3.2"/>
</g>
<!-- user_event_roles -->
<g id="node7" class="node">
<title>user_event_roles</title>
<g id="a_node7"><a xlink:href="../../tables/user_event_roles.html" xlink:title="user_event_roles" target="_top">
<polygon fill="#ffffff" stroke="transparent" points="380,-420.2 380,-547.2 507,-547.2 507,-420.2 380,-420.2"/>
<polygon fill="#f5f5f5" stroke="transparent" points="380.5,-523.7 380.5,-546.7 507.5,-546.7 507.5,-523.7 380.5,-523.7"/>
<polygon fill="none" stroke="#000000" points="380.5,-523.7 380.5,-546.7 507.5,-546.7 507.5,-523.7 380.5,-523.7"/>
<text text-anchor="start" x="385.3222" y="-532.8" font-family="Helvetica,sans-Serif" font-weight="bold" font-size="11.00" fill="#000000">user_event_roles</text>
<text text-anchor="start" x="473.0219" y="-531.8" font-family="Helvetica,sans-Serif" font-size="11.00" fill="#000000">[table]</text>
<polygon fill="none" stroke="#000000" points="380.5,-501.7 380.5,-523.7 507.5,-523.7 507.5,-501.7 380.5,-501.7"/>
<image xlink:href="../../images/primaryKeys.png" width="11px" height="12px" preserveAspectRatio="xMinYMin meet" x="385.5" y="-518.7"/>
<text text-anchor="start" x="404.5" y="-508.8" font-family="Helvetica,sans-Serif" font-size="11.00" fill="#000000">user_id</text>
<polygon fill="none" stroke="#000000" points="380.5,-479.7 380.5,-501.7 507.5,-501.7 507.5,-479.7 380.5,-479.7"/>
<image xlink:href="../../images/primaryKeys.png" width="11px" height="12px" preserveAspectRatio="xMinYMin meet" x="385.5" y="-496.7"/>
<text text-anchor="start" x="404.5" y="-486.8" font-family="Helvetica,sans-Serif" font-size="11.00" fill="#000000">event_id</text>
<polygon fill="none" stroke="#000000" points="380.5,-457.7 380.5,-479.7 507.5,-479.7 507.5,-457.7 380.5,-457.7"/>
<image xlink:href="../../images/primaryKeys.png" width="11px" height="12px" preserveAspectRatio="xMinYMin meet" x="385.5" y="-474.7"/>
<text text-anchor="start" x="404.5" y="-464.8" font-family="Helvetica,sans-Serif" font-size="11.00" fill="#000000">role_name</text>
<polygon fill="none" stroke="#000000" points="380.5,-438.7 380.5,-457.7 507.5,-457.7 507.5,-438.7 380.5,-438.7"/>
<text text-anchor="start" x="383.5" y="-444.8" font-family="Helvetica,sans-Serif" font-size="11.00" fill="#000000">...</text>
<polygon fill="#ffffff" stroke="transparent" points="380.5,-419.7 380.5,-438.7 429.5,-438.7 429.5,-419.7 380.5,-419.7"/>
<polygon fill="none" stroke="#000000" points="380.5,-419.7 380.5,-438.7 429.5,-438.7 429.5,-419.7 380.5,-419.7"/>
<text text-anchor="start" x="383.5" y="-425.8" font-family="Helvetica,sans-Serif" font-size="11.00" fill="#000000">&lt; 2</text>
<polygon fill="#ffffff" stroke="transparent" points="429.5,-419.7 429.5,-438.7 481.5,-438.7 481.5,-419.7 429.5,-419.7"/>
<polygon fill="none" stroke="#000000" points="429.5,-419.7 429.5,-438.7 481.5,-438.7 481.5,-419.7 429.5,-419.7"/>
<text text-anchor="start" x="446.1105" y="-425.8" font-family="Helvetica,sans-Serif" font-size="11.00" fill="#000000">0 rows</text>
<polygon fill="#ffffff" stroke="transparent" points="481.5,-419.7 481.5,-438.7 507.5,-438.7 507.5,-419.7 481.5,-419.7"/>
<polygon fill="none" stroke="#000000" points="481.5,-419.7 481.5,-438.7 507.5,-438.7 507.5,-419.7 481.5,-419.7"/>
<text text-anchor="start" x="498.3862" y="-425.8" font-family="Helvetica,sans-Serif" font-size="11.00" fill="#000000"> &#160;</text>
</a>
</g>
</g>
<!-- user_event_roles&#45;&gt;events -->
<g id="edge8" class="edge">
<title>user_event_roles:w&#45;&gt;events:e</title>
<path fill="none" stroke="#000000" d="M366.0147,-490.7333C329.6795,-490.9068 315.5539,-491.7 273,-491.7"/>
<polygon fill="#000000" stroke="#000000" points="372.5,-490.7184 380.5083,-494.3 376.5,-490.7092 380.5,-490.7 380.5,-490.7 380.5,-490.7 376.5,-490.7092 380.4917,-487.1 372.5,-490.7184 372.5,-490.7184"/>
<ellipse fill="none" stroke="#000000" cx="369.3" cy="-490.7258" rx="3.2" ry="3.2"/>
</g>
<!-- user_event_roles&#45;&gt;users -->
<g id="edge9" class="edge">
<title>user_event_roles:w&#45;&gt;users:e</title>
<path fill="none" stroke="#000000" d="M366.1535,-509.9684C321.4928,-489.6384 387.8271,-362.7 322,-362.7"/>
<polygon fill="#000000" stroke="#000000" points="372.6412,-511.2036 379.8266,-516.2365 376.5706,-511.9518 380.5,-512.7 380.5,-512.7 380.5,-512.7 376.5706,-511.9518 381.1734,-509.1635 372.6412,-511.2036 372.6412,-511.2036"/>
<ellipse fill="none" stroke="#000000" cx="369.4977" cy="-510.6051" rx="3.2" ry="3.2"/>
</g>
<!-- user_instance_roles -->
<g id="node8" class="node">
<title>user_instance_roles</title>
<g id="a_node8"><a xlink:href="../../tables/user_instance_roles.html" xlink:title="user_instance_roles" target="_top">
<polygon fill="#ffffff" stroke="transparent" points="373,-312.7 373,-398.7 514,-398.7 514,-312.7 373,-312.7"/>
<polygon fill="#f5f5f5" stroke="transparent" points="373.5,-375.7 373.5,-398.7 514.5,-398.7 514.5,-375.7 373.5,-375.7"/>
<polygon fill="none" stroke="#000000" points="373.5,-375.7 373.5,-398.7 514.5,-398.7 514.5,-375.7 373.5,-375.7"/>
<text text-anchor="start" x="378.2943" y="-384.8" font-family="Helvetica,sans-Serif" font-weight="bold" font-size="11.00" fill="#000000">user_instance_roles</text>
<text text-anchor="start" x="480.0219" y="-383.8" font-family="Helvetica,sans-Serif" font-size="11.00" fill="#000000">[table]</text>
<polygon fill="none" stroke="#000000" points="373.5,-353.7 373.5,-375.7 514.5,-375.7 514.5,-353.7 373.5,-353.7"/>
<image xlink:href="../../images/primaryKeys.png" width="11px" height="12px" preserveAspectRatio="xMinYMin meet" x="378.5" y="-370.7"/>
<text text-anchor="start" x="395.5" y="-360.8" font-family="Helvetica,sans-Serif" font-size="11.00" fill="#000000">user_id</text>
<polygon fill="none" stroke="#000000" points="373.5,-331.7 373.5,-353.7 514.5,-353.7 514.5,-331.7 373.5,-331.7"/>
<image xlink:href="../../images/primaryKeys.png" width="11px" height="12px" preserveAspectRatio="xMinYMin meet" x="378.5" y="-348.7"/>
<text text-anchor="start" x="395.5" y="-338.8" font-family="Helvetica,sans-Serif" font-size="11.00" fill="#000000">role_name</text>
<polygon fill="#ffffff" stroke="transparent" points="373.5,-312.7 373.5,-331.7 429.5,-331.7 429.5,-312.7 373.5,-312.7"/>
<polygon fill="none" stroke="#000000" points="373.5,-312.7 373.5,-331.7 429.5,-331.7 429.5,-312.7 373.5,-312.7"/>
<text text-anchor="start" x="376.5" y="-318.8" font-family="Helvetica,sans-Serif" font-size="11.00" fill="#000000">&lt; 1</text>
<polygon fill="#ffffff" stroke="transparent" points="429.5,-312.7 429.5,-331.7 484.5,-331.7 484.5,-312.7 429.5,-312.7"/>
<polygon fill="none" stroke="#000000" points="429.5,-312.7 429.5,-331.7 484.5,-331.7 484.5,-312.7 429.5,-312.7"/>
<text text-anchor="start" x="449.1105" y="-318.8" font-family="Helvetica,sans-Serif" font-size="11.00" fill="#000000">0 rows</text>
<polygon fill="#ffffff" stroke="transparent" points="484.5,-312.7 484.5,-331.7 514.5,-331.7 514.5,-312.7 484.5,-312.7"/>
<polygon fill="none" stroke="#000000" points="484.5,-312.7 484.5,-331.7 514.5,-331.7 514.5,-312.7 484.5,-312.7"/>
<text text-anchor="start" x="505.3862" y="-318.8" font-family="Helvetica,sans-Serif" font-size="11.00" fill="#000000"> &#160;</text>
</a>
</g>
</g>
<!-- user_instance_roles&#45;&gt;users -->
<g id="edge10" class="edge">
<title>user_instance_roles:w&#45;&gt;users:e</title>
<path fill="none" stroke="#000000" d="M359.0108,-364.3875C346.6738,-363.825 339.1796,-362.7 322,-362.7"/>
<polygon fill="#000000" stroke="#000000" points="365.5019,-364.5274 373.4223,-368.2992 369.5009,-364.6137 373.5,-364.7 373.5,-364.7 373.5,-364.7 369.5009,-364.6137 373.5777,-361.1008 365.5019,-364.5274 365.5019,-364.5274"/>
<ellipse fill="none" stroke="#000000" cx="362.3026" cy="-364.4584" rx="3.2" ry="3.2"/>
</g>
</g>
</svg>
