<?xml version="1.0" encoding="UTF-8" standalone="no"?>
<!DOCTYPE svg PUBLIC "-//W3C//DTD SVG 1.1//EN"
 "http://www.w3.org/Graphics/SVG/1.1/DTD/svg11.dtd">
<!-- Generated by graphviz version 2.40.1 (20161225.0304)
 -->
<!-- Title: oneDegreeRelationshipsDiagram Pages: 1 -->
<svg width="558pt" height="250pt"
 viewBox="0.00 0.00 558.00 250.20" xmlns="http://www.w3.org/2000/svg" xmlns:xlink="http://www.w3.org/1999/xlink">
<g id="graph0" class="graph" transform="scale(1 1) rotate(0) translate(4 246.2)">
<title>oneDegreeRelationshipsDiagram</title>
<polygon fill="#ffffff" stroke="transparent" points="-4,4 -4,-246.2 554,-246.2 554,4 -4,4"/>
<text text-anchor="middle" x="72.4936" y="-7.3" font-family="Helvetica,sans-Serif" font-size="11.00" fill="#000000">Generated by SchemaSpy</text>
<!-- chapters -->
<g id="node1" class="node">
<title>chapters</title>
<g id="a_node1"><a xlink:href="../../tables/chapters.html" xlink:title="chapters" target="_top">
<polygon fill="#ffffff" stroke="transparent" points="154,-91.7 154,-196.7 251,-196.7 251,-91.7 154,-91.7"/>
<polygon fill="#f5f5f5" stroke="transparent" points="154.5,-173.2 154.5,-196.2 251.5,-196.2 251.5,-173.2 154.5,-173.2"/>
<polygon fill="none" stroke="#000000" points="154.5,-173.2 154.5,-196.2 251.5,-196.2 251.5,-173.2 154.5,-173.2"/>
<text text-anchor="start" x="159.5" y="-182.3" font-family="Helvetica,sans-Serif" font-weight="bold" font-size="11.00" fill="#000000">chapters</text>
<text text-anchor="start" x="216.5437" y="-181.3" font-family="Helvetica,sans-Serif" font-size="11.00" fill="#000000">[table]</text>
<polygon fill="none" stroke="#000000" points="154.5,-151.2 154.5,-173.2 251.5,-173.2 251.5,-151.2 154.5,-151.2"/>
<image xlink:href="../../images/primaryKeys.png" width="11px" height="12px" preserveAspectRatio="xMinYMin meet" x="159.5" y="-168.2"/>
<text text-anchor="start" x="174.5" y="-158.3" font-family="Helvetica,sans-Serif" font-size="11.00" fill="#000000">id</text>
<polygon fill="none" stroke="#000000" points="154.5,-129.2 154.5,-151.2 251.5,-151.2 251.5,-129.2 154.5,-129.2"/>
<image xlink:href="../../images/foreignKeys.png" width="11px" height="12px" preserveAspectRatio="xMinYMin meet" x="159.5" y="-146.2"/>
<text text-anchor="start" x="174.5" y="-136.3" font-family="Helvetica,sans-Serif" font-size="11.00" fill="#000000">creator_id</text>
<polygon fill="none" stroke="#000000" points="154.5,-110.2 154.5,-129.2 251.5,-129.2 251.5,-110.2 154.5,-110.2"/>
<text text-anchor="start" x="157.5" y="-116.3" font-family="Helvetica,sans-Serif" font-size="11.00" fill="#000000">...</text>
<polygon fill="#ffffff" stroke="transparent" points="154.5,-91.2 154.5,-110.2 183.5,-110.2 183.5,-91.2 154.5,-91.2"/>
<polygon fill="none" stroke="#000000" points="154.5,-91.2 154.5,-110.2 183.5,-110.2 183.5,-91.2 154.5,-91.2"/>
<text text-anchor="start" x="157.5" y="-97.3" font-family="Helvetica,sans-Serif" font-size="11.00" fill="#000000">&lt; 1</text>
<polygon fill="#ffffff" stroke="transparent" points="183.5,-91.2 183.5,-110.2 225.5,-110.2 225.5,-91.2 183.5,-91.2"/>
<polygon fill="none" stroke="#000000" points="183.5,-91.2 183.5,-110.2 225.5,-110.2 225.5,-91.2 183.5,-91.2"/>
<text text-anchor="start" x="190.1105" y="-97.3" font-family="Helvetica,sans-Serif" font-size="11.00" fill="#000000">4 rows</text>
<polygon fill="#ffffff" stroke="transparent" points="225.5,-91.2 225.5,-110.2 251.5,-110.2 251.5,-91.2 225.5,-91.2"/>
<polygon fill="none" stroke="#000000" points="225.5,-91.2 225.5,-110.2 251.5,-110.2 251.5,-91.2 225.5,-91.2"/>
<text text-anchor="start" x="232.9053" y="-97.3" font-family="Helvetica,sans-Serif" font-size="11.00" fill="#000000">4 &gt;</text>
</a>
</g>
</g>
<!-- users -->
<g id="node2" class="node">
<title>users</title>
<g id="a_node2"><a xlink:href="../../tables/users.html" xlink:title="users" target="_top">
<polygon fill="#ffffff" stroke="transparent" points="8,-131.7 8,-214.7 105,-214.7 105,-131.7 8,-131.7"/>
<polygon fill="#f5f5f5" stroke="transparent" points="8.5,-191.2 8.5,-214.2 105.5,-214.2 105.5,-191.2 8.5,-191.2"/>
<polygon fill="none" stroke="#000000" points="8.5,-191.2 8.5,-214.2 105.5,-214.2 105.5,-191.2 8.5,-191.2"/>
<text text-anchor="start" x="13.5" y="-200.3" font-family="Helvetica,sans-Serif" font-weight="bold" font-size="11.00" fill="#000000">users</text>
<text text-anchor="start" x="70.5437" y="-199.3" font-family="Helvetica,sans-Serif" font-size="11.00" fill="#000000">[table]</text>
<polygon fill="none" stroke="#000000" points="8.5,-169.2 8.5,-191.2 105.5,-191.2 105.5,-169.2 8.5,-169.2"/>
<image xlink:href="../../images/primaryKeys.png" width="11px" height="12px" preserveAspectRatio="xMinYMin meet" x="13.5" y="-186.2"/>
<text text-anchor="start" x="28.5" y="-176.3" font-family="Helvetica,sans-Serif" font-size="11.00" fill="#000000">id</text>
<polygon fill="none" stroke="#000000" points="8.5,-150.2 8.5,-169.2 105.5,-169.2 105.5,-150.2 8.5,-150.2"/>
<text text-anchor="start" x="11.5" y="-156.3" font-family="Helvetica,sans-Serif" font-size="11.00" fill="#000000">...</text>
<polygon fill="#ffffff" stroke="transparent" points="8.5,-131.2 8.5,-150.2 36.5,-150.2 36.5,-131.2 8.5,-131.2"/>
<polygon fill="none" stroke="#000000" points="8.5,-131.2 8.5,-150.2 36.5,-150.2 36.5,-131.2 8.5,-131.2"/>
<text text-anchor="start" x="11.5" y="-137.3" font-family="Helvetica,sans-Serif" font-size="11.00" fill="#000000"> &#160;</text>
<polygon fill="#ffffff" stroke="transparent" points="36.5,-131.2 36.5,-150.2 76.5,-150.2 76.5,-131.2 36.5,-131.2"/>
<polygon fill="none" stroke="#000000" points="36.5,-131.2 36.5,-150.2 76.5,-150.2 76.5,-131.2 36.5,-131.2"/>
<text text-anchor="start" x="46.6105" y="-137.3" font-family="Helvetica,sans-Serif" font-size="11.00" fill="#000000">1 row</text>
<polygon fill="#ffffff" stroke="transparent" points="76.5,-131.2 76.5,-150.2 105.5,-150.2 105.5,-131.2 76.5,-131.2"/>
<polygon fill="none" stroke="#000000" points="76.5,-131.2 76.5,-150.2 105.5,-150.2 105.5,-131.2 76.5,-131.2"/>
<text text-anchor="start" x="86.9053" y="-137.3" font-family="Helvetica,sans-Serif" font-size="11.00" fill="#000000">6 &gt;</text>
</a>
</g>
</g>
<!-- chapters&#45;&gt;users -->
<g id="edge1" class="edge">
<title>chapters:w&#45;&gt;users:e</title>
<path fill="none" stroke="#000000" d="M140.7637,-144.7885C127.8632,-155.2952 127.6826,-180.2 105.5,-180.2"/>
<polygon fill="#000000" stroke="#000000" points="146.9121,-142.7347 155.6406,-143.6145 150.7061,-141.4673 154.5,-140.2 154.5,-140.2 154.5,-140.2 150.7061,-141.4673 153.3594,-136.7855 146.9121,-142.7347 146.9121,-142.7347"/>
<ellipse fill="none" stroke="#000000" cx="143.877" cy="-143.7486" rx="3.2" ry="3.2"/>
</g>
<!-- user_chapter_roles -->
<g id="node3" class="node">
<title>user_chapter_roles</title>
<g id="a_node3"><a xlink:href="../../tables/user_chapter_roles.html" xlink:title="user_chapter_roles" target="_top">
<polygon fill="#ffffff" stroke="transparent" points="300,-38.2 300,-238.2 542,-238.2 542,-38.2 300,-38.2"/>
<polygon fill="#f5f5f5" stroke="transparent" points="302,-213.2 302,-236.2 540,-236.2 540,-213.2 302,-213.2"/>
<polygon fill="none" stroke="#000000" points="302,-213.2 302,-236.2 540,-236.2 540,-213.2 302,-213.2"/>
<text text-anchor="start" x="307" y="-222.3" font-family="Helvetica,sans-Serif" font-weight="bold" font-size="11.00" fill="#000000">user_chapter_roles</text>
<text text-anchor="start" x="505.0437" y="-221.3" font-family="Helvetica,sans-Serif" font-size="11.00" fill="#000000">[table]</text>
<polygon fill="none" stroke="#000000" points="302,-191.2 302,-213.2 450,-213.2 450,-191.2 302,-191.2"/>
<image xlink:href="../../images/primaryKeys.png" width="11px" height="12px" preserveAspectRatio="xMinYMin meet" x="307" y="-208.2"/>
<text text-anchor="start" x="322" y="-198.3" font-family="Helvetica,sans-Serif" font-size="11.00" fill="#000000">user_id</text>
<polygon fill="none" stroke="#000000" points="450,-191.2 450,-213.2 540,-213.2 540,-191.2 450,-191.2"/>
<text text-anchor="start" x="453" y="-198.9" font-family="Helvetica,sans-Serif" font-size="11.00" fill="#000000">int4[10]</text>
<polygon fill="none" stroke="#000000" points="302,-169.2 302,-191.2 450,-191.2 450,-169.2 302,-169.2"/>
<image xlink:href="../../images/primaryKeys.png" width="11px" height="12px" preserveAspectRatio="xMinYMin meet" x="307" y="-186.2"/>
<text text-anchor="start" x="322" y="-176.3" font-family="Helvetica,sans-Serif" font-size="11.00" fill="#000000">chapter_id</text>
<polygon fill="none" stroke="#000000" points="450,-169.2 450,-191.2 540,-191.2 540,-169.2 450,-169.2"/>
<text text-anchor="start" x="453" y="-176.9" font-family="Helvetica,sans-Serif" font-size="11.00" fill="#000000">int4[10]</text>
<polygon fill="none" stroke="#000000" points="302,-147.2 302,-169.2 450,-169.2 450,-147.2 302,-147.2"/>
<image xlink:href="../../images/primaryKeys.png" width="11px" height="12px" preserveAspectRatio="xMinYMin meet" x="307" y="-164.2"/>
<text text-anchor="start" x="322" y="-154.3" font-family="Helvetica,sans-Serif" font-size="11.00" fill="#000000">id</text>
<polygon fill="none" stroke="#000000" points="450,-147.2 450,-169.2 540,-169.2 540,-147.2 450,-147.2"/>
<text text-anchor="start" x="453" y="-154.9" font-family="Helvetica,sans-Serif" font-size="11.00" fill="#000000">serial[10]</text>
<polygon fill="none" stroke="#000000" points="302,-125.2 302,-147.2 450,-147.2 450,-125.2 302,-125.2"/>
<text text-anchor="start" x="322" y="-132.3" font-family="Helvetica,sans-Serif" font-size="11.00" fill="#000000">created_at</text>
<polygon fill="none" stroke="#000000" points="450,-125.2 450,-147.2 540,-147.2 540,-125.2 450,-125.2"/>
<text text-anchor="start" x="453" y="-132.9" font-family="Helvetica,sans-Serif" font-size="11.00" fill="#000000">timestamp[29,6]</text>
<polygon fill="none" stroke="#000000" points="302,-103.2 302,-125.2 450,-125.2 450,-103.2 302,-103.2"/>
<text text-anchor="start" x="322" y="-110.3" font-family="Helvetica,sans-Serif" font-size="11.00" fill="#000000">updated_at</text>
<polygon fill="none" stroke="#000000" points="450,-103.2 450,-125.2 540,-125.2 540,-103.2 450,-103.2"/>
<text text-anchor="start" x="453" y="-110.9" font-family="Helvetica,sans-Serif" font-size="11.00" fill="#000000">timestamp[29,6]</text>
<polygon fill="none" stroke="#000000" points="302,-81.2 302,-103.2 450,-103.2 450,-81.2 302,-81.2"/>
<text text-anchor="start" x="322" y="-88.3" font-family="Helvetica,sans-Serif" font-size="11.00" fill="#000000">interested</text>
<polygon fill="none" stroke="#000000" points="450,-81.2 450,-103.2 540,-103.2 540,-81.2 450,-81.2"/>
<text text-anchor="start" x="453" y="-88.9" font-family="Helvetica,sans-Serif" font-size="11.00" fill="#000000">bool[1]</text>
<polygon fill="none" stroke="#000000" points="302,-59.2 302,-81.2 450,-81.2 450,-59.2 302,-59.2"/>
<image xlink:href="../../images/primaryKeys.png" width="11px" height="12px" preserveAspectRatio="xMinYMin meet" x="307" y="-76.2"/>
<text text-anchor="start" x="322" y="-66.3" font-family="Helvetica,sans-Serif" font-size="11.00" fill="#000000">role_name</text>
<polygon fill="none" stroke="#000000" points="450,-59.2 450,-81.2 540,-81.2 540,-59.2 450,-59.2"/>
<text text-anchor="start" x="452.5043" y="-66.9" font-family="Helvetica,sans-Serif" font-size="11.00" fill="#000000">text[2147483647]</text>
<polygon fill="#ffffff" stroke="transparent" points="302,-40.2 302,-59.2 367,-59.2 367,-40.2 302,-40.2"/>
<polygon fill="none" stroke="#000000" points="302,-40.2 302,-59.2 367,-59.2 367,-40.2 302,-40.2"/>
<text text-anchor="start" x="305" y="-46.3" font-family="Helvetica,sans-Serif" font-size="11.00" fill="#000000">&lt; 2</text>
<polygon fill="#ffffff" stroke="transparent" points="367,-40.2 367,-59.2 450,-59.2 450,-40.2 367,-40.2"/>
<polygon fill="none" stroke="#000000" points="367,-40.2 367,-59.2 450,-59.2 450,-40.2 367,-40.2"/>
<text text-anchor="start" x="414.6105" y="-46.3" font-family="Helvetica,sans-Serif" font-size="11.00" fill="#000000">0 rows</text>
<polygon fill="#ffffff" stroke="transparent" points="450,-40.2 450,-59.2 540,-59.2 540,-40.2 450,-40.2"/>
<polygon fill="none" stroke="#000000" points="450,-40.2 450,-59.2 540,-59.2 540,-40.2 450,-40.2"/>
<text text-anchor="start" x="521.4053" y="-46.3" font-family="Helvetica,sans-Serif" font-size="11.00" fill="#000000">0 &gt;</text>
<polygon fill="none" stroke="#000000" stroke-width="2" points="301,-39.2 301,-237.2 541,-237.2 541,-39.2 301,-39.2"/>
</a>
</g>
</g>
<!-- user_chapter_roles&#45;&gt;chapters -->
<g id="edge2" class="edge">
<title>user_chapter_roles:w&#45;&gt;chapters:e</title>
<path fill="none" stroke="#000000" d="M287.7839,-177.544C275.5637,-172.537 269.5568,-162.2 251.5,-162.2"/>
<polygon fill="#000000" stroke="#000000" points="294.1361,-178.7308 301.3388,-183.7388 298.068,-179.4654 302,-180.2 302,-180.2 302,-180.2 298.068,-179.4654 302.6612,-176.6612 294.1361,-178.7308 294.1361,-178.7308"/>
<ellipse fill="none" stroke="#000000" cx="290.9905" cy="-178.1431" rx="3.2" ry="3.2"/>
</g>
<!-- user_chapter_roles&#45;&gt;users -->
<g id="edge3" class="edge">
<title>user_chapter_roles:w&#45;&gt;users:e</title>
<path fill="none" stroke="#000000" d="M287.3701,-203.1355C278.4837,-204.3585 272.2053,-206.4348 259,-207.2 208.8619,-210.1052 194.0673,-221.7536 146,-207.2 125.2949,-200.931 127.1333,-180.2 105.5,-180.2"/>
<polygon fill="#000000" stroke="#000000" points="294.0163,-202.7106 302.2298,-205.7927 298.0082,-202.4553 302,-202.2 302,-202.2 302,-202.2 298.0082,-202.4553 301.7702,-198.6073 294.0163,-202.7106 294.0163,-202.7106"/>
<ellipse fill="none" stroke="#000000" cx="290.8228" cy="-202.9148" rx="3.2" ry="3.2"/>
</g>
</g>
</svg>
