<?xml version="1.0" encoding="UTF-8" standalone="no"?>
<!DOCTYPE svg PUBLIC "-//W3C//DTD SVG 1.1//EN"
 "http://www.w3.org/Graphics/SVG/1.1/DTD/svg11.dtd">
<!-- Generated by graphviz version 2.40.1 (20161225.0304)
 -->
<!-- Title: twoDegreesRelationshipsDiagram Pages: 1 -->
<svg width="721pt" height="516pt"
 viewBox="0.00 0.00 721.00 516.44" xmlns="http://www.w3.org/2000/svg" xmlns:xlink="http://www.w3.org/1999/xlink">
<g id="graph0" class="graph" transform="scale(1 1) rotate(0) translate(4 512.4407)">
<title>twoDegreesRelationshipsDiagram</title>
<polygon fill="#ffffff" stroke="transparent" points="-4,4 -4,-512.4407 717,-512.4407 717,4 -4,4"/>
<text text-anchor="middle" x="72.4936" y="-7.3" font-family="Helvetica,sans-Serif" font-size="11.00" fill="#000000">Generated by SchemaSpy</text>
<!-- chapters -->
<g id="node1" class="node">
<title>chapters</title>
<g id="a_node1"><a xlink:href="../../tables/chapters.html" xlink:title="chapters" target="_top">
<polygon fill="#ffffff" stroke="transparent" points="176,-193.2 176,-298.2 273,-298.2 273,-193.2 176,-193.2"/>
<polygon fill="#f5f5f5" stroke="transparent" points="176.5,-274.7 176.5,-297.7 273.5,-297.7 273.5,-274.7 176.5,-274.7"/>
<polygon fill="none" stroke="#000000" points="176.5,-274.7 176.5,-297.7 273.5,-297.7 273.5,-274.7 176.5,-274.7"/>
<text text-anchor="start" x="181.5" y="-283.8" font-family="Helvetica,sans-Serif" font-weight="bold" font-size="11.00" fill="#000000">chapters</text>
<text text-anchor="start" x="238.5437" y="-282.8" font-family="Helvetica,sans-Serif" font-size="11.00" fill="#000000">[table]</text>
<polygon fill="none" stroke="#000000" points="176.5,-252.7 176.5,-274.7 273.5,-274.7 273.5,-252.7 176.5,-252.7"/>
<image xlink:href="../../images/primaryKeys.png" width="11px" height="12px" preserveAspectRatio="xMinYMin meet" x="181.5" y="-269.7"/>
<text text-anchor="start" x="196.5" y="-259.8" font-family="Helvetica,sans-Serif" font-size="11.00" fill="#000000">id</text>
<polygon fill="none" stroke="#000000" points="176.5,-230.7 176.5,-252.7 273.5,-252.7 273.5,-230.7 176.5,-230.7"/>
<image xlink:href="../../images/foreignKeys.png" width="11px" height="12px" preserveAspectRatio="xMinYMin meet" x="181.5" y="-247.7"/>
<text text-anchor="start" x="196.5" y="-237.8" font-family="Helvetica,sans-Serif" font-size="11.00" fill="#000000">creator_id</text>
<polygon fill="none" stroke="#000000" points="176.5,-211.7 176.5,-230.7 273.5,-230.7 273.5,-211.7 176.5,-211.7"/>
<text text-anchor="start" x="179.5" y="-217.8" font-family="Helvetica,sans-Serif" font-size="11.00" fill="#000000">...</text>
<polygon fill="#ffffff" stroke="transparent" points="176.5,-192.7 176.5,-211.7 205.5,-211.7 205.5,-192.7 176.5,-192.7"/>
<polygon fill="none" stroke="#000000" points="176.5,-192.7 176.5,-211.7 205.5,-211.7 205.5,-192.7 176.5,-192.7"/>
<text text-anchor="start" x="179.5" y="-198.8" font-family="Helvetica,sans-Serif" font-size="11.00" fill="#000000">&lt; 1</text>
<polygon fill="#ffffff" stroke="transparent" points="205.5,-192.7 205.5,-211.7 247.5,-211.7 247.5,-192.7 205.5,-192.7"/>
<polygon fill="none" stroke="#000000" points="205.5,-192.7 205.5,-211.7 247.5,-211.7 247.5,-192.7 205.5,-192.7"/>
<text text-anchor="start" x="212.1105" y="-198.8" font-family="Helvetica,sans-Serif" font-size="11.00" fill="#000000">4 rows</text>
<polygon fill="#ffffff" stroke="transparent" points="247.5,-192.7 247.5,-211.7 273.5,-211.7 273.5,-192.7 247.5,-192.7"/>
<polygon fill="none" stroke="#000000" points="247.5,-192.7 247.5,-211.7 273.5,-211.7 273.5,-192.7 247.5,-192.7"/>
<text text-anchor="start" x="254.9053" y="-198.8" font-family="Helvetica,sans-Serif" font-size="11.00" fill="#000000">3 &gt;</text>
</a>
</g>
</g>
<!-- users -->
<g id="node2" class="node">
<title>users</title>
<g id="a_node2"><a xlink:href="../../tables/users.html" xlink:title="users" target="_top">
<polygon fill="#ffffff" stroke="transparent" points="8,-134.2 8,-239.2 105,-239.2 105,-134.2 8,-134.2"/>
<polygon fill="#f5f5f5" stroke="transparent" points="8.5,-215.7 8.5,-238.7 105.5,-238.7 105.5,-215.7 8.5,-215.7"/>
<polygon fill="none" stroke="#000000" points="8.5,-215.7 8.5,-238.7 105.5,-238.7 105.5,-215.7 8.5,-215.7"/>
<text text-anchor="start" x="13.5" y="-224.8" font-family="Helvetica,sans-Serif" font-weight="bold" font-size="11.00" fill="#000000">users</text>
<text text-anchor="start" x="70.5437" y="-223.8" font-family="Helvetica,sans-Serif" font-size="11.00" fill="#000000">[table]</text>
<polygon fill="none" stroke="#000000" points="8.5,-193.7 8.5,-215.7 105.5,-215.7 105.5,-193.7 8.5,-193.7"/>
<image xlink:href="../../images/primaryKeys.png" width="11px" height="12px" preserveAspectRatio="xMinYMin meet" x="13.5" y="-210.7"/>
<text text-anchor="start" x="28.5" y="-200.8" font-family="Helvetica,sans-Serif" font-size="11.00" fill="#000000">id</text>
<polygon fill="#ffffff" stroke="transparent" points="8.5,-171.7 8.5,-193.7 105.5,-193.7 105.5,-171.7 8.5,-171.7"/>
<polygon fill="none" stroke="#000000" points="8.5,-171.7 8.5,-193.7 105.5,-193.7 105.5,-171.7 8.5,-171.7"/>
<text text-anchor="start" x="28.5" y="-178.8" font-family="Helvetica,sans-Serif" font-size="11.00" fill="#000000">email</text>
<polygon fill="none" stroke="#000000" points="8.5,-152.7 8.5,-171.7 105.5,-171.7 105.5,-152.7 8.5,-152.7"/>
<text text-anchor="start" x="11.5" y="-158.8" font-family="Helvetica,sans-Serif" font-size="11.00" fill="#000000">...</text>
<polygon fill="#ffffff" stroke="transparent" points="8.5,-133.7 8.5,-152.7 30.5,-152.7 30.5,-133.7 8.5,-133.7"/>
<polygon fill="none" stroke="#000000" points="8.5,-133.7 8.5,-152.7 30.5,-152.7 30.5,-133.7 8.5,-133.7"/>
<text text-anchor="start" x="11.5" y="-139.8" font-family="Helvetica,sans-Serif" font-size="11.00" fill="#000000"> &#160;</text>
<polygon fill="#ffffff" stroke="transparent" points="30.5,-133.7 30.5,-152.7 79.5,-152.7 79.5,-133.7 30.5,-133.7"/>
<polygon fill="none" stroke="#000000" points="30.5,-133.7 30.5,-152.7 79.5,-152.7 79.5,-133.7 30.5,-133.7"/>
<text text-anchor="start" x="37.9956" y="-139.8" font-family="Helvetica,sans-Serif" font-size="11.00" fill="#000000">11 rows</text>
<polygon fill="#ffffff" stroke="transparent" points="79.5,-133.7 79.5,-152.7 105.5,-152.7 105.5,-133.7 79.5,-133.7"/>
<polygon fill="none" stroke="#000000" points="79.5,-133.7 79.5,-152.7 105.5,-152.7 105.5,-133.7 79.5,-133.7"/>
<text text-anchor="start" x="86.9053" y="-139.8" font-family="Helvetica,sans-Serif" font-size="11.00" fill="#000000">6 &gt;</text>
</a>
</g>
</g>
<!-- chapters&#45;&gt;users -->
<g id="edge1" class="edge">
<title>chapters:w&#45;&gt;users:e</title>
<path fill="none" stroke="#000000" d="M162.166,-239.2723C140.096,-231.0408 135.5234,-204.7 105.5,-204.7"/>
<polygon fill="#000000" stroke="#000000" points="168.6123,-240.3641 175.8988,-245.2495 172.5562,-241.032 176.5,-241.7 176.5,-241.7 176.5,-241.7 172.5562,-241.032 177.1012,-238.1505 168.6123,-240.3641 168.6123,-240.3641"/>
<ellipse fill="none" stroke="#000000" cx="165.4573" cy="-239.8297" rx="3.2" ry="3.2"/>
</g>
<!-- events -->
<g id="node3" class="node">
<title>events</title>
<g id="a_node3"><a xlink:href="../../tables/events.html" xlink:title="events" target="_top">
<polygon fill="#ffffff" stroke="transparent" points="396.5,-230.2 396.5,-291.2 476.5,-291.2 476.5,-230.2 396.5,-230.2"/>
<polygon fill="#f5f5f5" stroke="transparent" points="396.5,-267.7 396.5,-290.7 476.5,-290.7 476.5,-267.7 396.5,-267.7"/>
<polygon fill="none" stroke="#000000" points="396.5,-267.7 396.5,-290.7 476.5,-290.7 476.5,-267.7 396.5,-267.7"/>
<text text-anchor="start" x="401.5" y="-276.8" font-family="Helvetica,sans-Serif" font-weight="bold" font-size="11.00" fill="#000000">events</text>
<text text-anchor="start" x="441.5437" y="-275.8" font-family="Helvetica,sans-Serif" font-size="11.00" fill="#000000">[table]</text>
<polygon fill="none" stroke="#000000" points="396.5,-248.7 396.5,-267.7 476.5,-267.7 476.5,-248.7 396.5,-248.7"/>
<text text-anchor="start" x="399.5" y="-254.8" font-family="Helvetica,sans-Serif" font-size="11.00" fill="#000000">...</text>
<polygon fill="#ffffff" stroke="transparent" points="396.5,-229.7 396.5,-248.7 417.5,-248.7 417.5,-229.7 396.5,-229.7"/>
<polygon fill="none" stroke="#000000" points="396.5,-229.7 396.5,-248.7 417.5,-248.7 417.5,-229.7 396.5,-229.7"/>
<text text-anchor="start" x="399.2027" y="-235.8" font-family="Helvetica,sans-Serif" font-size="11.00" fill="#000000">&lt; 2</text>
<polygon fill="#ffffff" stroke="transparent" points="417.5,-229.7 417.5,-248.7 455.5,-248.7 455.5,-229.7 417.5,-229.7"/>
<polygon fill="none" stroke="#000000" points="417.5,-229.7 417.5,-248.7 455.5,-248.7 455.5,-229.7 417.5,-229.7"/>
<text text-anchor="start" x="420.3053" y="-235.8" font-family="Helvetica,sans-Serif" font-size="11.00" fill="#000000">4 rows</text>
<polygon fill="#ffffff" stroke="transparent" points="455.5,-229.7 455.5,-248.7 476.5,-248.7 476.5,-229.7 455.5,-229.7"/>
<polygon fill="none" stroke="#000000" points="455.5,-229.7 455.5,-248.7 476.5,-248.7 476.5,-229.7 455.5,-229.7"/>
<text text-anchor="start" x="458.2027" y="-235.8" font-family="Helvetica,sans-Serif" font-size="11.00" fill="#000000">4 &gt;</text>
</a>
</g>
</g>
<!-- events&#45;&gt;chapters -->
<g id="edge2" class="edge">
<title>events:w&#45;&gt;chapters:e</title>
<path fill="none" stroke="#000000" d="M381.8457,-257.8543C338.8,-258.7935 322.9937,-263.7 273.5,-263.7"/>
<polygon fill="#000000" stroke="#000000" points="388.5004,-257.7843 396.5379,-261.2998 392.5002,-257.7422 396.5,-257.7 396.5,-257.7 396.5,-257.7 392.5002,-257.7422 396.4621,-254.1002 388.5004,-257.7843 388.5004,-257.7843"/>
<ellipse fill="none" stroke="#000000" cx="385.3006" cy="-257.818" rx="3.2" ry="3.2"/>
</g>
<!-- rsvps -->
<g id="node4" class="node">
<title>rsvps</title>
<g id="a_node4"><a xlink:href="../../tables/rsvps.html" xlink:title="rsvps" target="_top">
<polygon fill="#ffffff" stroke="transparent" points="603,-284.2 603,-345.2 680,-345.2 680,-284.2 603,-284.2"/>
<polygon fill="#f5f5f5" stroke="transparent" points="603.5,-321.7 603.5,-344.7 680.5,-344.7 680.5,-321.7 603.5,-321.7"/>
<polygon fill="none" stroke="#000000" points="603.5,-321.7 603.5,-344.7 680.5,-344.7 680.5,-321.7 603.5,-321.7"/>
<text text-anchor="start" x="608.5" y="-330.8" font-family="Helvetica,sans-Serif" font-weight="bold" font-size="11.00" fill="#000000">rsvps</text>
<text text-anchor="start" x="645.5437" y="-329.8" font-family="Helvetica,sans-Serif" font-size="11.00" fill="#000000">[table]</text>
<polygon fill="none" stroke="#000000" points="603.5,-302.7 603.5,-321.7 680.5,-321.7 680.5,-302.7 603.5,-302.7"/>
<text text-anchor="start" x="606.5" y="-308.8" font-family="Helvetica,sans-Serif" font-size="11.00" fill="#000000">...</text>
<polygon fill="#ffffff" stroke="transparent" points="603.5,-283.7 603.5,-302.7 624.5,-302.7 624.5,-283.7 603.5,-283.7"/>
<polygon fill="none" stroke="#000000" points="603.5,-283.7 603.5,-302.7 624.5,-302.7 624.5,-283.7 603.5,-283.7"/>
<text text-anchor="start" x="606.2026" y="-289.8" font-family="Helvetica,sans-Serif" font-size="11.00" fill="#000000">&lt; 2</text>
<polygon fill="#ffffff" stroke="transparent" points="624.5,-283.7 624.5,-302.7 668.5,-302.7 668.5,-283.7 624.5,-283.7"/>
<polygon fill="none" stroke="#000000" points="624.5,-283.7 624.5,-302.7 668.5,-302.7 668.5,-283.7 624.5,-283.7"/>
<text text-anchor="start" x="627.2478" y="-289.8" font-family="Helvetica,sans-Serif" font-size="11.00" fill="#000000">20 rows</text>
<polygon fill="#ffffff" stroke="transparent" points="668.5,-283.7 668.5,-302.7 680.5,-302.7 680.5,-283.7 668.5,-283.7"/>
<polygon fill="none" stroke="#000000" points="668.5,-283.7 668.5,-302.7 680.5,-302.7 680.5,-283.7 668.5,-283.7"/>
<text text-anchor="start" x="671.4431" y="-289.8" font-family="Helvetica,sans-Serif" font-size="11.00" fill="#000000"> &#160;</text>
</a>
</g>
</g>
<!-- rsvps&#45;&gt;users -->
<g id="edge4" class="edge">
<title>rsvps:w&#45;&gt;users:e</title>
<path fill="none" stroke="#000000" d="M589.1838,-313.3583C533.4788,-328.1341 598.8754,-437.6458 537,-479.7 463.1162,-529.9158 422.1839,-503.2112 336,-479.7 241.4319,-453.9016 204.6058,-446.2752 146,-367.7 101.3706,-307.8635 180.1472,-204.7 105.5,-204.7"/>
<polygon fill="#000000" stroke="#000000" points="595.5531,-312.6206 603.9143,-315.2761 599.5266,-312.1603 603.5,-311.7 603.5,-311.7 603.5,-311.7 599.5266,-312.1603 603.0857,-308.1239 595.5531,-312.6206 595.5531,-312.6206"/>
<ellipse fill="none" stroke="#000000" cx="592.3744" cy="-312.9888" rx="3.2" ry="3.2"/>
</g>
<!-- rsvps&#45;&gt;events -->
<g id="edge3" class="edge">
<title>rsvps:w&#45;&gt;events:e</title>
<path fill="none" stroke="#000000" d="M588.8777,-310.5721C540.9998,-302.8176 532.564,-257.7 476.5,-257.7"/>
<polygon fill="#000000" stroke="#000000" points="595.5237,-311.0847 603.2231,-315.2893 599.5118,-311.3924 603.5,-311.7 603.5,-311.7 603.5,-311.7 599.5118,-311.3924 603.7769,-308.1107 595.5237,-311.0847 595.5237,-311.0847"/>
<ellipse fill="none" stroke="#000000" cx="592.3332" cy="-310.8386" rx="3.2" ry="3.2"/>
</g>
<!-- user_bans -->
<g id="node5" class="node">
<title>user_bans</title>
<g id="a_node5"><a xlink:href="../../tables/user_bans.html" xlink:title="user_bans" target="_top">
<polygon fill="#ffffff" stroke="transparent" points="344,-312.7 344,-468.7 529,-468.7 529,-312.7 344,-312.7"/>
<polygon fill="#f5f5f5" stroke="transparent" points="346.5,-443.7 346.5,-466.7 527.5,-466.7 527.5,-443.7 346.5,-443.7"/>
<polygon fill="none" stroke="#000000" points="346.5,-443.7 346.5,-466.7 527.5,-466.7 527.5,-443.7 346.5,-443.7"/>
<text text-anchor="start" x="351.5" y="-452.8" font-family="Helvetica,sans-Serif" font-weight="bold" font-size="11.00" fill="#000000">user_bans</text>
<text text-anchor="start" x="492.5437" y="-451.8" font-family="Helvetica,sans-Serif" font-size="11.00" fill="#000000">[table]</text>
<polygon fill="none" stroke="#000000" points="346.5,-421.7 346.5,-443.7 443.5,-443.7 443.5,-421.7 346.5,-421.7"/>
<image xlink:href="../../images/primaryKeys.png" width="11px" height="12px" preserveAspectRatio="xMinYMin meet" x="351.5" y="-438.7"/>
<text text-anchor="start" x="366.5" y="-428.8" font-family="Helvetica,sans-Serif" font-size="11.00" fill="#000000">id</text>
<polygon fill="none" stroke="#000000" points="443.5,-421.7 443.5,-443.7 527.5,-443.7 527.5,-421.7 443.5,-421.7"/>
<text text-anchor="start" x="446.5" y="-429.4" font-family="Helvetica,sans-Serif" font-size="11.00" fill="#000000">serial[10]</text>
<polygon fill="none" stroke="#000000" points="346.5,-399.7 346.5,-421.7 443.5,-421.7 443.5,-399.7 346.5,-399.7"/>
<image xlink:href="../../images/foreignKeys.png" width="11px" height="12px" preserveAspectRatio="xMinYMin meet" x="351.5" y="-416.7"/>
<text text-anchor="start" x="366.5" y="-406.8" font-family="Helvetica,sans-Serif" font-size="11.00" fill="#000000">user_id</text>
<polygon fill="none" stroke="#000000" points="443.5,-399.7 443.5,-421.7 527.5,-421.7 527.5,-399.7 443.5,-399.7"/>
<text text-anchor="start" x="446.5" y="-407.4" font-family="Helvetica,sans-Serif" font-size="11.00" fill="#000000">int4[10]</text>
<polygon fill="none" stroke="#000000" points="346.5,-377.7 346.5,-399.7 443.5,-399.7 443.5,-377.7 346.5,-377.7"/>
<image xlink:href="../../images/foreignKeys.png" width="11px" height="12px" preserveAspectRatio="xMinYMin meet" x="351.5" y="-394.7"/>
<text text-anchor="start" x="366.5" y="-384.8" font-family="Helvetica,sans-Serif" font-size="11.00" fill="#000000">chapter_id</text>
<polygon fill="none" stroke="#000000" points="443.5,-377.7 443.5,-399.7 527.5,-399.7 527.5,-377.7 443.5,-377.7"/>
<text text-anchor="start" x="446.5" y="-385.4" font-family="Helvetica,sans-Serif" font-size="11.00" fill="#000000">int4[10]</text>
<polygon fill="none" stroke="#000000" points="346.5,-355.7 346.5,-377.7 443.5,-377.7 443.5,-355.7 346.5,-355.7"/>
<text text-anchor="start" x="366.5" y="-362.8" font-family="Helvetica,sans-Serif" font-size="11.00" fill="#000000">created_at</text>
<polygon fill="none" stroke="#000000" points="443.5,-355.7 443.5,-377.7 527.5,-377.7 527.5,-355.7 443.5,-355.7"/>
<text text-anchor="start" x="446.3807" y="-363.4" font-family="Helvetica,sans-Serif" font-size="11.00" fill="#000000">timestamp[29,6]</text>
<polygon fill="none" stroke="#000000" points="346.5,-333.7 346.5,-355.7 443.5,-355.7 443.5,-333.7 346.5,-333.7"/>
<text text-anchor="start" x="366.5" y="-340.8" font-family="Helvetica,sans-Serif" font-size="11.00" fill="#000000">updated_at</text>
<polygon fill="none" stroke="#000000" points="443.5,-333.7 443.5,-355.7 527.5,-355.7 527.5,-333.7 443.5,-333.7"/>
<text text-anchor="start" x="446.3807" y="-341.4" font-family="Helvetica,sans-Serif" font-size="11.00" fill="#000000">timestamp[29,6]</text>
<polygon fill="#ffffff" stroke="transparent" points="346.5,-314.7 346.5,-333.7 386.5,-333.7 386.5,-314.7 346.5,-314.7"/>
<polygon fill="none" stroke="#000000" points="346.5,-314.7 346.5,-333.7 386.5,-333.7 386.5,-314.7 346.5,-314.7"/>
<text text-anchor="start" x="349.5" y="-320.8" font-family="Helvetica,sans-Serif" font-size="11.00" fill="#000000">&lt; 2</text>
<polygon fill="#ffffff" stroke="transparent" points="386.5,-314.7 386.5,-333.7 443.5,-333.7 443.5,-314.7 386.5,-314.7"/>
<polygon fill="none" stroke="#000000" points="386.5,-314.7 386.5,-333.7 443.5,-333.7 443.5,-314.7 386.5,-314.7"/>
<text text-anchor="start" x="408.1105" y="-320.8" font-family="Helvetica,sans-Serif" font-size="11.00" fill="#000000">4 rows</text>
<polygon fill="#ffffff" stroke="transparent" points="443.5,-314.7 443.5,-333.7 527.5,-333.7 527.5,-314.7 443.5,-314.7"/>
<polygon fill="none" stroke="#000000" points="443.5,-314.7 443.5,-333.7 527.5,-333.7 527.5,-314.7 443.5,-314.7"/>
<text text-anchor="start" x="508.9053" y="-320.8" font-family="Helvetica,sans-Serif" font-size="11.00" fill="#000000">0 &gt;</text>
<polygon fill="none" stroke="#000000" stroke-width="2" points="345,-313.7 345,-467.7 528,-467.7 528,-313.7 345,-313.7"/>
</a>
</g>
</g>
<!-- user_bans&#45;&gt;chapters -->
<g id="edge5" class="edge">
<title>user_bans:w&#45;&gt;chapters:e</title>
<path fill="none" stroke="#000000" d="M332.1546,-385.9729C291.0234,-367.6929 332.181,-263.7 273.5,-263.7"/>
<polygon fill="#000000" stroke="#000000" points="338.6407,-387.2059 345.8277,-392.2367 342.5704,-387.953 346.5,-388.7 346.5,-388.7 346.5,-388.7 342.5704,-387.953 347.1723,-385.1633 338.6407,-387.2059 338.6407,-387.2059"/>
<ellipse fill="none" stroke="#000000" cx="335.497" cy="-386.6083" rx="3.2" ry="3.2"/>
</g>
<!-- user_bans&#45;&gt;users -->
<g id="edge6" class="edge">
<title>user_bans:w&#45;&gt;users:e</title>
<path fill="none" stroke="#000000" d="M332.0446,-410.4902C243.1082,-407.8078 209.7603,-379.1247 146,-308.7 112.7082,-271.9284 155.1034,-204.7 105.5,-204.7"/>
<polygon fill="#000000" stroke="#000000" points="338.5008,-410.5839 346.4477,-414.2996 342.5004,-410.6419 346.5,-410.7 346.5,-410.7 346.5,-410.7 342.5004,-410.6419 346.5523,-407.1004 338.5008,-410.5839 338.5008,-410.5839"/>
<ellipse fill="none" stroke="#000000" cx="335.3012" cy="-410.5374" rx="3.2" ry="3.2"/>
</g>
<!-- user_chapter_roles -->
<g id="node6" class="node">
<title>user_chapter_roles</title>
<g id="a_node6"><a xlink:href="../../tables/user_chapter_roles.html" xlink:title="user_chapter_roles" target="_top">
<polygon fill="#ffffff" stroke="transparent" points="368,-148.2 368,-209.2 505,-209.2 505,-148.2 368,-148.2"/>
<polygon fill="#f5f5f5" stroke="transparent" points="368.5,-185.7 368.5,-208.7 505.5,-208.7 505.5,-185.7 368.5,-185.7"/>
<polygon fill="none" stroke="#000000" points="368.5,-185.7 368.5,-208.7 505.5,-208.7 505.5,-185.7 368.5,-185.7"/>
<text text-anchor="start" x="373.4338" y="-194.8" font-family="Helvetica,sans-Serif" font-weight="bold" font-size="11.00" fill="#000000">user_chapter_roles</text>
<text text-anchor="start" x="471.0219" y="-193.8" font-family="Helvetica,sans-Serif" font-size="11.00" fill="#000000">[table]</text>
<polygon fill="none" stroke="#000000" points="368.5,-166.7 368.5,-185.7 505.5,-185.7 505.5,-166.7 368.5,-166.7"/>
<text text-anchor="start" x="371.5" y="-172.8" font-family="Helvetica,sans-Serif" font-size="11.00" fill="#000000">...</text>
<polygon fill="#ffffff" stroke="transparent" points="368.5,-147.7 368.5,-166.7 419.5,-166.7 419.5,-147.7 368.5,-147.7"/>
<polygon fill="none" stroke="#000000" points="368.5,-147.7 368.5,-166.7 419.5,-166.7 419.5,-147.7 368.5,-147.7"/>
<text text-anchor="start" x="371.5" y="-153.8" font-family="Helvetica,sans-Serif" font-size="11.00" fill="#000000">&lt; 2</text>
<polygon fill="#ffffff" stroke="transparent" points="419.5,-147.7 419.5,-166.7 478.5,-166.7 478.5,-147.7 419.5,-147.7"/>
<polygon fill="none" stroke="#000000" points="419.5,-147.7 419.5,-166.7 478.5,-166.7 478.5,-147.7 419.5,-147.7"/>
<text text-anchor="start" x="436.9956" y="-153.8" font-family="Helvetica,sans-Serif" font-size="11.00" fill="#000000">40 rows</text>
<polygon fill="#ffffff" stroke="transparent" points="478.5,-147.7 478.5,-166.7 505.5,-166.7 505.5,-147.7 478.5,-147.7"/>
<polygon fill="none" stroke="#000000" points="478.5,-147.7 478.5,-166.7 505.5,-166.7 505.5,-147.7 478.5,-147.7"/>
<text text-anchor="start" x="496.3862" y="-153.8" font-family="Helvetica,sans-Serif" font-size="11.00" fill="#000000"> &#160;</text>
</a>
</g>
</g>
<!-- user_chapter_roles&#45;&gt;chapters -->
<g id="edge7" class="edge">
<title>user_chapter_roles:w&#45;&gt;chapters:e</title>
<path fill="none" stroke="#000000" d="M354.2328,-177.8753C314.0341,-191.4266 325.6578,-263.7 273.5,-263.7"/>
<polygon fill="#000000" stroke="#000000" points="360.5914,-176.9059 369.0426,-179.2589 364.5457,-176.3029 368.5,-175.7 368.5,-175.7 368.5,-175.7 364.5457,-176.3029 367.9574,-172.1411 360.5914,-176.9059 360.5914,-176.9059"/>
<ellipse fill="none" stroke="#000000" cx="357.428" cy="-177.3882" rx="3.2" ry="3.2"/>
</g>
<!-- user_chapter_roles&#45;&gt;users -->
<g id="edge8" class="edge">
<title>user_chapter_roles:w&#45;&gt;users:e</title>
<path fill="none" stroke="#000000" d="M353.9576,-175.5624C266.5379,-173.8991 236.6468,-158.1455 146,-182.7 126.2283,-188.0558 125.9843,-204.7 105.5,-204.7"/>
<polygon fill="#000000" stroke="#000000" points="360.5004,-175.6242 368.4659,-179.2998 364.5002,-175.6621 368.5,-175.7 368.5,-175.7 368.5,-175.7 364.5002,-175.6621 368.5341,-172.1002 360.5004,-175.6242 360.5004,-175.6242"/>
<ellipse fill="none" stroke="#000000" cx="357.3005" cy="-175.5939" rx="3.2" ry="3.2"/>
</g>
<!-- user_event_roles -->
<g id="node7" class="node">
<title>user_event_roles</title>
<g id="a_node7"><a xlink:href="../../tables/user_event_roles.html" xlink:title="user_event_roles" target="_top">
<polygon fill="#ffffff" stroke="transparent" points="578,-176.2 578,-237.2 705,-237.2 705,-176.2 578,-176.2"/>
<polygon fill="#f5f5f5" stroke="transparent" points="578.5,-213.7 578.5,-236.7 705.5,-236.7 705.5,-213.7 578.5,-213.7"/>
<polygon fill="none" stroke="#000000" points="578.5,-213.7 578.5,-236.7 705.5,-236.7 705.5,-213.7 578.5,-213.7"/>
<text text-anchor="start" x="583.3222" y="-222.8" font-family="Helvetica,sans-Serif" font-weight="bold" font-size="11.00" fill="#000000">user_event_roles</text>
<text text-anchor="start" x="671.0219" y="-221.8" font-family="Helvetica,sans-Serif" font-size="11.00" fill="#000000">[table]</text>
<polygon fill="none" stroke="#000000" points="578.5,-194.7 578.5,-213.7 705.5,-213.7 705.5,-194.7 578.5,-194.7"/>
<text text-anchor="start" x="581.5" y="-200.8" font-family="Helvetica,sans-Serif" font-size="11.00" fill="#000000">...</text>
<polygon fill="#ffffff" stroke="transparent" points="578.5,-175.7 578.5,-194.7 624.5,-194.7 624.5,-175.7 578.5,-175.7"/>
<polygon fill="none" stroke="#000000" points="578.5,-175.7 578.5,-194.7 624.5,-194.7 624.5,-175.7 578.5,-175.7"/>
<text text-anchor="start" x="581.5" y="-181.8" font-family="Helvetica,sans-Serif" font-size="11.00" fill="#000000">&lt; 2</text>
<polygon fill="#ffffff" stroke="transparent" points="624.5,-175.7 624.5,-194.7 680.5,-194.7 680.5,-175.7 624.5,-175.7"/>
<polygon fill="none" stroke="#000000" points="624.5,-175.7 624.5,-194.7 680.5,-194.7 680.5,-175.7 624.5,-175.7"/>
<text text-anchor="start" x="638.9956" y="-181.8" font-family="Helvetica,sans-Serif" font-size="11.00" fill="#000000">20 rows</text>
<polygon fill="#ffffff" stroke="transparent" points="680.5,-175.7 680.5,-194.7 705.5,-194.7 705.5,-175.7 680.5,-175.7"/>
<polygon fill="none" stroke="#000000" points="680.5,-175.7 680.5,-194.7 705.5,-194.7 705.5,-175.7 680.5,-175.7"/>
<text text-anchor="start" x="696.3862" y="-181.8" font-family="Helvetica,sans-Serif" font-size="11.00" fill="#000000"> &#160;</text>
</a>
</g>
</g>
<!-- user_event_roles&#45;&gt;users -->
<g id="edge10" class="edge">
<title>user_event_roles:w&#45;&gt;users:e</title>
<path fill="none" stroke="#000000" d="M564.4022,-199.0451C550.7629,-186.3757 561.6427,-151.3144 537,-137.7 458.8065,-94.5003 425.0944,-131.1704 336,-137.7 250.8718,-143.9389 222.6189,-128.0799 146,-165.7 123.5691,-176.7136 130.4889,-204.7 105.5,-204.7"/>
<polygon fill="#000000" stroke="#000000" points="570.9034,-201.1916 577.3712,-207.1185 574.7017,-202.4458 578.5,-203.7 578.5,-203.7 578.5,-203.7 574.7017,-202.4458 579.6288,-200.2815 570.9034,-201.1916 570.9034,-201.1916"/>
<ellipse fill="none" stroke="#000000" cx="567.8648" cy="-200.1883" rx="3.2" ry="3.2"/>
</g>
<!-- user_event_roles&#45;&gt;events -->
<g id="edge9" class="edge">
<title>user_event_roles:w&#45;&gt;events:e</title>
<path fill="none" stroke="#000000" d="M563.8798,-205.3753C526.7527,-214.4899 522.3844,-257.7 476.5,-257.7"/>
<polygon fill="#000000" stroke="#000000" points="570.552,-204.6108 578.9099,-207.2766 574.526,-204.1554 578.5,-203.7 578.5,-203.7 578.5,-203.7 574.526,-204.1554 578.0901,-200.1234 570.552,-204.6108 570.552,-204.6108"/>
<ellipse fill="none" stroke="#000000" cx="567.3728" cy="-204.9751" rx="3.2" ry="3.2"/>
</g>
<!-- user_instance_roles -->
<g id="node8" class="node">
<title>user_instance_roles</title>
<g id="a_node8"><a xlink:href="../../tables/user_instance_roles.html" xlink:title="user_instance_roles" target="_top">
<polygon fill="#ffffff" stroke="transparent" points="154,-38.2 154,-99.2 295,-99.2 295,-38.2 154,-38.2"/>
<polygon fill="#f5f5f5" stroke="transparent" points="154.5,-75.7 154.5,-98.7 295.5,-98.7 295.5,-75.7 154.5,-75.7"/>
<polygon fill="none" stroke="#000000" points="154.5,-75.7 154.5,-98.7 295.5,-98.7 295.5,-75.7 154.5,-75.7"/>
<text text-anchor="start" x="159.2943" y="-84.8" font-family="Helvetica,sans-Serif" font-weight="bold" font-size="11.00" fill="#000000">user_instance_roles</text>
<text text-anchor="start" x="261.0219" y="-83.8" font-family="Helvetica,sans-Serif" font-size="11.00" fill="#000000">[table]</text>
<polygon fill="none" stroke="#000000" points="154.5,-56.7 154.5,-75.7 295.5,-75.7 295.5,-56.7 154.5,-56.7"/>
<text text-anchor="start" x="157.5" y="-62.8" font-family="Helvetica,sans-Serif" font-size="11.00" fill="#000000">...</text>
<polygon fill="#ffffff" stroke="transparent" points="154.5,-37.7 154.5,-56.7 210.5,-56.7 210.5,-37.7 154.5,-37.7"/>
<polygon fill="none" stroke="#000000" points="154.5,-37.7 154.5,-56.7 210.5,-56.7 210.5,-37.7 154.5,-37.7"/>
<text text-anchor="start" x="157.5" y="-43.8" font-family="Helvetica,sans-Serif" font-size="11.00" fill="#000000">&lt; 1</text>
<polygon fill="#ffffff" stroke="transparent" points="210.5,-37.7 210.5,-56.7 265.5,-56.7 265.5,-37.7 210.5,-37.7"/>
<polygon fill="none" stroke="#000000" points="210.5,-37.7 210.5,-56.7 265.5,-56.7 265.5,-37.7 210.5,-37.7"/>
<text text-anchor="start" x="230.1105" y="-43.8" font-family="Helvetica,sans-Serif" font-size="11.00" fill="#000000">0 rows</text>
<polygon fill="#ffffff" stroke="transparent" points="265.5,-37.7 265.5,-56.7 295.5,-56.7 295.5,-37.7 265.5,-37.7"/>
<polygon fill="none" stroke="#000000" points="265.5,-37.7 265.5,-56.7 295.5,-56.7 295.5,-37.7 265.5,-37.7"/>
<text text-anchor="start" x="286.3862" y="-43.8" font-family="Helvetica,sans-Serif" font-size="11.00" fill="#000000"> &#160;</text>
</a>
</g>
</g>
<!-- user_instance_roles&#45;&gt;users -->
<g id="edge11" class="edge">
<title>user_instance_roles:w&#45;&gt;users:e</title>
<path fill="none" stroke="#000000" d="M140.2028,-68.8644C102.5412,-89.5546 165.1188,-204.7 105.5,-204.7"/>
<polygon fill="#000000" stroke="#000000" points="146.689,-67.4288 155.278,-69.2149 150.5945,-66.5644 154.5,-65.7 154.5,-65.7 154.5,-65.7 150.5945,-66.5644 153.722,-62.1851 146.689,-67.4288 146.689,-67.4288"/>
<ellipse fill="none" stroke="#000000" cx="143.5646" cy="-68.1204" rx="3.2" ry="3.2"/>
</g>
</g>
</svg>
