<?xml version="1.0" encoding="UTF-8" standalone="no"?>
<!DOCTYPE svg PUBLIC "-//W3C//DTD SVG 1.1//EN"
 "http://www.w3.org/Graphics/SVG/1.1/DTD/svg11.dtd">
<!-- Generated by graphviz version 2.40.1 (20161225.0304)
 -->
<!-- Title: twoDegreesRelationshipsDiagram Pages: 1 -->
<svg width="754pt" height="565pt"
 viewBox="0.00 0.00 754.00 564.70" xmlns="http://www.w3.org/2000/svg" xmlns:xlink="http://www.w3.org/1999/xlink">
<g id="graph0" class="graph" transform="scale(1 1) rotate(0) translate(4 560.6955)">
<title>twoDegreesRelationshipsDiagram</title>
<polygon fill="#ffffff" stroke="transparent" points="-4,4 -4,-560.6955 750,-560.6955 750,4 -4,4"/>
<text text-anchor="middle" x="72.4936" y="-7.3" font-family="Helvetica,sans-Serif" font-size="11.00" fill="#000000">Generated by SchemaSpy</text>
<!-- chapters -->
<g id="node1" class="node">
<title>chapters</title>
<g id="a_node1"><a xlink:href="../../tables/chapters.html" xlink:title="chapters" target="_top">
<polygon fill="#ffffff" stroke="transparent" points="171.5,-217.2 171.5,-322.2 259.5,-322.2 259.5,-217.2 171.5,-217.2"/>
<polygon fill="#f5f5f5" stroke="transparent" points="171.5,-298.7 171.5,-321.7 259.5,-321.7 259.5,-298.7 171.5,-298.7"/>
<polygon fill="none" stroke="#000000" points="171.5,-298.7 171.5,-321.7 259.5,-321.7 259.5,-298.7 171.5,-298.7"/>
<text text-anchor="start" x="176.5" y="-307.8" font-family="Helvetica,sans-Serif" font-weight="bold" font-size="11.00" fill="#000000">chapters</text>
<text text-anchor="start" x="224.5437" y="-306.8" font-family="Helvetica,sans-Serif" font-size="11.00" fill="#000000">[table]</text>
<polygon fill="none" stroke="#000000" points="171.5,-276.7 171.5,-298.7 259.5,-298.7 259.5,-276.7 171.5,-276.7"/>
<image xlink:href="../../images/primaryKeys.png" width="11px" height="12px" preserveAspectRatio="xMinYMin meet" x="176.5" y="-293.7"/>
<text text-anchor="start" x="191.5" y="-283.8" font-family="Helvetica,sans-Serif" font-size="11.00" fill="#000000">id</text>
<polygon fill="none" stroke="#000000" points="171.5,-254.7 171.5,-276.7 259.5,-276.7 259.5,-254.7 171.5,-254.7"/>
<image xlink:href="../../images/foreignKeys.png" width="11px" height="12px" preserveAspectRatio="xMinYMin meet" x="176.5" y="-271.7"/>
<text text-anchor="start" x="191.5" y="-261.8" font-family="Helvetica,sans-Serif" font-size="11.00" fill="#000000">creator_id</text>
<polygon fill="none" stroke="#000000" points="171.5,-235.7 171.5,-254.7 259.5,-254.7 259.5,-235.7 171.5,-235.7"/>
<text text-anchor="start" x="174.5" y="-241.8" font-family="Helvetica,sans-Serif" font-size="11.00" fill="#000000">...</text>
<polygon fill="#ffffff" stroke="transparent" points="171.5,-216.7 171.5,-235.7 196.5,-235.7 196.5,-216.7 171.5,-216.7"/>
<polygon fill="none" stroke="#000000" points="171.5,-216.7 171.5,-235.7 196.5,-235.7 196.5,-216.7 171.5,-216.7"/>
<text text-anchor="start" x="174.5" y="-222.8" font-family="Helvetica,sans-Serif" font-size="11.00" fill="#000000">&lt; 1</text>
<polygon fill="#ffffff" stroke="transparent" points="196.5,-216.7 196.5,-235.7 236.5,-235.7 236.5,-216.7 196.5,-216.7"/>
<polygon fill="none" stroke="#000000" points="196.5,-216.7 196.5,-235.7 236.5,-235.7 236.5,-216.7 196.5,-216.7"/>
<text text-anchor="start" x="201.1105" y="-222.8" font-family="Helvetica,sans-Serif" font-size="11.00" fill="#000000">0 rows</text>
<polygon fill="#ffffff" stroke="transparent" points="236.5,-216.7 236.5,-235.7 259.5,-235.7 259.5,-216.7 236.5,-216.7"/>
<polygon fill="none" stroke="#000000" points="236.5,-216.7 236.5,-235.7 259.5,-235.7 259.5,-216.7 236.5,-216.7"/>
<text text-anchor="start" x="240.9053" y="-222.8" font-family="Helvetica,sans-Serif" font-size="11.00" fill="#000000">3 &gt;</text>
</a>
</g>
</g>
<!-- users -->
<g id="node2" class="node">
<title>users</title>
<g id="a_node2"><a xlink:href="../../tables/users.html" xlink:title="users" target="_top">
<polygon fill="#ffffff" stroke="transparent" points="8,-235.2 8,-340.2 96,-340.2 96,-235.2 8,-235.2"/>
<polygon fill="#f5f5f5" stroke="transparent" points="8,-316.7 8,-339.7 96,-339.7 96,-316.7 8,-316.7"/>
<polygon fill="none" stroke="#000000" points="8,-316.7 8,-339.7 96,-339.7 96,-316.7 8,-316.7"/>
<text text-anchor="start" x="13" y="-325.8" font-family="Helvetica,sans-Serif" font-weight="bold" font-size="11.00" fill="#000000">users</text>
<text text-anchor="start" x="61.0437" y="-324.8" font-family="Helvetica,sans-Serif" font-size="11.00" fill="#000000">[table]</text>
<polygon fill="none" stroke="#000000" points="8,-294.7 8,-316.7 96,-316.7 96,-294.7 8,-294.7"/>
<image xlink:href="../../images/primaryKeys.png" width="11px" height="12px" preserveAspectRatio="xMinYMin meet" x="13" y="-311.7"/>
<text text-anchor="start" x="28" y="-301.8" font-family="Helvetica,sans-Serif" font-size="11.00" fill="#000000">id</text>
<polygon fill="#ffffff" stroke="transparent" points="8,-272.7 8,-294.7 96,-294.7 96,-272.7 8,-272.7"/>
<polygon fill="none" stroke="#000000" points="8,-272.7 8,-294.7 96,-294.7 96,-272.7 8,-272.7"/>
<text text-anchor="start" x="28" y="-279.8" font-family="Helvetica,sans-Serif" font-size="11.00" fill="#000000">email</text>
<polygon fill="none" stroke="#000000" points="8,-253.7 8,-272.7 96,-272.7 96,-253.7 8,-253.7"/>
<text text-anchor="start" x="11" y="-259.8" font-family="Helvetica,sans-Serif" font-size="11.00" fill="#000000">...</text>
<polygon fill="#ffffff" stroke="transparent" points="8,-234.7 8,-253.7 28,-253.7 28,-234.7 8,-234.7"/>
<polygon fill="none" stroke="#000000" points="8,-234.7 8,-253.7 28,-253.7 28,-234.7 8,-234.7"/>
<text text-anchor="start" x="11" y="-240.8" font-family="Helvetica,sans-Serif" font-size="11.00" fill="#000000"> &#160;</text>
<polygon fill="#ffffff" stroke="transparent" points="28,-234.7 28,-253.7 70,-253.7 70,-234.7 28,-234.7"/>
<polygon fill="none" stroke="#000000" points="28,-234.7 28,-253.7 70,-253.7 70,-234.7 28,-234.7"/>
<text text-anchor="start" x="34.6105" y="-240.8" font-family="Helvetica,sans-Serif" font-size="11.00" fill="#000000">0 rows</text>
<polygon fill="#ffffff" stroke="transparent" points="70,-234.7 70,-253.7 96,-253.7 96,-234.7 70,-234.7"/>
<polygon fill="none" stroke="#000000" points="70,-234.7 70,-253.7 96,-253.7 96,-234.7 70,-234.7"/>
<text text-anchor="start" x="77.4053" y="-240.8" font-family="Helvetica,sans-Serif" font-size="11.00" fill="#000000">6 &gt;</text>
</a>
</g>
</g>
<!-- chapters&#45;&gt;users -->
<g id="edge1" class="edge">
<title>chapters:w&#45;&gt;users:e</title>
<path fill="none" stroke="#000000" d="M157.2105,-267.9652C132.8529,-276.4269 128.4856,-305.7 96,-305.7"/>
<polygon fill="#000000" stroke="#000000" points="163.5987,-266.9526 172.0637,-269.2556 167.5493,-266.3263 171.5,-265.7 171.5,-265.7 171.5,-265.7 167.5493,-266.3263 170.9363,-262.1444 163.5987,-266.9526 163.5987,-266.9526"/>
<ellipse fill="none" stroke="#000000" cx="160.4381" cy="-267.4536" rx="3.2" ry="3.2"/>
</g>
<!-- events -->
<g id="node3" class="node">
<title>events</title>
<g id="a_node3"><a xlink:href="../../tables/events.html" xlink:title="events" target="_top">
<polygon fill="#ffffff" stroke="transparent" points="408.5,-148.2 408.5,-209.2 488.5,-209.2 488.5,-148.2 408.5,-148.2"/>
<polygon fill="#f5f5f5" stroke="transparent" points="408.5,-185.7 408.5,-208.7 488.5,-208.7 488.5,-185.7 408.5,-185.7"/>
<polygon fill="none" stroke="#000000" points="408.5,-185.7 408.5,-208.7 488.5,-208.7 488.5,-185.7 408.5,-185.7"/>
<text text-anchor="start" x="413.5" y="-194.8" font-family="Helvetica,sans-Serif" font-weight="bold" font-size="11.00" fill="#000000">events</text>
<text text-anchor="start" x="453.5437" y="-193.8" font-family="Helvetica,sans-Serif" font-size="11.00" fill="#000000">[table]</text>
<polygon fill="none" stroke="#000000" points="408.5,-166.7 408.5,-185.7 488.5,-185.7 488.5,-166.7 408.5,-166.7"/>
<text text-anchor="start" x="411.5" y="-172.8" font-family="Helvetica,sans-Serif" font-size="11.00" fill="#000000">...</text>
<polygon fill="#ffffff" stroke="transparent" points="408.5,-147.7 408.5,-166.7 429.5,-166.7 429.5,-147.7 408.5,-147.7"/>
<polygon fill="none" stroke="#000000" points="408.5,-147.7 408.5,-166.7 429.5,-166.7 429.5,-147.7 408.5,-147.7"/>
<text text-anchor="start" x="411.2027" y="-153.8" font-family="Helvetica,sans-Serif" font-size="11.00" fill="#000000">&lt; 2</text>
<polygon fill="#ffffff" stroke="transparent" points="429.5,-147.7 429.5,-166.7 467.5,-166.7 467.5,-147.7 429.5,-147.7"/>
<polygon fill="none" stroke="#000000" points="429.5,-147.7 429.5,-166.7 467.5,-166.7 467.5,-147.7 429.5,-147.7"/>
<text text-anchor="start" x="432.3053" y="-153.8" font-family="Helvetica,sans-Serif" font-size="11.00" fill="#000000">0 rows</text>
<polygon fill="#ffffff" stroke="transparent" points="467.5,-147.7 467.5,-166.7 488.5,-166.7 488.5,-147.7 467.5,-147.7"/>
<polygon fill="none" stroke="#000000" points="467.5,-147.7 467.5,-166.7 488.5,-166.7 488.5,-147.7 467.5,-147.7"/>
<text text-anchor="start" x="470.2027" y="-153.8" font-family="Helvetica,sans-Serif" font-size="11.00" fill="#000000">4 &gt;</text>
</a>
</g>
</g>
<!-- events&#45;&gt;chapters -->
<g id="edge2" class="edge">
<title>events:w&#45;&gt;chapters:e</title>
<path fill="none" stroke="#000000" d="M393.7479,-176.691C364.927,-180.9331 355.5882,-198.323 327,-219.7 292.8962,-245.2013 302.0838,-287.7 259.5,-287.7"/>
<polygon fill="#000000" stroke="#000000" points="400.518,-176.2363 408.7413,-179.2919 404.509,-175.9681 408.5,-175.7 408.5,-175.7 408.5,-175.7 404.509,-175.9681 408.2587,-172.1081 400.518,-176.2363 400.518,-176.2363"/>
<ellipse fill="none" stroke="#000000" cx="397.3252" cy="-176.4508" rx="3.2" ry="3.2"/>
</g>
<!-- rsvps -->
<g id="node4" class="node">
<title>rsvps</title>
<g id="a_node4"><a xlink:href="../../tables/rsvps.html" xlink:title="rsvps" target="_top">
<polygon fill="#ffffff" stroke="transparent" points="639,-357.2 639,-418.2 710,-418.2 710,-357.2 639,-357.2"/>
<polygon fill="#f5f5f5" stroke="transparent" points="639.5,-394.7 639.5,-417.7 710.5,-417.7 710.5,-394.7 639.5,-394.7"/>
<polygon fill="none" stroke="#000000" points="639.5,-394.7 639.5,-417.7 710.5,-417.7 710.5,-394.7 639.5,-394.7"/>
<text text-anchor="start" x="644.5" y="-403.8" font-family="Helvetica,sans-Serif" font-weight="bold" font-size="11.00" fill="#000000">rsvps</text>
<text text-anchor="start" x="675.5437" y="-402.8" font-family="Helvetica,sans-Serif" font-size="11.00" fill="#000000">[table]</text>
<polygon fill="none" stroke="#000000" points="639.5,-375.7 639.5,-394.7 710.5,-394.7 710.5,-375.7 639.5,-375.7"/>
<text text-anchor="start" x="642.5" y="-381.8" font-family="Helvetica,sans-Serif" font-size="11.00" fill="#000000">...</text>
<polygon fill="#ffffff" stroke="transparent" points="639.5,-356.7 639.5,-375.7 660.5,-375.7 660.5,-356.7 639.5,-356.7"/>
<polygon fill="none" stroke="#000000" points="639.5,-356.7 639.5,-375.7 660.5,-375.7 660.5,-356.7 639.5,-356.7"/>
<text text-anchor="start" x="642.2026" y="-362.8" font-family="Helvetica,sans-Serif" font-size="11.00" fill="#000000">&lt; 2</text>
<polygon fill="#ffffff" stroke="transparent" points="660.5,-356.7 660.5,-375.7 698.5,-375.7 698.5,-356.7 660.5,-356.7"/>
<polygon fill="none" stroke="#000000" points="660.5,-356.7 660.5,-375.7 698.5,-375.7 698.5,-356.7 660.5,-356.7"/>
<text text-anchor="start" x="663.3053" y="-362.8" font-family="Helvetica,sans-Serif" font-size="11.00" fill="#000000">0 rows</text>
<polygon fill="#ffffff" stroke="transparent" points="698.5,-356.7 698.5,-375.7 710.5,-375.7 710.5,-356.7 698.5,-356.7"/>
<polygon fill="none" stroke="#000000" points="698.5,-356.7 698.5,-375.7 710.5,-375.7 710.5,-356.7 698.5,-356.7"/>
<text text-anchor="start" x="701.4431" y="-362.8" font-family="Helvetica,sans-Serif" font-size="11.00" fill="#000000"> &#160;</text>
</a>
</g>
</g>
<!-- rsvps&#45;&gt;users -->
<g id="edge4" class="edge">
<title>rsvps:w&#45;&gt;users:e</title>
<path fill="none" stroke="#000000" d="M624.9392,-386.6797C579.2113,-401.1006 623.9345,-490.3667 570,-523.7 478.1297,-580.479 431.2479,-551.9199 327,-523.7 232.5987,-498.1455 200.3021,-487.2485 137,-412.7 104.0365,-373.8801 146.9272,-305.7 96,-305.7"/>
<polygon fill="#000000" stroke="#000000" points="631.5729,-385.7778 639.985,-388.2672 635.5365,-385.2389 639.5,-384.7 639.5,-384.7 639.5,-384.7 635.5365,-385.2389 639.015,-381.1328 631.5729,-385.7778 631.5729,-385.7778"/>
<ellipse fill="none" stroke="#000000" cx="628.4021" cy="-386.2089" rx="3.2" ry="3.2"/>
</g>
<!-- rsvps&#45;&gt;events -->
<g id="edge3" class="edge">
<title>rsvps:w&#45;&gt;events:e</title>
<path fill="none" stroke="#000000" d="M625.1048,-383.2617C568.0702,-370.4162 619.8344,-274.5847 570,-219.7 542.3286,-189.2244 529.6639,-175.7 488.5,-175.7"/>
<polygon fill="#000000" stroke="#000000" points="631.5396,-383.9046 639.1421,-388.2822 635.5198,-384.3023 639.5,-384.7 639.5,-384.7 639.5,-384.7 635.5198,-384.3023 639.8579,-381.1178 631.5396,-383.9046 631.5396,-383.9046"/>
<ellipse fill="none" stroke="#000000" cx="628.3555" cy="-383.5864" rx="3.2" ry="3.2"/>
</g>
<!-- user_bans -->
<g id="node5" class="node">
<title>user_bans</title>
<g id="a_node5"><a xlink:href="../../tables/user_bans.html" xlink:title="user_bans" target="_top">
<polygon fill="#ffffff" stroke="transparent" points="401.5,-452.2 401.5,-513.2 495.5,-513.2 495.5,-452.2 401.5,-452.2"/>
<polygon fill="#f5f5f5" stroke="transparent" points="401.5,-489.7 401.5,-512.7 495.5,-512.7 495.5,-489.7 401.5,-489.7"/>
<polygon fill="none" stroke="#000000" points="401.5,-489.7 401.5,-512.7 495.5,-512.7 495.5,-489.7 401.5,-489.7"/>
<text text-anchor="start" x="406.3244" y="-498.8" font-family="Helvetica,sans-Serif" font-weight="bold" font-size="11.00" fill="#000000">user_bans</text>
<text text-anchor="start" x="461.0219" y="-497.8" font-family="Helvetica,sans-Serif" font-size="11.00" fill="#000000">[table]</text>
<polygon fill="none" stroke="#000000" points="401.5,-470.7 401.5,-489.7 495.5,-489.7 495.5,-470.7 401.5,-470.7"/>
<text text-anchor="start" x="404.5" y="-476.8" font-family="Helvetica,sans-Serif" font-size="11.00" fill="#000000">...</text>
<polygon fill="#ffffff" stroke="transparent" points="401.5,-451.7 401.5,-470.7 433.5,-470.7 433.5,-451.7 401.5,-451.7"/>
<polygon fill="none" stroke="#000000" points="401.5,-451.7 401.5,-470.7 433.5,-470.7 433.5,-451.7 401.5,-451.7"/>
<text text-anchor="start" x="404.5" y="-457.8" font-family="Helvetica,sans-Serif" font-size="11.00" fill="#000000">&lt; 2</text>
<polygon fill="#ffffff" stroke="transparent" points="433.5,-451.7 433.5,-470.7 477.5,-470.7 477.5,-451.7 433.5,-451.7"/>
<polygon fill="none" stroke="#000000" points="433.5,-451.7 433.5,-470.7 477.5,-470.7 477.5,-451.7 433.5,-451.7"/>
<text text-anchor="start" x="442.1105" y="-457.8" font-family="Helvetica,sans-Serif" font-size="11.00" fill="#000000">0 rows</text>
<polygon fill="#ffffff" stroke="transparent" points="477.5,-451.7 477.5,-470.7 495.5,-470.7 495.5,-451.7 477.5,-451.7"/>
<polygon fill="none" stroke="#000000" points="477.5,-451.7 477.5,-470.7 495.5,-470.7 495.5,-451.7 477.5,-451.7"/>
<text text-anchor="start" x="486.3862" y="-457.8" font-family="Helvetica,sans-Serif" font-size="11.00" fill="#000000"> &#160;</text>
</a>
</g>
</g>
<!-- user_bans&#45;&gt;chapters -->
<g id="edge5" class="edge">
<title>user_bans:w&#45;&gt;chapters:e</title>
<path fill="none" stroke="#000000" d="M386.8538,-478.9978C360.6256,-476.1963 348.8161,-464.833 327,-441.7 275.7277,-387.3328 334.2305,-287.7 259.5,-287.7"/>
<polygon fill="#000000" stroke="#000000" points="393.5092,-479.3168 401.3276,-483.2959 397.5046,-479.5084 401.5,-479.7 401.5,-479.7 401.5,-479.7 397.5046,-479.5084 401.6724,-476.1041 393.5092,-479.3168 393.5092,-479.3168"/>
<ellipse fill="none" stroke="#000000" cx="390.3129" cy="-479.1635" rx="3.2" ry="3.2"/>
</g>
<!-- user_bans&#45;&gt;users -->
<g id="edge6" class="edge">
<title>user_bans:w&#45;&gt;users:e</title>
<path fill="none" stroke="#000000" d="M386.9139,-479.4585C267.8024,-475.4081 239.5943,-420.8226 137,-346.7 116.1113,-331.6083 121.7701,-305.7 96,-305.7"/>
<polygon fill="#000000" stroke="#000000" points="393.5011,-479.5675 401.4404,-483.2995 397.5005,-479.6337 401.5,-479.7 401.5,-479.7 401.5,-479.7 397.5005,-479.6337 401.5596,-476.1005 393.5011,-479.5675 393.5011,-479.5675"/>
<ellipse fill="none" stroke="#000000" cx="390.3015" cy="-479.5145" rx="3.2" ry="3.2"/>
</g>
<!-- user_chapter_roles -->
<g id="node6" class="node">
<title>user_chapter_roles</title>
<g id="a_node6"><a xlink:href="../../tables/user_chapter_roles.html" xlink:title="user_chapter_roles" target="_top">
<polygon fill="#ffffff" stroke="transparent" points="335,-230.7 335,-430.7 562,-430.7 562,-230.7 335,-230.7"/>
<polygon fill="#f5f5f5" stroke="transparent" points="337.5,-405.7 337.5,-428.7 560.5,-428.7 560.5,-405.7 337.5,-405.7"/>
<polygon fill="none" stroke="#000000" points="337.5,-405.7 337.5,-428.7 560.5,-428.7 560.5,-405.7 337.5,-405.7"/>
<text text-anchor="start" x="342.5" y="-414.8" font-family="Helvetica,sans-Serif" font-weight="bold" font-size="11.00" fill="#000000">user_chapter_roles</text>
<text text-anchor="start" x="525.5437" y="-413.8" font-family="Helvetica,sans-Serif" font-size="11.00" fill="#000000">[table]</text>
<polygon fill="none" stroke="#000000" points="337.5,-383.7 337.5,-405.7 470.5,-405.7 470.5,-383.7 337.5,-383.7"/>
<image xlink:href="../../images/primaryKeys.png" width="11px" height="12px" preserveAspectRatio="xMinYMin meet" x="342.5" y="-400.7"/>
<text text-anchor="start" x="357.5" y="-390.8" font-family="Helvetica,sans-Serif" font-size="11.00" fill="#000000">id</text>
<polygon fill="none" stroke="#000000" points="470.5,-383.7 470.5,-405.7 560.5,-405.7 560.5,-383.7 470.5,-383.7"/>
<text text-anchor="start" x="473.5" y="-391.4" font-family="Helvetica,sans-Serif" font-size="11.00" fill="#000000">serial[10]</text>
<polygon fill="none" stroke="#000000" points="337.5,-361.7 337.5,-383.7 470.5,-383.7 470.5,-361.7 337.5,-361.7"/>
<text text-anchor="start" x="357.5" y="-368.8" font-family="Helvetica,sans-Serif" font-size="11.00" fill="#000000">created_at</text>
<polygon fill="none" stroke="#000000" points="470.5,-361.7 470.5,-383.7 560.5,-383.7 560.5,-361.7 470.5,-361.7"/>
<text text-anchor="start" x="473.5" y="-369.4" font-family="Helvetica,sans-Serif" font-size="11.00" fill="#000000">timestamp[29,6]</text>
<polygon fill="none" stroke="#000000" points="337.5,-339.7 337.5,-361.7 470.5,-361.7 470.5,-339.7 337.5,-339.7"/>
<text text-anchor="start" x="357.5" y="-346.8" font-family="Helvetica,sans-Serif" font-size="11.00" fill="#000000">updated_at</text>
<polygon fill="none" stroke="#000000" points="470.5,-339.7 470.5,-361.7 560.5,-361.7 560.5,-339.7 470.5,-339.7"/>
<text text-anchor="start" x="473.5" y="-347.4" font-family="Helvetica,sans-Serif" font-size="11.00" fill="#000000">timestamp[29,6]</text>
<polygon fill="none" stroke="#000000" points="337.5,-317.7 337.5,-339.7 470.5,-339.7 470.5,-317.7 337.5,-317.7"/>
<image xlink:href="../../images/primaryKeys.png" width="11px" height="12px" preserveAspectRatio="xMinYMin meet" x="342.5" y="-334.7"/>
<text text-anchor="start" x="357.5" y="-324.8" font-family="Helvetica,sans-Serif" font-size="11.00" fill="#000000">user_id</text>
<polygon fill="none" stroke="#000000" points="470.5,-317.7 470.5,-339.7 560.5,-339.7 560.5,-317.7 470.5,-317.7"/>
<text text-anchor="start" x="473.5" y="-325.4" font-family="Helvetica,sans-Serif" font-size="11.00" fill="#000000">int4[10]</text>
<polygon fill="none" stroke="#000000" points="337.5,-295.7 337.5,-317.7 470.5,-317.7 470.5,-295.7 337.5,-295.7"/>
<image xlink:href="../../images/primaryKeys.png" width="11px" height="12px" preserveAspectRatio="xMinYMin meet" x="342.5" y="-312.7"/>
<text text-anchor="start" x="357.5" y="-302.8" font-family="Helvetica,sans-Serif" font-size="11.00" fill="#000000">chapter_id</text>
<polygon fill="none" stroke="#000000" points="470.5,-295.7 470.5,-317.7 560.5,-317.7 560.5,-295.7 470.5,-295.7"/>
<text text-anchor="start" x="473.5" y="-303.4" font-family="Helvetica,sans-Serif" font-size="11.00" fill="#000000">int4[10]</text>
<polygon fill="none" stroke="#000000" points="337.5,-273.7 337.5,-295.7 470.5,-295.7 470.5,-273.7 337.5,-273.7"/>
<image xlink:href="../../images/primaryKeys.png" width="11px" height="12px" preserveAspectRatio="xMinYMin meet" x="342.5" y="-290.7"/>
<text text-anchor="start" x="357.5" y="-280.8" font-family="Helvetica,sans-Serif" font-size="11.00" fill="#000000">role_name</text>
<polygon fill="none" stroke="#000000" points="470.5,-273.7 470.5,-295.7 560.5,-295.7 560.5,-273.7 470.5,-273.7"/>
<text text-anchor="start" x="473.0043" y="-281.4" font-family="Helvetica,sans-Serif" font-size="11.00" fill="#000000">text[2147483647]</text>
<polygon fill="none" stroke="#000000" points="337.5,-251.7 337.5,-273.7 470.5,-273.7 470.5,-251.7 337.5,-251.7"/>
<text text-anchor="start" x="357.5" y="-258.8" font-family="Helvetica,sans-Serif" font-size="11.00" fill="#000000">interested</text>
<polygon fill="none" stroke="#000000" points="470.5,-251.7 470.5,-273.7 560.5,-273.7 560.5,-251.7 470.5,-251.7"/>
<text text-anchor="start" x="473.5" y="-259.4" font-family="Helvetica,sans-Serif" font-size="11.00" fill="#000000">bool[1]</text>
<polygon fill="#ffffff" stroke="transparent" points="337.5,-232.7 337.5,-251.7 395.5,-251.7 395.5,-232.7 337.5,-232.7"/>
<polygon fill="none" stroke="#000000" points="337.5,-232.7 337.5,-251.7 395.5,-251.7 395.5,-232.7 337.5,-232.7"/>
<text text-anchor="start" x="340.5" y="-238.8" font-family="Helvetica,sans-Serif" font-size="11.00" fill="#000000">&lt; 2</text>
<polygon fill="#ffffff" stroke="transparent" points="395.5,-232.7 395.5,-251.7 470.5,-251.7 470.5,-232.7 395.5,-232.7"/>
<polygon fill="none" stroke="#000000" points="395.5,-232.7 395.5,-251.7 470.5,-251.7 470.5,-232.7 395.5,-232.7"/>
<text text-anchor="start" x="435.1105" y="-238.8" font-family="Helvetica,sans-Serif" font-size="11.00" fill="#000000">0 rows</text>
<polygon fill="#ffffff" stroke="transparent" points="470.5,-232.7 470.5,-251.7 560.5,-251.7 560.5,-232.7 470.5,-232.7"/>
<polygon fill="none" stroke="#000000" points="470.5,-232.7 470.5,-251.7 560.5,-251.7 560.5,-232.7 470.5,-232.7"/>
<text text-anchor="start" x="541.9053" y="-238.8" font-family="Helvetica,sans-Serif" font-size="11.00" fill="#000000">0 &gt;</text>
<polygon fill="none" stroke="#000000" stroke-width="2" points="336,-231.7 336,-429.7 561,-429.7 561,-231.7 336,-231.7"/>
</a>
</g>
</g>
<!-- user_chapter_roles&#45;&gt;chapters -->
<g id="edge7" class="edge">
<title>user_chapter_roles:w&#45;&gt;chapters:e</title>
<path fill="none" stroke="#000000" d="M323.0096,-305.5115C299.1227,-301.3519 289.7447,-287.7 259.5,-287.7"/>
<polygon fill="#000000" stroke="#000000" points="329.5268,-306.046 337.2057,-310.288 333.5134,-306.373 337.5,-306.7 337.5,-306.7 337.5,-306.7 333.5134,-306.373 337.7943,-303.112 329.5268,-306.046 329.5268,-306.046"/>
<ellipse fill="none" stroke="#000000" cx="326.3375" cy="-305.7844" rx="3.2" ry="3.2"/>
</g>
<!-- user_chapter_roles&#45;&gt;users -->
<g id="edge8" class="edge">
<title>user_chapter_roles:w&#45;&gt;users:e</title>
<path fill="none" stroke="#000000" d="M323.0219,-329.4154C313.8617,-330.3891 307.4852,-332.0813 294,-332.7 224.2955,-335.8981 203.8406,-352.7318 137,-332.7 116.0999,-326.4363 117.8186,-305.7 96,-305.7"/>
<polygon fill="#000000" stroke="#000000" points="329.5097,-329.0949 337.6777,-332.2956 333.5049,-328.8974 337.5,-328.7 337.5,-328.7 337.5,-328.7 333.5049,-328.8974 337.3223,-325.1044 329.5097,-329.0949 329.5097,-329.0949"/>
<ellipse fill="none" stroke="#000000" cx="326.3136" cy="-329.2528" rx="3.2" ry="3.2"/>
</g>
<!-- user_event_roles -->
<g id="node7" class="node">
<title>user_event_roles</title>
<g id="a_node7"><a xlink:href="../../tables/user_event_roles.html" xlink:title="user_event_roles" target="_top">
<polygon fill="#ffffff" stroke="transparent" points="611,-122.2 611,-183.2 738,-183.2 738,-122.2 611,-122.2"/>
<polygon fill="#f5f5f5" stroke="transparent" points="611.5,-159.7 611.5,-182.7 738.5,-182.7 738.5,-159.7 611.5,-159.7"/>
<polygon fill="none" stroke="#000000" points="611.5,-159.7 611.5,-182.7 738.5,-182.7 738.5,-159.7 611.5,-159.7"/>
<text text-anchor="start" x="616.3222" y="-168.8" font-family="Helvetica,sans-Serif" font-weight="bold" font-size="11.00" fill="#000000">user_event_roles</text>
<text text-anchor="start" x="704.0219" y="-167.8" font-family="Helvetica,sans-Serif" font-size="11.00" fill="#000000">[table]</text>
<polygon fill="none" stroke="#000000" points="611.5,-140.7 611.5,-159.7 738.5,-159.7 738.5,-140.7 611.5,-140.7"/>
<text text-anchor="start" x="614.5" y="-146.8" font-family="Helvetica,sans-Serif" font-size="11.00" fill="#000000">...</text>
<polygon fill="#ffffff" stroke="transparent" points="611.5,-121.7 611.5,-140.7 660.5,-140.7 660.5,-121.7 611.5,-121.7"/>
<polygon fill="none" stroke="#000000" points="611.5,-121.7 611.5,-140.7 660.5,-140.7 660.5,-121.7 611.5,-121.7"/>
<text text-anchor="start" x="614.5" y="-127.8" font-family="Helvetica,sans-Serif" font-size="11.00" fill="#000000">&lt; 2</text>
<polygon fill="#ffffff" stroke="transparent" points="660.5,-121.7 660.5,-140.7 712.5,-140.7 712.5,-121.7 660.5,-121.7"/>
<polygon fill="none" stroke="#000000" points="660.5,-121.7 660.5,-140.7 712.5,-140.7 712.5,-121.7 660.5,-121.7"/>
<text text-anchor="start" x="677.1105" y="-127.8" font-family="Helvetica,sans-Serif" font-size="11.00" fill="#000000">0 rows</text>
<polygon fill="#ffffff" stroke="transparent" points="712.5,-121.7 712.5,-140.7 738.5,-140.7 738.5,-121.7 712.5,-121.7"/>
<polygon fill="none" stroke="#000000" points="712.5,-121.7 712.5,-140.7 738.5,-140.7 738.5,-121.7 712.5,-121.7"/>
<text text-anchor="start" x="729.3862" y="-127.8" font-family="Helvetica,sans-Serif" font-size="11.00" fill="#000000"> &#160;</text>
</a>
</g>
</g>
<!-- user_event_roles&#45;&gt;users -->
<g id="edge10" class="edge">
<title>user_event_roles:w&#45;&gt;users:e</title>
<path fill="none" stroke="#000000" d="M597.1959,-147.4593C588.7087,-144.5292 583.0695,-139.5516 570,-137.7 463.0678,-122.5502 433.366,-118.9842 327,-137.7 238.5188,-153.2689 201.9179,-144.5954 137,-206.7 102.5873,-239.6214 143.624,-305.7 96,-305.7"/>
<polygon fill="#000000" stroke="#000000" points="603.5964,-148.4619 610.9428,-153.2566 607.5482,-149.0809 611.5,-149.7 611.5,-149.7 611.5,-149.7 607.5482,-149.0809 612.0572,-146.1434 603.5964,-148.4619 603.5964,-148.4619"/>
<ellipse fill="none" stroke="#000000" cx="600.4349" cy="-147.9666" rx="3.2" ry="3.2"/>
</g>
<!-- user_event_roles&#45;&gt;events -->
<g id="edge9" class="edge">
<title>user_event_roles:w&#45;&gt;events:e</title>
<path fill="none" stroke="#000000" d="M596.8883,-150.3427C553.1236,-154.3465 539.1364,-175.7 488.5,-175.7"/>
<polygon fill="#000000" stroke="#000000" points="603.5077,-150.0516 611.6582,-153.2965 607.5039,-149.8758 611.5,-149.7 611.5,-149.7 611.5,-149.7 607.5039,-149.8758 611.3418,-146.1035 603.5077,-150.0516 603.5077,-150.0516"/>
<ellipse fill="none" stroke="#000000" cx="600.3108" cy="-150.1922" rx="3.2" ry="3.2"/>
</g>
<!-- user_instance_roles -->
<g id="node8" class="node">
<title>user_instance_roles</title>
<g id="a_node8"><a xlink:href="../../tables/user_instance_roles.html" xlink:title="user_instance_roles" target="_top">
<polygon fill="#ffffff" stroke="transparent" points="145,-38.2 145,-99.2 286,-99.2 286,-38.2 145,-38.2"/>
<polygon fill="#f5f5f5" stroke="transparent" points="145.5,-75.7 145.5,-98.7 286.5,-98.7 286.5,-75.7 145.5,-75.7"/>
<polygon fill="none" stroke="#000000" points="145.5,-75.7 145.5,-98.7 286.5,-98.7 286.5,-75.7 145.5,-75.7"/>
<text text-anchor="start" x="150.2943" y="-84.8" font-family="Helvetica,sans-Serif" font-weight="bold" font-size="11.00" fill="#000000">user_instance_roles</text>
<text text-anchor="start" x="252.0219" y="-83.8" font-family="Helvetica,sans-Serif" font-size="11.00" fill="#000000">[table]</text>
<polygon fill="none" stroke="#000000" points="145.5,-56.7 145.5,-75.7 286.5,-75.7 286.5,-56.7 145.5,-56.7"/>
<text text-anchor="start" x="148.5" y="-62.8" font-family="Helvetica,sans-Serif" font-size="11.00" fill="#000000">...</text>
<polygon fill="#ffffff" stroke="transparent" points="145.5,-37.7 145.5,-56.7 201.5,-56.7 201.5,-37.7 145.5,-37.7"/>
<polygon fill="none" stroke="#000000" points="145.5,-37.7 145.5,-56.7 201.5,-56.7 201.5,-37.7 145.5,-37.7"/>
<text text-anchor="start" x="148.5" y="-43.8" font-family="Helvetica,sans-Serif" font-size="11.00" fill="#000000">&lt; 1</text>
<polygon fill="#ffffff" stroke="transparent" points="201.5,-37.7 201.5,-56.7 256.5,-56.7 256.5,-37.7 201.5,-37.7"/>
<polygon fill="none" stroke="#000000" points="201.5,-37.7 201.5,-56.7 256.5,-56.7 256.5,-37.7 201.5,-37.7"/>
<text text-anchor="start" x="221.1105" y="-43.8" font-family="Helvetica,sans-Serif" font-size="11.00" fill="#000000">0 rows</text>
<polygon fill="#ffffff" stroke="transparent" points="256.5,-37.7 256.5,-56.7 286.5,-56.7 286.5,-37.7 256.5,-37.7"/>
<polygon fill="none" stroke="#000000" points="256.5,-37.7 256.5,-56.7 286.5,-56.7 286.5,-37.7 256.5,-37.7"/>
<text text-anchor="start" x="277.3862" y="-43.8" font-family="Helvetica,sans-Serif" font-size="11.00" fill="#000000"> &#160;</text>
</a>
</g>
</g>
<!-- user_instance_roles&#45;&gt;users -->
<g id="edge11" class="edge">
<title>user_instance_roles:w&#45;&gt;users:e</title>
<path fill="none" stroke="#000000" d="M130.9801,-67.4938C52.9687,-89.4561 199.3811,-305.7 96,-305.7"/>
<polygon fill="#000000" stroke="#000000" points="137.5604,-66.6809 145.9414,-69.2728 141.5302,-66.1905 145.5,-65.7 145.5,-65.7 145.5,-65.7 141.5302,-66.1905 145.0586,-62.1272 137.5604,-66.6809 137.5604,-66.6809"/>
<ellipse fill="none" stroke="#000000" cx="134.3845" cy="-67.0733" rx="3.2" ry="3.2"/>
</g>
</g>
</svg>
