<?xml version="1.0" encoding="UTF-8" standalone="no"?>
<!DOCTYPE svg PUBLIC "-//W3C//DTD SVG 1.1//EN"
 "http://www.w3.org/Graphics/SVG/1.1/DTD/svg11.dtd">
<!-- Generated by graphviz version 2.40.1 (20161225.0304)
 -->
<!-- Title: twoDegreesRelationshipsDiagram Pages: 1 -->
<svg width="926pt" height="684pt"
 viewBox="0.00 0.00 926.00 683.70" xmlns="http://www.w3.org/2000/svg" xmlns:xlink="http://www.w3.org/1999/xlink">
<g id="graph0" class="graph" transform="scale(1 1) rotate(0) translate(4 679.7)">
<title>twoDegreesRelationshipsDiagram</title>
<polygon fill="#ffffff" stroke="transparent" points="-4,4 -4,-679.7 922,-679.7 922,4 -4,4"/>
<text text-anchor="middle" x="72.4936" y="-7.3" font-family="Helvetica,sans-Serif" font-size="11.00" fill="#000000">Generated by SchemaSpy</text>
<!-- chapter_users -->
<g id="node1" class="node">
<title>chapter_users</title>
<g id="a_node1"><a xlink:href="../../tables/chapter_users.html" xlink:title="chapter_users" target="_top">
<polygon fill="#ffffff" stroke="transparent" points="440,-202.2 440,-329.2 562,-329.2 562,-202.2 440,-202.2"/>
<polygon fill="#f5f5f5" stroke="transparent" points="440,-305.7 440,-328.7 562,-328.7 562,-305.7 440,-305.7"/>
<polygon fill="none" stroke="#000000" points="440,-305.7 440,-328.7 562,-328.7 562,-305.7 440,-305.7"/>
<text text-anchor="start" x="445" y="-314.3" font-family="Helvetica,sans-Serif" font-weight="bold" font-size="11.00" fill="#000000">chapter_users</text>
<text text-anchor="start" x="527.5219" y="-313.8" font-family="Helvetica,sans-Serif" font-size="11.00" fill="#000000">[table]</text>
<polygon fill="none" stroke="#000000" points="440,-283.7 440,-305.7 562,-305.7 562,-283.7 440,-283.7"/>
<image xlink:href="../../images/primaryKeys.png" width="11px" height="12px" preserveAspectRatio="xMinYMin meet" x="445" y="-300.7"/>
<text text-anchor="start" x="465" y="-290.8" font-family="Helvetica,sans-Serif" font-size="11.00" fill="#000000">user_id</text>
<polygon fill="none" stroke="#000000" points="440,-261.7 440,-283.7 562,-283.7 562,-261.7 440,-261.7"/>
<image xlink:href="../../images/primaryKeys.png" width="11px" height="12px" preserveAspectRatio="xMinYMin meet" x="445" y="-278.7"/>
<text text-anchor="start" x="465" y="-268.8" font-family="Helvetica,sans-Serif" font-size="11.00" fill="#000000">chapter_id</text>
<polygon fill="none" stroke="#000000" points="440,-239.7 440,-261.7 562,-261.7 562,-239.7 440,-239.7"/>
<image xlink:href="../../images/foreignKeys.png" width="11px" height="12px" preserveAspectRatio="xMinYMin meet" x="445" y="-256.7"/>
<text text-anchor="start" x="465" y="-246.8" font-family="Helvetica,sans-Serif" font-size="11.00" fill="#000000">chapter_role_id</text>
<polygon fill="none" stroke="#000000" points="440,-220.7 440,-239.7 562,-239.7 562,-220.7 440,-220.7"/>
<text text-anchor="start" x="443" y="-226.8" font-family="Helvetica,sans-Serif" font-size="11.00" fill="#000000">...</text>
<polygon fill="#ffffff" stroke="transparent" points="440,-201.7 440,-220.7 486,-220.7 486,-201.7 440,-201.7"/>
<polygon fill="none" stroke="#000000" points="440,-201.7 440,-220.7 486,-220.7 486,-201.7 440,-201.7"/>
<text text-anchor="start" x="443" y="-207.8" font-family="Helvetica,sans-Serif" font-size="11.00" fill="#000000">&lt; 3</text>
<polygon fill="#ffffff" stroke="transparent" points="486,-201.7 486,-220.7 537,-220.7 537,-201.7 486,-201.7"/>
<polygon fill="none" stroke="#000000" points="486,-201.7 486,-220.7 537,-220.7 537,-201.7 486,-201.7"/>
<text text-anchor="start" x="501.6105" y="-207.8" font-family="Helvetica,sans-Serif" font-size="11.00" fill="#000000">0 rows</text>
<polygon fill="#ffffff" stroke="transparent" points="537,-201.7 537,-220.7 562,-220.7 562,-201.7 537,-201.7"/>
<polygon fill="none" stroke="#000000" points="537,-201.7 537,-220.7 562,-220.7 562,-201.7 537,-201.7"/>
<text text-anchor="start" x="552.8862" y="-207.8" font-family="Helvetica,sans-Serif" font-size="11.00" fill="#000000"> &#160;</text>
</a>
</g>
</g>
<!-- chapters -->
<g id="node2" class="node">
<title>chapters</title>
<g id="a_node2"><a xlink:href="../../tables/chapters.html" xlink:title="chapters" target="_top">
<polygon fill="#ffffff" stroke="transparent" points="240.5,-343.2 240.5,-404.2 331.5,-404.2 331.5,-343.2 240.5,-343.2"/>
<polygon fill="#f5f5f5" stroke="transparent" points="241,-380.7 241,-403.7 332,-403.7 332,-380.7 241,-380.7"/>
<polygon fill="none" stroke="#000000" points="241,-380.7 241,-403.7 332,-403.7 332,-380.7 241,-380.7"/>
<text text-anchor="start" x="246" y="-389.3" font-family="Helvetica,sans-Serif" font-weight="bold" font-size="11.00" fill="#000000">chapters</text>
<text text-anchor="start" x="297.5219" y="-388.8" font-family="Helvetica,sans-Serif" font-size="11.00" fill="#000000">[table]</text>
<polygon fill="none" stroke="#000000" points="241,-361.7 241,-380.7 332,-380.7 332,-361.7 241,-361.7"/>
<text text-anchor="start" x="244" y="-367.8" font-family="Helvetica,sans-Serif" font-size="11.00" fill="#000000">...</text>
<polygon fill="#ffffff" stroke="transparent" points="241,-342.7 241,-361.7 263,-361.7 263,-342.7 241,-342.7"/>
<polygon fill="none" stroke="#000000" points="241,-342.7 241,-361.7 263,-361.7 263,-342.7 241,-342.7"/>
<text text-anchor="start" x="244" y="-348.8" font-family="Helvetica,sans-Serif" font-size="11.00" fill="#000000"> &#160;</text>
<polygon fill="#ffffff" stroke="transparent" points="263,-342.7 263,-361.7 306,-361.7 306,-342.7 263,-342.7"/>
<polygon fill="none" stroke="#000000" points="263,-342.7 263,-361.7 306,-361.7 306,-342.7 263,-342.7"/>
<text text-anchor="start" x="270.6105" y="-348.8" font-family="Helvetica,sans-Serif" font-size="11.00" fill="#000000">0 rows</text>
<polygon fill="#ffffff" stroke="transparent" points="306,-342.7 306,-361.7 332,-361.7 332,-342.7 306,-342.7"/>
<polygon fill="none" stroke="#000000" points="306,-342.7 306,-361.7 332,-361.7 332,-342.7 306,-342.7"/>
<text text-anchor="start" x="313.4053" y="-348.8" font-family="Helvetica,sans-Serif" font-size="11.00" fill="#000000">4 &gt;</text>
</a>
</g>
</g>
<!-- chapter_users&#45;&gt;chapters -->
<g id="edge1" class="edge">
<title>chapter_users:w&#45;&gt;chapters:e</title>
<path fill="none" stroke="#000000" d="M425.8539,-276.6589C412.1069,-286.9759 418.1288,-315.1058 399,-332.7 373.8035,-355.8751 366.2338,-370.7 332,-370.7"/>
<polygon fill="#000000" stroke="#000000" points="432.296,-274.8561 440.9702,-276.1668 436.148,-273.778 440,-272.7 440,-272.7 440,-272.7 436.148,-273.778 439.0298,-269.2332 432.296,-274.8561 432.296,-274.8561"/>
<ellipse fill="none" stroke="#000000" cx="429.2144" cy="-275.7185" rx="3.2" ry="3.2"/>
</g>
<!-- chapter_roles -->
<g id="node3" class="node">
<title>chapter_roles</title>
<g id="a_node3"><a xlink:href="../../tables/chapter_roles.html" xlink:title="chapter_roles" target="_top">
<polygon fill="#ffffff" stroke="transparent" points="226,-179.2 226,-240.2 346,-240.2 346,-179.2 226,-179.2"/>
<polygon fill="#f5f5f5" stroke="transparent" points="226,-216.7 226,-239.7 346,-239.7 346,-216.7 226,-216.7"/>
<polygon fill="none" stroke="#000000" points="226,-216.7 226,-239.7 346,-239.7 346,-216.7 226,-216.7"/>
<text text-anchor="start" x="231" y="-225.3" font-family="Helvetica,sans-Serif" font-weight="bold" font-size="11.00" fill="#000000">chapter_roles</text>
<text text-anchor="start" x="311.5219" y="-224.8" font-family="Helvetica,sans-Serif" font-size="11.00" fill="#000000">[table]</text>
<polygon fill="none" stroke="#000000" points="226,-197.7 226,-216.7 346,-216.7 346,-197.7 226,-197.7"/>
<text text-anchor="start" x="229" y="-203.8" font-family="Helvetica,sans-Serif" font-size="11.00" fill="#000000">...</text>
<polygon fill="#ffffff" stroke="transparent" points="226,-178.7 226,-197.7 262,-197.7 262,-178.7 226,-178.7"/>
<polygon fill="none" stroke="#000000" points="226,-178.7 226,-197.7 262,-197.7 262,-178.7 226,-178.7"/>
<text text-anchor="start" x="229" y="-184.8" font-family="Helvetica,sans-Serif" font-size="11.00" fill="#000000"> &#160;</text>
<polygon fill="#ffffff" stroke="transparent" points="262,-178.7 262,-197.7 312,-197.7 312,-178.7 262,-178.7"/>
<polygon fill="none" stroke="#000000" points="262,-178.7 262,-197.7 312,-197.7 312,-178.7 262,-178.7"/>
<text text-anchor="start" x="276.6105" y="-184.8" font-family="Helvetica,sans-Serif" font-size="11.00" fill="#000000">0 rows</text>
<polygon fill="#ffffff" stroke="transparent" points="312,-178.7 312,-197.7 346,-197.7 346,-178.7 312,-178.7"/>
<polygon fill="none" stroke="#000000" points="312,-178.7 312,-197.7 346,-197.7 346,-178.7 312,-178.7"/>
<text text-anchor="start" x="327.4053" y="-184.8" font-family="Helvetica,sans-Serif" font-size="11.00" fill="#000000">2 &gt;</text>
</a>
</g>
</g>
<!-- chapter_users&#45;&gt;chapter_roles -->
<g id="edge2" class="edge">
<title>chapter_users:w&#45;&gt;chapter_roles:e</title>
<path fill="none" stroke="#000000" d="M425.4688,-249.0289C392.8537,-240.9917 386.7225,-206.7 346,-206.7"/>
<polygon fill="#000000" stroke="#000000" points="432.0524,-249.786 439.5887,-254.2764 436.0262,-250.243 440,-250.7 440,-250.7 440,-250.7 436.0262,-250.243 440.4113,-247.1236 432.0524,-249.786 432.0524,-249.786"/>
<ellipse fill="none" stroke="#000000" cx="428.8733" cy="-249.4203" rx="3.2" ry="3.2"/>
</g>
<!-- users -->
<g id="node4" class="node">
<title>users</title>
<g id="a_node4"><a xlink:href="../../tables/users.html" xlink:title="users" target="_top">
<polygon fill="#ffffff" stroke="transparent" points="181,-425.7 181,-647.7 391,-647.7 391,-425.7 181,-425.7"/>
<polygon fill="#f5f5f5" stroke="transparent" points="183,-622.7 183,-645.7 389,-645.7 389,-622.7 183,-622.7"/>
<polygon fill="none" stroke="#000000" points="183,-622.7 183,-645.7 389,-645.7 389,-622.7 183,-622.7"/>
<text text-anchor="start" x="188" y="-631.3" font-family="Helvetica,sans-Serif" font-weight="bold" font-size="11.00" fill="#000000">users</text>
<text text-anchor="start" x="354.0437" y="-630.8" font-family="Helvetica,sans-Serif" font-size="11.00" fill="#000000">[table]</text>
<polygon fill="none" stroke="#000000" points="183,-600.7 183,-622.7 299,-622.7 299,-600.7 183,-600.7"/>
<text text-anchor="start" x="203" y="-607.8" font-family="Helvetica,sans-Serif" font-size="11.00" fill="#000000">created_at</text>
<polygon fill="none" stroke="#000000" points="299,-600.7 299,-622.7 389,-622.7 389,-600.7 299,-600.7"/>
<text text-anchor="start" x="302" y="-608.4" font-family="Helvetica,sans-Serif" font-size="11.00" fill="#000000">timestamp[26,3]</text>
<polygon fill="none" stroke="#000000" points="183,-578.7 183,-600.7 299,-600.7 299,-578.7 183,-578.7"/>
<text text-anchor="start" x="203" y="-585.8" font-family="Helvetica,sans-Serif" font-size="11.00" fill="#000000">updated_at</text>
<polygon fill="none" stroke="#000000" points="299,-578.7 299,-600.7 389,-600.7 389,-578.7 299,-578.7"/>
<text text-anchor="start" x="302" y="-586.4" font-family="Helvetica,sans-Serif" font-size="11.00" fill="#000000">timestamp[26,3]</text>
<polygon fill="none" stroke="#000000" points="183,-556.7 183,-578.7 299,-578.7 299,-556.7 183,-556.7"/>
<image xlink:href="../../images/primaryKeys.png" width="11px" height="12px" preserveAspectRatio="xMinYMin meet" x="188" y="-573.7"/>
<text text-anchor="start" x="203" y="-563.8" font-family="Helvetica,sans-Serif" font-size="11.00" fill="#000000">id</text>
<polygon fill="none" stroke="#000000" points="299,-556.7 299,-578.7 389,-578.7 389,-556.7 299,-556.7"/>
<text text-anchor="start" x="302" y="-564.4" font-family="Helvetica,sans-Serif" font-size="11.00" fill="#000000">serial[10]</text>
<polygon fill="none" stroke="#000000" points="183,-534.7 183,-556.7 299,-556.7 299,-534.7 183,-534.7"/>
<text text-anchor="start" x="203" y="-541.8" font-family="Helvetica,sans-Serif" font-size="11.00" fill="#000000">name</text>
<polygon fill="none" stroke="#000000" points="299,-534.7 299,-556.7 389,-556.7 389,-534.7 299,-534.7"/>
<text text-anchor="start" x="301.5043" y="-542.4" font-family="Helvetica,sans-Serif" font-size="11.00" fill="#000000">text[2147483647]</text>
<polygon fill="#ffffff" stroke="transparent" points="183,-512.7 183,-534.7 299,-534.7 299,-512.7 183,-512.7"/>
<polygon fill="none" stroke="#000000" points="183,-512.7 183,-534.7 299,-534.7 299,-512.7 183,-512.7"/>
<text text-anchor="start" x="203" y="-519.8" font-family="Helvetica,sans-Serif" font-size="11.00" fill="#000000">email</text>
<polygon fill="none" stroke="#000000" points="299,-512.7 299,-534.7 389,-534.7 389,-512.7 299,-512.7"/>
<text text-anchor="start" x="301.5043" y="-520.4" font-family="Helvetica,sans-Serif" font-size="11.00" fill="#000000">text[2147483647]</text>
<polygon fill="none" stroke="#000000" points="183,-490.7 183,-512.7 299,-512.7 299,-490.7 183,-490.7"/>
<image xlink:href="../../images/foreignKeys.png" width="11px" height="12px" preserveAspectRatio="xMinYMin meet" x="188" y="-507.7"/>
<text text-anchor="start" x="203" y="-497.8" font-family="Helvetica,sans-Serif" font-size="11.00" fill="#000000">instance_role_id</text>
<polygon fill="none" stroke="#000000" points="299,-490.7 299,-512.7 389,-512.7 389,-490.7 299,-490.7"/>
<text text-anchor="start" x="302" y="-498.4" font-family="Helvetica,sans-Serif" font-size="11.00" fill="#000000">int4[10]</text>
<polygon fill="none" stroke="#000000" points="183,-468.7 183,-490.7 299,-490.7 299,-468.7 183,-468.7"/>
<text text-anchor="start" x="203" y="-475.8" font-family="Helvetica,sans-Serif" font-size="11.00" fill="#000000">image_url</text>
<polygon fill="none" stroke="#000000" points="299,-468.7 299,-490.7 389,-490.7 389,-468.7 299,-468.7"/>
<text text-anchor="start" x="301.5043" y="-476.4" font-family="Helvetica,sans-Serif" font-size="11.00" fill="#000000">text[2147483647]</text>
<polygon fill="none" stroke="#000000" points="183,-446.7 183,-468.7 299,-468.7 299,-446.7 183,-446.7"/>
<text text-anchor="start" x="203" y="-453.8" font-family="Helvetica,sans-Serif" font-size="11.00" fill="#000000">auto_subscribe</text>
<polygon fill="none" stroke="#000000" points="299,-446.7 299,-468.7 389,-468.7 389,-446.7 299,-446.7"/>
<text text-anchor="start" x="302" y="-454.4" font-family="Helvetica,sans-Serif" font-size="11.00" fill="#000000">bool[1]</text>
<polygon fill="#ffffff" stroke="transparent" points="183,-427.7 183,-446.7 232,-446.7 232,-427.7 183,-427.7"/>
<polygon fill="none" stroke="#000000" points="183,-427.7 183,-446.7 232,-446.7 232,-427.7 183,-427.7"/>
<text text-anchor="start" x="186" y="-433.8" font-family="Helvetica,sans-Serif" font-size="11.00" fill="#000000">&lt; 1</text>
<polygon fill="#ffffff" stroke="transparent" points="232,-427.7 232,-446.7 299,-446.7 299,-427.7 232,-427.7"/>
<polygon fill="none" stroke="#000000" points="232,-427.7 232,-446.7 299,-446.7 299,-427.7 232,-427.7"/>
<text text-anchor="start" x="263.6105" y="-433.8" font-family="Helvetica,sans-Serif" font-size="11.00" fill="#000000">0 rows</text>
<polygon fill="#ffffff" stroke="transparent" points="299,-427.7 299,-446.7 389,-446.7 389,-427.7 299,-427.7"/>
<polygon fill="none" stroke="#000000" points="299,-427.7 299,-446.7 389,-446.7 389,-427.7 299,-427.7"/>
<text text-anchor="start" x="370.4053" y="-433.8" font-family="Helvetica,sans-Serif" font-size="11.00" fill="#000000">4 &gt;</text>
<polygon fill="none" stroke="#000000" stroke-width="2" points="182,-426.7 182,-646.7 390,-646.7 390,-426.7 182,-426.7"/>
</a>
</g>
</g>
<!-- chapter_users&#45;&gt;users -->
<g id="edge3" class="edge">
<title>chapter_users:w&#45;&gt;users:e</title>
<path fill="none" stroke="#000000" d="M426.6538,-300.6559C389.9798,-340.5794 445.2919,-567.7 389,-567.7"/>
<polygon fill="#000000" stroke="#000000" points="432.6944,-297.9602 441.4671,-297.9875 436.3472,-296.3301 440,-294.7 440,-294.7 440,-294.7 436.3472,-296.3301 438.5329,-291.4125 432.6944,-297.9602 432.6944,-297.9602"/>
<ellipse fill="none" stroke="#000000" cx="429.7722" cy="-299.2643" rx="3.2" ry="3.2"/>
</g>
<!-- instance_roles -->
<g id="node11" class="node">
<title>instance_roles</title>
<g id="a_node11"><a xlink:href="../../tables/instance_roles.html" xlink:title="instance_roles" target="_top">
<polygon fill="#ffffff" stroke="transparent" points="8,-324.2 8,-429.2 132,-429.2 132,-324.2 8,-324.2"/>
<polygon fill="#f5f5f5" stroke="transparent" points="8,-405.7 8,-428.7 132,-428.7 132,-405.7 8,-405.7"/>
<polygon fill="none" stroke="#000000" points="8,-405.7 8,-428.7 132,-428.7 132,-405.7 8,-405.7"/>
<text text-anchor="start" x="13" y="-414.3" font-family="Helvetica,sans-Serif" font-weight="bold" font-size="11.00" fill="#000000">instance_roles</text>
<text text-anchor="start" x="97.5219" y="-413.8" font-family="Helvetica,sans-Serif" font-size="11.00" fill="#000000">[table]</text>
<polygon fill="none" stroke="#000000" points="8,-383.7 8,-405.7 132,-405.7 132,-383.7 8,-383.7"/>
<image xlink:href="../../images/primaryKeys.png" width="11px" height="12px" preserveAspectRatio="xMinYMin meet" x="13" y="-400.7"/>
<text text-anchor="start" x="37" y="-390.8" font-family="Helvetica,sans-Serif" font-size="11.00" fill="#000000">id</text>
<polygon fill="#ffffff" stroke="transparent" points="8,-361.7 8,-383.7 132,-383.7 132,-361.7 8,-361.7"/>
<polygon fill="none" stroke="#000000" points="8,-361.7 8,-383.7 132,-383.7 132,-361.7 8,-361.7"/>
<text text-anchor="start" x="37" y="-368.8" font-family="Helvetica,sans-Serif" font-size="11.00" fill="#000000">name</text>
<polygon fill="none" stroke="#000000" points="8,-342.7 8,-361.7 132,-361.7 132,-342.7 8,-342.7"/>
<text text-anchor="start" x="11" y="-348.8" font-family="Helvetica,sans-Serif" font-size="11.00" fill="#000000">...</text>
<polygon fill="#ffffff" stroke="transparent" points="8,-323.7 8,-342.7 46,-342.7 46,-323.7 8,-323.7"/>
<polygon fill="none" stroke="#000000" points="8,-323.7 8,-342.7 46,-342.7 46,-323.7 8,-323.7"/>
<text text-anchor="start" x="11" y="-329.8" font-family="Helvetica,sans-Serif" font-size="11.00" fill="#000000"> &#160;</text>
<polygon fill="#ffffff" stroke="transparent" points="46,-323.7 46,-342.7 97,-342.7 97,-323.7 46,-323.7"/>
<polygon fill="none" stroke="#000000" points="46,-323.7 46,-342.7 97,-342.7 97,-323.7 46,-323.7"/>
<text text-anchor="start" x="61.6105" y="-329.8" font-family="Helvetica,sans-Serif" font-size="11.00" fill="#000000">0 rows</text>
<polygon fill="#ffffff" stroke="transparent" points="97,-323.7 97,-342.7 132,-342.7 132,-323.7 97,-323.7"/>
<polygon fill="none" stroke="#000000" points="97,-323.7 97,-342.7 132,-342.7 132,-323.7 97,-323.7"/>
<text text-anchor="start" x="113.4053" y="-329.8" font-family="Helvetica,sans-Serif" font-size="11.00" fill="#000000">2 &gt;</text>
</a>
</g>
</g>
<!-- users&#45;&gt;instance_roles -->
<g id="edge15" class="edge">
<title>users:w&#45;&gt;instance_roles:e</title>
<path fill="none" stroke="#000000" d="M168.9064,-497.8918C141.2616,-478.8309 178.7134,-394.7 132,-394.7"/>
<polygon fill="#000000" stroke="#000000" points="175.277,-499.6131 182.0609,-505.1754 179.1385,-500.6566 183,-501.7 183,-501.7 183,-501.7 179.1385,-500.6566 183.9391,-498.2246 175.277,-499.6131 175.277,-499.6131"/>
<ellipse fill="none" stroke="#000000" cx="172.1878" cy="-498.7784" rx="3.2" ry="3.2"/>
</g>
<!-- event_reminders -->
<g id="node5" class="node">
<title>event_reminders</title>
<g id="a_node5"><a xlink:href="../../tables/event_reminders.html" xlink:title="event_reminders" target="_top">
<polygon fill="#ffffff" stroke="transparent" points="770,-257.2 770,-318.2 910,-318.2 910,-257.2 770,-257.2"/>
<polygon fill="#f5f5f5" stroke="transparent" points="770,-294.7 770,-317.7 910,-317.7 910,-294.7 770,-294.7"/>
<polygon fill="none" stroke="#000000" points="770,-294.7 770,-317.7 910,-317.7 910,-294.7 770,-294.7"/>
<text text-anchor="start" x="775" y="-303.3" font-family="Helvetica,sans-Serif" font-weight="bold" font-size="11.00" fill="#000000">event_reminders</text>
<text text-anchor="start" x="875.5219" y="-302.8" font-family="Helvetica,sans-Serif" font-size="11.00" fill="#000000">[table]</text>
<polygon fill="none" stroke="#000000" points="770,-275.7 770,-294.7 910,-294.7 910,-275.7 770,-275.7"/>
<text text-anchor="start" x="773" y="-281.8" font-family="Helvetica,sans-Serif" font-size="11.00" fill="#000000">...</text>
<polygon fill="#ffffff" stroke="transparent" points="770,-256.7 770,-275.7 825,-275.7 825,-256.7 770,-256.7"/>
<polygon fill="none" stroke="#000000" points="770,-256.7 770,-275.7 825,-275.7 825,-256.7 770,-256.7"/>
<text text-anchor="start" x="773" y="-262.8" font-family="Helvetica,sans-Serif" font-size="11.00" fill="#000000">&lt; 2</text>
<polygon fill="#ffffff" stroke="transparent" points="825,-256.7 825,-275.7 880,-275.7 880,-256.7 825,-256.7"/>
<polygon fill="none" stroke="#000000" points="825,-256.7 825,-275.7 880,-275.7 880,-256.7 825,-256.7"/>
<text text-anchor="start" x="844.6105" y="-262.8" font-family="Helvetica,sans-Serif" font-size="11.00" fill="#000000">0 rows</text>
<polygon fill="#ffffff" stroke="transparent" points="880,-256.7 880,-275.7 910,-275.7 910,-256.7 880,-256.7"/>
<polygon fill="none" stroke="#000000" points="880,-256.7 880,-275.7 910,-275.7 910,-256.7 880,-256.7"/>
<text text-anchor="start" x="900.8862" y="-262.8" font-family="Helvetica,sans-Serif" font-size="11.00" fill="#000000"> &#160;</text>
</a>
</g>
</g>
<!-- event_users -->
<g id="node6" class="node">
<title>event_users</title>
<g id="a_node6"><a xlink:href="../../tables/event_users.html" xlink:title="event_users" target="_top">
<polygon fill="#ffffff" stroke="transparent" points="611,-181.2 611,-330.2 721,-330.2 721,-181.2 611,-181.2"/>
<polygon fill="#f5f5f5" stroke="transparent" points="611,-306.7 611,-329.7 721,-329.7 721,-306.7 611,-306.7"/>
<polygon fill="none" stroke="#000000" points="611,-306.7 611,-329.7 721,-329.7 721,-306.7 611,-306.7"/>
<text text-anchor="start" x="616" y="-315.3" font-family="Helvetica,sans-Serif" font-weight="bold" font-size="11.00" fill="#000000">event_users</text>
<text text-anchor="start" x="686.5219" y="-314.8" font-family="Helvetica,sans-Serif" font-size="11.00" fill="#000000">[table]</text>
<polygon fill="none" stroke="#000000" points="611,-284.7 611,-306.7 721,-306.7 721,-284.7 611,-284.7"/>
<image xlink:href="../../images/primaryKeys.png" width="11px" height="12px" preserveAspectRatio="xMinYMin meet" x="616" y="-301.7"/>
<text text-anchor="start" x="634" y="-291.8" font-family="Helvetica,sans-Serif" font-size="11.00" fill="#000000">user_id</text>
<polygon fill="none" stroke="#000000" points="611,-262.7 611,-284.7 721,-284.7 721,-262.7 611,-262.7"/>
<image xlink:href="../../images/primaryKeys.png" width="11px" height="12px" preserveAspectRatio="xMinYMin meet" x="616" y="-279.7"/>
<text text-anchor="start" x="634" y="-269.8" font-family="Helvetica,sans-Serif" font-size="11.00" fill="#000000">event_id</text>
<polygon fill="none" stroke="#000000" points="611,-240.7 611,-262.7 721,-262.7 721,-240.7 611,-240.7"/>
<image xlink:href="../../images/foreignKeys.png" width="11px" height="12px" preserveAspectRatio="xMinYMin meet" x="616" y="-257.7"/>
<text text-anchor="start" x="634" y="-247.8" font-family="Helvetica,sans-Serif" font-size="11.00" fill="#000000">event_role_id</text>
<polygon fill="none" stroke="#000000" points="611,-218.7 611,-240.7 721,-240.7 721,-218.7 611,-218.7"/>
<image xlink:href="../../images/foreignKeys.png" width="11px" height="12px" preserveAspectRatio="xMinYMin meet" x="616" y="-235.7"/>
<text text-anchor="start" x="634" y="-225.8" font-family="Helvetica,sans-Serif" font-size="11.00" fill="#000000">attendance_id</text>
<polygon fill="none" stroke="#000000" points="611,-199.7 611,-218.7 721,-218.7 721,-199.7 611,-199.7"/>
<text text-anchor="start" x="614" y="-205.8" font-family="Helvetica,sans-Serif" font-size="11.00" fill="#000000">...</text>
<polygon fill="#ffffff" stroke="transparent" points="611,-180.7 611,-199.7 647,-199.7 647,-180.7 611,-180.7"/>
<polygon fill="none" stroke="#000000" points="611,-180.7 611,-199.7 647,-199.7 647,-180.7 611,-180.7"/>
<text text-anchor="start" x="614" y="-186.8" font-family="Helvetica,sans-Serif" font-size="11.00" fill="#000000">&lt; 4</text>
<polygon fill="#ffffff" stroke="transparent" points="647,-180.7 647,-199.7 692,-199.7 692,-180.7 647,-180.7"/>
<polygon fill="none" stroke="#000000" points="647,-180.7 647,-199.7 692,-199.7 692,-180.7 647,-180.7"/>
<text text-anchor="start" x="656.6105" y="-186.8" font-family="Helvetica,sans-Serif" font-size="11.00" fill="#000000">0 rows</text>
<polygon fill="#ffffff" stroke="transparent" points="692,-180.7 692,-199.7 721,-199.7 721,-180.7 692,-180.7"/>
<polygon fill="none" stroke="#000000" points="692,-180.7 692,-199.7 721,-199.7 721,-180.7 692,-180.7"/>
<text text-anchor="start" x="702.4053" y="-186.8" font-family="Helvetica,sans-Serif" font-size="11.00" fill="#000000">2 &gt;</text>
</a>
</g>
</g>
<!-- event_reminders&#45;&gt;event_users -->
<g id="edge4" class="edge">
<title>event_reminders:w&#45;&gt;event_users:e</title>
<path fill="none" stroke="#000000" d="M755.7027,-282.8836C744.2382,-279.7593 737.5655,-273.7 721,-273.7"/>
<polygon fill="#000000" stroke="#000000" points="762.0638,-283.6917 769.5463,-288.2713 766.0319,-284.1958 770,-284.7 770,-284.7 770,-284.7 766.0319,-284.1958 770.4537,-281.1287 762.0638,-283.6917 762.0638,-283.6917"/>
<ellipse fill="none" stroke="#000000" cx="758.8893" cy="-283.2884" rx="3.2" ry="3.2"/>
</g>
<!-- event_reminders&#45;&gt;event_users -->
<g id="edge5" class="edge">
<title>event_reminders:w&#45;&gt;event_users:e</title>
<path fill="none" stroke="#000000" d="M755.7027,-286.5164C744.2382,-289.6407 737.5655,-295.7 721,-295.7"/>
<polygon fill="#000000" stroke="#000000" points="762.0638,-285.7083 770.4537,-288.2713 766.0319,-285.2042 770,-284.7 770,-284.7 770,-284.7 766.0319,-285.2042 769.5463,-281.1287 762.0638,-285.7083 762.0638,-285.7083"/>
<ellipse fill="none" stroke="#000000" cx="758.8893" cy="-286.1116" rx="3.2" ry="3.2"/>
</g>
<!-- event_users&#45;&gt;users -->
<g id="edge9" class="edge">
<title>event_users:w&#45;&gt;users:e</title>
<path fill="none" stroke="#000000" d="M597.4312,-301.4315C564.4363,-335.6284 607.1162,-512.4383 570,-547.7 540.6619,-575.5722 429.467,-567.7 389,-567.7"/>
<polygon fill="#000000" stroke="#000000" points="603.6305,-298.813 612.4008,-299.0163 607.3152,-297.2565 611,-295.7 611,-295.7 611,-295.7 607.3152,-297.2565 609.5992,-292.3837 603.6305,-298.813 603.6305,-298.813"/>
<ellipse fill="none" stroke="#000000" cx="600.6827" cy="-300.0582" rx="3.2" ry="3.2"/>
</g>
<!-- attendance -->
<g id="node7" class="node">
<title>attendance</title>
<g id="a_node7"><a xlink:href="../../tables/attendance.html" xlink:title="attendance" target="_top">
<polygon fill="#ffffff" stroke="transparent" points="447.5,-38.2 447.5,-99.2 554.5,-99.2 554.5,-38.2 447.5,-38.2"/>
<polygon fill="#f5f5f5" stroke="transparent" points="448,-75.7 448,-98.7 555,-98.7 555,-75.7 448,-75.7"/>
<polygon fill="none" stroke="#000000" points="448,-75.7 448,-98.7 555,-98.7 555,-75.7 448,-75.7"/>
<text text-anchor="start" x="453" y="-84.3" font-family="Helvetica,sans-Serif" font-weight="bold" font-size="11.00" fill="#000000">attendance</text>
<text text-anchor="start" x="520.5219" y="-83.8" font-family="Helvetica,sans-Serif" font-size="11.00" fill="#000000">[table]</text>
<polygon fill="none" stroke="#000000" points="448,-56.7 448,-75.7 555,-75.7 555,-56.7 448,-56.7"/>
<text text-anchor="start" x="451" y="-62.8" font-family="Helvetica,sans-Serif" font-size="11.00" fill="#000000">...</text>
<polygon fill="#ffffff" stroke="transparent" points="448,-37.7 448,-56.7 478,-56.7 478,-37.7 448,-37.7"/>
<polygon fill="none" stroke="#000000" points="448,-37.7 448,-56.7 478,-56.7 478,-37.7 448,-37.7"/>
<text text-anchor="start" x="451" y="-43.8" font-family="Helvetica,sans-Serif" font-size="11.00" fill="#000000"> &#160;</text>
<polygon fill="#ffffff" stroke="transparent" points="478,-37.7 478,-56.7 525,-56.7 525,-37.7 478,-37.7"/>
<polygon fill="none" stroke="#000000" points="478,-37.7 478,-56.7 525,-56.7 525,-37.7 478,-37.7"/>
<text text-anchor="start" x="489.6105" y="-43.8" font-family="Helvetica,sans-Serif" font-size="11.00" fill="#000000">0 rows</text>
<polygon fill="#ffffff" stroke="transparent" points="525,-37.7 525,-56.7 555,-56.7 555,-37.7 525,-37.7"/>
<polygon fill="none" stroke="#000000" points="525,-37.7 525,-56.7 555,-56.7 555,-37.7 525,-37.7"/>
<text text-anchor="start" x="536.4053" y="-43.8" font-family="Helvetica,sans-Serif" font-size="11.00" fill="#000000">1 &gt;</text>
</a>
</g>
</g>
<!-- event_users&#45;&gt;attendance -->
<g id="edge6" class="edge">
<title>event_users:w&#45;&gt;attendance:e</title>
<path fill="none" stroke="#000000" d="M596.6006,-227.124C547.5677,-206.2596 626.3047,-65.7 555,-65.7"/>
<polygon fill="#000000" stroke="#000000" points="603.125,-228.2911 610.366,-233.2437 607.0625,-228.9956 611,-229.7 611,-229.7 611,-229.7 607.0625,-228.9956 611.634,-226.1563 603.125,-228.2911 603.125,-228.2911"/>
<ellipse fill="none" stroke="#000000" cx="599.975" cy="-227.7276" rx="3.2" ry="3.2"/>
</g>
<!-- events -->
<g id="node8" class="node">
<title>events</title>
<g id="a_node8"><a xlink:href="../../tables/events.html" xlink:title="events" target="_top">
<polygon fill="#ffffff" stroke="transparent" points="461,-350.2 461,-411.2 541,-411.2 541,-350.2 461,-350.2"/>
<polygon fill="#f5f5f5" stroke="transparent" points="461,-387.7 461,-410.7 541,-410.7 541,-387.7 461,-387.7"/>
<polygon fill="none" stroke="#000000" points="461,-387.7 461,-410.7 541,-410.7 541,-387.7 461,-387.7"/>
<text text-anchor="start" x="466" y="-396.3" font-family="Helvetica,sans-Serif" font-weight="bold" font-size="11.00" fill="#000000">events</text>
<text text-anchor="start" x="506.5219" y="-395.8" font-family="Helvetica,sans-Serif" font-size="11.00" fill="#000000">[table]</text>
<polygon fill="none" stroke="#000000" points="461,-368.7 461,-387.7 541,-387.7 541,-368.7 461,-368.7"/>
<text text-anchor="start" x="464" y="-374.8" font-family="Helvetica,sans-Serif" font-size="11.00" fill="#000000">...</text>
<polygon fill="#ffffff" stroke="transparent" points="461,-349.7 461,-368.7 482,-368.7 482,-349.7 461,-349.7"/>
<polygon fill="none" stroke="#000000" points="461,-349.7 461,-368.7 482,-368.7 482,-349.7 461,-349.7"/>
<text text-anchor="start" x="463.7027" y="-355.8" font-family="Helvetica,sans-Serif" font-size="11.00" fill="#000000">&lt; 2</text>
<polygon fill="#ffffff" stroke="transparent" points="482,-349.7 482,-368.7 520,-368.7 520,-349.7 482,-349.7"/>
<polygon fill="none" stroke="#000000" points="482,-349.7 482,-368.7 520,-368.7 520,-349.7 482,-349.7"/>
<text text-anchor="start" x="484.8053" y="-355.8" font-family="Helvetica,sans-Serif" font-size="11.00" fill="#000000">0 rows</text>
<polygon fill="#ffffff" stroke="transparent" points="520,-349.7 520,-368.7 541,-368.7 541,-349.7 520,-349.7"/>
<polygon fill="none" stroke="#000000" points="520,-349.7 520,-368.7 541,-368.7 541,-349.7 520,-349.7"/>
<text text-anchor="start" x="522.7026" y="-355.8" font-family="Helvetica,sans-Serif" font-size="11.00" fill="#000000">3 &gt;</text>
</a>
</g>
</g>
<!-- event_users&#45;&gt;events -->
<g id="edge7" class="edge">
<title>event_users:w&#45;&gt;events:e</title>
<path fill="none" stroke="#000000" d="M596.8265,-276.7004C562.6971,-293.7522 591.0583,-377.7 541,-377.7"/>
<polygon fill="#000000" stroke="#000000" points="603.1734,-275.3568 611.7456,-277.222 607.0867,-274.5284 611,-273.7 611,-273.7 611,-273.7 607.0867,-274.5284 610.2544,-270.178 603.1734,-275.3568 603.1734,-275.3568"/>
<ellipse fill="none" stroke="#000000" cx="600.0428" cy="-276.0196" rx="3.2" ry="3.2"/>
</g>
<!-- event_roles -->
<g id="node9" class="node">
<title>event_roles</title>
<g id="a_node9"><a xlink:href="../../tables/event_roles.html" xlink:title="event_roles" target="_top">
<polygon fill="#ffffff" stroke="transparent" points="447.5,-120.2 447.5,-181.2 554.5,-181.2 554.5,-120.2 447.5,-120.2"/>
<polygon fill="#f5f5f5" stroke="transparent" points="448,-157.7 448,-180.7 555,-180.7 555,-157.7 448,-157.7"/>
<polygon fill="none" stroke="#000000" points="448,-157.7 448,-180.7 555,-180.7 555,-157.7 448,-157.7"/>
<text text-anchor="start" x="453" y="-166.3" font-family="Helvetica,sans-Serif" font-weight="bold" font-size="11.00" fill="#000000">event_roles</text>
<text text-anchor="start" x="520.5219" y="-165.8" font-family="Helvetica,sans-Serif" font-size="11.00" fill="#000000">[table]</text>
<polygon fill="none" stroke="#000000" points="448,-138.7 448,-157.7 555,-157.7 555,-138.7 448,-138.7"/>
<text text-anchor="start" x="451" y="-144.8" font-family="Helvetica,sans-Serif" font-size="11.00" fill="#000000">...</text>
<polygon fill="#ffffff" stroke="transparent" points="448,-119.7 448,-138.7 478,-138.7 478,-119.7 448,-119.7"/>
<polygon fill="none" stroke="#000000" points="448,-119.7 448,-138.7 478,-138.7 478,-119.7 448,-119.7"/>
<text text-anchor="start" x="451" y="-125.8" font-family="Helvetica,sans-Serif" font-size="11.00" fill="#000000"> &#160;</text>
<polygon fill="#ffffff" stroke="transparent" points="478,-119.7 478,-138.7 525,-138.7 525,-119.7 478,-119.7"/>
<polygon fill="none" stroke="#000000" points="478,-119.7 478,-138.7 525,-138.7 525,-119.7 478,-119.7"/>
<text text-anchor="start" x="489.6105" y="-125.8" font-family="Helvetica,sans-Serif" font-size="11.00" fill="#000000">0 rows</text>
<polygon fill="#ffffff" stroke="transparent" points="525,-119.7 525,-138.7 555,-138.7 555,-119.7 525,-119.7"/>
<polygon fill="none" stroke="#000000" points="525,-119.7 525,-138.7 555,-138.7 555,-119.7 525,-119.7"/>
<text text-anchor="start" x="536.4053" y="-125.8" font-family="Helvetica,sans-Serif" font-size="11.00" fill="#000000">2 &gt;</text>
</a>
</g>
</g>
<!-- event_users&#45;&gt;event_roles -->
<g id="edge8" class="edge">
<title>event_users:w&#45;&gt;event_roles:e</title>
<path fill="none" stroke="#000000" d="M596.7713,-247.9986C568.3007,-229.4721 601.5502,-147.7 555,-147.7"/>
<polygon fill="#000000" stroke="#000000" points="603.2577,-249.6859 610.0937,-255.184 607.1288,-250.6929 611,-251.7 611,-251.7 611,-251.7 607.1288,-250.6929 611.9063,-248.216 603.2577,-249.6859 603.2577,-249.6859"/>
<ellipse fill="none" stroke="#000000" cx="600.1607" cy="-248.8802" rx="3.2" ry="3.2"/>
</g>
<!-- events&#45;&gt;chapters -->
<g id="edge10" class="edge">
<title>events:w&#45;&gt;chapters:e</title>
<path fill="none" stroke="#000000" d="M446.5088,-377.5406C400.688,-376.4987 384.2591,-370.7 332,-370.7"/>
<polygon fill="#000000" stroke="#000000" points="453.0005,-377.612 460.9604,-381.2998 457.0002,-377.656 461,-377.7 461,-377.7 461,-377.7 457.0002,-377.656 461.0396,-374.1002 453.0005,-377.612 453.0005,-377.612"/>
<ellipse fill="none" stroke="#000000" cx="449.8007" cy="-377.5768" rx="3.2" ry="3.2"/>
</g>
<!-- instance_role_permissions -->
<g id="node10" class="node">
<title>instance_role_permissions</title>
<g id="a_node10"><a xlink:href="../../tables/instance_role_permissions.html" xlink:title="instance_role_permissions" target="_top">
<polygon fill="#ffffff" stroke="transparent" points="188,-261.2 188,-322.2 384,-322.2 384,-261.2 188,-261.2"/>
<polygon fill="#f5f5f5" stroke="transparent" points="188,-298.7 188,-321.7 384,-321.7 384,-298.7 188,-298.7"/>
<polygon fill="none" stroke="#000000" points="188,-298.7 188,-321.7 384,-321.7 384,-298.7 188,-298.7"/>
<text text-anchor="start" x="193" y="-307.3" font-family="Helvetica,sans-Serif" font-weight="bold" font-size="11.00" fill="#000000">instance_role_permissions</text>
<text text-anchor="start" x="349.5219" y="-306.8" font-family="Helvetica,sans-Serif" font-size="11.00" fill="#000000">[table]</text>
<polygon fill="none" stroke="#000000" points="188,-279.7 188,-298.7 384,-298.7 384,-279.7 188,-279.7"/>
<text text-anchor="start" x="191" y="-285.8" font-family="Helvetica,sans-Serif" font-size="11.00" fill="#000000">...</text>
<polygon fill="#ffffff" stroke="transparent" points="188,-260.7 188,-279.7 271,-279.7 271,-260.7 188,-260.7"/>
<polygon fill="none" stroke="#000000" points="188,-260.7 188,-279.7 271,-279.7 271,-260.7 188,-260.7"/>
<text text-anchor="start" x="191" y="-266.8" font-family="Helvetica,sans-Serif" font-size="11.00" fill="#000000">&lt; 2</text>
<polygon fill="#ffffff" stroke="transparent" points="271,-260.7 271,-279.7 340,-279.7 340,-260.7 271,-260.7"/>
<polygon fill="none" stroke="#000000" points="271,-260.7 271,-279.7 340,-279.7 340,-260.7 271,-260.7"/>
<text text-anchor="start" x="304.6105" y="-266.8" font-family="Helvetica,sans-Serif" font-size="11.00" fill="#000000">0 rows</text>
<polygon fill="#ffffff" stroke="transparent" points="340,-260.7 340,-279.7 384,-279.7 384,-260.7 340,-260.7"/>
<polygon fill="none" stroke="#000000" points="340,-260.7 340,-279.7 384,-279.7 384,-260.7 340,-260.7"/>
<text text-anchor="start" x="374.8862" y="-266.8" font-family="Helvetica,sans-Serif" font-size="11.00" fill="#000000"> &#160;</text>
</a>
</g>
</g>
<!-- instance_role_permissions&#45;&gt;instance_roles -->
<g id="edge11" class="edge">
<title>instance_role_permissions:w&#45;&gt;instance_roles:e</title>
<path fill="none" stroke="#000000" d="M173.9721,-292.2268C144.5369,-310.6194 179.4538,-394.7 132,-394.7"/>
<polygon fill="#000000" stroke="#000000" points="180.2414,-290.6507 188.8778,-292.1913 184.1207,-289.6753 188,-288.7 188,-288.7 188,-288.7 184.1207,-289.6753 187.1222,-285.2087 180.2414,-290.6507 180.2414,-290.6507"/>
<ellipse fill="none" stroke="#000000" cx="177.138" cy="-291.4309" rx="3.2" ry="3.2"/>
</g>
<!-- sessions -->
<g id="node12" class="node">
<title>sessions</title>
<g id="a_node12"><a xlink:href="../../tables/sessions.html" xlink:title="sessions" target="_top">
<polygon fill="#ffffff" stroke="transparent" points="457,-585.7 457,-671.7 545,-671.7 545,-585.7 457,-585.7"/>
<polygon fill="#f5f5f5" stroke="transparent" points="457,-648.7 457,-671.7 545,-671.7 545,-648.7 457,-648.7"/>
<polygon fill="none" stroke="#000000" points="457,-648.7 457,-671.7 545,-671.7 545,-648.7 457,-648.7"/>
<text text-anchor="start" x="462" y="-657.3" font-family="Helvetica,sans-Serif" font-weight="bold" font-size="11.00" fill="#000000">sessions</text>
<text text-anchor="start" x="510.5219" y="-656.8" font-family="Helvetica,sans-Serif" font-size="11.00" fill="#000000">[table]</text>
<polygon fill="none" stroke="#000000" points="457,-626.7 457,-648.7 545,-648.7 545,-626.7 457,-626.7"/>
<image xlink:href="../../images/primaryKeys.png" width="11px" height="12px" preserveAspectRatio="xMinYMin meet" x="462" y="-643.7"/>
<text text-anchor="start" x="486" y="-633.8" font-family="Helvetica,sans-Serif" font-size="11.00" fill="#000000">id</text>
<polygon fill="#ffffff" stroke="transparent" points="457,-604.7 457,-626.7 545,-626.7 545,-604.7 457,-604.7"/>
<polygon fill="none" stroke="#000000" points="457,-604.7 457,-626.7 545,-626.7 545,-604.7 457,-604.7"/>
<image xlink:href="../../images/foreignKeys.png" width="11px" height="12px" preserveAspectRatio="xMinYMin meet" x="462" y="-621.7"/>
<text text-anchor="start" x="486" y="-611.8" font-family="Helvetica,sans-Serif" font-size="11.00" fill="#000000">user_id</text>
<polygon fill="#ffffff" stroke="transparent" points="457,-585.7 457,-604.7 486,-604.7 486,-585.7 457,-585.7"/>
<polygon fill="none" stroke="#000000" points="457,-585.7 457,-604.7 486,-604.7 486,-585.7 457,-585.7"/>
<text text-anchor="start" x="460" y="-591.8" font-family="Helvetica,sans-Serif" font-size="11.00" fill="#000000">&lt; 1</text>
<polygon fill="#ffffff" stroke="transparent" points="486,-585.7 486,-604.7 528,-604.7 528,-585.7 486,-585.7"/>
<polygon fill="none" stroke="#000000" points="486,-585.7 486,-604.7 528,-604.7 528,-585.7 486,-585.7"/>
<text text-anchor="start" x="492.6105" y="-591.8" font-family="Helvetica,sans-Serif" font-size="11.00" fill="#000000">0 rows</text>
<polygon fill="#ffffff" stroke="transparent" points="528,-585.7 528,-604.7 545,-604.7 545,-585.7 528,-585.7"/>
<polygon fill="none" stroke="#000000" points="528,-585.7 528,-604.7 545,-604.7 545,-585.7 528,-585.7"/>
<text text-anchor="start" x="535.8862" y="-591.8" font-family="Helvetica,sans-Serif" font-size="11.00" fill="#000000"> &#160;</text>
</a>
</g>
</g>
<!-- sessions&#45;&gt;users -->
<g id="edge12" class="edge">
<title>sessions:w&#45;&gt;users:e</title>
<path fill="none" stroke="#000000" d="M446.6286,-614.2108C420.7915,-606.1089 422.0915,-567.7 389,-567.7"/>
<polygon fill="#000000" stroke="#000000" points="456.7767,-611.6269 455.6396,-619.5457 454.0558,-619.3183 455.1929,-611.3995 456.7767,-611.6269"/>
<polyline fill="none" stroke="#000000" points="457,-615.7 453.0406,-615.1315 "/>
<ellipse fill="none" stroke="#000000" cx="449.8731" cy="-614.6766" rx="3.2" ry="3.2"/>
</g>
<!-- user_bans -->
<g id="node13" class="node">
<title>user_bans</title>
<g id="a_node13"><a xlink:href="../../tables/user_bans.html" xlink:title="user_bans" target="_top">
<polygon fill="#ffffff" stroke="transparent" points="451.5,-432.2 451.5,-537.2 550.5,-537.2 550.5,-432.2 451.5,-432.2"/>
<polygon fill="#f5f5f5" stroke="transparent" points="452,-513.7 452,-536.7 551,-536.7 551,-513.7 452,-513.7"/>
<polygon fill="none" stroke="#000000" points="452,-513.7 452,-536.7 551,-536.7 551,-513.7 452,-513.7"/>
<text text-anchor="start" x="457" y="-522.3" font-family="Helvetica,sans-Serif" font-weight="bold" font-size="11.00" fill="#000000">user_bans</text>
<text text-anchor="start" x="516.5219" y="-521.8" font-family="Helvetica,sans-Serif" font-size="11.00" fill="#000000">[table]</text>
<polygon fill="none" stroke="#000000" points="452,-491.7 452,-513.7 551,-513.7 551,-491.7 452,-491.7"/>
<image xlink:href="../../images/primaryKeys.png" width="11px" height="12px" preserveAspectRatio="xMinYMin meet" x="457" y="-508.7"/>
<text text-anchor="start" x="478" y="-498.8" font-family="Helvetica,sans-Serif" font-size="11.00" fill="#000000">user_id</text>
<polygon fill="none" stroke="#000000" points="452,-469.7 452,-491.7 551,-491.7 551,-469.7 452,-469.7"/>
<image xlink:href="../../images/primaryKeys.png" width="11px" height="12px" preserveAspectRatio="xMinYMin meet" x="457" y="-486.7"/>
<text text-anchor="start" x="478" y="-476.8" font-family="Helvetica,sans-Serif" font-size="11.00" fill="#000000">chapter_id</text>
<polygon fill="none" stroke="#000000" points="452,-450.7 452,-469.7 551,-469.7 551,-450.7 452,-450.7"/>
<text text-anchor="start" x="455" y="-456.8" font-family="Helvetica,sans-Serif" font-size="11.00" fill="#000000">...</text>
<polygon fill="#ffffff" stroke="transparent" points="452,-431.7 452,-450.7 487,-450.7 487,-431.7 452,-431.7"/>
<polygon fill="none" stroke="#000000" points="452,-431.7 452,-450.7 487,-450.7 487,-431.7 452,-431.7"/>
<text text-anchor="start" x="455" y="-437.8" font-family="Helvetica,sans-Serif" font-size="11.00" fill="#000000">&lt; 2</text>
<polygon fill="#ffffff" stroke="transparent" points="487,-431.7 487,-450.7 532,-450.7 532,-431.7 487,-431.7"/>
<polygon fill="none" stroke="#000000" points="487,-431.7 487,-450.7 532,-450.7 532,-431.7 487,-431.7"/>
<text text-anchor="start" x="496.6105" y="-437.8" font-family="Helvetica,sans-Serif" font-size="11.00" fill="#000000">0 rows</text>
<polygon fill="#ffffff" stroke="transparent" points="532,-431.7 532,-450.7 551,-450.7 551,-431.7 532,-431.7"/>
<polygon fill="none" stroke="#000000" points="532,-431.7 532,-450.7 551,-450.7 551,-431.7 532,-431.7"/>
<text text-anchor="start" x="541.8862" y="-437.8" font-family="Helvetica,sans-Serif" font-size="11.00" fill="#000000"> &#160;</text>
</a>
</g>
</g>
<!-- user_bans&#45;&gt;chapters -->
<g id="edge13" class="edge">
<title>user_bans:w&#45;&gt;chapters:e</title>
<path fill="none" stroke="#000000" d="M437.786,-477.9869C417.4588,-468.595 422.2447,-436.8858 399,-415.7 372.4886,-391.5368 367.8708,-370.7 332,-370.7"/>
<polygon fill="#000000" stroke="#000000" points="444.1419,-479.2 451.325,-484.2362 448.0709,-479.95 452,-480.7 452,-480.7 452,-480.7 448.0709,-479.95 452.675,-477.1638 444.1419,-479.2 444.1419,-479.2"/>
<ellipse fill="none" stroke="#000000" cx="440.9986" cy="-478.6" rx="3.2" ry="3.2"/>
</g>
<!-- user_bans&#45;&gt;users -->
<g id="edge14" class="edge">
<title>user_bans:w&#45;&gt;users:e</title>
<path fill="none" stroke="#000000" d="M437.8231,-506.3809C415.6112,-520.1313 423.4167,-567.7 389,-567.7"/>
<polygon fill="#000000" stroke="#000000" points="444.2567,-504.7105 452.9047,-506.1845 448.1284,-503.7053 452,-502.7 452,-502.7 452,-502.7 448.1284,-503.7053 451.0953,-499.2155 444.2567,-504.7105 444.2567,-504.7105"/>
<ellipse fill="none" stroke="#000000" cx="441.1594" cy="-505.5147" rx="3.2" ry="3.2"/>
</g>
</g>
</svg>
