<?xml version="1.0" encoding="UTF-8" standalone="no"?>
<!DOCTYPE svg PUBLIC "-//W3C//DTD SVG 1.1//EN"
 "http://www.w3.org/Graphics/SVG/1.1/DTD/svg11.dtd">
<!-- Generated by graphviz version 2.40.1 (20161225.0304)
 -->
<!-- Title: oneDegreeRelationshipsDiagram Pages: 1 -->
<svg width="633pt" height="532pt"
 viewBox="0.00 0.00 633.00 531.70" xmlns="http://www.w3.org/2000/svg" xmlns:xlink="http://www.w3.org/1999/xlink">
<g id="graph0" class="graph" transform="scale(1 1) rotate(0) translate(4 527.7)">
<title>oneDegreeRelationshipsDiagram</title>
<polygon fill="#ffffff" stroke="transparent" points="-4,4 -4,-527.7 629,-527.7 629,4 -4,4"/>
<text text-anchor="middle" x="72.4936" y="-7.3" font-family="Helvetica,sans-Serif" font-size="11.00" fill="#000000">Generated by SchemaSpy</text>
<!-- chapters -->
<g id="node1" class="node">
<title>chapters</title>
<g id="a_node1"><a xlink:href="../../tables/chapters.html" xlink:title="chapters" target="_top">
<polygon fill="#ffffff" stroke="transparent" points="295,-172.7 295,-277.7 392,-277.7 392,-172.7 295,-172.7"/>
<polygon fill="#f5f5f5" stroke="transparent" points="295.5,-254.2 295.5,-277.2 392.5,-277.2 392.5,-254.2 295.5,-254.2"/>
<polygon fill="none" stroke="#000000" points="295.5,-254.2 295.5,-277.2 392.5,-277.2 392.5,-254.2 295.5,-254.2"/>
<text text-anchor="start" x="300.5" y="-263.3" font-family="Helvetica,sans-Serif" font-weight="bold" font-size="11.00" fill="#000000">chapters</text>
<text text-anchor="start" x="357.5437" y="-262.3" font-family="Helvetica,sans-Serif" font-size="11.00" fill="#000000">[table]</text>
<polygon fill="none" stroke="#000000" points="295.5,-232.2 295.5,-254.2 392.5,-254.2 392.5,-232.2 295.5,-232.2"/>
<image xlink:href="../../images/primaryKeys.png" width="11px" height="12px" preserveAspectRatio="xMinYMin meet" x="300.5" y="-249.2"/>
<text text-anchor="start" x="315.5" y="-239.3" font-family="Helvetica,sans-Serif" font-size="11.00" fill="#000000">id</text>
<polygon fill="none" stroke="#000000" points="295.5,-210.2 295.5,-232.2 392.5,-232.2 392.5,-210.2 295.5,-210.2"/>
<image xlink:href="../../images/foreignKeys.png" width="11px" height="12px" preserveAspectRatio="xMinYMin meet" x="300.5" y="-227.2"/>
<text text-anchor="start" x="315.5" y="-217.3" font-family="Helvetica,sans-Serif" font-size="11.00" fill="#000000">creator_id</text>
<polygon fill="none" stroke="#000000" points="295.5,-191.2 295.5,-210.2 392.5,-210.2 392.5,-191.2 295.5,-191.2"/>
<text text-anchor="start" x="298.5" y="-197.3" font-family="Helvetica,sans-Serif" font-size="11.00" fill="#000000">...</text>
<polygon fill="#ffffff" stroke="transparent" points="295.5,-172.2 295.5,-191.2 324.5,-191.2 324.5,-172.2 295.5,-172.2"/>
<polygon fill="none" stroke="#000000" points="295.5,-172.2 295.5,-191.2 324.5,-191.2 324.5,-172.2 295.5,-172.2"/>
<text text-anchor="start" x="298.5" y="-178.3" font-family="Helvetica,sans-Serif" font-size="11.00" fill="#000000">&lt; 1</text>
<polygon fill="#ffffff" stroke="transparent" points="324.5,-172.2 324.5,-191.2 366.5,-191.2 366.5,-172.2 324.5,-172.2"/>
<polygon fill="none" stroke="#000000" points="324.5,-172.2 324.5,-191.2 366.5,-191.2 366.5,-172.2 324.5,-172.2"/>
<text text-anchor="start" x="331.1105" y="-178.3" font-family="Helvetica,sans-Serif" font-size="11.00" fill="#000000">4 rows</text>
<polygon fill="#ffffff" stroke="transparent" points="366.5,-172.2 366.5,-191.2 392.5,-191.2 392.5,-172.2 366.5,-172.2"/>
<polygon fill="none" stroke="#000000" points="366.5,-172.2 366.5,-191.2 392.5,-191.2 392.5,-172.2 366.5,-172.2"/>
<text text-anchor="start" x="373.9053" y="-178.3" font-family="Helvetica,sans-Serif" font-size="11.00" fill="#000000">4 &gt;</text>
</a>
</g>
</g>
<!-- users -->
<g id="node2" class="node">
<title>users</title>
<g id="a_node2"><a xlink:href="../../tables/users.html" xlink:title="users" target="_top">
<polygon fill="#ffffff" stroke="transparent" points="8,-119.2 8,-297.2 218,-297.2 218,-119.2 8,-119.2"/>
<polygon fill="#f5f5f5" stroke="transparent" points="10,-272.2 10,-295.2 216,-295.2 216,-272.2 10,-272.2"/>
<polygon fill="none" stroke="#000000" points="10,-272.2 10,-295.2 216,-295.2 216,-272.2 10,-272.2"/>
<text text-anchor="start" x="15" y="-281.3" font-family="Helvetica,sans-Serif" font-weight="bold" font-size="11.00" fill="#000000">users</text>
<text text-anchor="start" x="181.0437" y="-280.3" font-family="Helvetica,sans-Serif" font-size="11.00" fill="#000000">[table]</text>
<polygon fill="none" stroke="#000000" points="10,-250.2 10,-272.2 107,-272.2 107,-250.2 10,-250.2"/>
<image xlink:href="../../images/primaryKeys.png" width="11px" height="12px" preserveAspectRatio="xMinYMin meet" x="15" y="-267.2"/>
<text text-anchor="start" x="30" y="-257.3" font-family="Helvetica,sans-Serif" font-size="11.00" fill="#000000">id</text>
<polygon fill="none" stroke="#000000" points="107,-250.2 107,-272.2 216,-272.2 216,-250.2 107,-250.2"/>
<text text-anchor="start" x="110" y="-257.9" font-family="Helvetica,sans-Serif" font-size="11.00" fill="#000000">serial[10]</text>
<polygon fill="none" stroke="#000000" points="10,-228.2 10,-250.2 107,-250.2 107,-228.2 10,-228.2"/>
<text text-anchor="start" x="30" y="-235.3" font-family="Helvetica,sans-Serif" font-size="11.00" fill="#000000">first_name</text>
<polygon fill="none" stroke="#000000" points="107,-228.2 107,-250.2 216,-250.2 216,-228.2 107,-228.2"/>
<text text-anchor="start" x="109.5344" y="-235.9" font-family="Helvetica,sans-Serif" font-size="11.00" fill="#000000">varchar[2147483647]</text>
<polygon fill="none" stroke="#000000" points="10,-206.2 10,-228.2 107,-228.2 107,-206.2 10,-206.2"/>
<text text-anchor="start" x="30" y="-213.3" font-family="Helvetica,sans-Serif" font-size="11.00" fill="#000000">last_name</text>
<polygon fill="none" stroke="#000000" points="107,-206.2 107,-228.2 216,-228.2 216,-206.2 107,-206.2"/>
<text text-anchor="start" x="109.5344" y="-213.9" font-family="Helvetica,sans-Serif" font-size="11.00" fill="#000000">varchar[2147483647]</text>
<polygon fill="none" stroke="#000000" points="10,-184.2 10,-206.2 107,-206.2 107,-184.2 10,-184.2"/>
<text text-anchor="start" x="30" y="-191.3" font-family="Helvetica,sans-Serif" font-size="11.00" fill="#000000">email</text>
<polygon fill="none" stroke="#000000" points="107,-184.2 107,-206.2 216,-206.2 216,-184.2 107,-184.2"/>
<text text-anchor="start" x="109.5344" y="-191.9" font-family="Helvetica,sans-Serif" font-size="11.00" fill="#000000">varchar[2147483647]</text>
<polygon fill="none" stroke="#000000" points="10,-162.2 10,-184.2 107,-184.2 107,-162.2 10,-162.2"/>
<text text-anchor="start" x="30" y="-169.3" font-family="Helvetica,sans-Serif" font-size="11.00" fill="#000000">created_at</text>
<polygon fill="none" stroke="#000000" points="107,-162.2 107,-184.2 216,-184.2 216,-162.2 107,-162.2"/>
<text text-anchor="start" x="110" y="-169.9" font-family="Helvetica,sans-Serif" font-size="11.00" fill="#000000">timestamp[29,6]</text>
<polygon fill="none" stroke="#000000" points="10,-140.2 10,-162.2 107,-162.2 107,-140.2 10,-140.2"/>
<text text-anchor="start" x="30" y="-147.3" font-family="Helvetica,sans-Serif" font-size="11.00" fill="#000000">updated_at</text>
<polygon fill="none" stroke="#000000" points="107,-140.2 107,-162.2 216,-162.2 216,-140.2 107,-140.2"/>
<text text-anchor="start" x="110" y="-147.9" font-family="Helvetica,sans-Serif" font-size="11.00" fill="#000000">timestamp[29,6]</text>
<polygon fill="#ffffff" stroke="transparent" points="10,-121.2 10,-140.2 53,-140.2 53,-121.2 10,-121.2"/>
<polygon fill="none" stroke="#000000" points="10,-121.2 10,-140.2 53,-140.2 53,-121.2 10,-121.2"/>
<text text-anchor="start" x="13" y="-127.3" font-family="Helvetica,sans-Serif" font-size="11.00" fill="#000000">&lt; 0</text>
<polygon fill="#ffffff" stroke="transparent" points="53,-121.2 53,-140.2 107,-140.2 107,-121.2 53,-121.2"/>
<polygon fill="none" stroke="#000000" points="53,-121.2 53,-140.2 107,-140.2 107,-121.2 53,-121.2"/>
<text text-anchor="start" x="77.1105" y="-127.3" font-family="Helvetica,sans-Serif" font-size="11.00" fill="#000000">1 row</text>
<polygon fill="#ffffff" stroke="transparent" points="107,-121.2 107,-140.2 216,-140.2 216,-121.2 107,-121.2"/>
<polygon fill="none" stroke="#000000" points="107,-121.2 107,-140.2 216,-140.2 216,-121.2 107,-121.2"/>
<text text-anchor="start" x="197.4053" y="-127.3" font-family="Helvetica,sans-Serif" font-size="11.00" fill="#000000">6 &gt;</text>
<polygon fill="none" stroke="#000000" stroke-width="2" points="9,-120.2 9,-296.2 217,-296.2 217,-120.2 9,-120.2"/>
</a>
</g>
</g>
<!-- chapters&#45;&gt;users -->
<g id="edge1" class="edge">
<title>chapters:w&#45;&gt;users:e</title>
<path fill="none" stroke="#000000" d="M280.9188,-223.3506C255.0615,-231.659 249.9914,-261.2 216,-261.2"/>
<polygon fill="#000000" stroke="#000000" points="287.5856,-222.3673 296.0253,-224.7615 291.5428,-221.7837 295.5,-221.2 295.5,-221.2 295.5,-221.2 291.5428,-221.7837 294.9747,-217.6385 287.5856,-222.3673 287.5856,-222.3673"/>
<ellipse fill="none" stroke="#000000" cx="284.4199" cy="-222.8343" rx="3.2" ry="3.2"/>
</g>
<!-- rsvps -->
<g id="node3" class="node">
<title>rsvps</title>
<g id="a_node3"><a xlink:href="../../tables/rsvps.html" xlink:title="rsvps" target="_top">
<polygon fill="#ffffff" stroke="transparent" points="295,-326.7 295,-453.7 392,-453.7 392,-326.7 295,-326.7"/>
<polygon fill="#f5f5f5" stroke="transparent" points="295.5,-430.2 295.5,-453.2 392.5,-453.2 392.5,-430.2 295.5,-430.2"/>
<polygon fill="none" stroke="#000000" points="295.5,-430.2 295.5,-453.2 392.5,-453.2 392.5,-430.2 295.5,-430.2"/>
<text text-anchor="start" x="300.5" y="-439.3" font-family="Helvetica,sans-Serif" font-weight="bold" font-size="11.00" fill="#000000">rsvps</text>
<text text-anchor="start" x="357.5437" y="-438.3" font-family="Helvetica,sans-Serif" font-size="11.00" fill="#000000">[table]</text>
<polygon fill="none" stroke="#000000" points="295.5,-408.2 295.5,-430.2 392.5,-430.2 392.5,-408.2 295.5,-408.2"/>
<image xlink:href="../../images/primaryKeys.png" width="11px" height="12px" preserveAspectRatio="xMinYMin meet" x="300.5" y="-425.2"/>
<text text-anchor="start" x="315.5" y="-415.3" font-family="Helvetica,sans-Serif" font-size="11.00" fill="#000000">id</text>
<polygon fill="none" stroke="#000000" points="295.5,-386.2 295.5,-408.2 392.5,-408.2 392.5,-386.2 295.5,-386.2"/>
<image xlink:href="../../images/foreignKeys.png" width="11px" height="12px" preserveAspectRatio="xMinYMin meet" x="300.5" y="-403.2"/>
<text text-anchor="start" x="315.5" y="-393.3" font-family="Helvetica,sans-Serif" font-size="11.00" fill="#000000">event_id</text>
<polygon fill="none" stroke="#000000" points="295.5,-364.2 295.5,-386.2 392.5,-386.2 392.5,-364.2 295.5,-364.2"/>
<image xlink:href="../../images/foreignKeys.png" width="11px" height="12px" preserveAspectRatio="xMinYMin meet" x="300.5" y="-381.2"/>
<text text-anchor="start" x="315.5" y="-371.3" font-family="Helvetica,sans-Serif" font-size="11.00" fill="#000000">user_id</text>
<polygon fill="none" stroke="#000000" points="295.5,-345.2 295.5,-364.2 392.5,-364.2 392.5,-345.2 295.5,-345.2"/>
<text text-anchor="start" x="298.5" y="-351.3" font-family="Helvetica,sans-Serif" font-size="11.00" fill="#000000">...</text>
<polygon fill="#ffffff" stroke="transparent" points="295.5,-326.2 295.5,-345.2 329.5,-345.2 329.5,-326.2 295.5,-326.2"/>
<polygon fill="none" stroke="#000000" points="295.5,-326.2 295.5,-345.2 329.5,-345.2 329.5,-326.2 295.5,-326.2"/>
<text text-anchor="start" x="298.5" y="-332.3" font-family="Helvetica,sans-Serif" font-size="11.00" fill="#000000">&lt; 2</text>
<polygon fill="#ffffff" stroke="transparent" points="329.5,-326.2 329.5,-345.2 373.5,-345.2 373.5,-326.2 329.5,-326.2"/>
<polygon fill="none" stroke="#000000" points="329.5,-326.2 329.5,-345.2 373.5,-345.2 373.5,-326.2 329.5,-326.2"/>
<text text-anchor="start" x="338.1105" y="-332.3" font-family="Helvetica,sans-Serif" font-size="11.00" fill="#000000">0 rows</text>
<polygon fill="#ffffff" stroke="transparent" points="373.5,-326.2 373.5,-345.2 392.5,-345.2 392.5,-326.2 373.5,-326.2"/>
<polygon fill="none" stroke="#000000" points="373.5,-326.2 373.5,-345.2 392.5,-345.2 392.5,-326.2 373.5,-326.2"/>
<text text-anchor="start" x="383.3862" y="-332.3" font-family="Helvetica,sans-Serif" font-size="11.00" fill="#000000"> &#160;</text>
</a>
</g>
</g>
<!-- rsvps&#45;&gt;users -->
<g id="edge2" class="edge">
<title>rsvps:w&#45;&gt;users:e</title>
<path fill="none" stroke="#000000" d="M281.2598,-372.6048C240.7892,-355.6358 272.2205,-261.2 216,-261.2"/>
<polygon fill="#000000" stroke="#000000" points="287.6296,-373.7656 294.8545,-378.7417 291.5648,-374.4828 295.5,-375.2 295.5,-375.2 295.5,-375.2 291.5648,-374.4828 296.1455,-371.6583 287.6296,-373.7656 287.6296,-373.7656"/>
<ellipse fill="none" stroke="#000000" cx="284.4815" cy="-373.1918" rx="3.2" ry="3.2"/>
</g>
<!-- user_bans -->
<g id="node4" class="node">
<title>user_bans</title>
<g id="a_node4"><a xlink:href="../../tables/user_bans.html" xlink:title="user_bans" target="_top">
<polygon fill="#ffffff" stroke="transparent" points="494.5,-392.7 494.5,-519.7 591.5,-519.7 591.5,-392.7 494.5,-392.7"/>
<polygon fill="#f5f5f5" stroke="transparent" points="495,-496.2 495,-519.2 592,-519.2 592,-496.2 495,-496.2"/>
<polygon fill="none" stroke="#000000" points="495,-496.2 495,-519.2 592,-519.2 592,-496.2 495,-496.2"/>
<text text-anchor="start" x="500" y="-505.3" font-family="Helvetica,sans-Serif" font-weight="bold" font-size="11.00" fill="#000000">user_bans</text>
<text text-anchor="start" x="557.0437" y="-504.3" font-family="Helvetica,sans-Serif" font-size="11.00" fill="#000000">[table]</text>
<polygon fill="none" stroke="#000000" points="495,-474.2 495,-496.2 592,-496.2 592,-474.2 495,-474.2"/>
<image xlink:href="../../images/primaryKeys.png" width="11px" height="12px" preserveAspectRatio="xMinYMin meet" x="500" y="-491.2"/>
<text text-anchor="start" x="515" y="-481.3" font-family="Helvetica,sans-Serif" font-size="11.00" fill="#000000">id</text>
<polygon fill="none" stroke="#000000" points="495,-452.2 495,-474.2 592,-474.2 592,-452.2 495,-452.2"/>
<image xlink:href="../../images/foreignKeys.png" width="11px" height="12px" preserveAspectRatio="xMinYMin meet" x="500" y="-469.2"/>
<text text-anchor="start" x="515" y="-459.3" font-family="Helvetica,sans-Serif" font-size="11.00" fill="#000000">user_id</text>
<polygon fill="none" stroke="#000000" points="495,-430.2 495,-452.2 592,-452.2 592,-430.2 495,-430.2"/>
<image xlink:href="../../images/foreignKeys.png" width="11px" height="12px" preserveAspectRatio="xMinYMin meet" x="500" y="-447.2"/>
<text text-anchor="start" x="515" y="-437.3" font-family="Helvetica,sans-Serif" font-size="11.00" fill="#000000">chapter_id</text>
<polygon fill="none" stroke="#000000" points="495,-411.2 495,-430.2 592,-430.2 592,-411.2 495,-411.2"/>
<text text-anchor="start" x="498" y="-417.3" font-family="Helvetica,sans-Serif" font-size="11.00" fill="#000000">...</text>
<polygon fill="#ffffff" stroke="transparent" points="495,-392.2 495,-411.2 529,-411.2 529,-392.2 495,-392.2"/>
<polygon fill="none" stroke="#000000" points="495,-392.2 495,-411.2 529,-411.2 529,-392.2 495,-392.2"/>
<text text-anchor="start" x="498" y="-398.3" font-family="Helvetica,sans-Serif" font-size="11.00" fill="#000000">&lt; 2</text>
<polygon fill="#ffffff" stroke="transparent" points="529,-392.2 529,-411.2 573,-411.2 573,-392.2 529,-392.2"/>
<polygon fill="none" stroke="#000000" points="529,-392.2 529,-411.2 573,-411.2 573,-392.2 529,-392.2"/>
<text text-anchor="start" x="537.6105" y="-398.3" font-family="Helvetica,sans-Serif" font-size="11.00" fill="#000000">0 rows</text>
<polygon fill="#ffffff" stroke="transparent" points="573,-392.2 573,-411.2 592,-411.2 592,-392.2 573,-392.2"/>
<polygon fill="none" stroke="#000000" points="573,-392.2 573,-411.2 592,-411.2 592,-392.2 573,-392.2"/>
<text text-anchor="start" x="582.8862" y="-398.3" font-family="Helvetica,sans-Serif" font-size="11.00" fill="#000000"> &#160;</text>
</a>
</g>
</g>
<!-- user_bans&#45;&gt;chapters -->
<g id="edge3" class="edge">
<title>user_bans:w&#45;&gt;chapters:e</title>
<path fill="none" stroke="#000000" d="M480.4265,-439.4883C405.7906,-420.1359 486.1733,-243.2 392.5,-243.2"/>
<polygon fill="#000000" stroke="#000000" points="487.0546,-440.2667 494.58,-444.7754 491.0273,-440.7334 495,-441.2 495,-441.2 495,-441.2 491.0273,-440.7334 495.42,-437.6246 487.0546,-440.2667 487.0546,-440.2667"/>
<ellipse fill="none" stroke="#000000" cx="483.8765" cy="-439.8934" rx="3.2" ry="3.2"/>
</g>
<!-- user_bans&#45;&gt;users -->
<g id="edge4" class="edge">
<title>user_bans:w&#45;&gt;users:e</title>
<path fill="none" stroke="#000000" d="M480.6052,-463.6213C385.3884,-469.1924 336.6716,-527.1424 259,-464.2 187.3488,-406.1363 308.2241,-261.2 216,-261.2"/>
<polygon fill="#000000" stroke="#000000" points="487.0034,-463.4341 495.1053,-466.7985 491.0017,-463.317 495,-463.2 495,-463.2 495,-463.2 491.0017,-463.317 494.8947,-459.6015 487.0034,-463.4341 487.0034,-463.4341"/>
<ellipse fill="none" stroke="#000000" cx="483.8048" cy="-463.5277" rx="3.2" ry="3.2"/>
</g>
<!-- user_chapter_roles -->
<g id="node5" class="node">
<title>user_chapter_roles</title>
<g id="a_node5"><a xlink:href="../../tables/user_chapter_roles.html" xlink:title="user_chapter_roles" target="_top">
<polygon fill="#ffffff" stroke="transparent" points="469,-206.7 469,-355.7 617,-355.7 617,-206.7 469,-206.7"/>
<polygon fill="#f5f5f5" stroke="transparent" points="469,-332.2 469,-355.2 617,-355.2 617,-332.2 469,-332.2"/>
<polygon fill="none" stroke="#000000" points="469,-332.2 469,-355.2 617,-355.2 617,-332.2 469,-332.2"/>
<text text-anchor="start" x="474" y="-341.3" font-family="Helvetica,sans-Serif" font-weight="bold" font-size="11.00" fill="#000000">user_chapter_roles</text>
<text text-anchor="start" x="582.0437" y="-340.3" font-family="Helvetica,sans-Serif" font-size="11.00" fill="#000000">[table]</text>
<polygon fill="none" stroke="#000000" points="469,-310.2 469,-332.2 617,-332.2 617,-310.2 469,-310.2"/>
<image xlink:href="../../images/primaryKeys.png" width="11px" height="12px" preserveAspectRatio="xMinYMin meet" x="474" y="-327.2"/>
<text text-anchor="start" x="489" y="-317.3" font-family="Helvetica,sans-Serif" font-size="11.00" fill="#000000">user_id</text>
<polygon fill="none" stroke="#000000" points="469,-288.2 469,-310.2 617,-310.2 617,-288.2 469,-288.2"/>
<image xlink:href="../../images/primaryKeys.png" width="11px" height="12px" preserveAspectRatio="xMinYMin meet" x="474" y="-305.2"/>
<text text-anchor="start" x="489" y="-295.3" font-family="Helvetica,sans-Serif" font-size="11.00" fill="#000000">chapter_id</text>
<polygon fill="none" stroke="#000000" points="469,-266.2 469,-288.2 617,-288.2 617,-266.2 469,-266.2"/>
<image xlink:href="../../images/primaryKeys.png" width="11px" height="12px" preserveAspectRatio="xMinYMin meet" x="474" y="-283.2"/>
<text text-anchor="start" x="489" y="-273.3" font-family="Helvetica,sans-Serif" font-size="11.00" fill="#000000">id</text>
<polygon fill="none" stroke="#000000" points="469,-244.2 469,-266.2 617,-266.2 617,-244.2 469,-244.2"/>
<image xlink:href="../../images/primaryKeys.png" width="11px" height="12px" preserveAspectRatio="xMinYMin meet" x="474" y="-261.2"/>
<text text-anchor="start" x="489" y="-251.3" font-family="Helvetica,sans-Serif" font-size="11.00" fill="#000000">role_name</text>
<polygon fill="none" stroke="#000000" points="469,-225.2 469,-244.2 617,-244.2 617,-225.2 469,-225.2"/>
<text text-anchor="start" x="472" y="-231.3" font-family="Helvetica,sans-Serif" font-size="11.00" fill="#000000">...</text>
<polygon fill="#ffffff" stroke="transparent" points="469,-206.2 469,-225.2 528,-225.2 528,-206.2 469,-206.2"/>
<polygon fill="none" stroke="#000000" points="469,-206.2 469,-225.2 528,-225.2 528,-206.2 469,-206.2"/>
<text text-anchor="start" x="472" y="-212.3" font-family="Helvetica,sans-Serif" font-size="11.00" fill="#000000">&lt; 2</text>
<polygon fill="#ffffff" stroke="transparent" points="528,-206.2 528,-225.2 585,-225.2 585,-206.2 528,-206.2"/>
<polygon fill="none" stroke="#000000" points="528,-206.2 528,-225.2 585,-225.2 585,-206.2 528,-206.2"/>
<text text-anchor="start" x="549.6105" y="-212.3" font-family="Helvetica,sans-Serif" font-size="11.00" fill="#000000">0 rows</text>
<polygon fill="#ffffff" stroke="transparent" points="585,-206.2 585,-225.2 617,-225.2 617,-206.2 585,-206.2"/>
<polygon fill="none" stroke="#000000" points="585,-206.2 585,-225.2 617,-225.2 617,-206.2 585,-206.2"/>
<text text-anchor="start" x="607.8862" y="-212.3" font-family="Helvetica,sans-Serif" font-size="11.00" fill="#000000"> &#160;</text>
</a>
</g>
</g>
<!-- user_chapter_roles&#45;&gt;chapters -->
<g id="edge5" class="edge">
<title>user_chapter_roles:w&#45;&gt;chapters:e</title>
<path fill="none" stroke="#000000" d="M454.6186,-296.499C428.048,-285.3128 429.04,-243.2 392.5,-243.2"/>
<polygon fill="#000000" stroke="#000000" points="461.1375,-297.7233 468.3355,-302.7381 465.0687,-298.4616 469,-299.2 469,-299.2 469,-299.2 465.0687,-298.4616 469.6645,-295.6619 461.1375,-297.7233 461.1375,-297.7233"/>
<ellipse fill="none" stroke="#000000" cx="457.9925" cy="-297.1326" rx="3.2" ry="3.2"/>
</g>
<!-- user_chapter_roles&#45;&gt;users -->
<g id="edge6" class="edge">
<title>user_chapter_roles:w&#45;&gt;users:e</title>
<path fill="none" stroke="#000000" d="M454.5938,-319.6369C408.0416,-313.5723 268.5046,-291.7589 259,-288.2 237.8667,-280.2869 238.5662,-261.2 216,-261.2"/>
<polygon fill="#000000" stroke="#000000" points="461.0467,-320.337 468.6117,-324.779 465.0233,-320.7685 469,-321.2 469,-321.2 469,-321.2 465.0233,-320.7685 469.3883,-317.621 461.0467,-320.337 461.0467,-320.337"/>
<ellipse fill="none" stroke="#000000" cx="457.8653" cy="-319.9918" rx="3.2" ry="3.2"/>
</g>
<!-- user_chapters -->
<g id="node6" class="node">
<title>user_chapters</title>
<g id="a_node6"><a xlink:href="../../tables/user_chapters.html" xlink:title="user_chapters" target="_top">
<polygon fill="#ffffff" stroke="transparent" points="485,-58.7 485,-185.7 601,-185.7 601,-58.7 485,-58.7"/>
<polygon fill="#f5f5f5" stroke="transparent" points="485,-162.2 485,-185.2 601,-185.2 601,-162.2 485,-162.2"/>
<polygon fill="none" stroke="#000000" points="485,-162.2 485,-185.2 601,-185.2 601,-162.2 485,-162.2"/>
<text text-anchor="start" x="490" y="-171.3" font-family="Helvetica,sans-Serif" font-weight="bold" font-size="11.00" fill="#000000">user_chapters</text>
<text text-anchor="start" x="566.0437" y="-170.3" font-family="Helvetica,sans-Serif" font-size="11.00" fill="#000000">[table]</text>
<polygon fill="none" stroke="#000000" points="485,-140.2 485,-162.2 601,-162.2 601,-140.2 485,-140.2"/>
<image xlink:href="../../images/primaryKeys.png" width="11px" height="12px" preserveAspectRatio="xMinYMin meet" x="490" y="-157.2"/>
<text text-anchor="start" x="505" y="-147.3" font-family="Helvetica,sans-Serif" font-size="11.00" fill="#000000">id</text>
<polygon fill="none" stroke="#000000" points="485,-118.2 485,-140.2 601,-140.2 601,-118.2 485,-118.2"/>
<image xlink:href="../../images/foreignKeys.png" width="11px" height="12px" preserveAspectRatio="xMinYMin meet" x="490" y="-135.2"/>
<text text-anchor="start" x="505" y="-125.3" font-family="Helvetica,sans-Serif" font-size="11.00" fill="#000000">user_id</text>
<polygon fill="none" stroke="#000000" points="485,-96.2 485,-118.2 601,-118.2 601,-96.2 485,-96.2"/>
<image xlink:href="../../images/foreignKeys.png" width="11px" height="12px" preserveAspectRatio="xMinYMin meet" x="490" y="-113.2"/>
<text text-anchor="start" x="505" y="-103.3" font-family="Helvetica,sans-Serif" font-size="11.00" fill="#000000">chapter_id</text>
<polygon fill="none" stroke="#000000" points="485,-77.2 485,-96.2 601,-96.2 601,-77.2 485,-77.2"/>
<text text-anchor="start" x="488" y="-83.3" font-family="Helvetica,sans-Serif" font-size="11.00" fill="#000000">...</text>
<polygon fill="#ffffff" stroke="transparent" points="485,-58.2 485,-77.2 528,-77.2 528,-58.2 485,-58.2"/>
<polygon fill="none" stroke="#000000" points="485,-58.2 485,-77.2 528,-77.2 528,-58.2 485,-58.2"/>
<text text-anchor="start" x="488" y="-64.3" font-family="Helvetica,sans-Serif" font-size="11.00" fill="#000000">&lt; 2</text>
<polygon fill="#ffffff" stroke="transparent" points="528,-58.2 528,-77.2 577,-77.2 577,-58.2 528,-58.2"/>
<polygon fill="none" stroke="#000000" points="528,-58.2 528,-77.2 577,-77.2 577,-58.2 528,-58.2"/>
<text text-anchor="start" x="541.6105" y="-64.3" font-family="Helvetica,sans-Serif" font-size="11.00" fill="#000000">0 rows</text>
<polygon fill="#ffffff" stroke="transparent" points="577,-58.2 577,-77.2 601,-77.2 601,-58.2 577,-58.2"/>
<polygon fill="none" stroke="#000000" points="577,-58.2 577,-77.2 601,-77.2 601,-58.2 577,-58.2"/>
<text text-anchor="start" x="591.8862" y="-64.3" font-family="Helvetica,sans-Serif" font-size="11.00" fill="#000000"> &#160;</text>
</a>
</g>
</g>
<!-- user_chapters&#45;&gt;chapters -->
<g id="edge7" class="edge">
<title>user_chapters:w&#45;&gt;chapters:e</title>
<path fill="none" stroke="#000000" d="M470.7155,-109.3362C419.1724,-126.6384 460.1749,-243.2 392.5,-243.2"/>
<polygon fill="#000000" stroke="#000000" points="477.088,-108.3833 485.5325,-110.7604 481.044,-107.7916 485,-107.2 485,-107.2 485,-107.2 481.044,-107.7916 484.4675,-103.6396 477.088,-108.3833 477.088,-108.3833"/>
<ellipse fill="none" stroke="#000000" cx="473.9232" cy="-108.8566" rx="3.2" ry="3.2"/>
</g>
<!-- user_chapters&#45;&gt;users -->
<g id="edge8" class="edge">
<title>user_chapters:w&#45;&gt;users:e</title>
<path fill="none" stroke="#000000" d="M470.4273,-130.473C421.0416,-135.6973 267.7199,-155.5295 259,-162.2 220.8986,-191.3465 263.9712,-261.2 216,-261.2"/>
<polygon fill="#000000" stroke="#000000" points="477.0304,-129.8963 485.3133,-132.7863 481.0152,-129.5481 485,-129.2 485,-129.2 485,-129.2 481.0152,-129.5481 484.6867,-125.6137 477.0304,-129.8963 477.0304,-129.8963"/>
<ellipse fill="none" stroke="#000000" cx="473.8425" cy="-130.1748" rx="3.2" ry="3.2"/>
</g>
<!-- user_instance_roles -->
<g id="node7" class="node">
<title>user_instance_roles</title>
<g id="a_node7"><a xlink:href="../../tables/user_instance_roles.html" xlink:title="user_instance_roles" target="_top">
<polygon fill="#ffffff" stroke="transparent" points="267,-38.2 267,-124.2 420,-124.2 420,-38.2 267,-38.2"/>
<polygon fill="#f5f5f5" stroke="transparent" points="267.5,-101.2 267.5,-124.2 420.5,-124.2 420.5,-101.2 267.5,-101.2"/>
<polygon fill="none" stroke="#000000" points="267.5,-101.2 267.5,-124.2 420.5,-124.2 420.5,-101.2 267.5,-101.2"/>
<text text-anchor="start" x="272.5" y="-110.3" font-family="Helvetica,sans-Serif" font-weight="bold" font-size="11.00" fill="#000000">user_instance_roles</text>
<text text-anchor="start" x="385.5437" y="-109.3" font-family="Helvetica,sans-Serif" font-size="11.00" fill="#000000">[table]</text>
<polygon fill="none" stroke="#000000" points="267.5,-79.2 267.5,-101.2 420.5,-101.2 420.5,-79.2 267.5,-79.2"/>
<image xlink:href="../../images/primaryKeys.png" width="11px" height="12px" preserveAspectRatio="xMinYMin meet" x="272.5" y="-96.2"/>
<text text-anchor="start" x="287.5" y="-86.3" font-family="Helvetica,sans-Serif" font-size="11.00" fill="#000000">user_id</text>
<polygon fill="none" stroke="#000000" points="267.5,-57.2 267.5,-79.2 420.5,-79.2 420.5,-57.2 267.5,-57.2"/>
<image xlink:href="../../images/primaryKeys.png" width="11px" height="12px" preserveAspectRatio="xMinYMin meet" x="272.5" y="-74.2"/>
<text text-anchor="start" x="287.5" y="-64.3" font-family="Helvetica,sans-Serif" font-size="11.00" fill="#000000">role_name</text>
<polygon fill="#ffffff" stroke="transparent" points="267.5,-38.2 267.5,-57.2 329.5,-57.2 329.5,-38.2 267.5,-38.2"/>
<polygon fill="none" stroke="#000000" points="267.5,-38.2 267.5,-57.2 329.5,-57.2 329.5,-38.2 267.5,-38.2"/>
<text text-anchor="start" x="270.5" y="-44.3" font-family="Helvetica,sans-Serif" font-size="11.00" fill="#000000">&lt; 1</text>
<polygon fill="#ffffff" stroke="transparent" points="329.5,-38.2 329.5,-57.2 387.5,-57.2 387.5,-38.2 329.5,-38.2"/>
<polygon fill="none" stroke="#000000" points="329.5,-38.2 329.5,-57.2 387.5,-57.2 387.5,-38.2 329.5,-38.2"/>
<text text-anchor="start" x="352.1105" y="-44.3" font-family="Helvetica,sans-Serif" font-size="11.00" fill="#000000">0 rows</text>
<polygon fill="#ffffff" stroke="transparent" points="387.5,-38.2 387.5,-57.2 420.5,-57.2 420.5,-38.2 387.5,-38.2"/>
<polygon fill="none" stroke="#000000" points="387.5,-38.2 387.5,-57.2 420.5,-57.2 420.5,-38.2 387.5,-38.2"/>
<text text-anchor="start" x="411.3862" y="-44.3" font-family="Helvetica,sans-Serif" font-size="11.00" fill="#000000"> &#160;</text>
</a>
</g>
</g>
<!-- user_instance_roles&#45;&gt;users -->
<g id="edge9" class="edge">
<title>user_instance_roles:w&#45;&gt;users:e</title>
<path fill="none" stroke="#000000" d="M253.0753,-92.75C202.6536,-114.0218 289.6361,-261.2 216,-261.2"/>
<polygon fill="#000000" stroke="#000000" points="259.6221,-91.5927 268.1267,-93.745 263.5611,-90.8963 267.5,-90.2 267.5,-90.2 267.5,-90.2 263.5611,-90.8963 266.8733,-86.655 259.6221,-91.5927 259.6221,-91.5927"/>
<ellipse fill="none" stroke="#000000" cx="256.471" cy="-92.1498" rx="3.2" ry="3.2"/>
</g>
</g>
</svg>
