<?xml version="1.0" encoding="UTF-8" standalone="no"?>
<!DOCTYPE svg PUBLIC "-//W3C//DTD SVG 1.1//EN"
 "http://www.w3.org/Graphics/SVG/1.1/DTD/svg11.dtd">
<!-- Generated by graphviz version 2.40.1 (20161225.0304)
 -->
<!-- Title: oneDegreeRelationshipsDiagram Pages: 1 -->
<svg width="337pt" height="259pt"
 viewBox="0.00 0.00 337.00 259.20" xmlns="http://www.w3.org/2000/svg" xmlns:xlink="http://www.w3.org/1999/xlink">
<g id="graph0" class="graph" transform="scale(1 1) rotate(0) translate(4 255.2)">
<title>oneDegreeRelationshipsDiagram</title>
<polygon fill="#ffffff" stroke="transparent" points="-4,4 -4,-255.2 333,-255.2 333,4 -4,4"/>
<text text-anchor="middle" x="72.4936" y="-7.3" font-family="Helvetica,sans-Serif" font-size="11.00" fill="#000000">Generated by SchemaSpy</text>
<!-- user_bans -->
<g id="node1" class="node">
<title>user_bans</title>
<g id="a_node1"><a xlink:href="../../tables/user_bans.html" xlink:title="user_bans" target="_top">
<polygon fill="#ffffff" stroke="transparent" points="145,-106.7 145,-240.7 321,-240.7 321,-106.7 145,-106.7"/>
<polygon fill="#f5f5f5" stroke="transparent" points="147,-215.7 147,-238.7 319,-238.7 319,-215.7 147,-215.7"/>
<polygon fill="none" stroke="#000000" points="147,-215.7 147,-238.7 319,-238.7 319,-215.7 147,-215.7"/>
<text text-anchor="start" x="152" y="-224.8" font-family="Helvetica,sans-Serif" font-weight="bold" font-size="11.00" fill="#000000">user_bans</text>
<text text-anchor="start" x="284.0437" y="-223.8" font-family="Helvetica,sans-Serif" font-size="11.00" fill="#000000">[table]</text>
<polygon fill="none" stroke="#000000" points="147,-193.7 147,-215.7 235,-215.7 235,-193.7 147,-193.7"/>
<text text-anchor="start" x="167" y="-200.8" font-family="Helvetica,sans-Serif" font-size="11.00" fill="#000000">created_at</text>
<polygon fill="none" stroke="#000000" points="235,-193.7 235,-215.7 319,-215.7 319,-193.7 235,-193.7"/>
<text text-anchor="start" x="237.8807" y="-201.4" font-family="Helvetica,sans-Serif" font-size="11.00" fill="#000000">timestamp[26,3]</text>
<polygon fill="none" stroke="#000000" points="147,-171.7 147,-193.7 235,-193.7 235,-171.7 147,-171.7"/>
<text text-anchor="start" x="167" y="-178.8" font-family="Helvetica,sans-Serif" font-size="11.00" fill="#000000">updated_at</text>
<polygon fill="none" stroke="#000000" points="235,-171.7 235,-193.7 319,-193.7 319,-171.7 235,-171.7"/>
<text text-anchor="start" x="237.8807" y="-179.4" font-family="Helvetica,sans-Serif" font-size="11.00" fill="#000000">timestamp[26,3]</text>
<polygon fill="none" stroke="#000000" points="147,-149.7 147,-171.7 235,-171.7 235,-149.7 147,-149.7"/>
<image xlink:href="../../images/primaryKeys.png" width="11px" height="12px" preserveAspectRatio="xMinYMin meet" x="152" y="-166.7"/>
<text text-anchor="start" x="167" y="-156.8" font-family="Helvetica,sans-Serif" font-size="11.00" fill="#000000">user_id</text>
<polygon fill="none" stroke="#000000" points="235,-149.7 235,-171.7 319,-171.7 319,-149.7 235,-149.7"/>
<text text-anchor="start" x="238" y="-157.4" font-family="Helvetica,sans-Serif" font-size="11.00" fill="#000000">int4[10]</text>
<polygon fill="none" stroke="#000000" points="147,-127.7 147,-149.7 235,-149.7 235,-127.7 147,-127.7"/>
<image xlink:href="../../images/primaryKeys.png" width="11px" height="12px" preserveAspectRatio="xMinYMin meet" x="152" y="-144.7"/>
<text text-anchor="start" x="167" y="-134.8" font-family="Helvetica,sans-Serif" font-size="11.00" fill="#000000">chapter_id</text>
<polygon fill="none" stroke="#000000" points="235,-127.7 235,-149.7 319,-149.7 319,-127.7 235,-127.7"/>
<text text-anchor="start" x="238" y="-135.4" font-family="Helvetica,sans-Serif" font-size="11.00" fill="#000000">int4[10]</text>
<polygon fill="#ffffff" stroke="transparent" points="147,-108.7 147,-127.7 182,-127.7 182,-108.7 147,-108.7"/>
<polygon fill="none" stroke="#000000" points="147,-108.7 147,-127.7 182,-127.7 182,-108.7 147,-108.7"/>
<text text-anchor="start" x="150" y="-114.8" font-family="Helvetica,sans-Serif" font-size="11.00" fill="#000000">&lt; 2</text>
<polygon fill="#ffffff" stroke="transparent" points="182,-108.7 182,-127.7 235,-127.7 235,-108.7 182,-108.7"/>
<polygon fill="none" stroke="#000000" points="182,-108.7 182,-127.7 235,-127.7 235,-108.7 182,-108.7"/>
<text text-anchor="start" x="199.6105" y="-114.8" font-family="Helvetica,sans-Serif" font-size="11.00" fill="#000000">0 rows</text>
<polygon fill="#ffffff" stroke="transparent" points="235,-108.7 235,-127.7 319,-127.7 319,-108.7 235,-108.7"/>
<polygon fill="none" stroke="#000000" points="235,-108.7 235,-127.7 319,-127.7 319,-108.7 235,-108.7"/>
<text text-anchor="start" x="300.4053" y="-114.8" font-family="Helvetica,sans-Serif" font-size="11.00" fill="#000000">0 &gt;</text>
<polygon fill="none" stroke="#000000" stroke-width="2" points="146,-107.7 146,-239.7 320,-239.7 320,-107.7 146,-107.7"/>
</a>
</g>
</g>
<!-- chapters -->
<g id="node2" class="node">
<title>chapters</title>
<g id="a_node2"><a xlink:href="../../tables/chapters.html" xlink:title="chapters" target="_top">
<polygon fill="#ffffff" stroke="transparent" points="8,-38.2 8,-121.2 96,-121.2 96,-38.2 8,-38.2"/>
<polygon fill="#f5f5f5" stroke="transparent" points="8,-97.7 8,-120.7 96,-120.7 96,-97.7 8,-97.7"/>
<polygon fill="none" stroke="#000000" points="8,-97.7 8,-120.7 96,-120.7 96,-97.7 8,-97.7"/>
<text text-anchor="start" x="13" y="-106.8" font-family="Helvetica,sans-Serif" font-weight="bold" font-size="11.00" fill="#000000">chapters</text>
<text text-anchor="start" x="61.0437" y="-105.8" font-family="Helvetica,sans-Serif" font-size="11.00" fill="#000000">[table]</text>
<polygon fill="none" stroke="#000000" points="8,-75.7 8,-97.7 96,-97.7 96,-75.7 8,-75.7"/>
<image xlink:href="../../images/primaryKeys.png" width="11px" height="12px" preserveAspectRatio="xMinYMin meet" x="13" y="-92.7"/>
<text text-anchor="start" x="28" y="-82.8" font-family="Helvetica,sans-Serif" font-size="11.00" fill="#000000">id</text>
<polygon fill="none" stroke="#000000" points="8,-56.7 8,-75.7 96,-75.7 96,-56.7 8,-56.7"/>
<text text-anchor="start" x="11" y="-62.8" font-family="Helvetica,sans-Serif" font-size="11.00" fill="#000000">...</text>
<polygon fill="#ffffff" stroke="transparent" points="8,-37.7 8,-56.7 28,-56.7 28,-37.7 8,-37.7"/>
<polygon fill="none" stroke="#000000" points="8,-37.7 8,-56.7 28,-56.7 28,-37.7 8,-37.7"/>
<text text-anchor="start" x="11" y="-43.8" font-family="Helvetica,sans-Serif" font-size="11.00" fill="#000000"> &#160;</text>
<polygon fill="#ffffff" stroke="transparent" points="28,-37.7 28,-56.7 70,-56.7 70,-37.7 28,-37.7"/>
<polygon fill="none" stroke="#000000" points="28,-37.7 28,-56.7 70,-56.7 70,-37.7 28,-37.7"/>
<text text-anchor="start" x="34.6105" y="-43.8" font-family="Helvetica,sans-Serif" font-size="11.00" fill="#000000">0 rows</text>
<polygon fill="#ffffff" stroke="transparent" points="70,-37.7 70,-56.7 96,-56.7 96,-37.7 70,-37.7"/>
<polygon fill="none" stroke="#000000" points="70,-37.7 70,-56.7 96,-56.7 96,-37.7 70,-37.7"/>
<text text-anchor="start" x="77.4053" y="-43.8" font-family="Helvetica,sans-Serif" font-size="11.00" fill="#000000">3 &gt;</text>
</a>
</g>
</g>
<!-- user_bans&#45;&gt;chapters -->
<g id="edge1" class="edge">
<title>user_bans:w&#45;&gt;chapters:e</title>
<path fill="none" stroke="#000000" d="M133.0468,-133.9012C118.161,-121.0281 122.3017,-86.7 96,-86.7"/>
<polygon fill="#000000" stroke="#000000" points="139.4349,-136.0982 145.8292,-142.1043 143.2175,-137.3991 147,-138.7 147,-138.7 147,-138.7 143.2175,-137.3991 148.1708,-135.2957 139.4349,-136.0982 139.4349,-136.0982"/>
<ellipse fill="none" stroke="#000000" cx="136.4089" cy="-135.0574" rx="3.2" ry="3.2"/>
</g>
<!-- users -->
<g id="node3" class="node">
<title>users</title>
<g id="a_node3"><a xlink:href="../../tables/users.html" xlink:title="users" target="_top">
<polygon fill="#ffffff" stroke="transparent" points="8,-142.2 8,-247.2 96,-247.2 96,-142.2 8,-142.2"/>
<polygon fill="#f5f5f5" stroke="transparent" points="8,-223.7 8,-246.7 96,-246.7 96,-223.7 8,-223.7"/>
<polygon fill="none" stroke="#000000" points="8,-223.7 8,-246.7 96,-246.7 96,-223.7 8,-223.7"/>
<text text-anchor="start" x="13" y="-232.8" font-family="Helvetica,sans-Serif" font-weight="bold" font-size="11.00" fill="#000000">users</text>
<text text-anchor="start" x="61.0437" y="-231.8" font-family="Helvetica,sans-Serif" font-size="11.00" fill="#000000">[table]</text>
<polygon fill="none" stroke="#000000" points="8,-201.7 8,-223.7 96,-223.7 96,-201.7 8,-201.7"/>
<image xlink:href="../../images/primaryKeys.png" width="11px" height="12px" preserveAspectRatio="xMinYMin meet" x="13" y="-218.7"/>
<text text-anchor="start" x="28" y="-208.8" font-family="Helvetica,sans-Serif" font-size="11.00" fill="#000000">id</text>
<polygon fill="#ffffff" stroke="transparent" points="8,-179.7 8,-201.7 96,-201.7 96,-179.7 8,-179.7"/>
<polygon fill="none" stroke="#000000" points="8,-179.7 8,-201.7 96,-201.7 96,-179.7 8,-179.7"/>
<text text-anchor="start" x="28" y="-186.8" font-family="Helvetica,sans-Serif" font-size="11.00" fill="#000000">email</text>
<polygon fill="none" stroke="#000000" points="8,-160.7 8,-179.7 96,-179.7 96,-160.7 8,-160.7"/>
<text text-anchor="start" x="11" y="-166.8" font-family="Helvetica,sans-Serif" font-size="11.00" fill="#000000">...</text>
<polygon fill="#ffffff" stroke="transparent" points="8,-141.7 8,-160.7 28,-160.7 28,-141.7 8,-141.7"/>
<polygon fill="none" stroke="#000000" points="8,-141.7 8,-160.7 28,-160.7 28,-141.7 8,-141.7"/>
<text text-anchor="start" x="11" y="-147.8" font-family="Helvetica,sans-Serif" font-size="11.00" fill="#000000"> &#160;</text>
<polygon fill="#ffffff" stroke="transparent" points="28,-141.7 28,-160.7 70,-160.7 70,-141.7 28,-141.7"/>
<polygon fill="none" stroke="#000000" points="28,-141.7 28,-160.7 70,-160.7 70,-141.7 28,-141.7"/>
<text text-anchor="start" x="34.6105" y="-147.8" font-family="Helvetica,sans-Serif" font-size="11.00" fill="#000000">0 rows</text>
<polygon fill="#ffffff" stroke="transparent" points="70,-141.7 70,-160.7 96,-160.7 96,-141.7 70,-141.7"/>
<polygon fill="none" stroke="#000000" points="70,-141.7 70,-160.7 96,-160.7 96,-141.7 70,-141.7"/>
<text text-anchor="start" x="77.4053" y="-147.8" font-family="Helvetica,sans-Serif" font-size="11.00" fill="#000000">6 &gt;</text>
</a>
</g>
</g>
<!-- user_bans&#45;&gt;users -->
<g id="edge2" class="edge">
<title>user_bans:w&#45;&gt;users:e</title>
<path fill="none" stroke="#000000" d="M133.0468,-165.4988C118.161,-178.3719 122.3017,-212.7 96,-212.7"/>
<polygon fill="#000000" stroke="#000000" points="139.4349,-163.3018 148.1708,-164.1043 143.2175,-162.0009 147,-160.7 147,-160.7 147,-160.7 143.2175,-162.0009 145.8292,-157.2957 139.4349,-163.3018 139.4349,-163.3018"/>
<ellipse fill="none" stroke="#000000" cx="136.4089" cy="-164.3426" rx="3.2" ry="3.2"/>
</g>
</g>
</svg>
