<?xml version="1.0" encoding="UTF-8" standalone="no"?>
<!DOCTYPE svg PUBLIC "-//W3C//DTD SVG 1.1//EN"
 "http://www.w3.org/Graphics/SVG/1.1/DTD/svg11.dtd">
<!-- Generated by graphviz version 2.40.1 (20161225.0304)
 -->
<!-- Title: oneDegreeRelationshipsDiagram Pages: 1 -->
<svg width="396pt" height="685pt"
 viewBox="0.00 0.00 396.00 684.70" xmlns="http://www.w3.org/2000/svg" xmlns:xlink="http://www.w3.org/1999/xlink">
<g id="graph0" class="graph" transform="scale(1 1) rotate(0) translate(4 680.7)">
<title>oneDegreeRelationshipsDiagram</title>
<polygon fill="#ffffff" stroke="transparent" points="-4,4 -4,-680.7 392,-680.7 392,4 -4,4"/>
<text text-anchor="middle" x="72.4936" y="-7.3" font-family="Helvetica,sans-Serif" font-size="11.00" fill="#000000">Generated by SchemaSpy</text>
<!-- rsvps -->
<g id="node1" class="node">
<title>rsvps</title>
<g id="a_node1"><a xlink:href="../../tables/rsvps.html" xlink:title="rsvps" target="_top">
<polygon fill="#ffffff" stroke="transparent" points="259.5,-567.7 259.5,-672.7 359.5,-672.7 359.5,-567.7 259.5,-567.7"/>
<polygon fill="#f5f5f5" stroke="transparent" points="259.5,-649.2 259.5,-672.2 359.5,-672.2 359.5,-649.2 259.5,-649.2"/>
<polygon fill="none" stroke="#000000" points="259.5,-649.2 259.5,-672.2 359.5,-672.2 359.5,-649.2 259.5,-649.2"/>
<text text-anchor="start" x="264.5" y="-658.3" font-family="Helvetica,sans-Serif" font-weight="bold" font-size="11.00" fill="#000000">rsvps</text>
<text text-anchor="start" x="324.5437" y="-657.3" font-family="Helvetica,sans-Serif" font-size="11.00" fill="#000000">[table]</text>
<polygon fill="none" stroke="#000000" points="259.5,-627.2 259.5,-649.2 359.5,-649.2 359.5,-627.2 259.5,-627.2"/>
<image xlink:href="../../images/primaryKeys.png" width="11px" height="12px" preserveAspectRatio="xMinYMin meet" x="264.5" y="-644.2"/>
<text text-anchor="start" x="279.5" y="-634.3" font-family="Helvetica,sans-Serif" font-size="11.00" fill="#000000">user_id</text>
<polygon fill="none" stroke="#000000" points="259.5,-605.2 259.5,-627.2 359.5,-627.2 359.5,-605.2 259.5,-605.2"/>
<image xlink:href="../../images/primaryKeys.png" width="11px" height="12px" preserveAspectRatio="xMinYMin meet" x="264.5" y="-622.2"/>
<text text-anchor="start" x="279.5" y="-612.3" font-family="Helvetica,sans-Serif" font-size="11.00" fill="#000000">event_id</text>
<polygon fill="none" stroke="#000000" points="259.5,-586.2 259.5,-605.2 359.5,-605.2 359.5,-586.2 259.5,-586.2"/>
<text text-anchor="start" x="262.5" y="-592.3" font-family="Helvetica,sans-Serif" font-size="11.00" fill="#000000">...</text>
<polygon fill="#ffffff" stroke="transparent" points="259.5,-567.2 259.5,-586.2 294.5,-586.2 294.5,-567.2 259.5,-567.2"/>
<polygon fill="none" stroke="#000000" points="259.5,-567.2 259.5,-586.2 294.5,-586.2 294.5,-567.2 259.5,-567.2"/>
<text text-anchor="start" x="262.5" y="-573.3" font-family="Helvetica,sans-Serif" font-size="11.00" fill="#000000">&lt; 2</text>
<polygon fill="#ffffff" stroke="transparent" points="294.5,-567.2 294.5,-586.2 339.5,-586.2 339.5,-567.2 294.5,-567.2"/>
<polygon fill="none" stroke="#000000" points="294.5,-567.2 294.5,-586.2 339.5,-586.2 339.5,-567.2 294.5,-567.2"/>
<text text-anchor="start" x="304.1105" y="-573.3" font-family="Helvetica,sans-Serif" font-size="11.00" fill="#000000">0 rows</text>
<polygon fill="#ffffff" stroke="transparent" points="339.5,-567.2 339.5,-586.2 359.5,-586.2 359.5,-567.2 339.5,-567.2"/>
<polygon fill="none" stroke="#000000" points="339.5,-567.2 339.5,-586.2 359.5,-586.2 359.5,-567.2 339.5,-567.2"/>
<text text-anchor="start" x="350.3862" y="-573.3" font-family="Helvetica,sans-Serif" font-size="11.00" fill="#000000"> &#160;</text>
</a>
</g>
</g>
<!-- users -->
<g id="node2" class="node">
<title>users</title>
<g id="a_node2"><a xlink:href="../../tables/users.html" xlink:title="users" target="_top">
<polygon fill="#ffffff" stroke="transparent" points="8,-288.2 8,-466.2 190,-466.2 190,-288.2 8,-288.2"/>
<polygon fill="#f5f5f5" stroke="transparent" points="10,-441.2 10,-464.2 188,-464.2 188,-441.2 10,-441.2"/>
<polygon fill="none" stroke="#000000" points="10,-441.2 10,-464.2 188,-464.2 188,-441.2 10,-441.2"/>
<text text-anchor="start" x="15" y="-450.3" font-family="Helvetica,sans-Serif" font-weight="bold" font-size="11.00" fill="#000000">users</text>
<text text-anchor="start" x="153.0437" y="-449.3" font-family="Helvetica,sans-Serif" font-size="11.00" fill="#000000">[table]</text>
<polygon fill="none" stroke="#000000" points="10,-419.2 10,-441.2 98,-441.2 98,-419.2 10,-419.2"/>
<text text-anchor="start" x="30" y="-426.3" font-family="Helvetica,sans-Serif" font-size="11.00" fill="#000000">created_at</text>
<polygon fill="none" stroke="#000000" points="98,-419.2 98,-441.2 188,-441.2 188,-419.2 98,-419.2"/>
<text text-anchor="start" x="101" y="-426.9" font-family="Helvetica,sans-Serif" font-size="11.00" fill="#000000">timestamp[26,3]</text>
<polygon fill="none" stroke="#000000" points="10,-397.2 10,-419.2 98,-419.2 98,-397.2 10,-397.2"/>
<text text-anchor="start" x="30" y="-404.3" font-family="Helvetica,sans-Serif" font-size="11.00" fill="#000000">updated_at</text>
<polygon fill="none" stroke="#000000" points="98,-397.2 98,-419.2 188,-419.2 188,-397.2 98,-397.2"/>
<text text-anchor="start" x="101" y="-404.9" font-family="Helvetica,sans-Serif" font-size="11.00" fill="#000000">timestamp[26,3]</text>
<polygon fill="none" stroke="#000000" points="10,-375.2 10,-397.2 98,-397.2 98,-375.2 10,-375.2"/>
<image xlink:href="../../images/primaryKeys.png" width="11px" height="12px" preserveAspectRatio="xMinYMin meet" x="15" y="-392.2"/>
<text text-anchor="start" x="30" y="-382.3" font-family="Helvetica,sans-Serif" font-size="11.00" fill="#000000">id</text>
<polygon fill="none" stroke="#000000" points="98,-375.2 98,-397.2 188,-397.2 188,-375.2 98,-375.2"/>
<text text-anchor="start" x="101" y="-382.9" font-family="Helvetica,sans-Serif" font-size="11.00" fill="#000000">serial[10]</text>
<polygon fill="none" stroke="#000000" points="10,-353.2 10,-375.2 98,-375.2 98,-353.2 10,-353.2"/>
<text text-anchor="start" x="30" y="-360.3" font-family="Helvetica,sans-Serif" font-size="11.00" fill="#000000">first_name</text>
<polygon fill="none" stroke="#000000" points="98,-353.2 98,-375.2 188,-375.2 188,-353.2 98,-353.2"/>
<text text-anchor="start" x="100.5042" y="-360.9" font-family="Helvetica,sans-Serif" font-size="11.00" fill="#000000">text[2147483647]</text>
<polygon fill="none" stroke="#000000" points="10,-331.2 10,-353.2 98,-353.2 98,-331.2 10,-331.2"/>
<text text-anchor="start" x="30" y="-338.3" font-family="Helvetica,sans-Serif" font-size="11.00" fill="#000000">last_name</text>
<polygon fill="none" stroke="#000000" points="98,-331.2 98,-353.2 188,-353.2 188,-331.2 98,-331.2"/>
<text text-anchor="start" x="100.5042" y="-338.9" font-family="Helvetica,sans-Serif" font-size="11.00" fill="#000000">text[2147483647]</text>
<polygon fill="#ffffff" stroke="transparent" points="10,-309.2 10,-331.2 98,-331.2 98,-309.2 10,-309.2"/>
<polygon fill="none" stroke="#000000" points="10,-309.2 10,-331.2 98,-331.2 98,-309.2 10,-309.2"/>
<text text-anchor="start" x="30" y="-316.3" font-family="Helvetica,sans-Serif" font-size="11.00" fill="#000000">email</text>
<polygon fill="none" stroke="#000000" points="98,-309.2 98,-331.2 188,-331.2 188,-309.2 98,-309.2"/>
<text text-anchor="start" x="100.5042" y="-316.9" font-family="Helvetica,sans-Serif" font-size="11.00" fill="#000000">text[2147483647]</text>
<polygon fill="#ffffff" stroke="transparent" points="10,-290.2 10,-309.2 45,-309.2 45,-290.2 10,-290.2"/>
<polygon fill="none" stroke="#000000" points="10,-290.2 10,-309.2 45,-309.2 45,-290.2 10,-290.2"/>
<text text-anchor="start" x="13" y="-296.3" font-family="Helvetica,sans-Serif" font-size="11.00" fill="#000000">&lt; 0</text>
<polygon fill="#ffffff" stroke="transparent" points="45,-290.2 45,-309.2 98,-309.2 98,-290.2 45,-290.2"/>
<polygon fill="none" stroke="#000000" points="45,-290.2 45,-309.2 98,-309.2 98,-290.2 45,-290.2"/>
<text text-anchor="start" x="62.6105" y="-296.3" font-family="Helvetica,sans-Serif" font-size="11.00" fill="#000000">0 rows</text>
<polygon fill="#ffffff" stroke="transparent" points="98,-290.2 98,-309.2 188,-309.2 188,-290.2 98,-290.2"/>
<polygon fill="none" stroke="#000000" points="98,-290.2 98,-309.2 188,-309.2 188,-290.2 98,-290.2"/>
<text text-anchor="start" x="169.4053" y="-296.3" font-family="Helvetica,sans-Serif" font-size="11.00" fill="#000000">5 &gt;</text>
<polygon fill="none" stroke="#000000" stroke-width="2" points="9,-289.2 9,-465.2 189,-465.2 189,-289.2 9,-289.2"/>
</a>
</g>
</g>
<!-- rsvps&#45;&gt;users -->
<g id="edge1" class="edge">
<title>rsvps:w&#45;&gt;users:e</title>
<path fill="none" stroke="#000000" d="M246.1583,-632.4631C208.5288,-594.9529 240.9806,-386.2 188,-386.2"/>
<polygon fill="#000000" stroke="#000000" points="252.1506,-635.0398 258.0779,-641.5072 255.8253,-636.6199 259.5,-638.2 259.5,-638.2 259.5,-638.2 255.8253,-636.6199 260.9221,-634.8928 252.1506,-635.0398 252.1506,-635.0398"/>
<ellipse fill="none" stroke="#000000" cx="249.2109" cy="-633.7757" rx="3.2" ry="3.2"/>
</g>
<!-- user_bans -->
<g id="node3" class="node">
<title>user_bans</title>
<g id="a_node3"><a xlink:href="../../tables/user_bans.html" xlink:title="user_bans" target="_top">
<polygon fill="#ffffff" stroke="transparent" points="262.5,-441.7 262.5,-546.7 356.5,-546.7 356.5,-441.7 262.5,-441.7"/>
<polygon fill="#f5f5f5" stroke="transparent" points="262.5,-523.2 262.5,-546.2 356.5,-546.2 356.5,-523.2 262.5,-523.2"/>
<polygon fill="none" stroke="#000000" points="262.5,-523.2 262.5,-546.2 356.5,-546.2 356.5,-523.2 262.5,-523.2"/>
<text text-anchor="start" x="267.3244" y="-532.3" font-family="Helvetica,sans-Serif" font-weight="bold" font-size="11.00" fill="#000000">user_bans</text>
<text text-anchor="start" x="322.0219" y="-531.3" font-family="Helvetica,sans-Serif" font-size="11.00" fill="#000000">[table]</text>
<polygon fill="none" stroke="#000000" points="262.5,-501.2 262.5,-523.2 356.5,-523.2 356.5,-501.2 262.5,-501.2"/>
<image xlink:href="../../images/primaryKeys.png" width="11px" height="12px" preserveAspectRatio="xMinYMin meet" x="267.5" y="-518.2"/>
<text text-anchor="start" x="285.5" y="-508.3" font-family="Helvetica,sans-Serif" font-size="11.00" fill="#000000">user_id</text>
<polygon fill="none" stroke="#000000" points="262.5,-479.2 262.5,-501.2 356.5,-501.2 356.5,-479.2 262.5,-479.2"/>
<image xlink:href="../../images/primaryKeys.png" width="11px" height="12px" preserveAspectRatio="xMinYMin meet" x="267.5" y="-496.2"/>
<text text-anchor="start" x="285.5" y="-486.3" font-family="Helvetica,sans-Serif" font-size="11.00" fill="#000000">chapter_id</text>
<polygon fill="none" stroke="#000000" points="262.5,-460.2 262.5,-479.2 356.5,-479.2 356.5,-460.2 262.5,-460.2"/>
<text text-anchor="start" x="265.5" y="-466.3" font-family="Helvetica,sans-Serif" font-size="11.00" fill="#000000">...</text>
<polygon fill="#ffffff" stroke="transparent" points="262.5,-441.2 262.5,-460.2 294.5,-460.2 294.5,-441.2 262.5,-441.2"/>
<polygon fill="none" stroke="#000000" points="262.5,-441.2 262.5,-460.2 294.5,-460.2 294.5,-441.2 262.5,-441.2"/>
<text text-anchor="start" x="265.5" y="-447.3" font-family="Helvetica,sans-Serif" font-size="11.00" fill="#000000">&lt; 2</text>
<polygon fill="#ffffff" stroke="transparent" points="294.5,-441.2 294.5,-460.2 338.5,-460.2 338.5,-441.2 294.5,-441.2"/>
<polygon fill="none" stroke="#000000" points="294.5,-441.2 294.5,-460.2 338.5,-460.2 338.5,-441.2 294.5,-441.2"/>
<text text-anchor="start" x="303.1105" y="-447.3" font-family="Helvetica,sans-Serif" font-size="11.00" fill="#000000">0 rows</text>
<polygon fill="#ffffff" stroke="transparent" points="338.5,-441.2 338.5,-460.2 356.5,-460.2 356.5,-441.2 338.5,-441.2"/>
<polygon fill="none" stroke="#000000" points="338.5,-441.2 338.5,-460.2 356.5,-460.2 356.5,-441.2 338.5,-441.2"/>
<text text-anchor="start" x="347.3862" y="-447.3" font-family="Helvetica,sans-Serif" font-size="11.00" fill="#000000"> &#160;</text>
</a>
</g>
</g>
<!-- user_bans&#45;&gt;users -->
<g id="edge2" class="edge">
<title>user_bans:w&#45;&gt;users:e</title>
<path fill="none" stroke="#000000" d="M248.248,-509.5683C206.1108,-491.4743 247.4657,-386.2 188,-386.2"/>
<polygon fill="#000000" stroke="#000000" points="254.633,-510.7473 261.8463,-515.7402 258.5665,-511.4736 262.5,-512.2 262.5,-512.2 262.5,-512.2 258.5665,-511.4736 263.1537,-508.6598 254.633,-510.7473 254.633,-510.7473"/>
<ellipse fill="none" stroke="#000000" cx="251.4862" cy="-510.1662" rx="3.2" ry="3.2"/>
</g>
<!-- user_chapter_roles -->
<g id="node4" class="node">
<title>user_chapter_roles</title>
<g id="a_node4"><a xlink:href="../../tables/user_chapter_roles.html" xlink:title="user_chapter_roles" target="_top">
<polygon fill="#ffffff" stroke="transparent" points="241,-293.7 241,-420.7 378,-420.7 378,-293.7 241,-293.7"/>
<polygon fill="#f5f5f5" stroke="transparent" points="241.5,-397.2 241.5,-420.2 378.5,-420.2 378.5,-397.2 241.5,-397.2"/>
<polygon fill="none" stroke="#000000" points="241.5,-397.2 241.5,-420.2 378.5,-420.2 378.5,-397.2 241.5,-397.2"/>
<text text-anchor="start" x="246.4338" y="-406.3" font-family="Helvetica,sans-Serif" font-weight="bold" font-size="11.00" fill="#000000">user_chapter_roles</text>
<text text-anchor="start" x="344.0219" y="-405.3" font-family="Helvetica,sans-Serif" font-size="11.00" fill="#000000">[table]</text>
<polygon fill="none" stroke="#000000" points="241.5,-375.2 241.5,-397.2 378.5,-397.2 378.5,-375.2 241.5,-375.2"/>
<image xlink:href="../../images/primaryKeys.png" width="11px" height="12px" preserveAspectRatio="xMinYMin meet" x="246.5" y="-392.2"/>
<text text-anchor="start" x="263.5" y="-382.3" font-family="Helvetica,sans-Serif" font-size="11.00" fill="#000000">user_id</text>
<polygon fill="none" stroke="#000000" points="241.5,-353.2 241.5,-375.2 378.5,-375.2 378.5,-353.2 241.5,-353.2"/>
<image xlink:href="../../images/primaryKeys.png" width="11px" height="12px" preserveAspectRatio="xMinYMin meet" x="246.5" y="-370.2"/>
<text text-anchor="start" x="263.5" y="-360.3" font-family="Helvetica,sans-Serif" font-size="11.00" fill="#000000">chapter_id</text>
<polygon fill="none" stroke="#000000" points="241.5,-331.2 241.5,-353.2 378.5,-353.2 378.5,-331.2 241.5,-331.2"/>
<image xlink:href="../../images/primaryKeys.png" width="11px" height="12px" preserveAspectRatio="xMinYMin meet" x="246.5" y="-348.2"/>
<text text-anchor="start" x="263.5" y="-338.3" font-family="Helvetica,sans-Serif" font-size="11.00" fill="#000000">role_name</text>
<polygon fill="none" stroke="#000000" points="241.5,-312.2 241.5,-331.2 378.5,-331.2 378.5,-312.2 241.5,-312.2"/>
<text text-anchor="start" x="244.5" y="-318.3" font-family="Helvetica,sans-Serif" font-size="11.00" fill="#000000">...</text>
<polygon fill="#ffffff" stroke="transparent" points="241.5,-293.2 241.5,-312.2 295.5,-312.2 295.5,-293.2 241.5,-293.2"/>
<polygon fill="none" stroke="#000000" points="241.5,-293.2 241.5,-312.2 295.5,-312.2 295.5,-293.2 241.5,-293.2"/>
<text text-anchor="start" x="244.5" y="-299.3" font-family="Helvetica,sans-Serif" font-size="11.00" fill="#000000">&lt; 2</text>
<polygon fill="#ffffff" stroke="transparent" points="295.5,-293.2 295.5,-312.2 349.5,-312.2 349.5,-293.2 295.5,-293.2"/>
<polygon fill="none" stroke="#000000" points="295.5,-293.2 295.5,-312.2 349.5,-312.2 349.5,-293.2 295.5,-293.2"/>
<text text-anchor="start" x="314.1105" y="-299.3" font-family="Helvetica,sans-Serif" font-size="11.00" fill="#000000">0 rows</text>
<polygon fill="#ffffff" stroke="transparent" points="349.5,-293.2 349.5,-312.2 378.5,-312.2 378.5,-293.2 349.5,-293.2"/>
<polygon fill="none" stroke="#000000" points="349.5,-293.2 349.5,-312.2 378.5,-312.2 378.5,-293.2 349.5,-293.2"/>
<text text-anchor="start" x="369.3862" y="-299.3" font-family="Helvetica,sans-Serif" font-size="11.00" fill="#000000"> &#160;</text>
</a>
</g>
</g>
<!-- user_chapter_roles&#45;&gt;users -->
<g id="edge3" class="edge">
<title>user_chapter_roles:w&#45;&gt;users:e</title>
<path fill="none" stroke="#000000" d="M226.8553,-386.2C213.7969,-386.2 206.0191,-386.2 188,-386.2"/>
<polygon fill="#000000" stroke="#000000" points="233.5,-386.2001 241.5,-389.8 237.5,-386.2 241.5,-386.2 241.5,-386.2 241.5,-386.2 237.5,-386.2 241.5,-382.6 233.5,-386.2001 233.5,-386.2001"/>
<ellipse fill="none" stroke="#000000" cx="230.3" cy="-386.2001" rx="3.2" ry="3.2"/>
</g>
<!-- user_event_roles -->
<g id="node5" class="node">
<title>user_event_roles</title>
<g id="a_node5"><a xlink:href="../../tables/user_event_roles.html" xlink:title="user_event_roles" target="_top">
<polygon fill="#ffffff" stroke="transparent" points="246,-145.7 246,-272.7 373,-272.7 373,-145.7 246,-145.7"/>
<polygon fill="#f5f5f5" stroke="transparent" points="246.5,-249.2 246.5,-272.2 373.5,-272.2 373.5,-249.2 246.5,-249.2"/>
<polygon fill="none" stroke="#000000" points="246.5,-249.2 246.5,-272.2 373.5,-272.2 373.5,-249.2 246.5,-249.2"/>
<text text-anchor="start" x="251.3222" y="-258.3" font-family="Helvetica,sans-Serif" font-weight="bold" font-size="11.00" fill="#000000">user_event_roles</text>
<text text-anchor="start" x="339.0219" y="-257.3" font-family="Helvetica,sans-Serif" font-size="11.00" fill="#000000">[table]</text>
<polygon fill="none" stroke="#000000" points="246.5,-227.2 246.5,-249.2 373.5,-249.2 373.5,-227.2 246.5,-227.2"/>
<image xlink:href="../../images/primaryKeys.png" width="11px" height="12px" preserveAspectRatio="xMinYMin meet" x="251.5" y="-244.2"/>
<text text-anchor="start" x="270.5" y="-234.3" font-family="Helvetica,sans-Serif" font-size="11.00" fill="#000000">user_id</text>
<polygon fill="none" stroke="#000000" points="246.5,-205.2 246.5,-227.2 373.5,-227.2 373.5,-205.2 246.5,-205.2"/>
<image xlink:href="../../images/primaryKeys.png" width="11px" height="12px" preserveAspectRatio="xMinYMin meet" x="251.5" y="-222.2"/>
<text text-anchor="start" x="270.5" y="-212.3" font-family="Helvetica,sans-Serif" font-size="11.00" fill="#000000">event_id</text>
<polygon fill="none" stroke="#000000" points="246.5,-183.2 246.5,-205.2 373.5,-205.2 373.5,-183.2 246.5,-183.2"/>
<image xlink:href="../../images/primaryKeys.png" width="11px" height="12px" preserveAspectRatio="xMinYMin meet" x="251.5" y="-200.2"/>
<text text-anchor="start" x="270.5" y="-190.3" font-family="Helvetica,sans-Serif" font-size="11.00" fill="#000000">role_name</text>
<polygon fill="none" stroke="#000000" points="246.5,-164.2 246.5,-183.2 373.5,-183.2 373.5,-164.2 246.5,-164.2"/>
<text text-anchor="start" x="249.5" y="-170.3" font-family="Helvetica,sans-Serif" font-size="11.00" fill="#000000">...</text>
<polygon fill="#ffffff" stroke="transparent" points="246.5,-145.2 246.5,-164.2 295.5,-164.2 295.5,-145.2 246.5,-145.2"/>
<polygon fill="none" stroke="#000000" points="246.5,-145.2 246.5,-164.2 295.5,-164.2 295.5,-145.2 246.5,-145.2"/>
<text text-anchor="start" x="249.5" y="-151.3" font-family="Helvetica,sans-Serif" font-size="11.00" fill="#000000">&lt; 2</text>
<polygon fill="#ffffff" stroke="transparent" points="295.5,-145.2 295.5,-164.2 347.5,-164.2 347.5,-145.2 295.5,-145.2"/>
<polygon fill="none" stroke="#000000" points="295.5,-145.2 295.5,-164.2 347.5,-164.2 347.5,-145.2 295.5,-145.2"/>
<text text-anchor="start" x="312.1105" y="-151.3" font-family="Helvetica,sans-Serif" font-size="11.00" fill="#000000">0 rows</text>
<polygon fill="#ffffff" stroke="transparent" points="347.5,-145.2 347.5,-164.2 373.5,-164.2 373.5,-145.2 347.5,-145.2"/>
<polygon fill="none" stroke="#000000" points="347.5,-145.2 347.5,-164.2 373.5,-164.2 373.5,-145.2 347.5,-145.2"/>
<text text-anchor="start" x="364.3862" y="-151.3" font-family="Helvetica,sans-Serif" font-size="11.00" fill="#000000"> &#160;</text>
</a>
</g>
</g>
<!-- user_event_roles&#45;&gt;users -->
<g id="edge4" class="edge">
<title>user_event_roles:w&#45;&gt;users:e</title>
<path fill="none" stroke="#000000" d="M232.307,-240.8952C188.0711,-260.9541 253.066,-386.2 188,-386.2"/>
<polygon fill="#000000" stroke="#000000" points="238.6405,-239.6925 247.1716,-241.7368 242.5702,-238.9463 246.5,-238.2 246.5,-238.2 246.5,-238.2 242.5702,-238.9463 245.8284,-234.6632 238.6405,-239.6925 238.6405,-239.6925"/>
<ellipse fill="none" stroke="#000000" cx="235.4966" cy="-240.2895" rx="3.2" ry="3.2"/>
</g>
<!-- user_instance_roles -->
<g id="node6" class="node">
<title>user_instance_roles</title>
<g id="a_node6"><a xlink:href="../../tables/user_instance_roles.html" xlink:title="user_instance_roles" target="_top">
<polygon fill="#ffffff" stroke="transparent" points="239,-38.2 239,-124.2 380,-124.2 380,-38.2 239,-38.2"/>
<polygon fill="#f5f5f5" stroke="transparent" points="239.5,-101.2 239.5,-124.2 380.5,-124.2 380.5,-101.2 239.5,-101.2"/>
<polygon fill="none" stroke="#000000" points="239.5,-101.2 239.5,-124.2 380.5,-124.2 380.5,-101.2 239.5,-101.2"/>
<text text-anchor="start" x="244.2943" y="-110.3" font-family="Helvetica,sans-Serif" font-weight="bold" font-size="11.00" fill="#000000">user_instance_roles</text>
<text text-anchor="start" x="346.0219" y="-109.3" font-family="Helvetica,sans-Serif" font-size="11.00" fill="#000000">[table]</text>
<polygon fill="none" stroke="#000000" points="239.5,-79.2 239.5,-101.2 380.5,-101.2 380.5,-79.2 239.5,-79.2"/>
<image xlink:href="../../images/primaryKeys.png" width="11px" height="12px" preserveAspectRatio="xMinYMin meet" x="244.5" y="-96.2"/>
<text text-anchor="start" x="261.5" y="-86.3" font-family="Helvetica,sans-Serif" font-size="11.00" fill="#000000">user_id</text>
<polygon fill="none" stroke="#000000" points="239.5,-57.2 239.5,-79.2 380.5,-79.2 380.5,-57.2 239.5,-57.2"/>
<image xlink:href="../../images/primaryKeys.png" width="11px" height="12px" preserveAspectRatio="xMinYMin meet" x="244.5" y="-74.2"/>
<text text-anchor="start" x="261.5" y="-64.3" font-family="Helvetica,sans-Serif" font-size="11.00" fill="#000000">role_name</text>
<polygon fill="#ffffff" stroke="transparent" points="239.5,-38.2 239.5,-57.2 295.5,-57.2 295.5,-38.2 239.5,-38.2"/>
<polygon fill="none" stroke="#000000" points="239.5,-38.2 239.5,-57.2 295.5,-57.2 295.5,-38.2 239.5,-38.2"/>
<text text-anchor="start" x="242.5" y="-44.3" font-family="Helvetica,sans-Serif" font-size="11.00" fill="#000000">&lt; 1</text>
<polygon fill="#ffffff" stroke="transparent" points="295.5,-38.2 295.5,-57.2 350.5,-57.2 350.5,-38.2 295.5,-38.2"/>
<polygon fill="none" stroke="#000000" points="295.5,-38.2 295.5,-57.2 350.5,-57.2 350.5,-38.2 295.5,-38.2"/>
<text text-anchor="start" x="315.1105" y="-44.3" font-family="Helvetica,sans-Serif" font-size="11.00" fill="#000000">0 rows</text>
<polygon fill="#ffffff" stroke="transparent" points="350.5,-38.2 350.5,-57.2 380.5,-57.2 380.5,-38.2 350.5,-38.2"/>
<polygon fill="none" stroke="#000000" points="350.5,-38.2 350.5,-57.2 380.5,-57.2 380.5,-38.2 350.5,-38.2"/>
<text text-anchor="start" x="371.3862" y="-44.3" font-family="Helvetica,sans-Serif" font-size="11.00" fill="#000000"> &#160;</text>
</a>
</g>
</g>
<!-- user_instance_roles&#45;&gt;users -->
<g id="edge5" class="edge">
<title>user_instance_roles:w&#45;&gt;users:e</title>
<path fill="none" stroke="#000000" d="M225.9089,-95.8487C185.1911,-136.7707 249.2891,-386.2 188,-386.2"/>
<polygon fill="#000000" stroke="#000000" points="232.1126,-93.2703 240.8817,-93.5243 235.8063,-91.7352 239.5,-90.2 239.5,-90.2 239.5,-90.2 235.8063,-91.7352 238.1183,-86.8757 232.1126,-93.2703 232.1126,-93.2703"/>
<ellipse fill="none" stroke="#000000" cx="229.1577" cy="-94.4985" rx="3.2" ry="3.2"/>
</g>
</g>
</svg>
