<?xml version="1.0" encoding="UTF-8" standalone="no"?>
<!DOCTYPE svg PUBLIC "-//W3C//DTD SVG 1.1//EN"
 "http://www.w3.org/Graphics/SVG/1.1/DTD/svg11.dtd">
<!-- Generated by graphviz version 2.40.1 (20161225.0304)
 -->
<!-- Title: twoDegreesRelationshipsDiagram Pages: 1 -->
<svg width="703pt" height="516pt"
 viewBox="0.00 0.00 703.00 515.85" xmlns="http://www.w3.org/2000/svg" xmlns:xlink="http://www.w3.org/1999/xlink">
<g id="graph0" class="graph" transform="scale(1 1) rotate(0) translate(4 511.8504)">
<title>twoDegreesRelationshipsDiagram</title>
<polygon fill="#ffffff" stroke="transparent" points="-4,4 -4,-511.8504 699,-511.8504 699,4 -4,4"/>
<text text-anchor="middle" x="72.4936" y="-7.3" font-family="Helvetica,sans-Serif" font-size="11.00" fill="#000000">Generated by SchemaSpy</text>
<!-- chapters -->
<g id="node1" class="node">
<title>chapters</title>
<g id="a_node1"><a xlink:href="../../tables/chapters.html" xlink:title="chapters" target="_top">
<polygon fill="#ffffff" stroke="transparent" points="171.5,-193.2 171.5,-298.2 259.5,-298.2 259.5,-193.2 171.5,-193.2"/>
<polygon fill="#f5f5f5" stroke="transparent" points="171.5,-274.7 171.5,-297.7 259.5,-297.7 259.5,-274.7 171.5,-274.7"/>
<polygon fill="none" stroke="#000000" points="171.5,-274.7 171.5,-297.7 259.5,-297.7 259.5,-274.7 171.5,-274.7"/>
<text text-anchor="start" x="176.5" y="-283.8" font-family="Helvetica,sans-Serif" font-weight="bold" font-size="11.00" fill="#000000">chapters</text>
<text text-anchor="start" x="224.5437" y="-282.8" font-family="Helvetica,sans-Serif" font-size="11.00" fill="#000000">[table]</text>
<polygon fill="none" stroke="#000000" points="171.5,-252.7 171.5,-274.7 259.5,-274.7 259.5,-252.7 171.5,-252.7"/>
<image xlink:href="../../images/primaryKeys.png" width="11px" height="12px" preserveAspectRatio="xMinYMin meet" x="176.5" y="-269.7"/>
<text text-anchor="start" x="191.5" y="-259.8" font-family="Helvetica,sans-Serif" font-size="11.00" fill="#000000">id</text>
<polygon fill="none" stroke="#000000" points="171.5,-230.7 171.5,-252.7 259.5,-252.7 259.5,-230.7 171.5,-230.7"/>
<image xlink:href="../../images/foreignKeys.png" width="11px" height="12px" preserveAspectRatio="xMinYMin meet" x="176.5" y="-247.7"/>
<text text-anchor="start" x="191.5" y="-237.8" font-family="Helvetica,sans-Serif" font-size="11.00" fill="#000000">creator_id</text>
<polygon fill="none" stroke="#000000" points="171.5,-211.7 171.5,-230.7 259.5,-230.7 259.5,-211.7 171.5,-211.7"/>
<text text-anchor="start" x="174.5" y="-217.8" font-family="Helvetica,sans-Serif" font-size="11.00" fill="#000000">...</text>
<polygon fill="#ffffff" stroke="transparent" points="171.5,-192.7 171.5,-211.7 196.5,-211.7 196.5,-192.7 171.5,-192.7"/>
<polygon fill="none" stroke="#000000" points="171.5,-192.7 171.5,-211.7 196.5,-211.7 196.5,-192.7 171.5,-192.7"/>
<text text-anchor="start" x="174.5" y="-198.8" font-family="Helvetica,sans-Serif" font-size="11.00" fill="#000000">&lt; 1</text>
<polygon fill="#ffffff" stroke="transparent" points="196.5,-192.7 196.5,-211.7 236.5,-211.7 236.5,-192.7 196.5,-192.7"/>
<polygon fill="none" stroke="#000000" points="196.5,-192.7 196.5,-211.7 236.5,-211.7 236.5,-192.7 196.5,-192.7"/>
<text text-anchor="start" x="201.1105" y="-198.8" font-family="Helvetica,sans-Serif" font-size="11.00" fill="#000000">0 rows</text>
<polygon fill="#ffffff" stroke="transparent" points="236.5,-192.7 236.5,-211.7 259.5,-211.7 259.5,-192.7 236.5,-192.7"/>
<polygon fill="none" stroke="#000000" points="236.5,-192.7 236.5,-211.7 259.5,-211.7 259.5,-192.7 236.5,-192.7"/>
<text text-anchor="start" x="240.9053" y="-198.8" font-family="Helvetica,sans-Serif" font-size="11.00" fill="#000000">3 &gt;</text>
</a>
</g>
</g>
<!-- users -->
<g id="node2" class="node">
<title>users</title>
<g id="a_node2"><a xlink:href="../../tables/users.html" xlink:title="users" target="_top">
<polygon fill="#ffffff" stroke="transparent" points="8,-134.2 8,-239.2 96,-239.2 96,-134.2 8,-134.2"/>
<polygon fill="#f5f5f5" stroke="transparent" points="8,-215.7 8,-238.7 96,-238.7 96,-215.7 8,-215.7"/>
<polygon fill="none" stroke="#000000" points="8,-215.7 8,-238.7 96,-238.7 96,-215.7 8,-215.7"/>
<text text-anchor="start" x="13" y="-224.8" font-family="Helvetica,sans-Serif" font-weight="bold" font-size="11.00" fill="#000000">users</text>
<text text-anchor="start" x="61.0437" y="-223.8" font-family="Helvetica,sans-Serif" font-size="11.00" fill="#000000">[table]</text>
<polygon fill="none" stroke="#000000" points="8,-193.7 8,-215.7 96,-215.7 96,-193.7 8,-193.7"/>
<image xlink:href="../../images/primaryKeys.png" width="11px" height="12px" preserveAspectRatio="xMinYMin meet" x="13" y="-210.7"/>
<text text-anchor="start" x="28" y="-200.8" font-family="Helvetica,sans-Serif" font-size="11.00" fill="#000000">id</text>
<polygon fill="#ffffff" stroke="transparent" points="8,-171.7 8,-193.7 96,-193.7 96,-171.7 8,-171.7"/>
<polygon fill="none" stroke="#000000" points="8,-171.7 8,-193.7 96,-193.7 96,-171.7 8,-171.7"/>
<text text-anchor="start" x="28" y="-178.8" font-family="Helvetica,sans-Serif" font-size="11.00" fill="#000000">email</text>
<polygon fill="none" stroke="#000000" points="8,-152.7 8,-171.7 96,-171.7 96,-152.7 8,-152.7"/>
<text text-anchor="start" x="11" y="-158.8" font-family="Helvetica,sans-Serif" font-size="11.00" fill="#000000">...</text>
<polygon fill="#ffffff" stroke="transparent" points="8,-133.7 8,-152.7 28,-152.7 28,-133.7 8,-133.7"/>
<polygon fill="none" stroke="#000000" points="8,-133.7 8,-152.7 28,-152.7 28,-133.7 8,-133.7"/>
<text text-anchor="start" x="11" y="-139.8" font-family="Helvetica,sans-Serif" font-size="11.00" fill="#000000"> &#160;</text>
<polygon fill="#ffffff" stroke="transparent" points="28,-133.7 28,-152.7 70,-152.7 70,-133.7 28,-133.7"/>
<polygon fill="none" stroke="#000000" points="28,-133.7 28,-152.7 70,-152.7 70,-133.7 28,-133.7"/>
<text text-anchor="start" x="34.6105" y="-139.8" font-family="Helvetica,sans-Serif" font-size="11.00" fill="#000000">0 rows</text>
<polygon fill="#ffffff" stroke="transparent" points="70,-133.7 70,-152.7 96,-152.7 96,-133.7 70,-133.7"/>
<polygon fill="none" stroke="#000000" points="70,-133.7 70,-152.7 96,-152.7 96,-133.7 70,-133.7"/>
<text text-anchor="start" x="77.4053" y="-139.8" font-family="Helvetica,sans-Serif" font-size="11.00" fill="#000000">6 &gt;</text>
</a>
</g>
</g>
<!-- chapters&#45;&gt;users -->
<g id="edge1" class="edge">
<title>chapters:w&#45;&gt;users:e</title>
<path fill="none" stroke="#000000" d="M157.0396,-239.4963C133.0985,-231.5309 127.8215,-204.7 96,-204.7"/>
<polygon fill="#000000" stroke="#000000" points="163.5913,-240.4947 170.9576,-245.2589 167.5457,-241.0973 171.5,-241.7 171.5,-241.7 171.5,-241.7 167.5457,-241.0973 172.0424,-238.1411 163.5913,-240.4947 163.5913,-240.4947"/>
<ellipse fill="none" stroke="#000000" cx="160.4278" cy="-240.0126" rx="3.2" ry="3.2"/>
</g>
<!-- events -->
<g id="node3" class="node">
<title>events</title>
<g id="a_node3"><a xlink:href="../../tables/events.html" xlink:title="events" target="_top">
<polygon fill="#ffffff" stroke="transparent" points="383,-230.2 383,-291.2 463,-291.2 463,-230.2 383,-230.2"/>
<polygon fill="#f5f5f5" stroke="transparent" points="383,-267.7 383,-290.7 463,-290.7 463,-267.7 383,-267.7"/>
<polygon fill="none" stroke="#000000" points="383,-267.7 383,-290.7 463,-290.7 463,-267.7 383,-267.7"/>
<text text-anchor="start" x="388" y="-276.8" font-family="Helvetica,sans-Serif" font-weight="bold" font-size="11.00" fill="#000000">events</text>
<text text-anchor="start" x="428.0437" y="-275.8" font-family="Helvetica,sans-Serif" font-size="11.00" fill="#000000">[table]</text>
<polygon fill="none" stroke="#000000" points="383,-248.7 383,-267.7 463,-267.7 463,-248.7 383,-248.7"/>
<text text-anchor="start" x="386" y="-254.8" font-family="Helvetica,sans-Serif" font-size="11.00" fill="#000000">...</text>
<polygon fill="#ffffff" stroke="transparent" points="383,-229.7 383,-248.7 404,-248.7 404,-229.7 383,-229.7"/>
<polygon fill="none" stroke="#000000" points="383,-229.7 383,-248.7 404,-248.7 404,-229.7 383,-229.7"/>
<text text-anchor="start" x="385.7027" y="-235.8" font-family="Helvetica,sans-Serif" font-size="11.00" fill="#000000">&lt; 2</text>
<polygon fill="#ffffff" stroke="transparent" points="404,-229.7 404,-248.7 442,-248.7 442,-229.7 404,-229.7"/>
<polygon fill="none" stroke="#000000" points="404,-229.7 404,-248.7 442,-248.7 442,-229.7 404,-229.7"/>
<text text-anchor="start" x="406.8053" y="-235.8" font-family="Helvetica,sans-Serif" font-size="11.00" fill="#000000">0 rows</text>
<polygon fill="#ffffff" stroke="transparent" points="442,-229.7 442,-248.7 463,-248.7 463,-229.7 442,-229.7"/>
<polygon fill="none" stroke="#000000" points="442,-229.7 442,-248.7 463,-248.7 463,-229.7 442,-229.7"/>
<text text-anchor="start" x="444.7027" y="-235.8" font-family="Helvetica,sans-Serif" font-size="11.00" fill="#000000">4 &gt;</text>
</a>
</g>
</g>
<!-- events&#45;&gt;chapters -->
<g id="edge2" class="edge">
<title>events:w&#45;&gt;chapters:e</title>
<path fill="none" stroke="#000000" d="M368.5667,-257.8483C325.1342,-258.7723 309.3017,-263.7 259.5,-263.7"/>
<polygon fill="#000000" stroke="#000000" points="375.0004,-257.7823 383.037,-261.2998 379.0002,-257.7411 383,-257.7 383,-257.7 383,-257.7 379.0002,-257.7411 382.963,-254.1002 375.0004,-257.7823 375.0004,-257.7823"/>
<ellipse fill="none" stroke="#000000" cx="371.8006" cy="-257.8152" rx="3.2" ry="3.2"/>
</g>
<!-- rsvps -->
<g id="node4" class="node">
<title>rsvps</title>
<g id="a_node4"><a xlink:href="../../tables/rsvps.html" xlink:title="rsvps" target="_top">
<polygon fill="#ffffff" stroke="transparent" points="588,-284.2 588,-345.2 659,-345.2 659,-284.2 588,-284.2"/>
<polygon fill="#f5f5f5" stroke="transparent" points="588.5,-321.7 588.5,-344.7 659.5,-344.7 659.5,-321.7 588.5,-321.7"/>
<polygon fill="none" stroke="#000000" points="588.5,-321.7 588.5,-344.7 659.5,-344.7 659.5,-321.7 588.5,-321.7"/>
<text text-anchor="start" x="593.5" y="-330.8" font-family="Helvetica,sans-Serif" font-weight="bold" font-size="11.00" fill="#000000">rsvps</text>
<text text-anchor="start" x="624.5437" y="-329.8" font-family="Helvetica,sans-Serif" font-size="11.00" fill="#000000">[table]</text>
<polygon fill="none" stroke="#000000" points="588.5,-302.7 588.5,-321.7 659.5,-321.7 659.5,-302.7 588.5,-302.7"/>
<text text-anchor="start" x="591.5" y="-308.8" font-family="Helvetica,sans-Serif" font-size="11.00" fill="#000000">...</text>
<polygon fill="#ffffff" stroke="transparent" points="588.5,-283.7 588.5,-302.7 609.5,-302.7 609.5,-283.7 588.5,-283.7"/>
<polygon fill="none" stroke="#000000" points="588.5,-283.7 588.5,-302.7 609.5,-302.7 609.5,-283.7 588.5,-283.7"/>
<text text-anchor="start" x="591.2026" y="-289.8" font-family="Helvetica,sans-Serif" font-size="11.00" fill="#000000">&lt; 2</text>
<polygon fill="#ffffff" stroke="transparent" points="609.5,-283.7 609.5,-302.7 647.5,-302.7 647.5,-283.7 609.5,-283.7"/>
<polygon fill="none" stroke="#000000" points="609.5,-283.7 609.5,-302.7 647.5,-302.7 647.5,-283.7 609.5,-283.7"/>
<text text-anchor="start" x="612.3053" y="-289.8" font-family="Helvetica,sans-Serif" font-size="11.00" fill="#000000">0 rows</text>
<polygon fill="#ffffff" stroke="transparent" points="647.5,-283.7 647.5,-302.7 659.5,-302.7 659.5,-283.7 647.5,-283.7"/>
<polygon fill="none" stroke="#000000" points="647.5,-283.7 647.5,-302.7 659.5,-302.7 659.5,-283.7 647.5,-283.7"/>
<text text-anchor="start" x="650.4431" y="-289.8" font-family="Helvetica,sans-Serif" font-size="11.00" fill="#000000"> &#160;</text>
</a>
</g>
</g>
<!-- rsvps&#45;&gt;users -->
<g id="edge4" class="edge">
<title>rsvps:w&#45;&gt;users:e</title>
<path fill="none" stroke="#000000" d="M574.0645,-313.3613C517.7453,-328.1637 581.5837,-437.8627 519,-479.7 448.0585,-527.1245 408.4309,-505.2104 327,-479.7 228.8789,-448.9609 196.8625,-431.301 137,-347.7 98.5079,-293.9439 162.1162,-204.7 96,-204.7"/>
<polygon fill="#000000" stroke="#000000" points="580.5525,-312.6147 588.9116,-315.2764 584.5262,-312.1574 588.5,-311.7 588.5,-311.7 588.5,-311.7 584.5262,-312.1574 588.0884,-308.1236 580.5525,-312.6147 580.5525,-312.6147"/>
<ellipse fill="none" stroke="#000000" cx="577.3734" cy="-312.9806" rx="3.2" ry="3.2"/>
</g>
<!-- rsvps&#45;&gt;events -->
<g id="edge3" class="edge">
<title>rsvps:w&#45;&gt;events:e</title>
<path fill="none" stroke="#000000" d="M574.0287,-310.5721C526.6624,-302.8176 518.5037,-257.7 463,-257.7"/>
<polygon fill="#000000" stroke="#000000" points="580.5242,-311.0783 588.2202,-315.2891 584.5121,-311.3892 588.5,-311.7 588.5,-311.7 588.5,-311.7 584.5121,-311.3892 588.7798,-308.1109 580.5242,-311.0783 580.5242,-311.0783"/>
<ellipse fill="none" stroke="#000000" cx="577.3339" cy="-310.8297" rx="3.2" ry="3.2"/>
</g>
<!-- user_bans -->
<g id="node5" class="node">
<title>user_bans</title>
<g id="a_node5"><a xlink:href="../../tables/user_bans.html" xlink:title="user_bans" target="_top">
<polygon fill="#ffffff" stroke="transparent" points="335,-312.7 335,-468.7 511,-468.7 511,-312.7 335,-312.7"/>
<polygon fill="#f5f5f5" stroke="transparent" points="337,-443.7 337,-466.7 509,-466.7 509,-443.7 337,-443.7"/>
<polygon fill="none" stroke="#000000" points="337,-443.7 337,-466.7 509,-466.7 509,-443.7 337,-443.7"/>
<text text-anchor="start" x="342" y="-452.8" font-family="Helvetica,sans-Serif" font-weight="bold" font-size="11.00" fill="#000000">user_bans</text>
<text text-anchor="start" x="474.0437" y="-451.8" font-family="Helvetica,sans-Serif" font-size="11.00" fill="#000000">[table]</text>
<polygon fill="none" stroke="#000000" points="337,-421.7 337,-443.7 425,-443.7 425,-421.7 337,-421.7"/>
<image xlink:href="../../images/primaryKeys.png" width="11px" height="12px" preserveAspectRatio="xMinYMin meet" x="342" y="-438.7"/>
<text text-anchor="start" x="357" y="-428.8" font-family="Helvetica,sans-Serif" font-size="11.00" fill="#000000">id</text>
<polygon fill="none" stroke="#000000" points="425,-421.7 425,-443.7 509,-443.7 509,-421.7 425,-421.7"/>
<text text-anchor="start" x="428" y="-429.4" font-family="Helvetica,sans-Serif" font-size="11.00" fill="#000000">serial[10]</text>
<polygon fill="none" stroke="#000000" points="337,-399.7 337,-421.7 425,-421.7 425,-399.7 337,-399.7"/>
<text text-anchor="start" x="357" y="-406.8" font-family="Helvetica,sans-Serif" font-size="11.00" fill="#000000">created_at</text>
<polygon fill="none" stroke="#000000" points="425,-399.7 425,-421.7 509,-421.7 509,-399.7 425,-399.7"/>
<text text-anchor="start" x="427.8807" y="-407.4" font-family="Helvetica,sans-Serif" font-size="11.00" fill="#000000">timestamp[29,6]</text>
<polygon fill="none" stroke="#000000" points="337,-377.7 337,-399.7 425,-399.7 425,-377.7 337,-377.7"/>
<text text-anchor="start" x="357" y="-384.8" font-family="Helvetica,sans-Serif" font-size="11.00" fill="#000000">updated_at</text>
<polygon fill="none" stroke="#000000" points="425,-377.7 425,-399.7 509,-399.7 509,-377.7 425,-377.7"/>
<text text-anchor="start" x="427.8807" y="-385.4" font-family="Helvetica,sans-Serif" font-size="11.00" fill="#000000">timestamp[29,6]</text>
<polygon fill="none" stroke="#000000" points="337,-355.7 337,-377.7 425,-377.7 425,-355.7 337,-355.7"/>
<image xlink:href="../../images/foreignKeys.png" width="11px" height="12px" preserveAspectRatio="xMinYMin meet" x="342" y="-372.7"/>
<text text-anchor="start" x="357" y="-362.8" font-family="Helvetica,sans-Serif" font-size="11.00" fill="#000000">user_id</text>
<polygon fill="none" stroke="#000000" points="425,-355.7 425,-377.7 509,-377.7 509,-355.7 425,-355.7"/>
<text text-anchor="start" x="428" y="-363.4" font-family="Helvetica,sans-Serif" font-size="11.00" fill="#000000">int4[10]</text>
<polygon fill="none" stroke="#000000" points="337,-333.7 337,-355.7 425,-355.7 425,-333.7 337,-333.7"/>
<image xlink:href="../../images/foreignKeys.png" width="11px" height="12px" preserveAspectRatio="xMinYMin meet" x="342" y="-350.7"/>
<text text-anchor="start" x="357" y="-340.8" font-family="Helvetica,sans-Serif" font-size="11.00" fill="#000000">chapter_id</text>
<polygon fill="none" stroke="#000000" points="425,-333.7 425,-355.7 509,-355.7 509,-333.7 425,-333.7"/>
<text text-anchor="start" x="428" y="-341.4" font-family="Helvetica,sans-Serif" font-size="11.00" fill="#000000">int4[10]</text>
<polygon fill="#ffffff" stroke="transparent" points="337,-314.7 337,-333.7 372,-333.7 372,-314.7 337,-314.7"/>
<polygon fill="none" stroke="#000000" points="337,-314.7 337,-333.7 372,-333.7 372,-314.7 337,-314.7"/>
<text text-anchor="start" x="340" y="-320.8" font-family="Helvetica,sans-Serif" font-size="11.00" fill="#000000">&lt; 2</text>
<polygon fill="#ffffff" stroke="transparent" points="372,-314.7 372,-333.7 425,-333.7 425,-314.7 372,-314.7"/>
<polygon fill="none" stroke="#000000" points="372,-314.7 372,-333.7 425,-333.7 425,-314.7 372,-314.7"/>
<text text-anchor="start" x="389.6105" y="-320.8" font-family="Helvetica,sans-Serif" font-size="11.00" fill="#000000">0 rows</text>
<polygon fill="#ffffff" stroke="transparent" points="425,-314.7 425,-333.7 509,-333.7 509,-314.7 425,-314.7"/>
<polygon fill="none" stroke="#000000" points="425,-314.7 425,-333.7 509,-333.7 509,-314.7 425,-314.7"/>
<text text-anchor="start" x="490.4053" y="-320.8" font-family="Helvetica,sans-Serif" font-size="11.00" fill="#000000">0 &gt;</text>
<polygon fill="none" stroke="#000000" stroke-width="2" points="336,-313.7 336,-467.7 510,-467.7 510,-313.7 336,-313.7"/>
</a>
</g>
</g>
<!-- user_bans&#45;&gt;chapters -->
<g id="edge5" class="edge">
<title>user_bans:w&#45;&gt;chapters:e</title>
<path fill="none" stroke="#000000" d="M322.6292,-341.8172C291.2704,-327.3879 303.6798,-263.7 259.5,-263.7"/>
<polygon fill="#000000" stroke="#000000" points="329.1563,-343.1265 336.2919,-348.2297 333.0781,-343.9132 337,-344.7 337,-344.7 337,-344.7 333.0781,-343.9132 337.7081,-341.1703 329.1563,-343.1265 329.1563,-343.1265"/>
<ellipse fill="none" stroke="#000000" cx="326.0188" cy="-342.4971" rx="3.2" ry="3.2"/>
</g>
<!-- user_bans&#45;&gt;users -->
<g id="edge6" class="edge">
<title>user_bans:w&#45;&gt;users:e</title>
<path fill="none" stroke="#000000" d="M322.5374,-366.7264C240.1718,-366.972 201.7481,-367.6744 137,-308.7 100.2683,-275.2437 145.6844,-204.7 96,-204.7"/>
<polygon fill="#000000" stroke="#000000" points="329,-366.7147 337.0066,-370.3 333,-366.7073 337,-366.7 337,-366.7 337,-366.7 333,-366.7073 336.9934,-363.1 329,-366.7147 329,-366.7147"/>
<ellipse fill="none" stroke="#000000" cx="325.8" cy="-366.7205" rx="3.2" ry="3.2"/>
</g>
<!-- user_chapter_roles -->
<g id="node6" class="node">
<title>user_chapter_roles</title>
<g id="a_node6"><a xlink:href="../../tables/user_chapter_roles.html" xlink:title="user_chapter_roles" target="_top">
<polygon fill="#ffffff" stroke="transparent" points="354.5,-148.2 354.5,-209.2 491.5,-209.2 491.5,-148.2 354.5,-148.2"/>
<polygon fill="#f5f5f5" stroke="transparent" points="355,-185.7 355,-208.7 492,-208.7 492,-185.7 355,-185.7"/>
<polygon fill="none" stroke="#000000" points="355,-185.7 355,-208.7 492,-208.7 492,-185.7 355,-185.7"/>
<text text-anchor="start" x="359.9338" y="-194.8" font-family="Helvetica,sans-Serif" font-weight="bold" font-size="11.00" fill="#000000">user_chapter_roles</text>
<text text-anchor="start" x="457.5219" y="-193.8" font-family="Helvetica,sans-Serif" font-size="11.00" fill="#000000">[table]</text>
<polygon fill="none" stroke="#000000" points="355,-166.7 355,-185.7 492,-185.7 492,-166.7 355,-166.7"/>
<text text-anchor="start" x="358" y="-172.8" font-family="Helvetica,sans-Serif" font-size="11.00" fill="#000000">...</text>
<polygon fill="#ffffff" stroke="transparent" points="355,-147.7 355,-166.7 409,-166.7 409,-147.7 355,-147.7"/>
<polygon fill="none" stroke="#000000" points="355,-147.7 355,-166.7 409,-166.7 409,-147.7 355,-147.7"/>
<text text-anchor="start" x="358" y="-153.8" font-family="Helvetica,sans-Serif" font-size="11.00" fill="#000000">&lt; 2</text>
<polygon fill="#ffffff" stroke="transparent" points="409,-147.7 409,-166.7 463,-166.7 463,-147.7 409,-147.7"/>
<polygon fill="none" stroke="#000000" points="409,-147.7 409,-166.7 463,-166.7 463,-147.7 409,-147.7"/>
<text text-anchor="start" x="427.6105" y="-153.8" font-family="Helvetica,sans-Serif" font-size="11.00" fill="#000000">0 rows</text>
<polygon fill="#ffffff" stroke="transparent" points="463,-147.7 463,-166.7 492,-166.7 492,-147.7 463,-147.7"/>
<polygon fill="none" stroke="#000000" points="463,-147.7 463,-166.7 492,-166.7 492,-147.7 463,-147.7"/>
<text text-anchor="start" x="482.8862" y="-153.8" font-family="Helvetica,sans-Serif" font-size="11.00" fill="#000000"> &#160;</text>
</a>
</g>
</g>
<!-- user_chapter_roles&#45;&gt;chapters -->
<g id="edge7" class="edge">
<title>user_chapter_roles:w&#45;&gt;chapters:e</title>
<path fill="none" stroke="#000000" d="M340.6866,-177.8753C300.3384,-191.4266 311.8057,-263.7 259.5,-263.7"/>
<polygon fill="#000000" stroke="#000000" points="347.0908,-176.9021 355.5409,-179.2591 351.0454,-176.301 355,-175.7 355,-175.7 355,-175.7 351.0454,-176.301 354.4591,-172.1409 347.0908,-176.9021 347.0908,-176.9021"/>
<ellipse fill="none" stroke="#000000" cx="343.9271" cy="-177.3829" rx="3.2" ry="3.2"/>
</g>
<!-- user_chapter_roles&#45;&gt;users -->
<g id="edge8" class="edge">
<title>user_chapter_roles:w&#45;&gt;users:e</title>
<path fill="none" stroke="#000000" d="M340.4877,-175.5628C255.0436,-173.9386 225.7776,-158.8652 137,-182.7 117.0275,-188.0622 116.6798,-204.7 96,-204.7"/>
<polygon fill="#000000" stroke="#000000" points="347.0004,-175.6243 354.9659,-179.2998 351.0002,-175.6621 355,-175.7 355,-175.7 355,-175.7 351.0002,-175.6621 355.0341,-172.1002 347.0004,-175.6243 347.0004,-175.6243"/>
<ellipse fill="none" stroke="#000000" cx="343.8005" cy="-175.594" rx="3.2" ry="3.2"/>
</g>
<!-- user_event_roles -->
<g id="node7" class="node">
<title>user_event_roles</title>
<g id="a_node7"><a xlink:href="../../tables/user_event_roles.html" xlink:title="user_event_roles" target="_top">
<polygon fill="#ffffff" stroke="transparent" points="560,-176.2 560,-237.2 687,-237.2 687,-176.2 560,-176.2"/>
<polygon fill="#f5f5f5" stroke="transparent" points="560.5,-213.7 560.5,-236.7 687.5,-236.7 687.5,-213.7 560.5,-213.7"/>
<polygon fill="none" stroke="#000000" points="560.5,-213.7 560.5,-236.7 687.5,-236.7 687.5,-213.7 560.5,-213.7"/>
<text text-anchor="start" x="565.3222" y="-222.8" font-family="Helvetica,sans-Serif" font-weight="bold" font-size="11.00" fill="#000000">user_event_roles</text>
<text text-anchor="start" x="653.0219" y="-221.8" font-family="Helvetica,sans-Serif" font-size="11.00" fill="#000000">[table]</text>
<polygon fill="none" stroke="#000000" points="560.5,-194.7 560.5,-213.7 687.5,-213.7 687.5,-194.7 560.5,-194.7"/>
<text text-anchor="start" x="563.5" y="-200.8" font-family="Helvetica,sans-Serif" font-size="11.00" fill="#000000">...</text>
<polygon fill="#ffffff" stroke="transparent" points="560.5,-175.7 560.5,-194.7 609.5,-194.7 609.5,-175.7 560.5,-175.7"/>
<polygon fill="none" stroke="#000000" points="560.5,-175.7 560.5,-194.7 609.5,-194.7 609.5,-175.7 560.5,-175.7"/>
<text text-anchor="start" x="563.5" y="-181.8" font-family="Helvetica,sans-Serif" font-size="11.00" fill="#000000">&lt; 2</text>
<polygon fill="#ffffff" stroke="transparent" points="609.5,-175.7 609.5,-194.7 661.5,-194.7 661.5,-175.7 609.5,-175.7"/>
<polygon fill="none" stroke="#000000" points="609.5,-175.7 609.5,-194.7 661.5,-194.7 661.5,-175.7 609.5,-175.7"/>
<text text-anchor="start" x="626.1105" y="-181.8" font-family="Helvetica,sans-Serif" font-size="11.00" fill="#000000">0 rows</text>
<polygon fill="#ffffff" stroke="transparent" points="661.5,-175.7 661.5,-194.7 687.5,-194.7 687.5,-175.7 661.5,-175.7"/>
<polygon fill="none" stroke="#000000" points="661.5,-175.7 661.5,-194.7 687.5,-194.7 687.5,-175.7 661.5,-175.7"/>
<text text-anchor="start" x="678.3862" y="-181.8" font-family="Helvetica,sans-Serif" font-size="11.00" fill="#000000"> &#160;</text>
</a>
</g>
</g>
<!-- user_event_roles&#45;&gt;users -->
<g id="edge10" class="edge">
<title>user_event_roles:w&#45;&gt;users:e</title>
<path fill="none" stroke="#000000" d="M546.4022,-199.0451C532.7629,-186.3757 543.6427,-151.3144 519,-137.7 444.3077,-96.4346 412.1051,-131.4628 327,-137.7 241.8718,-143.9389 213.7338,-128.3149 137,-165.7 114.3911,-176.7151 121.1494,-204.7 96,-204.7"/>
<polygon fill="#000000" stroke="#000000" points="552.9034,-201.1916 559.3712,-207.1185 556.7017,-202.4458 560.5,-203.7 560.5,-203.7 560.5,-203.7 556.7017,-202.4458 561.6288,-200.2815 552.9034,-201.1916 552.9034,-201.1916"/>
<ellipse fill="none" stroke="#000000" cx="549.8648" cy="-200.1883" rx="3.2" ry="3.2"/>
</g>
<!-- user_event_roles&#45;&gt;events -->
<g id="edge9" class="edge">
<title>user_event_roles:w&#45;&gt;events:e</title>
<path fill="none" stroke="#000000" d="M545.9465,-205.4967C510.6967,-214.8665 507.1177,-257.7 463,-257.7"/>
<polygon fill="#000000" stroke="#000000" points="552.5603,-204.6802 560.9411,-207.2729 556.5301,-204.1901 560.5,-203.7 560.5,-203.7 560.5,-203.7 556.5301,-204.1901 560.0589,-200.1271 552.5603,-204.6802 552.5603,-204.6802"/>
<ellipse fill="none" stroke="#000000" cx="549.3844" cy="-205.0723" rx="3.2" ry="3.2"/>
</g>
<!-- user_instance_roles -->
<g id="node8" class="node">
<title>user_instance_roles</title>
<g id="a_node8"><a xlink:href="../../tables/user_instance_roles.html" xlink:title="user_instance_roles" target="_top">
<polygon fill="#ffffff" stroke="transparent" points="145,-38.2 145,-99.2 286,-99.2 286,-38.2 145,-38.2"/>
<polygon fill="#f5f5f5" stroke="transparent" points="145.5,-75.7 145.5,-98.7 286.5,-98.7 286.5,-75.7 145.5,-75.7"/>
<polygon fill="none" stroke="#000000" points="145.5,-75.7 145.5,-98.7 286.5,-98.7 286.5,-75.7 145.5,-75.7"/>
<text text-anchor="start" x="150.2943" y="-84.8" font-family="Helvetica,sans-Serif" font-weight="bold" font-size="11.00" fill="#000000">user_instance_roles</text>
<text text-anchor="start" x="252.0219" y="-83.8" font-family="Helvetica,sans-Serif" font-size="11.00" fill="#000000">[table]</text>
<polygon fill="none" stroke="#000000" points="145.5,-56.7 145.5,-75.7 286.5,-75.7 286.5,-56.7 145.5,-56.7"/>
<text text-anchor="start" x="148.5" y="-62.8" font-family="Helvetica,sans-Serif" font-size="11.00" fill="#000000">...</text>
<polygon fill="#ffffff" stroke="transparent" points="145.5,-37.7 145.5,-56.7 201.5,-56.7 201.5,-37.7 145.5,-37.7"/>
<polygon fill="none" stroke="#000000" points="145.5,-37.7 145.5,-56.7 201.5,-56.7 201.5,-37.7 145.5,-37.7"/>
<text text-anchor="start" x="148.5" y="-43.8" font-family="Helvetica,sans-Serif" font-size="11.00" fill="#000000">&lt; 1</text>
<polygon fill="#ffffff" stroke="transparent" points="201.5,-37.7 201.5,-56.7 256.5,-56.7 256.5,-37.7 201.5,-37.7"/>
<polygon fill="none" stroke="#000000" points="201.5,-37.7 201.5,-56.7 256.5,-56.7 256.5,-37.7 201.5,-37.7"/>
<text text-anchor="start" x="221.1105" y="-43.8" font-family="Helvetica,sans-Serif" font-size="11.00" fill="#000000">0 rows</text>
<polygon fill="#ffffff" stroke="transparent" points="256.5,-37.7 256.5,-56.7 286.5,-56.7 286.5,-37.7 256.5,-37.7"/>
<polygon fill="none" stroke="#000000" points="256.5,-37.7 256.5,-56.7 286.5,-56.7 286.5,-37.7 256.5,-37.7"/>
<text text-anchor="start" x="277.3862" y="-43.8" font-family="Helvetica,sans-Serif" font-size="11.00" fill="#000000"> &#160;</text>
</a>
</g>
</g>
<!-- user_instance_roles&#45;&gt;users -->
<g id="edge11" class="edge">
<title>user_instance_roles:w&#45;&gt;users:e</title>
<path fill="none" stroke="#000000" d="M131.1765,-68.8644C93.406,-89.5546 155.6864,-204.7 96,-204.7"/>
<polygon fill="#000000" stroke="#000000" points="137.6884,-67.4258 146.2766,-69.2152 141.5942,-66.5629 145.5,-65.7 145.5,-65.7 145.5,-65.7 141.5942,-66.5629 144.7234,-62.1848 137.6884,-67.4258 137.6884,-67.4258"/>
<ellipse fill="none" stroke="#000000" cx="134.5637" cy="-68.1161" rx="3.2" ry="3.2"/>
</g>
</g>
</svg>
