<?xml version="1.0" encoding="UTF-8" standalone="no"?>
<!DOCTYPE svg PUBLIC "-//W3C//DTD SVG 1.1//EN"
 "http://www.w3.org/Graphics/SVG/1.1/DTD/svg11.dtd">
<!-- Generated by graphviz version 2.40.1 (20161225.0304)
 -->
<!-- Title: oneDegreeRelationshipsDiagram Pages: 1 -->
<svg width="745pt" height="605pt"
 viewBox="0.00 0.00 745.00 605.20" xmlns="http://www.w3.org/2000/svg" xmlns:xlink="http://www.w3.org/1999/xlink">
<g id="graph0" class="graph" transform="scale(1 1) rotate(0) translate(4 601.2)">
<title>oneDegreeRelationshipsDiagram</title>
<polygon fill="#ffffff" stroke="transparent" points="-4,4 -4,-601.2 741,-601.2 741,4 -4,4"/>
<text text-anchor="middle" x="72.4936" y="-7.3" font-family="Helvetica,sans-Serif" font-size="11.00" fill="#000000">Generated by SchemaSpy</text>
<!-- chapter_users -->
<g id="node1" class="node">
<title>chapter_users</title>
<g id="a_node1"><a xlink:href="../../tables/chapter_users.html" xlink:title="chapter_users" target="_top">
<polygon fill="#ffffff" stroke="transparent" points="436.5,-466.2 436.5,-593.2 548.5,-593.2 548.5,-466.2 436.5,-466.2"/>
<polygon fill="#f5f5f5" stroke="transparent" points="436.5,-569.7 436.5,-592.7 548.5,-592.7 548.5,-569.7 436.5,-569.7"/>
<polygon fill="none" stroke="#000000" points="436.5,-569.7 436.5,-592.7 548.5,-592.7 548.5,-569.7 436.5,-569.7"/>
<text text-anchor="start" x="441.1575" y="-578.8" font-family="Helvetica,sans-Serif" font-weight="bold" font-size="11.00" fill="#000000">chapter_users</text>
<text text-anchor="start" x="514.0219" y="-577.8" font-family="Helvetica,sans-Serif" font-size="11.00" fill="#000000">[table]</text>
<polygon fill="none" stroke="#000000" points="436.5,-547.7 436.5,-569.7 548.5,-569.7 548.5,-547.7 436.5,-547.7"/>
<image xlink:href="../../images/primaryKeys.png" width="11px" height="12px" preserveAspectRatio="xMinYMin meet" x="441.5" y="-564.7"/>
<text text-anchor="start" x="456.5" y="-554.8" font-family="Helvetica,sans-Serif" font-size="11.00" fill="#000000">user_id</text>
<polygon fill="none" stroke="#000000" points="436.5,-525.7 436.5,-547.7 548.5,-547.7 548.5,-525.7 436.5,-525.7"/>
<image xlink:href="../../images/primaryKeys.png" width="11px" height="12px" preserveAspectRatio="xMinYMin meet" x="441.5" y="-542.7"/>
<text text-anchor="start" x="456.5" y="-532.8" font-family="Helvetica,sans-Serif" font-size="11.00" fill="#000000">chapter_id</text>
<polygon fill="none" stroke="#000000" points="436.5,-503.7 436.5,-525.7 548.5,-525.7 548.5,-503.7 436.5,-503.7"/>
<image xlink:href="../../images/foreignKeys.png" width="11px" height="12px" preserveAspectRatio="xMinYMin meet" x="441.5" y="-520.7"/>
<text text-anchor="start" x="456.5" y="-510.8" font-family="Helvetica,sans-Serif" font-size="11.00" fill="#000000">chapter_role_id</text>
<polygon fill="none" stroke="#000000" points="436.5,-484.7 436.5,-503.7 548.5,-503.7 548.5,-484.7 436.5,-484.7"/>
<text text-anchor="start" x="439.5" y="-490.8" font-family="Helvetica,sans-Serif" font-size="11.00" fill="#000000">...</text>
<polygon fill="#ffffff" stroke="transparent" points="436.5,-465.7 436.5,-484.7 477.5,-484.7 477.5,-465.7 436.5,-465.7"/>
<polygon fill="none" stroke="#000000" points="436.5,-465.7 436.5,-484.7 477.5,-484.7 477.5,-465.7 436.5,-465.7"/>
<text text-anchor="start" x="439.5" y="-471.8" font-family="Helvetica,sans-Serif" font-size="11.00" fill="#000000">&lt; 3</text>
<polygon fill="#ffffff" stroke="transparent" points="477.5,-465.7 477.5,-484.7 525.5,-484.7 525.5,-465.7 477.5,-465.7"/>
<polygon fill="none" stroke="#000000" points="477.5,-465.7 477.5,-484.7 525.5,-484.7 525.5,-465.7 477.5,-465.7"/>
<text text-anchor="start" x="490.1105" y="-471.8" font-family="Helvetica,sans-Serif" font-size="11.00" fill="#000000">0 rows</text>
<polygon fill="#ffffff" stroke="transparent" points="525.5,-465.7 525.5,-484.7 548.5,-484.7 548.5,-465.7 525.5,-465.7"/>
<polygon fill="none" stroke="#000000" points="525.5,-465.7 525.5,-484.7 548.5,-484.7 548.5,-465.7 525.5,-465.7"/>
<text text-anchor="start" x="539.3862" y="-471.8" font-family="Helvetica,sans-Serif" font-size="11.00" fill="#000000"> &#160;</text>
</a>
</g>
</g>
<!-- users -->
<g id="node2" class="node">
<title>users</title>
<g id="a_node2"><a xlink:href="../../tables/users.html" xlink:title="users" target="_top">
<polygon fill="#ffffff" stroke="transparent" points="170,-262.7 170,-462.7 380,-462.7 380,-262.7 170,-262.7"/>
<polygon fill="#f5f5f5" stroke="transparent" points="172,-437.7 172,-460.7 378,-460.7 378,-437.7 172,-437.7"/>
<polygon fill="none" stroke="#000000" points="172,-437.7 172,-460.7 378,-460.7 378,-437.7 172,-437.7"/>
<text text-anchor="start" x="177" y="-446.8" font-family="Helvetica,sans-Serif" font-weight="bold" font-size="11.00" fill="#000000">users</text>
<text text-anchor="start" x="343.0437" y="-445.8" font-family="Helvetica,sans-Serif" font-size="11.00" fill="#000000">[table]</text>
<polygon fill="none" stroke="#000000" points="172,-415.7 172,-437.7 288,-437.7 288,-415.7 172,-415.7"/>
<text text-anchor="start" x="192" y="-422.8" font-family="Helvetica,sans-Serif" font-size="11.00" fill="#000000">created_at</text>
<polygon fill="none" stroke="#000000" points="288,-415.7 288,-437.7 378,-437.7 378,-415.7 288,-415.7"/>
<text text-anchor="start" x="291" y="-423.4" font-family="Helvetica,sans-Serif" font-size="11.00" fill="#000000">timestamp[26,3]</text>
<polygon fill="none" stroke="#000000" points="172,-393.7 172,-415.7 288,-415.7 288,-393.7 172,-393.7"/>
<text text-anchor="start" x="192" y="-400.8" font-family="Helvetica,sans-Serif" font-size="11.00" fill="#000000">updated_at</text>
<polygon fill="none" stroke="#000000" points="288,-393.7 288,-415.7 378,-415.7 378,-393.7 288,-393.7"/>
<text text-anchor="start" x="291" y="-401.4" font-family="Helvetica,sans-Serif" font-size="11.00" fill="#000000">timestamp[26,3]</text>
<polygon fill="none" stroke="#000000" points="172,-371.7 172,-393.7 288,-393.7 288,-371.7 172,-371.7"/>
<image xlink:href="../../images/primaryKeys.png" width="11px" height="12px" preserveAspectRatio="xMinYMin meet" x="177" y="-388.7"/>
<text text-anchor="start" x="192" y="-378.8" font-family="Helvetica,sans-Serif" font-size="11.00" fill="#000000">id</text>
<polygon fill="none" stroke="#000000" points="288,-371.7 288,-393.7 378,-393.7 378,-371.7 288,-371.7"/>
<text text-anchor="start" x="291" y="-379.4" font-family="Helvetica,sans-Serif" font-size="11.00" fill="#000000">serial[10]</text>
<polygon fill="none" stroke="#000000" points="172,-349.7 172,-371.7 288,-371.7 288,-349.7 172,-349.7"/>
<text text-anchor="start" x="192" y="-356.8" font-family="Helvetica,sans-Serif" font-size="11.00" fill="#000000">first_name</text>
<polygon fill="none" stroke="#000000" points="288,-349.7 288,-371.7 378,-371.7 378,-349.7 288,-349.7"/>
<text text-anchor="start" x="290.5043" y="-357.4" font-family="Helvetica,sans-Serif" font-size="11.00" fill="#000000">text[2147483647]</text>
<polygon fill="none" stroke="#000000" points="172,-327.7 172,-349.7 288,-349.7 288,-327.7 172,-327.7"/>
<text text-anchor="start" x="192" y="-334.8" font-family="Helvetica,sans-Serif" font-size="11.00" fill="#000000">last_name</text>
<polygon fill="none" stroke="#000000" points="288,-327.7 288,-349.7 378,-349.7 378,-327.7 288,-327.7"/>
<text text-anchor="start" x="290.5043" y="-335.4" font-family="Helvetica,sans-Serif" font-size="11.00" fill="#000000">text[2147483647]</text>
<polygon fill="#ffffff" stroke="transparent" points="172,-305.7 172,-327.7 288,-327.7 288,-305.7 172,-305.7"/>
<polygon fill="none" stroke="#000000" points="172,-305.7 172,-327.7 288,-327.7 288,-305.7 172,-305.7"/>
<text text-anchor="start" x="192" y="-312.8" font-family="Helvetica,sans-Serif" font-size="11.00" fill="#000000">email</text>
<polygon fill="none" stroke="#000000" points="288,-305.7 288,-327.7 378,-327.7 378,-305.7 288,-305.7"/>
<text text-anchor="start" x="290.5043" y="-313.4" font-family="Helvetica,sans-Serif" font-size="11.00" fill="#000000">text[2147483647]</text>
<polygon fill="none" stroke="#000000" points="172,-283.7 172,-305.7 288,-305.7 288,-283.7 172,-283.7"/>
<image xlink:href="../../images/foreignKeys.png" width="11px" height="12px" preserveAspectRatio="xMinYMin meet" x="177" y="-300.7"/>
<text text-anchor="start" x="192" y="-290.8" font-family="Helvetica,sans-Serif" font-size="11.00" fill="#000000">instance_role_id</text>
<polygon fill="none" stroke="#000000" points="288,-283.7 288,-305.7 378,-305.7 378,-283.7 288,-283.7"/>
<text text-anchor="start" x="291" y="-291.4" font-family="Helvetica,sans-Serif" font-size="11.00" fill="#000000">int4[10]</text>
<polygon fill="#ffffff" stroke="transparent" points="172,-264.7 172,-283.7 221,-283.7 221,-264.7 172,-264.7"/>
<polygon fill="none" stroke="#000000" points="172,-264.7 172,-283.7 221,-283.7 221,-264.7 172,-264.7"/>
<text text-anchor="start" x="175" y="-270.8" font-family="Helvetica,sans-Serif" font-size="11.00" fill="#000000">&lt; 1</text>
<polygon fill="#ffffff" stroke="transparent" points="221,-264.7 221,-283.7 288,-283.7 288,-264.7 221,-264.7"/>
<polygon fill="none" stroke="#000000" points="221,-264.7 221,-283.7 288,-283.7 288,-264.7 221,-264.7"/>
<text text-anchor="start" x="252.6105" y="-270.8" font-family="Helvetica,sans-Serif" font-size="11.00" fill="#000000">0 rows</text>
<polygon fill="#ffffff" stroke="transparent" points="288,-264.7 288,-283.7 378,-283.7 378,-264.7 288,-264.7"/>
<polygon fill="none" stroke="#000000" points="288,-264.7 288,-283.7 378,-283.7 378,-264.7 288,-264.7"/>
<text text-anchor="start" x="359.4053" y="-270.8" font-family="Helvetica,sans-Serif" font-size="11.00" fill="#000000">5 &gt;</text>
<polygon fill="none" stroke="#000000" stroke-width="2" points="171,-263.7 171,-461.7 379,-461.7 379,-263.7 171,-263.7"/>
</a>
</g>
</g>
<!-- chapter_users&#45;&gt;users -->
<g id="edge1" class="edge">
<title>chapter_users:w&#45;&gt;users:e</title>
<path fill="none" stroke="#000000" d="M422.1214,-556.3451C367.7291,-535.4599 454.7952,-382.7 378,-382.7"/>
<polygon fill="#000000" stroke="#000000" points="428.6052,-557.407 435.9181,-562.2527 432.5526,-558.0535 436.5,-558.7 436.5,-558.7 436.5,-558.7 432.5526,-558.0535 437.0819,-555.1473 428.6052,-557.407 428.6052,-557.407"/>
<ellipse fill="none" stroke="#000000" cx="425.4473" cy="-556.8897" rx="3.2" ry="3.2"/>
</g>
<!-- instance_roles -->
<g id="node7" class="node">
<title>instance_roles</title>
<g id="a_node7"><a xlink:href="../../tables/instance_roles.html" xlink:title="instance_roles" target="_top">
<polygon fill="#ffffff" stroke="transparent" points="8,-224.2 8,-329.2 121,-329.2 121,-224.2 8,-224.2"/>
<polygon fill="#f5f5f5" stroke="transparent" points="8.5,-305.7 8.5,-328.7 121.5,-328.7 121.5,-305.7 8.5,-305.7"/>
<polygon fill="none" stroke="#000000" points="8.5,-305.7 8.5,-328.7 121.5,-328.7 121.5,-305.7 8.5,-305.7"/>
<text text-anchor="start" x="13.0476" y="-314.8" font-family="Helvetica,sans-Serif" font-weight="bold" font-size="11.00" fill="#000000">instance_roles</text>
<text text-anchor="start" x="87.0219" y="-313.8" font-family="Helvetica,sans-Serif" font-size="11.00" fill="#000000">[table]</text>
<polygon fill="none" stroke="#000000" points="8.5,-283.7 8.5,-305.7 121.5,-305.7 121.5,-283.7 8.5,-283.7"/>
<image xlink:href="../../images/primaryKeys.png" width="11px" height="12px" preserveAspectRatio="xMinYMin meet" x="13.5" y="-300.7"/>
<text text-anchor="start" x="32.5" y="-290.8" font-family="Helvetica,sans-Serif" font-size="11.00" fill="#000000">id</text>
<polygon fill="#ffffff" stroke="transparent" points="8.5,-261.7 8.5,-283.7 121.5,-283.7 121.5,-261.7 8.5,-261.7"/>
<polygon fill="none" stroke="#000000" points="8.5,-261.7 8.5,-283.7 121.5,-283.7 121.5,-261.7 8.5,-261.7"/>
<text text-anchor="start" x="32.5" y="-268.8" font-family="Helvetica,sans-Serif" font-size="11.00" fill="#000000">name</text>
<polygon fill="none" stroke="#000000" points="8.5,-242.7 8.5,-261.7 121.5,-261.7 121.5,-242.7 8.5,-242.7"/>
<text text-anchor="start" x="11.5" y="-248.8" font-family="Helvetica,sans-Serif" font-size="11.00" fill="#000000">...</text>
<polygon fill="#ffffff" stroke="transparent" points="8.5,-223.7 8.5,-242.7 41.5,-242.7 41.5,-223.7 8.5,-223.7"/>
<polygon fill="none" stroke="#000000" points="8.5,-223.7 8.5,-242.7 41.5,-242.7 41.5,-223.7 8.5,-223.7"/>
<text text-anchor="start" x="11.5" y="-229.8" font-family="Helvetica,sans-Serif" font-size="11.00" fill="#000000"> &#160;</text>
<polygon fill="#ffffff" stroke="transparent" points="41.5,-223.7 41.5,-242.7 89.5,-242.7 89.5,-223.7 41.5,-223.7"/>
<polygon fill="none" stroke="#000000" points="41.5,-223.7 41.5,-242.7 89.5,-242.7 89.5,-223.7 41.5,-223.7"/>
<text text-anchor="start" x="54.1105" y="-229.8" font-family="Helvetica,sans-Serif" font-size="11.00" fill="#000000">0 rows</text>
<polygon fill="#ffffff" stroke="transparent" points="89.5,-223.7 89.5,-242.7 121.5,-242.7 121.5,-223.7 89.5,-223.7"/>
<polygon fill="none" stroke="#000000" points="89.5,-223.7 89.5,-242.7 121.5,-242.7 121.5,-223.7 89.5,-223.7"/>
<text text-anchor="start" x="102.9053" y="-229.8" font-family="Helvetica,sans-Serif" font-size="11.00" fill="#000000">2 &gt;</text>
</a>
</g>
</g>
<!-- users&#45;&gt;instance_roles -->
<g id="edge8" class="edge">
<title>users:w&#45;&gt;instance_roles:e</title>
<path fill="none" stroke="#000000" d="M157.4203,-294.7C145.5435,-294.7 138.158,-294.7 121.5,-294.7"/>
<polygon fill="#000000" stroke="#000000" points="164,-294.7001 172,-298.3 168,-294.7 172,-294.7 172,-294.7 172,-294.7 168,-294.7 172,-291.1 164,-294.7001 164,-294.7001"/>
<ellipse fill="none" stroke="#000000" cx="160.8" cy="-294.7001" rx="3.2" ry="3.2"/>
</g>
<!-- event_reminders -->
<g id="node3" class="node">
<title>event_reminders</title>
<g id="a_node3"><a xlink:href="../../tables/event_reminders.html" xlink:title="event_reminders" target="_top">
<polygon fill="#ffffff" stroke="transparent" points="605,-312.2 605,-417.2 729,-417.2 729,-312.2 605,-312.2"/>
<polygon fill="#f5f5f5" stroke="transparent" points="605,-393.7 605,-416.7 729,-416.7 729,-393.7 605,-393.7"/>
<polygon fill="none" stroke="#000000" points="605,-393.7 605,-416.7 729,-416.7 729,-393.7 605,-393.7"/>
<text text-anchor="start" x="609.5486" y="-402.8" font-family="Helvetica,sans-Serif" font-weight="bold" font-size="11.00" fill="#000000">event_reminders</text>
<text text-anchor="start" x="694.5219" y="-401.8" font-family="Helvetica,sans-Serif" font-size="11.00" fill="#000000">[table]</text>
<polygon fill="none" stroke="#000000" points="605,-371.7 605,-393.7 729,-393.7 729,-371.7 605,-371.7"/>
<image xlink:href="../../images/primaryKeys.png" width="11px" height="12px" preserveAspectRatio="xMinYMin meet" x="610" y="-388.7"/>
<text text-anchor="start" x="626" y="-378.8" font-family="Helvetica,sans-Serif" font-size="11.00" fill="#000000">user_id</text>
<polygon fill="none" stroke="#000000" points="605,-349.7 605,-371.7 729,-371.7 729,-349.7 605,-349.7"/>
<image xlink:href="../../images/primaryKeys.png" width="11px" height="12px" preserveAspectRatio="xMinYMin meet" x="610" y="-366.7"/>
<text text-anchor="start" x="626" y="-356.8" font-family="Helvetica,sans-Serif" font-size="11.00" fill="#000000">event_id</text>
<polygon fill="none" stroke="#000000" points="605,-330.7 605,-349.7 729,-349.7 729,-330.7 605,-330.7"/>
<text text-anchor="start" x="608" y="-336.8" font-family="Helvetica,sans-Serif" font-size="11.00" fill="#000000">...</text>
<polygon fill="#ffffff" stroke="transparent" points="605,-311.7 605,-330.7 652,-330.7 652,-311.7 605,-311.7"/>
<polygon fill="none" stroke="#000000" points="605,-311.7 605,-330.7 652,-330.7 652,-311.7 605,-311.7"/>
<text text-anchor="start" x="608" y="-317.8" font-family="Helvetica,sans-Serif" font-size="11.00" fill="#000000">&lt; 4</text>
<polygon fill="#ffffff" stroke="transparent" points="652,-311.7 652,-330.7 703,-330.7 703,-311.7 652,-311.7"/>
<polygon fill="none" stroke="#000000" points="652,-311.7 652,-330.7 703,-330.7 703,-311.7 652,-311.7"/>
<text text-anchor="start" x="667.6105" y="-317.8" font-family="Helvetica,sans-Serif" font-size="11.00" fill="#000000">0 rows</text>
<polygon fill="#ffffff" stroke="transparent" points="703,-311.7 703,-330.7 729,-330.7 729,-311.7 703,-311.7"/>
<polygon fill="none" stroke="#000000" points="703,-311.7 703,-330.7 729,-330.7 729,-311.7 703,-311.7"/>
<text text-anchor="start" x="719.8862" y="-317.8" font-family="Helvetica,sans-Serif" font-size="11.00" fill="#000000"> &#160;</text>
</a>
</g>
</g>
<!-- event_reminders&#45;&gt;users -->
<g id="edge4" class="edge">
<title>event_reminders:w&#45;&gt;users:e</title>
<path fill="none" stroke="#000000" d="M591.2703,-387.5777C581.0557,-397.3984 582.9488,-419.3301 564,-427.7 505.8633,-453.3795 479.4376,-452.6872 421,-427.7 395.5648,-416.8242 405.6629,-382.7 378,-382.7"/>
<polygon fill="#000000" stroke="#000000" points="597.4616,-385.3782 606.2052,-386.0923 601.2308,-384.0391 605,-382.7 605,-382.7 605,-382.7 601.2308,-384.0391 603.7948,-379.3077 597.4616,-385.3782 597.4616,-385.3782"/>
<ellipse fill="none" stroke="#000000" cx="594.4462" cy="-386.4495" rx="3.2" ry="3.2"/>
</g>
<!-- rsvps -->
<g id="node4" class="node">
<title>rsvps</title>
<g id="a_node4"><a xlink:href="../../tables/rsvps.html" xlink:title="rsvps" target="_top">
<polygon fill="#ffffff" stroke="transparent" points="442.5,-312.2 442.5,-417.2 542.5,-417.2 542.5,-312.2 442.5,-312.2"/>
<polygon fill="#f5f5f5" stroke="transparent" points="442.5,-393.7 442.5,-416.7 542.5,-416.7 542.5,-393.7 442.5,-393.7"/>
<polygon fill="none" stroke="#000000" points="442.5,-393.7 442.5,-416.7 542.5,-416.7 542.5,-393.7 442.5,-393.7"/>
<text text-anchor="start" x="447.5" y="-402.8" font-family="Helvetica,sans-Serif" font-weight="bold" font-size="11.00" fill="#000000">rsvps</text>
<text text-anchor="start" x="507.5437" y="-401.8" font-family="Helvetica,sans-Serif" font-size="11.00" fill="#000000">[table]</text>
<polygon fill="none" stroke="#000000" points="442.5,-371.7 442.5,-393.7 542.5,-393.7 542.5,-371.7 442.5,-371.7"/>
<image xlink:href="../../images/primaryKeys.png" width="11px" height="12px" preserveAspectRatio="xMinYMin meet" x="447.5" y="-388.7"/>
<text text-anchor="start" x="462.5" y="-378.8" font-family="Helvetica,sans-Serif" font-size="11.00" fill="#000000">user_id</text>
<polygon fill="none" stroke="#000000" points="442.5,-349.7 442.5,-371.7 542.5,-371.7 542.5,-349.7 442.5,-349.7"/>
<image xlink:href="../../images/primaryKeys.png" width="11px" height="12px" preserveAspectRatio="xMinYMin meet" x="447.5" y="-366.7"/>
<text text-anchor="start" x="462.5" y="-356.8" font-family="Helvetica,sans-Serif" font-size="11.00" fill="#000000">event_id</text>
<polygon fill="none" stroke="#000000" points="442.5,-330.7 442.5,-349.7 542.5,-349.7 542.5,-330.7 442.5,-330.7"/>
<text text-anchor="start" x="445.5" y="-336.8" font-family="Helvetica,sans-Serif" font-size="11.00" fill="#000000">...</text>
<polygon fill="#ffffff" stroke="transparent" points="442.5,-311.7 442.5,-330.7 473.5,-330.7 473.5,-311.7 442.5,-311.7"/>
<polygon fill="none" stroke="#000000" points="442.5,-311.7 442.5,-330.7 473.5,-330.7 473.5,-311.7 442.5,-311.7"/>
<text text-anchor="start" x="445.5" y="-317.8" font-family="Helvetica,sans-Serif" font-size="11.00" fill="#000000">&lt; 2</text>
<polygon fill="#ffffff" stroke="transparent" points="473.5,-311.7 473.5,-330.7 516.5,-330.7 516.5,-311.7 473.5,-311.7"/>
<polygon fill="none" stroke="#000000" points="473.5,-311.7 473.5,-330.7 516.5,-330.7 516.5,-311.7 473.5,-311.7"/>
<text text-anchor="start" x="481.1105" y="-317.8" font-family="Helvetica,sans-Serif" font-size="11.00" fill="#000000">0 rows</text>
<polygon fill="#ffffff" stroke="transparent" points="516.5,-311.7 516.5,-330.7 542.5,-330.7 542.5,-311.7 516.5,-311.7"/>
<polygon fill="none" stroke="#000000" points="516.5,-311.7 516.5,-330.7 542.5,-330.7 542.5,-311.7 516.5,-311.7"/>
<text text-anchor="start" x="523.9053" y="-317.8" font-family="Helvetica,sans-Serif" font-size="11.00" fill="#000000">2 &gt;</text>
</a>
</g>
</g>
<!-- event_reminders&#45;&gt;rsvps -->
<g id="edge2" class="edge">
<title>event_reminders:w&#45;&gt;rsvps:e</title>
<path fill="none" stroke="#000000" d="M590.3024,-360.7C573.5415,-360.7 564.6354,-360.7 542.5,-360.7"/>
<polygon fill="#000000" stroke="#000000" points="597,-360.7001 605,-364.3 601,-360.7 605,-360.7 605,-360.7 605,-360.7 601,-360.7 605,-357.1 597,-360.7001 597,-360.7001"/>
<ellipse fill="none" stroke="#000000" cx="593.8" cy="-360.7001" rx="3.2" ry="3.2"/>
</g>
<!-- event_reminders&#45;&gt;rsvps -->
<g id="edge3" class="edge">
<title>event_reminders:w&#45;&gt;rsvps:e</title>
<path fill="none" stroke="#000000" d="M590.3024,-382.7C573.5415,-382.7 564.6354,-382.7 542.5,-382.7"/>
<polygon fill="#000000" stroke="#000000" points="597,-382.7001 605,-386.3 601,-382.7 605,-382.7 605,-382.7 605,-382.7 601,-382.7 605,-379.1 597,-382.7001 597,-382.7001"/>
<ellipse fill="none" stroke="#000000" cx="593.8" cy="-382.7001" rx="3.2" ry="3.2"/>
</g>
<!-- rsvps&#45;&gt;users -->
<g id="edge5" class="edge">
<title>rsvps:w&#45;&gt;users:e</title>
<path fill="none" stroke="#000000" d="M427.8432,-382.7C410.2137,-382.7 401.0677,-382.7 378,-382.7"/>
<polygon fill="#000000" stroke="#000000" points="434.5,-382.7001 442.5,-386.3 438.5,-382.7 442.5,-382.7 442.5,-382.7 442.5,-382.7 438.5,-382.7 442.5,-379.1 434.5,-382.7001 434.5,-382.7001"/>
<ellipse fill="none" stroke="#000000" cx="431.3" cy="-382.7001" rx="3.2" ry="3.2"/>
</g>
<!-- user_bans -->
<g id="node5" class="node">
<title>user_bans</title>
<g id="a_node5"><a xlink:href="../../tables/user_bans.html" xlink:title="user_bans" target="_top">
<polygon fill="#ffffff" stroke="transparent" points="445.5,-186.2 445.5,-291.2 539.5,-291.2 539.5,-186.2 445.5,-186.2"/>
<polygon fill="#f5f5f5" stroke="transparent" points="445.5,-267.7 445.5,-290.7 539.5,-290.7 539.5,-267.7 445.5,-267.7"/>
<polygon fill="none" stroke="#000000" points="445.5,-267.7 445.5,-290.7 539.5,-290.7 539.5,-267.7 445.5,-267.7"/>
<text text-anchor="start" x="450.3244" y="-276.8" font-family="Helvetica,sans-Serif" font-weight="bold" font-size="11.00" fill="#000000">user_bans</text>
<text text-anchor="start" x="505.0219" y="-275.8" font-family="Helvetica,sans-Serif" font-size="11.00" fill="#000000">[table]</text>
<polygon fill="none" stroke="#000000" points="445.5,-245.7 445.5,-267.7 539.5,-267.7 539.5,-245.7 445.5,-245.7"/>
<image xlink:href="../../images/primaryKeys.png" width="11px" height="12px" preserveAspectRatio="xMinYMin meet" x="450.5" y="-262.7"/>
<text text-anchor="start" x="468.5" y="-252.8" font-family="Helvetica,sans-Serif" font-size="11.00" fill="#000000">user_id</text>
<polygon fill="none" stroke="#000000" points="445.5,-223.7 445.5,-245.7 539.5,-245.7 539.5,-223.7 445.5,-223.7"/>
<image xlink:href="../../images/primaryKeys.png" width="11px" height="12px" preserveAspectRatio="xMinYMin meet" x="450.5" y="-240.7"/>
<text text-anchor="start" x="468.5" y="-230.8" font-family="Helvetica,sans-Serif" font-size="11.00" fill="#000000">chapter_id</text>
<polygon fill="none" stroke="#000000" points="445.5,-204.7 445.5,-223.7 539.5,-223.7 539.5,-204.7 445.5,-204.7"/>
<text text-anchor="start" x="448.5" y="-210.8" font-family="Helvetica,sans-Serif" font-size="11.00" fill="#000000">...</text>
<polygon fill="#ffffff" stroke="transparent" points="445.5,-185.7 445.5,-204.7 477.5,-204.7 477.5,-185.7 445.5,-185.7"/>
<polygon fill="none" stroke="#000000" points="445.5,-185.7 445.5,-204.7 477.5,-204.7 477.5,-185.7 445.5,-185.7"/>
<text text-anchor="start" x="448.5" y="-191.8" font-family="Helvetica,sans-Serif" font-size="11.00" fill="#000000">&lt; 2</text>
<polygon fill="#ffffff" stroke="transparent" points="477.5,-185.7 477.5,-204.7 521.5,-204.7 521.5,-185.7 477.5,-185.7"/>
<polygon fill="none" stroke="#000000" points="477.5,-185.7 477.5,-204.7 521.5,-204.7 521.5,-185.7 477.5,-185.7"/>
<text text-anchor="start" x="486.1105" y="-191.8" font-family="Helvetica,sans-Serif" font-size="11.00" fill="#000000">0 rows</text>
<polygon fill="#ffffff" stroke="transparent" points="521.5,-185.7 521.5,-204.7 539.5,-204.7 539.5,-185.7 521.5,-185.7"/>
<polygon fill="none" stroke="#000000" points="521.5,-185.7 521.5,-204.7 539.5,-204.7 539.5,-185.7 521.5,-185.7"/>
<text text-anchor="start" x="530.3862" y="-191.8" font-family="Helvetica,sans-Serif" font-size="11.00" fill="#000000"> &#160;</text>
</a>
</g>
</g>
<!-- user_bans&#45;&gt;users -->
<g id="edge6" class="edge">
<title>user_bans:w&#45;&gt;users:e</title>
<path fill="none" stroke="#000000" d="M431.179,-259.5684C391.6789,-278.3236 435.8218,-382.7 378,-382.7"/>
<polygon fill="#000000" stroke="#000000" points="437.6558,-258.2712 446.207,-260.2299 441.5779,-257.4856 445.5,-256.7 445.5,-256.7 445.5,-256.7 441.5779,-257.4856 444.793,-253.1701 437.6558,-258.2712 437.6558,-258.2712"/>
<ellipse fill="none" stroke="#000000" cx="434.5181" cy="-258.8997" rx="3.2" ry="3.2"/>
</g>
<!-- user_event_roles -->
<g id="node6" class="node">
<title>user_event_roles</title>
<g id="a_node6"><a xlink:href="../../tables/user_event_roles.html" xlink:title="user_event_roles" target="_top">
<polygon fill="#ffffff" stroke="transparent" points="429,-38.2 429,-165.2 556,-165.2 556,-38.2 429,-38.2"/>
<polygon fill="#f5f5f5" stroke="transparent" points="429.5,-141.7 429.5,-164.7 556.5,-164.7 556.5,-141.7 429.5,-141.7"/>
<polygon fill="none" stroke="#000000" points="429.5,-141.7 429.5,-164.7 556.5,-164.7 556.5,-141.7 429.5,-141.7"/>
<text text-anchor="start" x="434.3222" y="-150.8" font-family="Helvetica,sans-Serif" font-weight="bold" font-size="11.00" fill="#000000">user_event_roles</text>
<text text-anchor="start" x="522.0219" y="-149.8" font-family="Helvetica,sans-Serif" font-size="11.00" fill="#000000">[table]</text>
<polygon fill="none" stroke="#000000" points="429.5,-119.7 429.5,-141.7 556.5,-141.7 556.5,-119.7 429.5,-119.7"/>
<image xlink:href="../../images/primaryKeys.png" width="11px" height="12px" preserveAspectRatio="xMinYMin meet" x="434.5" y="-136.7"/>
<text text-anchor="start" x="453.5" y="-126.8" font-family="Helvetica,sans-Serif" font-size="11.00" fill="#000000">user_id</text>
<polygon fill="none" stroke="#000000" points="429.5,-97.7 429.5,-119.7 556.5,-119.7 556.5,-97.7 429.5,-97.7"/>
<image xlink:href="../../images/primaryKeys.png" width="11px" height="12px" preserveAspectRatio="xMinYMin meet" x="434.5" y="-114.7"/>
<text text-anchor="start" x="453.5" y="-104.8" font-family="Helvetica,sans-Serif" font-size="11.00" fill="#000000">event_id</text>
<polygon fill="none" stroke="#000000" points="429.5,-75.7 429.5,-97.7 556.5,-97.7 556.5,-75.7 429.5,-75.7"/>
<image xlink:href="../../images/primaryKeys.png" width="11px" height="12px" preserveAspectRatio="xMinYMin meet" x="434.5" y="-92.7"/>
<text text-anchor="start" x="453.5" y="-82.8" font-family="Helvetica,sans-Serif" font-size="11.00" fill="#000000">role_name</text>
<polygon fill="none" stroke="#000000" points="429.5,-56.7 429.5,-75.7 556.5,-75.7 556.5,-56.7 429.5,-56.7"/>
<text text-anchor="start" x="432.5" y="-62.8" font-family="Helvetica,sans-Serif" font-size="11.00" fill="#000000">...</text>
<polygon fill="#ffffff" stroke="transparent" points="429.5,-37.7 429.5,-56.7 478.5,-56.7 478.5,-37.7 429.5,-37.7"/>
<polygon fill="none" stroke="#000000" points="429.5,-37.7 429.5,-56.7 478.5,-56.7 478.5,-37.7 429.5,-37.7"/>
<text text-anchor="start" x="432.5" y="-43.8" font-family="Helvetica,sans-Serif" font-size="11.00" fill="#000000">&lt; 2</text>
<polygon fill="#ffffff" stroke="transparent" points="478.5,-37.7 478.5,-56.7 530.5,-56.7 530.5,-37.7 478.5,-37.7"/>
<polygon fill="none" stroke="#000000" points="478.5,-37.7 478.5,-56.7 530.5,-56.7 530.5,-37.7 478.5,-37.7"/>
<text text-anchor="start" x="495.1105" y="-43.8" font-family="Helvetica,sans-Serif" font-size="11.00" fill="#000000">0 rows</text>
<polygon fill="#ffffff" stroke="transparent" points="530.5,-37.7 530.5,-56.7 556.5,-56.7 556.5,-37.7 530.5,-37.7"/>
<polygon fill="none" stroke="#000000" points="530.5,-37.7 530.5,-56.7 556.5,-56.7 556.5,-37.7 530.5,-37.7"/>
<text text-anchor="start" x="547.3862" y="-43.8" font-family="Helvetica,sans-Serif" font-size="11.00" fill="#000000"> &#160;</text>
</a>
</g>
</g>
<!-- user_event_roles&#45;&gt;users -->
<g id="edge7" class="edge">
<title>user_event_roles:w&#45;&gt;users:e</title>
<path fill="none" stroke="#000000" d="M415.0277,-132.3758C331.4696,-154.2402 486.8448,-382.7 378,-382.7"/>
<polygon fill="#000000" stroke="#000000" points="421.5531,-131.6203 429.9141,-134.2761 425.5266,-131.1601 429.5,-130.7 429.5,-130.7 429.5,-130.7 425.5266,-131.1601 429.0859,-127.1239 421.5531,-131.6203 421.5531,-131.6203"/>
<ellipse fill="none" stroke="#000000" cx="418.3743" cy="-131.9884" rx="3.2" ry="3.2"/>
</g>
</g>
</svg>
