<?xml version="1.0" encoding="UTF-8" standalone="no"?>
<!DOCTYPE svg PUBLIC "-//W3C//DTD SVG 1.1//EN"
 "http://www.w3.org/Graphics/SVG/1.1/DTD/svg11.dtd">
<!-- Generated by graphviz version 2.40.1 (20161225.0304)
 -->
<!-- Title: oneDegreeRelationshipsDiagram Pages: 1 -->
<svg width="601pt" height="651pt"
 viewBox="0.00 0.00 601.00 650.70" xmlns="http://www.w3.org/2000/svg" xmlns:xlink="http://www.w3.org/1999/xlink">
<g id="graph0" class="graph" transform="scale(1 1) rotate(0) translate(4 646.7)">
<title>oneDegreeRelationshipsDiagram</title>
<polygon fill="#ffffff" stroke="transparent" points="-4,4 -4,-646.7 597,-646.7 597,4 -4,4"/>
<text text-anchor="middle" x="72.4936" y="-7.3" font-family="Helvetica,sans-Serif" font-size="11.00" fill="#000000">Generated by SchemaSpy</text>
<!-- chapters -->
<g id="node1" class="node">
<title>chapters</title>
<g id="a_node1"><a xlink:href="../../tables/chapters.html" xlink:title="chapters" target="_top">
<polygon fill="#ffffff" stroke="transparent" points="284.5,-343.7 284.5,-448.7 372.5,-448.7 372.5,-343.7 284.5,-343.7"/>
<polygon fill="#f5f5f5" stroke="transparent" points="284.5,-425.2 284.5,-448.2 372.5,-448.2 372.5,-425.2 284.5,-425.2"/>
<polygon fill="none" stroke="#000000" points="284.5,-425.2 284.5,-448.2 372.5,-448.2 372.5,-425.2 284.5,-425.2"/>
<text text-anchor="start" x="289.5" y="-434.3" font-family="Helvetica,sans-Serif" font-weight="bold" font-size="11.00" fill="#000000">chapters</text>
<text text-anchor="start" x="337.5437" y="-433.3" font-family="Helvetica,sans-Serif" font-size="11.00" fill="#000000">[table]</text>
<polygon fill="none" stroke="#000000" points="284.5,-403.2 284.5,-425.2 372.5,-425.2 372.5,-403.2 284.5,-403.2"/>
<image xlink:href="../../images/primaryKeys.png" width="11px" height="12px" preserveAspectRatio="xMinYMin meet" x="289.5" y="-420.2"/>
<text text-anchor="start" x="304.5" y="-410.3" font-family="Helvetica,sans-Serif" font-size="11.00" fill="#000000">id</text>
<polygon fill="none" stroke="#000000" points="284.5,-381.2 284.5,-403.2 372.5,-403.2 372.5,-381.2 284.5,-381.2"/>
<image xlink:href="../../images/foreignKeys.png" width="11px" height="12px" preserveAspectRatio="xMinYMin meet" x="289.5" y="-398.2"/>
<text text-anchor="start" x="304.5" y="-388.3" font-family="Helvetica,sans-Serif" font-size="11.00" fill="#000000">creator_id</text>
<polygon fill="none" stroke="#000000" points="284.5,-362.2 284.5,-381.2 372.5,-381.2 372.5,-362.2 284.5,-362.2"/>
<text text-anchor="start" x="287.5" y="-368.3" font-family="Helvetica,sans-Serif" font-size="11.00" fill="#000000">...</text>
<polygon fill="#ffffff" stroke="transparent" points="284.5,-343.2 284.5,-362.2 309.5,-362.2 309.5,-343.2 284.5,-343.2"/>
<polygon fill="none" stroke="#000000" points="284.5,-343.2 284.5,-362.2 309.5,-362.2 309.5,-343.2 284.5,-343.2"/>
<text text-anchor="start" x="287.5" y="-349.3" font-family="Helvetica,sans-Serif" font-size="11.00" fill="#000000">&lt; 1</text>
<polygon fill="#ffffff" stroke="transparent" points="309.5,-343.2 309.5,-362.2 349.5,-362.2 349.5,-343.2 309.5,-343.2"/>
<polygon fill="none" stroke="#000000" points="309.5,-343.2 309.5,-362.2 349.5,-362.2 349.5,-343.2 309.5,-343.2"/>
<text text-anchor="start" x="314.1105" y="-349.3" font-family="Helvetica,sans-Serif" font-size="11.00" fill="#000000">0 rows</text>
<polygon fill="#ffffff" stroke="transparent" points="349.5,-343.2 349.5,-362.2 372.5,-362.2 372.5,-343.2 349.5,-343.2"/>
<polygon fill="none" stroke="#000000" points="349.5,-343.2 349.5,-362.2 372.5,-362.2 372.5,-343.2 349.5,-343.2"/>
<text text-anchor="start" x="353.9053" y="-349.3" font-family="Helvetica,sans-Serif" font-size="11.00" fill="#000000">3 &gt;</text>
</a>
</g>
</g>
<!-- users -->
<g id="node2" class="node">
<title>users</title>
<g id="a_node2"><a xlink:href="../../tables/users.html" xlink:title="users" target="_top">
<polygon fill="#ffffff" stroke="transparent" points="8,-213.2 8,-391.2 209,-391.2 209,-213.2 8,-213.2"/>
<polygon fill="#f5f5f5" stroke="transparent" points="10.5,-366.2 10.5,-389.2 207.5,-389.2 207.5,-366.2 10.5,-366.2"/>
<polygon fill="none" stroke="#000000" points="10.5,-366.2 10.5,-389.2 207.5,-389.2 207.5,-366.2 10.5,-366.2"/>
<text text-anchor="start" x="15.5" y="-375.3" font-family="Helvetica,sans-Serif" font-weight="bold" font-size="11.00" fill="#000000">users</text>
<text text-anchor="start" x="172.5437" y="-374.3" font-family="Helvetica,sans-Serif" font-size="11.00" fill="#000000">[table]</text>
<polygon fill="none" stroke="#000000" points="10.5,-344.2 10.5,-366.2 98.5,-366.2 98.5,-344.2 10.5,-344.2"/>
<image xlink:href="../../images/primaryKeys.png" width="11px" height="12px" preserveAspectRatio="xMinYMin meet" x="15.5" y="-361.2"/>
<text text-anchor="start" x="30.5" y="-351.3" font-family="Helvetica,sans-Serif" font-size="11.00" fill="#000000">id</text>
<polygon fill="none" stroke="#000000" points="98.5,-344.2 98.5,-366.2 207.5,-366.2 207.5,-344.2 98.5,-344.2"/>
<text text-anchor="start" x="101.5" y="-351.9" font-family="Helvetica,sans-Serif" font-size="11.00" fill="#000000">serial[10]</text>
<polygon fill="none" stroke="#000000" points="10.5,-322.2 10.5,-344.2 98.5,-344.2 98.5,-322.2 10.5,-322.2"/>
<text text-anchor="start" x="30.5" y="-329.3" font-family="Helvetica,sans-Serif" font-size="11.00" fill="#000000">created_at</text>
<polygon fill="none" stroke="#000000" points="98.5,-322.2 98.5,-344.2 207.5,-344.2 207.5,-322.2 98.5,-322.2"/>
<text text-anchor="start" x="101.5" y="-329.9" font-family="Helvetica,sans-Serif" font-size="11.00" fill="#000000">timestamp[29,6]</text>
<polygon fill="none" stroke="#000000" points="10.5,-300.2 10.5,-322.2 98.5,-322.2 98.5,-300.2 10.5,-300.2"/>
<text text-anchor="start" x="30.5" y="-307.3" font-family="Helvetica,sans-Serif" font-size="11.00" fill="#000000">updated_at</text>
<polygon fill="none" stroke="#000000" points="98.5,-300.2 98.5,-322.2 207.5,-322.2 207.5,-300.2 98.5,-300.2"/>
<text text-anchor="start" x="101.5" y="-307.9" font-family="Helvetica,sans-Serif" font-size="11.00" fill="#000000">timestamp[29,6]</text>
<polygon fill="none" stroke="#000000" points="10.5,-278.2 10.5,-300.2 98.5,-300.2 98.5,-278.2 10.5,-278.2"/>
<text text-anchor="start" x="30.5" y="-285.3" font-family="Helvetica,sans-Serif" font-size="11.00" fill="#000000">first_name</text>
<polygon fill="none" stroke="#000000" points="98.5,-278.2 98.5,-300.2 207.5,-300.2 207.5,-278.2 98.5,-278.2"/>
<text text-anchor="start" x="101.0344" y="-285.9" font-family="Helvetica,sans-Serif" font-size="11.00" fill="#000000">varchar[2147483647]</text>
<polygon fill="none" stroke="#000000" points="10.5,-256.2 10.5,-278.2 98.5,-278.2 98.5,-256.2 10.5,-256.2"/>
<text text-anchor="start" x="30.5" y="-263.3" font-family="Helvetica,sans-Serif" font-size="11.00" fill="#000000">last_name</text>
<polygon fill="none" stroke="#000000" points="98.5,-256.2 98.5,-278.2 207.5,-278.2 207.5,-256.2 98.5,-256.2"/>
<text text-anchor="start" x="101.0344" y="-263.9" font-family="Helvetica,sans-Serif" font-size="11.00" fill="#000000">varchar[2147483647]</text>
<polygon fill="#ffffff" stroke="transparent" points="10.5,-234.2 10.5,-256.2 98.5,-256.2 98.5,-234.2 10.5,-234.2"/>
<polygon fill="none" stroke="#000000" points="10.5,-234.2 10.5,-256.2 98.5,-256.2 98.5,-234.2 10.5,-234.2"/>
<text text-anchor="start" x="30.5" y="-241.3" font-family="Helvetica,sans-Serif" font-size="11.00" fill="#000000">email</text>
<polygon fill="none" stroke="#000000" points="98.5,-234.2 98.5,-256.2 207.5,-256.2 207.5,-234.2 98.5,-234.2"/>
<text text-anchor="start" x="101.0344" y="-241.9" font-family="Helvetica,sans-Serif" font-size="11.00" fill="#000000">varchar[2147483647]</text>
<polygon fill="#ffffff" stroke="transparent" points="10.5,-215.2 10.5,-234.2 45.5,-234.2 45.5,-215.2 10.5,-215.2"/>
<polygon fill="none" stroke="#000000" points="10.5,-215.2 10.5,-234.2 45.5,-234.2 45.5,-215.2 10.5,-215.2"/>
<text text-anchor="start" x="13.5" y="-221.3" font-family="Helvetica,sans-Serif" font-size="11.00" fill="#000000">&lt; 0</text>
<polygon fill="#ffffff" stroke="transparent" points="45.5,-215.2 45.5,-234.2 98.5,-234.2 98.5,-215.2 45.5,-215.2"/>
<polygon fill="none" stroke="#000000" points="45.5,-215.2 45.5,-234.2 98.5,-234.2 98.5,-215.2 45.5,-215.2"/>
<text text-anchor="start" x="63.1105" y="-221.3" font-family="Helvetica,sans-Serif" font-size="11.00" fill="#000000">0 rows</text>
<polygon fill="#ffffff" stroke="transparent" points="98.5,-215.2 98.5,-234.2 207.5,-234.2 207.5,-215.2 98.5,-215.2"/>
<polygon fill="none" stroke="#000000" points="98.5,-215.2 98.5,-234.2 207.5,-234.2 207.5,-215.2 98.5,-215.2"/>
<text text-anchor="start" x="188.9053" y="-221.3" font-family="Helvetica,sans-Serif" font-size="11.00" fill="#000000">6 &gt;</text>
<polygon fill="none" stroke="#000000" stroke-width="2" points="9,-214.2 9,-390.2 208,-390.2 208,-214.2 9,-214.2"/>
</a>
</g>
</g>
<!-- chapters&#45;&gt;users -->
<g id="edge1" class="edge">
<title>chapters:w&#45;&gt;users:e</title>
<path fill="none" stroke="#000000" d="M270.1271,-390.1047C245.4535,-382.2776 239.9806,-355.2 207.5,-355.2"/>
<polygon fill="#000000" stroke="#000000" points="276.5837,-391.0459 283.9807,-395.7623 280.5418,-391.623 284.5,-392.2 284.5,-392.2 284.5,-392.2 280.5418,-391.623 285.0193,-388.6377 276.5837,-391.0459 276.5837,-391.0459"/>
<ellipse fill="none" stroke="#000000" cx="273.4171" cy="-390.5843" rx="3.2" ry="3.2"/>
</g>
<!-- rsvps -->
<g id="node3" class="node">
<title>rsvps</title>
<g id="a_node3"><a xlink:href="../../tables/rsvps.html" xlink:title="rsvps" target="_top">
<polygon fill="#ffffff" stroke="transparent" points="278.5,-469.7 278.5,-596.7 378.5,-596.7 378.5,-469.7 278.5,-469.7"/>
<polygon fill="#f5f5f5" stroke="transparent" points="278.5,-573.2 278.5,-596.2 378.5,-596.2 378.5,-573.2 278.5,-573.2"/>
<polygon fill="none" stroke="#000000" points="278.5,-573.2 278.5,-596.2 378.5,-596.2 378.5,-573.2 278.5,-573.2"/>
<text text-anchor="start" x="283.5" y="-582.3" font-family="Helvetica,sans-Serif" font-weight="bold" font-size="11.00" fill="#000000">rsvps</text>
<text text-anchor="start" x="343.5437" y="-581.3" font-family="Helvetica,sans-Serif" font-size="11.00" fill="#000000">[table]</text>
<polygon fill="none" stroke="#000000" points="278.5,-551.2 278.5,-573.2 378.5,-573.2 378.5,-551.2 278.5,-551.2"/>
<image xlink:href="../../images/primaryKeys.png" width="11px" height="12px" preserveAspectRatio="xMinYMin meet" x="283.5" y="-568.2"/>
<text text-anchor="start" x="298.5" y="-558.3" font-family="Helvetica,sans-Serif" font-size="11.00" fill="#000000">id</text>
<polygon fill="none" stroke="#000000" points="278.5,-529.2 278.5,-551.2 378.5,-551.2 378.5,-529.2 278.5,-529.2"/>
<image xlink:href="../../images/foreignKeys.png" width="11px" height="12px" preserveAspectRatio="xMinYMin meet" x="283.5" y="-546.2"/>
<text text-anchor="start" x="298.5" y="-536.3" font-family="Helvetica,sans-Serif" font-size="11.00" fill="#000000">event_id</text>
<polygon fill="none" stroke="#000000" points="278.5,-507.2 278.5,-529.2 378.5,-529.2 378.5,-507.2 278.5,-507.2"/>
<image xlink:href="../../images/foreignKeys.png" width="11px" height="12px" preserveAspectRatio="xMinYMin meet" x="283.5" y="-524.2"/>
<text text-anchor="start" x="298.5" y="-514.3" font-family="Helvetica,sans-Serif" font-size="11.00" fill="#000000">user_id</text>
<polygon fill="none" stroke="#000000" points="278.5,-488.2 278.5,-507.2 378.5,-507.2 378.5,-488.2 278.5,-488.2"/>
<text text-anchor="start" x="281.5" y="-494.3" font-family="Helvetica,sans-Serif" font-size="11.00" fill="#000000">...</text>
<polygon fill="#ffffff" stroke="transparent" points="278.5,-469.2 278.5,-488.2 313.5,-488.2 313.5,-469.2 278.5,-469.2"/>
<polygon fill="none" stroke="#000000" points="278.5,-469.2 278.5,-488.2 313.5,-488.2 313.5,-469.2 278.5,-469.2"/>
<text text-anchor="start" x="281.5" y="-475.3" font-family="Helvetica,sans-Serif" font-size="11.00" fill="#000000">&lt; 2</text>
<polygon fill="#ffffff" stroke="transparent" points="313.5,-469.2 313.5,-488.2 358.5,-488.2 358.5,-469.2 313.5,-469.2"/>
<polygon fill="none" stroke="#000000" points="313.5,-469.2 313.5,-488.2 358.5,-488.2 358.5,-469.2 313.5,-469.2"/>
<text text-anchor="start" x="323.1105" y="-475.3" font-family="Helvetica,sans-Serif" font-size="11.00" fill="#000000">0 rows</text>
<polygon fill="#ffffff" stroke="transparent" points="358.5,-469.2 358.5,-488.2 378.5,-488.2 378.5,-469.2 358.5,-469.2"/>
<polygon fill="none" stroke="#000000" points="358.5,-469.2 358.5,-488.2 378.5,-488.2 378.5,-469.2 358.5,-469.2"/>
<text text-anchor="start" x="369.3862" y="-475.3" font-family="Helvetica,sans-Serif" font-size="11.00" fill="#000000"> &#160;</text>
</a>
</g>
</g>
<!-- rsvps&#45;&gt;users -->
<g id="edge2" class="edge">
<title>rsvps:w&#45;&gt;users:e</title>
<path fill="none" stroke="#000000" d="M264.1794,-515.8958C210.9,-496.084 280.9627,-355.2 207.5,-355.2"/>
<polygon fill="#000000" stroke="#000000" points="270.6016,-516.9291 277.9281,-521.7543 274.5508,-517.5645 278.5,-518.2 278.5,-518.2 278.5,-518.2 274.5508,-517.5645 279.0719,-514.6457 270.6016,-516.9291 270.6016,-516.9291"/>
<ellipse fill="none" stroke="#000000" cx="267.4422" cy="-516.4207" rx="3.2" ry="3.2"/>
</g>
<!-- user_bans -->
<g id="node4" class="node">
<title>user_bans</title>
<g id="a_node4"><a xlink:href="../../tables/user_bans.html" xlink:title="user_bans" target="_top">
<polygon fill="#ffffff" stroke="transparent" points="469.5,-511.7 469.5,-638.7 563.5,-638.7 563.5,-511.7 469.5,-511.7"/>
<polygon fill="#f5f5f5" stroke="transparent" points="469.5,-615.2 469.5,-638.2 563.5,-638.2 563.5,-615.2 469.5,-615.2"/>
<polygon fill="none" stroke="#000000" points="469.5,-615.2 469.5,-638.2 563.5,-638.2 563.5,-615.2 469.5,-615.2"/>
<text text-anchor="start" x="474.3244" y="-624.3" font-family="Helvetica,sans-Serif" font-weight="bold" font-size="11.00" fill="#000000">user_bans</text>
<text text-anchor="start" x="529.0219" y="-623.3" font-family="Helvetica,sans-Serif" font-size="11.00" fill="#000000">[table]</text>
<polygon fill="none" stroke="#000000" points="469.5,-593.2 469.5,-615.2 563.5,-615.2 563.5,-593.2 469.5,-593.2"/>
<image xlink:href="../../images/primaryKeys.png" width="11px" height="12px" preserveAspectRatio="xMinYMin meet" x="474.5" y="-610.2"/>
<text text-anchor="start" x="492.5" y="-600.3" font-family="Helvetica,sans-Serif" font-size="11.00" fill="#000000">id</text>
<polygon fill="none" stroke="#000000" points="469.5,-571.2 469.5,-593.2 563.5,-593.2 563.5,-571.2 469.5,-571.2"/>
<image xlink:href="../../images/foreignKeys.png" width="11px" height="12px" preserveAspectRatio="xMinYMin meet" x="474.5" y="-588.2"/>
<text text-anchor="start" x="492.5" y="-578.3" font-family="Helvetica,sans-Serif" font-size="11.00" fill="#000000">user_id</text>
<polygon fill="none" stroke="#000000" points="469.5,-549.2 469.5,-571.2 563.5,-571.2 563.5,-549.2 469.5,-549.2"/>
<image xlink:href="../../images/foreignKeys.png" width="11px" height="12px" preserveAspectRatio="xMinYMin meet" x="474.5" y="-566.2"/>
<text text-anchor="start" x="492.5" y="-556.3" font-family="Helvetica,sans-Serif" font-size="11.00" fill="#000000">chapter_id</text>
<polygon fill="none" stroke="#000000" points="469.5,-530.2 469.5,-549.2 563.5,-549.2 563.5,-530.2 469.5,-530.2"/>
<text text-anchor="start" x="472.5" y="-536.3" font-family="Helvetica,sans-Serif" font-size="11.00" fill="#000000">...</text>
<polygon fill="#ffffff" stroke="transparent" points="469.5,-511.2 469.5,-530.2 501.5,-530.2 501.5,-511.2 469.5,-511.2"/>
<polygon fill="none" stroke="#000000" points="469.5,-511.2 469.5,-530.2 501.5,-530.2 501.5,-511.2 469.5,-511.2"/>
<text text-anchor="start" x="472.5" y="-517.3" font-family="Helvetica,sans-Serif" font-size="11.00" fill="#000000">&lt; 2</text>
<polygon fill="#ffffff" stroke="transparent" points="501.5,-511.2 501.5,-530.2 545.5,-530.2 545.5,-511.2 501.5,-511.2"/>
<polygon fill="none" stroke="#000000" points="501.5,-511.2 501.5,-530.2 545.5,-530.2 545.5,-511.2 501.5,-511.2"/>
<text text-anchor="start" x="510.1105" y="-517.3" font-family="Helvetica,sans-Serif" font-size="11.00" fill="#000000">0 rows</text>
<polygon fill="#ffffff" stroke="transparent" points="545.5,-511.2 545.5,-530.2 563.5,-530.2 563.5,-511.2 545.5,-511.2"/>
<polygon fill="none" stroke="#000000" points="545.5,-511.2 545.5,-530.2 563.5,-530.2 563.5,-511.2 545.5,-511.2"/>
<text text-anchor="start" x="554.3862" y="-517.3" font-family="Helvetica,sans-Serif" font-size="11.00" fill="#000000"> &#160;</text>
</a>
</g>
</g>
<!-- user_bans&#45;&gt;chapters -->
<g id="edge3" class="edge">
<title>user_bans:w&#45;&gt;chapters:e</title>
<path fill="none" stroke="#000000" d="M454.9996,-558.1361C399.1895,-540.3906 444.927,-414.2 372.5,-414.2"/>
<polygon fill="#000000" stroke="#000000" points="461.5798,-559.0726 468.9927,-563.7641 465.5399,-559.6363 469.5,-560.2 469.5,-560.2 469.5,-560.2 465.5399,-559.6363 470.0073,-556.6359 461.5798,-559.0726 461.5798,-559.0726"/>
<ellipse fill="none" stroke="#000000" cx="458.4118" cy="-558.6217" rx="3.2" ry="3.2"/>
</g>
<!-- user_bans&#45;&gt;users -->
<g id="edge4" class="edge">
<title>user_bans:w&#45;&gt;users:e</title>
<path fill="none" stroke="#000000" d="M455.1401,-584.0223C437.4605,-588.9723 430.8694,-602.6032 407,-607.2 338.4813,-620.3955 303.2853,-652.2512 250,-607.2 206.6321,-570.5337 264.2908,-355.2 207.5,-355.2"/>
<polygon fill="#000000" stroke="#000000" points="461.5636,-583.2072 469.9532,-585.7714 465.5318,-582.7036 469.5,-582.2 469.5,-582.2 469.5,-582.2 465.5318,-582.7036 469.0468,-578.6286 461.5636,-583.2072 461.5636,-583.2072"/>
<ellipse fill="none" stroke="#000000" cx="458.3891" cy="-583.6101" rx="3.2" ry="3.2"/>
</g>
<!-- user_chapter_roles -->
<g id="node5" class="node">
<title>user_chapter_roles</title>
<g id="a_node5"><a xlink:href="../../tables/user_chapter_roles.html" xlink:title="user_chapter_roles" target="_top">
<polygon fill="#ffffff" stroke="transparent" points="448,-264.7 448,-413.7 585,-413.7 585,-264.7 448,-264.7"/>
<polygon fill="#f5f5f5" stroke="transparent" points="448.5,-390.2 448.5,-413.2 585.5,-413.2 585.5,-390.2 448.5,-390.2"/>
<polygon fill="none" stroke="#000000" points="448.5,-390.2 448.5,-413.2 585.5,-413.2 585.5,-390.2 448.5,-390.2"/>
<text text-anchor="start" x="453.4338" y="-399.3" font-family="Helvetica,sans-Serif" font-weight="bold" font-size="11.00" fill="#000000">user_chapter_roles</text>
<text text-anchor="start" x="551.0219" y="-398.3" font-family="Helvetica,sans-Serif" font-size="11.00" fill="#000000">[table]</text>
<polygon fill="none" stroke="#000000" points="448.5,-368.2 448.5,-390.2 585.5,-390.2 585.5,-368.2 448.5,-368.2"/>
<image xlink:href="../../images/primaryKeys.png" width="11px" height="12px" preserveAspectRatio="xMinYMin meet" x="453.5" y="-385.2"/>
<text text-anchor="start" x="470.5" y="-375.3" font-family="Helvetica,sans-Serif" font-size="11.00" fill="#000000">id</text>
<polygon fill="none" stroke="#000000" points="448.5,-346.2 448.5,-368.2 585.5,-368.2 585.5,-346.2 448.5,-346.2"/>
<image xlink:href="../../images/primaryKeys.png" width="11px" height="12px" preserveAspectRatio="xMinYMin meet" x="453.5" y="-363.2"/>
<text text-anchor="start" x="470.5" y="-353.3" font-family="Helvetica,sans-Serif" font-size="11.00" fill="#000000">user_id</text>
<polygon fill="none" stroke="#000000" points="448.5,-324.2 448.5,-346.2 585.5,-346.2 585.5,-324.2 448.5,-324.2"/>
<image xlink:href="../../images/primaryKeys.png" width="11px" height="12px" preserveAspectRatio="xMinYMin meet" x="453.5" y="-341.2"/>
<text text-anchor="start" x="470.5" y="-331.3" font-family="Helvetica,sans-Serif" font-size="11.00" fill="#000000">chapter_id</text>
<polygon fill="none" stroke="#000000" points="448.5,-302.2 448.5,-324.2 585.5,-324.2 585.5,-302.2 448.5,-302.2"/>
<image xlink:href="../../images/primaryKeys.png" width="11px" height="12px" preserveAspectRatio="xMinYMin meet" x="453.5" y="-319.2"/>
<text text-anchor="start" x="470.5" y="-309.3" font-family="Helvetica,sans-Serif" font-size="11.00" fill="#000000">role_name</text>
<polygon fill="none" stroke="#000000" points="448.5,-283.2 448.5,-302.2 585.5,-302.2 585.5,-283.2 448.5,-283.2"/>
<text text-anchor="start" x="451.5" y="-289.3" font-family="Helvetica,sans-Serif" font-size="11.00" fill="#000000">...</text>
<polygon fill="#ffffff" stroke="transparent" points="448.5,-264.2 448.5,-283.2 502.5,-283.2 502.5,-264.2 448.5,-264.2"/>
<polygon fill="none" stroke="#000000" points="448.5,-264.2 448.5,-283.2 502.5,-283.2 502.5,-264.2 448.5,-264.2"/>
<text text-anchor="start" x="451.5" y="-270.3" font-family="Helvetica,sans-Serif" font-size="11.00" fill="#000000">&lt; 2</text>
<polygon fill="#ffffff" stroke="transparent" points="502.5,-264.2 502.5,-283.2 556.5,-283.2 556.5,-264.2 502.5,-264.2"/>
<polygon fill="none" stroke="#000000" points="502.5,-264.2 502.5,-283.2 556.5,-283.2 556.5,-264.2 502.5,-264.2"/>
<text text-anchor="start" x="521.1105" y="-270.3" font-family="Helvetica,sans-Serif" font-size="11.00" fill="#000000">0 rows</text>
<polygon fill="#ffffff" stroke="transparent" points="556.5,-264.2 556.5,-283.2 585.5,-283.2 585.5,-264.2 556.5,-264.2"/>
<polygon fill="none" stroke="#000000" points="556.5,-264.2 556.5,-283.2 585.5,-283.2 585.5,-264.2 556.5,-264.2"/>
<text text-anchor="start" x="576.3862" y="-270.3" font-family="Helvetica,sans-Serif" font-size="11.00" fill="#000000"> &#160;</text>
</a>
</g>
</g>
<!-- user_chapter_roles&#45;&gt;chapters -->
<g id="edge5" class="edge">
<title>user_chapter_roles:w&#45;&gt;chapters:e</title>
<path fill="none" stroke="#000000" d="M434.0363,-338.2004C403.841,-352.6307 415.5114,-414.2 372.5,-414.2"/>
<polygon fill="#000000" stroke="#000000" points="440.6668,-336.825 449.2313,-338.725 444.5834,-336.0125 448.5,-335.2 448.5,-335.2 448.5,-335.2 444.5834,-336.0125 447.7687,-331.675 440.6668,-336.825 440.6668,-336.825"/>
<ellipse fill="none" stroke="#000000" cx="437.5335" cy="-337.475" rx="3.2" ry="3.2"/>
</g>
<!-- user_chapter_roles&#45;&gt;users -->
<g id="edge6" class="edge">
<title>user_chapter_roles:w&#45;&gt;users:e</title>
<path fill="none" stroke="#000000" d="M434.4304,-353.3273C425.6644,-347.6 421.6302,-337.1258 407,-333.2 339.6064,-315.1159 317.7971,-316.6928 250,-333.2 229.3342,-338.2317 228.7696,-355.2 207.5,-355.2"/>
<polygon fill="#000000" stroke="#000000" points="440.7869,-355.0769 447.5446,-360.6709 444.6434,-356.1385 448.5,-357.2 448.5,-357.2 448.5,-357.2 444.6434,-356.1385 449.4554,-353.7291 440.7869,-355.0769 440.7869,-355.0769"/>
<ellipse fill="none" stroke="#000000" cx="437.7016" cy="-354.2277" rx="3.2" ry="3.2"/>
</g>
<!-- user_event_roles -->
<g id="node6" class="node">
<title>user_event_roles</title>
<g id="a_node6"><a xlink:href="../../tables/user_event_roles.html" xlink:title="user_event_roles" target="_top">
<polygon fill="#ffffff" stroke="transparent" points="265,-145.7 265,-294.7 392,-294.7 392,-145.7 265,-145.7"/>
<polygon fill="#f5f5f5" stroke="transparent" points="265.5,-271.2 265.5,-294.2 392.5,-294.2 392.5,-271.2 265.5,-271.2"/>
<polygon fill="none" stroke="#000000" points="265.5,-271.2 265.5,-294.2 392.5,-294.2 392.5,-271.2 265.5,-271.2"/>
<text text-anchor="start" x="270.3222" y="-280.3" font-family="Helvetica,sans-Serif" font-weight="bold" font-size="11.00" fill="#000000">user_event_roles</text>
<text text-anchor="start" x="358.0219" y="-279.3" font-family="Helvetica,sans-Serif" font-size="11.00" fill="#000000">[table]</text>
<polygon fill="none" stroke="#000000" points="265.5,-249.2 265.5,-271.2 392.5,-271.2 392.5,-249.2 265.5,-249.2"/>
<image xlink:href="../../images/primaryKeys.png" width="11px" height="12px" preserveAspectRatio="xMinYMin meet" x="270.5" y="-266.2"/>
<text text-anchor="start" x="289.5" y="-256.3" font-family="Helvetica,sans-Serif" font-size="11.00" fill="#000000">id</text>
<polygon fill="none" stroke="#000000" points="265.5,-227.2 265.5,-249.2 392.5,-249.2 392.5,-227.2 265.5,-227.2"/>
<image xlink:href="../../images/primaryKeys.png" width="11px" height="12px" preserveAspectRatio="xMinYMin meet" x="270.5" y="-244.2"/>
<text text-anchor="start" x="289.5" y="-234.3" font-family="Helvetica,sans-Serif" font-size="11.00" fill="#000000">user_id</text>
<polygon fill="none" stroke="#000000" points="265.5,-205.2 265.5,-227.2 392.5,-227.2 392.5,-205.2 265.5,-205.2"/>
<image xlink:href="../../images/primaryKeys.png" width="11px" height="12px" preserveAspectRatio="xMinYMin meet" x="270.5" y="-222.2"/>
<text text-anchor="start" x="289.5" y="-212.3" font-family="Helvetica,sans-Serif" font-size="11.00" fill="#000000">event_id</text>
<polygon fill="none" stroke="#000000" points="265.5,-183.2 265.5,-205.2 392.5,-205.2 392.5,-183.2 265.5,-183.2"/>
<image xlink:href="../../images/primaryKeys.png" width="11px" height="12px" preserveAspectRatio="xMinYMin meet" x="270.5" y="-200.2"/>
<text text-anchor="start" x="289.5" y="-190.3" font-family="Helvetica,sans-Serif" font-size="11.00" fill="#000000">role_name</text>
<polygon fill="none" stroke="#000000" points="265.5,-164.2 265.5,-183.2 392.5,-183.2 392.5,-164.2 265.5,-164.2"/>
<text text-anchor="start" x="268.5" y="-170.3" font-family="Helvetica,sans-Serif" font-size="11.00" fill="#000000">...</text>
<polygon fill="#ffffff" stroke="transparent" points="265.5,-145.2 265.5,-164.2 314.5,-164.2 314.5,-145.2 265.5,-145.2"/>
<polygon fill="none" stroke="#000000" points="265.5,-145.2 265.5,-164.2 314.5,-164.2 314.5,-145.2 265.5,-145.2"/>
<text text-anchor="start" x="268.5" y="-151.3" font-family="Helvetica,sans-Serif" font-size="11.00" fill="#000000">&lt; 2</text>
<polygon fill="#ffffff" stroke="transparent" points="314.5,-145.2 314.5,-164.2 366.5,-164.2 366.5,-145.2 314.5,-145.2"/>
<polygon fill="none" stroke="#000000" points="314.5,-145.2 314.5,-164.2 366.5,-164.2 366.5,-145.2 314.5,-145.2"/>
<text text-anchor="start" x="331.1105" y="-151.3" font-family="Helvetica,sans-Serif" font-size="11.00" fill="#000000">0 rows</text>
<polygon fill="#ffffff" stroke="transparent" points="366.5,-145.2 366.5,-164.2 392.5,-164.2 392.5,-145.2 366.5,-145.2"/>
<polygon fill="none" stroke="#000000" points="366.5,-145.2 366.5,-164.2 392.5,-164.2 392.5,-145.2 366.5,-145.2"/>
<text text-anchor="start" x="383.3862" y="-151.3" font-family="Helvetica,sans-Serif" font-size="11.00" fill="#000000"> &#160;</text>
</a>
</g>
</g>
<!-- user_event_roles&#45;&gt;users -->
<g id="edge7" class="edge">
<title>user_event_roles:w&#45;&gt;users:e</title>
<path fill="none" stroke="#000000" d="M251.1662,-241.5754C218.0605,-260.7588 259.6442,-355.2 207.5,-355.2"/>
<polygon fill="#000000" stroke="#000000" points="257.713,-240.0338 266.3252,-241.7042 261.6065,-239.1169 265.5,-238.2 265.5,-238.2 265.5,-238.2 261.6065,-239.1169 264.6748,-234.6958 257.713,-240.0338 257.713,-240.0338"/>
<ellipse fill="none" stroke="#000000" cx="254.5982" cy="-240.7673" rx="3.2" ry="3.2"/>
</g>
<!-- user_instance_roles -->
<g id="node7" class="node">
<title>user_instance_roles</title>
<g id="a_node7"><a xlink:href="../../tables/user_instance_roles.html" xlink:title="user_instance_roles" target="_top">
<polygon fill="#ffffff" stroke="transparent" points="258,-38.2 258,-124.2 399,-124.2 399,-38.2 258,-38.2"/>
<polygon fill="#f5f5f5" stroke="transparent" points="258.5,-101.2 258.5,-124.2 399.5,-124.2 399.5,-101.2 258.5,-101.2"/>
<polygon fill="none" stroke="#000000" points="258.5,-101.2 258.5,-124.2 399.5,-124.2 399.5,-101.2 258.5,-101.2"/>
<text text-anchor="start" x="263.2943" y="-110.3" font-family="Helvetica,sans-Serif" font-weight="bold" font-size="11.00" fill="#000000">user_instance_roles</text>
<text text-anchor="start" x="365.0219" y="-109.3" font-family="Helvetica,sans-Serif" font-size="11.00" fill="#000000">[table]</text>
<polygon fill="none" stroke="#000000" points="258.5,-79.2 258.5,-101.2 399.5,-101.2 399.5,-79.2 258.5,-79.2"/>
<image xlink:href="../../images/primaryKeys.png" width="11px" height="12px" preserveAspectRatio="xMinYMin meet" x="263.5" y="-96.2"/>
<text text-anchor="start" x="280.5" y="-86.3" font-family="Helvetica,sans-Serif" font-size="11.00" fill="#000000">user_id</text>
<polygon fill="none" stroke="#000000" points="258.5,-57.2 258.5,-79.2 399.5,-79.2 399.5,-57.2 258.5,-57.2"/>
<image xlink:href="../../images/primaryKeys.png" width="11px" height="12px" preserveAspectRatio="xMinYMin meet" x="263.5" y="-74.2"/>
<text text-anchor="start" x="280.5" y="-64.3" font-family="Helvetica,sans-Serif" font-size="11.00" fill="#000000">role_name</text>
<polygon fill="#ffffff" stroke="transparent" points="258.5,-38.2 258.5,-57.2 314.5,-57.2 314.5,-38.2 258.5,-38.2"/>
<polygon fill="none" stroke="#000000" points="258.5,-38.2 258.5,-57.2 314.5,-57.2 314.5,-38.2 258.5,-38.2"/>
<text text-anchor="start" x="261.5" y="-44.3" font-family="Helvetica,sans-Serif" font-size="11.00" fill="#000000">&lt; 1</text>
<polygon fill="#ffffff" stroke="transparent" points="314.5,-38.2 314.5,-57.2 369.5,-57.2 369.5,-38.2 314.5,-38.2"/>
<polygon fill="none" stroke="#000000" points="314.5,-38.2 314.5,-57.2 369.5,-57.2 369.5,-38.2 314.5,-38.2"/>
<text text-anchor="start" x="334.1105" y="-44.3" font-family="Helvetica,sans-Serif" font-size="11.00" fill="#000000">0 rows</text>
<polygon fill="#ffffff" stroke="transparent" points="369.5,-38.2 369.5,-57.2 399.5,-57.2 399.5,-38.2 369.5,-38.2"/>
<polygon fill="none" stroke="#000000" points="369.5,-38.2 369.5,-57.2 399.5,-57.2 399.5,-38.2 369.5,-38.2"/>
<text text-anchor="start" x="390.3862" y="-44.3" font-family="Helvetica,sans-Serif" font-size="11.00" fill="#000000"> &#160;</text>
</a>
</g>
</g>
<!-- user_instance_roles&#45;&gt;users -->
<g id="edge8" class="edge">
<title>user_instance_roles:w&#45;&gt;users:e</title>
<path fill="none" stroke="#000000" d="M244.1499,-91.7562C154.9073,-113.4738 322.0512,-355.2 207.5,-355.2"/>
<polygon fill="#000000" stroke="#000000" points="250.5466,-91.0626 258.8882,-93.779 254.5233,-90.6313 258.5,-90.2 258.5,-90.2 258.5,-90.2 254.5233,-90.6313 258.1118,-86.621 250.5466,-91.0626 250.5466,-91.0626"/>
<ellipse fill="none" stroke="#000000" cx="247.3653" cy="-91.4076" rx="3.2" ry="3.2"/>
</g>
</g>
</svg>
