<?xml version="1.0" encoding="UTF-8" standalone="no"?>
<!DOCTYPE svg PUBLIC "-//W3C//DTD SVG 1.1//EN"
 "http://www.w3.org/Graphics/SVG/1.1/DTD/svg11.dtd">
<!-- Generated by graphviz version 2.40.1 (20161225.0304)
 -->
<!-- Title: twoDegreesRelationshipsDiagram Pages: 1 -->
<svg width="530pt" height="703pt"
 viewBox="0.00 0.00 530.00 703.20" xmlns="http://www.w3.org/2000/svg" xmlns:xlink="http://www.w3.org/1999/xlink">
<g id="graph0" class="graph" transform="scale(1 1) rotate(0) translate(4 699.2)">
<title>twoDegreesRelationshipsDiagram</title>
<polygon fill="#ffffff" stroke="transparent" points="-4,4 -4,-699.2 526,-699.2 526,4 -4,4"/>
<text text-anchor="middle" x="72.4936" y="-7.3" font-family="Helvetica,sans-Serif" font-size="11.00" fill="#000000">Generated by SchemaSpy</text>
<!-- events -->
<g id="node1" class="node">
<title>events</title>
<g id="a_node1"><a xlink:href="../../tables/events.html" xlink:title="events" target="_top">
<polygon fill="#ffffff" stroke="transparent" points="193,-482.2 193,-543.2 273,-543.2 273,-482.2 193,-482.2"/>
<polygon fill="#f5f5f5" stroke="transparent" points="193,-519.7 193,-542.7 273,-542.7 273,-519.7 193,-519.7"/>
<polygon fill="none" stroke="#000000" points="193,-519.7 193,-542.7 273,-542.7 273,-519.7 193,-519.7"/>
<text text-anchor="start" x="198" y="-528.8" font-family="Helvetica,sans-Serif" font-weight="bold" font-size="11.00" fill="#000000">events</text>
<text text-anchor="start" x="238.0437" y="-527.8" font-family="Helvetica,sans-Serif" font-size="11.00" fill="#000000">[table]</text>
<polygon fill="none" stroke="#000000" points="193,-500.7 193,-519.7 273,-519.7 273,-500.7 193,-500.7"/>
<text text-anchor="start" x="196" y="-506.8" font-family="Helvetica,sans-Serif" font-size="11.00" fill="#000000">...</text>
<polygon fill="#ffffff" stroke="transparent" points="193,-481.7 193,-500.7 214,-500.7 214,-481.7 193,-481.7"/>
<polygon fill="none" stroke="#000000" points="193,-481.7 193,-500.7 214,-500.7 214,-481.7 193,-481.7"/>
<text text-anchor="start" x="195.7027" y="-487.8" font-family="Helvetica,sans-Serif" font-size="11.00" fill="#000000">&lt; 2</text>
<polygon fill="#ffffff" stroke="transparent" points="214,-481.7 214,-500.7 252,-500.7 252,-481.7 214,-481.7"/>
<polygon fill="none" stroke="#000000" points="214,-481.7 214,-500.7 252,-500.7 252,-481.7 214,-481.7"/>
<text text-anchor="start" x="216.8053" y="-487.8" font-family="Helvetica,sans-Serif" font-size="11.00" fill="#000000">0 rows</text>
<polygon fill="#ffffff" stroke="transparent" points="252,-481.7 252,-500.7 273,-500.7 273,-481.7 252,-481.7"/>
<polygon fill="none" stroke="#000000" points="252,-481.7 252,-500.7 273,-500.7 273,-481.7 252,-481.7"/>
<text text-anchor="start" x="254.7027" y="-487.8" font-family="Helvetica,sans-Serif" font-size="11.00" fill="#000000">4 &gt;</text>
</a>
</g>
</g>
<!-- chapters -->
<g id="node2" class="node">
<title>chapters</title>
<g id="a_node2"><a xlink:href="../../tables/chapters.html" xlink:title="chapters" target="_top">
<polygon fill="#ffffff" stroke="transparent" points="8,-207.2 8,-268.2 93,-268.2 93,-207.2 8,-207.2"/>
<polygon fill="#f5f5f5" stroke="transparent" points="8.5,-244.7 8.5,-267.7 93.5,-267.7 93.5,-244.7 8.5,-244.7"/>
<polygon fill="none" stroke="#000000" points="8.5,-244.7 8.5,-267.7 93.5,-267.7 93.5,-244.7 8.5,-244.7"/>
<text text-anchor="start" x="13.4108" y="-253.8" font-family="Helvetica,sans-Serif" font-weight="bold" font-size="11.00" fill="#000000">chapters</text>
<text text-anchor="start" x="59.0219" y="-252.8" font-family="Helvetica,sans-Serif" font-size="11.00" fill="#000000">[table]</text>
<polygon fill="none" stroke="#000000" points="8.5,-225.7 8.5,-244.7 93.5,-244.7 93.5,-225.7 8.5,-225.7"/>
<text text-anchor="start" x="11.5" y="-231.8" font-family="Helvetica,sans-Serif" font-size="11.00" fill="#000000">...</text>
<polygon fill="#ffffff" stroke="transparent" points="8.5,-206.7 8.5,-225.7 27.5,-225.7 27.5,-206.7 8.5,-206.7"/>
<polygon fill="none" stroke="#000000" points="8.5,-206.7 8.5,-225.7 27.5,-225.7 27.5,-206.7 8.5,-206.7"/>
<text text-anchor="start" x="11.5" y="-212.8" font-family="Helvetica,sans-Serif" font-size="11.00" fill="#000000"> &#160;</text>
<polygon fill="#ffffff" stroke="transparent" points="27.5,-206.7 27.5,-225.7 68.5,-225.7 68.5,-206.7 27.5,-206.7"/>
<polygon fill="none" stroke="#000000" points="27.5,-206.7 27.5,-225.7 68.5,-225.7 68.5,-206.7 27.5,-206.7"/>
<text text-anchor="start" x="33.1105" y="-212.8" font-family="Helvetica,sans-Serif" font-size="11.00" fill="#000000">0 rows</text>
<polygon fill="#ffffff" stroke="transparent" points="68.5,-206.7 68.5,-225.7 93.5,-225.7 93.5,-206.7 68.5,-206.7"/>
<polygon fill="none" stroke="#000000" points="68.5,-206.7 68.5,-225.7 93.5,-225.7 93.5,-206.7 68.5,-206.7"/>
<text text-anchor="start" x="74.9053" y="-212.8" font-family="Helvetica,sans-Serif" font-size="11.00" fill="#000000">3 &gt;</text>
</a>
</g>
</g>
<!-- events&#45;&gt;chapters -->
<g id="edge1" class="edge">
<title>events:w&#45;&gt;chapters:e</title>
<path fill="none" stroke="#000000" d="M178.6031,-508.628C157.9666,-505.1678 148.2399,-493.2497 134,-471.7 104.5437,-427.123 146.9301,-234.7 93.5,-234.7"/>
<polygon fill="#000000" stroke="#000000" points="185.0221,-509.1059 192.7327,-513.2901 189.011,-509.403 193,-509.7 193,-509.7 193,-509.7 189.011,-509.403 193.2673,-506.1099 185.0221,-509.1059 185.0221,-509.1059"/>
<ellipse fill="none" stroke="#000000" cx="181.8309" cy="-508.8683" rx="3.2" ry="3.2"/>
</g>
<!-- rsvps -->
<g id="node3" class="node">
<title>rsvps</title>
<g id="a_node3"><a xlink:href="../../tables/rsvps.html" xlink:title="rsvps" target="_top">
<polygon fill="#ffffff" stroke="transparent" points="393.5,-586.2 393.5,-691.2 493.5,-691.2 493.5,-586.2 393.5,-586.2"/>
<polygon fill="#f5f5f5" stroke="transparent" points="393.5,-667.7 393.5,-690.7 493.5,-690.7 493.5,-667.7 393.5,-667.7"/>
<polygon fill="none" stroke="#000000" points="393.5,-667.7 393.5,-690.7 493.5,-690.7 493.5,-667.7 393.5,-667.7"/>
<text text-anchor="start" x="398.5" y="-676.8" font-family="Helvetica,sans-Serif" font-weight="bold" font-size="11.00" fill="#000000">rsvps</text>
<text text-anchor="start" x="458.5437" y="-675.8" font-family="Helvetica,sans-Serif" font-size="11.00" fill="#000000">[table]</text>
<polygon fill="none" stroke="#000000" points="393.5,-645.7 393.5,-667.7 493.5,-667.7 493.5,-645.7 393.5,-645.7"/>
<image xlink:href="../../images/primaryKeys.png" width="11px" height="12px" preserveAspectRatio="xMinYMin meet" x="398.5" y="-662.7"/>
<text text-anchor="start" x="413.5" y="-652.8" font-family="Helvetica,sans-Serif" font-size="11.00" fill="#000000">user_id</text>
<polygon fill="none" stroke="#000000" points="393.5,-623.7 393.5,-645.7 493.5,-645.7 493.5,-623.7 393.5,-623.7"/>
<image xlink:href="../../images/primaryKeys.png" width="11px" height="12px" preserveAspectRatio="xMinYMin meet" x="398.5" y="-640.7"/>
<text text-anchor="start" x="413.5" y="-630.8" font-family="Helvetica,sans-Serif" font-size="11.00" fill="#000000">event_id</text>
<polygon fill="none" stroke="#000000" points="393.5,-604.7 393.5,-623.7 493.5,-623.7 493.5,-604.7 393.5,-604.7"/>
<text text-anchor="start" x="396.5" y="-610.8" font-family="Helvetica,sans-Serif" font-size="11.00" fill="#000000">...</text>
<polygon fill="#ffffff" stroke="transparent" points="393.5,-585.7 393.5,-604.7 428.5,-604.7 428.5,-585.7 393.5,-585.7"/>
<polygon fill="none" stroke="#000000" points="393.5,-585.7 393.5,-604.7 428.5,-604.7 428.5,-585.7 393.5,-585.7"/>
<text text-anchor="start" x="396.5" y="-591.8" font-family="Helvetica,sans-Serif" font-size="11.00" fill="#000000">&lt; 2</text>
<polygon fill="#ffffff" stroke="transparent" points="428.5,-585.7 428.5,-604.7 473.5,-604.7 473.5,-585.7 428.5,-585.7"/>
<polygon fill="none" stroke="#000000" points="428.5,-585.7 428.5,-604.7 473.5,-604.7 473.5,-585.7 428.5,-585.7"/>
<text text-anchor="start" x="438.1105" y="-591.8" font-family="Helvetica,sans-Serif" font-size="11.00" fill="#000000">0 rows</text>
<polygon fill="#ffffff" stroke="transparent" points="473.5,-585.7 473.5,-604.7 493.5,-604.7 493.5,-585.7 473.5,-585.7"/>
<polygon fill="none" stroke="#000000" points="473.5,-585.7 473.5,-604.7 493.5,-604.7 493.5,-585.7 473.5,-585.7"/>
<text text-anchor="start" x="484.3862" y="-591.8" font-family="Helvetica,sans-Serif" font-size="11.00" fill="#000000"> &#160;</text>
</a>
</g>
</g>
<!-- rsvps&#45;&gt;events -->
<g id="edge2" class="edge">
<title>rsvps:w&#45;&gt;events:e</title>
<path fill="none" stroke="#000000" d="M379.1601,-633.0275C320.4407,-618.1943 344.8911,-509.7 273,-509.7"/>
<polygon fill="#000000" stroke="#000000" points="385.5539,-633.7732 393.0829,-638.2758 389.5269,-634.2366 393.5,-634.7 393.5,-634.7 393.5,-634.7 389.5269,-634.2366 393.9171,-631.1242 385.5539,-633.7732 385.5539,-633.7732"/>
<ellipse fill="none" stroke="#000000" cx="382.3754" cy="-633.4024" rx="3.2" ry="3.2"/>
</g>
<!-- users -->
<g id="node4" class="node">
<title>users</title>
<g id="a_node4"><a xlink:href="../../tables/users.html" xlink:title="users" target="_top">
<polygon fill="#ffffff" stroke="transparent" points="142,-282.7 142,-460.7 324,-460.7 324,-282.7 142,-282.7"/>
<polygon fill="#f5f5f5" stroke="transparent" points="144,-435.7 144,-458.7 322,-458.7 322,-435.7 144,-435.7"/>
<polygon fill="none" stroke="#000000" points="144,-435.7 144,-458.7 322,-458.7 322,-435.7 144,-435.7"/>
<text text-anchor="start" x="149" y="-444.8" font-family="Helvetica,sans-Serif" font-weight="bold" font-size="11.00" fill="#000000">users</text>
<text text-anchor="start" x="287.0437" y="-443.8" font-family="Helvetica,sans-Serif" font-size="11.00" fill="#000000">[table]</text>
<polygon fill="none" stroke="#000000" points="144,-413.7 144,-435.7 232,-435.7 232,-413.7 144,-413.7"/>
<text text-anchor="start" x="164" y="-420.8" font-family="Helvetica,sans-Serif" font-size="11.00" fill="#000000">created_at</text>
<polygon fill="none" stroke="#000000" points="232,-413.7 232,-435.7 322,-435.7 322,-413.7 232,-413.7"/>
<text text-anchor="start" x="235" y="-421.4" font-family="Helvetica,sans-Serif" font-size="11.00" fill="#000000">timestamp[26,3]</text>
<polygon fill="none" stroke="#000000" points="144,-391.7 144,-413.7 232,-413.7 232,-391.7 144,-391.7"/>
<text text-anchor="start" x="164" y="-398.8" font-family="Helvetica,sans-Serif" font-size="11.00" fill="#000000">updated_at</text>
<polygon fill="none" stroke="#000000" points="232,-391.7 232,-413.7 322,-413.7 322,-391.7 232,-391.7"/>
<text text-anchor="start" x="235" y="-399.4" font-family="Helvetica,sans-Serif" font-size="11.00" fill="#000000">timestamp[26,3]</text>
<polygon fill="none" stroke="#000000" points="144,-369.7 144,-391.7 232,-391.7 232,-369.7 144,-369.7"/>
<image xlink:href="../../images/primaryKeys.png" width="11px" height="12px" preserveAspectRatio="xMinYMin meet" x="149" y="-386.7"/>
<text text-anchor="start" x="164" y="-376.8" font-family="Helvetica,sans-Serif" font-size="11.00" fill="#000000">id</text>
<polygon fill="none" stroke="#000000" points="232,-369.7 232,-391.7 322,-391.7 322,-369.7 232,-369.7"/>
<text text-anchor="start" x="235" y="-377.4" font-family="Helvetica,sans-Serif" font-size="11.00" fill="#000000">serial[10]</text>
<polygon fill="none" stroke="#000000" points="144,-347.7 144,-369.7 232,-369.7 232,-347.7 144,-347.7"/>
<text text-anchor="start" x="164" y="-354.8" font-family="Helvetica,sans-Serif" font-size="11.00" fill="#000000">first_name</text>
<polygon fill="none" stroke="#000000" points="232,-347.7 232,-369.7 322,-369.7 322,-347.7 232,-347.7"/>
<text text-anchor="start" x="234.5043" y="-355.4" font-family="Helvetica,sans-Serif" font-size="11.00" fill="#000000">text[2147483647]</text>
<polygon fill="none" stroke="#000000" points="144,-325.7 144,-347.7 232,-347.7 232,-325.7 144,-325.7"/>
<text text-anchor="start" x="164" y="-332.8" font-family="Helvetica,sans-Serif" font-size="11.00" fill="#000000">last_name</text>
<polygon fill="none" stroke="#000000" points="232,-325.7 232,-347.7 322,-347.7 322,-325.7 232,-325.7"/>
<text text-anchor="start" x="234.5043" y="-333.4" font-family="Helvetica,sans-Serif" font-size="11.00" fill="#000000">text[2147483647]</text>
<polygon fill="#ffffff" stroke="transparent" points="144,-303.7 144,-325.7 232,-325.7 232,-303.7 144,-303.7"/>
<polygon fill="none" stroke="#000000" points="144,-303.7 144,-325.7 232,-325.7 232,-303.7 144,-303.7"/>
<text text-anchor="start" x="164" y="-310.8" font-family="Helvetica,sans-Serif" font-size="11.00" fill="#000000">email</text>
<polygon fill="none" stroke="#000000" points="232,-303.7 232,-325.7 322,-325.7 322,-303.7 232,-303.7"/>
<text text-anchor="start" x="234.5043" y="-311.4" font-family="Helvetica,sans-Serif" font-size="11.00" fill="#000000">text[2147483647]</text>
<polygon fill="#ffffff" stroke="transparent" points="144,-284.7 144,-303.7 179,-303.7 179,-284.7 144,-284.7"/>
<polygon fill="none" stroke="#000000" points="144,-284.7 144,-303.7 179,-303.7 179,-284.7 144,-284.7"/>
<text text-anchor="start" x="147" y="-290.8" font-family="Helvetica,sans-Serif" font-size="11.00" fill="#000000">&lt; 0</text>
<polygon fill="#ffffff" stroke="transparent" points="179,-284.7 179,-303.7 232,-303.7 232,-284.7 179,-284.7"/>
<polygon fill="none" stroke="#000000" points="179,-284.7 179,-303.7 232,-303.7 232,-284.7 179,-284.7"/>
<text text-anchor="start" x="196.6105" y="-290.8" font-family="Helvetica,sans-Serif" font-size="11.00" fill="#000000">0 rows</text>
<polygon fill="#ffffff" stroke="transparent" points="232,-284.7 232,-303.7 322,-303.7 322,-284.7 232,-284.7"/>
<polygon fill="none" stroke="#000000" points="232,-284.7 232,-303.7 322,-303.7 322,-284.7 232,-284.7"/>
<text text-anchor="start" x="303.4053" y="-290.8" font-family="Helvetica,sans-Serif" font-size="11.00" fill="#000000">5 &gt;</text>
<polygon fill="none" stroke="#000000" stroke-width="2" points="143,-283.7 143,-459.7 323,-459.7 323,-283.7 143,-283.7"/>
</a>
</g>
</g>
<!-- rsvps&#45;&gt;users -->
<g id="edge3" class="edge">
<title>rsvps:w&#45;&gt;users:e</title>
<path fill="none" stroke="#000000" d="M379.9053,-651.1868C338.5802,-612.2874 380.0369,-380.7 322,-380.7"/>
<polygon fill="#000000" stroke="#000000" points="386.0864,-653.6935 392.1471,-660.0361 389.7932,-655.1967 393.5,-656.7 393.5,-656.7 393.5,-656.7 389.7932,-655.1967 394.8529,-653.3639 386.0864,-653.6935 386.0864,-653.6935"/>
<ellipse fill="none" stroke="#000000" cx="383.121" cy="-652.4908" rx="3.2" ry="3.2"/>
</g>
<!-- user_bans -->
<g id="node5" class="node">
<title>user_bans</title>
<g id="a_node5"><a xlink:href="../../tables/user_bans.html" xlink:title="user_bans" target="_top">
<polygon fill="#ffffff" stroke="transparent" points="396.5,-186.2 396.5,-291.2 490.5,-291.2 490.5,-186.2 396.5,-186.2"/>
<polygon fill="#f5f5f5" stroke="transparent" points="396.5,-267.7 396.5,-290.7 490.5,-290.7 490.5,-267.7 396.5,-267.7"/>
<polygon fill="none" stroke="#000000" points="396.5,-267.7 396.5,-290.7 490.5,-290.7 490.5,-267.7 396.5,-267.7"/>
<text text-anchor="start" x="401.3244" y="-276.8" font-family="Helvetica,sans-Serif" font-weight="bold" font-size="11.00" fill="#000000">user_bans</text>
<text text-anchor="start" x="456.0219" y="-275.8" font-family="Helvetica,sans-Serif" font-size="11.00" fill="#000000">[table]</text>
<polygon fill="none" stroke="#000000" points="396.5,-245.7 396.5,-267.7 490.5,-267.7 490.5,-245.7 396.5,-245.7"/>
<image xlink:href="../../images/primaryKeys.png" width="11px" height="12px" preserveAspectRatio="xMinYMin meet" x="401.5" y="-262.7"/>
<text text-anchor="start" x="419.5" y="-252.8" font-family="Helvetica,sans-Serif" font-size="11.00" fill="#000000">user_id</text>
<polygon fill="none" stroke="#000000" points="396.5,-223.7 396.5,-245.7 490.5,-245.7 490.5,-223.7 396.5,-223.7"/>
<image xlink:href="../../images/primaryKeys.png" width="11px" height="12px" preserveAspectRatio="xMinYMin meet" x="401.5" y="-240.7"/>
<text text-anchor="start" x="419.5" y="-230.8" font-family="Helvetica,sans-Serif" font-size="11.00" fill="#000000">chapter_id</text>
<polygon fill="none" stroke="#000000" points="396.5,-204.7 396.5,-223.7 490.5,-223.7 490.5,-204.7 396.5,-204.7"/>
<text text-anchor="start" x="399.5" y="-210.8" font-family="Helvetica,sans-Serif" font-size="11.00" fill="#000000">...</text>
<polygon fill="#ffffff" stroke="transparent" points="396.5,-185.7 396.5,-204.7 428.5,-204.7 428.5,-185.7 396.5,-185.7"/>
<polygon fill="none" stroke="#000000" points="396.5,-185.7 396.5,-204.7 428.5,-204.7 428.5,-185.7 396.5,-185.7"/>
<text text-anchor="start" x="399.5" y="-191.8" font-family="Helvetica,sans-Serif" font-size="11.00" fill="#000000">&lt; 2</text>
<polygon fill="#ffffff" stroke="transparent" points="428.5,-185.7 428.5,-204.7 472.5,-204.7 472.5,-185.7 428.5,-185.7"/>
<polygon fill="none" stroke="#000000" points="428.5,-185.7 428.5,-204.7 472.5,-204.7 472.5,-185.7 428.5,-185.7"/>
<text text-anchor="start" x="437.1105" y="-191.8" font-family="Helvetica,sans-Serif" font-size="11.00" fill="#000000">0 rows</text>
<polygon fill="#ffffff" stroke="transparent" points="472.5,-185.7 472.5,-204.7 490.5,-204.7 490.5,-185.7 472.5,-185.7"/>
<polygon fill="none" stroke="#000000" points="472.5,-185.7 472.5,-204.7 490.5,-204.7 490.5,-185.7 472.5,-185.7"/>
<text text-anchor="start" x="481.3862" y="-191.8" font-family="Helvetica,sans-Serif" font-size="11.00" fill="#000000"> &#160;</text>
</a>
</g>
</g>
<!-- user_bans&#45;&gt;chapters -->
<g id="edge4" class="edge">
<title>user_bans:w&#45;&gt;chapters:e</title>
<path fill="none" stroke="#000000" d="M381.9148,-234.7C259.1955,-234.7 223.1693,-234.7 93.5,-234.7"/>
<polygon fill="#000000" stroke="#000000" points="388.5,-234.7001 396.5,-238.3 392.5,-234.7 396.5,-234.7 396.5,-234.7 396.5,-234.7 392.5,-234.7 396.5,-231.1 388.5,-234.7001 388.5,-234.7001"/>
<ellipse fill="none" stroke="#000000" cx="385.3" cy="-234.7001" rx="3.2" ry="3.2"/>
</g>
<!-- user_bans&#45;&gt;users -->
<g id="edge5" class="edge">
<title>user_bans:w&#45;&gt;users:e</title>
<path fill="none" stroke="#000000" d="M382.1304,-259.4052C340.7999,-277.539 380.6422,-380.7 322,-380.7"/>
<polygon fill="#000000" stroke="#000000" points="388.6381,-258.1801 397.1661,-260.2379 392.5691,-257.4401 396.5,-256.7 396.5,-256.7 396.5,-256.7 392.5691,-257.4401 395.8339,-253.1621 388.6381,-258.1801 388.6381,-258.1801"/>
<ellipse fill="none" stroke="#000000" cx="385.4933" cy="-258.7722" rx="3.2" ry="3.2"/>
</g>
<!-- user_chapter_roles -->
<g id="node6" class="node">
<title>user_chapter_roles</title>
<g id="a_node6"><a xlink:href="../../tables/user_chapter_roles.html" xlink:title="user_chapter_roles" target="_top">
<polygon fill="#ffffff" stroke="transparent" points="375,-38.2 375,-165.2 512,-165.2 512,-38.2 375,-38.2"/>
<polygon fill="#f5f5f5" stroke="transparent" points="375.5,-141.7 375.5,-164.7 512.5,-164.7 512.5,-141.7 375.5,-141.7"/>
<polygon fill="none" stroke="#000000" points="375.5,-141.7 375.5,-164.7 512.5,-164.7 512.5,-141.7 375.5,-141.7"/>
<text text-anchor="start" x="380.4338" y="-150.8" font-family="Helvetica,sans-Serif" font-weight="bold" font-size="11.00" fill="#000000">user_chapter_roles</text>
<text text-anchor="start" x="478.0219" y="-149.8" font-family="Helvetica,sans-Serif" font-size="11.00" fill="#000000">[table]</text>
<polygon fill="none" stroke="#000000" points="375.5,-119.7 375.5,-141.7 512.5,-141.7 512.5,-119.7 375.5,-119.7"/>
<image xlink:href="../../images/primaryKeys.png" width="11px" height="12px" preserveAspectRatio="xMinYMin meet" x="380.5" y="-136.7"/>
<text text-anchor="start" x="397.5" y="-126.8" font-family="Helvetica,sans-Serif" font-size="11.00" fill="#000000">user_id</text>
<polygon fill="none" stroke="#000000" points="375.5,-97.7 375.5,-119.7 512.5,-119.7 512.5,-97.7 375.5,-97.7"/>
<image xlink:href="../../images/primaryKeys.png" width="11px" height="12px" preserveAspectRatio="xMinYMin meet" x="380.5" y="-114.7"/>
<text text-anchor="start" x="397.5" y="-104.8" font-family="Helvetica,sans-Serif" font-size="11.00" fill="#000000">chapter_id</text>
<polygon fill="none" stroke="#000000" points="375.5,-75.7 375.5,-97.7 512.5,-97.7 512.5,-75.7 375.5,-75.7"/>
<image xlink:href="../../images/primaryKeys.png" width="11px" height="12px" preserveAspectRatio="xMinYMin meet" x="380.5" y="-92.7"/>
<text text-anchor="start" x="397.5" y="-82.8" font-family="Helvetica,sans-Serif" font-size="11.00" fill="#000000">role_name</text>
<polygon fill="none" stroke="#000000" points="375.5,-56.7 375.5,-75.7 512.5,-75.7 512.5,-56.7 375.5,-56.7"/>
<text text-anchor="start" x="378.5" y="-62.8" font-family="Helvetica,sans-Serif" font-size="11.00" fill="#000000">...</text>
<polygon fill="#ffffff" stroke="transparent" points="375.5,-37.7 375.5,-56.7 429.5,-56.7 429.5,-37.7 375.5,-37.7"/>
<polygon fill="none" stroke="#000000" points="375.5,-37.7 375.5,-56.7 429.5,-56.7 429.5,-37.7 375.5,-37.7"/>
<text text-anchor="start" x="378.5" y="-43.8" font-family="Helvetica,sans-Serif" font-size="11.00" fill="#000000">&lt; 2</text>
<polygon fill="#ffffff" stroke="transparent" points="429.5,-37.7 429.5,-56.7 483.5,-56.7 483.5,-37.7 429.5,-37.7"/>
<polygon fill="none" stroke="#000000" points="429.5,-37.7 429.5,-56.7 483.5,-56.7 483.5,-37.7 429.5,-37.7"/>
<text text-anchor="start" x="448.1105" y="-43.8" font-family="Helvetica,sans-Serif" font-size="11.00" fill="#000000">0 rows</text>
<polygon fill="#ffffff" stroke="transparent" points="483.5,-37.7 483.5,-56.7 512.5,-56.7 512.5,-37.7 483.5,-37.7"/>
<polygon fill="none" stroke="#000000" points="483.5,-37.7 483.5,-56.7 512.5,-56.7 512.5,-37.7 483.5,-37.7"/>
<text text-anchor="start" x="503.3862" y="-43.8" font-family="Helvetica,sans-Serif" font-size="11.00" fill="#000000"> &#160;</text>
</a>
</g>
</g>
<!-- user_chapter_roles&#45;&gt;chapters -->
<g id="edge6" class="edge">
<title>user_chapter_roles:w&#45;&gt;chapters:e</title>
<path fill="none" stroke="#000000" d="M360.7405,-109.2077C237.4932,-117.878 225.6809,-234.7 93.5,-234.7"/>
<polygon fill="#000000" stroke="#000000" points="367.5047,-108.9751 375.6238,-112.2979 371.5024,-108.8375 375.5,-108.7 375.5,-108.7 375.5,-108.7 371.5024,-108.8375 375.3762,-105.1021 367.5047,-108.9751 367.5047,-108.9751"/>
<ellipse fill="none" stroke="#000000" cx="364.3066" cy="-109.0851" rx="3.2" ry="3.2"/>
</g>
<!-- user_chapter_roles&#45;&gt;users -->
<g id="edge7" class="edge">
<title>user_chapter_roles:w&#45;&gt;users:e</title>
<path fill="none" stroke="#000000" d="M361.0995,-132.3625C277.8439,-154.0533 430.1896,-380.7 322,-380.7"/>
<polygon fill="#000000" stroke="#000000" points="367.5528,-131.6176 375.9129,-134.2762 371.5264,-131.1588 375.5,-130.7 375.5,-130.7 375.5,-130.7 371.5264,-131.1588 375.0871,-127.1238 367.5528,-131.6176 367.5528,-131.6176"/>
<ellipse fill="none" stroke="#000000" cx="364.3739" cy="-131.9846" rx="3.2" ry="3.2"/>
</g>
<!-- user_event_roles -->
<g id="node7" class="node">
<title>user_event_roles</title>
<g id="a_node7"><a xlink:href="../../tables/user_event_roles.html" xlink:title="user_event_roles" target="_top">
<polygon fill="#ffffff" stroke="transparent" points="380,-438.2 380,-565.2 507,-565.2 507,-438.2 380,-438.2"/>
<polygon fill="#f5f5f5" stroke="transparent" points="380.5,-541.7 380.5,-564.7 507.5,-564.7 507.5,-541.7 380.5,-541.7"/>
<polygon fill="none" stroke="#000000" points="380.5,-541.7 380.5,-564.7 507.5,-564.7 507.5,-541.7 380.5,-541.7"/>
<text text-anchor="start" x="385.3222" y="-550.8" font-family="Helvetica,sans-Serif" font-weight="bold" font-size="11.00" fill="#000000">user_event_roles</text>
<text text-anchor="start" x="473.0219" y="-549.8" font-family="Helvetica,sans-Serif" font-size="11.00" fill="#000000">[table]</text>
<polygon fill="none" stroke="#000000" points="380.5,-519.7 380.5,-541.7 507.5,-541.7 507.5,-519.7 380.5,-519.7"/>
<image xlink:href="../../images/primaryKeys.png" width="11px" height="12px" preserveAspectRatio="xMinYMin meet" x="385.5" y="-536.7"/>
<text text-anchor="start" x="404.5" y="-526.8" font-family="Helvetica,sans-Serif" font-size="11.00" fill="#000000">user_id</text>
<polygon fill="none" stroke="#000000" points="380.5,-497.7 380.5,-519.7 507.5,-519.7 507.5,-497.7 380.5,-497.7"/>
<image xlink:href="../../images/primaryKeys.png" width="11px" height="12px" preserveAspectRatio="xMinYMin meet" x="385.5" y="-514.7"/>
<text text-anchor="start" x="404.5" y="-504.8" font-family="Helvetica,sans-Serif" font-size="11.00" fill="#000000">event_id</text>
<polygon fill="none" stroke="#000000" points="380.5,-475.7 380.5,-497.7 507.5,-497.7 507.5,-475.7 380.5,-475.7"/>
<image xlink:href="../../images/primaryKeys.png" width="11px" height="12px" preserveAspectRatio="xMinYMin meet" x="385.5" y="-492.7"/>
<text text-anchor="start" x="404.5" y="-482.8" font-family="Helvetica,sans-Serif" font-size="11.00" fill="#000000">role_name</text>
<polygon fill="none" stroke="#000000" points="380.5,-456.7 380.5,-475.7 507.5,-475.7 507.5,-456.7 380.5,-456.7"/>
<text text-anchor="start" x="383.5" y="-462.8" font-family="Helvetica,sans-Serif" font-size="11.00" fill="#000000">...</text>
<polygon fill="#ffffff" stroke="transparent" points="380.5,-437.7 380.5,-456.7 429.5,-456.7 429.5,-437.7 380.5,-437.7"/>
<polygon fill="none" stroke="#000000" points="380.5,-437.7 380.5,-456.7 429.5,-456.7 429.5,-437.7 380.5,-437.7"/>
<text text-anchor="start" x="383.5" y="-443.8" font-family="Helvetica,sans-Serif" font-size="11.00" fill="#000000">&lt; 2</text>
<polygon fill="#ffffff" stroke="transparent" points="429.5,-437.7 429.5,-456.7 481.5,-456.7 481.5,-437.7 429.5,-437.7"/>
<polygon fill="none" stroke="#000000" points="429.5,-437.7 429.5,-456.7 481.5,-456.7 481.5,-437.7 429.5,-437.7"/>
<text text-anchor="start" x="446.1105" y="-443.8" font-family="Helvetica,sans-Serif" font-size="11.00" fill="#000000">0 rows</text>
<polygon fill="#ffffff" stroke="transparent" points="481.5,-437.7 481.5,-456.7 507.5,-456.7 507.5,-437.7 481.5,-437.7"/>
<polygon fill="none" stroke="#000000" points="481.5,-437.7 481.5,-456.7 507.5,-456.7 507.5,-437.7 481.5,-437.7"/>
<text text-anchor="start" x="498.3862" y="-443.8" font-family="Helvetica,sans-Serif" font-size="11.00" fill="#000000"> &#160;</text>
</a>
</g>
</g>
<!-- user_event_roles&#45;&gt;events -->
<g id="edge8" class="edge">
<title>user_event_roles:w&#45;&gt;events:e</title>
<path fill="none" stroke="#000000" d="M366.0147,-508.7333C329.6795,-508.9068 315.5539,-509.7 273,-509.7"/>
<polygon fill="#000000" stroke="#000000" points="372.5,-508.7184 380.5083,-512.3 376.5,-508.7092 380.5,-508.7 380.5,-508.7 380.5,-508.7 376.5,-508.7092 380.4917,-505.1 372.5,-508.7184 372.5,-508.7184"/>
<ellipse fill="none" stroke="#000000" cx="369.3" cy="-508.7258" rx="3.2" ry="3.2"/>
</g>
<!-- user_event_roles&#45;&gt;users -->
<g id="edge9" class="edge">
<title>user_event_roles:w&#45;&gt;users:e</title>
<path fill="none" stroke="#000000" d="M366.1535,-527.9684C321.4928,-507.6384 387.8271,-380.7 322,-380.7"/>
<polygon fill="#000000" stroke="#000000" points="372.6412,-529.2036 379.8266,-534.2365 376.5706,-529.9518 380.5,-530.7 380.5,-530.7 380.5,-530.7 376.5706,-529.9518 381.1734,-527.1635 372.6412,-529.2036 372.6412,-529.2036"/>
<ellipse fill="none" stroke="#000000" cx="369.4977" cy="-528.6051" rx="3.2" ry="3.2"/>
</g>
<!-- user_instance_roles -->
<g id="node8" class="node">
<title>user_instance_roles</title>
<g id="a_node8"><a xlink:href="../../tables/user_instance_roles.html" xlink:title="user_instance_roles" target="_top">
<polygon fill="#ffffff" stroke="transparent" points="373,-312.2 373,-417.2 514,-417.2 514,-312.2 373,-312.2"/>
<polygon fill="#f5f5f5" stroke="transparent" points="373.5,-393.7 373.5,-416.7 514.5,-416.7 514.5,-393.7 373.5,-393.7"/>
<polygon fill="none" stroke="#000000" points="373.5,-393.7 373.5,-416.7 514.5,-416.7 514.5,-393.7 373.5,-393.7"/>
<text text-anchor="start" x="378.2943" y="-402.8" font-family="Helvetica,sans-Serif" font-weight="bold" font-size="11.00" fill="#000000">user_instance_roles</text>
<text text-anchor="start" x="480.0219" y="-401.8" font-family="Helvetica,sans-Serif" font-size="11.00" fill="#000000">[table]</text>
<polygon fill="none" stroke="#000000" points="373.5,-371.7 373.5,-393.7 514.5,-393.7 514.5,-371.7 373.5,-371.7"/>
<image xlink:href="../../images/primaryKeys.png" width="11px" height="12px" preserveAspectRatio="xMinYMin meet" x="378.5" y="-388.7"/>
<text text-anchor="start" x="395.5" y="-378.8" font-family="Helvetica,sans-Serif" font-size="11.00" fill="#000000">user_id</text>
<polygon fill="none" stroke="#000000" points="373.5,-349.7 373.5,-371.7 514.5,-371.7 514.5,-349.7 373.5,-349.7"/>
<image xlink:href="../../images/primaryKeys.png" width="11px" height="12px" preserveAspectRatio="xMinYMin meet" x="378.5" y="-366.7"/>
<text text-anchor="start" x="395.5" y="-356.8" font-family="Helvetica,sans-Serif" font-size="11.00" fill="#000000">role_name</text>
<polygon fill="none" stroke="#000000" points="373.5,-330.7 373.5,-349.7 514.5,-349.7 514.5,-330.7 373.5,-330.7"/>
<text text-anchor="start" x="376.5" y="-336.8" font-family="Helvetica,sans-Serif" font-size="11.00" fill="#000000">...</text>
<polygon fill="#ffffff" stroke="transparent" points="373.5,-311.7 373.5,-330.7 429.5,-330.7 429.5,-311.7 373.5,-311.7"/>
<polygon fill="none" stroke="#000000" points="373.5,-311.7 373.5,-330.7 429.5,-330.7 429.5,-311.7 373.5,-311.7"/>
<text text-anchor="start" x="376.5" y="-317.8" font-family="Helvetica,sans-Serif" font-size="11.00" fill="#000000">&lt; 1</text>
<polygon fill="#ffffff" stroke="transparent" points="429.5,-311.7 429.5,-330.7 484.5,-330.7 484.5,-311.7 429.5,-311.7"/>
<polygon fill="none" stroke="#000000" points="429.5,-311.7 429.5,-330.7 484.5,-330.7 484.5,-311.7 429.5,-311.7"/>
<text text-anchor="start" x="449.1105" y="-317.8" font-family="Helvetica,sans-Serif" font-size="11.00" fill="#000000">0 rows</text>
<polygon fill="#ffffff" stroke="transparent" points="484.5,-311.7 484.5,-330.7 514.5,-330.7 514.5,-311.7 484.5,-311.7"/>
<polygon fill="none" stroke="#000000" points="484.5,-311.7 484.5,-330.7 514.5,-330.7 514.5,-311.7 484.5,-311.7"/>
<text text-anchor="start" x="505.3862" y="-317.8" font-family="Helvetica,sans-Serif" font-size="11.00" fill="#000000"> &#160;</text>
</a>
</g>
</g>
<!-- user_instance_roles&#45;&gt;users -->
<g id="edge10" class="edge">
<title>user_instance_roles:w&#45;&gt;users:e</title>
<path fill="none" stroke="#000000" d="M359.0108,-382.3875C346.6738,-381.825 339.1796,-380.7 322,-380.7"/>
<polygon fill="#000000" stroke="#000000" points="365.5019,-382.5274 373.4223,-386.2992 369.5009,-382.6137 373.5,-382.7 373.5,-382.7 373.5,-382.7 369.5009,-382.6137 373.5777,-379.1008 365.5019,-382.5274 365.5019,-382.5274"/>
<ellipse fill="none" stroke="#000000" cx="362.3026" cy="-382.4584" rx="3.2" ry="3.2"/>
</g>
</g>
</svg>
