<?xml version="1.0" encoding="UTF-8" standalone="no"?>
<!DOCTYPE svg PUBLIC "-//W3C//DTD SVG 1.1//EN"
 "http://www.w3.org/Graphics/SVG/1.1/DTD/svg11.dtd">
<!-- Generated by graphviz version 2.40.1 (20161225.0304)
 -->
<!-- Title: twoDegreesRelationshipsDiagram Pages: 1 -->
<svg width="578pt" height="443pt"
 viewBox="0.00 0.00 578.00 442.70" xmlns="http://www.w3.org/2000/svg" xmlns:xlink="http://www.w3.org/1999/xlink">
<g id="graph0" class="graph" transform="scale(1 1) rotate(0) translate(4 438.7)">
<title>twoDegreesRelationshipsDiagram</title>
<polygon fill="#ffffff" stroke="transparent" points="-4,4 -4,-438.7 574,-438.7 574,4 -4,4"/>
<text text-anchor="middle" x="72.4936" y="-7.3" font-family="Helvetica,sans-Serif" font-size="11.00" fill="#000000">Generated by SchemaSpy</text>
<!-- chapters -->
<g id="node1" class="node">
<title>chapters</title>
<g id="a_node1"><a xlink:href="../../tables/chapters.html" xlink:title="chapters" target="_top">
<polygon fill="#ffffff" stroke="transparent" points="218,-259.7 218,-320.7 303,-320.7 303,-259.7 218,-259.7"/>
<polygon fill="#f5f5f5" stroke="transparent" points="218.5,-297.2 218.5,-320.2 303.5,-320.2 303.5,-297.2 218.5,-297.2"/>
<polygon fill="none" stroke="#000000" points="218.5,-297.2 218.5,-320.2 303.5,-320.2 303.5,-297.2 218.5,-297.2"/>
<text text-anchor="start" x="223.4108" y="-306.3" font-family="Helvetica,sans-Serif" font-weight="bold" font-size="11.00" fill="#000000">chapters</text>
<text text-anchor="start" x="269.0219" y="-305.3" font-family="Helvetica,sans-Serif" font-size="11.00" fill="#000000">[table]</text>
<polygon fill="none" stroke="#000000" points="218.5,-278.2 218.5,-297.2 303.5,-297.2 303.5,-278.2 218.5,-278.2"/>
<text text-anchor="start" x="221.5" y="-284.3" font-family="Helvetica,sans-Serif" font-size="11.00" fill="#000000">...</text>
<polygon fill="#ffffff" stroke="transparent" points="218.5,-259.2 218.5,-278.2 241.5,-278.2 241.5,-259.2 218.5,-259.2"/>
<polygon fill="none" stroke="#000000" points="218.5,-259.2 218.5,-278.2 241.5,-278.2 241.5,-259.2 218.5,-259.2"/>
<text text-anchor="start" x="221.5" y="-265.3" font-family="Helvetica,sans-Serif" font-size="11.00" fill="#000000">&lt; 1</text>
<polygon fill="#ffffff" stroke="transparent" points="241.5,-259.2 241.5,-278.2 280.5,-278.2 280.5,-259.2 241.5,-259.2"/>
<polygon fill="none" stroke="#000000" points="241.5,-259.2 241.5,-278.2 280.5,-278.2 280.5,-259.2 241.5,-259.2"/>
<text text-anchor="start" x="245.1105" y="-265.3" font-family="Helvetica,sans-Serif" font-size="11.00" fill="#000000">0 rows</text>
<polygon fill="#ffffff" stroke="transparent" points="280.5,-259.2 280.5,-278.2 303.5,-278.2 303.5,-259.2 280.5,-259.2"/>
<polygon fill="none" stroke="#000000" points="280.5,-259.2 280.5,-278.2 303.5,-278.2 303.5,-259.2 280.5,-259.2"/>
<text text-anchor="start" x="284.9053" y="-265.3" font-family="Helvetica,sans-Serif" font-size="11.00" fill="#000000">3 &gt;</text>
</a>
</g>
</g>
<!-- users -->
<g id="node2" class="node">
<title>users</title>
<g id="a_node2"><a xlink:href="../../tables/users.html" xlink:title="users" target="_top">
<polygon fill="#ffffff" stroke="transparent" points="8,-190.7 8,-295.7 96,-295.7 96,-190.7 8,-190.7"/>
<polygon fill="#f5f5f5" stroke="transparent" points="8,-272.2 8,-295.2 96,-295.2 96,-272.2 8,-272.2"/>
<polygon fill="none" stroke="#000000" points="8,-272.2 8,-295.2 96,-295.2 96,-272.2 8,-272.2"/>
<text text-anchor="start" x="13" y="-281.3" font-family="Helvetica,sans-Serif" font-weight="bold" font-size="11.00" fill="#000000">users</text>
<text text-anchor="start" x="61.0437" y="-280.3" font-family="Helvetica,sans-Serif" font-size="11.00" fill="#000000">[table]</text>
<polygon fill="none" stroke="#000000" points="8,-250.2 8,-272.2 96,-272.2 96,-250.2 8,-250.2"/>
<image xlink:href="../../images/primaryKeys.png" width="11px" height="12px" preserveAspectRatio="xMinYMin meet" x="13" y="-267.2"/>
<text text-anchor="start" x="28" y="-257.3" font-family="Helvetica,sans-Serif" font-size="11.00" fill="#000000">id</text>
<polygon fill="#ffffff" stroke="transparent" points="8,-228.2 8,-250.2 96,-250.2 96,-228.2 8,-228.2"/>
<polygon fill="none" stroke="#000000" points="8,-228.2 8,-250.2 96,-250.2 96,-228.2 8,-228.2"/>
<text text-anchor="start" x="28" y="-235.3" font-family="Helvetica,sans-Serif" font-size="11.00" fill="#000000">email</text>
<polygon fill="none" stroke="#000000" points="8,-209.2 8,-228.2 96,-228.2 96,-209.2 8,-209.2"/>
<text text-anchor="start" x="11" y="-215.3" font-family="Helvetica,sans-Serif" font-size="11.00" fill="#000000">...</text>
<polygon fill="#ffffff" stroke="transparent" points="8,-190.2 8,-209.2 28,-209.2 28,-190.2 8,-190.2"/>
<polygon fill="none" stroke="#000000" points="8,-190.2 8,-209.2 28,-209.2 28,-190.2 8,-190.2"/>
<text text-anchor="start" x="11" y="-196.3" font-family="Helvetica,sans-Serif" font-size="11.00" fill="#000000"> &#160;</text>
<polygon fill="#ffffff" stroke="transparent" points="28,-190.2 28,-209.2 70,-209.2 70,-190.2 28,-190.2"/>
<polygon fill="none" stroke="#000000" points="28,-190.2 28,-209.2 70,-209.2 70,-190.2 28,-190.2"/>
<text text-anchor="start" x="34.6105" y="-196.3" font-family="Helvetica,sans-Serif" font-size="11.00" fill="#000000">0 rows</text>
<polygon fill="#ffffff" stroke="transparent" points="70,-190.2 70,-209.2 96,-209.2 96,-190.2 70,-190.2"/>
<polygon fill="none" stroke="#000000" points="70,-190.2 70,-209.2 96,-209.2 96,-190.2 70,-190.2"/>
<text text-anchor="start" x="77.4053" y="-196.3" font-family="Helvetica,sans-Serif" font-size="11.00" fill="#000000">6 &gt;</text>
</a>
</g>
</g>
<!-- chapters&#45;&gt;users -->
<g id="edge1" class="edge">
<title>chapters:w&#45;&gt;users:e</title>
<path fill="none" stroke="#000000" d="M203.9457,-286.5573C160.3546,-282.5535 146.4394,-261.2 96,-261.2"/>
<polygon fill="#000000" stroke="#000000" points="210.5078,-286.847 218.3412,-290.7965 214.5039,-287.0235 218.5,-287.2 218.5,-287.2 218.5,-287.2 214.5039,-287.0235 218.6588,-283.6035 210.5078,-286.847 210.5078,-286.847"/>
<ellipse fill="none" stroke="#000000" cx="207.3109" cy="-286.7058" rx="3.2" ry="3.2"/>
</g>
<!-- rsvps -->
<g id="node3" class="node">
<title>rsvps</title>
<g id="a_node3"><a xlink:href="../../tables/rsvps.html" xlink:title="rsvps" target="_top">
<polygon fill="#ffffff" stroke="transparent" points="225,-369.7 225,-430.7 296,-430.7 296,-369.7 225,-369.7"/>
<polygon fill="#f5f5f5" stroke="transparent" points="225.5,-407.2 225.5,-430.2 296.5,-430.2 296.5,-407.2 225.5,-407.2"/>
<polygon fill="none" stroke="#000000" points="225.5,-407.2 225.5,-430.2 296.5,-430.2 296.5,-407.2 225.5,-407.2"/>
<text text-anchor="start" x="230.5" y="-416.3" font-family="Helvetica,sans-Serif" font-weight="bold" font-size="11.00" fill="#000000">rsvps</text>
<text text-anchor="start" x="261.5437" y="-415.3" font-family="Helvetica,sans-Serif" font-size="11.00" fill="#000000">[table]</text>
<polygon fill="none" stroke="#000000" points="225.5,-388.2 225.5,-407.2 296.5,-407.2 296.5,-388.2 225.5,-388.2"/>
<text text-anchor="start" x="228.5" y="-394.3" font-family="Helvetica,sans-Serif" font-size="11.00" fill="#000000">...</text>
<polygon fill="#ffffff" stroke="transparent" points="225.5,-369.2 225.5,-388.2 246.5,-388.2 246.5,-369.2 225.5,-369.2"/>
<polygon fill="none" stroke="#000000" points="225.5,-369.2 225.5,-388.2 246.5,-388.2 246.5,-369.2 225.5,-369.2"/>
<text text-anchor="start" x="228.2027" y="-375.3" font-family="Helvetica,sans-Serif" font-size="11.00" fill="#000000">&lt; 2</text>
<polygon fill="#ffffff" stroke="transparent" points="246.5,-369.2 246.5,-388.2 284.5,-388.2 284.5,-369.2 246.5,-369.2"/>
<polygon fill="none" stroke="#000000" points="246.5,-369.2 246.5,-388.2 284.5,-388.2 284.5,-369.2 246.5,-369.2"/>
<text text-anchor="start" x="249.3053" y="-375.3" font-family="Helvetica,sans-Serif" font-size="11.00" fill="#000000">0 rows</text>
<polygon fill="#ffffff" stroke="transparent" points="284.5,-369.2 284.5,-388.2 296.5,-388.2 296.5,-369.2 284.5,-369.2"/>
<polygon fill="none" stroke="#000000" points="284.5,-369.2 284.5,-388.2 296.5,-388.2 296.5,-369.2 284.5,-369.2"/>
<text text-anchor="start" x="287.4431" y="-375.3" font-family="Helvetica,sans-Serif" font-size="11.00" fill="#000000"> &#160;</text>
</a>
</g>
</g>
<!-- rsvps&#45;&gt;users -->
<g id="edge2" class="edge">
<title>rsvps:w&#45;&gt;users:e</title>
<path fill="none" stroke="#000000" d="M210.8744,-396.7106C178.1802,-394.3005 163.6243,-382.6849 137,-355.2 105.2875,-322.4624 141.5789,-261.2 96,-261.2"/>
<polygon fill="#000000" stroke="#000000" points="217.5045,-396.9324 225.3796,-400.798 221.5022,-397.0662 225.5,-397.2 225.5,-397.2 225.5,-397.2 221.5022,-397.0662 225.6204,-393.602 217.5045,-396.9324 217.5045,-396.9324"/>
<ellipse fill="none" stroke="#000000" cx="214.3063" cy="-396.8254" rx="3.2" ry="3.2"/>
</g>
<!-- user_bans -->
<g id="node4" class="node">
<title>user_bans</title>
<g id="a_node4"><a xlink:href="../../tables/user_bans.html" xlink:title="user_bans" target="_top">
<polygon fill="#ffffff" stroke="transparent" points="446.5,-310.7 446.5,-371.7 540.5,-371.7 540.5,-310.7 446.5,-310.7"/>
<polygon fill="#f5f5f5" stroke="transparent" points="446.5,-348.2 446.5,-371.2 540.5,-371.2 540.5,-348.2 446.5,-348.2"/>
<polygon fill="none" stroke="#000000" points="446.5,-348.2 446.5,-371.2 540.5,-371.2 540.5,-348.2 446.5,-348.2"/>
<text text-anchor="start" x="451.3244" y="-357.3" font-family="Helvetica,sans-Serif" font-weight="bold" font-size="11.00" fill="#000000">user_bans</text>
<text text-anchor="start" x="506.0219" y="-356.3" font-family="Helvetica,sans-Serif" font-size="11.00" fill="#000000">[table]</text>
<polygon fill="none" stroke="#000000" points="446.5,-329.2 446.5,-348.2 540.5,-348.2 540.5,-329.2 446.5,-329.2"/>
<text text-anchor="start" x="449.5" y="-335.3" font-family="Helvetica,sans-Serif" font-size="11.00" fill="#000000">...</text>
<polygon fill="#ffffff" stroke="transparent" points="446.5,-310.2 446.5,-329.2 478.5,-329.2 478.5,-310.2 446.5,-310.2"/>
<polygon fill="none" stroke="#000000" points="446.5,-310.2 446.5,-329.2 478.5,-329.2 478.5,-310.2 446.5,-310.2"/>
<text text-anchor="start" x="449.5" y="-316.3" font-family="Helvetica,sans-Serif" font-size="11.00" fill="#000000">&lt; 2</text>
<polygon fill="#ffffff" stroke="transparent" points="478.5,-310.2 478.5,-329.2 522.5,-329.2 522.5,-310.2 478.5,-310.2"/>
<polygon fill="none" stroke="#000000" points="478.5,-310.2 478.5,-329.2 522.5,-329.2 522.5,-310.2 478.5,-310.2"/>
<text text-anchor="start" x="487.1105" y="-316.3" font-family="Helvetica,sans-Serif" font-size="11.00" fill="#000000">0 rows</text>
<polygon fill="#ffffff" stroke="transparent" points="522.5,-310.2 522.5,-329.2 540.5,-329.2 540.5,-310.2 522.5,-310.2"/>
<polygon fill="none" stroke="#000000" points="522.5,-310.2 522.5,-329.2 540.5,-329.2 540.5,-310.2 522.5,-310.2"/>
<text text-anchor="start" x="531.3862" y="-316.3" font-family="Helvetica,sans-Serif" font-size="11.00" fill="#000000"> &#160;</text>
</a>
</g>
</g>
<!-- user_bans&#45;&gt;chapters -->
<g id="edge3" class="edge">
<title>user_bans:w&#45;&gt;chapters:e</title>
<path fill="none" stroke="#000000" d="M432.0625,-337.3574C377.4527,-330.7264 365.8367,-287.2 303.5,-287.2"/>
<polygon fill="#000000" stroke="#000000" points="438.5136,-337.7338 446.2902,-341.7939 442.5068,-337.9669 446.5,-338.2 446.5,-338.2 446.5,-338.2 442.5068,-337.9669 446.7098,-334.6061 438.5136,-337.7338 438.5136,-337.7338"/>
<ellipse fill="none" stroke="#000000" cx="435.319" cy="-337.5473" rx="3.2" ry="3.2"/>
</g>
<!-- user_bans&#45;&gt;users -->
<g id="edge4" class="edge">
<title>user_bans:w&#45;&gt;users:e</title>
<path fill="none" stroke="#000000" d="M431.8572,-338.5232C354.8271,-341.5337 192.4734,-363.8356 137,-331.2 105.9241,-312.9177 132.0548,-261.2 96,-261.2"/>
<polygon fill="#000000" stroke="#000000" points="438.5019,-338.3766 446.5795,-341.7991 442.501,-338.2883 446.5,-338.2 446.5,-338.2 446.5,-338.2 442.501,-338.2883 446.4205,-334.6009 438.5019,-338.3766 438.5019,-338.3766"/>
<ellipse fill="none" stroke="#000000" cx="435.3027" cy="-338.4473" rx="3.2" ry="3.2"/>
</g>
<!-- user_chapter_roles -->
<g id="node5" class="node">
<title>user_chapter_roles</title>
<g id="a_node5"><a xlink:href="../../tables/user_chapter_roles.html" xlink:title="user_chapter_roles" target="_top">
<polygon fill="#ffffff" stroke="transparent" points="425,-221.7 425,-282.7 562,-282.7 562,-221.7 425,-221.7"/>
<polygon fill="#f5f5f5" stroke="transparent" points="425.5,-259.2 425.5,-282.2 562.5,-282.2 562.5,-259.2 425.5,-259.2"/>
<polygon fill="none" stroke="#000000" points="425.5,-259.2 425.5,-282.2 562.5,-282.2 562.5,-259.2 425.5,-259.2"/>
<text text-anchor="start" x="430.4338" y="-268.3" font-family="Helvetica,sans-Serif" font-weight="bold" font-size="11.00" fill="#000000">user_chapter_roles</text>
<text text-anchor="start" x="528.0219" y="-267.3" font-family="Helvetica,sans-Serif" font-size="11.00" fill="#000000">[table]</text>
<polygon fill="none" stroke="#000000" points="425.5,-240.2 425.5,-259.2 562.5,-259.2 562.5,-240.2 425.5,-240.2"/>
<text text-anchor="start" x="428.5" y="-246.3" font-family="Helvetica,sans-Serif" font-size="11.00" fill="#000000">...</text>
<polygon fill="#ffffff" stroke="transparent" points="425.5,-221.2 425.5,-240.2 479.5,-240.2 479.5,-221.2 425.5,-221.2"/>
<polygon fill="none" stroke="#000000" points="425.5,-221.2 425.5,-240.2 479.5,-240.2 479.5,-221.2 425.5,-221.2"/>
<text text-anchor="start" x="428.5" y="-227.3" font-family="Helvetica,sans-Serif" font-size="11.00" fill="#000000">&lt; 2</text>
<polygon fill="#ffffff" stroke="transparent" points="479.5,-221.2 479.5,-240.2 533.5,-240.2 533.5,-221.2 479.5,-221.2"/>
<polygon fill="none" stroke="#000000" points="479.5,-221.2 479.5,-240.2 533.5,-240.2 533.5,-221.2 479.5,-221.2"/>
<text text-anchor="start" x="498.1105" y="-227.3" font-family="Helvetica,sans-Serif" font-size="11.00" fill="#000000">0 rows</text>
<polygon fill="#ffffff" stroke="transparent" points="533.5,-221.2 533.5,-240.2 562.5,-240.2 562.5,-221.2 533.5,-221.2"/>
<polygon fill="none" stroke="#000000" points="533.5,-221.2 533.5,-240.2 562.5,-240.2 562.5,-221.2 533.5,-221.2"/>
<text text-anchor="start" x="553.3862" y="-227.3" font-family="Helvetica,sans-Serif" font-size="11.00" fill="#000000"> &#160;</text>
</a>
</g>
</g>
<!-- user_chapter_roles&#45;&gt;chapters -->
<g id="edge5" class="edge">
<title>user_chapter_roles:w&#45;&gt;chapters:e</title>
<path fill="none" stroke="#000000" d="M411.0082,-250.1019C366.7555,-255.8563 355.0783,-287.2 303.5,-287.2"/>
<polygon fill="#000000" stroke="#000000" points="417.5154,-249.6969 425.7236,-252.793 421.5077,-249.4485 425.5,-249.2 425.5,-249.2 425.5,-249.2 421.5077,-249.4485 425.2764,-245.607 417.5154,-249.6969 417.5154,-249.6969"/>
<ellipse fill="none" stroke="#000000" cx="414.3216" cy="-249.8957" rx="3.2" ry="3.2"/>
</g>
<!-- user_chapter_roles&#45;&gt;users -->
<g id="edge6" class="edge">
<title>user_chapter_roles:w&#45;&gt;users:e</title>
<path fill="none" stroke="#000000" d="M410.897,-249.12C294.5293,-247.8342 258.967,-231.7179 137,-249.2 118.2054,-251.8939 114.9867,-261.2 96,-261.2"/>
<polygon fill="#000000" stroke="#000000" points="417.5001,-249.1561 425.4802,-252.7999 421.5001,-249.1781 425.5,-249.2 425.5,-249.2 425.5,-249.2 421.5001,-249.1781 425.5198,-245.6001 417.5001,-249.1561 417.5001,-249.1561"/>
<ellipse fill="none" stroke="#000000" cx="414.3002" cy="-249.1385" rx="3.2" ry="3.2"/>
</g>
<!-- user_event_roles -->
<g id="node6" class="node">
<title>user_event_roles</title>
<g id="a_node6"><a xlink:href="../../tables/user_event_roles.html" xlink:title="user_event_roles" target="_top">
<polygon fill="#ffffff" stroke="transparent" points="197,-149.7 197,-210.7 324,-210.7 324,-149.7 197,-149.7"/>
<polygon fill="#f5f5f5" stroke="transparent" points="197.5,-187.2 197.5,-210.2 324.5,-210.2 324.5,-187.2 197.5,-187.2"/>
<polygon fill="none" stroke="#000000" points="197.5,-187.2 197.5,-210.2 324.5,-210.2 324.5,-187.2 197.5,-187.2"/>
<text text-anchor="start" x="202.3222" y="-196.3" font-family="Helvetica,sans-Serif" font-weight="bold" font-size="11.00" fill="#000000">user_event_roles</text>
<text text-anchor="start" x="290.0219" y="-195.3" font-family="Helvetica,sans-Serif" font-size="11.00" fill="#000000">[table]</text>
<polygon fill="none" stroke="#000000" points="197.5,-168.2 197.5,-187.2 324.5,-187.2 324.5,-168.2 197.5,-168.2"/>
<text text-anchor="start" x="200.5" y="-174.3" font-family="Helvetica,sans-Serif" font-size="11.00" fill="#000000">...</text>
<polygon fill="#ffffff" stroke="transparent" points="197.5,-149.2 197.5,-168.2 246.5,-168.2 246.5,-149.2 197.5,-149.2"/>
<polygon fill="none" stroke="#000000" points="197.5,-149.2 197.5,-168.2 246.5,-168.2 246.5,-149.2 197.5,-149.2"/>
<text text-anchor="start" x="200.5" y="-155.3" font-family="Helvetica,sans-Serif" font-size="11.00" fill="#000000">&lt; 2</text>
<polygon fill="#ffffff" stroke="transparent" points="246.5,-149.2 246.5,-168.2 298.5,-168.2 298.5,-149.2 246.5,-149.2"/>
<polygon fill="none" stroke="#000000" points="246.5,-149.2 246.5,-168.2 298.5,-168.2 298.5,-149.2 246.5,-149.2"/>
<text text-anchor="start" x="263.1105" y="-155.3" font-family="Helvetica,sans-Serif" font-size="11.00" fill="#000000">0 rows</text>
<polygon fill="#ffffff" stroke="transparent" points="298.5,-149.2 298.5,-168.2 324.5,-168.2 324.5,-149.2 298.5,-149.2"/>
<polygon fill="none" stroke="#000000" points="298.5,-149.2 298.5,-168.2 324.5,-168.2 324.5,-149.2 298.5,-149.2"/>
<text text-anchor="start" x="315.3862" y="-155.3" font-family="Helvetica,sans-Serif" font-size="11.00" fill="#000000"> &#160;</text>
</a>
</g>
</g>
<!-- user_event_roles&#45;&gt;users -->
<g id="edge7" class="edge">
<title>user_event_roles:w&#45;&gt;users:e</title>
<path fill="none" stroke="#000000" d="M183.1224,-179.1672C162.519,-185.6244 159.0259,-206.8119 137,-225.2 118.3846,-240.7408 120.2497,-261.2 96,-261.2"/>
<polygon fill="#000000" stroke="#000000" points="189.5738,-178.2845 197.988,-180.7668 193.5369,-177.7423 197.5,-177.2 197.5,-177.2 197.5,-177.2 193.5369,-177.7423 197.012,-173.6332 189.5738,-178.2845 189.5738,-178.2845"/>
<ellipse fill="none" stroke="#000000" cx="186.4034" cy="-178.7184" rx="3.2" ry="3.2"/>
</g>
<!-- user_instance_roles -->
<g id="node7" class="node">
<title>user_instance_roles</title>
<g id="a_node7"><a xlink:href="../../tables/user_instance_roles.html" xlink:title="user_instance_roles" target="_top">
<polygon fill="#ffffff" stroke="transparent" points="145,-38.2 145,-128.2 376,-128.2 376,-38.2 145,-38.2"/>
<polygon fill="#f5f5f5" stroke="transparent" points="147.5,-103.2 147.5,-126.2 374.5,-126.2 374.5,-103.2 147.5,-103.2"/>
<polygon fill="none" stroke="#000000" points="147.5,-103.2 147.5,-126.2 374.5,-126.2 374.5,-103.2 147.5,-103.2"/>
<text text-anchor="start" x="152.5" y="-112.3" font-family="Helvetica,sans-Serif" font-weight="bold" font-size="11.00" fill="#000000">user_instance_roles</text>
<text text-anchor="start" x="339.5437" y="-111.3" font-family="Helvetica,sans-Serif" font-size="11.00" fill="#000000">[table]</text>
<polygon fill="none" stroke="#000000" points="147.5,-81.2 147.5,-103.2 284.5,-103.2 284.5,-81.2 147.5,-81.2"/>
<image xlink:href="../../images/primaryKeys.png" width="11px" height="12px" preserveAspectRatio="xMinYMin meet" x="152.5" y="-98.2"/>
<text text-anchor="start" x="167.5" y="-88.3" font-family="Helvetica,sans-Serif" font-size="11.00" fill="#000000">user_id</text>
<polygon fill="none" stroke="#000000" points="284.5,-81.2 284.5,-103.2 374.5,-103.2 374.5,-81.2 284.5,-81.2"/>
<text text-anchor="start" x="287.5" y="-88.9" font-family="Helvetica,sans-Serif" font-size="11.00" fill="#000000">int4[10]</text>
<polygon fill="none" stroke="#000000" points="147.5,-59.2 147.5,-81.2 284.5,-81.2 284.5,-59.2 147.5,-59.2"/>
<image xlink:href="../../images/primaryKeys.png" width="11px" height="12px" preserveAspectRatio="xMinYMin meet" x="152.5" y="-76.2"/>
<text text-anchor="start" x="167.5" y="-66.3" font-family="Helvetica,sans-Serif" font-size="11.00" fill="#000000">role_name</text>
<polygon fill="none" stroke="#000000" points="284.5,-59.2 284.5,-81.2 374.5,-81.2 374.5,-59.2 284.5,-59.2"/>
<text text-anchor="start" x="287.0043" y="-66.9" font-family="Helvetica,sans-Serif" font-size="11.00" fill="#000000">text[2147483647]</text>
<polygon fill="#ffffff" stroke="transparent" points="147.5,-40.2 147.5,-59.2 207.5,-59.2 207.5,-40.2 147.5,-40.2"/>
<polygon fill="none" stroke="#000000" points="147.5,-40.2 147.5,-59.2 207.5,-59.2 207.5,-40.2 147.5,-40.2"/>
<text text-anchor="start" x="150.5" y="-46.3" font-family="Helvetica,sans-Serif" font-size="11.00" fill="#000000">&lt; 1</text>
<polygon fill="#ffffff" stroke="transparent" points="207.5,-40.2 207.5,-59.2 284.5,-59.2 284.5,-40.2 207.5,-40.2"/>
<polygon fill="none" stroke="#000000" points="207.5,-40.2 207.5,-59.2 284.5,-59.2 284.5,-40.2 207.5,-40.2"/>
<text text-anchor="start" x="249.1105" y="-46.3" font-family="Helvetica,sans-Serif" font-size="11.00" fill="#000000">0 rows</text>
<polygon fill="#ffffff" stroke="transparent" points="284.5,-40.2 284.5,-59.2 374.5,-59.2 374.5,-40.2 284.5,-40.2"/>
<polygon fill="none" stroke="#000000" points="284.5,-40.2 284.5,-59.2 374.5,-59.2 374.5,-40.2 284.5,-40.2"/>
<text text-anchor="start" x="355.9053" y="-46.3" font-family="Helvetica,sans-Serif" font-size="11.00" fill="#000000">0 &gt;</text>
<polygon fill="none" stroke="#000000" stroke-width="2" points="146,-39.2 146,-127.2 375,-127.2 375,-39.2 146,-39.2"/>
</a>
</g>
</g>
<!-- user_instance_roles&#45;&gt;users -->
<g id="edge8" class="edge">
<title>user_instance_roles:w&#45;&gt;users:e</title>
<path fill="none" stroke="#000000" d="M133.2216,-94.7202C83.2717,-115.7432 168.8468,-261.2 96,-261.2"/>
<polygon fill="#000000" stroke="#000000" points="139.6218,-93.5906 148.1258,-95.7452 143.5609,-92.8953 147.5,-92.2 147.5,-92.2 147.5,-92.2 143.5609,-92.8953 146.8742,-88.6548 139.6218,-93.5906 139.6218,-93.5906"/>
<ellipse fill="none" stroke="#000000" cx="136.4705" cy="-94.1468" rx="3.2" ry="3.2"/>
</g>
</g>
</svg>
