<?xml version="1.0" encoding="UTF-8" standalone="no"?>
<!DOCTYPE svg PUBLIC "-//W3C//DTD SVG 1.1//EN"
 "http://www.w3.org/Graphics/SVG/1.1/DTD/svg11.dtd">
<!-- Generated by graphviz version 2.40.1 (20161225.0304)
 -->
<!-- Title: twoDegreesRelationshipsDiagram Pages: 1 -->
<svg width="881pt" height="684pt"
 viewBox="0.00 0.00 881.00 683.70" xmlns="http://www.w3.org/2000/svg" xmlns:xlink="http://www.w3.org/1999/xlink">
<g id="graph0" class="graph" transform="scale(1 1) rotate(0) translate(4 679.7)">
<title>twoDegreesRelationshipsDiagram</title>
<polygon fill="#ffffff" stroke="transparent" points="-4,4 -4,-679.7 877,-679.7 877,4 -4,4"/>
<text text-anchor="middle" x="72.4936" y="-7.3" font-family="Helvetica,sans-Serif" font-size="11.00" fill="#000000">Generated by SchemaSpy</text>
<!-- chapter_users -->
<g id="node1" class="node">
<title>chapter_users</title>
<g id="a_node1"><a xlink:href="../../tables/chapter_users.html" xlink:title="chapter_users" target="_top">
<polygon fill="#ffffff" stroke="transparent" points="429,-202.2 429,-329.2 541,-329.2 541,-202.2 429,-202.2"/>
<polygon fill="#f5f5f5" stroke="transparent" points="429,-305.7 429,-328.7 541,-328.7 541,-305.7 429,-305.7"/>
<polygon fill="none" stroke="#000000" points="429,-305.7 429,-328.7 541,-328.7 541,-305.7 429,-305.7"/>
<text text-anchor="start" x="433.6575" y="-314.8" font-family="Helvetica,sans-Serif" font-weight="bold" font-size="11.00" fill="#000000">chapter_users</text>
<text text-anchor="start" x="506.5219" y="-313.8" font-family="Helvetica,sans-Serif" font-size="11.00" fill="#000000">[table]</text>
<polygon fill="none" stroke="#000000" points="429,-283.7 429,-305.7 541,-305.7 541,-283.7 429,-283.7"/>
<image xlink:href="../../images/primaryKeys.png" width="11px" height="12px" preserveAspectRatio="xMinYMin meet" x="434" y="-300.7"/>
<text text-anchor="start" x="449" y="-290.8" font-family="Helvetica,sans-Serif" font-size="11.00" fill="#000000">user_id</text>
<polygon fill="none" stroke="#000000" points="429,-261.7 429,-283.7 541,-283.7 541,-261.7 429,-261.7"/>
<image xlink:href="../../images/primaryKeys.png" width="11px" height="12px" preserveAspectRatio="xMinYMin meet" x="434" y="-278.7"/>
<text text-anchor="start" x="449" y="-268.8" font-family="Helvetica,sans-Serif" font-size="11.00" fill="#000000">chapter_id</text>
<polygon fill="none" stroke="#000000" points="429,-239.7 429,-261.7 541,-261.7 541,-239.7 429,-239.7"/>
<image xlink:href="../../images/foreignKeys.png" width="11px" height="12px" preserveAspectRatio="xMinYMin meet" x="434" y="-256.7"/>
<text text-anchor="start" x="449" y="-246.8" font-family="Helvetica,sans-Serif" font-size="11.00" fill="#000000">chapter_role_id</text>
<polygon fill="none" stroke="#000000" points="429,-220.7 429,-239.7 541,-239.7 541,-220.7 429,-220.7"/>
<text text-anchor="start" x="432" y="-226.8" font-family="Helvetica,sans-Serif" font-size="11.00" fill="#000000">...</text>
<polygon fill="#ffffff" stroke="transparent" points="429,-201.7 429,-220.7 470,-220.7 470,-201.7 429,-201.7"/>
<polygon fill="none" stroke="#000000" points="429,-201.7 429,-220.7 470,-220.7 470,-201.7 429,-201.7"/>
<text text-anchor="start" x="432" y="-207.8" font-family="Helvetica,sans-Serif" font-size="11.00" fill="#000000">&lt; 3</text>
<polygon fill="#ffffff" stroke="transparent" points="470,-201.7 470,-220.7 518,-220.7 518,-201.7 470,-201.7"/>
<polygon fill="none" stroke="#000000" points="470,-201.7 470,-220.7 518,-220.7 518,-201.7 470,-201.7"/>
<text text-anchor="start" x="482.6105" y="-207.8" font-family="Helvetica,sans-Serif" font-size="11.00" fill="#000000">0 rows</text>
<polygon fill="#ffffff" stroke="transparent" points="518,-201.7 518,-220.7 541,-220.7 541,-201.7 518,-201.7"/>
<polygon fill="none" stroke="#000000" points="518,-201.7 518,-220.7 541,-220.7 541,-201.7 518,-201.7"/>
<text text-anchor="start" x="531.8862" y="-207.8" font-family="Helvetica,sans-Serif" font-size="11.00" fill="#000000"> &#160;</text>
</a>
</g>
</g>
<!-- chapters -->
<g id="node2" class="node">
<title>chapters</title>
<g id="a_node2"><a xlink:href="../../tables/chapters.html" xlink:title="chapters" target="_top">
<polygon fill="#ffffff" stroke="transparent" points="232.5,-343.2 232.5,-404.2 317.5,-404.2 317.5,-343.2 232.5,-343.2"/>
<polygon fill="#f5f5f5" stroke="transparent" points="233,-380.7 233,-403.7 318,-403.7 318,-380.7 233,-380.7"/>
<polygon fill="none" stroke="#000000" points="233,-380.7 233,-403.7 318,-403.7 318,-380.7 233,-380.7"/>
<text text-anchor="start" x="237.9108" y="-389.8" font-family="Helvetica,sans-Serif" font-weight="bold" font-size="11.00" fill="#000000">chapters</text>
<text text-anchor="start" x="283.5219" y="-388.8" font-family="Helvetica,sans-Serif" font-size="11.00" fill="#000000">[table]</text>
<polygon fill="none" stroke="#000000" points="233,-361.7 233,-380.7 318,-380.7 318,-361.7 233,-361.7"/>
<text text-anchor="start" x="236" y="-367.8" font-family="Helvetica,sans-Serif" font-size="11.00" fill="#000000">...</text>
<polygon fill="#ffffff" stroke="transparent" points="233,-342.7 233,-361.7 252,-361.7 252,-342.7 233,-342.7"/>
<polygon fill="none" stroke="#000000" points="233,-342.7 233,-361.7 252,-361.7 252,-342.7 233,-342.7"/>
<text text-anchor="start" x="236" y="-348.8" font-family="Helvetica,sans-Serif" font-size="11.00" fill="#000000"> &#160;</text>
<polygon fill="#ffffff" stroke="transparent" points="252,-342.7 252,-361.7 293,-361.7 293,-342.7 252,-342.7"/>
<polygon fill="none" stroke="#000000" points="252,-342.7 252,-361.7 293,-361.7 293,-342.7 252,-342.7"/>
<text text-anchor="start" x="257.6105" y="-348.8" font-family="Helvetica,sans-Serif" font-size="11.00" fill="#000000">0 rows</text>
<polygon fill="#ffffff" stroke="transparent" points="293,-342.7 293,-361.7 318,-361.7 318,-342.7 293,-342.7"/>
<polygon fill="none" stroke="#000000" points="293,-342.7 293,-361.7 318,-361.7 318,-342.7 293,-342.7"/>
<text text-anchor="start" x="299.4053" y="-348.8" font-family="Helvetica,sans-Serif" font-size="11.00" fill="#000000">4 &gt;</text>
</a>
</g>
</g>
<!-- chapter_users&#45;&gt;chapters -->
<g id="edge1" class="edge">
<title>chapter_users:w&#45;&gt;chapters:e</title>
<path fill="none" stroke="#000000" d="M414.8725,-276.6793C401.1705,-287.0457 407.2915,-315.2842 388,-332.7 361.7239,-356.4213 353.3997,-370.7 318,-370.7"/>
<polygon fill="#000000" stroke="#000000" points="421.2996,-274.869 429.9761,-276.1652 425.1498,-273.7845 429,-272.7 429,-272.7 429,-272.7 425.1498,-273.7845 428.0239,-269.2348 421.2996,-274.869 421.2996,-274.869"/>
<ellipse fill="none" stroke="#000000" cx="418.2195" cy="-275.7366" rx="3.2" ry="3.2"/>
</g>
<!-- chapter_roles -->
<g id="node3" class="node">
<title>chapter_roles</title>
<g id="a_node3"><a xlink:href="../../tables/chapter_roles.html" xlink:title="chapter_roles" target="_top">
<polygon fill="#ffffff" stroke="transparent" points="220.5,-179.2 220.5,-240.2 329.5,-240.2 329.5,-179.2 220.5,-179.2"/>
<polygon fill="#f5f5f5" stroke="transparent" points="221,-216.7 221,-239.7 330,-239.7 330,-216.7 221,-216.7"/>
<polygon fill="none" stroke="#000000" points="221,-216.7 221,-239.7 330,-239.7 330,-216.7 221,-216.7"/>
<text text-anchor="start" x="225.6871" y="-225.8" font-family="Helvetica,sans-Serif" font-weight="bold" font-size="11.00" fill="#000000">chapter_roles</text>
<text text-anchor="start" x="295.5219" y="-224.8" font-family="Helvetica,sans-Serif" font-size="11.00" fill="#000000">[table]</text>
<polygon fill="none" stroke="#000000" points="221,-197.7 221,-216.7 330,-216.7 330,-197.7 221,-197.7"/>
<text text-anchor="start" x="224" y="-203.8" font-family="Helvetica,sans-Serif" font-size="11.00" fill="#000000">...</text>
<polygon fill="#ffffff" stroke="transparent" points="221,-178.7 221,-197.7 252,-197.7 252,-178.7 221,-178.7"/>
<polygon fill="none" stroke="#000000" points="221,-178.7 221,-197.7 252,-197.7 252,-178.7 221,-178.7"/>
<text text-anchor="start" x="224" y="-184.8" font-family="Helvetica,sans-Serif" font-size="11.00" fill="#000000"> &#160;</text>
<polygon fill="#ffffff" stroke="transparent" points="252,-178.7 252,-197.7 299,-197.7 299,-178.7 252,-178.7"/>
<polygon fill="none" stroke="#000000" points="252,-178.7 252,-197.7 299,-197.7 299,-178.7 252,-178.7"/>
<text text-anchor="start" x="263.6105" y="-184.8" font-family="Helvetica,sans-Serif" font-size="11.00" fill="#000000">2 rows</text>
<polygon fill="#ffffff" stroke="transparent" points="299,-178.7 299,-197.7 330,-197.7 330,-178.7 299,-178.7"/>
<polygon fill="none" stroke="#000000" points="299,-178.7 299,-197.7 330,-197.7 330,-178.7 299,-178.7"/>
<text text-anchor="start" x="311.4053" y="-184.8" font-family="Helvetica,sans-Serif" font-size="11.00" fill="#000000">2 &gt;</text>
</a>
</g>
</g>
<!-- chapter_users&#45;&gt;chapter_roles -->
<g id="edge2" class="edge">
<title>chapter_users:w&#45;&gt;chapter_roles:e</title>
<path fill="none" stroke="#000000" d="M414.2541,-249.134C379.6551,-241.2959 372.6955,-206.7 330,-206.7"/>
<polygon fill="#000000" stroke="#000000" points="421.0447,-249.8551 428.6198,-254.2799 425.0224,-250.2776 429,-250.7 429,-250.7 429,-250.7 425.0224,-250.2776 429.3802,-247.1201 421.0447,-249.8551 421.0447,-249.8551"/>
<ellipse fill="none" stroke="#000000" cx="417.8626" cy="-249.5172" rx="3.2" ry="3.2"/>
</g>
<!-- users -->
<g id="node4" class="node">
<title>users</title>
<g id="a_node4"><a xlink:href="../../tables/users.html" xlink:title="users" target="_top">
<polygon fill="#ffffff" stroke="transparent" points="170,-425.7 170,-647.7 380,-647.7 380,-425.7 170,-425.7"/>
<polygon fill="#f5f5f5" stroke="transparent" points="172,-622.7 172,-645.7 378,-645.7 378,-622.7 172,-622.7"/>
<polygon fill="none" stroke="#000000" points="172,-622.7 172,-645.7 378,-645.7 378,-622.7 172,-622.7"/>
<text text-anchor="start" x="177" y="-631.8" font-family="Helvetica,sans-Serif" font-weight="bold" font-size="11.00" fill="#000000">users</text>
<text text-anchor="start" x="343.0437" y="-630.8" font-family="Helvetica,sans-Serif" font-size="11.00" fill="#000000">[table]</text>
<polygon fill="none" stroke="#000000" points="172,-600.7 172,-622.7 288,-622.7 288,-600.7 172,-600.7"/>
<text text-anchor="start" x="192" y="-607.8" font-family="Helvetica,sans-Serif" font-size="11.00" fill="#000000">created_at</text>
<polygon fill="none" stroke="#000000" points="288,-600.7 288,-622.7 378,-622.7 378,-600.7 288,-600.7"/>
<text text-anchor="start" x="291" y="-608.4" font-family="Helvetica,sans-Serif" font-size="11.00" fill="#000000">timestamp[26,3]</text>
<polygon fill="none" stroke="#000000" points="172,-578.7 172,-600.7 288,-600.7 288,-578.7 172,-578.7"/>
<text text-anchor="start" x="192" y="-585.8" font-family="Helvetica,sans-Serif" font-size="11.00" fill="#000000">updated_at</text>
<polygon fill="none" stroke="#000000" points="288,-578.7 288,-600.7 378,-600.7 378,-578.7 288,-578.7"/>
<text text-anchor="start" x="291" y="-586.4" font-family="Helvetica,sans-Serif" font-size="11.00" fill="#000000">timestamp[26,3]</text>
<polygon fill="none" stroke="#000000" points="172,-556.7 172,-578.7 288,-578.7 288,-556.7 172,-556.7"/>
<image xlink:href="../../images/primaryKeys.png" width="11px" height="12px" preserveAspectRatio="xMinYMin meet" x="177" y="-573.7"/>
<text text-anchor="start" x="192" y="-563.8" font-family="Helvetica,sans-Serif" font-size="11.00" fill="#000000">id</text>
<polygon fill="none" stroke="#000000" points="288,-556.7 288,-578.7 378,-578.7 378,-556.7 288,-556.7"/>
<text text-anchor="start" x="291" y="-564.4" font-family="Helvetica,sans-Serif" font-size="11.00" fill="#000000">serial[10]</text>
<polygon fill="none" stroke="#000000" points="172,-534.7 172,-556.7 288,-556.7 288,-534.7 172,-534.7"/>
<text text-anchor="start" x="192" y="-541.8" font-family="Helvetica,sans-Serif" font-size="11.00" fill="#000000">name</text>
<polygon fill="none" stroke="#000000" points="288,-534.7 288,-556.7 378,-556.7 378,-534.7 288,-534.7"/>
<text text-anchor="start" x="290.5043" y="-542.4" font-family="Helvetica,sans-Serif" font-size="11.00" fill="#000000">text[2147483647]</text>
<polygon fill="#ffffff" stroke="transparent" points="172,-512.7 172,-534.7 288,-534.7 288,-512.7 172,-512.7"/>
<polygon fill="none" stroke="#000000" points="172,-512.7 172,-534.7 288,-534.7 288,-512.7 172,-512.7"/>
<text text-anchor="start" x="192" y="-519.8" font-family="Helvetica,sans-Serif" font-size="11.00" fill="#000000">email</text>
<polygon fill="none" stroke="#000000" points="288,-512.7 288,-534.7 378,-534.7 378,-512.7 288,-512.7"/>
<text text-anchor="start" x="290.5043" y="-520.4" font-family="Helvetica,sans-Serif" font-size="11.00" fill="#000000">text[2147483647]</text>
<polygon fill="none" stroke="#000000" points="172,-490.7 172,-512.7 288,-512.7 288,-490.7 172,-490.7"/>
<image xlink:href="../../images/foreignKeys.png" width="11px" height="12px" preserveAspectRatio="xMinYMin meet" x="177" y="-507.7"/>
<text text-anchor="start" x="192" y="-497.8" font-family="Helvetica,sans-Serif" font-size="11.00" fill="#000000">instance_role_id</text>
<polygon fill="none" stroke="#000000" points="288,-490.7 288,-512.7 378,-512.7 378,-490.7 288,-490.7"/>
<text text-anchor="start" x="291" y="-498.4" font-family="Helvetica,sans-Serif" font-size="11.00" fill="#000000">int4[10]</text>
<polygon fill="none" stroke="#000000" points="172,-468.7 172,-490.7 288,-490.7 288,-468.7 172,-468.7"/>
<text text-anchor="start" x="192" y="-475.8" font-family="Helvetica,sans-Serif" font-size="11.00" fill="#000000">image_url</text>
<polygon fill="none" stroke="#000000" points="288,-468.7 288,-490.7 378,-490.7 378,-468.7 288,-468.7"/>
<text text-anchor="start" x="290.5043" y="-476.4" font-family="Helvetica,sans-Serif" font-size="11.00" fill="#000000">text[2147483647]</text>
<polygon fill="none" stroke="#000000" points="172,-446.7 172,-468.7 288,-468.7 288,-446.7 172,-446.7"/>
<text text-anchor="start" x="192" y="-453.8" font-family="Helvetica,sans-Serif" font-size="11.00" fill="#000000">auto_subscribe</text>
<polygon fill="none" stroke="#000000" points="288,-446.7 288,-468.7 378,-468.7 378,-446.7 288,-446.7"/>
<text text-anchor="start" x="291" y="-454.4" font-family="Helvetica,sans-Serif" font-size="11.00" fill="#000000">bool[1]</text>
<polygon fill="#ffffff" stroke="transparent" points="172,-427.7 172,-446.7 221,-446.7 221,-427.7 172,-427.7"/>
<polygon fill="none" stroke="#000000" points="172,-427.7 172,-446.7 221,-446.7 221,-427.7 172,-427.7"/>
<text text-anchor="start" x="175" y="-433.8" font-family="Helvetica,sans-Serif" font-size="11.00" fill="#000000">&lt; 1</text>
<polygon fill="#ffffff" stroke="transparent" points="221,-427.7 221,-446.7 288,-446.7 288,-427.7 221,-427.7"/>
<polygon fill="none" stroke="#000000" points="221,-427.7 221,-446.7 288,-446.7 288,-427.7 221,-427.7"/>
<text text-anchor="start" x="252.6105" y="-433.8" font-family="Helvetica,sans-Serif" font-size="11.00" fill="#000000">0 rows</text>
<polygon fill="#ffffff" stroke="transparent" points="288,-427.7 288,-446.7 378,-446.7 378,-427.7 288,-427.7"/>
<polygon fill="none" stroke="#000000" points="288,-427.7 288,-446.7 378,-446.7 378,-427.7 288,-427.7"/>
<text text-anchor="start" x="359.4053" y="-433.8" font-family="Helvetica,sans-Serif" font-size="11.00" fill="#000000">4 &gt;</text>
<polygon fill="none" stroke="#000000" stroke-width="2" points="171,-426.7 171,-646.7 379,-646.7 379,-426.7 171,-426.7"/>
</a>
</g>
</g>
<!-- chapter_users&#45;&gt;users -->
<g id="edge3" class="edge">
<title>chapter_users:w&#45;&gt;users:e</title>
<path fill="none" stroke="#000000" d="M415.6538,-300.6559C378.9798,-340.5794 434.2919,-567.7 378,-567.7"/>
<polygon fill="#000000" stroke="#000000" points="421.6944,-297.9602 430.4671,-297.9875 425.3472,-296.3301 429,-294.7 429,-294.7 429,-294.7 425.3472,-296.3301 427.5329,-291.4125 421.6944,-297.9602 421.6944,-297.9602"/>
<ellipse fill="none" stroke="#000000" cx="418.7722" cy="-299.2643" rx="3.2" ry="3.2"/>
</g>
<!-- instance_roles -->
<g id="node11" class="node">
<title>instance_roles</title>
<g id="a_node11"><a xlink:href="../../tables/instance_roles.html" xlink:title="instance_roles" target="_top">
<polygon fill="#ffffff" stroke="transparent" points="8,-324.2 8,-429.2 121,-429.2 121,-324.2 8,-324.2"/>
<polygon fill="#f5f5f5" stroke="transparent" points="8.5,-405.7 8.5,-428.7 121.5,-428.7 121.5,-405.7 8.5,-405.7"/>
<polygon fill="none" stroke="#000000" points="8.5,-405.7 8.5,-428.7 121.5,-428.7 121.5,-405.7 8.5,-405.7"/>
<text text-anchor="start" x="13.0476" y="-414.8" font-family="Helvetica,sans-Serif" font-weight="bold" font-size="11.00" fill="#000000">instance_roles</text>
<text text-anchor="start" x="87.0219" y="-413.8" font-family="Helvetica,sans-Serif" font-size="11.00" fill="#000000">[table]</text>
<polygon fill="none" stroke="#000000" points="8.5,-383.7 8.5,-405.7 121.5,-405.7 121.5,-383.7 8.5,-383.7"/>
<image xlink:href="../../images/primaryKeys.png" width="11px" height="12px" preserveAspectRatio="xMinYMin meet" x="13.5" y="-400.7"/>
<text text-anchor="start" x="32.5" y="-390.8" font-family="Helvetica,sans-Serif" font-size="11.00" fill="#000000">id</text>
<polygon fill="#ffffff" stroke="transparent" points="8.5,-361.7 8.5,-383.7 121.5,-383.7 121.5,-361.7 8.5,-361.7"/>
<polygon fill="none" stroke="#000000" points="8.5,-361.7 8.5,-383.7 121.5,-383.7 121.5,-361.7 8.5,-361.7"/>
<text text-anchor="start" x="32.5" y="-368.8" font-family="Helvetica,sans-Serif" font-size="11.00" fill="#000000">name</text>
<polygon fill="none" stroke="#000000" points="8.5,-342.7 8.5,-361.7 121.5,-361.7 121.5,-342.7 8.5,-342.7"/>
<text text-anchor="start" x="11.5" y="-348.8" font-family="Helvetica,sans-Serif" font-size="11.00" fill="#000000">...</text>
<polygon fill="#ffffff" stroke="transparent" points="8.5,-323.7 8.5,-342.7 41.5,-342.7 41.5,-323.7 8.5,-323.7"/>
<polygon fill="none" stroke="#000000" points="8.5,-323.7 8.5,-342.7 41.5,-342.7 41.5,-323.7 8.5,-323.7"/>
<text text-anchor="start" x="11.5" y="-329.8" font-family="Helvetica,sans-Serif" font-size="11.00" fill="#000000"> &#160;</text>
<polygon fill="#ffffff" stroke="transparent" points="41.5,-323.7 41.5,-342.7 89.5,-342.7 89.5,-323.7 41.5,-323.7"/>
<polygon fill="none" stroke="#000000" points="41.5,-323.7 41.5,-342.7 89.5,-342.7 89.5,-323.7 41.5,-323.7"/>
<text text-anchor="start" x="54.1105" y="-329.8" font-family="Helvetica,sans-Serif" font-size="11.00" fill="#000000">3 rows</text>
<polygon fill="#ffffff" stroke="transparent" points="89.5,-323.7 89.5,-342.7 121.5,-342.7 121.5,-323.7 89.5,-323.7"/>
<polygon fill="none" stroke="#000000" points="89.5,-323.7 89.5,-342.7 121.5,-342.7 121.5,-323.7 89.5,-323.7"/>
<text text-anchor="start" x="102.9053" y="-329.8" font-family="Helvetica,sans-Serif" font-size="11.00" fill="#000000">2 &gt;</text>
</a>
</g>
</g>
<!-- users&#45;&gt;instance_roles -->
<g id="edge15" class="edge">
<title>users:w&#45;&gt;instance_roles:e</title>
<path fill="none" stroke="#000000" d="M157.9464,-497.8918C130.4242,-478.8309 168.129,-394.7 121.5,-394.7"/>
<polygon fill="#000000" stroke="#000000" points="164.2785,-499.6076 171.0584,-505.1747 168.1392,-500.6538 172,-501.7 172,-501.7 172,-501.7 168.1392,-500.6538 172.9416,-498.2253 164.2785,-499.6076 164.2785,-499.6076"/>
<ellipse fill="none" stroke="#000000" cx="161.1898" cy="-498.7707" rx="3.2" ry="3.2"/>
</g>
<!-- event_reminders -->
<g id="node5" class="node">
<title>event_reminders</title>
<g id="a_node5"><a xlink:href="../../tables/event_reminders.html" xlink:title="event_reminders" target="_top">
<polygon fill="#ffffff" stroke="transparent" points="741,-257.2 741,-318.2 865,-318.2 865,-257.2 741,-257.2"/>
<polygon fill="#f5f5f5" stroke="transparent" points="741,-294.7 741,-317.7 865,-317.7 865,-294.7 741,-294.7"/>
<polygon fill="none" stroke="#000000" points="741,-294.7 741,-317.7 865,-317.7 865,-294.7 741,-294.7"/>
<text text-anchor="start" x="745.5486" y="-303.8" font-family="Helvetica,sans-Serif" font-weight="bold" font-size="11.00" fill="#000000">event_reminders</text>
<text text-anchor="start" x="830.5219" y="-302.8" font-family="Helvetica,sans-Serif" font-size="11.00" fill="#000000">[table]</text>
<polygon fill="none" stroke="#000000" points="741,-275.7 741,-294.7 865,-294.7 865,-275.7 741,-275.7"/>
<text text-anchor="start" x="744" y="-281.8" font-family="Helvetica,sans-Serif" font-size="11.00" fill="#000000">...</text>
<polygon fill="#ffffff" stroke="transparent" points="741,-256.7 741,-275.7 788,-275.7 788,-256.7 741,-256.7"/>
<polygon fill="none" stroke="#000000" points="741,-256.7 741,-275.7 788,-275.7 788,-256.7 741,-256.7"/>
<text text-anchor="start" x="744" y="-262.8" font-family="Helvetica,sans-Serif" font-size="11.00" fill="#000000">&lt; 2</text>
<polygon fill="#ffffff" stroke="transparent" points="788,-256.7 788,-275.7 839,-275.7 839,-256.7 788,-256.7"/>
<polygon fill="none" stroke="#000000" points="788,-256.7 788,-275.7 839,-275.7 839,-256.7 788,-256.7"/>
<text text-anchor="start" x="803.6105" y="-262.8" font-family="Helvetica,sans-Serif" font-size="11.00" fill="#000000">0 rows</text>
<polygon fill="#ffffff" stroke="transparent" points="839,-256.7 839,-275.7 865,-275.7 865,-256.7 839,-256.7"/>
<polygon fill="none" stroke="#000000" points="839,-256.7 839,-275.7 865,-275.7 865,-256.7 839,-256.7"/>
<text text-anchor="start" x="855.8862" y="-262.8" font-family="Helvetica,sans-Serif" font-size="11.00" fill="#000000"> &#160;</text>
</a>
</g>
</g>
<!-- event_users -->
<g id="node6" class="node">
<title>event_users</title>
<g id="a_node6"><a xlink:href="../../tables/event_users.html" xlink:title="event_users" target="_top">
<polygon fill="#ffffff" stroke="transparent" points="590,-181.2 590,-330.2 692,-330.2 692,-181.2 590,-181.2"/>
<polygon fill="#f5f5f5" stroke="transparent" points="590,-306.7 590,-329.7 692,-329.7 692,-306.7 590,-306.7"/>
<polygon fill="none" stroke="#000000" points="590,-306.7 590,-329.7 692,-329.7 692,-306.7 590,-306.7"/>
<text text-anchor="start" x="594.5459" y="-315.8" font-family="Helvetica,sans-Serif" font-weight="bold" font-size="11.00" fill="#000000">event_users</text>
<text text-anchor="start" x="657.5219" y="-314.8" font-family="Helvetica,sans-Serif" font-size="11.00" fill="#000000">[table]</text>
<polygon fill="none" stroke="#000000" points="590,-284.7 590,-306.7 692,-306.7 692,-284.7 590,-284.7"/>
<image xlink:href="../../images/primaryKeys.png" width="11px" height="12px" preserveAspectRatio="xMinYMin meet" x="595" y="-301.7"/>
<text text-anchor="start" x="612" y="-291.8" font-family="Helvetica,sans-Serif" font-size="11.00" fill="#000000">user_id</text>
<polygon fill="none" stroke="#000000" points="590,-262.7 590,-284.7 692,-284.7 692,-262.7 590,-262.7"/>
<image xlink:href="../../images/primaryKeys.png" width="11px" height="12px" preserveAspectRatio="xMinYMin meet" x="595" y="-279.7"/>
<text text-anchor="start" x="612" y="-269.8" font-family="Helvetica,sans-Serif" font-size="11.00" fill="#000000">event_id</text>
<polygon fill="none" stroke="#000000" points="590,-240.7 590,-262.7 692,-262.7 692,-240.7 590,-240.7"/>
<image xlink:href="../../images/foreignKeys.png" width="11px" height="12px" preserveAspectRatio="xMinYMin meet" x="595" y="-257.7"/>
<text text-anchor="start" x="612" y="-247.8" font-family="Helvetica,sans-Serif" font-size="11.00" fill="#000000">event_role_id</text>
<polygon fill="none" stroke="#000000" points="590,-218.7 590,-240.7 692,-240.7 692,-218.7 590,-218.7"/>
<image xlink:href="../../images/foreignKeys.png" width="11px" height="12px" preserveAspectRatio="xMinYMin meet" x="595" y="-235.7"/>
<text text-anchor="start" x="612" y="-225.8" font-family="Helvetica,sans-Serif" font-size="11.00" fill="#000000">rsvp_id</text>
<polygon fill="none" stroke="#000000" points="590,-199.7 590,-218.7 692,-218.7 692,-199.7 590,-199.7"/>
<text text-anchor="start" x="593" y="-205.8" font-family="Helvetica,sans-Serif" font-size="11.00" fill="#000000">...</text>
<polygon fill="#ffffff" stroke="transparent" points="590,-180.7 590,-199.7 622,-199.7 622,-180.7 590,-180.7"/>
<polygon fill="none" stroke="#000000" points="590,-180.7 590,-199.7 622,-199.7 622,-180.7 590,-180.7"/>
<text text-anchor="start" x="593" y="-186.8" font-family="Helvetica,sans-Serif" font-size="11.00" fill="#000000">&lt; 4</text>
<polygon fill="#ffffff" stroke="transparent" points="622,-180.7 622,-199.7 665,-199.7 665,-180.7 622,-180.7"/>
<polygon fill="none" stroke="#000000" points="622,-180.7 622,-199.7 665,-199.7 665,-180.7 622,-180.7"/>
<text text-anchor="start" x="629.6105" y="-186.8" font-family="Helvetica,sans-Serif" font-size="11.00" fill="#000000">0 rows</text>
<polygon fill="#ffffff" stroke="transparent" points="665,-180.7 665,-199.7 692,-199.7 692,-180.7 665,-180.7"/>
<polygon fill="none" stroke="#000000" points="665,-180.7 665,-199.7 692,-199.7 692,-180.7 665,-180.7"/>
<text text-anchor="start" x="673.4053" y="-186.8" font-family="Helvetica,sans-Serif" font-size="11.00" fill="#000000">2 &gt;</text>
</a>
</g>
</g>
<!-- event_reminders&#45;&gt;event_users -->
<g id="edge4" class="edge">
<title>event_reminders:w&#45;&gt;event_users:e</title>
<path fill="none" stroke="#000000" d="M726.7027,-282.8836C715.2382,-279.7593 708.5655,-273.7 692,-273.7"/>
<polygon fill="#000000" stroke="#000000" points="733.0638,-283.6917 740.5463,-288.2713 737.0319,-284.1958 741,-284.7 741,-284.7 741,-284.7 737.0319,-284.1958 741.4537,-281.1287 733.0638,-283.6917 733.0638,-283.6917"/>
<ellipse fill="none" stroke="#000000" cx="729.8893" cy="-283.2884" rx="3.2" ry="3.2"/>
</g>
<!-- event_reminders&#45;&gt;event_users -->
<g id="edge5" class="edge">
<title>event_reminders:w&#45;&gt;event_users:e</title>
<path fill="none" stroke="#000000" d="M726.7027,-286.5164C715.2382,-289.6407 708.5655,-295.7 692,-295.7"/>
<polygon fill="#000000" stroke="#000000" points="733.0638,-285.7083 741.4537,-288.2713 737.0319,-285.2042 741,-284.7 741,-284.7 741,-284.7 737.0319,-285.2042 740.5463,-281.1287 733.0638,-285.7083 733.0638,-285.7083"/>
<ellipse fill="none" stroke="#000000" cx="729.8893" cy="-286.1116" rx="3.2" ry="3.2"/>
</g>
<!-- event_users&#45;&gt;users -->
<g id="edge9" class="edge">
<title>event_users:w&#45;&gt;users:e</title>
<path fill="none" stroke="#000000" d="M576.428,-301.4282C543.4143,-335.6054 586.0035,-512.3201 549,-547.7 521.3469,-574.1397 416.259,-567.7 378,-567.7"/>
<polygon fill="#000000" stroke="#000000" points="582.6296,-298.8108 591.3999,-299.0167 586.3148,-297.2554 590,-295.7 590,-295.7 590,-295.7 586.3148,-297.2554 588.6001,-292.3833 582.6296,-298.8108 582.6296,-298.8108"/>
<ellipse fill="none" stroke="#000000" cx="579.6814" cy="-300.0551" rx="3.2" ry="3.2"/>
</g>
<!-- events -->
<g id="node7" class="node">
<title>events</title>
<g id="a_node7"><a xlink:href="../../tables/events.html" xlink:title="events" target="_top">
<polygon fill="#ffffff" stroke="transparent" points="445,-350.2 445,-411.2 525,-411.2 525,-350.2 445,-350.2"/>
<polygon fill="#f5f5f5" stroke="transparent" points="445,-387.7 445,-410.7 525,-410.7 525,-387.7 445,-387.7"/>
<polygon fill="none" stroke="#000000" points="445,-387.7 445,-410.7 525,-410.7 525,-387.7 445,-387.7"/>
<text text-anchor="start" x="450" y="-396.8" font-family="Helvetica,sans-Serif" font-weight="bold" font-size="11.00" fill="#000000">events</text>
<text text-anchor="start" x="490.0437" y="-395.8" font-family="Helvetica,sans-Serif" font-size="11.00" fill="#000000">[table]</text>
<polygon fill="none" stroke="#000000" points="445,-368.7 445,-387.7 525,-387.7 525,-368.7 445,-368.7"/>
<text text-anchor="start" x="448" y="-374.8" font-family="Helvetica,sans-Serif" font-size="11.00" fill="#000000">...</text>
<polygon fill="#ffffff" stroke="transparent" points="445,-349.7 445,-368.7 466,-368.7 466,-349.7 445,-349.7"/>
<polygon fill="none" stroke="#000000" points="445,-349.7 445,-368.7 466,-368.7 466,-349.7 445,-349.7"/>
<text text-anchor="start" x="447.7027" y="-355.8" font-family="Helvetica,sans-Serif" font-size="11.00" fill="#000000">&lt; 2</text>
<polygon fill="#ffffff" stroke="transparent" points="466,-349.7 466,-368.7 504,-368.7 504,-349.7 466,-349.7"/>
<polygon fill="none" stroke="#000000" points="466,-349.7 466,-368.7 504,-368.7 504,-349.7 466,-349.7"/>
<text text-anchor="start" x="468.8053" y="-355.8" font-family="Helvetica,sans-Serif" font-size="11.00" fill="#000000">0 rows</text>
<polygon fill="#ffffff" stroke="transparent" points="504,-349.7 504,-368.7 525,-368.7 525,-349.7 504,-349.7"/>
<polygon fill="none" stroke="#000000" points="504,-349.7 504,-368.7 525,-368.7 525,-349.7 504,-349.7"/>
<text text-anchor="start" x="506.7027" y="-355.8" font-family="Helvetica,sans-Serif" font-size="11.00" fill="#000000">3 &gt;</text>
</a>
</g>
</g>
<!-- event_users&#45;&gt;events -->
<g id="edge6" class="edge">
<title>event_users:w&#45;&gt;events:e</title>
<path fill="none" stroke="#000000" d="M575.8101,-276.9266C543.681,-294.4806 573.7586,-377.7 525,-377.7"/>
<polygon fill="#000000" stroke="#000000" points="582.1991,-275.4738 590.7982,-277.2104 586.0996,-274.5869 590,-273.7 590,-273.7 590,-273.7 586.0996,-274.5869 589.2018,-270.1896 582.1991,-275.4738 582.1991,-275.4738"/>
<ellipse fill="none" stroke="#000000" cx="579.0788" cy="-276.1834" rx="3.2" ry="3.2"/>
</g>
<!-- event_roles -->
<g id="node8" class="node">
<title>event_roles</title>
<g id="a_node8"><a xlink:href="../../tables/event_roles.html" xlink:title="event_roles" target="_top">
<polygon fill="#ffffff" stroke="transparent" points="435.5,-120.2 435.5,-181.2 534.5,-181.2 534.5,-120.2 435.5,-120.2"/>
<polygon fill="#f5f5f5" stroke="transparent" points="436,-157.7 436,-180.7 535,-180.7 535,-157.7 436,-157.7"/>
<polygon fill="none" stroke="#000000" points="436,-157.7 436,-180.7 535,-180.7 535,-157.7 436,-157.7"/>
<text text-anchor="start" x="440.5755" y="-166.8" font-family="Helvetica,sans-Serif" font-weight="bold" font-size="11.00" fill="#000000">event_roles</text>
<text text-anchor="start" x="500.5219" y="-165.8" font-family="Helvetica,sans-Serif" font-size="11.00" fill="#000000">[table]</text>
<polygon fill="none" stroke="#000000" points="436,-138.7 436,-157.7 535,-157.7 535,-138.7 436,-138.7"/>
<text text-anchor="start" x="439" y="-144.8" font-family="Helvetica,sans-Serif" font-size="11.00" fill="#000000">...</text>
<polygon fill="#ffffff" stroke="transparent" points="436,-119.7 436,-138.7 465,-138.7 465,-119.7 436,-119.7"/>
<polygon fill="none" stroke="#000000" points="436,-119.7 436,-138.7 465,-138.7 465,-119.7 436,-119.7"/>
<text text-anchor="start" x="439" y="-125.8" font-family="Helvetica,sans-Serif" font-size="11.00" fill="#000000"> &#160;</text>
<polygon fill="#ffffff" stroke="transparent" points="465,-119.7 465,-138.7 505,-138.7 505,-119.7 465,-119.7"/>
<polygon fill="none" stroke="#000000" points="465,-119.7 465,-138.7 505,-138.7 505,-119.7 465,-119.7"/>
<text text-anchor="start" x="475.1105" y="-125.8" font-family="Helvetica,sans-Serif" font-size="11.00" fill="#000000">1 row</text>
<polygon fill="#ffffff" stroke="transparent" points="505,-119.7 505,-138.7 535,-138.7 535,-119.7 505,-119.7"/>
<polygon fill="none" stroke="#000000" points="505,-119.7 505,-138.7 535,-138.7 535,-119.7 505,-119.7"/>
<text text-anchor="start" x="516.4053" y="-125.8" font-family="Helvetica,sans-Serif" font-size="11.00" fill="#000000">2 &gt;</text>
</a>
</g>
</g>
<!-- event_users&#45;&gt;event_roles -->
<g id="edge7" class="edge">
<title>event_users:w&#45;&gt;event_roles:e</title>
<path fill="none" stroke="#000000" d="M575.8557,-247.9986C547.6369,-229.4721 581.3647,-147.7 535,-147.7"/>
<polygon fill="#000000" stroke="#000000" points="582.2606,-249.6746 589.0886,-255.1827 586.1303,-250.6873 590,-251.7 590,-251.7 590,-251.7 586.1303,-250.6873 590.9114,-248.2173 582.2606,-249.6746 582.2606,-249.6746"/>
<ellipse fill="none" stroke="#000000" cx="579.1649" cy="-248.8645" rx="3.2" ry="3.2"/>
</g>
<!-- rsvp -->
<g id="node9" class="node">
<title>rsvp</title>
<g id="a_node9"><a xlink:href="../../tables/rsvp.html" xlink:title="rsvp" target="_top">
<polygon fill="#ffffff" stroke="transparent" points="449.5,-38.2 449.5,-99.2 520.5,-99.2 520.5,-38.2 449.5,-38.2"/>
<polygon fill="#f5f5f5" stroke="transparent" points="450,-75.7 450,-98.7 521,-98.7 521,-75.7 450,-75.7"/>
<polygon fill="none" stroke="#000000" points="450,-75.7 450,-98.7 521,-98.7 521,-75.7 450,-75.7"/>
<text text-anchor="start" x="455" y="-84.8" font-family="Helvetica,sans-Serif" font-weight="bold" font-size="11.00" fill="#000000">rsvp</text>
<text text-anchor="start" x="486.0437" y="-83.8" font-family="Helvetica,sans-Serif" font-size="11.00" fill="#000000">[table]</text>
<polygon fill="none" stroke="#000000" points="450,-56.7 450,-75.7 521,-75.7 521,-56.7 450,-56.7"/>
<text text-anchor="start" x="453" y="-62.8" font-family="Helvetica,sans-Serif" font-size="11.00" fill="#000000">...</text>
<polygon fill="#ffffff" stroke="transparent" points="450,-37.7 450,-56.7 462,-56.7 462,-37.7 450,-37.7"/>
<polygon fill="none" stroke="#000000" points="450,-37.7 450,-56.7 462,-56.7 462,-37.7 450,-37.7"/>
<text text-anchor="start" x="452.9431" y="-43.8" font-family="Helvetica,sans-Serif" font-size="11.00" fill="#000000"> &#160;</text>
<polygon fill="#ffffff" stroke="transparent" points="462,-37.7 462,-56.7 500,-56.7 500,-37.7 462,-37.7"/>
<polygon fill="none" stroke="#000000" points="462,-37.7 462,-56.7 500,-56.7 500,-37.7 462,-37.7"/>
<text text-anchor="start" x="464.8053" y="-43.8" font-family="Helvetica,sans-Serif" font-size="11.00" fill="#000000">4 rows</text>
<polygon fill="#ffffff" stroke="transparent" points="500,-37.7 500,-56.7 521,-56.7 521,-37.7 500,-37.7"/>
<polygon fill="none" stroke="#000000" points="500,-37.7 500,-56.7 521,-56.7 521,-37.7 500,-37.7"/>
<text text-anchor="start" x="502.7027" y="-43.8" font-family="Helvetica,sans-Serif" font-size="11.00" fill="#000000">1 &gt;</text>
</a>
</g>
</g>
<!-- event_users&#45;&gt;rsvp -->
<g id="edge8" class="edge">
<title>event_users:w&#45;&gt;rsvp:e</title>
<path fill="none" stroke="#000000" d="M575.6978,-227.3816C522.6283,-207.4483 594.5173,-65.7 521,-65.7"/>
<polygon fill="#000000" stroke="#000000" points="582.1031,-228.4199 589.4239,-233.2536 586.0515,-229.0599 590,-229.7 590,-229.7 590,-229.7 586.0515,-229.0599 590.5761,-226.1464 582.1031,-228.4199 582.1031,-228.4199"/>
<ellipse fill="none" stroke="#000000" cx="578.9443" cy="-227.9078" rx="3.2" ry="3.2"/>
</g>
<!-- events&#45;&gt;chapters -->
<g id="edge10" class="edge">
<title>events:w&#45;&gt;chapters:e</title>
<path fill="none" stroke="#000000" d="M430.4429,-377.5339C385.5517,-376.4738 369.3408,-370.7 318,-370.7"/>
<polygon fill="#000000" stroke="#000000" points="437.0005,-377.6087 444.9589,-381.2998 441.0003,-377.6543 445,-377.7 445,-377.7 445,-377.7 441.0003,-377.6543 445.0411,-374.1002 437.0005,-377.6087 437.0005,-377.6087"/>
<ellipse fill="none" stroke="#000000" cx="433.8007" cy="-377.5721" rx="3.2" ry="3.2"/>
</g>
<!-- instance_role_permissions -->
<g id="node10" class="node">
<title>instance_role_permissions</title>
<g id="a_node10"><a xlink:href="../../tables/instance_role_permissions.html" xlink:title="instance_role_permissions" target="_top">
<polygon fill="#ffffff" stroke="transparent" points="188.5,-261.2 188.5,-322.2 361.5,-322.2 361.5,-261.2 188.5,-261.2"/>
<polygon fill="#f5f5f5" stroke="transparent" points="189,-298.7 189,-321.7 362,-321.7 362,-298.7 189,-298.7"/>
<polygon fill="none" stroke="#000000" points="189,-298.7 189,-321.7 362,-321.7 362,-298.7 189,-298.7"/>
<text text-anchor="start" x="193.9075" y="-307.8" font-family="Helvetica,sans-Serif" font-weight="bold" font-size="11.00" fill="#000000">instance_role_permissions</text>
<text text-anchor="start" x="327.5219" y="-306.8" font-family="Helvetica,sans-Serif" font-size="11.00" fill="#000000">[table]</text>
<polygon fill="none" stroke="#000000" points="189,-279.7 189,-298.7 362,-298.7 362,-279.7 189,-279.7"/>
<text text-anchor="start" x="192" y="-285.8" font-family="Helvetica,sans-Serif" font-size="11.00" fill="#000000">...</text>
<polygon fill="#ffffff" stroke="transparent" points="189,-260.7 189,-279.7 258,-279.7 258,-260.7 189,-260.7"/>
<polygon fill="none" stroke="#000000" points="189,-260.7 189,-279.7 258,-279.7 258,-260.7 189,-260.7"/>
<text text-anchor="start" x="192" y="-266.8" font-family="Helvetica,sans-Serif" font-size="11.00" fill="#000000">&lt; 2</text>
<polygon fill="#ffffff" stroke="transparent" points="258,-260.7 258,-279.7 326,-279.7 326,-260.7 258,-260.7"/>
<polygon fill="none" stroke="#000000" points="258,-260.7 258,-279.7 326,-279.7 326,-260.7 258,-260.7"/>
<text text-anchor="start" x="284.4956" y="-266.8" font-family="Helvetica,sans-Serif" font-size="11.00" fill="#000000">34 rows</text>
<polygon fill="#ffffff" stroke="transparent" points="326,-260.7 326,-279.7 362,-279.7 362,-260.7 326,-260.7"/>
<polygon fill="none" stroke="#000000" points="326,-260.7 326,-279.7 362,-279.7 362,-260.7 326,-260.7"/>
<text text-anchor="start" x="352.8862" y="-266.8" font-family="Helvetica,sans-Serif" font-size="11.00" fill="#000000"> &#160;</text>
</a>
</g>
</g>
<!-- instance_role_permissions&#45;&gt;instance_roles -->
<g id="edge11" class="edge">
<title>instance_role_permissions:w&#45;&gt;instance_roles:e</title>
<path fill="none" stroke="#000000" d="M174.8691,-291.7581C141.0948,-309.1379 171.6796,-394.7 121.5,-394.7"/>
<polygon fill="#000000" stroke="#000000" points="181.181,-290.3922 189.7615,-292.2186 185.0905,-289.5461 189,-288.7 189,-288.7 189,-288.7 185.0905,-289.5461 188.2385,-285.1814 181.181,-290.3922 181.181,-290.3922"/>
<ellipse fill="none" stroke="#000000" cx="178.0534" cy="-291.069" rx="3.2" ry="3.2"/>
</g>
<!-- sessions -->
<g id="node12" class="node">
<title>sessions</title>
<g id="a_node12"><a xlink:href="../../tables/sessions.html" xlink:title="sessions" target="_top">
<polygon fill="#ffffff" stroke="transparent" points="442.5,-585.7 442.5,-671.7 527.5,-671.7 527.5,-585.7 442.5,-585.7"/>
<polygon fill="#f5f5f5" stroke="transparent" points="443,-648.7 443,-671.7 528,-671.7 528,-648.7 443,-648.7"/>
<polygon fill="none" stroke="#000000" points="443,-648.7 443,-671.7 528,-671.7 528,-648.7 443,-648.7"/>
<text text-anchor="start" x="447.6072" y="-657.8" font-family="Helvetica,sans-Serif" font-weight="bold" font-size="11.00" fill="#000000">sessions</text>
<text text-anchor="start" x="493.5219" y="-656.8" font-family="Helvetica,sans-Serif" font-size="11.00" fill="#000000">[table]</text>
<polygon fill="none" stroke="#000000" points="443,-626.7 443,-648.7 528,-648.7 528,-626.7 443,-626.7"/>
<image xlink:href="../../images/primaryKeys.png" width="11px" height="12px" preserveAspectRatio="xMinYMin meet" x="448" y="-643.7"/>
<text text-anchor="start" x="471" y="-633.8" font-family="Helvetica,sans-Serif" font-size="11.00" fill="#000000">id</text>
<polygon fill="#ffffff" stroke="transparent" points="443,-604.7 443,-626.7 528,-626.7 528,-604.7 443,-604.7"/>
<polygon fill="none" stroke="#000000" points="443,-604.7 443,-626.7 528,-626.7 528,-604.7 443,-604.7"/>
<image xlink:href="../../images/foreignKeys.png" width="11px" height="12px" preserveAspectRatio="xMinYMin meet" x="448" y="-621.7"/>
<text text-anchor="start" x="471" y="-611.8" font-family="Helvetica,sans-Serif" font-size="11.00" fill="#000000">user_id</text>
<polygon fill="#ffffff" stroke="transparent" points="443,-585.7 443,-604.7 471,-604.7 471,-585.7 443,-585.7"/>
<polygon fill="none" stroke="#000000" points="443,-585.7 443,-604.7 471,-604.7 471,-585.7 443,-585.7"/>
<text text-anchor="start" x="446" y="-591.8" font-family="Helvetica,sans-Serif" font-size="11.00" fill="#000000">&lt; 1</text>
<polygon fill="#ffffff" stroke="transparent" points="471,-585.7 471,-604.7 512,-604.7 512,-585.7 471,-585.7"/>
<polygon fill="none" stroke="#000000" points="471,-585.7 471,-604.7 512,-604.7 512,-585.7 471,-585.7"/>
<text text-anchor="start" x="476.6105" y="-591.8" font-family="Helvetica,sans-Serif" font-size="11.00" fill="#000000">0 rows</text>
<polygon fill="#ffffff" stroke="transparent" points="512,-585.7 512,-604.7 528,-604.7 528,-585.7 512,-585.7"/>
<polygon fill="none" stroke="#000000" points="512,-585.7 512,-604.7 528,-604.7 528,-585.7 512,-585.7"/>
<text text-anchor="start" x="518.8862" y="-591.8" font-family="Helvetica,sans-Serif" font-size="11.00" fill="#000000"> &#160;</text>
</a>
</g>
</g>
<!-- sessions&#45;&gt;users -->
<g id="edge12" class="edge">
<title>sessions:w&#45;&gt;users:e</title>
<path fill="none" stroke="#000000" d="M432.6383,-614.103C408.0694,-605.7742 409.9842,-567.7 378,-567.7"/>
<polygon fill="#000000" stroke="#000000" points="442.8187,-611.6248 441.6,-619.5314 440.0187,-619.2877 441.2374,-611.3811 442.8187,-611.6248"/>
<polyline fill="none" stroke="#000000" points="443,-615.7 439.0467,-615.0906 "/>
<ellipse fill="none" stroke="#000000" cx="435.884" cy="-614.6032" rx="3.2" ry="3.2"/>
</g>
<!-- user_bans -->
<g id="node13" class="node">
<title>user_bans</title>
<g id="a_node13"><a xlink:href="../../tables/user_bans.html" xlink:title="user_bans" target="_top">
<polygon fill="#ffffff" stroke="transparent" points="438,-432.2 438,-537.2 532,-537.2 532,-432.2 438,-432.2"/>
<polygon fill="#f5f5f5" stroke="transparent" points="438,-513.7 438,-536.7 532,-536.7 532,-513.7 438,-513.7"/>
<polygon fill="none" stroke="#000000" points="438,-513.7 438,-536.7 532,-536.7 532,-513.7 438,-513.7"/>
<text text-anchor="start" x="442.8244" y="-522.8" font-family="Helvetica,sans-Serif" font-weight="bold" font-size="11.00" fill="#000000">user_bans</text>
<text text-anchor="start" x="497.5219" y="-521.8" font-family="Helvetica,sans-Serif" font-size="11.00" fill="#000000">[table]</text>
<polygon fill="none" stroke="#000000" points="438,-491.7 438,-513.7 532,-513.7 532,-491.7 438,-491.7"/>
<image xlink:href="../../images/primaryKeys.png" width="11px" height="12px" preserveAspectRatio="xMinYMin meet" x="443" y="-508.7"/>
<text text-anchor="start" x="461" y="-498.8" font-family="Helvetica,sans-Serif" font-size="11.00" fill="#000000">user_id</text>
<polygon fill="none" stroke="#000000" points="438,-469.7 438,-491.7 532,-491.7 532,-469.7 438,-469.7"/>
<image xlink:href="../../images/primaryKeys.png" width="11px" height="12px" preserveAspectRatio="xMinYMin meet" x="443" y="-486.7"/>
<text text-anchor="start" x="461" y="-476.8" font-family="Helvetica,sans-Serif" font-size="11.00" fill="#000000">chapter_id</text>
<polygon fill="none" stroke="#000000" points="438,-450.7 438,-469.7 532,-469.7 532,-450.7 438,-450.7"/>
<text text-anchor="start" x="441" y="-456.8" font-family="Helvetica,sans-Serif" font-size="11.00" fill="#000000">...</text>
<polygon fill="#ffffff" stroke="transparent" points="438,-431.7 438,-450.7 470,-450.7 470,-431.7 438,-431.7"/>
<polygon fill="none" stroke="#000000" points="438,-431.7 438,-450.7 470,-450.7 470,-431.7 438,-431.7"/>
<text text-anchor="start" x="441" y="-437.8" font-family="Helvetica,sans-Serif" font-size="11.00" fill="#000000">&lt; 2</text>
<polygon fill="#ffffff" stroke="transparent" points="470,-431.7 470,-450.7 514,-450.7 514,-431.7 470,-431.7"/>
<polygon fill="none" stroke="#000000" points="470,-431.7 470,-450.7 514,-450.7 514,-431.7 470,-431.7"/>
<text text-anchor="start" x="478.6105" y="-437.8" font-family="Helvetica,sans-Serif" font-size="11.00" fill="#000000">0 rows</text>
<polygon fill="#ffffff" stroke="transparent" points="514,-431.7 514,-450.7 532,-450.7 532,-431.7 514,-431.7"/>
<polygon fill="none" stroke="#000000" points="514,-431.7 514,-450.7 532,-450.7 532,-431.7 514,-431.7"/>
<text text-anchor="start" x="522.8862" y="-437.8" font-family="Helvetica,sans-Serif" font-size="11.00" fill="#000000"> &#160;</text>
</a>
</g>
</g>
<!-- user_bans&#45;&gt;chapters -->
<g id="edge13" class="edge">
<title>user_bans:w&#45;&gt;chapters:e</title>
<path fill="none" stroke="#000000" d="M423.6801,-477.6901C404.8315,-467.8861 410.4331,-436.3162 388,-415.7 360.7681,-390.6736 354.9851,-370.7 318,-370.7"/>
<polygon fill="#000000" stroke="#000000" points="430.1711,-479.0544 437.2595,-484.223 434.0855,-479.8772 438,-480.7 438,-480.7 438,-480.7 434.0855,-479.8772 438.7405,-477.177 430.1711,-479.0544 430.1711,-479.0544"/>
<ellipse fill="none" stroke="#000000" cx="427.0395" cy="-478.3962" rx="3.2" ry="3.2"/>
</g>
<!-- user_bans&#45;&gt;users -->
<g id="edge14" class="edge">
<title>user_bans:w&#45;&gt;users:e</title>
<path fill="none" stroke="#000000" d="M423.9437,-506.5714C402.939,-520.5647 411.4793,-567.7 378,-567.7"/>
<polygon fill="#000000" stroke="#000000" points="430.2872,-504.8243 438.9559,-506.1708 434.1436,-503.7622 438,-502.7 438,-502.7 438,-502.7 434.1436,-503.7622 437.0441,-499.2292 430.2872,-504.8243 430.2872,-504.8243"/>
<ellipse fill="none" stroke="#000000" cx="427.2021" cy="-505.674" rx="3.2" ry="3.2"/>
</g>
</g>
</svg>
