<?xml version="1.0" encoding="UTF-8" standalone="no"?>
<!DOCTYPE svg PUBLIC "-//W3C//DTD SVG 1.1//EN"
 "http://www.w3.org/Graphics/SVG/1.1/DTD/svg11.dtd">
<!-- Generated by graphviz version 2.40.1 (20161225.0304)
 -->
<!-- Title: oneDegreeRelationshipsDiagram Pages: 1 -->
<svg width="569pt" height="738pt"
 viewBox="0.00 0.00 569.00 737.53" xmlns="http://www.w3.org/2000/svg" xmlns:xlink="http://www.w3.org/1999/xlink">
<g id="graph0" class="graph" transform="scale(1 1) rotate(0) translate(4 733.5345)">
<title>oneDegreeRelationshipsDiagram</title>
<polygon fill="#ffffff" stroke="transparent" points="-4,4 -4,-733.5345 565,-733.5345 565,4 -4,4"/>
<text text-anchor="middle" x="72.4936" y="-7.3" font-family="Helvetica,sans-Serif" font-size="11.00" fill="#000000">Generated by SchemaSpy</text>
<!-- event_reminders -->
<g id="node1" class="node">
<title>event_reminders</title>
<g id="a_node1"><a xlink:href="../../tables/event_reminders.html" xlink:title="event_reminders" target="_top">
<polygon fill="#ffffff" stroke="transparent" points="429,-586.2 429,-691.2 553,-691.2 553,-586.2 429,-586.2"/>
<polygon fill="#f5f5f5" stroke="transparent" points="429,-667.7 429,-690.7 553,-690.7 553,-667.7 429,-667.7"/>
<polygon fill="none" stroke="#000000" points="429,-667.7 429,-690.7 553,-690.7 553,-667.7 429,-667.7"/>
<text text-anchor="start" x="433.5487" y="-676.8" font-family="Helvetica,sans-Serif" font-weight="bold" font-size="11.00" fill="#000000">event_reminders</text>
<text text-anchor="start" x="518.5219" y="-675.8" font-family="Helvetica,sans-Serif" font-size="11.00" fill="#000000">[table]</text>
<polygon fill="none" stroke="#000000" points="429,-645.7 429,-667.7 553,-667.7 553,-645.7 429,-645.7"/>
<image xlink:href="../../images/primaryKeys.png" width="11px" height="12px" preserveAspectRatio="xMinYMin meet" x="434" y="-662.7"/>
<text text-anchor="start" x="450" y="-652.8" font-family="Helvetica,sans-Serif" font-size="11.00" fill="#000000">user_id</text>
<polygon fill="none" stroke="#000000" points="429,-623.7 429,-645.7 553,-645.7 553,-623.7 429,-623.7"/>
<image xlink:href="../../images/primaryKeys.png" width="11px" height="12px" preserveAspectRatio="xMinYMin meet" x="434" y="-640.7"/>
<text text-anchor="start" x="450" y="-630.8" font-family="Helvetica,sans-Serif" font-size="11.00" fill="#000000">event_id</text>
<polygon fill="none" stroke="#000000" points="429,-604.7 429,-623.7 553,-623.7 553,-604.7 429,-604.7"/>
<text text-anchor="start" x="432" y="-610.8" font-family="Helvetica,sans-Serif" font-size="11.00" fill="#000000">...</text>
<polygon fill="#ffffff" stroke="transparent" points="429,-585.7 429,-604.7 476,-604.7 476,-585.7 429,-585.7"/>
<polygon fill="none" stroke="#000000" points="429,-585.7 429,-604.7 476,-604.7 476,-585.7 429,-585.7"/>
<text text-anchor="start" x="432" y="-591.8" font-family="Helvetica,sans-Serif" font-size="11.00" fill="#000000">&lt; 4</text>
<polygon fill="#ffffff" stroke="transparent" points="476,-585.7 476,-604.7 527,-604.7 527,-585.7 476,-585.7"/>
<polygon fill="none" stroke="#000000" points="476,-585.7 476,-604.7 527,-604.7 527,-585.7 476,-585.7"/>
<text text-anchor="start" x="491.6105" y="-591.8" font-family="Helvetica,sans-Serif" font-size="11.00" fill="#000000">0 rows</text>
<polygon fill="#ffffff" stroke="transparent" points="527,-585.7 527,-604.7 553,-604.7 553,-585.7 527,-585.7"/>
<polygon fill="none" stroke="#000000" points="527,-585.7 527,-604.7 553,-604.7 553,-585.7 527,-585.7"/>
<text text-anchor="start" x="543.8862" y="-591.8" font-family="Helvetica,sans-Serif" font-size="11.00" fill="#000000"> &#160;</text>
</a>
</g>
</g>
<!-- rsvps -->
<g id="node2" class="node">
<title>rsvps</title>
<g id="a_node2"><a xlink:href="../../tables/rsvps.html" xlink:title="rsvps" target="_top">
<polygon fill="#ffffff" stroke="transparent" points="259.5,-586.2 259.5,-691.2 359.5,-691.2 359.5,-586.2 259.5,-586.2"/>
<polygon fill="#f5f5f5" stroke="transparent" points="259.5,-667.7 259.5,-690.7 359.5,-690.7 359.5,-667.7 259.5,-667.7"/>
<polygon fill="none" stroke="#000000" points="259.5,-667.7 259.5,-690.7 359.5,-690.7 359.5,-667.7 259.5,-667.7"/>
<text text-anchor="start" x="264.5" y="-676.8" font-family="Helvetica,sans-Serif" font-weight="bold" font-size="11.00" fill="#000000">rsvps</text>
<text text-anchor="start" x="324.5437" y="-675.8" font-family="Helvetica,sans-Serif" font-size="11.00" fill="#000000">[table]</text>
<polygon fill="none" stroke="#000000" points="259.5,-645.7 259.5,-667.7 359.5,-667.7 359.5,-645.7 259.5,-645.7"/>
<image xlink:href="../../images/primaryKeys.png" width="11px" height="12px" preserveAspectRatio="xMinYMin meet" x="264.5" y="-662.7"/>
<text text-anchor="start" x="279.5" y="-652.8" font-family="Helvetica,sans-Serif" font-size="11.00" fill="#000000">user_id</text>
<polygon fill="none" stroke="#000000" points="259.5,-623.7 259.5,-645.7 359.5,-645.7 359.5,-623.7 259.5,-623.7"/>
<image xlink:href="../../images/primaryKeys.png" width="11px" height="12px" preserveAspectRatio="xMinYMin meet" x="264.5" y="-640.7"/>
<text text-anchor="start" x="279.5" y="-630.8" font-family="Helvetica,sans-Serif" font-size="11.00" fill="#000000">event_id</text>
<polygon fill="none" stroke="#000000" points="259.5,-604.7 259.5,-623.7 359.5,-623.7 359.5,-604.7 259.5,-604.7"/>
<text text-anchor="start" x="262.5" y="-610.8" font-family="Helvetica,sans-Serif" font-size="11.00" fill="#000000">...</text>
<polygon fill="#ffffff" stroke="transparent" points="259.5,-585.7 259.5,-604.7 290.5,-604.7 290.5,-585.7 259.5,-585.7"/>
<polygon fill="none" stroke="#000000" points="259.5,-585.7 259.5,-604.7 290.5,-604.7 290.5,-585.7 259.5,-585.7"/>
<text text-anchor="start" x="262.5" y="-591.8" font-family="Helvetica,sans-Serif" font-size="11.00" fill="#000000">&lt; 2</text>
<polygon fill="#ffffff" stroke="transparent" points="290.5,-585.7 290.5,-604.7 333.5,-604.7 333.5,-585.7 290.5,-585.7"/>
<polygon fill="none" stroke="#000000" points="290.5,-585.7 290.5,-604.7 333.5,-604.7 333.5,-585.7 290.5,-585.7"/>
<text text-anchor="start" x="298.1105" y="-591.8" font-family="Helvetica,sans-Serif" font-size="11.00" fill="#000000">0 rows</text>
<polygon fill="#ffffff" stroke="transparent" points="333.5,-585.7 333.5,-604.7 359.5,-604.7 359.5,-585.7 333.5,-585.7"/>
<polygon fill="none" stroke="#000000" points="333.5,-585.7 333.5,-604.7 359.5,-604.7 359.5,-585.7 333.5,-585.7"/>
<text text-anchor="start" x="340.9053" y="-591.8" font-family="Helvetica,sans-Serif" font-size="11.00" fill="#000000">2 &gt;</text>
</a>
</g>
</g>
<!-- event_reminders&#45;&gt;rsvps -->
<g id="edge1" class="edge">
<title>event_reminders:w&#45;&gt;rsvps:e</title>
<path fill="none" stroke="#000000" d="M414.3241,-634.7C394.5879,-634.7 384.8385,-634.7 359.5,-634.7"/>
<polygon fill="#000000" stroke="#000000" points="421,-634.7001 429,-638.3 425,-634.7 429,-634.7 429,-634.7 429,-634.7 425,-634.7 429,-631.1 421,-634.7001 421,-634.7001"/>
<ellipse fill="none" stroke="#000000" cx="417.8" cy="-634.7001" rx="3.2" ry="3.2"/>
</g>
<!-- event_reminders&#45;&gt;rsvps -->
<g id="edge2" class="edge">
<title>event_reminders:w&#45;&gt;rsvps:e</title>
<path fill="none" stroke="#000000" d="M414.3241,-656.7C394.5879,-656.7 384.8385,-656.7 359.5,-656.7"/>
<polygon fill="#000000" stroke="#000000" points="421,-656.7001 429,-660.3 425,-656.7 429,-656.7 429,-656.7 429,-656.7 425,-656.7 429,-653.1 421,-656.7001 421,-656.7001"/>
<ellipse fill="none" stroke="#000000" cx="417.8" cy="-656.7001" rx="3.2" ry="3.2"/>
</g>
<!-- users -->
<g id="node3" class="node">
<title>users</title>
<g id="a_node3"><a xlink:href="../../tables/users.html" xlink:title="users" target="_top">
<polygon fill="#ffffff" stroke="transparent" points="8,-369.7 8,-547.7 190,-547.7 190,-369.7 8,-369.7"/>
<polygon fill="#f5f5f5" stroke="transparent" points="10,-522.7 10,-545.7 188,-545.7 188,-522.7 10,-522.7"/>
<polygon fill="none" stroke="#000000" points="10,-522.7 10,-545.7 188,-545.7 188,-522.7 10,-522.7"/>
<text text-anchor="start" x="15" y="-531.8" font-family="Helvetica,sans-Serif" font-weight="bold" font-size="11.00" fill="#000000">users</text>
<text text-anchor="start" x="153.0437" y="-530.8" font-family="Helvetica,sans-Serif" font-size="11.00" fill="#000000">[table]</text>
<polygon fill="none" stroke="#000000" points="10,-500.7 10,-522.7 98,-522.7 98,-500.7 10,-500.7"/>
<text text-anchor="start" x="30" y="-507.8" font-family="Helvetica,sans-Serif" font-size="11.00" fill="#000000">created_at</text>
<polygon fill="none" stroke="#000000" points="98,-500.7 98,-522.7 188,-522.7 188,-500.7 98,-500.7"/>
<text text-anchor="start" x="101" y="-508.4" font-family="Helvetica,sans-Serif" font-size="11.00" fill="#000000">timestamp[26,3]</text>
<polygon fill="none" stroke="#000000" points="10,-478.7 10,-500.7 98,-500.7 98,-478.7 10,-478.7"/>
<text text-anchor="start" x="30" y="-485.8" font-family="Helvetica,sans-Serif" font-size="11.00" fill="#000000">updated_at</text>
<polygon fill="none" stroke="#000000" points="98,-478.7 98,-500.7 188,-500.7 188,-478.7 98,-478.7"/>
<text text-anchor="start" x="101" y="-486.4" font-family="Helvetica,sans-Serif" font-size="11.00" fill="#000000">timestamp[26,3]</text>
<polygon fill="none" stroke="#000000" points="10,-456.7 10,-478.7 98,-478.7 98,-456.7 10,-456.7"/>
<image xlink:href="../../images/primaryKeys.png" width="11px" height="12px" preserveAspectRatio="xMinYMin meet" x="15" y="-473.7"/>
<text text-anchor="start" x="30" y="-463.8" font-family="Helvetica,sans-Serif" font-size="11.00" fill="#000000">id</text>
<polygon fill="none" stroke="#000000" points="98,-456.7 98,-478.7 188,-478.7 188,-456.7 98,-456.7"/>
<text text-anchor="start" x="101" y="-464.4" font-family="Helvetica,sans-Serif" font-size="11.00" fill="#000000">serial[10]</text>
<polygon fill="none" stroke="#000000" points="10,-434.7 10,-456.7 98,-456.7 98,-434.7 10,-434.7"/>
<text text-anchor="start" x="30" y="-441.8" font-family="Helvetica,sans-Serif" font-size="11.00" fill="#000000">first_name</text>
<polygon fill="none" stroke="#000000" points="98,-434.7 98,-456.7 188,-456.7 188,-434.7 98,-434.7"/>
<text text-anchor="start" x="100.5042" y="-442.4" font-family="Helvetica,sans-Serif" font-size="11.00" fill="#000000">text[2147483647]</text>
<polygon fill="none" stroke="#000000" points="10,-412.7 10,-434.7 98,-434.7 98,-412.7 10,-412.7"/>
<text text-anchor="start" x="30" y="-419.8" font-family="Helvetica,sans-Serif" font-size="11.00" fill="#000000">last_name</text>
<polygon fill="none" stroke="#000000" points="98,-412.7 98,-434.7 188,-434.7 188,-412.7 98,-412.7"/>
<text text-anchor="start" x="100.5042" y="-420.4" font-family="Helvetica,sans-Serif" font-size="11.00" fill="#000000">text[2147483647]</text>
<polygon fill="#ffffff" stroke="transparent" points="10,-390.7 10,-412.7 98,-412.7 98,-390.7 10,-390.7"/>
<polygon fill="none" stroke="#000000" points="10,-390.7 10,-412.7 98,-412.7 98,-390.7 10,-390.7"/>
<text text-anchor="start" x="30" y="-397.8" font-family="Helvetica,sans-Serif" font-size="11.00" fill="#000000">email</text>
<polygon fill="none" stroke="#000000" points="98,-390.7 98,-412.7 188,-412.7 188,-390.7 98,-390.7"/>
<text text-anchor="start" x="100.5042" y="-398.4" font-family="Helvetica,sans-Serif" font-size="11.00" fill="#000000">text[2147483647]</text>
<polygon fill="#ffffff" stroke="transparent" points="10,-371.7 10,-390.7 45,-390.7 45,-371.7 10,-371.7"/>
<polygon fill="none" stroke="#000000" points="10,-371.7 10,-390.7 45,-390.7 45,-371.7 10,-371.7"/>
<text text-anchor="start" x="13" y="-377.8" font-family="Helvetica,sans-Serif" font-size="11.00" fill="#000000">&lt; 0</text>
<polygon fill="#ffffff" stroke="transparent" points="45,-371.7 45,-390.7 98,-390.7 98,-371.7 45,-371.7"/>
<polygon fill="none" stroke="#000000" points="45,-371.7 45,-390.7 98,-390.7 98,-371.7 45,-371.7"/>
<text text-anchor="start" x="62.6105" y="-377.8" font-family="Helvetica,sans-Serif" font-size="11.00" fill="#000000">0 rows</text>
<polygon fill="#ffffff" stroke="transparent" points="98,-371.7 98,-390.7 188,-390.7 188,-371.7 98,-371.7"/>
<polygon fill="none" stroke="#000000" points="98,-371.7 98,-390.7 188,-390.7 188,-371.7 98,-371.7"/>
<text text-anchor="start" x="169.4053" y="-377.8" font-family="Helvetica,sans-Serif" font-size="11.00" fill="#000000">6 &gt;</text>
<polygon fill="none" stroke="#000000" stroke-width="2" points="9,-370.7 9,-546.7 189,-546.7 189,-370.7 9,-370.7"/>
</a>
</g>
</g>
<!-- event_reminders&#45;&gt;users -->
<g id="edge3" class="edge">
<title>event_reminders:w&#45;&gt;users:e</title>
<path fill="none" stroke="#000000" d="M415.2703,-661.5777C405.0557,-671.3984 406.9488,-693.3301 388,-701.7 324.1716,-729.8936 284.614,-746.3596 231,-701.7 149.7532,-634.0228 293.7414,-467.7 188,-467.7"/>
<polygon fill="#000000" stroke="#000000" points="421.4616,-659.3782 430.2052,-660.0923 425.2308,-658.0391 429,-656.7 429,-656.7 429,-656.7 425.2308,-658.0391 427.7948,-653.3077 421.4616,-659.3782 421.4616,-659.3782"/>
<ellipse fill="none" stroke="#000000" cx="418.4462" cy="-660.4495" rx="3.2" ry="3.2"/>
</g>
<!-- rsvps&#45;&gt;users -->
<g id="edge4" class="edge">
<title>rsvps:w&#45;&gt;users:e</title>
<path fill="none" stroke="#000000" d="M244.8835,-654.5774C182.4319,-633.8133 272.1968,-467.7 188,-467.7"/>
<polygon fill="#000000" stroke="#000000" points="251.583,-655.5503 258.9826,-660.2626 255.5415,-656.1251 259.5,-656.7 259.5,-656.7 259.5,-656.7 255.5415,-656.1251 260.0174,-653.1374 251.583,-655.5503 251.583,-655.5503"/>
<ellipse fill="none" stroke="#000000" cx="248.4163" cy="-655.0904" rx="3.2" ry="3.2"/>
</g>
<!-- user_bans -->
<g id="node4" class="node">
<title>user_bans</title>
<g id="a_node4"><a xlink:href="../../tables/user_bans.html" xlink:title="user_bans" target="_top">
<polygon fill="#ffffff" stroke="transparent" points="262.5,-460.2 262.5,-565.2 356.5,-565.2 356.5,-460.2 262.5,-460.2"/>
<polygon fill="#f5f5f5" stroke="transparent" points="262.5,-541.7 262.5,-564.7 356.5,-564.7 356.5,-541.7 262.5,-541.7"/>
<polygon fill="none" stroke="#000000" points="262.5,-541.7 262.5,-564.7 356.5,-564.7 356.5,-541.7 262.5,-541.7"/>
<text text-anchor="start" x="267.3244" y="-550.8" font-family="Helvetica,sans-Serif" font-weight="bold" font-size="11.00" fill="#000000">user_bans</text>
<text text-anchor="start" x="322.0219" y="-549.8" font-family="Helvetica,sans-Serif" font-size="11.00" fill="#000000">[table]</text>
<polygon fill="none" stroke="#000000" points="262.5,-519.7 262.5,-541.7 356.5,-541.7 356.5,-519.7 262.5,-519.7"/>
<image xlink:href="../../images/primaryKeys.png" width="11px" height="12px" preserveAspectRatio="xMinYMin meet" x="267.5" y="-536.7"/>
<text text-anchor="start" x="285.5" y="-526.8" font-family="Helvetica,sans-Serif" font-size="11.00" fill="#000000">user_id</text>
<polygon fill="none" stroke="#000000" points="262.5,-497.7 262.5,-519.7 356.5,-519.7 356.5,-497.7 262.5,-497.7"/>
<image xlink:href="../../images/primaryKeys.png" width="11px" height="12px" preserveAspectRatio="xMinYMin meet" x="267.5" y="-514.7"/>
<text text-anchor="start" x="285.5" y="-504.8" font-family="Helvetica,sans-Serif" font-size="11.00" fill="#000000">chapter_id</text>
<polygon fill="none" stroke="#000000" points="262.5,-478.7 262.5,-497.7 356.5,-497.7 356.5,-478.7 262.5,-478.7"/>
<text text-anchor="start" x="265.5" y="-484.8" font-family="Helvetica,sans-Serif" font-size="11.00" fill="#000000">...</text>
<polygon fill="#ffffff" stroke="transparent" points="262.5,-459.7 262.5,-478.7 294.5,-478.7 294.5,-459.7 262.5,-459.7"/>
<polygon fill="none" stroke="#000000" points="262.5,-459.7 262.5,-478.7 294.5,-478.7 294.5,-459.7 262.5,-459.7"/>
<text text-anchor="start" x="265.5" y="-465.8" font-family="Helvetica,sans-Serif" font-size="11.00" fill="#000000">&lt; 2</text>
<polygon fill="#ffffff" stroke="transparent" points="294.5,-459.7 294.5,-478.7 338.5,-478.7 338.5,-459.7 294.5,-459.7"/>
<polygon fill="none" stroke="#000000" points="294.5,-459.7 294.5,-478.7 338.5,-478.7 338.5,-459.7 294.5,-459.7"/>
<text text-anchor="start" x="303.1105" y="-465.8" font-family="Helvetica,sans-Serif" font-size="11.00" fill="#000000">0 rows</text>
<polygon fill="#ffffff" stroke="transparent" points="338.5,-459.7 338.5,-478.7 356.5,-478.7 356.5,-459.7 338.5,-459.7"/>
<polygon fill="none" stroke="#000000" points="338.5,-459.7 338.5,-478.7 356.5,-478.7 356.5,-459.7 338.5,-459.7"/>
<text text-anchor="start" x="347.3862" y="-465.8" font-family="Helvetica,sans-Serif" font-size="11.00" fill="#000000"> &#160;</text>
</a>
</g>
</g>
<!-- user_bans&#45;&gt;users -->
<g id="edge5" class="edge">
<title>user_bans:w&#45;&gt;users:e</title>
<path fill="none" stroke="#000000" d="M248.2637,-527.8293C221.3653,-515.5047 225.7732,-467.7 188,-467.7"/>
<polygon fill="#000000" stroke="#000000" points="254.6578,-529.1186 261.7884,-534.229 258.5789,-529.9093 262.5,-530.7 262.5,-530.7 262.5,-530.7 258.5789,-529.9093 263.2116,-527.171 254.6578,-529.1186 254.6578,-529.1186"/>
<ellipse fill="none" stroke="#000000" cx="251.521" cy="-528.4861" rx="3.2" ry="3.2"/>
</g>
<!-- user_chapter_roles -->
<g id="node5" class="node">
<title>user_chapter_roles</title>
<g id="a_node5"><a xlink:href="../../tables/user_chapter_roles.html" xlink:title="user_chapter_roles" target="_top">
<polygon fill="#ffffff" stroke="transparent" points="241,-312.2 241,-439.2 378,-439.2 378,-312.2 241,-312.2"/>
<polygon fill="#f5f5f5" stroke="transparent" points="241.5,-415.7 241.5,-438.7 378.5,-438.7 378.5,-415.7 241.5,-415.7"/>
<polygon fill="none" stroke="#000000" points="241.5,-415.7 241.5,-438.7 378.5,-438.7 378.5,-415.7 241.5,-415.7"/>
<text text-anchor="start" x="246.4338" y="-424.8" font-family="Helvetica,sans-Serif" font-weight="bold" font-size="11.00" fill="#000000">user_chapter_roles</text>
<text text-anchor="start" x="344.0219" y="-423.8" font-family="Helvetica,sans-Serif" font-size="11.00" fill="#000000">[table]</text>
<polygon fill="none" stroke="#000000" points="241.5,-393.7 241.5,-415.7 378.5,-415.7 378.5,-393.7 241.5,-393.7"/>
<image xlink:href="../../images/primaryKeys.png" width="11px" height="12px" preserveAspectRatio="xMinYMin meet" x="246.5" y="-410.7"/>
<text text-anchor="start" x="263.5" y="-400.8" font-family="Helvetica,sans-Serif" font-size="11.00" fill="#000000">user_id</text>
<polygon fill="none" stroke="#000000" points="241.5,-371.7 241.5,-393.7 378.5,-393.7 378.5,-371.7 241.5,-371.7"/>
<image xlink:href="../../images/primaryKeys.png" width="11px" height="12px" preserveAspectRatio="xMinYMin meet" x="246.5" y="-388.7"/>
<text text-anchor="start" x="263.5" y="-378.8" font-family="Helvetica,sans-Serif" font-size="11.00" fill="#000000">chapter_id</text>
<polygon fill="none" stroke="#000000" points="241.5,-349.7 241.5,-371.7 378.5,-371.7 378.5,-349.7 241.5,-349.7"/>
<image xlink:href="../../images/primaryKeys.png" width="11px" height="12px" preserveAspectRatio="xMinYMin meet" x="246.5" y="-366.7"/>
<text text-anchor="start" x="263.5" y="-356.8" font-family="Helvetica,sans-Serif" font-size="11.00" fill="#000000">role_name</text>
<polygon fill="none" stroke="#000000" points="241.5,-330.7 241.5,-349.7 378.5,-349.7 378.5,-330.7 241.5,-330.7"/>
<text text-anchor="start" x="244.5" y="-336.8" font-family="Helvetica,sans-Serif" font-size="11.00" fill="#000000">...</text>
<polygon fill="#ffffff" stroke="transparent" points="241.5,-311.7 241.5,-330.7 295.5,-330.7 295.5,-311.7 241.5,-311.7"/>
<polygon fill="none" stroke="#000000" points="241.5,-311.7 241.5,-330.7 295.5,-330.7 295.5,-311.7 241.5,-311.7"/>
<text text-anchor="start" x="244.5" y="-317.8" font-family="Helvetica,sans-Serif" font-size="11.00" fill="#000000">&lt; 2</text>
<polygon fill="#ffffff" stroke="transparent" points="295.5,-311.7 295.5,-330.7 349.5,-330.7 349.5,-311.7 295.5,-311.7"/>
<polygon fill="none" stroke="#000000" points="295.5,-311.7 295.5,-330.7 349.5,-330.7 349.5,-311.7 295.5,-311.7"/>
<text text-anchor="start" x="314.1105" y="-317.8" font-family="Helvetica,sans-Serif" font-size="11.00" fill="#000000">0 rows</text>
<polygon fill="#ffffff" stroke="transparent" points="349.5,-311.7 349.5,-330.7 378.5,-330.7 378.5,-311.7 349.5,-311.7"/>
<polygon fill="none" stroke="#000000" points="349.5,-311.7 349.5,-330.7 378.5,-330.7 378.5,-311.7 349.5,-311.7"/>
<text text-anchor="start" x="369.3862" y="-317.8" font-family="Helvetica,sans-Serif" font-size="11.00" fill="#000000"> &#160;</text>
</a>
</g>
</g>
<!-- user_chapter_roles&#45;&gt;users -->
<g id="edge6" class="edge">
<title>user_chapter_roles:w&#45;&gt;users:e</title>
<path fill="none" stroke="#000000" d="M227.4979,-409.2308C209.7918,-423.6761 218.7073,-467.7 188,-467.7"/>
<polygon fill="#000000" stroke="#000000" points="233.8886,-407.1629 242.6083,-408.1252 237.6943,-405.9315 241.5,-404.7 241.5,-404.7 241.5,-404.7 237.6943,-405.9315 240.3917,-401.2748 233.8886,-407.1629 233.8886,-407.1629"/>
<ellipse fill="none" stroke="#000000" cx="230.844" cy="-408.1481" rx="3.2" ry="3.2"/>
</g>
<!-- user_event_roles -->
<g id="node6" class="node">
<title>user_event_roles</title>
<g id="a_node6"><a xlink:href="../../tables/user_event_roles.html" xlink:title="user_event_roles" target="_top">
<polygon fill="#ffffff" stroke="transparent" points="246,-164.2 246,-291.2 373,-291.2 373,-164.2 246,-164.2"/>
<polygon fill="#f5f5f5" stroke="transparent" points="246.5,-267.7 246.5,-290.7 373.5,-290.7 373.5,-267.7 246.5,-267.7"/>
<polygon fill="none" stroke="#000000" points="246.5,-267.7 246.5,-290.7 373.5,-290.7 373.5,-267.7 246.5,-267.7"/>
<text text-anchor="start" x="251.3222" y="-276.8" font-family="Helvetica,sans-Serif" font-weight="bold" font-size="11.00" fill="#000000">user_event_roles</text>
<text text-anchor="start" x="339.0219" y="-275.8" font-family="Helvetica,sans-Serif" font-size="11.00" fill="#000000">[table]</text>
<polygon fill="none" stroke="#000000" points="246.5,-245.7 246.5,-267.7 373.5,-267.7 373.5,-245.7 246.5,-245.7"/>
<image xlink:href="../../images/primaryKeys.png" width="11px" height="12px" preserveAspectRatio="xMinYMin meet" x="251.5" y="-262.7"/>
<text text-anchor="start" x="270.5" y="-252.8" font-family="Helvetica,sans-Serif" font-size="11.00" fill="#000000">user_id</text>
<polygon fill="none" stroke="#000000" points="246.5,-223.7 246.5,-245.7 373.5,-245.7 373.5,-223.7 246.5,-223.7"/>
<image xlink:href="../../images/primaryKeys.png" width="11px" height="12px" preserveAspectRatio="xMinYMin meet" x="251.5" y="-240.7"/>
<text text-anchor="start" x="270.5" y="-230.8" font-family="Helvetica,sans-Serif" font-size="11.00" fill="#000000">event_id</text>
<polygon fill="none" stroke="#000000" points="246.5,-201.7 246.5,-223.7 373.5,-223.7 373.5,-201.7 246.5,-201.7"/>
<image xlink:href="../../images/primaryKeys.png" width="11px" height="12px" preserveAspectRatio="xMinYMin meet" x="251.5" y="-218.7"/>
<text text-anchor="start" x="270.5" y="-208.8" font-family="Helvetica,sans-Serif" font-size="11.00" fill="#000000">role_name</text>
<polygon fill="none" stroke="#000000" points="246.5,-182.7 246.5,-201.7 373.5,-201.7 373.5,-182.7 246.5,-182.7"/>
<text text-anchor="start" x="249.5" y="-188.8" font-family="Helvetica,sans-Serif" font-size="11.00" fill="#000000">...</text>
<polygon fill="#ffffff" stroke="transparent" points="246.5,-163.7 246.5,-182.7 295.5,-182.7 295.5,-163.7 246.5,-163.7"/>
<polygon fill="none" stroke="#000000" points="246.5,-163.7 246.5,-182.7 295.5,-182.7 295.5,-163.7 246.5,-163.7"/>
<text text-anchor="start" x="249.5" y="-169.8" font-family="Helvetica,sans-Serif" font-size="11.00" fill="#000000">&lt; 2</text>
<polygon fill="#ffffff" stroke="transparent" points="295.5,-163.7 295.5,-182.7 347.5,-182.7 347.5,-163.7 295.5,-163.7"/>
<polygon fill="none" stroke="#000000" points="295.5,-163.7 295.5,-182.7 347.5,-182.7 347.5,-163.7 295.5,-163.7"/>
<text text-anchor="start" x="312.1105" y="-169.8" font-family="Helvetica,sans-Serif" font-size="11.00" fill="#000000">0 rows</text>
<polygon fill="#ffffff" stroke="transparent" points="347.5,-163.7 347.5,-182.7 373.5,-182.7 373.5,-163.7 347.5,-163.7"/>
<polygon fill="none" stroke="#000000" points="347.5,-163.7 347.5,-182.7 373.5,-182.7 373.5,-163.7 347.5,-163.7"/>
<text text-anchor="start" x="364.3862" y="-169.8" font-family="Helvetica,sans-Serif" font-size="11.00" fill="#000000"> &#160;</text>
</a>
</g>
</g>
<!-- user_event_roles&#45;&gt;users -->
<g id="edge7" class="edge">
<title>user_event_roles:w&#45;&gt;users:e</title>
<path fill="none" stroke="#000000" d="M232.126,-258.6541C163.8568,-279.9254 279.8033,-467.7 188,-467.7"/>
<polygon fill="#000000" stroke="#000000" points="238.5729,-257.7777 246.985,-260.2672 242.5365,-257.2388 246.5,-256.7 246.5,-256.7 246.5,-256.7 242.5365,-257.2388 246.015,-253.1328 238.5729,-257.7777 238.5729,-257.7777"/>
<ellipse fill="none" stroke="#000000" cx="235.4021" cy="-258.2088" rx="3.2" ry="3.2"/>
</g>
<!-- user_instance_roles -->
<g id="node7" class="node">
<title>user_instance_roles</title>
<g id="a_node7"><a xlink:href="../../tables/user_instance_roles.html" xlink:title="user_instance_roles" target="_top">
<polygon fill="#ffffff" stroke="transparent" points="239,-38.2 239,-143.2 380,-143.2 380,-38.2 239,-38.2"/>
<polygon fill="#f5f5f5" stroke="transparent" points="239.5,-119.7 239.5,-142.7 380.5,-142.7 380.5,-119.7 239.5,-119.7"/>
<polygon fill="none" stroke="#000000" points="239.5,-119.7 239.5,-142.7 380.5,-142.7 380.5,-119.7 239.5,-119.7"/>
<text text-anchor="start" x="244.2943" y="-128.8" font-family="Helvetica,sans-Serif" font-weight="bold" font-size="11.00" fill="#000000">user_instance_roles</text>
<text text-anchor="start" x="346.0219" y="-127.8" font-family="Helvetica,sans-Serif" font-size="11.00" fill="#000000">[table]</text>
<polygon fill="none" stroke="#000000" points="239.5,-97.7 239.5,-119.7 380.5,-119.7 380.5,-97.7 239.5,-97.7"/>
<image xlink:href="../../images/primaryKeys.png" width="11px" height="12px" preserveAspectRatio="xMinYMin meet" x="244.5" y="-114.7"/>
<text text-anchor="start" x="261.5" y="-104.8" font-family="Helvetica,sans-Serif" font-size="11.00" fill="#000000">user_id</text>
<polygon fill="none" stroke="#000000" points="239.5,-75.7 239.5,-97.7 380.5,-97.7 380.5,-75.7 239.5,-75.7"/>
<image xlink:href="../../images/primaryKeys.png" width="11px" height="12px" preserveAspectRatio="xMinYMin meet" x="244.5" y="-92.7"/>
<text text-anchor="start" x="261.5" y="-82.8" font-family="Helvetica,sans-Serif" font-size="11.00" fill="#000000">role_name</text>
<polygon fill="none" stroke="#000000" points="239.5,-56.7 239.5,-75.7 380.5,-75.7 380.5,-56.7 239.5,-56.7"/>
<text text-anchor="start" x="242.5" y="-62.8" font-family="Helvetica,sans-Serif" font-size="11.00" fill="#000000">...</text>
<polygon fill="#ffffff" stroke="transparent" points="239.5,-37.7 239.5,-56.7 295.5,-56.7 295.5,-37.7 239.5,-37.7"/>
<polygon fill="none" stroke="#000000" points="239.5,-37.7 239.5,-56.7 295.5,-56.7 295.5,-37.7 239.5,-37.7"/>
<text text-anchor="start" x="242.5" y="-43.8" font-family="Helvetica,sans-Serif" font-size="11.00" fill="#000000">&lt; 1</text>
<polygon fill="#ffffff" stroke="transparent" points="295.5,-37.7 295.5,-56.7 350.5,-56.7 350.5,-37.7 295.5,-37.7"/>
<polygon fill="none" stroke="#000000" points="295.5,-37.7 295.5,-56.7 350.5,-56.7 350.5,-37.7 295.5,-37.7"/>
<text text-anchor="start" x="315.1105" y="-43.8" font-family="Helvetica,sans-Serif" font-size="11.00" fill="#000000">0 rows</text>
<polygon fill="#ffffff" stroke="transparent" points="350.5,-37.7 350.5,-56.7 380.5,-56.7 380.5,-37.7 350.5,-37.7"/>
<polygon fill="none" stroke="#000000" points="350.5,-37.7 350.5,-56.7 380.5,-56.7 380.5,-37.7 350.5,-37.7"/>
<text text-anchor="start" x="371.3862" y="-43.8" font-family="Helvetica,sans-Serif" font-size="11.00" fill="#000000"> &#160;</text>
</a>
</g>
</g>
<!-- user_instance_roles&#45;&gt;users -->
<g id="edge8" class="edge">
<title>user_instance_roles:w&#45;&gt;users:e</title>
<path fill="none" stroke="#000000" d="M225.5179,-113.5035C173.0129,-156.1044 263.0851,-467.7 188,-467.7"/>
<polygon fill="#000000" stroke="#000000" points="231.934,-111.2993 240.6697,-112.1047 235.717,-109.9996 239.5,-108.7 239.5,-108.7 239.5,-108.7 235.717,-109.9996 238.3303,-105.2953 231.934,-111.2993 231.934,-111.2993"/>
<ellipse fill="none" stroke="#000000" cx="228.9076" cy="-112.339" rx="3.2" ry="3.2"/>
</g>
</g>
</svg>
