<?xml version="1.0" encoding="UTF-8" standalone="no"?>
<!DOCTYPE svg PUBLIC "-//W3C//DTD SVG 1.1//EN"
 "http://www.w3.org/Graphics/SVG/1.1/DTD/svg11.dtd">
<!-- Generated by graphviz version 2.40.1 (20161225.0304)
 -->
<!-- Title: twoDegreesRelationshipsDiagram Pages: 1 -->
<svg width="474pt" height="513pt"
 viewBox="0.00 0.00 474.00 513.20" xmlns="http://www.w3.org/2000/svg" xmlns:xlink="http://www.w3.org/1999/xlink">
<g id="graph0" class="graph" transform="scale(1 1) rotate(0) translate(4 509.2)">
<title>twoDegreesRelationshipsDiagram</title>
<polygon fill="#ffffff" stroke="transparent" points="-4,4 -4,-509.2 470,-509.2 470,4 -4,4"/>
<text text-anchor="middle" x="72.4936" y="-7.3" font-family="Helvetica,sans-Serif" font-size="11.00" fill="#000000">Generated by SchemaSpy</text>
<!-- events -->
<g id="node1" class="node">
<title>events</title>
<g id="a_node1"><a xlink:href="../../tables/events.html" xlink:title="events" target="_top">
<polygon fill="#ffffff" stroke="transparent" points="149,-358.2 149,-419.2 229,-419.2 229,-358.2 149,-358.2"/>
<polygon fill="#f5f5f5" stroke="transparent" points="149,-395.7 149,-418.7 229,-418.7 229,-395.7 149,-395.7"/>
<polygon fill="none" stroke="#000000" points="149,-395.7 149,-418.7 229,-418.7 229,-395.7 149,-395.7"/>
<text text-anchor="start" x="154" y="-404.8" font-family="Helvetica,sans-Serif" font-weight="bold" font-size="11.00" fill="#000000">events</text>
<text text-anchor="start" x="194.0437" y="-403.8" font-family="Helvetica,sans-Serif" font-size="11.00" fill="#000000">[table]</text>
<polygon fill="none" stroke="#000000" points="149,-376.7 149,-395.7 229,-395.7 229,-376.7 149,-376.7"/>
<text text-anchor="start" x="152" y="-382.8" font-family="Helvetica,sans-Serif" font-size="11.00" fill="#000000">...</text>
<polygon fill="#ffffff" stroke="transparent" points="149,-357.7 149,-376.7 170,-376.7 170,-357.7 149,-357.7"/>
<polygon fill="none" stroke="#000000" points="149,-357.7 149,-376.7 170,-376.7 170,-357.7 149,-357.7"/>
<text text-anchor="start" x="151.7027" y="-363.8" font-family="Helvetica,sans-Serif" font-size="11.00" fill="#000000">&lt; 2</text>
<polygon fill="#ffffff" stroke="transparent" points="170,-357.7 170,-376.7 208,-376.7 208,-357.7 170,-357.7"/>
<polygon fill="none" stroke="#000000" points="170,-357.7 170,-376.7 208,-376.7 208,-357.7 170,-357.7"/>
<text text-anchor="start" x="172.8053" y="-363.8" font-family="Helvetica,sans-Serif" font-size="11.00" fill="#000000">0 rows</text>
<polygon fill="#ffffff" stroke="transparent" points="208,-357.7 208,-376.7 229,-376.7 229,-357.7 208,-357.7"/>
<polygon fill="none" stroke="#000000" points="208,-357.7 208,-376.7 229,-376.7 229,-357.7 208,-357.7"/>
<text text-anchor="start" x="210.7027" y="-363.8" font-family="Helvetica,sans-Serif" font-size="11.00" fill="#000000">4 &gt;</text>
</a>
</g>
</g>
<!-- chapters -->
<g id="node2" class="node">
<title>chapters</title>
<g id="a_node2"><a xlink:href="../../tables/chapters.html" xlink:title="chapters" target="_top">
<polygon fill="#ffffff" stroke="transparent" points="8,-104.2 8,-187.2 96,-187.2 96,-104.2 8,-104.2"/>
<polygon fill="#f5f5f5" stroke="transparent" points="8,-163.7 8,-186.7 96,-186.7 96,-163.7 8,-163.7"/>
<polygon fill="none" stroke="#000000" points="8,-163.7 8,-186.7 96,-186.7 96,-163.7 8,-163.7"/>
<text text-anchor="start" x="13" y="-172.8" font-family="Helvetica,sans-Serif" font-weight="bold" font-size="11.00" fill="#000000">chapters</text>
<text text-anchor="start" x="61.0437" y="-171.8" font-family="Helvetica,sans-Serif" font-size="11.00" fill="#000000">[table]</text>
<polygon fill="none" stroke="#000000" points="8,-141.7 8,-163.7 96,-163.7 96,-141.7 8,-141.7"/>
<image xlink:href="../../images/primaryKeys.png" width="11px" height="12px" preserveAspectRatio="xMinYMin meet" x="13" y="-158.7"/>
<text text-anchor="start" x="28" y="-148.8" font-family="Helvetica,sans-Serif" font-size="11.00" fill="#000000">id</text>
<polygon fill="none" stroke="#000000" points="8,-122.7 8,-141.7 96,-141.7 96,-122.7 8,-122.7"/>
<text text-anchor="start" x="11" y="-128.8" font-family="Helvetica,sans-Serif" font-size="11.00" fill="#000000">...</text>
<polygon fill="#ffffff" stroke="transparent" points="8,-103.7 8,-122.7 28,-122.7 28,-103.7 8,-103.7"/>
<polygon fill="none" stroke="#000000" points="8,-103.7 8,-122.7 28,-122.7 28,-103.7 8,-103.7"/>
<text text-anchor="start" x="11" y="-109.8" font-family="Helvetica,sans-Serif" font-size="11.00" fill="#000000"> &#160;</text>
<polygon fill="#ffffff" stroke="transparent" points="28,-103.7 28,-122.7 70,-122.7 70,-103.7 28,-103.7"/>
<polygon fill="none" stroke="#000000" points="28,-103.7 28,-122.7 70,-122.7 70,-103.7 28,-103.7"/>
<text text-anchor="start" x="34.6105" y="-109.8" font-family="Helvetica,sans-Serif" font-size="11.00" fill="#000000">0 rows</text>
<polygon fill="#ffffff" stroke="transparent" points="70,-103.7 70,-122.7 96,-122.7 96,-103.7 70,-103.7"/>
<polygon fill="none" stroke="#000000" points="70,-103.7 70,-122.7 96,-122.7 96,-103.7 70,-103.7"/>
<text text-anchor="start" x="77.4053" y="-109.8" font-family="Helvetica,sans-Serif" font-size="11.00" fill="#000000">3 &gt;</text>
</a>
</g>
</g>
<!-- events&#45;&gt;chapters -->
<g id="edge1" class="edge">
<title>events:w&#45;&gt;chapters:e</title>
<path fill="none" stroke="#000000" d="M134.3366,-383.8245C58.8724,-361.7737 196.6004,-152.7 96,-152.7"/>
<polygon fill="#000000" stroke="#000000" points="141.0646,-384.685 148.5432,-389.2709 145.0323,-385.1925 149,-385.7 149,-385.7 149,-385.7 145.0323,-385.1925 149.4568,-382.1291 141.0646,-384.685 141.0646,-384.685"/>
<ellipse fill="none" stroke="#000000" cx="137.8905" cy="-384.279" rx="3.2" ry="3.2"/>
</g>
<!-- rsvps -->
<g id="node3" class="node">
<title>rsvps</title>
<g id="a_node3"><a xlink:href="../../tables/rsvps.html" xlink:title="rsvps" target="_top">
<polygon fill="#ffffff" stroke="transparent" points="334.5,-440.2 334.5,-501.2 405.5,-501.2 405.5,-440.2 334.5,-440.2"/>
<polygon fill="#f5f5f5" stroke="transparent" points="335,-477.7 335,-500.7 406,-500.7 406,-477.7 335,-477.7"/>
<polygon fill="none" stroke="#000000" points="335,-477.7 335,-500.7 406,-500.7 406,-477.7 335,-477.7"/>
<text text-anchor="start" x="340" y="-486.8" font-family="Helvetica,sans-Serif" font-weight="bold" font-size="11.00" fill="#000000">rsvps</text>
<text text-anchor="start" x="371.0437" y="-485.8" font-family="Helvetica,sans-Serif" font-size="11.00" fill="#000000">[table]</text>
<polygon fill="none" stroke="#000000" points="335,-458.7 335,-477.7 406,-477.7 406,-458.7 335,-458.7"/>
<text text-anchor="start" x="338" y="-464.8" font-family="Helvetica,sans-Serif" font-size="11.00" fill="#000000">...</text>
<polygon fill="#ffffff" stroke="transparent" points="335,-439.7 335,-458.7 356,-458.7 356,-439.7 335,-439.7"/>
<polygon fill="none" stroke="#000000" points="335,-439.7 335,-458.7 356,-458.7 356,-439.7 335,-439.7"/>
<text text-anchor="start" x="337.7027" y="-445.8" font-family="Helvetica,sans-Serif" font-size="11.00" fill="#000000">&lt; 2</text>
<polygon fill="#ffffff" stroke="transparent" points="356,-439.7 356,-458.7 394,-458.7 394,-439.7 356,-439.7"/>
<polygon fill="none" stroke="#000000" points="356,-439.7 356,-458.7 394,-458.7 394,-439.7 356,-439.7"/>
<text text-anchor="start" x="358.8053" y="-445.8" font-family="Helvetica,sans-Serif" font-size="11.00" fill="#000000">0 rows</text>
<polygon fill="#ffffff" stroke="transparent" points="394,-439.7 394,-458.7 406,-458.7 406,-439.7 394,-439.7"/>
<polygon fill="none" stroke="#000000" points="394,-439.7 394,-458.7 406,-458.7 406,-439.7 394,-439.7"/>
<text text-anchor="start" x="396.9431" y="-445.8" font-family="Helvetica,sans-Serif" font-size="11.00" fill="#000000"> &#160;</text>
</a>
</g>
</g>
<!-- rsvps&#45;&gt;events -->
<g id="edge2" class="edge">
<title>rsvps:w&#45;&gt;events:e</title>
<path fill="none" stroke="#000000" d="M320.4848,-466.0974C301.0202,-461.2306 294.7064,-445.9584 274,-429.7 251.9997,-412.4256 256.9718,-385.7 229,-385.7"/>
<polygon fill="#000000" stroke="#000000" points="327.0483,-466.822 334.6049,-471.2783 331.0242,-467.261 335,-467.7 335,-467.7 335,-467.7 331.0242,-467.261 335.3951,-464.1217 327.0483,-466.822 327.0483,-466.822"/>
<ellipse fill="none" stroke="#000000" cx="323.8676" cy="-466.4708" rx="3.2" ry="3.2"/>
</g>
<!-- users -->
<g id="node4" class="node">
<title>users</title>
<g id="a_node4"><a xlink:href="../../tables/users.html" xlink:title="users" target="_top">
<polygon fill="#ffffff" stroke="transparent" points="145,-232.2 145,-337.2 233,-337.2 233,-232.2 145,-232.2"/>
<polygon fill="#f5f5f5" stroke="transparent" points="145,-313.7 145,-336.7 233,-336.7 233,-313.7 145,-313.7"/>
<polygon fill="none" stroke="#000000" points="145,-313.7 145,-336.7 233,-336.7 233,-313.7 145,-313.7"/>
<text text-anchor="start" x="150" y="-322.8" font-family="Helvetica,sans-Serif" font-weight="bold" font-size="11.00" fill="#000000">users</text>
<text text-anchor="start" x="198.0437" y="-321.8" font-family="Helvetica,sans-Serif" font-size="11.00" fill="#000000">[table]</text>
<polygon fill="none" stroke="#000000" points="145,-291.7 145,-313.7 233,-313.7 233,-291.7 145,-291.7"/>
<image xlink:href="../../images/primaryKeys.png" width="11px" height="12px" preserveAspectRatio="xMinYMin meet" x="150" y="-308.7"/>
<text text-anchor="start" x="165" y="-298.8" font-family="Helvetica,sans-Serif" font-size="11.00" fill="#000000">id</text>
<polygon fill="#ffffff" stroke="transparent" points="145,-269.7 145,-291.7 233,-291.7 233,-269.7 145,-269.7"/>
<polygon fill="none" stroke="#000000" points="145,-269.7 145,-291.7 233,-291.7 233,-269.7 145,-269.7"/>
<text text-anchor="start" x="165" y="-276.8" font-family="Helvetica,sans-Serif" font-size="11.00" fill="#000000">email</text>
<polygon fill="none" stroke="#000000" points="145,-250.7 145,-269.7 233,-269.7 233,-250.7 145,-250.7"/>
<text text-anchor="start" x="148" y="-256.8" font-family="Helvetica,sans-Serif" font-size="11.00" fill="#000000">...</text>
<polygon fill="#ffffff" stroke="transparent" points="145,-231.7 145,-250.7 165,-250.7 165,-231.7 145,-231.7"/>
<polygon fill="none" stroke="#000000" points="145,-231.7 145,-250.7 165,-250.7 165,-231.7 145,-231.7"/>
<text text-anchor="start" x="148" y="-237.8" font-family="Helvetica,sans-Serif" font-size="11.00" fill="#000000"> &#160;</text>
<polygon fill="#ffffff" stroke="transparent" points="165,-231.7 165,-250.7 207,-250.7 207,-231.7 165,-231.7"/>
<polygon fill="none" stroke="#000000" points="165,-231.7 165,-250.7 207,-250.7 207,-231.7 165,-231.7"/>
<text text-anchor="start" x="171.6105" y="-237.8" font-family="Helvetica,sans-Serif" font-size="11.00" fill="#000000">0 rows</text>
<polygon fill="#ffffff" stroke="transparent" points="207,-231.7 207,-250.7 233,-250.7 233,-231.7 207,-231.7"/>
<polygon fill="none" stroke="#000000" points="207,-231.7 207,-250.7 233,-250.7 233,-231.7 207,-231.7"/>
<text text-anchor="start" x="214.4053" y="-237.8" font-family="Helvetica,sans-Serif" font-size="11.00" fill="#000000">5 &gt;</text>
</a>
</g>
</g>
<!-- rsvps&#45;&gt;users -->
<g id="edge3" class="edge">
<title>rsvps:w&#45;&gt;users:e</title>
<path fill="none" stroke="#000000" d="M320.3614,-466.5658C299.5244,-462.9266 290.2798,-450.5481 274,-429.7 237.4951,-382.9515 292.3129,-302.7 233,-302.7"/>
<polygon fill="#000000" stroke="#000000" points="327.0239,-467.082 334.7219,-471.2892 331.012,-467.391 335,-467.7 335,-467.7 335,-467.7 331.012,-467.391 335.2781,-464.1108 327.0239,-467.082 327.0239,-467.082"/>
<ellipse fill="none" stroke="#000000" cx="323.8335" cy="-466.8348" rx="3.2" ry="3.2"/>
</g>
<!-- user_bans -->
<g id="node5" class="node">
<title>user_bans</title>
<g id="a_node5"><a xlink:href="../../tables/user_bans.html" xlink:title="user_bans" target="_top">
<polygon fill="#ffffff" stroke="transparent" points="282,-120.7 282,-254.7 458,-254.7 458,-120.7 282,-120.7"/>
<polygon fill="#f5f5f5" stroke="transparent" points="284,-229.7 284,-252.7 456,-252.7 456,-229.7 284,-229.7"/>
<polygon fill="none" stroke="#000000" points="284,-229.7 284,-252.7 456,-252.7 456,-229.7 284,-229.7"/>
<text text-anchor="start" x="289" y="-238.8" font-family="Helvetica,sans-Serif" font-weight="bold" font-size="11.00" fill="#000000">user_bans</text>
<text text-anchor="start" x="421.0437" y="-237.8" font-family="Helvetica,sans-Serif" font-size="11.00" fill="#000000">[table]</text>
<polygon fill="none" stroke="#000000" points="284,-207.7 284,-229.7 372,-229.7 372,-207.7 284,-207.7"/>
<text text-anchor="start" x="304" y="-214.8" font-family="Helvetica,sans-Serif" font-size="11.00" fill="#000000">created_at</text>
<polygon fill="none" stroke="#000000" points="372,-207.7 372,-229.7 456,-229.7 456,-207.7 372,-207.7"/>
<text text-anchor="start" x="374.8807" y="-215.4" font-family="Helvetica,sans-Serif" font-size="11.00" fill="#000000">timestamp[26,3]</text>
<polygon fill="none" stroke="#000000" points="284,-185.7 284,-207.7 372,-207.7 372,-185.7 284,-185.7"/>
<text text-anchor="start" x="304" y="-192.8" font-family="Helvetica,sans-Serif" font-size="11.00" fill="#000000">updated_at</text>
<polygon fill="none" stroke="#000000" points="372,-185.7 372,-207.7 456,-207.7 456,-185.7 372,-185.7"/>
<text text-anchor="start" x="374.8807" y="-193.4" font-family="Helvetica,sans-Serif" font-size="11.00" fill="#000000">timestamp[26,3]</text>
<polygon fill="none" stroke="#000000" points="284,-163.7 284,-185.7 372,-185.7 372,-163.7 284,-163.7"/>
<image xlink:href="../../images/primaryKeys.png" width="11px" height="12px" preserveAspectRatio="xMinYMin meet" x="289" y="-180.7"/>
<text text-anchor="start" x="304" y="-170.8" font-family="Helvetica,sans-Serif" font-size="11.00" fill="#000000">user_id</text>
<polygon fill="none" stroke="#000000" points="372,-163.7 372,-185.7 456,-185.7 456,-163.7 372,-163.7"/>
<text text-anchor="start" x="375" y="-171.4" font-family="Helvetica,sans-Serif" font-size="11.00" fill="#000000">int4[10]</text>
<polygon fill="none" stroke="#000000" points="284,-141.7 284,-163.7 372,-163.7 372,-141.7 284,-141.7"/>
<image xlink:href="../../images/primaryKeys.png" width="11px" height="12px" preserveAspectRatio="xMinYMin meet" x="289" y="-158.7"/>
<text text-anchor="start" x="304" y="-148.8" font-family="Helvetica,sans-Serif" font-size="11.00" fill="#000000">chapter_id</text>
<polygon fill="none" stroke="#000000" points="372,-141.7 372,-163.7 456,-163.7 456,-141.7 372,-141.7"/>
<text text-anchor="start" x="375" y="-149.4" font-family="Helvetica,sans-Serif" font-size="11.00" fill="#000000">int4[10]</text>
<polygon fill="#ffffff" stroke="transparent" points="284,-122.7 284,-141.7 319,-141.7 319,-122.7 284,-122.7"/>
<polygon fill="none" stroke="#000000" points="284,-122.7 284,-141.7 319,-141.7 319,-122.7 284,-122.7"/>
<text text-anchor="start" x="287" y="-128.8" font-family="Helvetica,sans-Serif" font-size="11.00" fill="#000000">&lt; 2</text>
<polygon fill="#ffffff" stroke="transparent" points="319,-122.7 319,-141.7 372,-141.7 372,-122.7 319,-122.7"/>
<polygon fill="none" stroke="#000000" points="319,-122.7 319,-141.7 372,-141.7 372,-122.7 319,-122.7"/>
<text text-anchor="start" x="336.6105" y="-128.8" font-family="Helvetica,sans-Serif" font-size="11.00" fill="#000000">0 rows</text>
<polygon fill="#ffffff" stroke="transparent" points="372,-122.7 372,-141.7 456,-141.7 456,-122.7 372,-122.7"/>
<polygon fill="none" stroke="#000000" points="372,-122.7 372,-141.7 456,-141.7 456,-122.7 372,-122.7"/>
<text text-anchor="start" x="437.4053" y="-128.8" font-family="Helvetica,sans-Serif" font-size="11.00" fill="#000000">0 &gt;</text>
<polygon fill="none" stroke="#000000" stroke-width="2" points="283,-121.7 283,-253.7 457,-253.7 457,-121.7 283,-121.7"/>
</a>
</g>
</g>
<!-- user_bans&#45;&gt;chapters -->
<g id="edge4" class="edge">
<title>user_bans:w&#45;&gt;chapters:e</title>
<path fill="none" stroke="#000000" d="M269.4843,-152.7C197.6852,-152.7 174.4965,-152.7 96,-152.7"/>
<polygon fill="#000000" stroke="#000000" points="276,-152.7001 284,-156.3 280,-152.7 284,-152.7 284,-152.7 284,-152.7 280,-152.7 284,-149.1 276,-152.7001 276,-152.7001"/>
<ellipse fill="none" stroke="#000000" cx="272.8" cy="-152.7001" rx="3.2" ry="3.2"/>
</g>
<!-- user_bans&#45;&gt;users -->
<g id="edge5" class="edge">
<title>user_bans:w&#45;&gt;users:e</title>
<path fill="none" stroke="#000000" d="M269.6089,-178.1237C235.4563,-198.4793 288.258,-302.7 233,-302.7"/>
<polygon fill="#000000" stroke="#000000" points="276.2172,-176.5516 284.8332,-178.2023 280.1086,-175.6258 284,-174.7 284,-174.7 284,-174.7 280.1086,-175.6258 283.1668,-171.1977 276.2172,-176.5516 276.2172,-176.5516"/>
<ellipse fill="none" stroke="#000000" cx="273.1041" cy="-177.2922" rx="3.2" ry="3.2"/>
</g>
<!-- user_chapter_roles -->
<g id="node6" class="node">
<title>user_chapter_roles</title>
<g id="a_node6"><a xlink:href="../../tables/user_chapter_roles.html" xlink:title="user_chapter_roles" target="_top">
<polygon fill="#ffffff" stroke="transparent" points="301.5,-38.2 301.5,-99.2 438.5,-99.2 438.5,-38.2 301.5,-38.2"/>
<polygon fill="#f5f5f5" stroke="transparent" points="302,-75.7 302,-98.7 439,-98.7 439,-75.7 302,-75.7"/>
<polygon fill="none" stroke="#000000" points="302,-75.7 302,-98.7 439,-98.7 439,-75.7 302,-75.7"/>
<text text-anchor="start" x="306.9338" y="-84.8" font-family="Helvetica,sans-Serif" font-weight="bold" font-size="11.00" fill="#000000">user_chapter_roles</text>
<text text-anchor="start" x="404.5219" y="-83.8" font-family="Helvetica,sans-Serif" font-size="11.00" fill="#000000">[table]</text>
<polygon fill="none" stroke="#000000" points="302,-56.7 302,-75.7 439,-75.7 439,-56.7 302,-56.7"/>
<text text-anchor="start" x="305" y="-62.8" font-family="Helvetica,sans-Serif" font-size="11.00" fill="#000000">...</text>
<polygon fill="#ffffff" stroke="transparent" points="302,-37.7 302,-56.7 356,-56.7 356,-37.7 302,-37.7"/>
<polygon fill="none" stroke="#000000" points="302,-37.7 302,-56.7 356,-56.7 356,-37.7 302,-37.7"/>
<text text-anchor="start" x="305" y="-43.8" font-family="Helvetica,sans-Serif" font-size="11.00" fill="#000000">&lt; 2</text>
<polygon fill="#ffffff" stroke="transparent" points="356,-37.7 356,-56.7 410,-56.7 410,-37.7 356,-37.7"/>
<polygon fill="none" stroke="#000000" points="356,-37.7 356,-56.7 410,-56.7 410,-37.7 356,-37.7"/>
<text text-anchor="start" x="374.6105" y="-43.8" font-family="Helvetica,sans-Serif" font-size="11.00" fill="#000000">0 rows</text>
<polygon fill="#ffffff" stroke="transparent" points="410,-37.7 410,-56.7 439,-56.7 439,-37.7 410,-37.7"/>
<polygon fill="none" stroke="#000000" points="410,-37.7 410,-56.7 439,-56.7 439,-37.7 410,-37.7"/>
<text text-anchor="start" x="429.8862" y="-43.8" font-family="Helvetica,sans-Serif" font-size="11.00" fill="#000000"> &#160;</text>
</a>
</g>
</g>
<!-- user_chapter_roles&#45;&gt;chapters -->
<g id="edge6" class="edge">
<title>user_chapter_roles:w&#45;&gt;chapters:e</title>
<path fill="none" stroke="#000000" d="M287.548,-66.3503C201.6424,-74.3116 190.3388,-152.7 96,-152.7"/>
<polygon fill="#000000" stroke="#000000" points="294.0081,-66.0596 302.1618,-69.2964 298.004,-65.8798 302,-65.7 302,-65.7 302,-65.7 298.004,-65.8798 301.8382,-62.1036 294.0081,-66.0596 294.0081,-66.0596"/>
<ellipse fill="none" stroke="#000000" cx="290.8113" cy="-66.2035" rx="3.2" ry="3.2"/>
</g>
<!-- user_chapter_roles&#45;&gt;users -->
<g id="edge7" class="edge">
<title>user_chapter_roles:w&#45;&gt;users:e</title>
<path fill="none" stroke="#000000" d="M288.2561,-70.2735C280.0295,-77.9473 280.3721,-94.1107 274,-109.7 257.4103,-150.2864 276.846,-302.7 233,-302.7"/>
<polygon fill="#000000" stroke="#000000" points="294.4092,-68.226 303.1367,-69.1158 298.2046,-66.963 302,-65.7 302,-65.7 302,-65.7 298.2046,-66.963 300.8633,-62.2842 294.4092,-68.226 294.4092,-68.226"/>
<ellipse fill="none" stroke="#000000" cx="291.3729" cy="-69.2364" rx="3.2" ry="3.2"/>
</g>
<!-- user_event_roles -->
<g id="node7" class="node">
<title>user_event_roles</title>
<g id="a_node7"><a xlink:href="../../tables/user_event_roles.html" xlink:title="user_event_roles" target="_top">
<polygon fill="#ffffff" stroke="transparent" points="306.5,-358.2 306.5,-419.2 433.5,-419.2 433.5,-358.2 306.5,-358.2"/>
<polygon fill="#f5f5f5" stroke="transparent" points="307,-395.7 307,-418.7 434,-418.7 434,-395.7 307,-395.7"/>
<polygon fill="none" stroke="#000000" points="307,-395.7 307,-418.7 434,-418.7 434,-395.7 307,-395.7"/>
<text text-anchor="start" x="311.8222" y="-404.8" font-family="Helvetica,sans-Serif" font-weight="bold" font-size="11.00" fill="#000000">user_event_roles</text>
<text text-anchor="start" x="399.5219" y="-403.8" font-family="Helvetica,sans-Serif" font-size="11.00" fill="#000000">[table]</text>
<polygon fill="none" stroke="#000000" points="307,-376.7 307,-395.7 434,-395.7 434,-376.7 307,-376.7"/>
<text text-anchor="start" x="310" y="-382.8" font-family="Helvetica,sans-Serif" font-size="11.00" fill="#000000">...</text>
<polygon fill="#ffffff" stroke="transparent" points="307,-357.7 307,-376.7 356,-376.7 356,-357.7 307,-357.7"/>
<polygon fill="none" stroke="#000000" points="307,-357.7 307,-376.7 356,-376.7 356,-357.7 307,-357.7"/>
<text text-anchor="start" x="310" y="-363.8" font-family="Helvetica,sans-Serif" font-size="11.00" fill="#000000">&lt; 2</text>
<polygon fill="#ffffff" stroke="transparent" points="356,-357.7 356,-376.7 408,-376.7 408,-357.7 356,-357.7"/>
<polygon fill="none" stroke="#000000" points="356,-357.7 356,-376.7 408,-376.7 408,-357.7 356,-357.7"/>
<text text-anchor="start" x="372.6105" y="-363.8" font-family="Helvetica,sans-Serif" font-size="11.00" fill="#000000">0 rows</text>
<polygon fill="#ffffff" stroke="transparent" points="408,-357.7 408,-376.7 434,-376.7 434,-357.7 408,-357.7"/>
<polygon fill="none" stroke="#000000" points="408,-357.7 408,-376.7 434,-376.7 434,-357.7 408,-357.7"/>
<text text-anchor="start" x="424.8862" y="-363.8" font-family="Helvetica,sans-Serif" font-size="11.00" fill="#000000"> &#160;</text>
</a>
</g>
</g>
<!-- user_event_roles&#45;&gt;events -->
<g id="edge8" class="edge">
<title>user_event_roles:w&#45;&gt;events:e</title>
<path fill="none" stroke="#000000" d="M292.4559,-385.7C268.9902,-385.7 258.25,-385.7 229,-385.7"/>
<polygon fill="#000000" stroke="#000000" points="299,-385.7001 307,-389.3 303,-385.7 307,-385.7 307,-385.7 307,-385.7 303,-385.7 307,-382.1 299,-385.7001 299,-385.7001"/>
<ellipse fill="none" stroke="#000000" cx="295.8" cy="-385.7001" rx="3.2" ry="3.2"/>
</g>
<!-- user_event_roles&#45;&gt;users -->
<g id="edge9" class="edge">
<title>user_event_roles:w&#45;&gt;users:e</title>
<path fill="none" stroke="#000000" d="M292.8476,-382.746C262.2541,-367.9604 276.8228,-302.7 233,-302.7"/>
<polygon fill="#000000" stroke="#000000" points="299.1688,-384.0654 306.2644,-389.2241 303.0844,-384.8827 307,-385.7 307,-385.7 307,-385.7 303.0844,-384.8827 307.7356,-382.1759 299.1688,-384.0654 299.1688,-384.0654"/>
<ellipse fill="none" stroke="#000000" cx="296.0363" cy="-383.4115" rx="3.2" ry="3.2"/>
</g>
<!-- user_instance_roles -->
<g id="node8" class="node">
<title>user_instance_roles</title>
<g id="a_node8"><a xlink:href="../../tables/user_instance_roles.html" xlink:title="user_instance_roles" target="_top">
<polygon fill="#ffffff" stroke="transparent" points="299.5,-276.2 299.5,-337.2 440.5,-337.2 440.5,-276.2 299.5,-276.2"/>
<polygon fill="#f5f5f5" stroke="transparent" points="300,-313.7 300,-336.7 441,-336.7 441,-313.7 300,-313.7"/>
<polygon fill="none" stroke="#000000" points="300,-313.7 300,-336.7 441,-336.7 441,-313.7 300,-313.7"/>
<text text-anchor="start" x="304.7943" y="-322.8" font-family="Helvetica,sans-Serif" font-weight="bold" font-size="11.00" fill="#000000">user_instance_roles</text>
<text text-anchor="start" x="406.5219" y="-321.8" font-family="Helvetica,sans-Serif" font-size="11.00" fill="#000000">[table]</text>
<polygon fill="none" stroke="#000000" points="300,-294.7 300,-313.7 441,-313.7 441,-294.7 300,-294.7"/>
<text text-anchor="start" x="303" y="-300.8" font-family="Helvetica,sans-Serif" font-size="11.00" fill="#000000">...</text>
<polygon fill="#ffffff" stroke="transparent" points="300,-275.7 300,-294.7 356,-294.7 356,-275.7 300,-275.7"/>
<polygon fill="none" stroke="#000000" points="300,-275.7 300,-294.7 356,-294.7 356,-275.7 300,-275.7"/>
<text text-anchor="start" x="303" y="-281.8" font-family="Helvetica,sans-Serif" font-size="11.00" fill="#000000">&lt; 1</text>
<polygon fill="#ffffff" stroke="transparent" points="356,-275.7 356,-294.7 411,-294.7 411,-275.7 356,-275.7"/>
<polygon fill="none" stroke="#000000" points="356,-275.7 356,-294.7 411,-294.7 411,-275.7 356,-275.7"/>
<text text-anchor="start" x="375.6105" y="-281.8" font-family="Helvetica,sans-Serif" font-size="11.00" fill="#000000">0 rows</text>
<polygon fill="#ffffff" stroke="transparent" points="411,-275.7 411,-294.7 441,-294.7 441,-275.7 411,-275.7"/>
<polygon fill="none" stroke="#000000" points="411,-275.7 411,-294.7 441,-294.7 441,-275.7 411,-275.7"/>
<text text-anchor="start" x="431.8862" y="-281.8" font-family="Helvetica,sans-Serif" font-size="11.00" fill="#000000"> &#160;</text>
</a>
</g>
</g>
<!-- user_instance_roles&#45;&gt;users -->
<g id="edge10" class="edge">
<title>user_instance_roles:w&#45;&gt;users:e</title>
<path fill="none" stroke="#000000" d="M285.5799,-303.6113C266.7347,-303.3665 257.3135,-302.7 233,-302.7"/>
<polygon fill="#000000" stroke="#000000" points="292.0002,-303.6507 299.9778,-307.2999 296.0001,-303.6754 300,-303.7 300,-303.7 300,-303.7 296.0001,-303.6754 300.0222,-300.1001 292.0002,-303.6507 292.0002,-303.6507"/>
<ellipse fill="none" stroke="#000000" cx="288.8002" cy="-303.631" rx="3.2" ry="3.2"/>
</g>
</g>
</svg>
