<?xml version="1.0" encoding="UTF-8" standalone="no"?>
<!DOCTYPE svg PUBLIC "-//W3C//DTD SVG 1.1//EN"
 "http://www.w3.org/Graphics/SVG/1.1/DTD/svg11.dtd">
<!-- Generated by graphviz version 2.40.1 (20161225.0304)
 -->
<!-- Title: twoDegreesRelationshipsDiagram Pages: 1 -->
<svg width="751pt" height="541pt"
 viewBox="0.00 0.00 751.00 540.61" xmlns="http://www.w3.org/2000/svg" xmlns:xlink="http://www.w3.org/1999/xlink">
<g id="graph0" class="graph" transform="scale(1 1) rotate(0) translate(4 536.6136)">
<title>twoDegreesRelationshipsDiagram</title>
<polygon fill="#ffffff" stroke="transparent" points="-4,4 -4,-536.6136 747,-536.6136 747,4 -4,4"/>
<text text-anchor="middle" x="72.4936" y="-7.3" font-family="Helvetica,sans-Serif" font-size="11.00" fill="#000000">Generated by SchemaSpy</text>
<!-- event_reminders -->
<g id="node1" class="node">
<title>event_reminders</title>
<g id="a_node1"><a xlink:href="../../tables/event_reminders.html" xlink:title="event_reminders" target="_top">
<polygon fill="#ffffff" stroke="transparent" points="611,-429.7 611,-490.7 735,-490.7 735,-429.7 611,-429.7"/>
<polygon fill="#f5f5f5" stroke="transparent" points="611,-467.2 611,-490.2 735,-490.2 735,-467.2 611,-467.2"/>
<polygon fill="none" stroke="#000000" points="611,-467.2 611,-490.2 735,-490.2 735,-467.2 611,-467.2"/>
<text text-anchor="start" x="615.5486" y="-476.3" font-family="Helvetica,sans-Serif" font-weight="bold" font-size="11.00" fill="#000000">event_reminders</text>
<text text-anchor="start" x="700.5219" y="-475.3" font-family="Helvetica,sans-Serif" font-size="11.00" fill="#000000">[table]</text>
<polygon fill="none" stroke="#000000" points="611,-448.2 611,-467.2 735,-467.2 735,-448.2 611,-448.2"/>
<text text-anchor="start" x="614" y="-454.3" font-family="Helvetica,sans-Serif" font-size="11.00" fill="#000000">...</text>
<polygon fill="#ffffff" stroke="transparent" points="611,-429.2 611,-448.2 658,-448.2 658,-429.2 611,-429.2"/>
<polygon fill="none" stroke="#000000" points="611,-429.2 611,-448.2 658,-448.2 658,-429.2 611,-429.2"/>
<text text-anchor="start" x="614" y="-435.3" font-family="Helvetica,sans-Serif" font-size="11.00" fill="#000000">&lt; 4</text>
<polygon fill="#ffffff" stroke="transparent" points="658,-429.2 658,-448.2 709,-448.2 709,-429.2 658,-429.2"/>
<polygon fill="none" stroke="#000000" points="658,-429.2 658,-448.2 709,-448.2 709,-429.2 658,-429.2"/>
<text text-anchor="start" x="673.6105" y="-435.3" font-family="Helvetica,sans-Serif" font-size="11.00" fill="#000000">0 rows</text>
<polygon fill="#ffffff" stroke="transparent" points="709,-429.2 709,-448.2 735,-448.2 735,-429.2 709,-429.2"/>
<polygon fill="none" stroke="#000000" points="709,-429.2 709,-448.2 735,-448.2 735,-429.2 709,-429.2"/>
<text text-anchor="start" x="725.8862" y="-435.3" font-family="Helvetica,sans-Serif" font-size="11.00" fill="#000000"> &#160;</text>
</a>
</g>
</g>
<!-- events -->
<g id="node2" class="node">
<title>events</title>
<g id="a_node2"><a xlink:href="../../tables/events.html" xlink:title="events" target="_top">
<polygon fill="#ffffff" stroke="transparent" points="188,-416.7 188,-477.7 268,-477.7 268,-416.7 188,-416.7"/>
<polygon fill="#f5f5f5" stroke="transparent" points="188,-454.2 188,-477.2 268,-477.2 268,-454.2 188,-454.2"/>
<polygon fill="none" stroke="#000000" points="188,-454.2 188,-477.2 268,-477.2 268,-454.2 188,-454.2"/>
<text text-anchor="start" x="193" y="-463.3" font-family="Helvetica,sans-Serif" font-weight="bold" font-size="11.00" fill="#000000">events</text>
<text text-anchor="start" x="233.0437" y="-462.3" font-family="Helvetica,sans-Serif" font-size="11.00" fill="#000000">[table]</text>
<polygon fill="none" stroke="#000000" points="188,-435.2 188,-454.2 268,-454.2 268,-435.2 188,-435.2"/>
<text text-anchor="start" x="191" y="-441.3" font-family="Helvetica,sans-Serif" font-size="11.00" fill="#000000">...</text>
<polygon fill="#ffffff" stroke="transparent" points="188,-416.2 188,-435.2 209,-435.2 209,-416.2 188,-416.2"/>
<polygon fill="none" stroke="#000000" points="188,-416.2 188,-435.2 209,-435.2 209,-416.2 188,-416.2"/>
<text text-anchor="start" x="190.7027" y="-422.3" font-family="Helvetica,sans-Serif" font-size="11.00" fill="#000000">&lt; 2</text>
<polygon fill="#ffffff" stroke="transparent" points="209,-416.2 209,-435.2 247,-435.2 247,-416.2 209,-416.2"/>
<polygon fill="none" stroke="#000000" points="209,-416.2 209,-435.2 247,-435.2 247,-416.2 209,-416.2"/>
<text text-anchor="start" x="211.8053" y="-422.3" font-family="Helvetica,sans-Serif" font-size="11.00" fill="#000000">0 rows</text>
<polygon fill="#ffffff" stroke="transparent" points="247,-416.2 247,-435.2 268,-435.2 268,-416.2 247,-416.2"/>
<polygon fill="none" stroke="#000000" points="247,-416.2 247,-435.2 268,-435.2 268,-416.2 247,-416.2"/>
<text text-anchor="start" x="249.7027" y="-422.3" font-family="Helvetica,sans-Serif" font-size="11.00" fill="#000000">5 &gt;</text>
</a>
</g>
</g>
<!-- event_reminders&#45;&gt;events -->
<g id="edge1" class="edge">
<title>event_reminders:w&#45;&gt;events:e</title>
<path fill="none" stroke="#000000" d="M597.3748,-461.9727C587.1616,-471.5812 588.7659,-493.0362 570,-501.2 470.9655,-544.2834 427.1315,-541.6682 327,-501.2 293.1957,-487.538 304.4607,-444.2 268,-444.2"/>
<polygon fill="#000000" stroke="#000000" points="603.4498,-459.8447 612.1901,-460.5976 607.2249,-458.5224 611,-457.2 611,-457.2 611,-457.2 607.2249,-458.5224 609.8099,-453.8024 603.4498,-459.8447 603.4498,-459.8447"/>
<ellipse fill="none" stroke="#000000" cx="600.4297" cy="-460.9026" rx="3.2" ry="3.2"/>
</g>
<!-- rsvps -->
<g id="node3" class="node">
<title>rsvps</title>
<g id="a_node3"><a xlink:href="../../tables/rsvps.html" xlink:title="rsvps" target="_top">
<polygon fill="#ffffff" stroke="transparent" points="408.5,-429.7 408.5,-490.7 488.5,-490.7 488.5,-429.7 408.5,-429.7"/>
<polygon fill="#f5f5f5" stroke="transparent" points="408.5,-467.2 408.5,-490.2 488.5,-490.2 488.5,-467.2 408.5,-467.2"/>
<polygon fill="none" stroke="#000000" points="408.5,-467.2 408.5,-490.2 488.5,-490.2 488.5,-467.2 408.5,-467.2"/>
<text text-anchor="start" x="413.5" y="-476.3" font-family="Helvetica,sans-Serif" font-weight="bold" font-size="11.00" fill="#000000">rsvps</text>
<text text-anchor="start" x="453.5437" y="-475.3" font-family="Helvetica,sans-Serif" font-size="11.00" fill="#000000">[table]</text>
<polygon fill="none" stroke="#000000" points="408.5,-448.2 408.5,-467.2 488.5,-467.2 488.5,-448.2 408.5,-448.2"/>
<text text-anchor="start" x="411.5" y="-454.3" font-family="Helvetica,sans-Serif" font-size="11.00" fill="#000000">...</text>
<polygon fill="#ffffff" stroke="transparent" points="408.5,-429.2 408.5,-448.2 429.5,-448.2 429.5,-429.2 408.5,-429.2"/>
<polygon fill="none" stroke="#000000" points="408.5,-429.2 408.5,-448.2 429.5,-448.2 429.5,-429.2 408.5,-429.2"/>
<text text-anchor="start" x="411.2027" y="-435.3" font-family="Helvetica,sans-Serif" font-size="11.00" fill="#000000">&lt; 2</text>
<polygon fill="#ffffff" stroke="transparent" points="429.5,-429.2 429.5,-448.2 467.5,-448.2 467.5,-429.2 429.5,-429.2"/>
<polygon fill="none" stroke="#000000" points="429.5,-429.2 429.5,-448.2 467.5,-448.2 467.5,-429.2 429.5,-429.2"/>
<text text-anchor="start" x="432.3053" y="-435.3" font-family="Helvetica,sans-Serif" font-size="11.00" fill="#000000">0 rows</text>
<polygon fill="#ffffff" stroke="transparent" points="467.5,-429.2 467.5,-448.2 488.5,-448.2 488.5,-429.2 467.5,-429.2"/>
<polygon fill="none" stroke="#000000" points="467.5,-429.2 467.5,-448.2 488.5,-448.2 488.5,-429.2 467.5,-429.2"/>
<text text-anchor="start" x="470.2027" y="-435.3" font-family="Helvetica,sans-Serif" font-size="11.00" fill="#000000">2 &gt;</text>
</a>
</g>
</g>
<!-- event_reminders&#45;&gt;rsvps -->
<g id="edge2" class="edge">
<title>event_reminders:w&#45;&gt;rsvps:e</title>
<path fill="none" stroke="#000000" d="M596.4189,-455.6422C553.5763,-451.255 537.7339,-451.7742 488.5,-457.2"/>
<polygon fill="#000000" stroke="#000000" points="603.0453,-456.3501 610.6175,-460.7796 607.0226,-456.775 611,-457.2 611,-457.2 611,-457.2 607.0226,-456.775 611.3825,-453.6204 603.0453,-456.3501 603.0453,-456.3501"/>
<ellipse fill="none" stroke="#000000" cx="599.8634" cy="-456.0101" rx="3.2" ry="3.2"/>
</g>
<!-- event_reminders&#45;&gt;rsvps -->
<g id="edge3" class="edge">
<title>event_reminders:w&#45;&gt;rsvps:e</title>
<path fill="none" stroke="#000000" d="M596.6969,-458.9842C553.6446,-464.1385 537.8403,-463.5438 488.5,-457.2"/>
<polygon fill="#000000" stroke="#000000" points="603.0615,-458.1903 611.4456,-460.7723 607.0308,-457.6951 611,-457.2 611,-457.2 611,-457.2 607.0308,-457.6951 610.5544,-453.6277 603.0615,-458.1903 603.0615,-458.1903"/>
<ellipse fill="none" stroke="#000000" cx="599.8861" cy="-458.5864" rx="3.2" ry="3.2"/>
</g>
<!-- users -->
<g id="node4" class="node">
<title>users</title>
<g id="a_node4"><a xlink:href="../../tables/users.html" xlink:title="users" target="_top">
<polygon fill="#ffffff" stroke="transparent" points="170,-243.7 170,-370.7 286,-370.7 286,-243.7 170,-243.7"/>
<polygon fill="#f5f5f5" stroke="transparent" points="170,-347.2 170,-370.2 286,-370.2 286,-347.2 170,-347.2"/>
<polygon fill="none" stroke="#000000" points="170,-347.2 170,-370.2 286,-370.2 286,-347.2 170,-347.2"/>
<text text-anchor="start" x="175" y="-356.3" font-family="Helvetica,sans-Serif" font-weight="bold" font-size="11.00" fill="#000000">users</text>
<text text-anchor="start" x="251.0437" y="-355.3" font-family="Helvetica,sans-Serif" font-size="11.00" fill="#000000">[table]</text>
<polygon fill="none" stroke="#000000" points="170,-325.2 170,-347.2 286,-347.2 286,-325.2 170,-325.2"/>
<image xlink:href="../../images/primaryKeys.png" width="11px" height="12px" preserveAspectRatio="xMinYMin meet" x="175" y="-342.2"/>
<text text-anchor="start" x="190" y="-332.3" font-family="Helvetica,sans-Serif" font-size="11.00" fill="#000000">id</text>
<polygon fill="#ffffff" stroke="transparent" points="170,-303.2 170,-325.2 286,-325.2 286,-303.2 170,-303.2"/>
<polygon fill="none" stroke="#000000" points="170,-303.2 170,-325.2 286,-325.2 286,-303.2 170,-303.2"/>
<text text-anchor="start" x="190" y="-310.3" font-family="Helvetica,sans-Serif" font-size="11.00" fill="#000000">email</text>
<polygon fill="none" stroke="#000000" points="170,-281.2 170,-303.2 286,-303.2 286,-281.2 170,-281.2"/>
<image xlink:href="../../images/foreignKeys.png" width="11px" height="12px" preserveAspectRatio="xMinYMin meet" x="175" y="-298.2"/>
<text text-anchor="start" x="190" y="-288.3" font-family="Helvetica,sans-Serif" font-size="11.00" fill="#000000">instance_role_id</text>
<polygon fill="none" stroke="#000000" points="170,-262.2 170,-281.2 286,-281.2 286,-262.2 170,-262.2"/>
<text text-anchor="start" x="173" y="-268.3" font-family="Helvetica,sans-Serif" font-size="11.00" fill="#000000">...</text>
<polygon fill="#ffffff" stroke="transparent" points="170,-243.2 170,-262.2 209,-262.2 209,-243.2 170,-243.2"/>
<polygon fill="none" stroke="#000000" points="170,-243.2 170,-262.2 209,-262.2 209,-243.2 170,-243.2"/>
<text text-anchor="start" x="173" y="-249.3" font-family="Helvetica,sans-Serif" font-size="11.00" fill="#000000">&lt; 1</text>
<polygon fill="#ffffff" stroke="transparent" points="209,-243.2 209,-262.2 256,-262.2 256,-243.2 209,-243.2"/>
<polygon fill="none" stroke="#000000" points="209,-243.2 209,-262.2 256,-262.2 256,-243.2 209,-243.2"/>
<text text-anchor="start" x="220.6105" y="-249.3" font-family="Helvetica,sans-Serif" font-size="11.00" fill="#000000">0 rows</text>
<polygon fill="#ffffff" stroke="transparent" points="256,-243.2 256,-262.2 286,-262.2 286,-243.2 256,-243.2"/>
<polygon fill="none" stroke="#000000" points="256,-243.2 256,-262.2 286,-262.2 286,-243.2 256,-243.2"/>
<text text-anchor="start" x="267.4053" y="-249.3" font-family="Helvetica,sans-Serif" font-size="11.00" fill="#000000">5 &gt;</text>
</a>
</g>
</g>
<!-- event_reminders&#45;&gt;users -->
<g id="edge4" class="edge">
<title>event_reminders:w&#45;&gt;users:e</title>
<path fill="none" stroke="#000000" d="M596.8253,-454.4581C566.3484,-439.4234 610.958,-366.5978 570,-337.2 518.7283,-300.3995 349.1115,-336.2 286,-336.2"/>
<polygon fill="#000000" stroke="#000000" points="603.1456,-455.6806 610.3163,-460.7345 607.0728,-456.4403 611,-457.2 611,-457.2 611,-457.2 607.0728,-456.4403 611.6837,-453.6655 603.1456,-455.6806 603.1456,-455.6806"/>
<ellipse fill="none" stroke="#000000" cx="600.0038" cy="-455.0729" rx="3.2" ry="3.2"/>
</g>
<!-- chapters -->
<g id="node5" class="node">
<title>chapters</title>
<g id="a_node5"><a xlink:href="../../tables/chapters.html" xlink:title="chapters" target="_top">
<polygon fill="#ffffff" stroke="transparent" points="20.5,-162.7 20.5,-245.7 108.5,-245.7 108.5,-162.7 20.5,-162.7"/>
<polygon fill="#f5f5f5" stroke="transparent" points="20.5,-222.2 20.5,-245.2 108.5,-245.2 108.5,-222.2 20.5,-222.2"/>
<polygon fill="none" stroke="#000000" points="20.5,-222.2 20.5,-245.2 108.5,-245.2 108.5,-222.2 20.5,-222.2"/>
<text text-anchor="start" x="25.5" y="-231.3" font-family="Helvetica,sans-Serif" font-weight="bold" font-size="11.00" fill="#000000">chapters</text>
<text text-anchor="start" x="73.5437" y="-230.3" font-family="Helvetica,sans-Serif" font-size="11.00" fill="#000000">[table]</text>
<polygon fill="none" stroke="#000000" points="20.5,-200.2 20.5,-222.2 108.5,-222.2 108.5,-200.2 20.5,-200.2"/>
<image xlink:href="../../images/primaryKeys.png" width="11px" height="12px" preserveAspectRatio="xMinYMin meet" x="25.5" y="-217.2"/>
<text text-anchor="start" x="40.5" y="-207.3" font-family="Helvetica,sans-Serif" font-size="11.00" fill="#000000">id</text>
<polygon fill="none" stroke="#000000" points="20.5,-181.2 20.5,-200.2 108.5,-200.2 108.5,-181.2 20.5,-181.2"/>
<text text-anchor="start" x="23.5" y="-187.3" font-family="Helvetica,sans-Serif" font-size="11.00" fill="#000000">...</text>
<polygon fill="#ffffff" stroke="transparent" points="20.5,-162.2 20.5,-181.2 40.5,-181.2 40.5,-162.2 20.5,-162.2"/>
<polygon fill="none" stroke="#000000" points="20.5,-162.2 20.5,-181.2 40.5,-181.2 40.5,-162.2 20.5,-162.2"/>
<text text-anchor="start" x="23.5" y="-168.3" font-family="Helvetica,sans-Serif" font-size="11.00" fill="#000000"> &#160;</text>
<polygon fill="#ffffff" stroke="transparent" points="40.5,-162.2 40.5,-181.2 82.5,-181.2 82.5,-162.2 40.5,-162.2"/>
<polygon fill="none" stroke="#000000" points="40.5,-162.2 40.5,-181.2 82.5,-181.2 82.5,-162.2 40.5,-162.2"/>
<text text-anchor="start" x="47.1105" y="-168.3" font-family="Helvetica,sans-Serif" font-size="11.00" fill="#000000">0 rows</text>
<polygon fill="#ffffff" stroke="transparent" points="82.5,-162.2 82.5,-181.2 108.5,-181.2 108.5,-162.2 82.5,-162.2"/>
<polygon fill="none" stroke="#000000" points="82.5,-162.2 82.5,-181.2 108.5,-181.2 108.5,-162.2 82.5,-162.2"/>
<text text-anchor="start" x="89.9053" y="-168.3" font-family="Helvetica,sans-Serif" font-size="11.00" fill="#000000">3 &gt;</text>
</a>
</g>
</g>
<!-- events&#45;&gt;chapters -->
<g id="edge5" class="edge">
<title>events:w&#45;&gt;chapters:e</title>
<path fill="none" stroke="#000000" d="M173.4411,-442.5237C91.8445,-421.569 212.468,-211.2 108.5,-211.2"/>
<polygon fill="#000000" stroke="#000000" points="180.0525,-443.2849 187.5882,-447.7764 184.0263,-443.7424 188,-444.2 188,-444.2 188,-444.2 184.0263,-443.7424 188.4118,-440.6236 180.0525,-443.2849 180.0525,-443.2849"/>
<ellipse fill="none" stroke="#000000" cx="176.8735" cy="-442.9188" rx="3.2" ry="3.2"/>
</g>
<!-- rsvps&#45;&gt;events -->
<g id="edge6" class="edge">
<title>rsvps:w&#45;&gt;events:e</title>
<path fill="none" stroke="#000000" d="M393.9762,-456.9519C342.9946,-455.1547 325.5669,-444.2 268,-444.2"/>
<polygon fill="#000000" stroke="#000000" points="400.5012,-457.0633 408.4385,-460.7995 404.5006,-457.1317 408.5,-457.2 408.5,-457.2 408.5,-457.2 404.5006,-457.1317 408.5615,-453.6005 400.5012,-457.0633 400.5012,-457.0633"/>
<ellipse fill="none" stroke="#000000" cx="397.3016" cy="-457.0086" rx="3.2" ry="3.2"/>
</g>
<!-- rsvps&#45;&gt;users -->
<g id="edge7" class="edge">
<title>rsvps:w&#45;&gt;users:e</title>
<path fill="none" stroke="#000000" d="M393.9054,-456.6493C364.8167,-454.2125 351.7814,-443.4294 327,-419.2 297.5809,-390.4362 327.1441,-336.2 286,-336.2"/>
<polygon fill="#000000" stroke="#000000" points="400.5057,-456.8983 408.3642,-460.7974 404.5028,-457.0492 408.5,-457.2 408.5,-457.2 408.5,-457.2 404.5028,-457.0492 408.6358,-453.6026 400.5057,-456.8983 400.5057,-456.8983"/>
<ellipse fill="none" stroke="#000000" cx="397.308" cy="-456.7776" rx="3.2" ry="3.2"/>
</g>
<!-- instance_roles -->
<g id="node9" class="node">
<title>instance_roles</title>
<g id="a_node9"><a xlink:href="../../tables/instance_roles.html" xlink:title="instance_roles" target="_top">
<polygon fill="#ffffff" stroke="transparent" points="8,-266.7 8,-327.7 121,-327.7 121,-266.7 8,-266.7"/>
<polygon fill="#f5f5f5" stroke="transparent" points="8.5,-304.2 8.5,-327.2 121.5,-327.2 121.5,-304.2 8.5,-304.2"/>
<polygon fill="none" stroke="#000000" points="8.5,-304.2 8.5,-327.2 121.5,-327.2 121.5,-304.2 8.5,-304.2"/>
<text text-anchor="start" x="13.0476" y="-313.3" font-family="Helvetica,sans-Serif" font-weight="bold" font-size="11.00" fill="#000000">instance_roles</text>
<text text-anchor="start" x="87.0219" y="-312.3" font-family="Helvetica,sans-Serif" font-size="11.00" fill="#000000">[table]</text>
<polygon fill="none" stroke="#000000" points="8.5,-285.2 8.5,-304.2 121.5,-304.2 121.5,-285.2 8.5,-285.2"/>
<text text-anchor="start" x="11.5" y="-291.3" font-family="Helvetica,sans-Serif" font-size="11.00" fill="#000000">...</text>
<polygon fill="#ffffff" stroke="transparent" points="8.5,-266.2 8.5,-285.2 41.5,-285.2 41.5,-266.2 8.5,-266.2"/>
<polygon fill="none" stroke="#000000" points="8.5,-266.2 8.5,-285.2 41.5,-285.2 41.5,-266.2 8.5,-266.2"/>
<text text-anchor="start" x="11.5" y="-272.3" font-family="Helvetica,sans-Serif" font-size="11.00" fill="#000000"> &#160;</text>
<polygon fill="#ffffff" stroke="transparent" points="41.5,-266.2 41.5,-285.2 89.5,-285.2 89.5,-266.2 41.5,-266.2"/>
<polygon fill="none" stroke="#000000" points="41.5,-266.2 41.5,-285.2 89.5,-285.2 89.5,-266.2 41.5,-266.2"/>
<text text-anchor="start" x="54.1105" y="-272.3" font-family="Helvetica,sans-Serif" font-size="11.00" fill="#000000">0 rows</text>
<polygon fill="#ffffff" stroke="transparent" points="89.5,-266.2 89.5,-285.2 121.5,-285.2 121.5,-266.2 89.5,-266.2"/>
<polygon fill="none" stroke="#000000" points="89.5,-266.2 89.5,-285.2 121.5,-285.2 121.5,-266.2 89.5,-266.2"/>
<text text-anchor="start" x="102.9053" y="-272.3" font-family="Helvetica,sans-Serif" font-size="11.00" fill="#000000">2 &gt;</text>
</a>
</g>
</g>
<!-- users&#45;&gt;instance_roles -->
<g id="edge14" class="edge">
<title>users:w&#45;&gt;instance_roles:e</title>
<path fill="none" stroke="#000000" d="M155.278,-292.5668C144.2863,-293.1442 137.1748,-294.2 121.5,-294.2"/>
<polygon fill="#000000" stroke="#000000" points="162.0025,-292.3993 170.0897,-295.7989 166.0012,-292.2997 170,-292.2 170,-292.2 170,-292.2 166.0012,-292.2997 169.9103,-288.6011 162.0025,-292.3993 162.0025,-292.3993"/>
<ellipse fill="none" stroke="#000000" cx="158.8035" cy="-292.4791" rx="3.2" ry="3.2"/>
</g>
<!-- user_bans -->
<g id="node6" class="node">
<title>user_bans</title>
<g id="a_node6"><a xlink:href="../../tables/user_bans.html" xlink:title="user_bans" target="_top">
<polygon fill="#ffffff" stroke="transparent" points="401.5,-237.7 401.5,-298.7 495.5,-298.7 495.5,-237.7 401.5,-237.7"/>
<polygon fill="#f5f5f5" stroke="transparent" points="401.5,-275.2 401.5,-298.2 495.5,-298.2 495.5,-275.2 401.5,-275.2"/>
<polygon fill="none" stroke="#000000" points="401.5,-275.2 401.5,-298.2 495.5,-298.2 495.5,-275.2 401.5,-275.2"/>
<text text-anchor="start" x="406.3244" y="-284.3" font-family="Helvetica,sans-Serif" font-weight="bold" font-size="11.00" fill="#000000">user_bans</text>
<text text-anchor="start" x="461.0219" y="-283.3" font-family="Helvetica,sans-Serif" font-size="11.00" fill="#000000">[table]</text>
<polygon fill="none" stroke="#000000" points="401.5,-256.2 401.5,-275.2 495.5,-275.2 495.5,-256.2 401.5,-256.2"/>
<text text-anchor="start" x="404.5" y="-262.3" font-family="Helvetica,sans-Serif" font-size="11.00" fill="#000000">...</text>
<polygon fill="#ffffff" stroke="transparent" points="401.5,-237.2 401.5,-256.2 433.5,-256.2 433.5,-237.2 401.5,-237.2"/>
<polygon fill="none" stroke="#000000" points="401.5,-237.2 401.5,-256.2 433.5,-256.2 433.5,-237.2 401.5,-237.2"/>
<text text-anchor="start" x="404.5" y="-243.3" font-family="Helvetica,sans-Serif" font-size="11.00" fill="#000000">&lt; 2</text>
<polygon fill="#ffffff" stroke="transparent" points="433.5,-237.2 433.5,-256.2 477.5,-256.2 477.5,-237.2 433.5,-237.2"/>
<polygon fill="none" stroke="#000000" points="433.5,-237.2 433.5,-256.2 477.5,-256.2 477.5,-237.2 433.5,-237.2"/>
<text text-anchor="start" x="442.1105" y="-243.3" font-family="Helvetica,sans-Serif" font-size="11.00" fill="#000000">0 rows</text>
<polygon fill="#ffffff" stroke="transparent" points="477.5,-237.2 477.5,-256.2 495.5,-256.2 495.5,-237.2 477.5,-237.2"/>
<polygon fill="none" stroke="#000000" points="477.5,-237.2 477.5,-256.2 495.5,-256.2 495.5,-237.2 477.5,-237.2"/>
<text text-anchor="start" x="486.3862" y="-243.3" font-family="Helvetica,sans-Serif" font-size="11.00" fill="#000000"> &#160;</text>
</a>
</g>
</g>
<!-- user_bans&#45;&gt;users -->
<g id="edge9" class="edge">
<title>user_bans:w&#45;&gt;users:e</title>
<path fill="none" stroke="#000000" d="M388.2156,-270.7713C359.1663,-287.5088 298.475,-336.2 286,-336.2"/>
<polygon fill="#000000" stroke="#000000" points="394.1225,-268.294 402.8923,-268.5199 397.8113,-266.747 401.5,-265.2 401.5,-265.2 401.5,-265.2 397.8113,-266.747 400.1077,-261.8801 394.1225,-268.294 394.1225,-268.294"/>
<ellipse fill="none" stroke="#000000" cx="391.1715" cy="-269.5316" rx="3.2" ry="3.2"/>
</g>
<!-- user_bans&#45;&gt;chapters -->
<g id="edge8" class="edge">
<title>user_bans:w&#45;&gt;chapters:e</title>
<path fill="none" stroke="#000000" d="M387.001,-264.5082C349.3427,-260.7086 337.6703,-242.22 294,-233.2 212.694,-216.4063 191.5222,-211.2 108.5,-211.2"/>
<polygon fill="#000000" stroke="#000000" points="393.5091,-264.8187 401.3284,-268.7959 397.5045,-265.0093 401.5,-265.2 401.5,-265.2 401.5,-265.2 397.5045,-265.0093 401.6716,-261.6041 393.5091,-264.8187 393.5091,-264.8187"/>
<ellipse fill="none" stroke="#000000" cx="390.3127" cy="-264.6662" rx="3.2" ry="3.2"/>
</g>
<!-- user_chapter_roles -->
<g id="node7" class="node">
<title>user_chapter_roles</title>
<g id="a_node7"><a xlink:href="../../tables/user_chapter_roles.html" xlink:title="user_chapter_roles" target="_top">
<polygon fill="#ffffff" stroke="transparent" points="335,-38.2 335,-216.2 562,-216.2 562,-38.2 335,-38.2"/>
<polygon fill="#f5f5f5" stroke="transparent" points="337.5,-191.2 337.5,-214.2 560.5,-214.2 560.5,-191.2 337.5,-191.2"/>
<polygon fill="none" stroke="#000000" points="337.5,-191.2 337.5,-214.2 560.5,-214.2 560.5,-191.2 337.5,-191.2"/>
<text text-anchor="start" x="342.5" y="-200.3" font-family="Helvetica,sans-Serif" font-weight="bold" font-size="11.00" fill="#000000">user_chapter_roles</text>
<text text-anchor="start" x="525.5437" y="-199.3" font-family="Helvetica,sans-Serif" font-size="11.00" fill="#000000">[table]</text>
<polygon fill="none" stroke="#000000" points="337.5,-169.2 337.5,-191.2 470.5,-191.2 470.5,-169.2 337.5,-169.2"/>
<text text-anchor="start" x="357.5" y="-176.3" font-family="Helvetica,sans-Serif" font-size="11.00" fill="#000000">created_at</text>
<polygon fill="none" stroke="#000000" points="470.5,-169.2 470.5,-191.2 560.5,-191.2 560.5,-169.2 470.5,-169.2"/>
<text text-anchor="start" x="473.5" y="-176.9" font-family="Helvetica,sans-Serif" font-size="11.00" fill="#000000">timestamp[26,3]</text>
<polygon fill="none" stroke="#000000" points="337.5,-147.2 337.5,-169.2 470.5,-169.2 470.5,-147.2 337.5,-147.2"/>
<text text-anchor="start" x="357.5" y="-154.3" font-family="Helvetica,sans-Serif" font-size="11.00" fill="#000000">updated_at</text>
<polygon fill="none" stroke="#000000" points="470.5,-147.2 470.5,-169.2 560.5,-169.2 560.5,-147.2 470.5,-147.2"/>
<text text-anchor="start" x="473.5" y="-154.9" font-family="Helvetica,sans-Serif" font-size="11.00" fill="#000000">timestamp[26,3]</text>
<polygon fill="none" stroke="#000000" points="337.5,-125.2 337.5,-147.2 470.5,-147.2 470.5,-125.2 337.5,-125.2"/>
<image xlink:href="../../images/primaryKeys.png" width="11px" height="12px" preserveAspectRatio="xMinYMin meet" x="342.5" y="-142.2"/>
<text text-anchor="start" x="357.5" y="-132.3" font-family="Helvetica,sans-Serif" font-size="11.00" fill="#000000">user_id</text>
<polygon fill="none" stroke="#000000" points="470.5,-125.2 470.5,-147.2 560.5,-147.2 560.5,-125.2 470.5,-125.2"/>
<text text-anchor="start" x="473.5" y="-132.9" font-family="Helvetica,sans-Serif" font-size="11.00" fill="#000000">int4[10]</text>
<polygon fill="none" stroke="#000000" points="337.5,-103.2 337.5,-125.2 470.5,-125.2 470.5,-103.2 337.5,-103.2"/>
<image xlink:href="../../images/primaryKeys.png" width="11px" height="12px" preserveAspectRatio="xMinYMin meet" x="342.5" y="-120.2"/>
<text text-anchor="start" x="357.5" y="-110.3" font-family="Helvetica,sans-Serif" font-size="11.00" fill="#000000">chapter_id</text>
<polygon fill="none" stroke="#000000" points="470.5,-103.2 470.5,-125.2 560.5,-125.2 560.5,-103.2 470.5,-103.2"/>
<text text-anchor="start" x="473.5" y="-110.9" font-family="Helvetica,sans-Serif" font-size="11.00" fill="#000000">int4[10]</text>
<polygon fill="none" stroke="#000000" points="337.5,-81.2 337.5,-103.2 470.5,-103.2 470.5,-81.2 337.5,-81.2"/>
<image xlink:href="../../images/primaryKeys.png" width="11px" height="12px" preserveAspectRatio="xMinYMin meet" x="342.5" y="-98.2"/>
<text text-anchor="start" x="357.5" y="-88.3" font-family="Helvetica,sans-Serif" font-size="11.00" fill="#000000">role_name</text>
<polygon fill="none" stroke="#000000" points="470.5,-81.2 470.5,-103.2 560.5,-103.2 560.5,-81.2 470.5,-81.2"/>
<text text-anchor="start" x="473.0043" y="-88.9" font-family="Helvetica,sans-Serif" font-size="11.00" fill="#000000">text[2147483647]</text>
<polygon fill="none" stroke="#000000" points="337.5,-59.2 337.5,-81.2 470.5,-81.2 470.5,-59.2 337.5,-59.2"/>
<text text-anchor="start" x="357.5" y="-66.3" font-family="Helvetica,sans-Serif" font-size="11.00" fill="#000000">interested</text>
<polygon fill="none" stroke="#000000" points="470.5,-59.2 470.5,-81.2 560.5,-81.2 560.5,-59.2 470.5,-59.2"/>
<text text-anchor="start" x="473.5" y="-66.9" font-family="Helvetica,sans-Serif" font-size="11.00" fill="#000000">bool[1]</text>
<polygon fill="#ffffff" stroke="transparent" points="337.5,-40.2 337.5,-59.2 395.5,-59.2 395.5,-40.2 337.5,-40.2"/>
<polygon fill="none" stroke="#000000" points="337.5,-40.2 337.5,-59.2 395.5,-59.2 395.5,-40.2 337.5,-40.2"/>
<text text-anchor="start" x="340.5" y="-46.3" font-family="Helvetica,sans-Serif" font-size="11.00" fill="#000000">&lt; 2</text>
<polygon fill="#ffffff" stroke="transparent" points="395.5,-40.2 395.5,-59.2 470.5,-59.2 470.5,-40.2 395.5,-40.2"/>
<polygon fill="none" stroke="#000000" points="395.5,-40.2 395.5,-59.2 470.5,-59.2 470.5,-40.2 395.5,-40.2"/>
<text text-anchor="start" x="435.1105" y="-46.3" font-family="Helvetica,sans-Serif" font-size="11.00" fill="#000000">0 rows</text>
<polygon fill="#ffffff" stroke="transparent" points="470.5,-40.2 470.5,-59.2 560.5,-59.2 560.5,-40.2 470.5,-40.2"/>
<polygon fill="none" stroke="#000000" points="470.5,-40.2 470.5,-59.2 560.5,-59.2 560.5,-40.2 470.5,-40.2"/>
<text text-anchor="start" x="541.9053" y="-46.3" font-family="Helvetica,sans-Serif" font-size="11.00" fill="#000000">0 &gt;</text>
<polygon fill="none" stroke="#000000" stroke-width="2" points="336,-39.2 336,-215.2 561,-215.2 561,-39.2 336,-39.2"/>
</a>
</g>
</g>
<!-- user_chapter_roles&#45;&gt;users -->
<g id="edge11" class="edge">
<title>user_chapter_roles:w&#45;&gt;users:e</title>
<path fill="none" stroke="#000000" d="M323.1901,-138.3108C260.8845,-159.6856 372.231,-336.2 286,-336.2"/>
<polygon fill="#000000" stroke="#000000" points="329.5856,-137.3675 338.0254,-139.7615 333.5428,-136.7837 337.5,-136.2 337.5,-136.2 337.5,-136.2 333.5428,-136.7837 336.9746,-132.6385 329.5856,-137.3675 329.5856,-137.3675"/>
<ellipse fill="none" stroke="#000000" cx="326.4199" cy="-137.8344" rx="3.2" ry="3.2"/>
</g>
<!-- user_chapter_roles&#45;&gt;chapters -->
<g id="edge10" class="edge">
<title>user_chapter_roles:w&#45;&gt;chapters:e</title>
<path fill="none" stroke="#000000" d="M322.9088,-114.7943C226.0235,-122.9 213.9586,-211.2 108.5,-211.2"/>
<polygon fill="#000000" stroke="#000000" points="329.5066,-114.5256 337.6465,-117.797 333.5033,-114.3628 337.5,-114.2 337.5,-114.2 337.5,-114.2 333.5033,-114.3628 337.3535,-110.603 329.5066,-114.5256 329.5066,-114.5256"/>
<ellipse fill="none" stroke="#000000" cx="326.3093" cy="-114.6559" rx="3.2" ry="3.2"/>
</g>
<!-- user_event_roles -->
<g id="node8" class="node">
<title>user_event_roles</title>
<g id="a_node8"><a xlink:href="../../tables/user_event_roles.html" xlink:title="user_event_roles" target="_top">
<polygon fill="#ffffff" stroke="transparent" points="385,-347.7 385,-408.7 512,-408.7 512,-347.7 385,-347.7"/>
<polygon fill="#f5f5f5" stroke="transparent" points="385.5,-385.2 385.5,-408.2 512.5,-408.2 512.5,-385.2 385.5,-385.2"/>
<polygon fill="none" stroke="#000000" points="385.5,-385.2 385.5,-408.2 512.5,-408.2 512.5,-385.2 385.5,-385.2"/>
<text text-anchor="start" x="390.3222" y="-394.3" font-family="Helvetica,sans-Serif" font-weight="bold" font-size="11.00" fill="#000000">user_event_roles</text>
<text text-anchor="start" x="478.0219" y="-393.3" font-family="Helvetica,sans-Serif" font-size="11.00" fill="#000000">[table]</text>
<polygon fill="none" stroke="#000000" points="385.5,-366.2 385.5,-385.2 512.5,-385.2 512.5,-366.2 385.5,-366.2"/>
<text text-anchor="start" x="388.5" y="-372.3" font-family="Helvetica,sans-Serif" font-size="11.00" fill="#000000">...</text>
<polygon fill="#ffffff" stroke="transparent" points="385.5,-347.2 385.5,-366.2 434.5,-366.2 434.5,-347.2 385.5,-347.2"/>
<polygon fill="none" stroke="#000000" points="385.5,-347.2 385.5,-366.2 434.5,-366.2 434.5,-347.2 385.5,-347.2"/>
<text text-anchor="start" x="388.5" y="-353.3" font-family="Helvetica,sans-Serif" font-size="11.00" fill="#000000">&lt; 2</text>
<polygon fill="#ffffff" stroke="transparent" points="434.5,-347.2 434.5,-366.2 486.5,-366.2 486.5,-347.2 434.5,-347.2"/>
<polygon fill="none" stroke="#000000" points="434.5,-347.2 434.5,-366.2 486.5,-366.2 486.5,-347.2 434.5,-347.2"/>
<text text-anchor="start" x="451.1105" y="-353.3" font-family="Helvetica,sans-Serif" font-size="11.00" fill="#000000">0 rows</text>
<polygon fill="#ffffff" stroke="transparent" points="486.5,-347.2 486.5,-366.2 512.5,-366.2 512.5,-347.2 486.5,-347.2"/>
<polygon fill="none" stroke="#000000" points="486.5,-347.2 486.5,-366.2 512.5,-366.2 512.5,-347.2 486.5,-347.2"/>
<text text-anchor="start" x="503.3862" y="-353.3" font-family="Helvetica,sans-Serif" font-size="11.00" fill="#000000"> &#160;</text>
</a>
</g>
</g>
<!-- user_event_roles&#45;&gt;events -->
<g id="edge12" class="edge">
<title>user_event_roles:w&#45;&gt;events:e</title>
<path fill="none" stroke="#000000" d="M370.9321,-376.7053C325.08,-386.7959 323.238,-444.2 268,-444.2"/>
<polygon fill="#000000" stroke="#000000" points="377.5424,-376.0223 385.87,-378.7809 381.5212,-375.6112 385.5,-375.2 385.5,-375.2 385.5,-375.2 381.5212,-375.6112 385.13,-371.6191 377.5424,-376.0223 377.5424,-376.0223"/>
<ellipse fill="none" stroke="#000000" cx="374.3593" cy="-376.3513" rx="3.2" ry="3.2"/>
</g>
<!-- user_event_roles&#45;&gt;users -->
<g id="edge13" class="edge">
<title>user_event_roles:w&#45;&gt;users:e</title>
<path fill="none" stroke="#000000" d="M370.8883,-373.812C336.4299,-366.8645 328.1173,-336.2 286,-336.2"/>
<polygon fill="#000000" stroke="#000000" points="377.5359,-374.4434 385.1595,-378.7839 381.5179,-374.8217 385.5,-375.2 385.5,-375.2 385.5,-375.2 381.5179,-374.8217 385.8405,-371.6161 377.5359,-374.4434 377.5359,-374.4434"/>
<ellipse fill="none" stroke="#000000" cx="374.3502" cy="-374.1408" rx="3.2" ry="3.2"/>
</g>
</g>
</svg>
