<?xml version="1.0" encoding="UTF-8" standalone="no"?>
<!DOCTYPE svg PUBLIC "-//W3C//DTD SVG 1.1//EN"
 "http://www.w3.org/Graphics/SVG/1.1/DTD/svg11.dtd">
<!-- Generated by graphviz version 2.40.1 (20161225.0304)
 -->
<!-- Title: twoDegreesRelationshipsDiagram Pages: 1 -->
<svg width="738pt" height="694pt"
 viewBox="0.00 0.00 738.00 694.20" xmlns="http://www.w3.org/2000/svg" xmlns:xlink="http://www.w3.org/1999/xlink">
<g id="graph0" class="graph" transform="scale(1 1) rotate(0) translate(4 690.2)">
<title>twoDegreesRelationshipsDiagram</title>
<polygon fill="#ffffff" stroke="transparent" points="-4,4 -4,-690.2 734,-690.2 734,4 -4,4"/>
<text text-anchor="middle" x="72.4936" y="-7.3" font-family="Helvetica,sans-Serif" font-size="11.00" fill="#000000">Generated by SchemaSpy</text>
<!-- chapter_users -->
<g id="node1" class="node">
<title>chapter_users</title>
<g id="a_node1"><a xlink:href="../../tables/chapter_users.html" xlink:title="chapter_users" target="_top">
<polygon fill="#ffffff" stroke="transparent" points="386,-38.2 386,-99.2 498,-99.2 498,-38.2 386,-38.2"/>
<polygon fill="#f5f5f5" stroke="transparent" points="386,-75.7 386,-98.7 498,-98.7 498,-75.7 386,-75.7"/>
<polygon fill="none" stroke="#000000" points="386,-75.7 386,-98.7 498,-98.7 498,-75.7 386,-75.7"/>
<text text-anchor="start" x="390.6575" y="-84.8" font-family="Helvetica,sans-Serif" font-weight="bold" font-size="11.00" fill="#000000">chapter_users</text>
<text text-anchor="start" x="463.5219" y="-83.8" font-family="Helvetica,sans-Serif" font-size="11.00" fill="#000000">[table]</text>
<polygon fill="none" stroke="#000000" points="386,-56.7 386,-75.7 498,-75.7 498,-56.7 386,-56.7"/>
<text text-anchor="start" x="389" y="-62.8" font-family="Helvetica,sans-Serif" font-size="11.00" fill="#000000">...</text>
<polygon fill="#ffffff" stroke="transparent" points="386,-37.7 386,-56.7 427,-56.7 427,-37.7 386,-37.7"/>
<polygon fill="none" stroke="#000000" points="386,-37.7 386,-56.7 427,-56.7 427,-37.7 386,-37.7"/>
<text text-anchor="start" x="389" y="-43.8" font-family="Helvetica,sans-Serif" font-size="11.00" fill="#000000">&lt; 3</text>
<polygon fill="#ffffff" stroke="transparent" points="427,-37.7 427,-56.7 475,-56.7 475,-37.7 427,-37.7"/>
<polygon fill="none" stroke="#000000" points="427,-37.7 427,-56.7 475,-56.7 475,-37.7 427,-37.7"/>
<text text-anchor="start" x="439.6105" y="-43.8" font-family="Helvetica,sans-Serif" font-size="11.00" fill="#000000">0 rows</text>
<polygon fill="#ffffff" stroke="transparent" points="475,-37.7 475,-56.7 498,-56.7 498,-37.7 475,-37.7"/>
<polygon fill="none" stroke="#000000" points="475,-37.7 475,-56.7 498,-56.7 498,-37.7 475,-37.7"/>
<text text-anchor="start" x="488.8862" y="-43.8" font-family="Helvetica,sans-Serif" font-size="11.00" fill="#000000"> &#160;</text>
</a>
</g>
</g>
<!-- chapters -->
<g id="node2" class="node">
<title>chapters</title>
<g id="a_node2"><a xlink:href="../../tables/chapters.html" xlink:title="chapters" target="_top">
<polygon fill="#ffffff" stroke="transparent" points="22,-89.2 22,-150.2 107,-150.2 107,-89.2 22,-89.2"/>
<polygon fill="#f5f5f5" stroke="transparent" points="22.5,-126.7 22.5,-149.7 107.5,-149.7 107.5,-126.7 22.5,-126.7"/>
<polygon fill="none" stroke="#000000" points="22.5,-126.7 22.5,-149.7 107.5,-149.7 107.5,-126.7 22.5,-126.7"/>
<text text-anchor="start" x="27.4108" y="-135.8" font-family="Helvetica,sans-Serif" font-weight="bold" font-size="11.00" fill="#000000">chapters</text>
<text text-anchor="start" x="73.0219" y="-134.8" font-family="Helvetica,sans-Serif" font-size="11.00" fill="#000000">[table]</text>
<polygon fill="none" stroke="#000000" points="22.5,-107.7 22.5,-126.7 107.5,-126.7 107.5,-107.7 22.5,-107.7"/>
<text text-anchor="start" x="25.5" y="-113.8" font-family="Helvetica,sans-Serif" font-size="11.00" fill="#000000">...</text>
<polygon fill="#ffffff" stroke="transparent" points="22.5,-88.7 22.5,-107.7 41.5,-107.7 41.5,-88.7 22.5,-88.7"/>
<polygon fill="none" stroke="#000000" points="22.5,-88.7 22.5,-107.7 41.5,-107.7 41.5,-88.7 22.5,-88.7"/>
<text text-anchor="start" x="25.5" y="-94.8" font-family="Helvetica,sans-Serif" font-size="11.00" fill="#000000"> &#160;</text>
<polygon fill="#ffffff" stroke="transparent" points="41.5,-88.7 41.5,-107.7 82.5,-107.7 82.5,-88.7 41.5,-88.7"/>
<polygon fill="none" stroke="#000000" points="41.5,-88.7 41.5,-107.7 82.5,-107.7 82.5,-88.7 41.5,-88.7"/>
<text text-anchor="start" x="47.1105" y="-94.8" font-family="Helvetica,sans-Serif" font-size="11.00" fill="#000000">0 rows</text>
<polygon fill="#ffffff" stroke="transparent" points="82.5,-88.7 82.5,-107.7 107.5,-107.7 107.5,-88.7 82.5,-88.7"/>
<polygon fill="none" stroke="#000000" points="82.5,-88.7 82.5,-107.7 107.5,-107.7 107.5,-88.7 82.5,-88.7"/>
<text text-anchor="start" x="88.9053" y="-94.8" font-family="Helvetica,sans-Serif" font-size="11.00" fill="#000000">3 &gt;</text>
</a>
</g>
</g>
<!-- chapter_users&#45;&gt;chapters -->
<g id="edge1" class="edge">
<title>chapter_users:w&#45;&gt;chapters:e</title>
<path fill="none" stroke="#000000" d="M371.3484,-65.9387C257.8569,-69.7022 228.2977,-116.7 107.5,-116.7"/>
<polygon fill="#000000" stroke="#000000" points="378.0011,-65.8304 386.0587,-69.2995 382.0005,-65.7652 386,-65.7 386,-65.7 386,-65.7 382.0005,-65.7652 385.9413,-62.1005 378.0011,-65.8304 378.0011,-65.8304"/>
<ellipse fill="none" stroke="#000000" cx="374.8015" cy="-65.8825" rx="3.2" ry="3.2"/>
</g>
<!-- users -->
<g id="node3" class="node">
<title>users</title>
<g id="a_node3"><a xlink:href="../../tables/users.html" xlink:title="users" target="_top">
<polygon fill="#ffffff" stroke="transparent" points="170,-148.2 170,-275.2 286,-275.2 286,-148.2 170,-148.2"/>
<polygon fill="#f5f5f5" stroke="transparent" points="170,-251.7 170,-274.7 286,-274.7 286,-251.7 170,-251.7"/>
<polygon fill="none" stroke="#000000" points="170,-251.7 170,-274.7 286,-274.7 286,-251.7 170,-251.7"/>
<text text-anchor="start" x="175" y="-260.8" font-family="Helvetica,sans-Serif" font-weight="bold" font-size="11.00" fill="#000000">users</text>
<text text-anchor="start" x="251.0437" y="-259.8" font-family="Helvetica,sans-Serif" font-size="11.00" fill="#000000">[table]</text>
<polygon fill="none" stroke="#000000" points="170,-229.7 170,-251.7 286,-251.7 286,-229.7 170,-229.7"/>
<image xlink:href="../../images/primaryKeys.png" width="11px" height="12px" preserveAspectRatio="xMinYMin meet" x="175" y="-246.7"/>
<text text-anchor="start" x="190" y="-236.8" font-family="Helvetica,sans-Serif" font-size="11.00" fill="#000000">id</text>
<polygon fill="#ffffff" stroke="transparent" points="170,-207.7 170,-229.7 286,-229.7 286,-207.7 170,-207.7"/>
<polygon fill="none" stroke="#000000" points="170,-207.7 170,-229.7 286,-229.7 286,-207.7 170,-207.7"/>
<text text-anchor="start" x="190" y="-214.8" font-family="Helvetica,sans-Serif" font-size="11.00" fill="#000000">email</text>
<polygon fill="none" stroke="#000000" points="170,-185.7 170,-207.7 286,-207.7 286,-185.7 170,-185.7"/>
<image xlink:href="../../images/foreignKeys.png" width="11px" height="12px" preserveAspectRatio="xMinYMin meet" x="175" y="-202.7"/>
<text text-anchor="start" x="190" y="-192.8" font-family="Helvetica,sans-Serif" font-size="11.00" fill="#000000">instance_role_id</text>
<polygon fill="none" stroke="#000000" points="170,-166.7 170,-185.7 286,-185.7 286,-166.7 170,-166.7"/>
<text text-anchor="start" x="173" y="-172.8" font-family="Helvetica,sans-Serif" font-size="11.00" fill="#000000">...</text>
<polygon fill="#ffffff" stroke="transparent" points="170,-147.7 170,-166.7 209,-166.7 209,-147.7 170,-147.7"/>
<polygon fill="none" stroke="#000000" points="170,-147.7 170,-166.7 209,-166.7 209,-147.7 170,-147.7"/>
<text text-anchor="start" x="173" y="-153.8" font-family="Helvetica,sans-Serif" font-size="11.00" fill="#000000">&lt; 1</text>
<polygon fill="#ffffff" stroke="transparent" points="209,-147.7 209,-166.7 256,-166.7 256,-147.7 209,-147.7"/>
<polygon fill="none" stroke="#000000" points="209,-147.7 209,-166.7 256,-166.7 256,-147.7 209,-147.7"/>
<text text-anchor="start" x="220.6105" y="-153.8" font-family="Helvetica,sans-Serif" font-size="11.00" fill="#000000">0 rows</text>
<polygon fill="#ffffff" stroke="transparent" points="256,-147.7 256,-166.7 286,-166.7 286,-147.7 256,-147.7"/>
<polygon fill="none" stroke="#000000" points="256,-147.7 256,-166.7 286,-166.7 286,-147.7 256,-147.7"/>
<text text-anchor="start" x="267.4053" y="-153.8" font-family="Helvetica,sans-Serif" font-size="11.00" fill="#000000">5 &gt;</text>
</a>
</g>
</g>
<!-- chapter_users&#45;&gt;users -->
<g id="edge2" class="edge">
<title>chapter_users:w&#45;&gt;users:e</title>
<path fill="none" stroke="#000000" d="M371.4866,-67.1278C350.4867,-71.7808 342.74,-87.4963 327,-109.7 291.7184,-159.4703 347.0072,-240.7 286,-240.7"/>
<polygon fill="#000000" stroke="#000000" points="378.0384,-66.4833 386.3525,-69.2827 382.0192,-66.0917 386,-65.7 386,-65.7 386,-65.7 382.0192,-66.0917 385.6475,-62.1173 378.0384,-66.4833 378.0384,-66.4833"/>
<ellipse fill="none" stroke="#000000" cx="374.8538" cy="-66.7966" rx="3.2" ry="3.2"/>
</g>
<!-- instance_roles -->
<g id="node12" class="node">
<title>instance_roles</title>
<g id="a_node12"><a xlink:href="../../tables/instance_roles.html" xlink:title="instance_roles" target="_top">
<polygon fill="#ffffff" stroke="transparent" points="8,-171.2 8,-232.2 121,-232.2 121,-171.2 8,-171.2"/>
<polygon fill="#f5f5f5" stroke="transparent" points="8.5,-208.7 8.5,-231.7 121.5,-231.7 121.5,-208.7 8.5,-208.7"/>
<polygon fill="none" stroke="#000000" points="8.5,-208.7 8.5,-231.7 121.5,-231.7 121.5,-208.7 8.5,-208.7"/>
<text text-anchor="start" x="13.0476" y="-217.8" font-family="Helvetica,sans-Serif" font-weight="bold" font-size="11.00" fill="#000000">instance_roles</text>
<text text-anchor="start" x="87.0219" y="-216.8" font-family="Helvetica,sans-Serif" font-size="11.00" fill="#000000">[table]</text>
<polygon fill="none" stroke="#000000" points="8.5,-189.7 8.5,-208.7 121.5,-208.7 121.5,-189.7 8.5,-189.7"/>
<text text-anchor="start" x="11.5" y="-195.8" font-family="Helvetica,sans-Serif" font-size="11.00" fill="#000000">...</text>
<polygon fill="#ffffff" stroke="transparent" points="8.5,-170.7 8.5,-189.7 41.5,-189.7 41.5,-170.7 8.5,-170.7"/>
<polygon fill="none" stroke="#000000" points="8.5,-170.7 8.5,-189.7 41.5,-189.7 41.5,-170.7 8.5,-170.7"/>
<text text-anchor="start" x="11.5" y="-176.8" font-family="Helvetica,sans-Serif" font-size="11.00" fill="#000000"> &#160;</text>
<polygon fill="#ffffff" stroke="transparent" points="41.5,-170.7 41.5,-189.7 89.5,-189.7 89.5,-170.7 41.5,-170.7"/>
<polygon fill="none" stroke="#000000" points="41.5,-170.7 41.5,-189.7 89.5,-189.7 89.5,-170.7 41.5,-170.7"/>
<text text-anchor="start" x="54.1105" y="-176.8" font-family="Helvetica,sans-Serif" font-size="11.00" fill="#000000">0 rows</text>
<polygon fill="#ffffff" stroke="transparent" points="89.5,-170.7 89.5,-189.7 121.5,-189.7 121.5,-170.7 89.5,-170.7"/>
<polygon fill="none" stroke="#000000" points="89.5,-170.7 89.5,-189.7 121.5,-189.7 121.5,-170.7 89.5,-170.7"/>
<text text-anchor="start" x="102.9053" y="-176.8" font-family="Helvetica,sans-Serif" font-size="11.00" fill="#000000">2 &gt;</text>
</a>
</g>
</g>
<!-- users&#45;&gt;instance_roles -->
<g id="edge17" class="edge">
<title>users:w&#45;&gt;instance_roles:e</title>
<path fill="none" stroke="#000000" d="M155.278,-197.0668C144.2863,-197.6442 137.1748,-198.7 121.5,-198.7"/>
<polygon fill="#000000" stroke="#000000" points="162.0025,-196.8993 170.0897,-200.2989 166.0012,-196.7997 170,-196.7 170,-196.7 170,-196.7 166.0012,-196.7997 169.9103,-193.1011 162.0025,-196.8993 162.0025,-196.8993"/>
<ellipse fill="none" stroke="#000000" cx="158.8035" cy="-196.9791" rx="3.2" ry="3.2"/>
</g>
<!-- event_reminders -->
<g id="node4" class="node">
<title>event_reminders</title>
<g id="a_node4"><a xlink:href="../../tables/event_reminders.html" xlink:title="event_reminders" target="_top">
<polygon fill="#ffffff" stroke="transparent" points="598,-429.2 598,-490.2 722,-490.2 722,-429.2 598,-429.2"/>
<polygon fill="#f5f5f5" stroke="transparent" points="598,-466.7 598,-489.7 722,-489.7 722,-466.7 598,-466.7"/>
<polygon fill="none" stroke="#000000" points="598,-466.7 598,-489.7 722,-489.7 722,-466.7 598,-466.7"/>
<text text-anchor="start" x="602.5486" y="-475.8" font-family="Helvetica,sans-Serif" font-weight="bold" font-size="11.00" fill="#000000">event_reminders</text>
<text text-anchor="start" x="687.5219" y="-474.8" font-family="Helvetica,sans-Serif" font-size="11.00" fill="#000000">[table]</text>
<polygon fill="none" stroke="#000000" points="598,-447.7 598,-466.7 722,-466.7 722,-447.7 598,-447.7"/>
<text text-anchor="start" x="601" y="-453.8" font-family="Helvetica,sans-Serif" font-size="11.00" fill="#000000">...</text>
<polygon fill="#ffffff" stroke="transparent" points="598,-428.7 598,-447.7 645,-447.7 645,-428.7 598,-428.7"/>
<polygon fill="none" stroke="#000000" points="598,-428.7 598,-447.7 645,-447.7 645,-428.7 598,-428.7"/>
<text text-anchor="start" x="601" y="-434.8" font-family="Helvetica,sans-Serif" font-size="11.00" fill="#000000">&lt; 4</text>
<polygon fill="#ffffff" stroke="transparent" points="645,-428.7 645,-447.7 696,-447.7 696,-428.7 645,-428.7"/>
<polygon fill="none" stroke="#000000" points="645,-428.7 645,-447.7 696,-447.7 696,-428.7 645,-428.7"/>
<text text-anchor="start" x="660.6105" y="-434.8" font-family="Helvetica,sans-Serif" font-size="11.00" fill="#000000">0 rows</text>
<polygon fill="#ffffff" stroke="transparent" points="696,-428.7 696,-447.7 722,-447.7 722,-428.7 696,-428.7"/>
<polygon fill="none" stroke="#000000" points="696,-428.7 696,-447.7 722,-447.7 722,-428.7 696,-428.7"/>
<text text-anchor="start" x="712.8862" y="-434.8" font-family="Helvetica,sans-Serif" font-size="11.00" fill="#000000"> &#160;</text>
</a>
</g>
</g>
<!-- event_reminders&#45;&gt;users -->
<g id="edge6" class="edge">
<title>event_reminders:w&#45;&gt;users:e</title>
<path fill="none" stroke="#000000" d="M583.563,-455.429C505.144,-439.8088 634.9195,-284.3441 557,-218.7 517.9114,-185.7694 376.5693,-206.2411 327,-218.7 306.944,-223.7409 306.6798,-240.7 286,-240.7"/>
<polygon fill="#000000" stroke="#000000" points="590.0308,-455.9983 597.6843,-460.2861 594.0154,-456.3492 598,-456.7 598,-456.7 598,-456.7 594.0154,-456.3492 598.3157,-453.1139 590.0308,-455.9983 590.0308,-455.9983"/>
<ellipse fill="none" stroke="#000000" cx="586.8432" cy="-455.7177" rx="3.2" ry="3.2"/>
</g>
<!-- events -->
<g id="node5" class="node">
<title>events</title>
<g id="a_node5"><a xlink:href="../../tables/events.html" xlink:title="events" target="_top">
<polygon fill="#ffffff" stroke="transparent" points="176,-393.2 176,-520.2 280,-520.2 280,-393.2 176,-393.2"/>
<polygon fill="#f5f5f5" stroke="transparent" points="176,-496.7 176,-519.7 280,-519.7 280,-496.7 176,-496.7"/>
<polygon fill="none" stroke="#000000" points="176,-496.7 176,-519.7 280,-519.7 280,-496.7 176,-496.7"/>
<text text-anchor="start" x="181" y="-505.8" font-family="Helvetica,sans-Serif" font-weight="bold" font-size="11.00" fill="#000000">events</text>
<text text-anchor="start" x="245.0437" y="-504.8" font-family="Helvetica,sans-Serif" font-size="11.00" fill="#000000">[table]</text>
<polygon fill="none" stroke="#000000" points="176,-474.7 176,-496.7 280,-496.7 280,-474.7 176,-474.7"/>
<image xlink:href="../../images/primaryKeys.png" width="11px" height="12px" preserveAspectRatio="xMinYMin meet" x="181" y="-491.7"/>
<text text-anchor="start" x="196" y="-481.8" font-family="Helvetica,sans-Serif" font-size="11.00" fill="#000000">id</text>
<polygon fill="none" stroke="#000000" points="176,-452.7 176,-474.7 280,-474.7 280,-452.7 176,-452.7"/>
<image xlink:href="../../images/foreignKeys.png" width="11px" height="12px" preserveAspectRatio="xMinYMin meet" x="181" y="-469.7"/>
<text text-anchor="start" x="196" y="-459.8" font-family="Helvetica,sans-Serif" font-size="11.00" fill="#000000">venue_id</text>
<polygon fill="none" stroke="#000000" points="176,-430.7 176,-452.7 280,-452.7 280,-430.7 176,-430.7"/>
<image xlink:href="../../images/foreignKeys.png" width="11px" height="12px" preserveAspectRatio="xMinYMin meet" x="181" y="-447.7"/>
<text text-anchor="start" x="196" y="-437.8" font-family="Helvetica,sans-Serif" font-size="11.00" fill="#000000">chapter_id</text>
<polygon fill="none" stroke="#000000" points="176,-411.7 176,-430.7 280,-430.7 280,-411.7 176,-411.7"/>
<text text-anchor="start" x="179" y="-417.8" font-family="Helvetica,sans-Serif" font-size="11.00" fill="#000000">...</text>
<polygon fill="#ffffff" stroke="transparent" points="176,-392.7 176,-411.7 209,-411.7 209,-392.7 176,-392.7"/>
<polygon fill="none" stroke="#000000" points="176,-392.7 176,-411.7 209,-411.7 209,-392.7 176,-392.7"/>
<text text-anchor="start" x="179" y="-398.8" font-family="Helvetica,sans-Serif" font-size="11.00" fill="#000000">&lt; 2</text>
<polygon fill="#ffffff" stroke="transparent" points="209,-392.7 209,-411.7 253,-411.7 253,-392.7 209,-392.7"/>
<polygon fill="none" stroke="#000000" points="209,-392.7 209,-411.7 253,-411.7 253,-392.7 209,-392.7"/>
<text text-anchor="start" x="217.6105" y="-398.8" font-family="Helvetica,sans-Serif" font-size="11.00" fill="#000000">0 rows</text>
<polygon fill="#ffffff" stroke="transparent" points="253,-392.7 253,-411.7 280,-411.7 280,-392.7 253,-392.7"/>
<polygon fill="none" stroke="#000000" points="253,-392.7 253,-411.7 280,-411.7 280,-392.7 253,-392.7"/>
<text text-anchor="start" x="261.4053" y="-398.8" font-family="Helvetica,sans-Serif" font-size="11.00" fill="#000000">5 &gt;</text>
</a>
</g>
</g>
<!-- event_reminders&#45;&gt;events -->
<g id="edge3" class="edge">
<title>event_reminders:w&#45;&gt;events:e</title>
<path fill="none" stroke="#000000" d="M584.3748,-461.4727C574.1616,-471.0812 575.7659,-492.5362 557,-500.7 463.2637,-541.4785 428.0052,-516.4271 327,-500.7 305.3341,-497.3265 301.9269,-485.7 280,-485.7"/>
<polygon fill="#000000" stroke="#000000" points="590.4498,-459.3447 599.1901,-460.0976 594.2249,-458.0224 598,-456.7 598,-456.7 598,-456.7 594.2249,-458.0224 596.8099,-453.3024 590.4498,-459.3447 590.4498,-459.3447"/>
<ellipse fill="none" stroke="#000000" cx="587.4297" cy="-460.4026" rx="3.2" ry="3.2"/>
</g>
<!-- rsvps -->
<g id="node6" class="node">
<title>rsvps</title>
<g id="a_node6"><a xlink:href="../../tables/rsvps.html" xlink:title="rsvps" target="_top">
<polygon fill="#ffffff" stroke="transparent" points="402,-429.2 402,-490.2 482,-490.2 482,-429.2 402,-429.2"/>
<polygon fill="#f5f5f5" stroke="transparent" points="402,-466.7 402,-489.7 482,-489.7 482,-466.7 402,-466.7"/>
<polygon fill="none" stroke="#000000" points="402,-466.7 402,-489.7 482,-489.7 482,-466.7 402,-466.7"/>
<text text-anchor="start" x="407" y="-475.8" font-family="Helvetica,sans-Serif" font-weight="bold" font-size="11.00" fill="#000000">rsvps</text>
<text text-anchor="start" x="447.0437" y="-474.8" font-family="Helvetica,sans-Serif" font-size="11.00" fill="#000000">[table]</text>
<polygon fill="none" stroke="#000000" points="402,-447.7 402,-466.7 482,-466.7 482,-447.7 402,-447.7"/>
<text text-anchor="start" x="405" y="-453.8" font-family="Helvetica,sans-Serif" font-size="11.00" fill="#000000">...</text>
<polygon fill="#ffffff" stroke="transparent" points="402,-428.7 402,-447.7 423,-447.7 423,-428.7 402,-428.7"/>
<polygon fill="none" stroke="#000000" points="402,-428.7 402,-447.7 423,-447.7 423,-428.7 402,-428.7"/>
<text text-anchor="start" x="404.7027" y="-434.8" font-family="Helvetica,sans-Serif" font-size="11.00" fill="#000000">&lt; 2</text>
<polygon fill="#ffffff" stroke="transparent" points="423,-428.7 423,-447.7 461,-447.7 461,-428.7 423,-428.7"/>
<polygon fill="none" stroke="#000000" points="423,-428.7 423,-447.7 461,-447.7 461,-428.7 423,-428.7"/>
<text text-anchor="start" x="425.8053" y="-434.8" font-family="Helvetica,sans-Serif" font-size="11.00" fill="#000000">0 rows</text>
<polygon fill="#ffffff" stroke="transparent" points="461,-428.7 461,-447.7 482,-447.7 482,-428.7 461,-428.7"/>
<polygon fill="none" stroke="#000000" points="461,-428.7 461,-447.7 482,-447.7 482,-428.7 461,-428.7"/>
<text text-anchor="start" x="463.7027" y="-434.8" font-family="Helvetica,sans-Serif" font-size="11.00" fill="#000000">2 &gt;</text>
</a>
</g>
</g>
<!-- event_reminders&#45;&gt;rsvps -->
<g id="edge4" class="edge">
<title>event_reminders:w&#45;&gt;rsvps:e</title>
<path fill="none" stroke="#000000" d="M583.6683,-455.0856C543.4931,-450.7595 528.4201,-451.2977 482,-456.7"/>
<polygon fill="#000000" stroke="#000000" points="590.0503,-455.8045 597.597,-460.2774 594.0251,-456.2522 598,-456.7 598,-456.7 598,-456.7 594.0251,-456.2522 598.403,-453.1226 590.0503,-455.8045 590.0503,-455.8045"/>
<ellipse fill="none" stroke="#000000" cx="586.8704" cy="-455.4463" rx="3.2" ry="3.2"/>
</g>
<!-- event_reminders&#45;&gt;rsvps -->
<g id="edge5" class="edge">
<title>event_reminders:w&#45;&gt;rsvps:e</title>
<path fill="none" stroke="#000000" d="M583.6683,-458.5834C543.4931,-463.6305 528.4201,-463.0027 482,-456.7"/>
<polygon fill="#000000" stroke="#000000" points="590.0682,-457.7424 598.4691,-460.2693 594.0341,-457.2212 598,-456.7 598,-456.7 598,-456.7 594.0341,-457.2212 597.5309,-453.1307 590.0682,-457.7424 590.0682,-457.7424"/>
<ellipse fill="none" stroke="#000000" cx="586.8955" cy="-458.1594" rx="3.2" ry="3.2"/>
</g>
<!-- events&#45;&gt;chapters -->
<g id="edge9" class="edge">
<title>events:w&#45;&gt;chapters:e</title>
<path fill="none" stroke="#000000" d="M162.2789,-436.8535C112.8274,-396.4246 175.9751,-116.7 107.5,-116.7"/>
<polygon fill="#000000" stroke="#000000" points="168.4567,-439.0356 174.801,-445.0945 172.2284,-440.3678 176,-441.7 176,-441.7 176,-441.7 172.2284,-440.3678 177.199,-438.3055 168.4567,-439.0356 168.4567,-439.0356"/>
<ellipse fill="none" stroke="#000000" cx="165.4394" cy="-437.9698" rx="3.2" ry="3.2"/>
</g>
<!-- venues -->
<g id="node9" class="node">
<title>venues</title>
<g id="a_node9"><a xlink:href="../../tables/venues.html" xlink:title="venues" target="_top">
<polygon fill="#ffffff" stroke="transparent" points="25.5,-436.2 25.5,-497.2 103.5,-497.2 103.5,-436.2 25.5,-436.2"/>
<polygon fill="#f5f5f5" stroke="transparent" points="25.5,-473.7 25.5,-496.7 103.5,-496.7 103.5,-473.7 25.5,-473.7"/>
<polygon fill="none" stroke="#000000" points="25.5,-473.7 25.5,-496.7 103.5,-496.7 103.5,-473.7 25.5,-473.7"/>
<text text-anchor="start" x="30.2702" y="-482.8" font-family="Helvetica,sans-Serif" font-weight="bold" font-size="11.00" fill="#000000">venues</text>
<text text-anchor="start" x="69.0219" y="-481.8" font-family="Helvetica,sans-Serif" font-size="11.00" fill="#000000">[table]</text>
<polygon fill="none" stroke="#000000" points="25.5,-454.7 25.5,-473.7 103.5,-473.7 103.5,-454.7 25.5,-454.7"/>
<text text-anchor="start" x="28.5" y="-460.8" font-family="Helvetica,sans-Serif" font-size="11.00" fill="#000000">...</text>
<polygon fill="#ffffff" stroke="transparent" points="25.5,-435.7 25.5,-454.7 40.5,-454.7 40.5,-435.7 25.5,-435.7"/>
<polygon fill="none" stroke="#000000" points="25.5,-435.7 25.5,-454.7 40.5,-454.7 40.5,-435.7 25.5,-435.7"/>
<text text-anchor="start" x="28.5" y="-441.8" font-family="Helvetica,sans-Serif" font-size="11.00" fill="#000000"> &#160;</text>
<polygon fill="#ffffff" stroke="transparent" points="40.5,-435.7 40.5,-454.7 80.5,-454.7 80.5,-435.7 40.5,-435.7"/>
<polygon fill="none" stroke="#000000" points="40.5,-435.7 40.5,-454.7 80.5,-454.7 80.5,-435.7 40.5,-435.7"/>
<text text-anchor="start" x="45.1105" y="-441.8" font-family="Helvetica,sans-Serif" font-size="11.00" fill="#000000">0 rows</text>
<polygon fill="#ffffff" stroke="transparent" points="80.5,-435.7 80.5,-454.7 103.5,-454.7 103.5,-435.7 80.5,-435.7"/>
<polygon fill="none" stroke="#000000" points="80.5,-435.7 80.5,-454.7 103.5,-454.7 103.5,-435.7 80.5,-435.7"/>
<text text-anchor="start" x="84.9053" y="-441.8" font-family="Helvetica,sans-Serif" font-size="11.00" fill="#000000">1 &gt;</text>
</a>
</g>
</g>
<!-- events&#45;&gt;venues -->
<g id="edge10" class="edge">
<title>events:w&#45;&gt;venues:e</title>
<path fill="none" stroke="#000000" d="M161.5794,-463.7C140.3898,-463.7 130.3099,-463.7 103.5,-463.7"/>
<polygon fill="#000000" stroke="#000000" points="168,-463.7001 176,-467.3 172,-463.7 176,-463.7 176,-463.7 176,-463.7 172,-463.7 176,-460.1 168,-463.7001 168,-463.7001"/>
<ellipse fill="none" stroke="#000000" cx="164.8" cy="-463.7001" rx="3.2" ry="3.2"/>
</g>
<!-- rsvps&#45;&gt;users -->
<g id="edge12" class="edge">
<title>rsvps:w&#45;&gt;users:e</title>
<path fill="none" stroke="#000000" d="M387.4355,-456.1171C360.2062,-453.6793 346.7819,-443.2176 327,-417.7 277.5261,-353.8813 366.7496,-240.7 286,-240.7"/>
<polygon fill="#000000" stroke="#000000" points="394.0064,-456.38 401.856,-460.2971 398.0032,-456.54 402,-456.7 402,-456.7 402,-456.7 398.0032,-456.54 402.144,-453.1029 394.0064,-456.38 394.0064,-456.38"/>
<ellipse fill="none" stroke="#000000" cx="390.809" cy="-456.252" rx="3.2" ry="3.2"/>
</g>
<!-- rsvps&#45;&gt;events -->
<g id="edge11" class="edge">
<title>rsvps:w&#45;&gt;events:e</title>
<path fill="none" stroke="#000000" d="M387.4424,-457.4169C343.8946,-461.8826 330.5081,-485.7 280,-485.7"/>
<polygon fill="#000000" stroke="#000000" points="394.0097,-457.0935 402.1771,-460.2956 398.0048,-456.8968 402,-456.7 402,-456.7 402,-456.7 398.0048,-456.8968 401.8229,-453.1044 394.0097,-457.0935 394.0097,-457.0935"/>
<ellipse fill="none" stroke="#000000" cx="390.8136" cy="-457.2509" rx="3.2" ry="3.2"/>
</g>
<!-- event_sponsors -->
<g id="node7" class="node">
<title>event_sponsors</title>
<g id="a_node7"><a xlink:href="../../tables/event_sponsors.html" xlink:title="event_sponsors" target="_top">
<polygon fill="#ffffff" stroke="transparent" points="382,-539.2 382,-600.2 502,-600.2 502,-539.2 382,-539.2"/>
<polygon fill="#f5f5f5" stroke="transparent" points="382,-576.7 382,-599.7 502,-599.7 502,-576.7 382,-576.7"/>
<polygon fill="none" stroke="#000000" points="382,-576.7 382,-599.7 502,-599.7 502,-576.7 382,-576.7"/>
<text text-anchor="start" x="386.681" y="-585.8" font-family="Helvetica,sans-Serif" font-weight="bold" font-size="11.00" fill="#000000">event_sponsors</text>
<text text-anchor="start" x="467.5219" y="-584.8" font-family="Helvetica,sans-Serif" font-size="11.00" fill="#000000">[table]</text>
<polygon fill="none" stroke="#000000" points="382,-557.7 382,-576.7 502,-576.7 502,-557.7 382,-557.7"/>
<text text-anchor="start" x="385" y="-563.8" font-family="Helvetica,sans-Serif" font-size="11.00" fill="#000000">...</text>
<polygon fill="#ffffff" stroke="transparent" points="382,-538.7 382,-557.7 427,-557.7 427,-538.7 382,-538.7"/>
<polygon fill="none" stroke="#000000" points="382,-538.7 382,-557.7 427,-557.7 427,-538.7 382,-538.7"/>
<text text-anchor="start" x="385" y="-544.8" font-family="Helvetica,sans-Serif" font-size="11.00" fill="#000000">&lt; 2</text>
<polygon fill="#ffffff" stroke="transparent" points="427,-538.7 427,-557.7 477,-557.7 477,-538.7 427,-538.7"/>
<polygon fill="none" stroke="#000000" points="427,-538.7 427,-557.7 477,-557.7 477,-538.7 427,-538.7"/>
<text text-anchor="start" x="441.6105" y="-544.8" font-family="Helvetica,sans-Serif" font-size="11.00" fill="#000000">0 rows</text>
<polygon fill="#ffffff" stroke="transparent" points="477,-538.7 477,-557.7 502,-557.7 502,-538.7 477,-538.7"/>
<polygon fill="none" stroke="#000000" points="477,-538.7 477,-557.7 502,-557.7 502,-538.7 477,-538.7"/>
<text text-anchor="start" x="492.8862" y="-544.8" font-family="Helvetica,sans-Serif" font-size="11.00" fill="#000000"> &#160;</text>
</a>
</g>
</g>
<!-- event_sponsors&#45;&gt;events -->
<g id="edge7" class="edge">
<title>event_sponsors:w&#45;&gt;events:e</title>
<path fill="none" stroke="#000000" d="M367.5651,-564.4657C350.3357,-558.2636 346.5502,-540.2654 327,-524.7 305.7647,-507.7929 307.1439,-485.7 280,-485.7"/>
<polygon fill="#000000" stroke="#000000" points="374.0941,-565.4762 381.4493,-570.2576 378.0471,-566.0881 382,-566.7 382,-566.7 382,-566.7 378.0471,-566.0881 382.5507,-563.1424 374.0941,-565.4762 374.0941,-565.4762"/>
<ellipse fill="none" stroke="#000000" cx="370.9318" cy="-564.9867" rx="3.2" ry="3.2"/>
</g>
<!-- event_tags -->
<g id="node8" class="node">
<title>event_tags</title>
<g id="a_node8"><a xlink:href="../../tables/event_tags.html" xlink:title="event_tags" target="_top">
<polygon fill="#ffffff" stroke="transparent" points="394,-621.2 394,-682.2 490,-682.2 490,-621.2 394,-621.2"/>
<polygon fill="#f5f5f5" stroke="transparent" points="394,-658.7 394,-681.7 490,-681.7 490,-658.7 394,-658.7"/>
<polygon fill="none" stroke="#000000" points="394,-658.7 394,-681.7 490,-681.7 490,-658.7 394,-658.7"/>
<text text-anchor="start" x="398.5984" y="-667.8" font-family="Helvetica,sans-Serif" font-weight="bold" font-size="11.00" fill="#000000">event_tags</text>
<text text-anchor="start" x="455.5219" y="-666.8" font-family="Helvetica,sans-Serif" font-size="11.00" fill="#000000">[table]</text>
<polygon fill="none" stroke="#000000" points="394,-639.7 394,-658.7 490,-658.7 490,-639.7 394,-639.7"/>
<text text-anchor="start" x="397" y="-645.8" font-family="Helvetica,sans-Serif" font-size="11.00" fill="#000000">...</text>
<polygon fill="#ffffff" stroke="transparent" points="394,-620.7 394,-639.7 427,-639.7 427,-620.7 394,-620.7"/>
<polygon fill="none" stroke="#000000" points="394,-620.7 394,-639.7 427,-639.7 427,-620.7 394,-620.7"/>
<text text-anchor="start" x="397" y="-626.8" font-family="Helvetica,sans-Serif" font-size="11.00" fill="#000000">&lt; 2</text>
<polygon fill="#ffffff" stroke="transparent" points="427,-620.7 427,-639.7 471,-639.7 471,-620.7 427,-620.7"/>
<polygon fill="none" stroke="#000000" points="427,-620.7 427,-639.7 471,-639.7 471,-620.7 427,-620.7"/>
<text text-anchor="start" x="435.6105" y="-626.8" font-family="Helvetica,sans-Serif" font-size="11.00" fill="#000000">0 rows</text>
<polygon fill="#ffffff" stroke="transparent" points="471,-620.7 471,-639.7 490,-639.7 490,-620.7 471,-620.7"/>
<polygon fill="none" stroke="#000000" points="471,-620.7 471,-639.7 490,-639.7 490,-620.7 471,-620.7"/>
<text text-anchor="start" x="480.8862" y="-626.8" font-family="Helvetica,sans-Serif" font-size="11.00" fill="#000000"> &#160;</text>
</a>
</g>
</g>
<!-- event_tags&#45;&gt;events -->
<g id="edge8" class="edge">
<title>event_tags:w&#45;&gt;events:e</title>
<path fill="none" stroke="#000000" d="M379.5544,-647.8149C356.1917,-644.6142 345.7679,-632.6566 327,-610.7 288.4353,-565.5832 339.3529,-485.7 280,-485.7"/>
<polygon fill="#000000" stroke="#000000" points="386.015,-648.2107 393.7798,-652.2933 390.0075,-648.4553 394,-648.7 394,-648.7 394,-648.7 390.0075,-648.4553 394.2202,-645.1067 386.015,-648.2107 386.015,-648.2107"/>
<ellipse fill="none" stroke="#000000" cx="382.821" cy="-648.0149" rx="3.2" ry="3.2"/>
</g>
<!-- user_bans -->
<g id="node10" class="node">
<title>user_bans</title>
<g id="a_node10"><a xlink:href="../../tables/user_bans.html" xlink:title="user_bans" target="_top">
<polygon fill="#ffffff" stroke="transparent" points="395,-120.2 395,-181.2 489,-181.2 489,-120.2 395,-120.2"/>
<polygon fill="#f5f5f5" stroke="transparent" points="395,-157.7 395,-180.7 489,-180.7 489,-157.7 395,-157.7"/>
<polygon fill="none" stroke="#000000" points="395,-157.7 395,-180.7 489,-180.7 489,-157.7 395,-157.7"/>
<text text-anchor="start" x="399.8244" y="-166.8" font-family="Helvetica,sans-Serif" font-weight="bold" font-size="11.00" fill="#000000">user_bans</text>
<text text-anchor="start" x="454.5219" y="-165.8" font-family="Helvetica,sans-Serif" font-size="11.00" fill="#000000">[table]</text>
<polygon fill="none" stroke="#000000" points="395,-138.7 395,-157.7 489,-157.7 489,-138.7 395,-138.7"/>
<text text-anchor="start" x="398" y="-144.8" font-family="Helvetica,sans-Serif" font-size="11.00" fill="#000000">...</text>
<polygon fill="#ffffff" stroke="transparent" points="395,-119.7 395,-138.7 427,-138.7 427,-119.7 395,-119.7"/>
<polygon fill="none" stroke="#000000" points="395,-119.7 395,-138.7 427,-138.7 427,-119.7 395,-119.7"/>
<text text-anchor="start" x="398" y="-125.8" font-family="Helvetica,sans-Serif" font-size="11.00" fill="#000000">&lt; 2</text>
<polygon fill="#ffffff" stroke="transparent" points="427,-119.7 427,-138.7 471,-138.7 471,-119.7 427,-119.7"/>
<polygon fill="none" stroke="#000000" points="427,-119.7 427,-138.7 471,-138.7 471,-119.7 427,-119.7"/>
<text text-anchor="start" x="435.6105" y="-125.8" font-family="Helvetica,sans-Serif" font-size="11.00" fill="#000000">0 rows</text>
<polygon fill="#ffffff" stroke="transparent" points="471,-119.7 471,-138.7 489,-138.7 489,-119.7 471,-119.7"/>
<polygon fill="none" stroke="#000000" points="471,-119.7 471,-138.7 489,-138.7 489,-119.7 471,-119.7"/>
<text text-anchor="start" x="479.8862" y="-125.8" font-family="Helvetica,sans-Serif" font-size="11.00" fill="#000000"> &#160;</text>
</a>
</g>
</g>
<!-- user_bans&#45;&gt;chapters -->
<g id="edge13" class="edge">
<title>user_bans:w&#45;&gt;chapters:e</title>
<path fill="none" stroke="#000000" d="M380.4753,-146.8708C321.0913,-141.941 136.492,-116.7 107.5,-116.7"/>
<polygon fill="#000000" stroke="#000000" points="387.013,-147.244 394.7948,-151.2941 391.0065,-147.472 395,-147.7 395,-147.7 395,-147.7 391.0065,-147.472 395.2052,-144.1059 387.013,-147.244 387.013,-147.244"/>
<ellipse fill="none" stroke="#000000" cx="383.8182" cy="-147.0616" rx="3.2" ry="3.2"/>
</g>
<!-- user_bans&#45;&gt;users -->
<g id="edge14" class="edge">
<title>user_bans:w&#45;&gt;users:e</title>
<path fill="none" stroke="#000000" d="M380.565,-149.1807C356.4957,-154.7028 350.6153,-174.8507 327,-195.7 306.7173,-213.607 313.0564,-240.7 286,-240.7"/>
<polygon fill="#000000" stroke="#000000" points="387.0418,-148.5164 395.3674,-151.2812 391.0209,-148.1082 395,-147.7 395,-147.7 395,-147.7 391.0209,-148.1082 394.6326,-144.1188 387.0418,-148.5164 387.0418,-148.5164"/>
<ellipse fill="none" stroke="#000000" cx="383.8585" cy="-148.8429" rx="3.2" ry="3.2"/>
</g>
<!-- user_event_roles -->
<g id="node11" class="node">
<title>user_event_roles</title>
<g id="a_node11"><a xlink:href="../../tables/user_event_roles.html" xlink:title="user_event_roles" target="_top">
<polygon fill="#ffffff" stroke="transparent" points="335,-229.7 335,-407.7 549,-407.7 549,-229.7 335,-229.7"/>
<polygon fill="#f5f5f5" stroke="transparent" points="337,-382.7 337,-405.7 547,-405.7 547,-382.7 337,-382.7"/>
<polygon fill="none" stroke="#000000" points="337,-382.7 337,-405.7 547,-405.7 547,-382.7 337,-382.7"/>
<text text-anchor="start" x="342" y="-391.8" font-family="Helvetica,sans-Serif" font-weight="bold" font-size="11.00" fill="#000000">user_event_roles</text>
<text text-anchor="start" x="512.0437" y="-390.8" font-family="Helvetica,sans-Serif" font-size="11.00" fill="#000000">[table]</text>
<polygon fill="none" stroke="#000000" points="337,-360.7 337,-382.7 457,-382.7 457,-360.7 337,-360.7"/>
<text text-anchor="start" x="357" y="-367.8" font-family="Helvetica,sans-Serif" font-size="11.00" fill="#000000">created_at</text>
<polygon fill="none" stroke="#000000" points="457,-360.7 457,-382.7 547,-382.7 547,-360.7 457,-360.7"/>
<text text-anchor="start" x="460" y="-368.4" font-family="Helvetica,sans-Serif" font-size="11.00" fill="#000000">timestamp[26,3]</text>
<polygon fill="none" stroke="#000000" points="337,-338.7 337,-360.7 457,-360.7 457,-338.7 337,-338.7"/>
<text text-anchor="start" x="357" y="-345.8" font-family="Helvetica,sans-Serif" font-size="11.00" fill="#000000">updated_at</text>
<polygon fill="none" stroke="#000000" points="457,-338.7 457,-360.7 547,-360.7 547,-338.7 457,-338.7"/>
<text text-anchor="start" x="460" y="-346.4" font-family="Helvetica,sans-Serif" font-size="11.00" fill="#000000">timestamp[26,3]</text>
<polygon fill="none" stroke="#000000" points="337,-316.7 337,-338.7 457,-338.7 457,-316.7 337,-316.7"/>
<image xlink:href="../../images/primaryKeys.png" width="11px" height="12px" preserveAspectRatio="xMinYMin meet" x="342" y="-333.7"/>
<text text-anchor="start" x="357" y="-323.8" font-family="Helvetica,sans-Serif" font-size="11.00" fill="#000000">user_id</text>
<polygon fill="none" stroke="#000000" points="457,-316.7 457,-338.7 547,-338.7 547,-316.7 457,-316.7"/>
<text text-anchor="start" x="460" y="-324.4" font-family="Helvetica,sans-Serif" font-size="11.00" fill="#000000">int4[10]</text>
<polygon fill="none" stroke="#000000" points="337,-294.7 337,-316.7 457,-316.7 457,-294.7 337,-294.7"/>
<image xlink:href="../../images/primaryKeys.png" width="11px" height="12px" preserveAspectRatio="xMinYMin meet" x="342" y="-311.7"/>
<text text-anchor="start" x="357" y="-301.8" font-family="Helvetica,sans-Serif" font-size="11.00" fill="#000000">event_id</text>
<polygon fill="none" stroke="#000000" points="457,-294.7 457,-316.7 547,-316.7 547,-294.7 457,-294.7"/>
<text text-anchor="start" x="460" y="-302.4" font-family="Helvetica,sans-Serif" font-size="11.00" fill="#000000">int4[10]</text>
<polygon fill="none" stroke="#000000" points="337,-272.7 337,-294.7 457,-294.7 457,-272.7 337,-272.7"/>
<image xlink:href="../../images/primaryKeys.png" width="11px" height="12px" preserveAspectRatio="xMinYMin meet" x="342" y="-289.7"/>
<text text-anchor="start" x="357" y="-279.8" font-family="Helvetica,sans-Serif" font-size="11.00" fill="#000000">role_name</text>
<polygon fill="none" stroke="#000000" points="457,-272.7 457,-294.7 547,-294.7 547,-272.7 457,-272.7"/>
<text text-anchor="start" x="459.5043" y="-280.4" font-family="Helvetica,sans-Serif" font-size="11.00" fill="#000000">text[2147483647]</text>
<polygon fill="none" stroke="#000000" points="337,-250.7 337,-272.7 457,-272.7 457,-250.7 337,-250.7"/>
<text text-anchor="start" x="357" y="-257.8" font-family="Helvetica,sans-Serif" font-size="11.00" fill="#000000">subscribed</text>
<polygon fill="none" stroke="#000000" points="457,-250.7 457,-272.7 547,-272.7 547,-250.7 457,-250.7"/>
<text text-anchor="start" x="460" y="-258.4" font-family="Helvetica,sans-Serif" font-size="11.00" fill="#000000">bool[1]</text>
<polygon fill="#ffffff" stroke="transparent" points="337,-231.7 337,-250.7 388,-250.7 388,-231.7 337,-231.7"/>
<polygon fill="none" stroke="#000000" points="337,-231.7 337,-250.7 388,-250.7 388,-231.7 337,-231.7"/>
<text text-anchor="start" x="340" y="-237.8" font-family="Helvetica,sans-Serif" font-size="11.00" fill="#000000">&lt; 2</text>
<polygon fill="#ffffff" stroke="transparent" points="388,-231.7 388,-250.7 457,-250.7 457,-231.7 388,-231.7"/>
<polygon fill="none" stroke="#000000" points="388,-231.7 388,-250.7 457,-250.7 457,-231.7 388,-231.7"/>
<text text-anchor="start" x="421.6105" y="-237.8" font-family="Helvetica,sans-Serif" font-size="11.00" fill="#000000">0 rows</text>
<polygon fill="#ffffff" stroke="transparent" points="457,-231.7 457,-250.7 547,-250.7 547,-231.7 457,-231.7"/>
<polygon fill="none" stroke="#000000" points="457,-231.7 457,-250.7 547,-250.7 547,-231.7 457,-231.7"/>
<text text-anchor="start" x="528.4053" y="-237.8" font-family="Helvetica,sans-Serif" font-size="11.00" fill="#000000">0 &gt;</text>
<polygon fill="none" stroke="#000000" stroke-width="2" points="336,-230.7 336,-406.7 548,-406.7 548,-230.7 336,-230.7"/>
</a>
</g>
</g>
<!-- user_event_roles&#45;&gt;users -->
<g id="edge16" class="edge">
<title>user_event_roles:w&#45;&gt;users:e</title>
<path fill="none" stroke="#000000" d="M323.1673,-323.5038C300.9713,-306.1252 324.8679,-240.7 286,-240.7"/>
<polygon fill="#000000" stroke="#000000" points="329.3445,-325.3776 335.9549,-331.145 333.1722,-326.5388 337,-327.7 337,-327.7 337,-327.7 333.1722,-326.5388 338.0451,-324.255 329.3445,-325.3776 329.3445,-325.3776"/>
<ellipse fill="none" stroke="#000000" cx="326.2823" cy="-324.4487" rx="3.2" ry="3.2"/>
</g>
<!-- user_event_roles&#45;&gt;events -->
<g id="edge15" class="edge">
<title>user_event_roles:w&#45;&gt;events:e</title>
<path fill="none" stroke="#000000" d="M322.7448,-307.9759C266.9456,-328.8125 358.3428,-485.7 280,-485.7"/>
<polygon fill="#000000" stroke="#000000" points="329.1,-306.9613 337.5676,-309.255 333.05,-306.3306 337,-305.7 337,-305.7 337,-305.7 333.05,-306.3306 336.4324,-302.145 329.1,-306.9613 329.1,-306.9613"/>
<ellipse fill="none" stroke="#000000" cx="325.9401" cy="-307.4658" rx="3.2" ry="3.2"/>
</g>
</g>
</svg>
