<?xml version="1.0" encoding="UTF-8" standalone="no"?>
<!DOCTYPE svg PUBLIC "-//W3C//DTD SVG 1.1//EN"
 "http://www.w3.org/Graphics/SVG/1.1/DTD/svg11.dtd">
<!-- Generated by graphviz version 2.40.1 (20161225.0304)
 -->
<!-- Title: twoDegreesRelationshipsDiagram Pages: 1 -->
<svg width="816pt" height="592pt"
 viewBox="0.00 0.00 816.00 591.89" xmlns="http://www.w3.org/2000/svg" xmlns:xlink="http://www.w3.org/1999/xlink">
<g id="graph0" class="graph" transform="scale(1 1) rotate(0) translate(4 587.8869)">
<title>twoDegreesRelationshipsDiagram</title>
<polygon fill="#ffffff" stroke="transparent" points="-4,4 -4,-587.8869 812,-587.8869 812,4 -4,4"/>
<text text-anchor="middle" x="72.4936" y="-7.3" font-family="Helvetica,sans-Serif" font-size="11.00" fill="#000000">Generated by SchemaSpy</text>
<!-- chapters -->
<g id="node1" class="node">
<title>chapters</title>
<g id="a_node1"><a xlink:href="../../tables/chapters.html" xlink:title="chapters" target="_top">
<polygon fill="#ffffff" stroke="transparent" points="295,-257.7 295,-362.7 392,-362.7 392,-257.7 295,-257.7"/>
<polygon fill="#f5f5f5" stroke="transparent" points="295.5,-339.2 295.5,-362.2 392.5,-362.2 392.5,-339.2 295.5,-339.2"/>
<polygon fill="none" stroke="#000000" points="295.5,-339.2 295.5,-362.2 392.5,-362.2 392.5,-339.2 295.5,-339.2"/>
<text text-anchor="start" x="300.5" y="-348.3" font-family="Helvetica,sans-Serif" font-weight="bold" font-size="11.00" fill="#000000">chapters</text>
<text text-anchor="start" x="357.5437" y="-347.3" font-family="Helvetica,sans-Serif" font-size="11.00" fill="#000000">[table]</text>
<polygon fill="none" stroke="#000000" points="295.5,-317.2 295.5,-339.2 392.5,-339.2 392.5,-317.2 295.5,-317.2"/>
<image xlink:href="../../images/primaryKeys.png" width="11px" height="12px" preserveAspectRatio="xMinYMin meet" x="300.5" y="-334.2"/>
<text text-anchor="start" x="315.5" y="-324.3" font-family="Helvetica,sans-Serif" font-size="11.00" fill="#000000">id</text>
<polygon fill="none" stroke="#000000" points="295.5,-295.2 295.5,-317.2 392.5,-317.2 392.5,-295.2 295.5,-295.2"/>
<image xlink:href="../../images/foreignKeys.png" width="11px" height="12px" preserveAspectRatio="xMinYMin meet" x="300.5" y="-312.2"/>
<text text-anchor="start" x="315.5" y="-302.3" font-family="Helvetica,sans-Serif" font-size="11.00" fill="#000000">creator_id</text>
<polygon fill="none" stroke="#000000" points="295.5,-276.2 295.5,-295.2 392.5,-295.2 392.5,-276.2 295.5,-276.2"/>
<text text-anchor="start" x="298.5" y="-282.3" font-family="Helvetica,sans-Serif" font-size="11.00" fill="#000000">...</text>
<polygon fill="#ffffff" stroke="transparent" points="295.5,-257.2 295.5,-276.2 324.5,-276.2 324.5,-257.2 295.5,-257.2"/>
<polygon fill="none" stroke="#000000" points="295.5,-257.2 295.5,-276.2 324.5,-276.2 324.5,-257.2 295.5,-257.2"/>
<text text-anchor="start" x="298.5" y="-263.3" font-family="Helvetica,sans-Serif" font-size="11.00" fill="#000000">&lt; 1</text>
<polygon fill="#ffffff" stroke="transparent" points="324.5,-257.2 324.5,-276.2 366.5,-276.2 366.5,-257.2 324.5,-257.2"/>
<polygon fill="none" stroke="#000000" points="324.5,-257.2 324.5,-276.2 366.5,-276.2 366.5,-257.2 324.5,-257.2"/>
<text text-anchor="start" x="331.1105" y="-263.3" font-family="Helvetica,sans-Serif" font-size="11.00" fill="#000000">4 rows</text>
<polygon fill="#ffffff" stroke="transparent" points="366.5,-257.2 366.5,-276.2 392.5,-276.2 392.5,-257.2 366.5,-257.2"/>
<polygon fill="none" stroke="#000000" points="366.5,-257.2 366.5,-276.2 392.5,-276.2 392.5,-257.2 366.5,-257.2"/>
<text text-anchor="start" x="373.9053" y="-263.3" font-family="Helvetica,sans-Serif" font-size="11.00" fill="#000000">3 &gt;</text>
</a>
</g>
</g>
<!-- users -->
<g id="node2" class="node">
<title>users</title>
<g id="a_node2"><a xlink:href="../../tables/users.html" xlink:title="users" target="_top">
<polygon fill="#ffffff" stroke="transparent" points="8,-204.2 8,-382.2 218,-382.2 218,-204.2 8,-204.2"/>
<polygon fill="#f5f5f5" stroke="transparent" points="10,-357.2 10,-380.2 216,-380.2 216,-357.2 10,-357.2"/>
<polygon fill="none" stroke="#000000" points="10,-357.2 10,-380.2 216,-380.2 216,-357.2 10,-357.2"/>
<text text-anchor="start" x="15" y="-366.3" font-family="Helvetica,sans-Serif" font-weight="bold" font-size="11.00" fill="#000000">users</text>
<text text-anchor="start" x="181.0437" y="-365.3" font-family="Helvetica,sans-Serif" font-size="11.00" fill="#000000">[table]</text>
<polygon fill="none" stroke="#000000" points="10,-335.2 10,-357.2 107,-357.2 107,-335.2 10,-335.2"/>
<image xlink:href="../../images/primaryKeys.png" width="11px" height="12px" preserveAspectRatio="xMinYMin meet" x="15" y="-352.2"/>
<text text-anchor="start" x="30" y="-342.3" font-family="Helvetica,sans-Serif" font-size="11.00" fill="#000000">id</text>
<polygon fill="none" stroke="#000000" points="107,-335.2 107,-357.2 216,-357.2 216,-335.2 107,-335.2"/>
<text text-anchor="start" x="110" y="-342.9" font-family="Helvetica,sans-Serif" font-size="11.00" fill="#000000">serial[10]</text>
<polygon fill="none" stroke="#000000" points="10,-313.2 10,-335.2 107,-335.2 107,-313.2 10,-313.2"/>
<text text-anchor="start" x="30" y="-320.3" font-family="Helvetica,sans-Serif" font-size="11.00" fill="#000000">first_name</text>
<polygon fill="none" stroke="#000000" points="107,-313.2 107,-335.2 216,-335.2 216,-313.2 107,-313.2"/>
<text text-anchor="start" x="109.5344" y="-320.9" font-family="Helvetica,sans-Serif" font-size="11.00" fill="#000000">varchar[2147483647]</text>
<polygon fill="none" stroke="#000000" points="10,-291.2 10,-313.2 107,-313.2 107,-291.2 10,-291.2"/>
<text text-anchor="start" x="30" y="-298.3" font-family="Helvetica,sans-Serif" font-size="11.00" fill="#000000">last_name</text>
<polygon fill="none" stroke="#000000" points="107,-291.2 107,-313.2 216,-313.2 216,-291.2 107,-291.2"/>
<text text-anchor="start" x="109.5344" y="-298.9" font-family="Helvetica,sans-Serif" font-size="11.00" fill="#000000">varchar[2147483647]</text>
<polygon fill="#ffffff" stroke="transparent" points="10,-269.2 10,-291.2 107,-291.2 107,-269.2 10,-269.2"/>
<polygon fill="none" stroke="#000000" points="10,-269.2 10,-291.2 107,-291.2 107,-269.2 10,-269.2"/>
<text text-anchor="start" x="30" y="-276.3" font-family="Helvetica,sans-Serif" font-size="11.00" fill="#000000">email</text>
<polygon fill="none" stroke="#000000" points="107,-269.2 107,-291.2 216,-291.2 216,-269.2 107,-269.2"/>
<text text-anchor="start" x="109.5344" y="-276.9" font-family="Helvetica,sans-Serif" font-size="11.00" fill="#000000">varchar[2147483647]</text>
<polygon fill="none" stroke="#000000" points="10,-247.2 10,-269.2 107,-269.2 107,-247.2 10,-247.2"/>
<text text-anchor="start" x="30" y="-254.3" font-family="Helvetica,sans-Serif" font-size="11.00" fill="#000000">created_at</text>
<polygon fill="none" stroke="#000000" points="107,-247.2 107,-269.2 216,-269.2 216,-247.2 107,-247.2"/>
<text text-anchor="start" x="110" y="-254.9" font-family="Helvetica,sans-Serif" font-size="11.00" fill="#000000">timestamp[29,6]</text>
<polygon fill="none" stroke="#000000" points="10,-225.2 10,-247.2 107,-247.2 107,-225.2 10,-225.2"/>
<text text-anchor="start" x="30" y="-232.3" font-family="Helvetica,sans-Serif" font-size="11.00" fill="#000000">updated_at</text>
<polygon fill="none" stroke="#000000" points="107,-225.2 107,-247.2 216,-247.2 216,-225.2 107,-225.2"/>
<text text-anchor="start" x="110" y="-232.9" font-family="Helvetica,sans-Serif" font-size="11.00" fill="#000000">timestamp[29,6]</text>
<polygon fill="#ffffff" stroke="transparent" points="10,-206.2 10,-225.2 47,-225.2 47,-206.2 10,-206.2"/>
<polygon fill="none" stroke="#000000" points="10,-206.2 10,-225.2 47,-225.2 47,-206.2 10,-206.2"/>
<text text-anchor="start" x="13" y="-212.3" font-family="Helvetica,sans-Serif" font-size="11.00" fill="#000000">&lt; 0</text>
<polygon fill="#ffffff" stroke="transparent" points="47,-206.2 47,-225.2 107,-225.2 107,-206.2 47,-206.2"/>
<polygon fill="none" stroke="#000000" points="47,-206.2 47,-225.2 107,-225.2 107,-206.2 47,-206.2"/>
<text text-anchor="start" x="65.4956" y="-212.3" font-family="Helvetica,sans-Serif" font-size="11.00" fill="#000000">11 rows</text>
<polygon fill="#ffffff" stroke="transparent" points="107,-206.2 107,-225.2 216,-225.2 216,-206.2 107,-206.2"/>
<polygon fill="none" stroke="#000000" points="107,-206.2 107,-225.2 216,-225.2 216,-206.2 107,-206.2"/>
<text text-anchor="start" x="197.4053" y="-212.3" font-family="Helvetica,sans-Serif" font-size="11.00" fill="#000000">6 &gt;</text>
<polygon fill="none" stroke="#000000" stroke-width="2" points="9,-205.2 9,-381.2 217,-381.2 217,-205.2 9,-205.2"/>
</a>
</g>
</g>
<!-- chapters&#45;&gt;users -->
<g id="edge1" class="edge">
<title>chapters:w&#45;&gt;users:e</title>
<path fill="none" stroke="#000000" d="M280.9188,-308.3506C255.0615,-316.659 249.9914,-346.2 216,-346.2"/>
<polygon fill="#000000" stroke="#000000" points="287.5856,-307.3673 296.0253,-309.7615 291.5428,-306.7837 295.5,-306.2 295.5,-306.2 295.5,-306.2 291.5428,-306.7837 294.9747,-302.6385 287.5856,-307.3673 287.5856,-307.3673"/>
<ellipse fill="none" stroke="#000000" cx="284.4199" cy="-307.8343" rx="3.2" ry="3.2"/>
</g>
<!-- events -->
<g id="node3" class="node">
<title>events</title>
<g id="a_node3"><a xlink:href="../../tables/events.html" xlink:title="events" target="_top">
<polygon fill="#ffffff" stroke="transparent" points="503,-172.7 503,-233.7 583,-233.7 583,-172.7 503,-172.7"/>
<polygon fill="#f5f5f5" stroke="transparent" points="503,-210.2 503,-233.2 583,-233.2 583,-210.2 503,-210.2"/>
<polygon fill="none" stroke="#000000" points="503,-210.2 503,-233.2 583,-233.2 583,-210.2 503,-210.2"/>
<text text-anchor="start" x="508" y="-219.3" font-family="Helvetica,sans-Serif" font-weight="bold" font-size="11.00" fill="#000000">events</text>
<text text-anchor="start" x="548.0437" y="-218.3" font-family="Helvetica,sans-Serif" font-size="11.00" fill="#000000">[table]</text>
<polygon fill="none" stroke="#000000" points="503,-191.2 503,-210.2 583,-210.2 583,-191.2 503,-191.2"/>
<text text-anchor="start" x="506" y="-197.3" font-family="Helvetica,sans-Serif" font-size="11.00" fill="#000000">...</text>
<polygon fill="#ffffff" stroke="transparent" points="503,-172.2 503,-191.2 524,-191.2 524,-172.2 503,-172.2"/>
<polygon fill="none" stroke="#000000" points="503,-172.2 503,-191.2 524,-191.2 524,-172.2 503,-172.2"/>
<text text-anchor="start" x="505.7027" y="-178.3" font-family="Helvetica,sans-Serif" font-size="11.00" fill="#000000">&lt; 2</text>
<polygon fill="#ffffff" stroke="transparent" points="524,-172.2 524,-191.2 562,-191.2 562,-172.2 524,-172.2"/>
<polygon fill="none" stroke="#000000" points="524,-172.2 524,-191.2 562,-191.2 562,-172.2 524,-172.2"/>
<text text-anchor="start" x="526.8053" y="-178.3" font-family="Helvetica,sans-Serif" font-size="11.00" fill="#000000">4 rows</text>
<polygon fill="#ffffff" stroke="transparent" points="562,-172.2 562,-191.2 583,-191.2 583,-172.2 562,-172.2"/>
<polygon fill="none" stroke="#000000" points="562,-172.2 562,-191.2 583,-191.2 583,-172.2 562,-172.2"/>
<text text-anchor="start" x="564.7026" y="-178.3" font-family="Helvetica,sans-Serif" font-size="11.00" fill="#000000">4 &gt;</text>
</a>
</g>
</g>
<!-- events&#45;&gt;chapters -->
<g id="edge2" class="edge">
<title>events:w&#45;&gt;chapters:e</title>
<path fill="none" stroke="#000000" d="M488.421,-202.1088C432.9985,-218.0315 462.2237,-328.2 392.5,-328.2"/>
<polygon fill="#000000" stroke="#000000" points="495.0677,-201.2386 503.4674,-203.7695 499.0338,-200.7193 503,-200.2 503,-200.2 503,-200.2 499.0338,-200.7193 502.5326,-196.6305 495.0677,-201.2386 495.0677,-201.2386"/>
<ellipse fill="none" stroke="#000000" cx="491.8948" cy="-201.654" rx="3.2" ry="3.2"/>
</g>
<!-- rsvps -->
<g id="node4" class="node">
<title>rsvps</title>
<g id="a_node4"><a xlink:href="../../tables/rsvps.html" xlink:title="rsvps" target="_top">
<polygon fill="#ffffff" stroke="transparent" points="678.5,-413.7 678.5,-540.7 787.5,-540.7 787.5,-413.7 678.5,-413.7"/>
<polygon fill="#f5f5f5" stroke="transparent" points="679,-517.2 679,-540.2 788,-540.2 788,-517.2 679,-517.2"/>
<polygon fill="none" stroke="#000000" points="679,-517.2 679,-540.2 788,-540.2 788,-517.2 679,-517.2"/>
<text text-anchor="start" x="684" y="-526.3" font-family="Helvetica,sans-Serif" font-weight="bold" font-size="11.00" fill="#000000">rsvps</text>
<text text-anchor="start" x="753.0437" y="-525.3" font-family="Helvetica,sans-Serif" font-size="11.00" fill="#000000">[table]</text>
<polygon fill="none" stroke="#000000" points="679,-495.2 679,-517.2 788,-517.2 788,-495.2 679,-495.2"/>
<image xlink:href="../../images/primaryKeys.png" width="11px" height="12px" preserveAspectRatio="xMinYMin meet" x="684" y="-512.2"/>
<text text-anchor="start" x="699" y="-502.3" font-family="Helvetica,sans-Serif" font-size="11.00" fill="#000000">id</text>
<polygon fill="none" stroke="#000000" points="679,-473.2 679,-495.2 788,-495.2 788,-473.2 679,-473.2"/>
<image xlink:href="../../images/foreignKeys.png" width="11px" height="12px" preserveAspectRatio="xMinYMin meet" x="684" y="-490.2"/>
<text text-anchor="start" x="699" y="-480.3" font-family="Helvetica,sans-Serif" font-size="11.00" fill="#000000">event_id</text>
<polygon fill="none" stroke="#000000" points="679,-451.2 679,-473.2 788,-473.2 788,-451.2 679,-451.2"/>
<image xlink:href="../../images/foreignKeys.png" width="11px" height="12px" preserveAspectRatio="xMinYMin meet" x="684" y="-468.2"/>
<text text-anchor="start" x="699" y="-458.3" font-family="Helvetica,sans-Serif" font-size="11.00" fill="#000000">user_id</text>
<polygon fill="none" stroke="#000000" points="679,-432.2 679,-451.2 788,-451.2 788,-432.2 679,-432.2"/>
<text text-anchor="start" x="682" y="-438.3" font-family="Helvetica,sans-Serif" font-size="11.00" fill="#000000">...</text>
<polygon fill="#ffffff" stroke="transparent" points="679,-413.2 679,-432.2 716,-432.2 716,-413.2 679,-413.2"/>
<polygon fill="none" stroke="#000000" points="679,-413.2 679,-432.2 716,-432.2 716,-413.2 679,-413.2"/>
<text text-anchor="start" x="682" y="-419.3" font-family="Helvetica,sans-Serif" font-size="11.00" fill="#000000">&lt; 2</text>
<polygon fill="#ffffff" stroke="transparent" points="716,-413.2 716,-432.2 768,-432.2 768,-413.2 716,-413.2"/>
<polygon fill="none" stroke="#000000" points="716,-413.2 716,-432.2 768,-432.2 768,-413.2 716,-413.2"/>
<text text-anchor="start" x="726.4956" y="-419.3" font-family="Helvetica,sans-Serif" font-size="11.00" fill="#000000">20 rows</text>
<polygon fill="#ffffff" stroke="transparent" points="768,-413.2 768,-432.2 788,-432.2 788,-413.2 768,-413.2"/>
<polygon fill="none" stroke="#000000" points="768,-413.2 768,-432.2 788,-432.2 788,-413.2 768,-413.2"/>
<text text-anchor="start" x="778.8862" y="-419.3" font-family="Helvetica,sans-Serif" font-size="11.00" fill="#000000"> &#160;</text>
</a>
</g>
</g>
<!-- rsvps&#45;&gt;users -->
<g id="edge4" class="edge">
<title>rsvps:w&#45;&gt;users:e</title>
<path fill="none" stroke="#000000" d="M664.6873,-465.0569C636.6952,-478.9104 663.296,-539.357 625,-562.2 562.4015,-599.5391 531.4969,-580.7198 461,-562.2 361.295,-536.0071 327.591,-525.1574 259,-448.2 226.2662,-411.4734 265.197,-346.2 216,-346.2"/>
<polygon fill="#000000" stroke="#000000" points="671.1548,-463.766 679.7047,-465.7304 675.0774,-462.983 679,-462.2 679,-462.2 679,-462.2 675.0774,-462.983 678.2953,-458.6696 671.1548,-463.766 671.1548,-463.766"/>
<ellipse fill="none" stroke="#000000" cx="668.0167" cy="-464.3924" rx="3.2" ry="3.2"/>
</g>
<!-- rsvps&#45;&gt;events -->
<g id="edge3" class="edge">
<title>rsvps:w&#45;&gt;events:e</title>
<path fill="none" stroke="#000000" d="M664.4878,-483.195C579.7334,-470.2872 674.1014,-335.8732 625,-244.2 612.2356,-220.3686 610.0345,-200.2 583,-200.2"/>
<polygon fill="#000000" stroke="#000000" points="671.0191,-483.6472 678.7513,-487.7914 675.0096,-483.9236 679,-484.2 679,-484.2 679,-484.2 675.0096,-483.9236 679.2487,-480.6086 671.0191,-483.6472 671.0191,-483.6472"/>
<ellipse fill="none" stroke="#000000" cx="667.8268" cy="-483.4261" rx="3.2" ry="3.2"/>
</g>
<!-- user_bans -->
<g id="node5" class="node">
<title>user_bans</title>
<g id="a_node5"><a xlink:href="../../tables/user_bans.html" xlink:title="user_bans" target="_top">
<polygon fill="#ffffff" stroke="transparent" points="494.5,-424.7 494.5,-551.7 591.5,-551.7 591.5,-424.7 494.5,-424.7"/>
<polygon fill="#f5f5f5" stroke="transparent" points="495,-528.2 495,-551.2 592,-551.2 592,-528.2 495,-528.2"/>
<polygon fill="none" stroke="#000000" points="495,-528.2 495,-551.2 592,-551.2 592,-528.2 495,-528.2"/>
<text text-anchor="start" x="500" y="-537.3" font-family="Helvetica,sans-Serif" font-weight="bold" font-size="11.00" fill="#000000">user_bans</text>
<text text-anchor="start" x="557.0437" y="-536.3" font-family="Helvetica,sans-Serif" font-size="11.00" fill="#000000">[table]</text>
<polygon fill="none" stroke="#000000" points="495,-506.2 495,-528.2 592,-528.2 592,-506.2 495,-506.2"/>
<image xlink:href="../../images/primaryKeys.png" width="11px" height="12px" preserveAspectRatio="xMinYMin meet" x="500" y="-523.2"/>
<text text-anchor="start" x="515" y="-513.3" font-family="Helvetica,sans-Serif" font-size="11.00" fill="#000000">id</text>
<polygon fill="none" stroke="#000000" points="495,-484.2 495,-506.2 592,-506.2 592,-484.2 495,-484.2"/>
<image xlink:href="../../images/foreignKeys.png" width="11px" height="12px" preserveAspectRatio="xMinYMin meet" x="500" y="-501.2"/>
<text text-anchor="start" x="515" y="-491.3" font-family="Helvetica,sans-Serif" font-size="11.00" fill="#000000">user_id</text>
<polygon fill="none" stroke="#000000" points="495,-462.2 495,-484.2 592,-484.2 592,-462.2 495,-462.2"/>
<image xlink:href="../../images/foreignKeys.png" width="11px" height="12px" preserveAspectRatio="xMinYMin meet" x="500" y="-479.2"/>
<text text-anchor="start" x="515" y="-469.3" font-family="Helvetica,sans-Serif" font-size="11.00" fill="#000000">chapter_id</text>
<polygon fill="none" stroke="#000000" points="495,-443.2 495,-462.2 592,-462.2 592,-443.2 495,-443.2"/>
<text text-anchor="start" x="498" y="-449.3" font-family="Helvetica,sans-Serif" font-size="11.00" fill="#000000">...</text>
<polygon fill="#ffffff" stroke="transparent" points="495,-424.2 495,-443.2 529,-443.2 529,-424.2 495,-424.2"/>
<polygon fill="none" stroke="#000000" points="495,-424.2 495,-443.2 529,-443.2 529,-424.2 495,-424.2"/>
<text text-anchor="start" x="498" y="-430.3" font-family="Helvetica,sans-Serif" font-size="11.00" fill="#000000">&lt; 2</text>
<polygon fill="#ffffff" stroke="transparent" points="529,-424.2 529,-443.2 573,-443.2 573,-424.2 529,-424.2"/>
<polygon fill="none" stroke="#000000" points="529,-424.2 529,-443.2 573,-443.2 573,-424.2 529,-424.2"/>
<text text-anchor="start" x="537.6105" y="-430.3" font-family="Helvetica,sans-Serif" font-size="11.00" fill="#000000">4 rows</text>
<polygon fill="#ffffff" stroke="transparent" points="573,-424.2 573,-443.2 592,-443.2 592,-424.2 573,-424.2"/>
<polygon fill="none" stroke="#000000" points="573,-424.2 573,-443.2 592,-443.2 592,-424.2 573,-424.2"/>
<text text-anchor="start" x="582.8862" y="-430.3" font-family="Helvetica,sans-Serif" font-size="11.00" fill="#000000"> &#160;</text>
</a>
</g>
</g>
<!-- user_bans&#45;&gt;chapters -->
<g id="edge5" class="edge">
<title>user_bans:w&#45;&gt;chapters:e</title>
<path fill="none" stroke="#000000" d="M480.6116,-471.2599C423.0185,-454.0534 466.0252,-328.2 392.5,-328.2"/>
<polygon fill="#000000" stroke="#000000" points="487.0717,-472.1309 494.5189,-476.7677 491.0359,-472.6655 495,-473.2 495,-473.2 495,-473.2 491.0359,-472.6655 495.4811,-469.6323 487.0717,-472.1309 487.0717,-472.1309"/>
<ellipse fill="none" stroke="#000000" cx="483.9004" cy="-471.7033" rx="3.2" ry="3.2"/>
</g>
<!-- user_bans&#45;&gt;users -->
<g id="edge6" class="edge">
<title>user_bans:w&#45;&gt;users:e</title>
<path fill="none" stroke="#000000" d="M480.3215,-494.9583C377.436,-491.4637 349.8952,-450.3383 259,-388.2 236.9461,-373.1234 242.7148,-346.2 216,-346.2"/>
<polygon fill="#000000" stroke="#000000" points="487.0011,-495.0682 494.9407,-498.7995 491.0005,-495.1341 495,-495.2 495,-495.2 495,-495.2 491.0005,-495.1341 495.0593,-491.6005 487.0011,-495.0682 487.0011,-495.0682"/>
<ellipse fill="none" stroke="#000000" cx="483.8015" cy="-495.0155" rx="3.2" ry="3.2"/>
</g>
<!-- user_chapter_roles -->
<g id="node6" class="node">
<title>user_chapter_roles</title>
<g id="a_node6"><a xlink:href="../../tables/user_chapter_roles.html" xlink:title="user_chapter_roles" target="_top">
<polygon fill="#ffffff" stroke="transparent" points="469,-254.7 469,-403.7 617,-403.7 617,-254.7 469,-254.7"/>
<polygon fill="#f5f5f5" stroke="transparent" points="469,-380.2 469,-403.2 617,-403.2 617,-380.2 469,-380.2"/>
<polygon fill="none" stroke="#000000" points="469,-380.2 469,-403.2 617,-403.2 617,-380.2 469,-380.2"/>
<text text-anchor="start" x="474" y="-389.3" font-family="Helvetica,sans-Serif" font-weight="bold" font-size="11.00" fill="#000000">user_chapter_roles</text>
<text text-anchor="start" x="582.0437" y="-388.3" font-family="Helvetica,sans-Serif" font-size="11.00" fill="#000000">[table]</text>
<polygon fill="none" stroke="#000000" points="469,-358.2 469,-380.2 617,-380.2 617,-358.2 469,-358.2"/>
<image xlink:href="../../images/primaryKeys.png" width="11px" height="12px" preserveAspectRatio="xMinYMin meet" x="474" y="-375.2"/>
<text text-anchor="start" x="489" y="-365.3" font-family="Helvetica,sans-Serif" font-size="11.00" fill="#000000">user_id</text>
<polygon fill="none" stroke="#000000" points="469,-336.2 469,-358.2 617,-358.2 617,-336.2 469,-336.2"/>
<image xlink:href="../../images/primaryKeys.png" width="11px" height="12px" preserveAspectRatio="xMinYMin meet" x="474" y="-353.2"/>
<text text-anchor="start" x="489" y="-343.3" font-family="Helvetica,sans-Serif" font-size="11.00" fill="#000000">chapter_id</text>
<polygon fill="none" stroke="#000000" points="469,-314.2 469,-336.2 617,-336.2 617,-314.2 469,-314.2"/>
<image xlink:href="../../images/primaryKeys.png" width="11px" height="12px" preserveAspectRatio="xMinYMin meet" x="474" y="-331.2"/>
<text text-anchor="start" x="489" y="-321.3" font-family="Helvetica,sans-Serif" font-size="11.00" fill="#000000">id</text>
<polygon fill="none" stroke="#000000" points="469,-292.2 469,-314.2 617,-314.2 617,-292.2 469,-292.2"/>
<image xlink:href="../../images/primaryKeys.png" width="11px" height="12px" preserveAspectRatio="xMinYMin meet" x="474" y="-309.2"/>
<text text-anchor="start" x="489" y="-299.3" font-family="Helvetica,sans-Serif" font-size="11.00" fill="#000000">role_name</text>
<polygon fill="none" stroke="#000000" points="469,-273.2 469,-292.2 617,-292.2 617,-273.2 469,-273.2"/>
<text text-anchor="start" x="472" y="-279.3" font-family="Helvetica,sans-Serif" font-size="11.00" fill="#000000">...</text>
<polygon fill="#ffffff" stroke="transparent" points="469,-254.2 469,-273.2 525,-273.2 525,-254.2 469,-254.2"/>
<polygon fill="none" stroke="#000000" points="469,-254.2 469,-273.2 525,-273.2 525,-254.2 469,-254.2"/>
<text text-anchor="start" x="472" y="-260.3" font-family="Helvetica,sans-Serif" font-size="11.00" fill="#000000">&lt; 2</text>
<polygon fill="#ffffff" stroke="transparent" points="525,-254.2 525,-273.2 587,-273.2 587,-254.2 525,-254.2"/>
<polygon fill="none" stroke="#000000" points="525,-254.2 525,-273.2 587,-273.2 587,-254.2 525,-254.2"/>
<text text-anchor="start" x="545.4956" y="-260.3" font-family="Helvetica,sans-Serif" font-size="11.00" fill="#000000">40 rows</text>
<polygon fill="#ffffff" stroke="transparent" points="587,-254.2 587,-273.2 617,-273.2 617,-254.2 587,-254.2"/>
<polygon fill="none" stroke="#000000" points="587,-254.2 587,-273.2 617,-273.2 617,-254.2 587,-254.2"/>
<text text-anchor="start" x="607.8862" y="-260.3" font-family="Helvetica,sans-Serif" font-size="11.00" fill="#000000"> &#160;</text>
</a>
</g>
</g>
<!-- user_chapter_roles&#45;&gt;chapters -->
<g id="edge7" class="edge">
<title>user_chapter_roles:w&#45;&gt;chapters:e</title>
<path fill="none" stroke="#000000" d="M454.4548,-345.9534C431.2582,-341.7264 422.0591,-328.2 392.5,-328.2"/>
<polygon fill="#000000" stroke="#000000" points="461.0292,-346.5168 468.6926,-350.7868 465.0146,-346.8584 469,-347.2 469,-347.2 469,-347.2 465.0146,-346.8584 469.3074,-343.6132 461.0292,-346.5168 461.0292,-346.5168"/>
<ellipse fill="none" stroke="#000000" cx="457.8409" cy="-346.2435" rx="3.2" ry="3.2"/>
</g>
<!-- user_chapter_roles&#45;&gt;users -->
<g id="edge8" class="edge">
<title>user_chapter_roles:w&#45;&gt;users:e</title>
<path fill="none" stroke="#000000" d="M454.4868,-370.0162C446.3063,-371.0019 440.2866,-372.6021 428,-373.2 352.9777,-376.851 331.1788,-393.9822 259,-373.2 237.3147,-366.9562 238.5662,-346.2 216,-346.2"/>
<polygon fill="#000000" stroke="#000000" points="461.0126,-369.6493 469.2022,-372.7943 465.0063,-369.4246 469,-369.2 469,-369.2 469,-369.2 465.0063,-369.4246 468.7978,-365.6057 461.0126,-369.6493 461.0126,-369.6493"/>
<ellipse fill="none" stroke="#000000" cx="457.8177" cy="-369.829" rx="3.2" ry="3.2"/>
</g>
<!-- user_event_roles -->
<g id="node7" class="node">
<title>user_event_roles</title>
<g id="a_node7"><a xlink:href="../../tables/user_event_roles.html" xlink:title="user_event_roles" target="_top">
<polygon fill="#ffffff" stroke="transparent" points="666,-92.7 666,-241.7 800,-241.7 800,-92.7 666,-92.7"/>
<polygon fill="#f5f5f5" stroke="transparent" points="666,-218.2 666,-241.2 800,-241.2 800,-218.2 666,-218.2"/>
<polygon fill="none" stroke="#000000" points="666,-218.2 666,-241.2 800,-241.2 800,-218.2 666,-218.2"/>
<text text-anchor="start" x="671" y="-227.3" font-family="Helvetica,sans-Serif" font-weight="bold" font-size="11.00" fill="#000000">user_event_roles</text>
<text text-anchor="start" x="765.0437" y="-226.3" font-family="Helvetica,sans-Serif" font-size="11.00" fill="#000000">[table]</text>
<polygon fill="none" stroke="#000000" points="666,-196.2 666,-218.2 800,-218.2 800,-196.2 666,-196.2"/>
<image xlink:href="../../images/primaryKeys.png" width="11px" height="12px" preserveAspectRatio="xMinYMin meet" x="671" y="-213.2"/>
<text text-anchor="start" x="686" y="-203.3" font-family="Helvetica,sans-Serif" font-size="11.00" fill="#000000">id</text>
<polygon fill="none" stroke="#000000" points="666,-174.2 666,-196.2 800,-196.2 800,-174.2 666,-174.2"/>
<image xlink:href="../../images/primaryKeys.png" width="11px" height="12px" preserveAspectRatio="xMinYMin meet" x="671" y="-191.2"/>
<text text-anchor="start" x="686" y="-181.3" font-family="Helvetica,sans-Serif" font-size="11.00" fill="#000000">user_id</text>
<polygon fill="none" stroke="#000000" points="666,-152.2 666,-174.2 800,-174.2 800,-152.2 666,-152.2"/>
<image xlink:href="../../images/primaryKeys.png" width="11px" height="12px" preserveAspectRatio="xMinYMin meet" x="671" y="-169.2"/>
<text text-anchor="start" x="686" y="-159.3" font-family="Helvetica,sans-Serif" font-size="11.00" fill="#000000">event_id</text>
<polygon fill="none" stroke="#000000" points="666,-130.2 666,-152.2 800,-152.2 800,-130.2 666,-130.2"/>
<image xlink:href="../../images/primaryKeys.png" width="11px" height="12px" preserveAspectRatio="xMinYMin meet" x="671" y="-147.2"/>
<text text-anchor="start" x="686" y="-137.3" font-family="Helvetica,sans-Serif" font-size="11.00" fill="#000000">role_name</text>
<polygon fill="none" stroke="#000000" points="666,-111.2 666,-130.2 800,-130.2 800,-111.2 666,-111.2"/>
<text text-anchor="start" x="669" y="-117.3" font-family="Helvetica,sans-Serif" font-size="11.00" fill="#000000">...</text>
<polygon fill="#ffffff" stroke="transparent" points="666,-92.2 666,-111.2 715,-111.2 715,-92.2 666,-92.2"/>
<polygon fill="none" stroke="#000000" points="666,-92.2 666,-111.2 715,-111.2 715,-92.2 666,-92.2"/>
<text text-anchor="start" x="669" y="-98.3" font-family="Helvetica,sans-Serif" font-size="11.00" fill="#000000">&lt; 2</text>
<polygon fill="#ffffff" stroke="transparent" points="715,-92.2 715,-111.2 773,-111.2 773,-92.2 715,-92.2"/>
<polygon fill="none" stroke="#000000" points="715,-92.2 715,-111.2 773,-111.2 773,-92.2 715,-92.2"/>
<text text-anchor="start" x="731.4956" y="-98.3" font-family="Helvetica,sans-Serif" font-size="11.00" fill="#000000">20 rows</text>
<polygon fill="#ffffff" stroke="transparent" points="773,-92.2 773,-111.2 800,-111.2 800,-92.2 773,-92.2"/>
<polygon fill="none" stroke="#000000" points="773,-92.2 773,-111.2 800,-111.2 800,-92.2 773,-92.2"/>
<text text-anchor="start" x="790.8862" y="-98.3" font-family="Helvetica,sans-Serif" font-size="11.00" fill="#000000"> &#160;</text>
</a>
</g>
</g>
<!-- user_event_roles&#45;&gt;users -->
<g id="edge10" class="edge">
<title>user_event_roles:w&#45;&gt;users:e</title>
<path fill="none" stroke="#000000" d="M651.8634,-181.3044C643.3795,-175.7763 639.2135,-165.9144 625,-162.2 554.4794,-143.7707 532.4482,-147.7799 461,-162.2 365.5228,-181.4698 328.2672,-178.7218 259,-247.2 224.8855,-280.9259 263.9712,-346.2 216,-346.2"/>
<polygon fill="#000000" stroke="#000000" points="658.2875,-183.0746 665.0436,-188.6706 662.1437,-184.1373 666,-185.2 666,-185.2 666,-185.2 662.1437,-184.1373 666.9564,-181.7294 658.2875,-183.0746 658.2875,-183.0746"/>
<ellipse fill="none" stroke="#000000" cx="655.2025" cy="-182.2245" rx="3.2" ry="3.2"/>
</g>
<!-- user_event_roles&#45;&gt;events -->
<g id="edge9" class="edge">
<title>user_event_roles:w&#45;&gt;events:e</title>
<path fill="none" stroke="#000000" d="M651.3796,-165.0857C624.2904,-172.6256 617.8664,-200.2 583,-200.2"/>
<polygon fill="#000000" stroke="#000000" points="658.0657,-164.2234 666.4605,-166.7704 662.0329,-163.7117 666,-163.2 666,-163.2 666,-163.2 662.0329,-163.7117 665.5395,-159.6296 658.0657,-164.2234 658.0657,-164.2234"/>
<ellipse fill="none" stroke="#000000" cx="654.892" cy="-164.6327" rx="3.2" ry="3.2"/>
</g>
<!-- user_instance_roles -->
<g id="node8" class="node">
<title>user_instance_roles</title>
<g id="a_node8"><a xlink:href="../../tables/user_instance_roles.html" xlink:title="user_instance_roles" target="_top">
<polygon fill="#ffffff" stroke="transparent" points="267,-38.2 267,-124.2 420,-124.2 420,-38.2 267,-38.2"/>
<polygon fill="#f5f5f5" stroke="transparent" points="267.5,-101.2 267.5,-124.2 420.5,-124.2 420.5,-101.2 267.5,-101.2"/>
<polygon fill="none" stroke="#000000" points="267.5,-101.2 267.5,-124.2 420.5,-124.2 420.5,-101.2 267.5,-101.2"/>
<text text-anchor="start" x="272.5" y="-110.3" font-family="Helvetica,sans-Serif" font-weight="bold" font-size="11.00" fill="#000000">user_instance_roles</text>
<text text-anchor="start" x="385.5437" y="-109.3" font-family="Helvetica,sans-Serif" font-size="11.00" fill="#000000">[table]</text>
<polygon fill="none" stroke="#000000" points="267.5,-79.2 267.5,-101.2 420.5,-101.2 420.5,-79.2 267.5,-79.2"/>
<image xlink:href="../../images/primaryKeys.png" width="11px" height="12px" preserveAspectRatio="xMinYMin meet" x="272.5" y="-96.2"/>
<text text-anchor="start" x="287.5" y="-86.3" font-family="Helvetica,sans-Serif" font-size="11.00" fill="#000000">user_id</text>
<polygon fill="none" stroke="#000000" points="267.5,-57.2 267.5,-79.2 420.5,-79.2 420.5,-57.2 267.5,-57.2"/>
<image xlink:href="../../images/primaryKeys.png" width="11px" height="12px" preserveAspectRatio="xMinYMin meet" x="272.5" y="-74.2"/>
<text text-anchor="start" x="287.5" y="-64.3" font-family="Helvetica,sans-Serif" font-size="11.00" fill="#000000">role_name</text>
<polygon fill="#ffffff" stroke="transparent" points="267.5,-38.2 267.5,-57.2 329.5,-57.2 329.5,-38.2 267.5,-38.2"/>
<polygon fill="none" stroke="#000000" points="267.5,-38.2 267.5,-57.2 329.5,-57.2 329.5,-38.2 267.5,-38.2"/>
<text text-anchor="start" x="270.5" y="-44.3" font-family="Helvetica,sans-Serif" font-size="11.00" fill="#000000">&lt; 1</text>
<polygon fill="#ffffff" stroke="transparent" points="329.5,-38.2 329.5,-57.2 387.5,-57.2 387.5,-38.2 329.5,-38.2"/>
<polygon fill="none" stroke="#000000" points="329.5,-38.2 329.5,-57.2 387.5,-57.2 387.5,-38.2 329.5,-38.2"/>
<text text-anchor="start" x="352.1105" y="-44.3" font-family="Helvetica,sans-Serif" font-size="11.00" fill="#000000">0 rows</text>
<polygon fill="#ffffff" stroke="transparent" points="387.5,-38.2 387.5,-57.2 420.5,-57.2 420.5,-38.2 387.5,-38.2"/>
<polygon fill="none" stroke="#000000" points="387.5,-38.2 387.5,-57.2 420.5,-57.2 420.5,-38.2 387.5,-38.2"/>
<text text-anchor="start" x="411.3862" y="-44.3" font-family="Helvetica,sans-Serif" font-size="11.00" fill="#000000"> &#160;</text>
</a>
</g>
</g>
<!-- user_instance_roles&#45;&gt;users -->
<g id="edge11" class="edge">
<title>user_instance_roles:w&#45;&gt;users:e</title>
<path fill="none" stroke="#000000" d="M253.0739,-91.8348C167.7235,-113.6375 326.6171,-346.2 216,-346.2"/>
<polygon fill="#000000" stroke="#000000" points="259.5509,-91.1008 267.9054,-93.7771 263.5254,-90.6504 267.5,-90.2 267.5,-90.2 267.5,-90.2 263.5254,-90.6504 267.0946,-86.6229 259.5509,-91.1008 259.5509,-91.1008"/>
<ellipse fill="none" stroke="#000000" cx="256.3712" cy="-91.4612" rx="3.2" ry="3.2"/>
</g>
</g>
</svg>
