<?xml version="1.0" encoding="UTF-8" standalone="no"?>
<!DOCTYPE svg PUBLIC "-//W3C//DTD SVG 1.1//EN"
 "http://www.w3.org/Graphics/SVG/1.1/DTD/svg11.dtd">
<!-- Generated by graphviz version 2.40.1 (20161225.0304)
 -->
<!-- Title: twoDegreesRelationshipsDiagram Pages: 1 -->
<svg width="826pt" height="575pt"
 viewBox="0.00 0.00 826.00 575.47" xmlns="http://www.w3.org/2000/svg" xmlns:xlink="http://www.w3.org/1999/xlink">
<g id="graph0" class="graph" transform="scale(1 1) rotate(0) translate(4 571.4735)">
<title>twoDegreesRelationshipsDiagram</title>
<polygon fill="#ffffff" stroke="transparent" points="-4,4 -4,-571.4735 822,-571.4735 822,4 -4,4"/>
<text text-anchor="middle" x="72.4936" y="-7.3" font-family="Helvetica,sans-Serif" font-size="11.00" fill="#000000">Generated by SchemaSpy</text>
<!-- chapter_tags -->
<g id="node1" class="node">
<title>chapter_tags</title>
<g id="a_node1"><a xlink:href="../../tables/chapter_tags.html" xlink:title="chapter_tags" target="_top">
<polygon fill="#ffffff" stroke="transparent" points="376.5,-502.4735 376.5,-563.4735 491.5,-563.4735 491.5,-502.4735 376.5,-502.4735"/>
<polygon fill="#f5f5f5" stroke="transparent" points="377,-539.9735 377,-562.9735 492,-562.9735 492,-539.9735 377,-539.9735"/>
<polygon fill="none" stroke="#000000" points="377,-539.9735 377,-562.9735 492,-562.9735 492,-539.9735 377,-539.9735"/>
<text text-anchor="start" x="382" y="-548.5735" font-family="Helvetica,sans-Serif" font-weight="bold" font-size="11.00" fill="#000000">chapter_tags</text>
<text text-anchor="start" x="457.5219" y="-548.0735" font-family="Helvetica,sans-Serif" font-size="11.00" fill="#000000">[table]</text>
<polygon fill="none" stroke="#000000" points="377,-520.9735 377,-539.9735 492,-539.9735 492,-520.9735 377,-520.9735"/>
<text text-anchor="start" x="380" y="-527.0735" font-family="Helvetica,sans-Serif" font-size="11.00" fill="#000000">...</text>
<polygon fill="#ffffff" stroke="transparent" points="377,-501.9735 377,-520.9735 420,-520.9735 420,-501.9735 377,-501.9735"/>
<polygon fill="none" stroke="#000000" points="377,-501.9735 377,-520.9735 420,-520.9735 420,-501.9735 377,-501.9735"/>
<text text-anchor="start" x="380" y="-508.0735" font-family="Helvetica,sans-Serif" font-size="11.00" fill="#000000">&lt; 2</text>
<polygon fill="#ffffff" stroke="transparent" points="420,-501.9735 420,-520.9735 469,-520.9735 469,-501.9735 420,-501.9735"/>
<polygon fill="none" stroke="#000000" points="420,-501.9735 420,-520.9735 469,-520.9735 469,-501.9735 420,-501.9735"/>
<text text-anchor="start" x="433.6105" y="-508.0735" font-family="Helvetica,sans-Serif" font-size="11.00" fill="#000000">0 rows</text>
<polygon fill="#ffffff" stroke="transparent" points="469,-501.9735 469,-520.9735 492,-520.9735 492,-501.9735 469,-501.9735"/>
<polygon fill="none" stroke="#000000" points="469,-501.9735 469,-520.9735 492,-520.9735 492,-501.9735 469,-501.9735"/>
<text text-anchor="start" x="482.8862" y="-508.0735" font-family="Helvetica,sans-Serif" font-size="11.00" fill="#000000"> &#160;</text>
</a>
</g>
</g>
<!-- chapters -->
<g id="node2" class="node">
<title>chapters</title>
<g id="a_node2"><a xlink:href="../../tables/chapters.html" xlink:title="chapters" target="_top">
<polygon fill="#ffffff" stroke="transparent" points="193.5,-347.4735 193.5,-430.4735 284.5,-430.4735 284.5,-347.4735 193.5,-347.4735"/>
<polygon fill="#f5f5f5" stroke="transparent" points="194,-406.9735 194,-429.9735 285,-429.9735 285,-406.9735 194,-406.9735"/>
<polygon fill="none" stroke="#000000" points="194,-406.9735 194,-429.9735 285,-429.9735 285,-406.9735 194,-406.9735"/>
<text text-anchor="start" x="199" y="-415.5735" font-family="Helvetica,sans-Serif" font-weight="bold" font-size="11.00" fill="#000000">chapters</text>
<text text-anchor="start" x="250.5219" y="-415.0735" font-family="Helvetica,sans-Serif" font-size="11.00" fill="#000000">[table]</text>
<polygon fill="none" stroke="#000000" points="194,-384.9735 194,-406.9735 285,-406.9735 285,-384.9735 194,-384.9735"/>
<image xlink:href="../../images/primaryKeys.png" width="11px" height="12px" preserveAspectRatio="xMinYMin meet" x="199" y="-401.974"/>
<text text-anchor="start" x="215" y="-392.0735" font-family="Helvetica,sans-Serif" font-size="11.00" fill="#000000">id</text>
<polygon fill="none" stroke="#000000" points="194,-365.9735 194,-384.9735 285,-384.9735 285,-365.9735 194,-365.9735"/>
<text text-anchor="start" x="197" y="-372.0735" font-family="Helvetica,sans-Serif" font-size="11.00" fill="#000000">...</text>
<polygon fill="#ffffff" stroke="transparent" points="194,-346.9735 194,-365.9735 216,-365.9735 216,-346.9735 194,-346.9735"/>
<polygon fill="none" stroke="#000000" points="194,-346.9735 194,-365.9735 216,-365.9735 216,-346.9735 194,-346.9735"/>
<text text-anchor="start" x="197" y="-353.0735" font-family="Helvetica,sans-Serif" font-size="11.00" fill="#000000"> &#160;</text>
<polygon fill="#ffffff" stroke="transparent" points="216,-346.9735 216,-365.9735 259,-365.9735 259,-346.9735 216,-346.9735"/>
<polygon fill="none" stroke="#000000" points="216,-346.9735 216,-365.9735 259,-365.9735 259,-346.9735 216,-346.9735"/>
<text text-anchor="start" x="223.6105" y="-353.0735" font-family="Helvetica,sans-Serif" font-size="11.00" fill="#000000">0 rows</text>
<polygon fill="#ffffff" stroke="transparent" points="259,-346.9735 259,-365.9735 285,-365.9735 285,-346.9735 259,-346.9735"/>
<polygon fill="none" stroke="#000000" points="259,-346.9735 259,-365.9735 285,-365.9735 285,-346.9735 259,-346.9735"/>
<text text-anchor="start" x="266.4053" y="-353.0735" font-family="Helvetica,sans-Serif" font-size="11.00" fill="#000000">5 &gt;</text>
</a>
</g>
</g>
<!-- chapter_tags&#45;&gt;chapters -->
<g id="edge1" class="edge">
<title>chapter_tags:w&#45;&gt;chapters:e</title>
<path fill="none" stroke="#000000" d="M362.5525,-527.7595C312.0306,-510.3369 351.7383,-395.9735 285,-395.9735"/>
<polygon fill="#000000" stroke="#000000" points="369.0923,-528.7617 376.4547,-533.532 373.0462,-529.3676 377,-529.9735 377,-529.9735 377,-529.9735 373.0462,-529.3676 377.5453,-526.4151 369.0923,-528.7617 369.0923,-528.7617"/>
<ellipse fill="none" stroke="#000000" cx="365.9292" cy="-528.2769" rx="3.2" ry="3.2"/>
</g>
<!-- chapter_users -->
<g id="node3" class="node">
<title>chapter_users</title>
<g id="a_node3"><a xlink:href="../../tables/chapter_users.html" xlink:title="chapter_users" target="_top">
<polygon fill="#ffffff" stroke="transparent" points="373,-155.4735 373,-216.4735 495,-216.4735 495,-155.4735 373,-155.4735"/>
<polygon fill="#f5f5f5" stroke="transparent" points="373,-192.9735 373,-215.9735 495,-215.9735 495,-192.9735 373,-192.9735"/>
<polygon fill="none" stroke="#000000" points="373,-192.9735 373,-215.9735 495,-215.9735 495,-192.9735 373,-192.9735"/>
<text text-anchor="start" x="378" y="-201.5735" font-family="Helvetica,sans-Serif" font-weight="bold" font-size="11.00" fill="#000000">chapter_users</text>
<text text-anchor="start" x="460.5219" y="-201.0735" font-family="Helvetica,sans-Serif" font-size="11.00" fill="#000000">[table]</text>
<polygon fill="none" stroke="#000000" points="373,-173.9735 373,-192.9735 495,-192.9735 495,-173.9735 373,-173.9735"/>
<text text-anchor="start" x="376" y="-180.0735" font-family="Helvetica,sans-Serif" font-size="11.00" fill="#000000">...</text>
<polygon fill="#ffffff" stroke="transparent" points="373,-154.9735 373,-173.9735 419,-173.9735 419,-154.9735 373,-154.9735"/>
<polygon fill="none" stroke="#000000" points="373,-154.9735 373,-173.9735 419,-173.9735 419,-154.9735 373,-154.9735"/>
<text text-anchor="start" x="376" y="-161.0735" font-family="Helvetica,sans-Serif" font-size="11.00" fill="#000000">&lt; 3</text>
<polygon fill="#ffffff" stroke="transparent" points="419,-154.9735 419,-173.9735 470,-173.9735 470,-154.9735 419,-154.9735"/>
<polygon fill="none" stroke="#000000" points="419,-154.9735 419,-173.9735 470,-173.9735 470,-154.9735 419,-154.9735"/>
<text text-anchor="start" x="434.6105" y="-161.0735" font-family="Helvetica,sans-Serif" font-size="11.00" fill="#000000">0 rows</text>
<polygon fill="#ffffff" stroke="transparent" points="470,-154.9735 470,-173.9735 495,-173.9735 495,-154.9735 470,-154.9735"/>
<polygon fill="none" stroke="#000000" points="470,-154.9735 470,-173.9735 495,-173.9735 495,-154.9735 470,-154.9735"/>
<text text-anchor="start" x="485.8862" y="-161.0735" font-family="Helvetica,sans-Serif" font-size="11.00" fill="#000000"> &#160;</text>
</a>
</g>
</g>
<!-- chapter_users&#45;&gt;chapters -->
<g id="edge2" class="edge">
<title>chapter_users:w&#45;&gt;chapters:e</title>
<path fill="none" stroke="#000000" d="M358.5607,-184.6881C282.287,-204.846 382.0263,-395.9735 285,-395.9735"/>
<polygon fill="#000000" stroke="#000000" points="365.0558,-183.9169 373.4245,-186.5484 369.0279,-183.4452 373,-182.9735 373,-182.9735 373,-182.9735 369.0279,-183.4452 372.5755,-179.3986 365.0558,-183.9169 365.0558,-183.9169"/>
<ellipse fill="none" stroke="#000000" cx="361.8781" cy="-184.2942" rx="3.2" ry="3.2"/>
</g>
<!-- users -->
<g id="node4" class="node">
<title>users</title>
<g id="a_node4"><a xlink:href="../../tables/users.html" xlink:title="users" target="_top">
<polygon fill="#ffffff" stroke="transparent" points="181,-49.4735 181,-176.4735 297,-176.4735 297,-49.4735 181,-49.4735"/>
<polygon fill="#f5f5f5" stroke="transparent" points="181,-152.9735 181,-175.9735 297,-175.9735 297,-152.9735 181,-152.9735"/>
<polygon fill="none" stroke="#000000" points="181,-152.9735 181,-175.9735 297,-175.9735 297,-152.9735 181,-152.9735"/>
<text text-anchor="start" x="186" y="-161.5735" font-family="Helvetica,sans-Serif" font-weight="bold" font-size="11.00" fill="#000000">users</text>
<text text-anchor="start" x="262.0437" y="-161.0735" font-family="Helvetica,sans-Serif" font-size="11.00" fill="#000000">[table]</text>
<polygon fill="none" stroke="#000000" points="181,-130.9735 181,-152.9735 297,-152.9735 297,-130.9735 181,-130.9735"/>
<image xlink:href="../../images/primaryKeys.png" width="11px" height="12px" preserveAspectRatio="xMinYMin meet" x="186" y="-147.974"/>
<text text-anchor="start" x="201" y="-138.0735" font-family="Helvetica,sans-Serif" font-size="11.00" fill="#000000">id</text>
<polygon fill="#ffffff" stroke="transparent" points="181,-108.9735 181,-130.9735 297,-130.9735 297,-108.9735 181,-108.9735"/>
<polygon fill="none" stroke="#000000" points="181,-108.9735 181,-130.9735 297,-130.9735 297,-108.9735 181,-108.9735"/>
<text text-anchor="start" x="201" y="-116.0735" font-family="Helvetica,sans-Serif" font-size="11.00" fill="#000000">email</text>
<polygon fill="none" stroke="#000000" points="181,-86.9735 181,-108.9735 297,-108.9735 297,-86.9735 181,-86.9735"/>
<image xlink:href="../../images/foreignKeys.png" width="11px" height="12px" preserveAspectRatio="xMinYMin meet" x="186" y="-103.974"/>
<text text-anchor="start" x="201" y="-94.0735" font-family="Helvetica,sans-Serif" font-size="11.00" fill="#000000">instance_role_id</text>
<polygon fill="none" stroke="#000000" points="181,-67.9735 181,-86.9735 297,-86.9735 297,-67.9735 181,-67.9735"/>
<text text-anchor="start" x="184" y="-74.0735" font-family="Helvetica,sans-Serif" font-size="11.00" fill="#000000">...</text>
<polygon fill="#ffffff" stroke="transparent" points="181,-48.9735 181,-67.9735 220,-67.9735 220,-48.9735 181,-48.9735"/>
<polygon fill="none" stroke="#000000" points="181,-48.9735 181,-67.9735 220,-67.9735 220,-48.9735 181,-48.9735"/>
<text text-anchor="start" x="184" y="-55.0735" font-family="Helvetica,sans-Serif" font-size="11.00" fill="#000000">&lt; 1</text>
<polygon fill="#ffffff" stroke="transparent" points="220,-48.9735 220,-67.9735 267,-67.9735 267,-48.9735 220,-48.9735"/>
<polygon fill="none" stroke="#000000" points="220,-48.9735 220,-67.9735 267,-67.9735 267,-48.9735 220,-48.9735"/>
<text text-anchor="start" x="231.6105" y="-55.0735" font-family="Helvetica,sans-Serif" font-size="11.00" fill="#000000">0 rows</text>
<polygon fill="#ffffff" stroke="transparent" points="267,-48.9735 267,-67.9735 297,-67.9735 297,-48.9735 267,-48.9735"/>
<polygon fill="none" stroke="#000000" points="267,-48.9735 267,-67.9735 297,-67.9735 297,-48.9735 267,-48.9735"/>
<text text-anchor="start" x="278.4053" y="-55.0735" font-family="Helvetica,sans-Serif" font-size="11.00" fill="#000000">4 &gt;</text>
</a>
</g>
</g>
<!-- chapter_users&#45;&gt;users -->
<g id="edge3" class="edge">
<title>chapter_users:w&#45;&gt;users:e</title>
<path fill="none" stroke="#000000" d="M358.5753,-180.6517C334.0223,-171.9784 329.8325,-141.9735 297,-141.9735"/>
<polygon fill="#000000" stroke="#000000" points="365.1017,-181.7022 372.4279,-186.5278 369.0508,-182.3378 373,-182.9735 373,-182.9735 373,-182.9735 369.0508,-182.3378 373.5721,-179.4193 365.1017,-181.7022 365.1017,-181.7022"/>
<ellipse fill="none" stroke="#000000" cx="361.9423" cy="-181.1936" rx="3.2" ry="3.2"/>
</g>
<!-- instance_roles -->
<g id="node10" class="node">
<title>instance_roles</title>
<g id="a_node10"><a xlink:href="../../tables/instance_roles.html" xlink:title="instance_roles" target="_top">
<polygon fill="#ffffff" stroke="transparent" points="8,-70.4735 8,-131.4735 132,-131.4735 132,-70.4735 8,-70.4735"/>
<polygon fill="#f5f5f5" stroke="transparent" points="8,-107.9735 8,-130.9735 132,-130.9735 132,-107.9735 8,-107.9735"/>
<polygon fill="none" stroke="#000000" points="8,-107.9735 8,-130.9735 132,-130.9735 132,-107.9735 8,-107.9735"/>
<text text-anchor="start" x="13" y="-116.5735" font-family="Helvetica,sans-Serif" font-weight="bold" font-size="11.00" fill="#000000">instance_roles</text>
<text text-anchor="start" x="97.5219" y="-116.0735" font-family="Helvetica,sans-Serif" font-size="11.00" fill="#000000">[table]</text>
<polygon fill="none" stroke="#000000" points="8,-88.9735 8,-107.9735 132,-107.9735 132,-88.9735 8,-88.9735"/>
<text text-anchor="start" x="11" y="-95.0735" font-family="Helvetica,sans-Serif" font-size="11.00" fill="#000000">...</text>
<polygon fill="#ffffff" stroke="transparent" points="8,-69.9735 8,-88.9735 46,-88.9735 46,-69.9735 8,-69.9735"/>
<polygon fill="none" stroke="#000000" points="8,-69.9735 8,-88.9735 46,-88.9735 46,-69.9735 8,-69.9735"/>
<text text-anchor="start" x="11" y="-76.0735" font-family="Helvetica,sans-Serif" font-size="11.00" fill="#000000"> &#160;</text>
<polygon fill="#ffffff" stroke="transparent" points="46,-69.9735 46,-88.9735 97,-88.9735 97,-69.9735 46,-69.9735"/>
<polygon fill="none" stroke="#000000" points="46,-69.9735 46,-88.9735 97,-88.9735 97,-69.9735 46,-69.9735"/>
<text text-anchor="start" x="61.6105" y="-76.0735" font-family="Helvetica,sans-Serif" font-size="11.00" fill="#000000">0 rows</text>
<polygon fill="#ffffff" stroke="transparent" points="97,-69.9735 97,-88.9735 132,-88.9735 132,-69.9735 97,-69.9735"/>
<polygon fill="none" stroke="#000000" points="97,-69.9735 97,-88.9735 132,-88.9735 132,-69.9735 97,-69.9735"/>
<text text-anchor="start" x="113.4053" y="-76.0735" font-family="Helvetica,sans-Serif" font-size="11.00" fill="#000000">2 &gt;</text>
</a>
</g>
</g>
<!-- users&#45;&gt;instance_roles -->
<g id="edge11" class="edge">
<title>users:w&#45;&gt;instance_roles:e</title>
<path fill="none" stroke="#000000" d="M166.4909,-97.9735C155.1774,-97.9735 147.9931,-97.9735 132,-97.9735"/>
<polygon fill="#000000" stroke="#000000" points="173,-97.9736 181,-101.5735 177,-97.9735 181,-97.9735 181,-97.9735 181,-97.9735 177,-97.9735 181,-94.3735 173,-97.9736 173,-97.9736"/>
<ellipse fill="none" stroke="#000000" cx="169.8" cy="-97.9736" rx="3.2" ry="3.2"/>
</g>
<!-- event_users -->
<g id="node5" class="node">
<title>event_users</title>
<g id="a_node5"><a xlink:href="../../tables/event_users.html" xlink:title="event_users" target="_top">
<polygon fill="#ffffff" stroke="transparent" points="700,-194.4735 700,-255.4735 810,-255.4735 810,-194.4735 700,-194.4735"/>
<polygon fill="#f5f5f5" stroke="transparent" points="700,-231.9735 700,-254.9735 810,-254.9735 810,-231.9735 700,-231.9735"/>
<polygon fill="none" stroke="#000000" points="700,-231.9735 700,-254.9735 810,-254.9735 810,-231.9735 700,-231.9735"/>
<text text-anchor="start" x="705" y="-240.5735" font-family="Helvetica,sans-Serif" font-weight="bold" font-size="11.00" fill="#000000">event_users</text>
<text text-anchor="start" x="775.5219" y="-240.0735" font-family="Helvetica,sans-Serif" font-size="11.00" fill="#000000">[table]</text>
<polygon fill="none" stroke="#000000" points="700,-212.9735 700,-231.9735 810,-231.9735 810,-212.9735 700,-212.9735"/>
<text text-anchor="start" x="703" y="-219.0735" font-family="Helvetica,sans-Serif" font-size="11.00" fill="#000000">...</text>
<polygon fill="#ffffff" stroke="transparent" points="700,-193.9735 700,-212.9735 736,-212.9735 736,-193.9735 700,-193.9735"/>
<polygon fill="none" stroke="#000000" points="700,-193.9735 700,-212.9735 736,-212.9735 736,-193.9735 700,-193.9735"/>
<text text-anchor="start" x="703" y="-200.0735" font-family="Helvetica,sans-Serif" font-size="11.00" fill="#000000">&lt; 4</text>
<polygon fill="#ffffff" stroke="transparent" points="736,-193.9735 736,-212.9735 781,-212.9735 781,-193.9735 736,-193.9735"/>
<polygon fill="none" stroke="#000000" points="736,-193.9735 736,-212.9735 781,-212.9735 781,-193.9735 736,-193.9735"/>
<text text-anchor="start" x="745.6105" y="-200.0735" font-family="Helvetica,sans-Serif" font-size="11.00" fill="#000000">0 rows</text>
<polygon fill="#ffffff" stroke="transparent" points="781,-193.9735 781,-212.9735 810,-212.9735 810,-193.9735 781,-193.9735"/>
<polygon fill="none" stroke="#000000" points="781,-193.9735 781,-212.9735 810,-212.9735 810,-193.9735 781,-193.9735"/>
<text text-anchor="start" x="791.4053" y="-200.0735" font-family="Helvetica,sans-Serif" font-size="11.00" fill="#000000">2 &gt;</text>
</a>
</g>
</g>
<!-- event_users&#45;&gt;users -->
<g id="edge5" class="edge">
<title>event_users:w&#45;&gt;users:e</title>
<path fill="none" stroke="#000000" d="M685.5014,-221.0982C599.1914,-210.1254 621.4334,-99.0685 530,-62.9735 450.6276,-31.6398 410.9249,-18.6595 338,-62.9735 304.1941,-83.5162 336.5581,-141.9735 297,-141.9735"/>
<polygon fill="#000000" stroke="#000000" points="692.0145,-221.4914 699.783,-225.567 696.0073,-221.7324 700,-221.9735 700,-221.9735 700,-221.9735 696.0073,-221.7324 700.217,-218.3801 692.0145,-221.4914 692.0145,-221.4914"/>
<ellipse fill="none" stroke="#000000" cx="688.8204" cy="-221.2985" rx="3.2" ry="3.2"/>
</g>
<!-- events -->
<g id="node6" class="node">
<title>events</title>
<g id="a_node6"><a xlink:href="../../tables/events.html" xlink:title="events" target="_top">
<polygon fill="#ffffff" stroke="transparent" points="571,-368.4735 571,-429.4735 651,-429.4735 651,-368.4735 571,-368.4735"/>
<polygon fill="#f5f5f5" stroke="transparent" points="571,-405.9735 571,-428.9735 651,-428.9735 651,-405.9735 571,-405.9735"/>
<polygon fill="none" stroke="#000000" points="571,-405.9735 571,-428.9735 651,-428.9735 651,-405.9735 571,-405.9735"/>
<text text-anchor="start" x="576" y="-414.5735" font-family="Helvetica,sans-Serif" font-weight="bold" font-size="11.00" fill="#000000">events</text>
<text text-anchor="start" x="616.5219" y="-414.0735" font-family="Helvetica,sans-Serif" font-size="11.00" fill="#000000">[table]</text>
<polygon fill="none" stroke="#000000" points="571,-386.9735 571,-405.9735 651,-405.9735 651,-386.9735 571,-386.9735"/>
<text text-anchor="start" x="574" y="-393.0735" font-family="Helvetica,sans-Serif" font-size="11.00" fill="#000000">...</text>
<polygon fill="#ffffff" stroke="transparent" points="571,-367.9735 571,-386.9735 592,-386.9735 592,-367.9735 571,-367.9735"/>
<polygon fill="none" stroke="#000000" points="571,-367.9735 571,-386.9735 592,-386.9735 592,-367.9735 571,-367.9735"/>
<text text-anchor="start" x="573.7026" y="-374.0735" font-family="Helvetica,sans-Serif" font-size="11.00" fill="#000000">&lt; 2</text>
<polygon fill="#ffffff" stroke="transparent" points="592,-367.9735 592,-386.9735 630,-386.9735 630,-367.9735 592,-367.9735"/>
<polygon fill="none" stroke="#000000" points="592,-367.9735 592,-386.9735 630,-386.9735 630,-367.9735 592,-367.9735"/>
<text text-anchor="start" x="594.8053" y="-374.0735" font-family="Helvetica,sans-Serif" font-size="11.00" fill="#000000">0 rows</text>
<polygon fill="#ffffff" stroke="transparent" points="630,-367.9735 630,-386.9735 651,-386.9735 651,-367.9735 630,-367.9735"/>
<polygon fill="none" stroke="#000000" points="630,-367.9735 630,-386.9735 651,-386.9735 651,-367.9735 630,-367.9735"/>
<text text-anchor="start" x="632.7026" y="-374.0735" font-family="Helvetica,sans-Serif" font-size="11.00" fill="#000000">3 &gt;</text>
</a>
</g>
</g>
<!-- event_users&#45;&gt;events -->
<g id="edge4" class="edge">
<title>event_users:w&#45;&gt;events:e</title>
<path fill="none" stroke="#000000" d="M685.7675,-224.4332C634.4148,-245.582 725.6923,-395.9735 651,-395.9735"/>
<polygon fill="#000000" stroke="#000000" points="692.1169,-223.336 700.6131,-225.5209 696.0584,-222.6547 700,-221.9735 700,-221.9735 700,-221.9735 696.0584,-222.6547 699.3869,-218.4261 692.1169,-223.336 692.1169,-223.336"/>
<ellipse fill="none" stroke="#000000" cx="688.9636" cy="-223.8809" rx="3.2" ry="3.2"/>
</g>
<!-- events&#45;&gt;chapters -->
<g id="edge6" class="edge">
<title>events:w&#45;&gt;chapters:e</title>
<path fill="none" stroke="#000000" d="M556.5292,-395.9735C441.2608,-395.9735 407.1458,-395.9735 285,-395.9735"/>
<polygon fill="#000000" stroke="#000000" points="563,-395.9736 571,-399.5735 567,-395.9735 571,-395.9735 571,-395.9735 571,-395.9735 567,-395.9735 571,-392.3735 563,-395.9736 563,-395.9736"/>
<ellipse fill="none" stroke="#000000" cx="559.8" cy="-395.9736" rx="3.2" ry="3.2"/>
</g>
<!-- venues -->
<g id="node7" class="node">
<title>venues</title>
<g id="a_node7"><a xlink:href="../../tables/venues.html" xlink:title="venues" target="_top">
<polygon fill="#ffffff" stroke="transparent" points="393.5,-420.4735 393.5,-481.4735 474.5,-481.4735 474.5,-420.4735 393.5,-420.4735"/>
<polygon fill="#f5f5f5" stroke="transparent" points="394,-457.9735 394,-480.9735 475,-480.9735 475,-457.9735 394,-457.9735"/>
<polygon fill="none" stroke="#000000" points="394,-457.9735 394,-480.9735 475,-480.9735 475,-457.9735 394,-457.9735"/>
<text text-anchor="start" x="399" y="-466.5735" font-family="Helvetica,sans-Serif" font-weight="bold" font-size="11.00" fill="#000000">venues</text>
<text text-anchor="start" x="440.5219" y="-466.0735" font-family="Helvetica,sans-Serif" font-size="11.00" fill="#000000">[table]</text>
<polygon fill="none" stroke="#000000" points="394,-438.9735 394,-457.9735 475,-457.9735 475,-438.9735 394,-438.9735"/>
<text text-anchor="start" x="397" y="-445.0735" font-family="Helvetica,sans-Serif" font-size="11.00" fill="#000000">...</text>
<polygon fill="#ffffff" stroke="transparent" points="394,-419.9735 394,-438.9735 415,-438.9735 415,-419.9735 394,-419.9735"/>
<polygon fill="none" stroke="#000000" points="394,-419.9735 394,-438.9735 415,-438.9735 415,-419.9735 394,-419.9735"/>
<text text-anchor="start" x="396.7027" y="-426.0735" font-family="Helvetica,sans-Serif" font-size="11.00" fill="#000000">&lt; 1</text>
<polygon fill="#ffffff" stroke="transparent" points="415,-419.9735 415,-438.9735 453,-438.9735 453,-419.9735 415,-419.9735"/>
<polygon fill="none" stroke="#000000" points="415,-419.9735 415,-438.9735 453,-438.9735 453,-419.9735 415,-419.9735"/>
<text text-anchor="start" x="417.8053" y="-426.0735" font-family="Helvetica,sans-Serif" font-size="11.00" fill="#000000">0 rows</text>
<polygon fill="#ffffff" stroke="transparent" points="453,-419.9735 453,-438.9735 475,-438.9735 475,-419.9735 453,-419.9735"/>
<polygon fill="none" stroke="#000000" points="453,-419.9735 453,-438.9735 475,-438.9735 475,-419.9735 453,-419.9735"/>
<text text-anchor="start" x="456.4053" y="-426.0735" font-family="Helvetica,sans-Serif" font-size="11.00" fill="#000000">2 &gt;</text>
</a>
</g>
</g>
<!-- events&#45;&gt;venues -->
<g id="edge7" class="edge">
<title>events:w&#45;&gt;venues:e</title>
<path fill="none" stroke="#000000" d="M556.2737,-397.8242C522.0774,-407.0875 518.027,-447.9735 475,-447.9735"/>
<polygon fill="#000000" stroke="#000000" points="563.0624,-396.9711 571.4489,-399.5454 567.0312,-396.4723 571,-395.9735 571,-395.9735 571,-395.9735 567.0312,-396.4723 570.5511,-392.4016 563.0624,-396.9711 563.0624,-396.9711"/>
<ellipse fill="none" stroke="#000000" cx="559.8874" cy="-397.3702" rx="3.2" ry="3.2"/>
</g>
<!-- venues&#45;&gt;chapters -->
<g id="edge12" class="edge">
<title>venues:w&#45;&gt;chapters:e</title>
<path fill="none" stroke="#000000" d="M379.6665,-446.5826C339.5067,-438.3132 333.4331,-395.9735 285,-395.9735"/>
<polygon fill="#000000" stroke="#000000" points="386.0374,-447.2008 393.6523,-451.5567 390.0187,-447.5872 394,-447.9735 394,-447.9735 394,-447.9735 390.0187,-447.5872 394.3477,-444.3904 386.0374,-447.2008 386.0374,-447.2008"/>
<ellipse fill="none" stroke="#000000" cx="382.8524" cy="-446.8917" rx="3.2" ry="3.2"/>
</g>
<!-- sessions -->
<g id="node8" class="node">
<title>sessions</title>
<g id="a_node8"><a xlink:href="../../tables/sessions.html" xlink:title="sessions" target="_top">
<polygon fill="#ffffff" stroke="transparent" points="390,-73.4735 390,-134.4735 478,-134.4735 478,-73.4735 390,-73.4735"/>
<polygon fill="#f5f5f5" stroke="transparent" points="390,-110.9735 390,-133.9735 478,-133.9735 478,-110.9735 390,-110.9735"/>
<polygon fill="none" stroke="#000000" points="390,-110.9735 390,-133.9735 478,-133.9735 478,-110.9735 390,-110.9735"/>
<text text-anchor="start" x="395" y="-119.5735" font-family="Helvetica,sans-Serif" font-weight="bold" font-size="11.00" fill="#000000">sessions</text>
<text text-anchor="start" x="443.5219" y="-119.0735" font-family="Helvetica,sans-Serif" font-size="11.00" fill="#000000">[table]</text>
<polygon fill="none" stroke="#000000" points="390,-91.9735 390,-110.9735 478,-110.9735 478,-91.9735 390,-91.9735"/>
<text text-anchor="start" x="393" y="-98.0735" font-family="Helvetica,sans-Serif" font-size="11.00" fill="#000000">...</text>
<polygon fill="#ffffff" stroke="transparent" points="390,-72.9735 390,-91.9735 419,-91.9735 419,-72.9735 390,-72.9735"/>
<polygon fill="none" stroke="#000000" points="390,-72.9735 390,-91.9735 419,-91.9735 419,-72.9735 390,-72.9735"/>
<text text-anchor="start" x="393" y="-79.0735" font-family="Helvetica,sans-Serif" font-size="11.00" fill="#000000">&lt; 1</text>
<polygon fill="#ffffff" stroke="transparent" points="419,-72.9735 419,-91.9735 461,-91.9735 461,-72.9735 419,-72.9735"/>
<polygon fill="none" stroke="#000000" points="419,-72.9735 419,-91.9735 461,-91.9735 461,-72.9735 419,-72.9735"/>
<text text-anchor="start" x="425.6105" y="-79.0735" font-family="Helvetica,sans-Serif" font-size="11.00" fill="#000000">0 rows</text>
<polygon fill="#ffffff" stroke="transparent" points="461,-72.9735 461,-91.9735 478,-91.9735 478,-72.9735 461,-72.9735"/>
<polygon fill="none" stroke="#000000" points="461,-72.9735 461,-91.9735 478,-91.9735 478,-72.9735 461,-72.9735"/>
<text text-anchor="start" x="468.8862" y="-79.0735" font-family="Helvetica,sans-Serif" font-size="11.00" fill="#000000"> &#160;</text>
</a>
</g>
</g>
<!-- sessions&#45;&gt;users -->
<g id="edge8" class="edge">
<title>sessions:w&#45;&gt;users:e</title>
<path fill="none" stroke="#000000" d="M379.2421,-101.8299C344.0576,-107.7176 338.2899,-141.9735 297,-141.9735"/>
<polygon fill="#000000" stroke="#000000" points="388.8851,-97.0496 389.52,-105.0244 387.925,-105.1514 387.2901,-97.1766 388.8851,-97.0496"/>
<polyline fill="none" stroke="#000000" points="390,-100.9735 386.0126,-101.291 "/>
<ellipse fill="none" stroke="#000000" cx="382.8227" cy="-101.5449" rx="3.2" ry="3.2"/>
</g>
<!-- user_bans -->
<g id="node9" class="node">
<title>user_bans</title>
<g id="a_node9"><a xlink:href="../../tables/user_bans.html" xlink:title="user_bans" target="_top">
<polygon fill="#ffffff" stroke="transparent" points="346,-237.9735 346,-371.9735 522,-371.9735 522,-237.9735 346,-237.9735"/>
<polygon fill="#f5f5f5" stroke="transparent" points="348,-346.9735 348,-369.9735 520,-369.9735 520,-346.9735 348,-346.9735"/>
<polygon fill="none" stroke="#000000" points="348,-346.9735 348,-369.9735 520,-369.9735 520,-346.9735 348,-346.9735"/>
<text text-anchor="start" x="353" y="-355.5735" font-family="Helvetica,sans-Serif" font-weight="bold" font-size="11.00" fill="#000000">user_bans</text>
<text text-anchor="start" x="485.0437" y="-355.0735" font-family="Helvetica,sans-Serif" font-size="11.00" fill="#000000">[table]</text>
<polygon fill="none" stroke="#000000" points="348,-324.9735 348,-346.9735 436,-346.9735 436,-324.9735 348,-324.9735"/>
<text text-anchor="start" x="368" y="-332.0735" font-family="Helvetica,sans-Serif" font-size="11.00" fill="#000000">created_at</text>
<polygon fill="none" stroke="#000000" points="436,-324.9735 436,-346.9735 520,-346.9735 520,-324.9735 436,-324.9735"/>
<text text-anchor="start" x="438.8807" y="-332.6735" font-family="Helvetica,sans-Serif" font-size="11.00" fill="#000000">timestamp[26,3]</text>
<polygon fill="none" stroke="#000000" points="348,-302.9735 348,-324.9735 436,-324.9735 436,-302.9735 348,-302.9735"/>
<text text-anchor="start" x="368" y="-310.0735" font-family="Helvetica,sans-Serif" font-size="11.00" fill="#000000">updated_at</text>
<polygon fill="none" stroke="#000000" points="436,-302.9735 436,-324.9735 520,-324.9735 520,-302.9735 436,-302.9735"/>
<text text-anchor="start" x="438.8807" y="-310.6735" font-family="Helvetica,sans-Serif" font-size="11.00" fill="#000000">timestamp[26,3]</text>
<polygon fill="none" stroke="#000000" points="348,-280.9735 348,-302.9735 436,-302.9735 436,-280.9735 348,-280.9735"/>
<image xlink:href="../../images/primaryKeys.png" width="11px" height="12px" preserveAspectRatio="xMinYMin meet" x="353" y="-297.974"/>
<text text-anchor="start" x="368" y="-288.0735" font-family="Helvetica,sans-Serif" font-size="11.00" fill="#000000">user_id</text>
<polygon fill="none" stroke="#000000" points="436,-280.9735 436,-302.9735 520,-302.9735 520,-280.9735 436,-280.9735"/>
<text text-anchor="start" x="439" y="-288.6735" font-family="Helvetica,sans-Serif" font-size="11.00" fill="#000000">int4[10]</text>
<polygon fill="none" stroke="#000000" points="348,-258.9735 348,-280.9735 436,-280.9735 436,-258.9735 348,-258.9735"/>
<image xlink:href="../../images/primaryKeys.png" width="11px" height="12px" preserveAspectRatio="xMinYMin meet" x="353" y="-275.974"/>
<text text-anchor="start" x="368" y="-266.0735" font-family="Helvetica,sans-Serif" font-size="11.00" fill="#000000">chapter_id</text>
<polygon fill="none" stroke="#000000" points="436,-258.9735 436,-280.9735 520,-280.9735 520,-258.9735 436,-258.9735"/>
<text text-anchor="start" x="439" y="-266.6735" font-family="Helvetica,sans-Serif" font-size="11.00" fill="#000000">int4[10]</text>
<polygon fill="#ffffff" stroke="transparent" points="348,-239.9735 348,-258.9735 383,-258.9735 383,-239.9735 348,-239.9735"/>
<polygon fill="none" stroke="#000000" points="348,-239.9735 348,-258.9735 383,-258.9735 383,-239.9735 348,-239.9735"/>
<text text-anchor="start" x="351" y="-246.0735" font-family="Helvetica,sans-Serif" font-size="11.00" fill="#000000">&lt; 2</text>
<polygon fill="#ffffff" stroke="transparent" points="383,-239.9735 383,-258.9735 436,-258.9735 436,-239.9735 383,-239.9735"/>
<polygon fill="none" stroke="#000000" points="383,-239.9735 383,-258.9735 436,-258.9735 436,-239.9735 383,-239.9735"/>
<text text-anchor="start" x="400.6105" y="-246.0735" font-family="Helvetica,sans-Serif" font-size="11.00" fill="#000000">0 rows</text>
<polygon fill="#ffffff" stroke="transparent" points="436,-239.9735 436,-258.9735 520,-258.9735 520,-239.9735 436,-239.9735"/>
<polygon fill="none" stroke="#000000" points="436,-239.9735 436,-258.9735 520,-258.9735 520,-239.9735 436,-239.9735"/>
<text text-anchor="start" x="501.4053" y="-246.0735" font-family="Helvetica,sans-Serif" font-size="11.00" fill="#000000">0 &gt;</text>
<polygon fill="none" stroke="#000000" stroke-width="2" points="347,-238.9735 347,-370.9735 521,-370.9735 521,-238.9735 347,-238.9735"/>
</a>
</g>
</g>
<!-- user_bans&#45;&gt;chapters -->
<g id="edge9" class="edge">
<title>user_bans:w&#45;&gt;chapters:e</title>
<path fill="none" stroke="#000000" d="M333.4767,-273.0881C295.9592,-292.4911 341.7402,-395.9735 285,-395.9735"/>
<polygon fill="#000000" stroke="#000000" points="340.1779,-271.6511 348.7549,-273.4935 344.0889,-270.8123 348,-269.9735 348,-269.9735 348,-269.9735 344.0889,-270.8123 347.2451,-266.4536 340.1779,-271.6511 340.1779,-271.6511"/>
<ellipse fill="none" stroke="#000000" cx="337.049" cy="-272.3221" rx="3.2" ry="3.2"/>
</g>
<!-- user_bans&#45;&gt;users -->
<g id="edge10" class="edge">
<title>user_bans:w&#45;&gt;users:e</title>
<path fill="none" stroke="#000000" d="M333.7294,-289.111C291.2447,-268.3735 361.6384,-141.9735 297,-141.9735"/>
<polygon fill="#000000" stroke="#000000" points="340.1562,-290.4001 347.292,-295.5032 344.0781,-291.1868 348,-291.9735 348,-291.9735 348,-291.9735 344.0781,-291.1868 348.708,-288.4438 340.1562,-290.4001 340.1562,-290.4001"/>
<ellipse fill="none" stroke="#000000" cx="337.0187" cy="-289.7708" rx="3.2" ry="3.2"/>
</g>
</g>
</svg>
