<?xml version="1.0" encoding="UTF-8" standalone="no"?>
<!DOCTYPE svg PUBLIC "-//W3C//DTD SVG 1.1//EN"
 "http://www.w3.org/Graphics/SVG/1.1/DTD/svg11.dtd">
<!-- Generated by graphviz version 2.40.1 (20161225.0304)
 -->
<!-- Title: twoDegreesRelationshipsDiagram Pages: 1 -->
<svg width="392pt" height="469pt"
 viewBox="0.00 0.00 392.00 468.70" xmlns="http://www.w3.org/2000/svg" xmlns:xlink="http://www.w3.org/1999/xlink">
<g id="graph0" class="graph" transform="scale(1 1) rotate(0) translate(4 464.7)">
<title>twoDegreesRelationshipsDiagram</title>
<polygon fill="#ffffff" stroke="transparent" points="-4,4 -4,-464.7 388,-464.7 388,4 -4,4"/>
<text text-anchor="middle" x="72.4936" y="-7.3" font-family="Helvetica,sans-Serif" font-size="11.00" fill="#000000">Generated by SchemaSpy</text>
<!-- rsvps -->
<g id="node1" class="node">
<title>rsvps</title>
<g id="a_node1"><a xlink:href="../../tables/rsvps.html" xlink:title="rsvps" target="_top">
<polygon fill="#ffffff" stroke="transparent" points="225,-395.7 225,-456.7 296,-456.7 296,-395.7 225,-395.7"/>
<polygon fill="#f5f5f5" stroke="transparent" points="225.5,-433.2 225.5,-456.2 296.5,-456.2 296.5,-433.2 225.5,-433.2"/>
<polygon fill="none" stroke="#000000" points="225.5,-433.2 225.5,-456.2 296.5,-456.2 296.5,-433.2 225.5,-433.2"/>
<text text-anchor="start" x="230.5" y="-442.3" font-family="Helvetica,sans-Serif" font-weight="bold" font-size="11.00" fill="#000000">rsvps</text>
<text text-anchor="start" x="261.5437" y="-441.3" font-family="Helvetica,sans-Serif" font-size="11.00" fill="#000000">[table]</text>
<polygon fill="none" stroke="#000000" points="225.5,-414.2 225.5,-433.2 296.5,-433.2 296.5,-414.2 225.5,-414.2"/>
<text text-anchor="start" x="228.5" y="-420.3" font-family="Helvetica,sans-Serif" font-size="11.00" fill="#000000">...</text>
<polygon fill="#ffffff" stroke="transparent" points="225.5,-395.2 225.5,-414.2 246.5,-414.2 246.5,-395.2 225.5,-395.2"/>
<polygon fill="none" stroke="#000000" points="225.5,-395.2 225.5,-414.2 246.5,-414.2 246.5,-395.2 225.5,-395.2"/>
<text text-anchor="start" x="228.2027" y="-401.3" font-family="Helvetica,sans-Serif" font-size="11.00" fill="#000000">&lt; 2</text>
<polygon fill="#ffffff" stroke="transparent" points="246.5,-395.2 246.5,-414.2 284.5,-414.2 284.5,-395.2 246.5,-395.2"/>
<polygon fill="none" stroke="#000000" points="246.5,-395.2 246.5,-414.2 284.5,-414.2 284.5,-395.2 246.5,-395.2"/>
<text text-anchor="start" x="249.3053" y="-401.3" font-family="Helvetica,sans-Serif" font-size="11.00" fill="#000000">0 rows</text>
<polygon fill="#ffffff" stroke="transparent" points="284.5,-395.2 284.5,-414.2 296.5,-414.2 296.5,-395.2 284.5,-395.2"/>
<polygon fill="none" stroke="#000000" points="284.5,-395.2 284.5,-414.2 296.5,-414.2 296.5,-395.2 284.5,-395.2"/>
<text text-anchor="start" x="287.4431" y="-401.3" font-family="Helvetica,sans-Serif" font-size="11.00" fill="#000000"> &#160;</text>
</a>
</g>
</g>
<!-- users -->
<g id="node2" class="node">
<title>users</title>
<g id="a_node2"><a xlink:href="../../tables/users.html" xlink:title="users" target="_top">
<polygon fill="#ffffff" stroke="transparent" points="8,-188.7 8,-293.7 96,-293.7 96,-188.7 8,-188.7"/>
<polygon fill="#f5f5f5" stroke="transparent" points="8,-270.2 8,-293.2 96,-293.2 96,-270.2 8,-270.2"/>
<polygon fill="none" stroke="#000000" points="8,-270.2 8,-293.2 96,-293.2 96,-270.2 8,-270.2"/>
<text text-anchor="start" x="13" y="-279.3" font-family="Helvetica,sans-Serif" font-weight="bold" font-size="11.00" fill="#000000">users</text>
<text text-anchor="start" x="61.0437" y="-278.3" font-family="Helvetica,sans-Serif" font-size="11.00" fill="#000000">[table]</text>
<polygon fill="none" stroke="#000000" points="8,-248.2 8,-270.2 96,-270.2 96,-248.2 8,-248.2"/>
<image xlink:href="../../images/primaryKeys.png" width="11px" height="12px" preserveAspectRatio="xMinYMin meet" x="13" y="-265.2"/>
<text text-anchor="start" x="28" y="-255.3" font-family="Helvetica,sans-Serif" font-size="11.00" fill="#000000">id</text>
<polygon fill="#ffffff" stroke="transparent" points="8,-226.2 8,-248.2 96,-248.2 96,-226.2 8,-226.2"/>
<polygon fill="none" stroke="#000000" points="8,-226.2 8,-248.2 96,-248.2 96,-226.2 8,-226.2"/>
<text text-anchor="start" x="28" y="-233.3" font-family="Helvetica,sans-Serif" font-size="11.00" fill="#000000">email</text>
<polygon fill="none" stroke="#000000" points="8,-207.2 8,-226.2 96,-226.2 96,-207.2 8,-207.2"/>
<text text-anchor="start" x="11" y="-213.3" font-family="Helvetica,sans-Serif" font-size="11.00" fill="#000000">...</text>
<polygon fill="#ffffff" stroke="transparent" points="8,-188.2 8,-207.2 28,-207.2 28,-188.2 8,-188.2"/>
<polygon fill="none" stroke="#000000" points="8,-188.2 8,-207.2 28,-207.2 28,-188.2 8,-188.2"/>
<text text-anchor="start" x="11" y="-194.3" font-family="Helvetica,sans-Serif" font-size="11.00" fill="#000000"> &#160;</text>
<polygon fill="#ffffff" stroke="transparent" points="28,-188.2 28,-207.2 70,-207.2 70,-188.2 28,-188.2"/>
<polygon fill="none" stroke="#000000" points="28,-188.2 28,-207.2 70,-207.2 70,-188.2 28,-188.2"/>
<text text-anchor="start" x="34.6105" y="-194.3" font-family="Helvetica,sans-Serif" font-size="11.00" fill="#000000">0 rows</text>
<polygon fill="#ffffff" stroke="transparent" points="70,-188.2 70,-207.2 96,-207.2 96,-188.2 70,-188.2"/>
<polygon fill="none" stroke="#000000" points="70,-188.2 70,-207.2 96,-207.2 96,-188.2 70,-188.2"/>
<text text-anchor="start" x="77.4053" y="-194.3" font-family="Helvetica,sans-Serif" font-size="11.00" fill="#000000">5 &gt;</text>
</a>
</g>
</g>
<!-- rsvps&#45;&gt;users -->
<g id="edge1" class="edge">
<title>rsvps:w&#45;&gt;users:e</title>
<path fill="none" stroke="#000000" d="M211.0245,-422.8856C178.4409,-421.2833 162.3657,-412.9853 137,-385.2 97.2951,-341.7078 154.8901,-259.2 96,-259.2"/>
<polygon fill="#000000" stroke="#000000" points="217.5019,-423.0262 225.4218,-426.7992 221.5009,-423.1131 225.5,-423.2 225.5,-423.2 225.5,-423.2 221.5009,-423.1131 225.5782,-419.6008 217.5019,-423.0262 217.5019,-423.0262"/>
<ellipse fill="none" stroke="#000000" cx="214.3026" cy="-422.9567" rx="3.2" ry="3.2"/>
</g>
<!-- user_bans -->
<g id="node3" class="node">
<title>user_bans</title>
<g id="a_node3"><a xlink:href="../../tables/user_bans.html" xlink:title="user_bans" target="_top">
<polygon fill="#ffffff" stroke="transparent" points="213.5,-313.7 213.5,-374.7 307.5,-374.7 307.5,-313.7 213.5,-313.7"/>
<polygon fill="#f5f5f5" stroke="transparent" points="213.5,-351.2 213.5,-374.2 307.5,-374.2 307.5,-351.2 213.5,-351.2"/>
<polygon fill="none" stroke="#000000" points="213.5,-351.2 213.5,-374.2 307.5,-374.2 307.5,-351.2 213.5,-351.2"/>
<text text-anchor="start" x="218.3244" y="-360.3" font-family="Helvetica,sans-Serif" font-weight="bold" font-size="11.00" fill="#000000">user_bans</text>
<text text-anchor="start" x="273.0219" y="-359.3" font-family="Helvetica,sans-Serif" font-size="11.00" fill="#000000">[table]</text>
<polygon fill="none" stroke="#000000" points="213.5,-332.2 213.5,-351.2 307.5,-351.2 307.5,-332.2 213.5,-332.2"/>
<text text-anchor="start" x="216.5" y="-338.3" font-family="Helvetica,sans-Serif" font-size="11.00" fill="#000000">...</text>
<polygon fill="#ffffff" stroke="transparent" points="213.5,-313.2 213.5,-332.2 245.5,-332.2 245.5,-313.2 213.5,-313.2"/>
<polygon fill="none" stroke="#000000" points="213.5,-313.2 213.5,-332.2 245.5,-332.2 245.5,-313.2 213.5,-313.2"/>
<text text-anchor="start" x="216.5" y="-319.3" font-family="Helvetica,sans-Serif" font-size="11.00" fill="#000000">&lt; 2</text>
<polygon fill="#ffffff" stroke="transparent" points="245.5,-313.2 245.5,-332.2 289.5,-332.2 289.5,-313.2 245.5,-313.2"/>
<polygon fill="none" stroke="#000000" points="245.5,-313.2 245.5,-332.2 289.5,-332.2 289.5,-313.2 245.5,-313.2"/>
<text text-anchor="start" x="254.1105" y="-319.3" font-family="Helvetica,sans-Serif" font-size="11.00" fill="#000000">0 rows</text>
<polygon fill="#ffffff" stroke="transparent" points="289.5,-313.2 289.5,-332.2 307.5,-332.2 307.5,-313.2 289.5,-313.2"/>
<polygon fill="none" stroke="#000000" points="289.5,-313.2 289.5,-332.2 307.5,-332.2 307.5,-313.2 289.5,-313.2"/>
<text text-anchor="start" x="298.3862" y="-319.3" font-family="Helvetica,sans-Serif" font-size="11.00" fill="#000000"> &#160;</text>
</a>
</g>
</g>
<!-- user_bans&#45;&gt;users -->
<g id="edge2" class="edge">
<title>user_bans:w&#45;&gt;users:e</title>
<path fill="none" stroke="#000000" d="M199.1104,-340.3142C172.8153,-336.75 163.1517,-322.7058 137,-303.2 115.574,-287.2189 122.7296,-259.2 96,-259.2"/>
<polygon fill="#000000" stroke="#000000" points="205.5151,-340.7084 213.2788,-344.7932 209.5076,-340.9542 213.5,-341.2 213.5,-341.2 213.5,-341.2 209.5076,-340.9542 213.7212,-337.6068 205.5151,-340.7084 205.5151,-340.7084"/>
<ellipse fill="none" stroke="#000000" cx="202.3212" cy="-340.5117" rx="3.2" ry="3.2"/>
</g>
<!-- user_chapter_roles -->
<g id="node4" class="node">
<title>user_chapter_roles</title>
<g id="a_node4"><a xlink:href="../../tables/user_chapter_roles.html" xlink:title="user_chapter_roles" target="_top">
<polygon fill="#ffffff" stroke="transparent" points="192,-231.7 192,-292.7 329,-292.7 329,-231.7 192,-231.7"/>
<polygon fill="#f5f5f5" stroke="transparent" points="192.5,-269.2 192.5,-292.2 329.5,-292.2 329.5,-269.2 192.5,-269.2"/>
<polygon fill="none" stroke="#000000" points="192.5,-269.2 192.5,-292.2 329.5,-292.2 329.5,-269.2 192.5,-269.2"/>
<text text-anchor="start" x="197.4338" y="-278.3" font-family="Helvetica,sans-Serif" font-weight="bold" font-size="11.00" fill="#000000">user_chapter_roles</text>
<text text-anchor="start" x="295.0219" y="-277.3" font-family="Helvetica,sans-Serif" font-size="11.00" fill="#000000">[table]</text>
<polygon fill="none" stroke="#000000" points="192.5,-250.2 192.5,-269.2 329.5,-269.2 329.5,-250.2 192.5,-250.2"/>
<text text-anchor="start" x="195.5" y="-256.3" font-family="Helvetica,sans-Serif" font-size="11.00" fill="#000000">...</text>
<polygon fill="#ffffff" stroke="transparent" points="192.5,-231.2 192.5,-250.2 246.5,-250.2 246.5,-231.2 192.5,-231.2"/>
<polygon fill="none" stroke="#000000" points="192.5,-231.2 192.5,-250.2 246.5,-250.2 246.5,-231.2 192.5,-231.2"/>
<text text-anchor="start" x="195.5" y="-237.3" font-family="Helvetica,sans-Serif" font-size="11.00" fill="#000000">&lt; 2</text>
<polygon fill="#ffffff" stroke="transparent" points="246.5,-231.2 246.5,-250.2 300.5,-250.2 300.5,-231.2 246.5,-231.2"/>
<polygon fill="none" stroke="#000000" points="246.5,-231.2 246.5,-250.2 300.5,-250.2 300.5,-231.2 246.5,-231.2"/>
<text text-anchor="start" x="265.1105" y="-237.3" font-family="Helvetica,sans-Serif" font-size="11.00" fill="#000000">0 rows</text>
<polygon fill="#ffffff" stroke="transparent" points="300.5,-231.2 300.5,-250.2 329.5,-250.2 329.5,-231.2 300.5,-231.2"/>
<polygon fill="none" stroke="#000000" points="300.5,-231.2 300.5,-250.2 329.5,-250.2 329.5,-231.2 300.5,-231.2"/>
<text text-anchor="start" x="320.3862" y="-237.3" font-family="Helvetica,sans-Serif" font-size="11.00" fill="#000000"> &#160;</text>
</a>
</g>
</g>
<!-- user_chapter_roles&#45;&gt;users -->
<g id="edge3" class="edge">
<title>user_chapter_roles:w&#45;&gt;users:e</title>
<path fill="none" stroke="#000000" d="M177.7988,-259.2C146.428,-259.2 133.5278,-259.2 96,-259.2"/>
<polygon fill="#000000" stroke="#000000" points="184.5,-259.2001 192.5,-262.8 188.5,-259.2 192.5,-259.2 192.5,-259.2 192.5,-259.2 188.5,-259.2 192.5,-255.6 184.5,-259.2001 184.5,-259.2001"/>
<ellipse fill="none" stroke="#000000" cx="181.3" cy="-259.2001" rx="3.2" ry="3.2"/>
</g>
<!-- user_event_roles -->
<g id="node5" class="node">
<title>user_event_roles</title>
<g id="a_node5"><a xlink:href="../../tables/user_event_roles.html" xlink:title="user_event_roles" target="_top">
<polygon fill="#ffffff" stroke="transparent" points="197,-149.7 197,-210.7 324,-210.7 324,-149.7 197,-149.7"/>
<polygon fill="#f5f5f5" stroke="transparent" points="197.5,-187.2 197.5,-210.2 324.5,-210.2 324.5,-187.2 197.5,-187.2"/>
<polygon fill="none" stroke="#000000" points="197.5,-187.2 197.5,-210.2 324.5,-210.2 324.5,-187.2 197.5,-187.2"/>
<text text-anchor="start" x="202.3222" y="-196.3" font-family="Helvetica,sans-Serif" font-weight="bold" font-size="11.00" fill="#000000">user_event_roles</text>
<text text-anchor="start" x="290.0219" y="-195.3" font-family="Helvetica,sans-Serif" font-size="11.00" fill="#000000">[table]</text>
<polygon fill="none" stroke="#000000" points="197.5,-168.2 197.5,-187.2 324.5,-187.2 324.5,-168.2 197.5,-168.2"/>
<text text-anchor="start" x="200.5" y="-174.3" font-family="Helvetica,sans-Serif" font-size="11.00" fill="#000000">...</text>
<polygon fill="#ffffff" stroke="transparent" points="197.5,-149.2 197.5,-168.2 246.5,-168.2 246.5,-149.2 197.5,-149.2"/>
<polygon fill="none" stroke="#000000" points="197.5,-149.2 197.5,-168.2 246.5,-168.2 246.5,-149.2 197.5,-149.2"/>
<text text-anchor="start" x="200.5" y="-155.3" font-family="Helvetica,sans-Serif" font-size="11.00" fill="#000000">&lt; 2</text>
<polygon fill="#ffffff" stroke="transparent" points="246.5,-149.2 246.5,-168.2 298.5,-168.2 298.5,-149.2 246.5,-149.2"/>
<polygon fill="none" stroke="#000000" points="246.5,-149.2 246.5,-168.2 298.5,-168.2 298.5,-149.2 246.5,-149.2"/>
<text text-anchor="start" x="263.1105" y="-155.3" font-family="Helvetica,sans-Serif" font-size="11.00" fill="#000000">0 rows</text>
<polygon fill="#ffffff" stroke="transparent" points="298.5,-149.2 298.5,-168.2 324.5,-168.2 324.5,-149.2 298.5,-149.2"/>
<polygon fill="none" stroke="#000000" points="298.5,-149.2 298.5,-168.2 324.5,-168.2 324.5,-149.2 298.5,-149.2"/>
<text text-anchor="start" x="315.3862" y="-155.3" font-family="Helvetica,sans-Serif" font-size="11.00" fill="#000000"> &#160;</text>
</a>
</g>
</g>
<!-- user_event_roles&#45;&gt;users -->
<g id="edge4" class="edge">
<title>user_event_roles:w&#45;&gt;users:e</title>
<path fill="none" stroke="#000000" d="M183.163,-179.0201C163.0443,-184.8379 158.3684,-203.6314 137,-221.2 117.8085,-236.9788 120.8452,-259.2 96,-259.2"/>
<polygon fill="#000000" stroke="#000000" points="189.5637,-178.2076 197.9534,-180.7713 193.5318,-177.7038 197.5,-177.2 197.5,-177.2 197.5,-177.2 193.5318,-177.7038 197.0466,-173.6287 189.5637,-178.2076 189.5637,-178.2076"/>
<ellipse fill="none" stroke="#000000" cx="186.3892" cy="-178.6106" rx="3.2" ry="3.2"/>
</g>
<!-- user_instance_roles -->
<g id="node6" class="node">
<title>user_instance_roles</title>
<g id="a_node6"><a xlink:href="../../tables/user_instance_roles.html" xlink:title="user_instance_roles" target="_top">
<polygon fill="#ffffff" stroke="transparent" points="145,-38.2 145,-128.2 376,-128.2 376,-38.2 145,-38.2"/>
<polygon fill="#f5f5f5" stroke="transparent" points="147.5,-103.2 147.5,-126.2 374.5,-126.2 374.5,-103.2 147.5,-103.2"/>
<polygon fill="none" stroke="#000000" points="147.5,-103.2 147.5,-126.2 374.5,-126.2 374.5,-103.2 147.5,-103.2"/>
<text text-anchor="start" x="152.5" y="-112.3" font-family="Helvetica,sans-Serif" font-weight="bold" font-size="11.00" fill="#000000">user_instance_roles</text>
<text text-anchor="start" x="339.5437" y="-111.3" font-family="Helvetica,sans-Serif" font-size="11.00" fill="#000000">[table]</text>
<polygon fill="none" stroke="#000000" points="147.5,-81.2 147.5,-103.2 284.5,-103.2 284.5,-81.2 147.5,-81.2"/>
<image xlink:href="../../images/primaryKeys.png" width="11px" height="12px" preserveAspectRatio="xMinYMin meet" x="152.5" y="-98.2"/>
<text text-anchor="start" x="167.5" y="-88.3" font-family="Helvetica,sans-Serif" font-size="11.00" fill="#000000">user_id</text>
<polygon fill="none" stroke="#000000" points="284.5,-81.2 284.5,-103.2 374.5,-103.2 374.5,-81.2 284.5,-81.2"/>
<text text-anchor="start" x="287.5" y="-88.9" font-family="Helvetica,sans-Serif" font-size="11.00" fill="#000000">int4[10]</text>
<polygon fill="none" stroke="#000000" points="147.5,-59.2 147.5,-81.2 284.5,-81.2 284.5,-59.2 147.5,-59.2"/>
<image xlink:href="../../images/primaryKeys.png" width="11px" height="12px" preserveAspectRatio="xMinYMin meet" x="152.5" y="-76.2"/>
<text text-anchor="start" x="167.5" y="-66.3" font-family="Helvetica,sans-Serif" font-size="11.00" fill="#000000">role_name</text>
<polygon fill="none" stroke="#000000" points="284.5,-59.2 284.5,-81.2 374.5,-81.2 374.5,-59.2 284.5,-59.2"/>
<text text-anchor="start" x="287.0043" y="-66.9" font-family="Helvetica,sans-Serif" font-size="11.00" fill="#000000">text[2147483647]</text>
<polygon fill="#ffffff" stroke="transparent" points="147.5,-40.2 147.5,-59.2 207.5,-59.2 207.5,-40.2 147.5,-40.2"/>
<polygon fill="none" stroke="#000000" points="147.5,-40.2 147.5,-59.2 207.5,-59.2 207.5,-40.2 147.5,-40.2"/>
<text text-anchor="start" x="150.5" y="-46.3" font-family="Helvetica,sans-Serif" font-size="11.00" fill="#000000">&lt; 1</text>
<polygon fill="#ffffff" stroke="transparent" points="207.5,-40.2 207.5,-59.2 284.5,-59.2 284.5,-40.2 207.5,-40.2"/>
<polygon fill="none" stroke="#000000" points="207.5,-40.2 207.5,-59.2 284.5,-59.2 284.5,-40.2 207.5,-40.2"/>
<text text-anchor="start" x="249.1105" y="-46.3" font-family="Helvetica,sans-Serif" font-size="11.00" fill="#000000">0 rows</text>
<polygon fill="#ffffff" stroke="transparent" points="284.5,-40.2 284.5,-59.2 374.5,-59.2 374.5,-40.2 284.5,-40.2"/>
<polygon fill="none" stroke="#000000" points="284.5,-40.2 284.5,-59.2 374.5,-59.2 374.5,-40.2 284.5,-40.2"/>
<text text-anchor="start" x="355.9053" y="-46.3" font-family="Helvetica,sans-Serif" font-size="11.00" fill="#000000">0 &gt;</text>
<polygon fill="none" stroke="#000000" stroke-width="2" points="146,-39.2 146,-127.2 375,-127.2 375,-39.2 146,-39.2"/>
</a>
</g>
</g>
<!-- user_instance_roles&#45;&gt;users -->
<g id="edge5" class="edge">
<title>user_instance_roles:w&#45;&gt;users:e</title>
<path fill="none" stroke="#000000" d="M133.0571,-94.8232C84.2429,-116.0692 167.9067,-259.2 96,-259.2"/>
<polygon fill="#000000" stroke="#000000" points="139.6288,-93.6296 148.1433,-95.7421 143.5644,-92.9148 147.5,-92.2 147.5,-92.2 147.5,-92.2 143.5644,-92.9148 146.8567,-88.6579 139.6288,-93.6296 139.6288,-93.6296"/>
<ellipse fill="none" stroke="#000000" cx="136.4803" cy="-94.2015" rx="3.2" ry="3.2"/>
</g>
</g>
</svg>
