<?xml version="1.0" encoding="UTF-8" standalone="no"?>
<!DOCTYPE svg PUBLIC "-//W3C//DTD SVG 1.1//EN"
 "http://www.w3.org/Graphics/SVG/1.1/DTD/svg11.dtd">
<!-- Generated by graphviz version 2.40.1 (20161225.0304)
 -->
<!-- Title: twoDegreesRelationshipsDiagram Pages: 1 -->
<svg width="525pt" height="557pt"
 viewBox="0.00 0.00 525.00 557.20" xmlns="http://www.w3.org/2000/svg" xmlns:xlink="http://www.w3.org/1999/xlink">
<g id="graph0" class="graph" transform="scale(1 1) rotate(0) translate(4 553.2)">
<title>twoDegreesRelationshipsDiagram</title>
<polygon fill="#ffffff" stroke="transparent" points="-4,4 -4,-553.2 521,-553.2 521,4 -4,4"/>
<text text-anchor="middle" x="72.4936" y="-7.3" font-family="Helvetica,sans-Serif" font-size="11.00" fill="#000000">Generated by SchemaSpy</text>
<!-- events -->
<g id="node1" class="node">
<title>events</title>
<g id="a_node1"><a xlink:href="../../tables/events.html" xlink:title="events" target="_top">
<polygon fill="#ffffff" stroke="transparent" points="149,-98.2 149,-159.2 229,-159.2 229,-98.2 149,-98.2"/>
<polygon fill="#f5f5f5" stroke="transparent" points="149,-135.7 149,-158.7 229,-158.7 229,-135.7 149,-135.7"/>
<polygon fill="none" stroke="#000000" points="149,-135.7 149,-158.7 229,-158.7 229,-135.7 149,-135.7"/>
<text text-anchor="start" x="154" y="-144.8" font-family="Helvetica,sans-Serif" font-weight="bold" font-size="11.00" fill="#000000">events</text>
<text text-anchor="start" x="194.0437" y="-143.8" font-family="Helvetica,sans-Serif" font-size="11.00" fill="#000000">[table]</text>
<polygon fill="none" stroke="#000000" points="149,-116.7 149,-135.7 229,-135.7 229,-116.7 149,-116.7"/>
<text text-anchor="start" x="152" y="-122.8" font-family="Helvetica,sans-Serif" font-size="11.00" fill="#000000">...</text>
<polygon fill="#ffffff" stroke="transparent" points="149,-97.7 149,-116.7 170,-116.7 170,-97.7 149,-97.7"/>
<polygon fill="none" stroke="#000000" points="149,-97.7 149,-116.7 170,-116.7 170,-97.7 149,-97.7"/>
<text text-anchor="start" x="151.7027" y="-103.8" font-family="Helvetica,sans-Serif" font-size="11.00" fill="#000000">&lt; 2</text>
<polygon fill="#ffffff" stroke="transparent" points="170,-97.7 170,-116.7 208,-116.7 208,-97.7 170,-97.7"/>
<polygon fill="none" stroke="#000000" points="170,-97.7 170,-116.7 208,-116.7 208,-97.7 170,-97.7"/>
<text text-anchor="start" x="172.8053" y="-103.8" font-family="Helvetica,sans-Serif" font-size="11.00" fill="#000000">0 rows</text>
<polygon fill="#ffffff" stroke="transparent" points="208,-97.7 208,-116.7 229,-116.7 229,-97.7 208,-97.7"/>
<polygon fill="none" stroke="#000000" points="208,-97.7 208,-116.7 229,-116.7 229,-97.7 208,-97.7"/>
<text text-anchor="start" x="210.7027" y="-103.8" font-family="Helvetica,sans-Serif" font-size="11.00" fill="#000000">4 &gt;</text>
</a>
</g>
</g>
<!-- chapters -->
<g id="node2" class="node">
<title>chapters</title>
<g id="a_node2"><a xlink:href="../../tables/chapters.html" xlink:title="chapters" target="_top">
<polygon fill="#ffffff" stroke="transparent" points="8,-312.2 8,-395.2 96,-395.2 96,-312.2 8,-312.2"/>
<polygon fill="#f5f5f5" stroke="transparent" points="8,-371.7 8,-394.7 96,-394.7 96,-371.7 8,-371.7"/>
<polygon fill="none" stroke="#000000" points="8,-371.7 8,-394.7 96,-394.7 96,-371.7 8,-371.7"/>
<text text-anchor="start" x="13" y="-380.8" font-family="Helvetica,sans-Serif" font-weight="bold" font-size="11.00" fill="#000000">chapters</text>
<text text-anchor="start" x="61.0437" y="-379.8" font-family="Helvetica,sans-Serif" font-size="11.00" fill="#000000">[table]</text>
<polygon fill="none" stroke="#000000" points="8,-349.7 8,-371.7 96,-371.7 96,-349.7 8,-349.7"/>
<image xlink:href="../../images/primaryKeys.png" width="11px" height="12px" preserveAspectRatio="xMinYMin meet" x="13" y="-366.7"/>
<text text-anchor="start" x="28" y="-356.8" font-family="Helvetica,sans-Serif" font-size="11.00" fill="#000000">id</text>
<polygon fill="none" stroke="#000000" points="8,-330.7 8,-349.7 96,-349.7 96,-330.7 8,-330.7"/>
<text text-anchor="start" x="11" y="-336.8" font-family="Helvetica,sans-Serif" font-size="11.00" fill="#000000">...</text>
<polygon fill="#ffffff" stroke="transparent" points="8,-311.7 8,-330.7 28,-330.7 28,-311.7 8,-311.7"/>
<polygon fill="none" stroke="#000000" points="8,-311.7 8,-330.7 28,-330.7 28,-311.7 8,-311.7"/>
<text text-anchor="start" x="11" y="-317.8" font-family="Helvetica,sans-Serif" font-size="11.00" fill="#000000"> &#160;</text>
<polygon fill="#ffffff" stroke="transparent" points="28,-311.7 28,-330.7 70,-330.7 70,-311.7 28,-311.7"/>
<polygon fill="none" stroke="#000000" points="28,-311.7 28,-330.7 70,-330.7 70,-311.7 28,-311.7"/>
<text text-anchor="start" x="34.6105" y="-317.8" font-family="Helvetica,sans-Serif" font-size="11.00" fill="#000000">0 rows</text>
<polygon fill="#ffffff" stroke="transparent" points="70,-311.7 70,-330.7 96,-330.7 96,-311.7 70,-311.7"/>
<polygon fill="none" stroke="#000000" points="70,-311.7 70,-330.7 96,-330.7 96,-311.7 70,-311.7"/>
<text text-anchor="start" x="77.4053" y="-317.8" font-family="Helvetica,sans-Serif" font-size="11.00" fill="#000000">3 &gt;</text>
</a>
</g>
</g>
<!-- events&#45;&gt;chapters -->
<g id="edge1" class="edge">
<title>events:w&#45;&gt;chapters:e</title>
<path fill="none" stroke="#000000" d="M134.6935,-127.4565C57.6059,-148.9612 197.6307,-360.7 96,-360.7"/>
<polygon fill="#000000" stroke="#000000" points="141.0596,-126.6749 149.4387,-129.2732 145.0298,-126.1875 149,-125.7 149,-125.7 149,-125.7 145.0298,-126.1875 148.5613,-122.1268 141.0596,-126.6749 141.0596,-126.6749"/>
<ellipse fill="none" stroke="#000000" cx="137.8835" cy="-127.0649" rx="3.2" ry="3.2"/>
</g>
<!-- rsvps -->
<g id="node3" class="node">
<title>rsvps</title>
<g id="a_node3"><a xlink:href="../../tables/rsvps.html" xlink:title="rsvps" target="_top">
<polygon fill="#ffffff" stroke="transparent" points="360,-38.2 360,-99.2 431,-99.2 431,-38.2 360,-38.2"/>
<polygon fill="#f5f5f5" stroke="transparent" points="360.5,-75.7 360.5,-98.7 431.5,-98.7 431.5,-75.7 360.5,-75.7"/>
<polygon fill="none" stroke="#000000" points="360.5,-75.7 360.5,-98.7 431.5,-98.7 431.5,-75.7 360.5,-75.7"/>
<text text-anchor="start" x="365.5" y="-84.8" font-family="Helvetica,sans-Serif" font-weight="bold" font-size="11.00" fill="#000000">rsvps</text>
<text text-anchor="start" x="396.5437" y="-83.8" font-family="Helvetica,sans-Serif" font-size="11.00" fill="#000000">[table]</text>
<polygon fill="none" stroke="#000000" points="360.5,-56.7 360.5,-75.7 431.5,-75.7 431.5,-56.7 360.5,-56.7"/>
<text text-anchor="start" x="363.5" y="-62.8" font-family="Helvetica,sans-Serif" font-size="11.00" fill="#000000">...</text>
<polygon fill="#ffffff" stroke="transparent" points="360.5,-37.7 360.5,-56.7 381.5,-56.7 381.5,-37.7 360.5,-37.7"/>
<polygon fill="none" stroke="#000000" points="360.5,-37.7 360.5,-56.7 381.5,-56.7 381.5,-37.7 360.5,-37.7"/>
<text text-anchor="start" x="363.2027" y="-43.8" font-family="Helvetica,sans-Serif" font-size="11.00" fill="#000000">&lt; 2</text>
<polygon fill="#ffffff" stroke="transparent" points="381.5,-37.7 381.5,-56.7 419.5,-56.7 419.5,-37.7 381.5,-37.7"/>
<polygon fill="none" stroke="#000000" points="381.5,-37.7 381.5,-56.7 419.5,-56.7 419.5,-37.7 381.5,-37.7"/>
<text text-anchor="start" x="384.3053" y="-43.8" font-family="Helvetica,sans-Serif" font-size="11.00" fill="#000000">0 rows</text>
<polygon fill="#ffffff" stroke="transparent" points="419.5,-37.7 419.5,-56.7 431.5,-56.7 431.5,-37.7 419.5,-37.7"/>
<polygon fill="none" stroke="#000000" points="419.5,-37.7 419.5,-56.7 431.5,-56.7 431.5,-37.7 419.5,-37.7"/>
<text text-anchor="start" x="422.4431" y="-43.8" font-family="Helvetica,sans-Serif" font-size="11.00" fill="#000000"> &#160;</text>
</a>
</g>
</g>
<!-- rsvps&#45;&gt;events -->
<g id="edge2" class="edge">
<title>rsvps:w&#45;&gt;events:e</title>
<path fill="none" stroke="#000000" d="M346.0072,-68.5939C311.1337,-80.5792 256.8544,-125.7 229,-125.7"/>
<polygon fill="#000000" stroke="#000000" points="352.6549,-67.2666 361.205,-69.2303 356.5774,-66.4833 360.5,-65.7 360.5,-65.7 360.5,-65.7 356.5774,-66.4833 359.795,-62.1697 352.6549,-67.2666 352.6549,-67.2666"/>
<ellipse fill="none" stroke="#000000" cx="349.5168" cy="-67.8932" rx="3.2" ry="3.2"/>
</g>
<!-- users -->
<g id="node4" class="node">
<title>users</title>
<g id="a_node4"><a xlink:href="../../tables/users.html" xlink:title="users" target="_top">
<polygon fill="#ffffff" stroke="transparent" points="145,-180.2 145,-285.2 233,-285.2 233,-180.2 145,-180.2"/>
<polygon fill="#f5f5f5" stroke="transparent" points="145,-261.7 145,-284.7 233,-284.7 233,-261.7 145,-261.7"/>
<polygon fill="none" stroke="#000000" points="145,-261.7 145,-284.7 233,-284.7 233,-261.7 145,-261.7"/>
<text text-anchor="start" x="150" y="-270.8" font-family="Helvetica,sans-Serif" font-weight="bold" font-size="11.00" fill="#000000">users</text>
<text text-anchor="start" x="198.0437" y="-269.8" font-family="Helvetica,sans-Serif" font-size="11.00" fill="#000000">[table]</text>
<polygon fill="none" stroke="#000000" points="145,-239.7 145,-261.7 233,-261.7 233,-239.7 145,-239.7"/>
<image xlink:href="../../images/primaryKeys.png" width="11px" height="12px" preserveAspectRatio="xMinYMin meet" x="150" y="-256.7"/>
<text text-anchor="start" x="165" y="-246.8" font-family="Helvetica,sans-Serif" font-size="11.00" fill="#000000">id</text>
<polygon fill="#ffffff" stroke="transparent" points="145,-217.7 145,-239.7 233,-239.7 233,-217.7 145,-217.7"/>
<polygon fill="none" stroke="#000000" points="145,-217.7 145,-239.7 233,-239.7 233,-217.7 145,-217.7"/>
<text text-anchor="start" x="165" y="-224.8" font-family="Helvetica,sans-Serif" font-size="11.00" fill="#000000">email</text>
<polygon fill="none" stroke="#000000" points="145,-198.7 145,-217.7 233,-217.7 233,-198.7 145,-198.7"/>
<text text-anchor="start" x="148" y="-204.8" font-family="Helvetica,sans-Serif" font-size="11.00" fill="#000000">...</text>
<polygon fill="#ffffff" stroke="transparent" points="145,-179.7 145,-198.7 165,-198.7 165,-179.7 145,-179.7"/>
<polygon fill="none" stroke="#000000" points="145,-179.7 145,-198.7 165,-198.7 165,-179.7 145,-179.7"/>
<text text-anchor="start" x="148" y="-185.8" font-family="Helvetica,sans-Serif" font-size="11.00" fill="#000000"> &#160;</text>
<polygon fill="#ffffff" stroke="transparent" points="165,-179.7 165,-198.7 207,-198.7 207,-179.7 165,-179.7"/>
<polygon fill="none" stroke="#000000" points="165,-179.7 165,-198.7 207,-198.7 207,-179.7 165,-179.7"/>
<text text-anchor="start" x="171.6105" y="-185.8" font-family="Helvetica,sans-Serif" font-size="11.00" fill="#000000">0 rows</text>
<polygon fill="#ffffff" stroke="transparent" points="207,-179.7 207,-198.7 233,-198.7 233,-179.7 207,-179.7"/>
<polygon fill="none" stroke="#000000" points="207,-179.7 207,-198.7 233,-198.7 233,-179.7 207,-179.7"/>
<text text-anchor="start" x="214.4053" y="-185.8" font-family="Helvetica,sans-Serif" font-size="11.00" fill="#000000">5 &gt;</text>
</a>
</g>
</g>
<!-- rsvps&#45;&gt;users -->
<g id="edge3" class="edge">
<title>rsvps:w&#45;&gt;users:e</title>
<path fill="none" stroke="#000000" d="M345.9615,-66.1949C313.356,-68.6395 298.1776,-80.5015 274,-109.7 232.3773,-159.9664 298.2622,-250.7 233,-250.7"/>
<polygon fill="#000000" stroke="#000000" points="352.5046,-65.9722 360.6225,-69.2979 356.5023,-65.8361 360.5,-65.7 360.5,-65.7 360.5,-65.7 356.5023,-65.8361 360.3775,-62.1021 352.5046,-65.9722 352.5046,-65.9722"/>
<ellipse fill="none" stroke="#000000" cx="349.3065" cy="-66.0811" rx="3.2" ry="3.2"/>
</g>
<!-- user_bans -->
<g id="node5" class="node">
<title>user_bans</title>
<g id="a_node5"><a xlink:href="../../tables/user_bans.html" xlink:title="user_bans" target="_top">
<polygon fill="#ffffff" stroke="transparent" points="348.5,-484.2 348.5,-545.2 442.5,-545.2 442.5,-484.2 348.5,-484.2"/>
<polygon fill="#f5f5f5" stroke="transparent" points="348.5,-521.7 348.5,-544.7 442.5,-544.7 442.5,-521.7 348.5,-521.7"/>
<polygon fill="none" stroke="#000000" points="348.5,-521.7 348.5,-544.7 442.5,-544.7 442.5,-521.7 348.5,-521.7"/>
<text text-anchor="start" x="353.3244" y="-530.8" font-family="Helvetica,sans-Serif" font-weight="bold" font-size="11.00" fill="#000000">user_bans</text>
<text text-anchor="start" x="408.0219" y="-529.8" font-family="Helvetica,sans-Serif" font-size="11.00" fill="#000000">[table]</text>
<polygon fill="none" stroke="#000000" points="348.5,-502.7 348.5,-521.7 442.5,-521.7 442.5,-502.7 348.5,-502.7"/>
<text text-anchor="start" x="351.5" y="-508.8" font-family="Helvetica,sans-Serif" font-size="11.00" fill="#000000">...</text>
<polygon fill="#ffffff" stroke="transparent" points="348.5,-483.7 348.5,-502.7 380.5,-502.7 380.5,-483.7 348.5,-483.7"/>
<polygon fill="none" stroke="#000000" points="348.5,-483.7 348.5,-502.7 380.5,-502.7 380.5,-483.7 348.5,-483.7"/>
<text text-anchor="start" x="351.5" y="-489.8" font-family="Helvetica,sans-Serif" font-size="11.00" fill="#000000">&lt; 2</text>
<polygon fill="#ffffff" stroke="transparent" points="380.5,-483.7 380.5,-502.7 424.5,-502.7 424.5,-483.7 380.5,-483.7"/>
<polygon fill="none" stroke="#000000" points="380.5,-483.7 380.5,-502.7 424.5,-502.7 424.5,-483.7 380.5,-483.7"/>
<text text-anchor="start" x="389.1105" y="-489.8" font-family="Helvetica,sans-Serif" font-size="11.00" fill="#000000">0 rows</text>
<polygon fill="#ffffff" stroke="transparent" points="424.5,-483.7 424.5,-502.7 442.5,-502.7 442.5,-483.7 424.5,-483.7"/>
<polygon fill="none" stroke="#000000" points="424.5,-483.7 424.5,-502.7 442.5,-502.7 442.5,-483.7 424.5,-483.7"/>
<text text-anchor="start" x="433.3862" y="-489.8" font-family="Helvetica,sans-Serif" font-size="11.00" fill="#000000"> &#160;</text>
</a>
</g>
</g>
<!-- user_bans&#45;&gt;chapters -->
<g id="edge4" class="edge">
<title>user_bans:w&#45;&gt;chapters:e</title>
<path fill="none" stroke="#000000" d="M333.9123,-509.5654C266.2796,-491.2121 156.7822,-360.7 96,-360.7"/>
<polygon fill="#000000" stroke="#000000" points="340.5843,-510.5417 347.9787,-515.2621 344.5421,-511.1208 348.5,-511.7 348.5,-511.7 348.5,-511.7 344.5421,-511.1208 349.0213,-508.1379 340.5843,-510.5417 340.5843,-510.5417"/>
<ellipse fill="none" stroke="#000000" cx="337.418" cy="-510.0783" rx="3.2" ry="3.2"/>
</g>
<!-- user_bans&#45;&gt;users -->
<g id="edge5" class="edge">
<title>user_bans:w&#45;&gt;users:e</title>
<path fill="none" stroke="#000000" d="M334.0462,-511.1764C306.938,-508.9673 293.0882,-499.312 274,-473.7 243.8904,-433.2998 283.3862,-250.7 233,-250.7"/>
<polygon fill="#000000" stroke="#000000" points="340.5052,-511.4103 348.3697,-515.2976 344.5026,-511.5552 348.5,-511.7 348.5,-511.7 348.5,-511.7 344.5026,-511.5552 348.6303,-508.1024 340.5052,-511.4103 340.5052,-511.4103"/>
<ellipse fill="none" stroke="#000000" cx="337.3073" cy="-511.2945" rx="3.2" ry="3.2"/>
</g>
<!-- user_chapter_roles -->
<g id="node6" class="node">
<title>user_chapter_roles</title>
<g id="a_node6"><a xlink:href="../../tables/user_chapter_roles.html" xlink:title="user_chapter_roles" target="_top">
<polygon fill="#ffffff" stroke="transparent" points="282,-284.7 282,-462.7 509,-462.7 509,-284.7 282,-284.7"/>
<polygon fill="#f5f5f5" stroke="transparent" points="284.5,-437.7 284.5,-460.7 507.5,-460.7 507.5,-437.7 284.5,-437.7"/>
<polygon fill="none" stroke="#000000" points="284.5,-437.7 284.5,-460.7 507.5,-460.7 507.5,-437.7 284.5,-437.7"/>
<text text-anchor="start" x="289.5" y="-446.8" font-family="Helvetica,sans-Serif" font-weight="bold" font-size="11.00" fill="#000000">user_chapter_roles</text>
<text text-anchor="start" x="472.5437" y="-445.8" font-family="Helvetica,sans-Serif" font-size="11.00" fill="#000000">[table]</text>
<polygon fill="none" stroke="#000000" points="284.5,-415.7 284.5,-437.7 417.5,-437.7 417.5,-415.7 284.5,-415.7"/>
<text text-anchor="start" x="304.5" y="-422.8" font-family="Helvetica,sans-Serif" font-size="11.00" fill="#000000">created_at</text>
<polygon fill="none" stroke="#000000" points="417.5,-415.7 417.5,-437.7 507.5,-437.7 507.5,-415.7 417.5,-415.7"/>
<text text-anchor="start" x="420.5" y="-423.4" font-family="Helvetica,sans-Serif" font-size="11.00" fill="#000000">timestamp[26,3]</text>
<polygon fill="none" stroke="#000000" points="284.5,-393.7 284.5,-415.7 417.5,-415.7 417.5,-393.7 284.5,-393.7"/>
<text text-anchor="start" x="304.5" y="-400.8" font-family="Helvetica,sans-Serif" font-size="11.00" fill="#000000">updated_at</text>
<polygon fill="none" stroke="#000000" points="417.5,-393.7 417.5,-415.7 507.5,-415.7 507.5,-393.7 417.5,-393.7"/>
<text text-anchor="start" x="420.5" y="-401.4" font-family="Helvetica,sans-Serif" font-size="11.00" fill="#000000">timestamp[26,3]</text>
<polygon fill="none" stroke="#000000" points="284.5,-371.7 284.5,-393.7 417.5,-393.7 417.5,-371.7 284.5,-371.7"/>
<image xlink:href="../../images/primaryKeys.png" width="11px" height="12px" preserveAspectRatio="xMinYMin meet" x="289.5" y="-388.7"/>
<text text-anchor="start" x="304.5" y="-378.8" font-family="Helvetica,sans-Serif" font-size="11.00" fill="#000000">user_id</text>
<polygon fill="none" stroke="#000000" points="417.5,-371.7 417.5,-393.7 507.5,-393.7 507.5,-371.7 417.5,-371.7"/>
<text text-anchor="start" x="420.5" y="-379.4" font-family="Helvetica,sans-Serif" font-size="11.00" fill="#000000">int4[10]</text>
<polygon fill="none" stroke="#000000" points="284.5,-349.7 284.5,-371.7 417.5,-371.7 417.5,-349.7 284.5,-349.7"/>
<image xlink:href="../../images/primaryKeys.png" width="11px" height="12px" preserveAspectRatio="xMinYMin meet" x="289.5" y="-366.7"/>
<text text-anchor="start" x="304.5" y="-356.8" font-family="Helvetica,sans-Serif" font-size="11.00" fill="#000000">chapter_id</text>
<polygon fill="none" stroke="#000000" points="417.5,-349.7 417.5,-371.7 507.5,-371.7 507.5,-349.7 417.5,-349.7"/>
<text text-anchor="start" x="420.5" y="-357.4" font-family="Helvetica,sans-Serif" font-size="11.00" fill="#000000">int4[10]</text>
<polygon fill="none" stroke="#000000" points="284.5,-327.7 284.5,-349.7 417.5,-349.7 417.5,-327.7 284.5,-327.7"/>
<image xlink:href="../../images/primaryKeys.png" width="11px" height="12px" preserveAspectRatio="xMinYMin meet" x="289.5" y="-344.7"/>
<text text-anchor="start" x="304.5" y="-334.8" font-family="Helvetica,sans-Serif" font-size="11.00" fill="#000000">role_name</text>
<polygon fill="none" stroke="#000000" points="417.5,-327.7 417.5,-349.7 507.5,-349.7 507.5,-327.7 417.5,-327.7"/>
<text text-anchor="start" x="420.0043" y="-335.4" font-family="Helvetica,sans-Serif" font-size="11.00" fill="#000000">text[2147483647]</text>
<polygon fill="none" stroke="#000000" points="284.5,-305.7 284.5,-327.7 417.5,-327.7 417.5,-305.7 284.5,-305.7"/>
<text text-anchor="start" x="304.5" y="-312.8" font-family="Helvetica,sans-Serif" font-size="11.00" fill="#000000">interested</text>
<polygon fill="none" stroke="#000000" points="417.5,-305.7 417.5,-327.7 507.5,-327.7 507.5,-305.7 417.5,-305.7"/>
<text text-anchor="start" x="420.5" y="-313.4" font-family="Helvetica,sans-Serif" font-size="11.00" fill="#000000">bool[1]</text>
<polygon fill="#ffffff" stroke="transparent" points="284.5,-286.7 284.5,-305.7 342.5,-305.7 342.5,-286.7 284.5,-286.7"/>
<polygon fill="none" stroke="#000000" points="284.5,-286.7 284.5,-305.7 342.5,-305.7 342.5,-286.7 284.5,-286.7"/>
<text text-anchor="start" x="287.5" y="-292.8" font-family="Helvetica,sans-Serif" font-size="11.00" fill="#000000">&lt; 2</text>
<polygon fill="#ffffff" stroke="transparent" points="342.5,-286.7 342.5,-305.7 417.5,-305.7 417.5,-286.7 342.5,-286.7"/>
<polygon fill="none" stroke="#000000" points="342.5,-286.7 342.5,-305.7 417.5,-305.7 417.5,-286.7 342.5,-286.7"/>
<text text-anchor="start" x="382.1105" y="-292.8" font-family="Helvetica,sans-Serif" font-size="11.00" fill="#000000">0 rows</text>
<polygon fill="#ffffff" stroke="transparent" points="417.5,-286.7 417.5,-305.7 507.5,-305.7 507.5,-286.7 417.5,-286.7"/>
<polygon fill="none" stroke="#000000" points="417.5,-286.7 417.5,-305.7 507.5,-305.7 507.5,-286.7 417.5,-286.7"/>
<text text-anchor="start" x="488.9053" y="-292.8" font-family="Helvetica,sans-Serif" font-size="11.00" fill="#000000">0 &gt;</text>
<polygon fill="none" stroke="#000000" stroke-width="2" points="283,-285.7 283,-461.7 508,-461.7 508,-285.7 283,-285.7"/>
</a>
</g>
</g>
<!-- user_chapter_roles&#45;&gt;chapters -->
<g id="edge6" class="edge">
<title>user_chapter_roles:w&#45;&gt;chapters:e</title>
<path fill="none" stroke="#000000" d="M269.9457,-360.7C197.9556,-360.7 174.7053,-360.7 96,-360.7"/>
<polygon fill="#000000" stroke="#000000" points="276.5,-360.7001 284.5,-364.3 280.5,-360.7 284.5,-360.7 284.5,-360.7 284.5,-360.7 280.5,-360.7 284.5,-357.1 276.5,-360.7001 276.5,-360.7001"/>
<ellipse fill="none" stroke="#000000" cx="273.3" cy="-360.7001" rx="3.2" ry="3.2"/>
</g>
<!-- user_chapter_roles&#45;&gt;users -->
<g id="edge7" class="edge">
<title>user_chapter_roles:w&#45;&gt;users:e</title>
<path fill="none" stroke="#000000" d="M270.1856,-379.4371C234.2774,-359.1102 290.0699,-250.7 233,-250.7"/>
<polygon fill="#000000" stroke="#000000" points="276.7001,-380.922 283.6999,-386.21 280.6,-381.811 284.5,-382.7 284.5,-382.7 284.5,-382.7 280.6,-381.811 285.3001,-379.19 276.7001,-380.922 276.7001,-380.922"/>
<ellipse fill="none" stroke="#000000" cx="273.5801" cy="-380.2108" rx="3.2" ry="3.2"/>
</g>
<!-- user_event_roles -->
<g id="node7" class="node">
<title>user_event_roles</title>
<g id="a_node7"><a xlink:href="../../tables/user_event_roles.html" xlink:title="user_event_roles" target="_top">
<polygon fill="#ffffff" stroke="transparent" points="332,-120.2 332,-181.2 459,-181.2 459,-120.2 332,-120.2"/>
<polygon fill="#f5f5f5" stroke="transparent" points="332.5,-157.7 332.5,-180.7 459.5,-180.7 459.5,-157.7 332.5,-157.7"/>
<polygon fill="none" stroke="#000000" points="332.5,-157.7 332.5,-180.7 459.5,-180.7 459.5,-157.7 332.5,-157.7"/>
<text text-anchor="start" x="337.3222" y="-166.8" font-family="Helvetica,sans-Serif" font-weight="bold" font-size="11.00" fill="#000000">user_event_roles</text>
<text text-anchor="start" x="425.0219" y="-165.8" font-family="Helvetica,sans-Serif" font-size="11.00" fill="#000000">[table]</text>
<polygon fill="none" stroke="#000000" points="332.5,-138.7 332.5,-157.7 459.5,-157.7 459.5,-138.7 332.5,-138.7"/>
<text text-anchor="start" x="335.5" y="-144.8" font-family="Helvetica,sans-Serif" font-size="11.00" fill="#000000">...</text>
<polygon fill="#ffffff" stroke="transparent" points="332.5,-119.7 332.5,-138.7 381.5,-138.7 381.5,-119.7 332.5,-119.7"/>
<polygon fill="none" stroke="#000000" points="332.5,-119.7 332.5,-138.7 381.5,-138.7 381.5,-119.7 332.5,-119.7"/>
<text text-anchor="start" x="335.5" y="-125.8" font-family="Helvetica,sans-Serif" font-size="11.00" fill="#000000">&lt; 2</text>
<polygon fill="#ffffff" stroke="transparent" points="381.5,-119.7 381.5,-138.7 433.5,-138.7 433.5,-119.7 381.5,-119.7"/>
<polygon fill="none" stroke="#000000" points="381.5,-119.7 381.5,-138.7 433.5,-138.7 433.5,-119.7 381.5,-119.7"/>
<text text-anchor="start" x="398.1105" y="-125.8" font-family="Helvetica,sans-Serif" font-size="11.00" fill="#000000">0 rows</text>
<polygon fill="#ffffff" stroke="transparent" points="433.5,-119.7 433.5,-138.7 459.5,-138.7 459.5,-119.7 433.5,-119.7"/>
<polygon fill="none" stroke="#000000" points="433.5,-119.7 433.5,-138.7 459.5,-138.7 459.5,-119.7 433.5,-119.7"/>
<text text-anchor="start" x="450.3862" y="-125.8" font-family="Helvetica,sans-Serif" font-size="11.00" fill="#000000"> &#160;</text>
</a>
</g>
</g>
<!-- user_event_roles&#45;&gt;events -->
<g id="edge8" class="edge">
<title>user_event_roles:w&#45;&gt;events:e</title>
<path fill="none" stroke="#000000" d="M317.8555,-146.917C282.8502,-142.9979 270.7003,-125.7 229,-125.7"/>
<polygon fill="#000000" stroke="#000000" points="324.5114,-147.2728 332.3078,-151.2949 328.5057,-147.4864 332.5,-147.7 332.5,-147.7 332.5,-147.7 328.5057,-147.4864 332.6922,-144.1051 324.5114,-147.2728 324.5114,-147.2728"/>
<ellipse fill="none" stroke="#000000" cx="321.316" cy="-147.102" rx="3.2" ry="3.2"/>
</g>
<!-- user_event_roles&#45;&gt;users -->
<g id="edge9" class="edge">
<title>user_event_roles:w&#45;&gt;users:e</title>
<path fill="none" stroke="#000000" d="M318.0618,-149.4329C298.2322,-154.8547 292.6895,-172.2949 274,-191.7 251.8487,-214.6994 264.932,-250.7 233,-250.7"/>
<polygon fill="#000000" stroke="#000000" points="324.557,-148.6534 332.929,-151.2743 328.5285,-148.1767 332.5,-147.7 332.5,-147.7 332.5,-147.7 328.5285,-148.1767 332.071,-144.1257 324.557,-148.6534 324.557,-148.6534"/>
<ellipse fill="none" stroke="#000000" cx="321.3798" cy="-149.0347" rx="3.2" ry="3.2"/>
</g>
<!-- user_instance_roles -->
<g id="node8" class="node">
<title>user_instance_roles</title>
<g id="a_node8"><a xlink:href="../../tables/user_instance_roles.html" xlink:title="user_instance_roles" target="_top">
<polygon fill="#ffffff" stroke="transparent" points="325,-202.2 325,-263.2 466,-263.2 466,-202.2 325,-202.2"/>
<polygon fill="#f5f5f5" stroke="transparent" points="325.5,-239.7 325.5,-262.7 466.5,-262.7 466.5,-239.7 325.5,-239.7"/>
<polygon fill="none" stroke="#000000" points="325.5,-239.7 325.5,-262.7 466.5,-262.7 466.5,-239.7 325.5,-239.7"/>
<text text-anchor="start" x="330.2943" y="-248.8" font-family="Helvetica,sans-Serif" font-weight="bold" font-size="11.00" fill="#000000">user_instance_roles</text>
<text text-anchor="start" x="432.0219" y="-247.8" font-family="Helvetica,sans-Serif" font-size="11.00" fill="#000000">[table]</text>
<polygon fill="none" stroke="#000000" points="325.5,-220.7 325.5,-239.7 466.5,-239.7 466.5,-220.7 325.5,-220.7"/>
<text text-anchor="start" x="328.5" y="-226.8" font-family="Helvetica,sans-Serif" font-size="11.00" fill="#000000">...</text>
<polygon fill="#ffffff" stroke="transparent" points="325.5,-201.7 325.5,-220.7 381.5,-220.7 381.5,-201.7 325.5,-201.7"/>
<polygon fill="none" stroke="#000000" points="325.5,-201.7 325.5,-220.7 381.5,-220.7 381.5,-201.7 325.5,-201.7"/>
<text text-anchor="start" x="328.5" y="-207.8" font-family="Helvetica,sans-Serif" font-size="11.00" fill="#000000">&lt; 1</text>
<polygon fill="#ffffff" stroke="transparent" points="381.5,-201.7 381.5,-220.7 436.5,-220.7 436.5,-201.7 381.5,-201.7"/>
<polygon fill="none" stroke="#000000" points="381.5,-201.7 381.5,-220.7 436.5,-220.7 436.5,-201.7 381.5,-201.7"/>
<text text-anchor="start" x="401.1105" y="-207.8" font-family="Helvetica,sans-Serif" font-size="11.00" fill="#000000">0 rows</text>
<polygon fill="#ffffff" stroke="transparent" points="436.5,-201.7 436.5,-220.7 466.5,-220.7 466.5,-201.7 436.5,-201.7"/>
<polygon fill="none" stroke="#000000" points="436.5,-201.7 436.5,-220.7 466.5,-220.7 466.5,-201.7 436.5,-201.7"/>
<text text-anchor="start" x="457.3862" y="-207.8" font-family="Helvetica,sans-Serif" font-size="11.00" fill="#000000"> &#160;</text>
</a>
</g>
</g>
<!-- user_instance_roles&#45;&gt;users -->
<g id="edge10" class="edge">
<title>user_instance_roles:w&#45;&gt;users:e</title>
<path fill="none" stroke="#000000" d="M310.745,-230.6569C280.6679,-234.7651 269.7229,-250.7 233,-250.7"/>
<polygon fill="#000000" stroke="#000000" points="317.5168,-230.2178 325.733,-233.2925 321.5084,-229.9589 325.5,-229.7 325.5,-229.7 325.5,-229.7 321.5084,-229.9589 325.267,-226.1075 317.5168,-230.2178 317.5168,-230.2178"/>
<ellipse fill="none" stroke="#000000" cx="314.3235" cy="-230.4249" rx="3.2" ry="3.2"/>
</g>
</g>
</svg>
