<?xml version="1.0" encoding="UTF-8" standalone="no"?>
<!DOCTYPE svg PUBLIC "-//W3C//DTD SVG 1.1//EN"
 "http://www.w3.org/Graphics/SVG/1.1/DTD/svg11.dtd">
<!-- Generated by graphviz version 2.40.1 (20161225.0304)
 -->
<!-- Title: twoDegreesRelationshipsDiagram Pages: 1 -->
<svg width="647pt" height="583pt"
 viewBox="0.00 0.00 647.00 583.20" xmlns="http://www.w3.org/2000/svg" xmlns:xlink="http://www.w3.org/1999/xlink">
<g id="graph0" class="graph" transform="scale(1 1) rotate(0) translate(4 579.2008)">
<title>twoDegreesRelationshipsDiagram</title>
<polygon fill="#ffffff" stroke="transparent" points="-4,4 -4,-579.2008 643,-579.2008 643,4 -4,4"/>
<text text-anchor="middle" x="72.4936" y="-7.3" font-family="Helvetica,sans-Serif" font-size="11.00" fill="#000000">Generated by SchemaSpy</text>
<!-- event_reminders -->
<g id="node1" class="node">
<title>event_reminders</title>
<g id="a_node1"><a xlink:href="../../tables/event_reminders.html" xlink:title="event_reminders" target="_top">
<polygon fill="#ffffff" stroke="transparent" points="507,-386.2 507,-447.2 631,-447.2 631,-386.2 507,-386.2"/>
<polygon fill="#f5f5f5" stroke="transparent" points="507,-423.7 507,-446.7 631,-446.7 631,-423.7 507,-423.7"/>
<polygon fill="none" stroke="#000000" points="507,-423.7 507,-446.7 631,-446.7 631,-423.7 507,-423.7"/>
<text text-anchor="start" x="511.5487" y="-432.8" font-family="Helvetica,sans-Serif" font-weight="bold" font-size="11.00" fill="#000000">event_reminders</text>
<text text-anchor="start" x="596.5219" y="-431.8" font-family="Helvetica,sans-Serif" font-size="11.00" fill="#000000">[table]</text>
<polygon fill="none" stroke="#000000" points="507,-404.7 507,-423.7 631,-423.7 631,-404.7 507,-404.7"/>
<text text-anchor="start" x="510" y="-410.8" font-family="Helvetica,sans-Serif" font-size="11.00" fill="#000000">...</text>
<polygon fill="#ffffff" stroke="transparent" points="507,-385.7 507,-404.7 554,-404.7 554,-385.7 507,-385.7"/>
<polygon fill="none" stroke="#000000" points="507,-385.7 507,-404.7 554,-404.7 554,-385.7 507,-385.7"/>
<text text-anchor="start" x="510" y="-391.8" font-family="Helvetica,sans-Serif" font-size="11.00" fill="#000000">&lt; 4</text>
<polygon fill="#ffffff" stroke="transparent" points="554,-385.7 554,-404.7 605,-404.7 605,-385.7 554,-385.7"/>
<polygon fill="none" stroke="#000000" points="554,-385.7 554,-404.7 605,-404.7 605,-385.7 554,-385.7"/>
<text text-anchor="start" x="569.6105" y="-391.8" font-family="Helvetica,sans-Serif" font-size="11.00" fill="#000000">0 rows</text>
<polygon fill="#ffffff" stroke="transparent" points="605,-385.7 605,-404.7 631,-404.7 631,-385.7 605,-385.7"/>
<polygon fill="none" stroke="#000000" points="605,-385.7 605,-404.7 631,-404.7 631,-385.7 605,-385.7"/>
<text text-anchor="start" x="621.8862" y="-391.8" font-family="Helvetica,sans-Serif" font-size="11.00" fill="#000000"> &#160;</text>
</a>
</g>
</g>
<!-- events -->
<g id="node2" class="node">
<title>events</title>
<g id="a_node2"><a xlink:href="../../tables/events.html" xlink:title="events" target="_top">
<polygon fill="#ffffff" stroke="transparent" points="149,-427.2 149,-488.2 229,-488.2 229,-427.2 149,-427.2"/>
<polygon fill="#f5f5f5" stroke="transparent" points="149,-464.7 149,-487.7 229,-487.7 229,-464.7 149,-464.7"/>
<polygon fill="none" stroke="#000000" points="149,-464.7 149,-487.7 229,-487.7 229,-464.7 149,-464.7"/>
<text text-anchor="start" x="154" y="-473.8" font-family="Helvetica,sans-Serif" font-weight="bold" font-size="11.00" fill="#000000">events</text>
<text text-anchor="start" x="194.0437" y="-472.8" font-family="Helvetica,sans-Serif" font-size="11.00" fill="#000000">[table]</text>
<polygon fill="none" stroke="#000000" points="149,-445.7 149,-464.7 229,-464.7 229,-445.7 149,-445.7"/>
<text text-anchor="start" x="152" y="-451.8" font-family="Helvetica,sans-Serif" font-size="11.00" fill="#000000">...</text>
<polygon fill="#ffffff" stroke="transparent" points="149,-426.7 149,-445.7 170,-445.7 170,-426.7 149,-426.7"/>
<polygon fill="none" stroke="#000000" points="149,-426.7 149,-445.7 170,-445.7 170,-426.7 149,-426.7"/>
<text text-anchor="start" x="151.7027" y="-432.8" font-family="Helvetica,sans-Serif" font-size="11.00" fill="#000000">&lt; 2</text>
<polygon fill="#ffffff" stroke="transparent" points="170,-426.7 170,-445.7 208,-445.7 208,-426.7 170,-426.7"/>
<polygon fill="none" stroke="#000000" points="170,-426.7 170,-445.7 208,-445.7 208,-426.7 170,-426.7"/>
<text text-anchor="start" x="172.8053" y="-432.8" font-family="Helvetica,sans-Serif" font-size="11.00" fill="#000000">0 rows</text>
<polygon fill="#ffffff" stroke="transparent" points="208,-426.7 208,-445.7 229,-445.7 229,-426.7 208,-426.7"/>
<polygon fill="none" stroke="#000000" points="208,-426.7 208,-445.7 229,-445.7 229,-426.7 208,-426.7"/>
<text text-anchor="start" x="210.7027" y="-432.8" font-family="Helvetica,sans-Serif" font-size="11.00" fill="#000000">5 &gt;</text>
</a>
</g>
</g>
<!-- event_reminders&#45;&gt;events -->
<g id="edge1" class="edge">
<title>event_reminders:w&#45;&gt;events:e</title>
<path fill="none" stroke="#000000" d="M492.6585,-416.373C460.2553,-431.6789 508.8111,-508.61 466,-539.7 396.9531,-589.8428 347.1055,-583.7155 274,-539.7 237.3799,-517.6517 271.7453,-454.7 229,-454.7"/>
<polygon fill="#000000" stroke="#000000" points="499.1354,-415.1658 507.6596,-417.2391 503.0677,-414.4329 507,-413.7 507,-413.7 507,-413.7 503.0677,-414.4329 506.3404,-410.1609 499.1354,-415.1658 499.1354,-415.1658"/>
<ellipse fill="none" stroke="#000000" cx="495.9896" cy="-415.7522" rx="3.2" ry="3.2"/>
</g>
<!-- rsvps -->
<g id="node3" class="node">
<title>rsvps</title>
<g id="a_node3"><a xlink:href="../../tables/rsvps.html" xlink:title="rsvps" target="_top">
<polygon fill="#ffffff" stroke="transparent" points="330,-386.2 330,-447.2 410,-447.2 410,-386.2 330,-386.2"/>
<polygon fill="#f5f5f5" stroke="transparent" points="330,-423.7 330,-446.7 410,-446.7 410,-423.7 330,-423.7"/>
<polygon fill="none" stroke="#000000" points="330,-423.7 330,-446.7 410,-446.7 410,-423.7 330,-423.7"/>
<text text-anchor="start" x="335" y="-432.8" font-family="Helvetica,sans-Serif" font-weight="bold" font-size="11.00" fill="#000000">rsvps</text>
<text text-anchor="start" x="375.0437" y="-431.8" font-family="Helvetica,sans-Serif" font-size="11.00" fill="#000000">[table]</text>
<polygon fill="none" stroke="#000000" points="330,-404.7 330,-423.7 410,-423.7 410,-404.7 330,-404.7"/>
<text text-anchor="start" x="333" y="-410.8" font-family="Helvetica,sans-Serif" font-size="11.00" fill="#000000">...</text>
<polygon fill="#ffffff" stroke="transparent" points="330,-385.7 330,-404.7 351,-404.7 351,-385.7 330,-385.7"/>
<polygon fill="none" stroke="#000000" points="330,-385.7 330,-404.7 351,-404.7 351,-385.7 330,-385.7"/>
<text text-anchor="start" x="332.7027" y="-391.8" font-family="Helvetica,sans-Serif" font-size="11.00" fill="#000000">&lt; 2</text>
<polygon fill="#ffffff" stroke="transparent" points="351,-385.7 351,-404.7 389,-404.7 389,-385.7 351,-385.7"/>
<polygon fill="none" stroke="#000000" points="351,-385.7 351,-404.7 389,-404.7 389,-385.7 351,-385.7"/>
<text text-anchor="start" x="353.8053" y="-391.8" font-family="Helvetica,sans-Serif" font-size="11.00" fill="#000000">0 rows</text>
<polygon fill="#ffffff" stroke="transparent" points="389,-385.7 389,-404.7 410,-404.7 410,-385.7 389,-385.7"/>
<polygon fill="none" stroke="#000000" points="389,-385.7 389,-404.7 410,-404.7 410,-385.7 389,-385.7"/>
<text text-anchor="start" x="391.7027" y="-391.8" font-family="Helvetica,sans-Serif" font-size="11.00" fill="#000000">2 &gt;</text>
</a>
</g>
</g>
<!-- event_reminders&#45;&gt;rsvps -->
<g id="edge2" class="edge">
<title>event_reminders:w&#45;&gt;rsvps:e</title>
<path fill="none" stroke="#000000" d="M492.6461,-411.7843C460.8045,-407.788 447.8906,-408.4266 410,-413.7"/>
<polygon fill="#000000" stroke="#000000" points="499.0703,-412.6416 506.5237,-417.2684 503.0352,-413.1708 507,-413.7 507,-413.7 507,-413.7 503.0352,-413.1708 507.4763,-410.1316 499.0703,-412.6416 499.0703,-412.6416"/>
<ellipse fill="none" stroke="#000000" cx="495.8984" cy="-412.2183" rx="3.2" ry="3.2"/>
</g>
<!-- event_reminders&#45;&gt;rsvps -->
<g id="edge3" class="edge">
<title>event_reminders:w&#45;&gt;rsvps:e</title>
<path fill="none" stroke="#000000" d="M492.6461,-415.935C460.8045,-420.5974 447.8906,-419.8523 410,-413.7"/>
<polygon fill="#000000" stroke="#000000" points="499.0953,-414.9309 507.5539,-417.2571 503.0476,-414.3154 507,-413.7 507,-413.7 507,-413.7 503.0476,-414.3154 506.4461,-410.1429 499.0953,-414.9309 499.0953,-414.9309"/>
<ellipse fill="none" stroke="#000000" cx="495.9334" cy="-415.4232" rx="3.2" ry="3.2"/>
</g>
<!-- users -->
<g id="node4" class="node">
<title>users</title>
<g id="a_node4"><a xlink:href="../../tables/users.html" xlink:title="users" target="_top">
<polygon fill="#ffffff" stroke="transparent" points="145,-246.2 145,-351.2 233,-351.2 233,-246.2 145,-246.2"/>
<polygon fill="#f5f5f5" stroke="transparent" points="145,-327.7 145,-350.7 233,-350.7 233,-327.7 145,-327.7"/>
<polygon fill="none" stroke="#000000" points="145,-327.7 145,-350.7 233,-350.7 233,-327.7 145,-327.7"/>
<text text-anchor="start" x="150" y="-336.8" font-family="Helvetica,sans-Serif" font-weight="bold" font-size="11.00" fill="#000000">users</text>
<text text-anchor="start" x="198.0437" y="-335.8" font-family="Helvetica,sans-Serif" font-size="11.00" fill="#000000">[table]</text>
<polygon fill="none" stroke="#000000" points="145,-305.7 145,-327.7 233,-327.7 233,-305.7 145,-305.7"/>
<image xlink:href="../../images/primaryKeys.png" width="11px" height="12px" preserveAspectRatio="xMinYMin meet" x="150" y="-322.7"/>
<text text-anchor="start" x="165" y="-312.8" font-family="Helvetica,sans-Serif" font-size="11.00" fill="#000000">id</text>
<polygon fill="#ffffff" stroke="transparent" points="145,-283.7 145,-305.7 233,-305.7 233,-283.7 145,-283.7"/>
<polygon fill="none" stroke="#000000" points="145,-283.7 145,-305.7 233,-305.7 233,-283.7 145,-283.7"/>
<text text-anchor="start" x="165" y="-290.8" font-family="Helvetica,sans-Serif" font-size="11.00" fill="#000000">email</text>
<polygon fill="none" stroke="#000000" points="145,-264.7 145,-283.7 233,-283.7 233,-264.7 145,-264.7"/>
<text text-anchor="start" x="148" y="-270.8" font-family="Helvetica,sans-Serif" font-size="11.00" fill="#000000">...</text>
<polygon fill="#ffffff" stroke="transparent" points="145,-245.7 145,-264.7 165,-264.7 165,-245.7 145,-245.7"/>
<polygon fill="none" stroke="#000000" points="145,-245.7 145,-264.7 165,-264.7 165,-245.7 145,-245.7"/>
<text text-anchor="start" x="148" y="-251.8" font-family="Helvetica,sans-Serif" font-size="11.00" fill="#000000"> &#160;</text>
<polygon fill="#ffffff" stroke="transparent" points="165,-245.7 165,-264.7 207,-264.7 207,-245.7 165,-245.7"/>
<polygon fill="none" stroke="#000000" points="165,-245.7 165,-264.7 207,-264.7 207,-245.7 165,-245.7"/>
<text text-anchor="start" x="171.6105" y="-251.8" font-family="Helvetica,sans-Serif" font-size="11.00" fill="#000000">0 rows</text>
<polygon fill="#ffffff" stroke="transparent" points="207,-245.7 207,-264.7 233,-264.7 233,-245.7 207,-245.7"/>
<polygon fill="none" stroke="#000000" points="207,-245.7 207,-264.7 233,-264.7 233,-245.7 207,-245.7"/>
<text text-anchor="start" x="214.4053" y="-251.8" font-family="Helvetica,sans-Serif" font-size="11.00" fill="#000000">6 &gt;</text>
</a>
</g>
</g>
<!-- event_reminders&#45;&gt;users -->
<g id="edge4" class="edge">
<title>event_reminders:w&#45;&gt;users:e</title>
<path fill="none" stroke="#000000" d="M493.2641,-409.27C483.4921,-401.095 482.8101,-383.7401 466,-375.7 388.2044,-338.4913 353.5589,-380.972 274,-347.7 252.9242,-338.886 255.8446,-316.7 233,-316.7"/>
<polygon fill="#000000" stroke="#000000" points="499.3862,-411.2444 505.895,-417.1262 503.1931,-412.4722 507,-413.7 507,-413.7 507,-413.7 503.1931,-412.4722 508.105,-410.2738 499.3862,-411.2444 499.3862,-411.2444"/>
<ellipse fill="none" stroke="#000000" cx="496.3406" cy="-410.2622" rx="3.2" ry="3.2"/>
</g>
<!-- chapters -->
<g id="node5" class="node">
<title>chapters</title>
<g id="a_node5"><a xlink:href="../../tables/chapters.html" xlink:title="chapters" target="_top">
<polygon fill="#ffffff" stroke="transparent" points="8,-104.2 8,-187.2 96,-187.2 96,-104.2 8,-104.2"/>
<polygon fill="#f5f5f5" stroke="transparent" points="8,-163.7 8,-186.7 96,-186.7 96,-163.7 8,-163.7"/>
<polygon fill="none" stroke="#000000" points="8,-163.7 8,-186.7 96,-186.7 96,-163.7 8,-163.7"/>
<text text-anchor="start" x="13" y="-172.8" font-family="Helvetica,sans-Serif" font-weight="bold" font-size="11.00" fill="#000000">chapters</text>
<text text-anchor="start" x="61.0437" y="-171.8" font-family="Helvetica,sans-Serif" font-size="11.00" fill="#000000">[table]</text>
<polygon fill="none" stroke="#000000" points="8,-141.7 8,-163.7 96,-163.7 96,-141.7 8,-141.7"/>
<image xlink:href="../../images/primaryKeys.png" width="11px" height="12px" preserveAspectRatio="xMinYMin meet" x="13" y="-158.7"/>
<text text-anchor="start" x="28" y="-148.8" font-family="Helvetica,sans-Serif" font-size="11.00" fill="#000000">id</text>
<polygon fill="none" stroke="#000000" points="8,-122.7 8,-141.7 96,-141.7 96,-122.7 8,-122.7"/>
<text text-anchor="start" x="11" y="-128.8" font-family="Helvetica,sans-Serif" font-size="11.00" fill="#000000">...</text>
<polygon fill="#ffffff" stroke="transparent" points="8,-103.7 8,-122.7 28,-122.7 28,-103.7 8,-103.7"/>
<polygon fill="none" stroke="#000000" points="8,-103.7 8,-122.7 28,-122.7 28,-103.7 8,-103.7"/>
<text text-anchor="start" x="11" y="-109.8" font-family="Helvetica,sans-Serif" font-size="11.00" fill="#000000"> &#160;</text>
<polygon fill="#ffffff" stroke="transparent" points="28,-103.7 28,-122.7 70,-122.7 70,-103.7 28,-103.7"/>
<polygon fill="none" stroke="#000000" points="28,-103.7 28,-122.7 70,-122.7 70,-103.7 28,-103.7"/>
<text text-anchor="start" x="34.6105" y="-109.8" font-family="Helvetica,sans-Serif" font-size="11.00" fill="#000000">0 rows</text>
<polygon fill="#ffffff" stroke="transparent" points="70,-103.7 70,-122.7 96,-122.7 96,-103.7 70,-103.7"/>
<polygon fill="none" stroke="#000000" points="70,-103.7 70,-122.7 96,-122.7 96,-103.7 70,-103.7"/>
<text text-anchor="start" x="77.4053" y="-109.8" font-family="Helvetica,sans-Serif" font-size="11.00" fill="#000000">3 &gt;</text>
</a>
</g>
</g>
<!-- events&#45;&gt;chapters -->
<g id="edge5" class="edge">
<title>events:w&#45;&gt;chapters:e</title>
<path fill="none" stroke="#000000" d="M135.3885,-449.2004C93.2291,-408.2694 158.6805,-152.7 96,-152.7"/>
<polygon fill="#000000" stroke="#000000" points="141.5826,-451.703 147.6514,-458.0379 145.2913,-453.2015 149,-454.7 149,-454.7 149,-454.7 145.2913,-453.2015 150.3486,-451.3621 141.5826,-451.703 141.5826,-451.703"/>
<ellipse fill="none" stroke="#000000" cx="138.6156" cy="-450.5043" rx="3.2" ry="3.2"/>
</g>
<!-- rsvps&#45;&gt;events -->
<g id="edge6" class="edge">
<title>rsvps:w&#45;&gt;events:e</title>
<path fill="none" stroke="#000000" d="M315.5788,-415.0641C280.1247,-422.1783 272.1476,-454.7 229,-454.7"/>
<polygon fill="#000000" stroke="#000000" points="322.0356,-414.4534 330.339,-417.284 326.0178,-414.0767 330,-413.7 330,-413.7 330,-413.7 326.0178,-414.0767 329.661,-410.116 322.0356,-414.4534 322.0356,-414.4534"/>
<ellipse fill="none" stroke="#000000" cx="318.8498" cy="-414.7548" rx="3.2" ry="3.2"/>
</g>
<!-- rsvps&#45;&gt;users -->
<g id="edge7" class="edge">
<title>rsvps:w&#45;&gt;users:e</title>
<path fill="none" stroke="#000000" d="M315.6856,-411.8696C297.2239,-406.457 292.0196,-389.7722 274,-371.7 252.4725,-350.1096 263.489,-316.7 233,-316.7"/>
<polygon fill="#000000" stroke="#000000" points="322.0646,-412.6853 329.5434,-417.2709 326.0323,-413.1926 330,-413.7 330,-413.7 330,-413.7 326.0323,-413.1926 330.4566,-410.1291 322.0646,-412.6853 322.0646,-412.6853"/>
<ellipse fill="none" stroke="#000000" cx="318.8905" cy="-412.2794" rx="3.2" ry="3.2"/>
</g>
<!-- user_bans -->
<g id="node6" class="node">
<title>user_bans</title>
<g id="a_node6"><a xlink:href="../../tables/user_bans.html" xlink:title="user_bans" target="_top">
<polygon fill="#ffffff" stroke="transparent" points="282,-120.7 282,-254.7 458,-254.7 458,-120.7 282,-120.7"/>
<polygon fill="#f5f5f5" stroke="transparent" points="284,-229.7 284,-252.7 456,-252.7 456,-229.7 284,-229.7"/>
<polygon fill="none" stroke="#000000" points="284,-229.7 284,-252.7 456,-252.7 456,-229.7 284,-229.7"/>
<text text-anchor="start" x="289" y="-238.8" font-family="Helvetica,sans-Serif" font-weight="bold" font-size="11.00" fill="#000000">user_bans</text>
<text text-anchor="start" x="421.0437" y="-237.8" font-family="Helvetica,sans-Serif" font-size="11.00" fill="#000000">[table]</text>
<polygon fill="none" stroke="#000000" points="284,-207.7 284,-229.7 372,-229.7 372,-207.7 284,-207.7"/>
<text text-anchor="start" x="304" y="-214.8" font-family="Helvetica,sans-Serif" font-size="11.00" fill="#000000">created_at</text>
<polygon fill="none" stroke="#000000" points="372,-207.7 372,-229.7 456,-229.7 456,-207.7 372,-207.7"/>
<text text-anchor="start" x="374.8807" y="-215.4" font-family="Helvetica,sans-Serif" font-size="11.00" fill="#000000">timestamp[26,3]</text>
<polygon fill="none" stroke="#000000" points="284,-185.7 284,-207.7 372,-207.7 372,-185.7 284,-185.7"/>
<text text-anchor="start" x="304" y="-192.8" font-family="Helvetica,sans-Serif" font-size="11.00" fill="#000000">updated_at</text>
<polygon fill="none" stroke="#000000" points="372,-185.7 372,-207.7 456,-207.7 456,-185.7 372,-185.7"/>
<text text-anchor="start" x="374.8807" y="-193.4" font-family="Helvetica,sans-Serif" font-size="11.00" fill="#000000">timestamp[26,3]</text>
<polygon fill="none" stroke="#000000" points="284,-163.7 284,-185.7 372,-185.7 372,-163.7 284,-163.7"/>
<image xlink:href="../../images/primaryKeys.png" width="11px" height="12px" preserveAspectRatio="xMinYMin meet" x="289" y="-180.7"/>
<text text-anchor="start" x="304" y="-170.8" font-family="Helvetica,sans-Serif" font-size="11.00" fill="#000000">user_id</text>
<polygon fill="none" stroke="#000000" points="372,-163.7 372,-185.7 456,-185.7 456,-163.7 372,-163.7"/>
<text text-anchor="start" x="375" y="-171.4" font-family="Helvetica,sans-Serif" font-size="11.00" fill="#000000">int4[10]</text>
<polygon fill="none" stroke="#000000" points="284,-141.7 284,-163.7 372,-163.7 372,-141.7 284,-141.7"/>
<image xlink:href="../../images/primaryKeys.png" width="11px" height="12px" preserveAspectRatio="xMinYMin meet" x="289" y="-158.7"/>
<text text-anchor="start" x="304" y="-148.8" font-family="Helvetica,sans-Serif" font-size="11.00" fill="#000000">chapter_id</text>
<polygon fill="none" stroke="#000000" points="372,-141.7 372,-163.7 456,-163.7 456,-141.7 372,-141.7"/>
<text text-anchor="start" x="375" y="-149.4" font-family="Helvetica,sans-Serif" font-size="11.00" fill="#000000">int4[10]</text>
<polygon fill="#ffffff" stroke="transparent" points="284,-122.7 284,-141.7 319,-141.7 319,-122.7 284,-122.7"/>
<polygon fill="none" stroke="#000000" points="284,-122.7 284,-141.7 319,-141.7 319,-122.7 284,-122.7"/>
<text text-anchor="start" x="287" y="-128.8" font-family="Helvetica,sans-Serif" font-size="11.00" fill="#000000">&lt; 2</text>
<polygon fill="#ffffff" stroke="transparent" points="319,-122.7 319,-141.7 372,-141.7 372,-122.7 319,-122.7"/>
<polygon fill="none" stroke="#000000" points="319,-122.7 319,-141.7 372,-141.7 372,-122.7 319,-122.7"/>
<text text-anchor="start" x="336.6105" y="-128.8" font-family="Helvetica,sans-Serif" font-size="11.00" fill="#000000">0 rows</text>
<polygon fill="#ffffff" stroke="transparent" points="372,-122.7 372,-141.7 456,-141.7 456,-122.7 372,-122.7"/>
<polygon fill="none" stroke="#000000" points="372,-122.7 372,-141.7 456,-141.7 456,-122.7 372,-122.7"/>
<text text-anchor="start" x="437.4053" y="-128.8" font-family="Helvetica,sans-Serif" font-size="11.00" fill="#000000">0 &gt;</text>
<polygon fill="none" stroke="#000000" stroke-width="2" points="283,-121.7 283,-253.7 457,-253.7 457,-121.7 283,-121.7"/>
</a>
</g>
</g>
<!-- user_bans&#45;&gt;users -->
<g id="edge9" class="edge">
<title>user_bans:w&#45;&gt;users:e</title>
<path fill="none" stroke="#000000" d="M269.8482,-177.6659C230.1184,-198.0575 294.2953,-316.7 233,-316.7"/>
<polygon fill="#000000" stroke="#000000" points="276.1701,-176.341 284.7384,-178.2235 280.0851,-175.5205 284,-174.7 284,-174.7 284,-174.7 280.0851,-175.5205 283.2616,-171.1765 276.1701,-176.341 276.1701,-176.341"/>
<ellipse fill="none" stroke="#000000" cx="273.0381" cy="-176.9974" rx="3.2" ry="3.2"/>
</g>
<!-- user_bans&#45;&gt;chapters -->
<g id="edge8" class="edge">
<title>user_bans:w&#45;&gt;chapters:e</title>
<path fill="none" stroke="#000000" d="M269.4843,-152.7C197.6852,-152.7 174.4965,-152.7 96,-152.7"/>
<polygon fill="#000000" stroke="#000000" points="276,-152.7001 284,-156.3 280,-152.7 284,-152.7 284,-152.7 284,-152.7 280,-152.7 284,-149.1 276,-152.7001 276,-152.7001"/>
<ellipse fill="none" stroke="#000000" cx="272.8" cy="-152.7001" rx="3.2" ry="3.2"/>
</g>
<!-- user_chapter_roles -->
<g id="node7" class="node">
<title>user_chapter_roles</title>
<g id="a_node7"><a xlink:href="../../tables/user_chapter_roles.html" xlink:title="user_chapter_roles" target="_top">
<polygon fill="#ffffff" stroke="transparent" points="301.5,-38.2 301.5,-99.2 438.5,-99.2 438.5,-38.2 301.5,-38.2"/>
<polygon fill="#f5f5f5" stroke="transparent" points="302,-75.7 302,-98.7 439,-98.7 439,-75.7 302,-75.7"/>
<polygon fill="none" stroke="#000000" points="302,-75.7 302,-98.7 439,-98.7 439,-75.7 302,-75.7"/>
<text text-anchor="start" x="306.9338" y="-84.8" font-family="Helvetica,sans-Serif" font-weight="bold" font-size="11.00" fill="#000000">user_chapter_roles</text>
<text text-anchor="start" x="404.5219" y="-83.8" font-family="Helvetica,sans-Serif" font-size="11.00" fill="#000000">[table]</text>
<polygon fill="none" stroke="#000000" points="302,-56.7 302,-75.7 439,-75.7 439,-56.7 302,-56.7"/>
<text text-anchor="start" x="305" y="-62.8" font-family="Helvetica,sans-Serif" font-size="11.00" fill="#000000">...</text>
<polygon fill="#ffffff" stroke="transparent" points="302,-37.7 302,-56.7 356,-56.7 356,-37.7 302,-37.7"/>
<polygon fill="none" stroke="#000000" points="302,-37.7 302,-56.7 356,-56.7 356,-37.7 302,-37.7"/>
<text text-anchor="start" x="305" y="-43.8" font-family="Helvetica,sans-Serif" font-size="11.00" fill="#000000">&lt; 2</text>
<polygon fill="#ffffff" stroke="transparent" points="356,-37.7 356,-56.7 410,-56.7 410,-37.7 356,-37.7"/>
<polygon fill="none" stroke="#000000" points="356,-37.7 356,-56.7 410,-56.7 410,-37.7 356,-37.7"/>
<text text-anchor="start" x="374.6105" y="-43.8" font-family="Helvetica,sans-Serif" font-size="11.00" fill="#000000">0 rows</text>
<polygon fill="#ffffff" stroke="transparent" points="410,-37.7 410,-56.7 439,-56.7 439,-37.7 410,-37.7"/>
<polygon fill="none" stroke="#000000" points="410,-37.7 410,-56.7 439,-56.7 439,-37.7 410,-37.7"/>
<text text-anchor="start" x="429.8862" y="-43.8" font-family="Helvetica,sans-Serif" font-size="11.00" fill="#000000"> &#160;</text>
</a>
</g>
</g>
<!-- user_chapter_roles&#45;&gt;users -->
<g id="edge11" class="edge">
<title>user_chapter_roles:w&#45;&gt;users:e</title>
<path fill="none" stroke="#000000" d="M288.232,-70.2638C279.9707,-77.9235 280.2645,-94.0672 274,-109.7 256.5569,-153.2287 279.8936,-316.7 233,-316.7"/>
<polygon fill="#000000" stroke="#000000" points="294.4063,-68.2172 303.1327,-69.1172 298.2032,-66.9586 302,-65.7 302,-65.7 302,-65.7 298.2032,-66.9586 300.8673,-62.2828 294.4063,-68.2172 294.4063,-68.2172"/>
<ellipse fill="none" stroke="#000000" cx="291.3688" cy="-69.224" rx="3.2" ry="3.2"/>
</g>
<!-- user_chapter_roles&#45;&gt;chapters -->
<g id="edge10" class="edge">
<title>user_chapter_roles:w&#45;&gt;chapters:e</title>
<path fill="none" stroke="#000000" d="M287.548,-66.3503C201.6424,-74.3116 190.3388,-152.7 96,-152.7"/>
<polygon fill="#000000" stroke="#000000" points="294.0081,-66.0596 302.1618,-69.2964 298.004,-65.8798 302,-65.7 302,-65.7 302,-65.7 298.004,-65.8798 301.8382,-62.1036 294.0081,-66.0596 294.0081,-66.0596"/>
<ellipse fill="none" stroke="#000000" cx="290.8113" cy="-66.2035" rx="3.2" ry="3.2"/>
</g>
<!-- user_event_roles -->
<g id="node8" class="node">
<title>user_event_roles</title>
<g id="a_node8"><a xlink:href="../../tables/user_event_roles.html" xlink:title="user_event_roles" target="_top">
<polygon fill="#ffffff" stroke="transparent" points="306.5,-468.2 306.5,-529.2 433.5,-529.2 433.5,-468.2 306.5,-468.2"/>
<polygon fill="#f5f5f5" stroke="transparent" points="307,-505.7 307,-528.7 434,-528.7 434,-505.7 307,-505.7"/>
<polygon fill="none" stroke="#000000" points="307,-505.7 307,-528.7 434,-528.7 434,-505.7 307,-505.7"/>
<text text-anchor="start" x="311.8222" y="-514.8" font-family="Helvetica,sans-Serif" font-weight="bold" font-size="11.00" fill="#000000">user_event_roles</text>
<text text-anchor="start" x="399.5219" y="-513.8" font-family="Helvetica,sans-Serif" font-size="11.00" fill="#000000">[table]</text>
<polygon fill="none" stroke="#000000" points="307,-486.7 307,-505.7 434,-505.7 434,-486.7 307,-486.7"/>
<text text-anchor="start" x="310" y="-492.8" font-family="Helvetica,sans-Serif" font-size="11.00" fill="#000000">...</text>
<polygon fill="#ffffff" stroke="transparent" points="307,-467.7 307,-486.7 356,-486.7 356,-467.7 307,-467.7"/>
<polygon fill="none" stroke="#000000" points="307,-467.7 307,-486.7 356,-486.7 356,-467.7 307,-467.7"/>
<text text-anchor="start" x="310" y="-473.8" font-family="Helvetica,sans-Serif" font-size="11.00" fill="#000000">&lt; 2</text>
<polygon fill="#ffffff" stroke="transparent" points="356,-467.7 356,-486.7 408,-486.7 408,-467.7 356,-467.7"/>
<polygon fill="none" stroke="#000000" points="356,-467.7 356,-486.7 408,-486.7 408,-467.7 356,-467.7"/>
<text text-anchor="start" x="372.6105" y="-473.8" font-family="Helvetica,sans-Serif" font-size="11.00" fill="#000000">0 rows</text>
<polygon fill="#ffffff" stroke="transparent" points="408,-467.7 408,-486.7 434,-486.7 434,-467.7 408,-467.7"/>
<polygon fill="none" stroke="#000000" points="408,-467.7 408,-486.7 434,-486.7 434,-467.7 408,-467.7"/>
<text text-anchor="start" x="424.8862" y="-473.8" font-family="Helvetica,sans-Serif" font-size="11.00" fill="#000000"> &#160;</text>
</a>
</g>
</g>
<!-- user_event_roles&#45;&gt;events -->
<g id="edge12" class="edge">
<title>user_event_roles:w&#45;&gt;events:e</title>
<path fill="none" stroke="#000000" d="M292.6009,-493.4957C267.1472,-484.9795 262.6567,-454.7 229,-454.7"/>
<polygon fill="#000000" stroke="#000000" points="299.0921,-494.4893 306.4552,-499.2585 303.0461,-495.0947 307,-495.7 307,-495.7 307,-495.7 303.0461,-495.0947 307.5448,-492.1415 299.0921,-494.4893 299.0921,-494.4893"/>
<ellipse fill="none" stroke="#000000" cx="295.929" cy="-494.0051" rx="3.2" ry="3.2"/>
</g>
<!-- user_event_roles&#45;&gt;users -->
<g id="edge13" class="edge">
<title>user_event_roles:w&#45;&gt;users:e</title>
<path fill="none" stroke="#000000" d="M292.5522,-493.565C232.8037,-473.3694 313.5373,-316.7 233,-316.7"/>
<polygon fill="#000000" stroke="#000000" points="299.0859,-494.5305 306.4737,-499.2613 303.043,-495.1152 307,-495.7 307,-495.7 307,-495.7 303.043,-495.1152 307.5263,-492.1387 299.0859,-494.5305 299.0859,-494.5305"/>
<ellipse fill="none" stroke="#000000" cx="295.9203" cy="-494.0627" rx="3.2" ry="3.2"/>
</g>
<!-- user_instance_roles -->
<g id="node9" class="node">
<title>user_instance_roles</title>
<g id="a_node9"><a xlink:href="../../tables/user_instance_roles.html" xlink:title="user_instance_roles" target="_top">
<polygon fill="#ffffff" stroke="transparent" points="299.5,-276.2 299.5,-337.2 440.5,-337.2 440.5,-276.2 299.5,-276.2"/>
<polygon fill="#f5f5f5" stroke="transparent" points="300,-313.7 300,-336.7 441,-336.7 441,-313.7 300,-313.7"/>
<polygon fill="none" stroke="#000000" points="300,-313.7 300,-336.7 441,-336.7 441,-313.7 300,-313.7"/>
<text text-anchor="start" x="304.7943" y="-322.8" font-family="Helvetica,sans-Serif" font-weight="bold" font-size="11.00" fill="#000000">user_instance_roles</text>
<text text-anchor="start" x="406.5219" y="-321.8" font-family="Helvetica,sans-Serif" font-size="11.00" fill="#000000">[table]</text>
<polygon fill="none" stroke="#000000" points="300,-294.7 300,-313.7 441,-313.7 441,-294.7 300,-294.7"/>
<text text-anchor="start" x="303" y="-300.8" font-family="Helvetica,sans-Serif" font-size="11.00" fill="#000000">...</text>
<polygon fill="#ffffff" stroke="transparent" points="300,-275.7 300,-294.7 356,-294.7 356,-275.7 300,-275.7"/>
<polygon fill="none" stroke="#000000" points="300,-275.7 300,-294.7 356,-294.7 356,-275.7 300,-275.7"/>
<text text-anchor="start" x="303" y="-281.8" font-family="Helvetica,sans-Serif" font-size="11.00" fill="#000000">&lt; 1</text>
<polygon fill="#ffffff" stroke="transparent" points="356,-275.7 356,-294.7 411,-294.7 411,-275.7 356,-275.7"/>
<polygon fill="none" stroke="#000000" points="356,-275.7 356,-294.7 411,-294.7 411,-275.7 356,-275.7"/>
<text text-anchor="start" x="375.6105" y="-281.8" font-family="Helvetica,sans-Serif" font-size="11.00" fill="#000000">0 rows</text>
<polygon fill="#ffffff" stroke="transparent" points="411,-275.7 411,-294.7 441,-294.7 441,-275.7 411,-275.7"/>
<polygon fill="none" stroke="#000000" points="411,-275.7 411,-294.7 441,-294.7 441,-275.7 411,-275.7"/>
<text text-anchor="start" x="431.8862" y="-281.8" font-family="Helvetica,sans-Serif" font-size="11.00" fill="#000000"> &#160;</text>
</a>
</g>
</g>
<!-- user_instance_roles&#45;&gt;users -->
<g id="edge14" class="edge">
<title>user_instance_roles:w&#45;&gt;users:e</title>
<path fill="none" stroke="#000000" d="M285.4229,-304.8537C266.5323,-308.0353 257.7642,-316.7 233,-316.7"/>
<polygon fill="#000000" stroke="#000000" points="292.0249,-304.3312 300.284,-307.2888 296.0125,-304.0156 300,-303.7 300,-303.7 300,-303.7 296.0125,-304.0156 299.716,-300.1112 292.0249,-304.3312 292.0249,-304.3312"/>
<ellipse fill="none" stroke="#000000" cx="288.8349" cy="-304.5837" rx="3.2" ry="3.2"/>
</g>
</g>
</svg>
