<?xml version="1.0" encoding="UTF-8" standalone="no"?>
<!DOCTYPE svg PUBLIC "-//W3C//DTD SVG 1.1//EN"
 "http://www.w3.org/Graphics/SVG/1.1/DTD/svg11.dtd">
<!-- Generated by graphviz version 2.40.1 (20161225.0304)
 -->
<!-- Title: twoDegreesRelationshipsDiagram Pages: 1 -->
<svg width="665pt" height="510pt"
 viewBox="0.00 0.00 665.00 509.55" xmlns="http://www.w3.org/2000/svg" xmlns:xlink="http://www.w3.org/1999/xlink">
<g id="graph0" class="graph" transform="scale(1 1) rotate(0) translate(4 505.5481)">
<title>twoDegreesRelationshipsDiagram</title>
<polygon fill="#ffffff" stroke="transparent" points="-4,4 -4,-505.5481 661,-505.5481 661,4 -4,4"/>
<text text-anchor="middle" x="72.4936" y="-7.3" font-family="Helvetica,sans-Serif" font-size="11.00" fill="#000000">Generated by SchemaSpy</text>
<!-- chapters -->
<g id="node1" class="node">
<title>chapters</title>
<g id="a_node1"><a xlink:href="../../tables/chapters.html" xlink:title="chapters" target="_top">
<polygon fill="#ffffff" stroke="transparent" points="176,-148.2 176,-253.2 273,-253.2 273,-148.2 176,-148.2"/>
<polygon fill="#f5f5f5" stroke="transparent" points="176.5,-229.7 176.5,-252.7 273.5,-252.7 273.5,-229.7 176.5,-229.7"/>
<polygon fill="none" stroke="#000000" points="176.5,-229.7 176.5,-252.7 273.5,-252.7 273.5,-229.7 176.5,-229.7"/>
<text text-anchor="start" x="181.5" y="-238.8" font-family="Helvetica,sans-Serif" font-weight="bold" font-size="11.00" fill="#000000">chapters</text>
<text text-anchor="start" x="238.5437" y="-237.8" font-family="Helvetica,sans-Serif" font-size="11.00" fill="#000000">[table]</text>
<polygon fill="none" stroke="#000000" points="176.5,-207.7 176.5,-229.7 273.5,-229.7 273.5,-207.7 176.5,-207.7"/>
<image xlink:href="../../images/primaryKeys.png" width="11px" height="12px" preserveAspectRatio="xMinYMin meet" x="181.5" y="-224.7"/>
<text text-anchor="start" x="196.5" y="-214.8" font-family="Helvetica,sans-Serif" font-size="11.00" fill="#000000">id</text>
<polygon fill="none" stroke="#000000" points="176.5,-185.7 176.5,-207.7 273.5,-207.7 273.5,-185.7 176.5,-185.7"/>
<image xlink:href="../../images/foreignKeys.png" width="11px" height="12px" preserveAspectRatio="xMinYMin meet" x="181.5" y="-202.7"/>
<text text-anchor="start" x="196.5" y="-192.8" font-family="Helvetica,sans-Serif" font-size="11.00" fill="#000000">creator_id</text>
<polygon fill="none" stroke="#000000" points="176.5,-166.7 176.5,-185.7 273.5,-185.7 273.5,-166.7 176.5,-166.7"/>
<text text-anchor="start" x="179.5" y="-172.8" font-family="Helvetica,sans-Serif" font-size="11.00" fill="#000000">...</text>
<polygon fill="#ffffff" stroke="transparent" points="176.5,-147.7 176.5,-166.7 205.5,-166.7 205.5,-147.7 176.5,-147.7"/>
<polygon fill="none" stroke="#000000" points="176.5,-147.7 176.5,-166.7 205.5,-166.7 205.5,-147.7 176.5,-147.7"/>
<text text-anchor="start" x="179.5" y="-153.8" font-family="Helvetica,sans-Serif" font-size="11.00" fill="#000000">&lt; 1</text>
<polygon fill="#ffffff" stroke="transparent" points="205.5,-147.7 205.5,-166.7 247.5,-166.7 247.5,-147.7 205.5,-147.7"/>
<polygon fill="none" stroke="#000000" points="205.5,-147.7 205.5,-166.7 247.5,-166.7 247.5,-147.7 205.5,-147.7"/>
<text text-anchor="start" x="212.1105" y="-153.8" font-family="Helvetica,sans-Serif" font-size="11.00" fill="#000000">4 rows</text>
<polygon fill="#ffffff" stroke="transparent" points="247.5,-147.7 247.5,-166.7 273.5,-166.7 273.5,-147.7 247.5,-147.7"/>
<polygon fill="none" stroke="#000000" points="247.5,-147.7 247.5,-166.7 273.5,-166.7 273.5,-147.7 247.5,-147.7"/>
<text text-anchor="start" x="254.9053" y="-153.8" font-family="Helvetica,sans-Serif" font-size="11.00" fill="#000000">4 &gt;</text>
</a>
</g>
</g>
<!-- users -->
<g id="node2" class="node">
<title>users</title>
<g id="a_node2"><a xlink:href="../../tables/users.html" xlink:title="users" target="_top">
<polygon fill="#ffffff" stroke="transparent" points="8,-188.2 8,-271.2 105,-271.2 105,-188.2 8,-188.2"/>
<polygon fill="#f5f5f5" stroke="transparent" points="8.5,-247.7 8.5,-270.7 105.5,-270.7 105.5,-247.7 8.5,-247.7"/>
<polygon fill="none" stroke="#000000" points="8.5,-247.7 8.5,-270.7 105.5,-270.7 105.5,-247.7 8.5,-247.7"/>
<text text-anchor="start" x="13.5" y="-256.8" font-family="Helvetica,sans-Serif" font-weight="bold" font-size="11.00" fill="#000000">users</text>
<text text-anchor="start" x="70.5437" y="-255.8" font-family="Helvetica,sans-Serif" font-size="11.00" fill="#000000">[table]</text>
<polygon fill="none" stroke="#000000" points="8.5,-225.7 8.5,-247.7 105.5,-247.7 105.5,-225.7 8.5,-225.7"/>
<image xlink:href="../../images/primaryKeys.png" width="11px" height="12px" preserveAspectRatio="xMinYMin meet" x="13.5" y="-242.7"/>
<text text-anchor="start" x="28.5" y="-232.8" font-family="Helvetica,sans-Serif" font-size="11.00" fill="#000000">id</text>
<polygon fill="none" stroke="#000000" points="8.5,-206.7 8.5,-225.7 105.5,-225.7 105.5,-206.7 8.5,-206.7"/>
<text text-anchor="start" x="11.5" y="-212.8" font-family="Helvetica,sans-Serif" font-size="11.00" fill="#000000">...</text>
<polygon fill="#ffffff" stroke="transparent" points="8.5,-187.7 8.5,-206.7 36.5,-206.7 36.5,-187.7 8.5,-187.7"/>
<polygon fill="none" stroke="#000000" points="8.5,-187.7 8.5,-206.7 36.5,-206.7 36.5,-187.7 8.5,-187.7"/>
<text text-anchor="start" x="11.5" y="-193.8" font-family="Helvetica,sans-Serif" font-size="11.00" fill="#000000"> &#160;</text>
<polygon fill="#ffffff" stroke="transparent" points="36.5,-187.7 36.5,-206.7 76.5,-206.7 76.5,-187.7 36.5,-187.7"/>
<polygon fill="none" stroke="#000000" points="36.5,-187.7 36.5,-206.7 76.5,-206.7 76.5,-187.7 36.5,-187.7"/>
<text text-anchor="start" x="46.6105" y="-193.8" font-family="Helvetica,sans-Serif" font-size="11.00" fill="#000000">1 row</text>
<polygon fill="#ffffff" stroke="transparent" points="76.5,-187.7 76.5,-206.7 105.5,-206.7 105.5,-187.7 76.5,-187.7"/>
<polygon fill="none" stroke="#000000" points="76.5,-187.7 76.5,-206.7 105.5,-206.7 105.5,-187.7 76.5,-187.7"/>
<text text-anchor="start" x="86.9053" y="-193.8" font-family="Helvetica,sans-Serif" font-size="11.00" fill="#000000">6 &gt;</text>
</a>
</g>
</g>
<!-- chapters&#45;&gt;users -->
<g id="edge1" class="edge">
<title>chapters:w&#45;&gt;users:e</title>
<path fill="none" stroke="#000000" d="M162.3024,-199.2022C139.8453,-207.9592 136.2011,-236.7 105.5,-236.7"/>
<polygon fill="#000000" stroke="#000000" points="168.6214,-198.0886 177.1249,-200.2454 172.5607,-197.3943 176.5,-196.7 176.5,-196.7 176.5,-196.7 172.5607,-197.3943 175.8751,-193.1546 168.6214,-198.0886 168.6214,-198.0886"/>
<ellipse fill="none" stroke="#000000" cx="165.47" cy="-198.644" rx="3.2" ry="3.2"/>
</g>
<!-- events -->
<g id="node3" class="node">
<title>events</title>
<g id="a_node3"><a xlink:href="../../tables/events.html" xlink:title="events" target="_top">
<polygon fill="#ffffff" stroke="transparent" points="396.5,-139.2 396.5,-200.2 476.5,-200.2 476.5,-139.2 396.5,-139.2"/>
<polygon fill="#f5f5f5" stroke="transparent" points="396.5,-176.7 396.5,-199.7 476.5,-199.7 476.5,-176.7 396.5,-176.7"/>
<polygon fill="none" stroke="#000000" points="396.5,-176.7 396.5,-199.7 476.5,-199.7 476.5,-176.7 396.5,-176.7"/>
<text text-anchor="start" x="401.5" y="-185.8" font-family="Helvetica,sans-Serif" font-weight="bold" font-size="11.00" fill="#000000">events</text>
<text text-anchor="start" x="441.5437" y="-184.8" font-family="Helvetica,sans-Serif" font-size="11.00" fill="#000000">[table]</text>
<polygon fill="none" stroke="#000000" points="396.5,-157.7 396.5,-176.7 476.5,-176.7 476.5,-157.7 396.5,-157.7"/>
<text text-anchor="start" x="399.5" y="-163.8" font-family="Helvetica,sans-Serif" font-size="11.00" fill="#000000">...</text>
<polygon fill="#ffffff" stroke="transparent" points="396.5,-138.7 396.5,-157.7 417.5,-157.7 417.5,-138.7 396.5,-138.7"/>
<polygon fill="none" stroke="#000000" points="396.5,-138.7 396.5,-157.7 417.5,-157.7 417.5,-138.7 396.5,-138.7"/>
<text text-anchor="start" x="399.2027" y="-144.8" font-family="Helvetica,sans-Serif" font-size="11.00" fill="#000000">&lt; 2</text>
<polygon fill="#ffffff" stroke="transparent" points="417.5,-138.7 417.5,-157.7 455.5,-157.7 455.5,-138.7 417.5,-138.7"/>
<polygon fill="none" stroke="#000000" points="417.5,-138.7 417.5,-157.7 455.5,-157.7 455.5,-138.7 417.5,-138.7"/>
<text text-anchor="start" x="420.3053" y="-144.8" font-family="Helvetica,sans-Serif" font-size="11.00" fill="#000000">4 rows</text>
<polygon fill="#ffffff" stroke="transparent" points="455.5,-138.7 455.5,-157.7 476.5,-157.7 476.5,-138.7 455.5,-138.7"/>
<polygon fill="none" stroke="#000000" points="455.5,-138.7 455.5,-157.7 476.5,-157.7 476.5,-138.7 455.5,-138.7"/>
<text text-anchor="start" x="458.2027" y="-144.8" font-family="Helvetica,sans-Serif" font-size="11.00" fill="#000000">3 &gt;</text>
</a>
</g>
</g>
<!-- events&#45;&gt;chapters -->
<g id="edge2" class="edge">
<title>events:w&#45;&gt;chapters:e</title>
<path fill="none" stroke="#000000" d="M382.0518,-167.8345C335.9681,-175.4389 327.6348,-218.7 273.5,-218.7"/>
<polygon fill="#000000" stroke="#000000" points="388.5245,-167.3263 396.7818,-170.289 392.5123,-167.0131 396.5,-166.7 396.5,-166.7 396.5,-166.7 392.5123,-167.0131 396.2182,-163.111 388.5245,-167.3263 388.5245,-167.3263"/>
<ellipse fill="none" stroke="#000000" cx="385.3344" cy="-167.5768" rx="3.2" ry="3.2"/>
</g>
<!-- rsvps -->
<g id="node4" class="node">
<title>rsvps</title>
<g id="a_node4"><a xlink:href="../../tables/rsvps.html" xlink:title="rsvps" target="_top">
<polygon fill="#ffffff" stroke="transparent" points="578,-297.2 578,-358.2 649,-358.2 649,-297.2 578,-297.2"/>
<polygon fill="#f5f5f5" stroke="transparent" points="578.5,-334.7 578.5,-357.7 649.5,-357.7 649.5,-334.7 578.5,-334.7"/>
<polygon fill="none" stroke="#000000" points="578.5,-334.7 578.5,-357.7 649.5,-357.7 649.5,-334.7 578.5,-334.7"/>
<text text-anchor="start" x="583.5" y="-343.8" font-family="Helvetica,sans-Serif" font-weight="bold" font-size="11.00" fill="#000000">rsvps</text>
<text text-anchor="start" x="614.5437" y="-342.8" font-family="Helvetica,sans-Serif" font-size="11.00" fill="#000000">[table]</text>
<polygon fill="none" stroke="#000000" points="578.5,-315.7 578.5,-334.7 649.5,-334.7 649.5,-315.7 578.5,-315.7"/>
<text text-anchor="start" x="581.5" y="-321.8" font-family="Helvetica,sans-Serif" font-size="11.00" fill="#000000">...</text>
<polygon fill="#ffffff" stroke="transparent" points="578.5,-296.7 578.5,-315.7 599.5,-315.7 599.5,-296.7 578.5,-296.7"/>
<polygon fill="none" stroke="#000000" points="578.5,-296.7 578.5,-315.7 599.5,-315.7 599.5,-296.7 578.5,-296.7"/>
<text text-anchor="start" x="581.2026" y="-302.8" font-family="Helvetica,sans-Serif" font-size="11.00" fill="#000000">&lt; 2</text>
<polygon fill="#ffffff" stroke="transparent" points="599.5,-296.7 599.5,-315.7 637.5,-315.7 637.5,-296.7 599.5,-296.7"/>
<polygon fill="none" stroke="#000000" points="599.5,-296.7 599.5,-315.7 637.5,-315.7 637.5,-296.7 599.5,-296.7"/>
<text text-anchor="start" x="602.3053" y="-302.8" font-family="Helvetica,sans-Serif" font-size="11.00" fill="#000000">0 rows</text>
<polygon fill="#ffffff" stroke="transparent" points="637.5,-296.7 637.5,-315.7 649.5,-315.7 649.5,-296.7 637.5,-296.7"/>
<polygon fill="none" stroke="#000000" points="637.5,-296.7 637.5,-315.7 649.5,-315.7 649.5,-296.7 637.5,-296.7"/>
<text text-anchor="start" x="640.4431" y="-302.8" font-family="Helvetica,sans-Serif" font-size="11.00" fill="#000000"> &#160;</text>
</a>
</g>
</g>
<!-- rsvps&#45;&gt;users -->
<g id="edge4" class="edge">
<title>rsvps:w&#45;&gt;users:e</title>
<path fill="none" stroke="#000000" d="M564.1923,-326.926C523.7674,-342.3276 586.2026,-433.534 537,-470.7 465.7174,-524.5445 421.6728,-496.0105 336,-470.7 239.5273,-442.1988 208.7093,-426.3566 146,-347.7 113.2632,-306.6381 158.0145,-236.7 105.5,-236.7"/>
<polygon fill="#000000" stroke="#000000" points="570.5951,-325.9299 579.0534,-328.2572 574.5475,-325.3149 578.5,-324.7 578.5,-324.7 578.5,-324.7 574.5475,-325.3149 577.9466,-321.1428 570.5951,-325.9299 570.5951,-325.9299"/>
<ellipse fill="none" stroke="#000000" cx="567.4331" cy="-326.4218" rx="3.2" ry="3.2"/>
</g>
<!-- rsvps&#45;&gt;events -->
<g id="edge3" class="edge">
<title>rsvps:w&#45;&gt;events:e</title>
<path fill="none" stroke="#000000" d="M564.1223,-322.2836C533.4689,-309.5171 565.8923,-249.0582 537,-210.7 516.9964,-184.1427 509.748,-166.7 476.5,-166.7"/>
<polygon fill="#000000" stroke="#000000" points="570.6106,-323.374 577.9033,-328.2502 574.5553,-324.037 578.5,-324.7 578.5,-324.7 578.5,-324.7 574.5553,-324.037 579.0967,-321.1498 570.6106,-323.374 570.6106,-323.374"/>
<ellipse fill="none" stroke="#000000" cx="567.4549" cy="-322.8437" rx="3.2" ry="3.2"/>
</g>
<!-- user_bans -->
<g id="node5" class="node">
<title>user_bans</title>
<g id="a_node5"><a xlink:href="../../tables/user_bans.html" xlink:title="user_bans" target="_top">
<polygon fill="#ffffff" stroke="transparent" points="344,-303.7 344,-459.7 529,-459.7 529,-303.7 344,-303.7"/>
<polygon fill="#f5f5f5" stroke="transparent" points="346.5,-434.7 346.5,-457.7 527.5,-457.7 527.5,-434.7 346.5,-434.7"/>
<polygon fill="none" stroke="#000000" points="346.5,-434.7 346.5,-457.7 527.5,-457.7 527.5,-434.7 346.5,-434.7"/>
<text text-anchor="start" x="351.5" y="-443.8" font-family="Helvetica,sans-Serif" font-weight="bold" font-size="11.00" fill="#000000">user_bans</text>
<text text-anchor="start" x="492.5437" y="-442.8" font-family="Helvetica,sans-Serif" font-size="11.00" fill="#000000">[table]</text>
<polygon fill="none" stroke="#000000" points="346.5,-412.7 346.5,-434.7 443.5,-434.7 443.5,-412.7 346.5,-412.7"/>
<image xlink:href="../../images/primaryKeys.png" width="11px" height="12px" preserveAspectRatio="xMinYMin meet" x="351.5" y="-429.7"/>
<text text-anchor="start" x="366.5" y="-419.8" font-family="Helvetica,sans-Serif" font-size="11.00" fill="#000000">id</text>
<polygon fill="none" stroke="#000000" points="443.5,-412.7 443.5,-434.7 527.5,-434.7 527.5,-412.7 443.5,-412.7"/>
<text text-anchor="start" x="446.5" y="-420.4" font-family="Helvetica,sans-Serif" font-size="11.00" fill="#000000">serial[10]</text>
<polygon fill="none" stroke="#000000" points="346.5,-390.7 346.5,-412.7 443.5,-412.7 443.5,-390.7 346.5,-390.7"/>
<image xlink:href="../../images/foreignKeys.png" width="11px" height="12px" preserveAspectRatio="xMinYMin meet" x="351.5" y="-407.7"/>
<text text-anchor="start" x="366.5" y="-397.8" font-family="Helvetica,sans-Serif" font-size="11.00" fill="#000000">user_id</text>
<polygon fill="none" stroke="#000000" points="443.5,-390.7 443.5,-412.7 527.5,-412.7 527.5,-390.7 443.5,-390.7"/>
<text text-anchor="start" x="446.5" y="-398.4" font-family="Helvetica,sans-Serif" font-size="11.00" fill="#000000">int4[10]</text>
<polygon fill="none" stroke="#000000" points="346.5,-368.7 346.5,-390.7 443.5,-390.7 443.5,-368.7 346.5,-368.7"/>
<image xlink:href="../../images/foreignKeys.png" width="11px" height="12px" preserveAspectRatio="xMinYMin meet" x="351.5" y="-385.7"/>
<text text-anchor="start" x="366.5" y="-375.8" font-family="Helvetica,sans-Serif" font-size="11.00" fill="#000000">chapter_id</text>
<polygon fill="none" stroke="#000000" points="443.5,-368.7 443.5,-390.7 527.5,-390.7 527.5,-368.7 443.5,-368.7"/>
<text text-anchor="start" x="446.5" y="-376.4" font-family="Helvetica,sans-Serif" font-size="11.00" fill="#000000">int4[10]</text>
<polygon fill="none" stroke="#000000" points="346.5,-346.7 346.5,-368.7 443.5,-368.7 443.5,-346.7 346.5,-346.7"/>
<text text-anchor="start" x="366.5" y="-353.8" font-family="Helvetica,sans-Serif" font-size="11.00" fill="#000000">created_at</text>
<polygon fill="none" stroke="#000000" points="443.5,-346.7 443.5,-368.7 527.5,-368.7 527.5,-346.7 443.5,-346.7"/>
<text text-anchor="start" x="446.3807" y="-354.4" font-family="Helvetica,sans-Serif" font-size="11.00" fill="#000000">timestamp[29,6]</text>
<polygon fill="none" stroke="#000000" points="346.5,-324.7 346.5,-346.7 443.5,-346.7 443.5,-324.7 346.5,-324.7"/>
<text text-anchor="start" x="366.5" y="-331.8" font-family="Helvetica,sans-Serif" font-size="11.00" fill="#000000">updated_at</text>
<polygon fill="none" stroke="#000000" points="443.5,-324.7 443.5,-346.7 527.5,-346.7 527.5,-324.7 443.5,-324.7"/>
<text text-anchor="start" x="446.3807" y="-332.4" font-family="Helvetica,sans-Serif" font-size="11.00" fill="#000000">timestamp[29,6]</text>
<polygon fill="#ffffff" stroke="transparent" points="346.5,-305.7 346.5,-324.7 386.5,-324.7 386.5,-305.7 346.5,-305.7"/>
<polygon fill="none" stroke="#000000" points="346.5,-305.7 346.5,-324.7 386.5,-324.7 386.5,-305.7 346.5,-305.7"/>
<text text-anchor="start" x="349.5" y="-311.8" font-family="Helvetica,sans-Serif" font-size="11.00" fill="#000000">&lt; 2</text>
<polygon fill="#ffffff" stroke="transparent" points="386.5,-305.7 386.5,-324.7 443.5,-324.7 443.5,-305.7 386.5,-305.7"/>
<polygon fill="none" stroke="#000000" points="386.5,-305.7 386.5,-324.7 443.5,-324.7 443.5,-305.7 386.5,-305.7"/>
<text text-anchor="start" x="408.1105" y="-311.8" font-family="Helvetica,sans-Serif" font-size="11.00" fill="#000000">0 rows</text>
<polygon fill="#ffffff" stroke="transparent" points="443.5,-305.7 443.5,-324.7 527.5,-324.7 527.5,-305.7 443.5,-305.7"/>
<polygon fill="none" stroke="#000000" points="443.5,-305.7 443.5,-324.7 527.5,-324.7 527.5,-305.7 443.5,-305.7"/>
<text text-anchor="start" x="508.9053" y="-311.8" font-family="Helvetica,sans-Serif" font-size="11.00" fill="#000000">0 &gt;</text>
<polygon fill="none" stroke="#000000" stroke-width="2" points="345,-304.7 345,-458.7 528,-458.7 528,-304.7 345,-304.7"/>
</a>
</g>
</g>
<!-- user_bans&#45;&gt;chapters -->
<g id="edge5" class="edge">
<title>user_bans:w&#45;&gt;chapters:e</title>
<path fill="none" stroke="#000000" d="M332.2272,-377.4241C278.9597,-357.8553 346.5431,-218.7 273.5,-218.7"/>
<polygon fill="#000000" stroke="#000000" points="338.5998,-378.4402 345.9331,-383.2551 342.5499,-379.0701 346.5,-379.7 346.5,-379.7 346.5,-379.7 342.5499,-379.0701 347.0669,-376.1449 338.5998,-378.4402 338.5998,-378.4402"/>
<ellipse fill="none" stroke="#000000" cx="335.4397" cy="-377.9363" rx="3.2" ry="3.2"/>
</g>
<!-- user_bans&#45;&gt;users -->
<g id="edge6" class="edge">
<title>user_bans:w&#45;&gt;users:e</title>
<path fill="none" stroke="#000000" d="M332.0939,-401.3103C240.4192,-396.1774 223.5923,-341.0517 146,-278.7 125.7862,-262.4566 131.4315,-236.7 105.5,-236.7"/>
<polygon fill="#000000" stroke="#000000" points="338.5029,-401.4836 346.4026,-405.2987 342.5015,-401.5918 346.5,-401.7 346.5,-401.7 346.5,-401.7 342.5015,-401.5918 346.5974,-398.1013 338.5029,-401.4836 338.5029,-401.4836"/>
<ellipse fill="none" stroke="#000000" cx="335.3041" cy="-401.3971" rx="3.2" ry="3.2"/>
</g>
<!-- user_chapter_roles -->
<g id="node6" class="node">
<title>user_chapter_roles</title>
<g id="a_node6"><a xlink:href="../../tables/user_chapter_roles.html" xlink:title="user_chapter_roles" target="_top">
<polygon fill="#ffffff" stroke="transparent" points="368,-221.2 368,-282.2 505,-282.2 505,-221.2 368,-221.2"/>
<polygon fill="#f5f5f5" stroke="transparent" points="368.5,-258.7 368.5,-281.7 505.5,-281.7 505.5,-258.7 368.5,-258.7"/>
<polygon fill="none" stroke="#000000" points="368.5,-258.7 368.5,-281.7 505.5,-281.7 505.5,-258.7 368.5,-258.7"/>
<text text-anchor="start" x="373.4338" y="-267.8" font-family="Helvetica,sans-Serif" font-weight="bold" font-size="11.00" fill="#000000">user_chapter_roles</text>
<text text-anchor="start" x="471.0219" y="-266.8" font-family="Helvetica,sans-Serif" font-size="11.00" fill="#000000">[table]</text>
<polygon fill="none" stroke="#000000" points="368.5,-239.7 368.5,-258.7 505.5,-258.7 505.5,-239.7 368.5,-239.7"/>
<text text-anchor="start" x="371.5" y="-245.8" font-family="Helvetica,sans-Serif" font-size="11.00" fill="#000000">...</text>
<polygon fill="#ffffff" stroke="transparent" points="368.5,-220.7 368.5,-239.7 422.5,-239.7 422.5,-220.7 368.5,-220.7"/>
<polygon fill="none" stroke="#000000" points="368.5,-220.7 368.5,-239.7 422.5,-239.7 422.5,-220.7 368.5,-220.7"/>
<text text-anchor="start" x="371.5" y="-226.8" font-family="Helvetica,sans-Serif" font-size="11.00" fill="#000000">&lt; 2</text>
<polygon fill="#ffffff" stroke="transparent" points="422.5,-220.7 422.5,-239.7 476.5,-239.7 476.5,-220.7 422.5,-220.7"/>
<polygon fill="none" stroke="#000000" points="422.5,-220.7 422.5,-239.7 476.5,-239.7 476.5,-220.7 422.5,-220.7"/>
<text text-anchor="start" x="441.1105" y="-226.8" font-family="Helvetica,sans-Serif" font-size="11.00" fill="#000000">0 rows</text>
<polygon fill="#ffffff" stroke="transparent" points="476.5,-220.7 476.5,-239.7 505.5,-239.7 505.5,-220.7 476.5,-220.7"/>
<polygon fill="none" stroke="#000000" points="476.5,-220.7 476.5,-239.7 505.5,-239.7 505.5,-220.7 476.5,-220.7"/>
<text text-anchor="start" x="496.3862" y="-226.8" font-family="Helvetica,sans-Serif" font-size="11.00" fill="#000000"> &#160;</text>
</a>
</g>
</g>
<!-- user_chapter_roles&#45;&gt;chapters -->
<g id="edge7" class="edge">
<title>user_chapter_roles:w&#45;&gt;chapters:e</title>
<path fill="none" stroke="#000000" d="M353.9448,-247.4868C322.1069,-241.8743 312.4157,-218.7 273.5,-218.7"/>
<polygon fill="#000000" stroke="#000000" points="360.5276,-248.0354 368.201,-252.2876 364.5138,-248.3677 368.5,-248.7 368.5,-248.7 368.5,-248.7 364.5138,-248.3677 368.799,-245.1124 360.5276,-248.0354 360.5276,-248.0354"/>
<ellipse fill="none" stroke="#000000" cx="357.3387" cy="-247.7696" rx="3.2" ry="3.2"/>
</g>
<!-- user_chapter_roles&#45;&gt;users -->
<g id="edge8" class="edge">
<title>user_chapter_roles:w&#45;&gt;users:e</title>
<path fill="none" stroke="#000000" d="M353.9084,-249.7968C335.5667,-252.7756 327.1115,-260.9744 303,-263.7 233.6638,-271.5378 212.7838,-283.9205 146,-263.7 125.2949,-257.431 127.1333,-236.7 105.5,-236.7"/>
<polygon fill="#000000" stroke="#000000" points="360.5225,-249.2997 368.7699,-252.2899 364.5113,-248.9999 368.5,-248.7 368.5,-248.7 368.5,-248.7 364.5113,-248.9999 368.2301,-245.1101 360.5225,-249.2997 360.5225,-249.2997"/>
<ellipse fill="none" stroke="#000000" cx="357.3315" cy="-249.5396" rx="3.2" ry="3.2"/>
</g>
<!-- user_chapters -->
<g id="node7" class="node">
<title>user_chapters</title>
<g id="a_node7"><a xlink:href="../../tables/user_chapters.html" xlink:title="user_chapters" target="_top">
<polygon fill="#ffffff" stroke="transparent" points="380.5,-57.2 380.5,-118.2 492.5,-118.2 492.5,-57.2 380.5,-57.2"/>
<polygon fill="#f5f5f5" stroke="transparent" points="380.5,-94.7 380.5,-117.7 492.5,-117.7 492.5,-94.7 380.5,-94.7"/>
<polygon fill="none" stroke="#000000" points="380.5,-94.7 380.5,-117.7 492.5,-117.7 492.5,-94.7 380.5,-94.7"/>
<text text-anchor="start" x="385.1575" y="-103.8" font-family="Helvetica,sans-Serif" font-weight="bold" font-size="11.00" fill="#000000">user_chapters</text>
<text text-anchor="start" x="458.0219" y="-102.8" font-family="Helvetica,sans-Serif" font-size="11.00" fill="#000000">[table]</text>
<polygon fill="none" stroke="#000000" points="380.5,-75.7 380.5,-94.7 492.5,-94.7 492.5,-75.7 380.5,-75.7"/>
<text text-anchor="start" x="383.5" y="-81.8" font-family="Helvetica,sans-Serif" font-size="11.00" fill="#000000">...</text>
<polygon fill="#ffffff" stroke="transparent" points="380.5,-56.7 380.5,-75.7 421.5,-75.7 421.5,-56.7 380.5,-56.7"/>
<polygon fill="none" stroke="#000000" points="380.5,-56.7 380.5,-75.7 421.5,-75.7 421.5,-56.7 380.5,-56.7"/>
<text text-anchor="start" x="383.5" y="-62.8" font-family="Helvetica,sans-Serif" font-size="11.00" fill="#000000">&lt; 2</text>
<polygon fill="#ffffff" stroke="transparent" points="421.5,-56.7 421.5,-75.7 469.5,-75.7 469.5,-56.7 421.5,-56.7"/>
<polygon fill="none" stroke="#000000" points="421.5,-56.7 421.5,-75.7 469.5,-75.7 469.5,-56.7 421.5,-56.7"/>
<text text-anchor="start" x="434.1105" y="-62.8" font-family="Helvetica,sans-Serif" font-size="11.00" fill="#000000">0 rows</text>
<polygon fill="#ffffff" stroke="transparent" points="469.5,-56.7 469.5,-75.7 492.5,-75.7 492.5,-56.7 469.5,-56.7"/>
<polygon fill="none" stroke="#000000" points="469.5,-56.7 469.5,-75.7 492.5,-75.7 492.5,-56.7 469.5,-56.7"/>
<text text-anchor="start" x="483.3862" y="-62.8" font-family="Helvetica,sans-Serif" font-size="11.00" fill="#000000"> &#160;</text>
</a>
</g>
</g>
<!-- user_chapters&#45;&gt;chapters -->
<g id="edge9" class="edge">
<title>user_chapters:w&#45;&gt;chapters:e</title>
<path fill="none" stroke="#000000" d="M366.1434,-86.5943C310.0738,-102.8813 344.3541,-218.7 273.5,-218.7"/>
<polygon fill="#000000" stroke="#000000" points="372.5687,-85.7465 380.9709,-88.2691 376.5344,-85.2233 380.5,-84.7 380.5,-84.7 380.5,-84.7 376.5344,-85.2233 380.0291,-81.1309 372.5687,-85.7465 372.5687,-85.7465"/>
<ellipse fill="none" stroke="#000000" cx="369.3962" cy="-86.1651" rx="3.2" ry="3.2"/>
</g>
<!-- user_chapters&#45;&gt;users -->
<g id="edge10" class="edge">
<title>user_chapters:w&#45;&gt;users:e</title>
<path fill="none" stroke="#000000" d="M365.8396,-85.7473C341.7504,-89.4764 332.7679,-102.2806 303,-109.7 234.2252,-126.8416 201.1364,-93.1604 146,-137.7 109.0192,-167.5734 153.0395,-236.7 105.5,-236.7"/>
<polygon fill="#000000" stroke="#000000" points="372.5203,-85.2701 380.7565,-88.2908 376.5102,-84.985 380.5,-84.7 380.5,-84.7 380.5,-84.7 376.5102,-84.985 380.2435,-81.1092 372.5203,-85.2701 372.5203,-85.2701"/>
<ellipse fill="none" stroke="#000000" cx="369.3285" cy="-85.4981" rx="3.2" ry="3.2"/>
</g>
<!-- user_instance_roles -->
<g id="node8" class="node">
<title>user_instance_roles</title>
<g id="a_node8"><a xlink:href="../../tables/user_instance_roles.html" xlink:title="user_instance_roles" target="_top">
<polygon fill="#ffffff" stroke="transparent" points="154,-38.2 154,-99.2 295,-99.2 295,-38.2 154,-38.2"/>
<polygon fill="#f5f5f5" stroke="transparent" points="154.5,-75.7 154.5,-98.7 295.5,-98.7 295.5,-75.7 154.5,-75.7"/>
<polygon fill="none" stroke="#000000" points="154.5,-75.7 154.5,-98.7 295.5,-98.7 295.5,-75.7 154.5,-75.7"/>
<text text-anchor="start" x="159.2943" y="-84.8" font-family="Helvetica,sans-Serif" font-weight="bold" font-size="11.00" fill="#000000">user_instance_roles</text>
<text text-anchor="start" x="261.0219" y="-83.8" font-family="Helvetica,sans-Serif" font-size="11.00" fill="#000000">[table]</text>
<polygon fill="none" stroke="#000000" points="154.5,-56.7 154.5,-75.7 295.5,-75.7 295.5,-56.7 154.5,-56.7"/>
<text text-anchor="start" x="157.5" y="-62.8" font-family="Helvetica,sans-Serif" font-size="11.00" fill="#000000">...</text>
<polygon fill="#ffffff" stroke="transparent" points="154.5,-37.7 154.5,-56.7 210.5,-56.7 210.5,-37.7 154.5,-37.7"/>
<polygon fill="none" stroke="#000000" points="154.5,-37.7 154.5,-56.7 210.5,-56.7 210.5,-37.7 154.5,-37.7"/>
<text text-anchor="start" x="157.5" y="-43.8" font-family="Helvetica,sans-Serif" font-size="11.00" fill="#000000">&lt; 1</text>
<polygon fill="#ffffff" stroke="transparent" points="210.5,-37.7 210.5,-56.7 265.5,-56.7 265.5,-37.7 210.5,-37.7"/>
<polygon fill="none" stroke="#000000" points="210.5,-37.7 210.5,-56.7 265.5,-56.7 265.5,-37.7 210.5,-37.7"/>
<text text-anchor="start" x="230.1105" y="-43.8" font-family="Helvetica,sans-Serif" font-size="11.00" fill="#000000">0 rows</text>
<polygon fill="#ffffff" stroke="transparent" points="265.5,-37.7 265.5,-56.7 295.5,-56.7 295.5,-37.7 265.5,-37.7"/>
<polygon fill="none" stroke="#000000" points="265.5,-37.7 265.5,-56.7 295.5,-56.7 295.5,-37.7 265.5,-37.7"/>
<text text-anchor="start" x="286.3862" y="-43.8" font-family="Helvetica,sans-Serif" font-size="11.00" fill="#000000"> &#160;</text>
</a>
</g>
</g>
<!-- user_instance_roles&#45;&gt;users -->
<g id="edge11" class="edge">
<title>user_instance_roles:w&#45;&gt;users:e</title>
<path fill="none" stroke="#000000" d="M140.1664,-68.25C90.2295,-89.5218 178.8454,-236.7 105.5,-236.7"/>
<polygon fill="#000000" stroke="#000000" points="146.6237,-67.1013 155.1306,-69.2443 150.5618,-66.4006 154.5,-65.7 154.5,-65.7 154.5,-65.7 150.5618,-66.4006 153.8694,-62.1557 146.6237,-67.1013 146.6237,-67.1013"/>
<ellipse fill="none" stroke="#000000" cx="143.4731" cy="-67.6618" rx="3.2" ry="3.2"/>
</g>
</g>
</svg>
