<?xml version="1.0" encoding="UTF-8" standalone="no"?>
<!DOCTYPE svg PUBLIC "-//W3C//DTD SVG 1.1//EN"
 "http://www.w3.org/Graphics/SVG/1.1/DTD/svg11.dtd">
<!-- Generated by graphviz version 2.40.1 (20161225.0304)
 -->
<!-- Title: oneDegreeRelationshipsDiagram Pages: 1 -->
<svg width="417pt" height="157pt"
 viewBox="0.00 0.00 417.00 156.70" xmlns="http://www.w3.org/2000/svg" xmlns:xlink="http://www.w3.org/1999/xlink">
<g id="graph0" class="graph" transform="scale(1 1) rotate(0) translate(4 152.7)">
<title>oneDegreeRelationshipsDiagram</title>
<polygon fill="#ffffff" stroke="transparent" points="-4,4 -4,-152.7 413,-152.7 413,4 -4,4"/>
<text text-anchor="middle" x="72.4936" y="-7.3" font-family="Helvetica,sans-Serif" font-size="11.00" fill="#000000">Generated by SchemaSpy</text>
<!-- user_instance_roles -->
<g id="node1" class="node">
<title>user_instance_roles</title>
<g id="a_node1"><a xlink:href="../../tables/user_instance_roles.html" xlink:title="user_instance_roles" target="_top">
<polygon fill="#ffffff" stroke="transparent" points="154,-54.7 154,-144.7 401,-144.7 401,-54.7 154,-54.7"/>
<polygon fill="#f5f5f5" stroke="transparent" points="156.5,-119.7 156.5,-142.7 399.5,-142.7 399.5,-119.7 156.5,-119.7"/>
<polygon fill="none" stroke="#000000" points="156.5,-119.7 156.5,-142.7 399.5,-142.7 399.5,-119.7 156.5,-119.7"/>
<text text-anchor="start" x="161.5" y="-128.8" font-family="Helvetica,sans-Serif" font-weight="bold" font-size="11.00" fill="#000000">user_instance_roles</text>
<text text-anchor="start" x="364.5437" y="-127.8" font-family="Helvetica,sans-Serif" font-size="11.00" fill="#000000">[table]</text>
<polygon fill="none" stroke="#000000" points="156.5,-97.7 156.5,-119.7 309.5,-119.7 309.5,-97.7 156.5,-97.7"/>
<image xlink:href="../../images/primaryKeys.png" width="11px" height="12px" preserveAspectRatio="xMinYMin meet" x="161.5" y="-114.7"/>
<text text-anchor="start" x="176.5" y="-104.8" font-family="Helvetica,sans-Serif" font-size="11.00" fill="#000000">user_id</text>
<polygon fill="none" stroke="#000000" points="309.5,-97.7 309.5,-119.7 399.5,-119.7 399.5,-97.7 309.5,-97.7"/>
<text text-anchor="start" x="312.5" y="-105.4" font-family="Helvetica,sans-Serif" font-size="11.00" fill="#000000">int4[10]</text>
<polygon fill="none" stroke="#000000" points="156.5,-75.7 156.5,-97.7 309.5,-97.7 309.5,-75.7 156.5,-75.7"/>
<image xlink:href="../../images/primaryKeys.png" width="11px" height="12px" preserveAspectRatio="xMinYMin meet" x="161.5" y="-92.7"/>
<text text-anchor="start" x="176.5" y="-82.8" font-family="Helvetica,sans-Serif" font-size="11.00" fill="#000000">role_name</text>
<polygon fill="none" stroke="#000000" points="309.5,-75.7 309.5,-97.7 399.5,-97.7 399.5,-75.7 309.5,-75.7"/>
<text text-anchor="start" x="312.0043" y="-83.4" font-family="Helvetica,sans-Serif" font-size="11.00" fill="#000000">text[2147483647]</text>
<polygon fill="#ffffff" stroke="transparent" points="156.5,-56.7 156.5,-75.7 224.5,-75.7 224.5,-56.7 156.5,-56.7"/>
<polygon fill="none" stroke="#000000" points="156.5,-56.7 156.5,-75.7 224.5,-75.7 224.5,-56.7 156.5,-56.7"/>
<text text-anchor="start" x="159.5" y="-62.8" font-family="Helvetica,sans-Serif" font-size="11.00" fill="#000000">&lt; 1</text>
<polygon fill="#ffffff" stroke="transparent" points="224.5,-56.7 224.5,-75.7 309.5,-75.7 309.5,-56.7 224.5,-56.7"/>
<polygon fill="none" stroke="#000000" points="224.5,-56.7 224.5,-75.7 309.5,-75.7 309.5,-56.7 224.5,-56.7"/>
<text text-anchor="start" x="274.1105" y="-62.8" font-family="Helvetica,sans-Serif" font-size="11.00" fill="#000000">0 rows</text>
<polygon fill="#ffffff" stroke="transparent" points="309.5,-56.7 309.5,-75.7 399.5,-75.7 399.5,-56.7 309.5,-56.7"/>
<polygon fill="none" stroke="#000000" points="309.5,-56.7 309.5,-75.7 399.5,-75.7 399.5,-56.7 309.5,-56.7"/>
<text text-anchor="start" x="380.9053" y="-62.8" font-family="Helvetica,sans-Serif" font-size="11.00" fill="#000000">0 &gt;</text>
<polygon fill="none" stroke="#000000" stroke-width="2" points="155,-55.7 155,-143.7 400,-143.7 400,-55.7 155,-55.7"/>
</a>
</g>
</g>
<!-- users -->
<g id="node2" class="node">
<title>users</title>
<g id="a_node2"><a xlink:href="../../tables/users.html" xlink:title="users" target="_top">
<polygon fill="#ffffff" stroke="transparent" points="8,-38.2 8,-143.2 105,-143.2 105,-38.2 8,-38.2"/>
<polygon fill="#f5f5f5" stroke="transparent" points="8.5,-119.7 8.5,-142.7 105.5,-142.7 105.5,-119.7 8.5,-119.7"/>
<polygon fill="none" stroke="#000000" points="8.5,-119.7 8.5,-142.7 105.5,-142.7 105.5,-119.7 8.5,-119.7"/>
<text text-anchor="start" x="13.5" y="-128.8" font-family="Helvetica,sans-Serif" font-weight="bold" font-size="11.00" fill="#000000">users</text>
<text text-anchor="start" x="70.5437" y="-127.8" font-family="Helvetica,sans-Serif" font-size="11.00" fill="#000000">[table]</text>
<polygon fill="none" stroke="#000000" points="8.5,-97.7 8.5,-119.7 105.5,-119.7 105.5,-97.7 8.5,-97.7"/>
<image xlink:href="../../images/primaryKeys.png" width="11px" height="12px" preserveAspectRatio="xMinYMin meet" x="13.5" y="-114.7"/>
<text text-anchor="start" x="28.5" y="-104.8" font-family="Helvetica,sans-Serif" font-size="11.00" fill="#000000">id</text>
<polygon fill="#ffffff" stroke="transparent" points="8.5,-75.7 8.5,-97.7 105.5,-97.7 105.5,-75.7 8.5,-75.7"/>
<polygon fill="none" stroke="#000000" points="8.5,-75.7 8.5,-97.7 105.5,-97.7 105.5,-75.7 8.5,-75.7"/>
<text text-anchor="start" x="28.5" y="-82.8" font-family="Helvetica,sans-Serif" font-size="11.00" fill="#000000">email</text>
<polygon fill="none" stroke="#000000" points="8.5,-56.7 8.5,-75.7 105.5,-75.7 105.5,-56.7 8.5,-56.7"/>
<text text-anchor="start" x="11.5" y="-62.8" font-family="Helvetica,sans-Serif" font-size="11.00" fill="#000000">...</text>
<polygon fill="#ffffff" stroke="transparent" points="8.5,-37.7 8.5,-56.7 30.5,-56.7 30.5,-37.7 8.5,-37.7"/>
<polygon fill="none" stroke="#000000" points="8.5,-37.7 8.5,-56.7 30.5,-56.7 30.5,-37.7 8.5,-37.7"/>
<text text-anchor="start" x="11.5" y="-43.8" font-family="Helvetica,sans-Serif" font-size="11.00" fill="#000000"> &#160;</text>
<polygon fill="#ffffff" stroke="transparent" points="30.5,-37.7 30.5,-56.7 79.5,-56.7 79.5,-37.7 30.5,-37.7"/>
<polygon fill="none" stroke="#000000" points="30.5,-37.7 30.5,-56.7 79.5,-56.7 79.5,-37.7 30.5,-37.7"/>
<text text-anchor="start" x="37.9956" y="-43.8" font-family="Helvetica,sans-Serif" font-size="11.00" fill="#000000">11 rows</text>
<polygon fill="#ffffff" stroke="transparent" points="79.5,-37.7 79.5,-56.7 105.5,-56.7 105.5,-37.7 79.5,-37.7"/>
<polygon fill="none" stroke="#000000" points="79.5,-37.7 79.5,-56.7 105.5,-56.7 105.5,-37.7 79.5,-37.7"/>
<text text-anchor="start" x="86.9053" y="-43.8" font-family="Helvetica,sans-Serif" font-size="11.00" fill="#000000">6 &gt;</text>
</a>
</g>
</g>
<!-- user_instance_roles&#45;&gt;users -->
<g id="edge1" class="edge">
<title>user_instance_roles:w&#45;&gt;users:e</title>
<path fill="none" stroke="#000000" d="M141.776,-108.7C129.7815,-108.7 122.3229,-108.7 105.5,-108.7"/>
<polygon fill="#000000" stroke="#000000" points="148.5,-108.7001 156.5,-112.3 152.5,-108.7 156.5,-108.7 156.5,-108.7 156.5,-108.7 152.5,-108.7 156.5,-105.1 148.5,-108.7001 148.5,-108.7001"/>
<ellipse fill="none" stroke="#000000" cx="145.3" cy="-108.7001" rx="3.2" ry="3.2"/>
</g>
</g>
</svg>
