<?xml version="1.0" encoding="UTF-8" standalone="no"?>
<!DOCTYPE svg PUBLIC "-//W3C//DTD SVG 1.1//EN"
 "http://www.w3.org/Graphics/SVG/1.1/DTD/svg11.dtd">
<!-- Generated by graphviz version 2.40.1 (20161225.0304)
 -->
<!-- Title: oneDegreeRelationshipsDiagram Pages: 1 -->
<svg width="557pt" height="581pt"
 viewBox="0.00 0.00 557.00 581.20" xmlns="http://www.w3.org/2000/svg" xmlns:xlink="http://www.w3.org/1999/xlink">
<g id="graph0" class="graph" transform="scale(1 1) rotate(0) translate(4 577.2)">
<title>oneDegreeRelationshipsDiagram</title>
<polygon fill="#ffffff" stroke="transparent" points="-4,4 -4,-577.2 553,-577.2 553,4 -4,4"/>
<text text-anchor="middle" x="72.4936" y="-7.3" font-family="Helvetica,sans-Serif" font-size="11.00" fill="#000000">Generated by SchemaSpy</text>
<!-- chapter_users -->
<g id="node1" class="node">
<title>chapter_users</title>
<g id="a_node1"><a xlink:href="../../tables/chapter_users.html" xlink:title="chapter_users" target="_top">
<polygon fill="#ffffff" stroke="transparent" points="429,-442.2 429,-569.2 541,-569.2 541,-442.2 429,-442.2"/>
<polygon fill="#f5f5f5" stroke="transparent" points="429,-545.7 429,-568.7 541,-568.7 541,-545.7 429,-545.7"/>
<polygon fill="none" stroke="#000000" points="429,-545.7 429,-568.7 541,-568.7 541,-545.7 429,-545.7"/>
<text text-anchor="start" x="433.6575" y="-554.8" font-family="Helvetica,sans-Serif" font-weight="bold" font-size="11.00" fill="#000000">chapter_users</text>
<text text-anchor="start" x="506.5219" y="-553.8" font-family="Helvetica,sans-Serif" font-size="11.00" fill="#000000">[table]</text>
<polygon fill="none" stroke="#000000" points="429,-523.7 429,-545.7 541,-545.7 541,-523.7 429,-523.7"/>
<image xlink:href="../../images/primaryKeys.png" width="11px" height="12px" preserveAspectRatio="xMinYMin meet" x="434" y="-540.7"/>
<text text-anchor="start" x="449" y="-530.8" font-family="Helvetica,sans-Serif" font-size="11.00" fill="#000000">user_id</text>
<polygon fill="none" stroke="#000000" points="429,-501.7 429,-523.7 541,-523.7 541,-501.7 429,-501.7"/>
<image xlink:href="../../images/primaryKeys.png" width="11px" height="12px" preserveAspectRatio="xMinYMin meet" x="434" y="-518.7"/>
<text text-anchor="start" x="449" y="-508.8" font-family="Helvetica,sans-Serif" font-size="11.00" fill="#000000">chapter_id</text>
<polygon fill="none" stroke="#000000" points="429,-479.7 429,-501.7 541,-501.7 541,-479.7 429,-479.7"/>
<image xlink:href="../../images/foreignKeys.png" width="11px" height="12px" preserveAspectRatio="xMinYMin meet" x="434" y="-496.7"/>
<text text-anchor="start" x="449" y="-486.8" font-family="Helvetica,sans-Serif" font-size="11.00" fill="#000000">chapter_role_id</text>
<polygon fill="none" stroke="#000000" points="429,-460.7 429,-479.7 541,-479.7 541,-460.7 429,-460.7"/>
<text text-anchor="start" x="432" y="-466.8" font-family="Helvetica,sans-Serif" font-size="11.00" fill="#000000">...</text>
<polygon fill="#ffffff" stroke="transparent" points="429,-441.7 429,-460.7 470,-460.7 470,-441.7 429,-441.7"/>
<polygon fill="none" stroke="#000000" points="429,-441.7 429,-460.7 470,-460.7 470,-441.7 429,-441.7"/>
<text text-anchor="start" x="432" y="-447.8" font-family="Helvetica,sans-Serif" font-size="11.00" fill="#000000">&lt; 3</text>
<polygon fill="#ffffff" stroke="transparent" points="470,-441.7 470,-460.7 518,-460.7 518,-441.7 470,-441.7"/>
<polygon fill="none" stroke="#000000" points="470,-441.7 470,-460.7 518,-460.7 518,-441.7 470,-441.7"/>
<text text-anchor="start" x="482.6105" y="-447.8" font-family="Helvetica,sans-Serif" font-size="11.00" fill="#000000">0 rows</text>
<polygon fill="#ffffff" stroke="transparent" points="518,-441.7 518,-460.7 541,-460.7 541,-441.7 518,-441.7"/>
<polygon fill="none" stroke="#000000" points="518,-441.7 518,-460.7 541,-460.7 541,-441.7 518,-441.7"/>
<text text-anchor="start" x="531.8862" y="-447.8" font-family="Helvetica,sans-Serif" font-size="11.00" fill="#000000"> &#160;</text>
</a>
</g>
</g>
<!-- users -->
<g id="node2" class="node">
<title>users</title>
<g id="a_node2"><a xlink:href="../../tables/users.html" xlink:title="users" target="_top">
<polygon fill="#ffffff" stroke="transparent" points="170,-148.7 170,-370.7 380,-370.7 380,-148.7 170,-148.7"/>
<polygon fill="#f5f5f5" stroke="transparent" points="172,-345.7 172,-368.7 378,-368.7 378,-345.7 172,-345.7"/>
<polygon fill="none" stroke="#000000" points="172,-345.7 172,-368.7 378,-368.7 378,-345.7 172,-345.7"/>
<text text-anchor="start" x="177" y="-354.8" font-family="Helvetica,sans-Serif" font-weight="bold" font-size="11.00" fill="#000000">users</text>
<text text-anchor="start" x="343.0437" y="-353.8" font-family="Helvetica,sans-Serif" font-size="11.00" fill="#000000">[table]</text>
<polygon fill="none" stroke="#000000" points="172,-323.7 172,-345.7 288,-345.7 288,-323.7 172,-323.7"/>
<text text-anchor="start" x="192" y="-330.8" font-family="Helvetica,sans-Serif" font-size="11.00" fill="#000000">created_at</text>
<polygon fill="none" stroke="#000000" points="288,-323.7 288,-345.7 378,-345.7 378,-323.7 288,-323.7"/>
<text text-anchor="start" x="291" y="-331.4" font-family="Helvetica,sans-Serif" font-size="11.00" fill="#000000">timestamp[26,3]</text>
<polygon fill="none" stroke="#000000" points="172,-301.7 172,-323.7 288,-323.7 288,-301.7 172,-301.7"/>
<text text-anchor="start" x="192" y="-308.8" font-family="Helvetica,sans-Serif" font-size="11.00" fill="#000000">updated_at</text>
<polygon fill="none" stroke="#000000" points="288,-301.7 288,-323.7 378,-323.7 378,-301.7 288,-301.7"/>
<text text-anchor="start" x="291" y="-309.4" font-family="Helvetica,sans-Serif" font-size="11.00" fill="#000000">timestamp[26,3]</text>
<polygon fill="none" stroke="#000000" points="172,-279.7 172,-301.7 288,-301.7 288,-279.7 172,-279.7"/>
<image xlink:href="../../images/primaryKeys.png" width="11px" height="12px" preserveAspectRatio="xMinYMin meet" x="177" y="-296.7"/>
<text text-anchor="start" x="192" y="-286.8" font-family="Helvetica,sans-Serif" font-size="11.00" fill="#000000">id</text>
<polygon fill="none" stroke="#000000" points="288,-279.7 288,-301.7 378,-301.7 378,-279.7 288,-279.7"/>
<text text-anchor="start" x="291" y="-287.4" font-family="Helvetica,sans-Serif" font-size="11.00" fill="#000000">serial[10]</text>
<polygon fill="none" stroke="#000000" points="172,-257.7 172,-279.7 288,-279.7 288,-257.7 172,-257.7"/>
<text text-anchor="start" x="192" y="-264.8" font-family="Helvetica,sans-Serif" font-size="11.00" fill="#000000">name</text>
<polygon fill="none" stroke="#000000" points="288,-257.7 288,-279.7 378,-279.7 378,-257.7 288,-257.7"/>
<text text-anchor="start" x="290.5043" y="-265.4" font-family="Helvetica,sans-Serif" font-size="11.00" fill="#000000">text[2147483647]</text>
<polygon fill="none" stroke="#000000" points="172,-235.7 172,-257.7 288,-257.7 288,-235.7 172,-235.7"/>
<text text-anchor="start" x="192" y="-242.8" font-family="Helvetica,sans-Serif" font-size="11.00" fill="#000000">image_url</text>
<polygon fill="none" stroke="#000000" points="288,-235.7 288,-257.7 378,-257.7 378,-235.7 288,-235.7"/>
<text text-anchor="start" x="290.5043" y="-243.4" font-family="Helvetica,sans-Serif" font-size="11.00" fill="#000000">text[2147483647]</text>
<polygon fill="#ffffff" stroke="transparent" points="172,-213.7 172,-235.7 288,-235.7 288,-213.7 172,-213.7"/>
<polygon fill="none" stroke="#000000" points="172,-213.7 172,-235.7 288,-235.7 288,-213.7 172,-213.7"/>
<text text-anchor="start" x="192" y="-220.8" font-family="Helvetica,sans-Serif" font-size="11.00" fill="#000000">email</text>
<polygon fill="none" stroke="#000000" points="288,-213.7 288,-235.7 378,-235.7 378,-213.7 288,-213.7"/>
<text text-anchor="start" x="290.5043" y="-221.4" font-family="Helvetica,sans-Serif" font-size="11.00" fill="#000000">text[2147483647]</text>
<polygon fill="none" stroke="#000000" points="172,-191.7 172,-213.7 288,-213.7 288,-191.7 172,-191.7"/>
<text text-anchor="start" x="192" y="-198.8" font-family="Helvetica,sans-Serif" font-size="11.00" fill="#000000">auto_subscribe</text>
<polygon fill="none" stroke="#000000" points="288,-191.7 288,-213.7 378,-213.7 378,-191.7 288,-191.7"/>
<text text-anchor="start" x="291" y="-199.4" font-family="Helvetica,sans-Serif" font-size="11.00" fill="#000000">bool[1]</text>
<polygon fill="none" stroke="#000000" points="172,-169.7 172,-191.7 288,-191.7 288,-169.7 172,-169.7"/>
<image xlink:href="../../images/foreignKeys.png" width="11px" height="12px" preserveAspectRatio="xMinYMin meet" x="177" y="-186.7"/>
<text text-anchor="start" x="192" y="-176.8" font-family="Helvetica,sans-Serif" font-size="11.00" fill="#000000">instance_role_id</text>
<polygon fill="none" stroke="#000000" points="288,-169.7 288,-191.7 378,-191.7 378,-169.7 288,-169.7"/>
<text text-anchor="start" x="291" y="-177.4" font-family="Helvetica,sans-Serif" font-size="11.00" fill="#000000">int4[10]</text>
<polygon fill="#ffffff" stroke="transparent" points="172,-150.7 172,-169.7 221,-169.7 221,-150.7 172,-150.7"/>
<polygon fill="none" stroke="#000000" points="172,-150.7 172,-169.7 221,-169.7 221,-150.7 172,-150.7"/>
<text text-anchor="start" x="175" y="-156.8" font-family="Helvetica,sans-Serif" font-size="11.00" fill="#000000">&lt; 1</text>
<polygon fill="#ffffff" stroke="transparent" points="221,-150.7 221,-169.7 288,-169.7 288,-150.7 221,-150.7"/>
<polygon fill="none" stroke="#000000" points="221,-150.7 221,-169.7 288,-169.7 288,-150.7 221,-150.7"/>
<text text-anchor="start" x="252.6105" y="-156.8" font-family="Helvetica,sans-Serif" font-size="11.00" fill="#000000">0 rows</text>
<polygon fill="#ffffff" stroke="transparent" points="288,-150.7 288,-169.7 378,-169.7 378,-150.7 288,-150.7"/>
<polygon fill="none" stroke="#000000" points="288,-150.7 288,-169.7 378,-169.7 378,-150.7 288,-150.7"/>
<text text-anchor="start" x="359.4053" y="-156.8" font-family="Helvetica,sans-Serif" font-size="11.00" fill="#000000">4 &gt;</text>
<polygon fill="none" stroke="#000000" stroke-width="2" points="171,-149.7 171,-369.7 379,-369.7 379,-149.7 171,-149.7"/>
</a>
</g>
</g>
<!-- chapter_users&#45;&gt;users -->
<g id="edge1" class="edge">
<title>chapter_users:w&#45;&gt;users:e</title>
<path fill="none" stroke="#000000" d="M414.2251,-532.8763C334.8106,-510.548 483.162,-290.7 378,-290.7"/>
<polygon fill="#000000" stroke="#000000" points="421.0603,-533.7199 428.559,-538.2729 425.0301,-534.21 429,-534.7 429,-534.7 429,-534.7 425.0301,-534.21 429.441,-531.1271 421.0603,-533.7199 421.0603,-533.7199"/>
<ellipse fill="none" stroke="#000000" cx="417.8844" cy="-533.3279" rx="3.2" ry="3.2"/>
</g>
<!-- instance_roles -->
<g id="node6" class="node">
<title>instance_roles</title>
<g id="a_node6"><a xlink:href="../../tables/instance_roles.html" xlink:title="instance_roles" target="_top">
<polygon fill="#ffffff" stroke="transparent" points="8,-110.2 8,-215.2 121,-215.2 121,-110.2 8,-110.2"/>
<polygon fill="#f5f5f5" stroke="transparent" points="8.5,-191.7 8.5,-214.7 121.5,-214.7 121.5,-191.7 8.5,-191.7"/>
<polygon fill="none" stroke="#000000" points="8.5,-191.7 8.5,-214.7 121.5,-214.7 121.5,-191.7 8.5,-191.7"/>
<text text-anchor="start" x="13.0476" y="-200.8" font-family="Helvetica,sans-Serif" font-weight="bold" font-size="11.00" fill="#000000">instance_roles</text>
<text text-anchor="start" x="87.0219" y="-199.8" font-family="Helvetica,sans-Serif" font-size="11.00" fill="#000000">[table]</text>
<polygon fill="none" stroke="#000000" points="8.5,-169.7 8.5,-191.7 121.5,-191.7 121.5,-169.7 8.5,-169.7"/>
<image xlink:href="../../images/primaryKeys.png" width="11px" height="12px" preserveAspectRatio="xMinYMin meet" x="13.5" y="-186.7"/>
<text text-anchor="start" x="32.5" y="-176.8" font-family="Helvetica,sans-Serif" font-size="11.00" fill="#000000">id</text>
<polygon fill="#ffffff" stroke="transparent" points="8.5,-147.7 8.5,-169.7 121.5,-169.7 121.5,-147.7 8.5,-147.7"/>
<polygon fill="none" stroke="#000000" points="8.5,-147.7 8.5,-169.7 121.5,-169.7 121.5,-147.7 8.5,-147.7"/>
<text text-anchor="start" x="32.5" y="-154.8" font-family="Helvetica,sans-Serif" font-size="11.00" fill="#000000">name</text>
<polygon fill="none" stroke="#000000" points="8.5,-128.7 8.5,-147.7 121.5,-147.7 121.5,-128.7 8.5,-128.7"/>
<text text-anchor="start" x="11.5" y="-134.8" font-family="Helvetica,sans-Serif" font-size="11.00" fill="#000000">...</text>
<polygon fill="#ffffff" stroke="transparent" points="8.5,-109.7 8.5,-128.7 41.5,-128.7 41.5,-109.7 8.5,-109.7"/>
<polygon fill="none" stroke="#000000" points="8.5,-109.7 8.5,-128.7 41.5,-128.7 41.5,-109.7 8.5,-109.7"/>
<text text-anchor="start" x="11.5" y="-115.8" font-family="Helvetica,sans-Serif" font-size="11.00" fill="#000000"> &#160;</text>
<polygon fill="#ffffff" stroke="transparent" points="41.5,-109.7 41.5,-128.7 89.5,-128.7 89.5,-109.7 41.5,-109.7"/>
<polygon fill="none" stroke="#000000" points="41.5,-109.7 41.5,-128.7 89.5,-128.7 89.5,-109.7 41.5,-109.7"/>
<text text-anchor="start" x="54.1105" y="-115.8" font-family="Helvetica,sans-Serif" font-size="11.00" fill="#000000">0 rows</text>
<polygon fill="#ffffff" stroke="transparent" points="89.5,-109.7 89.5,-128.7 121.5,-128.7 121.5,-109.7 89.5,-109.7"/>
<polygon fill="none" stroke="#000000" points="89.5,-109.7 89.5,-128.7 121.5,-128.7 121.5,-109.7 89.5,-109.7"/>
<text text-anchor="start" x="102.9053" y="-115.8" font-family="Helvetica,sans-Serif" font-size="11.00" fill="#000000">2 &gt;</text>
</a>
</g>
</g>
<!-- users&#45;&gt;instance_roles -->
<g id="edge5" class="edge">
<title>users:w&#45;&gt;instance_roles:e</title>
<path fill="none" stroke="#000000" d="M157.4203,-180.7C145.5435,-180.7 138.158,-180.7 121.5,-180.7"/>
<polygon fill="#000000" stroke="#000000" points="164,-180.7001 172,-184.3 168,-180.7 172,-180.7 172,-180.7 172,-180.7 168,-180.7 172,-177.1 164,-180.7001 164,-180.7001"/>
<ellipse fill="none" stroke="#000000" cx="160.8" cy="-180.7001" rx="3.2" ry="3.2"/>
</g>
<!-- event_users -->
<g id="node3" class="node">
<title>event_users</title>
<g id="a_node3"><a xlink:href="../../tables/event_users.html" xlink:title="event_users" target="_top">
<polygon fill="#ffffff" stroke="transparent" points="434,-272.2 434,-421.2 536,-421.2 536,-272.2 434,-272.2"/>
<polygon fill="#f5f5f5" stroke="transparent" points="434,-397.7 434,-420.7 536,-420.7 536,-397.7 434,-397.7"/>
<polygon fill="none" stroke="#000000" points="434,-397.7 434,-420.7 536,-420.7 536,-397.7 434,-397.7"/>
<text text-anchor="start" x="438.5459" y="-406.8" font-family="Helvetica,sans-Serif" font-weight="bold" font-size="11.00" fill="#000000">event_users</text>
<text text-anchor="start" x="501.5219" y="-405.8" font-family="Helvetica,sans-Serif" font-size="11.00" fill="#000000">[table]</text>
<polygon fill="none" stroke="#000000" points="434,-375.7 434,-397.7 536,-397.7 536,-375.7 434,-375.7"/>
<image xlink:href="../../images/primaryKeys.png" width="11px" height="12px" preserveAspectRatio="xMinYMin meet" x="439" y="-392.7"/>
<text text-anchor="start" x="456" y="-382.8" font-family="Helvetica,sans-Serif" font-size="11.00" fill="#000000">user_id</text>
<polygon fill="none" stroke="#000000" points="434,-353.7 434,-375.7 536,-375.7 536,-353.7 434,-353.7"/>
<image xlink:href="../../images/primaryKeys.png" width="11px" height="12px" preserveAspectRatio="xMinYMin meet" x="439" y="-370.7"/>
<text text-anchor="start" x="456" y="-360.8" font-family="Helvetica,sans-Serif" font-size="11.00" fill="#000000">event_id</text>
<polygon fill="none" stroke="#000000" points="434,-331.7 434,-353.7 536,-353.7 536,-331.7 434,-331.7"/>
<image xlink:href="../../images/foreignKeys.png" width="11px" height="12px" preserveAspectRatio="xMinYMin meet" x="439" y="-348.7"/>
<text text-anchor="start" x="456" y="-338.8" font-family="Helvetica,sans-Serif" font-size="11.00" fill="#000000">event_role_id</text>
<polygon fill="none" stroke="#000000" points="434,-309.7 434,-331.7 536,-331.7 536,-309.7 434,-309.7"/>
<image xlink:href="../../images/foreignKeys.png" width="11px" height="12px" preserveAspectRatio="xMinYMin meet" x="439" y="-326.7"/>
<text text-anchor="start" x="456" y="-316.8" font-family="Helvetica,sans-Serif" font-size="11.00" fill="#000000">rsvp_id</text>
<polygon fill="none" stroke="#000000" points="434,-290.7 434,-309.7 536,-309.7 536,-290.7 434,-290.7"/>
<text text-anchor="start" x="437" y="-296.8" font-family="Helvetica,sans-Serif" font-size="11.00" fill="#000000">...</text>
<polygon fill="#ffffff" stroke="transparent" points="434,-271.7 434,-290.7 466,-290.7 466,-271.7 434,-271.7"/>
<polygon fill="none" stroke="#000000" points="434,-271.7 434,-290.7 466,-290.7 466,-271.7 434,-271.7"/>
<text text-anchor="start" x="437" y="-277.8" font-family="Helvetica,sans-Serif" font-size="11.00" fill="#000000">&lt; 4</text>
<polygon fill="#ffffff" stroke="transparent" points="466,-271.7 466,-290.7 509,-290.7 509,-271.7 466,-271.7"/>
<polygon fill="none" stroke="#000000" points="466,-271.7 466,-290.7 509,-290.7 509,-271.7 466,-271.7"/>
<text text-anchor="start" x="473.6105" y="-277.8" font-family="Helvetica,sans-Serif" font-size="11.00" fill="#000000">0 rows</text>
<polygon fill="#ffffff" stroke="transparent" points="509,-271.7 509,-290.7 536,-290.7 536,-271.7 509,-271.7"/>
<polygon fill="none" stroke="#000000" points="509,-271.7 509,-290.7 536,-290.7 536,-271.7 509,-271.7"/>
<text text-anchor="start" x="517.4053" y="-277.8" font-family="Helvetica,sans-Serif" font-size="11.00" fill="#000000">2 &gt;</text>
</a>
</g>
</g>
<!-- event_users&#45;&gt;users -->
<g id="edge2" class="edge">
<title>event_users:w&#45;&gt;users:e</title>
<path fill="none" stroke="#000000" d="M419.7836,-382.8178C393.6162,-364.8577 421.4139,-290.7 378,-290.7"/>
<polygon fill="#000000" stroke="#000000" points="426.2826,-384.5925 433.0516,-390.1728 430.1413,-385.6462 434,-386.7 434,-386.7 434,-386.7 430.1413,-385.6462 434.9484,-383.2272 426.2826,-384.5925 426.2826,-384.5925"/>
<ellipse fill="none" stroke="#000000" cx="423.1956" cy="-383.7495" rx="3.2" ry="3.2"/>
</g>
<!-- sessions -->
<g id="node4" class="node">
<title>sessions</title>
<g id="a_node4"><a xlink:href="../../tables/sessions.html" xlink:title="sessions" target="_top">
<polygon fill="#ffffff" stroke="transparent" points="442.5,-164.7 442.5,-250.7 527.5,-250.7 527.5,-164.7 442.5,-164.7"/>
<polygon fill="#f5f5f5" stroke="transparent" points="443,-227.7 443,-250.7 528,-250.7 528,-227.7 443,-227.7"/>
<polygon fill="none" stroke="#000000" points="443,-227.7 443,-250.7 528,-250.7 528,-227.7 443,-227.7"/>
<text text-anchor="start" x="447.6072" y="-236.8" font-family="Helvetica,sans-Serif" font-weight="bold" font-size="11.00" fill="#000000">sessions</text>
<text text-anchor="start" x="493.5219" y="-235.8" font-family="Helvetica,sans-Serif" font-size="11.00" fill="#000000">[table]</text>
<polygon fill="none" stroke="#000000" points="443,-205.7 443,-227.7 528,-227.7 528,-205.7 443,-205.7"/>
<image xlink:href="../../images/primaryKeys.png" width="11px" height="12px" preserveAspectRatio="xMinYMin meet" x="448" y="-222.7"/>
<text text-anchor="start" x="471" y="-212.8" font-family="Helvetica,sans-Serif" font-size="11.00" fill="#000000">id</text>
<polygon fill="#ffffff" stroke="transparent" points="443,-183.7 443,-205.7 528,-205.7 528,-183.7 443,-183.7"/>
<polygon fill="none" stroke="#000000" points="443,-183.7 443,-205.7 528,-205.7 528,-183.7 443,-183.7"/>
<image xlink:href="../../images/foreignKeys.png" width="11px" height="12px" preserveAspectRatio="xMinYMin meet" x="448" y="-200.7"/>
<text text-anchor="start" x="471" y="-190.8" font-family="Helvetica,sans-Serif" font-size="11.00" fill="#000000">user_id</text>
<polygon fill="#ffffff" stroke="transparent" points="443,-164.7 443,-183.7 471,-183.7 471,-164.7 443,-164.7"/>
<polygon fill="none" stroke="#000000" points="443,-164.7 443,-183.7 471,-183.7 471,-164.7 443,-164.7"/>
<text text-anchor="start" x="446" y="-170.8" font-family="Helvetica,sans-Serif" font-size="11.00" fill="#000000">&lt; 1</text>
<polygon fill="#ffffff" stroke="transparent" points="471,-164.7 471,-183.7 512,-183.7 512,-164.7 471,-164.7"/>
<polygon fill="none" stroke="#000000" points="471,-164.7 471,-183.7 512,-183.7 512,-164.7 471,-164.7"/>
<text text-anchor="start" x="476.6105" y="-170.8" font-family="Helvetica,sans-Serif" font-size="11.00" fill="#000000">0 rows</text>
<polygon fill="#ffffff" stroke="transparent" points="512,-164.7 512,-183.7 528,-183.7 528,-164.7 512,-164.7"/>
<polygon fill="none" stroke="#000000" points="512,-164.7 512,-183.7 528,-183.7 528,-164.7 512,-164.7"/>
<text text-anchor="start" x="518.8862" y="-170.8" font-family="Helvetica,sans-Serif" font-size="11.00" fill="#000000"> &#160;</text>
</a>
</g>
</g>
<!-- sessions&#45;&gt;users -->
<g id="edge3" class="edge">
<title>sessions:w&#45;&gt;users:e</title>
<path fill="none" stroke="#000000" d="M432.4782,-196.3663C396.8723,-209.1141 425.5013,-290.7 378,-290.7"/>
<polygon fill="#000000" stroke="#000000" points="441.5842,-190.8744 442.8355,-198.7759 441.2552,-199.0262 440.0039,-191.1246 441.5842,-190.8744"/>
<polyline fill="none" stroke="#000000" points="443,-194.7 439.0492,-195.3257 "/>
<ellipse fill="none" stroke="#000000" cx="435.8886" cy="-195.8262" rx="3.2" ry="3.2"/>
</g>
<!-- user_bans -->
<g id="node5" class="node">
<title>user_bans</title>
<g id="a_node5"><a xlink:href="../../tables/user_bans.html" xlink:title="user_bans" target="_top">
<polygon fill="#ffffff" stroke="transparent" points="438,-38.2 438,-143.2 532,-143.2 532,-38.2 438,-38.2"/>
<polygon fill="#f5f5f5" stroke="transparent" points="438,-119.7 438,-142.7 532,-142.7 532,-119.7 438,-119.7"/>
<polygon fill="none" stroke="#000000" points="438,-119.7 438,-142.7 532,-142.7 532,-119.7 438,-119.7"/>
<text text-anchor="start" x="442.8244" y="-128.8" font-family="Helvetica,sans-Serif" font-weight="bold" font-size="11.00" fill="#000000">user_bans</text>
<text text-anchor="start" x="497.5219" y="-127.8" font-family="Helvetica,sans-Serif" font-size="11.00" fill="#000000">[table]</text>
<polygon fill="none" stroke="#000000" points="438,-97.7 438,-119.7 532,-119.7 532,-97.7 438,-97.7"/>
<image xlink:href="../../images/primaryKeys.png" width="11px" height="12px" preserveAspectRatio="xMinYMin meet" x="443" y="-114.7"/>
<text text-anchor="start" x="461" y="-104.8" font-family="Helvetica,sans-Serif" font-size="11.00" fill="#000000">user_id</text>
<polygon fill="none" stroke="#000000" points="438,-75.7 438,-97.7 532,-97.7 532,-75.7 438,-75.7"/>
<image xlink:href="../../images/primaryKeys.png" width="11px" height="12px" preserveAspectRatio="xMinYMin meet" x="443" y="-92.7"/>
<text text-anchor="start" x="461" y="-82.8" font-family="Helvetica,sans-Serif" font-size="11.00" fill="#000000">chapter_id</text>
<polygon fill="none" stroke="#000000" points="438,-56.7 438,-75.7 532,-75.7 532,-56.7 438,-56.7"/>
<text text-anchor="start" x="441" y="-62.8" font-family="Helvetica,sans-Serif" font-size="11.00" fill="#000000">...</text>
<polygon fill="#ffffff" stroke="transparent" points="438,-37.7 438,-56.7 470,-56.7 470,-37.7 438,-37.7"/>
<polygon fill="none" stroke="#000000" points="438,-37.7 438,-56.7 470,-56.7 470,-37.7 438,-37.7"/>
<text text-anchor="start" x="441" y="-43.8" font-family="Helvetica,sans-Serif" font-size="11.00" fill="#000000">&lt; 2</text>
<polygon fill="#ffffff" stroke="transparent" points="470,-37.7 470,-56.7 514,-56.7 514,-37.7 470,-37.7"/>
<polygon fill="none" stroke="#000000" points="470,-37.7 470,-56.7 514,-56.7 514,-37.7 470,-37.7"/>
<text text-anchor="start" x="478.6105" y="-43.8" font-family="Helvetica,sans-Serif" font-size="11.00" fill="#000000">0 rows</text>
<polygon fill="#ffffff" stroke="transparent" points="514,-37.7 514,-56.7 532,-56.7 532,-37.7 514,-37.7"/>
<polygon fill="none" stroke="#000000" points="514,-37.7 514,-56.7 532,-56.7 532,-37.7 514,-37.7"/>
<text text-anchor="start" x="522.8862" y="-43.8" font-family="Helvetica,sans-Serif" font-size="11.00" fill="#000000"> &#160;</text>
</a>
</g>
</g>
<!-- user_bans&#45;&gt;users -->
<g id="edge4" class="edge">
<title>user_bans:w&#45;&gt;users:e</title>
<path fill="none" stroke="#000000" d="M423.5043,-111.0012C366.6215,-132.0693 457.5152,-290.7 378,-290.7"/>
<polygon fill="#000000" stroke="#000000" points="430.0989,-109.9543 438.5644,-112.2555 434.0495,-109.3272 438,-108.7 438,-108.7 438,-108.7 434.0495,-109.3272 437.4356,-105.1445 430.0989,-109.9543 430.0989,-109.9543"/>
<ellipse fill="none" stroke="#000000" cx="426.9385" cy="-110.456" rx="3.2" ry="3.2"/>
</g>
</g>
</svg>
