<?xml version="1.0" encoding="UTF-8" standalone="no"?>
<!DOCTYPE svg PUBLIC "-//W3C//DTD SVG 1.1//EN"
 "http://www.w3.org/Graphics/SVG/1.1/DTD/svg11.dtd">
<!-- Generated by graphviz version 2.40.1 (20161225.0304)
 -->
<!-- Title: oneDegreeRelationshipsDiagram Pages: 1 -->
<svg width="376pt" height="319pt"
 viewBox="0.00 0.00 376.00 318.70" xmlns="http://www.w3.org/2000/svg" xmlns:xlink="http://www.w3.org/1999/xlink">
<g id="graph0" class="graph" transform="scale(1 1) rotate(0) translate(4 314.7)">
<title>oneDegreeRelationshipsDiagram</title>
<polygon fill="#ffffff" stroke="transparent" points="-4,4 -4,-314.7 372,-314.7 372,4 -4,4"/>
<text text-anchor="middle" x="72.4936" y="-7.3" font-family="Helvetica,sans-Serif" font-size="11.00" fill="#000000">Generated by SchemaSpy</text>
<!-- user_event_roles -->
<g id="node1" class="node">
<title>user_event_roles</title>
<g id="a_node1"><a xlink:href="../../tables/user_event_roles.html" xlink:title="user_event_roles" target="_top">
<polygon fill="#ffffff" stroke="transparent" points="146,-106.7 146,-306.7 360,-306.7 360,-106.7 146,-106.7"/>
<polygon fill="#f5f5f5" stroke="transparent" points="148,-281.7 148,-304.7 358,-304.7 358,-281.7 148,-281.7"/>
<polygon fill="none" stroke="#000000" points="148,-281.7 148,-304.7 358,-304.7 358,-281.7 148,-281.7"/>
<text text-anchor="start" x="153" y="-290.8" font-family="Helvetica,sans-Serif" font-weight="bold" font-size="11.00" fill="#000000">user_event_roles</text>
<text text-anchor="start" x="323.0437" y="-289.8" font-family="Helvetica,sans-Serif" font-size="11.00" fill="#000000">[table]</text>
<polygon fill="none" stroke="#000000" points="148,-259.7 148,-281.7 268,-281.7 268,-259.7 148,-259.7"/>
<image xlink:href="../../images/primaryKeys.png" width="11px" height="12px" preserveAspectRatio="xMinYMin meet" x="153" y="-276.7"/>
<text text-anchor="start" x="168" y="-266.8" font-family="Helvetica,sans-Serif" font-size="11.00" fill="#000000">id</text>
<polygon fill="none" stroke="#000000" points="268,-259.7 268,-281.7 358,-281.7 358,-259.7 268,-259.7"/>
<text text-anchor="start" x="271" y="-267.4" font-family="Helvetica,sans-Serif" font-size="11.00" fill="#000000">serial[10]</text>
<polygon fill="none" stroke="#000000" points="148,-237.7 148,-259.7 268,-259.7 268,-237.7 148,-237.7"/>
<text text-anchor="start" x="168" y="-244.8" font-family="Helvetica,sans-Serif" font-size="11.00" fill="#000000">created_at</text>
<polygon fill="none" stroke="#000000" points="268,-237.7 268,-259.7 358,-259.7 358,-237.7 268,-237.7"/>
<text text-anchor="start" x="271" y="-245.4" font-family="Helvetica,sans-Serif" font-size="11.00" fill="#000000">timestamp[29,6]</text>
<polygon fill="none" stroke="#000000" points="148,-215.7 148,-237.7 268,-237.7 268,-215.7 148,-215.7"/>
<text text-anchor="start" x="168" y="-222.8" font-family="Helvetica,sans-Serif" font-size="11.00" fill="#000000">updated_at</text>
<polygon fill="none" stroke="#000000" points="268,-215.7 268,-237.7 358,-237.7 358,-215.7 268,-215.7"/>
<text text-anchor="start" x="271" y="-223.4" font-family="Helvetica,sans-Serif" font-size="11.00" fill="#000000">timestamp[29,6]</text>
<polygon fill="none" stroke="#000000" points="148,-193.7 148,-215.7 268,-215.7 268,-193.7 148,-193.7"/>
<image xlink:href="../../images/primaryKeys.png" width="11px" height="12px" preserveAspectRatio="xMinYMin meet" x="153" y="-210.7"/>
<text text-anchor="start" x="168" y="-200.8" font-family="Helvetica,sans-Serif" font-size="11.00" fill="#000000">user_id</text>
<polygon fill="none" stroke="#000000" points="268,-193.7 268,-215.7 358,-215.7 358,-193.7 268,-193.7"/>
<text text-anchor="start" x="271" y="-201.4" font-family="Helvetica,sans-Serif" font-size="11.00" fill="#000000">int4[10]</text>
<polygon fill="none" stroke="#000000" points="148,-171.7 148,-193.7 268,-193.7 268,-171.7 148,-171.7"/>
<image xlink:href="../../images/primaryKeys.png" width="11px" height="12px" preserveAspectRatio="xMinYMin meet" x="153" y="-188.7"/>
<text text-anchor="start" x="168" y="-178.8" font-family="Helvetica,sans-Serif" font-size="11.00" fill="#000000">event_id</text>
<polygon fill="none" stroke="#000000" points="268,-171.7 268,-193.7 358,-193.7 358,-171.7 268,-171.7"/>
<text text-anchor="start" x="271" y="-179.4" font-family="Helvetica,sans-Serif" font-size="11.00" fill="#000000">int4[10]</text>
<polygon fill="none" stroke="#000000" points="148,-149.7 148,-171.7 268,-171.7 268,-149.7 148,-149.7"/>
<image xlink:href="../../images/primaryKeys.png" width="11px" height="12px" preserveAspectRatio="xMinYMin meet" x="153" y="-166.7"/>
<text text-anchor="start" x="168" y="-156.8" font-family="Helvetica,sans-Serif" font-size="11.00" fill="#000000">role_name</text>
<polygon fill="none" stroke="#000000" points="268,-149.7 268,-171.7 358,-171.7 358,-149.7 268,-149.7"/>
<text text-anchor="start" x="270.5043" y="-157.4" font-family="Helvetica,sans-Serif" font-size="11.00" fill="#000000">text[2147483647]</text>
<polygon fill="none" stroke="#000000" points="148,-127.7 148,-149.7 268,-149.7 268,-127.7 148,-127.7"/>
<text text-anchor="start" x="168" y="-134.8" font-family="Helvetica,sans-Serif" font-size="11.00" fill="#000000">subscribed</text>
<polygon fill="none" stroke="#000000" points="268,-127.7 268,-149.7 358,-149.7 358,-127.7 268,-127.7"/>
<text text-anchor="start" x="271" y="-135.4" font-family="Helvetica,sans-Serif" font-size="11.00" fill="#000000">bool[1]</text>
<polygon fill="#ffffff" stroke="transparent" points="148,-108.7 148,-127.7 199,-127.7 199,-108.7 148,-108.7"/>
<polygon fill="none" stroke="#000000" points="148,-108.7 148,-127.7 199,-127.7 199,-108.7 148,-108.7"/>
<text text-anchor="start" x="151" y="-114.8" font-family="Helvetica,sans-Serif" font-size="11.00" fill="#000000">&lt; 2</text>
<polygon fill="#ffffff" stroke="transparent" points="199,-108.7 199,-127.7 268,-127.7 268,-108.7 199,-108.7"/>
<polygon fill="none" stroke="#000000" points="199,-108.7 199,-127.7 268,-127.7 268,-108.7 199,-108.7"/>
<text text-anchor="start" x="232.6105" y="-114.8" font-family="Helvetica,sans-Serif" font-size="11.00" fill="#000000">0 rows</text>
<polygon fill="#ffffff" stroke="transparent" points="268,-108.7 268,-127.7 358,-127.7 358,-108.7 268,-108.7"/>
<polygon fill="none" stroke="#000000" points="268,-108.7 268,-127.7 358,-127.7 358,-108.7 268,-108.7"/>
<text text-anchor="start" x="339.4053" y="-114.8" font-family="Helvetica,sans-Serif" font-size="11.00" fill="#000000">0 &gt;</text>
<polygon fill="none" stroke="#000000" stroke-width="2" points="147,-107.7 147,-305.7 359,-305.7 359,-107.7 147,-107.7"/>
</a>
</g>
</g>
<!-- events -->
<g id="node2" class="node">
<title>events</title>
<g id="a_node2"><a xlink:href="../../tables/events.html" xlink:title="events" target="_top">
<polygon fill="#ffffff" stroke="transparent" points="8,-38.2 8,-165.2 97,-165.2 97,-38.2 8,-38.2"/>
<polygon fill="#f5f5f5" stroke="transparent" points="8.5,-141.7 8.5,-164.7 97.5,-164.7 97.5,-141.7 8.5,-141.7"/>
<polygon fill="none" stroke="#000000" points="8.5,-141.7 8.5,-164.7 97.5,-164.7 97.5,-141.7 8.5,-141.7"/>
<text text-anchor="start" x="13.5" y="-150.8" font-family="Helvetica,sans-Serif" font-weight="bold" font-size="11.00" fill="#000000">events</text>
<text text-anchor="start" x="62.5437" y="-149.8" font-family="Helvetica,sans-Serif" font-size="11.00" fill="#000000">[table]</text>
<polygon fill="none" stroke="#000000" points="8.5,-119.7 8.5,-141.7 97.5,-141.7 97.5,-119.7 8.5,-119.7"/>
<image xlink:href="../../images/primaryKeys.png" width="11px" height="12px" preserveAspectRatio="xMinYMin meet" x="13.5" y="-136.7"/>
<text text-anchor="start" x="28.5" y="-126.8" font-family="Helvetica,sans-Serif" font-size="11.00" fill="#000000">id</text>
<polygon fill="none" stroke="#000000" points="8.5,-97.7 8.5,-119.7 97.5,-119.7 97.5,-97.7 8.5,-97.7"/>
<image xlink:href="../../images/foreignKeys.png" width="11px" height="12px" preserveAspectRatio="xMinYMin meet" x="13.5" y="-114.7"/>
<text text-anchor="start" x="28.5" y="-104.8" font-family="Helvetica,sans-Serif" font-size="11.00" fill="#000000">venue_id</text>
<polygon fill="none" stroke="#000000" points="8.5,-75.7 8.5,-97.7 97.5,-97.7 97.5,-75.7 8.5,-75.7"/>
<image xlink:href="../../images/foreignKeys.png" width="11px" height="12px" preserveAspectRatio="xMinYMin meet" x="13.5" y="-92.7"/>
<text text-anchor="start" x="28.5" y="-82.8" font-family="Helvetica,sans-Serif" font-size="11.00" fill="#000000">chapter_id</text>
<polygon fill="none" stroke="#000000" points="8.5,-56.7 8.5,-75.7 97.5,-75.7 97.5,-56.7 8.5,-56.7"/>
<text text-anchor="start" x="11.5" y="-62.8" font-family="Helvetica,sans-Serif" font-size="11.00" fill="#000000">...</text>
<polygon fill="#ffffff" stroke="transparent" points="8.5,-37.7 8.5,-56.7 33.5,-56.7 33.5,-37.7 8.5,-37.7"/>
<polygon fill="none" stroke="#000000" points="8.5,-37.7 8.5,-56.7 33.5,-56.7 33.5,-37.7 8.5,-37.7"/>
<text text-anchor="start" x="11.5" y="-43.8" font-family="Helvetica,sans-Serif" font-size="11.00" fill="#000000">&lt; 2</text>
<polygon fill="#ffffff" stroke="transparent" points="33.5,-37.7 33.5,-56.7 73.5,-56.7 73.5,-37.7 33.5,-37.7"/>
<polygon fill="none" stroke="#000000" points="33.5,-37.7 33.5,-56.7 73.5,-56.7 73.5,-37.7 33.5,-37.7"/>
<text text-anchor="start" x="38.1105" y="-43.8" font-family="Helvetica,sans-Serif" font-size="11.00" fill="#000000">0 rows</text>
<polygon fill="#ffffff" stroke="transparent" points="73.5,-37.7 73.5,-56.7 97.5,-56.7 97.5,-37.7 73.5,-37.7"/>
<polygon fill="none" stroke="#000000" points="73.5,-37.7 73.5,-56.7 97.5,-56.7 97.5,-37.7 73.5,-37.7"/>
<text text-anchor="start" x="78.9053" y="-43.8" font-family="Helvetica,sans-Serif" font-size="11.00" fill="#000000">4 &gt;</text>
</a>
</g>
</g>
<!-- user_event_roles&#45;&gt;events -->
<g id="edge1" class="edge">
<title>user_event_roles:w&#45;&gt;events:e</title>
<path fill="none" stroke="#000000" d="M134.1372,-177.9012C119.3861,-165.0281 123.6756,-130.7 97.5,-130.7"/>
<polygon fill="#000000" stroke="#000000" points="140.4401,-180.083 146.8223,-186.1019 144.2201,-181.3915 148,-182.7 148,-182.7 148,-182.7 144.2201,-181.3915 149.1777,-179.2981 140.4401,-180.083 140.4401,-180.083"/>
<ellipse fill="none" stroke="#000000" cx="137.4162" cy="-179.0362" rx="3.2" ry="3.2"/>
</g>
<!-- users -->
<g id="node3" class="node">
<title>users</title>
<g id="a_node3"><a xlink:href="../../tables/users.html" xlink:title="users" target="_top">
<polygon fill="#ffffff" stroke="transparent" points="8.5,-186.2 8.5,-291.2 96.5,-291.2 96.5,-186.2 8.5,-186.2"/>
<polygon fill="#f5f5f5" stroke="transparent" points="8.5,-267.7 8.5,-290.7 96.5,-290.7 96.5,-267.7 8.5,-267.7"/>
<polygon fill="none" stroke="#000000" points="8.5,-267.7 8.5,-290.7 96.5,-290.7 96.5,-267.7 8.5,-267.7"/>
<text text-anchor="start" x="13.5" y="-276.8" font-family="Helvetica,sans-Serif" font-weight="bold" font-size="11.00" fill="#000000">users</text>
<text text-anchor="start" x="61.5437" y="-275.8" font-family="Helvetica,sans-Serif" font-size="11.00" fill="#000000">[table]</text>
<polygon fill="none" stroke="#000000" points="8.5,-245.7 8.5,-267.7 96.5,-267.7 96.5,-245.7 8.5,-245.7"/>
<image xlink:href="../../images/primaryKeys.png" width="11px" height="12px" preserveAspectRatio="xMinYMin meet" x="13.5" y="-262.7"/>
<text text-anchor="start" x="28.5" y="-252.8" font-family="Helvetica,sans-Serif" font-size="11.00" fill="#000000">id</text>
<polygon fill="#ffffff" stroke="transparent" points="8.5,-223.7 8.5,-245.7 96.5,-245.7 96.5,-223.7 8.5,-223.7"/>
<polygon fill="none" stroke="#000000" points="8.5,-223.7 8.5,-245.7 96.5,-245.7 96.5,-223.7 8.5,-223.7"/>
<text text-anchor="start" x="28.5" y="-230.8" font-family="Helvetica,sans-Serif" font-size="11.00" fill="#000000">email</text>
<polygon fill="none" stroke="#000000" points="8.5,-204.7 8.5,-223.7 96.5,-223.7 96.5,-204.7 8.5,-204.7"/>
<text text-anchor="start" x="11.5" y="-210.8" font-family="Helvetica,sans-Serif" font-size="11.00" fill="#000000">...</text>
<polygon fill="#ffffff" stroke="transparent" points="8.5,-185.7 8.5,-204.7 28.5,-204.7 28.5,-185.7 8.5,-185.7"/>
<polygon fill="none" stroke="#000000" points="8.5,-185.7 8.5,-204.7 28.5,-204.7 28.5,-185.7 8.5,-185.7"/>
<text text-anchor="start" x="11.5" y="-191.8" font-family="Helvetica,sans-Serif" font-size="11.00" fill="#000000"> &#160;</text>
<polygon fill="#ffffff" stroke="transparent" points="28.5,-185.7 28.5,-204.7 70.5,-204.7 70.5,-185.7 28.5,-185.7"/>
<polygon fill="none" stroke="#000000" points="28.5,-185.7 28.5,-204.7 70.5,-204.7 70.5,-185.7 28.5,-185.7"/>
<text text-anchor="start" x="35.1105" y="-191.8" font-family="Helvetica,sans-Serif" font-size="11.00" fill="#000000">0 rows</text>
<polygon fill="#ffffff" stroke="transparent" points="70.5,-185.7 70.5,-204.7 96.5,-204.7 96.5,-185.7 70.5,-185.7"/>
<polygon fill="none" stroke="#000000" points="70.5,-185.7 70.5,-204.7 96.5,-204.7 96.5,-185.7 70.5,-185.7"/>
<text text-anchor="start" x="77.9053" y="-191.8" font-family="Helvetica,sans-Serif" font-size="11.00" fill="#000000">6 &gt;</text>
</a>
</g>
</g>
<!-- user_event_roles&#45;&gt;users -->
<g id="edge2" class="edge">
<title>user_event_roles:w&#45;&gt;users:e</title>
<path fill="none" stroke="#000000" d="M133.9561,-209.4988C118.9356,-222.3719 122.9284,-256.7 96.5,-256.7"/>
<polygon fill="#000000" stroke="#000000" points="140.4297,-207.2868 149.1641,-208.1066 144.2149,-205.9934 148,-204.7 148,-204.7 148,-204.7 144.2149,-205.9934 146.8359,-201.2934 140.4297,-207.2868 140.4297,-207.2868"/>
<ellipse fill="none" stroke="#000000" cx="137.4016" cy="-208.3215" rx="3.2" ry="3.2"/>
</g>
</g>
</svg>
