<?xml version="1.0" encoding="UTF-8" standalone="no"?>
<!DOCTYPE svg PUBLIC "-//W3C//DTD SVG 1.1//EN"
 "http://www.w3.org/Graphics/SVG/1.1/DTD/svg11.dtd">
<!-- Generated by graphviz version 2.40.1 (20161225.0304)
 -->
<!-- Title: oneDegreeRelationshipsDiagram Pages: 1 -->
<svg width="525pt" height="263pt"
 viewBox="0.00 0.00 525.00 262.70" xmlns="http://www.w3.org/2000/svg" xmlns:xlink="http://www.w3.org/1999/xlink">
<g id="graph0" class="graph" transform="scale(1 1) rotate(0) translate(4 258.7)">
<title>oneDegreeRelationshipsDiagram</title>
<polygon fill="#ffffff" stroke="transparent" points="-4,4 -4,-258.7 521,-258.7 521,4 -4,4"/>
<text text-anchor="middle" x="72.4936" y="-7.3" font-family="Helvetica,sans-Serif" font-size="11.00" fill="#000000">Generated by SchemaSpy</text>
<!-- chapters -->
<g id="node1" class="node">
<title>chapters</title>
<g id="a_node1"><a xlink:href="../../tables/chapters.html" xlink:title="chapters" target="_top">
<polygon fill="#ffffff" stroke="transparent" points="145,-38.2 145,-143.2 233,-143.2 233,-38.2 145,-38.2"/>
<polygon fill="#f5f5f5" stroke="transparent" points="145,-119.7 145,-142.7 233,-142.7 233,-119.7 145,-119.7"/>
<polygon fill="none" stroke="#000000" points="145,-119.7 145,-142.7 233,-142.7 233,-119.7 145,-119.7"/>
<text text-anchor="start" x="150" y="-128.8" font-family="Helvetica,sans-Serif" font-weight="bold" font-size="11.00" fill="#000000">chapters</text>
<text text-anchor="start" x="198.0437" y="-127.8" font-family="Helvetica,sans-Serif" font-size="11.00" fill="#000000">[table]</text>
<polygon fill="none" stroke="#000000" points="145,-97.7 145,-119.7 233,-119.7 233,-97.7 145,-97.7"/>
<image xlink:href="../../images/primaryKeys.png" width="11px" height="12px" preserveAspectRatio="xMinYMin meet" x="150" y="-114.7"/>
<text text-anchor="start" x="165" y="-104.8" font-family="Helvetica,sans-Serif" font-size="11.00" fill="#000000">id</text>
<polygon fill="none" stroke="#000000" points="145,-75.7 145,-97.7 233,-97.7 233,-75.7 145,-75.7"/>
<image xlink:href="../../images/foreignKeys.png" width="11px" height="12px" preserveAspectRatio="xMinYMin meet" x="150" y="-92.7"/>
<text text-anchor="start" x="165" y="-82.8" font-family="Helvetica,sans-Serif" font-size="11.00" fill="#000000">creator_id</text>
<polygon fill="none" stroke="#000000" points="145,-56.7 145,-75.7 233,-75.7 233,-56.7 145,-56.7"/>
<text text-anchor="start" x="148" y="-62.8" font-family="Helvetica,sans-Serif" font-size="11.00" fill="#000000">...</text>
<polygon fill="#ffffff" stroke="transparent" points="145,-37.7 145,-56.7 170,-56.7 170,-37.7 145,-37.7"/>
<polygon fill="none" stroke="#000000" points="145,-37.7 145,-56.7 170,-56.7 170,-37.7 145,-37.7"/>
<text text-anchor="start" x="148" y="-43.8" font-family="Helvetica,sans-Serif" font-size="11.00" fill="#000000">&lt; 1</text>
<polygon fill="#ffffff" stroke="transparent" points="170,-37.7 170,-56.7 210,-56.7 210,-37.7 170,-37.7"/>
<polygon fill="none" stroke="#000000" points="170,-37.7 170,-56.7 210,-56.7 210,-37.7 170,-37.7"/>
<text text-anchor="start" x="174.6105" y="-43.8" font-family="Helvetica,sans-Serif" font-size="11.00" fill="#000000">0 rows</text>
<polygon fill="#ffffff" stroke="transparent" points="210,-37.7 210,-56.7 233,-56.7 233,-37.7 210,-37.7"/>
<polygon fill="none" stroke="#000000" points="210,-37.7 210,-56.7 233,-56.7 233,-37.7 210,-37.7"/>
<text text-anchor="start" x="214.4053" y="-43.8" font-family="Helvetica,sans-Serif" font-size="11.00" fill="#000000">3 &gt;</text>
</a>
</g>
</g>
<!-- users -->
<g id="node2" class="node">
<title>users</title>
<g id="a_node2"><a xlink:href="../../tables/users.html" xlink:title="users" target="_top">
<polygon fill="#ffffff" stroke="transparent" points="8,-56.2 8,-161.2 96,-161.2 96,-56.2 8,-56.2"/>
<polygon fill="#f5f5f5" stroke="transparent" points="8,-137.7 8,-160.7 96,-160.7 96,-137.7 8,-137.7"/>
<polygon fill="none" stroke="#000000" points="8,-137.7 8,-160.7 96,-160.7 96,-137.7 8,-137.7"/>
<text text-anchor="start" x="13" y="-146.8" font-family="Helvetica,sans-Serif" font-weight="bold" font-size="11.00" fill="#000000">users</text>
<text text-anchor="start" x="61.0437" y="-145.8" font-family="Helvetica,sans-Serif" font-size="11.00" fill="#000000">[table]</text>
<polygon fill="none" stroke="#000000" points="8,-115.7 8,-137.7 96,-137.7 96,-115.7 8,-115.7"/>
<image xlink:href="../../images/primaryKeys.png" width="11px" height="12px" preserveAspectRatio="xMinYMin meet" x="13" y="-132.7"/>
<text text-anchor="start" x="28" y="-122.8" font-family="Helvetica,sans-Serif" font-size="11.00" fill="#000000">id</text>
<polygon fill="#ffffff" stroke="transparent" points="8,-93.7 8,-115.7 96,-115.7 96,-93.7 8,-93.7"/>
<polygon fill="none" stroke="#000000" points="8,-93.7 8,-115.7 96,-115.7 96,-93.7 8,-93.7"/>
<text text-anchor="start" x="28" y="-100.8" font-family="Helvetica,sans-Serif" font-size="11.00" fill="#000000">email</text>
<polygon fill="none" stroke="#000000" points="8,-74.7 8,-93.7 96,-93.7 96,-74.7 8,-74.7"/>
<text text-anchor="start" x="11" y="-80.8" font-family="Helvetica,sans-Serif" font-size="11.00" fill="#000000">...</text>
<polygon fill="#ffffff" stroke="transparent" points="8,-55.7 8,-74.7 28,-74.7 28,-55.7 8,-55.7"/>
<polygon fill="none" stroke="#000000" points="8,-55.7 8,-74.7 28,-74.7 28,-55.7 8,-55.7"/>
<text text-anchor="start" x="11" y="-61.8" font-family="Helvetica,sans-Serif" font-size="11.00" fill="#000000"> &#160;</text>
<polygon fill="#ffffff" stroke="transparent" points="28,-55.7 28,-74.7 70,-74.7 70,-55.7 28,-55.7"/>
<polygon fill="none" stroke="#000000" points="28,-55.7 28,-74.7 70,-74.7 70,-55.7 28,-55.7"/>
<text text-anchor="start" x="34.6105" y="-61.8" font-family="Helvetica,sans-Serif" font-size="11.00" fill="#000000">0 rows</text>
<polygon fill="#ffffff" stroke="transparent" points="70,-55.7 70,-74.7 96,-74.7 96,-55.7 70,-55.7"/>
<polygon fill="none" stroke="#000000" points="70,-55.7 70,-74.7 96,-74.7 96,-55.7 70,-55.7"/>
<text text-anchor="start" x="77.4053" y="-61.8" font-family="Helvetica,sans-Serif" font-size="11.00" fill="#000000">6 &gt;</text>
</a>
</g>
</g>
<!-- chapters&#45;&gt;users -->
<g id="edge1" class="edge">
<title>chapters:w&#45;&gt;users:e</title>
<path fill="none" stroke="#000000" d="M131.2637,-91.2885C118.3632,-101.7952 118.1826,-126.7 96,-126.7"/>
<polygon fill="#000000" stroke="#000000" points="137.4121,-89.2347 146.1406,-90.1145 141.2061,-87.9673 145,-86.7 145,-86.7 145,-86.7 141.2061,-87.9673 143.8594,-83.2855 137.4121,-89.2347 137.4121,-89.2347"/>
<ellipse fill="none" stroke="#000000" cx="134.377" cy="-90.2486" rx="3.2" ry="3.2"/>
</g>
<!-- user_chapter_roles -->
<g id="node3" class="node">
<title>user_chapter_roles</title>
<g id="a_node3"><a xlink:href="../../tables/user_chapter_roles.html" xlink:title="user_chapter_roles" target="_top">
<polygon fill="#ffffff" stroke="transparent" points="282,-50.7 282,-250.7 509,-250.7 509,-50.7 282,-50.7"/>
<polygon fill="#f5f5f5" stroke="transparent" points="284.5,-225.7 284.5,-248.7 507.5,-248.7 507.5,-225.7 284.5,-225.7"/>
<polygon fill="none" stroke="#000000" points="284.5,-225.7 284.5,-248.7 507.5,-248.7 507.5,-225.7 284.5,-225.7"/>
<text text-anchor="start" x="289.5" y="-234.8" font-family="Helvetica,sans-Serif" font-weight="bold" font-size="11.00" fill="#000000">user_chapter_roles</text>
<text text-anchor="start" x="472.5437" y="-233.8" font-family="Helvetica,sans-Serif" font-size="11.00" fill="#000000">[table]</text>
<polygon fill="none" stroke="#000000" points="284.5,-203.7 284.5,-225.7 417.5,-225.7 417.5,-203.7 284.5,-203.7"/>
<image xlink:href="../../images/primaryKeys.png" width="11px" height="12px" preserveAspectRatio="xMinYMin meet" x="289.5" y="-220.7"/>
<text text-anchor="start" x="304.5" y="-210.8" font-family="Helvetica,sans-Serif" font-size="11.00" fill="#000000">id</text>
<polygon fill="none" stroke="#000000" points="417.5,-203.7 417.5,-225.7 507.5,-225.7 507.5,-203.7 417.5,-203.7"/>
<text text-anchor="start" x="420.5" y="-211.4" font-family="Helvetica,sans-Serif" font-size="11.00" fill="#000000">serial[10]</text>
<polygon fill="none" stroke="#000000" points="284.5,-181.7 284.5,-203.7 417.5,-203.7 417.5,-181.7 284.5,-181.7"/>
<text text-anchor="start" x="304.5" y="-188.8" font-family="Helvetica,sans-Serif" font-size="11.00" fill="#000000">created_at</text>
<polygon fill="none" stroke="#000000" points="417.5,-181.7 417.5,-203.7 507.5,-203.7 507.5,-181.7 417.5,-181.7"/>
<text text-anchor="start" x="420.5" y="-189.4" font-family="Helvetica,sans-Serif" font-size="11.00" fill="#000000">timestamp[29,6]</text>
<polygon fill="none" stroke="#000000" points="284.5,-159.7 284.5,-181.7 417.5,-181.7 417.5,-159.7 284.5,-159.7"/>
<text text-anchor="start" x="304.5" y="-166.8" font-family="Helvetica,sans-Serif" font-size="11.00" fill="#000000">updated_at</text>
<polygon fill="none" stroke="#000000" points="417.5,-159.7 417.5,-181.7 507.5,-181.7 507.5,-159.7 417.5,-159.7"/>
<text text-anchor="start" x="420.5" y="-167.4" font-family="Helvetica,sans-Serif" font-size="11.00" fill="#000000">timestamp[29,6]</text>
<polygon fill="none" stroke="#000000" points="284.5,-137.7 284.5,-159.7 417.5,-159.7 417.5,-137.7 284.5,-137.7"/>
<image xlink:href="../../images/primaryKeys.png" width="11px" height="12px" preserveAspectRatio="xMinYMin meet" x="289.5" y="-154.7"/>
<text text-anchor="start" x="304.5" y="-144.8" font-family="Helvetica,sans-Serif" font-size="11.00" fill="#000000">user_id</text>
<polygon fill="none" stroke="#000000" points="417.5,-137.7 417.5,-159.7 507.5,-159.7 507.5,-137.7 417.5,-137.7"/>
<text text-anchor="start" x="420.5" y="-145.4" font-family="Helvetica,sans-Serif" font-size="11.00" fill="#000000">int4[10]</text>
<polygon fill="none" stroke="#000000" points="284.5,-115.7 284.5,-137.7 417.5,-137.7 417.5,-115.7 284.5,-115.7"/>
<image xlink:href="../../images/primaryKeys.png" width="11px" height="12px" preserveAspectRatio="xMinYMin meet" x="289.5" y="-132.7"/>
<text text-anchor="start" x="304.5" y="-122.8" font-family="Helvetica,sans-Serif" font-size="11.00" fill="#000000">chapter_id</text>
<polygon fill="none" stroke="#000000" points="417.5,-115.7 417.5,-137.7 507.5,-137.7 507.5,-115.7 417.5,-115.7"/>
<text text-anchor="start" x="420.5" y="-123.4" font-family="Helvetica,sans-Serif" font-size="11.00" fill="#000000">int4[10]</text>
<polygon fill="none" stroke="#000000" points="284.5,-93.7 284.5,-115.7 417.5,-115.7 417.5,-93.7 284.5,-93.7"/>
<image xlink:href="../../images/primaryKeys.png" width="11px" height="12px" preserveAspectRatio="xMinYMin meet" x="289.5" y="-110.7"/>
<text text-anchor="start" x="304.5" y="-100.8" font-family="Helvetica,sans-Serif" font-size="11.00" fill="#000000">role_name</text>
<polygon fill="none" stroke="#000000" points="417.5,-93.7 417.5,-115.7 507.5,-115.7 507.5,-93.7 417.5,-93.7"/>
<text text-anchor="start" x="420.0043" y="-101.4" font-family="Helvetica,sans-Serif" font-size="11.00" fill="#000000">text[2147483647]</text>
<polygon fill="none" stroke="#000000" points="284.5,-71.7 284.5,-93.7 417.5,-93.7 417.5,-71.7 284.5,-71.7"/>
<text text-anchor="start" x="304.5" y="-78.8" font-family="Helvetica,sans-Serif" font-size="11.00" fill="#000000">interested</text>
<polygon fill="none" stroke="#000000" points="417.5,-71.7 417.5,-93.7 507.5,-93.7 507.5,-71.7 417.5,-71.7"/>
<text text-anchor="start" x="420.5" y="-79.4" font-family="Helvetica,sans-Serif" font-size="11.00" fill="#000000">bool[1]</text>
<polygon fill="#ffffff" stroke="transparent" points="284.5,-52.7 284.5,-71.7 342.5,-71.7 342.5,-52.7 284.5,-52.7"/>
<polygon fill="none" stroke="#000000" points="284.5,-52.7 284.5,-71.7 342.5,-71.7 342.5,-52.7 284.5,-52.7"/>
<text text-anchor="start" x="287.5" y="-58.8" font-family="Helvetica,sans-Serif" font-size="11.00" fill="#000000">&lt; 2</text>
<polygon fill="#ffffff" stroke="transparent" points="342.5,-52.7 342.5,-71.7 417.5,-71.7 417.5,-52.7 342.5,-52.7"/>
<polygon fill="none" stroke="#000000" points="342.5,-52.7 342.5,-71.7 417.5,-71.7 417.5,-52.7 342.5,-52.7"/>
<text text-anchor="start" x="382.1105" y="-58.8" font-family="Helvetica,sans-Serif" font-size="11.00" fill="#000000">0 rows</text>
<polygon fill="#ffffff" stroke="transparent" points="417.5,-52.7 417.5,-71.7 507.5,-71.7 507.5,-52.7 417.5,-52.7"/>
<polygon fill="none" stroke="#000000" points="417.5,-52.7 417.5,-71.7 507.5,-71.7 507.5,-52.7 417.5,-52.7"/>
<text text-anchor="start" x="488.9053" y="-58.8" font-family="Helvetica,sans-Serif" font-size="11.00" fill="#000000">0 &gt;</text>
<polygon fill="none" stroke="#000000" stroke-width="2" points="283,-51.7 283,-249.7 508,-249.7 508,-51.7 283,-51.7"/>
</a>
</g>
</g>
<!-- user_chapter_roles&#45;&gt;chapters -->
<g id="edge2" class="edge">
<title>user_chapter_roles:w&#45;&gt;chapters:e</title>
<path fill="none" stroke="#000000" d="M270.0173,-124.044C257.5511,-119.037 251.3744,-108.7 233,-108.7"/>
<polygon fill="#000000" stroke="#000000" points="276.6312,-125.2569 283.8506,-130.2409 280.5656,-125.9785 284.5,-126.7 284.5,-126.7 284.5,-126.7 280.5656,-125.9785 285.1494,-123.1591 276.6312,-125.2569 276.6312,-125.2569"/>
<ellipse fill="none" stroke="#000000" cx="273.4837" cy="-124.6797" rx="3.2" ry="3.2"/>
</g>
<!-- user_chapter_roles&#45;&gt;users -->
<g id="edge3" class="edge">
<title>user_chapter_roles:w&#45;&gt;users:e</title>
<path fill="none" stroke="#000000" d="M270.0084,-149.5941C260.8542,-150.8111 254.5091,-152.9262 241,-153.7 194.8534,-156.3434 181.2766,-166.9694 137,-153.7 116.0999,-147.4363 117.8186,-126.7 96,-126.7"/>
<polygon fill="#000000" stroke="#000000" points="276.5152,-149.1927 284.7217,-152.2932 280.5076,-148.9464 284.5,-148.7 284.5,-148.7 284.5,-148.7 280.5076,-148.9464 284.2783,-145.1068 276.5152,-149.1927 276.5152,-149.1927"/>
<ellipse fill="none" stroke="#000000" cx="273.3213" cy="-149.3898" rx="3.2" ry="3.2"/>
</g>
</g>
</svg>
