<?xml version="1.0" encoding="UTF-8" standalone="no"?>
<!DOCTYPE svg PUBLIC "-//W3C//DTD SVG 1.1//EN"
 "http://www.w3.org/Graphics/SVG/1.1/DTD/svg11.dtd">
<!-- Generated by graphviz version 2.40.1 (20161225.0304)
 -->
<!-- Title: oneDegreeRelationshipsDiagram Pages: 1 -->
<svg width="543pt" height="405pt"
 viewBox="0.00 0.00 543.00 404.70" xmlns="http://www.w3.org/2000/svg" xmlns:xlink="http://www.w3.org/1999/xlink">
<g id="graph0" class="graph" transform="scale(1 1) rotate(0) translate(4 400.7)">
<title>oneDegreeRelationshipsDiagram</title>
<polygon fill="#ffffff" stroke="transparent" points="-4,4 -4,-400.7 539,-400.7 539,4 -4,4"/>
<text text-anchor="middle" x="72.4936" y="-7.3" font-family="Helvetica,sans-Serif" font-size="11.00" fill="#000000">Generated by SchemaSpy</text>
<!-- events -->
<g id="node1" class="node">
<title>events</title>
<g id="a_node1"><a xlink:href="../../tables/events.html" xlink:title="events" target="_top">
<polygon fill="#ffffff" stroke="transparent" points="399,-126.2 399,-253.2 527,-253.2 527,-126.2 399,-126.2"/>
<polygon fill="#f5f5f5" stroke="transparent" points="399,-229.7 399,-252.7 527,-252.7 527,-229.7 399,-229.7"/>
<polygon fill="none" stroke="#000000" points="399,-229.7 399,-252.7 527,-252.7 527,-229.7 399,-229.7"/>
<text text-anchor="start" x="404" y="-238.3" font-family="Helvetica,sans-Serif" font-weight="bold" font-size="11.00" fill="#000000">events</text>
<text text-anchor="start" x="492.0437" y="-237.8" font-family="Helvetica,sans-Serif" font-size="11.00" fill="#000000">[table]</text>
<polygon fill="none" stroke="#000000" points="399,-207.7 399,-229.7 527,-229.7 527,-207.7 399,-207.7"/>
<image xlink:href="../../images/primaryKeys.png" width="11px" height="12px" preserveAspectRatio="xMinYMin meet" x="404" y="-224.7"/>
<text text-anchor="start" x="419" y="-214.8" font-family="Helvetica,sans-Serif" font-size="11.00" fill="#000000">id</text>
<polygon fill="none" stroke="#000000" points="399,-185.7 399,-207.7 527,-207.7 527,-185.7 399,-185.7"/>
<image xlink:href="../../images/foreignKeys.png" width="11px" height="12px" preserveAspectRatio="xMinYMin meet" x="404" y="-202.7"/>
<text text-anchor="start" x="419" y="-192.8" font-family="Helvetica,sans-Serif" font-size="11.00" fill="#000000">venue_id</text>
<polygon fill="none" stroke="#000000" points="399,-163.7 399,-185.7 527,-185.7 527,-163.7 399,-163.7"/>
<image xlink:href="../../images/foreignKeys.png" width="11px" height="12px" preserveAspectRatio="xMinYMin meet" x="404" y="-180.7"/>
<text text-anchor="start" x="419" y="-170.8" font-family="Helvetica,sans-Serif" font-size="11.00" fill="#000000">chapter_id</text>
<polygon fill="none" stroke="#000000" points="399,-144.7 399,-163.7 527,-163.7 527,-144.7 399,-144.7"/>
<text text-anchor="start" x="402" y="-150.8" font-family="Helvetica,sans-Serif" font-size="11.00" fill="#000000">...</text>
<polygon fill="#ffffff" stroke="transparent" points="399,-125.7 399,-144.7 444,-144.7 444,-125.7 399,-125.7"/>
<polygon fill="none" stroke="#000000" points="399,-125.7 399,-144.7 444,-144.7 444,-125.7 399,-125.7"/>
<text text-anchor="start" x="402" y="-131.8" font-family="Helvetica,sans-Serif" font-size="11.00" fill="#000000">&lt; 2</text>
<polygon fill="#ffffff" stroke="transparent" points="444,-125.7 444,-144.7 494,-144.7 494,-125.7 444,-125.7"/>
<polygon fill="none" stroke="#000000" points="444,-125.7 444,-144.7 494,-144.7 494,-125.7 444,-125.7"/>
<text text-anchor="start" x="458.6105" y="-131.8" font-family="Helvetica,sans-Serif" font-size="11.00" fill="#000000">0 rows</text>
<polygon fill="#ffffff" stroke="transparent" points="494,-125.7 494,-144.7 527,-144.7 527,-125.7 494,-125.7"/>
<polygon fill="none" stroke="#000000" points="494,-125.7 494,-144.7 527,-144.7 527,-125.7 494,-125.7"/>
<text text-anchor="start" x="508.4053" y="-131.8" font-family="Helvetica,sans-Serif" font-size="11.00" fill="#000000">3 &gt;</text>
</a>
</g>
</g>
<!-- chapters -->
<g id="node2" class="node">
<title>chapters</title>
<g id="a_node2"><a xlink:href="../../tables/chapters.html" xlink:title="chapters" target="_top">
<polygon fill="#ffffff" stroke="transparent" points="8,-38.2 8,-121.2 99,-121.2 99,-38.2 8,-38.2"/>
<polygon fill="#f5f5f5" stroke="transparent" points="8.5,-97.7 8.5,-120.7 99.5,-120.7 99.5,-97.7 8.5,-97.7"/>
<polygon fill="none" stroke="#000000" points="8.5,-97.7 8.5,-120.7 99.5,-120.7 99.5,-97.7 8.5,-97.7"/>
<text text-anchor="start" x="13.5" y="-106.3" font-family="Helvetica,sans-Serif" font-weight="bold" font-size="11.00" fill="#000000">chapters</text>
<text text-anchor="start" x="65.0219" y="-105.8" font-family="Helvetica,sans-Serif" font-size="11.00" fill="#000000">[table]</text>
<polygon fill="none" stroke="#000000" points="8.5,-75.7 8.5,-97.7 99.5,-97.7 99.5,-75.7 8.5,-75.7"/>
<image xlink:href="../../images/primaryKeys.png" width="11px" height="12px" preserveAspectRatio="xMinYMin meet" x="13.5" y="-92.7"/>
<text text-anchor="start" x="29.5" y="-82.8" font-family="Helvetica,sans-Serif" font-size="11.00" fill="#000000">id</text>
<polygon fill="none" stroke="#000000" points="8.5,-56.7 8.5,-75.7 99.5,-75.7 99.5,-56.7 8.5,-56.7"/>
<text text-anchor="start" x="11.5" y="-62.8" font-family="Helvetica,sans-Serif" font-size="11.00" fill="#000000">...</text>
<polygon fill="#ffffff" stroke="transparent" points="8.5,-37.7 8.5,-56.7 30.5,-56.7 30.5,-37.7 8.5,-37.7"/>
<polygon fill="none" stroke="#000000" points="8.5,-37.7 8.5,-56.7 30.5,-56.7 30.5,-37.7 8.5,-37.7"/>
<text text-anchor="start" x="11.5" y="-43.8" font-family="Helvetica,sans-Serif" font-size="11.00" fill="#000000"> &#160;</text>
<polygon fill="#ffffff" stroke="transparent" points="30.5,-37.7 30.5,-56.7 73.5,-56.7 73.5,-37.7 30.5,-37.7"/>
<polygon fill="none" stroke="#000000" points="30.5,-37.7 30.5,-56.7 73.5,-56.7 73.5,-37.7 30.5,-37.7"/>
<text text-anchor="start" x="38.1105" y="-43.8" font-family="Helvetica,sans-Serif" font-size="11.00" fill="#000000">0 rows</text>
<polygon fill="#ffffff" stroke="transparent" points="73.5,-37.7 73.5,-56.7 99.5,-56.7 99.5,-37.7 73.5,-37.7"/>
<polygon fill="none" stroke="#000000" points="73.5,-37.7 73.5,-56.7 99.5,-56.7 99.5,-37.7 73.5,-37.7"/>
<text text-anchor="start" x="80.9053" y="-43.8" font-family="Helvetica,sans-Serif" font-size="11.00" fill="#000000">4 &gt;</text>
</a>
</g>
</g>
<!-- events&#45;&gt;chapters -->
<g id="edge1" class="edge">
<title>events:w&#45;&gt;chapters:e</title>
<path fill="none" stroke="#000000" d="M384.7645,-171.4086C360.5873,-156.6094 393.6797,-95.8999 358,-71.7 277.815,-17.3141 235.3691,-54.6064 140,-71.7 121.1062,-75.0865 118.6949,-86.7 99.5,-86.7"/>
<polygon fill="#000000" stroke="#000000" points="391.2056,-172.8978 398.189,-178.2075 395.1028,-173.7989 399,-174.7 399,-174.7 399,-174.7 395.1028,-173.7989 399.811,-171.1925 391.2056,-172.8978 391.2056,-172.8978"/>
<ellipse fill="none" stroke="#000000" cx="388.0879" cy="-172.1769" rx="3.2" ry="3.2"/>
</g>
<!-- venues -->
<g id="node3" class="node">
<title>venues</title>
<g id="a_node3"><a xlink:href="../../tables/venues.html" xlink:title="venues" target="_top">
<polygon fill="#ffffff" stroke="transparent" points="148,-82.7 148,-392.7 350,-392.7 350,-82.7 148,-82.7"/>
<polygon fill="#f5f5f5" stroke="transparent" points="150,-367.7 150,-390.7 348,-390.7 348,-367.7 150,-367.7"/>
<polygon fill="none" stroke="#000000" points="150,-367.7 150,-390.7 348,-390.7 348,-367.7 150,-367.7"/>
<text text-anchor="start" x="155" y="-376.3" font-family="Helvetica,sans-Serif" font-weight="bold" font-size="11.00" fill="#000000">venues</text>
<text text-anchor="start" x="313.0437" y="-375.8" font-family="Helvetica,sans-Serif" font-size="11.00" fill="#000000">[table]</text>
<polygon fill="none" stroke="#000000" points="150,-345.7 150,-367.7 258,-367.7 258,-345.7 150,-345.7"/>
<text text-anchor="start" x="170" y="-352.8" font-family="Helvetica,sans-Serif" font-size="11.00" fill="#000000">created_at</text>
<polygon fill="none" stroke="#000000" points="258,-345.7 258,-367.7 348,-367.7 348,-345.7 258,-345.7"/>
<text text-anchor="start" x="261" y="-353.4" font-family="Helvetica,sans-Serif" font-size="11.00" fill="#000000">timestamp[26,3]</text>
<polygon fill="none" stroke="#000000" points="150,-323.7 150,-345.7 258,-345.7 258,-323.7 150,-323.7"/>
<text text-anchor="start" x="170" y="-330.8" font-family="Helvetica,sans-Serif" font-size="11.00" fill="#000000">updated_at</text>
<polygon fill="none" stroke="#000000" points="258,-323.7 258,-345.7 348,-345.7 348,-323.7 258,-323.7"/>
<text text-anchor="start" x="261" y="-331.4" font-family="Helvetica,sans-Serif" font-size="11.00" fill="#000000">timestamp[26,3]</text>
<polygon fill="none" stroke="#000000" points="150,-301.7 150,-323.7 258,-323.7 258,-301.7 150,-301.7"/>
<image xlink:href="../../images/primaryKeys.png" width="11px" height="12px" preserveAspectRatio="xMinYMin meet" x="155" y="-318.7"/>
<text text-anchor="start" x="170" y="-308.8" font-family="Helvetica,sans-Serif" font-size="11.00" fill="#000000">id</text>
<polygon fill="none" stroke="#000000" points="258,-301.7 258,-323.7 348,-323.7 348,-301.7 258,-301.7"/>
<text text-anchor="start" x="261" y="-309.4" font-family="Helvetica,sans-Serif" font-size="11.00" fill="#000000">serial[10]</text>
<polygon fill="none" stroke="#000000" points="150,-279.7 150,-301.7 258,-301.7 258,-279.7 150,-279.7"/>
<text text-anchor="start" x="170" y="-286.8" font-family="Helvetica,sans-Serif" font-size="11.00" fill="#000000">name</text>
<polygon fill="none" stroke="#000000" points="258,-279.7 258,-301.7 348,-301.7 348,-279.7 258,-279.7"/>
<text text-anchor="start" x="260.5043" y="-287.4" font-family="Helvetica,sans-Serif" font-size="11.00" fill="#000000">text[2147483647]</text>
<polygon fill="none" stroke="#000000" points="150,-257.7 150,-279.7 258,-279.7 258,-257.7 150,-257.7"/>
<text text-anchor="start" x="170" y="-264.8" font-family="Helvetica,sans-Serif" font-size="11.00" fill="#000000">street_address</text>
<polygon fill="none" stroke="#000000" points="258,-257.7 258,-279.7 348,-279.7 348,-257.7 258,-257.7"/>
<text text-anchor="start" x="260.5043" y="-265.4" font-family="Helvetica,sans-Serif" font-size="11.00" fill="#000000">text[2147483647]</text>
<polygon fill="none" stroke="#000000" points="150,-235.7 150,-257.7 258,-257.7 258,-235.7 150,-235.7"/>
<text text-anchor="start" x="170" y="-242.8" font-family="Helvetica,sans-Serif" font-size="11.00" fill="#000000">city</text>
<polygon fill="none" stroke="#000000" points="258,-235.7 258,-257.7 348,-257.7 348,-235.7 258,-235.7"/>
<text text-anchor="start" x="260.5043" y="-243.4" font-family="Helvetica,sans-Serif" font-size="11.00" fill="#000000">text[2147483647]</text>
<polygon fill="none" stroke="#000000" points="150,-213.7 150,-235.7 258,-235.7 258,-213.7 150,-213.7"/>
<text text-anchor="start" x="170" y="-220.8" font-family="Helvetica,sans-Serif" font-size="11.00" fill="#000000">postal_code</text>
<polygon fill="none" stroke="#000000" points="258,-213.7 258,-235.7 348,-235.7 348,-213.7 258,-213.7"/>
<text text-anchor="start" x="260.5043" y="-221.4" font-family="Helvetica,sans-Serif" font-size="11.00" fill="#000000">text[2147483647]</text>
<polygon fill="none" stroke="#000000" points="150,-191.7 150,-213.7 258,-213.7 258,-191.7 150,-191.7"/>
<text text-anchor="start" x="170" y="-198.8" font-family="Helvetica,sans-Serif" font-size="11.00" fill="#000000">region</text>
<polygon fill="none" stroke="#000000" points="258,-191.7 258,-213.7 348,-213.7 348,-191.7 258,-191.7"/>
<text text-anchor="start" x="260.5043" y="-199.4" font-family="Helvetica,sans-Serif" font-size="11.00" fill="#000000">text[2147483647]</text>
<polygon fill="none" stroke="#000000" points="150,-169.7 150,-191.7 258,-191.7 258,-169.7 150,-169.7"/>
<text text-anchor="start" x="170" y="-176.8" font-family="Helvetica,sans-Serif" font-size="11.00" fill="#000000">country</text>
<polygon fill="none" stroke="#000000" points="258,-169.7 258,-191.7 348,-191.7 348,-169.7 258,-169.7"/>
<text text-anchor="start" x="260.5043" y="-177.4" font-family="Helvetica,sans-Serif" font-size="11.00" fill="#000000">text[2147483647]</text>
<polygon fill="none" stroke="#000000" points="150,-147.7 150,-169.7 258,-169.7 258,-147.7 150,-147.7"/>
<text text-anchor="start" x="170" y="-154.8" font-family="Helvetica,sans-Serif" font-size="11.00" fill="#000000">latitude</text>
<polygon fill="none" stroke="#000000" points="258,-147.7 258,-169.7 348,-169.7 348,-147.7 258,-147.7"/>
<text text-anchor="start" x="261" y="-155.4" font-family="Helvetica,sans-Serif" font-size="11.00" fill="#000000">float8[17,17]</text>
<polygon fill="none" stroke="#000000" points="150,-125.7 150,-147.7 258,-147.7 258,-125.7 150,-125.7"/>
<text text-anchor="start" x="170" y="-132.8" font-family="Helvetica,sans-Serif" font-size="11.00" fill="#000000">longitude</text>
<polygon fill="none" stroke="#000000" points="258,-125.7 258,-147.7 348,-147.7 348,-125.7 258,-125.7"/>
<text text-anchor="start" x="261" y="-133.4" font-family="Helvetica,sans-Serif" font-size="11.00" fill="#000000">float8[17,17]</text>
<polygon fill="none" stroke="#000000" points="150,-103.7 150,-125.7 258,-125.7 258,-103.7 150,-103.7"/>
<image xlink:href="../../images/foreignKeys.png" width="11px" height="12px" preserveAspectRatio="xMinYMin meet" x="155" y="-120.7"/>
<text text-anchor="start" x="170" y="-110.8" font-family="Helvetica,sans-Serif" font-size="11.00" fill="#000000">chapter_id</text>
<polygon fill="none" stroke="#000000" points="258,-103.7 258,-125.7 348,-125.7 348,-103.7 258,-103.7"/>
<text text-anchor="start" x="261" y="-111.4" font-family="Helvetica,sans-Serif" font-size="11.00" fill="#000000">int4[10]</text>
<polygon fill="#ffffff" stroke="transparent" points="150,-84.7 150,-103.7 195,-103.7 195,-84.7 150,-84.7"/>
<polygon fill="none" stroke="#000000" points="150,-84.7 150,-103.7 195,-103.7 195,-84.7 150,-84.7"/>
<text text-anchor="start" x="153" y="-90.8" font-family="Helvetica,sans-Serif" font-size="11.00" fill="#000000">&lt; 1</text>
<polygon fill="#ffffff" stroke="transparent" points="195,-84.7 195,-103.7 258,-103.7 258,-84.7 195,-84.7"/>
<polygon fill="none" stroke="#000000" points="195,-84.7 195,-103.7 258,-103.7 258,-84.7 195,-84.7"/>
<text text-anchor="start" x="222.6105" y="-90.8" font-family="Helvetica,sans-Serif" font-size="11.00" fill="#000000">0 rows</text>
<polygon fill="#ffffff" stroke="transparent" points="258,-84.7 258,-103.7 348,-103.7 348,-84.7 258,-84.7"/>
<polygon fill="none" stroke="#000000" points="258,-84.7 258,-103.7 348,-103.7 348,-84.7 258,-84.7"/>
<text text-anchor="start" x="329.4053" y="-90.8" font-family="Helvetica,sans-Serif" font-size="11.00" fill="#000000">1 &gt;</text>
<polygon fill="none" stroke="#000000" stroke-width="2" points="149,-83.7 149,-391.7 349,-391.7 349,-83.7 149,-83.7"/>
</a>
</g>
</g>
<!-- events&#45;&gt;venues -->
<g id="edge2" class="edge">
<title>events:w&#45;&gt;venues:e</title>
<path fill="none" stroke="#000000" d="M384.84,-200.2989C354.3711,-219.8784 398.3785,-312.7 348,-312.7"/>
<polygon fill="#000000" stroke="#000000" points="391.2465,-198.6706 399.8868,-200.1891 395.1233,-197.6853 399,-196.7 399,-196.7 399,-196.7 395.1233,-197.6853 398.1132,-193.2109 391.2465,-198.6706 391.2465,-198.6706"/>
<ellipse fill="none" stroke="#000000" cx="388.1451" cy="-199.4589" rx="3.2" ry="3.2"/>
</g>
<!-- venues&#45;&gt;chapters -->
<g id="edge3" class="edge">
<title>venues:w&#45;&gt;chapters:e</title>
<path fill="none" stroke="#000000" d="M136.02,-111.0395C123.3515,-103.4498 119.3491,-86.7 99.5,-86.7"/>
<polygon fill="#000000" stroke="#000000" points="142.2609,-112.6736 149.0881,-118.1826 146.1304,-113.6868 150,-114.7 150,-114.7 150,-114.7 146.1304,-113.6868 150.9119,-111.2174 142.2609,-112.6736 142.2609,-112.6736"/>
<ellipse fill="none" stroke="#000000" cx="139.1653" cy="-111.863" rx="3.2" ry="3.2"/>
</g>
</g>
</svg>
