<?xml version="1.0" encoding="UTF-8" standalone="no"?>
<!DOCTYPE svg PUBLIC "-//W3C//DTD SVG 1.1//EN"
 "http://www.w3.org/Graphics/SVG/1.1/DTD/svg11.dtd">
<!-- Generated by graphviz version 2.40.1 (20161225.0304)
 -->
<!-- Title: twoDegreesRelationshipsDiagram Pages: 1 -->
<svg width="710pt" height="697pt"
 viewBox="0.00 0.00 710.00 697.38" xmlns="http://www.w3.org/2000/svg" xmlns:xlink="http://www.w3.org/1999/xlink">
<g id="graph0" class="graph" transform="scale(1 1) rotate(0) translate(4 693.382)">
<title>twoDegreesRelationshipsDiagram</title>
<polygon fill="#ffffff" stroke="transparent" points="-4,4 -4,-693.382 706,-693.382 706,4 -4,4"/>
<text text-anchor="middle" x="72.4936" y="-7.3" font-family="Helvetica,sans-Serif" font-size="11.00" fill="#000000">Generated by SchemaSpy</text>
<!-- chapter_tags -->
<g id="node1" class="node">
<title>chapter_tags</title>
<g id="a_node1"><a xlink:href="../../tables/chapter_tags.html" xlink:title="chapter_tags" target="_top">
<polygon fill="#ffffff" stroke="transparent" points="399,-92.6732 399,-153.6732 514,-153.6732 514,-92.6732 399,-92.6732"/>
<polygon fill="#f5f5f5" stroke="transparent" points="399.5,-130.1732 399.5,-153.1732 514.5,-153.1732 514.5,-130.1732 399.5,-130.1732"/>
<polygon fill="none" stroke="#000000" points="399.5,-130.1732 399.5,-153.1732 514.5,-153.1732 514.5,-130.1732 399.5,-130.1732"/>
<text text-anchor="start" x="404.5" y="-138.7732" font-family="Helvetica,sans-Serif" font-weight="bold" font-size="11.00" fill="#000000">chapter_tags</text>
<text text-anchor="start" x="480.0219" y="-138.2732" font-family="Helvetica,sans-Serif" font-size="11.00" fill="#000000">[table]</text>
<polygon fill="none" stroke="#000000" points="399.5,-111.1732 399.5,-130.1732 514.5,-130.1732 514.5,-111.1732 399.5,-111.1732"/>
<text text-anchor="start" x="402.5" y="-117.2732" font-family="Helvetica,sans-Serif" font-size="11.00" fill="#000000">...</text>
<polygon fill="#ffffff" stroke="transparent" points="399.5,-92.1732 399.5,-111.1732 442.5,-111.1732 442.5,-92.1732 399.5,-92.1732"/>
<polygon fill="none" stroke="#000000" points="399.5,-92.1732 399.5,-111.1732 442.5,-111.1732 442.5,-92.1732 399.5,-92.1732"/>
<text text-anchor="start" x="402.5" y="-98.2732" font-family="Helvetica,sans-Serif" font-size="11.00" fill="#000000">&lt; 2</text>
<polygon fill="#ffffff" stroke="transparent" points="442.5,-92.1732 442.5,-111.1732 491.5,-111.1732 491.5,-92.1732 442.5,-92.1732"/>
<polygon fill="none" stroke="#000000" points="442.5,-92.1732 442.5,-111.1732 491.5,-111.1732 491.5,-92.1732 442.5,-92.1732"/>
<text text-anchor="start" x="456.1105" y="-98.2732" font-family="Helvetica,sans-Serif" font-size="11.00" fill="#000000">0 rows</text>
<polygon fill="#ffffff" stroke="transparent" points="491.5,-92.1732 491.5,-111.1732 514.5,-111.1732 514.5,-92.1732 491.5,-92.1732"/>
<polygon fill="none" stroke="#000000" points="491.5,-92.1732 491.5,-111.1732 514.5,-111.1732 514.5,-92.1732 491.5,-92.1732"/>
<text text-anchor="start" x="505.3862" y="-98.2732" font-family="Helvetica,sans-Serif" font-size="11.00" fill="#000000"> &#160;</text>
</a>
</g>
</g>
<!-- chapters -->
<g id="node2" class="node">
<title>chapters</title>
<g id="a_node2"><a xlink:href="../../tables/chapters.html" xlink:title="chapters" target="_top">
<polygon fill="#ffffff" stroke="transparent" points="8,-246.6732 8,-307.6732 99,-307.6732 99,-246.6732 8,-246.6732"/>
<polygon fill="#f5f5f5" stroke="transparent" points="8.5,-284.1732 8.5,-307.1732 99.5,-307.1732 99.5,-284.1732 8.5,-284.1732"/>
<polygon fill="none" stroke="#000000" points="8.5,-284.1732 8.5,-307.1732 99.5,-307.1732 99.5,-284.1732 8.5,-284.1732"/>
<text text-anchor="start" x="13.5" y="-292.7732" font-family="Helvetica,sans-Serif" font-weight="bold" font-size="11.00" fill="#000000">chapters</text>
<text text-anchor="start" x="65.0219" y="-292.2732" font-family="Helvetica,sans-Serif" font-size="11.00" fill="#000000">[table]</text>
<polygon fill="none" stroke="#000000" points="8.5,-265.1732 8.5,-284.1732 99.5,-284.1732 99.5,-265.1732 8.5,-265.1732"/>
<text text-anchor="start" x="11.5" y="-271.2732" font-family="Helvetica,sans-Serif" font-size="11.00" fill="#000000">...</text>
<polygon fill="#ffffff" stroke="transparent" points="8.5,-246.1732 8.5,-265.1732 30.5,-265.1732 30.5,-246.1732 8.5,-246.1732"/>
<polygon fill="none" stroke="#000000" points="8.5,-246.1732 8.5,-265.1732 30.5,-265.1732 30.5,-246.1732 8.5,-246.1732"/>
<text text-anchor="start" x="11.5" y="-252.2732" font-family="Helvetica,sans-Serif" font-size="11.00" fill="#000000"> &#160;</text>
<polygon fill="#ffffff" stroke="transparent" points="30.5,-246.1732 30.5,-265.1732 73.5,-265.1732 73.5,-246.1732 30.5,-246.1732"/>
<polygon fill="none" stroke="#000000" points="30.5,-246.1732 30.5,-265.1732 73.5,-265.1732 73.5,-246.1732 30.5,-246.1732"/>
<text text-anchor="start" x="38.1105" y="-252.2732" font-family="Helvetica,sans-Serif" font-size="11.00" fill="#000000">0 rows</text>
<polygon fill="#ffffff" stroke="transparent" points="73.5,-246.1732 73.5,-265.1732 99.5,-265.1732 99.5,-246.1732 73.5,-246.1732"/>
<polygon fill="none" stroke="#000000" points="73.5,-246.1732 73.5,-265.1732 99.5,-265.1732 99.5,-246.1732 73.5,-246.1732"/>
<text text-anchor="start" x="80.9053" y="-252.2732" font-family="Helvetica,sans-Serif" font-size="11.00" fill="#000000">5 &gt;</text>
</a>
</g>
</g>
<!-- chapter_tags&#45;&gt;chapters -->
<g id="edge1" class="edge">
<title>chapter_tags:w&#45;&gt;chapters:e</title>
<path fill="none" stroke="#000000" d="M385.7756,-115.4189C374.6378,-104.8864 378.4226,-79.7632 358,-70.1732 270.299,-28.9908 220.6441,-16.4704 140,-70.1732 82.1327,-108.7084 62.9087,-194.1442 56.5725,-242.3412"/>
<polygon fill="#000000" stroke="#000000" points="391.9407,-117.5546 398.3216,-123.5749 395.7204,-118.8639 399.5,-120.1732 399.5,-120.1732 399.5,-120.1732 395.7204,-118.8639 400.6784,-116.7715 391.9407,-117.5546 391.9407,-117.5546"/>
<ellipse fill="none" stroke="#000000" cx="388.917" cy="-116.5071" rx="3.2" ry="3.2"/>
</g>
<!-- tags -->
<g id="node3" class="node">
<title>tags</title>
<g id="a_node3"><a xlink:href="../../tables/tags.html" xlink:title="tags" target="_top">
<polygon fill="#ffffff" stroke="transparent" points="213.5,-162.6732 213.5,-223.6732 284.5,-223.6732 284.5,-162.6732 213.5,-162.6732"/>
<polygon fill="#f5f5f5" stroke="transparent" points="214,-200.1732 214,-223.1732 285,-223.1732 285,-200.1732 214,-200.1732"/>
<polygon fill="none" stroke="#000000" points="214,-200.1732 214,-223.1732 285,-223.1732 285,-200.1732 214,-200.1732"/>
<text text-anchor="start" x="219" y="-208.7732" font-family="Helvetica,sans-Serif" font-weight="bold" font-size="11.00" fill="#000000">tags</text>
<text text-anchor="start" x="250.0437" y="-208.2732" font-family="Helvetica,sans-Serif" font-size="11.00" fill="#000000">[table]</text>
<polygon fill="none" stroke="#000000" points="214,-181.1732 214,-200.1732 285,-200.1732 285,-181.1732 214,-181.1732"/>
<text text-anchor="start" x="217" y="-187.2732" font-family="Helvetica,sans-Serif" font-size="11.00" fill="#000000">...</text>
<polygon fill="#ffffff" stroke="transparent" points="214,-162.1732 214,-181.1732 226,-181.1732 226,-162.1732 214,-162.1732"/>
<polygon fill="none" stroke="#000000" points="214,-162.1732 214,-181.1732 226,-181.1732 226,-162.1732 214,-162.1732"/>
<text text-anchor="start" x="216.9431" y="-168.2732" font-family="Helvetica,sans-Serif" font-size="11.00" fill="#000000"> &#160;</text>
<polygon fill="#ffffff" stroke="transparent" points="226,-162.1732 226,-181.1732 264,-181.1732 264,-162.1732 226,-162.1732"/>
<polygon fill="none" stroke="#000000" points="226,-162.1732 226,-181.1732 264,-181.1732 264,-162.1732 226,-162.1732"/>
<text text-anchor="start" x="228.8053" y="-168.2732" font-family="Helvetica,sans-Serif" font-size="11.00" fill="#000000">0 rows</text>
<polygon fill="#ffffff" stroke="transparent" points="264,-162.1732 264,-181.1732 285,-181.1732 285,-162.1732 264,-162.1732"/>
<polygon fill="none" stroke="#000000" points="264,-162.1732 264,-181.1732 285,-181.1732 285,-162.1732 264,-162.1732"/>
<text text-anchor="start" x="266.7027" y="-168.2732" font-family="Helvetica,sans-Serif" font-size="11.00" fill="#000000">3 &gt;</text>
</a>
</g>
</g>
<!-- chapter_tags&#45;&gt;tags -->
<g id="edge2" class="edge">
<title>chapter_tags:w&#45;&gt;tags:e</title>
<path fill="none" stroke="#000000" d="M385.3129,-123.7983C375.4781,-130.0242 372.4148,-142.9662 358,-152.1732 327.1743,-171.8622 321.577,-190.1732 285,-190.1732"/>
<polygon fill="#000000" stroke="#000000" points="391.749,-122.1538 400.3913,-123.6611 395.6245,-121.1635 399.5,-120.1732 399.5,-120.1732 399.5,-120.1732 395.6245,-121.1635 398.6087,-116.6853 391.749,-122.1538 391.749,-122.1538"/>
<ellipse fill="none" stroke="#000000" cx="388.6486" cy="-122.946" rx="3.2" ry="3.2"/>
</g>
<!-- chapter_users -->
<g id="node4" class="node">
<title>chapter_users</title>
<g id="a_node4"><a xlink:href="../../tables/chapter_users.html" xlink:title="chapter_users" target="_top">
<polygon fill="#ffffff" stroke="transparent" points="188,-80.6732 188,-141.6732 310,-141.6732 310,-80.6732 188,-80.6732"/>
<polygon fill="#f5f5f5" stroke="transparent" points="188,-118.1732 188,-141.1732 310,-141.1732 310,-118.1732 188,-118.1732"/>
<polygon fill="none" stroke="#000000" points="188,-118.1732 188,-141.1732 310,-141.1732 310,-118.1732 188,-118.1732"/>
<text text-anchor="start" x="193" y="-126.7732" font-family="Helvetica,sans-Serif" font-weight="bold" font-size="11.00" fill="#000000">chapter_users</text>
<text text-anchor="start" x="275.5219" y="-126.2732" font-family="Helvetica,sans-Serif" font-size="11.00" fill="#000000">[table]</text>
<polygon fill="none" stroke="#000000" points="188,-99.1732 188,-118.1732 310,-118.1732 310,-99.1732 188,-99.1732"/>
<text text-anchor="start" x="191" y="-105.2732" font-family="Helvetica,sans-Serif" font-size="11.00" fill="#000000">...</text>
<polygon fill="#ffffff" stroke="transparent" points="188,-80.1732 188,-99.1732 234,-99.1732 234,-80.1732 188,-80.1732"/>
<polygon fill="none" stroke="#000000" points="188,-80.1732 188,-99.1732 234,-99.1732 234,-80.1732 188,-80.1732"/>
<text text-anchor="start" x="191" y="-86.2732" font-family="Helvetica,sans-Serif" font-size="11.00" fill="#000000">&lt; 3</text>
<polygon fill="#ffffff" stroke="transparent" points="234,-80.1732 234,-99.1732 285,-99.1732 285,-80.1732 234,-80.1732"/>
<polygon fill="none" stroke="#000000" points="234,-80.1732 234,-99.1732 285,-99.1732 285,-80.1732 234,-80.1732"/>
<text text-anchor="start" x="249.6105" y="-86.2732" font-family="Helvetica,sans-Serif" font-size="11.00" fill="#000000">0 rows</text>
<polygon fill="#ffffff" stroke="transparent" points="285,-80.1732 285,-99.1732 310,-99.1732 310,-80.1732 285,-80.1732"/>
<polygon fill="none" stroke="#000000" points="285,-80.1732 285,-99.1732 310,-99.1732 310,-80.1732 285,-80.1732"/>
<text text-anchor="start" x="300.8862" y="-86.2732" font-family="Helvetica,sans-Serif" font-size="11.00" fill="#000000"> &#160;</text>
</a>
</g>
</g>
<!-- chapter_users&#45;&gt;chapters -->
<g id="edge3" class="edge">
<title>chapter_users:w&#45;&gt;chapters:e</title>
<path fill="none" stroke="#000000" d="M173.321,-109.5278C114.2499,-120.5873 79.516,-196.7922 63.7509,-242.5657"/>
<polygon fill="#000000" stroke="#000000" points="180.0338,-108.9084 188.3308,-111.758 184.0169,-108.5408 188,-108.1732 188,-108.1732 188,-108.1732 184.0169,-108.5408 187.6692,-104.5884 180.0338,-108.9084 180.0338,-108.9084"/>
<ellipse fill="none" stroke="#000000" cx="176.8474" cy="-109.2024" rx="3.2" ry="3.2"/>
</g>
<!-- event_sponsors -->
<g id="node5" class="node">
<title>event_sponsors</title>
<g id="a_node5"><a xlink:href="../../tables/event_sponsors.html" xlink:title="event_sponsors" target="_top">
<polygon fill="#ffffff" stroke="transparent" points="563,-488.6732 563,-549.6732 694,-549.6732 694,-488.6732 563,-488.6732"/>
<polygon fill="#f5f5f5" stroke="transparent" points="563.5,-526.1732 563.5,-549.1732 694.5,-549.1732 694.5,-526.1732 563.5,-526.1732"/>
<polygon fill="none" stroke="#000000" points="563.5,-526.1732 563.5,-549.1732 694.5,-549.1732 694.5,-526.1732 563.5,-526.1732"/>
<text text-anchor="start" x="568.5" y="-534.7732" font-family="Helvetica,sans-Serif" font-weight="bold" font-size="11.00" fill="#000000">event_sponsors</text>
<text text-anchor="start" x="660.0219" y="-534.2732" font-family="Helvetica,sans-Serif" font-size="11.00" fill="#000000">[table]</text>
<polygon fill="none" stroke="#000000" points="563.5,-507.1732 563.5,-526.1732 694.5,-526.1732 694.5,-507.1732 563.5,-507.1732"/>
<text text-anchor="start" x="566.5" y="-513.2732" font-family="Helvetica,sans-Serif" font-size="11.00" fill="#000000">...</text>
<polygon fill="#ffffff" stroke="transparent" points="563.5,-488.1732 563.5,-507.1732 614.5,-507.1732 614.5,-488.1732 563.5,-488.1732"/>
<polygon fill="none" stroke="#000000" points="563.5,-488.1732 563.5,-507.1732 614.5,-507.1732 614.5,-488.1732 563.5,-488.1732"/>
<text text-anchor="start" x="566.5" y="-494.2732" font-family="Helvetica,sans-Serif" font-size="11.00" fill="#000000">&lt; 2</text>
<polygon fill="#ffffff" stroke="transparent" points="614.5,-488.1732 614.5,-507.1732 667.5,-507.1732 667.5,-488.1732 614.5,-488.1732"/>
<polygon fill="none" stroke="#000000" points="614.5,-488.1732 614.5,-507.1732 667.5,-507.1732 667.5,-488.1732 614.5,-488.1732"/>
<text text-anchor="start" x="632.1105" y="-494.2732" font-family="Helvetica,sans-Serif" font-size="11.00" fill="#000000">0 rows</text>
<polygon fill="#ffffff" stroke="transparent" points="667.5,-488.1732 667.5,-507.1732 694.5,-507.1732 694.5,-488.1732 667.5,-488.1732"/>
<polygon fill="none" stroke="#000000" points="667.5,-488.1732 667.5,-507.1732 694.5,-507.1732 694.5,-488.1732 667.5,-488.1732"/>
<text text-anchor="start" x="685.3862" y="-494.2732" font-family="Helvetica,sans-Serif" font-size="11.00" fill="#000000"> &#160;</text>
</a>
</g>
</g>
<!-- events -->
<g id="node6" class="node">
<title>events</title>
<g id="a_node6"><a xlink:href="../../tables/events.html" xlink:title="events" target="_top">
<polygon fill="#ffffff" stroke="transparent" points="416.5,-444.6732 416.5,-505.6732 496.5,-505.6732 496.5,-444.6732 416.5,-444.6732"/>
<polygon fill="#f5f5f5" stroke="transparent" points="416.5,-482.1732 416.5,-505.1732 496.5,-505.1732 496.5,-482.1732 416.5,-482.1732"/>
<polygon fill="none" stroke="#000000" points="416.5,-482.1732 416.5,-505.1732 496.5,-505.1732 496.5,-482.1732 416.5,-482.1732"/>
<text text-anchor="start" x="421.5" y="-490.7732" font-family="Helvetica,sans-Serif" font-weight="bold" font-size="11.00" fill="#000000">events</text>
<text text-anchor="start" x="462.0219" y="-490.2732" font-family="Helvetica,sans-Serif" font-size="11.00" fill="#000000">[table]</text>
<polygon fill="none" stroke="#000000" points="416.5,-463.1732 416.5,-482.1732 496.5,-482.1732 496.5,-463.1732 416.5,-463.1732"/>
<text text-anchor="start" x="419.5" y="-469.2732" font-family="Helvetica,sans-Serif" font-size="11.00" fill="#000000">...</text>
<polygon fill="#ffffff" stroke="transparent" points="416.5,-444.1732 416.5,-463.1732 437.5,-463.1732 437.5,-444.1732 416.5,-444.1732"/>
<polygon fill="none" stroke="#000000" points="416.5,-444.1732 416.5,-463.1732 437.5,-463.1732 437.5,-444.1732 416.5,-444.1732"/>
<text text-anchor="start" x="419.2027" y="-450.2732" font-family="Helvetica,sans-Serif" font-size="11.00" fill="#000000">&lt; 2</text>
<polygon fill="#ffffff" stroke="transparent" points="437.5,-444.1732 437.5,-463.1732 475.5,-463.1732 475.5,-444.1732 437.5,-444.1732"/>
<polygon fill="none" stroke="#000000" points="437.5,-444.1732 437.5,-463.1732 475.5,-463.1732 475.5,-444.1732 437.5,-444.1732"/>
<text text-anchor="start" x="440.3053" y="-450.2732" font-family="Helvetica,sans-Serif" font-size="11.00" fill="#000000">0 rows</text>
<polygon fill="#ffffff" stroke="transparent" points="475.5,-444.1732 475.5,-463.1732 496.5,-463.1732 496.5,-444.1732 475.5,-444.1732"/>
<polygon fill="none" stroke="#000000" points="475.5,-444.1732 475.5,-463.1732 496.5,-463.1732 496.5,-444.1732 475.5,-444.1732"/>
<text text-anchor="start" x="478.2027" y="-450.2732" font-family="Helvetica,sans-Serif" font-size="11.00" fill="#000000">3 &gt;</text>
</a>
</g>
</g>
<!-- event_sponsors&#45;&gt;events -->
<g id="edge4" class="edge">
<title>event_sponsors:w&#45;&gt;events:e</title>
<path fill="none" stroke="#000000" d="M548.8141,-515.1218C533.461,-513.003 518.1707,-507.9197 504.5795,-502.0633"/>
<polygon fill="#000000" stroke="#000000" points="555.5204,-515.6019 563.2429,-519.764 559.5102,-515.8875 563.5,-516.1732 563.5,-516.1732 563.5,-516.1732 559.5102,-515.8875 563.7571,-512.5824 555.5204,-515.6019 555.5204,-515.6019"/>
<ellipse fill="none" stroke="#000000" cx="552.3286" cy="-515.3733" rx="3.2" ry="3.2"/>
</g>
<!-- events&#45;&gt;chapters -->
<g id="edge8" class="edge">
<title>events:w&#45;&gt;chapters:e</title>
<path fill="none" stroke="#000000" d="M443.6871,-523.7751C429.958,-565.0184 403.7049,-621.602 358,-648.1732 274.2377,-696.8696 215.8914,-708.4057 140,-648.1732 87.1598,-606.2357 63.6053,-395.5475 56.2165,-311.6857"/>
<polygon fill="#000000" stroke="#000000" points="445.6412,-517.5352 451.4677,-510.9768 446.8367,-513.718 448.0322,-509.9009 448.0322,-509.9009 448.0322,-509.9009 446.8367,-513.718 444.5968,-508.8249 445.6412,-517.5352 445.6412,-517.5352"/>
<ellipse fill="none" stroke="#000000" cx="444.6848" cy="-520.589" rx="3.2" ry="3.2"/>
</g>
<!-- venues -->
<g id="node9" class="node">
<title>venues</title>
<g id="a_node9"><a xlink:href="../../tables/venues.html" xlink:title="venues" target="_top">
<polygon fill="#ffffff" stroke="transparent" points="148,-245.1732 148,-555.1732 350,-555.1732 350,-245.1732 148,-245.1732"/>
<polygon fill="#f5f5f5" stroke="transparent" points="150,-530.1732 150,-553.1732 348,-553.1732 348,-530.1732 150,-530.1732"/>
<polygon fill="none" stroke="#000000" points="150,-530.1732 150,-553.1732 348,-553.1732 348,-530.1732 150,-530.1732"/>
<text text-anchor="start" x="155" y="-538.7732" font-family="Helvetica,sans-Serif" font-weight="bold" font-size="11.00" fill="#000000">venues</text>
<text text-anchor="start" x="313.0437" y="-538.2732" font-family="Helvetica,sans-Serif" font-size="11.00" fill="#000000">[table]</text>
<polygon fill="none" stroke="#000000" points="150,-508.1732 150,-530.1732 258,-530.1732 258,-508.1732 150,-508.1732"/>
<text text-anchor="start" x="170" y="-515.2732" font-family="Helvetica,sans-Serif" font-size="11.00" fill="#000000">created_at</text>
<polygon fill="none" stroke="#000000" points="258,-508.1732 258,-530.1732 348,-530.1732 348,-508.1732 258,-508.1732"/>
<text text-anchor="start" x="261" y="-515.8732" font-family="Helvetica,sans-Serif" font-size="11.00" fill="#000000">timestamp[26,3]</text>
<polygon fill="none" stroke="#000000" points="150,-486.1732 150,-508.1732 258,-508.1732 258,-486.1732 150,-486.1732"/>
<text text-anchor="start" x="170" y="-493.2732" font-family="Helvetica,sans-Serif" font-size="11.00" fill="#000000">updated_at</text>
<polygon fill="none" stroke="#000000" points="258,-486.1732 258,-508.1732 348,-508.1732 348,-486.1732 258,-486.1732"/>
<text text-anchor="start" x="261" y="-493.8732" font-family="Helvetica,sans-Serif" font-size="11.00" fill="#000000">timestamp[26,3]</text>
<polygon fill="none" stroke="#000000" points="150,-464.1732 150,-486.1732 258,-486.1732 258,-464.1732 150,-464.1732"/>
<image xlink:href="../../images/primaryKeys.png" width="11px" height="12px" preserveAspectRatio="xMinYMin meet" x="155" y="-481.173"/>
<text text-anchor="start" x="170" y="-471.2732" font-family="Helvetica,sans-Serif" font-size="11.00" fill="#000000">id</text>
<polygon fill="none" stroke="#000000" points="258,-464.1732 258,-486.1732 348,-486.1732 348,-464.1732 258,-464.1732"/>
<text text-anchor="start" x="261" y="-471.8732" font-family="Helvetica,sans-Serif" font-size="11.00" fill="#000000">serial[10]</text>
<polygon fill="none" stroke="#000000" points="150,-442.1732 150,-464.1732 258,-464.1732 258,-442.1732 150,-442.1732"/>
<text text-anchor="start" x="170" y="-449.2732" font-family="Helvetica,sans-Serif" font-size="11.00" fill="#000000">name</text>
<polygon fill="none" stroke="#000000" points="258,-442.1732 258,-464.1732 348,-464.1732 348,-442.1732 258,-442.1732"/>
<text text-anchor="start" x="260.5043" y="-449.8732" font-family="Helvetica,sans-Serif" font-size="11.00" fill="#000000">text[2147483647]</text>
<polygon fill="none" stroke="#000000" points="150,-420.1732 150,-442.1732 258,-442.1732 258,-420.1732 150,-420.1732"/>
<text text-anchor="start" x="170" y="-427.2732" font-family="Helvetica,sans-Serif" font-size="11.00" fill="#000000">street_address</text>
<polygon fill="none" stroke="#000000" points="258,-420.1732 258,-442.1732 348,-442.1732 348,-420.1732 258,-420.1732"/>
<text text-anchor="start" x="260.5043" y="-427.8732" font-family="Helvetica,sans-Serif" font-size="11.00" fill="#000000">text[2147483647]</text>
<polygon fill="none" stroke="#000000" points="150,-398.1732 150,-420.1732 258,-420.1732 258,-398.1732 150,-398.1732"/>
<text text-anchor="start" x="170" y="-405.2732" font-family="Helvetica,sans-Serif" font-size="11.00" fill="#000000">city</text>
<polygon fill="none" stroke="#000000" points="258,-398.1732 258,-420.1732 348,-420.1732 348,-398.1732 258,-398.1732"/>
<text text-anchor="start" x="260.5043" y="-405.8732" font-family="Helvetica,sans-Serif" font-size="11.00" fill="#000000">text[2147483647]</text>
<polygon fill="none" stroke="#000000" points="150,-376.1732 150,-398.1732 258,-398.1732 258,-376.1732 150,-376.1732"/>
<text text-anchor="start" x="170" y="-383.2732" font-family="Helvetica,sans-Serif" font-size="11.00" fill="#000000">postal_code</text>
<polygon fill="none" stroke="#000000" points="258,-376.1732 258,-398.1732 348,-398.1732 348,-376.1732 258,-376.1732"/>
<text text-anchor="start" x="260.5043" y="-383.8732" font-family="Helvetica,sans-Serif" font-size="11.00" fill="#000000">text[2147483647]</text>
<polygon fill="none" stroke="#000000" points="150,-354.1732 150,-376.1732 258,-376.1732 258,-354.1732 150,-354.1732"/>
<text text-anchor="start" x="170" y="-361.2732" font-family="Helvetica,sans-Serif" font-size="11.00" fill="#000000">region</text>
<polygon fill="none" stroke="#000000" points="258,-354.1732 258,-376.1732 348,-376.1732 348,-354.1732 258,-354.1732"/>
<text text-anchor="start" x="260.5043" y="-361.8732" font-family="Helvetica,sans-Serif" font-size="11.00" fill="#000000">text[2147483647]</text>
<polygon fill="none" stroke="#000000" points="150,-332.1732 150,-354.1732 258,-354.1732 258,-332.1732 150,-332.1732"/>
<text text-anchor="start" x="170" y="-339.2732" font-family="Helvetica,sans-Serif" font-size="11.00" fill="#000000">country</text>
<polygon fill="none" stroke="#000000" points="258,-332.1732 258,-354.1732 348,-354.1732 348,-332.1732 258,-332.1732"/>
<text text-anchor="start" x="260.5043" y="-339.8732" font-family="Helvetica,sans-Serif" font-size="11.00" fill="#000000">text[2147483647]</text>
<polygon fill="none" stroke="#000000" points="150,-310.1732 150,-332.1732 258,-332.1732 258,-310.1732 150,-310.1732"/>
<text text-anchor="start" x="170" y="-317.2732" font-family="Helvetica,sans-Serif" font-size="11.00" fill="#000000">latitude</text>
<polygon fill="none" stroke="#000000" points="258,-310.1732 258,-332.1732 348,-332.1732 348,-310.1732 258,-310.1732"/>
<text text-anchor="start" x="261" y="-317.8732" font-family="Helvetica,sans-Serif" font-size="11.00" fill="#000000">float8[17,17]</text>
<polygon fill="none" stroke="#000000" points="150,-288.1732 150,-310.1732 258,-310.1732 258,-288.1732 150,-288.1732"/>
<text text-anchor="start" x="170" y="-295.2732" font-family="Helvetica,sans-Serif" font-size="11.00" fill="#000000">longitude</text>
<polygon fill="none" stroke="#000000" points="258,-288.1732 258,-310.1732 348,-310.1732 348,-288.1732 258,-288.1732"/>
<text text-anchor="start" x="261" y="-295.8732" font-family="Helvetica,sans-Serif" font-size="11.00" fill="#000000">float8[17,17]</text>
<polygon fill="none" stroke="#000000" points="150,-266.1732 150,-288.1732 258,-288.1732 258,-266.1732 150,-266.1732"/>
<image xlink:href="../../images/foreignKeys.png" width="11px" height="12px" preserveAspectRatio="xMinYMin meet" x="155" y="-283.173"/>
<text text-anchor="start" x="170" y="-273.2732" font-family="Helvetica,sans-Serif" font-size="11.00" fill="#000000">chapter_id</text>
<polygon fill="none" stroke="#000000" points="258,-266.1732 258,-288.1732 348,-288.1732 348,-266.1732 258,-266.1732"/>
<text text-anchor="start" x="261" y="-273.8732" font-family="Helvetica,sans-Serif" font-size="11.00" fill="#000000">int4[10]</text>
<polygon fill="#ffffff" stroke="transparent" points="150,-247.1732 150,-266.1732 195,-266.1732 195,-247.1732 150,-247.1732"/>
<polygon fill="none" stroke="#000000" points="150,-247.1732 150,-266.1732 195,-266.1732 195,-247.1732 150,-247.1732"/>
<text text-anchor="start" x="153" y="-253.2732" font-family="Helvetica,sans-Serif" font-size="11.00" fill="#000000">&lt; 1</text>
<polygon fill="#ffffff" stroke="transparent" points="195,-247.1732 195,-266.1732 258,-266.1732 258,-247.1732 195,-247.1732"/>
<polygon fill="none" stroke="#000000" points="195,-247.1732 195,-266.1732 258,-266.1732 258,-247.1732 195,-247.1732"/>
<text text-anchor="start" x="222.6105" y="-253.2732" font-family="Helvetica,sans-Serif" font-size="11.00" fill="#000000">0 rows</text>
<polygon fill="#ffffff" stroke="transparent" points="258,-247.1732 258,-266.1732 348,-266.1732 348,-247.1732 258,-247.1732"/>
<polygon fill="none" stroke="#000000" points="258,-247.1732 258,-266.1732 348,-266.1732 348,-247.1732 258,-247.1732"/>
<text text-anchor="start" x="329.4053" y="-253.2732" font-family="Helvetica,sans-Serif" font-size="11.00" fill="#000000">2 &gt;</text>
<polygon fill="none" stroke="#000000" stroke-width="2" points="149,-246.1732 149,-554.1732 349,-554.1732 349,-246.1732 149,-246.1732"/>
</a>
</g>
</g>
<!-- events&#45;&gt;venues -->
<g id="edge9" class="edge">
<title>events:w&#45;&gt;venues:e</title>
<path fill="none" stroke="#000000" d="M393.8188,-475.1732C378.8088,-475.1732 362.834,-475.1732 348,-475.1732"/>
<polygon fill="#000000" stroke="#000000" points="400.4292,-475.1733 408.4292,-478.7732 404.4292,-475.1732 408.4292,-475.1732 408.4292,-475.1732 408.4292,-475.1732 404.4292,-475.1732 408.4292,-471.5732 400.4292,-475.1733 400.4292,-475.1733"/>
<ellipse fill="none" stroke="#000000" cx="397.2292" cy="-475.1733" rx="3.2" ry="3.2"/>
</g>
<!-- event_tags -->
<g id="node7" class="node">
<title>event_tags</title>
<g id="a_node7"><a xlink:href="../../tables/event_tags.html" xlink:title="event_tags" target="_top">
<polygon fill="#ffffff" stroke="transparent" points="577,-264.6732 577,-325.6732 680,-325.6732 680,-264.6732 577,-264.6732"/>
<polygon fill="#f5f5f5" stroke="transparent" points="577.5,-302.1732 577.5,-325.1732 680.5,-325.1732 680.5,-302.1732 577.5,-302.1732"/>
<polygon fill="none" stroke="#000000" points="577.5,-302.1732 577.5,-325.1732 680.5,-325.1732 680.5,-302.1732 577.5,-302.1732"/>
<text text-anchor="start" x="582.5" y="-310.7732" font-family="Helvetica,sans-Serif" font-weight="bold" font-size="11.00" fill="#000000">event_tags</text>
<text text-anchor="start" x="646.0219" y="-310.2732" font-family="Helvetica,sans-Serif" font-size="11.00" fill="#000000">[table]</text>
<polygon fill="none" stroke="#000000" points="577.5,-283.1732 577.5,-302.1732 680.5,-302.1732 680.5,-283.1732 577.5,-283.1732"/>
<text text-anchor="start" x="580.5" y="-289.2732" font-family="Helvetica,sans-Serif" font-size="11.00" fill="#000000">...</text>
<polygon fill="#ffffff" stroke="transparent" points="577.5,-264.1732 577.5,-283.1732 614.5,-283.1732 614.5,-264.1732 577.5,-264.1732"/>
<polygon fill="none" stroke="#000000" points="577.5,-264.1732 577.5,-283.1732 614.5,-283.1732 614.5,-264.1732 577.5,-264.1732"/>
<text text-anchor="start" x="580.5" y="-270.2732" font-family="Helvetica,sans-Serif" font-size="11.00" fill="#000000">&lt; 2</text>
<polygon fill="#ffffff" stroke="transparent" points="614.5,-264.1732 614.5,-283.1732 660.5,-283.1732 660.5,-264.1732 614.5,-264.1732"/>
<polygon fill="none" stroke="#000000" points="614.5,-264.1732 614.5,-283.1732 660.5,-283.1732 660.5,-264.1732 614.5,-264.1732"/>
<text text-anchor="start" x="625.1105" y="-270.2732" font-family="Helvetica,sans-Serif" font-size="11.00" fill="#000000">0 rows</text>
<polygon fill="#ffffff" stroke="transparent" points="660.5,-264.1732 660.5,-283.1732 680.5,-283.1732 680.5,-264.1732 660.5,-264.1732"/>
<polygon fill="none" stroke="#000000" points="660.5,-264.1732 660.5,-283.1732 680.5,-283.1732 680.5,-264.1732 660.5,-264.1732"/>
<text text-anchor="start" x="671.3862" y="-270.2732" font-family="Helvetica,sans-Serif" font-size="11.00" fill="#000000"> &#160;</text>
</a>
</g>
</g>
<!-- event_tags&#45;&gt;tags -->
<g id="edge6" class="edge">
<title>event_tags:w&#45;&gt;tags:e</title>
<path fill="none" stroke="#000000" d="M563.2888,-289.7025C547.3247,-283.282 543.5687,-265.8962 522,-256.1732 422.3187,-211.2377 394.3415,-190.1732 285,-190.1732"/>
<polygon fill="#000000" stroke="#000000" points="569.6182,-290.8029 576.8833,-295.72 573.5591,-291.488 577.5,-292.1732 577.5,-292.1732 577.5,-292.1732 573.5591,-291.488 578.1167,-288.6264 569.6182,-290.8029 569.6182,-290.8029"/>
<ellipse fill="none" stroke="#000000" cx="566.4655" cy="-290.2547" rx="3.2" ry="3.2"/>
</g>
<!-- event_tags&#45;&gt;events -->
<g id="edge5" class="edge">
<title>event_tags:w&#45;&gt;events:e</title>
<path fill="none" stroke="#000000" d="M563.0683,-294.296C534.0785,-304.3001 544.7421,-347.6947 522,-382.1732 509.0603,-401.7906 493.9973,-423.2654 481.5809,-440.6318"/>
<polygon fill="#000000" stroke="#000000" points="569.5852,-293.3375 578.0239,-295.7349 573.5426,-292.7553 577.5,-292.1732 577.5,-292.1732 577.5,-292.1732 573.5426,-292.7553 576.9761,-288.6115 569.5852,-293.3375 569.5852,-293.3375"/>
<ellipse fill="none" stroke="#000000" cx="566.4192" cy="-293.8032" rx="3.2" ry="3.2"/>
</g>
<!-- event_users -->
<g id="node8" class="node">
<title>event_users</title>
<g id="a_node8"><a xlink:href="../../tables/event_users.html" xlink:title="event_users" target="_top">
<polygon fill="#ffffff" stroke="transparent" points="573.5,-406.6732 573.5,-467.6732 683.5,-467.6732 683.5,-406.6732 573.5,-406.6732"/>
<polygon fill="#f5f5f5" stroke="transparent" points="573.5,-444.1732 573.5,-467.1732 683.5,-467.1732 683.5,-444.1732 573.5,-444.1732"/>
<polygon fill="none" stroke="#000000" points="573.5,-444.1732 573.5,-467.1732 683.5,-467.1732 683.5,-444.1732 573.5,-444.1732"/>
<text text-anchor="start" x="578.5" y="-452.7732" font-family="Helvetica,sans-Serif" font-weight="bold" font-size="11.00" fill="#000000">event_users</text>
<text text-anchor="start" x="649.0219" y="-452.2732" font-family="Helvetica,sans-Serif" font-size="11.00" fill="#000000">[table]</text>
<polygon fill="none" stroke="#000000" points="573.5,-425.1732 573.5,-444.1732 683.5,-444.1732 683.5,-425.1732 573.5,-425.1732"/>
<text text-anchor="start" x="576.5" y="-431.2732" font-family="Helvetica,sans-Serif" font-size="11.00" fill="#000000">...</text>
<polygon fill="#ffffff" stroke="transparent" points="573.5,-406.1732 573.5,-425.1732 609.5,-425.1732 609.5,-406.1732 573.5,-406.1732"/>
<polygon fill="none" stroke="#000000" points="573.5,-406.1732 573.5,-425.1732 609.5,-425.1732 609.5,-406.1732 573.5,-406.1732"/>
<text text-anchor="start" x="576.5" y="-412.2732" font-family="Helvetica,sans-Serif" font-size="11.00" fill="#000000">&lt; 4</text>
<polygon fill="#ffffff" stroke="transparent" points="609.5,-406.1732 609.5,-425.1732 654.5,-425.1732 654.5,-406.1732 609.5,-406.1732"/>
<polygon fill="none" stroke="#000000" points="609.5,-406.1732 609.5,-425.1732 654.5,-425.1732 654.5,-406.1732 609.5,-406.1732"/>
<text text-anchor="start" x="619.1105" y="-412.2732" font-family="Helvetica,sans-Serif" font-size="11.00" fill="#000000">0 rows</text>
<polygon fill="#ffffff" stroke="transparent" points="654.5,-406.1732 654.5,-425.1732 683.5,-425.1732 683.5,-406.1732 654.5,-406.1732"/>
<polygon fill="none" stroke="#000000" points="654.5,-406.1732 654.5,-425.1732 683.5,-425.1732 683.5,-406.1732 654.5,-406.1732"/>
<text text-anchor="start" x="664.9053" y="-412.2732" font-family="Helvetica,sans-Serif" font-size="11.00" fill="#000000">2 &gt;</text>
</a>
</g>
</g>
<!-- event_users&#45;&gt;events -->
<g id="edge7" class="edge">
<title>event_users:w&#45;&gt;events:e</title>
<path fill="none" stroke="#000000" d="M559.0955,-435.0402C540.1756,-437.2383 521.1569,-443.34 504.7228,-450.1423"/>
<polygon fill="#000000" stroke="#000000" points="565.5145,-434.6539 573.7163,-437.7667 569.5072,-434.4136 573.5,-434.1732 573.5,-434.1732 573.5,-434.1732 569.5072,-434.4136 573.2837,-430.5797 565.5145,-434.6539 565.5145,-434.6539"/>
<ellipse fill="none" stroke="#000000" cx="562.3202" cy="-434.8462" rx="3.2" ry="3.2"/>
</g>
<!-- venues&#45;&gt;chapters -->
<g id="edge13" class="edge">
<title>venues:w&#45;&gt;chapters:e</title>
<path fill="none" stroke="#000000" d="M135.3496,-277.1732C125.8857,-277.1732 116.261,-277.1732 107.0951,-277.1732"/>
<polygon fill="#000000" stroke="#000000" points="142,-277.1733 150,-280.7732 146,-277.1732 150,-277.1732 150,-277.1732 150,-277.1732 146,-277.1732 150,-273.5732 142,-277.1733 142,-277.1733"/>
<ellipse fill="none" stroke="#000000" cx="138.8" cy="-277.1733" rx="3.2" ry="3.2"/>
</g>
<!-- user_bans -->
<g id="node10" class="node">
<title>user_bans</title>
<g id="a_node10"><a xlink:href="../../tables/user_bans.html" xlink:title="user_bans" target="_top">
<polygon fill="#ffffff" stroke="transparent" points="199.5,-576.6732 199.5,-637.6732 298.5,-637.6732 298.5,-576.6732 199.5,-576.6732"/>
<polygon fill="#f5f5f5" stroke="transparent" points="200,-614.1732 200,-637.1732 299,-637.1732 299,-614.1732 200,-614.1732"/>
<polygon fill="none" stroke="#000000" points="200,-614.1732 200,-637.1732 299,-637.1732 299,-614.1732 200,-614.1732"/>
<text text-anchor="start" x="205" y="-622.7732" font-family="Helvetica,sans-Serif" font-weight="bold" font-size="11.00" fill="#000000">user_bans</text>
<text text-anchor="start" x="264.5219" y="-622.2732" font-family="Helvetica,sans-Serif" font-size="11.00" fill="#000000">[table]</text>
<polygon fill="none" stroke="#000000" points="200,-595.1732 200,-614.1732 299,-614.1732 299,-595.1732 200,-595.1732"/>
<text text-anchor="start" x="203" y="-601.2732" font-family="Helvetica,sans-Serif" font-size="11.00" fill="#000000">...</text>
<polygon fill="#ffffff" stroke="transparent" points="200,-576.1732 200,-595.1732 235,-595.1732 235,-576.1732 200,-576.1732"/>
<polygon fill="none" stroke="#000000" points="200,-576.1732 200,-595.1732 235,-595.1732 235,-576.1732 200,-576.1732"/>
<text text-anchor="start" x="203" y="-582.2732" font-family="Helvetica,sans-Serif" font-size="11.00" fill="#000000">&lt; 2</text>
<polygon fill="#ffffff" stroke="transparent" points="235,-576.1732 235,-595.1732 280,-595.1732 280,-576.1732 235,-576.1732"/>
<polygon fill="none" stroke="#000000" points="235,-576.1732 235,-595.1732 280,-595.1732 280,-576.1732 235,-576.1732"/>
<text text-anchor="start" x="244.6105" y="-582.2732" font-family="Helvetica,sans-Serif" font-size="11.00" fill="#000000">0 rows</text>
<polygon fill="#ffffff" stroke="transparent" points="280,-576.1732 280,-595.1732 299,-595.1732 299,-576.1732 280,-576.1732"/>
<polygon fill="none" stroke="#000000" points="280,-576.1732 280,-595.1732 299,-595.1732 299,-576.1732 280,-576.1732"/>
<text text-anchor="start" x="289.8862" y="-582.2732" font-family="Helvetica,sans-Serif" font-size="11.00" fill="#000000"> &#160;</text>
</a>
</g>
</g>
<!-- user_bans&#45;&gt;chapters -->
<g id="edge10" class="edge">
<title>user_bans:w&#45;&gt;chapters:e</title>
<path fill="none" stroke="#000000" d="M185.5294,-603.0377C164.9279,-599.3945 155.7887,-587.0059 140,-566.1732 80.8449,-488.1196 61.9566,-369.8915 56.0721,-311.8295"/>
<polygon fill="#000000" stroke="#000000" points="192.0245,-603.5473 199.7183,-607.7622 196.0123,-603.8603 200,-604.1732 200,-604.1732 200,-604.1732 196.0123,-603.8603 200.2817,-600.5842 192.0245,-603.5473 192.0245,-603.5473"/>
<ellipse fill="none" stroke="#000000" cx="188.8343" cy="-603.2969" rx="3.2" ry="3.2"/>
</g>
<!-- venue_tags -->
<g id="node11" class="node">
<title>venue_tags</title>
<g id="a_node11"><a xlink:href="../../tables/venue_tags.html" xlink:title="venue_tags" target="_top">
<polygon fill="#ffffff" stroke="transparent" points="404,-266.6732 404,-371.6732 509,-371.6732 509,-266.6732 404,-266.6732"/>
<polygon fill="#f5f5f5" stroke="transparent" points="404.5,-348.1732 404.5,-371.1732 509.5,-371.1732 509.5,-348.1732 404.5,-348.1732"/>
<polygon fill="none" stroke="#000000" points="404.5,-348.1732 404.5,-371.1732 509.5,-371.1732 509.5,-348.1732 404.5,-348.1732"/>
<text text-anchor="start" x="409.5" y="-356.7732" font-family="Helvetica,sans-Serif" font-weight="bold" font-size="11.00" fill="#000000">venue_tags</text>
<text text-anchor="start" x="475.0219" y="-356.2732" font-family="Helvetica,sans-Serif" font-size="11.00" fill="#000000">[table]</text>
<polygon fill="none" stroke="#000000" points="404.5,-326.1732 404.5,-348.1732 509.5,-348.1732 509.5,-326.1732 404.5,-326.1732"/>
<image xlink:href="../../images/primaryKeys.png" width="11px" height="12px" preserveAspectRatio="xMinYMin meet" x="409.5" y="-343.173"/>
<text text-anchor="start" x="433.5" y="-333.2732" font-family="Helvetica,sans-Serif" font-size="11.00" fill="#000000">venue_id</text>
<polygon fill="none" stroke="#000000" points="404.5,-304.1732 404.5,-326.1732 509.5,-326.1732 509.5,-304.1732 404.5,-304.1732"/>
<image xlink:href="../../images/primaryKeys.png" width="11px" height="12px" preserveAspectRatio="xMinYMin meet" x="409.5" y="-321.173"/>
<text text-anchor="start" x="433.5" y="-311.2732" font-family="Helvetica,sans-Serif" font-size="11.00" fill="#000000">tag_id</text>
<polygon fill="none" stroke="#000000" points="404.5,-285.1732 404.5,-304.1732 509.5,-304.1732 509.5,-285.1732 404.5,-285.1732"/>
<text text-anchor="start" x="407.5" y="-291.2732" font-family="Helvetica,sans-Serif" font-size="11.00" fill="#000000">...</text>
<polygon fill="#ffffff" stroke="transparent" points="404.5,-266.1732 404.5,-285.1732 442.5,-285.1732 442.5,-266.1732 404.5,-266.1732"/>
<polygon fill="none" stroke="#000000" points="404.5,-266.1732 404.5,-285.1732 442.5,-285.1732 442.5,-266.1732 404.5,-266.1732"/>
<text text-anchor="start" x="407.5" y="-272.2732" font-family="Helvetica,sans-Serif" font-size="11.00" fill="#000000">&lt; 2</text>
<polygon fill="#ffffff" stroke="transparent" points="442.5,-266.1732 442.5,-285.1732 488.5,-285.1732 488.5,-266.1732 442.5,-266.1732"/>
<polygon fill="none" stroke="#000000" points="442.5,-266.1732 442.5,-285.1732 488.5,-285.1732 488.5,-266.1732 442.5,-266.1732"/>
<text text-anchor="start" x="453.1105" y="-272.2732" font-family="Helvetica,sans-Serif" font-size="11.00" fill="#000000">0 rows</text>
<polygon fill="#ffffff" stroke="transparent" points="488.5,-266.1732 488.5,-285.1732 509.5,-285.1732 509.5,-266.1732 488.5,-266.1732"/>
<polygon fill="none" stroke="#000000" points="488.5,-266.1732 488.5,-285.1732 509.5,-285.1732 509.5,-266.1732 488.5,-266.1732"/>
<text text-anchor="start" x="500.3862" y="-272.2732" font-family="Helvetica,sans-Serif" font-size="11.00" fill="#000000"> &#160;</text>
</a>
</g>
</g>
<!-- venue_tags&#45;&gt;tags -->
<g id="edge11" class="edge">
<title>venue_tags:w&#45;&gt;tags:e</title>
<path fill="none" stroke="#000000" d="M390.2516,-312.1765C368.8322,-300.7864 382.8412,-259.5491 358,-234.1732 331.4999,-207.1028 322.8822,-190.1732 285,-190.1732"/>
<polygon fill="#000000" stroke="#000000" points="396.6713,-313.5266 403.759,-318.6961 400.5856,-314.3499 404.5,-315.1732 404.5,-315.1732 404.5,-315.1732 400.5856,-314.3499 405.241,-311.6503 396.6713,-313.5266 396.6713,-313.5266"/>
<ellipse fill="none" stroke="#000000" cx="393.5398" cy="-312.868" rx="3.2" ry="3.2"/>
</g>
<!-- venue_tags&#45;&gt;venues -->
<g id="edge12" class="edge">
<title>venue_tags:w&#45;&gt;venues:e</title>
<path fill="none" stroke="#000000" d="M390.3862,-340.0555C350.2451,-359.8728 408.5793,-475.1732 348,-475.1732"/>
<polygon fill="#000000" stroke="#000000" points="396.6618,-338.774 405.2203,-340.7004 400.5809,-337.9736 404.5,-337.1732 404.5,-337.1732 404.5,-337.1732 400.5809,-337.9736 403.7797,-333.646 396.6618,-338.774 396.6618,-338.774"/>
<ellipse fill="none" stroke="#000000" cx="393.5265" cy="-339.4143" rx="3.2" ry="3.2"/>
</g>
</g>
</svg>
