<?xml version="1.0" encoding="UTF-8" standalone="no"?>
<!DOCTYPE svg PUBLIC "-//W3C//DTD SVG 1.1//EN"
 "http://www.w3.org/Graphics/SVG/1.1/DTD/svg11.dtd">
<!-- Generated by graphviz version 2.40.1 (20161225.0304)
 -->
<!-- Title: twoDegreesRelationshipsDiagram Pages: 1 -->
<svg width="649pt" height="383pt"
 viewBox="0.00 0.00 649.00 383.20" xmlns="http://www.w3.org/2000/svg" xmlns:xlink="http://www.w3.org/1999/xlink">
<g id="graph0" class="graph" transform="scale(1 1) rotate(0) translate(4 379.2)">
<title>twoDegreesRelationshipsDiagram</title>
<polygon fill="#ffffff" stroke="transparent" points="-4,4 -4,-379.2 645,-379.2 645,4 -4,4"/>
<text text-anchor="middle" x="72.4936" y="-7.3" font-family="Helvetica,sans-Serif" font-size="11.00" fill="#000000">Generated by SchemaSpy</text>
<!-- chapter_tags -->
<g id="node1" class="node">
<title>chapter_tags</title>
<g id="a_node1"><a xlink:href="../../tables/chapter_tags.html" xlink:title="chapter_tags" target="_top">
<polygon fill="#ffffff" stroke="transparent" points="335.5,-38.2 335.5,-99.2 450.5,-99.2 450.5,-38.2 335.5,-38.2"/>
<polygon fill="#f5f5f5" stroke="transparent" points="336,-75.7 336,-98.7 451,-98.7 451,-75.7 336,-75.7"/>
<polygon fill="none" stroke="#000000" points="336,-75.7 336,-98.7 451,-98.7 451,-75.7 336,-75.7"/>
<text text-anchor="start" x="341" y="-84.3" font-family="Helvetica,sans-Serif" font-weight="bold" font-size="11.00" fill="#000000">chapter_tags</text>
<text text-anchor="start" x="416.5219" y="-83.8" font-family="Helvetica,sans-Serif" font-size="11.00" fill="#000000">[table]</text>
<polygon fill="none" stroke="#000000" points="336,-56.7 336,-75.7 451,-75.7 451,-56.7 336,-56.7"/>
<text text-anchor="start" x="339" y="-62.8" font-family="Helvetica,sans-Serif" font-size="11.00" fill="#000000">...</text>
<polygon fill="#ffffff" stroke="transparent" points="336,-37.7 336,-56.7 379,-56.7 379,-37.7 336,-37.7"/>
<polygon fill="none" stroke="#000000" points="336,-37.7 336,-56.7 379,-56.7 379,-37.7 336,-37.7"/>
<text text-anchor="start" x="339" y="-43.8" font-family="Helvetica,sans-Serif" font-size="11.00" fill="#000000">&lt; 2</text>
<polygon fill="#ffffff" stroke="transparent" points="379,-37.7 379,-56.7 428,-56.7 428,-37.7 379,-37.7"/>
<polygon fill="none" stroke="#000000" points="379,-37.7 379,-56.7 428,-56.7 428,-37.7 379,-37.7"/>
<text text-anchor="start" x="392.6105" y="-43.8" font-family="Helvetica,sans-Serif" font-size="11.00" fill="#000000">0 rows</text>
<polygon fill="#ffffff" stroke="transparent" points="428,-37.7 428,-56.7 451,-56.7 451,-37.7 428,-37.7"/>
<polygon fill="none" stroke="#000000" points="428,-37.7 428,-56.7 451,-56.7 451,-37.7 428,-37.7"/>
<text text-anchor="start" x="441.8862" y="-43.8" font-family="Helvetica,sans-Serif" font-size="11.00" fill="#000000"> &#160;</text>
</a>
</g>
</g>
<!-- chapters -->
<g id="node2" class="node">
<title>chapters</title>
<g id="a_node2"><a xlink:href="../../tables/chapters.html" xlink:title="chapters" target="_top">
<polygon fill="#ffffff" stroke="transparent" points="8,-229.2 8,-290.2 99,-290.2 99,-229.2 8,-229.2"/>
<polygon fill="#f5f5f5" stroke="transparent" points="8.5,-266.7 8.5,-289.7 99.5,-289.7 99.5,-266.7 8.5,-266.7"/>
<polygon fill="none" stroke="#000000" points="8.5,-266.7 8.5,-289.7 99.5,-289.7 99.5,-266.7 8.5,-266.7"/>
<text text-anchor="start" x="13.5" y="-275.3" font-family="Helvetica,sans-Serif" font-weight="bold" font-size="11.00" fill="#000000">chapters</text>
<text text-anchor="start" x="65.0219" y="-274.8" font-family="Helvetica,sans-Serif" font-size="11.00" fill="#000000">[table]</text>
<polygon fill="none" stroke="#000000" points="8.5,-247.7 8.5,-266.7 99.5,-266.7 99.5,-247.7 8.5,-247.7"/>
<text text-anchor="start" x="11.5" y="-253.8" font-family="Helvetica,sans-Serif" font-size="11.00" fill="#000000">...</text>
<polygon fill="#ffffff" stroke="transparent" points="8.5,-228.7 8.5,-247.7 30.5,-247.7 30.5,-228.7 8.5,-228.7"/>
<polygon fill="none" stroke="#000000" points="8.5,-228.7 8.5,-247.7 30.5,-247.7 30.5,-228.7 8.5,-228.7"/>
<text text-anchor="start" x="11.5" y="-234.8" font-family="Helvetica,sans-Serif" font-size="11.00" fill="#000000"> &#160;</text>
<polygon fill="#ffffff" stroke="transparent" points="30.5,-228.7 30.5,-247.7 73.5,-247.7 73.5,-228.7 30.5,-228.7"/>
<polygon fill="none" stroke="#000000" points="30.5,-228.7 30.5,-247.7 73.5,-247.7 73.5,-228.7 30.5,-228.7"/>
<text text-anchor="start" x="38.1105" y="-234.8" font-family="Helvetica,sans-Serif" font-size="11.00" fill="#000000">0 rows</text>
<polygon fill="#ffffff" stroke="transparent" points="73.5,-228.7 73.5,-247.7 99.5,-247.7 99.5,-228.7 73.5,-228.7"/>
<polygon fill="none" stroke="#000000" points="73.5,-228.7 73.5,-247.7 99.5,-247.7 99.5,-228.7 73.5,-228.7"/>
<text text-anchor="start" x="80.9053" y="-234.8" font-family="Helvetica,sans-Serif" font-size="11.00" fill="#000000">5 &gt;</text>
</a>
</g>
</g>
<!-- chapter_tags&#45;&gt;chapters -->
<g id="edge1" class="edge">
<title>chapter_tags:w&#45;&gt;chapters:e</title>
<path fill="none" stroke="#000000" d="M321.1333,-65.2196C243.8634,-60.2406 203.1233,-19.2893 140,-71.7 75.2425,-125.4676 183.6694,-256.7 99.5,-256.7"/>
<polygon fill="#000000" stroke="#000000" points="328.0042,-65.4416 335.8837,-69.2981 332.0021,-65.5708 336,-65.7 336,-65.7 336,-65.7 332.0021,-65.5708 336.1163,-62.1019 328.0042,-65.4416 328.0042,-65.4416"/>
<ellipse fill="none" stroke="#000000" cx="324.8058" cy="-65.3382" rx="3.2" ry="3.2"/>
</g>
<!-- tags -->
<g id="node3" class="node">
<title>tags</title>
<g id="a_node3"><a xlink:href="../../tables/tags.html" xlink:title="tags" target="_top">
<polygon fill="#ffffff" stroke="transparent" points="158,-82.2 158,-187.2 246,-187.2 246,-82.2 158,-82.2"/>
<polygon fill="#f5f5f5" stroke="transparent" points="158,-163.7 158,-186.7 246,-186.7 246,-163.7 158,-163.7"/>
<polygon fill="none" stroke="#000000" points="158,-163.7 158,-186.7 246,-186.7 246,-163.7 158,-163.7"/>
<text text-anchor="start" x="163" y="-172.3" font-family="Helvetica,sans-Serif" font-weight="bold" font-size="11.00" fill="#000000">tags</text>
<text text-anchor="start" x="211.0437" y="-171.8" font-family="Helvetica,sans-Serif" font-size="11.00" fill="#000000">[table]</text>
<polygon fill="none" stroke="#000000" points="158,-141.7 158,-163.7 246,-163.7 246,-141.7 158,-141.7"/>
<image xlink:href="../../images/primaryKeys.png" width="11px" height="12px" preserveAspectRatio="xMinYMin meet" x="163" y="-158.7"/>
<text text-anchor="start" x="178" y="-148.8" font-family="Helvetica,sans-Serif" font-size="11.00" fill="#000000">id</text>
<polygon fill="#ffffff" stroke="transparent" points="158,-119.7 158,-141.7 246,-141.7 246,-119.7 158,-119.7"/>
<polygon fill="none" stroke="#000000" points="158,-119.7 158,-141.7 246,-141.7 246,-119.7 158,-119.7"/>
<text text-anchor="start" x="178" y="-126.8" font-family="Helvetica,sans-Serif" font-size="11.00" fill="#000000">name</text>
<polygon fill="none" stroke="#000000" points="158,-100.7 158,-119.7 246,-119.7 246,-100.7 158,-100.7"/>
<text text-anchor="start" x="161" y="-106.8" font-family="Helvetica,sans-Serif" font-size="11.00" fill="#000000">...</text>
<polygon fill="#ffffff" stroke="transparent" points="158,-81.7 158,-100.7 178,-100.7 178,-81.7 158,-81.7"/>
<polygon fill="none" stroke="#000000" points="158,-81.7 158,-100.7 178,-100.7 178,-81.7 158,-81.7"/>
<text text-anchor="start" x="161" y="-87.8" font-family="Helvetica,sans-Serif" font-size="11.00" fill="#000000"> &#160;</text>
<polygon fill="#ffffff" stroke="transparent" points="178,-81.7 178,-100.7 220,-100.7 220,-81.7 178,-81.7"/>
<polygon fill="none" stroke="#000000" points="178,-81.7 178,-100.7 220,-100.7 220,-81.7 178,-81.7"/>
<text text-anchor="start" x="184.6105" y="-87.8" font-family="Helvetica,sans-Serif" font-size="11.00" fill="#000000">0 rows</text>
<polygon fill="#ffffff" stroke="transparent" points="220,-81.7 220,-100.7 246,-100.7 246,-81.7 220,-81.7"/>
<polygon fill="none" stroke="#000000" points="220,-81.7 220,-100.7 246,-100.7 246,-81.7 220,-81.7"/>
<text text-anchor="start" x="227.4053" y="-87.8" font-family="Helvetica,sans-Serif" font-size="11.00" fill="#000000">3 &gt;</text>
</a>
</g>
</g>
<!-- chapter_tags&#45;&gt;tags -->
<g id="edge2" class="edge">
<title>chapter_tags:w&#45;&gt;tags:e</title>
<path fill="none" stroke="#000000" d="M321.758,-68.027C283.7867,-81.8625 296.2007,-152.7 246,-152.7"/>
<polygon fill="#000000" stroke="#000000" points="328.1047,-66.9901 336.5805,-69.2529 332.0523,-66.345 336,-65.7 336,-65.7 336,-65.7 332.0523,-66.345 335.4195,-62.1471 328.1047,-66.9901 328.1047,-66.9901"/>
<ellipse fill="none" stroke="#000000" cx="324.9466" cy="-67.5061" rx="3.2" ry="3.2"/>
</g>
<!-- event_tags -->
<g id="node4" class="node">
<title>event_tags</title>
<g id="a_node4"><a xlink:href="../../tables/event_tags.html" xlink:title="event_tags" target="_top">
<polygon fill="#ffffff" stroke="transparent" points="530,-206.2 530,-267.2 633,-267.2 633,-206.2 530,-206.2"/>
<polygon fill="#f5f5f5" stroke="transparent" points="530.5,-243.7 530.5,-266.7 633.5,-266.7 633.5,-243.7 530.5,-243.7"/>
<polygon fill="none" stroke="#000000" points="530.5,-243.7 530.5,-266.7 633.5,-266.7 633.5,-243.7 530.5,-243.7"/>
<text text-anchor="start" x="535.5" y="-252.3" font-family="Helvetica,sans-Serif" font-weight="bold" font-size="11.00" fill="#000000">event_tags</text>
<text text-anchor="start" x="599.0219" y="-251.8" font-family="Helvetica,sans-Serif" font-size="11.00" fill="#000000">[table]</text>
<polygon fill="none" stroke="#000000" points="530.5,-224.7 530.5,-243.7 633.5,-243.7 633.5,-224.7 530.5,-224.7"/>
<text text-anchor="start" x="533.5" y="-230.8" font-family="Helvetica,sans-Serif" font-size="11.00" fill="#000000">...</text>
<polygon fill="#ffffff" stroke="transparent" points="530.5,-205.7 530.5,-224.7 567.5,-224.7 567.5,-205.7 530.5,-205.7"/>
<polygon fill="none" stroke="#000000" points="530.5,-205.7 530.5,-224.7 567.5,-224.7 567.5,-205.7 530.5,-205.7"/>
<text text-anchor="start" x="533.5" y="-211.8" font-family="Helvetica,sans-Serif" font-size="11.00" fill="#000000">&lt; 2</text>
<polygon fill="#ffffff" stroke="transparent" points="567.5,-205.7 567.5,-224.7 613.5,-224.7 613.5,-205.7 567.5,-205.7"/>
<polygon fill="none" stroke="#000000" points="567.5,-205.7 567.5,-224.7 613.5,-224.7 613.5,-205.7 567.5,-205.7"/>
<text text-anchor="start" x="578.1105" y="-211.8" font-family="Helvetica,sans-Serif" font-size="11.00" fill="#000000">0 rows</text>
<polygon fill="#ffffff" stroke="transparent" points="613.5,-205.7 613.5,-224.7 633.5,-224.7 633.5,-205.7 613.5,-205.7"/>
<polygon fill="none" stroke="#000000" points="613.5,-205.7 613.5,-224.7 633.5,-224.7 633.5,-205.7 613.5,-205.7"/>
<text text-anchor="start" x="624.3862" y="-211.8" font-family="Helvetica,sans-Serif" font-size="11.00" fill="#000000"> &#160;</text>
</a>
</g>
</g>
<!-- event_tags&#45;&gt;tags -->
<g id="edge4" class="edge">
<title>event_tags:w&#45;&gt;tags:e</title>
<path fill="none" stroke="#000000" d="M516.4365,-230.0719C496.0852,-215.9067 520.8817,-164.1069 489,-143.7 417.1288,-97.6966 382.0081,-136.2568 297,-143.7 274.0708,-145.7077 269.0169,-152.7 246,-152.7"/>
<polygon fill="#000000" stroke="#000000" points="522.7536,-231.7015 529.6007,-237.1859 526.6268,-232.7008 530.5,-233.7 530.5,-233.7 530.5,-233.7 526.6268,-232.7008 531.3993,-230.2141 522.7536,-231.7015 522.7536,-231.7015"/>
<ellipse fill="none" stroke="#000000" cx="519.6551" cy="-230.9022" rx="3.2" ry="3.2"/>
</g>
<!-- events -->
<g id="node5" class="node">
<title>events</title>
<g id="a_node5"><a xlink:href="../../tables/events.html" xlink:title="events" target="_top">
<polygon fill="#ffffff" stroke="transparent" points="353,-310.2 353,-371.2 433,-371.2 433,-310.2 353,-310.2"/>
<polygon fill="#f5f5f5" stroke="transparent" points="353,-347.7 353,-370.7 433,-370.7 433,-347.7 353,-347.7"/>
<polygon fill="none" stroke="#000000" points="353,-347.7 353,-370.7 433,-370.7 433,-347.7 353,-347.7"/>
<text text-anchor="start" x="358" y="-356.3" font-family="Helvetica,sans-Serif" font-weight="bold" font-size="11.00" fill="#000000">events</text>
<text text-anchor="start" x="398.5219" y="-355.8" font-family="Helvetica,sans-Serif" font-size="11.00" fill="#000000">[table]</text>
<polygon fill="none" stroke="#000000" points="353,-328.7 353,-347.7 433,-347.7 433,-328.7 353,-328.7"/>
<text text-anchor="start" x="356" y="-334.8" font-family="Helvetica,sans-Serif" font-size="11.00" fill="#000000">...</text>
<polygon fill="#ffffff" stroke="transparent" points="353,-309.7 353,-328.7 374,-328.7 374,-309.7 353,-309.7"/>
<polygon fill="none" stroke="#000000" points="353,-309.7 353,-328.7 374,-328.7 374,-309.7 353,-309.7"/>
<text text-anchor="start" x="355.7027" y="-315.8" font-family="Helvetica,sans-Serif" font-size="11.00" fill="#000000">&lt; 2</text>
<polygon fill="#ffffff" stroke="transparent" points="374,-309.7 374,-328.7 412,-328.7 412,-309.7 374,-309.7"/>
<polygon fill="none" stroke="#000000" points="374,-309.7 374,-328.7 412,-328.7 412,-309.7 374,-309.7"/>
<text text-anchor="start" x="376.8053" y="-315.8" font-family="Helvetica,sans-Serif" font-size="11.00" fill="#000000">0 rows</text>
<polygon fill="#ffffff" stroke="transparent" points="412,-309.7 412,-328.7 433,-328.7 433,-309.7 412,-309.7"/>
<polygon fill="none" stroke="#000000" points="412,-309.7 412,-328.7 433,-328.7 433,-309.7 412,-309.7"/>
<text text-anchor="start" x="414.7027" y="-315.8" font-family="Helvetica,sans-Serif" font-size="11.00" fill="#000000">3 &gt;</text>
</a>
</g>
</g>
<!-- event_tags&#45;&gt;events -->
<g id="edge3" class="edge">
<title>event_tags:w&#45;&gt;events:e</title>
<path fill="none" stroke="#000000" d="M516.3052,-237.3466C500.7052,-247.9399 508.7453,-279.2537 489,-299.7 468.1057,-321.3361 463.0781,-337.7 433,-337.7"/>
<polygon fill="#000000" stroke="#000000" points="522.7516,-235.6906 531.3958,-237.1868 526.6258,-234.6953 530.5,-233.7 530.5,-233.7 530.5,-233.7 526.6258,-234.6953 529.6042,-230.2132 522.7516,-235.6906 522.7516,-235.6906"/>
<ellipse fill="none" stroke="#000000" cx="519.6522" cy="-236.4868" rx="3.2" ry="3.2"/>
</g>
<!-- events&#45;&gt;chapters -->
<g id="edge5" class="edge">
<title>events:w&#45;&gt;chapters:e</title>
<path fill="none" stroke="#000000" d="M338.4584,-337.9769C254.0971,-341.1871 216.785,-370.3938 140,-323.7 110.2701,-305.621 134.2953,-256.7 99.5,-256.7"/>
<polygon fill="#000000" stroke="#000000" points="345.0014,-337.8523 353.0686,-341.2993 349.0007,-337.7762 353,-337.7 353,-337.7 353,-337.7 349.0007,-337.7762 352.9314,-334.1007 345.0014,-337.8523 345.0014,-337.8523"/>
<ellipse fill="none" stroke="#000000" cx="341.802" cy="-337.9133" rx="3.2" ry="3.2"/>
</g>
<!-- venues -->
<g id="node6" class="node">
<title>venues</title>
<g id="a_node6"><a xlink:href="../../tables/venues.html" xlink:title="venues" target="_top">
<polygon fill="#ffffff" stroke="transparent" points="148,-208.2 148,-313.2 256,-313.2 256,-208.2 148,-208.2"/>
<polygon fill="#f5f5f5" stroke="transparent" points="148,-289.7 148,-312.7 256,-312.7 256,-289.7 148,-289.7"/>
<polygon fill="none" stroke="#000000" points="148,-289.7 148,-312.7 256,-312.7 256,-289.7 148,-289.7"/>
<text text-anchor="start" x="153" y="-298.3" font-family="Helvetica,sans-Serif" font-weight="bold" font-size="11.00" fill="#000000">venues</text>
<text text-anchor="start" x="221.0437" y="-297.8" font-family="Helvetica,sans-Serif" font-size="11.00" fill="#000000">[table]</text>
<polygon fill="none" stroke="#000000" points="148,-267.7 148,-289.7 256,-289.7 256,-267.7 148,-267.7"/>
<image xlink:href="../../images/primaryKeys.png" width="11px" height="12px" preserveAspectRatio="xMinYMin meet" x="153" y="-284.7"/>
<text text-anchor="start" x="168" y="-274.8" font-family="Helvetica,sans-Serif" font-size="11.00" fill="#000000">id</text>
<polygon fill="none" stroke="#000000" points="148,-245.7 148,-267.7 256,-267.7 256,-245.7 148,-245.7"/>
<image xlink:href="../../images/foreignKeys.png" width="11px" height="12px" preserveAspectRatio="xMinYMin meet" x="153" y="-262.7"/>
<text text-anchor="start" x="168" y="-252.8" font-family="Helvetica,sans-Serif" font-size="11.00" fill="#000000">chapter_id</text>
<polygon fill="none" stroke="#000000" points="148,-226.7 148,-245.7 256,-245.7 256,-226.7 148,-226.7"/>
<text text-anchor="start" x="151" y="-232.8" font-family="Helvetica,sans-Serif" font-size="11.00" fill="#000000">...</text>
<polygon fill="#ffffff" stroke="transparent" points="148,-207.7 148,-226.7 183,-226.7 183,-207.7 148,-207.7"/>
<polygon fill="none" stroke="#000000" points="148,-207.7 148,-226.7 183,-226.7 183,-207.7 148,-207.7"/>
<text text-anchor="start" x="151" y="-213.8" font-family="Helvetica,sans-Serif" font-size="11.00" fill="#000000">&lt; 1</text>
<polygon fill="#ffffff" stroke="transparent" points="183,-207.7 183,-226.7 228,-226.7 228,-207.7 183,-207.7"/>
<polygon fill="none" stroke="#000000" points="183,-207.7 183,-226.7 228,-226.7 228,-207.7 183,-207.7"/>
<text text-anchor="start" x="192.6105" y="-213.8" font-family="Helvetica,sans-Serif" font-size="11.00" fill="#000000">0 rows</text>
<polygon fill="#ffffff" stroke="transparent" points="228,-207.7 228,-226.7 256,-226.7 256,-207.7 228,-207.7"/>
<polygon fill="none" stroke="#000000" points="228,-207.7 228,-226.7 256,-226.7 256,-207.7 228,-207.7"/>
<text text-anchor="start" x="237.4053" y="-213.8" font-family="Helvetica,sans-Serif" font-size="11.00" fill="#000000">2 &gt;</text>
</a>
</g>
</g>
<!-- events&#45;&gt;venues -->
<g id="edge6" class="edge">
<title>events:w&#45;&gt;venues:e</title>
<path fill="none" stroke="#000000" d="M339.0496,-333.4569C313.0727,-319.9287 277.0905,-278.7 256,-278.7"/>
<polygon fill="#000000" stroke="#000000" points="345.3462,-335.372 351.9524,-341.1442 349.1731,-336.536 353,-337.7 353,-337.7 353,-337.7 349.1731,-336.536 354.0476,-334.2558 345.3462,-335.372 345.3462,-335.372"/>
<ellipse fill="none" stroke="#000000" cx="342.2847" cy="-334.4408" rx="3.2" ry="3.2"/>
</g>
<!-- venues&#45;&gt;chapters -->
<g id="edge9" class="edge">
<title>venues:w&#45;&gt;chapters:e</title>
<path fill="none" stroke="#000000" d="M133.2829,-256.7C122.2886,-256.7 115.1615,-256.7 99.5,-256.7"/>
<polygon fill="#000000" stroke="#000000" points="140,-256.7001 148,-260.3 144,-256.7 148,-256.7 148,-256.7 148,-256.7 144,-256.7 148,-253.1 140,-256.7001 140,-256.7001"/>
<ellipse fill="none" stroke="#000000" cx="136.8" cy="-256.7001" rx="3.2" ry="3.2"/>
</g>
<!-- venue_tags -->
<g id="node7" class="node">
<title>venue_tags</title>
<g id="a_node7"><a xlink:href="../../tables/venue_tags.html" xlink:title="venue_tags" target="_top">
<polygon fill="#ffffff" stroke="transparent" points="305,-154.7 305,-288.7 481,-288.7 481,-154.7 305,-154.7"/>
<polygon fill="#f5f5f5" stroke="transparent" points="307,-263.7 307,-286.7 479,-286.7 479,-263.7 307,-263.7"/>
<polygon fill="none" stroke="#000000" points="307,-263.7 307,-286.7 479,-286.7 479,-263.7 307,-263.7"/>
<text text-anchor="start" x="312" y="-272.3" font-family="Helvetica,sans-Serif" font-weight="bold" font-size="11.00" fill="#000000">venue_tags</text>
<text text-anchor="start" x="444.0437" y="-271.8" font-family="Helvetica,sans-Serif" font-size="11.00" fill="#000000">[table]</text>
<polygon fill="none" stroke="#000000" points="307,-241.7 307,-263.7 395,-263.7 395,-241.7 307,-241.7"/>
<text text-anchor="start" x="327" y="-248.8" font-family="Helvetica,sans-Serif" font-size="11.00" fill="#000000">created_at</text>
<polygon fill="none" stroke="#000000" points="395,-241.7 395,-263.7 479,-263.7 479,-241.7 395,-241.7"/>
<text text-anchor="start" x="397.8807" y="-249.4" font-family="Helvetica,sans-Serif" font-size="11.00" fill="#000000">timestamp[26,3]</text>
<polygon fill="none" stroke="#000000" points="307,-219.7 307,-241.7 395,-241.7 395,-219.7 307,-219.7"/>
<text text-anchor="start" x="327" y="-226.8" font-family="Helvetica,sans-Serif" font-size="11.00" fill="#000000">updated_at</text>
<polygon fill="none" stroke="#000000" points="395,-219.7 395,-241.7 479,-241.7 479,-219.7 395,-219.7"/>
<text text-anchor="start" x="397.8807" y="-227.4" font-family="Helvetica,sans-Serif" font-size="11.00" fill="#000000">timestamp[26,3]</text>
<polygon fill="none" stroke="#000000" points="307,-197.7 307,-219.7 395,-219.7 395,-197.7 307,-197.7"/>
<image xlink:href="../../images/primaryKeys.png" width="11px" height="12px" preserveAspectRatio="xMinYMin meet" x="312" y="-214.7"/>
<text text-anchor="start" x="327" y="-204.8" font-family="Helvetica,sans-Serif" font-size="11.00" fill="#000000">venue_id</text>
<polygon fill="none" stroke="#000000" points="395,-197.7 395,-219.7 479,-219.7 479,-197.7 395,-197.7"/>
<text text-anchor="start" x="398" y="-205.4" font-family="Helvetica,sans-Serif" font-size="11.00" fill="#000000">int4[10]</text>
<polygon fill="none" stroke="#000000" points="307,-175.7 307,-197.7 395,-197.7 395,-175.7 307,-175.7"/>
<image xlink:href="../../images/primaryKeys.png" width="11px" height="12px" preserveAspectRatio="xMinYMin meet" x="312" y="-192.7"/>
<text text-anchor="start" x="327" y="-182.8" font-family="Helvetica,sans-Serif" font-size="11.00" fill="#000000">tag_id</text>
<polygon fill="none" stroke="#000000" points="395,-175.7 395,-197.7 479,-197.7 479,-175.7 395,-175.7"/>
<text text-anchor="start" x="398" y="-183.4" font-family="Helvetica,sans-Serif" font-size="11.00" fill="#000000">int4[10]</text>
<polygon fill="#ffffff" stroke="transparent" points="307,-156.7 307,-175.7 342,-175.7 342,-156.7 307,-156.7"/>
<polygon fill="none" stroke="#000000" points="307,-156.7 307,-175.7 342,-175.7 342,-156.7 307,-156.7"/>
<text text-anchor="start" x="310" y="-162.8" font-family="Helvetica,sans-Serif" font-size="11.00" fill="#000000">&lt; 2</text>
<polygon fill="#ffffff" stroke="transparent" points="342,-156.7 342,-175.7 395,-175.7 395,-156.7 342,-156.7"/>
<polygon fill="none" stroke="#000000" points="342,-156.7 342,-175.7 395,-175.7 395,-156.7 342,-156.7"/>
<text text-anchor="start" x="359.6105" y="-162.8" font-family="Helvetica,sans-Serif" font-size="11.00" fill="#000000">0 rows</text>
<polygon fill="#ffffff" stroke="transparent" points="395,-156.7 395,-175.7 479,-175.7 479,-156.7 395,-156.7"/>
<polygon fill="none" stroke="#000000" points="395,-156.7 395,-175.7 479,-175.7 479,-156.7 395,-156.7"/>
<text text-anchor="start" x="460.4053" y="-162.8" font-family="Helvetica,sans-Serif" font-size="11.00" fill="#000000">0 &gt;</text>
<polygon fill="none" stroke="#000000" stroke-width="2" points="306,-155.7 306,-287.7 480,-287.7 480,-155.7 306,-155.7"/>
</a>
</g>
</g>
<!-- venue_tags&#45;&gt;tags -->
<g id="edge7" class="edge">
<title>venue_tags:w&#45;&gt;tags:e</title>
<path fill="none" stroke="#000000" d="M292.7548,-183.6827C275.2746,-175.3617 271.3396,-152.7 246,-152.7"/>
<polygon fill="#000000" stroke="#000000" points="299.1736,-185.0423 306.254,-190.2219 303.0868,-185.8711 307,-186.7 307,-186.7 307,-186.7 303.0868,-185.8711 307.746,-183.1781 299.1736,-185.0423 299.1736,-185.0423"/>
<ellipse fill="none" stroke="#000000" cx="296.0431" cy="-184.3792" rx="3.2" ry="3.2"/>
</g>
<!-- venue_tags&#45;&gt;venues -->
<g id="edge8" class="edge">
<title>venue_tags:w&#45;&gt;venues:e</title>
<path fill="none" stroke="#000000" d="M293.1872,-213.2929C275.0536,-228.866 288.4781,-278.7 256,-278.7"/>
<polygon fill="#000000" stroke="#000000" points="299.4087,-211.2242 308.1359,-212.1161 303.2043,-209.9621 307,-208.7 307,-208.7 307,-208.7 303.2043,-209.9621 305.8641,-205.2839 299.4087,-211.2242 299.4087,-211.2242"/>
<ellipse fill="none" stroke="#000000" cx="296.3721" cy="-212.2339" rx="3.2" ry="3.2"/>
</g>
</g>
</svg>
