<?xml version="1.0" encoding="UTF-8" standalone="no"?>
<!DOCTYPE svg PUBLIC "-//W3C//DTD SVG 1.1//EN"
 "http://www.w3.org/Graphics/SVG/1.1/DTD/svg11.dtd">
<!-- Generated by graphviz version 2.40.1 (20161225.0304)
 -->
<!-- Title: oneDegreeRelationshipsDiagram Pages: 1 -->
<svg width="541pt" height="405pt"
 viewBox="0.00 0.00 541.00 404.70" xmlns="http://www.w3.org/2000/svg" xmlns:xlink="http://www.w3.org/1999/xlink">
<g id="graph0" class="graph" transform="scale(1 1) rotate(0) translate(4 400.7)">
<title>oneDegreeRelationshipsDiagram</title>
<polygon fill="#ffffff" stroke="transparent" points="-4,4 -4,-400.7 537,-400.7 537,4 -4,4"/>
<text text-anchor="middle" x="72.4936" y="-7.3" font-family="Helvetica,sans-Serif" font-size="11.00" fill="#000000">Generated by SchemaSpy</text>
<!-- events -->
<g id="node1" class="node">
<title>events</title>
<g id="a_node1"><a xlink:href="../../tables/events.html" xlink:title="events" target="_top">
<polygon fill="#ffffff" stroke="transparent" points="397,-126.2 397,-253.2 525,-253.2 525,-126.2 397,-126.2"/>
<polygon fill="#f5f5f5" stroke="transparent" points="397,-229.7 397,-252.7 525,-252.7 525,-229.7 397,-229.7"/>
<polygon fill="none" stroke="#000000" points="397,-229.7 397,-252.7 525,-252.7 525,-229.7 397,-229.7"/>
<text text-anchor="start" x="402" y="-238.8" font-family="Helvetica,sans-Serif" font-weight="bold" font-size="11.00" fill="#000000">events</text>
<text text-anchor="start" x="490.0437" y="-237.8" font-family="Helvetica,sans-Serif" font-size="11.00" fill="#000000">[table]</text>
<polygon fill="none" stroke="#000000" points="397,-207.7 397,-229.7 525,-229.7 525,-207.7 397,-207.7"/>
<image xlink:href="../../images/primaryKeys.png" width="11px" height="12px" preserveAspectRatio="xMinYMin meet" x="402" y="-224.7"/>
<text text-anchor="start" x="417" y="-214.8" font-family="Helvetica,sans-Serif" font-size="11.00" fill="#000000">id</text>
<polygon fill="none" stroke="#000000" points="397,-185.7 397,-207.7 525,-207.7 525,-185.7 397,-185.7"/>
<image xlink:href="../../images/foreignKeys.png" width="11px" height="12px" preserveAspectRatio="xMinYMin meet" x="402" y="-202.7"/>
<text text-anchor="start" x="417" y="-192.8" font-family="Helvetica,sans-Serif" font-size="11.00" fill="#000000">venue_id</text>
<polygon fill="none" stroke="#000000" points="397,-163.7 397,-185.7 525,-185.7 525,-163.7 397,-163.7"/>
<image xlink:href="../../images/foreignKeys.png" width="11px" height="12px" preserveAspectRatio="xMinYMin meet" x="402" y="-180.7"/>
<text text-anchor="start" x="417" y="-170.8" font-family="Helvetica,sans-Serif" font-size="11.00" fill="#000000">chapter_id</text>
<polygon fill="none" stroke="#000000" points="397,-144.7 397,-163.7 525,-163.7 525,-144.7 397,-144.7"/>
<text text-anchor="start" x="400" y="-150.8" font-family="Helvetica,sans-Serif" font-size="11.00" fill="#000000">...</text>
<polygon fill="#ffffff" stroke="transparent" points="397,-125.7 397,-144.7 442,-144.7 442,-125.7 397,-125.7"/>
<polygon fill="none" stroke="#000000" points="397,-125.7 397,-144.7 442,-144.7 442,-125.7 397,-125.7"/>
<text text-anchor="start" x="400" y="-131.8" font-family="Helvetica,sans-Serif" font-size="11.00" fill="#000000">&lt; 2</text>
<polygon fill="#ffffff" stroke="transparent" points="442,-125.7 442,-144.7 492,-144.7 492,-125.7 442,-125.7"/>
<polygon fill="none" stroke="#000000" points="442,-125.7 442,-144.7 492,-144.7 492,-125.7 442,-125.7"/>
<text text-anchor="start" x="456.6105" y="-131.8" font-family="Helvetica,sans-Serif" font-size="11.00" fill="#000000">0 rows</text>
<polygon fill="#ffffff" stroke="transparent" points="492,-125.7 492,-144.7 525,-144.7 525,-125.7 492,-125.7"/>
<polygon fill="none" stroke="#000000" points="492,-125.7 492,-144.7 525,-144.7 525,-125.7 492,-125.7"/>
<text text-anchor="start" x="506.4053" y="-131.8" font-family="Helvetica,sans-Serif" font-size="11.00" fill="#000000">3 &gt;</text>
</a>
</g>
</g>
<!-- chapters -->
<g id="node2" class="node">
<title>chapters</title>
<g id="a_node2"><a xlink:href="../../tables/chapters.html" xlink:title="chapters" target="_top">
<polygon fill="#ffffff" stroke="transparent" points="8,-38.2 8,-121.2 97,-121.2 97,-38.2 8,-38.2"/>
<polygon fill="#f5f5f5" stroke="transparent" points="8.5,-97.7 8.5,-120.7 97.5,-120.7 97.5,-97.7 8.5,-97.7"/>
<polygon fill="none" stroke="#000000" points="8.5,-97.7 8.5,-120.7 97.5,-120.7 97.5,-97.7 8.5,-97.7"/>
<text text-anchor="start" x="13.5" y="-106.8" font-family="Helvetica,sans-Serif" font-weight="bold" font-size="11.00" fill="#000000">chapters</text>
<text text-anchor="start" x="62.5437" y="-105.8" font-family="Helvetica,sans-Serif" font-size="11.00" fill="#000000">[table]</text>
<polygon fill="none" stroke="#000000" points="8.5,-75.7 8.5,-97.7 97.5,-97.7 97.5,-75.7 8.5,-75.7"/>
<image xlink:href="../../images/primaryKeys.png" width="11px" height="12px" preserveAspectRatio="xMinYMin meet" x="13.5" y="-92.7"/>
<text text-anchor="start" x="28.5" y="-82.8" font-family="Helvetica,sans-Serif" font-size="11.00" fill="#000000">id</text>
<polygon fill="none" stroke="#000000" points="8.5,-56.7 8.5,-75.7 97.5,-75.7 97.5,-56.7 8.5,-56.7"/>
<text text-anchor="start" x="11.5" y="-62.8" font-family="Helvetica,sans-Serif" font-size="11.00" fill="#000000">...</text>
<polygon fill="#ffffff" stroke="transparent" points="8.5,-37.7 8.5,-56.7 29.5,-56.7 29.5,-37.7 8.5,-37.7"/>
<polygon fill="none" stroke="#000000" points="8.5,-37.7 8.5,-56.7 29.5,-56.7 29.5,-37.7 8.5,-37.7"/>
<text text-anchor="start" x="11.5" y="-43.8" font-family="Helvetica,sans-Serif" font-size="11.00" fill="#000000"> &#160;</text>
<polygon fill="#ffffff" stroke="transparent" points="29.5,-37.7 29.5,-56.7 71.5,-56.7 71.5,-37.7 29.5,-37.7"/>
<polygon fill="none" stroke="#000000" points="29.5,-37.7 29.5,-56.7 71.5,-56.7 71.5,-37.7 29.5,-37.7"/>
<text text-anchor="start" x="36.1105" y="-43.8" font-family="Helvetica,sans-Serif" font-size="11.00" fill="#000000">0 rows</text>
<polygon fill="#ffffff" stroke="transparent" points="71.5,-37.7 71.5,-56.7 97.5,-56.7 97.5,-37.7 71.5,-37.7"/>
<polygon fill="none" stroke="#000000" points="71.5,-37.7 71.5,-56.7 97.5,-56.7 97.5,-37.7 71.5,-37.7"/>
<text text-anchor="start" x="78.9053" y="-43.8" font-family="Helvetica,sans-Serif" font-size="11.00" fill="#000000">4 &gt;</text>
</a>
</g>
</g>
<!-- events&#45;&gt;chapters -->
<g id="edge1" class="edge">
<title>events:w&#45;&gt;chapters:e</title>
<path fill="none" stroke="#000000" d="M382.7645,-171.4086C358.5873,-156.6094 391.6797,-95.8999 356,-71.7 275.815,-17.3141 233.3691,-54.6064 138,-71.7 119.1062,-75.0865 116.6949,-86.7 97.5,-86.7"/>
<polygon fill="#000000" stroke="#000000" points="389.2056,-172.8978 396.189,-178.2075 393.1028,-173.7989 397,-174.7 397,-174.7 397,-174.7 393.1028,-173.7989 397.811,-171.1925 389.2056,-172.8978 389.2056,-172.8978"/>
<ellipse fill="none" stroke="#000000" cx="386.0879" cy="-172.1769" rx="3.2" ry="3.2"/>
</g>
<!-- venues -->
<g id="node3" class="node">
<title>venues</title>
<g id="a_node3"><a xlink:href="../../tables/venues.html" xlink:title="venues" target="_top">
<polygon fill="#ffffff" stroke="transparent" points="146,-82.7 146,-392.7 348,-392.7 348,-82.7 146,-82.7"/>
<polygon fill="#f5f5f5" stroke="transparent" points="148,-367.7 148,-390.7 346,-390.7 346,-367.7 148,-367.7"/>
<polygon fill="none" stroke="#000000" points="148,-367.7 148,-390.7 346,-390.7 346,-367.7 148,-367.7"/>
<text text-anchor="start" x="153" y="-376.8" font-family="Helvetica,sans-Serif" font-weight="bold" font-size="11.00" fill="#000000">venues</text>
<text text-anchor="start" x="311.0437" y="-375.8" font-family="Helvetica,sans-Serif" font-size="11.00" fill="#000000">[table]</text>
<polygon fill="none" stroke="#000000" points="148,-345.7 148,-367.7 256,-367.7 256,-345.7 148,-345.7"/>
<text text-anchor="start" x="168" y="-352.8" font-family="Helvetica,sans-Serif" font-size="11.00" fill="#000000">created_at</text>
<polygon fill="none" stroke="#000000" points="256,-345.7 256,-367.7 346,-367.7 346,-345.7 256,-345.7"/>
<text text-anchor="start" x="259" y="-353.4" font-family="Helvetica,sans-Serif" font-size="11.00" fill="#000000">timestamp[26,3]</text>
<polygon fill="none" stroke="#000000" points="148,-323.7 148,-345.7 256,-345.7 256,-323.7 148,-323.7"/>
<text text-anchor="start" x="168" y="-330.8" font-family="Helvetica,sans-Serif" font-size="11.00" fill="#000000">updated_at</text>
<polygon fill="none" stroke="#000000" points="256,-323.7 256,-345.7 346,-345.7 346,-323.7 256,-323.7"/>
<text text-anchor="start" x="259" y="-331.4" font-family="Helvetica,sans-Serif" font-size="11.00" fill="#000000">timestamp[26,3]</text>
<polygon fill="none" stroke="#000000" points="148,-301.7 148,-323.7 256,-323.7 256,-301.7 148,-301.7"/>
<image xlink:href="../../images/primaryKeys.png" width="11px" height="12px" preserveAspectRatio="xMinYMin meet" x="153" y="-318.7"/>
<text text-anchor="start" x="168" y="-308.8" font-family="Helvetica,sans-Serif" font-size="11.00" fill="#000000">id</text>
<polygon fill="none" stroke="#000000" points="256,-301.7 256,-323.7 346,-323.7 346,-301.7 256,-301.7"/>
<text text-anchor="start" x="259" y="-309.4" font-family="Helvetica,sans-Serif" font-size="11.00" fill="#000000">serial[10]</text>
<polygon fill="none" stroke="#000000" points="148,-279.7 148,-301.7 256,-301.7 256,-279.7 148,-279.7"/>
<text text-anchor="start" x="168" y="-286.8" font-family="Helvetica,sans-Serif" font-size="11.00" fill="#000000">name</text>
<polygon fill="none" stroke="#000000" points="256,-279.7 256,-301.7 346,-301.7 346,-279.7 256,-279.7"/>
<text text-anchor="start" x="258.5043" y="-287.4" font-family="Helvetica,sans-Serif" font-size="11.00" fill="#000000">text[2147483647]</text>
<polygon fill="none" stroke="#000000" points="148,-257.7 148,-279.7 256,-279.7 256,-257.7 148,-257.7"/>
<text text-anchor="start" x="168" y="-264.8" font-family="Helvetica,sans-Serif" font-size="11.00" fill="#000000">street_address</text>
<polygon fill="none" stroke="#000000" points="256,-257.7 256,-279.7 346,-279.7 346,-257.7 256,-257.7"/>
<text text-anchor="start" x="258.5043" y="-265.4" font-family="Helvetica,sans-Serif" font-size="11.00" fill="#000000">text[2147483647]</text>
<polygon fill="none" stroke="#000000" points="148,-235.7 148,-257.7 256,-257.7 256,-235.7 148,-235.7"/>
<text text-anchor="start" x="168" y="-242.8" font-family="Helvetica,sans-Serif" font-size="11.00" fill="#000000">city</text>
<polygon fill="none" stroke="#000000" points="256,-235.7 256,-257.7 346,-257.7 346,-235.7 256,-235.7"/>
<text text-anchor="start" x="258.5043" y="-243.4" font-family="Helvetica,sans-Serif" font-size="11.00" fill="#000000">text[2147483647]</text>
<polygon fill="none" stroke="#000000" points="148,-213.7 148,-235.7 256,-235.7 256,-213.7 148,-213.7"/>
<text text-anchor="start" x="168" y="-220.8" font-family="Helvetica,sans-Serif" font-size="11.00" fill="#000000">postal_code</text>
<polygon fill="none" stroke="#000000" points="256,-213.7 256,-235.7 346,-235.7 346,-213.7 256,-213.7"/>
<text text-anchor="start" x="258.5043" y="-221.4" font-family="Helvetica,sans-Serif" font-size="11.00" fill="#000000">text[2147483647]</text>
<polygon fill="none" stroke="#000000" points="148,-191.7 148,-213.7 256,-213.7 256,-191.7 148,-191.7"/>
<text text-anchor="start" x="168" y="-198.8" font-family="Helvetica,sans-Serif" font-size="11.00" fill="#000000">region</text>
<polygon fill="none" stroke="#000000" points="256,-191.7 256,-213.7 346,-213.7 346,-191.7 256,-191.7"/>
<text text-anchor="start" x="258.5043" y="-199.4" font-family="Helvetica,sans-Serif" font-size="11.00" fill="#000000">text[2147483647]</text>
<polygon fill="none" stroke="#000000" points="148,-169.7 148,-191.7 256,-191.7 256,-169.7 148,-169.7"/>
<text text-anchor="start" x="168" y="-176.8" font-family="Helvetica,sans-Serif" font-size="11.00" fill="#000000">country</text>
<polygon fill="none" stroke="#000000" points="256,-169.7 256,-191.7 346,-191.7 346,-169.7 256,-169.7"/>
<text text-anchor="start" x="258.5043" y="-177.4" font-family="Helvetica,sans-Serif" font-size="11.00" fill="#000000">text[2147483647]</text>
<polygon fill="none" stroke="#000000" points="148,-147.7 148,-169.7 256,-169.7 256,-147.7 148,-147.7"/>
<text text-anchor="start" x="168" y="-154.8" font-family="Helvetica,sans-Serif" font-size="11.00" fill="#000000">latitude</text>
<polygon fill="none" stroke="#000000" points="256,-147.7 256,-169.7 346,-169.7 346,-147.7 256,-147.7"/>
<text text-anchor="start" x="259" y="-155.4" font-family="Helvetica,sans-Serif" font-size="11.00" fill="#000000">float8[17,17]</text>
<polygon fill="none" stroke="#000000" points="148,-125.7 148,-147.7 256,-147.7 256,-125.7 148,-125.7"/>
<text text-anchor="start" x="168" y="-132.8" font-family="Helvetica,sans-Serif" font-size="11.00" fill="#000000">longitude</text>
<polygon fill="none" stroke="#000000" points="256,-125.7 256,-147.7 346,-147.7 346,-125.7 256,-125.7"/>
<text text-anchor="start" x="259" y="-133.4" font-family="Helvetica,sans-Serif" font-size="11.00" fill="#000000">float8[17,17]</text>
<polygon fill="none" stroke="#000000" points="148,-103.7 148,-125.7 256,-125.7 256,-103.7 148,-103.7"/>
<image xlink:href="../../images/foreignKeys.png" width="11px" height="12px" preserveAspectRatio="xMinYMin meet" x="153" y="-120.7"/>
<text text-anchor="start" x="168" y="-110.8" font-family="Helvetica,sans-Serif" font-size="11.00" fill="#000000">chapter_id</text>
<polygon fill="none" stroke="#000000" points="256,-103.7 256,-125.7 346,-125.7 346,-103.7 256,-103.7"/>
<text text-anchor="start" x="259" y="-111.4" font-family="Helvetica,sans-Serif" font-size="11.00" fill="#000000">int4[10]</text>
<polygon fill="#ffffff" stroke="transparent" points="148,-84.7 148,-103.7 193,-103.7 193,-84.7 148,-84.7"/>
<polygon fill="none" stroke="#000000" points="148,-84.7 148,-103.7 193,-103.7 193,-84.7 148,-84.7"/>
<text text-anchor="start" x="151" y="-90.8" font-family="Helvetica,sans-Serif" font-size="11.00" fill="#000000">&lt; 1</text>
<polygon fill="#ffffff" stroke="transparent" points="193,-84.7 193,-103.7 256,-103.7 256,-84.7 193,-84.7"/>
<polygon fill="none" stroke="#000000" points="193,-84.7 193,-103.7 256,-103.7 256,-84.7 193,-84.7"/>
<text text-anchor="start" x="220.6105" y="-90.8" font-family="Helvetica,sans-Serif" font-size="11.00" fill="#000000">0 rows</text>
<polygon fill="#ffffff" stroke="transparent" points="256,-84.7 256,-103.7 346,-103.7 346,-84.7 256,-84.7"/>
<polygon fill="none" stroke="#000000" points="256,-84.7 256,-103.7 346,-103.7 346,-84.7 256,-84.7"/>
<text text-anchor="start" x="327.4053" y="-90.8" font-family="Helvetica,sans-Serif" font-size="11.00" fill="#000000">1 &gt;</text>
<polygon fill="none" stroke="#000000" stroke-width="2" points="147,-83.7 147,-391.7 347,-391.7 347,-83.7 147,-83.7"/>
</a>
</g>
</g>
<!-- events&#45;&gt;venues -->
<g id="edge2" class="edge">
<title>events:w&#45;&gt;venues:e</title>
<path fill="none" stroke="#000000" d="M382.84,-200.2989C352.3711,-219.8784 396.3785,-312.7 346,-312.7"/>
<polygon fill="#000000" stroke="#000000" points="389.2465,-198.6706 397.8868,-200.1891 393.1233,-197.6853 397,-196.7 397,-196.7 397,-196.7 393.1233,-197.6853 396.1132,-193.2109 389.2465,-198.6706 389.2465,-198.6706"/>
<ellipse fill="none" stroke="#000000" cx="386.1451" cy="-199.4589" rx="3.2" ry="3.2"/>
</g>
<!-- venues&#45;&gt;chapters -->
<g id="edge3" class="edge">
<title>venues:w&#45;&gt;chapters:e</title>
<path fill="none" stroke="#000000" d="M134.02,-111.0395C121.3515,-103.4498 117.3491,-86.7 97.5,-86.7"/>
<polygon fill="#000000" stroke="#000000" points="140.2609,-112.6736 147.0881,-118.1826 144.1304,-113.6868 148,-114.7 148,-114.7 148,-114.7 144.1304,-113.6868 148.9119,-111.2174 140.2609,-112.6736 140.2609,-112.6736"/>
<ellipse fill="none" stroke="#000000" cx="137.1653" cy="-111.863" rx="3.2" ry="3.2"/>
</g>
</g>
</svg>
