<?xml version="1.0" encoding="UTF-8" standalone="no"?>
<!DOCTYPE svg PUBLIC "-//W3C//DTD SVG 1.1//EN"
 "http://www.w3.org/Graphics/SVG/1.1/DTD/svg11.dtd">
<!-- Generated by graphviz version 2.40.1 (20161225.0304)
 -->
<!-- Title: twoDegreesRelationshipsDiagram Pages: 1 -->
<svg width="710pt" height="552pt"
 viewBox="0.00 0.00 710.00 552.20" xmlns="http://www.w3.org/2000/svg" xmlns:xlink="http://www.w3.org/1999/xlink">
<g id="graph0" class="graph" transform="scale(1 1) rotate(0) translate(4 548.2)">
<title>twoDegreesRelationshipsDiagram</title>
<polygon fill="#ffffff" stroke="transparent" points="-4,4 -4,-548.2 706,-548.2 706,4 -4,4"/>
<text text-anchor="middle" x="72.4936" y="-7.3" font-family="Helvetica,sans-Serif" font-size="11.00" fill="#000000">Generated by SchemaSpy</text>
<!-- chapter_users -->
<g id="node1" class="node">
<title>chapter_users</title>
<g id="a_node1"><a xlink:href="../../tables/chapter_users.html" xlink:title="chapter_users" target="_top">
<polygon fill="#ffffff" stroke="transparent" points="191,-479.2 191,-540.2 303,-540.2 303,-479.2 191,-479.2"/>
<polygon fill="#f5f5f5" stroke="transparent" points="191,-516.7 191,-539.7 303,-539.7 303,-516.7 191,-516.7"/>
<polygon fill="none" stroke="#000000" points="191,-516.7 191,-539.7 303,-539.7 303,-516.7 191,-516.7"/>
<text text-anchor="start" x="195.6575" y="-525.8" font-family="Helvetica,sans-Serif" font-weight="bold" font-size="11.00" fill="#000000">chapter_users</text>
<text text-anchor="start" x="268.5219" y="-524.8" font-family="Helvetica,sans-Serif" font-size="11.00" fill="#000000">[table]</text>
<polygon fill="none" stroke="#000000" points="191,-497.7 191,-516.7 303,-516.7 303,-497.7 191,-497.7"/>
<text text-anchor="start" x="194" y="-503.8" font-family="Helvetica,sans-Serif" font-size="11.00" fill="#000000">...</text>
<polygon fill="#ffffff" stroke="transparent" points="191,-478.7 191,-497.7 232,-497.7 232,-478.7 191,-478.7"/>
<polygon fill="none" stroke="#000000" points="191,-478.7 191,-497.7 232,-497.7 232,-478.7 191,-478.7"/>
<text text-anchor="start" x="194" y="-484.8" font-family="Helvetica,sans-Serif" font-size="11.00" fill="#000000">&lt; 3</text>
<polygon fill="#ffffff" stroke="transparent" points="232,-478.7 232,-497.7 280,-497.7 280,-478.7 232,-478.7"/>
<polygon fill="none" stroke="#000000" points="232,-478.7 232,-497.7 280,-497.7 280,-478.7 232,-478.7"/>
<text text-anchor="start" x="244.6105" y="-484.8" font-family="Helvetica,sans-Serif" font-size="11.00" fill="#000000">0 rows</text>
<polygon fill="#ffffff" stroke="transparent" points="280,-478.7 280,-497.7 303,-497.7 303,-478.7 280,-478.7"/>
<polygon fill="none" stroke="#000000" points="280,-478.7 280,-497.7 303,-497.7 303,-478.7 280,-478.7"/>
<text text-anchor="start" x="293.8862" y="-484.8" font-family="Helvetica,sans-Serif" font-size="11.00" fill="#000000"> &#160;</text>
</a>
</g>
</g>
<!-- chapters -->
<g id="node2" class="node">
<title>chapters</title>
<g id="a_node2"><a xlink:href="../../tables/chapters.html" xlink:title="chapters" target="_top">
<polygon fill="#ffffff" stroke="transparent" points="8,-103.2 8,-186.2 97,-186.2 97,-103.2 8,-103.2"/>
<polygon fill="#f5f5f5" stroke="transparent" points="8.5,-162.7 8.5,-185.7 97.5,-185.7 97.5,-162.7 8.5,-162.7"/>
<polygon fill="none" stroke="#000000" points="8.5,-162.7 8.5,-185.7 97.5,-185.7 97.5,-162.7 8.5,-162.7"/>
<text text-anchor="start" x="13.5" y="-171.8" font-family="Helvetica,sans-Serif" font-weight="bold" font-size="11.00" fill="#000000">chapters</text>
<text text-anchor="start" x="62.5437" y="-170.8" font-family="Helvetica,sans-Serif" font-size="11.00" fill="#000000">[table]</text>
<polygon fill="none" stroke="#000000" points="8.5,-140.7 8.5,-162.7 97.5,-162.7 97.5,-140.7 8.5,-140.7"/>
<image xlink:href="../../images/primaryKeys.png" width="11px" height="12px" preserveAspectRatio="xMinYMin meet" x="13.5" y="-157.7"/>
<text text-anchor="start" x="28.5" y="-147.8" font-family="Helvetica,sans-Serif" font-size="11.00" fill="#000000">id</text>
<polygon fill="none" stroke="#000000" points="8.5,-121.7 8.5,-140.7 97.5,-140.7 97.5,-121.7 8.5,-121.7"/>
<text text-anchor="start" x="11.5" y="-127.8" font-family="Helvetica,sans-Serif" font-size="11.00" fill="#000000">...</text>
<polygon fill="#ffffff" stroke="transparent" points="8.5,-102.7 8.5,-121.7 29.5,-121.7 29.5,-102.7 8.5,-102.7"/>
<polygon fill="none" stroke="#000000" points="8.5,-102.7 8.5,-121.7 29.5,-121.7 29.5,-102.7 8.5,-102.7"/>
<text text-anchor="start" x="11.5" y="-108.8" font-family="Helvetica,sans-Serif" font-size="11.00" fill="#000000"> &#160;</text>
<polygon fill="#ffffff" stroke="transparent" points="29.5,-102.7 29.5,-121.7 71.5,-121.7 71.5,-102.7 29.5,-102.7"/>
<polygon fill="none" stroke="#000000" points="29.5,-102.7 29.5,-121.7 71.5,-121.7 71.5,-102.7 29.5,-102.7"/>
<text text-anchor="start" x="36.1105" y="-108.8" font-family="Helvetica,sans-Serif" font-size="11.00" fill="#000000">0 rows</text>
<polygon fill="#ffffff" stroke="transparent" points="71.5,-102.7 71.5,-121.7 97.5,-121.7 97.5,-102.7 71.5,-102.7"/>
<polygon fill="none" stroke="#000000" points="71.5,-102.7 71.5,-121.7 97.5,-121.7 97.5,-102.7 71.5,-102.7"/>
<text text-anchor="start" x="78.9053" y="-108.8" font-family="Helvetica,sans-Serif" font-size="11.00" fill="#000000">4 &gt;</text>
</a>
</g>
</g>
<!-- chapter_users&#45;&gt;chapters -->
<g id="edge1" class="edge">
<title>chapter_users:w&#45;&gt;chapters:e</title>
<path fill="none" stroke="#000000" d="M176.6184,-505.3262C158.3787,-501.37 150.0658,-488.9241 138,-468.7 101.6145,-407.7122 168.517,-151.7 97.5,-151.7"/>
<polygon fill="#000000" stroke="#000000" points="183.0363,-505.9392 190.6576,-510.2837 187.0181,-506.3196 191,-506.7 191,-506.7 191,-506.7 187.0181,-506.3196 191.3424,-503.1163 183.0363,-505.9392 183.0363,-505.9392"/>
<ellipse fill="none" stroke="#000000" cx="179.8508" cy="-505.6349" rx="3.2" ry="3.2"/>
</g>
<!-- event_sponsors -->
<g id="node3" class="node">
<title>event_sponsors</title>
<g id="a_node3"><a xlink:href="../../tables/event_sponsors.html" xlink:title="event_sponsors" target="_top">
<polygon fill="#ffffff" stroke="transparent" points="574,-338.2 574,-399.2 694,-399.2 694,-338.2 574,-338.2"/>
<polygon fill="#f5f5f5" stroke="transparent" points="574,-375.7 574,-398.7 694,-398.7 694,-375.7 574,-375.7"/>
<polygon fill="none" stroke="#000000" points="574,-375.7 574,-398.7 694,-398.7 694,-375.7 574,-375.7"/>
<text text-anchor="start" x="578.681" y="-384.8" font-family="Helvetica,sans-Serif" font-weight="bold" font-size="11.00" fill="#000000">event_sponsors</text>
<text text-anchor="start" x="659.5219" y="-383.8" font-family="Helvetica,sans-Serif" font-size="11.00" fill="#000000">[table]</text>
<polygon fill="none" stroke="#000000" points="574,-356.7 574,-375.7 694,-375.7 694,-356.7 574,-356.7"/>
<text text-anchor="start" x="577" y="-362.8" font-family="Helvetica,sans-Serif" font-size="11.00" fill="#000000">...</text>
<polygon fill="#ffffff" stroke="transparent" points="574,-337.7 574,-356.7 619,-356.7 619,-337.7 574,-337.7"/>
<polygon fill="none" stroke="#000000" points="574,-337.7 574,-356.7 619,-356.7 619,-337.7 574,-337.7"/>
<text text-anchor="start" x="577" y="-343.8" font-family="Helvetica,sans-Serif" font-size="11.00" fill="#000000">&lt; 2</text>
<polygon fill="#ffffff" stroke="transparent" points="619,-337.7 619,-356.7 669,-356.7 669,-337.7 619,-337.7"/>
<polygon fill="none" stroke="#000000" points="619,-337.7 619,-356.7 669,-356.7 669,-337.7 619,-337.7"/>
<text text-anchor="start" x="633.6105" y="-343.8" font-family="Helvetica,sans-Serif" font-size="11.00" fill="#000000">0 rows</text>
<polygon fill="#ffffff" stroke="transparent" points="669,-337.7 669,-356.7 694,-356.7 694,-337.7 669,-337.7"/>
<polygon fill="none" stroke="#000000" points="669,-337.7 669,-356.7 694,-356.7 694,-337.7 669,-337.7"/>
<text text-anchor="start" x="684.8862" y="-343.8" font-family="Helvetica,sans-Serif" font-size="11.00" fill="#000000"> &#160;</text>
</a>
</g>
</g>
<!-- events -->
<g id="node4" class="node">
<title>events</title>
<g id="a_node4"><a xlink:href="../../tables/events.html" xlink:title="events" target="_top">
<polygon fill="#ffffff" stroke="transparent" points="397,-191.2 397,-318.2 525,-318.2 525,-191.2 397,-191.2"/>
<polygon fill="#f5f5f5" stroke="transparent" points="397,-294.7 397,-317.7 525,-317.7 525,-294.7 397,-294.7"/>
<polygon fill="none" stroke="#000000" points="397,-294.7 397,-317.7 525,-317.7 525,-294.7 397,-294.7"/>
<text text-anchor="start" x="402" y="-303.8" font-family="Helvetica,sans-Serif" font-weight="bold" font-size="11.00" fill="#000000">events</text>
<text text-anchor="start" x="490.0437" y="-302.8" font-family="Helvetica,sans-Serif" font-size="11.00" fill="#000000">[table]</text>
<polygon fill="none" stroke="#000000" points="397,-272.7 397,-294.7 525,-294.7 525,-272.7 397,-272.7"/>
<image xlink:href="../../images/primaryKeys.png" width="11px" height="12px" preserveAspectRatio="xMinYMin meet" x="402" y="-289.7"/>
<text text-anchor="start" x="417" y="-279.8" font-family="Helvetica,sans-Serif" font-size="11.00" fill="#000000">id</text>
<polygon fill="none" stroke="#000000" points="397,-250.7 397,-272.7 525,-272.7 525,-250.7 397,-250.7"/>
<image xlink:href="../../images/foreignKeys.png" width="11px" height="12px" preserveAspectRatio="xMinYMin meet" x="402" y="-267.7"/>
<text text-anchor="start" x="417" y="-257.8" font-family="Helvetica,sans-Serif" font-size="11.00" fill="#000000">venue_id</text>
<polygon fill="none" stroke="#000000" points="397,-228.7 397,-250.7 525,-250.7 525,-228.7 397,-228.7"/>
<image xlink:href="../../images/foreignKeys.png" width="11px" height="12px" preserveAspectRatio="xMinYMin meet" x="402" y="-245.7"/>
<text text-anchor="start" x="417" y="-235.8" font-family="Helvetica,sans-Serif" font-size="11.00" fill="#000000">chapter_id</text>
<polygon fill="none" stroke="#000000" points="397,-209.7 397,-228.7 525,-228.7 525,-209.7 397,-209.7"/>
<text text-anchor="start" x="400" y="-215.8" font-family="Helvetica,sans-Serif" font-size="11.00" fill="#000000">...</text>
<polygon fill="#ffffff" stroke="transparent" points="397,-190.7 397,-209.7 442,-209.7 442,-190.7 397,-190.7"/>
<polygon fill="none" stroke="#000000" points="397,-190.7 397,-209.7 442,-209.7 442,-190.7 397,-190.7"/>
<text text-anchor="start" x="400" y="-196.8" font-family="Helvetica,sans-Serif" font-size="11.00" fill="#000000">&lt; 2</text>
<polygon fill="#ffffff" stroke="transparent" points="442,-190.7 442,-209.7 492,-209.7 492,-190.7 442,-190.7"/>
<polygon fill="none" stroke="#000000" points="442,-190.7 442,-209.7 492,-209.7 492,-190.7 442,-190.7"/>
<text text-anchor="start" x="456.6105" y="-196.8" font-family="Helvetica,sans-Serif" font-size="11.00" fill="#000000">0 rows</text>
<polygon fill="#ffffff" stroke="transparent" points="492,-190.7 492,-209.7 525,-209.7 525,-190.7 492,-190.7"/>
<polygon fill="none" stroke="#000000" points="492,-190.7 492,-209.7 525,-209.7 525,-190.7 492,-190.7"/>
<text text-anchor="start" x="506.4053" y="-196.8" font-family="Helvetica,sans-Serif" font-size="11.00" fill="#000000">3 &gt;</text>
</a>
</g>
</g>
<!-- event_sponsors&#45;&gt;events -->
<g id="edge2" class="edge">
<title>event_sponsors:w&#45;&gt;events:e</title>
<path fill="none" stroke="#000000" d="M560.0294,-361.0564C540.288,-343.7098 561.3194,-283.7 525,-283.7"/>
<polygon fill="#000000" stroke="#000000" points="566.4084,-363.1766 572.8645,-369.1162 570.2042,-364.4383 574,-365.7 574,-365.7 574,-365.7 570.2042,-364.4383 575.1355,-362.2838 566.4084,-363.1766 566.4084,-363.1766"/>
<ellipse fill="none" stroke="#000000" cx="563.3717" cy="-362.1673" rx="3.2" ry="3.2"/>
</g>
<!-- events&#45;&gt;chapters -->
<g id="edge5" class="edge">
<title>events:w&#45;&gt;chapters:e</title>
<path fill="none" stroke="#000000" d="M382.8709,-236.4393C358.8386,-221.7782 391.4211,-161.6377 356,-137.7 315.8618,-110.5745 185.7752,-129.6755 138,-137.7 119.218,-140.8547 116.5451,-151.7 97.5,-151.7"/>
<polygon fill="#000000" stroke="#000000" points="389.2049,-237.901 396.1904,-243.2078 393.1024,-238.8005 397,-239.7 397,-239.7 397,-239.7 393.1024,-238.8005 397.8096,-236.1922 389.2049,-237.901 389.2049,-237.901"/>
<ellipse fill="none" stroke="#000000" cx="386.0868" cy="-237.1814" rx="3.2" ry="3.2"/>
</g>
<!-- venues -->
<g id="node7" class="node">
<title>venues</title>
<g id="a_node7"><a xlink:href="../../tables/venues.html" xlink:title="venues" target="_top">
<polygon fill="#ffffff" stroke="transparent" points="146,-147.7 146,-457.7 348,-457.7 348,-147.7 146,-147.7"/>
<polygon fill="#f5f5f5" stroke="transparent" points="148,-432.7 148,-455.7 346,-455.7 346,-432.7 148,-432.7"/>
<polygon fill="none" stroke="#000000" points="148,-432.7 148,-455.7 346,-455.7 346,-432.7 148,-432.7"/>
<text text-anchor="start" x="153" y="-441.8" font-family="Helvetica,sans-Serif" font-weight="bold" font-size="11.00" fill="#000000">venues</text>
<text text-anchor="start" x="311.0437" y="-440.8" font-family="Helvetica,sans-Serif" font-size="11.00" fill="#000000">[table]</text>
<polygon fill="none" stroke="#000000" points="148,-410.7 148,-432.7 256,-432.7 256,-410.7 148,-410.7"/>
<text text-anchor="start" x="168" y="-417.8" font-family="Helvetica,sans-Serif" font-size="11.00" fill="#000000">created_at</text>
<polygon fill="none" stroke="#000000" points="256,-410.7 256,-432.7 346,-432.7 346,-410.7 256,-410.7"/>
<text text-anchor="start" x="259" y="-418.4" font-family="Helvetica,sans-Serif" font-size="11.00" fill="#000000">timestamp[26,3]</text>
<polygon fill="none" stroke="#000000" points="148,-388.7 148,-410.7 256,-410.7 256,-388.7 148,-388.7"/>
<text text-anchor="start" x="168" y="-395.8" font-family="Helvetica,sans-Serif" font-size="11.00" fill="#000000">updated_at</text>
<polygon fill="none" stroke="#000000" points="256,-388.7 256,-410.7 346,-410.7 346,-388.7 256,-388.7"/>
<text text-anchor="start" x="259" y="-396.4" font-family="Helvetica,sans-Serif" font-size="11.00" fill="#000000">timestamp[26,3]</text>
<polygon fill="none" stroke="#000000" points="148,-366.7 148,-388.7 256,-388.7 256,-366.7 148,-366.7"/>
<image xlink:href="../../images/primaryKeys.png" width="11px" height="12px" preserveAspectRatio="xMinYMin meet" x="153" y="-383.7"/>
<text text-anchor="start" x="168" y="-373.8" font-family="Helvetica,sans-Serif" font-size="11.00" fill="#000000">id</text>
<polygon fill="none" stroke="#000000" points="256,-366.7 256,-388.7 346,-388.7 346,-366.7 256,-366.7"/>
<text text-anchor="start" x="259" y="-374.4" font-family="Helvetica,sans-Serif" font-size="11.00" fill="#000000">serial[10]</text>
<polygon fill="none" stroke="#000000" points="148,-344.7 148,-366.7 256,-366.7 256,-344.7 148,-344.7"/>
<text text-anchor="start" x="168" y="-351.8" font-family="Helvetica,sans-Serif" font-size="11.00" fill="#000000">name</text>
<polygon fill="none" stroke="#000000" points="256,-344.7 256,-366.7 346,-366.7 346,-344.7 256,-344.7"/>
<text text-anchor="start" x="258.5043" y="-352.4" font-family="Helvetica,sans-Serif" font-size="11.00" fill="#000000">text[2147483647]</text>
<polygon fill="none" stroke="#000000" points="148,-322.7 148,-344.7 256,-344.7 256,-322.7 148,-322.7"/>
<text text-anchor="start" x="168" y="-329.8" font-family="Helvetica,sans-Serif" font-size="11.00" fill="#000000">street_address</text>
<polygon fill="none" stroke="#000000" points="256,-322.7 256,-344.7 346,-344.7 346,-322.7 256,-322.7"/>
<text text-anchor="start" x="258.5043" y="-330.4" font-family="Helvetica,sans-Serif" font-size="11.00" fill="#000000">text[2147483647]</text>
<polygon fill="none" stroke="#000000" points="148,-300.7 148,-322.7 256,-322.7 256,-300.7 148,-300.7"/>
<text text-anchor="start" x="168" y="-307.8" font-family="Helvetica,sans-Serif" font-size="11.00" fill="#000000">city</text>
<polygon fill="none" stroke="#000000" points="256,-300.7 256,-322.7 346,-322.7 346,-300.7 256,-300.7"/>
<text text-anchor="start" x="258.5043" y="-308.4" font-family="Helvetica,sans-Serif" font-size="11.00" fill="#000000">text[2147483647]</text>
<polygon fill="none" stroke="#000000" points="148,-278.7 148,-300.7 256,-300.7 256,-278.7 148,-278.7"/>
<text text-anchor="start" x="168" y="-285.8" font-family="Helvetica,sans-Serif" font-size="11.00" fill="#000000">postal_code</text>
<polygon fill="none" stroke="#000000" points="256,-278.7 256,-300.7 346,-300.7 346,-278.7 256,-278.7"/>
<text text-anchor="start" x="258.5043" y="-286.4" font-family="Helvetica,sans-Serif" font-size="11.00" fill="#000000">text[2147483647]</text>
<polygon fill="none" stroke="#000000" points="148,-256.7 148,-278.7 256,-278.7 256,-256.7 148,-256.7"/>
<text text-anchor="start" x="168" y="-263.8" font-family="Helvetica,sans-Serif" font-size="11.00" fill="#000000">region</text>
<polygon fill="none" stroke="#000000" points="256,-256.7 256,-278.7 346,-278.7 346,-256.7 256,-256.7"/>
<text text-anchor="start" x="258.5043" y="-264.4" font-family="Helvetica,sans-Serif" font-size="11.00" fill="#000000">text[2147483647]</text>
<polygon fill="none" stroke="#000000" points="148,-234.7 148,-256.7 256,-256.7 256,-234.7 148,-234.7"/>
<text text-anchor="start" x="168" y="-241.8" font-family="Helvetica,sans-Serif" font-size="11.00" fill="#000000">country</text>
<polygon fill="none" stroke="#000000" points="256,-234.7 256,-256.7 346,-256.7 346,-234.7 256,-234.7"/>
<text text-anchor="start" x="258.5043" y="-242.4" font-family="Helvetica,sans-Serif" font-size="11.00" fill="#000000">text[2147483647]</text>
<polygon fill="none" stroke="#000000" points="148,-212.7 148,-234.7 256,-234.7 256,-212.7 148,-212.7"/>
<text text-anchor="start" x="168" y="-219.8" font-family="Helvetica,sans-Serif" font-size="11.00" fill="#000000">latitude</text>
<polygon fill="none" stroke="#000000" points="256,-212.7 256,-234.7 346,-234.7 346,-212.7 256,-212.7"/>
<text text-anchor="start" x="259" y="-220.4" font-family="Helvetica,sans-Serif" font-size="11.00" fill="#000000">float8[17,17]</text>
<polygon fill="none" stroke="#000000" points="148,-190.7 148,-212.7 256,-212.7 256,-190.7 148,-190.7"/>
<text text-anchor="start" x="168" y="-197.8" font-family="Helvetica,sans-Serif" font-size="11.00" fill="#000000">longitude</text>
<polygon fill="none" stroke="#000000" points="256,-190.7 256,-212.7 346,-212.7 346,-190.7 256,-190.7"/>
<text text-anchor="start" x="259" y="-198.4" font-family="Helvetica,sans-Serif" font-size="11.00" fill="#000000">float8[17,17]</text>
<polygon fill="none" stroke="#000000" points="148,-168.7 148,-190.7 256,-190.7 256,-168.7 148,-168.7"/>
<image xlink:href="../../images/foreignKeys.png" width="11px" height="12px" preserveAspectRatio="xMinYMin meet" x="153" y="-185.7"/>
<text text-anchor="start" x="168" y="-175.8" font-family="Helvetica,sans-Serif" font-size="11.00" fill="#000000">chapter_id</text>
<polygon fill="none" stroke="#000000" points="256,-168.7 256,-190.7 346,-190.7 346,-168.7 256,-168.7"/>
<text text-anchor="start" x="259" y="-176.4" font-family="Helvetica,sans-Serif" font-size="11.00" fill="#000000">int4[10]</text>
<polygon fill="#ffffff" stroke="transparent" points="148,-149.7 148,-168.7 193,-168.7 193,-149.7 148,-149.7"/>
<polygon fill="none" stroke="#000000" points="148,-149.7 148,-168.7 193,-168.7 193,-149.7 148,-149.7"/>
<text text-anchor="start" x="151" y="-155.8" font-family="Helvetica,sans-Serif" font-size="11.00" fill="#000000">&lt; 1</text>
<polygon fill="#ffffff" stroke="transparent" points="193,-149.7 193,-168.7 256,-168.7 256,-149.7 193,-149.7"/>
<polygon fill="none" stroke="#000000" points="193,-149.7 193,-168.7 256,-168.7 256,-149.7 193,-149.7"/>
<text text-anchor="start" x="220.6105" y="-155.8" font-family="Helvetica,sans-Serif" font-size="11.00" fill="#000000">0 rows</text>
<polygon fill="#ffffff" stroke="transparent" points="256,-149.7 256,-168.7 346,-168.7 346,-149.7 256,-149.7"/>
<polygon fill="none" stroke="#000000" points="256,-149.7 256,-168.7 346,-168.7 346,-149.7 256,-149.7"/>
<text text-anchor="start" x="327.4053" y="-155.8" font-family="Helvetica,sans-Serif" font-size="11.00" fill="#000000">1 &gt;</text>
<polygon fill="none" stroke="#000000" stroke-width="2" points="147,-148.7 147,-456.7 347,-456.7 347,-148.7 147,-148.7"/>
</a>
</g>
</g>
<!-- events&#45;&gt;venues -->
<g id="edge6" class="edge">
<title>events:w&#45;&gt;venues:e</title>
<path fill="none" stroke="#000000" d="M382.84,-265.2989C352.3711,-284.8784 396.3785,-377.7 346,-377.7"/>
<polygon fill="#000000" stroke="#000000" points="389.2465,-263.6706 397.8868,-265.1891 393.1233,-262.6853 397,-261.7 397,-261.7 397,-261.7 393.1233,-262.6853 396.1132,-258.2109 389.2465,-263.6706 389.2465,-263.6706"/>
<ellipse fill="none" stroke="#000000" cx="386.1451" cy="-264.4589" rx="3.2" ry="3.2"/>
</g>
<!-- event_tags -->
<g id="node5" class="node">
<title>event_tags</title>
<g id="a_node5"><a xlink:href="../../tables/event_tags.html" xlink:title="event_tags" target="_top">
<polygon fill="#ffffff" stroke="transparent" points="586,-256.2 586,-317.2 682,-317.2 682,-256.2 586,-256.2"/>
<polygon fill="#f5f5f5" stroke="transparent" points="586,-293.7 586,-316.7 682,-316.7 682,-293.7 586,-293.7"/>
<polygon fill="none" stroke="#000000" points="586,-293.7 586,-316.7 682,-316.7 682,-293.7 586,-293.7"/>
<text text-anchor="start" x="590.5984" y="-302.8" font-family="Helvetica,sans-Serif" font-weight="bold" font-size="11.00" fill="#000000">event_tags</text>
<text text-anchor="start" x="647.5219" y="-301.8" font-family="Helvetica,sans-Serif" font-size="11.00" fill="#000000">[table]</text>
<polygon fill="none" stroke="#000000" points="586,-274.7 586,-293.7 682,-293.7 682,-274.7 586,-274.7"/>
<text text-anchor="start" x="589" y="-280.8" font-family="Helvetica,sans-Serif" font-size="11.00" fill="#000000">...</text>
<polygon fill="#ffffff" stroke="transparent" points="586,-255.7 586,-274.7 619,-274.7 619,-255.7 586,-255.7"/>
<polygon fill="none" stroke="#000000" points="586,-255.7 586,-274.7 619,-274.7 619,-255.7 586,-255.7"/>
<text text-anchor="start" x="589" y="-261.8" font-family="Helvetica,sans-Serif" font-size="11.00" fill="#000000">&lt; 2</text>
<polygon fill="#ffffff" stroke="transparent" points="619,-255.7 619,-274.7 663,-274.7 663,-255.7 619,-255.7"/>
<polygon fill="none" stroke="#000000" points="619,-255.7 619,-274.7 663,-274.7 663,-255.7 619,-255.7"/>
<text text-anchor="start" x="627.6105" y="-261.8" font-family="Helvetica,sans-Serif" font-size="11.00" fill="#000000">0 rows</text>
<polygon fill="#ffffff" stroke="transparent" points="663,-255.7 663,-274.7 682,-274.7 682,-255.7 663,-255.7"/>
<polygon fill="none" stroke="#000000" points="663,-255.7 663,-274.7 682,-274.7 682,-255.7 663,-255.7"/>
<text text-anchor="start" x="672.8862" y="-261.8" font-family="Helvetica,sans-Serif" font-size="11.00" fill="#000000"> &#160;</text>
</a>
</g>
</g>
<!-- event_tags&#45;&gt;events -->
<g id="edge3" class="edge">
<title>event_tags:w&#45;&gt;events:e</title>
<path fill="none" stroke="#000000" d="M571.1762,-283.7C555.1248,-283.7 546.3924,-283.7 525,-283.7"/>
<polygon fill="#000000" stroke="#000000" points="578,-283.7001 586,-287.3 582,-283.7 586,-283.7 586,-283.7 586,-283.7 582,-283.7 586,-280.1 578,-283.7001 578,-283.7001"/>
<ellipse fill="none" stroke="#000000" cx="574.8" cy="-283.7001" rx="3.2" ry="3.2"/>
</g>
<!-- event_users -->
<g id="node6" class="node">
<title>event_users</title>
<g id="a_node6"><a xlink:href="../../tables/event_users.html" xlink:title="event_users" target="_top">
<polygon fill="#ffffff" stroke="transparent" points="583,-174.2 583,-235.2 685,-235.2 685,-174.2 583,-174.2"/>
<polygon fill="#f5f5f5" stroke="transparent" points="583,-211.7 583,-234.7 685,-234.7 685,-211.7 583,-211.7"/>
<polygon fill="none" stroke="#000000" points="583,-211.7 583,-234.7 685,-234.7 685,-211.7 583,-211.7"/>
<text text-anchor="start" x="587.5459" y="-220.8" font-family="Helvetica,sans-Serif" font-weight="bold" font-size="11.00" fill="#000000">event_users</text>
<text text-anchor="start" x="650.5219" y="-219.8" font-family="Helvetica,sans-Serif" font-size="11.00" fill="#000000">[table]</text>
<polygon fill="none" stroke="#000000" points="583,-192.7 583,-211.7 685,-211.7 685,-192.7 583,-192.7"/>
<text text-anchor="start" x="586" y="-198.8" font-family="Helvetica,sans-Serif" font-size="11.00" fill="#000000">...</text>
<polygon fill="#ffffff" stroke="transparent" points="583,-173.7 583,-192.7 615,-192.7 615,-173.7 583,-173.7"/>
<polygon fill="none" stroke="#000000" points="583,-173.7 583,-192.7 615,-192.7 615,-173.7 583,-173.7"/>
<text text-anchor="start" x="586" y="-179.8" font-family="Helvetica,sans-Serif" font-size="11.00" fill="#000000">&lt; 4</text>
<polygon fill="#ffffff" stroke="transparent" points="615,-173.7 615,-192.7 658,-192.7 658,-173.7 615,-173.7"/>
<polygon fill="none" stroke="#000000" points="615,-173.7 615,-192.7 658,-192.7 658,-173.7 615,-173.7"/>
<text text-anchor="start" x="622.6105" y="-179.8" font-family="Helvetica,sans-Serif" font-size="11.00" fill="#000000">0 rows</text>
<polygon fill="#ffffff" stroke="transparent" points="658,-173.7 658,-192.7 685,-192.7 685,-173.7 658,-173.7"/>
<polygon fill="none" stroke="#000000" points="658,-173.7 658,-192.7 685,-192.7 685,-173.7 658,-173.7"/>
<text text-anchor="start" x="666.4053" y="-179.8" font-family="Helvetica,sans-Serif" font-size="11.00" fill="#000000">2 &gt;</text>
</a>
</g>
</g>
<!-- event_users&#45;&gt;events -->
<g id="edge4" class="edge">
<title>event_users:w&#45;&gt;events:e</title>
<path fill="none" stroke="#000000" d="M568.8756,-205.655C545.3298,-222.0348 563.7109,-283.7 525,-283.7"/>
<polygon fill="#000000" stroke="#000000" points="575.2963,-203.8572 583.9707,-205.1667 579.1482,-202.7786 583,-201.7 583,-201.7 583,-201.7 579.1482,-202.7786 582.0293,-198.2333 575.2963,-203.8572 575.2963,-203.8572"/>
<ellipse fill="none" stroke="#000000" cx="572.2148" cy="-204.7201" rx="3.2" ry="3.2"/>
</g>
<!-- venues&#45;&gt;chapters -->
<g id="edge8" class="edge">
<title>venues:w&#45;&gt;chapters:e</title>
<path fill="none" stroke="#000000" d="M134.02,-176.0395C121.3515,-168.4498 117.3491,-151.7 97.5,-151.7"/>
<polygon fill="#000000" stroke="#000000" points="140.2609,-177.6736 147.0881,-183.1826 144.1304,-178.6868 148,-179.7 148,-179.7 148,-179.7 144.1304,-178.6868 148.9119,-176.2174 140.2609,-177.6736 140.2609,-177.6736"/>
<ellipse fill="none" stroke="#000000" cx="137.1653" cy="-176.863" rx="3.2" ry="3.2"/>
</g>
<!-- user_bans -->
<g id="node8" class="node">
<title>user_bans</title>
<g id="a_node8"><a xlink:href="../../tables/user_bans.html" xlink:title="user_bans" target="_top">
<polygon fill="#ffffff" stroke="transparent" points="200,-38.2 200,-99.2 294,-99.2 294,-38.2 200,-38.2"/>
<polygon fill="#f5f5f5" stroke="transparent" points="200,-75.7 200,-98.7 294,-98.7 294,-75.7 200,-75.7"/>
<polygon fill="none" stroke="#000000" points="200,-75.7 200,-98.7 294,-98.7 294,-75.7 200,-75.7"/>
<text text-anchor="start" x="204.8244" y="-84.8" font-family="Helvetica,sans-Serif" font-weight="bold" font-size="11.00" fill="#000000">user_bans</text>
<text text-anchor="start" x="259.5219" y="-83.8" font-family="Helvetica,sans-Serif" font-size="11.00" fill="#000000">[table]</text>
<polygon fill="none" stroke="#000000" points="200,-56.7 200,-75.7 294,-75.7 294,-56.7 200,-56.7"/>
<text text-anchor="start" x="203" y="-62.8" font-family="Helvetica,sans-Serif" font-size="11.00" fill="#000000">...</text>
<polygon fill="#ffffff" stroke="transparent" points="200,-37.7 200,-56.7 232,-56.7 232,-37.7 200,-37.7"/>
<polygon fill="none" stroke="#000000" points="200,-37.7 200,-56.7 232,-56.7 232,-37.7 200,-37.7"/>
<text text-anchor="start" x="203" y="-43.8" font-family="Helvetica,sans-Serif" font-size="11.00" fill="#000000">&lt; 2</text>
<polygon fill="#ffffff" stroke="transparent" points="232,-37.7 232,-56.7 276,-56.7 276,-37.7 232,-37.7"/>
<polygon fill="none" stroke="#000000" points="232,-37.7 232,-56.7 276,-56.7 276,-37.7 232,-37.7"/>
<text text-anchor="start" x="240.6105" y="-43.8" font-family="Helvetica,sans-Serif" font-size="11.00" fill="#000000">0 rows</text>
<polygon fill="#ffffff" stroke="transparent" points="276,-37.7 276,-56.7 294,-56.7 294,-37.7 276,-37.7"/>
<polygon fill="none" stroke="#000000" points="276,-37.7 276,-56.7 294,-56.7 294,-37.7 276,-37.7"/>
<text text-anchor="start" x="284.8862" y="-43.8" font-family="Helvetica,sans-Serif" font-size="11.00" fill="#000000"> &#160;</text>
</a>
</g>
</g>
<!-- user_bans&#45;&gt;chapters -->
<g id="edge7" class="edge">
<title>user_bans:w&#45;&gt;chapters:e</title>
<path fill="none" stroke="#000000" d="M185.6421,-67.5378C164.2836,-73.7602 160.2679,-94.7074 138,-113.7 119.2203,-129.7175 122.1827,-151.7 97.5,-151.7"/>
<polygon fill="#000000" stroke="#000000" points="192.0647,-66.7157 200.4571,-69.2709 196.0324,-66.2079 200,-65.7 200,-65.7 200,-65.7 196.0324,-66.2079 199.5429,-62.1291 192.0647,-66.7157 192.0647,-66.7157"/>
<ellipse fill="none" stroke="#000000" cx="188.8906" cy="-67.122" rx="3.2" ry="3.2"/>
</g>
</g>
</svg>
