<?xml version="1.0" encoding="UTF-8" standalone="no"?>
<!DOCTYPE svg PUBLIC "-//W3C//DTD SVG 1.1//EN"
 "http://www.w3.org/Graphics/SVG/1.1/DTD/svg11.dtd">
<!-- Generated by graphviz version 2.40.1 (20161225.0304)
 -->
<!-- Title: twoDegreesRelationshipsDiagram Pages: 1 -->
<svg width="581pt" height="421pt"
 viewBox="0.00 0.00 581.00 420.70" xmlns="http://www.w3.org/2000/svg" xmlns:xlink="http://www.w3.org/1999/xlink">
<g id="graph0" class="graph" transform="scale(1 1) rotate(0) translate(4 416.7)">
<title>twoDegreesRelationshipsDiagram</title>
<polygon fill="#ffffff" stroke="transparent" points="-4,4 -4,-416.7 577,-416.7 577,4 -4,4"/>
<text text-anchor="middle" x="72.4936" y="-7.3" font-family="Helvetica,sans-Serif" font-size="11.00" fill="#000000">Generated by SchemaSpy</text>
<!-- event_sponsors -->
<g id="node1" class="node">
<title>event_sponsors</title>
<g id="a_node1"><a xlink:href="../../tables/event_sponsors.html" xlink:title="event_sponsors" target="_top">
<polygon fill="#ffffff" stroke="transparent" points="441.5,-347.2 441.5,-408.2 561.5,-408.2 561.5,-347.2 441.5,-347.2"/>
<polygon fill="#f5f5f5" stroke="transparent" points="441.5,-384.7 441.5,-407.7 561.5,-407.7 561.5,-384.7 441.5,-384.7"/>
<polygon fill="none" stroke="#000000" points="441.5,-384.7 441.5,-407.7 561.5,-407.7 561.5,-384.7 441.5,-384.7"/>
<text text-anchor="start" x="446.181" y="-393.8" font-family="Helvetica,sans-Serif" font-weight="bold" font-size="11.00" fill="#000000">event_sponsors</text>
<text text-anchor="start" x="527.0219" y="-392.8" font-family="Helvetica,sans-Serif" font-size="11.00" fill="#000000">[table]</text>
<polygon fill="none" stroke="#000000" points="441.5,-365.7 441.5,-384.7 561.5,-384.7 561.5,-365.7 441.5,-365.7"/>
<text text-anchor="start" x="444.5" y="-371.8" font-family="Helvetica,sans-Serif" font-size="11.00" fill="#000000">...</text>
<polygon fill="#ffffff" stroke="transparent" points="441.5,-346.7 441.5,-365.7 486.5,-365.7 486.5,-346.7 441.5,-346.7"/>
<polygon fill="none" stroke="#000000" points="441.5,-346.7 441.5,-365.7 486.5,-365.7 486.5,-346.7 441.5,-346.7"/>
<text text-anchor="start" x="444.5" y="-352.8" font-family="Helvetica,sans-Serif" font-size="11.00" fill="#000000">&lt; 2</text>
<polygon fill="#ffffff" stroke="transparent" points="486.5,-346.7 486.5,-365.7 536.5,-365.7 536.5,-346.7 486.5,-346.7"/>
<polygon fill="none" stroke="#000000" points="486.5,-346.7 486.5,-365.7 536.5,-365.7 536.5,-346.7 486.5,-346.7"/>
<text text-anchor="start" x="501.1105" y="-352.8" font-family="Helvetica,sans-Serif" font-size="11.00" fill="#000000">8 rows</text>
<polygon fill="#ffffff" stroke="transparent" points="536.5,-346.7 536.5,-365.7 561.5,-365.7 561.5,-346.7 536.5,-346.7"/>
<polygon fill="none" stroke="#000000" points="536.5,-346.7 536.5,-365.7 561.5,-365.7 561.5,-346.7 536.5,-346.7"/>
<text text-anchor="start" x="552.3862" y="-352.8" font-family="Helvetica,sans-Serif" font-size="11.00" fill="#000000"> &#160;</text>
</a>
</g>
</g>
<!-- events -->
<g id="node2" class="node">
<title>events</title>
<g id="a_node2"><a xlink:href="../../tables/events.html" xlink:title="events" target="_top">
<polygon fill="#ffffff" stroke="transparent" points="291,-159.2 291,-286.2 389,-286.2 389,-159.2 291,-159.2"/>
<polygon fill="#f5f5f5" stroke="transparent" points="291,-262.7 291,-285.7 389,-285.7 389,-262.7 291,-262.7"/>
<polygon fill="none" stroke="#000000" points="291,-262.7 291,-285.7 389,-285.7 389,-262.7 291,-262.7"/>
<text text-anchor="start" x="296" y="-271.8" font-family="Helvetica,sans-Serif" font-weight="bold" font-size="11.00" fill="#000000">events</text>
<text text-anchor="start" x="354.0437" y="-270.8" font-family="Helvetica,sans-Serif" font-size="11.00" fill="#000000">[table]</text>
<polygon fill="none" stroke="#000000" points="291,-240.7 291,-262.7 389,-262.7 389,-240.7 291,-240.7"/>
<image xlink:href="../../images/primaryKeys.png" width="11px" height="12px" preserveAspectRatio="xMinYMin meet" x="296" y="-257.7"/>
<text text-anchor="start" x="311" y="-247.8" font-family="Helvetica,sans-Serif" font-size="11.00" fill="#000000">id</text>
<polygon fill="none" stroke="#000000" points="291,-218.7 291,-240.7 389,-240.7 389,-218.7 291,-218.7"/>
<image xlink:href="../../images/foreignKeys.png" width="11px" height="12px" preserveAspectRatio="xMinYMin meet" x="296" y="-235.7"/>
<text text-anchor="start" x="311" y="-225.8" font-family="Helvetica,sans-Serif" font-size="11.00" fill="#000000">venue_id</text>
<polygon fill="none" stroke="#000000" points="291,-196.7 291,-218.7 389,-218.7 389,-196.7 291,-196.7"/>
<image xlink:href="../../images/foreignKeys.png" width="11px" height="12px" preserveAspectRatio="xMinYMin meet" x="296" y="-213.7"/>
<text text-anchor="start" x="311" y="-203.8" font-family="Helvetica,sans-Serif" font-size="11.00" fill="#000000">chapter_id</text>
<polygon fill="none" stroke="#000000" points="291,-177.7 291,-196.7 389,-196.7 389,-177.7 291,-177.7"/>
<text text-anchor="start" x="294" y="-183.8" font-family="Helvetica,sans-Serif" font-size="11.00" fill="#000000">...</text>
<polygon fill="#ffffff" stroke="transparent" points="291,-158.7 291,-177.7 321,-177.7 321,-158.7 291,-158.7"/>
<polygon fill="none" stroke="#000000" points="291,-158.7 291,-177.7 321,-177.7 321,-158.7 291,-158.7"/>
<text text-anchor="start" x="294" y="-164.8" font-family="Helvetica,sans-Serif" font-size="11.00" fill="#000000">&lt; 2</text>
<polygon fill="#ffffff" stroke="transparent" points="321,-158.7 321,-177.7 363,-177.7 363,-158.7 321,-158.7"/>
<polygon fill="none" stroke="#000000" points="321,-158.7 321,-177.7 363,-177.7 363,-158.7 321,-158.7"/>
<text text-anchor="start" x="327.6105" y="-164.8" font-family="Helvetica,sans-Serif" font-size="11.00" fill="#000000">4 rows</text>
<polygon fill="#ffffff" stroke="transparent" points="363,-158.7 363,-177.7 389,-177.7 389,-158.7 363,-158.7"/>
<polygon fill="none" stroke="#000000" points="363,-158.7 363,-177.7 389,-177.7 389,-158.7 363,-158.7"/>
<text text-anchor="start" x="370.4053" y="-164.8" font-family="Helvetica,sans-Serif" font-size="11.00" fill="#000000">4 &gt;</text>
</a>
</g>
</g>
<!-- event_sponsors&#45;&gt;events -->
<g id="edge1" class="edge">
<title>event_sponsors:w&#45;&gt;events:e</title>
<path fill="none" stroke="#000000" d="M427.4517,-371.41C393.8261,-351.8496 442.6336,-251.7 389,-251.7"/>
<polygon fill="#000000" stroke="#000000" points="433.7107,-372.8758 440.6791,-378.2052 437.6054,-373.7879 441.5,-374.7 441.5,-374.7 441.5,-374.7 437.6054,-373.7879 442.3209,-371.1948 433.7107,-372.8758 433.7107,-372.8758"/>
<ellipse fill="none" stroke="#000000" cx="430.595" cy="-372.1461" rx="3.2" ry="3.2"/>
</g>
<!-- chapters -->
<g id="node3" class="node">
<title>chapters</title>
<g id="a_node3"><a xlink:href="../../tables/chapters.html" xlink:title="chapters" target="_top">
<polygon fill="#ffffff" stroke="transparent" points="82.5,-38.2 82.5,-99.2 167.5,-99.2 167.5,-38.2 82.5,-38.2"/>
<polygon fill="#f5f5f5" stroke="transparent" points="83,-75.7 83,-98.7 168,-98.7 168,-75.7 83,-75.7"/>
<polygon fill="none" stroke="#000000" points="83,-75.7 83,-98.7 168,-98.7 168,-75.7 83,-75.7"/>
<text text-anchor="start" x="87.9108" y="-84.8" font-family="Helvetica,sans-Serif" font-weight="bold" font-size="11.00" fill="#000000">chapters</text>
<text text-anchor="start" x="133.5219" y="-83.8" font-family="Helvetica,sans-Serif" font-size="11.00" fill="#000000">[table]</text>
<polygon fill="none" stroke="#000000" points="83,-56.7 83,-75.7 168,-75.7 168,-56.7 83,-56.7"/>
<text text-anchor="start" x="86" y="-62.8" font-family="Helvetica,sans-Serif" font-size="11.00" fill="#000000">...</text>
<polygon fill="#ffffff" stroke="transparent" points="83,-37.7 83,-56.7 106,-56.7 106,-37.7 83,-37.7"/>
<polygon fill="none" stroke="#000000" points="83,-37.7 83,-56.7 106,-56.7 106,-37.7 83,-37.7"/>
<text text-anchor="start" x="86" y="-43.8" font-family="Helvetica,sans-Serif" font-size="11.00" fill="#000000">&lt; 1</text>
<polygon fill="#ffffff" stroke="transparent" points="106,-37.7 106,-56.7 145,-56.7 145,-37.7 106,-37.7"/>
<polygon fill="none" stroke="#000000" points="106,-37.7 106,-56.7 145,-56.7 145,-37.7 106,-37.7"/>
<text text-anchor="start" x="109.6105" y="-43.8" font-family="Helvetica,sans-Serif" font-size="11.00" fill="#000000">4 rows</text>
<polygon fill="#ffffff" stroke="transparent" points="145,-37.7 145,-56.7 168,-56.7 168,-37.7 145,-37.7"/>
<polygon fill="none" stroke="#000000" points="145,-37.7 145,-56.7 168,-56.7 168,-37.7 145,-37.7"/>
<text text-anchor="start" x="149.4053" y="-43.8" font-family="Helvetica,sans-Serif" font-size="11.00" fill="#000000">3 &gt;</text>
</a>
</g>
</g>
<!-- events&#45;&gt;chapters -->
<g id="edge2" class="edge">
<title>events:w&#45;&gt;chapters:e</title>
<path fill="none" stroke="#000000" d="M276.6555,-204.7523C252.4132,-191.9124 277.649,-140.1469 250,-109.7 222.195,-79.0813 209.3596,-65.7 168,-65.7"/>
<polygon fill="#000000" stroke="#000000" points="283.1637,-206.0896 290.2753,-211.2263 287.0819,-206.8948 291,-207.7 291,-207.7 291,-207.7 287.0819,-206.8948 291.7247,-204.1737 283.1637,-206.0896 283.1637,-206.0896"/>
<ellipse fill="none" stroke="#000000" cx="280.0292" cy="-205.4455" rx="3.2" ry="3.2"/>
</g>
<!-- venues -->
<g id="node4" class="node">
<title>venues</title>
<g id="a_node4"><a xlink:href="../../tables/venues.html" xlink:title="venues" target="_top">
<polygon fill="#ffffff" stroke="transparent" points="8,-120.7 8,-408.7 242,-408.7 242,-120.7 8,-120.7"/>
<polygon fill="#f5f5f5" stroke="transparent" points="10,-383.7 10,-406.7 240,-406.7 240,-383.7 10,-383.7"/>
<polygon fill="none" stroke="#000000" points="10,-383.7 10,-406.7 240,-406.7 240,-383.7 10,-383.7"/>
<text text-anchor="start" x="15" y="-392.8" font-family="Helvetica,sans-Serif" font-weight="bold" font-size="11.00" fill="#000000">venues</text>
<text text-anchor="start" x="205.0437" y="-391.8" font-family="Helvetica,sans-Serif" font-size="11.00" fill="#000000">[table]</text>
<polygon fill="none" stroke="#000000" points="10,-361.7 10,-383.7 131,-383.7 131,-361.7 10,-361.7"/>
<image xlink:href="../../images/primaryKeys.png" width="11px" height="12px" preserveAspectRatio="xMinYMin meet" x="15" y="-378.7"/>
<text text-anchor="start" x="30" y="-368.8" font-family="Helvetica,sans-Serif" font-size="11.00" fill="#000000">id</text>
<polygon fill="none" stroke="#000000" points="131,-361.7 131,-383.7 240,-383.7 240,-361.7 131,-361.7"/>
<text text-anchor="start" x="134" y="-369.4" font-family="Helvetica,sans-Serif" font-size="11.00" fill="#000000">serial[10]</text>
<polygon fill="none" stroke="#000000" points="10,-339.7 10,-361.7 131,-361.7 131,-339.7 10,-339.7"/>
<text text-anchor="start" x="30" y="-346.8" font-family="Helvetica,sans-Serif" font-size="11.00" fill="#000000">name</text>
<polygon fill="none" stroke="#000000" points="131,-339.7 131,-361.7 240,-361.7 240,-339.7 131,-339.7"/>
<text text-anchor="start" x="133.5344" y="-347.4" font-family="Helvetica,sans-Serif" font-size="11.00" fill="#000000">varchar[2147483647]</text>
<polygon fill="none" stroke="#000000" points="10,-317.7 10,-339.7 131,-339.7 131,-317.7 10,-317.7"/>
<text text-anchor="start" x="30" y="-324.8" font-family="Helvetica,sans-Serif" font-size="11.00" fill="#000000">created_at</text>
<polygon fill="none" stroke="#000000" points="131,-317.7 131,-339.7 240,-339.7 240,-317.7 131,-317.7"/>
<text text-anchor="start" x="134" y="-325.4" font-family="Helvetica,sans-Serif" font-size="11.00" fill="#000000">timestamp[29,6]</text>
<polygon fill="none" stroke="#000000" points="10,-295.7 10,-317.7 131,-317.7 131,-295.7 10,-295.7"/>
<text text-anchor="start" x="30" y="-302.8" font-family="Helvetica,sans-Serif" font-size="11.00" fill="#000000">updated_at</text>
<polygon fill="none" stroke="#000000" points="131,-295.7 131,-317.7 240,-317.7 240,-295.7 131,-295.7"/>
<text text-anchor="start" x="134" y="-303.4" font-family="Helvetica,sans-Serif" font-size="11.00" fill="#000000">timestamp[29,6]</text>
<polygon fill="none" stroke="#000000" points="10,-273.7 10,-295.7 131,-295.7 131,-273.7 10,-273.7"/>
<text text-anchor="start" x="30" y="-280.8" font-family="Helvetica,sans-Serif" font-size="11.00" fill="#000000">street_address</text>
<polygon fill="none" stroke="#000000" points="131,-273.7 131,-295.7 240,-295.7 240,-273.7 131,-273.7"/>
<text text-anchor="start" x="133.5344" y="-281.4" font-family="Helvetica,sans-Serif" font-size="11.00" fill="#000000">varchar[2147483647]</text>
<polygon fill="none" stroke="#000000" points="10,-251.7 10,-273.7 131,-273.7 131,-251.7 10,-251.7"/>
<text text-anchor="start" x="30" y="-258.8" font-family="Helvetica,sans-Serif" font-size="11.00" fill="#000000">city</text>
<polygon fill="none" stroke="#000000" points="131,-251.7 131,-273.7 240,-273.7 240,-251.7 131,-251.7"/>
<text text-anchor="start" x="133.5344" y="-259.4" font-family="Helvetica,sans-Serif" font-size="11.00" fill="#000000">varchar[2147483647]</text>
<polygon fill="none" stroke="#000000" points="10,-229.7 10,-251.7 131,-251.7 131,-229.7 10,-229.7"/>
<text text-anchor="start" x="30" y="-236.8" font-family="Helvetica,sans-Serif" font-size="11.00" fill="#000000">postal_code</text>
<polygon fill="none" stroke="#000000" points="131,-229.7 131,-251.7 240,-251.7 240,-229.7 131,-229.7"/>
<text text-anchor="start" x="133.5344" y="-237.4" font-family="Helvetica,sans-Serif" font-size="11.00" fill="#000000">varchar[2147483647]</text>
<polygon fill="none" stroke="#000000" points="10,-207.7 10,-229.7 131,-229.7 131,-207.7 10,-207.7"/>
<text text-anchor="start" x="30" y="-214.8" font-family="Helvetica,sans-Serif" font-size="11.00" fill="#000000">region</text>
<polygon fill="none" stroke="#000000" points="131,-207.7 131,-229.7 240,-229.7 240,-207.7 131,-207.7"/>
<text text-anchor="start" x="133.5344" y="-215.4" font-family="Helvetica,sans-Serif" font-size="11.00" fill="#000000">varchar[2147483647]</text>
<polygon fill="none" stroke="#000000" points="10,-185.7 10,-207.7 131,-207.7 131,-185.7 10,-185.7"/>
<text text-anchor="start" x="30" y="-192.8" font-family="Helvetica,sans-Serif" font-size="11.00" fill="#000000">country</text>
<polygon fill="none" stroke="#000000" points="131,-185.7 131,-207.7 240,-207.7 240,-185.7 131,-185.7"/>
<text text-anchor="start" x="133.5344" y="-193.4" font-family="Helvetica,sans-Serif" font-size="11.00" fill="#000000">varchar[2147483647]</text>
<polygon fill="none" stroke="#000000" points="10,-163.7 10,-185.7 131,-185.7 131,-163.7 10,-163.7"/>
<text text-anchor="start" x="30" y="-170.8" font-family="Helvetica,sans-Serif" font-size="11.00" fill="#000000">latitude</text>
<polygon fill="none" stroke="#000000" points="131,-163.7 131,-185.7 240,-185.7 240,-163.7 131,-163.7"/>
<text text-anchor="start" x="134" y="-171.4" font-family="Helvetica,sans-Serif" font-size="11.00" fill="#000000">float8[17,17]</text>
<polygon fill="none" stroke="#000000" points="10,-141.7 10,-163.7 131,-163.7 131,-141.7 10,-141.7"/>
<text text-anchor="start" x="30" y="-148.8" font-family="Helvetica,sans-Serif" font-size="11.00" fill="#000000">longitude</text>
<polygon fill="none" stroke="#000000" points="131,-141.7 131,-163.7 240,-163.7 240,-141.7 131,-141.7"/>
<text text-anchor="start" x="134" y="-149.4" font-family="Helvetica,sans-Serif" font-size="11.00" fill="#000000">float8[17,17]</text>
<polygon fill="#ffffff" stroke="transparent" points="10,-122.7 10,-141.7 62,-141.7 62,-122.7 10,-122.7"/>
<polygon fill="none" stroke="#000000" points="10,-122.7 10,-141.7 62,-141.7 62,-122.7 10,-122.7"/>
<text text-anchor="start" x="13" y="-128.8" font-family="Helvetica,sans-Serif" font-size="11.00" fill="#000000">&lt; 0</text>
<polygon fill="#ffffff" stroke="transparent" points="62,-122.7 62,-141.7 131,-141.7 131,-122.7 62,-122.7"/>
<polygon fill="none" stroke="#000000" points="62,-122.7 62,-141.7 131,-141.7 131,-122.7 62,-122.7"/>
<text text-anchor="start" x="95.6105" y="-128.8" font-family="Helvetica,sans-Serif" font-size="11.00" fill="#000000">4 rows</text>
<polygon fill="#ffffff" stroke="transparent" points="131,-122.7 131,-141.7 240,-141.7 240,-122.7 131,-122.7"/>
<polygon fill="none" stroke="#000000" points="131,-122.7 131,-141.7 240,-141.7 240,-122.7 131,-122.7"/>
<text text-anchor="start" x="221.4053" y="-128.8" font-family="Helvetica,sans-Serif" font-size="11.00" fill="#000000">1 &gt;</text>
<polygon fill="none" stroke="#000000" stroke-width="2" points="9,-121.7 9,-407.7 241,-407.7 241,-121.7 9,-121.7"/>
</a>
</g>
</g>
<!-- events&#45;&gt;venues -->
<g id="edge3" class="edge">
<title>events:w&#45;&gt;venues:e</title>
<path fill="none" stroke="#000000" d="M276.7665,-232.6868C236.8345,-253.222 301.6778,-372.7 240,-372.7"/>
<polygon fill="#000000" stroke="#000000" points="283.1705,-231.343 291.7393,-233.2233 287.0853,-230.5215 291,-229.7 291,-229.7 291,-229.7 287.0853,-230.5215 290.2607,-226.1767 283.1705,-231.343 283.1705,-231.343"/>
<ellipse fill="none" stroke="#000000" cx="280.0387" cy="-232.0002" rx="3.2" ry="3.2"/>
</g>
<!-- rsvps -->
<g id="node5" class="node">
<title>rsvps</title>
<g id="a_node5"><a xlink:href="../../tables/rsvps.html" xlink:title="rsvps" target="_top">
<polygon fill="#ffffff" stroke="transparent" points="463,-265.2 463,-326.2 540,-326.2 540,-265.2 463,-265.2"/>
<polygon fill="#f5f5f5" stroke="transparent" points="463.5,-302.7 463.5,-325.7 540.5,-325.7 540.5,-302.7 463.5,-302.7"/>
<polygon fill="none" stroke="#000000" points="463.5,-302.7 463.5,-325.7 540.5,-325.7 540.5,-302.7 463.5,-302.7"/>
<text text-anchor="start" x="468.5" y="-311.8" font-family="Helvetica,sans-Serif" font-weight="bold" font-size="11.00" fill="#000000">rsvps</text>
<text text-anchor="start" x="505.5437" y="-310.8" font-family="Helvetica,sans-Serif" font-size="11.00" fill="#000000">[table]</text>
<polygon fill="none" stroke="#000000" points="463.5,-283.7 463.5,-302.7 540.5,-302.7 540.5,-283.7 463.5,-283.7"/>
<text text-anchor="start" x="466.5" y="-289.8" font-family="Helvetica,sans-Serif" font-size="11.00" fill="#000000">...</text>
<polygon fill="#ffffff" stroke="transparent" points="463.5,-264.7 463.5,-283.7 484.5,-283.7 484.5,-264.7 463.5,-264.7"/>
<polygon fill="none" stroke="#000000" points="463.5,-264.7 463.5,-283.7 484.5,-283.7 484.5,-264.7 463.5,-264.7"/>
<text text-anchor="start" x="466.2027" y="-270.8" font-family="Helvetica,sans-Serif" font-size="11.00" fill="#000000">&lt; 2</text>
<polygon fill="#ffffff" stroke="transparent" points="484.5,-264.7 484.5,-283.7 528.5,-283.7 528.5,-264.7 484.5,-264.7"/>
<polygon fill="none" stroke="#000000" points="484.5,-264.7 484.5,-283.7 528.5,-283.7 528.5,-264.7 484.5,-264.7"/>
<text text-anchor="start" x="487.2478" y="-270.8" font-family="Helvetica,sans-Serif" font-size="11.00" fill="#000000">20 rows</text>
<polygon fill="#ffffff" stroke="transparent" points="528.5,-264.7 528.5,-283.7 540.5,-283.7 540.5,-264.7 528.5,-264.7"/>
<polygon fill="none" stroke="#000000" points="528.5,-264.7 528.5,-283.7 540.5,-283.7 540.5,-264.7 528.5,-264.7"/>
<text text-anchor="start" x="531.4431" y="-270.8" font-family="Helvetica,sans-Serif" font-size="11.00" fill="#000000"> &#160;</text>
</a>
</g>
</g>
<!-- rsvps&#45;&gt;events -->
<g id="edge4" class="edge">
<title>rsvps:w&#45;&gt;events:e</title>
<path fill="none" stroke="#000000" d="M448.9856,-290.258C425.1722,-281.4315 421.1841,-251.7 389,-251.7"/>
<polygon fill="#000000" stroke="#000000" points="455.6109,-291.3727 462.9027,-296.2501 459.5554,-292.0363 463.5,-292.7 463.5,-292.7 463.5,-292.7 459.5554,-292.0363 464.0973,-289.1499 455.6109,-291.3727 455.6109,-291.3727"/>
<ellipse fill="none" stroke="#000000" cx="452.4552" cy="-290.8417" rx="3.2" ry="3.2"/>
</g>
<!-- tags -->
<g id="node6" class="node">
<title>tags</title>
<g id="a_node6"><a xlink:href="../../tables/tags.html" xlink:title="tags" target="_top">
<polygon fill="#ffffff" stroke="transparent" points="466,-183.2 466,-244.2 537,-244.2 537,-183.2 466,-183.2"/>
<polygon fill="#f5f5f5" stroke="transparent" points="466.5,-220.7 466.5,-243.7 537.5,-243.7 537.5,-220.7 466.5,-220.7"/>
<polygon fill="none" stroke="#000000" points="466.5,-220.7 466.5,-243.7 537.5,-243.7 537.5,-220.7 466.5,-220.7"/>
<text text-anchor="start" x="471.5" y="-229.8" font-family="Helvetica,sans-Serif" font-weight="bold" font-size="11.00" fill="#000000">tags</text>
<text text-anchor="start" x="502.5437" y="-228.8" font-family="Helvetica,sans-Serif" font-size="11.00" fill="#000000">[table]</text>
<polygon fill="none" stroke="#000000" points="466.5,-201.7 466.5,-220.7 537.5,-220.7 537.5,-201.7 466.5,-201.7"/>
<text text-anchor="start" x="469.5" y="-207.8" font-family="Helvetica,sans-Serif" font-size="11.00" fill="#000000">...</text>
<polygon fill="#ffffff" stroke="transparent" points="466.5,-182.7 466.5,-201.7 487.5,-201.7 487.5,-182.7 466.5,-182.7"/>
<polygon fill="none" stroke="#000000" points="466.5,-182.7 466.5,-201.7 487.5,-201.7 487.5,-182.7 466.5,-182.7"/>
<text text-anchor="start" x="469.2027" y="-188.8" font-family="Helvetica,sans-Serif" font-size="11.00" fill="#000000">&lt; 1</text>
<polygon fill="#ffffff" stroke="transparent" points="487.5,-182.7 487.5,-201.7 525.5,-201.7 525.5,-182.7 487.5,-182.7"/>
<polygon fill="none" stroke="#000000" points="487.5,-182.7 487.5,-201.7 525.5,-201.7 525.5,-182.7 487.5,-182.7"/>
<text text-anchor="start" x="490.3053" y="-188.8" font-family="Helvetica,sans-Serif" font-size="11.00" fill="#000000">9 rows</text>
<polygon fill="#ffffff" stroke="transparent" points="525.5,-182.7 525.5,-201.7 537.5,-201.7 537.5,-182.7 525.5,-182.7"/>
<polygon fill="none" stroke="#000000" points="525.5,-182.7 525.5,-201.7 537.5,-201.7 537.5,-182.7 525.5,-182.7"/>
<text text-anchor="start" x="528.4431" y="-188.8" font-family="Helvetica,sans-Serif" font-size="11.00" fill="#000000"> &#160;</text>
</a>
</g>
</g>
<!-- tags&#45;&gt;events -->
<g id="edge5" class="edge">
<title>tags:w&#45;&gt;events:e</title>
<path fill="none" stroke="#000000" d="M452.179,-212.9043C426.8756,-221.4205 422.4877,-251.7 389,-251.7"/>
<polygon fill="#000000" stroke="#000000" points="458.5931,-211.9171 467.0477,-214.2581 462.5466,-211.3086 466.5,-210.7 466.5,-210.7 466.5,-210.7 462.5466,-211.3086 465.9523,-207.1419 458.5931,-211.9171 458.5931,-211.9171"/>
<ellipse fill="none" stroke="#000000" cx="455.4304" cy="-212.4039" rx="3.2" ry="3.2"/>
</g>
<!-- user_event_roles -->
<g id="node7" class="node">
<title>user_event_roles</title>
<g id="a_node7"><a xlink:href="../../tables/user_event_roles.html" xlink:title="user_event_roles" target="_top">
<polygon fill="#ffffff" stroke="transparent" points="438,-101.2 438,-162.2 565,-162.2 565,-101.2 438,-101.2"/>
<polygon fill="#f5f5f5" stroke="transparent" points="438.5,-138.7 438.5,-161.7 565.5,-161.7 565.5,-138.7 438.5,-138.7"/>
<polygon fill="none" stroke="#000000" points="438.5,-138.7 438.5,-161.7 565.5,-161.7 565.5,-138.7 438.5,-138.7"/>
<text text-anchor="start" x="443.3222" y="-147.8" font-family="Helvetica,sans-Serif" font-weight="bold" font-size="11.00" fill="#000000">user_event_roles</text>
<text text-anchor="start" x="531.0219" y="-146.8" font-family="Helvetica,sans-Serif" font-size="11.00" fill="#000000">[table]</text>
<polygon fill="none" stroke="#000000" points="438.5,-119.7 438.5,-138.7 565.5,-138.7 565.5,-119.7 438.5,-119.7"/>
<text text-anchor="start" x="441.5" y="-125.8" font-family="Helvetica,sans-Serif" font-size="11.00" fill="#000000">...</text>
<polygon fill="#ffffff" stroke="transparent" points="438.5,-100.7 438.5,-119.7 484.5,-119.7 484.5,-100.7 438.5,-100.7"/>
<polygon fill="none" stroke="#000000" points="438.5,-100.7 438.5,-119.7 484.5,-119.7 484.5,-100.7 438.5,-100.7"/>
<text text-anchor="start" x="441.5" y="-106.8" font-family="Helvetica,sans-Serif" font-size="11.00" fill="#000000">&lt; 2</text>
<polygon fill="#ffffff" stroke="transparent" points="484.5,-100.7 484.5,-119.7 540.5,-119.7 540.5,-100.7 484.5,-100.7"/>
<polygon fill="none" stroke="#000000" points="484.5,-100.7 484.5,-119.7 540.5,-119.7 540.5,-100.7 484.5,-100.7"/>
<text text-anchor="start" x="498.9956" y="-106.8" font-family="Helvetica,sans-Serif" font-size="11.00" fill="#000000">20 rows</text>
<polygon fill="#ffffff" stroke="transparent" points="540.5,-100.7 540.5,-119.7 565.5,-119.7 565.5,-100.7 540.5,-100.7"/>
<polygon fill="none" stroke="#000000" points="540.5,-100.7 540.5,-119.7 565.5,-119.7 565.5,-100.7 540.5,-100.7"/>
<text text-anchor="start" x="556.3862" y="-106.8" font-family="Helvetica,sans-Serif" font-size="11.00" fill="#000000"> &#160;</text>
</a>
</g>
</g>
<!-- user_event_roles&#45;&gt;events -->
<g id="edge6" class="edge">
<title>user_event_roles:w&#45;&gt;events:e</title>
<path fill="none" stroke="#000000" d="M424.2176,-132.2485C392.1442,-152.4156 441.9426,-251.7 389,-251.7"/>
<polygon fill="#000000" stroke="#000000" points="430.736,-130.629 439.3681,-132.1938 434.618,-129.6645 438.5,-128.7 438.5,-128.7 438.5,-128.7 434.618,-129.6645 437.6319,-125.2062 430.736,-130.629 430.736,-130.629"/>
<ellipse fill="none" stroke="#000000" cx="427.6305" cy="-131.4006" rx="3.2" ry="3.2"/>
</g>
</g>
</svg>
