<?xml version="1.0" encoding="UTF-8" standalone="no"?>
<!DOCTYPE svg PUBLIC "-//W3C//DTD SVG 1.1//EN"
 "http://www.w3.org/Graphics/SVG/1.1/DTD/svg11.dtd">
<!-- Generated by graphviz version 2.40.1 (20161225.0304)
 -->
<!-- Title: twoDegreesRelationshipsDiagram Pages: 1 -->
<svg width="548pt" height="421pt"
 viewBox="0.00 0.00 548.00 420.70" xmlns="http://www.w3.org/2000/svg" xmlns:xlink="http://www.w3.org/1999/xlink">
<g id="graph0" class="graph" transform="scale(1 1) rotate(0) translate(4 416.7)">
<title>twoDegreesRelationshipsDiagram</title>
<polygon fill="#ffffff" stroke="transparent" points="-4,4 -4,-416.7 544,-416.7 544,4 -4,4"/>
<text text-anchor="middle" x="72.4936" y="-7.3" font-family="Helvetica,sans-Serif" font-size="11.00" fill="#000000">Generated by SchemaSpy</text>
<!-- event_sponsors -->
<g id="node1" class="node">
<title>event_sponsors</title>
<g id="a_node1"><a xlink:href="../../tables/event_sponsors.html" xlink:title="event_sponsors" target="_top">
<polygon fill="#ffffff" stroke="transparent" points="412,-284.2 412,-345.2 532,-345.2 532,-284.2 412,-284.2"/>
<polygon fill="#f5f5f5" stroke="transparent" points="412,-321.7 412,-344.7 532,-344.7 532,-321.7 412,-321.7"/>
<polygon fill="none" stroke="#000000" points="412,-321.7 412,-344.7 532,-344.7 532,-321.7 412,-321.7"/>
<text text-anchor="start" x="416.681" y="-330.8" font-family="Helvetica,sans-Serif" font-weight="bold" font-size="11.00" fill="#000000">event_sponsors</text>
<text text-anchor="start" x="497.5219" y="-329.8" font-family="Helvetica,sans-Serif" font-size="11.00" fill="#000000">[table]</text>
<polygon fill="none" stroke="#000000" points="412,-302.7 412,-321.7 532,-321.7 532,-302.7 412,-302.7"/>
<text text-anchor="start" x="415" y="-308.8" font-family="Helvetica,sans-Serif" font-size="11.00" fill="#000000">...</text>
<polygon fill="#ffffff" stroke="transparent" points="412,-283.7 412,-302.7 457,-302.7 457,-283.7 412,-283.7"/>
<polygon fill="none" stroke="#000000" points="412,-283.7 412,-302.7 457,-302.7 457,-283.7 412,-283.7"/>
<text text-anchor="start" x="415" y="-289.8" font-family="Helvetica,sans-Serif" font-size="11.00" fill="#000000">&lt; 2</text>
<polygon fill="#ffffff" stroke="transparent" points="457,-283.7 457,-302.7 507,-302.7 507,-283.7 457,-283.7"/>
<polygon fill="none" stroke="#000000" points="457,-283.7 457,-302.7 507,-302.7 507,-283.7 457,-283.7"/>
<text text-anchor="start" x="471.6105" y="-289.8" font-family="Helvetica,sans-Serif" font-size="11.00" fill="#000000">0 rows</text>
<polygon fill="#ffffff" stroke="transparent" points="507,-283.7 507,-302.7 532,-302.7 532,-283.7 507,-283.7"/>
<polygon fill="none" stroke="#000000" points="507,-283.7 507,-302.7 532,-302.7 532,-283.7 507,-283.7"/>
<text text-anchor="start" x="522.8862" y="-289.8" font-family="Helvetica,sans-Serif" font-size="11.00" fill="#000000"> &#160;</text>
</a>
</g>
</g>
<!-- events -->
<g id="node2" class="node">
<title>events</title>
<g id="a_node2"><a xlink:href="../../tables/events.html" xlink:title="events" target="_top">
<polygon fill="#ffffff" stroke="transparent" points="259,-137.2 259,-264.2 363,-264.2 363,-137.2 259,-137.2"/>
<polygon fill="#f5f5f5" stroke="transparent" points="259,-240.7 259,-263.7 363,-263.7 363,-240.7 259,-240.7"/>
<polygon fill="none" stroke="#000000" points="259,-240.7 259,-263.7 363,-263.7 363,-240.7 259,-240.7"/>
<text text-anchor="start" x="264" y="-249.8" font-family="Helvetica,sans-Serif" font-weight="bold" font-size="11.00" fill="#000000">events</text>
<text text-anchor="start" x="328.0437" y="-248.8" font-family="Helvetica,sans-Serif" font-size="11.00" fill="#000000">[table]</text>
<polygon fill="none" stroke="#000000" points="259,-218.7 259,-240.7 363,-240.7 363,-218.7 259,-218.7"/>
<image xlink:href="../../images/primaryKeys.png" width="11px" height="12px" preserveAspectRatio="xMinYMin meet" x="264" y="-235.7"/>
<text text-anchor="start" x="279" y="-225.8" font-family="Helvetica,sans-Serif" font-size="11.00" fill="#000000">id</text>
<polygon fill="none" stroke="#000000" points="259,-196.7 259,-218.7 363,-218.7 363,-196.7 259,-196.7"/>
<image xlink:href="../../images/foreignKeys.png" width="11px" height="12px" preserveAspectRatio="xMinYMin meet" x="264" y="-213.7"/>
<text text-anchor="start" x="279" y="-203.8" font-family="Helvetica,sans-Serif" font-size="11.00" fill="#000000">venue_id</text>
<polygon fill="none" stroke="#000000" points="259,-174.7 259,-196.7 363,-196.7 363,-174.7 259,-174.7"/>
<image xlink:href="../../images/foreignKeys.png" width="11px" height="12px" preserveAspectRatio="xMinYMin meet" x="264" y="-191.7"/>
<text text-anchor="start" x="279" y="-181.8" font-family="Helvetica,sans-Serif" font-size="11.00" fill="#000000">chapter_id</text>
<polygon fill="none" stroke="#000000" points="259,-155.7 259,-174.7 363,-174.7 363,-155.7 259,-155.7"/>
<text text-anchor="start" x="262" y="-161.8" font-family="Helvetica,sans-Serif" font-size="11.00" fill="#000000">...</text>
<polygon fill="#ffffff" stroke="transparent" points="259,-136.7 259,-155.7 292,-155.7 292,-136.7 259,-136.7"/>
<polygon fill="none" stroke="#000000" points="259,-136.7 259,-155.7 292,-155.7 292,-136.7 259,-136.7"/>
<text text-anchor="start" x="262" y="-142.8" font-family="Helvetica,sans-Serif" font-size="11.00" fill="#000000">&lt; 2</text>
<polygon fill="#ffffff" stroke="transparent" points="292,-136.7 292,-155.7 336,-155.7 336,-136.7 292,-136.7"/>
<polygon fill="none" stroke="#000000" points="292,-136.7 292,-155.7 336,-155.7 336,-136.7 292,-136.7"/>
<text text-anchor="start" x="300.6105" y="-142.8" font-family="Helvetica,sans-Serif" font-size="11.00" fill="#000000">0 rows</text>
<polygon fill="#ffffff" stroke="transparent" points="336,-136.7 336,-155.7 363,-155.7 363,-136.7 336,-136.7"/>
<polygon fill="none" stroke="#000000" points="336,-136.7 336,-155.7 363,-155.7 363,-136.7 336,-136.7"/>
<text text-anchor="start" x="344.4053" y="-142.8" font-family="Helvetica,sans-Serif" font-size="11.00" fill="#000000">3 &gt;</text>
</a>
</g>
</g>
<!-- event_sponsors&#45;&gt;events -->
<g id="edge1" class="edge">
<title>event_sponsors:w&#45;&gt;events:e</title>
<path fill="none" stroke="#000000" d="M398.0294,-307.0564C378.288,-289.7098 399.3194,-229.7 363,-229.7"/>
<polygon fill="#000000" stroke="#000000" points="404.4084,-309.1766 410.8645,-315.1162 408.2042,-310.4383 412,-311.7 412,-311.7 412,-311.7 408.2042,-310.4383 413.1355,-308.2838 404.4084,-309.1766 404.4084,-309.1766"/>
<ellipse fill="none" stroke="#000000" cx="401.3717" cy="-308.1673" rx="3.2" ry="3.2"/>
</g>
<!-- chapters -->
<g id="node5" class="node">
<title>chapters</title>
<g id="a_node5"><a xlink:href="../../tables/chapters.html" xlink:title="chapters" target="_top">
<polygon fill="#ffffff" stroke="transparent" points="66.5,-38.2 66.5,-99.2 151.5,-99.2 151.5,-38.2 66.5,-38.2"/>
<polygon fill="#f5f5f5" stroke="transparent" points="67,-75.7 67,-98.7 152,-98.7 152,-75.7 67,-75.7"/>
<polygon fill="none" stroke="#000000" points="67,-75.7 67,-98.7 152,-98.7 152,-75.7 67,-75.7"/>
<text text-anchor="start" x="71.9108" y="-84.8" font-family="Helvetica,sans-Serif" font-weight="bold" font-size="11.00" fill="#000000">chapters</text>
<text text-anchor="start" x="117.5219" y="-83.8" font-family="Helvetica,sans-Serif" font-size="11.00" fill="#000000">[table]</text>
<polygon fill="none" stroke="#000000" points="67,-56.7 67,-75.7 152,-75.7 152,-56.7 67,-56.7"/>
<text text-anchor="start" x="70" y="-62.8" font-family="Helvetica,sans-Serif" font-size="11.00" fill="#000000">...</text>
<polygon fill="#ffffff" stroke="transparent" points="67,-37.7 67,-56.7 86,-56.7 86,-37.7 67,-37.7"/>
<polygon fill="none" stroke="#000000" points="67,-37.7 67,-56.7 86,-56.7 86,-37.7 67,-37.7"/>
<text text-anchor="start" x="70" y="-43.8" font-family="Helvetica,sans-Serif" font-size="11.00" fill="#000000"> &#160;</text>
<polygon fill="#ffffff" stroke="transparent" points="86,-37.7 86,-56.7 127,-56.7 127,-37.7 86,-37.7"/>
<polygon fill="none" stroke="#000000" points="86,-37.7 86,-56.7 127,-56.7 127,-37.7 86,-37.7"/>
<text text-anchor="start" x="91.6105" y="-43.8" font-family="Helvetica,sans-Serif" font-size="11.00" fill="#000000">0 rows</text>
<polygon fill="#ffffff" stroke="transparent" points="127,-37.7 127,-56.7 152,-56.7 152,-37.7 127,-37.7"/>
<polygon fill="none" stroke="#000000" points="127,-37.7 127,-56.7 152,-56.7 152,-37.7 127,-37.7"/>
<text text-anchor="start" x="133.4053" y="-43.8" font-family="Helvetica,sans-Serif" font-size="11.00" fill="#000000">3 &gt;</text>
</a>
</g>
</g>
<!-- events&#45;&gt;chapters -->
<g id="edge4" class="edge">
<title>events:w&#45;&gt;chapters:e</title>
<path fill="none" stroke="#000000" d="M244.5958,-182.1496C226.9199,-170.591 239.6037,-133.419 218,-109.7 194.2608,-83.6364 187.2543,-65.7 152,-65.7"/>
<polygon fill="#000000" stroke="#000000" points="251.2325,-183.7854 258.1384,-189.1954 255.1162,-184.7427 259,-185.7 259,-185.7 259,-185.7 255.1162,-184.7427 259.8616,-182.2046 251.2325,-183.7854 251.2325,-183.7854"/>
<ellipse fill="none" stroke="#000000" cx="248.1255" cy="-183.0195" rx="3.2" ry="3.2"/>
</g>
<!-- venues -->
<g id="node6" class="node">
<title>venues</title>
<g id="a_node6"><a xlink:href="../../tables/venues.html" xlink:title="venues" target="_top">
<polygon fill="#ffffff" stroke="transparent" points="8,-120.7 8,-408.7 210,-408.7 210,-120.7 8,-120.7"/>
<polygon fill="#f5f5f5" stroke="transparent" points="10,-383.7 10,-406.7 208,-406.7 208,-383.7 10,-383.7"/>
<polygon fill="none" stroke="#000000" points="10,-383.7 10,-406.7 208,-406.7 208,-383.7 10,-383.7"/>
<text text-anchor="start" x="15" y="-392.8" font-family="Helvetica,sans-Serif" font-weight="bold" font-size="11.00" fill="#000000">venues</text>
<text text-anchor="start" x="173.0437" y="-391.8" font-family="Helvetica,sans-Serif" font-size="11.00" fill="#000000">[table]</text>
<polygon fill="none" stroke="#000000" points="10,-361.7 10,-383.7 118,-383.7 118,-361.7 10,-361.7"/>
<text text-anchor="start" x="30" y="-368.8" font-family="Helvetica,sans-Serif" font-size="11.00" fill="#000000">created_at</text>
<polygon fill="none" stroke="#000000" points="118,-361.7 118,-383.7 208,-383.7 208,-361.7 118,-361.7"/>
<text text-anchor="start" x="121" y="-369.4" font-family="Helvetica,sans-Serif" font-size="11.00" fill="#000000">timestamp[26,3]</text>
<polygon fill="none" stroke="#000000" points="10,-339.7 10,-361.7 118,-361.7 118,-339.7 10,-339.7"/>
<text text-anchor="start" x="30" y="-346.8" font-family="Helvetica,sans-Serif" font-size="11.00" fill="#000000">updated_at</text>
<polygon fill="none" stroke="#000000" points="118,-339.7 118,-361.7 208,-361.7 208,-339.7 118,-339.7"/>
<text text-anchor="start" x="121" y="-347.4" font-family="Helvetica,sans-Serif" font-size="11.00" fill="#000000">timestamp[26,3]</text>
<polygon fill="none" stroke="#000000" points="10,-317.7 10,-339.7 118,-339.7 118,-317.7 10,-317.7"/>
<image xlink:href="../../images/primaryKeys.png" width="11px" height="12px" preserveAspectRatio="xMinYMin meet" x="15" y="-334.7"/>
<text text-anchor="start" x="30" y="-324.8" font-family="Helvetica,sans-Serif" font-size="11.00" fill="#000000">id</text>
<polygon fill="none" stroke="#000000" points="118,-317.7 118,-339.7 208,-339.7 208,-317.7 118,-317.7"/>
<text text-anchor="start" x="121" y="-325.4" font-family="Helvetica,sans-Serif" font-size="11.00" fill="#000000">serial[10]</text>
<polygon fill="none" stroke="#000000" points="10,-295.7 10,-317.7 118,-317.7 118,-295.7 10,-295.7"/>
<text text-anchor="start" x="30" y="-302.8" font-family="Helvetica,sans-Serif" font-size="11.00" fill="#000000">name</text>
<polygon fill="none" stroke="#000000" points="118,-295.7 118,-317.7 208,-317.7 208,-295.7 118,-295.7"/>
<text text-anchor="start" x="120.5042" y="-303.4" font-family="Helvetica,sans-Serif" font-size="11.00" fill="#000000">text[2147483647]</text>
<polygon fill="none" stroke="#000000" points="10,-273.7 10,-295.7 118,-295.7 118,-273.7 10,-273.7"/>
<text text-anchor="start" x="30" y="-280.8" font-family="Helvetica,sans-Serif" font-size="11.00" fill="#000000">street_address</text>
<polygon fill="none" stroke="#000000" points="118,-273.7 118,-295.7 208,-295.7 208,-273.7 118,-273.7"/>
<text text-anchor="start" x="120.5042" y="-281.4" font-family="Helvetica,sans-Serif" font-size="11.00" fill="#000000">text[2147483647]</text>
<polygon fill="none" stroke="#000000" points="10,-251.7 10,-273.7 118,-273.7 118,-251.7 10,-251.7"/>
<text text-anchor="start" x="30" y="-258.8" font-family="Helvetica,sans-Serif" font-size="11.00" fill="#000000">city</text>
<polygon fill="none" stroke="#000000" points="118,-251.7 118,-273.7 208,-273.7 208,-251.7 118,-251.7"/>
<text text-anchor="start" x="120.5042" y="-259.4" font-family="Helvetica,sans-Serif" font-size="11.00" fill="#000000">text[2147483647]</text>
<polygon fill="none" stroke="#000000" points="10,-229.7 10,-251.7 118,-251.7 118,-229.7 10,-229.7"/>
<text text-anchor="start" x="30" y="-236.8" font-family="Helvetica,sans-Serif" font-size="11.00" fill="#000000">postal_code</text>
<polygon fill="none" stroke="#000000" points="118,-229.7 118,-251.7 208,-251.7 208,-229.7 118,-229.7"/>
<text text-anchor="start" x="120.5042" y="-237.4" font-family="Helvetica,sans-Serif" font-size="11.00" fill="#000000">text[2147483647]</text>
<polygon fill="none" stroke="#000000" points="10,-207.7 10,-229.7 118,-229.7 118,-207.7 10,-207.7"/>
<text text-anchor="start" x="30" y="-214.8" font-family="Helvetica,sans-Serif" font-size="11.00" fill="#000000">region</text>
<polygon fill="none" stroke="#000000" points="118,-207.7 118,-229.7 208,-229.7 208,-207.7 118,-207.7"/>
<text text-anchor="start" x="120.5042" y="-215.4" font-family="Helvetica,sans-Serif" font-size="11.00" fill="#000000">text[2147483647]</text>
<polygon fill="none" stroke="#000000" points="10,-185.7 10,-207.7 118,-207.7 118,-185.7 10,-185.7"/>
<text text-anchor="start" x="30" y="-192.8" font-family="Helvetica,sans-Serif" font-size="11.00" fill="#000000">country</text>
<polygon fill="none" stroke="#000000" points="118,-185.7 118,-207.7 208,-207.7 208,-185.7 118,-185.7"/>
<text text-anchor="start" x="120.5042" y="-193.4" font-family="Helvetica,sans-Serif" font-size="11.00" fill="#000000">text[2147483647]</text>
<polygon fill="none" stroke="#000000" points="10,-163.7 10,-185.7 118,-185.7 118,-163.7 10,-163.7"/>
<text text-anchor="start" x="30" y="-170.8" font-family="Helvetica,sans-Serif" font-size="11.00" fill="#000000">latitude</text>
<polygon fill="none" stroke="#000000" points="118,-163.7 118,-185.7 208,-185.7 208,-163.7 118,-163.7"/>
<text text-anchor="start" x="121" y="-171.4" font-family="Helvetica,sans-Serif" font-size="11.00" fill="#000000">float8[17,17]</text>
<polygon fill="none" stroke="#000000" points="10,-141.7 10,-163.7 118,-163.7 118,-141.7 10,-141.7"/>
<text text-anchor="start" x="30" y="-148.8" font-family="Helvetica,sans-Serif" font-size="11.00" fill="#000000">longitude</text>
<polygon fill="none" stroke="#000000" points="118,-141.7 118,-163.7 208,-163.7 208,-141.7 118,-141.7"/>
<text text-anchor="start" x="121" y="-149.4" font-family="Helvetica,sans-Serif" font-size="11.00" fill="#000000">float8[17,17]</text>
<polygon fill="#ffffff" stroke="transparent" points="10,-122.7 10,-141.7 55,-141.7 55,-122.7 10,-122.7"/>
<polygon fill="none" stroke="#000000" points="10,-122.7 10,-141.7 55,-141.7 55,-122.7 10,-122.7"/>
<text text-anchor="start" x="13" y="-128.8" font-family="Helvetica,sans-Serif" font-size="11.00" fill="#000000">&lt; 0</text>
<polygon fill="#ffffff" stroke="transparent" points="55,-122.7 55,-141.7 118,-141.7 118,-122.7 55,-122.7"/>
<polygon fill="none" stroke="#000000" points="55,-122.7 55,-141.7 118,-141.7 118,-122.7 55,-122.7"/>
<text text-anchor="start" x="82.6105" y="-128.8" font-family="Helvetica,sans-Serif" font-size="11.00" fill="#000000">0 rows</text>
<polygon fill="#ffffff" stroke="transparent" points="118,-122.7 118,-141.7 208,-141.7 208,-122.7 118,-122.7"/>
<polygon fill="none" stroke="#000000" points="118,-122.7 118,-141.7 208,-141.7 208,-122.7 118,-122.7"/>
<text text-anchor="start" x="189.4053" y="-128.8" font-family="Helvetica,sans-Serif" font-size="11.00" fill="#000000">1 &gt;</text>
<polygon fill="none" stroke="#000000" stroke-width="2" points="9,-121.7 9,-407.7 209,-407.7 209,-121.7 9,-121.7"/>
</a>
</g>
</g>
<!-- events&#45;&gt;venues -->
<g id="edge5" class="edge">
<title>events:w&#45;&gt;venues:e</title>
<path fill="none" stroke="#000000" d="M244.7982,-211.1908C212.7098,-231.03 260.4323,-328.7 208,-328.7"/>
<polygon fill="#000000" stroke="#000000" points="251.2312,-209.6096 259.8593,-211.1959 255.1156,-208.6548 259,-207.7 259,-207.7 259,-207.7 255.1156,-208.6548 258.1407,-204.2041 251.2312,-209.6096 251.2312,-209.6096"/>
<ellipse fill="none" stroke="#000000" cx="248.1237" cy="-210.3734" rx="3.2" ry="3.2"/>
</g>
<!-- event_tags -->
<g id="node3" class="node">
<title>event_tags</title>
<g id="a_node3"><a xlink:href="../../tables/event_tags.html" xlink:title="event_tags" target="_top">
<polygon fill="#ffffff" stroke="transparent" points="424,-202.2 424,-263.2 520,-263.2 520,-202.2 424,-202.2"/>
<polygon fill="#f5f5f5" stroke="transparent" points="424,-239.7 424,-262.7 520,-262.7 520,-239.7 424,-239.7"/>
<polygon fill="none" stroke="#000000" points="424,-239.7 424,-262.7 520,-262.7 520,-239.7 424,-239.7"/>
<text text-anchor="start" x="428.5984" y="-248.8" font-family="Helvetica,sans-Serif" font-weight="bold" font-size="11.00" fill="#000000">event_tags</text>
<text text-anchor="start" x="485.5219" y="-247.8" font-family="Helvetica,sans-Serif" font-size="11.00" fill="#000000">[table]</text>
<polygon fill="none" stroke="#000000" points="424,-220.7 424,-239.7 520,-239.7 520,-220.7 424,-220.7"/>
<text text-anchor="start" x="427" y="-226.8" font-family="Helvetica,sans-Serif" font-size="11.00" fill="#000000">...</text>
<polygon fill="#ffffff" stroke="transparent" points="424,-201.7 424,-220.7 457,-220.7 457,-201.7 424,-201.7"/>
<polygon fill="none" stroke="#000000" points="424,-201.7 424,-220.7 457,-220.7 457,-201.7 424,-201.7"/>
<text text-anchor="start" x="427" y="-207.8" font-family="Helvetica,sans-Serif" font-size="11.00" fill="#000000">&lt; 2</text>
<polygon fill="#ffffff" stroke="transparent" points="457,-201.7 457,-220.7 501,-220.7 501,-201.7 457,-201.7"/>
<polygon fill="none" stroke="#000000" points="457,-201.7 457,-220.7 501,-220.7 501,-201.7 457,-201.7"/>
<text text-anchor="start" x="465.6105" y="-207.8" font-family="Helvetica,sans-Serif" font-size="11.00" fill="#000000">0 rows</text>
<polygon fill="#ffffff" stroke="transparent" points="501,-201.7 501,-220.7 520,-220.7 520,-201.7 501,-201.7"/>
<polygon fill="none" stroke="#000000" points="501,-201.7 501,-220.7 520,-220.7 520,-201.7 501,-201.7"/>
<text text-anchor="start" x="510.8862" y="-207.8" font-family="Helvetica,sans-Serif" font-size="11.00" fill="#000000"> &#160;</text>
</a>
</g>
</g>
<!-- event_tags&#45;&gt;events -->
<g id="edge2" class="edge">
<title>event_tags:w&#45;&gt;events:e</title>
<path fill="none" stroke="#000000" d="M409.1762,-229.7C393.1248,-229.7 384.3924,-229.7 363,-229.7"/>
<polygon fill="#000000" stroke="#000000" points="416,-229.7001 424,-233.3 420,-229.7 424,-229.7 424,-229.7 424,-229.7 420,-229.7 424,-226.1 416,-229.7001 416,-229.7001"/>
<ellipse fill="none" stroke="#000000" cx="412.8" cy="-229.7001" rx="3.2" ry="3.2"/>
</g>
<!-- event_users -->
<g id="node4" class="node">
<title>event_users</title>
<g id="a_node4"><a xlink:href="../../tables/event_users.html" xlink:title="event_users" target="_top">
<polygon fill="#ffffff" stroke="transparent" points="421,-120.2 421,-181.2 523,-181.2 523,-120.2 421,-120.2"/>
<polygon fill="#f5f5f5" stroke="transparent" points="421,-157.7 421,-180.7 523,-180.7 523,-157.7 421,-157.7"/>
<polygon fill="none" stroke="#000000" points="421,-157.7 421,-180.7 523,-180.7 523,-157.7 421,-157.7"/>
<text text-anchor="start" x="425.5459" y="-166.8" font-family="Helvetica,sans-Serif" font-weight="bold" font-size="11.00" fill="#000000">event_users</text>
<text text-anchor="start" x="488.5219" y="-165.8" font-family="Helvetica,sans-Serif" font-size="11.00" fill="#000000">[table]</text>
<polygon fill="none" stroke="#000000" points="421,-138.7 421,-157.7 523,-157.7 523,-138.7 421,-138.7"/>
<text text-anchor="start" x="424" y="-144.8" font-family="Helvetica,sans-Serif" font-size="11.00" fill="#000000">...</text>
<polygon fill="#ffffff" stroke="transparent" points="421,-119.7 421,-138.7 453,-138.7 453,-119.7 421,-119.7"/>
<polygon fill="none" stroke="#000000" points="421,-119.7 421,-138.7 453,-138.7 453,-119.7 421,-119.7"/>
<text text-anchor="start" x="424" y="-125.8" font-family="Helvetica,sans-Serif" font-size="11.00" fill="#000000">&lt; 4</text>
<polygon fill="#ffffff" stroke="transparent" points="453,-119.7 453,-138.7 496,-138.7 496,-119.7 453,-119.7"/>
<polygon fill="none" stroke="#000000" points="453,-119.7 453,-138.7 496,-138.7 496,-119.7 453,-119.7"/>
<text text-anchor="start" x="460.6105" y="-125.8" font-family="Helvetica,sans-Serif" font-size="11.00" fill="#000000">0 rows</text>
<polygon fill="#ffffff" stroke="transparent" points="496,-119.7 496,-138.7 523,-138.7 523,-119.7 496,-119.7"/>
<polygon fill="none" stroke="#000000" points="496,-119.7 496,-138.7 523,-138.7 523,-119.7 496,-119.7"/>
<text text-anchor="start" x="504.4053" y="-125.8" font-family="Helvetica,sans-Serif" font-size="11.00" fill="#000000">2 &gt;</text>
</a>
</g>
</g>
<!-- event_users&#45;&gt;events -->
<g id="edge3" class="edge">
<title>event_users:w&#45;&gt;events:e</title>
<path fill="none" stroke="#000000" d="M406.8756,-151.655C383.3298,-168.0348 401.7109,-229.7 363,-229.7"/>
<polygon fill="#000000" stroke="#000000" points="413.2963,-149.8572 421.9707,-151.1667 417.1482,-148.7786 421,-147.7 421,-147.7 421,-147.7 417.1482,-148.7786 420.0293,-144.2333 413.2963,-149.8572 413.2963,-149.8572"/>
<ellipse fill="none" stroke="#000000" cx="410.2148" cy="-150.7201" rx="3.2" ry="3.2"/>
</g>
</g>
</svg>
