<?xml version="1.0" encoding="UTF-8" standalone="no"?>
<!DOCTYPE svg PUBLIC "-//W3C//DTD SVG 1.1//EN"
 "http://www.w3.org/Graphics/SVG/1.1/DTD/svg11.dtd">
<!-- Generated by graphviz version 2.40.1 (20161225.0304)
 -->
<!-- Title: twoDegreesRelationshipsDiagram Pages: 1 -->
<svg width="685pt" height="552pt"
 viewBox="0.00 0.00 685.00 552.20" xmlns="http://www.w3.org/2000/svg" xmlns:xlink="http://www.w3.org/1999/xlink">
<g id="graph0" class="graph" transform="scale(1 1) rotate(0) translate(4 548.2)">
<title>twoDegreesRelationshipsDiagram</title>
<polygon fill="#ffffff" stroke="transparent" points="-4,4 -4,-548.2 681,-548.2 681,4 -4,4"/>
<text text-anchor="middle" x="72.4936" y="-7.3" font-family="Helvetica,sans-Serif" font-size="11.00" fill="#000000">Generated by SchemaSpy</text>
<!-- chapter_users -->
<g id="node1" class="node">
<title>chapter_users</title>
<g id="a_node1"><a xlink:href="../../tables/chapter_users.html" xlink:title="chapter_users" target="_top">
<polygon fill="#ffffff" stroke="transparent" points="190,-479.2 190,-540.2 302,-540.2 302,-479.2 190,-479.2"/>
<polygon fill="#f5f5f5" stroke="transparent" points="190,-516.7 190,-539.7 302,-539.7 302,-516.7 190,-516.7"/>
<polygon fill="none" stroke="#000000" points="190,-516.7 190,-539.7 302,-539.7 302,-516.7 190,-516.7"/>
<text text-anchor="start" x="194.6575" y="-525.8" font-family="Helvetica,sans-Serif" font-weight="bold" font-size="11.00" fill="#000000">chapter_users</text>
<text text-anchor="start" x="267.5219" y="-524.8" font-family="Helvetica,sans-Serif" font-size="11.00" fill="#000000">[table]</text>
<polygon fill="none" stroke="#000000" points="190,-497.7 190,-516.7 302,-516.7 302,-497.7 190,-497.7"/>
<text text-anchor="start" x="193" y="-503.8" font-family="Helvetica,sans-Serif" font-size="11.00" fill="#000000">...</text>
<polygon fill="#ffffff" stroke="transparent" points="190,-478.7 190,-497.7 231,-497.7 231,-478.7 190,-478.7"/>
<polygon fill="none" stroke="#000000" points="190,-478.7 190,-497.7 231,-497.7 231,-478.7 190,-478.7"/>
<text text-anchor="start" x="193" y="-484.8" font-family="Helvetica,sans-Serif" font-size="11.00" fill="#000000">&lt; 3</text>
<polygon fill="#ffffff" stroke="transparent" points="231,-478.7 231,-497.7 279,-497.7 279,-478.7 231,-478.7"/>
<polygon fill="none" stroke="#000000" points="231,-478.7 231,-497.7 279,-497.7 279,-478.7 231,-478.7"/>
<text text-anchor="start" x="243.6105" y="-484.8" font-family="Helvetica,sans-Serif" font-size="11.00" fill="#000000">0 rows</text>
<polygon fill="#ffffff" stroke="transparent" points="279,-478.7 279,-497.7 302,-497.7 302,-478.7 279,-478.7"/>
<polygon fill="none" stroke="#000000" points="279,-478.7 279,-497.7 302,-497.7 302,-478.7 279,-478.7"/>
<text text-anchor="start" x="292.8862" y="-484.8" font-family="Helvetica,sans-Serif" font-size="11.00" fill="#000000"> &#160;</text>
</a>
</g>
</g>
<!-- chapters -->
<g id="node2" class="node">
<title>chapters</title>
<g id="a_node2"><a xlink:href="../../tables/chapters.html" xlink:title="chapters" target="_top">
<polygon fill="#ffffff" stroke="transparent" points="8,-103.2 8,-186.2 96,-186.2 96,-103.2 8,-103.2"/>
<polygon fill="#f5f5f5" stroke="transparent" points="8,-162.7 8,-185.7 96,-185.7 96,-162.7 8,-162.7"/>
<polygon fill="none" stroke="#000000" points="8,-162.7 8,-185.7 96,-185.7 96,-162.7 8,-162.7"/>
<text text-anchor="start" x="13" y="-171.8" font-family="Helvetica,sans-Serif" font-weight="bold" font-size="11.00" fill="#000000">chapters</text>
<text text-anchor="start" x="61.0437" y="-170.8" font-family="Helvetica,sans-Serif" font-size="11.00" fill="#000000">[table]</text>
<polygon fill="none" stroke="#000000" points="8,-140.7 8,-162.7 96,-162.7 96,-140.7 8,-140.7"/>
<image xlink:href="../../images/primaryKeys.png" width="11px" height="12px" preserveAspectRatio="xMinYMin meet" x="13" y="-157.7"/>
<text text-anchor="start" x="28" y="-147.8" font-family="Helvetica,sans-Serif" font-size="11.00" fill="#000000">id</text>
<polygon fill="none" stroke="#000000" points="8,-121.7 8,-140.7 96,-140.7 96,-121.7 8,-121.7"/>
<text text-anchor="start" x="11" y="-127.8" font-family="Helvetica,sans-Serif" font-size="11.00" fill="#000000">...</text>
<polygon fill="#ffffff" stroke="transparent" points="8,-102.7 8,-121.7 28,-121.7 28,-102.7 8,-102.7"/>
<polygon fill="none" stroke="#000000" points="8,-102.7 8,-121.7 28,-121.7 28,-102.7 8,-102.7"/>
<text text-anchor="start" x="11" y="-108.8" font-family="Helvetica,sans-Serif" font-size="11.00" fill="#000000"> &#160;</text>
<polygon fill="#ffffff" stroke="transparent" points="28,-102.7 28,-121.7 70,-121.7 70,-102.7 28,-102.7"/>
<polygon fill="none" stroke="#000000" points="28,-102.7 28,-121.7 70,-121.7 70,-102.7 28,-102.7"/>
<text text-anchor="start" x="34.6105" y="-108.8" font-family="Helvetica,sans-Serif" font-size="11.00" fill="#000000">0 rows</text>
<polygon fill="#ffffff" stroke="transparent" points="70,-102.7 70,-121.7 96,-121.7 96,-102.7 70,-102.7"/>
<polygon fill="none" stroke="#000000" points="70,-102.7 70,-121.7 96,-121.7 96,-102.7 70,-102.7"/>
<text text-anchor="start" x="77.4053" y="-108.8" font-family="Helvetica,sans-Serif" font-size="11.00" fill="#000000">4 &gt;</text>
</a>
</g>
</g>
<!-- chapter_users&#45;&gt;chapters -->
<g id="edge1" class="edge">
<title>chapter_users:w&#45;&gt;chapters:e</title>
<path fill="none" stroke="#000000" d="M175.6201,-505.3252C157.3846,-501.3665 149.0814,-488.9147 137,-468.7 100.5599,-407.7283 167.0312,-151.7 96,-151.7"/>
<polygon fill="#000000" stroke="#000000" points="182.0363,-505.9386 189.6574,-510.2837 186.0182,-506.3193 190,-506.7 190,-506.7 190,-506.7 186.0182,-506.3193 190.3426,-503.1163 182.0363,-505.9386 182.0363,-505.9386"/>
<ellipse fill="none" stroke="#000000" cx="178.8508" cy="-505.634" rx="3.2" ry="3.2"/>
</g>
<!-- event_sponsors -->
<g id="node3" class="node">
<title>event_sponsors</title>
<g id="a_node3"><a xlink:href="../../tables/event_sponsors.html" xlink:title="event_sponsors" target="_top">
<polygon fill="#ffffff" stroke="transparent" points="549,-278.2 549,-339.2 669,-339.2 669,-278.2 549,-278.2"/>
<polygon fill="#f5f5f5" stroke="transparent" points="549,-315.7 549,-338.7 669,-338.7 669,-315.7 549,-315.7"/>
<polygon fill="none" stroke="#000000" points="549,-315.7 549,-338.7 669,-338.7 669,-315.7 549,-315.7"/>
<text text-anchor="start" x="553.681" y="-324.8" font-family="Helvetica,sans-Serif" font-weight="bold" font-size="11.00" fill="#000000">event_sponsors</text>
<text text-anchor="start" x="634.5219" y="-323.8" font-family="Helvetica,sans-Serif" font-size="11.00" fill="#000000">[table]</text>
<polygon fill="none" stroke="#000000" points="549,-296.7 549,-315.7 669,-315.7 669,-296.7 549,-296.7"/>
<text text-anchor="start" x="552" y="-302.8" font-family="Helvetica,sans-Serif" font-size="11.00" fill="#000000">...</text>
<polygon fill="#ffffff" stroke="transparent" points="549,-277.7 549,-296.7 594,-296.7 594,-277.7 549,-277.7"/>
<polygon fill="none" stroke="#000000" points="549,-277.7 549,-296.7 594,-296.7 594,-277.7 549,-277.7"/>
<text text-anchor="start" x="552" y="-283.8" font-family="Helvetica,sans-Serif" font-size="11.00" fill="#000000">&lt; 2</text>
<polygon fill="#ffffff" stroke="transparent" points="594,-277.7 594,-296.7 644,-296.7 644,-277.7 594,-277.7"/>
<polygon fill="none" stroke="#000000" points="594,-277.7 594,-296.7 644,-296.7 644,-277.7 594,-277.7"/>
<text text-anchor="start" x="608.6105" y="-283.8" font-family="Helvetica,sans-Serif" font-size="11.00" fill="#000000">0 rows</text>
<polygon fill="#ffffff" stroke="transparent" points="644,-277.7 644,-296.7 669,-296.7 669,-277.7 644,-277.7"/>
<polygon fill="none" stroke="#000000" points="644,-277.7 644,-296.7 669,-296.7 669,-277.7 644,-277.7"/>
<text text-anchor="start" x="659.8862" y="-283.8" font-family="Helvetica,sans-Serif" font-size="11.00" fill="#000000"> &#160;</text>
</a>
</g>
</g>
<!-- events -->
<g id="node4" class="node">
<title>events</title>
<g id="a_node4"><a xlink:href="../../tables/events.html" xlink:title="events" target="_top">
<polygon fill="#ffffff" stroke="transparent" points="396,-131.2 396,-258.2 500,-258.2 500,-131.2 396,-131.2"/>
<polygon fill="#f5f5f5" stroke="transparent" points="396,-234.7 396,-257.7 500,-257.7 500,-234.7 396,-234.7"/>
<polygon fill="none" stroke="#000000" points="396,-234.7 396,-257.7 500,-257.7 500,-234.7 396,-234.7"/>
<text text-anchor="start" x="401" y="-243.8" font-family="Helvetica,sans-Serif" font-weight="bold" font-size="11.00" fill="#000000">events</text>
<text text-anchor="start" x="465.0437" y="-242.8" font-family="Helvetica,sans-Serif" font-size="11.00" fill="#000000">[table]</text>
<polygon fill="none" stroke="#000000" points="396,-212.7 396,-234.7 500,-234.7 500,-212.7 396,-212.7"/>
<image xlink:href="../../images/primaryKeys.png" width="11px" height="12px" preserveAspectRatio="xMinYMin meet" x="401" y="-229.7"/>
<text text-anchor="start" x="416" y="-219.8" font-family="Helvetica,sans-Serif" font-size="11.00" fill="#000000">id</text>
<polygon fill="none" stroke="#000000" points="396,-190.7 396,-212.7 500,-212.7 500,-190.7 396,-190.7"/>
<image xlink:href="../../images/foreignKeys.png" width="11px" height="12px" preserveAspectRatio="xMinYMin meet" x="401" y="-207.7"/>
<text text-anchor="start" x="416" y="-197.8" font-family="Helvetica,sans-Serif" font-size="11.00" fill="#000000">venue_id</text>
<polygon fill="none" stroke="#000000" points="396,-168.7 396,-190.7 500,-190.7 500,-168.7 396,-168.7"/>
<image xlink:href="../../images/foreignKeys.png" width="11px" height="12px" preserveAspectRatio="xMinYMin meet" x="401" y="-185.7"/>
<text text-anchor="start" x="416" y="-175.8" font-family="Helvetica,sans-Serif" font-size="11.00" fill="#000000">chapter_id</text>
<polygon fill="none" stroke="#000000" points="396,-149.7 396,-168.7 500,-168.7 500,-149.7 396,-149.7"/>
<text text-anchor="start" x="399" y="-155.8" font-family="Helvetica,sans-Serif" font-size="11.00" fill="#000000">...</text>
<polygon fill="#ffffff" stroke="transparent" points="396,-130.7 396,-149.7 429,-149.7 429,-130.7 396,-130.7"/>
<polygon fill="none" stroke="#000000" points="396,-130.7 396,-149.7 429,-149.7 429,-130.7 396,-130.7"/>
<text text-anchor="start" x="399" y="-136.8" font-family="Helvetica,sans-Serif" font-size="11.00" fill="#000000">&lt; 3</text>
<polygon fill="#ffffff" stroke="transparent" points="429,-130.7 429,-149.7 473,-149.7 473,-130.7 429,-130.7"/>
<polygon fill="none" stroke="#000000" points="429,-130.7 429,-149.7 473,-149.7 473,-130.7 429,-130.7"/>
<text text-anchor="start" x="437.6105" y="-136.8" font-family="Helvetica,sans-Serif" font-size="11.00" fill="#000000">0 rows</text>
<polygon fill="#ffffff" stroke="transparent" points="473,-130.7 473,-149.7 500,-149.7 500,-130.7 473,-130.7"/>
<polygon fill="none" stroke="#000000" points="473,-130.7 473,-149.7 500,-149.7 500,-130.7 473,-130.7"/>
<text text-anchor="start" x="481.4053" y="-136.8" font-family="Helvetica,sans-Serif" font-size="11.00" fill="#000000">3 &gt;</text>
</a>
</g>
</g>
<!-- event_sponsors&#45;&gt;events -->
<g id="edge2" class="edge">
<title>event_sponsors:w&#45;&gt;events:e</title>
<path fill="none" stroke="#000000" d="M535.0294,-301.0564C515.288,-283.7098 536.3194,-223.7 500,-223.7"/>
<polygon fill="#000000" stroke="#000000" points="541.4084,-303.1766 547.8645,-309.1162 545.2042,-304.4383 549,-305.7 549,-305.7 549,-305.7 545.2042,-304.4383 550.1355,-302.2838 541.4084,-303.1766 541.4084,-303.1766"/>
<ellipse fill="none" stroke="#000000" cx="538.3717" cy="-302.1673" rx="3.2" ry="3.2"/>
</g>
<!-- events&#45;&gt;chapters -->
<g id="edge5" class="edge">
<title>events:w&#45;&gt;chapters:e</title>
<path fill="none" stroke="#000000" d="M382.2715,-174.8533C372.3889,-165.5373 373.2178,-145.375 355,-137.7 265.7113,-100.0837 232.5805,-121.8312 137,-137.7 118.0047,-140.8537 115.2553,-151.7 96,-151.7"/>
<polygon fill="#000000" stroke="#000000" points="388.4563,-177.0367 394.8015,-183.0947 392.2282,-178.3684 396,-179.7 396,-179.7 396,-179.7 392.2282,-178.3684 397.1985,-176.3053 388.4563,-177.0367 388.4563,-177.0367"/>
<ellipse fill="none" stroke="#000000" cx="385.4388" cy="-175.9714" rx="3.2" ry="3.2"/>
</g>
<!-- venues -->
<g id="node7" class="node">
<title>venues</title>
<g id="a_node7"><a xlink:href="../../tables/venues.html" xlink:title="venues" target="_top">
<polygon fill="#ffffff" stroke="transparent" points="145,-147.7 145,-457.7 347,-457.7 347,-147.7 145,-147.7"/>
<polygon fill="#f5f5f5" stroke="transparent" points="147,-432.7 147,-455.7 345,-455.7 345,-432.7 147,-432.7"/>
<polygon fill="none" stroke="#000000" points="147,-432.7 147,-455.7 345,-455.7 345,-432.7 147,-432.7"/>
<text text-anchor="start" x="152" y="-441.8" font-family="Helvetica,sans-Serif" font-weight="bold" font-size="11.00" fill="#000000">venues</text>
<text text-anchor="start" x="310.0437" y="-440.8" font-family="Helvetica,sans-Serif" font-size="11.00" fill="#000000">[table]</text>
<polygon fill="none" stroke="#000000" points="147,-410.7 147,-432.7 255,-432.7 255,-410.7 147,-410.7"/>
<text text-anchor="start" x="167" y="-417.8" font-family="Helvetica,sans-Serif" font-size="11.00" fill="#000000">created_at</text>
<polygon fill="none" stroke="#000000" points="255,-410.7 255,-432.7 345,-432.7 345,-410.7 255,-410.7"/>
<text text-anchor="start" x="258" y="-418.4" font-family="Helvetica,sans-Serif" font-size="11.00" fill="#000000">timestamp[26,3]</text>
<polygon fill="none" stroke="#000000" points="147,-388.7 147,-410.7 255,-410.7 255,-388.7 147,-388.7"/>
<text text-anchor="start" x="167" y="-395.8" font-family="Helvetica,sans-Serif" font-size="11.00" fill="#000000">updated_at</text>
<polygon fill="none" stroke="#000000" points="255,-388.7 255,-410.7 345,-410.7 345,-388.7 255,-388.7"/>
<text text-anchor="start" x="258" y="-396.4" font-family="Helvetica,sans-Serif" font-size="11.00" fill="#000000">timestamp[26,3]</text>
<polygon fill="none" stroke="#000000" points="147,-366.7 147,-388.7 255,-388.7 255,-366.7 147,-366.7"/>
<image xlink:href="../../images/primaryKeys.png" width="11px" height="12px" preserveAspectRatio="xMinYMin meet" x="152" y="-383.7"/>
<text text-anchor="start" x="167" y="-373.8" font-family="Helvetica,sans-Serif" font-size="11.00" fill="#000000">id</text>
<polygon fill="none" stroke="#000000" points="255,-366.7 255,-388.7 345,-388.7 345,-366.7 255,-366.7"/>
<text text-anchor="start" x="258" y="-374.4" font-family="Helvetica,sans-Serif" font-size="11.00" fill="#000000">serial[10]</text>
<polygon fill="none" stroke="#000000" points="147,-344.7 147,-366.7 255,-366.7 255,-344.7 147,-344.7"/>
<text text-anchor="start" x="167" y="-351.8" font-family="Helvetica,sans-Serif" font-size="11.00" fill="#000000">name</text>
<polygon fill="none" stroke="#000000" points="255,-344.7 255,-366.7 345,-366.7 345,-344.7 255,-344.7"/>
<text text-anchor="start" x="257.5043" y="-352.4" font-family="Helvetica,sans-Serif" font-size="11.00" fill="#000000">text[2147483647]</text>
<polygon fill="none" stroke="#000000" points="147,-322.7 147,-344.7 255,-344.7 255,-322.7 147,-322.7"/>
<text text-anchor="start" x="167" y="-329.8" font-family="Helvetica,sans-Serif" font-size="11.00" fill="#000000">street_address</text>
<polygon fill="none" stroke="#000000" points="255,-322.7 255,-344.7 345,-344.7 345,-322.7 255,-322.7"/>
<text text-anchor="start" x="257.5043" y="-330.4" font-family="Helvetica,sans-Serif" font-size="11.00" fill="#000000">text[2147483647]</text>
<polygon fill="none" stroke="#000000" points="147,-300.7 147,-322.7 255,-322.7 255,-300.7 147,-300.7"/>
<text text-anchor="start" x="167" y="-307.8" font-family="Helvetica,sans-Serif" font-size="11.00" fill="#000000">city</text>
<polygon fill="none" stroke="#000000" points="255,-300.7 255,-322.7 345,-322.7 345,-300.7 255,-300.7"/>
<text text-anchor="start" x="257.5043" y="-308.4" font-family="Helvetica,sans-Serif" font-size="11.00" fill="#000000">text[2147483647]</text>
<polygon fill="none" stroke="#000000" points="147,-278.7 147,-300.7 255,-300.7 255,-278.7 147,-278.7"/>
<text text-anchor="start" x="167" y="-285.8" font-family="Helvetica,sans-Serif" font-size="11.00" fill="#000000">postal_code</text>
<polygon fill="none" stroke="#000000" points="255,-278.7 255,-300.7 345,-300.7 345,-278.7 255,-278.7"/>
<text text-anchor="start" x="257.5043" y="-286.4" font-family="Helvetica,sans-Serif" font-size="11.00" fill="#000000">text[2147483647]</text>
<polygon fill="none" stroke="#000000" points="147,-256.7 147,-278.7 255,-278.7 255,-256.7 147,-256.7"/>
<text text-anchor="start" x="167" y="-263.8" font-family="Helvetica,sans-Serif" font-size="11.00" fill="#000000">region</text>
<polygon fill="none" stroke="#000000" points="255,-256.7 255,-278.7 345,-278.7 345,-256.7 255,-256.7"/>
<text text-anchor="start" x="257.5043" y="-264.4" font-family="Helvetica,sans-Serif" font-size="11.00" fill="#000000">text[2147483647]</text>
<polygon fill="none" stroke="#000000" points="147,-234.7 147,-256.7 255,-256.7 255,-234.7 147,-234.7"/>
<text text-anchor="start" x="167" y="-241.8" font-family="Helvetica,sans-Serif" font-size="11.00" fill="#000000">country</text>
<polygon fill="none" stroke="#000000" points="255,-234.7 255,-256.7 345,-256.7 345,-234.7 255,-234.7"/>
<text text-anchor="start" x="257.5043" y="-242.4" font-family="Helvetica,sans-Serif" font-size="11.00" fill="#000000">text[2147483647]</text>
<polygon fill="none" stroke="#000000" points="147,-212.7 147,-234.7 255,-234.7 255,-212.7 147,-212.7"/>
<text text-anchor="start" x="167" y="-219.8" font-family="Helvetica,sans-Serif" font-size="11.00" fill="#000000">latitude</text>
<polygon fill="none" stroke="#000000" points="255,-212.7 255,-234.7 345,-234.7 345,-212.7 255,-212.7"/>
<text text-anchor="start" x="258" y="-220.4" font-family="Helvetica,sans-Serif" font-size="11.00" fill="#000000">float8[17,17]</text>
<polygon fill="none" stroke="#000000" points="147,-190.7 147,-212.7 255,-212.7 255,-190.7 147,-190.7"/>
<text text-anchor="start" x="167" y="-197.8" font-family="Helvetica,sans-Serif" font-size="11.00" fill="#000000">longitude</text>
<polygon fill="none" stroke="#000000" points="255,-190.7 255,-212.7 345,-212.7 345,-190.7 255,-190.7"/>
<text text-anchor="start" x="258" y="-198.4" font-family="Helvetica,sans-Serif" font-size="11.00" fill="#000000">float8[17,17]</text>
<polygon fill="#ffffff" stroke="transparent" points="147,-168.7 147,-190.7 255,-190.7 255,-168.7 147,-168.7"/>
<polygon fill="none" stroke="#000000" points="147,-168.7 147,-190.7 255,-190.7 255,-168.7 147,-168.7"/>
<image xlink:href="../../images/foreignKeys.png" width="11px" height="12px" preserveAspectRatio="xMinYMin meet" x="152" y="-185.7"/>
<text text-anchor="start" x="167" y="-175.8" font-family="Helvetica,sans-Serif" font-size="11.00" fill="#000000">chapter_id</text>
<polygon fill="none" stroke="#000000" points="255,-168.7 255,-190.7 345,-190.7 345,-168.7 255,-168.7"/>
<text text-anchor="start" x="258" y="-176.4" font-family="Helvetica,sans-Serif" font-size="11.00" fill="#000000">int4[10]</text>
<polygon fill="#ffffff" stroke="transparent" points="147,-149.7 147,-168.7 192,-168.7 192,-149.7 147,-149.7"/>
<polygon fill="none" stroke="#000000" points="147,-149.7 147,-168.7 192,-168.7 192,-149.7 147,-149.7"/>
<text text-anchor="start" x="150" y="-155.8" font-family="Helvetica,sans-Serif" font-size="11.00" fill="#000000">&lt; 1</text>
<polygon fill="#ffffff" stroke="transparent" points="192,-149.7 192,-168.7 255,-168.7 255,-149.7 192,-149.7"/>
<polygon fill="none" stroke="#000000" points="192,-149.7 192,-168.7 255,-168.7 255,-149.7 192,-149.7"/>
<text text-anchor="start" x="219.6105" y="-155.8" font-family="Helvetica,sans-Serif" font-size="11.00" fill="#000000">0 rows</text>
<polygon fill="#ffffff" stroke="transparent" points="255,-149.7 255,-168.7 345,-168.7 345,-149.7 255,-149.7"/>
<polygon fill="none" stroke="#000000" points="255,-149.7 255,-168.7 345,-168.7 345,-149.7 255,-149.7"/>
<text text-anchor="start" x="326.4053" y="-155.8" font-family="Helvetica,sans-Serif" font-size="11.00" fill="#000000">2 &gt;</text>
<polygon fill="none" stroke="#000000" stroke-width="2" points="146,-148.7 146,-456.7 346,-456.7 346,-148.7 146,-148.7"/>
</a>
</g>
</g>
<!-- events&#45;&gt;venues -->
<g id="edge6" class="edge">
<title>events:w&#45;&gt;venues:e</title>
<path fill="none" stroke="#000000" d="M381.276,-179.7C369.2815,-179.7 361.8229,-179.7 345,-179.7"/>
<polygon fill="#000000" stroke="#000000" points="388,-179.7001 396,-183.3 392,-179.7 396,-179.7 396,-179.7 396,-179.7 392,-179.7 396,-176.1 388,-179.7001 388,-179.7001"/>
<ellipse fill="none" stroke="#000000" cx="384.8" cy="-179.7001" rx="3.2" ry="3.2"/>
</g>
<!-- events&#45;&gt;venues -->
<g id="edge7" class="edge">
<title>events:w&#45;&gt;venues:e</title>
<path fill="none" stroke="#000000" d="M381.5541,-204.188C329.3373,-225.5799 420.7139,-377.7 345,-377.7"/>
<polygon fill="#000000" stroke="#000000" points="388.1161,-203.0579 396.611,-205.2478 392.058,-202.3789 396,-201.7 396,-201.7 396,-201.7 392.058,-202.3789 395.389,-198.1522 388.1161,-203.0579 388.1161,-203.0579"/>
<ellipse fill="none" stroke="#000000" cx="384.9625" cy="-203.601" rx="3.2" ry="3.2"/>
</g>
<!-- event_tags -->
<g id="node5" class="node">
<title>event_tags</title>
<g id="a_node5"><a xlink:href="../../tables/event_tags.html" xlink:title="event_tags" target="_top">
<polygon fill="#ffffff" stroke="transparent" points="561,-196.2 561,-257.2 657,-257.2 657,-196.2 561,-196.2"/>
<polygon fill="#f5f5f5" stroke="transparent" points="561,-233.7 561,-256.7 657,-256.7 657,-233.7 561,-233.7"/>
<polygon fill="none" stroke="#000000" points="561,-233.7 561,-256.7 657,-256.7 657,-233.7 561,-233.7"/>
<text text-anchor="start" x="565.5984" y="-242.8" font-family="Helvetica,sans-Serif" font-weight="bold" font-size="11.00" fill="#000000">event_tags</text>
<text text-anchor="start" x="622.5219" y="-241.8" font-family="Helvetica,sans-Serif" font-size="11.00" fill="#000000">[table]</text>
<polygon fill="none" stroke="#000000" points="561,-214.7 561,-233.7 657,-233.7 657,-214.7 561,-214.7"/>
<text text-anchor="start" x="564" y="-220.8" font-family="Helvetica,sans-Serif" font-size="11.00" fill="#000000">...</text>
<polygon fill="#ffffff" stroke="transparent" points="561,-195.7 561,-214.7 594,-214.7 594,-195.7 561,-195.7"/>
<polygon fill="none" stroke="#000000" points="561,-195.7 561,-214.7 594,-214.7 594,-195.7 561,-195.7"/>
<text text-anchor="start" x="564" y="-201.8" font-family="Helvetica,sans-Serif" font-size="11.00" fill="#000000">&lt; 2</text>
<polygon fill="#ffffff" stroke="transparent" points="594,-195.7 594,-214.7 638,-214.7 638,-195.7 594,-195.7"/>
<polygon fill="none" stroke="#000000" points="594,-195.7 594,-214.7 638,-214.7 638,-195.7 594,-195.7"/>
<text text-anchor="start" x="602.6105" y="-201.8" font-family="Helvetica,sans-Serif" font-size="11.00" fill="#000000">0 rows</text>
<polygon fill="#ffffff" stroke="transparent" points="638,-195.7 638,-214.7 657,-214.7 657,-195.7 638,-195.7"/>
<polygon fill="none" stroke="#000000" points="638,-195.7 638,-214.7 657,-214.7 657,-195.7 638,-195.7"/>
<text text-anchor="start" x="647.8862" y="-201.8" font-family="Helvetica,sans-Serif" font-size="11.00" fill="#000000"> &#160;</text>
</a>
</g>
</g>
<!-- event_tags&#45;&gt;events -->
<g id="edge3" class="edge">
<title>event_tags:w&#45;&gt;events:e</title>
<path fill="none" stroke="#000000" d="M546.1762,-223.7C530.1248,-223.7 521.3924,-223.7 500,-223.7"/>
<polygon fill="#000000" stroke="#000000" points="553,-223.7001 561,-227.3 557,-223.7 561,-223.7 561,-223.7 561,-223.7 557,-223.7 561,-220.1 553,-223.7001 553,-223.7001"/>
<ellipse fill="none" stroke="#000000" cx="549.8" cy="-223.7001" rx="3.2" ry="3.2"/>
</g>
<!-- event_users -->
<g id="node6" class="node">
<title>event_users</title>
<g id="a_node6"><a xlink:href="../../tables/event_users.html" xlink:title="event_users" target="_top">
<polygon fill="#ffffff" stroke="transparent" points="558,-114.2 558,-175.2 660,-175.2 660,-114.2 558,-114.2"/>
<polygon fill="#f5f5f5" stroke="transparent" points="558,-151.7 558,-174.7 660,-174.7 660,-151.7 558,-151.7"/>
<polygon fill="none" stroke="#000000" points="558,-151.7 558,-174.7 660,-174.7 660,-151.7 558,-151.7"/>
<text text-anchor="start" x="562.5459" y="-160.8" font-family="Helvetica,sans-Serif" font-weight="bold" font-size="11.00" fill="#000000">event_users</text>
<text text-anchor="start" x="625.5219" y="-159.8" font-family="Helvetica,sans-Serif" font-size="11.00" fill="#000000">[table]</text>
<polygon fill="none" stroke="#000000" points="558,-132.7 558,-151.7 660,-151.7 660,-132.7 558,-132.7"/>
<text text-anchor="start" x="561" y="-138.8" font-family="Helvetica,sans-Serif" font-size="11.00" fill="#000000">...</text>
<polygon fill="#ffffff" stroke="transparent" points="558,-113.7 558,-132.7 590,-132.7 590,-113.7 558,-113.7"/>
<polygon fill="none" stroke="#000000" points="558,-113.7 558,-132.7 590,-132.7 590,-113.7 558,-113.7"/>
<text text-anchor="start" x="561" y="-119.8" font-family="Helvetica,sans-Serif" font-size="11.00" fill="#000000">&lt; 4</text>
<polygon fill="#ffffff" stroke="transparent" points="590,-113.7 590,-132.7 633,-132.7 633,-113.7 590,-113.7"/>
<polygon fill="none" stroke="#000000" points="590,-113.7 590,-132.7 633,-132.7 633,-113.7 590,-113.7"/>
<text text-anchor="start" x="597.6105" y="-119.8" font-family="Helvetica,sans-Serif" font-size="11.00" fill="#000000">0 rows</text>
<polygon fill="#ffffff" stroke="transparent" points="633,-113.7 633,-132.7 660,-132.7 660,-113.7 633,-113.7"/>
<polygon fill="none" stroke="#000000" points="633,-113.7 633,-132.7 660,-132.7 660,-113.7 633,-113.7"/>
<text text-anchor="start" x="641.4053" y="-119.8" font-family="Helvetica,sans-Serif" font-size="11.00" fill="#000000">2 &gt;</text>
</a>
</g>
</g>
<!-- event_users&#45;&gt;events -->
<g id="edge4" class="edge">
<title>event_users:w&#45;&gt;events:e</title>
<path fill="none" stroke="#000000" d="M543.8756,-145.655C520.3298,-162.0348 538.7109,-223.7 500,-223.7"/>
<polygon fill="#000000" stroke="#000000" points="550.2963,-143.8572 558.9707,-145.1667 554.1482,-142.7786 558,-141.7 558,-141.7 558,-141.7 554.1482,-142.7786 557.0293,-138.2333 550.2963,-143.8572 550.2963,-143.8572"/>
<ellipse fill="none" stroke="#000000" cx="547.2148" cy="-144.7201" rx="3.2" ry="3.2"/>
</g>
<!-- venues&#45;&gt;chapters -->
<g id="edge9" class="edge">
<title>venues:w&#45;&gt;chapters:e</title>
<path fill="none" stroke="#000000" d="M132.8987,-176.0395C120.1024,-168.4498 115.9996,-151.7 96,-151.7"/>
<polygon fill="#000000" stroke="#000000" points="139.2566,-177.6899 146.0954,-183.1845 143.1283,-178.6949 147,-179.7 147,-179.7 147,-179.7 143.1283,-178.6949 147.9046,-176.2155 139.2566,-177.6899 139.2566,-177.6899"/>
<ellipse fill="none" stroke="#000000" cx="136.1593" cy="-176.8858" rx="3.2" ry="3.2"/>
</g>
<!-- user_bans -->
<g id="node8" class="node">
<title>user_bans</title>
<g id="a_node8"><a xlink:href="../../tables/user_bans.html" xlink:title="user_bans" target="_top">
<polygon fill="#ffffff" stroke="transparent" points="199,-38.2 199,-99.2 293,-99.2 293,-38.2 199,-38.2"/>
<polygon fill="#f5f5f5" stroke="transparent" points="199,-75.7 199,-98.7 293,-98.7 293,-75.7 199,-75.7"/>
<polygon fill="none" stroke="#000000" points="199,-75.7 199,-98.7 293,-98.7 293,-75.7 199,-75.7"/>
<text text-anchor="start" x="203.8244" y="-84.8" font-family="Helvetica,sans-Serif" font-weight="bold" font-size="11.00" fill="#000000">user_bans</text>
<text text-anchor="start" x="258.5219" y="-83.8" font-family="Helvetica,sans-Serif" font-size="11.00" fill="#000000">[table]</text>
<polygon fill="none" stroke="#000000" points="199,-56.7 199,-75.7 293,-75.7 293,-56.7 199,-56.7"/>
<text text-anchor="start" x="202" y="-62.8" font-family="Helvetica,sans-Serif" font-size="11.00" fill="#000000">...</text>
<polygon fill="#ffffff" stroke="transparent" points="199,-37.7 199,-56.7 231,-56.7 231,-37.7 199,-37.7"/>
<polygon fill="none" stroke="#000000" points="199,-37.7 199,-56.7 231,-56.7 231,-37.7 199,-37.7"/>
<text text-anchor="start" x="202" y="-43.8" font-family="Helvetica,sans-Serif" font-size="11.00" fill="#000000">&lt; 2</text>
<polygon fill="#ffffff" stroke="transparent" points="231,-37.7 231,-56.7 275,-56.7 275,-37.7 231,-37.7"/>
<polygon fill="none" stroke="#000000" points="231,-37.7 231,-56.7 275,-56.7 275,-37.7 231,-37.7"/>
<text text-anchor="start" x="239.6105" y="-43.8" font-family="Helvetica,sans-Serif" font-size="11.00" fill="#000000">0 rows</text>
<polygon fill="#ffffff" stroke="transparent" points="275,-37.7 275,-56.7 293,-56.7 293,-37.7 275,-37.7"/>
<polygon fill="none" stroke="#000000" points="275,-37.7 275,-56.7 293,-56.7 293,-37.7 275,-37.7"/>
<text text-anchor="start" x="283.8862" y="-43.8" font-family="Helvetica,sans-Serif" font-size="11.00" fill="#000000"> &#160;</text>
</a>
</g>
</g>
<!-- user_bans&#45;&gt;chapters -->
<g id="edge8" class="edge">
<title>user_bans:w&#45;&gt;chapters:e</title>
<path fill="none" stroke="#000000" d="M184.6466,-67.543C163.3022,-73.7821 159.3259,-94.7756 137,-113.7 118.0474,-129.765 120.8452,-151.7 96,-151.7"/>
<polygon fill="#000000" stroke="#000000" points="191.0651,-66.7189 199.4585,-69.2707 195.0326,-66.2094 199,-65.7 199,-65.7 199,-65.7 195.0326,-66.2094 198.5415,-62.1293 191.0651,-66.7189 191.0651,-66.7189"/>
<ellipse fill="none" stroke="#000000" cx="187.8912" cy="-67.1265" rx="3.2" ry="3.2"/>
</g>
</g>
</svg>
