<?xml version="1.0" encoding="UTF-8" standalone="no"?>
<!DOCTYPE svg PUBLIC "-//W3C//DTD SVG 1.1//EN"
 "http://www.w3.org/Graphics/SVG/1.1/DTD/svg11.dtd">
<!-- Generated by graphviz version 2.40.1 (20161225.0304)
 -->
<!-- Title: oneDegreeRelationshipsDiagram Pages: 1 -->
<svg width="383pt" height="359pt"
 viewBox="0.00 0.00 383.00 358.70" xmlns="http://www.w3.org/2000/svg" xmlns:xlink="http://www.w3.org/1999/xlink">
<g id="graph0" class="graph" transform="scale(1 1) rotate(0) translate(4 354.7)">
<title>oneDegreeRelationshipsDiagram</title>
<polygon fill="#ffffff" stroke="transparent" points="-4,4 -4,-354.7 379,-354.7 379,4 -4,4"/>
<text text-anchor="middle" x="72.4936" y="-7.3" font-family="Helvetica,sans-Serif" font-size="11.00" fill="#000000">Generated by SchemaSpy</text>
<!-- events -->
<g id="node1" class="node">
<title>events</title>
<g id="a_node1"><a xlink:href="../../tables/events.html" xlink:title="events" target="_top">
<polygon fill="#ffffff" stroke="transparent" points="278,-219.7 278,-346.7 367,-346.7 367,-219.7 278,-219.7"/>
<polygon fill="#f5f5f5" stroke="transparent" points="278.5,-323.2 278.5,-346.2 367.5,-346.2 367.5,-323.2 278.5,-323.2"/>
<polygon fill="none" stroke="#000000" points="278.5,-323.2 278.5,-346.2 367.5,-346.2 367.5,-323.2 278.5,-323.2"/>
<text text-anchor="start" x="283.5" y="-332.3" font-family="Helvetica,sans-Serif" font-weight="bold" font-size="11.00" fill="#000000">events</text>
<text text-anchor="start" x="332.5437" y="-331.3" font-family="Helvetica,sans-Serif" font-size="11.00" fill="#000000">[table]</text>
<polygon fill="none" stroke="#000000" points="278.5,-301.2 278.5,-323.2 367.5,-323.2 367.5,-301.2 278.5,-301.2"/>
<image xlink:href="../../images/primaryKeys.png" width="11px" height="12px" preserveAspectRatio="xMinYMin meet" x="283.5" y="-318.2"/>
<text text-anchor="start" x="298.5" y="-308.3" font-family="Helvetica,sans-Serif" font-size="11.00" fill="#000000">id</text>
<polygon fill="none" stroke="#000000" points="278.5,-279.2 278.5,-301.2 367.5,-301.2 367.5,-279.2 278.5,-279.2"/>
<image xlink:href="../../images/foreignKeys.png" width="11px" height="12px" preserveAspectRatio="xMinYMin meet" x="283.5" y="-296.2"/>
<text text-anchor="start" x="298.5" y="-286.3" font-family="Helvetica,sans-Serif" font-size="11.00" fill="#000000">venue_id</text>
<polygon fill="none" stroke="#000000" points="278.5,-257.2 278.5,-279.2 367.5,-279.2 367.5,-257.2 278.5,-257.2"/>
<image xlink:href="../../images/foreignKeys.png" width="11px" height="12px" preserveAspectRatio="xMinYMin meet" x="283.5" y="-274.2"/>
<text text-anchor="start" x="298.5" y="-264.3" font-family="Helvetica,sans-Serif" font-size="11.00" fill="#000000">chapter_id</text>
<polygon fill="none" stroke="#000000" points="278.5,-238.2 278.5,-257.2 367.5,-257.2 367.5,-238.2 278.5,-238.2"/>
<text text-anchor="start" x="281.5" y="-244.3" font-family="Helvetica,sans-Serif" font-size="11.00" fill="#000000">...</text>
<polygon fill="#ffffff" stroke="transparent" points="278.5,-219.2 278.5,-238.2 303.5,-238.2 303.5,-219.2 278.5,-219.2"/>
<polygon fill="none" stroke="#000000" points="278.5,-219.2 278.5,-238.2 303.5,-238.2 303.5,-219.2 278.5,-219.2"/>
<text text-anchor="start" x="281.5" y="-225.3" font-family="Helvetica,sans-Serif" font-size="11.00" fill="#000000">&lt; 2</text>
<polygon fill="#ffffff" stroke="transparent" points="303.5,-219.2 303.5,-238.2 343.5,-238.2 343.5,-219.2 303.5,-219.2"/>
<polygon fill="none" stroke="#000000" points="303.5,-219.2 303.5,-238.2 343.5,-238.2 343.5,-219.2 303.5,-219.2"/>
<text text-anchor="start" x="308.1105" y="-225.3" font-family="Helvetica,sans-Serif" font-size="11.00" fill="#000000">0 rows</text>
<polygon fill="#ffffff" stroke="transparent" points="343.5,-219.2 343.5,-238.2 367.5,-238.2 367.5,-219.2 343.5,-219.2"/>
<polygon fill="none" stroke="#000000" points="343.5,-219.2 343.5,-238.2 367.5,-238.2 367.5,-219.2 343.5,-219.2"/>
<text text-anchor="start" x="348.9053" y="-225.3" font-family="Helvetica,sans-Serif" font-size="11.00" fill="#000000">4 &gt;</text>
</a>
</g>
</g>
<!-- venues -->
<g id="node2" class="node">
<title>venues</title>
<g id="a_node2"><a xlink:href="../../tables/venues.html" xlink:title="venues" target="_top">
<polygon fill="#ffffff" stroke="transparent" points="8,-38.2 8,-326.2 229,-326.2 229,-38.2 8,-38.2"/>
<polygon fill="#f5f5f5" stroke="transparent" points="10.5,-301.2 10.5,-324.2 227.5,-324.2 227.5,-301.2 10.5,-301.2"/>
<polygon fill="none" stroke="#000000" points="10.5,-301.2 10.5,-324.2 227.5,-324.2 227.5,-301.2 10.5,-301.2"/>
<text text-anchor="start" x="15.5" y="-310.3" font-family="Helvetica,sans-Serif" font-weight="bold" font-size="11.00" fill="#000000">venues</text>
<text text-anchor="start" x="192.5437" y="-309.3" font-family="Helvetica,sans-Serif" font-size="11.00" fill="#000000">[table]</text>
<polygon fill="none" stroke="#000000" points="10.5,-279.2 10.5,-301.2 118.5,-301.2 118.5,-279.2 10.5,-279.2"/>
<image xlink:href="../../images/primaryKeys.png" width="11px" height="12px" preserveAspectRatio="xMinYMin meet" x="15.5" y="-296.2"/>
<text text-anchor="start" x="30.5" y="-286.3" font-family="Helvetica,sans-Serif" font-size="11.00" fill="#000000">id</text>
<polygon fill="none" stroke="#000000" points="118.5,-279.2 118.5,-301.2 227.5,-301.2 227.5,-279.2 118.5,-279.2"/>
<text text-anchor="start" x="121.5" y="-286.9" font-family="Helvetica,sans-Serif" font-size="11.00" fill="#000000">serial[10]</text>
<polygon fill="none" stroke="#000000" points="10.5,-257.2 10.5,-279.2 118.5,-279.2 118.5,-257.2 10.5,-257.2"/>
<text text-anchor="start" x="30.5" y="-264.3" font-family="Helvetica,sans-Serif" font-size="11.00" fill="#000000">created_at</text>
<polygon fill="none" stroke="#000000" points="118.5,-257.2 118.5,-279.2 227.5,-279.2 227.5,-257.2 118.5,-257.2"/>
<text text-anchor="start" x="121.5" y="-264.9" font-family="Helvetica,sans-Serif" font-size="11.00" fill="#000000">timestamp[29,6]</text>
<polygon fill="none" stroke="#000000" points="10.5,-235.2 10.5,-257.2 118.5,-257.2 118.5,-235.2 10.5,-235.2"/>
<text text-anchor="start" x="30.5" y="-242.3" font-family="Helvetica,sans-Serif" font-size="11.00" fill="#000000">updated_at</text>
<polygon fill="none" stroke="#000000" points="118.5,-235.2 118.5,-257.2 227.5,-257.2 227.5,-235.2 118.5,-235.2"/>
<text text-anchor="start" x="121.5" y="-242.9" font-family="Helvetica,sans-Serif" font-size="11.00" fill="#000000">timestamp[29,6]</text>
<polygon fill="none" stroke="#000000" points="10.5,-213.2 10.5,-235.2 118.5,-235.2 118.5,-213.2 10.5,-213.2"/>
<text text-anchor="start" x="30.5" y="-220.3" font-family="Helvetica,sans-Serif" font-size="11.00" fill="#000000">name</text>
<polygon fill="none" stroke="#000000" points="118.5,-213.2 118.5,-235.2 227.5,-235.2 227.5,-213.2 118.5,-213.2"/>
<text text-anchor="start" x="121.0344" y="-220.9" font-family="Helvetica,sans-Serif" font-size="11.00" fill="#000000">varchar[2147483647]</text>
<polygon fill="none" stroke="#000000" points="10.5,-191.2 10.5,-213.2 118.5,-213.2 118.5,-191.2 10.5,-191.2"/>
<text text-anchor="start" x="30.5" y="-198.3" font-family="Helvetica,sans-Serif" font-size="11.00" fill="#000000">street_address</text>
<polygon fill="none" stroke="#000000" points="118.5,-191.2 118.5,-213.2 227.5,-213.2 227.5,-191.2 118.5,-191.2"/>
<text text-anchor="start" x="121.0344" y="-198.9" font-family="Helvetica,sans-Serif" font-size="11.00" fill="#000000">varchar[2147483647]</text>
<polygon fill="none" stroke="#000000" points="10.5,-169.2 10.5,-191.2 118.5,-191.2 118.5,-169.2 10.5,-169.2"/>
<text text-anchor="start" x="30.5" y="-176.3" font-family="Helvetica,sans-Serif" font-size="11.00" fill="#000000">city</text>
<polygon fill="none" stroke="#000000" points="118.5,-169.2 118.5,-191.2 227.5,-191.2 227.5,-169.2 118.5,-169.2"/>
<text text-anchor="start" x="121.0344" y="-176.9" font-family="Helvetica,sans-Serif" font-size="11.00" fill="#000000">varchar[2147483647]</text>
<polygon fill="none" stroke="#000000" points="10.5,-147.2 10.5,-169.2 118.5,-169.2 118.5,-147.2 10.5,-147.2"/>
<text text-anchor="start" x="30.5" y="-154.3" font-family="Helvetica,sans-Serif" font-size="11.00" fill="#000000">postal_code</text>
<polygon fill="none" stroke="#000000" points="118.5,-147.2 118.5,-169.2 227.5,-169.2 227.5,-147.2 118.5,-147.2"/>
<text text-anchor="start" x="121.0344" y="-154.9" font-family="Helvetica,sans-Serif" font-size="11.00" fill="#000000">varchar[2147483647]</text>
<polygon fill="none" stroke="#000000" points="10.5,-125.2 10.5,-147.2 118.5,-147.2 118.5,-125.2 10.5,-125.2"/>
<text text-anchor="start" x="30.5" y="-132.3" font-family="Helvetica,sans-Serif" font-size="11.00" fill="#000000">region</text>
<polygon fill="none" stroke="#000000" points="118.5,-125.2 118.5,-147.2 227.5,-147.2 227.5,-125.2 118.5,-125.2"/>
<text text-anchor="start" x="121.0344" y="-132.9" font-family="Helvetica,sans-Serif" font-size="11.00" fill="#000000">varchar[2147483647]</text>
<polygon fill="none" stroke="#000000" points="10.5,-103.2 10.5,-125.2 118.5,-125.2 118.5,-103.2 10.5,-103.2"/>
<text text-anchor="start" x="30.5" y="-110.3" font-family="Helvetica,sans-Serif" font-size="11.00" fill="#000000">country</text>
<polygon fill="none" stroke="#000000" points="118.5,-103.2 118.5,-125.2 227.5,-125.2 227.5,-103.2 118.5,-103.2"/>
<text text-anchor="start" x="121.0344" y="-110.9" font-family="Helvetica,sans-Serif" font-size="11.00" fill="#000000">varchar[2147483647]</text>
<polygon fill="none" stroke="#000000" points="10.5,-81.2 10.5,-103.2 118.5,-103.2 118.5,-81.2 10.5,-81.2"/>
<text text-anchor="start" x="30.5" y="-88.3" font-family="Helvetica,sans-Serif" font-size="11.00" fill="#000000">latitude</text>
<polygon fill="none" stroke="#000000" points="118.5,-81.2 118.5,-103.2 227.5,-103.2 227.5,-81.2 118.5,-81.2"/>
<text text-anchor="start" x="121.5" y="-88.9" font-family="Helvetica,sans-Serif" font-size="11.00" fill="#000000">float8[17,17]</text>
<polygon fill="none" stroke="#000000" points="10.5,-59.2 10.5,-81.2 118.5,-81.2 118.5,-59.2 10.5,-59.2"/>
<text text-anchor="start" x="30.5" y="-66.3" font-family="Helvetica,sans-Serif" font-size="11.00" fill="#000000">longitude</text>
<polygon fill="none" stroke="#000000" points="118.5,-59.2 118.5,-81.2 227.5,-81.2 227.5,-59.2 118.5,-59.2"/>
<text text-anchor="start" x="121.5" y="-66.9" font-family="Helvetica,sans-Serif" font-size="11.00" fill="#000000">float8[17,17]</text>
<polygon fill="#ffffff" stroke="transparent" points="10.5,-40.2 10.5,-59.2 55.5,-59.2 55.5,-40.2 10.5,-40.2"/>
<polygon fill="none" stroke="#000000" points="10.5,-40.2 10.5,-59.2 55.5,-59.2 55.5,-40.2 10.5,-40.2"/>
<text text-anchor="start" x="13.5" y="-46.3" font-family="Helvetica,sans-Serif" font-size="11.00" fill="#000000">&lt; 0</text>
<polygon fill="#ffffff" stroke="transparent" points="55.5,-40.2 55.5,-59.2 118.5,-59.2 118.5,-40.2 55.5,-40.2"/>
<polygon fill="none" stroke="#000000" points="55.5,-40.2 55.5,-59.2 118.5,-59.2 118.5,-40.2 55.5,-40.2"/>
<text text-anchor="start" x="83.1105" y="-46.3" font-family="Helvetica,sans-Serif" font-size="11.00" fill="#000000">0 rows</text>
<polygon fill="#ffffff" stroke="transparent" points="118.5,-40.2 118.5,-59.2 227.5,-59.2 227.5,-40.2 118.5,-40.2"/>
<polygon fill="none" stroke="#000000" points="118.5,-40.2 118.5,-59.2 227.5,-59.2 227.5,-40.2 118.5,-40.2"/>
<text text-anchor="start" x="208.9053" y="-46.3" font-family="Helvetica,sans-Serif" font-size="11.00" fill="#000000">1 &gt;</text>
<polygon fill="none" stroke="#000000" stroke-width="2" points="9,-39.2 9,-325.2 228,-325.2 228,-39.2 9,-39.2"/>
</a>
</g>
</g>
<!-- events&#45;&gt;venues -->
<g id="edge1" class="edge">
<title>events:w&#45;&gt;venues:e</title>
<path fill="none" stroke="#000000" d="M263.776,-290.2C251.7815,-290.2 244.3229,-290.2 227.5,-290.2"/>
<polygon fill="#000000" stroke="#000000" points="270.5,-290.2001 278.5,-293.8 274.5,-290.2 278.5,-290.2 278.5,-290.2 278.5,-290.2 274.5,-290.2 278.5,-286.6 270.5,-290.2001 270.5,-290.2001"/>
<ellipse fill="none" stroke="#000000" cx="267.3" cy="-290.2001" rx="3.2" ry="3.2"/>
</g>
</g>
</svg>
