<?xml version="1.0" encoding="UTF-8" standalone="no"?>
<!DOCTYPE svg PUBLIC "-//W3C//DTD SVG 1.1//EN"
 "http://www.w3.org/Graphics/SVG/1.1/DTD/svg11.dtd">
<!-- Generated by graphviz version 2.40.1 (20161225.0304)
 -->
<!-- Title: oneDegreeRelationshipsDiagram Pages: 1 -->
<svg width="516pt" height="405pt"
 viewBox="0.00 0.00 516.00 404.70" xmlns="http://www.w3.org/2000/svg" xmlns:xlink="http://www.w3.org/1999/xlink">
<g id="graph0" class="graph" transform="scale(1 1) rotate(0) translate(4 400.7)">
<title>oneDegreeRelationshipsDiagram</title>
<polygon fill="#ffffff" stroke="transparent" points="-4,4 -4,-400.7 512,-400.7 512,4 -4,4"/>
<text text-anchor="middle" x="72.4936" y="-7.3" font-family="Helvetica,sans-Serif" font-size="11.00" fill="#000000">Generated by SchemaSpy</text>
<!-- events -->
<g id="node1" class="node">
<title>events</title>
<g id="a_node1"><a xlink:href="../../tables/events.html" xlink:title="events" target="_top">
<polygon fill="#ffffff" stroke="transparent" points="396,-126.2 396,-253.2 500,-253.2 500,-126.2 396,-126.2"/>
<polygon fill="#f5f5f5" stroke="transparent" points="396,-229.7 396,-252.7 500,-252.7 500,-229.7 396,-229.7"/>
<polygon fill="none" stroke="#000000" points="396,-229.7 396,-252.7 500,-252.7 500,-229.7 396,-229.7"/>
<text text-anchor="start" x="401" y="-238.8" font-family="Helvetica,sans-Serif" font-weight="bold" font-size="11.00" fill="#000000">events</text>
<text text-anchor="start" x="465.0437" y="-237.8" font-family="Helvetica,sans-Serif" font-size="11.00" fill="#000000">[table]</text>
<polygon fill="none" stroke="#000000" points="396,-207.7 396,-229.7 500,-229.7 500,-207.7 396,-207.7"/>
<image xlink:href="../../images/primaryKeys.png" width="11px" height="12px" preserveAspectRatio="xMinYMin meet" x="401" y="-224.7"/>
<text text-anchor="start" x="416" y="-214.8" font-family="Helvetica,sans-Serif" font-size="11.00" fill="#000000">id</text>
<polygon fill="none" stroke="#000000" points="396,-185.7 396,-207.7 500,-207.7 500,-185.7 396,-185.7"/>
<image xlink:href="../../images/foreignKeys.png" width="11px" height="12px" preserveAspectRatio="xMinYMin meet" x="401" y="-202.7"/>
<text text-anchor="start" x="416" y="-192.8" font-family="Helvetica,sans-Serif" font-size="11.00" fill="#000000">venue_id</text>
<polygon fill="none" stroke="#000000" points="396,-163.7 396,-185.7 500,-185.7 500,-163.7 396,-163.7"/>
<image xlink:href="../../images/foreignKeys.png" width="11px" height="12px" preserveAspectRatio="xMinYMin meet" x="401" y="-180.7"/>
<text text-anchor="start" x="416" y="-170.8" font-family="Helvetica,sans-Serif" font-size="11.00" fill="#000000">chapter_id</text>
<polygon fill="none" stroke="#000000" points="396,-144.7 396,-163.7 500,-163.7 500,-144.7 396,-144.7"/>
<text text-anchor="start" x="399" y="-150.8" font-family="Helvetica,sans-Serif" font-size="11.00" fill="#000000">...</text>
<polygon fill="#ffffff" stroke="transparent" points="396,-125.7 396,-144.7 429,-144.7 429,-125.7 396,-125.7"/>
<polygon fill="none" stroke="#000000" points="396,-125.7 396,-144.7 429,-144.7 429,-125.7 396,-125.7"/>
<text text-anchor="start" x="399" y="-131.8" font-family="Helvetica,sans-Serif" font-size="11.00" fill="#000000">&lt; 2</text>
<polygon fill="#ffffff" stroke="transparent" points="429,-125.7 429,-144.7 473,-144.7 473,-125.7 429,-125.7"/>
<polygon fill="none" stroke="#000000" points="429,-125.7 429,-144.7 473,-144.7 473,-125.7 429,-125.7"/>
<text text-anchor="start" x="437.6105" y="-131.8" font-family="Helvetica,sans-Serif" font-size="11.00" fill="#000000">0 rows</text>
<polygon fill="#ffffff" stroke="transparent" points="473,-125.7 473,-144.7 500,-144.7 500,-125.7 473,-125.7"/>
<polygon fill="none" stroke="#000000" points="473,-125.7 473,-144.7 500,-144.7 500,-125.7 473,-125.7"/>
<text text-anchor="start" x="481.4053" y="-131.8" font-family="Helvetica,sans-Serif" font-size="11.00" fill="#000000">3 &gt;</text>
</a>
</g>
</g>
<!-- chapters -->
<g id="node2" class="node">
<title>chapters</title>
<g id="a_node2"><a xlink:href="../../tables/chapters.html" xlink:title="chapters" target="_top">
<polygon fill="#ffffff" stroke="transparent" points="8,-38.2 8,-121.2 96,-121.2 96,-38.2 8,-38.2"/>
<polygon fill="#f5f5f5" stroke="transparent" points="8,-97.7 8,-120.7 96,-120.7 96,-97.7 8,-97.7"/>
<polygon fill="none" stroke="#000000" points="8,-97.7 8,-120.7 96,-120.7 96,-97.7 8,-97.7"/>
<text text-anchor="start" x="13" y="-106.8" font-family="Helvetica,sans-Serif" font-weight="bold" font-size="11.00" fill="#000000">chapters</text>
<text text-anchor="start" x="61.0437" y="-105.8" font-family="Helvetica,sans-Serif" font-size="11.00" fill="#000000">[table]</text>
<polygon fill="none" stroke="#000000" points="8,-75.7 8,-97.7 96,-97.7 96,-75.7 8,-75.7"/>
<image xlink:href="../../images/primaryKeys.png" width="11px" height="12px" preserveAspectRatio="xMinYMin meet" x="13" y="-92.7"/>
<text text-anchor="start" x="28" y="-82.8" font-family="Helvetica,sans-Serif" font-size="11.00" fill="#000000">id</text>
<polygon fill="none" stroke="#000000" points="8,-56.7 8,-75.7 96,-75.7 96,-56.7 8,-56.7"/>
<text text-anchor="start" x="11" y="-62.8" font-family="Helvetica,sans-Serif" font-size="11.00" fill="#000000">...</text>
<polygon fill="#ffffff" stroke="transparent" points="8,-37.7 8,-56.7 28,-56.7 28,-37.7 8,-37.7"/>
<polygon fill="none" stroke="#000000" points="8,-37.7 8,-56.7 28,-56.7 28,-37.7 8,-37.7"/>
<text text-anchor="start" x="11" y="-43.8" font-family="Helvetica,sans-Serif" font-size="11.00" fill="#000000"> &#160;</text>
<polygon fill="#ffffff" stroke="transparent" points="28,-37.7 28,-56.7 70,-56.7 70,-37.7 28,-37.7"/>
<polygon fill="none" stroke="#000000" points="28,-37.7 28,-56.7 70,-56.7 70,-37.7 28,-37.7"/>
<text text-anchor="start" x="34.6105" y="-43.8" font-family="Helvetica,sans-Serif" font-size="11.00" fill="#000000">0 rows</text>
<polygon fill="#ffffff" stroke="transparent" points="70,-37.7 70,-56.7 96,-56.7 96,-37.7 70,-37.7"/>
<polygon fill="none" stroke="#000000" points="70,-37.7 70,-56.7 96,-56.7 96,-37.7 70,-37.7"/>
<text text-anchor="start" x="77.4053" y="-43.8" font-family="Helvetica,sans-Serif" font-size="11.00" fill="#000000">4 &gt;</text>
</a>
</g>
</g>
<!-- events&#45;&gt;chapters -->
<g id="edge1" class="edge">
<title>events:w&#45;&gt;chapters:e</title>
<path fill="none" stroke="#000000" d="M381.7645,-171.4086C357.5873,-156.6094 390.6797,-95.8999 355,-71.7 274.815,-17.3141 232.4029,-54.7961 137,-71.7 117.8941,-75.0853 115.4034,-86.7 96,-86.7"/>
<polygon fill="#000000" stroke="#000000" points="388.2056,-172.8978 395.189,-178.2075 392.1028,-173.7989 396,-174.7 396,-174.7 396,-174.7 392.1028,-173.7989 396.811,-171.1925 388.2056,-172.8978 388.2056,-172.8978"/>
<ellipse fill="none" stroke="#000000" cx="385.0879" cy="-172.1769" rx="3.2" ry="3.2"/>
</g>
<!-- venues -->
<g id="node3" class="node">
<title>venues</title>
<g id="a_node3"><a xlink:href="../../tables/venues.html" xlink:title="venues" target="_top">
<polygon fill="#ffffff" stroke="transparent" points="145,-82.7 145,-392.7 347,-392.7 347,-82.7 145,-82.7"/>
<polygon fill="#f5f5f5" stroke="transparent" points="147,-367.7 147,-390.7 345,-390.7 345,-367.7 147,-367.7"/>
<polygon fill="none" stroke="#000000" points="147,-367.7 147,-390.7 345,-390.7 345,-367.7 147,-367.7"/>
<text text-anchor="start" x="152" y="-376.8" font-family="Helvetica,sans-Serif" font-weight="bold" font-size="11.00" fill="#000000">venues</text>
<text text-anchor="start" x="310.0437" y="-375.8" font-family="Helvetica,sans-Serif" font-size="11.00" fill="#000000">[table]</text>
<polygon fill="none" stroke="#000000" points="147,-345.7 147,-367.7 255,-367.7 255,-345.7 147,-345.7"/>
<text text-anchor="start" x="167" y="-352.8" font-family="Helvetica,sans-Serif" font-size="11.00" fill="#000000">created_at</text>
<polygon fill="none" stroke="#000000" points="255,-345.7 255,-367.7 345,-367.7 345,-345.7 255,-345.7"/>
<text text-anchor="start" x="258" y="-353.4" font-family="Helvetica,sans-Serif" font-size="11.00" fill="#000000">timestamp[26,3]</text>
<polygon fill="none" stroke="#000000" points="147,-323.7 147,-345.7 255,-345.7 255,-323.7 147,-323.7"/>
<text text-anchor="start" x="167" y="-330.8" font-family="Helvetica,sans-Serif" font-size="11.00" fill="#000000">updated_at</text>
<polygon fill="none" stroke="#000000" points="255,-323.7 255,-345.7 345,-345.7 345,-323.7 255,-323.7"/>
<text text-anchor="start" x="258" y="-331.4" font-family="Helvetica,sans-Serif" font-size="11.00" fill="#000000">timestamp[26,3]</text>
<polygon fill="none" stroke="#000000" points="147,-301.7 147,-323.7 255,-323.7 255,-301.7 147,-301.7"/>
<image xlink:href="../../images/primaryKeys.png" width="11px" height="12px" preserveAspectRatio="xMinYMin meet" x="152" y="-318.7"/>
<text text-anchor="start" x="167" y="-308.8" font-family="Helvetica,sans-Serif" font-size="11.00" fill="#000000">id</text>
<polygon fill="none" stroke="#000000" points="255,-301.7 255,-323.7 345,-323.7 345,-301.7 255,-301.7"/>
<text text-anchor="start" x="258" y="-309.4" font-family="Helvetica,sans-Serif" font-size="11.00" fill="#000000">serial[10]</text>
<polygon fill="none" stroke="#000000" points="147,-279.7 147,-301.7 255,-301.7 255,-279.7 147,-279.7"/>
<text text-anchor="start" x="167" y="-286.8" font-family="Helvetica,sans-Serif" font-size="11.00" fill="#000000">name</text>
<polygon fill="none" stroke="#000000" points="255,-279.7 255,-301.7 345,-301.7 345,-279.7 255,-279.7"/>
<text text-anchor="start" x="257.5043" y="-287.4" font-family="Helvetica,sans-Serif" font-size="11.00" fill="#000000">text[2147483647]</text>
<polygon fill="none" stroke="#000000" points="147,-257.7 147,-279.7 255,-279.7 255,-257.7 147,-257.7"/>
<text text-anchor="start" x="167" y="-264.8" font-family="Helvetica,sans-Serif" font-size="11.00" fill="#000000">street_address</text>
<polygon fill="none" stroke="#000000" points="255,-257.7 255,-279.7 345,-279.7 345,-257.7 255,-257.7"/>
<text text-anchor="start" x="257.5043" y="-265.4" font-family="Helvetica,sans-Serif" font-size="11.00" fill="#000000">text[2147483647]</text>
<polygon fill="none" stroke="#000000" points="147,-235.7 147,-257.7 255,-257.7 255,-235.7 147,-235.7"/>
<text text-anchor="start" x="167" y="-242.8" font-family="Helvetica,sans-Serif" font-size="11.00" fill="#000000">city</text>
<polygon fill="none" stroke="#000000" points="255,-235.7 255,-257.7 345,-257.7 345,-235.7 255,-235.7"/>
<text text-anchor="start" x="257.5043" y="-243.4" font-family="Helvetica,sans-Serif" font-size="11.00" fill="#000000">text[2147483647]</text>
<polygon fill="none" stroke="#000000" points="147,-213.7 147,-235.7 255,-235.7 255,-213.7 147,-213.7"/>
<text text-anchor="start" x="167" y="-220.8" font-family="Helvetica,sans-Serif" font-size="11.00" fill="#000000">postal_code</text>
<polygon fill="none" stroke="#000000" points="255,-213.7 255,-235.7 345,-235.7 345,-213.7 255,-213.7"/>
<text text-anchor="start" x="257.5043" y="-221.4" font-family="Helvetica,sans-Serif" font-size="11.00" fill="#000000">text[2147483647]</text>
<polygon fill="none" stroke="#000000" points="147,-191.7 147,-213.7 255,-213.7 255,-191.7 147,-191.7"/>
<text text-anchor="start" x="167" y="-198.8" font-family="Helvetica,sans-Serif" font-size="11.00" fill="#000000">region</text>
<polygon fill="none" stroke="#000000" points="255,-191.7 255,-213.7 345,-213.7 345,-191.7 255,-191.7"/>
<text text-anchor="start" x="257.5043" y="-199.4" font-family="Helvetica,sans-Serif" font-size="11.00" fill="#000000">text[2147483647]</text>
<polygon fill="none" stroke="#000000" points="147,-169.7 147,-191.7 255,-191.7 255,-169.7 147,-169.7"/>
<text text-anchor="start" x="167" y="-176.8" font-family="Helvetica,sans-Serif" font-size="11.00" fill="#000000">country</text>
<polygon fill="none" stroke="#000000" points="255,-169.7 255,-191.7 345,-191.7 345,-169.7 255,-169.7"/>
<text text-anchor="start" x="257.5043" y="-177.4" font-family="Helvetica,sans-Serif" font-size="11.00" fill="#000000">text[2147483647]</text>
<polygon fill="none" stroke="#000000" points="147,-147.7 147,-169.7 255,-169.7 255,-147.7 147,-147.7"/>
<text text-anchor="start" x="167" y="-154.8" font-family="Helvetica,sans-Serif" font-size="11.00" fill="#000000">latitude</text>
<polygon fill="none" stroke="#000000" points="255,-147.7 255,-169.7 345,-169.7 345,-147.7 255,-147.7"/>
<text text-anchor="start" x="258" y="-155.4" font-family="Helvetica,sans-Serif" font-size="11.00" fill="#000000">float8[17,17]</text>
<polygon fill="none" stroke="#000000" points="147,-125.7 147,-147.7 255,-147.7 255,-125.7 147,-125.7"/>
<text text-anchor="start" x="167" y="-132.8" font-family="Helvetica,sans-Serif" font-size="11.00" fill="#000000">longitude</text>
<polygon fill="none" stroke="#000000" points="255,-125.7 255,-147.7 345,-147.7 345,-125.7 255,-125.7"/>
<text text-anchor="start" x="258" y="-133.4" font-family="Helvetica,sans-Serif" font-size="11.00" fill="#000000">float8[17,17]</text>
<polygon fill="#ffffff" stroke="transparent" points="147,-103.7 147,-125.7 255,-125.7 255,-103.7 147,-103.7"/>
<polygon fill="none" stroke="#000000" points="147,-103.7 147,-125.7 255,-125.7 255,-103.7 147,-103.7"/>
<image xlink:href="../../images/foreignKeys.png" width="11px" height="12px" preserveAspectRatio="xMinYMin meet" x="152" y="-120.7"/>
<text text-anchor="start" x="167" y="-110.8" font-family="Helvetica,sans-Serif" font-size="11.00" fill="#000000">chapter_id</text>
<polygon fill="none" stroke="#000000" points="255,-103.7 255,-125.7 345,-125.7 345,-103.7 255,-103.7"/>
<text text-anchor="start" x="258" y="-111.4" font-family="Helvetica,sans-Serif" font-size="11.00" fill="#000000">int4[10]</text>
<polygon fill="#ffffff" stroke="transparent" points="147,-84.7 147,-103.7 192,-103.7 192,-84.7 147,-84.7"/>
<polygon fill="none" stroke="#000000" points="147,-84.7 147,-103.7 192,-103.7 192,-84.7 147,-84.7"/>
<text text-anchor="start" x="150" y="-90.8" font-family="Helvetica,sans-Serif" font-size="11.00" fill="#000000">&lt; 1</text>
<polygon fill="#ffffff" stroke="transparent" points="192,-84.7 192,-103.7 255,-103.7 255,-84.7 192,-84.7"/>
<polygon fill="none" stroke="#000000" points="192,-84.7 192,-103.7 255,-103.7 255,-84.7 192,-84.7"/>
<text text-anchor="start" x="219.6105" y="-90.8" font-family="Helvetica,sans-Serif" font-size="11.00" fill="#000000">0 rows</text>
<polygon fill="#ffffff" stroke="transparent" points="255,-84.7 255,-103.7 345,-103.7 345,-84.7 255,-84.7"/>
<polygon fill="none" stroke="#000000" points="255,-84.7 255,-103.7 345,-103.7 345,-84.7 255,-84.7"/>
<text text-anchor="start" x="326.4053" y="-90.8" font-family="Helvetica,sans-Serif" font-size="11.00" fill="#000000">1 &gt;</text>
<polygon fill="none" stroke="#000000" stroke-width="2" points="146,-83.7 146,-391.7 346,-391.7 346,-83.7 146,-83.7"/>
</a>
</g>
</g>
<!-- events&#45;&gt;venues -->
<g id="edge2" class="edge">
<title>events:w&#45;&gt;venues:e</title>
<path fill="none" stroke="#000000" d="M381.84,-200.2989C351.3711,-219.8784 395.3785,-312.7 345,-312.7"/>
<polygon fill="#000000" stroke="#000000" points="388.2465,-198.6706 396.8868,-200.1891 392.1233,-197.6853 396,-196.7 396,-196.7 396,-196.7 392.1233,-197.6853 395.1132,-193.2109 388.2465,-198.6706 388.2465,-198.6706"/>
<ellipse fill="none" stroke="#000000" cx="385.1451" cy="-199.4589" rx="3.2" ry="3.2"/>
</g>
<!-- venues&#45;&gt;chapters -->
<g id="edge3" class="edge">
<title>venues:w&#45;&gt;chapters:e</title>
<path fill="none" stroke="#000000" d="M132.8987,-111.0395C120.1024,-103.4498 115.9996,-86.7 96,-86.7"/>
<polygon fill="#000000" stroke="#000000" points="139.2566,-112.6899 146.0954,-118.1845 143.1283,-113.6949 147,-114.7 147,-114.7 147,-114.7 143.1283,-113.6949 147.9046,-111.2155 139.2566,-112.6899 139.2566,-112.6899"/>
<ellipse fill="none" stroke="#000000" cx="136.1593" cy="-111.8858" rx="3.2" ry="3.2"/>
</g>
</g>
</svg>
