<?xml version="1.0" encoding="UTF-8" standalone="no"?>
<!DOCTYPE svg PUBLIC "-//W3C//DTD SVG 1.1//EN"
 "http://www.w3.org/Graphics/SVG/1.1/DTD/svg11.dtd">
<!-- Generated by graphviz version 2.40.1 (20161225.0304)
 -->
<!-- Title: twoDegreesRelationshipsDiagram Pages: 1 -->
<svg width="675pt" height="552pt"
 viewBox="0.00 0.00 675.00 552.20" xmlns="http://www.w3.org/2000/svg" xmlns:xlink="http://www.w3.org/1999/xlink">
<g id="graph0" class="graph" transform="scale(1 1) rotate(0) translate(4 548.2)">
<title>twoDegreesRelationshipsDiagram</title>
<polygon fill="#ffffff" stroke="transparent" points="-4,4 -4,-548.2 671,-548.2 671,4 -4,4"/>
<text text-anchor="middle" x="72.4936" y="-7.3" font-family="Helvetica,sans-Serif" font-size="11.00" fill="#000000">Generated by SchemaSpy</text>
<!-- chapter_users -->
<g id="node1" class="node">
<title>chapter_users</title>
<g id="a_node1"><a xlink:href="../../tables/chapter_users.html" xlink:title="chapter_users" target="_top">
<polygon fill="#ffffff" stroke="transparent" points="188,-479.2 188,-540.2 310,-540.2 310,-479.2 188,-479.2"/>
<polygon fill="#f5f5f5" stroke="transparent" points="188,-516.7 188,-539.7 310,-539.7 310,-516.7 188,-516.7"/>
<polygon fill="none" stroke="#000000" points="188,-516.7 188,-539.7 310,-539.7 310,-516.7 188,-516.7"/>
<text text-anchor="start" x="193" y="-525.3" font-family="Helvetica,sans-Serif" font-weight="bold" font-size="11.00" fill="#000000">chapter_users</text>
<text text-anchor="start" x="275.5219" y="-524.8" font-family="Helvetica,sans-Serif" font-size="11.00" fill="#000000">[table]</text>
<polygon fill="none" stroke="#000000" points="188,-497.7 188,-516.7 310,-516.7 310,-497.7 188,-497.7"/>
<text text-anchor="start" x="191" y="-503.8" font-family="Helvetica,sans-Serif" font-size="11.00" fill="#000000">...</text>
<polygon fill="#ffffff" stroke="transparent" points="188,-478.7 188,-497.7 234,-497.7 234,-478.7 188,-478.7"/>
<polygon fill="none" stroke="#000000" points="188,-478.7 188,-497.7 234,-497.7 234,-478.7 188,-478.7"/>
<text text-anchor="start" x="191" y="-484.8" font-family="Helvetica,sans-Serif" font-size="11.00" fill="#000000">&lt; 3</text>
<polygon fill="#ffffff" stroke="transparent" points="234,-478.7 234,-497.7 285,-497.7 285,-478.7 234,-478.7"/>
<polygon fill="none" stroke="#000000" points="234,-478.7 234,-497.7 285,-497.7 285,-478.7 234,-478.7"/>
<text text-anchor="start" x="249.6105" y="-484.8" font-family="Helvetica,sans-Serif" font-size="11.00" fill="#000000">0 rows</text>
<polygon fill="#ffffff" stroke="transparent" points="285,-478.7 285,-497.7 310,-497.7 310,-478.7 285,-478.7"/>
<polygon fill="none" stroke="#000000" points="285,-478.7 285,-497.7 310,-497.7 310,-478.7 285,-478.7"/>
<text text-anchor="start" x="300.8862" y="-484.8" font-family="Helvetica,sans-Serif" font-size="11.00" fill="#000000"> &#160;</text>
</a>
</g>
</g>
<!-- chapters -->
<g id="node2" class="node">
<title>chapters</title>
<g id="a_node2"><a xlink:href="../../tables/chapters.html" xlink:title="chapters" target="_top">
<polygon fill="#ffffff" stroke="transparent" points="8,-273.2 8,-334.2 99,-334.2 99,-273.2 8,-273.2"/>
<polygon fill="#f5f5f5" stroke="transparent" points="8.5,-310.7 8.5,-333.7 99.5,-333.7 99.5,-310.7 8.5,-310.7"/>
<polygon fill="none" stroke="#000000" points="8.5,-310.7 8.5,-333.7 99.5,-333.7 99.5,-310.7 8.5,-310.7"/>
<text text-anchor="start" x="13.5" y="-319.3" font-family="Helvetica,sans-Serif" font-weight="bold" font-size="11.00" fill="#000000">chapters</text>
<text text-anchor="start" x="65.0219" y="-318.8" font-family="Helvetica,sans-Serif" font-size="11.00" fill="#000000">[table]</text>
<polygon fill="none" stroke="#000000" points="8.5,-291.7 8.5,-310.7 99.5,-310.7 99.5,-291.7 8.5,-291.7"/>
<text text-anchor="start" x="11.5" y="-297.8" font-family="Helvetica,sans-Serif" font-size="11.00" fill="#000000">...</text>
<polygon fill="#ffffff" stroke="transparent" points="8.5,-272.7 8.5,-291.7 30.5,-291.7 30.5,-272.7 8.5,-272.7"/>
<polygon fill="none" stroke="#000000" points="8.5,-272.7 8.5,-291.7 30.5,-291.7 30.5,-272.7 8.5,-272.7"/>
<text text-anchor="start" x="11.5" y="-278.8" font-family="Helvetica,sans-Serif" font-size="11.00" fill="#000000"> &#160;</text>
<polygon fill="#ffffff" stroke="transparent" points="30.5,-272.7 30.5,-291.7 73.5,-291.7 73.5,-272.7 30.5,-272.7"/>
<polygon fill="none" stroke="#000000" points="30.5,-272.7 30.5,-291.7 73.5,-291.7 73.5,-272.7 30.5,-272.7"/>
<text text-anchor="start" x="38.1105" y="-278.8" font-family="Helvetica,sans-Serif" font-size="11.00" fill="#000000">0 rows</text>
<polygon fill="#ffffff" stroke="transparent" points="73.5,-272.7 73.5,-291.7 99.5,-291.7 99.5,-272.7 73.5,-272.7"/>
<polygon fill="none" stroke="#000000" points="73.5,-272.7 73.5,-291.7 99.5,-291.7 99.5,-272.7 73.5,-272.7"/>
<text text-anchor="start" x="80.9053" y="-278.8" font-family="Helvetica,sans-Serif" font-size="11.00" fill="#000000">4 &gt;</text>
</a>
</g>
</g>
<!-- chapter_users&#45;&gt;chapters -->
<g id="edge1" class="edge">
<title>chapter_users:w&#45;&gt;chapters:e</title>
<path fill="none" stroke="#000000" d="M173.5731,-505.4498C103.9879,-493.1454 72.2362,-393.0101 60.0002,-338.5969"/>
<polygon fill="#000000" stroke="#000000" points="180.0299,-506.0093 187.6892,-510.2866 184.0149,-506.3546 188,-506.7 188,-506.7 188,-506.7 184.0149,-506.3546 188.3108,-503.1134 180.0299,-506.0093 180.0299,-506.0093"/>
<ellipse fill="none" stroke="#000000" cx="176.8418" cy="-505.733" rx="3.2" ry="3.2"/>
</g>
<!-- event_sponsors -->
<g id="node3" class="node">
<title>event_sponsors</title>
<g id="a_node3"><a xlink:href="../../tables/event_sponsors.html" xlink:title="event_sponsors" target="_top">
<polygon fill="#ffffff" stroke="transparent" points="528,-457.2 528,-518.2 659,-518.2 659,-457.2 528,-457.2"/>
<polygon fill="#f5f5f5" stroke="transparent" points="528.5,-494.7 528.5,-517.7 659.5,-517.7 659.5,-494.7 528.5,-494.7"/>
<polygon fill="none" stroke="#000000" points="528.5,-494.7 528.5,-517.7 659.5,-517.7 659.5,-494.7 528.5,-494.7"/>
<text text-anchor="start" x="533.5" y="-503.3" font-family="Helvetica,sans-Serif" font-weight="bold" font-size="11.00" fill="#000000">event_sponsors</text>
<text text-anchor="start" x="625.0219" y="-502.8" font-family="Helvetica,sans-Serif" font-size="11.00" fill="#000000">[table]</text>
<polygon fill="none" stroke="#000000" points="528.5,-475.7 528.5,-494.7 659.5,-494.7 659.5,-475.7 528.5,-475.7"/>
<text text-anchor="start" x="531.5" y="-481.8" font-family="Helvetica,sans-Serif" font-size="11.00" fill="#000000">...</text>
<polygon fill="#ffffff" stroke="transparent" points="528.5,-456.7 528.5,-475.7 579.5,-475.7 579.5,-456.7 528.5,-456.7"/>
<polygon fill="none" stroke="#000000" points="528.5,-456.7 528.5,-475.7 579.5,-475.7 579.5,-456.7 528.5,-456.7"/>
<text text-anchor="start" x="531.5" y="-462.8" font-family="Helvetica,sans-Serif" font-size="11.00" fill="#000000">&lt; 2</text>
<polygon fill="#ffffff" stroke="transparent" points="579.5,-456.7 579.5,-475.7 632.5,-475.7 632.5,-456.7 579.5,-456.7"/>
<polygon fill="none" stroke="#000000" points="579.5,-456.7 579.5,-475.7 632.5,-475.7 632.5,-456.7 579.5,-456.7"/>
<text text-anchor="start" x="597.1105" y="-462.8" font-family="Helvetica,sans-Serif" font-size="11.00" fill="#000000">0 rows</text>
<polygon fill="#ffffff" stroke="transparent" points="632.5,-456.7 632.5,-475.7 659.5,-475.7 659.5,-456.7 632.5,-456.7"/>
<polygon fill="none" stroke="#000000" points="632.5,-456.7 632.5,-475.7 659.5,-475.7 659.5,-456.7 632.5,-456.7"/>
<text text-anchor="start" x="650.3862" y="-462.8" font-family="Helvetica,sans-Serif" font-size="11.00" fill="#000000"> &#160;</text>
</a>
</g>
</g>
<!-- events -->
<g id="node4" class="node">
<title>events</title>
<g id="a_node4"><a xlink:href="../../tables/events.html" xlink:title="events" target="_top">
<polygon fill="#ffffff" stroke="transparent" points="399,-372.2 399,-433.2 479,-433.2 479,-372.2 399,-372.2"/>
<polygon fill="#f5f5f5" stroke="transparent" points="399,-409.7 399,-432.7 479,-432.7 479,-409.7 399,-409.7"/>
<polygon fill="none" stroke="#000000" points="399,-409.7 399,-432.7 479,-432.7 479,-409.7 399,-409.7"/>
<text text-anchor="start" x="404" y="-418.3" font-family="Helvetica,sans-Serif" font-weight="bold" font-size="11.00" fill="#000000">events</text>
<text text-anchor="start" x="444.5219" y="-417.8" font-family="Helvetica,sans-Serif" font-size="11.00" fill="#000000">[table]</text>
<polygon fill="none" stroke="#000000" points="399,-390.7 399,-409.7 479,-409.7 479,-390.7 399,-390.7"/>
<text text-anchor="start" x="402" y="-396.8" font-family="Helvetica,sans-Serif" font-size="11.00" fill="#000000">...</text>
<polygon fill="#ffffff" stroke="transparent" points="399,-371.7 399,-390.7 420,-390.7 420,-371.7 399,-371.7"/>
<polygon fill="none" stroke="#000000" points="399,-371.7 399,-390.7 420,-390.7 420,-371.7 399,-371.7"/>
<text text-anchor="start" x="401.7027" y="-377.8" font-family="Helvetica,sans-Serif" font-size="11.00" fill="#000000">&lt; 2</text>
<polygon fill="#ffffff" stroke="transparent" points="420,-371.7 420,-390.7 458,-390.7 458,-371.7 420,-371.7"/>
<polygon fill="none" stroke="#000000" points="420,-371.7 420,-390.7 458,-390.7 458,-371.7 420,-371.7"/>
<text text-anchor="start" x="422.8053" y="-377.8" font-family="Helvetica,sans-Serif" font-size="11.00" fill="#000000">0 rows</text>
<polygon fill="#ffffff" stroke="transparent" points="458,-371.7 458,-390.7 479,-390.7 479,-371.7 458,-371.7"/>
<polygon fill="none" stroke="#000000" points="458,-371.7 458,-390.7 479,-390.7 479,-371.7 458,-371.7"/>
<text text-anchor="start" x="460.7027" y="-377.8" font-family="Helvetica,sans-Serif" font-size="11.00" fill="#000000">3 &gt;</text>
</a>
</g>
</g>
<!-- event_sponsors&#45;&gt;events -->
<g id="edge2" class="edge">
<title>event_sponsors:w&#45;&gt;events:e</title>
<path fill="none" stroke="#000000" d="M514.0129,-482.7244C490.9172,-476.4147 472.0184,-456.0705 458.9674,-437.4754"/>
<polygon fill="#000000" stroke="#000000" points="520.5734,-483.619 528.0135,-488.267 524.5367,-484.1595 528.5,-484.7 528.5,-484.7 528.5,-484.7 524.5367,-484.1595 528.9865,-481.133 520.5734,-483.619 520.5734,-483.619"/>
<ellipse fill="none" stroke="#000000" cx="517.4027" cy="-483.1866" rx="3.2" ry="3.2"/>
</g>
<!-- events&#45;&gt;chapters -->
<g id="edge5" class="edge">
<title>events:w&#45;&gt;chapters:e</title>
<path fill="none" stroke="#000000" d="M377.0527,-435.9013C370.7494,-438.2481 364.3338,-440.2546 358,-441.7 263.5395,-463.2562 224.7737,-488.6135 140,-441.7 100.5394,-419.8626 76.6722,-371.6668 64.2857,-338.4346"/>
<polygon fill="#000000" stroke="#000000" points="383.2032,-433.3604 391.9716,-433.6329 386.9001,-431.833 390.597,-430.3056 390.597,-430.3056 390.597,-430.3056 386.9001,-431.833 389.2224,-426.9784 383.2032,-433.3604 383.2032,-433.3604"/>
<ellipse fill="none" stroke="#000000" cx="380.2456" cy="-434.5822" rx="3.2" ry="3.2"/>
</g>
<!-- venues -->
<g id="node7" class="node">
<title>venues</title>
<g id="a_node7"><a xlink:href="../../tables/venues.html" xlink:title="venues" target="_top">
<polygon fill="#ffffff" stroke="transparent" points="148,-120.7 148,-430.7 350,-430.7 350,-120.7 148,-120.7"/>
<polygon fill="#f5f5f5" stroke="transparent" points="150,-405.7 150,-428.7 348,-428.7 348,-405.7 150,-405.7"/>
<polygon fill="none" stroke="#000000" points="150,-405.7 150,-428.7 348,-428.7 348,-405.7 150,-405.7"/>
<text text-anchor="start" x="155" y="-414.3" font-family="Helvetica,sans-Serif" font-weight="bold" font-size="11.00" fill="#000000">venues</text>
<text text-anchor="start" x="313.0437" y="-413.8" font-family="Helvetica,sans-Serif" font-size="11.00" fill="#000000">[table]</text>
<polygon fill="none" stroke="#000000" points="150,-383.7 150,-405.7 258,-405.7 258,-383.7 150,-383.7"/>
<text text-anchor="start" x="170" y="-390.8" font-family="Helvetica,sans-Serif" font-size="11.00" fill="#000000">created_at</text>
<polygon fill="none" stroke="#000000" points="258,-383.7 258,-405.7 348,-405.7 348,-383.7 258,-383.7"/>
<text text-anchor="start" x="261" y="-391.4" font-family="Helvetica,sans-Serif" font-size="11.00" fill="#000000">timestamp[26,3]</text>
<polygon fill="none" stroke="#000000" points="150,-361.7 150,-383.7 258,-383.7 258,-361.7 150,-361.7"/>
<text text-anchor="start" x="170" y="-368.8" font-family="Helvetica,sans-Serif" font-size="11.00" fill="#000000">updated_at</text>
<polygon fill="none" stroke="#000000" points="258,-361.7 258,-383.7 348,-383.7 348,-361.7 258,-361.7"/>
<text text-anchor="start" x="261" y="-369.4" font-family="Helvetica,sans-Serif" font-size="11.00" fill="#000000">timestamp[26,3]</text>
<polygon fill="none" stroke="#000000" points="150,-339.7 150,-361.7 258,-361.7 258,-339.7 150,-339.7"/>
<image xlink:href="../../images/primaryKeys.png" width="11px" height="12px" preserveAspectRatio="xMinYMin meet" x="155" y="-356.7"/>
<text text-anchor="start" x="170" y="-346.8" font-family="Helvetica,sans-Serif" font-size="11.00" fill="#000000">id</text>
<polygon fill="none" stroke="#000000" points="258,-339.7 258,-361.7 348,-361.7 348,-339.7 258,-339.7"/>
<text text-anchor="start" x="261" y="-347.4" font-family="Helvetica,sans-Serif" font-size="11.00" fill="#000000">serial[10]</text>
<polygon fill="none" stroke="#000000" points="150,-317.7 150,-339.7 258,-339.7 258,-317.7 150,-317.7"/>
<text text-anchor="start" x="170" y="-324.8" font-family="Helvetica,sans-Serif" font-size="11.00" fill="#000000">name</text>
<polygon fill="none" stroke="#000000" points="258,-317.7 258,-339.7 348,-339.7 348,-317.7 258,-317.7"/>
<text text-anchor="start" x="260.5043" y="-325.4" font-family="Helvetica,sans-Serif" font-size="11.00" fill="#000000">text[2147483647]</text>
<polygon fill="none" stroke="#000000" points="150,-295.7 150,-317.7 258,-317.7 258,-295.7 150,-295.7"/>
<text text-anchor="start" x="170" y="-302.8" font-family="Helvetica,sans-Serif" font-size="11.00" fill="#000000">street_address</text>
<polygon fill="none" stroke="#000000" points="258,-295.7 258,-317.7 348,-317.7 348,-295.7 258,-295.7"/>
<text text-anchor="start" x="260.5043" y="-303.4" font-family="Helvetica,sans-Serif" font-size="11.00" fill="#000000">text[2147483647]</text>
<polygon fill="none" stroke="#000000" points="150,-273.7 150,-295.7 258,-295.7 258,-273.7 150,-273.7"/>
<text text-anchor="start" x="170" y="-280.8" font-family="Helvetica,sans-Serif" font-size="11.00" fill="#000000">city</text>
<polygon fill="none" stroke="#000000" points="258,-273.7 258,-295.7 348,-295.7 348,-273.7 258,-273.7"/>
<text text-anchor="start" x="260.5043" y="-281.4" font-family="Helvetica,sans-Serif" font-size="11.00" fill="#000000">text[2147483647]</text>
<polygon fill="none" stroke="#000000" points="150,-251.7 150,-273.7 258,-273.7 258,-251.7 150,-251.7"/>
<text text-anchor="start" x="170" y="-258.8" font-family="Helvetica,sans-Serif" font-size="11.00" fill="#000000">postal_code</text>
<polygon fill="none" stroke="#000000" points="258,-251.7 258,-273.7 348,-273.7 348,-251.7 258,-251.7"/>
<text text-anchor="start" x="260.5043" y="-259.4" font-family="Helvetica,sans-Serif" font-size="11.00" fill="#000000">text[2147483647]</text>
<polygon fill="none" stroke="#000000" points="150,-229.7 150,-251.7 258,-251.7 258,-229.7 150,-229.7"/>
<text text-anchor="start" x="170" y="-236.8" font-family="Helvetica,sans-Serif" font-size="11.00" fill="#000000">region</text>
<polygon fill="none" stroke="#000000" points="258,-229.7 258,-251.7 348,-251.7 348,-229.7 258,-229.7"/>
<text text-anchor="start" x="260.5043" y="-237.4" font-family="Helvetica,sans-Serif" font-size="11.00" fill="#000000">text[2147483647]</text>
<polygon fill="none" stroke="#000000" points="150,-207.7 150,-229.7 258,-229.7 258,-207.7 150,-207.7"/>
<text text-anchor="start" x="170" y="-214.8" font-family="Helvetica,sans-Serif" font-size="11.00" fill="#000000">country</text>
<polygon fill="none" stroke="#000000" points="258,-207.7 258,-229.7 348,-229.7 348,-207.7 258,-207.7"/>
<text text-anchor="start" x="260.5043" y="-215.4" font-family="Helvetica,sans-Serif" font-size="11.00" fill="#000000">text[2147483647]</text>
<polygon fill="none" stroke="#000000" points="150,-185.7 150,-207.7 258,-207.7 258,-185.7 150,-185.7"/>
<text text-anchor="start" x="170" y="-192.8" font-family="Helvetica,sans-Serif" font-size="11.00" fill="#000000">latitude</text>
<polygon fill="none" stroke="#000000" points="258,-185.7 258,-207.7 348,-207.7 348,-185.7 258,-185.7"/>
<text text-anchor="start" x="261" y="-193.4" font-family="Helvetica,sans-Serif" font-size="11.00" fill="#000000">float8[17,17]</text>
<polygon fill="none" stroke="#000000" points="150,-163.7 150,-185.7 258,-185.7 258,-163.7 150,-163.7"/>
<text text-anchor="start" x="170" y="-170.8" font-family="Helvetica,sans-Serif" font-size="11.00" fill="#000000">longitude</text>
<polygon fill="none" stroke="#000000" points="258,-163.7 258,-185.7 348,-185.7 348,-163.7 258,-163.7"/>
<text text-anchor="start" x="261" y="-171.4" font-family="Helvetica,sans-Serif" font-size="11.00" fill="#000000">float8[17,17]</text>
<polygon fill="none" stroke="#000000" points="150,-141.7 150,-163.7 258,-163.7 258,-141.7 150,-141.7"/>
<image xlink:href="../../images/foreignKeys.png" width="11px" height="12px" preserveAspectRatio="xMinYMin meet" x="155" y="-158.7"/>
<text text-anchor="start" x="170" y="-148.8" font-family="Helvetica,sans-Serif" font-size="11.00" fill="#000000">chapter_id</text>
<polygon fill="none" stroke="#000000" points="258,-141.7 258,-163.7 348,-163.7 348,-141.7 258,-141.7"/>
<text text-anchor="start" x="261" y="-149.4" font-family="Helvetica,sans-Serif" font-size="11.00" fill="#000000">int4[10]</text>
<polygon fill="#ffffff" stroke="transparent" points="150,-122.7 150,-141.7 195,-141.7 195,-122.7 150,-122.7"/>
<polygon fill="none" stroke="#000000" points="150,-122.7 150,-141.7 195,-141.7 195,-122.7 150,-122.7"/>
<text text-anchor="start" x="153" y="-128.8" font-family="Helvetica,sans-Serif" font-size="11.00" fill="#000000">&lt; 1</text>
<polygon fill="#ffffff" stroke="transparent" points="195,-122.7 195,-141.7 258,-141.7 258,-122.7 195,-122.7"/>
<polygon fill="none" stroke="#000000" points="195,-122.7 195,-141.7 258,-141.7 258,-122.7 195,-122.7"/>
<text text-anchor="start" x="222.6105" y="-128.8" font-family="Helvetica,sans-Serif" font-size="11.00" fill="#000000">0 rows</text>
<polygon fill="#ffffff" stroke="transparent" points="258,-122.7 258,-141.7 348,-141.7 348,-122.7 258,-122.7"/>
<polygon fill="none" stroke="#000000" points="258,-122.7 258,-141.7 348,-141.7 348,-122.7 258,-122.7"/>
<text text-anchor="start" x="329.4053" y="-128.8" font-family="Helvetica,sans-Serif" font-size="11.00" fill="#000000">1 &gt;</text>
<polygon fill="none" stroke="#000000" stroke-width="2" points="149,-121.7 149,-429.7 349,-429.7 349,-121.7 149,-121.7"/>
</a>
</g>
</g>
<!-- events&#45;&gt;venues -->
<g id="edge6" class="edge">
<title>events:w&#45;&gt;venues:e</title>
<path fill="none" stroke="#000000" d="M385.8153,-360.7088C374.0059,-354.8053 361.0884,-350.7 348,-350.7"/>
<polygon fill="#000000" stroke="#000000" points="391.6783,-364.0522 396.8444,-371.1425 395.153,-366.0337 398.6278,-368.0152 398.6278,-368.0152 398.6278,-368.0152 395.153,-366.0337 400.4111,-364.888 391.6783,-364.0522 391.6783,-364.0522"/>
<ellipse fill="none" stroke="#000000" cx="388.8985" cy="-362.467" rx="3.2" ry="3.2"/>
</g>
<!-- event_tags -->
<g id="node5" class="node">
<title>event_tags</title>
<g id="a_node5"><a xlink:href="../../tables/event_tags.html" xlink:title="event_tags" target="_top">
<polygon fill="#ffffff" stroke="transparent" points="542,-375.2 542,-436.2 645,-436.2 645,-375.2 542,-375.2"/>
<polygon fill="#f5f5f5" stroke="transparent" points="542.5,-412.7 542.5,-435.7 645.5,-435.7 645.5,-412.7 542.5,-412.7"/>
<polygon fill="none" stroke="#000000" points="542.5,-412.7 542.5,-435.7 645.5,-435.7 645.5,-412.7 542.5,-412.7"/>
<text text-anchor="start" x="547.5" y="-421.3" font-family="Helvetica,sans-Serif" font-weight="bold" font-size="11.00" fill="#000000">event_tags</text>
<text text-anchor="start" x="611.0219" y="-420.8" font-family="Helvetica,sans-Serif" font-size="11.00" fill="#000000">[table]</text>
<polygon fill="none" stroke="#000000" points="542.5,-393.7 542.5,-412.7 645.5,-412.7 645.5,-393.7 542.5,-393.7"/>
<text text-anchor="start" x="545.5" y="-399.8" font-family="Helvetica,sans-Serif" font-size="11.00" fill="#000000">...</text>
<polygon fill="#ffffff" stroke="transparent" points="542.5,-374.7 542.5,-393.7 579.5,-393.7 579.5,-374.7 542.5,-374.7"/>
<polygon fill="none" stroke="#000000" points="542.5,-374.7 542.5,-393.7 579.5,-393.7 579.5,-374.7 542.5,-374.7"/>
<text text-anchor="start" x="545.5" y="-380.8" font-family="Helvetica,sans-Serif" font-size="11.00" fill="#000000">&lt; 2</text>
<polygon fill="#ffffff" stroke="transparent" points="579.5,-374.7 579.5,-393.7 625.5,-393.7 625.5,-374.7 579.5,-374.7"/>
<polygon fill="none" stroke="#000000" points="579.5,-374.7 579.5,-393.7 625.5,-393.7 625.5,-374.7 579.5,-374.7"/>
<text text-anchor="start" x="590.1105" y="-380.8" font-family="Helvetica,sans-Serif" font-size="11.00" fill="#000000">0 rows</text>
<polygon fill="#ffffff" stroke="transparent" points="625.5,-374.7 625.5,-393.7 645.5,-393.7 645.5,-374.7 625.5,-374.7"/>
<polygon fill="none" stroke="#000000" points="625.5,-374.7 625.5,-393.7 645.5,-393.7 645.5,-374.7 625.5,-374.7"/>
<text text-anchor="start" x="636.3862" y="-380.8" font-family="Helvetica,sans-Serif" font-size="11.00" fill="#000000"> &#160;</text>
</a>
</g>
</g>
<!-- event_tags&#45;&gt;events -->
<g id="edge3" class="edge">
<title>event_tags:w&#45;&gt;events:e</title>
<path fill="none" stroke="#000000" d="M527.8126,-402.7C514.0757,-402.7 499.981,-402.7 487.1819,-402.7"/>
<polygon fill="#000000" stroke="#000000" points="534.5,-402.7001 542.5,-406.3 538.5,-402.7 542.5,-402.7 542.5,-402.7 542.5,-402.7 538.5,-402.7 542.5,-399.1 534.5,-402.7001 534.5,-402.7001"/>
<ellipse fill="none" stroke="#000000" cx="531.3" cy="-402.7001" rx="3.2" ry="3.2"/>
</g>
<!-- event_users -->
<g id="node6" class="node">
<title>event_users</title>
<g id="a_node6"><a xlink:href="../../tables/event_users.html" xlink:title="event_users" target="_top">
<polygon fill="#ffffff" stroke="transparent" points="538.5,-293.2 538.5,-354.2 648.5,-354.2 648.5,-293.2 538.5,-293.2"/>
<polygon fill="#f5f5f5" stroke="transparent" points="538.5,-330.7 538.5,-353.7 648.5,-353.7 648.5,-330.7 538.5,-330.7"/>
<polygon fill="none" stroke="#000000" points="538.5,-330.7 538.5,-353.7 648.5,-353.7 648.5,-330.7 538.5,-330.7"/>
<text text-anchor="start" x="543.5" y="-339.3" font-family="Helvetica,sans-Serif" font-weight="bold" font-size="11.00" fill="#000000">event_users</text>
<text text-anchor="start" x="614.0219" y="-338.8" font-family="Helvetica,sans-Serif" font-size="11.00" fill="#000000">[table]</text>
<polygon fill="none" stroke="#000000" points="538.5,-311.7 538.5,-330.7 648.5,-330.7 648.5,-311.7 538.5,-311.7"/>
<text text-anchor="start" x="541.5" y="-317.8" font-family="Helvetica,sans-Serif" font-size="11.00" fill="#000000">...</text>
<polygon fill="#ffffff" stroke="transparent" points="538.5,-292.7 538.5,-311.7 574.5,-311.7 574.5,-292.7 538.5,-292.7"/>
<polygon fill="none" stroke="#000000" points="538.5,-292.7 538.5,-311.7 574.5,-311.7 574.5,-292.7 538.5,-292.7"/>
<text text-anchor="start" x="541.5" y="-298.8" font-family="Helvetica,sans-Serif" font-size="11.00" fill="#000000">&lt; 4</text>
<polygon fill="#ffffff" stroke="transparent" points="574.5,-292.7 574.5,-311.7 619.5,-311.7 619.5,-292.7 574.5,-292.7"/>
<polygon fill="none" stroke="#000000" points="574.5,-292.7 574.5,-311.7 619.5,-311.7 619.5,-292.7 574.5,-292.7"/>
<text text-anchor="start" x="584.1105" y="-298.8" font-family="Helvetica,sans-Serif" font-size="11.00" fill="#000000">0 rows</text>
<polygon fill="#ffffff" stroke="transparent" points="619.5,-292.7 619.5,-311.7 648.5,-311.7 648.5,-292.7 619.5,-292.7"/>
<polygon fill="none" stroke="#000000" points="619.5,-292.7 619.5,-311.7 648.5,-311.7 648.5,-292.7 619.5,-292.7"/>
<text text-anchor="start" x="629.9053" y="-298.8" font-family="Helvetica,sans-Serif" font-size="11.00" fill="#000000">2 &gt;</text>
</a>
</g>
</g>
<!-- event_users&#45;&gt;events -->
<g id="edge4" class="edge">
<title>event_users:w&#45;&gt;events:e</title>
<path fill="none" stroke="#000000" d="M524.0582,-322.4174C498.7293,-328.4119 477.1669,-349.0676 462.0894,-367.9246"/>
<polygon fill="#000000" stroke="#000000" points="530.556,-321.6447 538.9251,-324.2748 534.528,-321.1724 538.5,-320.7 538.5,-320.7 538.5,-320.7 534.528,-321.1724 538.0749,-317.1252 530.556,-321.6447 530.556,-321.6447"/>
<ellipse fill="none" stroke="#000000" cx="527.3784" cy="-322.0226" rx="3.2" ry="3.2"/>
</g>
<!-- venues&#45;&gt;chapters -->
<g id="edge8" class="edge">
<title>venues:w&#45;&gt;chapters:e</title>
<path fill="none" stroke="#000000" d="M135.6207,-154.438C90.6113,-165.6487 69.081,-228.5695 59.7521,-269.0575"/>
<polygon fill="#000000" stroke="#000000" points="142.0578,-153.66 150.432,-156.274 146.0289,-153.18 150,-152.7 150,-152.7 150,-152.7 146.0289,-153.18 149.568,-149.126 142.0578,-153.66 142.0578,-153.66"/>
<ellipse fill="none" stroke="#000000" cx="138.8809" cy="-154.044" rx="3.2" ry="3.2"/>
</g>
<!-- user_bans -->
<g id="node8" class="node">
<title>user_bans</title>
<g id="a_node8"><a xlink:href="../../tables/user_bans.html" xlink:title="user_bans" target="_top">
<polygon fill="#ffffff" stroke="transparent" points="199.5,-38.2 199.5,-99.2 298.5,-99.2 298.5,-38.2 199.5,-38.2"/>
<polygon fill="#f5f5f5" stroke="transparent" points="200,-75.7 200,-98.7 299,-98.7 299,-75.7 200,-75.7"/>
<polygon fill="none" stroke="#000000" points="200,-75.7 200,-98.7 299,-98.7 299,-75.7 200,-75.7"/>
<text text-anchor="start" x="205" y="-84.3" font-family="Helvetica,sans-Serif" font-weight="bold" font-size="11.00" fill="#000000">user_bans</text>
<text text-anchor="start" x="264.5219" y="-83.8" font-family="Helvetica,sans-Serif" font-size="11.00" fill="#000000">[table]</text>
<polygon fill="none" stroke="#000000" points="200,-56.7 200,-75.7 299,-75.7 299,-56.7 200,-56.7"/>
<text text-anchor="start" x="203" y="-62.8" font-family="Helvetica,sans-Serif" font-size="11.00" fill="#000000">...</text>
<polygon fill="#ffffff" stroke="transparent" points="200,-37.7 200,-56.7 235,-56.7 235,-37.7 200,-37.7"/>
<polygon fill="none" stroke="#000000" points="200,-37.7 200,-56.7 235,-56.7 235,-37.7 200,-37.7"/>
<text text-anchor="start" x="203" y="-43.8" font-family="Helvetica,sans-Serif" font-size="11.00" fill="#000000">&lt; 2</text>
<polygon fill="#ffffff" stroke="transparent" points="235,-37.7 235,-56.7 280,-56.7 280,-37.7 235,-37.7"/>
<polygon fill="none" stroke="#000000" points="235,-37.7 235,-56.7 280,-56.7 280,-37.7 235,-37.7"/>
<text text-anchor="start" x="244.6105" y="-43.8" font-family="Helvetica,sans-Serif" font-size="11.00" fill="#000000">0 rows</text>
<polygon fill="#ffffff" stroke="transparent" points="280,-37.7 280,-56.7 299,-56.7 299,-37.7 280,-37.7"/>
<polygon fill="none" stroke="#000000" points="280,-37.7 280,-56.7 299,-56.7 299,-37.7 280,-37.7"/>
<text text-anchor="start" x="289.8862" y="-43.8" font-family="Helvetica,sans-Serif" font-size="11.00" fill="#000000"> &#160;</text>
</a>
</g>
</g>
<!-- user_bans&#45;&gt;chapters -->
<g id="edge7" class="edge">
<title>user_bans:w&#45;&gt;chapters:e</title>
<path fill="none" stroke="#000000" d="M185.5559,-66.8155C101.9471,-79.9912 69.4781,-206.565 58.4631,-269.0928"/>
<polygon fill="#000000" stroke="#000000" points="192.0238,-66.3161 200.2772,-69.2893 196.0119,-66.008 200,-65.7 200,-65.7 200,-65.7 196.0119,-66.008 199.7228,-62.1107 192.0238,-66.3161 192.0238,-66.3161"/>
<ellipse fill="none" stroke="#000000" cx="188.8333" cy="-66.5625" rx="3.2" ry="3.2"/>
</g>
</g>
</svg>
