<?xml version="1.0" encoding="UTF-8" standalone="no"?>
<!DOCTYPE svg PUBLIC "-//W3C//DTD SVG 1.1//EN"
 "http://www.w3.org/Graphics/SVG/1.1/DTD/svg11.dtd">
<!-- Generated by graphviz version 2.40.1 (20161225.0304)
 -->
<!-- Title: twoDegreesRelationshipsDiagram Pages: 1 -->
<svg width="555pt" height="421pt"
 viewBox="0.00 0.00 555.00 420.70" xmlns="http://www.w3.org/2000/svg" xmlns:xlink="http://www.w3.org/1999/xlink">
<g id="graph0" class="graph" transform="scale(1 1) rotate(0) translate(4 416.7)">
<title>twoDegreesRelationshipsDiagram</title>
<polygon fill="#ffffff" stroke="transparent" points="-4,4 -4,-416.7 551,-416.7 551,4 -4,4"/>
<text text-anchor="middle" x="72.4936" y="-7.3" font-family="Helvetica,sans-Serif" font-size="11.00" fill="#000000">Generated by SchemaSpy</text>
<!-- event_sponsors -->
<g id="node1" class="node">
<title>event_sponsors</title>
<g id="a_node1"><a xlink:href="../../tables/event_sponsors.html" xlink:title="event_sponsors" target="_top">
<polygon fill="#ffffff" stroke="transparent" points="415.5,-325.2 415.5,-386.2 535.5,-386.2 535.5,-325.2 415.5,-325.2"/>
<polygon fill="#f5f5f5" stroke="transparent" points="415.5,-362.7 415.5,-385.7 535.5,-385.7 535.5,-362.7 415.5,-362.7"/>
<polygon fill="none" stroke="#000000" points="415.5,-362.7 415.5,-385.7 535.5,-385.7 535.5,-362.7 415.5,-362.7"/>
<text text-anchor="start" x="420.181" y="-371.8" font-family="Helvetica,sans-Serif" font-weight="bold" font-size="11.00" fill="#000000">event_sponsors</text>
<text text-anchor="start" x="501.0219" y="-370.8" font-family="Helvetica,sans-Serif" font-size="11.00" fill="#000000">[table]</text>
<polygon fill="none" stroke="#000000" points="415.5,-343.7 415.5,-362.7 535.5,-362.7 535.5,-343.7 415.5,-343.7"/>
<text text-anchor="start" x="418.5" y="-349.8" font-family="Helvetica,sans-Serif" font-size="11.00" fill="#000000">...</text>
<polygon fill="#ffffff" stroke="transparent" points="415.5,-324.7 415.5,-343.7 460.5,-343.7 460.5,-324.7 415.5,-324.7"/>
<polygon fill="none" stroke="#000000" points="415.5,-324.7 415.5,-343.7 460.5,-343.7 460.5,-324.7 415.5,-324.7"/>
<text text-anchor="start" x="418.5" y="-330.8" font-family="Helvetica,sans-Serif" font-size="11.00" fill="#000000">&lt; 2</text>
<polygon fill="#ffffff" stroke="transparent" points="460.5,-324.7 460.5,-343.7 510.5,-343.7 510.5,-324.7 460.5,-324.7"/>
<polygon fill="none" stroke="#000000" points="460.5,-324.7 460.5,-343.7 510.5,-343.7 510.5,-324.7 460.5,-324.7"/>
<text text-anchor="start" x="475.1105" y="-330.8" font-family="Helvetica,sans-Serif" font-size="11.00" fill="#000000">0 rows</text>
<polygon fill="#ffffff" stroke="transparent" points="510.5,-324.7 510.5,-343.7 535.5,-343.7 535.5,-324.7 510.5,-324.7"/>
<polygon fill="none" stroke="#000000" points="510.5,-324.7 510.5,-343.7 535.5,-343.7 535.5,-324.7 510.5,-324.7"/>
<text text-anchor="start" x="526.3862" y="-330.8" font-family="Helvetica,sans-Serif" font-size="11.00" fill="#000000"> &#160;</text>
</a>
</g>
</g>
<!-- events -->
<g id="node2" class="node">
<title>events</title>
<g id="a_node2"><a xlink:href="../../tables/events.html" xlink:title="events" target="_top">
<polygon fill="#ffffff" stroke="transparent" points="259,-137.2 259,-264.2 363,-264.2 363,-137.2 259,-137.2"/>
<polygon fill="#f5f5f5" stroke="transparent" points="259,-240.7 259,-263.7 363,-263.7 363,-240.7 259,-240.7"/>
<polygon fill="none" stroke="#000000" points="259,-240.7 259,-263.7 363,-263.7 363,-240.7 259,-240.7"/>
<text text-anchor="start" x="264" y="-249.8" font-family="Helvetica,sans-Serif" font-weight="bold" font-size="11.00" fill="#000000">events</text>
<text text-anchor="start" x="328.0437" y="-248.8" font-family="Helvetica,sans-Serif" font-size="11.00" fill="#000000">[table]</text>
<polygon fill="none" stroke="#000000" points="259,-218.7 259,-240.7 363,-240.7 363,-218.7 259,-218.7"/>
<image xlink:href="../../images/primaryKeys.png" width="11px" height="12px" preserveAspectRatio="xMinYMin meet" x="264" y="-235.7"/>
<text text-anchor="start" x="279" y="-225.8" font-family="Helvetica,sans-Serif" font-size="11.00" fill="#000000">id</text>
<polygon fill="none" stroke="#000000" points="259,-196.7 259,-218.7 363,-218.7 363,-196.7 259,-196.7"/>
<image xlink:href="../../images/foreignKeys.png" width="11px" height="12px" preserveAspectRatio="xMinYMin meet" x="264" y="-213.7"/>
<text text-anchor="start" x="279" y="-203.8" font-family="Helvetica,sans-Serif" font-size="11.00" fill="#000000">venue_id</text>
<polygon fill="none" stroke="#000000" points="259,-174.7 259,-196.7 363,-196.7 363,-174.7 259,-174.7"/>
<image xlink:href="../../images/foreignKeys.png" width="11px" height="12px" preserveAspectRatio="xMinYMin meet" x="264" y="-191.7"/>
<text text-anchor="start" x="279" y="-181.8" font-family="Helvetica,sans-Serif" font-size="11.00" fill="#000000">chapter_id</text>
<polygon fill="none" stroke="#000000" points="259,-155.7 259,-174.7 363,-174.7 363,-155.7 259,-155.7"/>
<text text-anchor="start" x="262" y="-161.8" font-family="Helvetica,sans-Serif" font-size="11.00" fill="#000000">...</text>
<polygon fill="#ffffff" stroke="transparent" points="259,-136.7 259,-155.7 292,-155.7 292,-136.7 259,-136.7"/>
<polygon fill="none" stroke="#000000" points="259,-136.7 259,-155.7 292,-155.7 292,-136.7 259,-136.7"/>
<text text-anchor="start" x="262" y="-142.8" font-family="Helvetica,sans-Serif" font-size="11.00" fill="#000000">&lt; 2</text>
<polygon fill="#ffffff" stroke="transparent" points="292,-136.7 292,-155.7 336,-155.7 336,-136.7 292,-136.7"/>
<polygon fill="none" stroke="#000000" points="292,-136.7 292,-155.7 336,-155.7 336,-136.7 292,-136.7"/>
<text text-anchor="start" x="300.6105" y="-142.8" font-family="Helvetica,sans-Serif" font-size="11.00" fill="#000000">0 rows</text>
<polygon fill="#ffffff" stroke="transparent" points="336,-136.7 336,-155.7 363,-155.7 363,-136.7 336,-136.7"/>
<polygon fill="none" stroke="#000000" points="336,-136.7 336,-155.7 363,-155.7 363,-136.7 336,-136.7"/>
<text text-anchor="start" x="344.4053" y="-142.8" font-family="Helvetica,sans-Serif" font-size="11.00" fill="#000000">4 &gt;</text>
</a>
</g>
</g>
<!-- event_sponsors&#45;&gt;events -->
<g id="edge1" class="edge">
<title>event_sponsors:w&#45;&gt;events:e</title>
<path fill="none" stroke="#000000" d="M401.4517,-349.41C367.8261,-329.8496 416.6336,-229.7 363,-229.7"/>
<polygon fill="#000000" stroke="#000000" points="407.7107,-350.8758 414.6791,-356.2052 411.6054,-351.7879 415.5,-352.7 415.5,-352.7 415.5,-352.7 411.6054,-351.7879 416.3209,-349.1948 407.7107,-350.8758 407.7107,-350.8758"/>
<ellipse fill="none" stroke="#000000" cx="404.595" cy="-350.1461" rx="3.2" ry="3.2"/>
</g>
<!-- chapters -->
<g id="node3" class="node">
<title>chapters</title>
<g id="a_node3"><a xlink:href="../../tables/chapters.html" xlink:title="chapters" target="_top">
<polygon fill="#ffffff" stroke="transparent" points="66.5,-38.2 66.5,-99.2 151.5,-99.2 151.5,-38.2 66.5,-38.2"/>
<polygon fill="#f5f5f5" stroke="transparent" points="67,-75.7 67,-98.7 152,-98.7 152,-75.7 67,-75.7"/>
<polygon fill="none" stroke="#000000" points="67,-75.7 67,-98.7 152,-98.7 152,-75.7 67,-75.7"/>
<text text-anchor="start" x="71.9108" y="-84.8" font-family="Helvetica,sans-Serif" font-weight="bold" font-size="11.00" fill="#000000">chapters</text>
<text text-anchor="start" x="117.5219" y="-83.8" font-family="Helvetica,sans-Serif" font-size="11.00" fill="#000000">[table]</text>
<polygon fill="none" stroke="#000000" points="67,-56.7 67,-75.7 152,-75.7 152,-56.7 67,-56.7"/>
<text text-anchor="start" x="70" y="-62.8" font-family="Helvetica,sans-Serif" font-size="11.00" fill="#000000">...</text>
<polygon fill="#ffffff" stroke="transparent" points="67,-37.7 67,-56.7 86,-56.7 86,-37.7 67,-37.7"/>
<polygon fill="none" stroke="#000000" points="67,-37.7 67,-56.7 86,-56.7 86,-37.7 67,-37.7"/>
<text text-anchor="start" x="70" y="-43.8" font-family="Helvetica,sans-Serif" font-size="11.00" fill="#000000"> &#160;</text>
<polygon fill="#ffffff" stroke="transparent" points="86,-37.7 86,-56.7 127,-56.7 127,-37.7 86,-37.7"/>
<polygon fill="none" stroke="#000000" points="86,-37.7 86,-56.7 127,-56.7 127,-37.7 86,-37.7"/>
<text text-anchor="start" x="91.6105" y="-43.8" font-family="Helvetica,sans-Serif" font-size="11.00" fill="#000000">0 rows</text>
<polygon fill="#ffffff" stroke="transparent" points="127,-37.7 127,-56.7 152,-56.7 152,-37.7 127,-37.7"/>
<polygon fill="none" stroke="#000000" points="127,-37.7 127,-56.7 152,-56.7 152,-37.7 127,-37.7"/>
<text text-anchor="start" x="133.4053" y="-43.8" font-family="Helvetica,sans-Serif" font-size="11.00" fill="#000000">3 &gt;</text>
</a>
</g>
</g>
<!-- events&#45;&gt;chapters -->
<g id="edge2" class="edge">
<title>events:w&#45;&gt;chapters:e</title>
<path fill="none" stroke="#000000" d="M244.7077,-182.2062C227.1019,-170.83 239.3267,-134.2295 218,-110.7 194.1573,-84.3946 187.5027,-65.7 152,-65.7"/>
<polygon fill="#000000" stroke="#000000" points="251.2288,-183.8003 258.1451,-189.197 255.1144,-184.7501 259,-185.7 259,-185.7 259,-185.7 255.1144,-184.7501 259.8549,-182.203 251.2288,-183.8003 251.2288,-183.8003"/>
<ellipse fill="none" stroke="#000000" cx="248.1204" cy="-183.0404" rx="3.2" ry="3.2"/>
</g>
<!-- venues -->
<g id="node4" class="node">
<title>venues</title>
<g id="a_node4"><a xlink:href="../../tables/venues.html" xlink:title="venues" target="_top">
<polygon fill="#ffffff" stroke="transparent" points="8,-120.7 8,-408.7 210,-408.7 210,-120.7 8,-120.7"/>
<polygon fill="#f5f5f5" stroke="transparent" points="10,-383.7 10,-406.7 208,-406.7 208,-383.7 10,-383.7"/>
<polygon fill="none" stroke="#000000" points="10,-383.7 10,-406.7 208,-406.7 208,-383.7 10,-383.7"/>
<text text-anchor="start" x="15" y="-392.8" font-family="Helvetica,sans-Serif" font-weight="bold" font-size="11.00" fill="#000000">venues</text>
<text text-anchor="start" x="173.0437" y="-391.8" font-family="Helvetica,sans-Serif" font-size="11.00" fill="#000000">[table]</text>
<polygon fill="none" stroke="#000000" points="10,-361.7 10,-383.7 118,-383.7 118,-361.7 10,-361.7"/>
<text text-anchor="start" x="30" y="-368.8" font-family="Helvetica,sans-Serif" font-size="11.00" fill="#000000">created_at</text>
<polygon fill="none" stroke="#000000" points="118,-361.7 118,-383.7 208,-383.7 208,-361.7 118,-361.7"/>
<text text-anchor="start" x="121" y="-369.4" font-family="Helvetica,sans-Serif" font-size="11.00" fill="#000000">timestamp[26,3]</text>
<polygon fill="none" stroke="#000000" points="10,-339.7 10,-361.7 118,-361.7 118,-339.7 10,-339.7"/>
<text text-anchor="start" x="30" y="-346.8" font-family="Helvetica,sans-Serif" font-size="11.00" fill="#000000">updated_at</text>
<polygon fill="none" stroke="#000000" points="118,-339.7 118,-361.7 208,-361.7 208,-339.7 118,-339.7"/>
<text text-anchor="start" x="121" y="-347.4" font-family="Helvetica,sans-Serif" font-size="11.00" fill="#000000">timestamp[26,3]</text>
<polygon fill="none" stroke="#000000" points="10,-317.7 10,-339.7 118,-339.7 118,-317.7 10,-317.7"/>
<image xlink:href="../../images/primaryKeys.png" width="11px" height="12px" preserveAspectRatio="xMinYMin meet" x="15" y="-334.7"/>
<text text-anchor="start" x="30" y="-324.8" font-family="Helvetica,sans-Serif" font-size="11.00" fill="#000000">id</text>
<polygon fill="none" stroke="#000000" points="118,-317.7 118,-339.7 208,-339.7 208,-317.7 118,-317.7"/>
<text text-anchor="start" x="121" y="-325.4" font-family="Helvetica,sans-Serif" font-size="11.00" fill="#000000">serial[10]</text>
<polygon fill="none" stroke="#000000" points="10,-295.7 10,-317.7 118,-317.7 118,-295.7 10,-295.7"/>
<text text-anchor="start" x="30" y="-302.8" font-family="Helvetica,sans-Serif" font-size="11.00" fill="#000000">name</text>
<polygon fill="none" stroke="#000000" points="118,-295.7 118,-317.7 208,-317.7 208,-295.7 118,-295.7"/>
<text text-anchor="start" x="120.5042" y="-303.4" font-family="Helvetica,sans-Serif" font-size="11.00" fill="#000000">text[2147483647]</text>
<polygon fill="none" stroke="#000000" points="10,-273.7 10,-295.7 118,-295.7 118,-273.7 10,-273.7"/>
<text text-anchor="start" x="30" y="-280.8" font-family="Helvetica,sans-Serif" font-size="11.00" fill="#000000">street_address</text>
<polygon fill="none" stroke="#000000" points="118,-273.7 118,-295.7 208,-295.7 208,-273.7 118,-273.7"/>
<text text-anchor="start" x="120.5042" y="-281.4" font-family="Helvetica,sans-Serif" font-size="11.00" fill="#000000">text[2147483647]</text>
<polygon fill="none" stroke="#000000" points="10,-251.7 10,-273.7 118,-273.7 118,-251.7 10,-251.7"/>
<text text-anchor="start" x="30" y="-258.8" font-family="Helvetica,sans-Serif" font-size="11.00" fill="#000000">city</text>
<polygon fill="none" stroke="#000000" points="118,-251.7 118,-273.7 208,-273.7 208,-251.7 118,-251.7"/>
<text text-anchor="start" x="120.5042" y="-259.4" font-family="Helvetica,sans-Serif" font-size="11.00" fill="#000000">text[2147483647]</text>
<polygon fill="none" stroke="#000000" points="10,-229.7 10,-251.7 118,-251.7 118,-229.7 10,-229.7"/>
<text text-anchor="start" x="30" y="-236.8" font-family="Helvetica,sans-Serif" font-size="11.00" fill="#000000">postal_code</text>
<polygon fill="none" stroke="#000000" points="118,-229.7 118,-251.7 208,-251.7 208,-229.7 118,-229.7"/>
<text text-anchor="start" x="120.5042" y="-237.4" font-family="Helvetica,sans-Serif" font-size="11.00" fill="#000000">text[2147483647]</text>
<polygon fill="none" stroke="#000000" points="10,-207.7 10,-229.7 118,-229.7 118,-207.7 10,-207.7"/>
<text text-anchor="start" x="30" y="-214.8" font-family="Helvetica,sans-Serif" font-size="11.00" fill="#000000">region</text>
<polygon fill="none" stroke="#000000" points="118,-207.7 118,-229.7 208,-229.7 208,-207.7 118,-207.7"/>
<text text-anchor="start" x="120.5042" y="-215.4" font-family="Helvetica,sans-Serif" font-size="11.00" fill="#000000">text[2147483647]</text>
<polygon fill="none" stroke="#000000" points="10,-185.7 10,-207.7 118,-207.7 118,-185.7 10,-185.7"/>
<text text-anchor="start" x="30" y="-192.8" font-family="Helvetica,sans-Serif" font-size="11.00" fill="#000000">country</text>
<polygon fill="none" stroke="#000000" points="118,-185.7 118,-207.7 208,-207.7 208,-185.7 118,-185.7"/>
<text text-anchor="start" x="120.5042" y="-193.4" font-family="Helvetica,sans-Serif" font-size="11.00" fill="#000000">text[2147483647]</text>
<polygon fill="none" stroke="#000000" points="10,-163.7 10,-185.7 118,-185.7 118,-163.7 10,-163.7"/>
<text text-anchor="start" x="30" y="-170.8" font-family="Helvetica,sans-Serif" font-size="11.00" fill="#000000">latitude</text>
<polygon fill="none" stroke="#000000" points="118,-163.7 118,-185.7 208,-185.7 208,-163.7 118,-163.7"/>
<text text-anchor="start" x="121" y="-171.4" font-family="Helvetica,sans-Serif" font-size="11.00" fill="#000000">float8[17,17]</text>
<polygon fill="none" stroke="#000000" points="10,-141.7 10,-163.7 118,-163.7 118,-141.7 10,-141.7"/>
<text text-anchor="start" x="30" y="-148.8" font-family="Helvetica,sans-Serif" font-size="11.00" fill="#000000">longitude</text>
<polygon fill="none" stroke="#000000" points="118,-141.7 118,-163.7 208,-163.7 208,-141.7 118,-141.7"/>
<text text-anchor="start" x="121" y="-149.4" font-family="Helvetica,sans-Serif" font-size="11.00" fill="#000000">float8[17,17]</text>
<polygon fill="#ffffff" stroke="transparent" points="10,-122.7 10,-141.7 55,-141.7 55,-122.7 10,-122.7"/>
<polygon fill="none" stroke="#000000" points="10,-122.7 10,-141.7 55,-141.7 55,-122.7 10,-122.7"/>
<text text-anchor="start" x="13" y="-128.8" font-family="Helvetica,sans-Serif" font-size="11.00" fill="#000000">&lt; 0</text>
<polygon fill="#ffffff" stroke="transparent" points="55,-122.7 55,-141.7 118,-141.7 118,-122.7 55,-122.7"/>
<polygon fill="none" stroke="#000000" points="55,-122.7 55,-141.7 118,-141.7 118,-122.7 55,-122.7"/>
<text text-anchor="start" x="82.6105" y="-128.8" font-family="Helvetica,sans-Serif" font-size="11.00" fill="#000000">0 rows</text>
<polygon fill="#ffffff" stroke="transparent" points="118,-122.7 118,-141.7 208,-141.7 208,-122.7 118,-122.7"/>
<polygon fill="none" stroke="#000000" points="118,-122.7 118,-141.7 208,-141.7 208,-122.7 118,-122.7"/>
<text text-anchor="start" x="189.4053" y="-128.8" font-family="Helvetica,sans-Serif" font-size="11.00" fill="#000000">1 &gt;</text>
<polygon fill="none" stroke="#000000" stroke-width="2" points="9,-121.7 9,-407.7 209,-407.7 209,-121.7 9,-121.7"/>
</a>
</g>
</g>
<!-- events&#45;&gt;venues -->
<g id="edge3" class="edge">
<title>events:w&#45;&gt;venues:e</title>
<path fill="none" stroke="#000000" d="M244.7982,-211.1908C212.7098,-231.03 260.4323,-328.7 208,-328.7"/>
<polygon fill="#000000" stroke="#000000" points="251.2312,-209.6096 259.8593,-211.1959 255.1156,-208.6548 259,-207.7 259,-207.7 259,-207.7 255.1156,-208.6548 258.1407,-204.2041 251.2312,-209.6096 251.2312,-209.6096"/>
<ellipse fill="none" stroke="#000000" cx="248.1237" cy="-210.3734" rx="3.2" ry="3.2"/>
</g>
<!-- rsvps -->
<g id="node5" class="node">
<title>rsvps</title>
<g id="a_node5"><a xlink:href="../../tables/rsvps.html" xlink:title="rsvps" target="_top">
<polygon fill="#ffffff" stroke="transparent" points="440,-243.2 440,-304.2 511,-304.2 511,-243.2 440,-243.2"/>
<polygon fill="#f5f5f5" stroke="transparent" points="440.5,-280.7 440.5,-303.7 511.5,-303.7 511.5,-280.7 440.5,-280.7"/>
<polygon fill="none" stroke="#000000" points="440.5,-280.7 440.5,-303.7 511.5,-303.7 511.5,-280.7 440.5,-280.7"/>
<text text-anchor="start" x="445.5" y="-289.8" font-family="Helvetica,sans-Serif" font-weight="bold" font-size="11.00" fill="#000000">rsvps</text>
<text text-anchor="start" x="476.5437" y="-288.8" font-family="Helvetica,sans-Serif" font-size="11.00" fill="#000000">[table]</text>
<polygon fill="none" stroke="#000000" points="440.5,-261.7 440.5,-280.7 511.5,-280.7 511.5,-261.7 440.5,-261.7"/>
<text text-anchor="start" x="443.5" y="-267.8" font-family="Helvetica,sans-Serif" font-size="11.00" fill="#000000">...</text>
<polygon fill="#ffffff" stroke="transparent" points="440.5,-242.7 440.5,-261.7 461.5,-261.7 461.5,-242.7 440.5,-242.7"/>
<polygon fill="none" stroke="#000000" points="440.5,-242.7 440.5,-261.7 461.5,-261.7 461.5,-242.7 440.5,-242.7"/>
<text text-anchor="start" x="443.2027" y="-248.8" font-family="Helvetica,sans-Serif" font-size="11.00" fill="#000000">&lt; 2</text>
<polygon fill="#ffffff" stroke="transparent" points="461.5,-242.7 461.5,-261.7 499.5,-261.7 499.5,-242.7 461.5,-242.7"/>
<polygon fill="none" stroke="#000000" points="461.5,-242.7 461.5,-261.7 499.5,-261.7 499.5,-242.7 461.5,-242.7"/>
<text text-anchor="start" x="464.3053" y="-248.8" font-family="Helvetica,sans-Serif" font-size="11.00" fill="#000000">0 rows</text>
<polygon fill="#ffffff" stroke="transparent" points="499.5,-242.7 499.5,-261.7 511.5,-261.7 511.5,-242.7 499.5,-242.7"/>
<polygon fill="none" stroke="#000000" points="499.5,-242.7 499.5,-261.7 511.5,-261.7 511.5,-242.7 499.5,-242.7"/>
<text text-anchor="start" x="502.4431" y="-248.8" font-family="Helvetica,sans-Serif" font-size="11.00" fill="#000000"> &#160;</text>
</a>
</g>
</g>
<!-- rsvps&#45;&gt;events -->
<g id="edge4" class="edge">
<title>rsvps:w&#45;&gt;events:e</title>
<path fill="none" stroke="#000000" d="M426.179,-268.4957C400.8756,-259.9795 396.4877,-229.7 363,-229.7"/>
<polygon fill="#000000" stroke="#000000" points="432.5931,-269.4829 439.9523,-274.2581 436.5466,-270.0914 440.5,-270.7 440.5,-270.7 440.5,-270.7 436.5466,-270.0914 441.0477,-267.1419 432.5931,-269.4829 432.5931,-269.4829"/>
<ellipse fill="none" stroke="#000000" cx="429.4304" cy="-268.9961" rx="3.2" ry="3.2"/>
</g>
<!-- tags -->
<g id="node6" class="node">
<title>tags</title>
<g id="a_node6"><a xlink:href="../../tables/tags.html" xlink:title="tags" target="_top">
<polygon fill="#ffffff" stroke="transparent" points="440,-161.2 440,-222.2 511,-222.2 511,-161.2 440,-161.2"/>
<polygon fill="#f5f5f5" stroke="transparent" points="440.5,-198.7 440.5,-221.7 511.5,-221.7 511.5,-198.7 440.5,-198.7"/>
<polygon fill="none" stroke="#000000" points="440.5,-198.7 440.5,-221.7 511.5,-221.7 511.5,-198.7 440.5,-198.7"/>
<text text-anchor="start" x="445.5" y="-207.8" font-family="Helvetica,sans-Serif" font-weight="bold" font-size="11.00" fill="#000000">tags</text>
<text text-anchor="start" x="476.5437" y="-206.8" font-family="Helvetica,sans-Serif" font-size="11.00" fill="#000000">[table]</text>
<polygon fill="none" stroke="#000000" points="440.5,-179.7 440.5,-198.7 511.5,-198.7 511.5,-179.7 440.5,-179.7"/>
<text text-anchor="start" x="443.5" y="-185.8" font-family="Helvetica,sans-Serif" font-size="11.00" fill="#000000">...</text>
<polygon fill="#ffffff" stroke="transparent" points="440.5,-160.7 440.5,-179.7 461.5,-179.7 461.5,-160.7 440.5,-160.7"/>
<polygon fill="none" stroke="#000000" points="440.5,-160.7 440.5,-179.7 461.5,-179.7 461.5,-160.7 440.5,-160.7"/>
<text text-anchor="start" x="443.2027" y="-166.8" font-family="Helvetica,sans-Serif" font-size="11.00" fill="#000000">&lt; 1</text>
<polygon fill="#ffffff" stroke="transparent" points="461.5,-160.7 461.5,-179.7 499.5,-179.7 499.5,-160.7 461.5,-160.7"/>
<polygon fill="none" stroke="#000000" points="461.5,-160.7 461.5,-179.7 499.5,-179.7 499.5,-160.7 461.5,-160.7"/>
<text text-anchor="start" x="464.3053" y="-166.8" font-family="Helvetica,sans-Serif" font-size="11.00" fill="#000000">0 rows</text>
<polygon fill="#ffffff" stroke="transparent" points="499.5,-160.7 499.5,-179.7 511.5,-179.7 511.5,-160.7 499.5,-160.7"/>
<polygon fill="none" stroke="#000000" points="499.5,-160.7 499.5,-179.7 511.5,-179.7 511.5,-160.7 499.5,-160.7"/>
<text text-anchor="start" x="502.4431" y="-166.8" font-family="Helvetica,sans-Serif" font-size="11.00" fill="#000000"> &#160;</text>
</a>
</g>
</g>
<!-- tags&#45;&gt;events -->
<g id="edge5" class="edge">
<title>tags:w&#45;&gt;events:e</title>
<path fill="none" stroke="#000000" d="M426.179,-190.9043C400.8756,-199.4205 396.4877,-229.7 363,-229.7"/>
<polygon fill="#000000" stroke="#000000" points="432.5931,-189.9171 441.0477,-192.2581 436.5466,-189.3086 440.5,-188.7 440.5,-188.7 440.5,-188.7 436.5466,-189.3086 439.9523,-185.1419 432.5931,-189.9171 432.5931,-189.9171"/>
<ellipse fill="none" stroke="#000000" cx="429.4304" cy="-190.4039" rx="3.2" ry="3.2"/>
</g>
<!-- user_event_roles -->
<g id="node7" class="node">
<title>user_event_roles</title>
<g id="a_node7"><a xlink:href="../../tables/user_event_roles.html" xlink:title="user_event_roles" target="_top">
<polygon fill="#ffffff" stroke="transparent" points="412,-79.2 412,-140.2 539,-140.2 539,-79.2 412,-79.2"/>
<polygon fill="#f5f5f5" stroke="transparent" points="412.5,-116.7 412.5,-139.7 539.5,-139.7 539.5,-116.7 412.5,-116.7"/>
<polygon fill="none" stroke="#000000" points="412.5,-116.7 412.5,-139.7 539.5,-139.7 539.5,-116.7 412.5,-116.7"/>
<text text-anchor="start" x="417.3222" y="-125.8" font-family="Helvetica,sans-Serif" font-weight="bold" font-size="11.00" fill="#000000">user_event_roles</text>
<text text-anchor="start" x="505.0219" y="-124.8" font-family="Helvetica,sans-Serif" font-size="11.00" fill="#000000">[table]</text>
<polygon fill="none" stroke="#000000" points="412.5,-97.7 412.5,-116.7 539.5,-116.7 539.5,-97.7 412.5,-97.7"/>
<text text-anchor="start" x="415.5" y="-103.8" font-family="Helvetica,sans-Serif" font-size="11.00" fill="#000000">...</text>
<polygon fill="#ffffff" stroke="transparent" points="412.5,-78.7 412.5,-97.7 461.5,-97.7 461.5,-78.7 412.5,-78.7"/>
<polygon fill="none" stroke="#000000" points="412.5,-78.7 412.5,-97.7 461.5,-97.7 461.5,-78.7 412.5,-78.7"/>
<text text-anchor="start" x="415.5" y="-84.8" font-family="Helvetica,sans-Serif" font-size="11.00" fill="#000000">&lt; 2</text>
<polygon fill="#ffffff" stroke="transparent" points="461.5,-78.7 461.5,-97.7 513.5,-97.7 513.5,-78.7 461.5,-78.7"/>
<polygon fill="none" stroke="#000000" points="461.5,-78.7 461.5,-97.7 513.5,-97.7 513.5,-78.7 461.5,-78.7"/>
<text text-anchor="start" x="478.1105" y="-84.8" font-family="Helvetica,sans-Serif" font-size="11.00" fill="#000000">0 rows</text>
<polygon fill="#ffffff" stroke="transparent" points="513.5,-78.7 513.5,-97.7 539.5,-97.7 539.5,-78.7 513.5,-78.7"/>
<polygon fill="none" stroke="#000000" points="513.5,-78.7 513.5,-97.7 539.5,-97.7 539.5,-78.7 513.5,-78.7"/>
<text text-anchor="start" x="530.3862" y="-84.8" font-family="Helvetica,sans-Serif" font-size="11.00" fill="#000000"> &#160;</text>
</a>
</g>
</g>
<!-- user_event_roles&#45;&gt;events -->
<g id="edge6" class="edge">
<title>user_event_roles:w&#45;&gt;events:e</title>
<path fill="none" stroke="#000000" d="M398.2176,-110.2485C366.1442,-130.4156 415.9426,-229.7 363,-229.7"/>
<polygon fill="#000000" stroke="#000000" points="404.736,-108.629 413.3681,-110.1938 408.618,-107.6645 412.5,-106.7 412.5,-106.7 412.5,-106.7 408.618,-107.6645 411.6319,-103.2062 404.736,-108.629 404.736,-108.629"/>
<ellipse fill="none" stroke="#000000" cx="401.6305" cy="-109.4006" rx="3.2" ry="3.2"/>
</g>
</g>
</svg>
