<?xml version="1.0" encoding="UTF-8" standalone="no"?>
<!DOCTYPE svg PUBLIC "-//W3C//DTD SVG 1.1//EN"
 "http://www.w3.org/Graphics/SVG/1.1/DTD/svg11.dtd">
<!-- Generated by graphviz version 2.40.1 (20161225.0304)
 -->
<!-- Title: _prisma_migrations Pages: 1 -->
<svg width="261pt" height="238pt"
 viewBox="0.00 0.00 261.00 238.00" xmlns="http://www.w3.org/2000/svg" xmlns:xlink="http://www.w3.org/1999/xlink">
<g id="graph0" class="graph" transform="scale(1 1) rotate(0) translate(4 234)">
<title>_prisma_migrations</title>
<polygon fill="#ffffff" stroke="transparent" points="-4,4 -4,-234 257,-234 257,4 -4,4"/>
<!-- _prisma_migrations -->
<g id="node1" class="node">
<title>_prisma_migrations</title>
<g id="a_node1"><a xlink:href="../../tables/_prisma_migrations.html" xlink:title="_prisma_migrations" target="_top">
<polygon fill="#ffffff" stroke="transparent" points="8,-4 8,-226 245,-226 245,-4 8,-4"/>
<polygon fill="#f5f5f5" stroke="transparent" points="10.5,-201 10.5,-224 243.5,-224 243.5,-201 10.5,-201"/>
<polygon fill="none" stroke="#000000" points="10.5,-201 10.5,-224 243.5,-224 243.5,-201 10.5,-201"/>
<text text-anchor="start" x="15.5" y="-210.1" font-family="Helvetica,sans-Serif" font-weight="bold" font-size="11.00" fill="#000000">_prisma_migrations</text>
<text text-anchor="start" x="208.5437" y="-209.1" font-family="Helvetica,sans-Serif" font-size="11.00" fill="#000000">[table]</text>
<polygon fill="none" stroke="#000000" points="10.5,-179 10.5,-201 151.5,-201 151.5,-179 10.5,-179"/>
<image xlink:href="../../images/primaryKeys.png" width="11px" height="12px" preserveAspectRatio="xMinYMin meet" x="15.5" y="-196"/>
<text text-anchor="start" x="30.5" y="-186.1" font-family="Helvetica,sans-Serif" font-size="11.00" fill="#000000">id</text>
<polygon fill="none" stroke="#000000" points="151.5,-179 151.5,-201 243.5,-201 243.5,-179 151.5,-179"/>
<text text-anchor="start" x="154.5" y="-186.7" font-family="Helvetica,sans-Serif" font-size="11.00" fill="#000000">varchar[36]</text>
<polygon fill="none" stroke="#000000" points="10.5,-157 10.5,-179 151.5,-179 151.5,-157 10.5,-157"/>
<text text-anchor="start" x="30.5" y="-164.1" font-family="Helvetica,sans-Serif" font-size="11.00" fill="#000000">checksum</text>
<polygon fill="none" stroke="#000000" points="151.5,-157 151.5,-179 243.5,-179 243.5,-157 151.5,-157"/>
<text text-anchor="start" x="154.5" y="-164.7" font-family="Helvetica,sans-Serif" font-size="11.00" fill="#000000">varchar[64]</text>
<polygon fill="none" stroke="#000000" points="10.5,-135 10.5,-157 151.5,-157 151.5,-135 10.5,-135"/>
<text text-anchor="start" x="30.5" y="-142.1" font-family="Helvetica,sans-Serif" font-size="11.00" fill="#000000">finished_at</text>
<polygon fill="none" stroke="#000000" points="151.5,-135 151.5,-157 243.5,-157 243.5,-135 151.5,-135"/>
<text text-anchor="start" x="154.1023" y="-142.7" font-family="Helvetica,sans-Serif" font-size="11.00" fill="#000000">timestamptz[35,6]</text>
<polygon fill="none" stroke="#000000" points="10.5,-113 10.5,-135 151.5,-135 151.5,-113 10.5,-113"/>
<text text-anchor="start" x="30.5" y="-120.1" font-family="Helvetica,sans-Serif" font-size="11.00" fill="#000000">migration_name</text>
<polygon fill="none" stroke="#000000" points="151.5,-113 151.5,-135 243.5,-135 243.5,-113 151.5,-113"/>
<text text-anchor="start" x="154.5" y="-120.7" font-family="Helvetica,sans-Serif" font-size="11.00" fill="#000000">varchar[255]</text>
<polygon fill="none" stroke="#000000" points="10.5,-91 10.5,-113 151.5,-113 151.5,-91 10.5,-91"/>
<text text-anchor="start" x="30.5" y="-98.1" font-family="Helvetica,sans-Serif" font-size="11.00" fill="#000000">logs</text>
<polygon fill="none" stroke="#000000" points="151.5,-91 151.5,-113 243.5,-113 243.5,-91 151.5,-91"/>
<text text-anchor="start" x="154.5" y="-98.7" font-family="Helvetica,sans-Serif" font-size="11.00" fill="#000000">text[2147483647]</text>
<polygon fill="none" stroke="#000000" points="10.5,-69 10.5,-91 151.5,-91 151.5,-69 10.5,-69"/>
<text text-anchor="start" x="30.5" y="-76.1" font-family="Helvetica,sans-Serif" font-size="11.00" fill="#000000">rolled_back_at</text>
<polygon fill="none" stroke="#000000" points="151.5,-69 151.5,-91 243.5,-91 243.5,-69 151.5,-69"/>
<text text-anchor="start" x="154.1023" y="-76.7" font-family="Helvetica,sans-Serif" font-size="11.00" fill="#000000">timestamptz[35,6]</text>
<polygon fill="none" stroke="#000000" points="10.5,-47 10.5,-69 151.5,-69 151.5,-47 10.5,-47"/>
<text text-anchor="start" x="30.5" y="-54.1" font-family="Helvetica,sans-Serif" font-size="11.00" fill="#000000">started_at</text>
<polygon fill="none" stroke="#000000" points="151.5,-47 151.5,-69 243.5,-69 243.5,-47 151.5,-47"/>
<text text-anchor="start" x="154.1023" y="-54.7" font-family="Helvetica,sans-Serif" font-size="11.00" fill="#000000">timestamptz[35,6]</text>
<polygon fill="none" stroke="#000000" points="10.5,-25 10.5,-47 151.5,-47 151.5,-25 10.5,-25"/>
<text text-anchor="start" x="30.5" y="-32.1" font-family="Helvetica,sans-Serif" font-size="11.00" fill="#000000">applied_steps_count</text>
<polygon fill="none" stroke="#000000" points="151.5,-25 151.5,-47 243.5,-47 243.5,-25 151.5,-25"/>
<text text-anchor="start" x="154.5" y="-32.7" font-family="Helvetica,sans-Serif" font-size="11.00" fill="#000000">int4[10]</text>
<polygon fill="#ffffff" stroke="transparent" points="10.5,-6 10.5,-25 72.5,-25 72.5,-6 10.5,-6"/>
<polygon fill="none" stroke="#000000" points="10.5,-6 10.5,-25 72.5,-25 72.5,-6 10.5,-6"/>
<text text-anchor="start" x="13.5" y="-12.1" font-family="Helvetica,sans-Serif" font-size="11.00" fill="#000000">&lt; 0</text>
<polygon fill="#ffffff" stroke="transparent" points="72.5,-6 72.5,-25 151.5,-25 151.5,-6 72.5,-6"/>
<polygon fill="none" stroke="#000000" points="72.5,-6 72.5,-25 151.5,-25 151.5,-6 72.5,-6"/>
<text text-anchor="start" x="116.1105" y="-12.1" font-family="Helvetica,sans-Serif" font-size="11.00" fill="#000000">5 rows</text>
<polygon fill="#ffffff" stroke="transparent" points="151.5,-6 151.5,-25 243.5,-25 243.5,-6 151.5,-6"/>
<polygon fill="none" stroke="#000000" points="151.5,-6 151.5,-25 243.5,-25 243.5,-6 151.5,-6"/>
<text text-anchor="start" x="224.9053" y="-12.1" font-family="Helvetica,sans-Serif" font-size="11.00" fill="#000000">0 &gt;</text>
<polygon fill="none" stroke="#000000" stroke-width="2" points="9,-5 9,-225 244,-225 244,-5 9,-5"/>
</a>
</g>
</g>
</g>
</svg>
