<?xml version="1.0" encoding="UTF-8" standalone="no"?>
<!DOCTYPE svg PUBLIC "-//W3C//DTD SVG 1.1//EN"
 "http://www.w3.org/Graphics/SVG/1.1/DTD/svg11.dtd">
<!-- Generated by graphviz version 2.40.1 (20161225.0304)
 -->
<!-- Title: google_tokens Pages: 1 -->
<svg width="224pt" height="172pt"
 viewBox="0.00 0.00 224.00 172.00" xmlns="http://www.w3.org/2000/svg" xmlns:xlink="http://www.w3.org/1999/xlink">
<g id="graph0" class="graph" transform="scale(1 1) rotate(0) translate(4 168)">
<title>google_tokens</title>
<polygon fill="#ffffff" stroke="transparent" points="-4,4 -4,-168 220,-168 220,4 -4,4"/>
<!-- google_tokens -->
<g id="node1" class="node">
<title>google_tokens</title>
<g id="a_node1"><a xlink:href="../../tables/google_tokens.html" xlink:title="google_tokens" target="_top">
<polygon fill="#ffffff" stroke="transparent" points="8,-4 8,-160 208,-160 208,-4 8,-4"/>
<polygon fill="#f5f5f5" stroke="transparent" points="10,-135 10,-158 206,-158 206,-135 10,-135"/>
<polygon fill="none" stroke="#000000" points="10,-135 10,-158 206,-158 206,-135 10,-135"/>
<text text-anchor="start" x="15" y="-144.1" font-family="Helvetica,sans-Serif" font-weight="bold" font-size="11.00" fill="#000000">google_tokens</text>
<text text-anchor="start" x="171.0437" y="-143.1" font-family="Helvetica,sans-Serif" font-size="11.00" fill="#000000">[table]</text>
<polygon fill="none" stroke="#000000" points="10,-113 10,-135 116,-135 116,-113 10,-113"/>
<image xlink:href="../../images/primaryKeys.png" width="11px" height="12px" preserveAspectRatio="xMinYMin meet" x="15" y="-130"/>
<text text-anchor="start" x="30" y="-120.1" font-family="Helvetica,sans-Serif" font-size="11.00" fill="#000000">id</text>
<polygon fill="none" stroke="#000000" points="116,-113 116,-135 206,-135 206,-113 116,-113"/>
<text text-anchor="start" x="119" y="-120.7" font-family="Helvetica,sans-Serif" font-size="11.00" fill="#000000">serial[10]</text>
<polygon fill="#ffffff" stroke="transparent" points="10,-91 10,-113 116,-113 116,-91 10,-91"/>
<polygon fill="none" stroke="#000000" points="10,-91 10,-113 116,-113 116,-91 10,-91"/>
<text text-anchor="start" x="30" y="-98.1" font-family="Helvetica,sans-Serif" font-size="11.00" fill="#000000">email</text>
<polygon fill="none" stroke="#000000" points="116,-91 116,-113 206,-113 206,-91 116,-91"/>
<text text-anchor="start" x="118.5042" y="-98.7" font-family="Helvetica,sans-Serif" font-size="11.00" fill="#000000">text[2147483647]</text>
<polygon fill="none" stroke="#000000" points="10,-69 10,-91 116,-91 116,-69 10,-69"/>
<text text-anchor="start" x="30" y="-76.1" font-family="Helvetica,sans-Serif" font-size="11.00" fill="#000000">access_token</text>
<polygon fill="none" stroke="#000000" points="116,-69 116,-91 206,-91 206,-69 116,-69"/>
<text text-anchor="start" x="118.5042" y="-76.7" font-family="Helvetica,sans-Serif" font-size="11.00" fill="#000000">text[2147483647]</text>
<polygon fill="none" stroke="#000000" points="10,-47 10,-69 116,-69 116,-47 10,-47"/>
<text text-anchor="start" x="30" y="-54.1" font-family="Helvetica,sans-Serif" font-size="11.00" fill="#000000">refresh_token</text>
<polygon fill="none" stroke="#000000" points="116,-47 116,-69 206,-69 206,-47 116,-47"/>
<text text-anchor="start" x="118.5042" y="-54.7" font-family="Helvetica,sans-Serif" font-size="11.00" fill="#000000">text[2147483647]</text>
<polygon fill="none" stroke="#000000" points="10,-25 10,-47 116,-47 116,-25 10,-25"/>
<text text-anchor="start" x="30" y="-32.1" font-family="Helvetica,sans-Serif" font-size="11.00" fill="#000000">expiry_date</text>
<polygon fill="none" stroke="#000000" points="116,-25 116,-47 206,-47 206,-25 116,-25"/>
<text text-anchor="start" x="119" y="-32.7" font-family="Helvetica,sans-Serif" font-size="11.00" fill="#000000">int8[19]</text>
<polygon fill="#ffffff" stroke="transparent" points="10,-6 10,-25 54,-25 54,-6 10,-6"/>
<polygon fill="none" stroke="#000000" points="10,-6 10,-25 54,-25 54,-6 10,-6"/>
<text text-anchor="start" x="13" y="-12.1" font-family="Helvetica,sans-Serif" font-size="11.00" fill="#000000">&lt; 0</text>
<polygon fill="#ffffff" stroke="transparent" points="54,-6 54,-25 116,-25 116,-6 54,-6"/>
<polygon fill="none" stroke="#000000" points="54,-6 54,-25 116,-25 116,-6 54,-6"/>
<text text-anchor="start" x="80.6105" y="-12.1" font-family="Helvetica,sans-Serif" font-size="11.00" fill="#000000">0 rows</text>
<polygon fill="#ffffff" stroke="transparent" points="116,-6 116,-25 206,-25 206,-6 116,-6"/>
<polygon fill="none" stroke="#000000" points="116,-6 116,-25 206,-25 206,-6 116,-6"/>
<text text-anchor="start" x="187.4053" y="-12.1" font-family="Helvetica,sans-Serif" font-size="11.00" fill="#000000">0 &gt;</text>
<polygon fill="none" stroke="#000000" stroke-width="2" points="9,-5 9,-159 207,-159 207,-5 9,-5"/>
</a>
</g>
</g>
</g>
</svg>
