<?xml version="1.0" encoding="UTF-8" standalone="no"?>
<!DOCTYPE svg PUBLIC "-//W3C//DTD SVG 1.1//EN"
 "http://www.w3.org/Graphics/SVG/1.1/DTD/svg11.dtd">
<!-- Generated by graphviz version 2.40.1 (20161225.0304)
 -->
<!-- Title: orphans Pages: 1 -->
<svg width="261pt" height="437pt"
 viewBox="0.00 0.00 261.00 437.00" xmlns="http://www.w3.org/2000/svg" xmlns:xlink="http://www.w3.org/1999/xlink">
<g id="graph0" class="graph" transform="scale(1 1) rotate(0) translate(4 433)">
<title>orphans</title>
<polygon fill="#ffffff" stroke="transparent" points="-4,4 -4,-433 257,-433 257,4 -4,4"/>
<!-- _prisma_migrations -->
<g id="node1" class="node">
<title>_prisma_migrations</title>
<g id="a_node1"><a xlink:href="../../tables/_prisma_migrations.html" xlink:title="_prisma_migrations" target="_top">
<polygon fill="#ffffff" stroke="transparent" points="8,-4 8,-226 245,-226 245,-4 8,-4"/>
<polygon fill="#f5f5f5" stroke="transparent" points="10.5,-201 10.5,-224 243.5,-224 243.5,-201 10.5,-201"/>
<polygon fill="none" stroke="#000000" points="10.5,-201 10.5,-224 243.5,-224 243.5,-201 10.5,-201"/>
<text text-anchor="start" x="15.5" y="-209.6" font-family="Helvetica,sans-Serif" font-weight="bold" font-size="11.00" fill="#000000">_prisma_migrations</text>
<text text-anchor="start" x="208.5437" y="-209.1" font-family="Helvetica,sans-Serif" font-size="11.00" fill="#000000">[table]</text>
<polygon fill="none" stroke="#000000" points="10.5,-179 10.5,-201 151.5,-201 151.5,-179 10.5,-179"/>
<image xlink:href="../../images/primaryKeys.png" width="11px" height="12px" preserveAspectRatio="xMinYMin meet" x="15.5" y="-196"/>
<text text-anchor="start" x="30.5" y="-186.1" font-family="Helvetica,sans-Serif" font-size="11.00" fill="#000000">id</text>
<polygon fill="none" stroke="#000000" points="151.5,-179 151.5,-201 243.5,-201 243.5,-179 151.5,-179"/>
<text text-anchor="start" x="154.5" y="-186.7" font-family="Helvetica,sans-Serif" font-size="11.00" fill="#000000">varchar[36]</text>
<polygon fill="none" stroke="#000000" points="10.5,-157 10.5,-179 151.5,-179 151.5,-157 10.5,-157"/>
<text text-anchor="start" x="30.5" y="-164.1" font-family="Helvetica,sans-Serif" font-size="11.00" fill="#000000">checksum</text>
<polygon fill="none" stroke="#000000" points="151.5,-157 151.5,-179 243.5,-179 243.5,-157 151.5,-157"/>
<text text-anchor="start" x="154.5" y="-164.7" font-family="Helvetica,sans-Serif" font-size="11.00" fill="#000000">varchar[64]</text>
<polygon fill="none" stroke="#000000" points="10.5,-135 10.5,-157 151.5,-157 151.5,-135 10.5,-135"/>
<text text-anchor="start" x="30.5" y="-142.1" font-family="Helvetica,sans-Serif" font-size="11.00" fill="#000000">finished_at</text>
<polygon fill="none" stroke="#000000" points="151.5,-135 151.5,-157 243.5,-157 243.5,-135 151.5,-135"/>
<text text-anchor="start" x="154.1023" y="-142.7" font-family="Helvetica,sans-Serif" font-size="11.00" fill="#000000">timestamptz[35,6]</text>
<polygon fill="none" stroke="#000000" points="10.5,-113 10.5,-135 151.5,-135 151.5,-113 10.5,-113"/>
<text text-anchor="start" x="30.5" y="-120.1" font-family="Helvetica,sans-Serif" font-size="11.00" fill="#000000">migration_name</text>
<polygon fill="none" stroke="#000000" points="151.5,-113 151.5,-135 243.5,-135 243.5,-113 151.5,-113"/>
<text text-anchor="start" x="154.5" y="-120.7" font-family="Helvetica,sans-Serif" font-size="11.00" fill="#000000">varchar[255]</text>
<polygon fill="none" stroke="#000000" points="10.5,-91 10.5,-113 151.5,-113 151.5,-91 10.5,-91"/>
<text text-anchor="start" x="30.5" y="-98.1" font-family="Helvetica,sans-Serif" font-size="11.00" fill="#000000">logs</text>
<polygon fill="none" stroke="#000000" points="151.5,-91 151.5,-113 243.5,-113 243.5,-91 151.5,-91"/>
<text text-anchor="start" x="154.5" y="-98.7" font-family="Helvetica,sans-Serif" font-size="11.00" fill="#000000">text[2147483647]</text>
<polygon fill="none" stroke="#000000" points="10.5,-69 10.5,-91 151.5,-91 151.5,-69 10.5,-69"/>
<text text-anchor="start" x="30.5" y="-76.1" font-family="Helvetica,sans-Serif" font-size="11.00" fill="#000000">rolled_back_at</text>
<polygon fill="none" stroke="#000000" points="151.5,-69 151.5,-91 243.5,-91 243.5,-69 151.5,-69"/>
<text text-anchor="start" x="154.1023" y="-76.7" font-family="Helvetica,sans-Serif" font-size="11.00" fill="#000000">timestamptz[35,6]</text>
<polygon fill="none" stroke="#000000" points="10.5,-47 10.5,-69 151.5,-69 151.5,-47 10.5,-47"/>
<text text-anchor="start" x="30.5" y="-54.1" font-family="Helvetica,sans-Serif" font-size="11.00" fill="#000000">started_at</text>
<polygon fill="none" stroke="#000000" points="151.5,-47 151.5,-69 243.5,-69 243.5,-47 151.5,-47"/>
<text text-anchor="start" x="154.1023" y="-54.7" font-family="Helvetica,sans-Serif" font-size="11.00" fill="#000000">timestamptz[35,6]</text>
<polygon fill="none" stroke="#000000" points="10.5,-25 10.5,-47 151.5,-47 151.5,-25 10.5,-25"/>
<text text-anchor="start" x="30.5" y="-32.1" font-family="Helvetica,sans-Serif" font-size="11.00" fill="#000000">applied_steps_count</text>
<polygon fill="none" stroke="#000000" points="151.5,-25 151.5,-47 243.5,-47 243.5,-25 151.5,-25"/>
<text text-anchor="start" x="154.5" y="-32.7" font-family="Helvetica,sans-Serif" font-size="11.00" fill="#000000">int4[10]</text>
<polygon fill="#ffffff" stroke="transparent" points="10.5,-6 10.5,-25 72.5,-25 72.5,-6 10.5,-6"/>
<polygon fill="none" stroke="#000000" points="10.5,-6 10.5,-25 72.5,-25 72.5,-6 10.5,-6"/>
<text text-anchor="start" x="13.5" y="-12.1" font-family="Helvetica,sans-Serif" font-size="11.00" fill="#000000">&lt; 0</text>
<polygon fill="#ffffff" stroke="transparent" points="72.5,-6 72.5,-25 151.5,-25 151.5,-6 72.5,-6"/>
<polygon fill="none" stroke="#000000" points="72.5,-6 72.5,-25 151.5,-25 151.5,-6 72.5,-6"/>
<text text-anchor="start" x="116.1105" y="-12.1" font-family="Helvetica,sans-Serif" font-size="11.00" fill="#000000">0 rows</text>
<polygon fill="#ffffff" stroke="transparent" points="151.5,-6 151.5,-25 243.5,-25 243.5,-6 151.5,-6"/>
<polygon fill="none" stroke="#000000" points="151.5,-6 151.5,-25 243.5,-25 243.5,-6 151.5,-6"/>
<text text-anchor="start" x="224.9053" y="-12.1" font-family="Helvetica,sans-Serif" font-size="11.00" fill="#000000">0 &gt;</text>
<polygon fill="none" stroke="#000000" stroke-width="2" points="9,-5 9,-225 244,-225 244,-5 9,-5"/>
</a>
</g>
</g>
<!-- google_tokens -->
<g id="node2" class="node">
<title>google_tokens</title>
<g id="a_node2"><a xlink:href="../../tables/google_tokens.html" xlink:title="google_tokens" target="_top">
<polygon fill="#ffffff" stroke="transparent" points="26.5,-247 26.5,-425 226.5,-425 226.5,-247 26.5,-247"/>
<polygon fill="#f5f5f5" stroke="transparent" points="28.5,-400 28.5,-423 224.5,-423 224.5,-400 28.5,-400"/>
<polygon fill="none" stroke="#000000" points="28.5,-400 28.5,-423 224.5,-423 224.5,-400 28.5,-400"/>
<text text-anchor="start" x="33.5" y="-408.6" font-family="Helvetica,sans-Serif" font-weight="bold" font-size="11.00" fill="#000000">google_tokens</text>
<text text-anchor="start" x="189.5437" y="-408.1" font-family="Helvetica,sans-Serif" font-size="11.00" fill="#000000">[table]</text>
<polygon fill="none" stroke="#000000" points="28.5,-378 28.5,-400 134.5,-400 134.5,-378 28.5,-378"/>
<image xlink:href="../../images/primaryKeys.png" width="11px" height="12px" preserveAspectRatio="xMinYMin meet" x="33.5" y="-395"/>
<text text-anchor="start" x="48.5" y="-385.1" font-family="Helvetica,sans-Serif" font-size="11.00" fill="#000000">id</text>
<polygon fill="none" stroke="#000000" points="134.5,-378 134.5,-400 224.5,-400 224.5,-378 134.5,-378"/>
<text text-anchor="start" x="137.5" y="-385.7" font-family="Helvetica,sans-Serif" font-size="11.00" fill="#000000">serial[10]</text>
<polygon fill="#ffffff" stroke="transparent" points="28.5,-356 28.5,-378 134.5,-378 134.5,-356 28.5,-356"/>
<polygon fill="none" stroke="#000000" points="28.5,-356 28.5,-378 134.5,-378 134.5,-356 28.5,-356"/>
<text text-anchor="start" x="48.5" y="-363.1" font-family="Helvetica,sans-Serif" font-size="11.00" fill="#000000">email</text>
<polygon fill="none" stroke="#000000" points="134.5,-356 134.5,-378 224.5,-378 224.5,-356 134.5,-356"/>
<text text-anchor="start" x="137.0042" y="-363.7" font-family="Helvetica,sans-Serif" font-size="11.00" fill="#000000">text[2147483647]</text>
<polygon fill="none" stroke="#000000" points="28.5,-334 28.5,-356 134.5,-356 134.5,-334 28.5,-334"/>
<text text-anchor="start" x="48.5" y="-341.1" font-family="Helvetica,sans-Serif" font-size="11.00" fill="#000000">access_token</text>
<polygon fill="none" stroke="#000000" points="134.5,-334 134.5,-356 224.5,-356 224.5,-334 134.5,-334"/>
<text text-anchor="start" x="137.0042" y="-341.7" font-family="Helvetica,sans-Serif" font-size="11.00" fill="#000000">text[2147483647]</text>
<polygon fill="none" stroke="#000000" points="28.5,-312 28.5,-334 134.5,-334 134.5,-312 28.5,-312"/>
<text text-anchor="start" x="48.5" y="-319.1" font-family="Helvetica,sans-Serif" font-size="11.00" fill="#000000">refresh_token</text>
<polygon fill="none" stroke="#000000" points="134.5,-312 134.5,-334 224.5,-334 224.5,-312 134.5,-312"/>
<text text-anchor="start" x="137.0042" y="-319.7" font-family="Helvetica,sans-Serif" font-size="11.00" fill="#000000">text[2147483647]</text>
<polygon fill="none" stroke="#000000" points="28.5,-290 28.5,-312 134.5,-312 134.5,-290 28.5,-290"/>
<text text-anchor="start" x="48.5" y="-297.1" font-family="Helvetica,sans-Serif" font-size="11.00" fill="#000000">expiry_date</text>
<polygon fill="none" stroke="#000000" points="134.5,-290 134.5,-312 224.5,-312 224.5,-290 134.5,-290"/>
<text text-anchor="start" x="137.5" y="-297.7" font-family="Helvetica,sans-Serif" font-size="11.00" fill="#000000">int8[19]</text>
<polygon fill="none" stroke="#000000" points="28.5,-268 28.5,-290 134.5,-290 134.5,-268 28.5,-268"/>
<text text-anchor="start" x="48.5" y="-275.1" font-family="Helvetica,sans-Serif" font-size="11.00" fill="#000000">is_valid</text>
<polygon fill="none" stroke="#000000" points="134.5,-268 134.5,-290 224.5,-290 224.5,-268 134.5,-268"/>
<text text-anchor="start" x="137.5" y="-275.7" font-family="Helvetica,sans-Serif" font-size="11.00" fill="#000000">bool[1]</text>
<polygon fill="#ffffff" stroke="transparent" points="28.5,-249 28.5,-268 72.5,-268 72.5,-249 28.5,-249"/>
<polygon fill="none" stroke="#000000" points="28.5,-249 28.5,-268 72.5,-268 72.5,-249 28.5,-249"/>
<text text-anchor="start" x="31.5" y="-255.1" font-family="Helvetica,sans-Serif" font-size="11.00" fill="#000000">&lt; 0</text>
<polygon fill="#ffffff" stroke="transparent" points="72.5,-249 72.5,-268 134.5,-268 134.5,-249 72.5,-249"/>
<polygon fill="none" stroke="#000000" points="72.5,-249 72.5,-268 134.5,-268 134.5,-249 72.5,-249"/>
<text text-anchor="start" x="99.1105" y="-255.1" font-family="Helvetica,sans-Serif" font-size="11.00" fill="#000000">0 rows</text>
<polygon fill="#ffffff" stroke="transparent" points="134.5,-249 134.5,-268 224.5,-268 224.5,-249 134.5,-249"/>
<polygon fill="none" stroke="#000000" points="134.5,-249 134.5,-268 224.5,-268 224.5,-249 134.5,-249"/>
<text text-anchor="start" x="205.9053" y="-255.1" font-family="Helvetica,sans-Serif" font-size="11.00" fill="#000000">0 &gt;</text>
<polygon fill="none" stroke="#000000" stroke-width="2" points="27.5,-248 27.5,-424 225.5,-424 225.5,-248 27.5,-248"/>
</a>
</g>
</g>
</g>
</svg>
