<?xml version="1.0" encoding="UTF-8" standalone="no"?>
<!DOCTYPE svg PUBLIC "-//W3C//DTD SVG 1.1//EN"
 "http://www.w3.org/Graphics/SVG/1.1/DTD/svg11.dtd">
<!-- Generated by graphviz version 2.40.1 (20161225.0304)
 -->
<!-- Title: compactRelationshipsDiagram Pages: 1 -->
<svg width="703pt" height="807pt"
 viewBox="0.00 0.00 703.00 806.70" xmlns="http://www.w3.org/2000/svg" xmlns:xlink="http://www.w3.org/1999/xlink">
<g id="graph0" class="graph" transform="scale(1 1) rotate(0) translate(4 802.7)">
<title>compactRelationshipsDiagram</title>
<polygon fill="#ffffff" stroke="transparent" points="-4,4 -4,-802.7 699,-802.7 699,4 -4,4"/>
<text text-anchor="middle" x="72.4936" y="-7.3" font-family="Helvetica,sans-Serif" font-size="11.00" fill="#000000">Generated by SchemaSpy</text>
<!-- chapters -->
<g id="node1" class="node">
<title>chapters</title>
<g id="a_node1"><a xlink:href="../../tables/chapters.html" xlink:title="chapters" target="_top">
<polygon fill="#ffffff" stroke="transparent" points="182,-302.2 182,-407.2 279,-407.2 279,-302.2 182,-302.2"/>
<polygon fill="#f5f5f5" stroke="transparent" points="182.5,-383.7 182.5,-406.7 279.5,-406.7 279.5,-383.7 182.5,-383.7"/>
<polygon fill="none" stroke="#000000" points="182.5,-383.7 182.5,-406.7 279.5,-406.7 279.5,-383.7 182.5,-383.7"/>
<text text-anchor="start" x="187.5" y="-392.8" font-family="Helvetica,sans-Serif" font-weight="bold" font-size="11.00" fill="#000000">chapters</text>
<text text-anchor="start" x="244.5437" y="-391.8" font-family="Helvetica,sans-Serif" font-size="11.00" fill="#000000">[table]</text>
<polygon fill="none" stroke="#000000" points="182.5,-361.7 182.5,-383.7 279.5,-383.7 279.5,-361.7 182.5,-361.7"/>
<image xlink:href="../../images/primaryKeys.png" width="11px" height="12px" preserveAspectRatio="xMinYMin meet" x="187.5" y="-378.7"/>
<text text-anchor="start" x="202.5" y="-368.8" font-family="Helvetica,sans-Serif" font-size="11.00" fill="#000000">id</text>
<polygon fill="none" stroke="#000000" points="182.5,-339.7 182.5,-361.7 279.5,-361.7 279.5,-339.7 182.5,-339.7"/>
<image xlink:href="../../images/foreignKeys.png" width="11px" height="12px" preserveAspectRatio="xMinYMin meet" x="187.5" y="-356.7"/>
<text text-anchor="start" x="202.5" y="-346.8" font-family="Helvetica,sans-Serif" font-size="11.00" fill="#000000">creator_id</text>
<polygon fill="none" stroke="#000000" points="182.5,-320.7 182.5,-339.7 279.5,-339.7 279.5,-320.7 182.5,-320.7"/>
<text text-anchor="start" x="185.5" y="-326.8" font-family="Helvetica,sans-Serif" font-size="11.00" fill="#000000">...</text>
<polygon fill="#ffffff" stroke="transparent" points="182.5,-301.7 182.5,-320.7 211.5,-320.7 211.5,-301.7 182.5,-301.7"/>
<polygon fill="none" stroke="#000000" points="182.5,-301.7 182.5,-320.7 211.5,-320.7 211.5,-301.7 182.5,-301.7"/>
<text text-anchor="start" x="185.5" y="-307.8" font-family="Helvetica,sans-Serif" font-size="11.00" fill="#000000">&lt; 1</text>
<polygon fill="#ffffff" stroke="transparent" points="211.5,-301.7 211.5,-320.7 253.5,-320.7 253.5,-301.7 211.5,-301.7"/>
<polygon fill="none" stroke="#000000" points="211.5,-301.7 211.5,-320.7 253.5,-320.7 253.5,-301.7 211.5,-301.7"/>
<text text-anchor="start" x="218.1105" y="-307.8" font-family="Helvetica,sans-Serif" font-size="11.00" fill="#000000">4 rows</text>
<polygon fill="#ffffff" stroke="transparent" points="253.5,-301.7 253.5,-320.7 279.5,-320.7 279.5,-301.7 253.5,-301.7"/>
<polygon fill="none" stroke="#000000" points="253.5,-301.7 253.5,-320.7 279.5,-320.7 279.5,-301.7 253.5,-301.7"/>
<text text-anchor="start" x="260.9053" y="-307.8" font-family="Helvetica,sans-Serif" font-size="11.00" fill="#000000">3 &gt;</text>
</a>
</g>
</g>
<!-- users -->
<g id="node11" class="node">
<title>users</title>
<g id="a_node11"><a xlink:href="../../tables/users.html" xlink:title="users" target="_top">
<polygon fill="#ffffff" stroke="transparent" points="8,-416.2 8,-521.2 105,-521.2 105,-416.2 8,-416.2"/>
<polygon fill="#f5f5f5" stroke="transparent" points="8.5,-497.7 8.5,-520.7 105.5,-520.7 105.5,-497.7 8.5,-497.7"/>
<polygon fill="none" stroke="#000000" points="8.5,-497.7 8.5,-520.7 105.5,-520.7 105.5,-497.7 8.5,-497.7"/>
<text text-anchor="start" x="13.5" y="-506.8" font-family="Helvetica,sans-Serif" font-weight="bold" font-size="11.00" fill="#000000">users</text>
<text text-anchor="start" x="70.5437" y="-505.8" font-family="Helvetica,sans-Serif" font-size="11.00" fill="#000000">[table]</text>
<polygon fill="none" stroke="#000000" points="8.5,-475.7 8.5,-497.7 105.5,-497.7 105.5,-475.7 8.5,-475.7"/>
<image xlink:href="../../images/primaryKeys.png" width="11px" height="12px" preserveAspectRatio="xMinYMin meet" x="13.5" y="-492.7"/>
<text text-anchor="start" x="28.5" y="-482.8" font-family="Helvetica,sans-Serif" font-size="11.00" fill="#000000">id</text>
<polygon fill="#ffffff" stroke="transparent" points="8.5,-453.7 8.5,-475.7 105.5,-475.7 105.5,-453.7 8.5,-453.7"/>
<polygon fill="none" stroke="#000000" points="8.5,-453.7 8.5,-475.7 105.5,-475.7 105.5,-453.7 8.5,-453.7"/>
<text text-anchor="start" x="28.5" y="-460.8" font-family="Helvetica,sans-Serif" font-size="11.00" fill="#000000">email</text>
<polygon fill="none" stroke="#000000" points="8.5,-434.7 8.5,-453.7 105.5,-453.7 105.5,-434.7 8.5,-434.7"/>
<text text-anchor="start" x="11.5" y="-440.8" font-family="Helvetica,sans-Serif" font-size="11.00" fill="#000000">...</text>
<polygon fill="#ffffff" stroke="transparent" points="8.5,-415.7 8.5,-434.7 30.5,-434.7 30.5,-415.7 8.5,-415.7"/>
<polygon fill="none" stroke="#000000" points="8.5,-415.7 8.5,-434.7 30.5,-434.7 30.5,-415.7 8.5,-415.7"/>
<text text-anchor="start" x="11.5" y="-421.8" font-family="Helvetica,sans-Serif" font-size="11.00" fill="#000000"> &#160;</text>
<polygon fill="#ffffff" stroke="transparent" points="30.5,-415.7 30.5,-434.7 79.5,-434.7 79.5,-415.7 30.5,-415.7"/>
<polygon fill="none" stroke="#000000" points="30.5,-415.7 30.5,-434.7 79.5,-434.7 79.5,-415.7 30.5,-415.7"/>
<text text-anchor="start" x="37.9956" y="-421.8" font-family="Helvetica,sans-Serif" font-size="11.00" fill="#000000">11 rows</text>
<polygon fill="#ffffff" stroke="transparent" points="79.5,-415.7 79.5,-434.7 105.5,-434.7 105.5,-415.7 79.5,-415.7"/>
<polygon fill="none" stroke="#000000" points="79.5,-415.7 79.5,-434.7 105.5,-434.7 105.5,-415.7 79.5,-415.7"/>
<text text-anchor="start" x="86.9053" y="-421.8" font-family="Helvetica,sans-Serif" font-size="11.00" fill="#000000">6 &gt;</text>
</a>
</g>
</g>
<!-- chapters&#45;&gt;users -->
<g id="edge1" class="edge">
<title>chapters:w&#45;&gt;users:e</title>
<path fill="none" stroke="#000000" d="M168.2058,-353.1766C122.1144,-371.6091 169.3978,-486.7 105.5,-486.7"/>
<polygon fill="#000000" stroke="#000000" points="174.6174,-352.0658 183.1146,-354.2472 178.5587,-351.3829 182.5,-350.7 182.5,-350.7 182.5,-350.7 178.5587,-351.3829 181.8854,-347.1528 174.6174,-352.0658 174.6174,-352.0658"/>
<ellipse fill="none" stroke="#000000" cx="171.4644" cy="-352.6121" rx="3.2" ry="3.2"/>
</g>
<!-- event_sponsors -->
<g id="node2" class="node">
<title>event_sponsors</title>
<g id="a_node2"><a xlink:href="../../tables/event_sponsors.html" xlink:title="event_sponsors" target="_top">
<polygon fill="#ffffff" stroke="transparent" points="557,-359.2 557,-486.2 683,-486.2 683,-359.2 557,-359.2"/>
<polygon fill="#f5f5f5" stroke="transparent" points="557,-462.7 557,-485.7 683,-485.7 683,-462.7 557,-462.7"/>
<polygon fill="none" stroke="#000000" points="557,-462.7 557,-485.7 683,-485.7 683,-462.7 557,-462.7"/>
<text text-anchor="start" x="562" y="-471.8" font-family="Helvetica,sans-Serif" font-weight="bold" font-size="11.00" fill="#000000">event_sponsors</text>
<text text-anchor="start" x="648.0437" y="-470.8" font-family="Helvetica,sans-Serif" font-size="11.00" fill="#000000">[table]</text>
<polygon fill="none" stroke="#000000" points="557,-440.7 557,-462.7 683,-462.7 683,-440.7 557,-440.7"/>
<image xlink:href="../../images/primaryKeys.png" width="11px" height="12px" preserveAspectRatio="xMinYMin meet" x="562" y="-457.7"/>
<text text-anchor="start" x="577" y="-447.8" font-family="Helvetica,sans-Serif" font-size="11.00" fill="#000000">id</text>
<polygon fill="none" stroke="#000000" points="557,-418.7 557,-440.7 683,-440.7 683,-418.7 557,-418.7"/>
<image xlink:href="../../images/foreignKeys.png" width="11px" height="12px" preserveAspectRatio="xMinYMin meet" x="562" y="-435.7"/>
<text text-anchor="start" x="577" y="-425.8" font-family="Helvetica,sans-Serif" font-size="11.00" fill="#000000">sponsor_id</text>
<polygon fill="none" stroke="#000000" points="557,-396.7 557,-418.7 683,-418.7 683,-396.7 557,-396.7"/>
<image xlink:href="../../images/foreignKeys.png" width="11px" height="12px" preserveAspectRatio="xMinYMin meet" x="562" y="-413.7"/>
<text text-anchor="start" x="577" y="-403.8" font-family="Helvetica,sans-Serif" font-size="11.00" fill="#000000">event_id</text>
<polygon fill="none" stroke="#000000" points="557,-377.7 557,-396.7 683,-396.7 683,-377.7 557,-377.7"/>
<text text-anchor="start" x="560" y="-383.8" font-family="Helvetica,sans-Serif" font-size="11.00" fill="#000000">...</text>
<polygon fill="#ffffff" stroke="transparent" points="557,-358.7 557,-377.7 605,-377.7 605,-358.7 557,-358.7"/>
<polygon fill="none" stroke="#000000" points="557,-358.7 557,-377.7 605,-377.7 605,-358.7 557,-358.7"/>
<text text-anchor="start" x="560" y="-364.8" font-family="Helvetica,sans-Serif" font-size="11.00" fill="#000000">&lt; 2</text>
<polygon fill="#ffffff" stroke="transparent" points="605,-358.7 605,-377.7 657,-377.7 657,-358.7 605,-358.7"/>
<polygon fill="none" stroke="#000000" points="605,-358.7 605,-377.7 657,-377.7 657,-358.7 605,-358.7"/>
<text text-anchor="start" x="621.6105" y="-364.8" font-family="Helvetica,sans-Serif" font-size="11.00" fill="#000000">8 rows</text>
<polygon fill="#ffffff" stroke="transparent" points="657,-358.7 657,-377.7 683,-377.7 683,-358.7 657,-358.7"/>
<polygon fill="none" stroke="#000000" points="657,-358.7 657,-377.7 683,-377.7 683,-358.7 657,-358.7"/>
<text text-anchor="start" x="673.8862" y="-364.8" font-family="Helvetica,sans-Serif" font-size="11.00" fill="#000000"> &#160;</text>
</a>
</g>
</g>
<!-- events -->
<g id="node3" class="node">
<title>events</title>
<g id="a_node3"><a xlink:href="../../tables/events.html" xlink:title="events" target="_top">
<polygon fill="#ffffff" stroke="transparent" points="381,-111.2 381,-238.2 479,-238.2 479,-111.2 381,-111.2"/>
<polygon fill="#f5f5f5" stroke="transparent" points="381,-214.7 381,-237.7 479,-237.7 479,-214.7 381,-214.7"/>
<polygon fill="none" stroke="#000000" points="381,-214.7 381,-237.7 479,-237.7 479,-214.7 381,-214.7"/>
<text text-anchor="start" x="386" y="-223.8" font-family="Helvetica,sans-Serif" font-weight="bold" font-size="11.00" fill="#000000">events</text>
<text text-anchor="start" x="444.0437" y="-222.8" font-family="Helvetica,sans-Serif" font-size="11.00" fill="#000000">[table]</text>
<polygon fill="none" stroke="#000000" points="381,-192.7 381,-214.7 479,-214.7 479,-192.7 381,-192.7"/>
<image xlink:href="../../images/primaryKeys.png" width="11px" height="12px" preserveAspectRatio="xMinYMin meet" x="386" y="-209.7"/>
<text text-anchor="start" x="401" y="-199.8" font-family="Helvetica,sans-Serif" font-size="11.00" fill="#000000">id</text>
<polygon fill="none" stroke="#000000" points="381,-170.7 381,-192.7 479,-192.7 479,-170.7 381,-170.7"/>
<image xlink:href="../../images/foreignKeys.png" width="11px" height="12px" preserveAspectRatio="xMinYMin meet" x="386" y="-187.7"/>
<text text-anchor="start" x="401" y="-177.8" font-family="Helvetica,sans-Serif" font-size="11.00" fill="#000000">venue_id</text>
<polygon fill="none" stroke="#000000" points="381,-148.7 381,-170.7 479,-170.7 479,-148.7 381,-148.7"/>
<image xlink:href="../../images/foreignKeys.png" width="11px" height="12px" preserveAspectRatio="xMinYMin meet" x="386" y="-165.7"/>
<text text-anchor="start" x="401" y="-155.8" font-family="Helvetica,sans-Serif" font-size="11.00" fill="#000000">chapter_id</text>
<polygon fill="none" stroke="#000000" points="381,-129.7 381,-148.7 479,-148.7 479,-129.7 381,-129.7"/>
<text text-anchor="start" x="384" y="-135.8" font-family="Helvetica,sans-Serif" font-size="11.00" fill="#000000">...</text>
<polygon fill="#ffffff" stroke="transparent" points="381,-110.7 381,-129.7 411,-129.7 411,-110.7 381,-110.7"/>
<polygon fill="none" stroke="#000000" points="381,-110.7 381,-129.7 411,-129.7 411,-110.7 381,-110.7"/>
<text text-anchor="start" x="384" y="-116.8" font-family="Helvetica,sans-Serif" font-size="11.00" fill="#000000">&lt; 2</text>
<polygon fill="#ffffff" stroke="transparent" points="411,-110.7 411,-129.7 453,-129.7 453,-110.7 411,-110.7"/>
<polygon fill="none" stroke="#000000" points="411,-110.7 411,-129.7 453,-129.7 453,-110.7 411,-110.7"/>
<text text-anchor="start" x="417.6105" y="-116.8" font-family="Helvetica,sans-Serif" font-size="11.00" fill="#000000">4 rows</text>
<polygon fill="#ffffff" stroke="transparent" points="453,-110.7 453,-129.7 479,-129.7 479,-110.7 453,-110.7"/>
<polygon fill="none" stroke="#000000" points="453,-110.7 453,-129.7 479,-129.7 479,-110.7 453,-110.7"/>
<text text-anchor="start" x="460.4053" y="-116.8" font-family="Helvetica,sans-Serif" font-size="11.00" fill="#000000">4 &gt;</text>
</a>
</g>
</g>
<!-- event_sponsors&#45;&gt;events -->
<g id="edge2" class="edge">
<title>event_sponsors:w&#45;&gt;events:e</title>
<path fill="none" stroke="#000000" d="M542.4805,-405.8107C472.4039,-385.2451 570.5701,-203.7 479,-203.7"/>
<polygon fill="#000000" stroke="#000000" points="549.0669,-406.6677 556.5355,-411.2699 553.0334,-407.1839 557,-407.7 557,-407.7 557,-407.7 553.0334,-407.1839 557.4645,-404.1301 549.0669,-406.6677 549.0669,-406.6677"/>
<ellipse fill="none" stroke="#000000" cx="545.8936" cy="-406.2548" rx="3.2" ry="3.2"/>
</g>
<!-- sponsors -->
<g id="node5" class="node">
<title>sponsors</title>
<g id="a_node5"><a xlink:href="../../tables/sponsors.html" xlink:title="sponsors" target="_top">
<polygon fill="#ffffff" stroke="transparent" points="381.5,-429.2 381.5,-512.2 478.5,-512.2 478.5,-429.2 381.5,-429.2"/>
<polygon fill="#f5f5f5" stroke="transparent" points="382,-488.7 382,-511.7 479,-511.7 479,-488.7 382,-488.7"/>
<polygon fill="none" stroke="#000000" points="382,-488.7 382,-511.7 479,-511.7 479,-488.7 382,-488.7"/>
<text text-anchor="start" x="387" y="-497.8" font-family="Helvetica,sans-Serif" font-weight="bold" font-size="11.00" fill="#000000">sponsors</text>
<text text-anchor="start" x="444.0437" y="-496.8" font-family="Helvetica,sans-Serif" font-size="11.00" fill="#000000">[table]</text>
<polygon fill="none" stroke="#000000" points="382,-466.7 382,-488.7 479,-488.7 479,-466.7 382,-466.7"/>
<image xlink:href="../../images/primaryKeys.png" width="11px" height="12px" preserveAspectRatio="xMinYMin meet" x="387" y="-483.7"/>
<text text-anchor="start" x="402" y="-473.8" font-family="Helvetica,sans-Serif" font-size="11.00" fill="#000000">id</text>
<polygon fill="none" stroke="#000000" points="382,-447.7 382,-466.7 479,-466.7 479,-447.7 382,-447.7"/>
<text text-anchor="start" x="385" y="-453.8" font-family="Helvetica,sans-Serif" font-size="11.00" fill="#000000">...</text>
<polygon fill="#ffffff" stroke="transparent" points="382,-428.7 382,-447.7 407,-447.7 407,-428.7 382,-428.7"/>
<polygon fill="none" stroke="#000000" points="382,-428.7 382,-447.7 407,-447.7 407,-428.7 382,-428.7"/>
<text text-anchor="start" x="385" y="-434.8" font-family="Helvetica,sans-Serif" font-size="11.00" fill="#000000"> &#160;</text>
<polygon fill="#ffffff" stroke="transparent" points="407,-428.7 407,-447.7 451,-447.7 451,-428.7 407,-428.7"/>
<polygon fill="none" stroke="#000000" points="407,-428.7 407,-447.7 451,-447.7 451,-428.7 407,-428.7"/>
<text text-anchor="start" x="415.6105" y="-434.8" font-family="Helvetica,sans-Serif" font-size="11.00" fill="#000000">4 rows</text>
<polygon fill="#ffffff" stroke="transparent" points="451,-428.7 451,-447.7 479,-447.7 479,-428.7 451,-428.7"/>
<polygon fill="none" stroke="#000000" points="451,-428.7 451,-447.7 479,-447.7 479,-428.7 451,-428.7"/>
<text text-anchor="start" x="460.4053" y="-434.8" font-family="Helvetica,sans-Serif" font-size="11.00" fill="#000000">1 &gt;</text>
</a>
</g>
</g>
<!-- event_sponsors&#45;&gt;sponsors -->
<g id="edge3" class="edge">
<title>event_sponsors:w&#45;&gt;sponsors:e</title>
<path fill="none" stroke="#000000" d="M542.5529,-432.1463C516.4029,-441.9278 514.1398,-477.7 479,-477.7"/>
<polygon fill="#000000" stroke="#000000" points="549.1123,-431.0357 557.6011,-433.2495 553.0561,-430.3678 557,-429.7 557,-429.7 557,-429.7 553.0561,-430.3678 556.3989,-426.1505 549.1123,-431.0357 549.1123,-431.0357"/>
<ellipse fill="none" stroke="#000000" cx="545.9572" cy="-431.5699" rx="3.2" ry="3.2"/>
</g>
<!-- events&#45;&gt;chapters -->
<g id="edge4" class="edge">
<title>events:w&#45;&gt;chapters:e</title>
<path fill="none" stroke="#000000" d="M366.6171,-161.292C286.5771,-180.7835 379.0404,-372.7 279.5,-372.7"/>
<polygon fill="#000000" stroke="#000000" points="373.0486,-160.5802 381.3961,-163.2781 377.0243,-160.1401 381,-159.7 381,-159.7 381,-159.7 377.0243,-160.1401 380.6039,-156.1219 373.0486,-160.5802 373.0486,-160.5802"/>
<ellipse fill="none" stroke="#000000" cx="369.868" cy="-160.9323" rx="3.2" ry="3.2"/>
</g>
<!-- venues -->
<g id="node12" class="node">
<title>venues</title>
<g id="a_node12"><a xlink:href="../../tables/venues.html" xlink:title="venues" target="_top">
<polygon fill="#ffffff" stroke="transparent" points="170,-133.2 170,-216.2 291,-216.2 291,-133.2 170,-133.2"/>
<polygon fill="#f5f5f5" stroke="transparent" points="170.5,-192.7 170.5,-215.7 291.5,-215.7 291.5,-192.7 170.5,-192.7"/>
<polygon fill="none" stroke="#000000" points="170.5,-192.7 170.5,-215.7 291.5,-215.7 291.5,-192.7 170.5,-192.7"/>
<text text-anchor="start" x="175.5" y="-201.8" font-family="Helvetica,sans-Serif" font-weight="bold" font-size="11.00" fill="#000000">venues</text>
<text text-anchor="start" x="256.5437" y="-200.8" font-family="Helvetica,sans-Serif" font-size="11.00" fill="#000000">[table]</text>
<polygon fill="none" stroke="#000000" points="170.5,-170.7 170.5,-192.7 291.5,-192.7 291.5,-170.7 170.5,-170.7"/>
<image xlink:href="../../images/primaryKeys.png" width="11px" height="12px" preserveAspectRatio="xMinYMin meet" x="175.5" y="-187.7"/>
<text text-anchor="start" x="190.5" y="-177.8" font-family="Helvetica,sans-Serif" font-size="11.00" fill="#000000">id</text>
<polygon fill="none" stroke="#000000" points="170.5,-151.7 170.5,-170.7 291.5,-170.7 291.5,-151.7 170.5,-151.7"/>
<text text-anchor="start" x="173.5" y="-157.8" font-family="Helvetica,sans-Serif" font-size="11.00" fill="#000000">...</text>
<polygon fill="#ffffff" stroke="transparent" points="170.5,-132.7 170.5,-151.7 207.5,-151.7 207.5,-132.7 170.5,-132.7"/>
<polygon fill="none" stroke="#000000" points="170.5,-132.7 170.5,-151.7 207.5,-151.7 207.5,-132.7 170.5,-132.7"/>
<text text-anchor="start" x="173.5" y="-138.8" font-family="Helvetica,sans-Serif" font-size="11.00" fill="#000000"> &#160;</text>
<polygon fill="#ffffff" stroke="transparent" points="207.5,-132.7 207.5,-151.7 257.5,-151.7 257.5,-132.7 207.5,-132.7"/>
<polygon fill="none" stroke="#000000" points="207.5,-132.7 207.5,-151.7 257.5,-151.7 257.5,-132.7 207.5,-132.7"/>
<text text-anchor="start" x="222.1105" y="-138.8" font-family="Helvetica,sans-Serif" font-size="11.00" fill="#000000">4 rows</text>
<polygon fill="#ffffff" stroke="transparent" points="257.5,-132.7 257.5,-151.7 291.5,-151.7 291.5,-132.7 257.5,-132.7"/>
<polygon fill="none" stroke="#000000" points="257.5,-132.7 257.5,-151.7 291.5,-151.7 291.5,-132.7 257.5,-132.7"/>
<text text-anchor="start" x="272.9053" y="-138.8" font-family="Helvetica,sans-Serif" font-size="11.00" fill="#000000">1 &gt;</text>
</a>
</g>
</g>
<!-- events&#45;&gt;venues -->
<g id="edge5" class="edge">
<title>events:w&#45;&gt;venues:e</title>
<path fill="none" stroke="#000000" d="M366.59,-181.7C338.0545,-181.7 325.9948,-181.7 291.5,-181.7"/>
<polygon fill="#000000" stroke="#000000" points="373,-181.7001 381,-185.3 377,-181.7 381,-181.7 381,-181.7 381,-181.7 377,-181.7 381,-178.1 373,-181.7001 373,-181.7001"/>
<ellipse fill="none" stroke="#000000" cx="369.8" cy="-181.7001" rx="3.2" ry="3.2"/>
</g>
<!-- rsvps -->
<g id="node4" class="node">
<title>rsvps</title>
<g id="a_node4"><a xlink:href="../../tables/rsvps.html" xlink:title="rsvps" target="_top">
<polygon fill="#ffffff" stroke="transparent" points="565.5,-38.2 565.5,-165.2 674.5,-165.2 674.5,-38.2 565.5,-38.2"/>
<polygon fill="#f5f5f5" stroke="transparent" points="566,-141.7 566,-164.7 675,-164.7 675,-141.7 566,-141.7"/>
<polygon fill="none" stroke="#000000" points="566,-141.7 566,-164.7 675,-164.7 675,-141.7 566,-141.7"/>
<text text-anchor="start" x="571" y="-150.8" font-family="Helvetica,sans-Serif" font-weight="bold" font-size="11.00" fill="#000000">rsvps</text>
<text text-anchor="start" x="640.0437" y="-149.8" font-family="Helvetica,sans-Serif" font-size="11.00" fill="#000000">[table]</text>
<polygon fill="none" stroke="#000000" points="566,-119.7 566,-141.7 675,-141.7 675,-119.7 566,-119.7"/>
<image xlink:href="../../images/primaryKeys.png" width="11px" height="12px" preserveAspectRatio="xMinYMin meet" x="571" y="-136.7"/>
<text text-anchor="start" x="586" y="-126.8" font-family="Helvetica,sans-Serif" font-size="11.00" fill="#000000">id</text>
<polygon fill="none" stroke="#000000" points="566,-97.7 566,-119.7 675,-119.7 675,-97.7 566,-97.7"/>
<image xlink:href="../../images/foreignKeys.png" width="11px" height="12px" preserveAspectRatio="xMinYMin meet" x="571" y="-114.7"/>
<text text-anchor="start" x="586" y="-104.8" font-family="Helvetica,sans-Serif" font-size="11.00" fill="#000000">event_id</text>
<polygon fill="none" stroke="#000000" points="566,-75.7 566,-97.7 675,-97.7 675,-75.7 566,-75.7"/>
<image xlink:href="../../images/foreignKeys.png" width="11px" height="12px" preserveAspectRatio="xMinYMin meet" x="571" y="-92.7"/>
<text text-anchor="start" x="586" y="-82.8" font-family="Helvetica,sans-Serif" font-size="11.00" fill="#000000">user_id</text>
<polygon fill="none" stroke="#000000" points="566,-56.7 566,-75.7 675,-75.7 675,-56.7 566,-56.7"/>
<text text-anchor="start" x="569" y="-62.8" font-family="Helvetica,sans-Serif" font-size="11.00" fill="#000000">...</text>
<polygon fill="#ffffff" stroke="transparent" points="566,-37.7 566,-56.7 603,-56.7 603,-37.7 566,-37.7"/>
<polygon fill="none" stroke="#000000" points="566,-37.7 566,-56.7 603,-56.7 603,-37.7 566,-37.7"/>
<text text-anchor="start" x="569" y="-43.8" font-family="Helvetica,sans-Serif" font-size="11.00" fill="#000000">&lt; 2</text>
<polygon fill="#ffffff" stroke="transparent" points="603,-37.7 603,-56.7 655,-56.7 655,-37.7 603,-37.7"/>
<polygon fill="none" stroke="#000000" points="603,-37.7 603,-56.7 655,-56.7 655,-37.7 603,-37.7"/>
<text text-anchor="start" x="613.4956" y="-43.8" font-family="Helvetica,sans-Serif" font-size="11.00" fill="#000000">20 rows</text>
<polygon fill="#ffffff" stroke="transparent" points="655,-37.7 655,-56.7 675,-56.7 675,-37.7 655,-37.7"/>
<polygon fill="none" stroke="#000000" points="655,-37.7 655,-56.7 675,-56.7 675,-37.7 655,-37.7"/>
<text text-anchor="start" x="665.8862" y="-43.8" font-family="Helvetica,sans-Serif" font-size="11.00" fill="#000000"> &#160;</text>
</a>
</g>
</g>
<!-- rsvps&#45;&gt;events -->
<g id="edge6" class="edge">
<title>rsvps:w&#45;&gt;events:e</title>
<path fill="none" stroke="#000000" d="M551.4939,-111.241C513.3114,-126.3487 530.6613,-203.7 479,-203.7"/>
<polygon fill="#000000" stroke="#000000" points="558.12,-110.0804 566.6212,-112.246 562.06,-109.3902 566,-108.7 566,-108.7 566,-108.7 562.06,-109.3902 565.3788,-105.154 558.12,-110.0804 558.12,-110.0804"/>
<ellipse fill="none" stroke="#000000" cx="554.968" cy="-110.6325" rx="3.2" ry="3.2"/>
</g>
<!-- rsvps&#45;&gt;users -->
<g id="edge7" class="edge">
<title>rsvps:w&#45;&gt;users:e</title>
<path fill="none" stroke="#000000" d="M551.3602,-86.5051C373.3518,-81.7794 275.134,6.1342 146,-122.7 88.3831,-180.1831 186.888,-486.7 105.5,-486.7"/>
<polygon fill="#000000" stroke="#000000" points="558.0007,-86.5934 565.952,-90.2997 562.0004,-86.6467 566,-86.7 566,-86.7 566,-86.7 562.0004,-86.6467 566.048,-83.1003 558.0007,-86.5934 558.0007,-86.5934"/>
<ellipse fill="none" stroke="#000000" cx="554.801" cy="-86.5508" rx="3.2" ry="3.2"/>
</g>
<!-- tags -->
<g id="node6" class="node">
<title>tags</title>
<g id="a_node6"><a xlink:href="../../tables/tags.html" xlink:title="tags" target="_top">
<polygon fill="#ffffff" stroke="transparent" points="571.5,-186.2 571.5,-291.2 668.5,-291.2 668.5,-186.2 571.5,-186.2"/>
<polygon fill="#f5f5f5" stroke="transparent" points="572,-267.7 572,-290.7 669,-290.7 669,-267.7 572,-267.7"/>
<polygon fill="none" stroke="#000000" points="572,-267.7 572,-290.7 669,-290.7 669,-267.7 572,-267.7"/>
<text text-anchor="start" x="577" y="-276.8" font-family="Helvetica,sans-Serif" font-weight="bold" font-size="11.00" fill="#000000">tags</text>
<text text-anchor="start" x="634.0437" y="-275.8" font-family="Helvetica,sans-Serif" font-size="11.00" fill="#000000">[table]</text>
<polygon fill="none" stroke="#000000" points="572,-245.7 572,-267.7 669,-267.7 669,-245.7 572,-245.7"/>
<image xlink:href="../../images/primaryKeys.png" width="11px" height="12px" preserveAspectRatio="xMinYMin meet" x="577" y="-262.7"/>
<text text-anchor="start" x="592" y="-252.8" font-family="Helvetica,sans-Serif" font-size="11.00" fill="#000000">id</text>
<polygon fill="none" stroke="#000000" points="572,-223.7 572,-245.7 669,-245.7 669,-223.7 572,-223.7"/>
<image xlink:href="../../images/foreignKeys.png" width="11px" height="12px" preserveAspectRatio="xMinYMin meet" x="577" y="-240.7"/>
<text text-anchor="start" x="592" y="-230.8" font-family="Helvetica,sans-Serif" font-size="11.00" fill="#000000">event_id</text>
<polygon fill="none" stroke="#000000" points="572,-204.7 572,-223.7 669,-223.7 669,-204.7 572,-204.7"/>
<text text-anchor="start" x="575" y="-210.8" font-family="Helvetica,sans-Serif" font-size="11.00" fill="#000000">...</text>
<polygon fill="#ffffff" stroke="transparent" points="572,-185.7 572,-204.7 606,-204.7 606,-185.7 572,-185.7"/>
<polygon fill="none" stroke="#000000" points="572,-185.7 572,-204.7 606,-204.7 606,-185.7 572,-185.7"/>
<text text-anchor="start" x="575" y="-191.8" font-family="Helvetica,sans-Serif" font-size="11.00" fill="#000000">&lt; 1</text>
<polygon fill="#ffffff" stroke="transparent" points="606,-185.7 606,-204.7 650,-204.7 650,-185.7 606,-185.7"/>
<polygon fill="none" stroke="#000000" points="606,-185.7 606,-204.7 650,-204.7 650,-185.7 606,-185.7"/>
<text text-anchor="start" x="614.6105" y="-191.8" font-family="Helvetica,sans-Serif" font-size="11.00" fill="#000000">9 rows</text>
<polygon fill="#ffffff" stroke="transparent" points="650,-185.7 650,-204.7 669,-204.7 669,-185.7 650,-185.7"/>
<polygon fill="none" stroke="#000000" points="650,-185.7 650,-204.7 669,-204.7 669,-185.7 650,-185.7"/>
<text text-anchor="start" x="659.8862" y="-191.8" font-family="Helvetica,sans-Serif" font-size="11.00" fill="#000000"> &#160;</text>
</a>
</g>
</g>
<!-- tags&#45;&gt;events -->
<g id="edge8" class="edge">
<title>tags:w&#45;&gt;events:e</title>
<path fill="none" stroke="#000000" d="M557.2818,-233.368C526.3762,-227.4344 517.123,-203.7 479,-203.7"/>
<polygon fill="#000000" stroke="#000000" points="564.0326,-233.9789 571.6755,-238.2853 568.0163,-234.3394 572,-234.7 572,-234.7 572,-234.7 568.0163,-234.3394 572.3245,-231.1147 564.0326,-233.9789 564.0326,-233.9789"/>
<ellipse fill="none" stroke="#000000" cx="560.8456" cy="-233.6904" rx="3.2" ry="3.2"/>
</g>
<!-- user_bans -->
<g id="node7" class="node">
<title>user_bans</title>
<g id="a_node7"><a xlink:href="../../tables/user_bans.html" xlink:title="user_bans" target="_top">
<polygon fill="#ffffff" stroke="transparent" points="381.5,-533.2 381.5,-660.2 478.5,-660.2 478.5,-533.2 381.5,-533.2"/>
<polygon fill="#f5f5f5" stroke="transparent" points="382,-636.7 382,-659.7 479,-659.7 479,-636.7 382,-636.7"/>
<polygon fill="none" stroke="#000000" points="382,-636.7 382,-659.7 479,-659.7 479,-636.7 382,-636.7"/>
<text text-anchor="start" x="387" y="-645.8" font-family="Helvetica,sans-Serif" font-weight="bold" font-size="11.00" fill="#000000">user_bans</text>
<text text-anchor="start" x="444.0437" y="-644.8" font-family="Helvetica,sans-Serif" font-size="11.00" fill="#000000">[table]</text>
<polygon fill="none" stroke="#000000" points="382,-614.7 382,-636.7 479,-636.7 479,-614.7 382,-614.7"/>
<image xlink:href="../../images/primaryKeys.png" width="11px" height="12px" preserveAspectRatio="xMinYMin meet" x="387" y="-631.7"/>
<text text-anchor="start" x="402" y="-621.8" font-family="Helvetica,sans-Serif" font-size="11.00" fill="#000000">id</text>
<polygon fill="none" stroke="#000000" points="382,-592.7 382,-614.7 479,-614.7 479,-592.7 382,-592.7"/>
<image xlink:href="../../images/foreignKeys.png" width="11px" height="12px" preserveAspectRatio="xMinYMin meet" x="387" y="-609.7"/>
<text text-anchor="start" x="402" y="-599.8" font-family="Helvetica,sans-Serif" font-size="11.00" fill="#000000">user_id</text>
<polygon fill="none" stroke="#000000" points="382,-570.7 382,-592.7 479,-592.7 479,-570.7 382,-570.7"/>
<image xlink:href="../../images/foreignKeys.png" width="11px" height="12px" preserveAspectRatio="xMinYMin meet" x="387" y="-587.7"/>
<text text-anchor="start" x="402" y="-577.8" font-family="Helvetica,sans-Serif" font-size="11.00" fill="#000000">chapter_id</text>
<polygon fill="none" stroke="#000000" points="382,-551.7 382,-570.7 479,-570.7 479,-551.7 382,-551.7"/>
<text text-anchor="start" x="385" y="-557.8" font-family="Helvetica,sans-Serif" font-size="11.00" fill="#000000">...</text>
<polygon fill="#ffffff" stroke="transparent" points="382,-532.7 382,-551.7 416,-551.7 416,-532.7 382,-532.7"/>
<polygon fill="none" stroke="#000000" points="382,-532.7 382,-551.7 416,-551.7 416,-532.7 382,-532.7"/>
<text text-anchor="start" x="385" y="-538.8" font-family="Helvetica,sans-Serif" font-size="11.00" fill="#000000">&lt; 2</text>
<polygon fill="#ffffff" stroke="transparent" points="416,-532.7 416,-551.7 460,-551.7 460,-532.7 416,-532.7"/>
<polygon fill="none" stroke="#000000" points="416,-532.7 416,-551.7 460,-551.7 460,-532.7 416,-532.7"/>
<text text-anchor="start" x="424.6105" y="-538.8" font-family="Helvetica,sans-Serif" font-size="11.00" fill="#000000">4 rows</text>
<polygon fill="#ffffff" stroke="transparent" points="460,-532.7 460,-551.7 479,-551.7 479,-532.7 460,-532.7"/>
<polygon fill="none" stroke="#000000" points="460,-532.7 460,-551.7 479,-551.7 479,-532.7 460,-532.7"/>
<text text-anchor="start" x="469.8862" y="-538.8" font-family="Helvetica,sans-Serif" font-size="11.00" fill="#000000"> &#160;</text>
</a>
</g>
</g>
<!-- user_bans&#45;&gt;chapters -->
<g id="edge9" class="edge">
<title>user_bans:w&#45;&gt;chapters:e</title>
<path fill="none" stroke="#000000" d="M367.3058,-580.0177C288.9762,-560.2382 377.5026,-372.7 279.5,-372.7"/>
<polygon fill="#000000" stroke="#000000" points="374.0519,-580.79 381.5905,-585.2766 378.026,-581.245 382,-581.7 382,-581.7 382,-581.7 378.026,-581.245 382.4095,-578.1234 374.0519,-580.79 374.0519,-580.79"/>
<ellipse fill="none" stroke="#000000" cx="370.8727" cy="-580.426" rx="3.2" ry="3.2"/>
</g>
<!-- user_bans&#45;&gt;users -->
<g id="edge10" class="edge">
<title>user_bans:w&#45;&gt;users:e</title>
<path fill="none" stroke="#000000" d="M367.2788,-603.2038C247.6494,-594.9576 233.8558,-486.7 105.5,-486.7"/>
<polygon fill="#000000" stroke="#000000" points="374.0045,-603.4304 381.8787,-607.298 378.0023,-603.5652 382,-603.7 382,-603.7 382,-603.7 378.0023,-603.5652 382.1213,-600.102 374.0045,-603.4304 374.0045,-603.4304"/>
<ellipse fill="none" stroke="#000000" cx="370.8064" cy="-603.3226" rx="3.2" ry="3.2"/>
</g>
<!-- user_chapter_roles -->
<g id="node8" class="node">
<title>user_chapter_roles</title>
<g id="a_node8"><a xlink:href="../../tables/user_chapter_roles.html" xlink:title="user_chapter_roles" target="_top">
<polygon fill="#ffffff" stroke="transparent" points="356,-259.2 356,-408.2 504,-408.2 504,-259.2 356,-259.2"/>
<polygon fill="#f5f5f5" stroke="transparent" points="356,-384.7 356,-407.7 504,-407.7 504,-384.7 356,-384.7"/>
<polygon fill="none" stroke="#000000" points="356,-384.7 356,-407.7 504,-407.7 504,-384.7 356,-384.7"/>
<text text-anchor="start" x="361" y="-393.8" font-family="Helvetica,sans-Serif" font-weight="bold" font-size="11.00" fill="#000000">user_chapter_roles</text>
<text text-anchor="start" x="469.0437" y="-392.8" font-family="Helvetica,sans-Serif" font-size="11.00" fill="#000000">[table]</text>
<polygon fill="none" stroke="#000000" points="356,-362.7 356,-384.7 504,-384.7 504,-362.7 356,-362.7"/>
<image xlink:href="../../images/primaryKeys.png" width="11px" height="12px" preserveAspectRatio="xMinYMin meet" x="361" y="-379.7"/>
<text text-anchor="start" x="376" y="-369.8" font-family="Helvetica,sans-Serif" font-size="11.00" fill="#000000">user_id</text>
<polygon fill="none" stroke="#000000" points="356,-340.7 356,-362.7 504,-362.7 504,-340.7 356,-340.7"/>
<image xlink:href="../../images/primaryKeys.png" width="11px" height="12px" preserveAspectRatio="xMinYMin meet" x="361" y="-357.7"/>
<text text-anchor="start" x="376" y="-347.8" font-family="Helvetica,sans-Serif" font-size="11.00" fill="#000000">chapter_id</text>
<polygon fill="none" stroke="#000000" points="356,-318.7 356,-340.7 504,-340.7 504,-318.7 356,-318.7"/>
<image xlink:href="../../images/primaryKeys.png" width="11px" height="12px" preserveAspectRatio="xMinYMin meet" x="361" y="-335.7"/>
<text text-anchor="start" x="376" y="-325.8" font-family="Helvetica,sans-Serif" font-size="11.00" fill="#000000">id</text>
<polygon fill="none" stroke="#000000" points="356,-296.7 356,-318.7 504,-318.7 504,-296.7 356,-296.7"/>
<image xlink:href="../../images/primaryKeys.png" width="11px" height="12px" preserveAspectRatio="xMinYMin meet" x="361" y="-313.7"/>
<text text-anchor="start" x="376" y="-303.8" font-family="Helvetica,sans-Serif" font-size="11.00" fill="#000000">role_name</text>
<polygon fill="none" stroke="#000000" points="356,-277.7 356,-296.7 504,-296.7 504,-277.7 356,-277.7"/>
<text text-anchor="start" x="359" y="-283.8" font-family="Helvetica,sans-Serif" font-size="11.00" fill="#000000">...</text>
<polygon fill="#ffffff" stroke="transparent" points="356,-258.7 356,-277.7 412,-277.7 412,-258.7 356,-258.7"/>
<polygon fill="none" stroke="#000000" points="356,-258.7 356,-277.7 412,-277.7 412,-258.7 356,-258.7"/>
<text text-anchor="start" x="359" y="-264.8" font-family="Helvetica,sans-Serif" font-size="11.00" fill="#000000">&lt; 2</text>
<polygon fill="#ffffff" stroke="transparent" points="412,-258.7 412,-277.7 474,-277.7 474,-258.7 412,-258.7"/>
<polygon fill="none" stroke="#000000" points="412,-258.7 412,-277.7 474,-277.7 474,-258.7 412,-258.7"/>
<text text-anchor="start" x="432.4956" y="-264.8" font-family="Helvetica,sans-Serif" font-size="11.00" fill="#000000">40 rows</text>
<polygon fill="#ffffff" stroke="transparent" points="474,-258.7 474,-277.7 504,-277.7 504,-258.7 474,-258.7"/>
<polygon fill="none" stroke="#000000" points="474,-258.7 474,-277.7 504,-277.7 504,-258.7 474,-258.7"/>
<text text-anchor="start" x="494.8862" y="-264.8" font-family="Helvetica,sans-Serif" font-size="11.00" fill="#000000"> &#160;</text>
</a>
</g>
</g>
<!-- user_chapter_roles&#45;&gt;chapters -->
<g id="edge11" class="edge">
<title>user_chapter_roles:w&#45;&gt;chapters:e</title>
<path fill="none" stroke="#000000" d="M341.3936,-353.0779C318.1574,-357.7498 309.2488,-372.7 279.5,-372.7"/>
<polygon fill="#000000" stroke="#000000" points="348.0354,-352.4514 356.3381,-355.2841 352.0177,-352.0757 356,-351.7 356,-351.7 356,-351.7 352.0177,-352.0757 355.6619,-348.1159 348.0354,-352.4514 348.0354,-352.4514"/>
<ellipse fill="none" stroke="#000000" cx="344.8495" cy="-352.7519" rx="3.2" ry="3.2"/>
</g>
<!-- user_chapter_roles&#45;&gt;users -->
<g id="edge12" class="edge">
<title>user_chapter_roles:w&#45;&gt;users:e</title>
<path fill="none" stroke="#000000" d="M342.1227,-377.9997C331.4443,-386.7361 332.2357,-406.6665 315,-417.7 232.4368,-470.5531 203.5312,-486.7 105.5,-486.7"/>
<polygon fill="#000000" stroke="#000000" points="348.3584,-376.0677 357.0655,-377.1387 352.1792,-374.8839 356,-373.7 356,-373.7 356,-373.7 352.1792,-374.8839 354.9345,-370.2613 348.3584,-376.0677 348.3584,-376.0677"/>
<ellipse fill="none" stroke="#000000" cx="345.3017" cy="-377.0148" rx="3.2" ry="3.2"/>
</g>
<!-- user_event_roles -->
<g id="node9" class="node">
<title>user_event_roles</title>
<g id="a_node9"><a xlink:href="../../tables/user_event_roles.html" xlink:title="user_event_roles" target="_top">
<polygon fill="#ffffff" stroke="transparent" points="553,-549.2 553,-698.2 687,-698.2 687,-549.2 553,-549.2"/>
<polygon fill="#f5f5f5" stroke="transparent" points="553,-674.7 553,-697.7 687,-697.7 687,-674.7 553,-674.7"/>
<polygon fill="none" stroke="#000000" points="553,-674.7 553,-697.7 687,-697.7 687,-674.7 553,-674.7"/>
<text text-anchor="start" x="558" y="-683.8" font-family="Helvetica,sans-Serif" font-weight="bold" font-size="11.00" fill="#000000">user_event_roles</text>
<text text-anchor="start" x="652.0437" y="-682.8" font-family="Helvetica,sans-Serif" font-size="11.00" fill="#000000">[table]</text>
<polygon fill="none" stroke="#000000" points="553,-652.7 553,-674.7 687,-674.7 687,-652.7 553,-652.7"/>
<image xlink:href="../../images/primaryKeys.png" width="11px" height="12px" preserveAspectRatio="xMinYMin meet" x="558" y="-669.7"/>
<text text-anchor="start" x="573" y="-659.8" font-family="Helvetica,sans-Serif" font-size="11.00" fill="#000000">id</text>
<polygon fill="none" stroke="#000000" points="553,-630.7 553,-652.7 687,-652.7 687,-630.7 553,-630.7"/>
<image xlink:href="../../images/primaryKeys.png" width="11px" height="12px" preserveAspectRatio="xMinYMin meet" x="558" y="-647.7"/>
<text text-anchor="start" x="573" y="-637.8" font-family="Helvetica,sans-Serif" font-size="11.00" fill="#000000">user_id</text>
<polygon fill="none" stroke="#000000" points="553,-608.7 553,-630.7 687,-630.7 687,-608.7 553,-608.7"/>
<image xlink:href="../../images/primaryKeys.png" width="11px" height="12px" preserveAspectRatio="xMinYMin meet" x="558" y="-625.7"/>
<text text-anchor="start" x="573" y="-615.8" font-family="Helvetica,sans-Serif" font-size="11.00" fill="#000000">event_id</text>
<polygon fill="none" stroke="#000000" points="553,-586.7 553,-608.7 687,-608.7 687,-586.7 553,-586.7"/>
<image xlink:href="../../images/primaryKeys.png" width="11px" height="12px" preserveAspectRatio="xMinYMin meet" x="558" y="-603.7"/>
<text text-anchor="start" x="573" y="-593.8" font-family="Helvetica,sans-Serif" font-size="11.00" fill="#000000">role_name</text>
<polygon fill="none" stroke="#000000" points="553,-567.7 553,-586.7 687,-586.7 687,-567.7 553,-567.7"/>
<text text-anchor="start" x="556" y="-573.8" font-family="Helvetica,sans-Serif" font-size="11.00" fill="#000000">...</text>
<polygon fill="#ffffff" stroke="transparent" points="553,-548.7 553,-567.7 602,-567.7 602,-548.7 553,-548.7"/>
<polygon fill="none" stroke="#000000" points="553,-548.7 553,-567.7 602,-567.7 602,-548.7 553,-548.7"/>
<text text-anchor="start" x="556" y="-554.8" font-family="Helvetica,sans-Serif" font-size="11.00" fill="#000000">&lt; 2</text>
<polygon fill="#ffffff" stroke="transparent" points="602,-548.7 602,-567.7 660,-567.7 660,-548.7 602,-548.7"/>
<polygon fill="none" stroke="#000000" points="602,-548.7 602,-567.7 660,-567.7 660,-548.7 602,-548.7"/>
<text text-anchor="start" x="618.4956" y="-554.8" font-family="Helvetica,sans-Serif" font-size="11.00" fill="#000000">20 rows</text>
<polygon fill="#ffffff" stroke="transparent" points="660,-548.7 660,-567.7 687,-567.7 687,-548.7 660,-548.7"/>
<polygon fill="none" stroke="#000000" points="660,-548.7 660,-567.7 687,-567.7 687,-548.7 660,-548.7"/>
<text text-anchor="start" x="677.8862" y="-554.8" font-family="Helvetica,sans-Serif" font-size="11.00" fill="#000000"> &#160;</text>
</a>
</g>
</g>
<!-- user_event_roles&#45;&gt;events -->
<g id="edge13" class="edge">
<title>user_event_roles:w&#45;&gt;events:e</title>
<path fill="none" stroke="#000000" d="M538.9685,-615.8474C471.3285,-573.9096 567.5774,-203.7 479,-203.7"/>
<polygon fill="#000000" stroke="#000000" points="545.2855,-617.5818 552.0468,-623.1715 549.1428,-618.6409 553,-619.7 553,-619.7 553,-619.7 549.1428,-618.6409 553.9532,-616.2285 545.2855,-617.5818 545.2855,-617.5818"/>
<ellipse fill="none" stroke="#000000" cx="542.1997" cy="-616.7345" rx="3.2" ry="3.2"/>
</g>
<!-- user_event_roles&#45;&gt;users -->
<g id="edge14" class="edge">
<title>user_event_roles:w&#45;&gt;users:e</title>
<path fill="none" stroke="#000000" d="M538.994,-646.1381C530.2499,-652.9846 527.2883,-665.8396 512,-670.7 442.5369,-692.7833 418.3218,-689.8737 348,-670.7 247.4715,-643.2902 220.5888,-624.4585 146,-551.7 121.6346,-527.9325 139.5377,-486.7 105.5,-486.7"/>
<polygon fill="#000000" stroke="#000000" points="545.3737,-644.1166 554.0875,-645.1318 549.1869,-642.9083 553,-641.7 553,-641.7 553,-641.7 549.1869,-642.9083 551.9125,-638.2682 545.3737,-644.1166 545.3737,-644.1166"/>
<ellipse fill="none" stroke="#000000" cx="542.3232" cy="-645.0832" rx="3.2" ry="3.2"/>
</g>
<!-- user_instance_roles -->
<g id="node10" class="node">
<title>user_instance_roles</title>
<g id="a_node10"><a xlink:href="../../tables/user_instance_roles.html" xlink:title="user_instance_roles" target="_top">
<polygon fill="#ffffff" stroke="transparent" points="154,-708.7 154,-794.7 307,-794.7 307,-708.7 154,-708.7"/>
<polygon fill="#f5f5f5" stroke="transparent" points="154.5,-771.7 154.5,-794.7 307.5,-794.7 307.5,-771.7 154.5,-771.7"/>
<polygon fill="none" stroke="#000000" points="154.5,-771.7 154.5,-794.7 307.5,-794.7 307.5,-771.7 154.5,-771.7"/>
<text text-anchor="start" x="159.5" y="-780.8" font-family="Helvetica,sans-Serif" font-weight="bold" font-size="11.00" fill="#000000">user_instance_roles</text>
<text text-anchor="start" x="272.5437" y="-779.8" font-family="Helvetica,sans-Serif" font-size="11.00" fill="#000000">[table]</text>
<polygon fill="none" stroke="#000000" points="154.5,-749.7 154.5,-771.7 307.5,-771.7 307.5,-749.7 154.5,-749.7"/>
<image xlink:href="../../images/primaryKeys.png" width="11px" height="12px" preserveAspectRatio="xMinYMin meet" x="159.5" y="-766.7"/>
<text text-anchor="start" x="174.5" y="-756.8" font-family="Helvetica,sans-Serif" font-size="11.00" fill="#000000">user_id</text>
<polygon fill="none" stroke="#000000" points="154.5,-727.7 154.5,-749.7 307.5,-749.7 307.5,-727.7 154.5,-727.7"/>
<image xlink:href="../../images/primaryKeys.png" width="11px" height="12px" preserveAspectRatio="xMinYMin meet" x="159.5" y="-744.7"/>
<text text-anchor="start" x="174.5" y="-734.8" font-family="Helvetica,sans-Serif" font-size="11.00" fill="#000000">role_name</text>
<polygon fill="#ffffff" stroke="transparent" points="154.5,-708.7 154.5,-727.7 216.5,-727.7 216.5,-708.7 154.5,-708.7"/>
<polygon fill="none" stroke="#000000" points="154.5,-708.7 154.5,-727.7 216.5,-727.7 216.5,-708.7 154.5,-708.7"/>
<text text-anchor="start" x="157.5" y="-714.8" font-family="Helvetica,sans-Serif" font-size="11.00" fill="#000000">&lt; 1</text>
<polygon fill="#ffffff" stroke="transparent" points="216.5,-708.7 216.5,-727.7 274.5,-727.7 274.5,-708.7 216.5,-708.7"/>
<polygon fill="none" stroke="#000000" points="216.5,-708.7 216.5,-727.7 274.5,-727.7 274.5,-708.7 216.5,-708.7"/>
<text text-anchor="start" x="239.1105" y="-714.8" font-family="Helvetica,sans-Serif" font-size="11.00" fill="#000000">0 rows</text>
<polygon fill="#ffffff" stroke="transparent" points="274.5,-708.7 274.5,-727.7 307.5,-727.7 307.5,-708.7 274.5,-708.7"/>
<polygon fill="none" stroke="#000000" points="274.5,-708.7 274.5,-727.7 307.5,-727.7 307.5,-708.7 274.5,-708.7"/>
<text text-anchor="start" x="298.3862" y="-714.8" font-family="Helvetica,sans-Serif" font-size="11.00" fill="#000000"> &#160;</text>
</a>
</g>
</g>
<!-- user_instance_roles&#45;&gt;users -->
<g id="edge15" class="edge">
<title>user_instance_roles:w&#45;&gt;users:e</title>
<path fill="none" stroke="#000000" d="M141.17,-754.7223C104.7228,-714.6525 161.9184,-486.7 105.5,-486.7"/>
<polygon fill="#000000" stroke="#000000" points="147.2004,-757.4265 153.0269,-763.9848 150.8502,-759.0633 154.5,-760.7 154.5,-760.7 154.5,-760.7 150.8502,-759.0633 155.9731,-757.4152 147.2004,-757.4265 147.2004,-757.4265"/>
<ellipse fill="none" stroke="#000000" cx="144.2805" cy="-756.1171" rx="3.2" ry="3.2"/>
</g>
</g>
</svg>
