<?xml version="1.0" encoding="UTF-8" standalone="no"?>
<!DOCTYPE svg PUBLIC "-//W3C//DTD SVG 1.1//EN"
 "http://www.w3.org/Graphics/SVG/1.1/DTD/svg11.dtd">
<!-- Generated by graphviz version 2.40.1 (20161225.0304)
 -->
<!-- Title: compactRelationshipsDiagram Pages: 1 -->
<svg width="475pt" height="955pt"
 viewBox="0.00 0.00 475.00 955.20" xmlns="http://www.w3.org/2000/svg" xmlns:xlink="http://www.w3.org/1999/xlink">
<g id="graph0" class="graph" transform="scale(1 1) rotate(0) translate(4 951.2)">
<title>compactRelationshipsDiagram</title>
<polygon fill="#ffffff" stroke="transparent" points="-4,4 -4,-951.2 471,-951.2 471,4 -4,4"/>
<text text-anchor="middle" x="72.4936" y="-7.3" font-family="Helvetica,sans-Serif" font-size="11.00" fill="#000000">Generated by SchemaSpy</text>
<!-- chapters -->
<g id="node1" class="node">
<title>chapters</title>
<g id="a_node1"><a xlink:href="../../tables/chapters.html" xlink:title="chapters" target="_top">
<polygon fill="#ffffff" stroke="transparent" points="18,-186.2 18,-269.2 106,-269.2 106,-186.2 18,-186.2"/>
<polygon fill="#f5f5f5" stroke="transparent" points="18,-245.7 18,-268.7 106,-268.7 106,-245.7 18,-245.7"/>
<polygon fill="none" stroke="#000000" points="18,-245.7 18,-268.7 106,-268.7 106,-245.7 18,-245.7"/>
<text text-anchor="start" x="23" y="-254.8" font-family="Helvetica,sans-Serif" font-weight="bold" font-size="11.00" fill="#000000">chapters</text>
<text text-anchor="start" x="71.0437" y="-253.8" font-family="Helvetica,sans-Serif" font-size="11.00" fill="#000000">[table]</text>
<polygon fill="none" stroke="#000000" points="18,-223.7 18,-245.7 106,-245.7 106,-223.7 18,-223.7"/>
<image xlink:href="../../images/primaryKeys.png" width="11px" height="12px" preserveAspectRatio="xMinYMin meet" x="23" y="-240.7"/>
<text text-anchor="start" x="38" y="-230.8" font-family="Helvetica,sans-Serif" font-size="11.00" fill="#000000">id</text>
<polygon fill="none" stroke="#000000" points="18,-204.7 18,-223.7 106,-223.7 106,-204.7 18,-204.7"/>
<text text-anchor="start" x="21" y="-210.8" font-family="Helvetica,sans-Serif" font-size="11.00" fill="#000000">...</text>
<polygon fill="#ffffff" stroke="transparent" points="18,-185.7 18,-204.7 38,-204.7 38,-185.7 18,-185.7"/>
<polygon fill="none" stroke="#000000" points="18,-185.7 18,-204.7 38,-204.7 38,-185.7 18,-185.7"/>
<text text-anchor="start" x="21" y="-191.8" font-family="Helvetica,sans-Serif" font-size="11.00" fill="#000000"> &#160;</text>
<polygon fill="#ffffff" stroke="transparent" points="38,-185.7 38,-204.7 80,-204.7 80,-185.7 38,-185.7"/>
<polygon fill="none" stroke="#000000" points="38,-185.7 38,-204.7 80,-204.7 80,-185.7 38,-185.7"/>
<text text-anchor="start" x="44.6105" y="-191.8" font-family="Helvetica,sans-Serif" font-size="11.00" fill="#000000">0 rows</text>
<polygon fill="#ffffff" stroke="transparent" points="80,-185.7 80,-204.7 106,-204.7 106,-185.7 80,-185.7"/>
<polygon fill="none" stroke="#000000" points="80,-185.7 80,-204.7 106,-204.7 106,-185.7 80,-185.7"/>
<text text-anchor="start" x="87.4053" y="-191.8" font-family="Helvetica,sans-Serif" font-size="11.00" fill="#000000">3 &gt;</text>
</a>
</g>
</g>
<!-- event_sponsors -->
<g id="node2" class="node">
<title>event_sponsors</title>
<g id="a_node2"><a xlink:href="../../tables/event_sponsors.html" xlink:title="event_sponsors" target="_top">
<polygon fill="#ffffff" stroke="transparent" points="328.5,-838.2 328.5,-943.2 448.5,-943.2 448.5,-838.2 328.5,-838.2"/>
<polygon fill="#f5f5f5" stroke="transparent" points="328.5,-919.7 328.5,-942.7 448.5,-942.7 448.5,-919.7 328.5,-919.7"/>
<polygon fill="none" stroke="#000000" points="328.5,-919.7 328.5,-942.7 448.5,-942.7 448.5,-919.7 328.5,-919.7"/>
<text text-anchor="start" x="333.181" y="-928.8" font-family="Helvetica,sans-Serif" font-weight="bold" font-size="11.00" fill="#000000">event_sponsors</text>
<text text-anchor="start" x="414.0219" y="-927.8" font-family="Helvetica,sans-Serif" font-size="11.00" fill="#000000">[table]</text>
<polygon fill="none" stroke="#000000" points="328.5,-897.7 328.5,-919.7 448.5,-919.7 448.5,-897.7 328.5,-897.7"/>
<image xlink:href="../../images/primaryKeys.png" width="11px" height="12px" preserveAspectRatio="xMinYMin meet" x="333.5" y="-914.7"/>
<text text-anchor="start" x="352.5" y="-904.8" font-family="Helvetica,sans-Serif" font-size="11.00" fill="#000000">sponsor_id</text>
<polygon fill="none" stroke="#000000" points="328.5,-875.7 328.5,-897.7 448.5,-897.7 448.5,-875.7 328.5,-875.7"/>
<image xlink:href="../../images/primaryKeys.png" width="11px" height="12px" preserveAspectRatio="xMinYMin meet" x="333.5" y="-892.7"/>
<text text-anchor="start" x="352.5" y="-882.8" font-family="Helvetica,sans-Serif" font-size="11.00" fill="#000000">event_id</text>
<polygon fill="none" stroke="#000000" points="328.5,-856.7 328.5,-875.7 448.5,-875.7 448.5,-856.7 328.5,-856.7"/>
<text text-anchor="start" x="331.5" y="-862.8" font-family="Helvetica,sans-Serif" font-size="11.00" fill="#000000">...</text>
<polygon fill="#ffffff" stroke="transparent" points="328.5,-837.7 328.5,-856.7 373.5,-856.7 373.5,-837.7 328.5,-837.7"/>
<polygon fill="none" stroke="#000000" points="328.5,-837.7 328.5,-856.7 373.5,-856.7 373.5,-837.7 328.5,-837.7"/>
<text text-anchor="start" x="331.5" y="-843.8" font-family="Helvetica,sans-Serif" font-size="11.00" fill="#000000">&lt; 2</text>
<polygon fill="#ffffff" stroke="transparent" points="373.5,-837.7 373.5,-856.7 423.5,-856.7 423.5,-837.7 373.5,-837.7"/>
<polygon fill="none" stroke="#000000" points="373.5,-837.7 373.5,-856.7 423.5,-856.7 423.5,-837.7 373.5,-837.7"/>
<text text-anchor="start" x="388.1105" y="-843.8" font-family="Helvetica,sans-Serif" font-size="11.00" fill="#000000">0 rows</text>
<polygon fill="#ffffff" stroke="transparent" points="423.5,-837.7 423.5,-856.7 448.5,-856.7 448.5,-837.7 423.5,-837.7"/>
<polygon fill="none" stroke="#000000" points="423.5,-837.7 423.5,-856.7 448.5,-856.7 448.5,-837.7 423.5,-837.7"/>
<text text-anchor="start" x="439.3862" y="-843.8" font-family="Helvetica,sans-Serif" font-size="11.00" fill="#000000"> &#160;</text>
</a>
</g>
</g>
<!-- events -->
<g id="node4" class="node">
<title>events</title>
<g id="a_node4"><a xlink:href="../../tables/events.html" xlink:title="events" target="_top">
<polygon fill="#ffffff" stroke="transparent" points="165,-542.2 165,-669.2 269,-669.2 269,-542.2 165,-542.2"/>
<polygon fill="#f5f5f5" stroke="transparent" points="165,-645.7 165,-668.7 269,-668.7 269,-645.7 165,-645.7"/>
<polygon fill="none" stroke="#000000" points="165,-645.7 165,-668.7 269,-668.7 269,-645.7 165,-645.7"/>
<text text-anchor="start" x="170" y="-654.8" font-family="Helvetica,sans-Serif" font-weight="bold" font-size="11.00" fill="#000000">events</text>
<text text-anchor="start" x="234.0437" y="-653.8" font-family="Helvetica,sans-Serif" font-size="11.00" fill="#000000">[table]</text>
<polygon fill="none" stroke="#000000" points="165,-623.7 165,-645.7 269,-645.7 269,-623.7 165,-623.7"/>
<image xlink:href="../../images/primaryKeys.png" width="11px" height="12px" preserveAspectRatio="xMinYMin meet" x="170" y="-640.7"/>
<text text-anchor="start" x="185" y="-630.8" font-family="Helvetica,sans-Serif" font-size="11.00" fill="#000000">id</text>
<polygon fill="none" stroke="#000000" points="165,-601.7 165,-623.7 269,-623.7 269,-601.7 165,-601.7"/>
<image xlink:href="../../images/foreignKeys.png" width="11px" height="12px" preserveAspectRatio="xMinYMin meet" x="170" y="-618.7"/>
<text text-anchor="start" x="185" y="-608.8" font-family="Helvetica,sans-Serif" font-size="11.00" fill="#000000">venue_id</text>
<polygon fill="none" stroke="#000000" points="165,-579.7 165,-601.7 269,-601.7 269,-579.7 165,-579.7"/>
<image xlink:href="../../images/foreignKeys.png" width="11px" height="12px" preserveAspectRatio="xMinYMin meet" x="170" y="-596.7"/>
<text text-anchor="start" x="185" y="-586.8" font-family="Helvetica,sans-Serif" font-size="11.00" fill="#000000">chapter_id</text>
<polygon fill="none" stroke="#000000" points="165,-560.7 165,-579.7 269,-579.7 269,-560.7 165,-560.7"/>
<text text-anchor="start" x="168" y="-566.8" font-family="Helvetica,sans-Serif" font-size="11.00" fill="#000000">...</text>
<polygon fill="#ffffff" stroke="transparent" points="165,-541.7 165,-560.7 198,-560.7 198,-541.7 165,-541.7"/>
<polygon fill="none" stroke="#000000" points="165,-541.7 165,-560.7 198,-560.7 198,-541.7 165,-541.7"/>
<text text-anchor="start" x="168" y="-547.8" font-family="Helvetica,sans-Serif" font-size="11.00" fill="#000000">&lt; 2</text>
<polygon fill="#ffffff" stroke="transparent" points="198,-541.7 198,-560.7 242,-560.7 242,-541.7 198,-541.7"/>
<polygon fill="none" stroke="#000000" points="198,-541.7 198,-560.7 242,-560.7 242,-541.7 198,-541.7"/>
<text text-anchor="start" x="206.6105" y="-547.8" font-family="Helvetica,sans-Serif" font-size="11.00" fill="#000000">0 rows</text>
<polygon fill="#ffffff" stroke="transparent" points="242,-541.7 242,-560.7 269,-560.7 269,-541.7 242,-541.7"/>
<polygon fill="none" stroke="#000000" points="242,-541.7 242,-560.7 269,-560.7 269,-541.7 242,-541.7"/>
<text text-anchor="start" x="250.4053" y="-547.8" font-family="Helvetica,sans-Serif" font-size="11.00" fill="#000000">4 &gt;</text>
</a>
</g>
</g>
<!-- event_sponsors&#45;&gt;events -->
<g id="edge1" class="edge">
<title>event_sponsors:w&#45;&gt;events:e</title>
<path fill="none" stroke="#000000" d="M315.1132,-880.4708C280.3872,-841.6648 321.1454,-634.7 269,-634.7"/>
<polygon fill="#000000" stroke="#000000" points="321.2468,-883.3249 326.9812,-889.9639 324.8734,-885.0124 328.5,-886.7 328.5,-886.7 328.5,-886.7 324.8734,-885.0124 330.0188,-883.4361 321.2468,-883.3249 321.2468,-883.3249"/>
<ellipse fill="none" stroke="#000000" cx="318.3455" cy="-881.9748" rx="3.2" ry="3.2"/>
</g>
<!-- sponsors -->
<g id="node6" class="node">
<title>sponsors</title>
<g id="a_node6"><a xlink:href="../../tables/sponsors.html" xlink:title="sponsors" target="_top">
<polygon fill="#ffffff" stroke="transparent" points="173,-860.2 173,-943.2 261,-943.2 261,-860.2 173,-860.2"/>
<polygon fill="#f5f5f5" stroke="transparent" points="173,-919.7 173,-942.7 261,-942.7 261,-919.7 173,-919.7"/>
<polygon fill="none" stroke="#000000" points="173,-919.7 173,-942.7 261,-942.7 261,-919.7 173,-919.7"/>
<text text-anchor="start" x="178" y="-928.8" font-family="Helvetica,sans-Serif" font-weight="bold" font-size="11.00" fill="#000000">sponsors</text>
<text text-anchor="start" x="226.5219" y="-927.8" font-family="Helvetica,sans-Serif" font-size="11.00" fill="#000000">[table]</text>
<polygon fill="none" stroke="#000000" points="173,-897.7 173,-919.7 261,-919.7 261,-897.7 173,-897.7"/>
<image xlink:href="../../images/primaryKeys.png" width="11px" height="12px" preserveAspectRatio="xMinYMin meet" x="178" y="-914.7"/>
<text text-anchor="start" x="193" y="-904.8" font-family="Helvetica,sans-Serif" font-size="11.00" fill="#000000">id</text>
<polygon fill="none" stroke="#000000" points="173,-878.7 173,-897.7 261,-897.7 261,-878.7 173,-878.7"/>
<text text-anchor="start" x="176" y="-884.8" font-family="Helvetica,sans-Serif" font-size="11.00" fill="#000000">...</text>
<polygon fill="#ffffff" stroke="transparent" points="173,-859.7 173,-878.7 193,-878.7 193,-859.7 173,-859.7"/>
<polygon fill="none" stroke="#000000" points="173,-859.7 173,-878.7 193,-878.7 193,-859.7 173,-859.7"/>
<text text-anchor="start" x="176" y="-865.8" font-family="Helvetica,sans-Serif" font-size="11.00" fill="#000000"> &#160;</text>
<polygon fill="#ffffff" stroke="transparent" points="193,-859.7 193,-878.7 235,-878.7 235,-859.7 193,-859.7"/>
<polygon fill="none" stroke="#000000" points="193,-859.7 193,-878.7 235,-878.7 235,-859.7 193,-859.7"/>
<text text-anchor="start" x="199.6105" y="-865.8" font-family="Helvetica,sans-Serif" font-size="11.00" fill="#000000">0 rows</text>
<polygon fill="#ffffff" stroke="transparent" points="235,-859.7 235,-878.7 261,-878.7 261,-859.7 235,-859.7"/>
<polygon fill="none" stroke="#000000" points="235,-859.7 235,-878.7 261,-878.7 261,-859.7 235,-859.7"/>
<text text-anchor="start" x="242.4053" y="-865.8" font-family="Helvetica,sans-Serif" font-size="11.00" fill="#000000">1 &gt;</text>
</a>
</g>
</g>
<!-- event_sponsors&#45;&gt;sponsors -->
<g id="edge2" class="edge">
<title>event_sponsors:w&#45;&gt;sponsors:e</title>
<path fill="none" stroke="#000000" d="M313.9733,-908.7C294.9877,-908.7 285.4922,-908.7 261,-908.7"/>
<polygon fill="#000000" stroke="#000000" points="320.5,-908.7001 328.5,-912.3 324.5,-908.7 328.5,-908.7 328.5,-908.7 328.5,-908.7 324.5,-908.7 328.5,-905.1 320.5,-908.7001 320.5,-908.7001"/>
<ellipse fill="none" stroke="#000000" cx="317.3" cy="-908.7001" rx="3.2" ry="3.2"/>
</g>
<!-- event_tags -->
<g id="node3" class="node">
<title>event_tags</title>
<g id="a_node3"><a xlink:href="../../tables/event_tags.html" xlink:title="event_tags" target="_top">
<polygon fill="#ffffff" stroke="transparent" points="340.5,-712.2 340.5,-817.2 436.5,-817.2 436.5,-712.2 340.5,-712.2"/>
<polygon fill="#f5f5f5" stroke="transparent" points="340.5,-793.7 340.5,-816.7 436.5,-816.7 436.5,-793.7 340.5,-793.7"/>
<polygon fill="none" stroke="#000000" points="340.5,-793.7 340.5,-816.7 436.5,-816.7 436.5,-793.7 340.5,-793.7"/>
<text text-anchor="start" x="345.0984" y="-802.8" font-family="Helvetica,sans-Serif" font-weight="bold" font-size="11.00" fill="#000000">event_tags</text>
<text text-anchor="start" x="402.0219" y="-801.8" font-family="Helvetica,sans-Serif" font-size="11.00" fill="#000000">[table]</text>
<polygon fill="none" stroke="#000000" points="340.5,-771.7 340.5,-793.7 436.5,-793.7 436.5,-771.7 340.5,-771.7"/>
<image xlink:href="../../images/primaryKeys.png" width="11px" height="12px" preserveAspectRatio="xMinYMin meet" x="345.5" y="-788.7"/>
<text text-anchor="start" x="364.5" y="-778.8" font-family="Helvetica,sans-Serif" font-size="11.00" fill="#000000">event_id</text>
<polygon fill="none" stroke="#000000" points="340.5,-749.7 340.5,-771.7 436.5,-771.7 436.5,-749.7 340.5,-749.7"/>
<image xlink:href="../../images/primaryKeys.png" width="11px" height="12px" preserveAspectRatio="xMinYMin meet" x="345.5" y="-766.7"/>
<text text-anchor="start" x="364.5" y="-756.8" font-family="Helvetica,sans-Serif" font-size="11.00" fill="#000000">tag_id</text>
<polygon fill="none" stroke="#000000" points="340.5,-730.7 340.5,-749.7 436.5,-749.7 436.5,-730.7 340.5,-730.7"/>
<text text-anchor="start" x="343.5" y="-736.8" font-family="Helvetica,sans-Serif" font-size="11.00" fill="#000000">...</text>
<polygon fill="#ffffff" stroke="transparent" points="340.5,-711.7 340.5,-730.7 373.5,-730.7 373.5,-711.7 340.5,-711.7"/>
<polygon fill="none" stroke="#000000" points="340.5,-711.7 340.5,-730.7 373.5,-730.7 373.5,-711.7 340.5,-711.7"/>
<text text-anchor="start" x="343.5" y="-717.8" font-family="Helvetica,sans-Serif" font-size="11.00" fill="#000000">&lt; 2</text>
<polygon fill="#ffffff" stroke="transparent" points="373.5,-711.7 373.5,-730.7 417.5,-730.7 417.5,-711.7 373.5,-711.7"/>
<polygon fill="none" stroke="#000000" points="373.5,-711.7 373.5,-730.7 417.5,-730.7 417.5,-711.7 373.5,-711.7"/>
<text text-anchor="start" x="382.1105" y="-717.8" font-family="Helvetica,sans-Serif" font-size="11.00" fill="#000000">0 rows</text>
<polygon fill="#ffffff" stroke="transparent" points="417.5,-711.7 417.5,-730.7 436.5,-730.7 436.5,-711.7 417.5,-711.7"/>
<polygon fill="none" stroke="#000000" points="417.5,-711.7 417.5,-730.7 436.5,-730.7 436.5,-711.7 417.5,-711.7"/>
<text text-anchor="start" x="427.3862" y="-717.8" font-family="Helvetica,sans-Serif" font-size="11.00" fill="#000000"> &#160;</text>
</a>
</g>
</g>
<!-- event_tags&#45;&gt;events -->
<g id="edge3" class="edge">
<title>event_tags:w&#45;&gt;events:e</title>
<path fill="none" stroke="#000000" d="M326.2462,-780.2547C277.957,-761.0118 336.4872,-634.7 269,-634.7"/>
<polygon fill="#000000" stroke="#000000" points="332.6152,-781.3473 339.8913,-786.2482 336.5576,-782.0236 340.5,-782.7 340.5,-782.7 340.5,-782.7 336.5576,-782.0236 341.1087,-779.1518 332.6152,-781.3473 332.6152,-781.3473"/>
<ellipse fill="none" stroke="#000000" cx="329.4613" cy="-780.8062" rx="3.2" ry="3.2"/>
</g>
<!-- tags -->
<g id="node7" class="node">
<title>tags</title>
<g id="a_node7"><a xlink:href="../../tables/tags.html" xlink:title="tags" target="_top">
<polygon fill="#ffffff" stroke="transparent" points="173,-690.2 173,-795.2 261,-795.2 261,-690.2 173,-690.2"/>
<polygon fill="#f5f5f5" stroke="transparent" points="173,-771.7 173,-794.7 261,-794.7 261,-771.7 173,-771.7"/>
<polygon fill="none" stroke="#000000" points="173,-771.7 173,-794.7 261,-794.7 261,-771.7 173,-771.7"/>
<text text-anchor="start" x="178" y="-780.8" font-family="Helvetica,sans-Serif" font-weight="bold" font-size="11.00" fill="#000000">tags</text>
<text text-anchor="start" x="226.0437" y="-779.8" font-family="Helvetica,sans-Serif" font-size="11.00" fill="#000000">[table]</text>
<polygon fill="none" stroke="#000000" points="173,-749.7 173,-771.7 261,-771.7 261,-749.7 173,-749.7"/>
<image xlink:href="../../images/primaryKeys.png" width="11px" height="12px" preserveAspectRatio="xMinYMin meet" x="178" y="-766.7"/>
<text text-anchor="start" x="193" y="-756.8" font-family="Helvetica,sans-Serif" font-size="11.00" fill="#000000">id</text>
<polygon fill="#ffffff" stroke="transparent" points="173,-727.7 173,-749.7 261,-749.7 261,-727.7 173,-727.7"/>
<polygon fill="none" stroke="#000000" points="173,-727.7 173,-749.7 261,-749.7 261,-727.7 173,-727.7"/>
<text text-anchor="start" x="193" y="-734.8" font-family="Helvetica,sans-Serif" font-size="11.00" fill="#000000">name</text>
<polygon fill="none" stroke="#000000" points="173,-708.7 173,-727.7 261,-727.7 261,-708.7 173,-708.7"/>
<text text-anchor="start" x="176" y="-714.8" font-family="Helvetica,sans-Serif" font-size="11.00" fill="#000000">...</text>
<polygon fill="#ffffff" stroke="transparent" points="173,-689.7 173,-708.7 193,-708.7 193,-689.7 173,-689.7"/>
<polygon fill="none" stroke="#000000" points="173,-689.7 173,-708.7 193,-708.7 193,-689.7 173,-689.7"/>
<text text-anchor="start" x="176" y="-695.8" font-family="Helvetica,sans-Serif" font-size="11.00" fill="#000000"> &#160;</text>
<polygon fill="#ffffff" stroke="transparent" points="193,-689.7 193,-708.7 235,-708.7 235,-689.7 193,-689.7"/>
<polygon fill="none" stroke="#000000" points="193,-689.7 193,-708.7 235,-708.7 235,-689.7 193,-689.7"/>
<text text-anchor="start" x="199.6105" y="-695.8" font-family="Helvetica,sans-Serif" font-size="11.00" fill="#000000">0 rows</text>
<polygon fill="#ffffff" stroke="transparent" points="235,-689.7 235,-708.7 261,-708.7 261,-689.7 235,-689.7"/>
<polygon fill="none" stroke="#000000" points="235,-689.7 235,-708.7 261,-708.7 261,-689.7 235,-689.7"/>
<text text-anchor="start" x="242.4053" y="-695.8" font-family="Helvetica,sans-Serif" font-size="11.00" fill="#000000">1 &gt;</text>
</a>
</g>
</g>
<!-- event_tags&#45;&gt;tags -->
<g id="edge4" class="edge">
<title>event_tags:w&#45;&gt;tags:e</title>
<path fill="none" stroke="#000000" d="M326.0093,-760.7C301.8602,-760.7 290.9505,-760.7 261,-760.7"/>
<polygon fill="#000000" stroke="#000000" points="332.5,-760.7001 340.5,-764.3 336.5,-760.7 340.5,-760.7 340.5,-760.7 340.5,-760.7 336.5,-760.7 340.5,-757.1 332.5,-760.7001 332.5,-760.7001"/>
<ellipse fill="none" stroke="#000000" cx="329.3" cy="-760.7001" rx="3.2" ry="3.2"/>
</g>
<!-- events&#45;&gt;chapters -->
<g id="edge5" class="edge">
<title>events:w&#45;&gt;chapters:e</title>
<path fill="none" stroke="#000000" d="M151.3203,-586.1988C97.4737,-544.9886 180.8651,-234.7 106,-234.7"/>
<polygon fill="#000000" stroke="#000000" points="157.4008,-588.1995 163.8748,-594.1196 161.2004,-589.4498 165,-590.7 165,-590.7 165,-590.7 161.2004,-589.4498 166.1252,-587.2804 157.4008,-588.1995 157.4008,-588.1995"/>
<ellipse fill="none" stroke="#000000" cx="154.3611" cy="-587.1993" rx="3.2" ry="3.2"/>
</g>
<!-- venues -->
<g id="node13" class="node">
<title>venues</title>
<g id="a_node13"><a xlink:href="../../tables/venues.html" xlink:title="venues" target="_top">
<polygon fill="#ffffff" stroke="transparent" points="8,-564.2 8,-647.2 116,-647.2 116,-564.2 8,-564.2"/>
<polygon fill="#f5f5f5" stroke="transparent" points="8,-623.7 8,-646.7 116,-646.7 116,-623.7 8,-623.7"/>
<polygon fill="none" stroke="#000000" points="8,-623.7 8,-646.7 116,-646.7 116,-623.7 8,-623.7"/>
<text text-anchor="start" x="13" y="-632.8" font-family="Helvetica,sans-Serif" font-weight="bold" font-size="11.00" fill="#000000">venues</text>
<text text-anchor="start" x="81.0437" y="-631.8" font-family="Helvetica,sans-Serif" font-size="11.00" fill="#000000">[table]</text>
<polygon fill="none" stroke="#000000" points="8,-601.7 8,-623.7 116,-623.7 116,-601.7 8,-601.7"/>
<image xlink:href="../../images/primaryKeys.png" width="11px" height="12px" preserveAspectRatio="xMinYMin meet" x="13" y="-618.7"/>
<text text-anchor="start" x="28" y="-608.8" font-family="Helvetica,sans-Serif" font-size="11.00" fill="#000000">id</text>
<polygon fill="none" stroke="#000000" points="8,-582.7 8,-601.7 116,-601.7 116,-582.7 8,-582.7"/>
<text text-anchor="start" x="11" y="-588.8" font-family="Helvetica,sans-Serif" font-size="11.00" fill="#000000">...</text>
<polygon fill="#ffffff" stroke="transparent" points="8,-563.7 8,-582.7 38,-582.7 38,-563.7 8,-563.7"/>
<polygon fill="none" stroke="#000000" points="8,-563.7 8,-582.7 38,-582.7 38,-563.7 8,-563.7"/>
<text text-anchor="start" x="11" y="-569.8" font-family="Helvetica,sans-Serif" font-size="11.00" fill="#000000"> &#160;</text>
<polygon fill="#ffffff" stroke="transparent" points="38,-563.7 38,-582.7 85,-582.7 85,-563.7 38,-563.7"/>
<polygon fill="none" stroke="#000000" points="38,-563.7 38,-582.7 85,-582.7 85,-563.7 38,-563.7"/>
<text text-anchor="start" x="49.6105" y="-569.8" font-family="Helvetica,sans-Serif" font-size="11.00" fill="#000000">0 rows</text>
<polygon fill="#ffffff" stroke="transparent" points="85,-563.7 85,-582.7 116,-582.7 116,-563.7 85,-563.7"/>
<polygon fill="none" stroke="#000000" points="85,-563.7 85,-582.7 116,-582.7 116,-563.7 85,-563.7"/>
<text text-anchor="start" x="97.4053" y="-569.8" font-family="Helvetica,sans-Serif" font-size="11.00" fill="#000000">1 &gt;</text>
</a>
</g>
</g>
<!-- events&#45;&gt;venues -->
<g id="edge6" class="edge">
<title>events:w&#45;&gt;venues:e</title>
<path fill="none" stroke="#000000" d="M150.4909,-612.7C139.1774,-612.7 131.9931,-612.7 116,-612.7"/>
<polygon fill="#000000" stroke="#000000" points="157,-612.7001 165,-616.3 161,-612.7 165,-612.7 165,-612.7 165,-612.7 161,-612.7 165,-609.1 157,-612.7001 157,-612.7001"/>
<ellipse fill="none" stroke="#000000" cx="153.8" cy="-612.7001" rx="3.2" ry="3.2"/>
</g>
<!-- rsvps -->
<g id="node5" class="node">
<title>rsvps</title>
<g id="a_node5"><a xlink:href="../../tables/rsvps.html" xlink:title="rsvps" target="_top">
<polygon fill="#ffffff" stroke="transparent" points="338.5,-438.2 338.5,-543.2 438.5,-543.2 438.5,-438.2 338.5,-438.2"/>
<polygon fill="#f5f5f5" stroke="transparent" points="338.5,-519.7 338.5,-542.7 438.5,-542.7 438.5,-519.7 338.5,-519.7"/>
<polygon fill="none" stroke="#000000" points="338.5,-519.7 338.5,-542.7 438.5,-542.7 438.5,-519.7 338.5,-519.7"/>
<text text-anchor="start" x="343.5" y="-528.8" font-family="Helvetica,sans-Serif" font-weight="bold" font-size="11.00" fill="#000000">rsvps</text>
<text text-anchor="start" x="403.5437" y="-527.8" font-family="Helvetica,sans-Serif" font-size="11.00" fill="#000000">[table]</text>
<polygon fill="none" stroke="#000000" points="338.5,-497.7 338.5,-519.7 438.5,-519.7 438.5,-497.7 338.5,-497.7"/>
<image xlink:href="../../images/primaryKeys.png" width="11px" height="12px" preserveAspectRatio="xMinYMin meet" x="343.5" y="-514.7"/>
<text text-anchor="start" x="358.5" y="-504.8" font-family="Helvetica,sans-Serif" font-size="11.00" fill="#000000">user_id</text>
<polygon fill="none" stroke="#000000" points="338.5,-475.7 338.5,-497.7 438.5,-497.7 438.5,-475.7 338.5,-475.7"/>
<image xlink:href="../../images/primaryKeys.png" width="11px" height="12px" preserveAspectRatio="xMinYMin meet" x="343.5" y="-492.7"/>
<text text-anchor="start" x="358.5" y="-482.8" font-family="Helvetica,sans-Serif" font-size="11.00" fill="#000000">event_id</text>
<polygon fill="none" stroke="#000000" points="338.5,-456.7 338.5,-475.7 438.5,-475.7 438.5,-456.7 338.5,-456.7"/>
<text text-anchor="start" x="341.5" y="-462.8" font-family="Helvetica,sans-Serif" font-size="11.00" fill="#000000">...</text>
<polygon fill="#ffffff" stroke="transparent" points="338.5,-437.7 338.5,-456.7 373.5,-456.7 373.5,-437.7 338.5,-437.7"/>
<polygon fill="none" stroke="#000000" points="338.5,-437.7 338.5,-456.7 373.5,-456.7 373.5,-437.7 338.5,-437.7"/>
<text text-anchor="start" x="341.5" y="-443.8" font-family="Helvetica,sans-Serif" font-size="11.00" fill="#000000">&lt; 2</text>
<polygon fill="#ffffff" stroke="transparent" points="373.5,-437.7 373.5,-456.7 418.5,-456.7 418.5,-437.7 373.5,-437.7"/>
<polygon fill="none" stroke="#000000" points="373.5,-437.7 373.5,-456.7 418.5,-456.7 418.5,-437.7 373.5,-437.7"/>
<text text-anchor="start" x="383.1105" y="-443.8" font-family="Helvetica,sans-Serif" font-size="11.00" fill="#000000">0 rows</text>
<polygon fill="#ffffff" stroke="transparent" points="418.5,-437.7 418.5,-456.7 438.5,-456.7 438.5,-437.7 418.5,-437.7"/>
<polygon fill="none" stroke="#000000" points="418.5,-437.7 418.5,-456.7 438.5,-456.7 438.5,-437.7 418.5,-437.7"/>
<text text-anchor="start" x="429.3862" y="-443.8" font-family="Helvetica,sans-Serif" font-size="11.00" fill="#000000"> &#160;</text>
</a>
</g>
</g>
<!-- rsvps&#45;&gt;events -->
<g id="edge7" class="edge">
<title>rsvps:w&#45;&gt;events:e</title>
<path fill="none" stroke="#000000" d="M324.0458,-489.2688C276.774,-508.9217 335.9921,-634.7 269,-634.7"/>
<polygon fill="#000000" stroke="#000000" points="330.6234,-488.0999 339.1299,-490.2445 334.5617,-487.3999 338.5,-486.7 338.5,-486.7 338.5,-486.7 334.5617,-487.3999 337.8701,-483.1555 330.6234,-488.0999 330.6234,-488.0999"/>
<ellipse fill="none" stroke="#000000" cx="327.4728" cy="-488.6598" rx="3.2" ry="3.2"/>
</g>
<!-- users -->
<g id="node12" class="node">
<title>users</title>
<g id="a_node12"><a xlink:href="../../tables/users.html" xlink:title="users" target="_top">
<polygon fill="#ffffff" stroke="transparent" points="173,-312.2 173,-417.2 261,-417.2 261,-312.2 173,-312.2"/>
<polygon fill="#f5f5f5" stroke="transparent" points="173,-393.7 173,-416.7 261,-416.7 261,-393.7 173,-393.7"/>
<polygon fill="none" stroke="#000000" points="173,-393.7 173,-416.7 261,-416.7 261,-393.7 173,-393.7"/>
<text text-anchor="start" x="178" y="-402.8" font-family="Helvetica,sans-Serif" font-weight="bold" font-size="11.00" fill="#000000">users</text>
<text text-anchor="start" x="226.0437" y="-401.8" font-family="Helvetica,sans-Serif" font-size="11.00" fill="#000000">[table]</text>
<polygon fill="none" stroke="#000000" points="173,-371.7 173,-393.7 261,-393.7 261,-371.7 173,-371.7"/>
<image xlink:href="../../images/primaryKeys.png" width="11px" height="12px" preserveAspectRatio="xMinYMin meet" x="178" y="-388.7"/>
<text text-anchor="start" x="193" y="-378.8" font-family="Helvetica,sans-Serif" font-size="11.00" fill="#000000">id</text>
<polygon fill="#ffffff" stroke="transparent" points="173,-349.7 173,-371.7 261,-371.7 261,-349.7 173,-349.7"/>
<polygon fill="none" stroke="#000000" points="173,-349.7 173,-371.7 261,-371.7 261,-349.7 173,-349.7"/>
<text text-anchor="start" x="193" y="-356.8" font-family="Helvetica,sans-Serif" font-size="11.00" fill="#000000">email</text>
<polygon fill="none" stroke="#000000" points="173,-330.7 173,-349.7 261,-349.7 261,-330.7 173,-330.7"/>
<text text-anchor="start" x="176" y="-336.8" font-family="Helvetica,sans-Serif" font-size="11.00" fill="#000000">...</text>
<polygon fill="#ffffff" stroke="transparent" points="173,-311.7 173,-330.7 193,-330.7 193,-311.7 173,-311.7"/>
<polygon fill="none" stroke="#000000" points="173,-311.7 173,-330.7 193,-330.7 193,-311.7 173,-311.7"/>
<text text-anchor="start" x="176" y="-317.8" font-family="Helvetica,sans-Serif" font-size="11.00" fill="#000000"> &#160;</text>
<polygon fill="#ffffff" stroke="transparent" points="193,-311.7 193,-330.7 235,-330.7 235,-311.7 193,-311.7"/>
<polygon fill="none" stroke="#000000" points="193,-311.7 193,-330.7 235,-330.7 235,-311.7 193,-311.7"/>
<text text-anchor="start" x="199.6105" y="-317.8" font-family="Helvetica,sans-Serif" font-size="11.00" fill="#000000">0 rows</text>
<polygon fill="#ffffff" stroke="transparent" points="235,-311.7 235,-330.7 261,-330.7 261,-311.7 235,-311.7"/>
<polygon fill="none" stroke="#000000" points="235,-311.7 235,-330.7 261,-330.7 261,-311.7 235,-311.7"/>
<text text-anchor="start" x="242.4053" y="-317.8" font-family="Helvetica,sans-Serif" font-size="11.00" fill="#000000">5 &gt;</text>
</a>
</g>
</g>
<!-- rsvps&#45;&gt;users -->
<g id="edge8" class="edge">
<title>rsvps:w&#45;&gt;users:e</title>
<path fill="none" stroke="#000000" d="M324.0509,-506.0683C281.1502,-487.9743 321.0951,-382.7 261,-382.7"/>
<polygon fill="#000000" stroke="#000000" points="330.6295,-507.2665 337.8549,-512.2417 334.5647,-507.9832 338.5,-508.7 338.5,-508.7 338.5,-508.7 334.5647,-507.9832 339.1451,-505.1583 330.6295,-507.2665 330.6295,-507.2665"/>
<ellipse fill="none" stroke="#000000" cx="327.4813" cy="-506.693" rx="3.2" ry="3.2"/>
</g>
<!-- user_bans -->
<g id="node8" class="node">
<title>user_bans</title>
<g id="a_node8"><a xlink:href="../../tables/user_bans.html" xlink:title="user_bans" target="_top">
<polygon fill="#ffffff" stroke="transparent" points="341.5,-186.2 341.5,-291.2 435.5,-291.2 435.5,-186.2 341.5,-186.2"/>
<polygon fill="#f5f5f5" stroke="transparent" points="341.5,-267.7 341.5,-290.7 435.5,-290.7 435.5,-267.7 341.5,-267.7"/>
<polygon fill="none" stroke="#000000" points="341.5,-267.7 341.5,-290.7 435.5,-290.7 435.5,-267.7 341.5,-267.7"/>
<text text-anchor="start" x="346.3244" y="-276.8" font-family="Helvetica,sans-Serif" font-weight="bold" font-size="11.00" fill="#000000">user_bans</text>
<text text-anchor="start" x="401.0219" y="-275.8" font-family="Helvetica,sans-Serif" font-size="11.00" fill="#000000">[table]</text>
<polygon fill="none" stroke="#000000" points="341.5,-245.7 341.5,-267.7 435.5,-267.7 435.5,-245.7 341.5,-245.7"/>
<image xlink:href="../../images/primaryKeys.png" width="11px" height="12px" preserveAspectRatio="xMinYMin meet" x="346.5" y="-262.7"/>
<text text-anchor="start" x="364.5" y="-252.8" font-family="Helvetica,sans-Serif" font-size="11.00" fill="#000000">user_id</text>
<polygon fill="none" stroke="#000000" points="341.5,-223.7 341.5,-245.7 435.5,-245.7 435.5,-223.7 341.5,-223.7"/>
<image xlink:href="../../images/primaryKeys.png" width="11px" height="12px" preserveAspectRatio="xMinYMin meet" x="346.5" y="-240.7"/>
<text text-anchor="start" x="364.5" y="-230.8" font-family="Helvetica,sans-Serif" font-size="11.00" fill="#000000">chapter_id</text>
<polygon fill="none" stroke="#000000" points="341.5,-204.7 341.5,-223.7 435.5,-223.7 435.5,-204.7 341.5,-204.7"/>
<text text-anchor="start" x="344.5" y="-210.8" font-family="Helvetica,sans-Serif" font-size="11.00" fill="#000000">...</text>
<polygon fill="#ffffff" stroke="transparent" points="341.5,-185.7 341.5,-204.7 373.5,-204.7 373.5,-185.7 341.5,-185.7"/>
<polygon fill="none" stroke="#000000" points="341.5,-185.7 341.5,-204.7 373.5,-204.7 373.5,-185.7 341.5,-185.7"/>
<text text-anchor="start" x="344.5" y="-191.8" font-family="Helvetica,sans-Serif" font-size="11.00" fill="#000000">&lt; 2</text>
<polygon fill="#ffffff" stroke="transparent" points="373.5,-185.7 373.5,-204.7 417.5,-204.7 417.5,-185.7 373.5,-185.7"/>
<polygon fill="none" stroke="#000000" points="373.5,-185.7 373.5,-204.7 417.5,-204.7 417.5,-185.7 373.5,-185.7"/>
<text text-anchor="start" x="382.1105" y="-191.8" font-family="Helvetica,sans-Serif" font-size="11.00" fill="#000000">0 rows</text>
<polygon fill="#ffffff" stroke="transparent" points="417.5,-185.7 417.5,-204.7 435.5,-204.7 435.5,-185.7 417.5,-185.7"/>
<polygon fill="none" stroke="#000000" points="417.5,-185.7 417.5,-204.7 435.5,-204.7 435.5,-185.7 417.5,-185.7"/>
<text text-anchor="start" x="426.3862" y="-191.8" font-family="Helvetica,sans-Serif" font-size="11.00" fill="#000000"> &#160;</text>
</a>
</g>
</g>
<!-- user_bans&#45;&gt;chapters -->
<g id="edge9" class="edge">
<title>user_bans:w&#45;&gt;chapters:e</title>
<path fill="none" stroke="#000000" d="M326.9966,-234.7C234.1494,-234.7 205.6582,-234.7 106,-234.7"/>
<polygon fill="#000000" stroke="#000000" points="333.5,-234.7001 341.5,-238.3 337.5,-234.7 341.5,-234.7 341.5,-234.7 341.5,-234.7 337.5,-234.7 341.5,-231.1 333.5,-234.7001 333.5,-234.7001"/>
<ellipse fill="none" stroke="#000000" cx="330.3" cy="-234.7001" rx="3.2" ry="3.2"/>
</g>
<!-- user_bans&#45;&gt;users -->
<g id="edge10" class="edge">
<title>user_bans:w&#45;&gt;users:e</title>
<path fill="none" stroke="#000000" d="M327.1311,-259.2169C283.011,-276.9753 321.8723,-382.7 261,-382.7"/>
<polygon fill="#000000" stroke="#000000" points="333.62,-258.0803 342.1212,-260.246 337.56,-257.3902 341.5,-256.7 341.5,-256.7 341.5,-256.7 337.56,-257.3902 340.8788,-253.154 333.62,-258.0803 333.62,-258.0803"/>
<ellipse fill="none" stroke="#000000" cx="330.468" cy="-258.6325" rx="3.2" ry="3.2"/>
</g>
<!-- user_chapter_roles -->
<g id="node9" class="node">
<title>user_chapter_roles</title>
<g id="a_node9"><a xlink:href="../../tables/user_chapter_roles.html" xlink:title="user_chapter_roles" target="_top">
<polygon fill="#ffffff" stroke="transparent" points="320,-38.2 320,-165.2 457,-165.2 457,-38.2 320,-38.2"/>
<polygon fill="#f5f5f5" stroke="transparent" points="320.5,-141.7 320.5,-164.7 457.5,-164.7 457.5,-141.7 320.5,-141.7"/>
<polygon fill="none" stroke="#000000" points="320.5,-141.7 320.5,-164.7 457.5,-164.7 457.5,-141.7 320.5,-141.7"/>
<text text-anchor="start" x="325.4338" y="-150.8" font-family="Helvetica,sans-Serif" font-weight="bold" font-size="11.00" fill="#000000">user_chapter_roles</text>
<text text-anchor="start" x="423.0219" y="-149.8" font-family="Helvetica,sans-Serif" font-size="11.00" fill="#000000">[table]</text>
<polygon fill="none" stroke="#000000" points="320.5,-119.7 320.5,-141.7 457.5,-141.7 457.5,-119.7 320.5,-119.7"/>
<image xlink:href="../../images/primaryKeys.png" width="11px" height="12px" preserveAspectRatio="xMinYMin meet" x="325.5" y="-136.7"/>
<text text-anchor="start" x="342.5" y="-126.8" font-family="Helvetica,sans-Serif" font-size="11.00" fill="#000000">user_id</text>
<polygon fill="none" stroke="#000000" points="320.5,-97.7 320.5,-119.7 457.5,-119.7 457.5,-97.7 320.5,-97.7"/>
<image xlink:href="../../images/primaryKeys.png" width="11px" height="12px" preserveAspectRatio="xMinYMin meet" x="325.5" y="-114.7"/>
<text text-anchor="start" x="342.5" y="-104.8" font-family="Helvetica,sans-Serif" font-size="11.00" fill="#000000">chapter_id</text>
<polygon fill="none" stroke="#000000" points="320.5,-75.7 320.5,-97.7 457.5,-97.7 457.5,-75.7 320.5,-75.7"/>
<image xlink:href="../../images/primaryKeys.png" width="11px" height="12px" preserveAspectRatio="xMinYMin meet" x="325.5" y="-92.7"/>
<text text-anchor="start" x="342.5" y="-82.8" font-family="Helvetica,sans-Serif" font-size="11.00" fill="#000000">role_name</text>
<polygon fill="none" stroke="#000000" points="320.5,-56.7 320.5,-75.7 457.5,-75.7 457.5,-56.7 320.5,-56.7"/>
<text text-anchor="start" x="323.5" y="-62.8" font-family="Helvetica,sans-Serif" font-size="11.00" fill="#000000">...</text>
<polygon fill="#ffffff" stroke="transparent" points="320.5,-37.7 320.5,-56.7 374.5,-56.7 374.5,-37.7 320.5,-37.7"/>
<polygon fill="none" stroke="#000000" points="320.5,-37.7 320.5,-56.7 374.5,-56.7 374.5,-37.7 320.5,-37.7"/>
<text text-anchor="start" x="323.5" y="-43.8" font-family="Helvetica,sans-Serif" font-size="11.00" fill="#000000">&lt; 2</text>
<polygon fill="#ffffff" stroke="transparent" points="374.5,-37.7 374.5,-56.7 428.5,-56.7 428.5,-37.7 374.5,-37.7"/>
<polygon fill="none" stroke="#000000" points="374.5,-37.7 374.5,-56.7 428.5,-56.7 428.5,-37.7 374.5,-37.7"/>
<text text-anchor="start" x="393.1105" y="-43.8" font-family="Helvetica,sans-Serif" font-size="11.00" fill="#000000">0 rows</text>
<polygon fill="#ffffff" stroke="transparent" points="428.5,-37.7 428.5,-56.7 457.5,-56.7 457.5,-37.7 428.5,-37.7"/>
<polygon fill="none" stroke="#000000" points="428.5,-37.7 428.5,-56.7 457.5,-56.7 457.5,-37.7 428.5,-37.7"/>
<text text-anchor="start" x="448.3862" y="-43.8" font-family="Helvetica,sans-Serif" font-size="11.00" fill="#000000"> &#160;</text>
</a>
</g>
</g>
<!-- user_chapter_roles&#45;&gt;chapters -->
<g id="edge11" class="edge">
<title>user_chapter_roles:w&#45;&gt;chapters:e</title>
<path fill="none" stroke="#000000" d="M305.9938,-109.472C210.2974,-120.001 211.4895,-234.7 106,-234.7"/>
<polygon fill="#000000" stroke="#000000" points="312.5113,-109.1252 320.6913,-112.2949 316.5057,-108.9126 320.5,-108.7 320.5,-108.7 320.5,-108.7 316.5057,-108.9126 320.3087,-105.1051 312.5113,-109.1252 312.5113,-109.1252"/>
<ellipse fill="none" stroke="#000000" cx="309.3158" cy="-109.2952" rx="3.2" ry="3.2"/>
</g>
<!-- user_chapter_roles&#45;&gt;users -->
<g id="edge12" class="edge">
<title>user_chapter_roles:w&#45;&gt;users:e</title>
<path fill="none" stroke="#000000" d="M306.1416,-132.3092C220.7919,-153.7713 370.6852,-382.7 261,-382.7"/>
<polygon fill="#000000" stroke="#000000" points="312.5498,-131.5911 320.901,-134.2776 316.5249,-131.1455 320.5,-130.7 320.5,-130.7 320.5,-130.7 316.5249,-131.1455 320.099,-127.1224 312.5498,-131.5911 312.5498,-131.5911"/>
<ellipse fill="none" stroke="#000000" cx="309.3697" cy="-131.9475" rx="3.2" ry="3.2"/>
</g>
<!-- user_event_roles -->
<g id="node10" class="node">
<title>user_event_roles</title>
<g id="a_node10"><a xlink:href="../../tables/user_event_roles.html" xlink:title="user_event_roles" target="_top">
<polygon fill="#ffffff" stroke="transparent" points="325,-564.2 325,-691.2 452,-691.2 452,-564.2 325,-564.2"/>
<polygon fill="#f5f5f5" stroke="transparent" points="325.5,-667.7 325.5,-690.7 452.5,-690.7 452.5,-667.7 325.5,-667.7"/>
<polygon fill="none" stroke="#000000" points="325.5,-667.7 325.5,-690.7 452.5,-690.7 452.5,-667.7 325.5,-667.7"/>
<text text-anchor="start" x="330.3222" y="-676.8" font-family="Helvetica,sans-Serif" font-weight="bold" font-size="11.00" fill="#000000">user_event_roles</text>
<text text-anchor="start" x="418.0219" y="-675.8" font-family="Helvetica,sans-Serif" font-size="11.00" fill="#000000">[table]</text>
<polygon fill="none" stroke="#000000" points="325.5,-645.7 325.5,-667.7 452.5,-667.7 452.5,-645.7 325.5,-645.7"/>
<image xlink:href="../../images/primaryKeys.png" width="11px" height="12px" preserveAspectRatio="xMinYMin meet" x="330.5" y="-662.7"/>
<text text-anchor="start" x="349.5" y="-652.8" font-family="Helvetica,sans-Serif" font-size="11.00" fill="#000000">user_id</text>
<polygon fill="none" stroke="#000000" points="325.5,-623.7 325.5,-645.7 452.5,-645.7 452.5,-623.7 325.5,-623.7"/>
<image xlink:href="../../images/primaryKeys.png" width="11px" height="12px" preserveAspectRatio="xMinYMin meet" x="330.5" y="-640.7"/>
<text text-anchor="start" x="349.5" y="-630.8" font-family="Helvetica,sans-Serif" font-size="11.00" fill="#000000">event_id</text>
<polygon fill="none" stroke="#000000" points="325.5,-601.7 325.5,-623.7 452.5,-623.7 452.5,-601.7 325.5,-601.7"/>
<image xlink:href="../../images/primaryKeys.png" width="11px" height="12px" preserveAspectRatio="xMinYMin meet" x="330.5" y="-618.7"/>
<text text-anchor="start" x="349.5" y="-608.8" font-family="Helvetica,sans-Serif" font-size="11.00" fill="#000000">role_name</text>
<polygon fill="none" stroke="#000000" points="325.5,-582.7 325.5,-601.7 452.5,-601.7 452.5,-582.7 325.5,-582.7"/>
<text text-anchor="start" x="328.5" y="-588.8" font-family="Helvetica,sans-Serif" font-size="11.00" fill="#000000">...</text>
<polygon fill="#ffffff" stroke="transparent" points="325.5,-563.7 325.5,-582.7 374.5,-582.7 374.5,-563.7 325.5,-563.7"/>
<polygon fill="none" stroke="#000000" points="325.5,-563.7 325.5,-582.7 374.5,-582.7 374.5,-563.7 325.5,-563.7"/>
<text text-anchor="start" x="328.5" y="-569.8" font-family="Helvetica,sans-Serif" font-size="11.00" fill="#000000">&lt; 2</text>
<polygon fill="#ffffff" stroke="transparent" points="374.5,-563.7 374.5,-582.7 426.5,-582.7 426.5,-563.7 374.5,-563.7"/>
<polygon fill="none" stroke="#000000" points="374.5,-563.7 374.5,-582.7 426.5,-582.7 426.5,-563.7 374.5,-563.7"/>
<text text-anchor="start" x="391.1105" y="-569.8" font-family="Helvetica,sans-Serif" font-size="11.00" fill="#000000">0 rows</text>
<polygon fill="#ffffff" stroke="transparent" points="426.5,-563.7 426.5,-582.7 452.5,-582.7 452.5,-563.7 426.5,-563.7"/>
<polygon fill="none" stroke="#000000" points="426.5,-563.7 426.5,-582.7 452.5,-582.7 452.5,-563.7 426.5,-563.7"/>
<text text-anchor="start" x="443.3862" y="-569.8" font-family="Helvetica,sans-Serif" font-size="11.00" fill="#000000"> &#160;</text>
</a>
</g>
</g>
<!-- user_event_roles&#45;&gt;events -->
<g id="edge13" class="edge">
<title>user_event_roles:w&#45;&gt;events:e</title>
<path fill="none" stroke="#000000" d="M310.8944,-634.7C296.5775,-634.7 288.4219,-634.7 269,-634.7"/>
<polygon fill="#000000" stroke="#000000" points="317.5,-634.7001 325.5,-638.3 321.5,-634.7 325.5,-634.7 325.5,-634.7 325.5,-634.7 321.5,-634.7 325.5,-631.1 317.5,-634.7001 317.5,-634.7001"/>
<ellipse fill="none" stroke="#000000" cx="314.3" cy="-634.7001" rx="3.2" ry="3.2"/>
</g>
<!-- user_event_roles&#45;&gt;users -->
<g id="edge14" class="edge">
<title>user_event_roles:w&#45;&gt;users:e</title>
<path fill="none" stroke="#000000" d="M311.0453,-655.2258C215.7794,-633.659 380.7307,-382.7 261,-382.7"/>
<polygon fill="#000000" stroke="#000000" points="317.5413,-655.8883 325.1347,-660.2814 321.5206,-656.2941 325.5,-656.7 325.5,-656.7 325.5,-656.7 321.5206,-656.2941 325.8653,-653.1186 317.5413,-655.8883 317.5413,-655.8883"/>
<ellipse fill="none" stroke="#000000" cx="314.3578" cy="-655.5636" rx="3.2" ry="3.2"/>
</g>
<!-- user_instance_roles -->
<g id="node11" class="node">
<title>user_instance_roles</title>
<g id="a_node11"><a xlink:href="../../tables/user_instance_roles.html" xlink:title="user_instance_roles" target="_top">
<polygon fill="#ffffff" stroke="transparent" points="318,-312.2 318,-417.2 459,-417.2 459,-312.2 318,-312.2"/>
<polygon fill="#f5f5f5" stroke="transparent" points="318.5,-393.7 318.5,-416.7 459.5,-416.7 459.5,-393.7 318.5,-393.7"/>
<polygon fill="none" stroke="#000000" points="318.5,-393.7 318.5,-416.7 459.5,-416.7 459.5,-393.7 318.5,-393.7"/>
<text text-anchor="start" x="323.2943" y="-402.8" font-family="Helvetica,sans-Serif" font-weight="bold" font-size="11.00" fill="#000000">user_instance_roles</text>
<text text-anchor="start" x="425.0219" y="-401.8" font-family="Helvetica,sans-Serif" font-size="11.00" fill="#000000">[table]</text>
<polygon fill="none" stroke="#000000" points="318.5,-371.7 318.5,-393.7 459.5,-393.7 459.5,-371.7 318.5,-371.7"/>
<image xlink:href="../../images/primaryKeys.png" width="11px" height="12px" preserveAspectRatio="xMinYMin meet" x="323.5" y="-388.7"/>
<text text-anchor="start" x="340.5" y="-378.8" font-family="Helvetica,sans-Serif" font-size="11.00" fill="#000000">user_id</text>
<polygon fill="none" stroke="#000000" points="318.5,-349.7 318.5,-371.7 459.5,-371.7 459.5,-349.7 318.5,-349.7"/>
<image xlink:href="../../images/primaryKeys.png" width="11px" height="12px" preserveAspectRatio="xMinYMin meet" x="323.5" y="-366.7"/>
<text text-anchor="start" x="340.5" y="-356.8" font-family="Helvetica,sans-Serif" font-size="11.00" fill="#000000">role_name</text>
<polygon fill="none" stroke="#000000" points="318.5,-330.7 318.5,-349.7 459.5,-349.7 459.5,-330.7 318.5,-330.7"/>
<text text-anchor="start" x="321.5" y="-336.8" font-family="Helvetica,sans-Serif" font-size="11.00" fill="#000000">...</text>
<polygon fill="#ffffff" stroke="transparent" points="318.5,-311.7 318.5,-330.7 374.5,-330.7 374.5,-311.7 318.5,-311.7"/>
<polygon fill="none" stroke="#000000" points="318.5,-311.7 318.5,-330.7 374.5,-330.7 374.5,-311.7 318.5,-311.7"/>
<text text-anchor="start" x="321.5" y="-317.8" font-family="Helvetica,sans-Serif" font-size="11.00" fill="#000000">&lt; 1</text>
<polygon fill="#ffffff" stroke="transparent" points="374.5,-311.7 374.5,-330.7 429.5,-330.7 429.5,-311.7 374.5,-311.7"/>
<polygon fill="none" stroke="#000000" points="374.5,-311.7 374.5,-330.7 429.5,-330.7 429.5,-311.7 374.5,-311.7"/>
<text text-anchor="start" x="394.1105" y="-317.8" font-family="Helvetica,sans-Serif" font-size="11.00" fill="#000000">0 rows</text>
<polygon fill="#ffffff" stroke="transparent" points="429.5,-311.7 429.5,-330.7 459.5,-330.7 459.5,-311.7 429.5,-311.7"/>
<polygon fill="none" stroke="#000000" points="429.5,-311.7 429.5,-330.7 459.5,-330.7 459.5,-311.7 429.5,-311.7"/>
<text text-anchor="start" x="450.3862" y="-317.8" font-family="Helvetica,sans-Serif" font-size="11.00" fill="#000000"> &#160;</text>
</a>
</g>
</g>
<!-- user_instance_roles&#45;&gt;users -->
<g id="edge15" class="edge">
<title>user_instance_roles:w&#45;&gt;users:e</title>
<path fill="none" stroke="#000000" d="M304.0794,-382.7C289.2322,-382.7 280.9653,-382.7 261,-382.7"/>
<polygon fill="#000000" stroke="#000000" points="310.5,-382.7001 318.5,-386.3 314.5,-382.7 318.5,-382.7 318.5,-382.7 318.5,-382.7 314.5,-382.7 318.5,-379.1 310.5,-382.7001 310.5,-382.7001"/>
<ellipse fill="none" stroke="#000000" cx="307.3" cy="-382.7001" rx="3.2" ry="3.2"/>
</g>
</g>
</svg>
