<?xml version="1.0" encoding="UTF-8" standalone="no"?>
<!DOCTYPE svg PUBLIC "-//W3C//DTD SVG 1.1//EN"
 "http://www.w3.org/Graphics/SVG/1.1/DTD/svg11.dtd">
<!-- Generated by graphviz version 2.40.1 (20161225.0304)
 -->
<!-- Title: compactRelationshipsDiagram Pages: 1 -->
<svg width="664pt" height="807pt"
 viewBox="0.00 0.00 664.00 806.70" xmlns="http://www.w3.org/2000/svg" xmlns:xlink="http://www.w3.org/1999/xlink">
<g id="graph0" class="graph" transform="scale(1 1) rotate(0) translate(4 802.7)">
<title>compactRelationshipsDiagram</title>
<polygon fill="#ffffff" stroke="transparent" points="-4,4 -4,-802.7 660,-802.7 660,4 -4,4"/>
<text text-anchor="middle" x="72.4936" y="-7.3" font-family="Helvetica,sans-Serif" font-size="11.00" fill="#000000">Generated by SchemaSpy</text>
<!-- chapters -->
<g id="node1" class="node">
<title>chapters</title>
<g id="a_node1"><a xlink:href="../../tables/chapters.html" xlink:title="chapters" target="_top">
<polygon fill="#ffffff" stroke="transparent" points="171.5,-282.2 171.5,-387.2 259.5,-387.2 259.5,-282.2 171.5,-282.2"/>
<polygon fill="#f5f5f5" stroke="transparent" points="171.5,-363.7 171.5,-386.7 259.5,-386.7 259.5,-363.7 171.5,-363.7"/>
<polygon fill="none" stroke="#000000" points="171.5,-363.7 171.5,-386.7 259.5,-386.7 259.5,-363.7 171.5,-363.7"/>
<text text-anchor="start" x="176.5" y="-372.8" font-family="Helvetica,sans-Serif" font-weight="bold" font-size="11.00" fill="#000000">chapters</text>
<text text-anchor="start" x="224.5437" y="-371.8" font-family="Helvetica,sans-Serif" font-size="11.00" fill="#000000">[table]</text>
<polygon fill="none" stroke="#000000" points="171.5,-341.7 171.5,-363.7 259.5,-363.7 259.5,-341.7 171.5,-341.7"/>
<image xlink:href="../../images/primaryKeys.png" width="11px" height="12px" preserveAspectRatio="xMinYMin meet" x="176.5" y="-358.7"/>
<text text-anchor="start" x="191.5" y="-348.8" font-family="Helvetica,sans-Serif" font-size="11.00" fill="#000000">id</text>
<polygon fill="none" stroke="#000000" points="171.5,-319.7 171.5,-341.7 259.5,-341.7 259.5,-319.7 171.5,-319.7"/>
<image xlink:href="../../images/foreignKeys.png" width="11px" height="12px" preserveAspectRatio="xMinYMin meet" x="176.5" y="-336.7"/>
<text text-anchor="start" x="191.5" y="-326.8" font-family="Helvetica,sans-Serif" font-size="11.00" fill="#000000">creator_id</text>
<polygon fill="none" stroke="#000000" points="171.5,-300.7 171.5,-319.7 259.5,-319.7 259.5,-300.7 171.5,-300.7"/>
<text text-anchor="start" x="174.5" y="-306.8" font-family="Helvetica,sans-Serif" font-size="11.00" fill="#000000">...</text>
<polygon fill="#ffffff" stroke="transparent" points="171.5,-281.7 171.5,-300.7 196.5,-300.7 196.5,-281.7 171.5,-281.7"/>
<polygon fill="none" stroke="#000000" points="171.5,-281.7 171.5,-300.7 196.5,-300.7 196.5,-281.7 171.5,-281.7"/>
<text text-anchor="start" x="174.5" y="-287.8" font-family="Helvetica,sans-Serif" font-size="11.00" fill="#000000">&lt; 1</text>
<polygon fill="#ffffff" stroke="transparent" points="196.5,-281.7 196.5,-300.7 236.5,-300.7 236.5,-281.7 196.5,-281.7"/>
<polygon fill="none" stroke="#000000" points="196.5,-281.7 196.5,-300.7 236.5,-300.7 236.5,-281.7 196.5,-281.7"/>
<text text-anchor="start" x="201.1105" y="-287.8" font-family="Helvetica,sans-Serif" font-size="11.00" fill="#000000">0 rows</text>
<polygon fill="#ffffff" stroke="transparent" points="236.5,-281.7 236.5,-300.7 259.5,-300.7 259.5,-281.7 236.5,-281.7"/>
<polygon fill="none" stroke="#000000" points="236.5,-281.7 236.5,-300.7 259.5,-300.7 259.5,-281.7 236.5,-281.7"/>
<text text-anchor="start" x="240.9053" y="-287.8" font-family="Helvetica,sans-Serif" font-size="11.00" fill="#000000">3 &gt;</text>
</a>
</g>
</g>
<!-- users -->
<g id="node11" class="node">
<title>users</title>
<g id="a_node11"><a xlink:href="../../tables/users.html" xlink:title="users" target="_top">
<polygon fill="#ffffff" stroke="transparent" points="8,-402.2 8,-507.2 96,-507.2 96,-402.2 8,-402.2"/>
<polygon fill="#f5f5f5" stroke="transparent" points="8,-483.7 8,-506.7 96,-506.7 96,-483.7 8,-483.7"/>
<polygon fill="none" stroke="#000000" points="8,-483.7 8,-506.7 96,-506.7 96,-483.7 8,-483.7"/>
<text text-anchor="start" x="13" y="-492.8" font-family="Helvetica,sans-Serif" font-weight="bold" font-size="11.00" fill="#000000">users</text>
<text text-anchor="start" x="61.0437" y="-491.8" font-family="Helvetica,sans-Serif" font-size="11.00" fill="#000000">[table]</text>
<polygon fill="none" stroke="#000000" points="8,-461.7 8,-483.7 96,-483.7 96,-461.7 8,-461.7"/>
<image xlink:href="../../images/primaryKeys.png" width="11px" height="12px" preserveAspectRatio="xMinYMin meet" x="13" y="-478.7"/>
<text text-anchor="start" x="28" y="-468.8" font-family="Helvetica,sans-Serif" font-size="11.00" fill="#000000">id</text>
<polygon fill="#ffffff" stroke="transparent" points="8,-439.7 8,-461.7 96,-461.7 96,-439.7 8,-439.7"/>
<polygon fill="none" stroke="#000000" points="8,-439.7 8,-461.7 96,-461.7 96,-439.7 8,-439.7"/>
<text text-anchor="start" x="28" y="-446.8" font-family="Helvetica,sans-Serif" font-size="11.00" fill="#000000">email</text>
<polygon fill="none" stroke="#000000" points="8,-420.7 8,-439.7 96,-439.7 96,-420.7 8,-420.7"/>
<text text-anchor="start" x="11" y="-426.8" font-family="Helvetica,sans-Serif" font-size="11.00" fill="#000000">...</text>
<polygon fill="#ffffff" stroke="transparent" points="8,-401.7 8,-420.7 28,-420.7 28,-401.7 8,-401.7"/>
<polygon fill="none" stroke="#000000" points="8,-401.7 8,-420.7 28,-420.7 28,-401.7 8,-401.7"/>
<text text-anchor="start" x="11" y="-407.8" font-family="Helvetica,sans-Serif" font-size="11.00" fill="#000000"> &#160;</text>
<polygon fill="#ffffff" stroke="transparent" points="28,-401.7 28,-420.7 70,-420.7 70,-401.7 28,-401.7"/>
<polygon fill="none" stroke="#000000" points="28,-401.7 28,-420.7 70,-420.7 70,-401.7 28,-401.7"/>
<text text-anchor="start" x="34.6105" y="-407.8" font-family="Helvetica,sans-Serif" font-size="11.00" fill="#000000">0 rows</text>
<polygon fill="#ffffff" stroke="transparent" points="70,-401.7 70,-420.7 96,-420.7 96,-401.7 70,-401.7"/>
<polygon fill="none" stroke="#000000" points="70,-401.7 70,-420.7 96,-420.7 96,-401.7 70,-401.7"/>
<text text-anchor="start" x="77.4053" y="-407.8" font-family="Helvetica,sans-Serif" font-size="11.00" fill="#000000">6 &gt;</text>
</a>
</g>
</g>
<!-- chapters&#45;&gt;users -->
<g id="edge1" class="edge">
<title>chapters:w&#45;&gt;users:e</title>
<path fill="none" stroke="#000000" d="M157.159,-333.1647C109.7146,-352.0208 161.893,-472.7 96,-472.7"/>
<polygon fill="#000000" stroke="#000000" points="163.6156,-332.0551 172.1098,-334.248 167.5578,-331.3775 171.5,-330.7 171.5,-330.7 171.5,-330.7 167.5578,-331.3775 170.8902,-327.152 163.6156,-332.0551 163.6156,-332.0551"/>
<ellipse fill="none" stroke="#000000" cx="160.4618" cy="-332.5971" rx="3.2" ry="3.2"/>
</g>
<!-- event_sponsors -->
<g id="node2" class="node">
<title>event_sponsors</title>
<g id="a_node2"><a xlink:href="../../tables/event_sponsors.html" xlink:title="event_sponsors" target="_top">
<polygon fill="#ffffff" stroke="transparent" points="524.5,-359.2 524.5,-486.2 644.5,-486.2 644.5,-359.2 524.5,-359.2"/>
<polygon fill="#f5f5f5" stroke="transparent" points="524.5,-462.7 524.5,-485.7 644.5,-485.7 644.5,-462.7 524.5,-462.7"/>
<polygon fill="none" stroke="#000000" points="524.5,-462.7 524.5,-485.7 644.5,-485.7 644.5,-462.7 524.5,-462.7"/>
<text text-anchor="start" x="529.181" y="-471.8" font-family="Helvetica,sans-Serif" font-weight="bold" font-size="11.00" fill="#000000">event_sponsors</text>
<text text-anchor="start" x="610.0219" y="-470.8" font-family="Helvetica,sans-Serif" font-size="11.00" fill="#000000">[table]</text>
<polygon fill="none" stroke="#000000" points="524.5,-440.7 524.5,-462.7 644.5,-462.7 644.5,-440.7 524.5,-440.7"/>
<image xlink:href="../../images/primaryKeys.png" width="11px" height="12px" preserveAspectRatio="xMinYMin meet" x="529.5" y="-457.7"/>
<text text-anchor="start" x="548.5" y="-447.8" font-family="Helvetica,sans-Serif" font-size="11.00" fill="#000000">id</text>
<polygon fill="none" stroke="#000000" points="524.5,-418.7 524.5,-440.7 644.5,-440.7 644.5,-418.7 524.5,-418.7"/>
<image xlink:href="../../images/foreignKeys.png" width="11px" height="12px" preserveAspectRatio="xMinYMin meet" x="529.5" y="-435.7"/>
<text text-anchor="start" x="548.5" y="-425.8" font-family="Helvetica,sans-Serif" font-size="11.00" fill="#000000">sponsor_id</text>
<polygon fill="none" stroke="#000000" points="524.5,-396.7 524.5,-418.7 644.5,-418.7 644.5,-396.7 524.5,-396.7"/>
<image xlink:href="../../images/foreignKeys.png" width="11px" height="12px" preserveAspectRatio="xMinYMin meet" x="529.5" y="-413.7"/>
<text text-anchor="start" x="548.5" y="-403.8" font-family="Helvetica,sans-Serif" font-size="11.00" fill="#000000">event_id</text>
<polygon fill="none" stroke="#000000" points="524.5,-377.7 524.5,-396.7 644.5,-396.7 644.5,-377.7 524.5,-377.7"/>
<text text-anchor="start" x="527.5" y="-383.8" font-family="Helvetica,sans-Serif" font-size="11.00" fill="#000000">...</text>
<polygon fill="#ffffff" stroke="transparent" points="524.5,-358.7 524.5,-377.7 569.5,-377.7 569.5,-358.7 524.5,-358.7"/>
<polygon fill="none" stroke="#000000" points="524.5,-358.7 524.5,-377.7 569.5,-377.7 569.5,-358.7 524.5,-358.7"/>
<text text-anchor="start" x="527.5" y="-364.8" font-family="Helvetica,sans-Serif" font-size="11.00" fill="#000000">&lt; 2</text>
<polygon fill="#ffffff" stroke="transparent" points="569.5,-358.7 569.5,-377.7 619.5,-377.7 619.5,-358.7 569.5,-358.7"/>
<polygon fill="none" stroke="#000000" points="569.5,-358.7 569.5,-377.7 619.5,-377.7 619.5,-358.7 569.5,-358.7"/>
<text text-anchor="start" x="584.1105" y="-364.8" font-family="Helvetica,sans-Serif" font-size="11.00" fill="#000000">0 rows</text>
<polygon fill="#ffffff" stroke="transparent" points="619.5,-358.7 619.5,-377.7 644.5,-377.7 644.5,-358.7 619.5,-358.7"/>
<polygon fill="none" stroke="#000000" points="619.5,-358.7 619.5,-377.7 644.5,-377.7 644.5,-358.7 619.5,-358.7"/>
<text text-anchor="start" x="635.3862" y="-364.8" font-family="Helvetica,sans-Serif" font-size="11.00" fill="#000000"> &#160;</text>
</a>
</g>
</g>
<!-- events -->
<g id="node3" class="node">
<title>events</title>
<g id="a_node3"><a xlink:href="../../tables/events.html" xlink:title="events" target="_top">
<polygon fill="#ffffff" stroke="transparent" points="351.5,-111.2 351.5,-238.2 455.5,-238.2 455.5,-111.2 351.5,-111.2"/>
<polygon fill="#f5f5f5" stroke="transparent" points="351.5,-214.7 351.5,-237.7 455.5,-237.7 455.5,-214.7 351.5,-214.7"/>
<polygon fill="none" stroke="#000000" points="351.5,-214.7 351.5,-237.7 455.5,-237.7 455.5,-214.7 351.5,-214.7"/>
<text text-anchor="start" x="356.5" y="-223.8" font-family="Helvetica,sans-Serif" font-weight="bold" font-size="11.00" fill="#000000">events</text>
<text text-anchor="start" x="420.5437" y="-222.8" font-family="Helvetica,sans-Serif" font-size="11.00" fill="#000000">[table]</text>
<polygon fill="none" stroke="#000000" points="351.5,-192.7 351.5,-214.7 455.5,-214.7 455.5,-192.7 351.5,-192.7"/>
<image xlink:href="../../images/primaryKeys.png" width="11px" height="12px" preserveAspectRatio="xMinYMin meet" x="356.5" y="-209.7"/>
<text text-anchor="start" x="371.5" y="-199.8" font-family="Helvetica,sans-Serif" font-size="11.00" fill="#000000">id</text>
<polygon fill="none" stroke="#000000" points="351.5,-170.7 351.5,-192.7 455.5,-192.7 455.5,-170.7 351.5,-170.7"/>
<image xlink:href="../../images/foreignKeys.png" width="11px" height="12px" preserveAspectRatio="xMinYMin meet" x="356.5" y="-187.7"/>
<text text-anchor="start" x="371.5" y="-177.8" font-family="Helvetica,sans-Serif" font-size="11.00" fill="#000000">venue_id</text>
<polygon fill="none" stroke="#000000" points="351.5,-148.7 351.5,-170.7 455.5,-170.7 455.5,-148.7 351.5,-148.7"/>
<image xlink:href="../../images/foreignKeys.png" width="11px" height="12px" preserveAspectRatio="xMinYMin meet" x="356.5" y="-165.7"/>
<text text-anchor="start" x="371.5" y="-155.8" font-family="Helvetica,sans-Serif" font-size="11.00" fill="#000000">chapter_id</text>
<polygon fill="none" stroke="#000000" points="351.5,-129.7 351.5,-148.7 455.5,-148.7 455.5,-129.7 351.5,-129.7"/>
<text text-anchor="start" x="354.5" y="-135.8" font-family="Helvetica,sans-Serif" font-size="11.00" fill="#000000">...</text>
<polygon fill="#ffffff" stroke="transparent" points="351.5,-110.7 351.5,-129.7 384.5,-129.7 384.5,-110.7 351.5,-110.7"/>
<polygon fill="none" stroke="#000000" points="351.5,-110.7 351.5,-129.7 384.5,-129.7 384.5,-110.7 351.5,-110.7"/>
<text text-anchor="start" x="354.5" y="-116.8" font-family="Helvetica,sans-Serif" font-size="11.00" fill="#000000">&lt; 2</text>
<polygon fill="#ffffff" stroke="transparent" points="384.5,-110.7 384.5,-129.7 428.5,-129.7 428.5,-110.7 384.5,-110.7"/>
<polygon fill="none" stroke="#000000" points="384.5,-110.7 384.5,-129.7 428.5,-129.7 428.5,-110.7 384.5,-110.7"/>
<text text-anchor="start" x="393.1105" y="-116.8" font-family="Helvetica,sans-Serif" font-size="11.00" fill="#000000">0 rows</text>
<polygon fill="#ffffff" stroke="transparent" points="428.5,-110.7 428.5,-129.7 455.5,-129.7 455.5,-110.7 428.5,-110.7"/>
<polygon fill="none" stroke="#000000" points="428.5,-110.7 428.5,-129.7 455.5,-129.7 455.5,-110.7 428.5,-110.7"/>
<text text-anchor="start" x="436.9053" y="-116.8" font-family="Helvetica,sans-Serif" font-size="11.00" fill="#000000">4 &gt;</text>
</a>
</g>
</g>
<!-- event_sponsors&#45;&gt;events -->
<g id="edge2" class="edge">
<title>event_sponsors:w&#45;&gt;events:e</title>
<path fill="none" stroke="#000000" d="M509.8345,-405.6809C442.3852,-384.4941 545.6044,-203.7 455.5,-203.7"/>
<polygon fill="#000000" stroke="#000000" points="516.5748,-406.6089 524.009,-411.2664 520.5374,-407.1544 524.5,-407.7 524.5,-407.7 524.5,-407.7 520.5374,-407.1544 524.991,-404.1336 516.5748,-406.6089 516.5748,-406.6089"/>
<ellipse fill="none" stroke="#000000" cx="513.4047" cy="-406.1724" rx="3.2" ry="3.2"/>
</g>
<!-- sponsors -->
<g id="node5" class="node">
<title>sponsors</title>
<g id="a_node5"><a xlink:href="../../tables/sponsors.html" xlink:title="sponsors" target="_top">
<polygon fill="#ffffff" stroke="transparent" points="359.5,-429.2 359.5,-512.2 447.5,-512.2 447.5,-429.2 359.5,-429.2"/>
<polygon fill="#f5f5f5" stroke="transparent" points="359.5,-488.7 359.5,-511.7 447.5,-511.7 447.5,-488.7 359.5,-488.7"/>
<polygon fill="none" stroke="#000000" points="359.5,-488.7 359.5,-511.7 447.5,-511.7 447.5,-488.7 359.5,-488.7"/>
<text text-anchor="start" x="364.5" y="-497.8" font-family="Helvetica,sans-Serif" font-weight="bold" font-size="11.00" fill="#000000">sponsors</text>
<text text-anchor="start" x="413.0219" y="-496.8" font-family="Helvetica,sans-Serif" font-size="11.00" fill="#000000">[table]</text>
<polygon fill="none" stroke="#000000" points="359.5,-466.7 359.5,-488.7 447.5,-488.7 447.5,-466.7 359.5,-466.7"/>
<image xlink:href="../../images/primaryKeys.png" width="11px" height="12px" preserveAspectRatio="xMinYMin meet" x="364.5" y="-483.7"/>
<text text-anchor="start" x="379.5" y="-473.8" font-family="Helvetica,sans-Serif" font-size="11.00" fill="#000000">id</text>
<polygon fill="none" stroke="#000000" points="359.5,-447.7 359.5,-466.7 447.5,-466.7 447.5,-447.7 359.5,-447.7"/>
<text text-anchor="start" x="362.5" y="-453.8" font-family="Helvetica,sans-Serif" font-size="11.00" fill="#000000">...</text>
<polygon fill="#ffffff" stroke="transparent" points="359.5,-428.7 359.5,-447.7 379.5,-447.7 379.5,-428.7 359.5,-428.7"/>
<polygon fill="none" stroke="#000000" points="359.5,-428.7 359.5,-447.7 379.5,-447.7 379.5,-428.7 359.5,-428.7"/>
<text text-anchor="start" x="362.5" y="-434.8" font-family="Helvetica,sans-Serif" font-size="11.00" fill="#000000"> &#160;</text>
<polygon fill="#ffffff" stroke="transparent" points="379.5,-428.7 379.5,-447.7 421.5,-447.7 421.5,-428.7 379.5,-428.7"/>
<polygon fill="none" stroke="#000000" points="379.5,-428.7 379.5,-447.7 421.5,-447.7 421.5,-428.7 379.5,-428.7"/>
<text text-anchor="start" x="386.1105" y="-434.8" font-family="Helvetica,sans-Serif" font-size="11.00" fill="#000000">0 rows</text>
<polygon fill="#ffffff" stroke="transparent" points="421.5,-428.7 421.5,-447.7 447.5,-447.7 447.5,-428.7 421.5,-428.7"/>
<polygon fill="none" stroke="#000000" points="421.5,-428.7 421.5,-447.7 447.5,-447.7 447.5,-428.7 421.5,-428.7"/>
<text text-anchor="start" x="428.9053" y="-434.8" font-family="Helvetica,sans-Serif" font-size="11.00" fill="#000000">1 &gt;</text>
</a>
</g>
</g>
<!-- event_sponsors&#45;&gt;sponsors -->
<g id="edge3" class="edge">
<title>event_sponsors:w&#45;&gt;sponsors:e</title>
<path fill="none" stroke="#000000" d="M510.2011,-432.1463C484.35,-441.9278 482.3136,-477.7 447.5,-477.7"/>
<polygon fill="#000000" stroke="#000000" points="516.6146,-431.0491 525.1071,-433.2484 520.5573,-430.3746 524.5,-429.7 524.5,-429.7 524.5,-429.7 520.5573,-430.3746 523.8929,-426.1516 516.6146,-431.0491 516.6146,-431.0491"/>
<ellipse fill="none" stroke="#000000" cx="513.4604" cy="-431.5888" rx="3.2" ry="3.2"/>
</g>
<!-- events&#45;&gt;chapters -->
<g id="edge4" class="edge">
<title>events:w&#45;&gt;chapters:e</title>
<path fill="none" stroke="#000000" d="M337.1413,-161.4874C266.9629,-180.9441 349.1426,-352.7 259.5,-352.7"/>
<polygon fill="#000000" stroke="#000000" points="343.5613,-160.6883 351.9447,-163.2724 347.5306,-160.1941 351.5,-159.7 351.5,-159.7 351.5,-159.7 347.5306,-160.1941 351.0553,-156.1276 343.5613,-160.6883 343.5613,-160.6883"/>
<ellipse fill="none" stroke="#000000" cx="340.3858" cy="-161.0836" rx="3.2" ry="3.2"/>
</g>
<!-- venues -->
<g id="node12" class="node">
<title>venues</title>
<g id="a_node12"><a xlink:href="../../tables/venues.html" xlink:title="venues" target="_top">
<polygon fill="#ffffff" stroke="transparent" points="161.5,-133.2 161.5,-216.2 269.5,-216.2 269.5,-133.2 161.5,-133.2"/>
<polygon fill="#f5f5f5" stroke="transparent" points="161.5,-192.7 161.5,-215.7 269.5,-215.7 269.5,-192.7 161.5,-192.7"/>
<polygon fill="none" stroke="#000000" points="161.5,-192.7 161.5,-215.7 269.5,-215.7 269.5,-192.7 161.5,-192.7"/>
<text text-anchor="start" x="166.5" y="-201.8" font-family="Helvetica,sans-Serif" font-weight="bold" font-size="11.00" fill="#000000">venues</text>
<text text-anchor="start" x="234.5437" y="-200.8" font-family="Helvetica,sans-Serif" font-size="11.00" fill="#000000">[table]</text>
<polygon fill="none" stroke="#000000" points="161.5,-170.7 161.5,-192.7 269.5,-192.7 269.5,-170.7 161.5,-170.7"/>
<image xlink:href="../../images/primaryKeys.png" width="11px" height="12px" preserveAspectRatio="xMinYMin meet" x="166.5" y="-187.7"/>
<text text-anchor="start" x="181.5" y="-177.8" font-family="Helvetica,sans-Serif" font-size="11.00" fill="#000000">id</text>
<polygon fill="none" stroke="#000000" points="161.5,-151.7 161.5,-170.7 269.5,-170.7 269.5,-151.7 161.5,-151.7"/>
<text text-anchor="start" x="164.5" y="-157.8" font-family="Helvetica,sans-Serif" font-size="11.00" fill="#000000">...</text>
<polygon fill="#ffffff" stroke="transparent" points="161.5,-132.7 161.5,-151.7 191.5,-151.7 191.5,-132.7 161.5,-132.7"/>
<polygon fill="none" stroke="#000000" points="161.5,-132.7 161.5,-151.7 191.5,-151.7 191.5,-132.7 161.5,-132.7"/>
<text text-anchor="start" x="164.5" y="-138.8" font-family="Helvetica,sans-Serif" font-size="11.00" fill="#000000"> &#160;</text>
<polygon fill="#ffffff" stroke="transparent" points="191.5,-132.7 191.5,-151.7 238.5,-151.7 238.5,-132.7 191.5,-132.7"/>
<polygon fill="none" stroke="#000000" points="191.5,-132.7 191.5,-151.7 238.5,-151.7 238.5,-132.7 191.5,-132.7"/>
<text text-anchor="start" x="203.1105" y="-138.8" font-family="Helvetica,sans-Serif" font-size="11.00" fill="#000000">0 rows</text>
<polygon fill="#ffffff" stroke="transparent" points="238.5,-132.7 238.5,-151.7 269.5,-151.7 269.5,-132.7 238.5,-132.7"/>
<polygon fill="none" stroke="#000000" points="238.5,-132.7 238.5,-151.7 269.5,-151.7 269.5,-132.7 238.5,-132.7"/>
<text text-anchor="start" x="250.9053" y="-138.8" font-family="Helvetica,sans-Serif" font-size="11.00" fill="#000000">1 &gt;</text>
</a>
</g>
</g>
<!-- events&#45;&gt;venues -->
<g id="edge5" class="edge">
<title>events:w&#45;&gt;venues:e</title>
<path fill="none" stroke="#000000" d="M336.8988,-181.7C311.7484,-181.7 300.5347,-181.7 269.5,-181.7"/>
<polygon fill="#000000" stroke="#000000" points="343.5,-181.7001 351.5,-185.3 347.5,-181.7 351.5,-181.7 351.5,-181.7 351.5,-181.7 347.5,-181.7 351.5,-178.1 343.5,-181.7001 343.5,-181.7001"/>
<ellipse fill="none" stroke="#000000" cx="340.3" cy="-181.7001" rx="3.2" ry="3.2"/>
</g>
<!-- rsvps -->
<g id="node4" class="node">
<title>rsvps</title>
<g id="a_node4"><a xlink:href="../../tables/rsvps.html" xlink:title="rsvps" target="_top">
<polygon fill="#ffffff" stroke="transparent" points="534.5,-38.2 534.5,-165.2 634.5,-165.2 634.5,-38.2 534.5,-38.2"/>
<polygon fill="#f5f5f5" stroke="transparent" points="534.5,-141.7 534.5,-164.7 634.5,-164.7 634.5,-141.7 534.5,-141.7"/>
<polygon fill="none" stroke="#000000" points="534.5,-141.7 534.5,-164.7 634.5,-164.7 634.5,-141.7 534.5,-141.7"/>
<text text-anchor="start" x="539.5" y="-150.8" font-family="Helvetica,sans-Serif" font-weight="bold" font-size="11.00" fill="#000000">rsvps</text>
<text text-anchor="start" x="599.5437" y="-149.8" font-family="Helvetica,sans-Serif" font-size="11.00" fill="#000000">[table]</text>
<polygon fill="none" stroke="#000000" points="534.5,-119.7 534.5,-141.7 634.5,-141.7 634.5,-119.7 534.5,-119.7"/>
<image xlink:href="../../images/primaryKeys.png" width="11px" height="12px" preserveAspectRatio="xMinYMin meet" x="539.5" y="-136.7"/>
<text text-anchor="start" x="554.5" y="-126.8" font-family="Helvetica,sans-Serif" font-size="11.00" fill="#000000">id</text>
<polygon fill="none" stroke="#000000" points="534.5,-97.7 534.5,-119.7 634.5,-119.7 634.5,-97.7 534.5,-97.7"/>
<image xlink:href="../../images/foreignKeys.png" width="11px" height="12px" preserveAspectRatio="xMinYMin meet" x="539.5" y="-114.7"/>
<text text-anchor="start" x="554.5" y="-104.8" font-family="Helvetica,sans-Serif" font-size="11.00" fill="#000000">event_id</text>
<polygon fill="none" stroke="#000000" points="534.5,-75.7 534.5,-97.7 634.5,-97.7 634.5,-75.7 534.5,-75.7"/>
<image xlink:href="../../images/foreignKeys.png" width="11px" height="12px" preserveAspectRatio="xMinYMin meet" x="539.5" y="-92.7"/>
<text text-anchor="start" x="554.5" y="-82.8" font-family="Helvetica,sans-Serif" font-size="11.00" fill="#000000">user_id</text>
<polygon fill="none" stroke="#000000" points="534.5,-56.7 534.5,-75.7 634.5,-75.7 634.5,-56.7 534.5,-56.7"/>
<text text-anchor="start" x="537.5" y="-62.8" font-family="Helvetica,sans-Serif" font-size="11.00" fill="#000000">...</text>
<polygon fill="#ffffff" stroke="transparent" points="534.5,-37.7 534.5,-56.7 569.5,-56.7 569.5,-37.7 534.5,-37.7"/>
<polygon fill="none" stroke="#000000" points="534.5,-37.7 534.5,-56.7 569.5,-56.7 569.5,-37.7 534.5,-37.7"/>
<text text-anchor="start" x="537.5" y="-43.8" font-family="Helvetica,sans-Serif" font-size="11.00" fill="#000000">&lt; 2</text>
<polygon fill="#ffffff" stroke="transparent" points="569.5,-37.7 569.5,-56.7 614.5,-56.7 614.5,-37.7 569.5,-37.7"/>
<polygon fill="none" stroke="#000000" points="569.5,-37.7 569.5,-56.7 614.5,-56.7 614.5,-37.7 569.5,-37.7"/>
<text text-anchor="start" x="579.1105" y="-43.8" font-family="Helvetica,sans-Serif" font-size="11.00" fill="#000000">0 rows</text>
<polygon fill="#ffffff" stroke="transparent" points="614.5,-37.7 614.5,-56.7 634.5,-56.7 634.5,-37.7 614.5,-37.7"/>
<polygon fill="none" stroke="#000000" points="614.5,-37.7 614.5,-56.7 634.5,-56.7 634.5,-37.7 614.5,-37.7"/>
<text text-anchor="start" x="625.3862" y="-43.8" font-family="Helvetica,sans-Serif" font-size="11.00" fill="#000000"> &#160;</text>
</a>
</g>
</g>
<!-- rsvps&#45;&gt;events -->
<g id="edge6" class="edge">
<title>rsvps:w&#45;&gt;events:e</title>
<path fill="none" stroke="#000000" d="M520.2421,-111.4407C484.9637,-127.017 504.8365,-203.7 455.5,-203.7"/>
<polygon fill="#000000" stroke="#000000" points="526.6438,-110.2102 535.1796,-112.2353 530.5719,-109.4551 534.5,-108.7 534.5,-108.7 534.5,-108.7 530.5719,-109.4551 533.8204,-105.1647 526.6438,-110.2102 526.6438,-110.2102"/>
<ellipse fill="none" stroke="#000000" cx="523.5014" cy="-110.8143" rx="3.2" ry="3.2"/>
</g>
<!-- rsvps&#45;&gt;users -->
<g id="edge7" class="edge">
<title>rsvps:w&#45;&gt;users:e</title>
<path fill="none" stroke="#000000" d="M519.8786,-86.4989C351.8209,-81.8927 259.0238,-.839 137,-122.7 81.5898,-178.0363 174.3096,-472.7 96,-472.7"/>
<polygon fill="#000000" stroke="#000000" points="526.5008,-86.5899 534.4505,-90.2997 530.5004,-86.645 534.5,-86.7 534.5,-86.7 534.5,-86.7 530.5004,-86.645 534.5495,-83.1003 526.5008,-86.5899 526.5008,-86.5899"/>
<ellipse fill="none" stroke="#000000" cx="523.3011" cy="-86.5459" rx="3.2" ry="3.2"/>
</g>
<!-- tags -->
<g id="node6" class="node">
<title>tags</title>
<g id="a_node6"><a xlink:href="../../tables/tags.html" xlink:title="tags" target="_top">
<polygon fill="#ffffff" stroke="transparent" points="540.5,-186.2 540.5,-291.2 628.5,-291.2 628.5,-186.2 540.5,-186.2"/>
<polygon fill="#f5f5f5" stroke="transparent" points="540.5,-267.7 540.5,-290.7 628.5,-290.7 628.5,-267.7 540.5,-267.7"/>
<polygon fill="none" stroke="#000000" points="540.5,-267.7 540.5,-290.7 628.5,-290.7 628.5,-267.7 540.5,-267.7"/>
<text text-anchor="start" x="545.5" y="-276.8" font-family="Helvetica,sans-Serif" font-weight="bold" font-size="11.00" fill="#000000">tags</text>
<text text-anchor="start" x="593.5437" y="-275.8" font-family="Helvetica,sans-Serif" font-size="11.00" fill="#000000">[table]</text>
<polygon fill="none" stroke="#000000" points="540.5,-245.7 540.5,-267.7 628.5,-267.7 628.5,-245.7 540.5,-245.7"/>
<image xlink:href="../../images/primaryKeys.png" width="11px" height="12px" preserveAspectRatio="xMinYMin meet" x="545.5" y="-262.7"/>
<text text-anchor="start" x="560.5" y="-252.8" font-family="Helvetica,sans-Serif" font-size="11.00" fill="#000000">id</text>
<polygon fill="none" stroke="#000000" points="540.5,-223.7 540.5,-245.7 628.5,-245.7 628.5,-223.7 540.5,-223.7"/>
<image xlink:href="../../images/foreignKeys.png" width="11px" height="12px" preserveAspectRatio="xMinYMin meet" x="545.5" y="-240.7"/>
<text text-anchor="start" x="560.5" y="-230.8" font-family="Helvetica,sans-Serif" font-size="11.00" fill="#000000">event_id</text>
<polygon fill="none" stroke="#000000" points="540.5,-204.7 540.5,-223.7 628.5,-223.7 628.5,-204.7 540.5,-204.7"/>
<text text-anchor="start" x="543.5" y="-210.8" font-family="Helvetica,sans-Serif" font-size="11.00" fill="#000000">...</text>
<polygon fill="#ffffff" stroke="transparent" points="540.5,-185.7 540.5,-204.7 569.5,-204.7 569.5,-185.7 540.5,-185.7"/>
<polygon fill="none" stroke="#000000" points="540.5,-185.7 540.5,-204.7 569.5,-204.7 569.5,-185.7 540.5,-185.7"/>
<text text-anchor="start" x="543.5" y="-191.8" font-family="Helvetica,sans-Serif" font-size="11.00" fill="#000000">&lt; 1</text>
<polygon fill="#ffffff" stroke="transparent" points="569.5,-185.7 569.5,-204.7 611.5,-204.7 611.5,-185.7 569.5,-185.7"/>
<polygon fill="none" stroke="#000000" points="569.5,-185.7 569.5,-204.7 611.5,-204.7 611.5,-185.7 569.5,-185.7"/>
<text text-anchor="start" x="576.1105" y="-191.8" font-family="Helvetica,sans-Serif" font-size="11.00" fill="#000000">0 rows</text>
<polygon fill="#ffffff" stroke="transparent" points="611.5,-185.7 611.5,-204.7 628.5,-204.7 628.5,-185.7 611.5,-185.7"/>
<polygon fill="none" stroke="#000000" points="611.5,-185.7 611.5,-204.7 628.5,-204.7 628.5,-185.7 611.5,-185.7"/>
<text text-anchor="start" x="619.3862" y="-191.8" font-family="Helvetica,sans-Serif" font-size="11.00" fill="#000000"> &#160;</text>
</a>
</g>
</g>
<!-- tags&#45;&gt;events -->
<g id="edge8" class="edge">
<title>tags:w&#45;&gt;events:e</title>
<path fill="none" stroke="#000000" d="M525.823,-233.1201C498.3708,-226.8029 490.2141,-203.7 455.5,-203.7"/>
<polygon fill="#000000" stroke="#000000" points="532.546,-233.8437 540.1147,-238.2793 536.523,-234.2719 540.5,-234.7 540.5,-234.7 540.5,-234.7 536.523,-234.2719 540.8853,-231.1207 532.546,-233.8437 532.546,-233.8437"/>
<ellipse fill="none" stroke="#000000" cx="529.3643" cy="-233.5012" rx="3.2" ry="3.2"/>
</g>
<!-- user_bans -->
<g id="node7" class="node">
<title>user_bans</title>
<g id="a_node7"><a xlink:href="../../tables/user_bans.html" xlink:title="user_bans" target="_top">
<polygon fill="#ffffff" stroke="transparent" points="356.5,-533.2 356.5,-660.2 450.5,-660.2 450.5,-533.2 356.5,-533.2"/>
<polygon fill="#f5f5f5" stroke="transparent" points="356.5,-636.7 356.5,-659.7 450.5,-659.7 450.5,-636.7 356.5,-636.7"/>
<polygon fill="none" stroke="#000000" points="356.5,-636.7 356.5,-659.7 450.5,-659.7 450.5,-636.7 356.5,-636.7"/>
<text text-anchor="start" x="361.3244" y="-645.8" font-family="Helvetica,sans-Serif" font-weight="bold" font-size="11.00" fill="#000000">user_bans</text>
<text text-anchor="start" x="416.0219" y="-644.8" font-family="Helvetica,sans-Serif" font-size="11.00" fill="#000000">[table]</text>
<polygon fill="none" stroke="#000000" points="356.5,-614.7 356.5,-636.7 450.5,-636.7 450.5,-614.7 356.5,-614.7"/>
<image xlink:href="../../images/primaryKeys.png" width="11px" height="12px" preserveAspectRatio="xMinYMin meet" x="361.5" y="-631.7"/>
<text text-anchor="start" x="379.5" y="-621.8" font-family="Helvetica,sans-Serif" font-size="11.00" fill="#000000">id</text>
<polygon fill="none" stroke="#000000" points="356.5,-592.7 356.5,-614.7 450.5,-614.7 450.5,-592.7 356.5,-592.7"/>
<image xlink:href="../../images/foreignKeys.png" width="11px" height="12px" preserveAspectRatio="xMinYMin meet" x="361.5" y="-609.7"/>
<text text-anchor="start" x="379.5" y="-599.8" font-family="Helvetica,sans-Serif" font-size="11.00" fill="#000000">user_id</text>
<polygon fill="none" stroke="#000000" points="356.5,-570.7 356.5,-592.7 450.5,-592.7 450.5,-570.7 356.5,-570.7"/>
<image xlink:href="../../images/foreignKeys.png" width="11px" height="12px" preserveAspectRatio="xMinYMin meet" x="361.5" y="-587.7"/>
<text text-anchor="start" x="379.5" y="-577.8" font-family="Helvetica,sans-Serif" font-size="11.00" fill="#000000">chapter_id</text>
<polygon fill="none" stroke="#000000" points="356.5,-551.7 356.5,-570.7 450.5,-570.7 450.5,-551.7 356.5,-551.7"/>
<text text-anchor="start" x="359.5" y="-557.8" font-family="Helvetica,sans-Serif" font-size="11.00" fill="#000000">...</text>
<polygon fill="#ffffff" stroke="transparent" points="356.5,-532.7 356.5,-551.7 388.5,-551.7 388.5,-532.7 356.5,-532.7"/>
<polygon fill="none" stroke="#000000" points="356.5,-532.7 356.5,-551.7 388.5,-551.7 388.5,-532.7 356.5,-532.7"/>
<text text-anchor="start" x="359.5" y="-538.8" font-family="Helvetica,sans-Serif" font-size="11.00" fill="#000000">&lt; 2</text>
<polygon fill="#ffffff" stroke="transparent" points="388.5,-532.7 388.5,-551.7 432.5,-551.7 432.5,-532.7 388.5,-532.7"/>
<polygon fill="none" stroke="#000000" points="388.5,-532.7 388.5,-551.7 432.5,-551.7 432.5,-532.7 388.5,-532.7"/>
<text text-anchor="start" x="397.1105" y="-538.8" font-family="Helvetica,sans-Serif" font-size="11.00" fill="#000000">0 rows</text>
<polygon fill="#ffffff" stroke="transparent" points="432.5,-532.7 432.5,-551.7 450.5,-551.7 450.5,-532.7 432.5,-532.7"/>
<polygon fill="none" stroke="#000000" points="432.5,-532.7 432.5,-551.7 450.5,-551.7 450.5,-532.7 432.5,-532.7"/>
<text text-anchor="start" x="441.3862" y="-538.8" font-family="Helvetica,sans-Serif" font-size="11.00" fill="#000000"> &#160;</text>
</a>
</g>
</g>
<!-- user_bans&#45;&gt;chapters -->
<g id="edge9" class="edge">
<title>user_bans:w&#45;&gt;chapters:e</title>
<path fill="none" stroke="#000000" d="M341.9322,-580.1154C257.5244,-559.8827 364.6348,-352.7 259.5,-352.7"/>
<polygon fill="#000000" stroke="#000000" points="348.5469,-580.8349 356.1107,-585.2789 352.5235,-581.2674 356.5,-581.7 356.5,-581.7 356.5,-581.7 352.5235,-581.2674 356.8893,-578.1211 348.5469,-580.8349 348.5469,-580.8349"/>
<ellipse fill="none" stroke="#000000" cx="345.3657" cy="-580.4888" rx="3.2" ry="3.2"/>
</g>
<!-- user_bans&#45;&gt;users -->
<g id="edge10" class="edge">
<title>user_bans:w&#45;&gt;users:e</title>
<path fill="none" stroke="#000000" d="M341.8853,-603.1159C226.6087,-593.6655 220.5307,-472.7 96,-472.7"/>
<polygon fill="#000000" stroke="#000000" points="348.5064,-603.3805 356.3562,-607.2971 352.5032,-603.5402 356.5,-603.7 356.5,-603.7 356.5,-603.7 352.5032,-603.5402 356.6438,-600.1029 348.5064,-603.3805 348.5064,-603.3805"/>
<ellipse fill="none" stroke="#000000" cx="345.3089" cy="-603.2527" rx="3.2" ry="3.2"/>
</g>
<!-- user_chapter_roles -->
<g id="node8" class="node">
<title>user_chapter_roles</title>
<g id="a_node8"><a xlink:href="../../tables/user_chapter_roles.html" xlink:title="user_chapter_roles" target="_top">
<polygon fill="#ffffff" stroke="transparent" points="335,-259.2 335,-408.2 472,-408.2 472,-259.2 335,-259.2"/>
<polygon fill="#f5f5f5" stroke="transparent" points="335.5,-384.7 335.5,-407.7 472.5,-407.7 472.5,-384.7 335.5,-384.7"/>
<polygon fill="none" stroke="#000000" points="335.5,-384.7 335.5,-407.7 472.5,-407.7 472.5,-384.7 335.5,-384.7"/>
<text text-anchor="start" x="340.4338" y="-393.8" font-family="Helvetica,sans-Serif" font-weight="bold" font-size="11.00" fill="#000000">user_chapter_roles</text>
<text text-anchor="start" x="438.0219" y="-392.8" font-family="Helvetica,sans-Serif" font-size="11.00" fill="#000000">[table]</text>
<polygon fill="none" stroke="#000000" points="335.5,-362.7 335.5,-384.7 472.5,-384.7 472.5,-362.7 335.5,-362.7"/>
<image xlink:href="../../images/primaryKeys.png" width="11px" height="12px" preserveAspectRatio="xMinYMin meet" x="340.5" y="-379.7"/>
<text text-anchor="start" x="357.5" y="-369.8" font-family="Helvetica,sans-Serif" font-size="11.00" fill="#000000">id</text>
<polygon fill="none" stroke="#000000" points="335.5,-340.7 335.5,-362.7 472.5,-362.7 472.5,-340.7 335.5,-340.7"/>
<image xlink:href="../../images/primaryKeys.png" width="11px" height="12px" preserveAspectRatio="xMinYMin meet" x="340.5" y="-357.7"/>
<text text-anchor="start" x="357.5" y="-347.8" font-family="Helvetica,sans-Serif" font-size="11.00" fill="#000000">user_id</text>
<polygon fill="none" stroke="#000000" points="335.5,-318.7 335.5,-340.7 472.5,-340.7 472.5,-318.7 335.5,-318.7"/>
<image xlink:href="../../images/primaryKeys.png" width="11px" height="12px" preserveAspectRatio="xMinYMin meet" x="340.5" y="-335.7"/>
<text text-anchor="start" x="357.5" y="-325.8" font-family="Helvetica,sans-Serif" font-size="11.00" fill="#000000">chapter_id</text>
<polygon fill="none" stroke="#000000" points="335.5,-296.7 335.5,-318.7 472.5,-318.7 472.5,-296.7 335.5,-296.7"/>
<image xlink:href="../../images/primaryKeys.png" width="11px" height="12px" preserveAspectRatio="xMinYMin meet" x="340.5" y="-313.7"/>
<text text-anchor="start" x="357.5" y="-303.8" font-family="Helvetica,sans-Serif" font-size="11.00" fill="#000000">role_name</text>
<polygon fill="none" stroke="#000000" points="335.5,-277.7 335.5,-296.7 472.5,-296.7 472.5,-277.7 335.5,-277.7"/>
<text text-anchor="start" x="338.5" y="-283.8" font-family="Helvetica,sans-Serif" font-size="11.00" fill="#000000">...</text>
<polygon fill="#ffffff" stroke="transparent" points="335.5,-258.7 335.5,-277.7 389.5,-277.7 389.5,-258.7 335.5,-258.7"/>
<polygon fill="none" stroke="#000000" points="335.5,-258.7 335.5,-277.7 389.5,-277.7 389.5,-258.7 335.5,-258.7"/>
<text text-anchor="start" x="338.5" y="-264.8" font-family="Helvetica,sans-Serif" font-size="11.00" fill="#000000">&lt; 2</text>
<polygon fill="#ffffff" stroke="transparent" points="389.5,-258.7 389.5,-277.7 443.5,-277.7 443.5,-258.7 389.5,-258.7"/>
<polygon fill="none" stroke="#000000" points="389.5,-258.7 389.5,-277.7 443.5,-277.7 443.5,-258.7 389.5,-258.7"/>
<text text-anchor="start" x="408.1105" y="-264.8" font-family="Helvetica,sans-Serif" font-size="11.00" fill="#000000">0 rows</text>
<polygon fill="#ffffff" stroke="transparent" points="443.5,-258.7 443.5,-277.7 472.5,-277.7 472.5,-258.7 443.5,-258.7"/>
<polygon fill="none" stroke="#000000" points="443.5,-258.7 443.5,-277.7 472.5,-277.7 472.5,-258.7 443.5,-258.7"/>
<text text-anchor="start" x="463.3862" y="-264.8" font-family="Helvetica,sans-Serif" font-size="11.00" fill="#000000"> &#160;</text>
</a>
</g>
</g>
<!-- user_chapter_roles&#45;&gt;chapters -->
<g id="edge11" class="edge">
<title>user_chapter_roles:w&#45;&gt;chapters:e</title>
<path fill="none" stroke="#000000" d="M320.9175,-331.2091C297.7867,-336.326 289.2765,-352.7 259.5,-352.7"/>
<polygon fill="#000000" stroke="#000000" points="327.5425,-330.5235 335.8706,-333.2809 331.5212,-330.1118 335.5,-329.7 335.5,-329.7 335.5,-329.7 331.5212,-330.1118 335.1294,-326.1191 327.5425,-330.5235 327.5425,-330.5235"/>
<ellipse fill="none" stroke="#000000" cx="324.3595" cy="-330.853" rx="3.2" ry="3.2"/>
</g>
<!-- user_chapter_roles&#45;&gt;users -->
<g id="edge12" class="edge">
<title>user_chapter_roles:w&#45;&gt;users:e</title>
<path fill="none" stroke="#000000" d="M321.5868,-355.8635C310.3215,-364.7382 311.5836,-385.685 294,-397.7 216.3046,-450.7898 190.1016,-472.7 96,-472.7"/>
<polygon fill="#000000" stroke="#000000" points="327.8358,-353.9935 336.5321,-355.1489 331.6679,-352.8468 335.5,-351.7 335.5,-351.7 335.5,-351.7 331.6679,-352.8468 334.4679,-348.2511 327.8358,-353.9935 327.8358,-353.9935"/>
<ellipse fill="none" stroke="#000000" cx="324.7701" cy="-354.9109" rx="3.2" ry="3.2"/>
</g>
<!-- user_event_roles -->
<g id="node9" class="node">
<title>user_event_roles</title>
<g id="a_node9"><a xlink:href="../../tables/user_event_roles.html" xlink:title="user_event_roles" target="_top">
<polygon fill="#ffffff" stroke="transparent" points="521,-549.2 521,-698.2 648,-698.2 648,-549.2 521,-549.2"/>
<polygon fill="#f5f5f5" stroke="transparent" points="521.5,-674.7 521.5,-697.7 648.5,-697.7 648.5,-674.7 521.5,-674.7"/>
<polygon fill="none" stroke="#000000" points="521.5,-674.7 521.5,-697.7 648.5,-697.7 648.5,-674.7 521.5,-674.7"/>
<text text-anchor="start" x="526.3222" y="-683.8" font-family="Helvetica,sans-Serif" font-weight="bold" font-size="11.00" fill="#000000">user_event_roles</text>
<text text-anchor="start" x="614.0219" y="-682.8" font-family="Helvetica,sans-Serif" font-size="11.00" fill="#000000">[table]</text>
<polygon fill="none" stroke="#000000" points="521.5,-652.7 521.5,-674.7 648.5,-674.7 648.5,-652.7 521.5,-652.7"/>
<image xlink:href="../../images/primaryKeys.png" width="11px" height="12px" preserveAspectRatio="xMinYMin meet" x="526.5" y="-669.7"/>
<text text-anchor="start" x="545.5" y="-659.8" font-family="Helvetica,sans-Serif" font-size="11.00" fill="#000000">id</text>
<polygon fill="none" stroke="#000000" points="521.5,-630.7 521.5,-652.7 648.5,-652.7 648.5,-630.7 521.5,-630.7"/>
<image xlink:href="../../images/primaryKeys.png" width="11px" height="12px" preserveAspectRatio="xMinYMin meet" x="526.5" y="-647.7"/>
<text text-anchor="start" x="545.5" y="-637.8" font-family="Helvetica,sans-Serif" font-size="11.00" fill="#000000">user_id</text>
<polygon fill="none" stroke="#000000" points="521.5,-608.7 521.5,-630.7 648.5,-630.7 648.5,-608.7 521.5,-608.7"/>
<image xlink:href="../../images/primaryKeys.png" width="11px" height="12px" preserveAspectRatio="xMinYMin meet" x="526.5" y="-625.7"/>
<text text-anchor="start" x="545.5" y="-615.8" font-family="Helvetica,sans-Serif" font-size="11.00" fill="#000000">event_id</text>
<polygon fill="none" stroke="#000000" points="521.5,-586.7 521.5,-608.7 648.5,-608.7 648.5,-586.7 521.5,-586.7"/>
<image xlink:href="../../images/primaryKeys.png" width="11px" height="12px" preserveAspectRatio="xMinYMin meet" x="526.5" y="-603.7"/>
<text text-anchor="start" x="545.5" y="-593.8" font-family="Helvetica,sans-Serif" font-size="11.00" fill="#000000">role_name</text>
<polygon fill="none" stroke="#000000" points="521.5,-567.7 521.5,-586.7 648.5,-586.7 648.5,-567.7 521.5,-567.7"/>
<text text-anchor="start" x="524.5" y="-573.8" font-family="Helvetica,sans-Serif" font-size="11.00" fill="#000000">...</text>
<polygon fill="#ffffff" stroke="transparent" points="521.5,-548.7 521.5,-567.7 570.5,-567.7 570.5,-548.7 521.5,-548.7"/>
<polygon fill="none" stroke="#000000" points="521.5,-548.7 521.5,-567.7 570.5,-567.7 570.5,-548.7 521.5,-548.7"/>
<text text-anchor="start" x="524.5" y="-554.8" font-family="Helvetica,sans-Serif" font-size="11.00" fill="#000000">&lt; 2</text>
<polygon fill="#ffffff" stroke="transparent" points="570.5,-548.7 570.5,-567.7 622.5,-567.7 622.5,-548.7 570.5,-548.7"/>
<polygon fill="none" stroke="#000000" points="570.5,-548.7 570.5,-567.7 622.5,-567.7 622.5,-548.7 570.5,-548.7"/>
<text text-anchor="start" x="587.1105" y="-554.8" font-family="Helvetica,sans-Serif" font-size="11.00" fill="#000000">0 rows</text>
<polygon fill="#ffffff" stroke="transparent" points="622.5,-548.7 622.5,-567.7 648.5,-567.7 648.5,-548.7 622.5,-548.7"/>
<polygon fill="none" stroke="#000000" points="622.5,-548.7 622.5,-567.7 648.5,-567.7 648.5,-548.7 622.5,-548.7"/>
<text text-anchor="start" x="639.3862" y="-554.8" font-family="Helvetica,sans-Serif" font-size="11.00" fill="#000000"> &#160;</text>
</a>
</g>
</g>
<!-- user_event_roles&#45;&gt;events -->
<g id="edge13" class="edge">
<title>user_event_roles:w&#45;&gt;events:e</title>
<path fill="none" stroke="#000000" d="M507.5845,-615.8474C440.94,-573.9096 543.7991,-203.7 455.5,-203.7"/>
<polygon fill="#000000" stroke="#000000" points="513.79,-617.5654 520.5394,-623.1695 517.645,-618.6327 521.5,-619.7 521.5,-619.7 521.5,-619.7 517.645,-618.6327 522.4606,-616.2305 513.79,-617.5654 513.79,-617.5654"/>
<ellipse fill="none" stroke="#000000" cx="510.706" cy="-616.7116" rx="3.2" ry="3.2"/>
</g>
<!-- user_event_roles&#45;&gt;users -->
<g id="edge14" class="edge">
<title>user_event_roles:w&#45;&gt;users:e</title>
<path fill="none" stroke="#000000" d="M507.6421,-645.918C498.5574,-652.7066 495.5945,-665.7912 480,-670.7 415.1376,-691.1172 392.1062,-690.3261 327,-670.7 229.9865,-641.4555 206.1739,-618.7394 137,-544.7 111.8602,-517.792 132.8246,-472.7 96,-472.7"/>
<polygon fill="#000000" stroke="#000000" points="513.8467,-644.0295 522.5483,-645.144 517.6733,-642.8648 521.5,-641.7 521.5,-641.7 521.5,-641.7 517.6733,-642.8648 520.4517,-638.256 513.8467,-644.0295 513.8467,-644.0295"/>
<ellipse fill="none" stroke="#000000" cx="510.7853" cy="-644.9613" rx="3.2" ry="3.2"/>
</g>
<!-- user_instance_roles -->
<g id="node10" class="node">
<title>user_instance_roles</title>
<g id="a_node10"><a xlink:href="../../tables/user_instance_roles.html" xlink:title="user_instance_roles" target="_top">
<polygon fill="#ffffff" stroke="transparent" points="145,-708.7 145,-794.7 286,-794.7 286,-708.7 145,-708.7"/>
<polygon fill="#f5f5f5" stroke="transparent" points="145.5,-771.7 145.5,-794.7 286.5,-794.7 286.5,-771.7 145.5,-771.7"/>
<polygon fill="none" stroke="#000000" points="145.5,-771.7 145.5,-794.7 286.5,-794.7 286.5,-771.7 145.5,-771.7"/>
<text text-anchor="start" x="150.2943" y="-780.8" font-family="Helvetica,sans-Serif" font-weight="bold" font-size="11.00" fill="#000000">user_instance_roles</text>
<text text-anchor="start" x="252.0219" y="-779.8" font-family="Helvetica,sans-Serif" font-size="11.00" fill="#000000">[table]</text>
<polygon fill="none" stroke="#000000" points="145.5,-749.7 145.5,-771.7 286.5,-771.7 286.5,-749.7 145.5,-749.7"/>
<image xlink:href="../../images/primaryKeys.png" width="11px" height="12px" preserveAspectRatio="xMinYMin meet" x="150.5" y="-766.7"/>
<text text-anchor="start" x="167.5" y="-756.8" font-family="Helvetica,sans-Serif" font-size="11.00" fill="#000000">user_id</text>
<polygon fill="none" stroke="#000000" points="145.5,-727.7 145.5,-749.7 286.5,-749.7 286.5,-727.7 145.5,-727.7"/>
<image xlink:href="../../images/primaryKeys.png" width="11px" height="12px" preserveAspectRatio="xMinYMin meet" x="150.5" y="-744.7"/>
<text text-anchor="start" x="167.5" y="-734.8" font-family="Helvetica,sans-Serif" font-size="11.00" fill="#000000">role_name</text>
<polygon fill="#ffffff" stroke="transparent" points="145.5,-708.7 145.5,-727.7 201.5,-727.7 201.5,-708.7 145.5,-708.7"/>
<polygon fill="none" stroke="#000000" points="145.5,-708.7 145.5,-727.7 201.5,-727.7 201.5,-708.7 145.5,-708.7"/>
<text text-anchor="start" x="148.5" y="-714.8" font-family="Helvetica,sans-Serif" font-size="11.00" fill="#000000">&lt; 1</text>
<polygon fill="#ffffff" stroke="transparent" points="201.5,-708.7 201.5,-727.7 256.5,-727.7 256.5,-708.7 201.5,-708.7"/>
<polygon fill="none" stroke="#000000" points="201.5,-708.7 201.5,-727.7 256.5,-727.7 256.5,-708.7 201.5,-708.7"/>
<text text-anchor="start" x="221.1105" y="-714.8" font-family="Helvetica,sans-Serif" font-size="11.00" fill="#000000">0 rows</text>
<polygon fill="#ffffff" stroke="transparent" points="256.5,-708.7 256.5,-727.7 286.5,-727.7 286.5,-708.7 256.5,-708.7"/>
<polygon fill="none" stroke="#000000" points="256.5,-708.7 256.5,-727.7 286.5,-727.7 286.5,-708.7 256.5,-708.7"/>
<text text-anchor="start" x="277.3862" y="-714.8" font-family="Helvetica,sans-Serif" font-size="11.00" fill="#000000"> &#160;</text>
</a>
</g>
</g>
<!-- user_instance_roles&#45;&gt;users -->
<g id="edge15" class="edge">
<title>user_instance_roles:w&#45;&gt;users:e</title>
<path fill="none" stroke="#000000" d="M132.0413,-754.9471C93.0374,-714.3564 155.4846,-472.7 96,-472.7"/>
<polygon fill="#000000" stroke="#000000" points="138.1438,-757.5556 144.085,-764.0103 141.8219,-759.1278 145.5,-760.7 145.5,-760.7 145.5,-760.7 141.8219,-759.1278 146.915,-757.3897 138.1438,-757.5556 138.1438,-757.5556"/>
<ellipse fill="none" stroke="#000000" cx="135.2014" cy="-756.2978" rx="3.2" ry="3.2"/>
</g>
</g>
</svg>
